<?xml version="1.0" encoding="utf-8"?>
<!-- Generator: Adobe Illustrator 19.0.1, SVG Export Plug-In . SVG Version: 6.00 Build 0)  -->
<svg version="1.1" id="Layer_1" xmlns="http://www.w3.org/2000/svg" xmlns:xlink="http://www.w3.org/1999/xlink" x="0px" y="0px"
	 viewBox="0 0 330.4 109.9" style="enable-background:new 0 0 330.4 109.9;" xml:space="preserve">
<style type="text/css">
	.st0{fill:#FFFFFF;}
</style>
<g>
	<path class="st0" d="M3.4,99.8C1.1,97.4,0,94.2,0,90.4c0-3.8,1-7.7,3.1-11.7c2.1-4,4.6-7.7,7.5-11.3c2.9-3.5,6-6.8,9.2-9.9
		c3.2-3.1,6-5.7,8.3-7.8c7.5-6.7,15-13,22.4-18.7c7.4-5.8,14.2-10.8,20.4-15.1C77,11.6,82.1,8.1,86.4,5.4c4.2-2.7,6.9-4.4,8.2-5.2V0
		h0.9c1.2,0,2.7,0.3,4.4,0.8c1.7,0.5,2.4,1.4,2.1,2.6c-3.1,4-6,7.9-8.7,11.8c-2.8,3.9-5.2,7.4-7.2,10.6c-2.1,3.1-3.8,5.8-5.1,7.8
		c-1.3,2.1-2,3.3-2,3.8h-0.2c-0.2,0.2-0.4,0.2-0.7,0.2h-1.6c-0.9,0-1.9,0-3-0.1c-1.1-0.1-1.6-0.7-1.6-1.7v-0.2
		c0-0.3,0.2-0.9,0.7-1.8s0.7-1.7,0.7-2.3l0.2-0.2c0.8-1.5,2.1-3.8,4-6.7c1.9-2.9,4.4-5.9,7.5-9l-0.9,0.7
		c-9.2,6.1-18.3,12.5-27.3,19.2S38.9,49.3,30.1,56.8c-2.9,2.6-5.9,5.3-8.9,7.9c-3,2.7-5.8,5.4-8.3,8.3c-2.5,2.8-4.6,5.8-6.2,8.7
		c-1.6,3-2.4,6-2.4,9.1c0,4,1.3,7,3.9,9.1c2.6,2.1,5.8,3.5,9.7,4.4c3.8,0.8,7.8,1.2,11.8,0.9c4.1-0.2,7.6-0.7,10.7-1.3
		c2.3-0.5,4.7-1.1,7.1-2.1c2.5-0.9,4.7-1.8,6.7-2.8c2-0.9,3.6-1.7,4.9-2.4c1.3-0.7,2-1,2.2-1l0.2-0.2h-0.2c0,0.2,0.7,0.5,2.2,1.2
		c1.5,0.6,2.2,1.6,2.2,3c0,0.5-0.2,0.9-0.7,1.3c-0.5,0.4-1,0.7-1.6,1c-0.3,0.3-1.1,0.9-2.3,1.7c-1.2,0.8-2.9,1.7-5.1,2.6
		c-2.1,0.9-4.8,1.8-7.9,2.5c-3.1,0.8-6.8,1.2-10.9,1.2c-2.6,0-5.5-0.2-8.6-0.5c-3.1-0.3-6.2-0.8-9.3-1.5c-3.1-0.7-6-1.7-8.9-3
		C7.6,103.7,5.3,102,3.4,99.8z"/>
	<path class="st0" d="M61.2,102.1c0-1.2,0.2-2.5,0.7-3.7c-1.7,1.1-3.4,1.9-5.2,2.5c-1.8,0.6-3.3,1.1-4.7,1.6
		c-1.7,0.6-3.2,1.1-4.6,1.4c-0.2,0-0.4-0.2-0.7-0.5c0-0.3,0.3-0.6,0.9-0.9c3.1-1.2,6.2-2.8,9.4-4.7c3.2-1.9,6.1-4.1,8.5-6.6
		c4-4,7.2-6.8,9.8-8.4c2.5-1.6,4.3-2.4,5.2-2.4h0.2h0.2l0.5,0.5c0.3-0.3,0.7-0.5,1.3-0.5c0.5,0,1,0,1.3,0c2.9,0,5,1.1,6.2,3.2
		c1.2,2.1,1.8,4.3,1.8,6.4c0,3.4-0.8,6.6-2.5,9.7c0.5,0.3,1.2,0.5,2.2,0.6c1,0.1,2,0.1,3.1,0.1c2.5,0,4.3-0.2,5.6-0.7
		c1.3-0.5,2-0.7,2.2-0.7c0.6,0.3,0.9,0.6,0.9,0.9l-0.2,0.2l-0.9,0.7c-0.8,0.6-2.4,1.3-4.9,2.2c-2.5,0.8-5.6,1.3-9.1,1.3h-0.2
		c-0.3,0-0.6,0-0.9-0.1c-0.3-0.1-0.6-0.1-0.9-0.1c-2.1,2-4.5,3.5-7.1,4.4c-2.6,0.9-5.1,1.4-7.6,1.4c-2,0-4.2-0.6-6.7-1.7
		C62.4,107.1,61.2,105,61.2,102.1z M68.8,101.4c0,0.5,0.2,0.9,0.7,1.3c0.5,0.4,1.5,0.6,3.2,0.6c1.2,0,2.5-0.1,3.7-0.2
		c1.2-0.2,2.4-0.6,3.4-1.4c-1.8-1.2-3.1-2.8-3.7-4.6c-0.6-1.8-0.9-3.4-0.9-4.6c-1.2,1.1-2.3,2-3.1,2.9c-0.8,0.8-1.6,1.8-2.3,2.9
		C69.1,99.3,68.8,100.4,68.8,101.4z M82.8,87.9c-0.6,1.2-0.9,2.8-0.9,4.6c0,0.6,0.2,1.4,0.5,2.4c0.3,1,1.1,2,2.3,3.1
		c1.2-1.2,2.1-2.7,2.8-4.5c0.6-1.8,0.9-3.4,0.9-4.9c0-1.2-0.4-2.5-1.3-3.7c-0.8-1.2-2-1.8-3.6-1.8c0,0.3,0.2,0.7,0.6,1.2
		c0.4,0.5,0.6,1,0.6,1.6c0,0.6-0.5,1.1-1.4,1.4H83c0,0.2,0,0.3-0.1,0.3C82.8,87.6,82.8,87.7,82.8,87.9z"/>
	<path class="st0" d="M149.5,98.9c0.8,0,1,0.3,0.7,0.8c-0.3,0.5-0.6,1-0.9,1.3c-0.3,0.3-1,0.9-2.2,1.7c-1.1,0.8-2.6,1.7-4.4,2.6
		c-1.8,0.9-3.7,1.7-5.8,2.4c-2.1,0.7-4.3,1-6.6,1c-0.3,0-0.9,0-1.7-0.1c-0.8-0.1-1.7-0.3-2.6-0.8c-0.9-0.5-1.7-1.1-2.4-2.1
		s-1-2.2-1-3.9c0-1.2,0.3-2.6,1-4c0.7-1.5,1.3-2.6,1.7-3.6c-0.8,0.6-2.3,1.7-4.5,3.2c-2.2,1.5-4.6,3.1-7,4.7c-2.5,1.6-4.8,3.1-7,4.4
		c-2.2,1.3-3.8,2-4.7,2c-2.8,0-4.1-1.1-4.1-3.2c0.3-1.2,0.5-1.9,0.7-2.1c0.8-2,2-3.9,3.7-5.9c1.7-1.9,3.3-3.7,4.8-5.4
		c1.7-2,2.9-3.3,3.7-4c0.8-0.7,1.3-1.3,1.6-2c0-0.3-0.2-0.5-0.7-0.5c-2.1,0-4.3,0.4-6.3,1.3c-2.1,0.8-3.9,1.6-5.4,2.2
		c-0.5,0-0.7-0.2-0.7-0.7c0-1.2,2.5-2.8,7.6-4.8c0.8-0.3,1.7-0.6,2.9-0.9c1.1-0.3,2.1-0.4,2.9-0.2c0.6,0,1.3,0.3,2.2,1
		c0.8,0.7,1.3,1.5,1.3,2.4c0,0.6-0.5,1.8-1.6,3.6c-1.1,1.8-2.5,3.9-4.1,6.3c5.7-3.8,10.7-7.3,15-10.5c4.3-3.1,6.8-4.9,7.6-5.4
		c0.9-0.3,2.3-0.1,4.3,0.6c1.9,0.7,2.9,1.4,2.9,2.2c0,0.5-0.1,0.8-0.2,1.2c-0.5,1.2-1.5,3.1-3.2,5.6c-1.7,2.5-4,6.5-6.9,11.8
		c-0.2,0.3-0.3,0.7-0.5,1.2c0,0.6,1.2,0.9,3.7,0.9c5.2,0,9.2-0.7,12.1-2.2c2.8-1.5,4.2-2.2,4-2.2H149.5z"/>
	<path class="st0" d="M161,101.4c-0.5,1.2,0.2,1.8,1.8,1.8c1.8,0,3.8-0.2,5.9-0.6c2.1-0.4,4-0.8,5.8-1.4c1.8-0.5,3.2-1,4.4-1.5
		s1.8-0.8,2-0.9c0.3-0.3,0.8-0.2,1.5,0.2c0.7,0.5,0.9,0.9,0.6,1.4c0,0.3-0.4,0.6-1.1,0.9c-0.3,0.3-0.6,0.5-0.9,0.7
		c-2.1,1.3-4.1,2.2-5.9,3c-1.8,0.7-3.8,1.4-6.1,2.1c-2.3,0.6-4.8,1-7.4,1h-0.7c-0.9,0-2-0.4-3.3-1.2c-1.3-0.8-2-1.8-2-3
		c0-1.7,0.4-3.4,1.2-5.1c0.8-1.7,1.5-3.4,2.3-5.1v-0.2c0.2-0.2,0.2-0.3,0.2-0.3c0-0.1,0.1-0.2,0.2-0.3c-1.1,0.8-2.5,1.8-4.3,3.2
		c-1.8,1.4-3.5,2.7-5.2,3.9c-1.7,1.2-3.2,2.1-4.6,2.8c-1.4,0.6-2.2,0.5-2.5-0.2c0-0.3,0.1-0.6,0.2-0.9c0.9-0.5,2.5-1.6,4.6-3.4
		c2.1-1.8,4.6-4.1,7.4-6.9c2.8-2.8,5.7-5.9,8.7-9.3c3.1-3.4,6.1-7,9.2-10.7c-5.5,0-11,0-16.4-0.1c-5.4-0.1-10.4-0.1-15-0.1
		c-4.5,0-8.3,0-11.3-0.1c-3-0.1-4.8-0.1-5.4-0.1h-0.2c-0.2-0.2-0.6-0.7-1.3-1.5c-0.7-0.8-1-2-1-3.6c0-1.1,0.2-1.7,0.6-1.8
		c0.4-0.2,1-0.3,1.7-0.5h0.2c1.1,0,2.4,0,4,0c1.6,0,4.2,0,7.8,0.1c3.6,0.1,8.6,0.2,14.9,0.3c6.4,0.2,14.9,0.5,25.6,0.9
		c2.6-3.7,5.1-7.1,7.4-10.1c2.3-3.1,4.2-5.4,5.8-7.1c0.8-1.2,1.4-2.1,2-2.5c0.5-0.5,1-0.8,1.3-1.1c-0.2,0,0.1,0,0.7,0.1
		c0.6,0.1,1.3,0.2,2.1,0.5c0.8,0.2,1.5,0.5,2.1,0.9c0.6,0.4,0.9,0.9,0.9,1.5c0,0.9-0.2,1.7-0.7,2.3c-0.8,1.1-2,2.8-3.6,5.1
		c-1.6,2.3-4.4,6.1-8.4,11.5c10.6,0.8,18.4,1.4,23.6,2c5.1,0.5,8.7,1,10.7,1.3c2,0.3,2.9,0.6,2.9,0.8c-0.1,0.2-0.1,0.4-0.1,0.6
		c-0.2,0-0.2,0.1-0.2,0.2l-0.5,0.5h-0.2c-0.3,0-3.8,0-10.3,0.1c-6.6,0.1-16.6,0.1-30.1,0.1c-1.7,1.7-3.6,3.7-5.6,6.2
		c-2.1,2.4-4.1,5.1-6.1,7.9c-2,2.8-3.9,5.6-5.6,8.4C163.2,96.6,161.9,99.2,161,101.4z"/>
	<path class="st0" d="M182.1,108.6c-2,0-3.5-0.8-4.5-2.5c-1-1.7-1.3-3.4-1-5.3c0.5-3.4,1.7-6.4,3.7-9c2-2.6,4.3-4.8,7-6.6
		c2.7-1.8,5.5-3.1,8.5-4c3-0.9,5.7-1.4,8.2-1.4c1.4,0,3.1,0.4,5.1,1.2c2,0.8,3,1.8,3,3c0,0.5-0.4,1.1-1.2,2
		c-0.8,0.8-1.4,1.6-1.8,2.2c0,0.2-0.3,0.7-0.9,1.5c-0.6,0.8-1.3,1.8-2.2,3c-0.8,1.2-1.6,2.4-2.2,3.7c-0.6,1.3-0.9,2.6-0.9,3.8
		c0,2.1,1.2,3.2,3.5,3.2c1.8-0.2,3.9-0.6,6.2-1.4c2.3-0.8,4.1-1.4,5.5-1.8l3.2-1.2c0.8-0.3,1.1-0.5,1-0.5c-0.1,0,0,0,0.3,0
		c0.5,0,0.7,0.3,0.7,0.9l-0.2,0.2l-0.9,0.7c-0.2,0.2-0.7,0.7-1.7,1.5c-1,0.8-2.3,1.7-3.9,2.6c-1.6,0.9-3.4,1.8-5.4,2.5
		c-2,0.8-4.1,1.2-6.2,1.2c-2,0-3.6-0.6-4.9-1.8c-1.3-1.2-2.3-2.8-2.9-4.8c-2.1,1.4-4.4,2.9-6.8,4.6
		C187.9,107.7,185.2,108.6,182.1,108.6z M184,99.6c-0.3,0.3-0.6,0.8-0.8,1.4c-0.2,0.6-0.2,1.1,0.1,1.4c0.2,0.3,1,0.2,2.5-0.5
		c3.1-1.1,5.4-2.1,7-3.2c1.6-1.1,2.9-2.2,3.8-3.5c0.9-1.2,1.7-2.5,2.3-3.7c0.6-1.2,1.4-2.5,2.3-3.9c-1.7,0-4.1,0.8-7.1,2.3
		C191,91.5,187.7,94.7,184,99.6z"/>
	<path class="st0" d="M240.3,89.8c0.9-1,1.5-1.8,1.8-2.4h-0.7c-0.5,0-1.3,0.2-2.5,0.5c-1.2,0.3-2.6,0.8-4.1,1.6
		c-1.5,0.8-3.1,1.8-4.7,3.1c-1.6,1.3-3,3-4.3,4.9c-0.3,0.8-0.4,1.2-0.3,1.4c0.1,0.2,0.1,0.3,0.1,0.5v0.2c0.2,0.2,0.3,0.4,0.5,0.8
		c0.2,0.4,0.6,0.8,1.3,1.2c0.7,0.4,1.8,0.7,3.3,1c1.5,0.3,3.8,0.5,6.7,0.5c5.5,0,10.1-0.7,13.8-2c3.7-1.3,5.6-2.1,5.8-2.4
		c0.6,0,1,0.1,1.1,0.2c0,0.3-0.1,0.7-0.2,1.2c-2,1.5-4.2,2.8-6.7,3.9c-2.1,1.1-4.7,2-7.7,2.8c-3,0.8-6.4,1.3-10.2,1.6H232
		c-1.2,0-2.6-0.2-4.1-0.5c-1.5-0.3-3-0.8-4.4-1.6c-1.4-0.8-2.5-1.7-3.5-2.9c-0.9-1.2-1.4-2.6-1.4-4.3c0-2.9,0.9-5.6,2.6-7.9
		c1.8-2.4,3.9-4.4,6.6-6c2.6-1.6,5.4-2.9,8.4-3.8c3-0.9,5.8-1.5,8.4-1.6c1.1,0,2.1,0.2,3,0.7c0.8,0.3,1.5,0.8,2.1,1.6
		c0.6,0.8,0.9,2,0.9,3.7c0,1.5-0.6,2.8-1.8,3.9c-1.2,1.1-2.6,2-4.1,2.6c-1.5,0.7-3,1.2-4.3,1.5c-1.3,0.3-2.1,0.5-2.4,0.5l-0.2-0.2
		c-0.3,0-0.5-0.3-0.5-0.9v-0.2l1.2-1.2C238.8,91.5,239.4,90.8,240.3,89.8z"/>
	<path class="st0" d="M267.5,101.4c-0.5,1.2,0.2,1.8,1.8,1.8c1.8,0,3.8-0.2,5.9-0.6c2.1-0.4,4-0.8,5.8-1.4c1.8-0.5,3.2-1,4.4-1.5
		s1.8-0.8,2-0.9c0.3-0.3,0.8-0.2,1.5,0.2c0.7,0.5,0.9,0.9,0.6,1.4c0,0.3-0.4,0.6-1.2,0.9c-0.3,0.3-0.6,0.5-0.9,0.7
		c-2.1,1.3-4.1,2.2-5.9,3c-1.8,0.7-3.8,1.4-6.1,2.1c-2.3,0.6-4.8,1-7.4,1h-0.7c-0.9,0-2-0.4-3.3-1.2c-1.3-0.8-2-1.8-2-3
		c0-1.7,0.4-3.4,1.1-5.1c0.8-1.7,1.5-3.4,2.3-5.1v-0.2c0.2-0.2,0.2-0.3,0.2-0.3c0-0.1,0.1-0.2,0.2-0.3c-1.1,0.8-2.5,1.8-4.3,3.2
		c-1.8,1.4-3.5,2.7-5.2,3.9c-1.7,1.2-3.2,2.1-4.6,2.8c-1.4,0.6-2.2,0.5-2.5-0.2c0-0.3,0.1-0.6,0.2-0.9c0.9-0.5,2.5-1.6,4.6-3.4
		c2.1-1.8,4.6-4.1,7.4-6.9c2.8-2.8,5.7-5.9,8.7-9.3c3.1-3.4,6.1-7,9.2-10.7c-5.5,0-11,0-16.4-0.1c-5.4-0.1-10.4-0.1-15-0.1
		c-4.5,0-8.3,0-11.3-0.1c-3-0.1-4.8-0.1-5.4-0.1h-0.2c-0.2-0.2-0.6-0.7-1.3-1.5c-0.7-0.8-1-2-1-3.6c0-1.1,0.2-1.7,0.6-1.8
		c0.4-0.2,1-0.3,1.7-0.5h0.2c1.1,0,2.4,0,4,0s4.2,0,7.8,0.1c3.6,0.1,8.6,0.2,15,0.3c6.4,0.2,14.9,0.5,25.6,0.9
		c2.6-3.7,5.1-7.1,7.4-10.1c2.3-3.1,4.2-5.4,5.8-7.1c0.8-1.2,1.4-2.1,2-2.5c0.5-0.5,1-0.8,1.3-1.1c-0.2,0,0.1,0,0.7,0.1
		c0.6,0.1,1.3,0.2,2.1,0.5c0.8,0.2,1.5,0.5,2.1,0.9c0.6,0.4,0.9,0.9,0.9,1.5c0,0.9-0.2,1.7-0.7,2.3c-0.8,1.1-2,2.8-3.6,5.1
		s-4.4,6.1-8.4,11.5c10.6,0.8,18.4,1.4,23.6,2c5.1,0.5,8.7,1,10.7,1.3c2,0.3,3,0.6,2.9,0.8c-0.1,0.2-0.1,0.4-0.1,0.6
		c-0.2,0-0.2,0.1-0.2,0.2l-0.5,0.5h-0.2c-0.3,0-3.8,0-10.3,0.1c-6.6,0.1-16.6,0.1-30.1,0.1c-1.7,1.7-3.6,3.7-5.6,6.2
		c-2.1,2.4-4.1,5.1-6.1,7.9c-2,2.8-3.9,5.6-5.6,8.4C269.7,96.6,268.4,99.2,267.5,101.4z"/>
</g>
</svg>
