<?xml version="1.0" encoding="utf-8"?>
<!-- Generator: Adobe Illustrator 19.0.1, SVG Export Plug-In . SVG Version: 6.00 Build 0)  -->
<svg version="1.1" id="Layer_1" xmlns="http://www.w3.org/2000/svg" xmlns:xlink="http://www.w3.org/1999/xlink" x="0px" y="0px"
	 viewBox="0 0 591.9 272.1" style="enable-background:new 0 0 591.9 272.1;" xml:space="preserve">
<style type="text/css">
	.st0{fill:url(#SVGID_1_);}
	.st1{fill:url(#SVGID_2_);}
	.st2{fill:url(#SVGID_3_);}
	.st3{fill:url(#SVGID_4_);}
	.st4{fill:url(#SVGID_5_);}
	.st5{fill:url(#SVGID_6_);}
	.st6{fill:url(#SVGID_7_);}
	.st7{fill:url(#SVGID_8_);}
	.st8{fill:url(#SVGID_9_);}
	.st9{fill:url(#SVGID_10_);}
	.st10{fill:url(#SVGID_11_);}
	.st11{fill:url(#SVGID_12_);}
	.st12{fill:url(#SVGID_13_);}
	.st13{fill:url(#SVGID_14_);}
	.st14{fill:url(#SVGID_15_);}
	.st15{fill:url(#SVGID_16_);}
	.st16{fill:url(#SVGID_17_);}
	.st17{fill:url(#SVGID_18_);}
	.st18{fill:url(#SVGID_19_);}
	.st19{fill:url(#SVGID_20_);}
	.st20{fill:url(#SVGID_21_);}
	.st21{fill:url(#SVGID_22_);}
	.st22{fill:url(#SVGID_23_);}
	.st23{fill:url(#SVGID_24_);}
	.st24{fill:url(#SVGID_25_);}
	.st25{fill:url(#SVGID_26_);}
	.st26{fill:url(#SVGID_27_);}
	.st27{fill:url(#SVGID_28_);}
	.st28{fill:url(#SVGID_29_);}
	.st29{fill:url(#SVGID_30_);}
	.st30{fill:url(#SVGID_31_);}
	.st31{fill:url(#SVGID_32_);}
	.st32{fill:url(#SVGID_33_);}
	.st33{fill:url(#SVGID_34_);}
	.st34{fill:url(#SVGID_35_);}
	.st35{fill:url(#SVGID_36_);}
	.st36{fill:url(#SVGID_37_);}
	.st37{fill:url(#SVGID_38_);}
	.st38{fill:url(#SVGID_39_);}
	.st39{fill:url(#SVGID_40_);}
	.st40{fill:url(#SVGID_41_);}
	.st41{fill:url(#SVGID_42_);}
	.st42{fill:url(#SVGID_43_);}
	.st43{fill:url(#SVGID_44_);}
	.st44{fill:url(#SVGID_45_);}
	.st45{fill:url(#SVGID_46_);}
	.st46{fill:url(#SVGID_47_);}
</style>
<g>
	<linearGradient id="SVGID_1_" gradientUnits="userSpaceOnUse" x1="378.4421" y1="6.502887e-010" x2="378.4421" y2="229.1186">
		<stop  offset="0" style="stop-color:#70C281"/>
		<stop  offset="1" style="stop-color:#008170"/>
	</linearGradient>
	<path class="st0" d="M458.1,151.9c0.4,0.4,0.7,0.8,1.1,1.2c0,0,0,0,0,0c0.9-0.3,2.8-0.1,2.5-0.8c-1.7-3.4-0.8-7.9-4.8-10.5
		c-5.9-3.9-6.4-6.3-4.2-13.7c1.4,0.8,3,1.4,4.3,2.4c1.8,1.4,3.5,3,4.9,4.8c0.8,1.1,1.1,1.9,2.6,1.2c8.3-3.8,9.1-9.9,2.1-16.2
		c-1.5-1.3-2.9-2.8-4-4.4c-1.3-1.9,0.6-3,1.7-4.1c1.2-1.1,2.6-2.3,4.4-1c1.5,1.1,0.7,2.1-0.2,3.3c-0.7,1-0.7,2.3,0.9,2.7
		c1.6,0.4,3.2-0.7,2.6-2c-2.2-4.8,1.8-4.6,4.2-5.5c2-0.8,4.1-1.5,6-2.3c4.4-1.9,9.2-10.8,7.4-14.4c-1.6-3.3-3.5-6.6-6.4-9.1
		c-1.9-1.6-3.4-2.9-0.5-4.9c0.6-0.4,1.6-1.1,0.7-1.9c-0.5-0.5-1.7-1-2.2-0.8c-3.1,1.5-4.6-1.2-6.9-2.2c2.2-0.8,4.2-5.1,5-3.4
		c1.6,3.2,2.9,1.9,4.9,1.4c1.3-0.3,2.7,0.1,3.5,1.4c1.7,3.2,6.2,4.2,6.5,8.6c0.1,1.5,1.9,1,2.9,0.7c1.2-0.3,2.4-1.1,2.4-2.3
		c0-2.3-1.6-4.1-3.4-5.2c-2.6-1.6-3.9-2.9-2.3-6.4c1.1-2.3,1.1-4.2,4.5-3.4c2,0.5,3-1.3,3.7-3.3c1.5-4.7,1.7-9.3-1-14.2
		c2.3,0.7,2.7,2.3,3.9,3.2c1,0.8,1.1,3.6,3,2.1c1.5-1.2,0.4-2.8-0.9-4.2c-4.6-4.8-9.9-7.4-16.6-7.1c-1.8,0.1-5.5-0.6-4.9-2.5
		c0.9-2.8,0.2-8.1,5.4-7.5c4.2,0.4,8.5-1.4,12.7,0.5c1.4,0.6,4.6,1.6,3.4-2.8c-0.7-2.5,1.7-3.3,4-2.3c1.3,0.6,2.2,2,4,1.1
		c0.9-0.4,0.7-2.7,2.3-1.5c1.4,1,0.3,2.3,0.2,3.6c-0.2,2.5-2.8,4.8-0.6,7.5c3.5,4.2,8,7,12.9,10.8c0-6.8,0.8-12.4-6-15.2
		c-1.6-0.7-1.6-3.4,0.9-3.3c5.9,0.4,9.8-3.6,15.1-5.6c-1.1-0.6-1.9-0.9-2.5-1.3c-1-0.7-3.1-0.7-2.5-2.4c0.6-1.7,2.5-1.4,4-1
		c1.8,0.4,3.5,1.2,5.2,1.6c1,0.2,2.5,0.8,3-0.7c0.4-1.3-0.7-2.1-1.7-2.8c-2.5-1.6-5.6-0.7-8.2-1.5c-13.1-4.2-26.4-4.9-40-4.2
		c-2.1,0.1-4.5,0.5-6.4-0.8c-3.1-2.1-6.6-2.1-10.1-1.8c-3.7,0.3-7.1-1-10.7-1.6c-5.4-0.9-10.7-2.2-16.4,0c-3.5,1.3-8.8,2.6-11.7,0.4
		c-5-3.7-9.6-2.9-15-2.7c-4.8,0.2-10.8,1.2-14.5-1.8C406.5-0.4,400.1,0.1,394,0c-10.1-0.2-19.8,2.7-28.9,7c-2.9,1.4-5.7,2.7-9,0
		c-2.1-1.7-6-0.3-5.6,2.6c0.6,4.9-1.8,3-4,2.7c-1.5-0.2-3.6-0.7-4.3,0.1c-2.8,2.6-6.1,1.7-9,1.6c-2.1,0-3.9,0.9-5.8,0.8
		c-2.3-0.2-3.5,4.8-6.9,0.5c-2.6-3.3-1.4,5.6-5.3,3c-1.6,0.5-1.7,3.4-4.1,2.6c-0.9,0.2-2.5,0.1-2.7,0.6c-0.6,1.6-1.2,1.2-1.9,0.3
		c-0.5-0.6-1.2-1.3-1.2-2c0-1.1,1.1-1,1.9-0.9c1.7,0.1,3.3,0.2,4.9,0.4c1-0.4,1.9-1,2.2-2.2l0,0c0,0,0,0,0,0
		c-8.8-4.1-17.8-7.4-27.7-6.5c-4.6,0.4-10.2,1.1-12.9,4.1c-3.9,4.5-7.5,8.8-13.4,10.6c-4.2,1.3-2.7,4.6-2,7c0.9,2.9,3.7,2.7,5.8,1.3
		c4-3,4.1,1.4,5.7,2.8c0.6,0.5,0.3,1.3-0.4,1.6c-0.7,0.3-1.8,0.9-2.1-0.2c-0.4-2.2-1.7-2.3-3.2-1.6c-1.6,0.7-1.4,2.1-1,3.4
		c1,2.9-0.5,3.5-3,3.4c-0.8,0-1.9,0.1-2.3,0.6c-4.9,5.7-11.3,8.6-18.6,9.9c0.5,1.6,1.6,1.7,2.5,2.1c2.5,1.3,3.8,3.1,3.2,6
		c-0.6,3.2-3.2,2.2-5.2,2.3c-2,0-4-0.3-6-0.3c-1.3,0-3.4-0.1-3.4,1.3c0.2,3.5-1.9,6.7-1.2,10.2c0.2,1.2,0.4,2.4,2,2.3
		c1.7-0.1,3,0.4,3.2,2.3c0.2,1.8-0.7,3.4-2.3,4.1c-3.5,1.6-5.4,4.1-6,7.9c-0.3,2-1.9,3.2-3.6,3.9c-6.1,2.8-8,8.9-11.4,13.9
		c-0.6,0.9-0.2,1.9,0.2,2.8c1.4,3.4,0.9,6.8-0.5,10.1c-1.5,3.7-1,7,2.2,9.7c2.2,1.8,3.7,4.1,5.2,6.5c2.4,3.7,6.9,8.1,10.5,7.3
		c5.6-1.1,11.5,0.9,16.9-2c3.7-1.9,8.2-3.8,11.1,1.8c0.5,1,1.6,0.9,2.6,0.9c6,0.1,6.8,0.7,5.3,6.6c-1.1,4.2,0.1,6.7,2.7,10.2
		c4.7,6.3,8.3,13.3,3.5,21.7c-2.1,3.7-2.7,7.9,0.5,12.2c2.2,2.9,3.6,6.5,3.9,10.6c0.2,2.5,0.4,5.3,2.2,7.6c2.6,3.1,4.5,6.5,4.5,10.7
		c0,1.7,1.3,3.2,2.9,2.8c6.5-1.4,14,0.5,19.1-5.4c3.3-3.7,8.1-6.6,8.2-12.4c0-1.4,1.1-2,2.3-2.3c4-1.1,4.3-4.1,3.2-7.1
		c-1-2.7-0.2-4.3,1.9-5.9c2-1.5,3.7-3.2,6.1-4.1c2.1-0.8,3.8-2.5,3.6-4.9c-0.3-3.7,0.2-7.5-1.4-11.3c-1.8-4.2-2.6-9,0.9-12.9
		c3.4-3.8,6.1-8.2,10.6-11c6.2-3.9,8.9-10.5,11.3-17.1c0.8-2.2,0.9-4.5-3-3.1c-2.9,1-6.1,1.2-9.2,1.8c-1.9,0.4-2.8-0.7-3.4-2.1
		c-0.5-1.1,0.1-1.8,1.4-2.1c7.4-1.7,13.9-5.6,20.7-8.9c4.6-2.3,7.9-5.9,9.5-10.3c1.5-4.1-3.5-3.8-5.6-5.5c-0.2-0.2-0.5-0.5-0.6-0.8
		c-1-3.6-2.5-1.7-4.1-0.5c-1.7,1.3-4.4,3.1-5.6,0.9c-1.6-2.8-4.2-4.3-6.1-6.7c-1-1.3-3.5-2.5-1.4-4.4c2-1.8,3.1,0.3,4.3,1.7
		c2.7,3.4,5.7,6,10.5,4.8c0.9-0.2,1.6-0.4,2.3,0.3c3.6,3.9,8.4,3.4,13,3c3.8-0.3,6.6,0.3,9.9,2.8c3.1,2.4,3.9,9.5,10.5,5.7
		c0.7,10,6.6,17.4,10.1,25.7c0.9,2.1,2.2,2,3.9,0.4c3.1-2.9,3.2-6.8,3.3-10.6c0-1.6-0.6-3.2,1.1-4.5c4.2-3.2,7.6-7,11.2-10.8
		c2.1-2.2,7.5-2.9,8.5-1.7c2.5,3.2,7.3,5.1,7.3,10.2c0,2.7,1.3,3.3,3.5,2c1.3-0.8,2.6-2,3.5,0.4c1,2.6,3,5.4,2.7,7.9
		c-0.9,8,5.1,13.1,7.4,19.7c0,0,0,0,0,0l0,0C457,150.2,457.7,150.9,458.1,151.9z M303.8,58.9c1.8-2.3,3.4-0.1,4.9,1.2
		c2.7,2.5,2.9,2.4,4.4-1.4c0.6-1.5,1.9-1.8,3.2-1.6c1.7,0.2,1.1,1.2,0.5,2.1c-1.2,1.8,0.2,2.2,1.4,2.8c1.3,0.6,2.7,1.3,4,2
		c1.4,0.8,3.5,1.5,3.1,3.4c-0.4,2.2-2.8,1.1-3.9,1.6c-2,0-3.5-0.3-5.1-1c-3.1-1.4-6.2-1.7-9.5,0.1c-1.8,1-4.8,1.9-6.1-0.7
		C298.8,63.9,301.9,61.3,303.8,58.9z M280,32c0.9-1.1,0.5-1.8-0.4-2.5c-3.2-2.4-1.4-4.3,1-5c3.1-0.8,3.6-6.2,8.3-4.2
		c-1.2,3-7.2,3.6-4.2,8.5c1.3,2.1,3,2.2,5,2c0,0,0.1,0,0.1-0.1l0,0c0,0,0.1,0,0.1,0c1.9-1.2,3.8-1.4,6.6-0.6
		c-2.5,1.4-4.6,0.7-6.6,0.6c0,0-0.1,0-0.1,0.1c0,0-0.1,0-0.1,0c-1,0.7-2,1.5-3.2,2.4c0.7,1.2,2.8-0.6,3,1.5
		c-0.1,0.1-0.2,0.6-0.3,0.6c-2.3-0.5-4.4-0.7-4.4,2.6c0,1.5-0.9,3-2.2,2.8c-4.3-0.6-8.7,2.9-13.6-0.8C275.2,40.3,277.2,35.7,280,32z
		 M310.4,89.5c-7.2,0.6-13.9-0.9-20.5-3.6c-1.3-0.5-3-0.1-4,1.4c-2.4,3.5-5.3,4-8.8,1.2c-0.8-0.6-1.4-1.7-2.3-1.8
		c-4.6-0.7-9-1.2-7.8-7.9c0.4-2.1-1.5-2.1-3.2-1.9c-7,0.8-14.2-0.3-20.7,3.6c-1.8,1.1-4.5,0.9-6.8-0.4c0.3-1.8,1.7-1.7,3-1.9
		c3.8-0.6,6-2.1,8.1-6c1.8-3.4,5.3-6.2,10.2-7.9c6.2-2.1,8.8,0.2,12.8,3.4c2.7,2.2,6.5,2.8,7.1,7.4c3.7-4.1,3.4-6.7-1.6-8.5
		c-2.6-0.9-4.2-3.4-4.9-6.5c4,4,11.3,3.4,13.1,10.5c0.6,2.5,3.3,4,4.2,6.7c0.5,1.3,2.4,1,3.3-0.3c0.6-1,3.3-1.6,0.9-3.3
		c-2.1-1.5-1.5-2.5,0.5-3.4c2-0.9,3.2-0.6,3.7,1.6c1.3,5.6,3.9,8.3,10.3,6.6c2-0.5,4.9,1.3,7.4,0c0.3-0.1,1,0.3,1.2,0.6
		c2,3.3-0.5,6.1-1.1,9C314.2,90,312.1,89.4,310.4,89.5z M315.7,157.5c-0.6,1.4-0.9,3.4-3,3.3c-1.4-0.1-1.8-1.3-1.6-2.5
		c0.2-1.7,1.4-2.5,3-2.5C315.3,155.8,316.3,156.2,315.7,157.5z M321.1,110.8c-1.1-3.8-4.1-7-6.1-10.6c-0.5-0.9-1.8-2-0.4-3
		c1.2-0.8,2.3,0.2,2.9,1.1c2.4,3.5,5.7,6.4,6.7,10.8c0.5,1.9,1.8,3.1,3.1,4.4c3.8,3.9,5.3,8.8,7.1,14.7
		C327.5,123.4,323.2,118.1,321.1,110.8z M350.3,77.1c-0.8,1-2.2,1.3-3.2,0.8c-2.5-1.3-7.4-0.7-5.3-6.2c1-2.7-1.8-3.5-3.2-5
		c-1.7-1.8-3.7-4.1-2.6-6.2c1.1-2.2,3.9-3.5,6.7-3.6c1,0,2.1,0.1,2.5,1.2c0.6,1.4-0.5,1.5-1.4,1.9c-2.9,1.2-2.5,3-0.2,4.3
		c1.8,1.1,2.6,3.6,5.1,3.7c0.7,0,1.1,0.6,0.9,1.4c-3.3,1.8-0.2,3.1,0.4,4.6C350.4,74.9,351.2,75.9,350.3,77.1z M364.4,16.4
		c-0.1,0.5-1,1.3-1.3,1.2c-2.1-0.9-0.6-3-1.9-4.6C363.5,13.5,364.8,14.3,364.4,16.4z M439.6,43.2c-0.1,0.3-1,0.6-1.2,0.5
		c-1.1-0.9-0.3-2.1-0.7-3.8C439.7,41,440.1,42,439.6,43.2z"/>
	<linearGradient id="SVGID_2_" gradientUnits="userSpaceOnUse" x1="289.8844" y1="30.8147" x2="289.8844" y2="30.8482">
		<stop  offset="0" style="stop-color:#70C281"/>
		<stop  offset="1" style="stop-color:#008170"/>
	</linearGradient>
	<path class="st1" d="M289.9,30.8C289.9,30.8,289.9,30.8,289.9,30.8L289.9,30.8z"/>
	<linearGradient id="SVGID_3_" gradientUnits="userSpaceOnUse" x1="97.1778" y1="3.8875" x2="97.1778" y2="272.1024">
		<stop  offset="0" style="stop-color:#70C281"/>
		<stop  offset="1" style="stop-color:#008170"/>
	</linearGradient>
	<path class="st2" d="M191.5,166.7c-7.6-4.8-16.7-6.1-24.8-9.6c-2.2-0.9-4-1.7-4.8-4.4c-1.4-4.7-4-9.7-9.4-9.5
		c-6.3,0.2-8.9-4.3-12.5-7.6c-2-1.8-4.1-3.3-6.4-2.4c-3.6,1.4-6.3-0.4-9.4-1.2c-3.1-0.8-6-2.1-9.6-0.7c-2.7,1.1-5.2,1.8-6.4,4.8
		c-0.3,0.8-1.4,1.9-2.4,1.1c-2.5-1.9-4.8-1.2-7.5-0.5c-2.7,0.7-5.5-2.8-5.2-5.9c0.2-1.5,0.5-3,1-4.4c1.2-2.9-0.5-4-2.9-4.5
		c-2-0.5-5,1.3-6.1-0.7c-1.2-2,1.6-4.1,2.1-6.4c0.1-0.3,0.3-0.6,0.4-0.9c0.4-1.1,0.9-2.3,0-3.3c-1.1-1.2-2.5-0.6-3.7-0.3
		c-1.6,0.4-2.4,1.6-3.2,3c-1.9,3.7-5.5,3.7-8.6,3.2c-3.1-0.6-3.9-3.7-4.4-6.6c-0.7-3.8,1.8-6.7,2.7-10c1.1-4,7.4-7.8,11.4-6.7
		c2.5,0.6,4.5,0.8,7-0.7c3.4-2.1,11.9,0.3,11.5,2.7c-0.7,4.2,2.1,3.6,4.3,4.5c1.1-11.2,1.1-11.2,11.4-17.2c1.3-0.7,3.1-1.3,3.3-2.8
		c1-6.4,6.3-8.3,11.1-10.8c1.5-0.8,3.1-0.9,3.9-3.1c1.3-3.3,6.9-4.3,9.9-2.3c0.7,0.5,1.3,0.2,1.8-0.2c2.6-2,6-1.8,8.8-3.5
		c-0.4-0.3-0.7-0.6-1.1-1c0,0,0,0,0,0c-1.4-1.1-6.5,1-3.8-3.7c1.8-3.1-0.2-3.2-2.2-4.3c5.9-0.7,11.6,0,17.3-2.6
		c-0.9,3.1-4.1,3.7-4.3,6.7c2.8,0.7,5.7,0.4,8.3,1.7c0.8,0.4,2.2,0.1,1.9-0.7c-2-4.5-1.2-9.2-1.5-13.8c0-0.6-0.7-1.4-1.2-1.5
		c-3.2-1-3.3-3.4-3.5-6.2c-0.2-2.8-0.9-6.1-5.1-2.7c-2.3,1.8-5.6,3.6-4.7-2.3c0.2-1-0.8-1.3-1.3-1.9c-2.6-2.9-6.4-2.6-9.1-1.9
		c-2.3,0.6-4.5,3.8-4.4,7.1c0.3,4.8-2.5,6.9-6.7,7.8c-1.6,0.3-3.3,0.1-3.6,2.5c-0.3,2.2-1.6,4.8-4.1,3.5c-2.2-1.2-0.3-3.5,0.5-5.2
		c0.2-0.4,0.2-0.9,0.4-1.9c-4.3,0.6-7.2-2.5-10.7-3.5c-2.5-0.7-3.1-2-3.6-3.7c-0.5-2,1.4-2.8,2.7-3.7c5.8-3.9,10.3-4.6,19.1-4.5
		c2.3,0,4.8-1,7.3-0.8c-0.1-2.8-2.9-2.7-3.8-4.5c4.6,0.2,7.9-1.7,10.6-5.3c2.3-2.9,7.2-2.4,9.7,1.2c2.2,3.1-2.2,1.9-2.8,3.4
		c-0.2,0.6-0.7,1.1-1.1,1.6c-0.3,0.6-0.7,1.3-1,1.9c0,0,0,0,0,0c3.3,3.7,6.7,5.5,12.1,3.3c4.4-1.8,0-4.5,1.4-6.2
		c1.5-0.2,1.9,1.1,2.7,1.4c2.4,0.8,4.5-0.3,5.5-2.2c0.9-1.7-1.3-2.3-2.6-2.9c-1-0.5-2.2-0.7-2.6-2.1c-1.5-5.8-6.8-6.4-11.2-7.7
		c-5.9-1.8-12.5,2.4-18.4-1.5c-0.6-0.4-2.1,0.7-3.2,1c-1.6,0.4-2.1,2.6-4,2.6c-0.8-1,2.2-1.9,0.3-2.6c-2.8-1-5.3,0.6-7.4,2
		c-1.4,1,0.6,2,1.5,2.2c3.8,0.9-0.2,3.4,1.1,4.8c0.1,0.1-0.9,0.8-1.6,0.3c-3-2.1-3.1-2.1-5.5,0.4c-2.9,2-5.7,0.8-9.1-0.2
		c0.6-0.3,1.2-0.5,1.7-0.6c0,0,0-0.1,0-0.1c0,0,0.1,0,0.1,0.1c1.3-0.2,2.4,0.1,3.5,0l0,0c0,0,0,0,0,0c4.4-1.2,0.6-6.9,4.8-8.6
		c-5.8,2.2-11,1.6-16.3-0.7c-5-2.1-9.7-0.6-14.1,2.2C90.7,7.5,89.9,8,90.2,9c0.3,1.1,1.3,0.9,2.1,0.8c1.8-0.1,3.4-1.5,5.6-0.4
		c-1.4,1.7-0.8,5-4.9,3.9c-6.5-1.7-13-2.4-19.8-0.9c-3,0.7-6.3,1.1-9.3,0.6c-13.7-2.5-27.4-5.1-41,0.4c-2,0.8-5.5-0.4-4.2,4.1
		c0.3,1.1-1.2,1.2-2.2,0.9c-2.5-0.9-4.9,0.4-7.3,0.8c-1.4,0.2-2.5,1.2-1.2,2.8c1.5,0,3.1,0,4.9,0c-1.1,2-2.6,1.6-4,1.7v0l0,0
		c-2.1,0.5-4.2,0.9-6.2,1.6c-1,0.3-2.6,0.2-2.7,1.8c0,1.4,1.5,1.5,2.4,2.1c5.8,3.2,12.3,2.7,18.3,1.8c4.7-0.7,9.2-1,13.8-0.2
		c2.9,0.5,4.2,2,3.9,5.2c-0.1,1.4-1.6,4.1,0.5,4.2c3.1,0.3,1,1.8,1.4,2.7c1.4,3.2-2.4,6.1-0.7,8.8c1.3,2.1,0.6,3.6-0.3,5
		c-1.5,2.4-3.4,4.5-5.2,6.6c-6.1,7-6.2,14.5-0.2,21.1c1,1.1,1,2.4,1.1,3.7c0.2,5.9,2.8,11,5.4,16.1c0.4,0.8,1.5,2.6,3.6,1.9
		c-1.8-4.7-3.4-9.2-5.3-13.6c-0.6-1.4-0.5-2.4,0.8-2.8c1.2-0.4,2.1,0.8,1.8,1.7c-0.7,3,2,4.4,2.7,6.6c1.8,5.4,9.1,8.4,6.8,15.7
		c-0.3,1,0.9,1.8,1.7,2.2c5.9,2.5,10.8,8.1,18.2,5.9c1.2-0.4,2.4,0.4,3,1.4c2,2.8,5,4,8.1,4.3c2.9,0.4,4.6,2.1,5.7,4.3
		c1.9,4.2,5.7,6.1,9.5,8c1,0.5,1.8,0.9,2.5-0.3c2.5-4.6,3.4-1.6,4.4,0.9c1.6,3.7,1.8,7-1.4,10.4c-2.3,2.5-5.7,5.1-4.5,9.4
		c0.4,1.6,0.7,2.6-0.5,4c-1.5,1.7-0.5,3.8,0.8,4.9c3.1,2.7,4.4,6.6,6.7,9.8c2.8,3.9,3.7,9.5,9.2,11.2c6.7,2.1,9.6,6.6,8.8,13.7
		c-0.1,1.1,0.3,2.3,0.3,3.5c-0.3,7.5,2.2,14.8,1.6,22.1c-0.5,5.8,1.8,10.7,2.2,16c0,0.4,0.4,1,0.8,1.2c1.9,1.3,2.1,1.4,1.4,2.6
		c-0.7,1.3-0.7,2.8-0.4,3.9c1.9,6.3,4.9,11.9,10.7,15.6c5.6,3.6,10.8,4.4,15.1,1.9c-0.8-0.5-1.4-1-2.2-1.3
		c-6.7-2.9-7.7-4.9-5.2-11.6c0.7-1.9-0.2-2.4-1.5-2.9c-2.3-0.9-2.6-1.6-1-3.9c1.6-2.2,3.1-5.3-1.3-7.7c2.5-0.5,5.5,0.6,4.9-3.2
		c-0.2-1.4,1.3-1.6,2.5-2c7.2-1.9,7.3-2.3,3.4-8.8c2.1-0.2,4.8,1.9,6.2-0.1c3.3-4.6,8-9.4,8.1-14.9c0.2-6.3,3.8-8.5,7.9-9
		c6.2-0.8,7.7-4.8,8.4-9.4c1.2-7.7,2.1-15.1,8.1-21.1C195.2,172.7,194.8,168.7,191.5,166.7z M138.6,7.3c3.3,0.1,0.9,5,4.1,5.5
		c-0.9,1.7-2.9,2.1-5,3.7c0.8-3.2-2.7-3.1-2.8-5.5C134.9,8.4,136.5,7.2,138.6,7.3z M102.1,67c0.1-2.2,0.5-3.5,2.6-4.2
		C105.3,65.1,104.6,66.2,102.1,67z M113.1,59.6c1.5-1.6,3.5-0.7,6,0.6c-2.7,0.8-4.2,2.1-5.5,3.8C111.3,62.6,112.4,60.3,113.1,59.6z
		 M115.4,66.2c-1.2,0.9-2.3,1.7-4,1.4C112.4,66.2,113.6,65.8,115.4,66.2z M108.1,53.2c1.4-0.5,2.6-0.1,3.4,1.1
		c0.5,0.7,0.9,1.6,0.2,2.2c-1,0.9-2.5,1.5-3.6,0.8c-2.1-1.3-4.3-0.9-6.8-1.5C103.6,55,105.9,54.1,108.1,53.2z M96.5,43.1
		c0,0.1,0.2,0.5,0.3,1c0.2,0.7-0.1,1.4-0.7,1.7c-0.7,0.3-1.2-0.1-1.3-0.9C94.8,44.1,95,43.5,96.5,43.1z M81.8,28.7
		c-0.4,0.1-0.9-0.2-1.3-0.3c0.4-0.5,0.8-0.9,1-1.2c0.9-0.2,1.3,0.1,1.2,0.6C82.6,28.2,82.1,28.6,81.8,28.7z M85.3,18
		c-1.9,2.5-3.9,2-6.4,1.6C81.1,17.4,83,17.9,85.3,18z"/>
	<linearGradient id="SVGID_4_" gradientUnits="userSpaceOnUse" x1="8.0166" y1="21.9644" x2="8.0166" y2="22.2281">
		<stop  offset="0" style="stop-color:#70C281"/>
		<stop  offset="1" style="stop-color:#008170"/>
	</linearGradient>
	<path class="st3" d="M8.1,22.2C8,22.1,8,22.1,7.9,22C7.9,22.1,8,22.2,8.1,22.2z"/>
	<linearGradient id="SVGID_5_" gradientUnits="userSpaceOnUse" x1="513.7692" y1="178.3435" x2="513.7692" y2="237.7393">
		<stop  offset="0" style="stop-color:#70C281"/>
		<stop  offset="1" style="stop-color:#008170"/>
	</linearGradient>
	<path class="st4" d="M545.6,193.6c-1-5.1-4.1-9.3-4.9-15.3c-3.4,3.3-3.5,6.7-4.3,9.9c-1.2,4.8-2.8,5.4-6.8,2.7
		c-0.8-0.6-1.6-1.3-2.4-1.7c-1.9-1-3-1.8-0.8-3.9c0.6-0.6,2.8-2.8,0.4-4.1c-4.1-2.1-10.9-0.2-14,3.7c-0.8,1-1.2,2.3-3.1,1.8
		c-3.8-1-11.9,2.3-13.6,6.1c-1.6,3.6-4.1,4.6-7.6,5.4c-6.9,1.6-13.5,3.8-13.6,12.9c0,1.8,0.1,3.6,0.1,5.4c0,2.9,0.9,5.8-0.3,8.7
		c-0.5,1.3-3.2,2.2-1.3,4.1c1.6,1.6,3.7,1.1,5.6,0.3c5.4-2.4,11.7-1.5,16.9-4.9c1.7-1.1,4.1-1.1,6.3-1.4c4.2-0.7,8.1-0.7,9.7,4.4
		c0.3,0.9,0.7,1.9,1.6,1.4c5.6-2.8,3.8,2.6,4.7,4.5c0.5,1-0.1,2.4,1.3,3.3c3.7,2.3,15.9,0.6,18.9-2.7c3-3.4,6.1-6.5,9.6-9.3
		c7.1-5.6,8.4-13.3,3.8-21C549.9,200.3,546.3,197.3,545.6,193.6z"/>
	<linearGradient id="SVGID_6_" gradientUnits="userSpaceOnUse" x1="537.944" y1="156.1331" x2="537.944" y2="177.8848">
		<stop  offset="0" style="stop-color:#70C281"/>
		<stop  offset="1" style="stop-color:#008170"/>
	</linearGradient>
	<path class="st5" d="M550.1,168.1c-3.7-6-11.3-6.2-17.3-8.8c-1-0.4-2.1-0.2-2.8,0.4c-2.7,2.2-4.9,3.7-5.9-1.5
		c-0.3-1.5-2.4-2.7-4.1-1.8c-2,1-1,2.5-0.3,4.2c1.2,2.9,3.7,3.2,6.1,4.3c2.6,1.1,7.1,1.7,5.8,5.8c-1,3.1-1,3.6,2.1,2.8
		c0.9-0.3,1.6,0.1,2.3,0.7c2.7,2.1,5,2,7.4-0.6c1.8-2,4.1-1.3,5,0.6c1.8,3.7,4.8,3.9,8.5,3.7C554,174.9,552.2,171.4,550.1,168.1z"/>
	<linearGradient id="SVGID_7_" gradientUnits="userSpaceOnUse" x1="481.8763" y1="140.672" x2="481.8763" y2="164.3454">
		<stop  offset="0" style="stop-color:#70C281"/>
		<stop  offset="1" style="stop-color:#008170"/>
	</linearGradient>
	<path class="st6" d="M488.9,141.2c-1.3-1.4-2.1,0.5-2.9,1.4c-3.5,3.8-7.1,7.6-12.3,9.1c-1.8,0.5-1.9,1.5-1.9,2.9
		c-0.2,5.6,8.6,11.4,13.9,9.3c0.9-0.4,1.3-0.9,1.4-1.8c0.2-1.9,2.1-3.3,2.3-4.8c0.2-2,3.2-2.9,1.9-5.1c-1.3-2.3-1.4-4.1,0.1-6.4
		C493,143.5,490.1,142.4,488.9,141.2z"/>
	<linearGradient id="SVGID_8_" gradientUnits="userSpaceOnUse" x1="341.1966" y1="182.226" x2="341.1966" y2="209.971">
		<stop  offset="0" style="stop-color:#70C281"/>
		<stop  offset="1" style="stop-color:#008170"/>
	</linearGradient>
	<path class="st7" d="M345.4,183.8c-1.8,2.8-4.1,5.1-7.6,5.9c-0.7,0.2-1.6,1.1-1.7,1.6c-0.2,4.2-0.7,8.4-2.6,11.7
		c0.7,2.8-0.1,5.6,2.8,6.6c1.7,0.6,3.8,0.4,4.5-1.1c3.6-7.4,7.1-14.8,8.1-23.1c0-0.3-0.1-0.7-0.2-1
		C348,182.5,347.2,180.9,345.4,183.8z"/>
	<linearGradient id="SVGID_9_" gradientUnits="userSpaceOnUse" x1="455.1125" y1="144.2938" x2="455.1125" y2="168.0448">
		<stop  offset="0" style="stop-color:#70C281"/>
		<stop  offset="1" style="stop-color:#008170"/>
	</linearGradient>
	<path class="st8" d="M466.9,161C466.9,161,466.9,161,466.9,161c-3.9-1.3-6.1-4.3-7.7-7.8c0,0,0,0,0,0c-0.7,0-1.1-0.4-1.6-0.8
		c-0.1,0-0.1-0.1-0.2-0.2c-1.1,0.3-1.7-0.6-2.4-1.4c0,0,0,0,0,0c-3.9-2.1-6.1-7.1-11.6-6.5c0.1,2.9,2.7,3.7,4.2,5.3
		c4.2,4.5,6.3,10.5,10.6,14.9c5,5.1,5.9,4.9,7.8-1.8C466.2,162.1,466.6,161.6,466.9,161z"/>
	<linearGradient id="SVGID_10_" gradientUnits="userSpaceOnUse" x1="511.7242" y1="68.8229" x2="511.7242" y2="89.7621">
		<stop  offset="0" style="stop-color:#70C281"/>
		<stop  offset="1" style="stop-color:#008170"/>
	</linearGradient>
	<path class="st9" d="M521,79c-1.8-2.7,0.3-7.4-3.9-9.7c-0.7-0.4-1.5-0.7-2.3-0.3c-0.7,0.4-0.3,1.1-0.2,1.7c1.4,5.8-0.4,8.7-6.3,9.7
		c-2.4,0.4-3.8,2-5.2,3.6c-2.2,2.7,0.8,4,2,5.1c2,1.9,1.4-1.1,2.1-1.7c3.3-2.9,7.7-3.7,11.6-5.4C520.3,81.5,521.4,81.3,521,79z"/>
	<linearGradient id="SVGID_11_" gradientUnits="userSpaceOnUse" x1="244.3646" y1="32.8879" x2="244.3646" y2="49.6159">
		<stop  offset="0" style="stop-color:#70C281"/>
		<stop  offset="1" style="stop-color:#008170"/>
	</linearGradient>
	<path class="st10" d="M242.6,42.5c-2.2,1.9-3.4,4.2-2.7,7.2c2.5-0.2,4.9-0.6,7.4-0.7c1.5-0.1,2.4-0.5,3.1-1.9
		c0.9-1.7-0.3-2.2-1-3.3c-1.7-2.7-5-4.2-4.7-8.3c0.1-1.6-1.9-3.4-4.3-2c-2.1,1.2-3.1,2.8-2,5.4C239.3,40.6,241.5,40.7,242.6,42.5z"
		/>
	<linearGradient id="SVGID_12_" gradientUnits="userSpaceOnUse" x1="567.6394" y1="241.85" x2="567.6394" y2="254.4509">
		<stop  offset="0" style="stop-color:#70C281"/>
		<stop  offset="1" style="stop-color:#008170"/>
	</linearGradient>
	<path class="st11" d="M575.2,242.3c-4.7,4.2-10.8,5.7-16.2,8.4c-1,0.5-2.4,0.9-2,2.4c0.4,1.4,1.9,1,3.9,1.4
		c5.2-3.1,11.1-6.6,17-10.2c0.6-0.4,0.6-1.1,0-1.7C577.1,241.8,576,241.6,575.2,242.3z"/>
	<linearGradient id="SVGID_13_" gradientUnits="userSpaceOnUse" x1="497.0535" y1="157.1296" x2="497.0535" y2="167.6671">
		<stop  offset="0" style="stop-color:#70C281"/>
		<stop  offset="1" style="stop-color:#008170"/>
	</linearGradient>
	<path class="st12" d="M493.9,167.7c2-1,1-3.3,2.5-4.2c1.4,1.4,1.6,3.8,4.3,3.9c1.3-3.4-3.2-6.7,0.5-10.3
		C491.8,158.9,491.8,158.9,493.9,167.7z"/>
	<linearGradient id="SVGID_14_" gradientUnits="userSpaceOnUse" x1="586.3187" y1="228.923" x2="586.3187" y2="243.0663">
		<stop  offset="0" style="stop-color:#70C281"/>
		<stop  offset="1" style="stop-color:#008170"/>
	</linearGradient>
	<path class="st13" d="M591.9,236.5c-4.8,0-3-5-6.6-7.6c2.6,6.9-4.3,8.7-4.5,14.1C585.4,242.5,587.9,238.5,591.9,236.5z"/>
	<linearGradient id="SVGID_15_" gradientUnits="userSpaceOnUse" x1="474.4933" y1="168.5736" x2="474.4933" y2="173.9847">
		<stop  offset="0" style="stop-color:#70C281"/>
		<stop  offset="1" style="stop-color:#008170"/>
	</linearGradient>
	<path class="st14" d="M484,173.9c-5.1-5.4-11.8-3.3-17.3-5.3c-0.4-0.1-1.5,0.4-1.6,0.8c-0.5,1.3,0.7,1.9,1.6,2.1
		C472.2,172.6,477.7,174.5,484,173.9z"/>
	<linearGradient id="SVGID_16_" gradientUnits="userSpaceOnUse" x1="516.0333" y1="59.9825" x2="516.0333" y2="67.5346">
		<stop  offset="0" style="stop-color:#70C281"/>
		<stop  offset="1" style="stop-color:#008170"/>
	</linearGradient>
	<path class="st15" d="M512.2,66.6c1.6,2.6,3.7-1.4,5.9-0.1c0.4,0.2,2.5-1.1,2.5-2.6c0-1.2-1.5-1-2.4-1.3c-1.9-0.7-3.7-1.4-6.8-2.7
		C513,62.7,511.2,65,512.2,66.6z"/>
	<linearGradient id="SVGID_17_" gradientUnits="userSpaceOnUse" x1="234.2846" y1="39.7942" x2="234.2846" y2="47.1469">
		<stop  offset="0" style="stop-color:#70C281"/>
		<stop  offset="1" style="stop-color:#008170"/>
	</linearGradient>
	<path class="st16" d="M231.8,47.1c3.5-0.2,5.9-1.7,6.5-5.5c0.1-1.3-0.7-1.9-2-1.8c-3.4,0.1-5.1,2.1-6,5.2
		C229.9,46.7,230.4,47.2,231.8,47.1z"/>
	<linearGradient id="SVGID_18_" gradientUnits="userSpaceOnUse" x1="525.2795" y1="242.2127" x2="525.2795" y2="247.8653">
		<stop  offset="0" style="stop-color:#70C281"/>
		<stop  offset="1" style="stop-color:#008170"/>
	</linearGradient>
	<path class="st17" d="M526.6,242.9c-3.9-1.6-4.5,0.3-4.8,2.8c-0.1,1.4,0.2,2.4,1.8,2.2c2.6-0.4,5-1.7,5.2-4.5
		C529,241,526.8,243,526.6,242.9z"/>
	<linearGradient id="SVGID_19_" gradientUnits="userSpaceOnUse" x1="412.6916" y1="134.8631" x2="412.6916" y2="143.1203">
		<stop  offset="0" style="stop-color:#70C281"/>
		<stop  offset="1" style="stop-color:#008170"/>
	</linearGradient>
	<path class="st18" d="M411,134.9c-0.1,3.3-1.5,5.8,0.9,7.9c0.8,0.7,2.5,0.5,2.8-0.9C415.5,138.9,413.9,137.1,411,134.9z"/>
	<linearGradient id="SVGID_20_" gradientUnits="userSpaceOnUse" x1="468.9405" y1="159.7527" x2="468.9405" y2="164.3994">
		<stop  offset="0" style="stop-color:#70C281"/>
		<stop  offset="1" style="stop-color:#008170"/>
	</linearGradient>
	<path class="st19" d="M465.9,162.7c1.9,0,3.5,3.4,5.6,0.6c0.7-0.9,0.6-1.9-0.2-2.7c-1.6-1.7-3-0.4-4.4,0.4v0
		C467.5,162.1,466.6,162.3,465.9,162.7z"/>
	<linearGradient id="SVGID_21_" gradientUnits="userSpaceOnUse" x1="499.0094" y1="153.2158" x2="499.0094" y2="155.5587">
		<stop  offset="0" style="stop-color:#70C281"/>
		<stop  offset="1" style="stop-color:#008170"/>
	</linearGradient>
	<path class="st20" d="M504,153.7c-3.2,0.1-6.2-1.8-10,1.3c2.6,0.1,4.1,0.1,5.5,0.3C501.1,155.5,502.7,156.2,504,153.7z"/>
	<linearGradient id="SVGID_22_" gradientUnits="userSpaceOnUse" x1="117.9037" y1="14.0702" x2="117.9037" y2="15.435">
		<stop  offset="0" style="stop-color:#70C281"/>
		<stop  offset="1" style="stop-color:#008170"/>
	</linearGradient>
	<path class="st21" d="M114.9,14.8c1.9,0.5,3.9,1.2,6,0.1c-1.3-0.2-2.8,0.4-3.9-0.8C116.3,14.6,115.6,14.8,114.9,14.8z"/>
	<linearGradient id="SVGID_23_" gradientUnits="userSpaceOnUse" x1="113.9948" y1="14.0487" x2="113.9948" y2="14.6878">
		<stop  offset="0" style="stop-color:#70C281"/>
		<stop  offset="1" style="stop-color:#008170"/>
	</linearGradient>
	<path class="st22" d="M114.6,14.7c-0.3-0.1-0.7-0.3-1-0.6c0,0-0.1,0-0.1,0c0,0.1,0,0.2,0,0.4C113.8,14.5,114.2,14.6,114.6,14.7z"/>
	<linearGradient id="SVGID_24_" gradientUnits="userSpaceOnUse" x1="489.263" y1="173.0076" x2="489.263" y2="174.9003">
		<stop  offset="0" style="stop-color:#70C281"/>
		<stop  offset="1" style="stop-color:#008170"/>
	</linearGradient>
	<path class="st23" d="M492.2,173.9c-2.3-1.5-4.1-0.8-5.8,0.2C488.1,175,490,175.4,492.2,173.9z"/>
	<linearGradient id="SVGID_25_" gradientUnits="userSpaceOnUse" x1="556.8138" y1="166.8904" x2="556.8138" y2="169.1084">
		<stop  offset="0" style="stop-color:#70C281"/>
		<stop  offset="1" style="stop-color:#008170"/>
	</linearGradient>
	<path class="st24" d="M560.1,166.9c-2.9,0.2-4.7-0.7-6.6,1.4C555.8,169.3,557.4,169.8,560.1,166.9z"/>
	<linearGradient id="SVGID_26_" gradientUnits="userSpaceOnUse" x1="8.8115" y1="22.2281" x2="8.8115" y2="23.7137">
		<stop  offset="0" style="stop-color:#70C281"/>
		<stop  offset="1" style="stop-color:#008170"/>
	</linearGradient>
	<path class="st25" d="M8.1,22.2c0.3,0.5,0.5,1,0.8,1.5C10.5,22.2,8.6,22.6,8.1,22.2z"/>
	<linearGradient id="SVGID_27_" gradientUnits="userSpaceOnUse" x1="150.8435" y1="19.8271" x2="150.8435" y2="21.8859">
		<stop  offset="0" style="stop-color:#70C281"/>
		<stop  offset="1" style="stop-color:#008170"/>
	</linearGradient>
	<path class="st26" d="M154,20c-2.1,0.2-4.4-0.9-6.3,0.9c1.1,0.1,2.4-0.2,3.2,1c0,0,0,0,0,0c0.7,0,1.3,0,2,0c0,0,0,0,0,0
		C152.3,20.7,153.3,20.5,154,20z"/>
	<linearGradient id="SVGID_28_" gradientUnits="userSpaceOnUse" x1="509.512" y1="55.1697" x2="509.512" y2="57.8557">
		<stop  offset="0" style="stop-color:#70C281"/>
		<stop  offset="1" style="stop-color:#008170"/>
	</linearGradient>
	<path class="st27" d="M510.4,57.9c0.2-0.3,0.6-0.7,0.5-1c-0.2-1.1-0.9-1.7-2-1.6c-0.3,0-0.8,0.6-0.8,0.9
		C508.3,57.2,509.3,57.5,510.4,57.9z"/>
	<linearGradient id="SVGID_29_" gradientUnits="userSpaceOnUse" x1="505.8135" y1="173.4532" x2="505.8135" y2="175.8354">
		<stop  offset="0" style="stop-color:#70C281"/>
		<stop  offset="1" style="stop-color:#008170"/>
	</linearGradient>
	<path class="st28" d="M507.8,173.5c-1.6-0.2-3,0-4,1.3c0.4,0.3,0.7,0.7,1.1,1C506,175.3,507.6,175.6,507.8,173.5z"/>
	<linearGradient id="SVGID_30_" gradientUnits="userSpaceOnUse" x1="313.2742" y1="16.9214" x2="313.2742" y2="19.903">
		<stop  offset="0" style="stop-color:#70C281"/>
		<stop  offset="1" style="stop-color:#008170"/>
	</linearGradient>
	<path class="st29" d="M312.2,19.6c-0.2,0.1-0.4,0.1-0.7,0.2c0,0,0,0.1-0.1,0.1c1.3-0.3,2.3-1.5,3.6-1.7c-0.3-0.4-0.6-0.9-1-1.3
		C314.3,18.4,313.2,19,312.2,19.6z"/>
	<linearGradient id="SVGID_31_" gradientUnits="userSpaceOnUse" x1="154.4818" y1="14.8597" x2="154.4818" y2="16.9176">
		<stop  offset="0" style="stop-color:#70C281"/>
		<stop  offset="1" style="stop-color:#008170"/>
	</linearGradient>
	<path class="st30" d="M155.8,15.7c-0.1-0.8-0.7-1-1.3-0.8c-0.6,0.1-1.3,0.4-1.3,1.2c0,0.9,0.7,0.8,1.5,0.8
		C155.1,16.7,155.8,16.6,155.8,15.7z"/>
	<linearGradient id="SVGID_32_" gradientUnits="userSpaceOnUse" x1="495.3383" y1="173.0401" x2="495.3383" y2="175.0198">
		<stop  offset="0" style="stop-color:#70C281"/>
		<stop  offset="1" style="stop-color:#008170"/>
	</linearGradient>
	<path class="st31" d="M496.7,174.2c0.1-0.2-0.3-0.9-0.7-1c-1.5-0.6-1.8,0.5-2.1,1.6C494.9,174.8,496.1,175.6,496.7,174.2z"/>
	<linearGradient id="SVGID_33_" gradientUnits="userSpaceOnUse" x1="493.9076" y1="174.8311" x2="493.9076" y2="174.8794">
		<stop  offset="0" style="stop-color:#70C281"/>
		<stop  offset="1" style="stop-color:#008170"/>
	</linearGradient>
	<path class="st32" d="M493.9,174.8C493.9,174.8,493.9,174.8,493.9,174.8L493.9,174.8C493.9,174.9,493.9,174.8,493.9,174.8z"/>
	<linearGradient id="SVGID_34_" gradientUnits="userSpaceOnUse" x1="503.1212" y1="174.8434" x2="503.1212" y2="176.9473">
		<stop  offset="0" style="stop-color:#70C281"/>
		<stop  offset="1" style="stop-color:#008170"/>
	</linearGradient>
	<path class="st33" d="M503.8,174.8c-1,0.3-2.2,0.4-2.5,1.9c1.4,0.4,2.6,0.2,3.6-0.9l0,0h0C504.5,175.6,503.9,175.5,503.8,174.8z"/>
	<linearGradient id="SVGID_35_" gradientUnits="userSpaceOnUse" x1="155.3809" y1="57.0395" x2="155.3809" y2="59.8005">
		<stop  offset="0" style="stop-color:#70C281"/>
		<stop  offset="1" style="stop-color:#008170"/>
	</linearGradient>
	<path class="st34" d="M154.9,59.8c1.3-0.2,2.6-1.2,1.8-2.2c-1.3-1.5-2.1,0.3-2.8,1.2l0,0C154.8,58.4,155,59,154.9,59.8z"/>
	<linearGradient id="SVGID_36_" gradientUnits="userSpaceOnUse" x1="149.3307" y1="20.8384" x2="149.3307" y2="22.6282">
		<stop  offset="0" style="stop-color:#70C281"/>
		<stop  offset="1" style="stop-color:#008170"/>
	</linearGradient>
	<path class="st35" d="M147.7,20.8c0.2,3.1,2,1.2,3.2,1c0,0,0,0,0,0C149.9,21.3,148.5,22.1,147.7,20.8z"/>
	<linearGradient id="SVGID_37_" gradientUnits="userSpaceOnUse" x1="493.7667" y1="174.9159" x2="493.7667" y2="177.6271">
		<stop  offset="0" style="stop-color:#70C281"/>
		<stop  offset="1" style="stop-color:#008170"/>
	</linearGradient>
	<path class="st36" d="M493,177c0.4,0.5,1.1,0.9,1.7,0.3c0.9-1.1-0.5-1.6-0.7-2.4C493.2,175.5,492,175.8,493,177z"/>
	<linearGradient id="SVGID_38_" gradientUnits="userSpaceOnUse" x1="493.9025" y1="174.8322" x2="493.9025" y2="174.9159">
		<stop  offset="0" style="stop-color:#70C281"/>
		<stop  offset="1" style="stop-color:#008170"/>
	</linearGradient>
	<path class="st37" d="M493.9,174.9C493.9,174.9,493.9,174.8,493.9,174.9C493.9,174.9,493.9,174.9,493.9,174.9
		C493.9,174.9,493.9,174.9,493.9,174.9z"/>
	<linearGradient id="SVGID_39_" gradientUnits="userSpaceOnUse" x1="455.8868" y1="149.8308" x2="455.8868" y2="151.5325">
		<stop  offset="0" style="stop-color:#70C281"/>
		<stop  offset="1" style="stop-color:#008170"/>
	</linearGradient>
	<path class="st38" d="M456,149.8c-0.3,0.3-0.7,0.7-1,1c0,0,0,0,0,0c0.6,0.3,1.2,0.5,1.9,0.7C456.5,151,456.3,150.4,456,149.8z"/>
	<linearGradient id="SVGID_40_" gradientUnits="userSpaceOnUse" x1="457.4667" y1="151.5325" x2="457.4667" y2="152.2112">
		<stop  offset="0" style="stop-color:#70C281"/>
		<stop  offset="1" style="stop-color:#008170"/>
	</linearGradient>
	<path class="st39" d="M456.8,151.5c0.2,0.2,0.3,0.5,0.6,0.7c0.2-0.1,0.5-0.1,0.7-0.3C457.7,151.8,457.3,151.6,456.8,151.5z"/>
	<linearGradient id="SVGID_41_" gradientUnits="userSpaceOnUse" x1="309.4849" y1="19.8466" x2="309.4849" y2="20.1966">
		<stop  offset="0" style="stop-color:#70C281"/>
		<stop  offset="1" style="stop-color:#008170"/>
	</linearGradient>
	<path class="st40" d="M308,20.2c0.8,0.1,1.5-0.3,2.3-0.3c0.2,0,0.4,0.1,0.6,0.1c0,0,0-0.1,0.1-0.1C310,19.9,309,19.9,308,20.2z"/>
	<linearGradient id="SVGID_42_" gradientUnits="userSpaceOnUse" x1="311.1702" y1="19.903" x2="311.1702" y2="20.7979">
		<stop  offset="0" style="stop-color:#70C281"/>
		<stop  offset="1" style="stop-color:#008170"/>
	</linearGradient>
	<path class="st41" d="M310.9,20c-0.1,0.2-0.1,0.5,0,0.8c0.2-0.3,0.3-0.6,0.5-0.9C311.3,19.9,311.1,20,310.9,20z"/>
	<linearGradient id="SVGID_43_" gradientUnits="userSpaceOnUse" x1="311.4479" y1="19.1021" x2="311.4479" y2="19.8466">
		<stop  offset="0" style="stop-color:#70C281"/>
		<stop  offset="1" style="stop-color:#008170"/>
	</linearGradient>
	<path class="st42" d="M311,19.8c0.2,0,0.4,0,0.6-0.1c0.1-0.2,0.3-0.4,0.4-0.7C311.5,19.3,311.1,19.5,311,19.8z"/>
	<linearGradient id="SVGID_44_" gradientUnits="userSpaceOnUse" x1="289.864" y1="30.7859" x2="289.864" y2="30.8147">
		<stop  offset="0" style="stop-color:#70C281"/>
		<stop  offset="1" style="stop-color:#008170"/>
	</linearGradient>
	<path class="st43" d="M289.9,30.8L289.9,30.8C289.9,30.8,289.9,30.8,289.9,30.8C289.9,30.8,289.9,30.8,289.9,30.8z"/>
	<linearGradient id="SVGID_45_" gradientUnits="userSpaceOnUse" x1="273.1275" y1="74.9527" x2="273.1275" y2="77.7889">
		<stop  offset="0" style="stop-color:#70C281"/>
		<stop  offset="1" style="stop-color:#008170"/>
	</linearGradient>
	<path class="st44" d="M270.2,75.5c2.3,1.5,3.4,3,5.5,1.9c0.3-0.2,0.5-1.1,0.3-1.3C274.7,74.2,273,75.1,270.2,75.5z"/>
	<linearGradient id="SVGID_46_" gradientUnits="userSpaceOnUse" x1="263.9222" y1="69.0537" x2="263.9222" y2="73.3553">
		<stop  offset="0" style="stop-color:#70C281"/>
		<stop  offset="1" style="stop-color:#008170"/>
	</linearGradient>
	<path class="st45" d="M264,69.1c-1.3-0.1-1.4,1.1-1.4,2c0,0.9-0.2,1.9,1,2.3c1.2-0.3,1.6-1.1,1.7-2.1
		C265.3,70.3,265.3,69.1,264,69.1z"/>
	<linearGradient id="SVGID_47_" gradientUnits="userSpaceOnUse" x1="311.3655" y1="80.7689" x2="311.3655" y2="82.4641">
		<stop  offset="0" style="stop-color:#70C281"/>
		<stop  offset="1" style="stop-color:#008170"/>
	</linearGradient>
	<path class="st46" d="M312.5,81.5c0-0.2-0.6-0.5-1-0.7c-0.5,0.3-0.8,0.5-1.2,0.7c0.3,0.3,0.5,0.9,0.8,1
		C311.7,82.6,312.4,82.2,312.5,81.5z"/>
</g>
</svg>
