<?xml version="1.0" encoding="utf-8"?>
<!-- Generator: Adobe Illustrator 19.0.1, SVG Export Plug-In . SVG Version: 6.00 Build 0)  -->
<svg version="1.1" id="Layer_1" xmlns="http://www.w3.org/2000/svg" xmlns:xlink="http://www.w3.org/1999/xlink" x="0px" y="0px"
	 viewBox="0 2892.6 612 336.8" style="enable-background:new 0 2892.6 612 336.8;" xml:space="preserve">
<style type="text/css">
	.st0{fill:url(#SVGID_1_);}
	.st1{fill:url(#SVGID_2_);}
</style>
<g>
	
		<linearGradient id="SVGID_1_" gradientUnits="userSpaceOnUse" x1="306" y1="1019.0004" x2="306" y2="682.1973" gradientTransform="matrix(1 0 0 1 0 2210.3999)">
		<stop  offset="0" style="stop-color:#000000"/>
		<stop  offset="1" style="stop-color:#003B0B"/>
	</linearGradient>
	<path class="st0" d="M407.2,2996.4l0.3,0.1c-80.4-21.3-159.7-91.2-257.7-102.4c-34.3-3.9-71-0.6-110.7,14.5
		c-14.7,5.5-27.6,12-39.1,19.1v301.7h236.6C369.7,3140.8,407.2,2996.4,407.2,2996.4z M407.2,2996.4l0.3,0.1
		c-80.4-21.3-159.7-91.2-257.7-102.4c-34.3-3.9-71-0.6-110.7,14.5c-14.7,5.5-27.6,12-39.1,19.1v301.7h236.6
		C369.7,3140.8,407.2,2996.4,407.2,2996.4z M511.5,2989.6c-32.8,14.9-64.2,15.9-95.4,9h0.1c0,0,39.2,107.5,30.5,230.7H612v-254.1
		C584.3,2969.1,551,2971.6,511.5,2989.6z M511.5,2989.6c-32.8,14.9-64.2,15.9-95.4,9h0.1c0,0,39.2,107.5,30.5,230.7H612v-254.1
		C584.3,2969.1,551,2971.6,511.5,2989.6z M416.2,2998.6h-0.1l-8.6-2.1l-0.3-0.1c0,0-37.5,144.4-170.7,232.9h210.2
		C455.4,3106.1,416.2,2998.6,416.2,2998.6z M416.2,2998.6h-0.1l-8.6-2.1l-0.3-0.1c0,0-37.5,144.4-170.7,232.9h210.2
		C455.4,3106.1,416.2,2998.6,416.2,2998.6z"/>
	
		<linearGradient id="SVGID_2_" gradientUnits="userSpaceOnUse" x1="382.3364" y1="-2434.8997" x2="382.3364" y2="-2208.1997" gradientTransform="matrix(1 0 0 -1 0 794.4003)">
		<stop  offset="0" style="stop-color:#001722"/>
		<stop  offset="1" style="stop-color:#00464D"/>
	</linearGradient>
	<path class="st1" d="M457.6,3002.6L457.6,3002.6h-10.8h-1.3c0,0-35.7,138.2-168.9,226.7h210.2
		C495.4,3106.1,457.6,3002.6,457.6,3002.6z"/>
</g>
</svg>
