<?xml version="1.0" encoding="utf-8"?>
<!-- Generator: Adobe Illustrator 19.0.1, SVG Export Plug-In . SVG Version: 6.00 Build 0)  -->
<svg version="1.1" id="Layer_1" xmlns="http://www.w3.org/2000/svg" xmlns:xlink="http://www.w3.org/1999/xlink" x="0px" y="0px"
	 viewBox="0 2664.4 612 336.8" style="enable-background:new 0 2664.4 612 336.8;" xml:space="preserve">
<style type="text/css">
	.st0{fill:#003613;}
	.st1{fill:url(#SVGID_1_);}
	.st2{fill:url(#SVGID_2_);}
	.st3{fill:url(#SVGID_3_);}
	.st4{fill:url(#SVGID_4_);}
</style>
<g>
	<path class="st0" d="M407.2,2768.2l0.3,0.1c-80.4-21.3-159.7-91.2-257.7-102.4c-34.3-3.9-71-0.6-110.7,14.5
		c-14.7,5.5-27.6,12-39.1,19.1v301.7h236.6C369.7,2912.6,407.2,2768.2,407.2,2768.2z"/>
	
		<linearGradient id="SVGID_1_" gradientUnits="userSpaceOnUse" x1="109.2606" y1="3267.3755" x2="213.8445" y2="2674.251" gradientTransform="matrix(1 0 0 1 0 2.3999)">
		<stop  offset="0" style="stop-color:#79C143;stop-opacity:0"/>
		<stop  offset="0.4871" style="stop-color:#76C044;stop-opacity:0.4871"/>
		<stop  offset="0.6897" style="stop-color:#6EBE46;stop-opacity:0.6897"/>
		<stop  offset="0.8395" style="stop-color:#5EBB4A;stop-opacity:0.8395"/>
		<stop  offset="0.9624" style="stop-color:#42B650;stop-opacity:0.9624"/>
		<stop  offset="1" style="stop-color:#33B452"/>
	</linearGradient>
	<path class="st1" d="M407.2,2768.2l0.3,0.1c-80.4-21.3-159.7-91.2-257.7-102.4c-34.3-3.9-71-0.6-110.7,14.5
		c-14.7,5.5-27.6,12-39.1,19.1v301.7h236.6C369.7,2912.6,407.2,2768.2,407.2,2768.2z"/>
	<path class="st0" d="M511.5,2761.4c-32.8,14.9-64.2,15.9-95.4,9h0.1c0,0,39.2,107.5,30.5,230.7H612V2747
		C584.3,2740.9,551,2743.4,511.5,2761.4z"/>
	
		<linearGradient id="SVGID_2_" gradientUnits="userSpaceOnUse" x1="436.1719" y1="3325.0188" x2="540.7557" y2="2731.8943" gradientTransform="matrix(1 0 0 1 0 2.3999)">
		<stop  offset="0" style="stop-color:#79C143;stop-opacity:0"/>
		<stop  offset="0.4871" style="stop-color:#76C044;stop-opacity:0.4871"/>
		<stop  offset="0.6897" style="stop-color:#6EBE46;stop-opacity:0.6897"/>
		<stop  offset="0.8395" style="stop-color:#5EBB4A;stop-opacity:0.8395"/>
		<stop  offset="0.9624" style="stop-color:#42B650;stop-opacity:0.9624"/>
		<stop  offset="1" style="stop-color:#33B452"/>
	</linearGradient>
	<path class="st2" d="M511.5,2761.4c-32.8,14.9-64.2,15.9-95.4,9h0.1c0,0,39.2,107.5,30.5,230.7H612V2747
		C584.3,2740.9,551,2743.4,511.5,2761.4z"/>
	<path class="st0" d="M407.2,2768.2l0.3,0.1c-80.4-21.3-159.7-91.2-257.7-102.4c-34.3-3.9-71-0.6-110.7,14.5
		c-14.7,5.5-27.6,12-39.1,19.1v301.7h236.6C369.7,2912.6,407.2,2768.2,407.2,2768.2z M407.2,2768.2l0.3,0.1
		c-80.4-21.3-159.7-91.2-257.7-102.4c-34.3-3.9-71-0.6-110.7,14.5c-14.7,5.5-27.6,12-39.1,19.1v301.7h236.6
		C369.7,2912.6,407.2,2768.2,407.2,2768.2z M511.5,2761.4c-32.8,14.9-64.2,15.9-95.4,9h0.1c0,0,39.2,107.5,30.5,230.7H612V2747
		C584.3,2740.9,551,2743.4,511.5,2761.4z M511.5,2761.4c-32.8,14.9-64.2,15.9-95.4,9h0.1c0,0,39.2,107.5,30.5,230.7H612V2747
		C584.3,2740.9,551,2743.4,511.5,2761.4z M416.2,2770.4h-0.1l-8.6-2.1l-0.3-0.1c0,0-37.5,144.4-170.7,232.9h210.2
		C455.4,2877.9,416.2,2770.4,416.2,2770.4z M416.2,2770.4h-0.1l-8.6-2.1l-0.3-0.1c0,0-37.5,144.4-170.7,232.9h210.2
		C455.4,2877.9,416.2,2770.4,416.2,2770.4z"/>
	
		<linearGradient id="SVGID_3_" gradientUnits="userSpaceOnUse" x1="306" y1="1.1999" x2="306" y2="338.0031" gradientTransform="matrix(1 0 0 -1 0 3002.3999)">
		<stop  offset="0" style="stop-color:#79C143;stop-opacity:0"/>
		<stop  offset="0.4871" style="stop-color:#76C044;stop-opacity:0.4871"/>
		<stop  offset="0.6897" style="stop-color:#6EBE46;stop-opacity:0.6897"/>
		<stop  offset="0.8395" style="stop-color:#5EBB4A;stop-opacity:0.8395"/>
		<stop  offset="0.9624" style="stop-color:#42B650;stop-opacity:0.9624"/>
		<stop  offset="1" style="stop-color:#33B452"/>
	</linearGradient>
	<path class="st3" d="M407.2,2768.2l0.3,0.1c-80.4-21.3-159.7-91.2-257.7-102.4c-34.3-3.9-71-0.6-110.7,14.5
		c-14.7,5.5-27.6,12-39.1,19.1v301.7h236.6C369.7,2912.6,407.2,2768.2,407.2,2768.2z M407.2,2768.2l0.3,0.1
		c-80.4-21.3-159.7-91.2-257.7-102.4c-34.3-3.9-71-0.6-110.7,14.5c-14.7,5.5-27.6,12-39.1,19.1v301.7h236.6
		C369.7,2912.6,407.2,2768.2,407.2,2768.2z M511.5,2761.4c-32.8,14.9-64.2,15.9-95.4,9h0.1c0,0,39.2,107.5,30.5,230.7H612V2747
		C584.3,2740.9,551,2743.4,511.5,2761.4z M511.5,2761.4c-32.8,14.9-64.2,15.9-95.4,9h0.1c0,0,39.2,107.5,30.5,230.7H612V2747
		C584.3,2740.9,551,2743.4,511.5,2761.4z M416.2,2770.4h-0.1l-8.6-2.1l-0.3-0.1c0,0-37.5,144.4-170.7,232.9h210.2
		C455.4,2877.9,416.2,2770.4,416.2,2770.4z M416.2,2770.4h-0.1l-8.6-2.1l-0.3-0.1c0,0-37.5,144.4-170.7,232.9h210.2
		C455.4,2877.9,416.2,2770.4,416.2,2770.4z"/>
	<linearGradient id="SVGID_4_" gradientUnits="userSpaceOnUse" x1="382.3364" y1="3001.0999" x2="382.3364" y2="2774.3999">
		<stop  offset="0" style="stop-color:#264A62"/>
		<stop  offset="1" style="stop-color:#37C1D1"/>
	</linearGradient>
	<path class="st4" d="M457.6,2774.4L457.6,2774.4h-10.8h-1.3c0,0-35.7,138.2-168.9,226.7h210.2
		C495.4,2877.9,457.6,2774.4,457.6,2774.4z"/>
</g>
</svg>
