<?xml version="1.0" encoding="utf-8"?>
<!-- Generator: Adobe Illustrator 19.0.1, SVG Export Plug-In . SVG Version: 6.00 Build 0)  -->
<svg version="1.1" id="Layer_1" xmlns="http://www.w3.org/2000/svg" xmlns:xlink="http://www.w3.org/1999/xlink" x="0px" y="0px"
	 viewBox="-99 338.7 411.6 129" style="enable-background:new -99 338.7 411.6 129;" xml:space="preserve">
<g>
	<path d="M-82.2,425.6c-3.7-2.6-6.2-5.3-7.4-8.2c-1.3-2.9-2-5.4-2.2-7.7c-0.2-2.2,0.2-4.6,1-7.1c0.8-2.5,1.9-3.8,3.4-4
		c0.5,0,0.6,0.6,0.2,1.7c-1,2.2-1.6,3.8-1.9,4.8c-0.3,1-0.5,2.1-0.5,3.4c0,2.4,0.7,4.9,2.2,7.6c1.4,2.6,3.8,4.8,7,6.6
		c2.9-4.6,6.2-9.9,10-15.7c3.8-5.8,7.6-11.7,11.6-17.6s7.9-11.8,11.6-17.5c3.8-5.8,7.2-10.9,10.2-15.5c3-4.6,5.6-8.3,7.7-11.3
		s3.3-4.7,3.6-5.2l0.1-0.3c0.2,0,0.4-0.1,0.7-0.2c0.6-0.3,1.4-0.5,2.4-0.5c0.8,0,1.7,0.2,2.6,0.7s1.4,1,1.4,1.7
		c0,0.5-0.4,1.4-1.2,2.6c-0.5,0.8-1,1.6-1.6,2.5c-0.6,0.9-1.2,2-2,3.2c1.6-1,3.6-2.1,5.9-3.4s4.8-2.5,7.4-3.6s5.3-2,7.9-2.8
		c2.6-0.7,5.2-1.1,7.6-1.1c3.4,0,6,0.5,7.9,1.4s3.4,2.2,4.4,3.6s1.7,3,1.9,4.8c0.2,1.8,0.4,3.4,0.4,5c-0.2,4.8-1.2,10.1-3,16
		c-1.8,5.8-4.4,11.8-7.7,17.8c-3.3,6-7,11.8-11.3,17.5c-4.2,5.7-8.8,10.8-13.8,15.4s-10.1,8.2-15.4,11c-5.3,2.8-10.6,4.3-15.8,4.4
		c-5.4,0-10.8-0.6-16-1.8c-5.2-1.2-10.5-3.2-16-5.9c-6.1,8.2-10.7,14.8-13.9,20c-3.2,5.2-5.1,7.8-5.8,7.8h-0.2c0-0.2,0-0.2-0.1-0.2
		c-0.1,0.3-0.1,0.1-0.1-0.2c0-0.2,0-0.3,0.1-0.4c0.1-0.1,0.1-0.2,0.1-0.4c2.6-5.3,5.2-10.2,7.8-14.8
		C-88.3,435.3-85.4,430.5-82.2,425.6z M-75.5,424.4c-0.3,0.3-0.6,0.6-0.7,1c3.7,1.8,7.6,3.2,11.9,4.3c4.2,1.1,9,1.7,14.3,1.7
		c5.4,0,10.8-1.6,16-4.7c5.1-3.2,10-7.1,14.7-11.9c4.6-4.8,8.9-10.2,12.8-16.2S0.8,386.7,3.6,381c2.8-5.8,5-11,6.6-15.8
		s2.4-8.6,2.4-11.3c0-2.1-0.4-3.8-1.2-5c-0.8-1.3-2.4-1.9-4.8-1.9c-2.7,0-6.1,0.8-10.2,2.5c-4.1,1.7-8.2,3.7-12.4,6.1
		c-4.2,2.4-8,4.9-11.6,7.6s-6.2,5-7.8,7.1l-0.5,0.3c-1.9,1.9-4.2,4.6-6.7,7.9c-2.6,3.4-5.3,7.1-8.3,11.3c-3,4.2-6,8.6-9.2,13.3
		c-3.2,4.7-6.5,9.3-9.8,13.8L-75.5,424.4z"/>
	<path d="M-0.6,448.5c0-1.3,0.2-2.6,0.7-3.8c-1.8,1.1-3.6,2-5.4,2.6s-3.5,1.2-4.9,1.7c-1.8,0.6-3.4,1.1-4.8,1.4
		c-0.2,0-0.4-0.2-0.7-0.5c0-0.3,0.3-0.6,1-1c3.2-1.3,6.5-2.9,9.8-4.9c3.4-2,6.3-4.3,8.9-6.8c4.2-4.2,7.6-7.1,10.2-8.8
		c2.6-1.7,4.4-2.5,5.4-2.5h0.2H20l0.5,0.5c0.3-0.3,0.8-0.5,1.3-0.5c0.6,0,1,0,1.3,0c3,0,5.2,1.1,6.5,3.4c1.3,2.2,1.9,4.5,1.9,6.7
		c0,3.5-0.9,6.9-2.6,10.1c0.5,0.3,1.2,0.5,2.3,0.6c1,0.1,2.1,0.1,3.2,0.1c2.6,0,4.5-0.2,5.9-0.7s2.1-0.7,2.3-0.7c0.6,0.3,1,0.6,1,1
		l-0.2,0.2l-1,0.7c-0.8,0.6-2.5,1.4-5.2,2.3c-2.6,0.9-5.8,1.3-9.5,1.3h-0.2c-0.3,0-0.6,0-1-0.1c-0.3-0.1-0.6-0.1-1-0.1
		c-2.2,2.1-4.7,3.6-7.4,4.6c-2.7,1-5.4,1.4-7.9,1.4c-2.1,0-4.4-0.6-7-1.8C0.7,453.7-0.6,451.6-0.6,448.5z M7.3,447.8
		c0,0.5,0.2,0.9,0.7,1.3c0.5,0.4,1.6,0.6,3.4,0.6c1.3,0,2.6-0.1,3.8-0.2c1.3-0.2,2.5-0.6,3.6-1.4c-1.9-1.3-3.2-2.9-3.8-4.8
		c-0.6-1.9-1-3.5-1-4.8c-1.3,1.1-2.4,2.1-3.2,3c-0.9,0.9-1.7,1.9-2.4,3S7.3,446.7,7.3,447.8z M22,433.6c-0.6,1.3-1,2.9-1,4.8
		c0,0.6,0.2,1.5,0.5,2.5s1.1,2.1,2.4,3.2c1.3-1.3,2.2-2.8,2.9-4.7c0.6-1.8,1-3.6,1-5.2c0-1.3-0.4-2.6-1.3-3.8
		c-0.9-1.3-2.1-1.9-3.7-1.9c0,0.3,0.2,0.7,0.6,1.2s0.6,1,0.6,1.7c0,0.6-0.5,1.1-1.4,1.4h-0.2c0,0.2,0,0.3-0.1,0.4
		C22,433.4,22,433.5,22,433.6z"/>
	<path d="M85.8,445.6c0.5,0,0.7,0.5,0.7,1.4l-1.2,0.7c-0.5,0.3-1.4,0.9-2.9,1.8c-1.4,0.9-3.2,1.8-5.2,2.6c-2,0.9-4.2,1.7-6.6,2.4
		c-2.4,0.7-4.9,1.1-7.4,1.1c-1.4,0-3.1-0.4-5-1.3s-3-2.6-3.4-5.2c-0.3-2.1-0.2-3.8,0.5-5c0.6-1.3,1.3-2.4,1.9-3.4l0.2-0.2
		c0.3-0.6,0.7-1.2,1.2-1.7s0.9-0.9,1.2-1.2c-0.3-0.2-0.7-0.3-1.2-0.5c-0.5-0.2-0.9-0.4-1.2-0.7c-1.3,1.3-2.8,2.6-4.7,4
		c-1.8,1.4-3.8,2.6-5.8,3.8c-2,1.2-3.9,2.2-5.8,3c-1.8,0.8-3.3,1.3-4.4,1.4c-0.8-0.6-1.2-1.2-1.2-1.7l0.7-0.7c0.3-0.3,1.8-1.3,4.3-3
		c2.6-1.7,5-3.9,7.4-6.6c0.6-0.6,1.4-1.6,2.2-2.8s1.6-2.4,2.3-3.6c0.7-1.2,1.4-2.3,2-3.2c0.6-1,1.1-1.6,1.4-1.9
		c-0.3,0-0.1,0.1,0.6,0.2c0.7,0.2,1.6,0.4,2.5,0.6c1,0.2,1.8,0.5,2.6,0.8c0.8,0.3,1.2,0.7,1.2,1.2c0,0.8,0,1.5,0,2
		c0,0.6,0.2,1.2,0.7,1.8c0.3,0.2,0.5,0.2,0.6,0.2s0.3,0.1,0.6,0.2c2.4-2.4,3.8-3.7,4.1-3.8h0.2c0.8,0,2,0.5,3.5,1.6
		c1.5,1,2.3,2,2.3,2.8c0,0.8-0.6,1.7-1.8,2.6c-1.2,1-2.3,1.9-3.2,2.9c-1.3,1.3-2.8,2.8-4.7,4.6c-1.8,1.8-2.9,3.7-3.2,5.8
		c0.6,0.6,1.8,0.9,3.5,0.8c1.7-0.1,3.5-0.3,5.5-0.6c2-0.3,4-0.7,5.9-1.1s3.4-0.8,4.3-1.1c2.2-0.6,3.5-1,3.7-1.1
		C85.2,445.7,85.5,445.6,85.8,445.6z"/>
	<path d="M98,447.8c-0.5,1.3,0.2,1.9,1.9,1.9c1.9,0,4-0.2,6.1-0.6c2.2-0.4,4.2-0.9,6-1.4c1.8-0.6,3.4-1.1,4.6-1.6
		c1.2-0.5,1.9-0.8,2-1c0.3-0.3,0.8-0.2,1.6,0.2c0.7,0.5,0.9,1,0.6,1.4c0,0.3-0.4,0.6-1.2,1c-0.3,0.3-0.6,0.6-1,0.7
		c-2.2,1.3-4.3,2.3-6.1,3.1c-1.8,0.8-4,1.5-6.4,2.1c-2.4,0.7-5,1-7.7,1h-0.7c-1,0-2.1-0.4-3.5-1.2c-1.4-0.8-2-1.8-2-3.1
		c0-1.8,0.4-3.5,1.2-5.3c0.8-1.8,1.6-3.5,2.4-5.3v-0.2c0.2-0.2,0.2-0.3,0.2-0.4c0-0.1,0.1-0.2,0.2-0.4c-1.1,0.8-2.6,1.9-4.4,3.4
		c-1.8,1.4-3.6,2.8-5.4,4.1c-1.8,1.3-3.4,2.2-4.8,2.9c-1.4,0.6-2.3,0.6-2.6-0.2c0-0.3,0.1-0.6,0.2-1c1-0.5,2.6-1.7,4.8-3.6
		s4.8-4.3,7.7-7.2c2.9-2.9,5.9-6.1,9.1-9.7c3.2-3.6,6.4-7.3,9.6-11.2c-5.8,0-11.5,0-17.2-0.1c-5.7-0.1-10.9-0.1-15.6-0.1
		c-4.7,0-8.6,0-11.8-0.1c-3.1-0.1-5-0.1-5.6-0.1H60c-0.2-0.2-0.6-0.7-1.3-1.6c-0.7-0.9-1.1-2.1-1.1-3.7c0-1.1,0.2-1.8,0.6-1.9
		c0.4-0.2,1-0.3,1.8-0.5h0.2c1.1,0,2.5,0,4.2,0s4.4,0,8.2,0.1c3.8,0.1,9,0.2,15.6,0.4c6.6,0.2,15.6,0.5,26.8,1
		c2.7-3.8,5.3-7.4,7.7-10.6s4.4-5.7,6-7.4c0.8-1.3,1.5-2.2,2-2.6c0.6-0.5,1-0.9,1.3-1.2c-0.2,0,0.1,0,0.7,0.1
		c0.6,0.1,1.4,0.2,2.2,0.5c0.8,0.2,1.5,0.6,2.2,1c0.6,0.4,1,0.9,1,1.6c0,1-0.2,1.8-0.7,2.4c-0.8,1.1-2,2.9-3.7,5.3
		c-1.7,2.4-4.6,6.4-8.8,12c11,0.8,19.2,1.5,24.6,2c5.4,0.6,9.1,1,11.2,1.3s3.1,0.6,3,0.8c-0.1,0.2-0.1,0.4-0.1,0.6
		c-0.2,0-0.2,0.1-0.2,0.2l-0.5,0.5h-0.2c-0.3,0-3.9,0-10.8,0.1c-6.9,0.1-17.4,0.1-31.4,0.1c-1.8,1.7-3.7,3.9-5.9,6.4
		s-4.3,5.3-6.4,8.2c-2.1,2.9-4,5.9-5.9,8.8C100.4,442.8,99,445.4,98,447.8z"/>
	<path d="M118.2,467.7c-0.5,0-0.7-0.4-0.7-1.2c0.6-3.4,1.7-6.6,3.2-9.7c1.5-3.1,3.9-7,7.1-11.8c3.2-4.7,7.7-10.2,13.4-16.4
		c-1.3-0.3-2.6-0.6-3.8-0.8c-1.3-0.2-3-0.7-5-1.3c-1.1,0-1.7-0.4-1.7-1.2c0-0.3,0.2-0.5,0.5-0.5l0.2-0.2h0.7h0.2H145
		c6.9-7.2,14.6-14.6,23-22.3c8.5-7.7,16.6-14.8,24.2-21.4c7.7-6.6,14.4-12.2,20-16.9c5.7-4.7,9.3-7.7,10.9-9h0.2
		c0.8-0.2,1.7-0.2,2.6,0c1,0.2,1.8,0.4,2.5,0.7c0.7,0.3,1.2,0.8,1.4,1.6c0.2,0.7,0,1.6-0.6,2.5c-0.5,0.5-2,2.3-4.4,5.5
		c-2.5,3.2-5.1,6.7-7.8,10.4c-2.7,3.8-5.2,7.4-7.4,10.9c-2.2,3.5-3.4,5.9-3.4,7.2H206c-0.2,0.2-0.4,0.2-0.7,0.2h-1.7
		c-1,0-2,0-3.1-0.1s-1.7-0.7-1.7-1.8v-0.2c0-1.9,0.8-4,2.3-6.2c1.5-2.2,2.8-4.2,3.7-5.8c-2.4,2.1-5.5,4.7-9.2,7.8
		c-3.8,3.1-7.9,6.6-12.5,10.4c-4.6,3.8-9.5,8-14.8,12.5s-10.6,9.1-15.8,13.9c0.8,0.2,2,0.2,3.6,0.2c2.6,0.2,5.1,0.3,7.6,0.4
		c2.5,0.1,4.7,0.2,6.7,0.4c2,0.2,3.7,0.3,5,0.4c1.4,0.1,2.2,0.1,2.5,0.1l0.5,0.2c0,0.3,0.1,0.7,0.2,1.2c0.3,1,0.5,2.1,0.5,3.4
		c0,1.3-0.1,2-0.4,2.3c-0.2,0.2-0.6,0.4-1.1,0.4h-0.2c-3.7,0-7.4-0.1-11.3-0.4c-3.8-0.2-8.2-0.8-13-1.8c-1.1-0.3-2.2-0.5-3.2-0.6
		c-1-0.1-2.1-0.3-3.2-0.6c-9,9-15.8,16.6-20.6,22.9c-4.8,6.3-7.2,10.8-7.2,13.3v0.2c-0.3,0.3-0.5,0.6-0.5,0.8
		C118.7,467.6,118.5,467.7,118.2,467.7z"/>
	<path d="M153.9,448.5c0-1.3,0.2-2.6,0.7-3.8c-1.8,1.1-3.6,2-5.4,2.6c-1.8,0.6-3.5,1.2-4.9,1.7c-1.8,0.6-3.4,1.1-4.8,1.4
		c-0.2,0-0.4-0.2-0.7-0.5c0-0.3,0.3-0.6,1-1c3.2-1.3,6.5-2.9,9.8-4.9c3.4-2,6.3-4.3,8.9-6.8c4.2-4.2,7.6-7.1,10.2-8.8
		c2.6-1.7,4.4-2.5,5.4-2.5h0.2h0.2l0.5,0.5c0.3-0.3,0.8-0.5,1.3-0.5c0.6,0,1,0,1.3,0c3,0,5.2,1.1,6.5,3.4c1.3,2.2,1.9,4.5,1.9,6.7
		c0,3.5-0.9,6.9-2.6,10.1c0.5,0.3,1.2,0.5,2.3,0.6c1,0.1,2.1,0.1,3.2,0.1c2.6,0,4.5-0.2,5.9-0.7s2.1-0.7,2.3-0.7c0.6,0.3,1,0.6,1,1
		l-0.2,0.2l-1,0.7c-0.8,0.6-2.5,1.4-5.2,2.3c-2.6,0.9-5.8,1.3-9.5,1.3H182c-0.3,0-0.6,0-1-0.1c-0.3-0.1-0.6-0.1-1-0.1
		c-2.2,2.1-4.7,3.6-7.4,4.6c-2.7,1-5.4,1.4-7.9,1.4c-2.1,0-4.4-0.6-7-1.8C155.2,453.7,153.9,451.6,153.9,448.5z M161.9,447.8
		c0,0.5,0.2,0.9,0.7,1.3c0.5,0.4,1.6,0.6,3.4,0.6c1.3,0,2.6-0.1,3.8-0.2c1.3-0.2,2.5-0.6,3.6-1.4c-1.9-1.3-3.2-2.9-3.8-4.8
		c-0.6-1.9-1-3.5-1-4.8c-1.3,1.1-2.4,2.1-3.2,3c-0.9,0.9-1.7,1.9-2.4,3C162.2,445.6,161.9,446.7,161.9,447.8z M176.5,433.6
		c-0.6,1.3-1,2.9-1,4.8c0,0.6,0.2,1.5,0.5,2.5s1.1,2.1,2.4,3.2c1.3-1.3,2.2-2.8,2.9-4.7c0.6-1.8,1-3.6,1-5.2c0-1.3-0.4-2.6-1.3-3.8
		c-0.9-1.3-2.1-1.9-3.7-1.9c0,0.3,0.2,0.7,0.6,1.2s0.6,1,0.6,1.7c0,0.6-0.5,1.1-1.4,1.4h-0.2c0,0.2,0,0.3-0.1,0.4
		C176.5,433.4,176.5,433.5,176.5,433.6z"/>
	<path d="M198.6,450.7c-1.1-1.6-1.7-3.4-1.7-5.3c-1.6,0.8-3.5,1.8-5.8,3.1c-2.2,1.3-4.3,2-6.2,2.2c-0.5,0-0.7-0.2-0.7-0.7
		c0-0.2,0.2-0.3,0.5-0.5c0.3-0.2,1-0.4,1.9-0.8c1-0.4,2.2-1.1,3.8-2c1.6-1,3.7-2.3,6.2-4.1c0-0.8,0.1-1.6,0.4-2.5
		c0.2-0.9,0.5-1.7,0.8-2.5c1-2.4,3.3-6.4,7.1-11.9c3.8-5.5,8.3-11.6,13.6-18.4c5.3-6.7,11-13.7,17-20.9c6.1-7.2,12-13.7,17.8-19.4
		c0.3-0.3,0.8-0.6,1.4-0.7c0.6-0.2,1.6-0.2,2.9-0.2c1.4,0,2.8,0.6,4.1,1.7c1.3,1.1,1.9,2.8,1.9,5c0,4.2-1.8,9.3-5.5,15.4
		s-8.4,12.3-14.2,18.7c-5.8,6.4-12,12.6-18.8,18.6s-13.3,11-19.6,15c-0.3,0.5-0.5,1-0.6,1.7c-0.1,0.6-0.2,1.3-0.4,1.9
		c0,0.5,0,1,0,1.6s0.2,1.1,0.7,1.6s1.3,0.9,2.4,1.2c1.1,0.3,2.7,0.4,4.8,0.2c7.2-0.5,12.2-1.3,14.9-2.5c2.7-1.2,4.2-1.8,4.3-1.8
		c0.6,0,1,0.4,1,1.2l-1.2,1c-0.3,0.3-1.2,0.8-2.5,1.6c-1.4,0.7-3,1.5-5,2.4s-4.2,1.7-6.6,2.5c-2.4,0.8-4.9,1.4-7.4,1.9
		c-1.6,0-3.4-0.1-5.3-0.4C202.7,454.2,200.7,452.9,198.6,450.7z M208.9,433.9c1.8-1.3,4.2-3.3,7.2-6.1s6.3-6,9.8-9.5
		s7.1-7.3,10.7-11.4s6.9-8.1,9.8-12.1c3-4,5.4-7.8,7.3-11.5s2.9-6.9,2.9-9.6c-7.5,7.5-13.8,14.5-19,20.9
		c-5.1,6.4-10.2,12.9-15.1,19.4c-2.6,3.2-5,6.4-7.2,9.6c-2.2,3.2-4.4,6.6-6.5,10.1v0.2H208.9z"/>
	<path d="M240.6,453.6c-2.6-1.6-3.8-4.2-3.8-7.7v-1.2c-0.5,0.3-1.3,0.6-2.4,1c-1.1,0.3-2.3,0.6-3.5,1c-1.2,0.3-2.4,0.6-3.6,0.8
		s-2.1,0.4-2.8,0.4c-0.2,0-0.4-0.1-0.7-0.2c-0.3-0.2-0.5-0.4-0.5-0.7c0-0.2,0-0.2,0.1-0.2s0.1-0.1,0.1-0.2h0.2
		c0-0.3,0.2-0.5,0.5-0.5s0.6-0.2,1-0.5c1.6-0.8,3.6-2.2,5.9-4.2s4.6-4.1,7-6.2c2.3-2.2,4.3-4.1,6-5.9c1.7-1.8,2.7-2.8,3-3.1l0.5-0.2
		c-0.3,0-0.2,0.1,0.5,0.2c0.6,0.2,1.4,0.4,2.3,0.8s1.7,0.8,2.4,1.3c0.7,0.5,0.9,1,0.6,1.7c-0.8,1.4-1.7,2.8-2.8,4.2
		c-1,1.4-2,2.8-3,4.2s-1.8,2.9-2.5,4.4s-1,3.2-0.8,5.2c0,0.3,0.4,0.6,1.2,0.8c0.8,0.2,1.7,0.4,2.6,0.4c1.9-0.2,4.1-0.5,6.6-1
		s4.5-0.9,6.1-1.2l3.8-1c0.2,0,0.3,0,0.5-0.1s0.4-0.1,0.7-0.1h0.2c0.3,0.6,0.5,1,0.6,1.2c0.1,0.2-0.3,0.5-1.1,1
		c-3.8,1.9-7.1,3.6-9.8,4.9c-2.7,1.4-6.1,2-10.1,2C243.9,454.8,242.2,454.4,240.6,453.6z M264.3,408.7c0,0.2-0.2,0.4-0.5,0.7
		l-0.2,0.5c0,0.2,0.1,0.3,0.2,0.5v0.2c0,0.5-0.2,1-0.7,1.6c-0.5,0.6-1,1-1.4,1.3l-2.9,1.9l-1.9-3.6c-0.6-1.1-1-2.1-1-2.9
		c0-0.5,0.1-0.9,0.2-1.3c0.2-0.4,0.3-0.8,0.5-1.3l0.5-1c0.2,0,0.2-0.1,0.2-0.2c0-0.2,0.1-0.3,0.2-0.5l0.5-0.5h0.5
		c-0.3,0-0.2,0.1,0.4,0.4c0.6,0.2,1.2,0.5,2,0.8c0.8,0.3,1.6,0.7,2.4,1.2s1.2,1,1.2,1.4C264.6,408.3,264.5,408.5,264.3,408.7z"/>
	<path d="M268.4,448.5c0-1.3,0.2-2.6,0.7-3.8c-1.8,1.1-3.6,2-5.4,2.6s-3.5,1.2-4.9,1.7c-1.8,0.6-3.4,1.1-4.8,1.4
		c-0.2,0-0.4-0.2-0.7-0.5c0-0.3,0.3-0.6,1-1c3.2-1.3,6.5-2.9,9.8-4.9c3.4-2,6.3-4.3,8.9-6.8c4.2-4.2,7.6-7.1,10.2-8.8
		c2.6-1.7,4.4-2.5,5.4-2.5h0.2h0.2l0.5,0.5c0.3-0.3,0.8-0.5,1.3-0.5c0.6,0,1,0,1.3,0c3,0,5.2,1.1,6.5,3.4c1.3,2.2,1.9,4.5,1.9,6.7
		c0,3.5-0.9,6.9-2.6,10.1c0.5,0.3,1.2,0.5,2.3,0.6c1,0.1,2.1,0.1,3.2,0.1c2.6,0,4.5-0.2,5.9-0.7s2.1-0.7,2.3-0.7c0.6,0.3,1,0.6,1,1
		l-0.2,0.2l-1,0.7c-0.8,0.6-2.5,1.4-5.2,2.3c-2.6,0.9-5.8,1.3-9.5,1.3h-0.2c-0.3,0-0.6,0-1-0.1c-0.3-0.1-0.6-0.1-1-0.1
		c-2.2,2.1-4.7,3.6-7.4,4.6c-2.7,1-5.4,1.4-7.9,1.4c-2.1,0-4.4-0.6-7-1.8C269.7,453.7,268.4,451.6,268.4,448.5z M276.3,447.8
		c0,0.5,0.2,0.9,0.7,1.3c0.5,0.4,1.6,0.6,3.4,0.6c1.3,0,2.6-0.1,3.8-0.2c1.3-0.2,2.5-0.6,3.6-1.4c-1.9-1.3-3.2-2.9-3.8-4.8
		c-0.6-1.9-1-3.5-1-4.8c-1.3,1.1-2.4,2.1-3.2,3c-0.9,0.9-1.7,1.9-2.4,3S276.3,446.7,276.3,447.8z M291,433.6c-0.6,1.3-1,2.9-1,4.8
		c0,0.6,0.2,1.5,0.5,2.5s1.1,2.1,2.4,3.2c1.3-1.3,2.2-2.8,2.9-4.7c0.6-1.8,1-3.6,1-5.2c0-1.3-0.4-2.6-1.3-3.8
		c-0.9-1.3-2.1-1.9-3.7-1.9c0,0.3,0.2,0.7,0.6,1.2s0.6,1,0.6,1.7c0,0.6-0.5,1.1-1.4,1.4h-0.2c0,0.2,0,0.3-0.1,0.4
		C291,433.4,291,433.5,291,433.6z"/>
</g>
</svg>
