<?xml version="1.0" encoding="utf-8"?>
<!-- Generator: Adobe Illustrator 19.0.1, SVG Export Plug-In . SVG Version: 6.00 Build 0)  -->
<svg version="1.1" id="Layer_1" xmlns="http://www.w3.org/2000/svg" xmlns:xlink="http://www.w3.org/1999/xlink" x="0px" y="0px"
	 viewBox="0 0 612 11093.2" style="enable-background:new 0 0 612 11093.2;" xml:space="preserve">
<style type="text/css">
	.st0{fill:url(#SVGID_1_);}
	.st1{fill:#FFFFFF;}
	.st2{opacity:0.76;fill:#FFFFFF;enable-background:new    ;}
	.st3{opacity:0.2;fill:#FFFFFF;enable-background:new    ;}
	.st4{opacity:0.56;fill:#FFFFFF;enable-background:new    ;}
	.st5{opacity:0.39;fill:#FFFFFF;enable-background:new    ;}
	.st6{opacity:0.58;fill:#FFFFFF;enable-background:new    ;}
	.st7{opacity:0.4;fill:#FFFFFF;enable-background:new    ;}
	.st8{opacity:0.38;fill:#FFFFFF;enable-background:new    ;}
	.st9{fill:url(#SVGID_2_);}
	.st10{opacity:0.45;fill:#FFFFFF;enable-background:new    ;}
	.st11{fill:url(#SVGID_3_);}
	.st12{fill:url(#SVGID_4_);}
	.st13{fill:#FCEE23;}
	.st14{fill:url(#SVGID_5_);}
</style>
<linearGradient id="SVGID_1_" gradientUnits="userSpaceOnUse" x1="306" y1="6278.6982" x2="306" y2="10407.6836" gradientTransform="matrix(1 0 0 -1 0 10407.6836)">
	<stop  offset="0.3441" style="stop-color:#FBB041"/>
	<stop  offset="0.4744" style="stop-color:#BE202E"/>
	<stop  offset="0.6255" style="stop-color:#2E368F"/>
	<stop  offset="0.9086" style="stop-color:#010101"/>
	<stop  offset="1" style="stop-color:#010101"/>
</linearGradient>
<rect x="0" y="0" class="st0" width="612" height="2773.3"/>
<circle class="st1" cx="257.6" cy="481.1" r="1"/>
<circle class="st2" cx="574.4" cy="374.6" r="1"/>
<circle class="st2" cx="573.1" cy="521.7" r="1"/>
<circle class="st3" cx="559.1" cy="158.4" r="1"/>
<circle class="st2" cx="559.1" cy="556.7" r="1"/>
<circle class="st4" cx="559" cy="672.5" r="1"/>
<circle class="st4" cx="552.8" cy="650.1" r="1"/>
<circle class="st2" cx="543.2" cy="502.3" r="1"/>
<circle class="st2" cx="535.6" cy="397.5" r="1"/>
<circle class="st1" cx="532" cy="66.4" r="1"/>
<circle class="st2" cx="525.6" cy="442.9" r="1"/>
<circle class="st2" cx="518" cy="516.9" r="1"/>
<circle class="st2" cx="514.2" cy="536.1" r="1"/>
<circle class="st2" cx="508.6" cy="305.4" r="1"/>
<circle class="st4" cx="499.6" cy="728.2" r="1"/>
<circle class="st2" cx="495.1" cy="420.9" r="1"/>
<circle class="st4" cx="463.3" cy="670.9" r="1"/>
<circle class="st1" cx="440.8" cy="78.3" r="1"/>
<circle class="st1" cx="431" cy="442.8" r="1"/>
<circle class="st1" cx="415.4" cy="231" r="1"/>
<circle class="st1" cx="408.4" cy="97.4" r="1"/>
<circle class="st1" cx="402.9" cy="165" r="1"/>
<circle class="st1" cx="397.8" cy="6.2" r="1"/>
<circle class="st1" cx="386.7" cy="751.4" r="1"/>
<circle class="st1" cx="375.1" cy="741.8" r="1"/>
<circle class="st1" cx="360" cy="155.4" r="1"/>
<circle class="st1" cx="357.5" cy="682.4" r="1"/>
<circle class="st1" cx="349.5" cy="441.6" r="1"/>
<circle class="st1" cx="345.7" cy="478.2" r="1"/>
<circle class="st1" cx="327.5" cy="106.1" r="1"/>
<circle class="st1" cx="327" cy="660.3" r="1"/>
<circle class="st1" cx="319" cy="127.7" r="1"/>
<circle class="st1" cx="295.7" cy="138.2" r="1"/>
<circle class="st1" cx="290.3" cy="492.1" r="1"/>
<circle class="st1" cx="280.1" cy="31.8" r="1"/>
<circle class="st1" cx="266.9" cy="731.2" r="1"/>
<circle class="st1" cx="227.8" cy="775.6" r="1"/>
<circle class="st1" cx="262.9" cy="682.2" r="1"/>
<circle class="st1" cx="247.5" cy="470.3" r="1"/>
<circle class="st1" cx="243.1" cy="494.2" r="1"/>
<circle class="st1" cx="234.2" cy="437.7" r="1"/>
<circle class="st5" cx="226.9" cy="414.9" r="1"/>
<circle class="st1" cx="191.2" cy="797.3" r="1"/>
<circle class="st1" cx="211.4" cy="217.3" r="1"/>
<circle class="st1" cx="202.5" cy="94.4" r="1"/>
<circle class="st1" cx="181.4" cy="680.9" r="1"/>
<circle class="st1" cx="181" cy="13.2" r="1"/>
<circle class="st1" cx="179" cy="333.5" r="1"/>
<circle class="st1" cx="174.1" cy="562.6" r="1"/>
<circle class="st1" cx="148.1" cy="166" r="1"/>
<circle class="st1" cx="144.2" cy="315" r="1"/>
<circle class="st1" cx="143.6" cy="601.4" r="1"/>
<circle class="st1" cx="125.8" cy="593.3" r="1"/>
<circle class="st1" cx="91" cy="237.9" r="1"/>
<circle class="st1" cx="86.2" cy="470.7" r="1"/>
<circle class="st1" cx="84.1" cy="143.7" r="1"/>
<circle class="st1" cx="72.2" cy="224.3" r="1"/>
<circle class="st1" cx="69.6" cy="167" r="1"/>
<circle class="st1" cx="66.3" cy="489.2" r="1"/>
<circle class="st1" cx="58.9" cy="654" r="1"/>
<circle class="st1" cx="46.1" cy="406" r="1"/>
<circle class="st1" cx="29.5" cy="342.3" r="1"/>
<circle class="st1" cx="304.3" cy="829.7" r="1"/>
<circle class="st1" cx="323.5" cy="845.1" r="1"/>
<circle class="st1" cx="416.1" cy="765.4" r="1"/>
<circle class="st1" cx="498.1" cy="868.1" r="1"/>
<circle class="st1" cx="440.3" cy="845.7" r="1"/>
<circle class="st1" cx="404.2" cy="856.4" r="1"/>
<circle class="st1" cx="295.7" cy="761.5" r="1"/>
<circle class="st1" cx="382.4" cy="920.6" r="1"/>
<circle class="st1" cx="310" cy="864.1" r="1"/>
<circle class="st1" cx="331.6" cy="984.3" r="1"/>
<circle class="st1" cx="233.4" cy="917.9" r="1"/>
<circle class="st3" cx="272.1" cy="1043.2" r="1"/>
<circle class="st3" cx="235.5" cy="1064.9" r="1"/>
<circle class="st6" cx="256.6" cy="1046.1" r="1"/>
<circle class="st6" cx="263.1" cy="1002.4" r="1"/>
<circle class="st7" cx="281.1" cy="793.6" r="1"/>
<circle class="st8" cx="281.1" cy="242.1" r="1"/>
<circle class="st3" cx="286.7" cy="1446.4" r="1"/>
<circle class="st8" cx="290.8" cy="547.5" r="1"/>
<circle class="st6" cx="294.5" cy="931.8" r="1"/>
<circle class="st5" cx="295.5" cy="366.8" r="1"/>
<circle class="st3" cx="280.4" cy="1239" r="1"/>
<circle class="st7" cx="416.3" cy="882.3" r="1"/>
<circle class="st7" cx="431.4" cy="793.9" r="1"/>
<circle class="st6" cx="171.6" cy="1138.4" r="1"/>
<circle class="st6" cx="192.5" cy="1125.4" r="1"/>
<circle class="st6" cx="272.2" cy="932.8" r="1"/>
<circle class="st6" cx="148" cy="1011.6" r="1"/>
<circle class="st4" cx="562.9" cy="794.6" r="1"/>
<circle class="st3" cx="552.8" cy="283.4" r="1"/>
<circle class="st6" cx="272.2" cy="968.4" r="1"/>
<circle class="st3" cx="534.6" cy="962.5" r="1"/>
<circle class="st7" cx="83.2" cy="1079.3" r="1"/>
<circle class="st6" cx="231.8" cy="1015.5" r="1"/>
<circle class="st3" cx="514" cy="1422.8" r="1"/>
<circle class="st3" cx="507.5" cy="870.4" r="1"/>
<circle class="st8" cx="503.8" cy="277" r="1"/>
<circle class="st8" cx="502.4" cy="86" r="1"/>
<circle class="st3" cx="499.6" cy="583.3" r="1"/>
<circle class="st6" cx="229.9" cy="1053" r="1"/>
<circle class="st4" cx="485.2" cy="763" r="1"/>
<circle class="st6" cx="104.4" cy="1123.9" r="1"/>
<circle class="st3" cx="478.9" cy="325" r="1"/>
<circle class="st3" cx="477.9" cy="890" r="1"/>
<circle class="st3" cx="466.5" cy="367.3" r="1"/>
<circle class="st3" cx="454.7" cy="350.1" r="1"/>
<circle class="st8" cx="445.7" cy="591.4" r="1"/>
<circle class="st3" cx="443.3" cy="465.9" r="1"/>
<circle class="st8" cx="443" cy="606.4" r="1"/>
<circle class="st5" cx="436.5" cy="357.2" r="1"/>
<circle class="st5" cx="431.5" cy="351" r="1"/>
<circle class="st6" cx="283.3" cy="1094.9" r="1"/>
<circle class="st6" cx="205.9" cy="1144.4" r="1"/>
<circle class="st7" cx="419.5" cy="827.4" r="1"/>
<circle class="st5" cx="417.4" cy="317.4" r="1"/>
<circle class="st8" cx="406.4" cy="614.1" r="1"/>
<linearGradient id="SVGID_2_" gradientUnits="userSpaceOnUse" x1="306" y1="4181.5161" x2="306" y2="8323.2998" gradientTransform="matrix(-1 0 0 1 612 2769.8999)">
	<stop  offset="0.3441" style="stop-color:#FBB041"/>
	<stop  offset="0.4744" style="stop-color:#BE202E"/>
	<stop  offset="0.6255" style="stop-color:#2E368F"/>
	<stop  offset="0.9086" style="stop-color:#010101"/>
	<stop  offset="1" style="stop-color:#010101"/>
</linearGradient>
<rect x="0" y="8311.3" class="st9" width="612" height="2781.9"/>
<circle class="st1" cx="260.4" cy="10612.1" r="1"/>
<circle class="st2" cx="577.2" cy="10718.6" r="1"/>
<circle class="st2" cx="575.9" cy="10571.5" r="1"/>
<circle class="st3" cx="561.9" cy="10934.8" r="1"/>
<circle class="st2" cx="561.9" cy="10536.5" r="1"/>
<circle class="st4" cx="561.8" cy="10420.7" r="1"/>
<circle class="st4" cx="555.6" cy="10443.1" r="1"/>
<circle class="st2" cx="546" cy="10590.9" r="1"/>
<circle class="st2" cx="538.4" cy="10695.7" r="1"/>
<circle class="st1" cx="534.8" cy="11026.8" r="1"/>
<circle class="st2" cx="528.4" cy="10650.3" r="1"/>
<circle class="st2" cx="520.8" cy="10576.3" r="1"/>
<circle class="st2" cx="517" cy="10557.1" r="1"/>
<circle class="st2" cx="511.4" cy="10787.8" r="1"/>
<circle class="st4" cx="502.4" cy="10365" r="1"/>
<circle class="st2" cx="497.9" cy="10672.3" r="1"/>
<circle class="st4" cx="466.1" cy="10422.3" r="1"/>
<circle class="st1" cx="443.6" cy="11014.9" r="1"/>
<circle class="st1" cx="433.8" cy="10650.4" r="1"/>
<circle class="st1" cx="418.2" cy="10862.2" r="1"/>
<circle class="st1" cx="411.2" cy="10995.8" r="1"/>
<circle class="st1" cx="405.7" cy="10928.2" r="1"/>
<circle class="st1" cx="400.6" cy="11087" r="1"/>
<circle class="st1" cx="389.5" cy="10341.8" r="1"/>
<circle class="st1" cx="377.9" cy="10351.4" r="1"/>
<circle class="st1" cx="362.8" cy="10937.8" r="1"/>
<circle class="st1" cx="360.3" cy="10410.8" r="1"/>
<circle class="st1" cx="352.3" cy="10651.6" r="1"/>
<circle class="st1" cx="348.5" cy="10615" r="1"/>
<circle class="st1" cx="330.3" cy="10987.1" r="1"/>
<circle class="st1" cx="329.8" cy="10432.9" r="1"/>
<circle class="st1" cx="321.8" cy="10965.5" r="1"/>
<circle class="st1" cx="298.5" cy="10955" r="1"/>
<circle class="st1" cx="293.1" cy="10601.1" r="1"/>
<circle class="st1" cx="282.9" cy="11061.4" r="1"/>
<circle class="st1" cx="269.7" cy="10362" r="1"/>
<circle class="st1" cx="230.6" cy="10317.6" r="1"/>
<circle class="st1" cx="265.7" cy="10411" r="1"/>
<circle class="st1" cx="250.3" cy="10622.9" r="1"/>
<circle class="st1" cx="245.9" cy="10599" r="1"/>
<circle class="st1" cx="237" cy="10655.5" r="1"/>
<circle class="st5" cx="229.7" cy="10678.3" r="1"/>
<circle class="st1" cx="194" cy="10295.9" r="1"/>
<circle class="st1" cx="214.2" cy="10875.9" r="1"/>
<circle class="st1" cx="205.3" cy="10998.8" r="1"/>
<circle class="st1" cx="184.2" cy="10412.3" r="1"/>
<circle class="st1" cx="183.8" cy="11080" r="1"/>
<circle class="st1" cx="181.8" cy="10759.7" r="1"/>
<circle class="st1" cx="176.9" cy="10530.6" r="1"/>
<circle class="st1" cx="150.9" cy="10927.2" r="1"/>
<circle class="st1" cx="147" cy="10778.2" r="1"/>
<circle class="st1" cx="146.4" cy="10491.8" r="1"/>
<circle class="st1" cx="128.6" cy="10499.9" r="1"/>
<circle class="st1" cx="93.8" cy="10855.3" r="1"/>
<circle class="st1" cx="89" cy="10622.5" r="1"/>
<circle class="st1" cx="86.9" cy="10949.5" r="1"/>
<circle class="st1" cx="75" cy="10868.9" r="1"/>
<circle class="st1" cx="72.4" cy="10926.2" r="1"/>
<circle class="st1" cx="69.1" cy="10604" r="1"/>
<circle class="st1" cx="61.7" cy="10439.2" r="1"/>
<circle class="st1" cx="48.9" cy="10687.2" r="1"/>
<circle class="st1" cx="32.3" cy="10750.9" r="1"/>
<circle class="st1" cx="307.1" cy="10263.5" r="1"/>
<circle class="st1" cx="326.3" cy="10248.1" r="1"/>
<circle class="st1" cx="418.9" cy="10327.8" r="1"/>
<circle class="st1" cx="500.9" cy="10225.1" r="1"/>
<circle class="st1" cx="443.1" cy="10247.5" r="1"/>
<circle class="st1" cx="407" cy="10236.8" r="1"/>
<circle class="st1" cx="298.5" cy="10331.7" r="1"/>
<circle class="st1" cx="385.2" cy="10172.6" r="1"/>
<circle class="st1" cx="312.8" cy="10229.1" r="1"/>
<circle class="st1" cx="334.4" cy="10108.9" r="1"/>
<circle class="st1" cx="236.2" cy="10175.3" r="1"/>
<circle class="st3" cx="274.9" cy="10050" r="1"/>
<circle class="st3" cx="238.3" cy="10028.3" r="1"/>
<circle class="st6" cx="259.4" cy="10047.1" r="1"/>
<circle class="st6" cx="265.9" cy="10090.8" r="1"/>
<circle class="st7" cx="283.9" cy="10299.6" r="1"/>
<circle class="st8" cx="283.9" cy="10851.1" r="1"/>
<circle class="st3" cx="289.5" cy="4100.2" r="1"/>
<circle class="st8" cx="293.6" cy="10545.7" r="1"/>
<circle class="st6" cx="297.3" cy="10161.4" r="1"/>
<circle class="st5" cx="298.3" cy="10726.4" r="1"/>
<circle class="st3" cx="283.2" cy="9854.2" r="1"/>
<circle class="st7" cx="419.1" cy="10210.9" r="1"/>
<circle class="st7" cx="434.2" cy="10299.3" r="1"/>
<circle class="st6" cx="174.4" cy="9954.8" r="1"/>
<circle class="st6" cx="195.3" cy="9967.8" r="1"/>
<circle class="st6" cx="275" cy="10160.4" r="1"/>
<circle class="st6" cx="150.8" cy="10081.6" r="1"/>
<circle class="st4" cx="565.7" cy="10298.6" r="1"/>
<circle class="st3" cx="555.6" cy="10809.8" r="1"/>
<circle class="st6" cx="275" cy="10124.8" r="1"/>
<circle class="st3" cx="537.4" cy="10130.7" r="1"/>
<circle class="st7" cx="86" cy="10013.9" r="1"/>
<circle class="st6" cx="234.6" cy="10077.7" r="1"/>
<circle class="st3" cx="516.8" cy="4123.8" r="1"/>
<circle class="st3" cx="510.3" cy="10222.8" r="1"/>
<circle class="st8" cx="506.6" cy="10816.2" r="1"/>
<circle class="st8" cx="505.2" cy="11007.2" r="1"/>
<circle class="st3" cx="502.4" cy="10509.9" r="1"/>
<circle class="st6" cx="232.7" cy="10040.2" r="1"/>
<circle class="st4" cx="488" cy="10330.2" r="1"/>
<circle class="st6" cx="107.2" cy="9969.3" r="1"/>
<circle class="st3" cx="481.7" cy="10768.2" r="1"/>
<circle class="st3" cx="480.7" cy="10203.2" r="1"/>
<circle class="st3" cx="469.3" cy="10725.9" r="1"/>
<circle class="st3" cx="457.5" cy="10743.1" r="1"/>
<circle class="st8" cx="448.5" cy="10501.8" r="1"/>
<circle class="st3" cx="446.1" cy="10627.3" r="1"/>
<circle class="st8" cx="445.8" cy="10486.8" r="1"/>
<circle class="st5" cx="439.3" cy="10736" r="1"/>
<circle class="st5" cx="434.3" cy="10742.2" r="1"/>
<circle class="st6" cx="286.1" cy="9998.3" r="1"/>
<circle class="st6" cx="208.7" cy="9948.8" r="1"/>
<circle class="st7" cx="422.3" cy="10265.8" r="1"/>
<circle class="st5" cx="420.2" cy="10775.8" r="1"/>
<circle class="st8" cx="409.2" cy="10479.1" r="1"/>
<circle class="st3" cx="407.7" cy="10332" r="1"/>
<circle class="st5" cx="387.8" cy="10756.7" r="1"/>
<circle class="st8" cx="387.7" cy="10570.2" r="1"/>
<circle class="st7" cx="386.7" cy="10191.7" r="1"/>
<circle class="st5" cx="382.2" cy="10689.1" r="1"/>
<circle class="st7" cx="381.2" cy="10124.1" r="1"/>
<circle class="st8" cx="377.1" cy="10847.9" r="1"/>
<circle class="st7" cx="376.1" cy="10282.9" r="1"/>
<circle class="st8" cx="372" cy="10854.1" r="1"/>
<circle class="st5" cx="359.2" cy="10751.3" r="1"/>
<circle class="st3" cx="329.3" cy="9929.2" r="1"/>
<circle class="st7" cx="347.4" cy="10050" r="1"/>
<circle class="st3" cx="345.4" cy="10323.1" r="1"/>
<circle class="st5" cx="344.8" cy="10769.9" r="1"/>
<circle class="st8" cx="338.7" cy="10576.7" r="1"/>
<circle class="st7" cx="334.1" cy="10270.4" r="1"/>
<circle class="st3" cx="234" cy="9858.6" r="1"/>
<circle class="st5" cx="314.4" cy="10731.1" r="1"/>
<circle class="st5" cx="306.8" cy="10748" r="1"/>
<circle class="st7" cx="305.7" cy="10183.1" r="1"/>
<circle class="st5" cx="298.3" cy="10752.5" r="1"/>
<circle class="st5" cx="296.6" cy="10739.2" r="1"/>
<circle class="st5" cx="294.1" cy="10779.1" r="1"/>
<circle class="st8" cx="289.5" cy="10503.7" r="1"/>
<circle class="st3" cx="286.1" cy="9834.9" r="1"/>
<circle class="st8" cx="285" cy="10864.6" r="1"/>
<circle class="st8" cx="274.9" cy="10513.4" r="1"/>
<circle class="st8" cx="273.8" cy="10511.1" r="1"/>
<circle class="st3" cx="227.5" cy="9790.1" r="1"/>
<circle class="st8" cx="269.4" cy="10838.1" r="1"/>
<circle class="st8" cx="266.3" cy="10502.8" r="1"/>
<circle class="st8" cx="260.5" cy="10894.6" r="1"/>
<circle class="st5" cx="259.5" cy="10822.3" r="1"/>
<circle class="st7" cx="258.4" cy="10257.3" r="1"/>
<circle class="st6" cx="244.9" cy="10034" r="1"/>
<circle class="st6" cx="236" cy="10090.5" r="1"/>
<circle class="st5" cx="203.9" cy="10772.6" r="1"/>
<circle class="st5" cx="194.9" cy="10789.9" r="1"/>
<circle class="st7" cx="180.8" cy="10194.7" r="1"/>
<circle class="st3" cx="130.7" cy="10715.8" r="1"/>
<circle class="st7" cx="105.6" cy="10271.9" r="1"/>
<circle class="st10" cx="99.4" cy="11043.3" r="1"/>
<circle class="st1" cx="93.7" cy="9737.5" r="1"/>
<circle class="st10" cx="87.9" cy="11076.9" r="1"/>
<circle class="st10" cx="76.6" cy="10985.7" r="1"/>
<circle class="st7" cx="47.9" cy="10122.2" r="1"/>
<circle class="st3" cx="550.3" cy="9807.1" r="1"/>
<circle class="st3" cx="542.1" cy="10113.3" r="1"/>
<circle class="st7" cx="353.2" cy="9966.8" r="1"/>
<circle class="st3" cx="553.2" cy="9787.8" r="1"/>
<circle class="st3" cx="494.6" cy="9743.1" r="1"/>
<circle class="st3" cx="404.9" cy="761.2" r="1"/>
<circle class="st5" cx="385" cy="336.5" r="1"/>
<circle class="st8" cx="384.9" cy="523" r="1"/>
<circle class="st7" cx="383.9" cy="901.5" r="1"/>
<circle class="st5" cx="379.4" cy="404.1" r="1"/>
<circle class="st7" cx="378.4" cy="969.1" r="1"/>
<circle class="st8" cx="374.3" cy="245.3" r="1"/>
<circle class="st7" cx="373.3" cy="810.3" r="1"/>
<circle class="st8" cx="369.2" cy="239.1" r="1"/>
<circle class="st5" cx="356.4" cy="341.9" r="1"/>
<circle class="st3" cx="326.5" cy="1164" r="1"/>
<circle class="st7" cx="344.6" cy="1043.2" r="1"/>
<circle class="st3" cx="342.6" cy="770.1" r="1"/>
<circle class="st5" cx="342" cy="323.3" r="1"/>
<circle class="st8" cx="335.9" cy="516.5" r="1"/>
<circle class="st7" cx="331.3" cy="822.8" r="1"/>
<circle class="st3" cx="231.2" cy="1234.6" r="1"/>
<circle class="st5" cx="311.6" cy="362.1" r="1"/>
<circle class="st5" cx="304" cy="345.2" r="1"/>
<circle class="st7" cx="302.9" cy="910.1" r="1"/>
<circle class="st5" cx="295.5" cy="340.7" r="1"/>
<circle class="st5" cx="293.8" cy="354" r="1"/>
<circle class="st5" cx="291.3" cy="314.1" r="1"/>
<circle class="st8" cx="286.7" cy="589.5" r="1"/>
<circle class="st3" cx="283.3" cy="1258.3" r="1"/>
<circle class="st8" cx="282.2" cy="228.6" r="1"/>
<circle class="st8" cx="272.1" cy="579.8" r="1"/>
<circle class="st8" cx="271" cy="582.1" r="1"/>
<circle class="st3" cx="224.7" cy="1303.1" r="1"/>
<circle class="st8" cx="266.6" cy="255.1" r="1"/>
<circle class="st8" cx="263.5" cy="590.4" r="1"/>
<circle class="st8" cx="257.7" cy="198.6" r="1"/>
<circle class="st5" cx="256.7" cy="270.9" r="1"/>
<circle class="st7" cx="255.6" cy="835.9" r="1"/>
<circle class="st6" cx="242.1" cy="1059.2" r="1"/>
<circle class="st6" cx="233.2" cy="1002.7" r="1"/>
<circle class="st5" cx="201.1" cy="320.6" r="1"/>
<circle class="st5" cx="192.1" cy="303.3" r="1"/>
<circle class="st7" cx="178" cy="898.5" r="1"/>
<circle class="st3" cx="127.9" cy="377.4" r="1"/>
<circle class="st7" cx="102.8" cy="821.3" r="1"/>
<circle class="st10" cx="96.6" cy="49.9" r="1"/>
<circle class="st1" cx="90.9" cy="1355.7" r="1"/>
<circle class="st10" cx="85.1" cy="16.3" r="1"/>
<circle class="st10" cx="73.8" cy="107.5" r="1"/>
<circle class="st7" cx="45.1" cy="971" r="1"/>
<circle class="st3" cx="547.5" cy="1286.1" r="1"/>
<linearGradient id="SVGID_3_" gradientUnits="userSpaceOnUse" x1="305.9994" y1="-2713.1082" x2="305.9994" y2="5560.5103" gradientTransform="matrix(-1 0 0 1 612 2769.8999)">
	<stop  offset="0" style="stop-color:#2E368F"/>
	<stop  offset="0.1559" style="stop-color:#3666A5"/>
	<stop  offset="0.3656" style="stop-color:#53C6D6"/>
	<stop  offset="0.7473" style="stop-color:#C0E4DA"/>
	<stop  offset="1" style="stop-color:#FBB041"/>
</linearGradient>
<rect x="0" y="2773.3" class="st11" width="612" height="5557.1"/>
<circle class="st3" cx="539.3" cy="979.9" r="1"/>
<circle class="st7" cx="350.4" cy="1126.4" r="1"/>
<circle class="st3" cx="550.4" cy="1305.4" r="1"/>
<circle class="st3" cx="491.8" cy="1350.1" r="1"/>
<radialGradient id="SVGID_4_" cx="304.8959" cy="-2251.7671" r="437.2478" gradientTransform="matrix(3.5705 0 0 -3.5705 -633.5189 -5266.5742)" gradientUnits="userSpaceOnUse">
	<stop  offset="0.1505" style="stop-color:#FFD213"/>
	<stop  offset="0.1774" style="stop-color:#FBD8AE"/>
	<stop  offset="0.3118" style="stop-color:#FBB041"/>
	<stop  offset="0.4462" style="stop-color:#FBB041;stop-opacity:0.2903"/>
	<stop  offset="0.5269" style="stop-color:#FBB041;stop-opacity:0"/>
</radialGradient>
<rect x="-637.5" y="1638.4" class="st12" width="2185.1" height="2269.7"/>
<circle class="st13" cx="455.1" cy="2773.3" r="302.2"/>
<radialGradient id="SVGID_5_" cx="455.1042" cy="2773.2998" r="302.2042" gradientTransform="matrix(-0.6428 0.766 -0.6894 -0.5785 2659.6633 4029.0481)" gradientUnits="userSpaceOnUse">
	<stop  offset="0" style="stop-color:#F26131;stop-opacity:0"/>
	<stop  offset="0.4373" style="stop-color:#EE5F2F;stop-opacity:0.3061"/>
	<stop  offset="0.7002" style="stop-color:#E5562B;stop-opacity:0.4901"/>
	<stop  offset="0.9163" style="stop-color:#D94728;stop-opacity:0.6414"/>
	<stop  offset="1" style="stop-color:#D44127;stop-opacity:0.7"/>
</radialGradient>
<circle class="st14" cx="455.1" cy="2773.3" r="302.2"/>
</svg>
