<?xml version="1.0" encoding="utf-8"?>
<!-- Generator: Adobe Illustrator 19.0.1, SVG Export Plug-In . SVG Version: 6.00 Build 0)  -->
<svg version="1.1" id="Layer_1" xmlns="http://www.w3.org/2000/svg" xmlns:xlink="http://www.w3.org/1999/xlink" x="0px" y="0px"
	 viewBox="0 0 278 278.2" style="enable-background:new 0 0 278 278.2;" xml:space="preserve">
<style type="text/css">
	.st0{fill:#FFFFFF;}
</style>
<g>
	<path d="M184.9,206.9c-8.6-2-17.2-4.2-24.6-5.9c1.7-3.1,5.6-7.5,6.5-12.4c0.9-4.8-1.1-10.2-2.6-15.3c-8.6,6-8.1,15.3-10.2,23.6
		c-0.7-9.8,1.3-18.7,8.1-26.4c-5.5,1.5-7,5.6-10.9,27.6c-4.6-8.6-9-16.9-18.1-21.8c-1.4,5.9-1.3,11.4,1.9,15.7
		c2.8,3.8,7.3,6.4,11,9.5c-9.9-0.2-14-6.7-15-23.9c-3.7,12.7,0.4,20,14.6,26.5c-5.7,3.7-12,7.3-17.7,11.6c-1.4,1-2.6,2.3-3.7,3.6
		c1.1,0.1,2.3,0.2,3.4,0.3c6.5-8.2,18.8-14.9,25.7-13.2c-9.2,2.4-16.8,7.1-23.5,13.3c1,0,1.9,0.1,2.9,0.1c4.2-3.1,8.4-6.2,13-9.7
		c0.1,4.5-1.2,7.4-4.3,9.5c1-0.1,2-0.1,3-0.2c2-3.5,3.9-6.9,5.8-10.2c0.3,4.1-0.6,7.6-2.3,9.9c0.7-0.1,1.4-0.2,2.1-0.3
		c1.3-3.1,2.4-6.1,3.5-8.7c2.6,2,5.3,4.3,8.2,6.5c0.4-0.1,0.9-0.2,1.3-0.3c-1-0.6-1.9-1.4-2.8-2.2c-3.3-2.9-5.6-6.4-4.9-11.5
		c2.3,5.9,6.1,10,11.1,12.7c1.1-0.3,2.2-0.7,3.3-1c-2.5-0.8-5-3.1-7.8-7c5.5,1,10.9,2,17.4,3.2c0.7-0.3,1.4-0.6,2.1-1
		c-7.3-1.5-14.8-3.1-23.2-4.8c8.6-2.4,22.3,0.7,24.8,4.1c1.1-0.6,2.2-1.1,3.3-1.7C185.7,207.1,185.3,207,184.9,206.9z M134.1,183.9
		l1.2-0.9c3.4,4.5,6.7,9,10.7,14.3C138.2,196.1,134.7,191.6,134.1,183.9z M148.8,204.2c-2.2-10.3-7.7-18.2-15.4-24.8
		C142.4,182.8,152.2,198.7,148.8,204.2z M162.2,178.3c0.2,5.8,1,11.7-4.7,16C156.1,187.9,158.3,180.5,162.2,178.3z M151.7,200
		c11.2-5.3,14.7-12.5,10.6-21.7c0,0,0.1,0,0.1-0.1c0.1-0.8,0.1-1.6,0.2-2.6c4.7,5.5,4.2,15.2-0.9,20.8
		C157.9,200.5,154.4,201.8,151.7,200z"/>
	<path d="M206.3,26.2c0.5,1,1.7,2,1.5,2.8c-1.5,10,1.2,19.1,6.8,28c-3.2-0.7-5.8-1.5-8.4-1.9c-5.5-0.8-10.5,0.5-15.2,3.5
		c-0.7,0.4-1.4,0.7-2.3,0.9c0.9,0.6,1.8,1.2,2.6,1.9c7.6-7.5,22-6.2,25.3,2.6c-7.7-6.1-15.7-6.7-24.8-2.1c2.1,1.7,4.1,3.7,6,5.8
		c4.8-1.5,9.5-3,14.3-4.5c-3.9,3.8-8.4,5.6-13.3,5.6c0.8,0.9,1.5,1.7,2.2,2.6c0.8-0.7,2.1-1.3,4-2c3.1-1.1,6.1-2.5,9.5-4
		c-1.9,4.4-3.8,8.6-5.8,13.1c-1.4-2-2.6-3.7-4.1-5.7c-0.5,0.4-0.9,0.8-1.3,1.2c1.3,1.6,2.5,3.2,3.7,4.7c1.6,2.1,3.1,4.1,4.5,6.3
		c-2-7.7,2.8-19.4,10.5-22.1c-6.3,7.2-10,14.3-10.1,22.8c0.8,1.2,1.5,2.4,2.2,3.6c-1.5-7,0.5-12.6,3.7-18.3
		c3.2,6.8,2.1,12.2-3.7,18.4c0.4,0.7,0.8,1.4,1.2,2.1c6.3-6.9,7.2-15,4.8-23.9c5.4,8.4,3.1,19.6-4.6,24.2c0.5,0.9,0.9,1.7,1.4,2.6
		c0.1-0.3,0.2-0.6,0.4-0.9c8.1-8.1,10.2-17.2,4.4-29.1c10.2,8,20.8,9,31.6,8.8c0.9-0.8,1.8-1.7,3-2.8c-2-2.2-3.8-4.3-5.9-6.2
		c-2-1.8-4.3-3.4-6.4-5.1l1.6-1.8c4.6,4,9.1,8,14.4,12.7c-3.3-6.2-7.8-10-13.1-13c-3.6-2.1-7.1-4.6-10.6-6.9
		c0.6,1.1,1.2,2.3,1.7,3.3c-5,1.3-10.1,2.5-14.4,3.6c0.8-4.1,1.7-8.8,2.8-13.5c0.1-0.6,1.3-0.9,2-1.3c-1.3-2.2-2.5-4.4-3.9-6.6
		c-2.7-4.3-5.4-8.6-8.2-13c-2.3,2.6-3.8,4.3-5.2,5.9c0.3-2.7,0.5-5.4,0.8-7.9C210,22.4,208.1,24.3,206.3,26.2z M194.1,63
		c4.7-3.2,9.5-3.4,14.9-1.3C201.9,66.4,198.6,66.6,194.1,63z M247.6,66.7c-7,1.2-13-0.9-19.4-4.6C237.1,58.6,244.9,60.6,247.6,66.7z
		 M241.9,58.6c-5.5,0.4-11,0.9-17.7,1.4C231.3,55.1,238.6,54.9,241.9,58.6z M250.5,70c-12.4,2.5-26-2.6-29.7-10.9
		C229.1,67.2,239.7,68.9,250.5,70z M216.6,59.3c4.9-6.5,6.3-13.6,4.4-21.9C227.1,42.3,224.3,55.6,216.6,59.3z M216.5,26.1
		c2.1,3,4.2,5.9,6.3,8.9c-0.5,0.5-1,0.9-1.6,1.4c-2.2-3-4.3-6-6.5-9C215.3,26.9,215.9,26.5,216.5,26.1z M213.8,32.4
		c6.2,2.5,8,9.5,4.5,19.5C214.5,45.3,212.8,39.3,213.8,32.4z M217.1,53.8c0.1,0.2-0.3,0.8-0.8,2c-5-6-6.9-12.6-7-19.7
		c0-2.3,1-4.7,1.6-7c0.4,0.6,1.1,1.3,1,1.9C211.1,39.1,213.1,46.7,217.1,53.8z"/>
	<path d="M271.3,146.9c-0.1-0.5-0.3-0.9-0.4-1.4c2.4-0.8,4.8-1.6,7.1-2.5c0-0.3-0.1-0.5-0.1-0.8h-7.9c8.6-7.3,1-13.7,0.9-20.6
		c2,2.6,3.5,5.4,4.6,8.3c1,2.7,1.5,5.6,2.2,8.5c0.6-15.8-10.8-29.8-26.6-27c2.4,9.1,7.8,15.6,15.8,20c1.4,0.8,2.6,2,3.8,3
		c-0.4,0.4-0.7,0.8-1.1,1.2c-11-4.4-17.5-12.8-21.2-23.8c16.9-7.4,20-23.1,14.6-34.3c-2.4,0.4-4.5,0.8-6.7,1.2c1.7-2,3.5-3.9,6-6.7
		c-3.5,1.4-5.7,2.3-8,3.2c-0.1,0.8,0.1,1.8-0.3,2.4c-6.4,8.1-8.9,17.4-8.3,28.8c-5.7-7.8-12.3-11.8-21.2-11.1
		c-2.2,0.2-4.4,0.6-6.6,1c0.4,0.8,0.8,1.6,1.1,2.3c8.1-5.4,23.7,1.4,25.9,11.4c0.1,0.5-0.9,1.3-1.5,2c-5.9-11-6.4-11.3-24.3-13.3
		c1,2.1,1.9,4.3,2.7,6.4c6.3,1.6,12.5,3.1,19.4,4.9c-6.5,1.8-15.5-0.6-19.3-4.5c0.6,1.7,1.3,3.5,1.8,5.3c0.5-0.5,1-0.9,1.5-0.9
		c6,0.6,12,1.5,18,2.2c-4.8,3.2-9.7,6.5-15.1,10.1c-0.9-1.8-1.8-3.8-2.8-5.8c1.4,5.5,2.5,11,3.2,16.8c0.3,2.2,0.5,4.4,0.8,6.6
		c10.2-4.2,18.2-10.1,18.9-22.5c4.8,9,11,15.8,20.2,19.9c1,0.4,1.8,2.2,1.8,3.4c0,1-1,2.5-1.9,2.9c-9.3,4-15.9,10.7-20.7,20.9
		c-0.8-12.7-7.4-19.5-18.2-23.3c0.2,2,0.5,4.1,0.6,6.1c0.6-0.1,1.4-0.2,2.1-0.3c2.4,2.7,5,5.3,7.2,8.2c1.1,1.5,1.4,3.5,1.1,6
		c-2.3-2-5-3.8-6.8-6.1c-1.6-2-2.4-4.5-3.5-6.9c0.2,2.3,0.3,4.6,0.4,6.9c0,0,0-0.1,0.1-0.1c3.7,3,7.3,6.1,11,9.1
		c-0.4,0.5-0.8,0.9-1.2,1.4l-9.8-8.3c0,0.8,0,1.7,0,2.5c3.7,2.7,7.2,5.3,10.9,8c-4.1,0.6-8.1,1.2-12,1.7c-0.1,0.3-0.1,0.6-0.2,0.9
		c4.7-1.2,10.6-1.3,16.2,0.1c0,5.3-0.7,10.8,0.2,16.1c0.9,4.9,3.7,9.5,5.5,14.2c0.6,1.5,0.9,3.2,1.3,4.8c1.5,0,3,0,5.3,0
		c1.2-5.7,2.5-11.7,3.8-17.6c2.3,7,0.1,13.6-2.4,20.2c9.6-13.3,4.5-33.9-9.4-36.8c-2.7,10.5,0.3,20.1,5.5,29.4
		c-7.9-5.6-10.9-19.6-7.8-29.2c6.4-1.7,12-3.3,17.7-4.7c0.8-0.2,1.8,0.3,2.6,0.4c2.3-6.5,10-11.5,9.5-20.4H271.3z M268.8,121
		c-5-2.4-10.3-5.1-16.2-8C260.6,112,268.2,116.4,268.8,121z M255.6,117.4c7.1,0,13.6,5.8,14.3,13C263.1,128.3,258.5,124,255.6,117.4
		z M237.3,108.1l-16.3-5.6c0.3-0.7,0.5-1.4,0.8-2.1c6.4-0.9,11.9,0.9,16.1,5.9C237.7,107,237.5,107.5,237.3,108.1z M262.6,80
		c1.2,4.1,1,8.3,0.3,12.6c-0.9-4.1-1.8-8.2-2.7-12.3C261,80.2,261.8,80.1,262.6,80z M250.4,101.8c1.9-6,3.8-11.9,5.7-17.9
		c0.6,0.1,1.2,0.3,1.8,0.4C261.1,90.3,258.6,97.6,250.4,101.8z M256,79.1c0,1.2,0.4,2.6-0.2,3.4c-4.2,6.1-6.2,12.7-6,20.1
		c0,0.8-0.6,1.7-1.1,2.8C245.3,98.7,249.4,84.8,256,79.1z M247.8,107.3c6.2-2.3,9.9-7,12.4-12.9c0.3-0.7,1.7-1,2.6-1.4
		c-2.3,9.6-8.5,15.8-16.9,16.5C246.8,108.5,247.2,107.5,247.8,107.3z M232.3,135c7.7-3.2,10.1-10.3,12.7-17.2
		C246.4,125.7,240.3,134,232.3,135z M241.7,119.9c-0.8,6.4-3,9.4-8.9,12.2C230.6,127.6,234,123,241.7,119.9z M230.5,125.3
		c0.8-4.6,9.1-10.7,17.9-11.8C241.7,117.9,236,121.7,230.5,125.3z M245.3,167.1c-1.1,0.2-2.2,0.3-3.4,0.5c2.9-8.9-1.6-17.9-9.7-20.7
		c-0.2-2.1,0.6-2.6,2.9-1.3c5.3,3,9,7.4,10.1,13.4C245.7,162,245.3,165,245.3,167.1z M251.2,172.9c6,3.7,9.5,8.2,10.3,14.8
		c-0.7,0.2-1.7,0.6-1.9,0.4c-2.9-4.3-5.7-8.6-8.5-13C250.9,174.8,251.1,174.2,251.2,172.9z M250.5,177.7c7.2,5.8,9.3,12.5,6.2,19.5
		C251.9,191.6,250.3,185.5,250.5,177.7z M269.5,145.2c0.4,0.4,0.8,0.9,1.1,1.3c-3.7,2.6-7.6,4.9-10.9,7.9c-3.2,3-5.7,6.7-8.5,10.1
		l-1.1-1.1C254.4,155,260.7,148.7,269.5,145.2z M260.2,167.2c-4.3,1.7-8.7,2.2-12.7-0.6c9.9-0.3,12.7-1.1,21.2-7.5
		C267.8,164.6,263.8,165.9,260.2,167.2z M253.8,162.7c4.8-4.4,9.6-8.8,15.3-14C269.7,157.3,263.6,162.8,253.8,162.7z M271.2,159.6
		c-0.6-0.2-1.1-0.5-1.7-0.7c1.4-3.4,2.7-6.7,4.1-10.1c0.7,0.3,1.4,0.6,2.1,0.9C274.3,153,272.8,156.3,271.2,159.6z"/>
	<path d="M252.5,205.7c-1,0.7-2.2,2.1-3.1,1.9c-10-1.4-19,1.3-27.9,6.8c0.7-3,1.5-5.5,1.9-8c1-6.2-0.7-11.7-4.2-16.6
		c-0.3,0.4-0.6,0.9-0.8,1.3c-0.1,0.1-0.1,0.2-0.2,0.3c2.7,3.3,4,7.2,4,11.7c0,5.5-1.8,10.4-7.1,13.6c5.6-8.3,6.4-16.3,2.3-24.1
		c-0.5,0.7-0.9,1.4-1.4,2.1c2.4,3.8,2.3,8.7-0.6,13.9c-0.7-3.3-1.4-6.5-2.2-10c-0.4,0.6-0.9,1.2-1.3,1.7c1.1,3.9,2.2,7.7,3.3,11.5
		c-2.3-2.9-4.2-5.9-5.1-9.3c-0.4,0.5-0.8,0.9-1.3,1.4c1.4,3.5,2.8,6.9,4.3,10.5c-3.6-1.7-7-3.3-10.8-5.1c-0.2,0.1-0.3,0.2-0.5,0.3
		c-1,0.6-1.9,1.2-2.9,1.8c5.9-0.7,13.8,3.4,16.6,9.1c-5.7-3.1-10.9-6-16.6-9c-1.4,0.8-2.8,1.7-4.2,2.5c4.5-0.3,8.8,0.5,12.6,3.8
		c-6,2.7-11.1,2.1-16.1-1.9c-2.5,1.3-5,2.6-7.5,3.7c1.8,0,3.5-0.2,4.5,0.5c7.8,5.6,15.8,6.3,25.4,1.5c-6.5,9.7-9.2,19.3-8,29.8
		c0.1,0.7-0.5,1.6-0.8,2.3c1,0.5,2.1,1.1,3.9,2c3.5-3.8,7.2-7.9,11-11.9c0.5,0.5,1,0.9,1.5,1.4c-4,4.6-8.1,9.1-13,14.7
		c6.5-3.7,10.4-8.2,13.4-13.6c2.1-3.6,4.7-7,7-10.4c-1.3,0.6-2.6,1.2-3.5,1.7c-1.3-5.1-2.6-10.1-3.6-14.4c4.2,0.8,8.9,1.7,13.6,2.8
		c0.5,0.1,0.8,1.4,1.1,2.1c2.2-1.3,4.4-2.6,6.6-4c4.3-2.7,8.6-5.4,13-8.2c-2.6-2.3-4.3-3.8-5.9-5.2c2.7,0.3,5.4,0.6,7.5,0.8
		C255.8,209.8,254.1,207.8,252.5,205.7z M189.3,217.7c6.8,4,13.9,4.8,21.5,1.9C204.2,225.2,194.1,224.1,189.3,217.7z M241.9,209.3
		c2.5-0.1,5,1,7.5,1.6c-0.6,0.5-1.3,1.2-1.9,1.1c-8.3-1.1-15.8,1-22.8,5.1c-0.3,0.1-0.9-0.3-2.1-0.8
		C228.6,211.4,235,209.4,241.9,209.3z M246.4,212.4c-2.8,7.7-11,9.6-19.1,4.4C233.3,215.4,239.4,214,246.4,212.4z M208.6,250.2
		c-3.5-9.7,2.4-26.4,10.3-29.7c-2.7,5-5.8,9.6-7.5,14.6C209.8,239.9,209.8,245.2,208.6,250.2z M211.7,247.8
		c-1-7.3,0.8-13.4,4.6-19.4C219.8,236.5,218.1,244.2,211.7,247.8z M219.9,241.9c-0.4-5.6-0.9-11.1-1.4-17.5
		C223.3,230.6,223.6,238.1,219.9,241.9z M219.1,216.5c6.6,5.1,13.9,6.1,22.3,4.4C236,226.9,223.8,224.5,219.1,216.5z M252.5,216.4
		l-9,6.3c-0.4-0.5-0.7-1-1.1-1.6c3-2.1,5.9-4.3,8.9-6.4C251.7,215.3,252.1,215.9,252.5,216.4z"/>
	<path d="M207.8,189.3c0.9-1.5,1.8-3.1,2.8-4.6c-0.8-5-4.7-8.6-7.4-12.3c5.2-1.2,10.6-2.5,16-3.7c0.3-0.9,0.5-1.9,0.6-2.8
		c-1.5,1.1-3.3,2.1-5.4,2.9c-5.4,1.9-10.7,1.8-15.7-2.2c8.3,1.6,15.7,0.9,21.7-4.5c0.1-0.8,0.1-1.6,0.1-2.5c-3.3,3.5-8.1,5.6-13,5.1
		c2.6-4.8,7.5-9,12.9-11.4c0-0.9-0.1-1.8-0.2-2.7c-5.7,4.7-11.5,9.4-17.2,14.1c3.9-7.5,9.8-12.9,17-16.6c0-0.5-0.1-1-0.1-1.5
		c0-0.1,0-0.2,0-0.3c-6.7,5.3-13.5,10.5-19.7,15.3c-1.3-12.4-6.2-18-19.5-20.3c0.2,9.9,7.4,15.5,13.6,21.7c-0.5,0.4-0.9,0.8-1.4,1.2
		c-2.5-3.5-5-7-7.6-10.5c-0.7,0.7-1.5,1.4-2.2,2.1c2.9,3.2,5.8,6.5,9,9.9c-5.4-0.4-10.5-1-15.7-1.1c-2.8-0.1-5.6,0.5-8.4,1
		c-3.9,0.6-4.4,2.4-1.5,5.2c0.9,0.3,2,0.3,2.7,0.8c6.8,4.7,13.6,5.5,20.7,0.8c0.6-0.4,1.5-0.2,2.5-0.3c-4.1,5.5-10.7,7-17.8,4.3
		c-1.5-0.6-3.1-1-4.6-1.5c7,6.2,15.4,5.8,25.2-1.7c-2.9,9.9-4.4,19.5-2,29.9c0.8-0.5,1.6-0.9,2.4-1.4c-4-9.5-1.3-28.3,5.9-32.4
		c-5.6,10.7-6.3,21.1-4.7,31.6c0.7-0.4,1.3-0.9,1.9-1.4v-21.9c5.3,5.7,6.2,12.8,2.8,19.5c0.7-0.7,1.4-1.4,2.1-2.2
		c0.4-0.5,0.9-1.1,1.3-1.6c1.2-7.1-0.4-13.1-4.5-18.7C205.7,177.2,208.3,183.5,207.8,189.3z M192.9,160.4c-3.4-4.3-6.8-8.7-10.3-13
		C189.9,148.1,193.3,152.4,192.9,160.4z M170,170.4h17.8C182.2,175.6,177.4,175.5,170,170.4z M167.4,168.6c8.9-4.5,25.9-2.4,29,3.7
		C186.8,167.6,177.3,167.2,167.4,168.6z M195.1,168.1c2.7-11.9-1.1-20.2-13.8-24.4c6.6-0.3,12.3,3.5,15.1,9.1
		C198.9,157.9,199.3,163,195.1,168.1z"/>
	<path d="M34.9,103.1c-0.4,0.6-0.6,1.4-1.2,2.9h16.1c0-0.1,0.1-0.2,0.1-0.2c0.2-0.6,0.5-1.1,0.8-1.7c-2.7,1.2-6.2,0.9-9.5,1.3
		c2.3-4.7,6.2-6.9,12.3-6.8c0.4-0.6,0.7-1.3,1.1-1.9c-6.8,0-12.6,2.9-17.4,8.8c2.2-7.4,10.5-11.4,18-9.9c0.4-0.7,0.9-1.4,1.3-2.2
		C48,92.1,39.5,95.8,34.9,103.1z"/>
	<path d="M218.4,132.5c-5.5-5.6-10.9-11.4-16.2-17.2c-1.9-2.1-1.5-4.1,0.7-5.9c2.1-2.6,4.4-5.2,6.5-7.8c-0.3-0.5-0.5-1-0.8-1.6
		c-0.3,1.1-0.7,2-1.2,2.8c-2.2,3.6-5.1,6.2-9.5,6.7c4.9-3.6,7.8-7.7,9.1-12.4c-0.4-0.8-0.9-1.5-1.3-2.2c-0.6,2.4-1.8,4.7-3.7,6.8
		c-2-3.6-2.5-9.6-1.6-14.7c-0.3-0.4-0.6-0.8-0.9-1.2v19.7c-3.7-3.4-4.7-14.2-2.7-23.2c-0.6-0.7-1.1-1.4-1.7-2.1
		c-1.8,8.7-1.1,17.4,1.4,26.7c-8.5-6.1-16.7-8.6-25.2-1.9c0,0,0-0.1,0-0.1c-1.5,0.9-3,1.8-4.9,3c8.2,6.6,17.1,3.8,26.3,3.4
		c-5.7,4-13.2,3.7-28.3-0.3c8.9,6.3,18.9,4.2,29.4,3.4c-7.1,6.6-14.5,12.5-17.3,23c1.7-0.5,2.7-0.9,3.8-1.2c0-1.4-0.7-3.4,0-4.2
		c5.1-5.7,10.3-11.3,15.7-16.7c1.2-1.2,3.6-2.7,4.1,1c4.8,5.3,9.3,10.8,14.5,15.7c1.3,1.2,2.7,2.3,4.1,3.3
		C218.7,134.3,218.6,133.4,218.4,132.5C218.5,132.5,218.4,132.5,218.4,132.5z M171.6,110.1c6.7-5.2,12-5.1,18.4,0H171.6z
		 M196.7,113.8c-7.5-9.8-16.4-11.9-27.8-4.4c1.4-2.3,2-3.3,2.5-4.3c1.5-0.4,3.1-0.8,4.6-1.3c8.1-2.9,16.8,0.1,20.7,7.2
		C196.9,111.6,196.9,112.3,196.7,113.8z"/>
	<path d="M72.6,252.3c-0.6-1.1-1.9-2.2-1.8-3.2c1.3-10-1.2-19-7.3-28.3c10,4.2,18.4,3.3,26.1-2.2c-0.7-0.4-1.5-0.9-2.2-1.3
		c-8.3,7-20.9,6.3-25.7-2.7c8.5,6,16.8,6.9,24.8,2.1c-0.6-0.4-1.2-0.8-1.9-1.2c-4.9,2.9-9.7,3.4-15.6,1.1c3.7-2.1,7.3-3.6,11.3-4
		c-0.5-0.4-1-0.7-1.5-1.1c-4.3,1.2-8.6,2.5-13.1,3.8c2.7-2.8,6.7-4.7,10.6-5.6c-0.4-0.3-0.9-0.6-1.3-0.9c-3.5,1.3-7.2,2.5-10.6,3.8
		c1.2-3,2.4-6.2,3.6-9.4c-0.3-0.2-0.5-0.5-0.8-0.7c-1.6,5.1-5.2,11-8.8,12.4c2.2-4.9,4.4-9.8,6.6-14.5c-0.3-0.3-0.6-0.7-0.9-1
		c-0.7,2.6-2.1,5.4-4.2,7.8c-1.6-4.6-1.6-8.7,0.2-12.6c-0.4-0.5-0.8-1.1-1.2-1.7c-2.4,5.6-2.1,11.6-0.2,17.7
		c-4.8-4.5-4.7-12.9-0.6-18.7c-0.4-0.6-0.8-1.2-1.2-1.8c-4.5,7.4-5,14.7-1,22.7c-9.5-7.3-20.6-7.3-31.5-8.1c-0.5,1-1.1,2.1-2,3.9
		c3.8,3.5,7.9,7.2,11.9,11c-0.5,0.5-0.9,1-1.4,1.5c-4.6-4-9.1-8.1-13.7-12.1c2.9,5.6,7.2,9.6,12.7,12.6c3.6,2,6.9,4.7,10.4,7
		c-0.6-1.3-1.2-2.5-1.7-3.5c5-1.3,10-2.5,14.4-3.6c-0.8,4-1.8,8.9-2.9,13.7c-0.1,0.5-1.4,0.7-2.1,1.1c1.3,2.2,2.6,4.4,4,6.6
		c2.7,4.3,5.4,8.6,8.2,13c2.3-2.6,3.8-4.3,5.3-5.9c-0.3,2.7-0.5,5.4-0.8,7.6C68.6,255.8,70.6,254.1,72.6,252.3z M31,211.6
		c6.9-1.2,12.9,0.9,19.1,4.4C42.1,219.9,33.6,217.8,31,211.6z M36.6,219.8c5.5-0.4,11.1-0.8,17.6-1.3
		C47.5,223.2,40.1,223.5,36.6,219.8z M28.1,208.9c8.7-4.3,25.6,1.5,29.6,10.2C49.4,211.3,39.1,209.2,28.1,208.9z M62,219
		c-4.9,6.5-6.3,13.6-4.5,21.6C51.4,236.7,54.1,223.2,62,219z M61.9,252.4c-2-3.1-4.1-6.2-6.1-9.3c0.5-0.3,1-0.7,1.5-1
		c2.2,3,4.4,5.9,6.6,8.9C63.2,251.5,62.6,251.9,61.9,252.4z M64.2,245.8c-5.8-2.8-7.5-10-4.2-18.2C64.2,231.5,66.1,240,64.2,245.8z
		 M61.4,224.6c-0.1-0.2,0.3-0.8,0.8-2.1c4.8,6.2,6.9,12.7,6.9,19.8c0,2.3-1,4.7-1.6,7c-0.4-0.6-1.1-1.3-1-1.9
		C67.5,239.2,65.5,231.7,61.4,224.6z"/>
	<path d="M203.3,16.2c-4-0.3-8.1-0.5-12.1-0.7c5.8,1.1,11.5,2.2,17.3,3.3C206.8,17.6,205.1,16.4,203.3,16.2z"/>
	<path d="M218,129c-0.2-1-0.3-2-0.5-3c-3.3-2.8-6.7-5.6-10-8.4c3-0.6,5.9-0.2,8.3,0.9c0-0.2-0.1-0.3-0.1-0.5
		c-0.2-0.7-0.4-1.4-0.6-2.1c-3.1-1.4-6.4-2.1-9.7-2.9c2.8-1,5.9-1,8.8-0.2c-0.2-0.7-0.5-1.4-0.8-2.1c-3.5-0.7-7-0.7-10.4-1.3
		C204.9,118.4,210.9,124.1,218,129z"/>
	<path d="M95.7,221.8c-0.8-0.4-1.6-0.8-2.4-1.2c-0.8,10,1.7,18.5,12.7,24.6v-3.8C98.6,240.4,93.9,230.3,95.7,221.8z"/>
	<path d="M75.3,24.2c1.2,0.4,2.6,0.5,3.6,1.2c7.9,5.6,16.6,8,28,7.3c-9.8,6.7-12.6,15.1-11.5,24.8c0.7-0.3,1.4-0.6,2.2-1
		C96.5,52,97,47.5,99.2,43c2.6-5,6.6-8.2,12-9.7c0.2,0,0.7,1.1,1,1.7c-10.2,5.5-11.1,6.2-13.2,20.9c0.5-0.2,1-0.5,1.4-0.7
		c-0.4-6.3,1.7-11,6.8-15.4c0,5.2-0.9,9.4-3.2,13.6c1.1-0.5,2.2-1.1,3.3-1.6c0,0-0.1,0-0.1,0c0.8-4.6,1.6-9.3,2.4-13.9
		c0.6,0.1,1.3,0.2,1.9,0.4c-0.8,4.2-1.5,8.4-2.3,12.7c1-0.5,2-0.9,3.1-1.4V35.3c2.8,3.8,5.6,7.6,8.3,11.5c0.2,0,0.4-0.1,0.6-0.2
		c0.3-0.1,0.5-0.1,0.8-0.2c-4.3-4-7.9-10.3-8.2-15.4c3.7,5.1,7.4,10.1,10.8,14.9c0.8-0.1,1.7-0.2,2.5-0.3c-2.9-1.2-5.2-4.1-7.6-9.4
		c6.1,1.4,10.3,4,12.6,9.2c0.9,0,1.7,0.1,2.6,0.1c-3.5-6.8-9.9-10-17.1-12.2c8.6-0.7,16.1,4.8,17.6,12.3c0.9,0.1,1.8,0.2,2.7,0.3
		c-3.5-9.3-10-14.7-21.3-15.4c3.6-2.3,6.7-3.5,8.8-5.7c4.2-4.4,7.7-9.4,11.6-14.1c0.9-1.1,2.2-2.2,3.5-2.5c0.8-0.2,2.6,0.8,3,1.6
		c4,9.4,10.9,16.1,21.1,21c-11.7,0.9-18.3,6.2-22,15.8c0.6,0.1,1.3,0.2,1.9,0.4c1.9-9.4,11.9-15.4,22.8-13.7
		c0.8,6.5,1.7,12.9,2.5,19.1c0.5,0.1,0.9,0.2,1.4,0.3c-2.3-5.6-2.9-14.8,0-19.3c0.9,6.6,1.8,13.4,2.7,20c0.8,0.2,1.5,0.4,2.3,0.6
		c-2.1-3.5-3-8.2-2.7-13.8c5.2,4.4,7.1,9.2,6.6,15c0.6,0.2,1.2,0.5,1.9,0.7c0.2-7.6-2.6-13.9-8.9-19c7.5,1.9,11.6,10.8,9.5,19.2
		c0.7,0.3,1.4,0.6,2.1,1c1.4-10.1-1.7-17.5-9-22.4c7.1-1.8,14.7-3.6,22.1-5.8c2.6-0.8,4.9-2.6,7.3-3.9c0.3-1.2,0.5-2.4,0.9-4.3
		c-5.6-1.3-11-2.6-16.5-3.8c0.1-0.5,0.3-1.1,0.4-1.6c-2.3-0.1-4.6-0.2-6.9-0.3c-4.3,3.8-8.5,7.6-12.8,11.4
		c-1.1-5.1-2.1-10.1-3.2-15.2h2.4c-3.5-2-6.9-4.2-10.6-6C155.4,3.5,151.5,2,147,0v7.1c-0.5,0.2-1,0.3-1.5,0.5l-2.4-7.1
		c-0.2,0-0.5,0.1-0.7,0.1v7.7c-2.6-1.8-4.1-3.9-5.8-4c-2.5-0.2-5.2,0.9-7.7,1.7c-2.3,0.7-4.5,1.6-6.8,2.5c-0.2-0.7-0.5-1.3-0.7-2
		c5.7-2,11.4-4,17-6c-15.3-0.4-29.7,11.1-26.9,26.9c1.3-0.3,2.5-0.5,3.7-1c7.3-3.1,12.9-8,16.6-15.1c0.7-1.3,1.9-2.2,2.9-3.3
		c0.4,0.3,0.7,0.7,1.1,1c-4.4,11-12.8,17.5-23.8,21.1c-7.3-16.9-23.2-20-34.2-14.6c0.4,2.4,0.8,4.6,1.1,6.8
		c-1.9-1.8-3.9-3.6-6.7-6.1C73.5,19.6,74.4,21.9,75.3,24.2z M196.7,21.7c-4.1,4.5-10.4,6.7-18.3,6.1C182.7,21,190.5,18.5,196.7,21.7
		z M188.1,18c-4.5,3.1-9.3,6.3-14,9.5C177.5,19.8,183.6,16.3,188.1,18z M171.2,28.5c10.6,3.2,20.2-0.2,29.6-5.5
		c-4.1,7.5-18.5,10.9-29.5,7.9c-0.2-1.2-0.5-2.3-0.7-3.5C170.8,27.8,171,28.1,171.2,28.5z M168.3,21.5c1,5.6,0.4,8.2-2.6,9.8
		c1.4-8-0.6-14.8-6.7-21.1C163.9,10.9,167.3,15.3,168.3,21.5z M162.9,24.6c-4.4-4.8-8.8-9.5-14-15.1
		C157.2,8.7,162.7,14.6,162.9,24.6z M150,2.6c3.2,1.6,6.4,3.1,9.6,4.7c-0.2,0.5-0.5,1.1-0.7,1.6c-3.4-1.4-6.7-2.8-10.1-4.2
		C149.3,4,149.7,3.3,150,2.6z M146.6,7.9c2.6,3.6,4.8,7.6,7.8,10.8c3,3.2,6.7,5.7,10.1,8.5c-0.4,0.4-0.7,0.8-1.1,1.1
		C155,24.1,148.9,17.8,145.3,9C145.7,8.6,146.2,8.3,146.6,7.9z M113.4,25.5c-1.7-6.8,2.9-15.1,7.6-15.8
		C118.6,14.6,116.1,19.9,113.4,25.5z M117.5,23.1c0-7.2,5.6-13.6,13.4-14.7C128.2,15.5,123.8,20,117.5,23.1z M79.2,22.6
		c1.5,0.1,3.1-0.1,4.2,0.7c5.6,3.6,11.6,5.5,18.3,5.5c1.2,0,2.4,0.6,3.4,1.7C95.3,31.5,86.4,29.9,79.2,22.6z M83.1,22.1
		c6.5-5,14.6-2.5,18.8,6C96,26.2,90,24.3,83.1,22.1z M109.7,33.1c-1.3-1.4-2.2-2-2.5-2.8c-2.4-5.9-6.9-9.5-12.5-12
		c-0.8-0.3-1.1-1.7-1.6-2.6C102.4,17.7,108.6,23.8,109.7,33.1z M92.7,15.6c-4.1,0.9-8.2,1.8-12.3,2.6c-0.1-0.8-0.2-1.6-0.3-2.4
		C84.2,14.7,88.4,14.8,92.7,15.6z"/>
	<path d="M16.4,75c-0.4,4.1-0.6,8.2-0.8,12.2c1.1-5.7,2.2-11.4,3.3-17.1C17.8,71.6,16.5,73.2,16.4,75z"/>
	<path d="M24.3,69.4c0.7,0.7,0.8,2.1,1.1,3.2c1.3-0.7,2.6-2.1,3.8-1.9c10,1.4,19.1-1.2,28.5-7.3c-4,9.6-3.3,17.7,2,25.3
		c0.5-0.7,0.9-1.3,1.4-1.9c-3.6-3.6-5.3-9-4.7-13.8c0.8-5.7,3.4-9.8,8.4-11.5c-6.7,8-7.4,15.9-3.2,24.5c0.2-0.2,0.3-0.4,0.5-0.6
		l-2-15.2c3.9,2.9,5.8,7.2,5.7,10.7c0.5-0.6,1.1-1.2,1.6-1.8c-1.4-4.2-2.8-8.5-4.3-12.7c0.6-0.2,1.2-0.4,1.9-0.6
		c1.3,3.9,2.5,7.9,3.8,11.8c0.5-0.5,1-1.1,1.5-1.6c-0.4-1.3-0.7-2.5-1.2-3.8c-1-2.7-2.4-5.4-3.4-7.6c3.8,1.3,7.7,2.6,11.6,3.9
		c0.3-0.3,0.6-0.6,0.8-0.9c-6.2-1.4-13.1-5.4-14.7-10.1c9.3,5.5,12.4,7.4,16.4,8.2c0.4-0.4,0.8-0.8,1.2-1.1c-3.5-0.6-6.7-2.1-10.1-4
		c5.8-2.4,10.3-2.2,14.9,0.8c0.4-0.3,0.9-0.6,1.5-0.7c0.2-0.1,0.4-0.1,0.7-0.2c-6.1-3.7-12.9-4.1-20.3-2c7-4.7,16.1-3.7,21.8,1.6
		c0.8-0.3,1.7-0.6,2.5-0.9c-7.9-6-16.3-8-26.3-3.1c6.8-9.4,8-19.9,7.7-30.7c-0.8-0.9-1.7-1.8-3-3.2c-3.9,4.2-7.6,8.3-11.4,12.4
		c-0.5-0.5-1-0.9-1.5-1.4c4-4.6,8.1-9.1,13-14.7C64,22,60.2,26.4,57.1,31.8c-2.1,3.6-4.6,7-6.9,10.5c1.1-0.6,2.2-1.2,3.3-1.7
		c1.3,5.1,2.5,10.1,3.6,14.4c-4.1-0.8-8.8-1.7-13.5-2.8c-0.5-0.1-0.8-1.3-1.3-2c-2.2,1.3-4.5,2.5-6.7,3.9c-4.3,2.6-8.5,5.4-12.9,8.2
		c2.6,2.2,4.3,3.7,6,5.2c-2.7-0.2-5.4-0.5-8.2-0.8C21.6,67.9,23.2,68.4,24.3,69.4z M33.7,69.2c-1.5-0.1-3-1.1-4.5-1.7
		c0.6-0.5,1.3-1.2,1.9-1.1c8.3,1.1,15.7-1.1,22.8-5.1c0.2-0.1,0.8,0.3,2.2,0.9C49,67.4,41.7,69.6,33.7,69.2z M32.4,64.8
		c3-6.4,10-8.1,19.5-4.5C45.4,64,39.3,65.6,32.4,64.8z M59.2,57.6c7.6-8.4,10.4-18.5,10.6-29.5C72.6,40.4,67.1,54.8,59.2,57.6z
		 M66.9,30.8c1.2,7-0.9,12.9-4.3,19.1C58.5,42.3,60.6,33.7,66.9,30.8z M58.7,36.3c0.4,5.8,0.9,11.3,1.3,17.4
		C55.4,48.2,54.9,40.5,58.7,36.3z M59.6,61.8C53,57.5,45.9,55.3,37.9,57C42.9,51.5,55.5,54.2,59.6,61.8z M26.1,61.9
		c3-2.1,6.1-4.2,9.1-6.3c0.4,0.6,0.8,1.2,1.2,1.7c-3,2.1-6,4.2-9,6.4C26.9,63.1,26.5,62.5,26.1,61.9z"/>
	<path d="M24.3,203.1c0.4-1.2,0.5-2.6,1.2-3.6c5.6-7.9,8-16.6,7.4-26.7c2,1.9,3.6,3.6,5.4,5.1c4.2,3.6,9.1,5.1,14.7,5.3
		c0,0,0,0,0.1,0c-0.4-0.8-0.8-1.5-1.1-2.3c-8.9,0.6-19.1-8.2-17.7-16.4c3.6,8.4,8.7,13.7,17,14.9c-0.2-0.5-0.4-1.1-0.7-1.6
		c-3.8-0.5-7-2.7-9.9-6.3c3-0.6,5.5-0.1,7.9,0.8c-0.2-0.5-0.3-1-0.5-1.5c-3.3-0.7-6.6-1.4-9.9-2.1l0.4-2.1c3,0.8,6,1.5,9,2.3
		c-0.2-0.7-0.4-1.5-0.6-2.2c-3.2-0.3-6.4-0.5-9.8-0.8c2.9-2.3,5.6-4.4,8.3-6.6c0-0.1,0-0.1,0-0.2c-0.1-0.4-0.1-0.9-0.2-1.3
		c-3.1,2.9-6.8,5.2-11.1,6.7c-0.7,0.2-1.8-0.7-2.7-1.1c5-1.9,9.6-4.4,13.5-7.8c-0.1-0.8-0.2-1.6-0.3-2.3c-2.2,2.4-4.9,4.4-8.2,6
		c1.1-5.6,3.5-9.5,7.7-12.1c0-0.5-0.1-1-0.1-1.6c-1.8,1.2-3.5,2.4-4.9,4c-2.7,3-3.8,7.4-5.9,10.9c-0.2-7.8,4.8-14.9,10.7-17.6
		c0-0.6,0-1.1,0-1.7c-8.4,4.4-13.9,10.6-12.7,21.9c-5-9.4-11-17.9-21.5-22.1c-2.5-1-2.1-5.1,0.5-6.2c9.3-4,15.9-10.6,20.7-20.8
		c0.8,10.4,5.4,17,13.1,21.1c0-0.6,0.1-1.1,0.1-1.7c-7.2-3.3-12.3-13.2-10.3-22.8c1-0.1,2-0.1,3.1-0.2c-2.8,8.4,0.7,16.6,7.5,20.1
		c0-0.4,0.1-0.9,0.1-1.3c-1.8-1.9-3.6-3.9-5.2-6c-1.1-1.5-1.4-3.6-2-5.4c0.5-0.3,0.9-0.6,1.4-0.9c2.1,2.3,4.2,4.6,6.5,7.1
		c0.2-1.7,0.5-3.3,0.9-4.9c-0.2-0.2-0.3-0.3-0.5-0.5c0.2,0.1,0.3,0.3,0.5,0.4c0.1-0.4,0.2-0.9,0.3-1.3c-3-2.4-5.9-4.8-9-7.3
		c3.7-0.2,7.4-0.4,11.2-0.6c0.3-0.8,0.6-1.6,0.9-2.4c-5,2.1-10.2,2-16,0.5c0-5.2,0.8-10.6-0.2-15.7c-1-5.1-3.7-9.8-5.6-14.7
		c-0.6-1.6-1.3-3.3-1.9-4.9c-1.3,0-2.6,0-4.6,0c-1.2,5.3-2.5,10.6-3.7,16c-0.6-0.1-1.1-0.3-1.7-0.4c-0.1,2.5-0.2,4.9-0.4,7.4
		c3.7,4.1,7.3,8.1,10.8,12c-4.2,1.2-9.2,2.6-14.5,4.2c0-0.7,0-1.8,0-2.8c-2,3.5-4.2,6.9-6,10.6C3.5,123.1,2,127,0,131.7h7.4
		c0.1,0.5,0.2,0.9,0.3,1.4c-2.3,0.8-4.7,1.5-7,2.3c0,0.2,0.1,0.5,0.1,0.7h6.3c1,3.9-5,5.6-2.4,9.8c1.9,3.2,2.7,7,3.9,10.5
		c-0.7,0.2-1.3,0.5-2,0.7c-2-5.7-4.1-11.4-6-16.9c-0.5,16.2,12.5,30.3,26.6,26.6c-1.4-7.9-7.2-15.3-15.4-19.7c-1.4-0.8-2.6-2-3.9-3
		c10.8,1.9,20.2,12.6,21.7,23c-15.5,6.1-19.8,22.3-14,33.8c2.4-0.4,4.5-0.8,6.7-1.2c-1.8,2-3.6,3.9-6.1,6.7
		C19.7,204.9,22,204,24.3,203.1z M9.8,157.4c5,2.4,10.3,5.1,16.2,8C17.9,166.4,10.4,162,9.8,157.4z M23.3,160.6
		c-6.9,0.8-13.9-5.3-14.6-12.9C15.7,150.1,19.9,154.8,23.3,160.6z M8.1,132.9c6.9-6.3,13.4-12.3,19.7-18.1
		C26.4,121.8,16.8,130.9,8.1,132.9z M9.1,127.5c0.4-6.9,5.9-11.8,15.6-11.9c-4.8,4.4-9.5,8.8-14.3,13.2C9.9,128.4,9.5,128,9.1,127.5
		z M29.2,109c0-6.1,0.8-11.5-0.2-16.7c-1-5-3.7-9.7-6.1-15.8C31.6,83.5,35,101.9,29.2,109z M21.7,81.8c4.7,4,7.1,11.4,5.9,18.1
		C21.3,96.1,18.7,88.1,21.7,81.8z M18.2,90.5c3,4.5,6.2,9.3,10,14.8C20.1,101.5,16.2,94.6,18.2,90.5z M20.5,110.5
		c3.6-1,7.6-1.7,10.7,1.6c-8.1-0.9-14.7,1.6-21.5,7.8C11.4,113,16.1,111.6,20.5,110.5z M4.9,129.5c-0.7-0.3-1.3-0.6-2-0.9
		c1.5-3.3,3-6.6,4.5-9.8c0.6,0.2,1.1,0.5,1.7,0.7C7.7,122.8,6.3,126.1,4.9,129.5z M22.7,199.2c0.1-1.5,0-3.1,0.7-4.2
		c3.7-5.6,5.4-11.6,5.5-18.2c0-1.2,0.7-2.4,1.7-3.4C31.6,183.2,30,192.1,22.7,199.2z M16,198.4c-1.2-4.1-1-8.3-0.3-12.6
		c0.9,4.1,1.8,8.2,2.6,12.3C17.5,198.2,16.7,198.3,16,198.4z M15.7,185.4c2.1-9.4,8.1-15.5,17.4-16.7c-1.4,1.3-2,2.2-2.7,2.5
		c-5.9,2.4-9.6,6.8-12,12.5C18,184.5,16.7,184.9,15.7,185.4z M26.6,176.1c1.4,5.9-1.1,13.5-5.8,18C17.4,188.4,19.7,181.3,26.6,176.1
		z"/>
	<path d="M203.3,254.2c-0.8-0.1-1.9,0.1-2.4-0.3c-8.1-6.4-17.5-8.9-28.9-8.4c9-6.6,12.5-14.4,10.6-25.2c-0.9,0.4-1.7,0.8-2.6,1.1
		c2.4,5.2,1.7,11.5-2,16c-2.4,2.9-6,4.9-9.3,7.2c-0.3,0.2-1.5-0.8-2.3-1.3c9.2-3.9,13.9-10.7,13-21.6c-0.4,0.2-0.8,0.4-1.2,0.5
		c-0.4,0.2-0.9,0.3-1.3,0.5c2.3,5.5,0.2,10.6-4.9,14.9l-1.7-0.5c1.6-4.6,3.2-9.1,4.8-13.7c-0.8,0.3-1.7,0.6-2.5,0.9
		c-1.3,5.3-2.7,10.7-4.1,16.2c-1.7-4.1-0.5-11.1,2-15.5c-0.9,0.3-1.8,0.5-2.7,0.8c-0.5,5.4-1,11.4-1.6,17.3
		c-3.1-5.5-6.4-10.7-10.9-14.7c-1,0.2-2.1,0.3-3.1,0.4c5.9,3,12.1,11.7,11.9,18.6c-3.2-7.4-7.4-13.9-14.4-18.3
		c-1,0.1-2.1,0.2-3.1,0.3c5.8,2.8,9.8,6.5,12.5,12.5c-7.3-1.4-11.6-5.2-14.1-12.4c-0.7,0-1.4,0.1-2.1,0.1
		c2.9,8.5,9.2,13.2,18.2,15.1c-9.6,1-18.2-6.4-18.8-15.1c-0.8,0-1.5,0.1-2.3,0.1c3.3,11.2,10,17.2,22.3,18.1
		c-10.1,5.2-17.3,11.4-21.4,20.9c-0.3,0.7-5.3,0.6-5.7-0.2c-4.3-9.3-10.9-16.1-21.3-21c11.3-0.9,18.3-5.7,22-15.3
		c0.3-0.8,0.9-1.5,1.7-2.4c-4.6,0-9.1-0.2-13.5-0.6c-1.3-0.1-2.6-0.3-3.8-0.5c-2.9,3.8-6.2,8.1-9.6,12.5c-0.4-4.4-0.9-8.8-1-13.2
		c0-0.3,0-0.8-0.1-1.3c-2.4-0.6-4.7-1.3-7-2.2c2.3,4,2.7,8.5,3.1,13.8c-5.5-4.6-7.5-9.3-7.1-15.4c-0.3-0.1-0.7-0.3-1-0.4
		c-0.1-0.1-0.2-0.1-0.4-0.2c-0.4,7.7,2.4,13.8,9.1,18.9V226c3.5,5.9,3.8,12.1,2,19.2c-5.3,0-10.9-0.8-16.1,0.2
		c-5.1,1-9.8,3.8-14.7,5.8c-1.4,0.6-2.9,0.8-4.4,1.1v5.2c5.2,1.1,10.5,2.3,15.9,3.5c-3.2,0.9-6.3,1.3-9.3,0.8
		c-3.1-0.5-6.1-1.9-10.4-3.4c13.6,9.9,34.7,5.7,38.2-8.9c-8.8-1.6-17.1-0.9-24.9,3.8c-1.3,0.8-3,1.2-4.4,1.8l-0.4-1.6
		c9.2-6.8,19.4-8.9,29.9-6.3c1.5,7.3,2.8,13.9,4.1,20.6c6.4,2.3,11.3,9.9,20.3,9.4v-6.1c0.5-0.1,0.9-0.2,1.4-0.3
		c0.8,2.3,1.5,4.7,2.3,7c0.2,0,0.4-0.1,0.7-0.1v-6.4c3.9-0.8,5.6,4.9,9.8,2.5c3.2-1.9,7-2.7,10.6-4c0.2,0.7,0.5,1.3,0.7,2
		c-5.7,2-11.4,4.1-17.8,6.4c7.6,0.1,13.5-2.5,19.2-6.1c3.7-2.3,6-5.6,7.3-9.5c1.2-3.3,1.8-6.8,2.6-10.3
		c8.9,14.2,23.6,15.1,32.4,10.5c-0.4-2.4-0.8-4.5-1.2-6.7c2,1.7,4,3.5,6.7,6C205.1,258.7,204.2,256.5,203.3,254.2z M90.4,260.4
		c4.6-3.1,9.3-6.3,14.1-9.5C101.3,258.3,95.2,262,90.4,260.4z M99.5,249.3c-2.7,7.6-10.9,10.4-17.5,7.6l-0.5-1.9
		C87.5,253.2,93.5,251.2,99.5,249.3z M121,230.5c0.4,0.4,0.8,0.8,1.2,1.2c-2.6,3.3-5.2,6.5-7.8,9.8c-0.5-0.4-0.9-0.8-1.4-1.2
		C115.7,237.1,118.4,233.8,121,230.5z M132.1,231.7c-1.7,1.7-3.2,3.6-5.1,5c-2.7,1.9-5.7,3.4-9.7,5.7
		C121.1,233.4,125.5,230.5,132.1,231.7c0.6-0.5,1.2-0.9,2-1.6c-1.5,10.7-11.9,16.9-23.3,14.8c-0.1-1.2-0.2-2.3-0.3-3.4
		C118.6,245.4,128,240.8,132.1,231.7z M110.7,258.5c-1.2-3.8-1.4-7.8,0.3-11.4l1.3,0.2c0.4,3.6,0.2,7.4,1.2,10.9
		c1.1,3.5,3.3,6.6,5.3,10.3C113.2,267.3,112,262.6,110.7,258.5z M115.7,253.9c4.4,4.7,8.8,9.4,13.9,14.8
		C121.6,269.9,116.1,264.2,115.7,253.9z M128.8,275.7c-3.3-1.6-6.6-3.1-9.9-4.7c0.2-0.5,0.5-1.1,0.7-1.6c3.4,1.4,6.7,2.8,10.1,4.3
		C129.4,274.4,129.1,275.1,128.8,275.7z M114.9,250.7c6.5,0.9,15.8,10.5,18.3,19.8C126.6,263.5,120.6,257,114.9,250.7z M148.5,269.8
		c0.8-5.7,5.5-11.1,12.6-14.3C161.1,262.5,155.4,269.1,148.5,269.8z M157.5,268.8c2.5-5,5.1-10.4,8-16.3
		C166.4,260.3,162.4,267.6,157.5,268.8z M163.5,252.1c-7.4,2.8-12.9,7.8-16.7,14.9c-0.7,1.3-1.9,2.4-3.4,3.1
		c3.6-11.5,12.1-17.8,23.2-21.9c0.6,1.4,1.1,2.7,1.7,4C166.7,252.1,164.9,251.5,163.5,252.1z M199.3,255.8c-1.5-0.1-3.1,0-4.2-0.7
		c-5.6-3.7-11.6-5.4-18.2-5.4c-1.2,0-2.4-0.6-3.3-1.7C183.3,246.9,192.2,248.5,199.3,255.8z M194.9,257.4c-6.5,3.6-13.7,1.3-19-6
		C183,250.9,188.9,253.1,194.9,257.4z M168.8,245.3c1.3,1.4,2.2,2,2.5,2.7c2.4,5.9,6.8,9.6,12.5,12c0.8,0.3,1.2,1.7,1.7,2.6
		C176.2,260.7,170,254.6,168.8,245.3z M185.9,262.8c4.1-0.9,8.2-1.7,12.3-2.6c0.1,0.8,0.2,1.5,0.3,2.3
		C194.4,263.7,190.2,263.5,185.9,262.8z"/>
	<path d="M145.7,47.3c0.7,0.1,1.4,0.3,2.2,0.5c1.8-5.9,6.6-9.7,13-10.1c-2.9,5.4-6.5,8.9-10.9,10.6c2.4,0.6,4.9,1.2,7.4,1.7
		c0.1-0.1,0.1-0.2,0.2-0.3c2.6-3.1,5.2-6.1,7.6-9.4c0.4-0.4,0.9-0.9,1.3-1.3l-0.2-0.2c0.5-0.7,1-1.5,1.5-2.2
		C156.7,34.4,150,38.7,145.7,47.3z M157.6,47.6c0.7-0.7,1.4-1.4,2.1-2.1C159.1,46.3,158.4,47,157.6,47.6z"/>
	<path d="M148.3,73.5c0.5,0.2,0.8,0.5,1.5,0.9c-13.5,3.4-18.4,10.3-17.1,24.9c3.9-3,7.6-5.1,10.3-8.1c2.9-3.1,4.9-7,7.5-10.8
		c0.4,5.6-3.8,10.4-17.6,21.5c10.3-3.3,15.5-11.9,21.1-21.3c0.7,9.9,0.9,19.4,6.9,27.8c3.5-4.4,6-9.2,5.2-14.3
		c-0.8-4.8-3.6-9.2-5.3-13.4c7.2,0.9,9.1,11.3,3.8,25.7c7.6-8.5,6.5-18.5-3.4-29.4c4.2,0,8,0.6,11.6-0.1c5.3-1.1,10.5-2.9,15.8-4.3
		c-0.5-0.5-1.1-1-1.6-1.5c-7.4,5-25.4,6.3-30.1,2.5c9.7-1,19.7-1.9,29.7-2.9c-1.2-1-2.4-1.9-3.7-2.7c-2.4,1.1-4.8,2.2-7.3,2.8
		c-3.4,0.8-7.1,0.7-11.8,1c3.3-4.6,6.8-6.6,11-6.8c0.7,0,1.5,0,2.2,0c-1.2-0.5-2.5-0.9-4-1.2c-0.3-0.1-0.7-0.2-1-0.3
		c-4.1,2.6-8.2,5.2-12.8,8.1c2.1-4.4,5.4-7.7,8.6-9.2c-0.6-0.2-1.3-0.3-1.9-0.5c-3,2.3-6.2,4.7-9,6.8c-1.1-2.8-2.4-6-3.9-9.8
		c-0.7-0.2-1.4-0.3-2.1-0.5c0.2,0.4,0.5,0.8,0.8,1.2c3.5,5.7,3.9,12.1,0.3,15.7c0.5-7-0.8-13.1-5.3-18c-0.6-0.1-1.1-0.3-1.7-0.4
		c-1.4-0.3-2.7-0.6-4-0.9c4.9,1.8,7.4,5.2,8.1,12.1c-5.3-3.9-9.8-7.2-14.3-10.5c0.8-1.2,1.2-1.8,1.6-2.2c-2-0.2-4-0.2-6-0.1
		c6.5,5.3,13.1,10.7,19.6,16c-9.1-2.6-16.2-7.9-21.2-15.9c-1,0.1-2,0.2-2.9,0.4C131.6,64.1,139.1,69.8,148.3,73.5z M137.5,95.2
		c-0.8-7.3,3-11.9,10.5-12.8C144.4,86.7,140.9,90.9,137.5,95.2z M161.9,101.4c-1.1-5.5-2.2-11-3.3-16.4
		C165.2,89.1,166.3,94.8,161.9,101.4z M157.2,77.1c1.2,9,2.4,18.6,3.6,27.4C156,100.1,153.6,82.9,157.2,77.1z M154.8,78.4
		c-12.1-0.2-19.1,5.4-21,17.5c-0.5-7.5,1.9-13.5,8.4-17.1C146.2,76.6,150.3,75.5,154.8,78.4z"/>
	<path d="M101.9,199.8c-0.6-1.3-1.6-2.4-2.1-3.9c5.6,2.3,11.2,12.5,12.9,21.3c0.6,0.1,1.1,0.3,1.7,0.4c-2.3-6.7-5.7-13.1-8.7-19.6
		c-0.7-1.6-2.1-2.8-2.7-3.6c5-0.9,10.6-0.6,14.8-2.9c4.3-2.3,7.4-7.1,10.5-11.5c-10.1-3.4-17,3.1-24.7,6.5
		c7-6.9,15.5-10.2,25.2-10.9c-6.2-1.8-11.7,0.6-17,3.2c-4.1,1.9-7.9,4.3-11.8,6.6c5-7.2,6.9-15.3,7.2-23.9c0.1-1.4-1.1-2.8-1.7-4.2
		c-0.4,0.7-0.8,1.4-1.2,2c-10.5,5-11.5,13.8-8.7,24c-4.7-5.1-4.7-12.8-0.1-18.6c2.1-2.7,4.9-4.8,7.4-7.2
		c-11.1,3.7-15.3,15.3-9.9,27.1c-7-2.3-14.1-5.4-21.5-6.8c-4.6-0.9-8-2.4-10.9-6.1c6.1-7,10.6-15.1,12.3-24.4c0.3-1.5,0.1-3.1,0-4.7
		c0.8,0.9,1.7,1.7,2.2,2.8c5.6,10.3,14.4,13.7,25.9,9.5c-4.3-8.9-13.4-10.4-21.9-13.7c6.4-1.7,16.5,3.8,24.7,12.6
		c-0.4-6-14.5-14.6-24.9-15.2c1.8-0.8,3.6-1.8,5.5-2.4c7.4-2.2,14.4-5,20-10.8c-0.7-0.8-1.3-1.6-1.9-2.3c0.6,0,1.2-0.1,1.8-0.1
		c-9.7-7.4-20.7-4.4-29.5,7.3c-3.5-8.6-7.1-17.7-10.8-26.8c-0.5,0.1-1,0.2-1.5,0.3c0.9-1.1,1.8-2.2,2.9-3.6c-0.3-0.3-0.7-0.6-1-0.9
		c-1.4,2.2-2.6,4.5-3.8,6.8c0.6,0.1,1.1,0.3,1.5,0.6c6.1,5.9,11,21.3,9.9,30.3c-3.1,1-6.4,1.8-9.4,3.1c-1.9,0.8-3.6,2.3-5.3,3.5
		c-1.1-0.4-2.2-0.9-3.6-1.5c0.1,3.2,0.3,6.3,0.6,9.5c0.6-1.2,1.4-2.4,2.1-3.6c3.8-6,10-9,17.2-8.6c-0.3,1.1-0.6,2.1-0.8,3.1
		c-6.2-1.2-13.4,3.4-16.3,10.6c-0.6,1.4-0.9,2.8-1.3,4.4c0.6,3.8,1.5,7.6,2.5,11.1c0.1,0.2,0.1,0.3,0.2,0.5c4.6-8.8,8.9-17,13-24.8
		c1.3,6.2-5.3,20-12.8,25.6c1.2,3.7,2.9,7.4,4.9,10.8c0.5-0.6,1-1.2,1.6-1.2c11.2-1.2,20.8,3.1,29.6,9.3c0.9,0.6,0.4,3.2,0.5,4.9
		c-1.2,4.4-2.4,8.7-3.7,13.5c0.2,0.1,0.4,0.3,0.6,0.4c1.6,1.1,3.3,2.2,4.9,3.1c-4.3-8.9-2.9-17.2,4-20c-4.5,6.7-5.1,13.3-3.7,20.3
		c1.5,0.8,2.9,1.5,4.4,2.2c-2.6-3.8-3.8-8.4-2.5-14.5c4.5,5.4,7.5,10.6,8.7,16.9c0.5,0.2,1.1,0.3,1.6,0.5
		C106.7,210.8,104.4,205.3,101.9,199.8z M82.2,143.5c4.8,2.3,9.6,4.7,15,7.3c-6.3,2.8-11.9,0.3-15.6-6
		C81.8,144.4,82,143.9,82.2,143.5z M90.7,153.2c2.5,0.4,5,0.3,8.5,0.6c-13.7,5.2-25-6.2-23.4-16c1,0.3,2,0.6,3,0.9
		C77.6,145.5,82.9,152.1,90.7,153.2z M102.1,123.1c-2.7-0.3-5.4-0.7-8.1-0.7c-5.6,0-10.3,2-13.6,6.9c-0.8,1.2-1.9,2.2-3.7,4.2
		C78.5,122.5,93,117.4,102.1,123.1z M98.6,124.9c-6.3,2.9-11.3,5.2-16.4,7.5l-0.7-1.2C84.6,125.1,90.2,122.6,98.6,124.9z
		 M100.8,124.4C98,131.1,82,137.4,74.2,135C83.8,133.2,93.3,131.4,100.8,124.4z M57,165c-1.6-8.6,2-15.6,10.5-19.9
		C65.7,153.1,62.8,159.6,57,165z M122,179.5c0.2,0.5,0.5,1,0.7,1.5c-3.8,5.1-8.5,8.2-15.3,7c-0.2-0.5-0.4-0.9-0.6-1.4
		C111.9,184.3,117,181.9,122,179.5z M103.1,162.5c-1.9,6.7-3.3,11.9-5,18.1C93.8,173.6,95.8,166.5,103.1,162.5z M96.4,187.8
		c-0.1,0.1-0.6-0.1-1.3-0.2c0.1-0.7,0.1-1.6,0.5-2.1c5.2-6.8,7.9-14.4,7.8-23c0-1,0.5-2,0.8-2.9c0.4,1.1,1.2,2.1,1.2,3.2
		c-0.1,8.3-2.5,15.9-7,22.9C97.8,186.4,97.1,187.1,96.4,187.8z M99.7,185.6C99.7,185.6,99.7,185.6,99.7,185.6c3,1.5,5.9,3.8,9,4.1
		c3,0.3,6.6-0.9,9.4-2.5c2.9-1.6,5-4.4,7.3-6.5c-3.2,10.6-15.9,14.4-24.2,9.5C99,189,98.6,187.7,99.7,185.6z"/>
	<path d="M244.5,172.7c-5.6-1.4-10.9-1.3-16.1,0.2c-0.2,0.6-0.4,1.2-0.7,1.8c3.2-1.1,6.6-1.5,10.5-1.4c-3.8,4.6-7.9,6.7-13,6.8
		c-0.3,0.5-0.5,1-0.8,1.5c6.8-0.1,12.4-2.7,17-8.2c-2.5,6.9-10.5,10.9-18,9.9c-0.3,0.6-0.7,1.1-1,1.7
		C231.9,186.4,241,181.6,244.5,172.7z"/>
	<path d="M93.7,91.2c-0.3,5-1.5,10.3-0.8,15.4c0.8,5.5,4.9,9.6,10,12.7c3.9-9.3,0.1-17.4-3.2-26.7c5.8,5.4,7.8,17.3,5.8,28
		c3.4-3.3,3.4-3.3-1.8-27.5c6.5,3,13.6,6.5,20.8,9.6c2.6,1.1,5.2,0.9,4.6-3.2c-0.8-0.7-1.9-1.2-2.3-2.1c-3.8-7.4-9.4-11.3-18-10.3
		c-0.8,0.1-1.8-0.3-3-0.5c5.1-3.2,11.6-2.1,16.8,2.4c1.4,1.3,3,2.4,4.5,3.6c-5.2-8.5-11.2-10.9-23-8.8c6.7-7.7,12.3-15.7,14.4-25.9
		c-0.9,0.3-1.9,0.7-2.8,1.1c-1.6,10.4-7.5,18.5-15.4,25.4c-0.7,0.6-2.3,0.3-3.5,0.4c4.1-4.7,8.8-9.1,12.1-14.3
		c2-3.2,3.3-6.9,4.8-10.5c-0.9,0.4-1.9,0.9-2.8,1.3c-1.4,6.2-4.5,11.2-8.8,15.8c-1.3-4.6-0.8-8.6,1.5-12.3c-1.4,0.7-2.8,1.3-4.2,1.9
		v13.6L98,80.1c-2.4-6.9-2-11,0.9-13.2c-2.3,1-4.7,1.9-7.1,2.7c0.8-0.1,1.7-0.2,2.5-0.3c0.9,5.4,1.7,10.5,2.5,15.6
		c-2.7-5.2-7.7-6-12.7-6.6c-0.7-0.1-1.5-0.1-2.3-0.1c-0.5,0.6-1,1.1-1.5,1.7c-0.1,0.1-0.2,0.2-0.3,0.3c8.7-0.6,14.8,2.3,17.3,8.9
		c-6.2-5.5-12.9-7.8-20.2-5.9c-1,1-1.9,2.1-2.9,3.2c3.8-2.7,9.6-2.7,14.8,0.3c0,0.5,0,1-0.1,1.4c-6,1.3-12,2.6-18.5,4.1
		c0.2-0.9,0.5-1.7,0.8-2.4c-0.3,0.4-0.7,0.8-1,1.2c-1.8,2.2-3.5,4.6-5.1,7C75.9,98.5,85.3,95.8,93.7,91.2z M100.2,97.1
		c1.2,5.3,2.4,10.6,3.8,16.6c-6.1-3.2-7.7-9.1-5.4-16.3C99.2,97.4,99.7,97.2,100.2,97.1z M123.9,98c-5-2.6-10-5.2-15-7.9
		C116,87.6,121.1,90.3,123.9,98z M127,100c-7.6,2-24.3-8.2-25.1-15.7C108.9,92.7,117,97.9,127,100z M101.6,89.3
		c-8.1,9.4-7.3,18.4,1.9,28c-6.7-3.8-10.3-10.3-10-16C93.8,95.7,96.6,91.1,101.6,89.3z M92.8,88.3c-6.9,5.8-15.1,7.5-23.7,7.8
		c-0.2-0.5-0.3-1-0.5-1.5C76.7,92.6,84.8,90.5,92.8,88.3z"/>
	<path d="M214.2,179.1c0.8-1.4,1.6-2.7,2.4-4.2c-1.1,1.1-2.2,2.3-3.4,3.4C213.6,178.6,213.9,178.8,214.2,179.1z"/>
	<path d="M91.5,192.1c-6.1,4.1-13.3,4.9-17.7,2.8c1.2,1.1,2.4,2.2,3.7,3.2c5.7-1.4,11.4-2.8,17.2-4.2c-0.8-1.2-1.3-2.6-2.4-3.4
		c-7.6-5.9-16.7-7.6-25.9-9.1c-0.5-0.1-1.2,0.6-1.8,0.8c-0.3,0.1-0.5,0.1-0.9,0c2.2,3.6,4.7,7,7.4,10.1H91.5z M68.7,185.5
		c0.4-0.7,0.9-1.5,1.3-2.2c5.7,1.7,11.3,3.3,17.7,5.2c-4,3.2-9.4,3.8-13.9,1.6C71.8,189.1,70.4,187.1,68.7,185.5z"/>
	<path d="M54.4,128.7c-0.2,1.4-0.3,2.7-0.4,4.1c0.4,1.5,0.8,3,1.2,4.5l1.4-0.5C55.9,134.1,55.1,131.4,54.4,128.7z"/>
	<path d="M70.1,137.4c-0.2-11.2-3.3-20.8-10.1-29.9c-0.5,1-0.9,2.1-1.3,3.1c5.5,5.7,8,11.9,8.9,19.8c-7.1-4-9.5-9.5-10.1-16.5
		c-0.2,0.7-0.4,1.4-0.6,2.1c-0.3,1-0.6,2.1-0.8,3.2c1.9,6.6,7.1,11,12.5,15.2c-6.9-1.8-11.7-6.3-13.2-11.6c-0.3,1.4-0.5,2.8-0.7,4.3
		C58.1,132.4,63,135.9,70.1,137.4z"/>
	<path class="st0" d="M251.1,200.8c-1.9-4.8-4.6-9.3-5.5-14.2c-1-5.2-0.2-10.8-0.2-16.1c-5.5-1.4-11.4-1.4-16.2-0.1
		c-0.2,0.8-0.5,1.7-0.8,2.5c5.2-1.5,10.5-1.6,16.1-0.2c-3.6,8.9-12.7,13.7-22.2,12.2c-1.1,1.7-2.2,3.4-3.3,5
		c3.6,4.9,5.2,10.3,4.2,16.6c-0.4,2.5-1.2,5-1.9,8c8.9-5.5,17.9-8.2,27.9-6.8c0.9,0.1,2.1-1.3,3.1-1.9c0,0,0-0.1,0-0.1
		C252,204,251.7,202.4,251.1,200.8z"/>
	<path class="st0" d="M106,245.2c-11-6-13.5-14.6-12.7-24.6c-1.3-0.7-2.5-1.4-3.7-2.1c-7.7,5.5-16.1,6.4-26.1,2.2
		c6,9.3,8.6,18.4,7.3,28.3c-0.1,1,1.2,2.1,1.8,3.2l0.3,0.1c1.5-0.4,3-0.6,4.4-1.1c4.9-1.9,9.6-4.8,14.7-5.8c5.2-1,10.8-0.2,16.1-0.2
		c1.9-7.1,1.6-13.4-2-19.2V245.2z"/>
	<path class="st0" d="M49.8,106H33.7c0.6-1.5,0.8-2.3,1.2-2.9c4.6-7.3,13.1-10.9,21.6-9.7c1-1.6,2.1-3.1,3.2-4.7
		c-5.3-7.5-6-15.6-2-25.3c-9.4,6.1-18.4,8.7-28.5,7.3c-1.2-0.2-2.5,1.2-3.8,1.9c0,0,0,0,0,0c0.6,1.6,1.3,3.3,1.9,4.9
		c1.9,4.9,4.7,9.6,5.6,14.7c1,5.1,0.2,10.5,0.2,15.7c5.8,1.5,11.1,1.6,16-0.5C49.4,106.9,49.6,106.4,49.8,106z"/>
	<path class="st0" d="M254.3,75.2c-0.3-0.6-0.7-1.3-1-1.9c-10.8,0.2-21.4-0.9-31.6-8.8c5.9,11.9,3.7,21.1-4.4,29.1
		c-0.2,0.2-0.3,0.5-0.4,0.9c0.3,0.6,0.6,1.2,0.9,1.9c2.2-0.4,4.4-0.8,6.6-1c8.8-0.7,15.4,3.3,21.2,11.1c-0.5-11.4,2-20.7,8.3-28.8
		C254.4,77.1,254.2,76,254.3,75.2z"/>
	<path class="st0" d="M92,59c1.1-0.4,2.3-0.9,3.4-1.4c-1.1-9.8,1.7-18.2,11.5-24.8c-11.4,0.7-20.1-1.7-28-7.3
		c-1-0.7-2.4-0.8-3.6-1.2c-0.7,0.3-1.3,0.7-2,1c0.4,10.9-0.9,21.3-7.7,30.7C75.7,50.9,84.1,53,92,59z"/>
	<path class="st0" d="M184.8,57.3c1.2,0.6,2.4,1.3,3.5,2c0.1,0.1,0.2,0.2,0.4,0.3c0.9-0.2,1.6-0.5,2.3-0.9c4.7-3,9.7-4.3,15.2-3.5
		c2.7,0.4,5.3,1.1,8.4,1.9c-5.6-8.9-8.3-17.9-6.8-28c0.1-0.9-1-1.9-1.5-2.8c-0.3-0.3-0.7-0.7-1-1c-2.4,1.3-4.7,3.1-7.3,3.9
		c-7.4,2.2-15,4-22.1,5.8C183.1,39.8,186.2,47.2,184.8,57.3z"/>
	<path class="st0" d="M188.1,220.3c-1-0.7-2.7-0.5-4.5-0.5c-0.3,0.2-0.7,0.3-1,0.5c2,10.7-1.6,18.6-10.6,25.2
		c11.4-0.5,20.7,2,28.9,8.4c0.5,0.4,1.6,0.2,2.4,0.3c0.5-0.1,1-0.1,1.5-0.2c0.3-0.8,0.9-1.6,0.8-2.3c-1.2-10.5,1.5-20.1,8-29.8
		C203.9,226.7,195.9,225.9,188.1,220.3z"/>
	<path class="st0" d="M57,190c-1.4-2.2-2.8-4.5-4-6.8c0,0,0,0-0.1,0c-5.6-0.1-10.5-1.7-14.7-5.3c-1.8-1.5-3.4-3.2-5.4-5.1
		c0.5,10.1-1.8,18.9-7.4,26.7c-0.7,1-0.8,2.4-1.2,3.6c0.1,0.5,0.2,1,0.2,1.5c10.9,0.8,22,0.8,31.5,8.1C52,204.7,52.6,197.5,57,190z"
		/>
	<path class="st0" d="M183.2,15.2c-4.3,3.9-8.7,7.8-13,11.6c0.3,0.6,0.7,1.1,1,1.7c10.6,3.2,20.2-0.2,29.6-5.5
		c-4.1,7.5-18.5,10.9-29.5,7.9c-1.4-6.7-2.7-13-4.1-19.6c0.3,0,1.4,0,2.4,0C174.2,12.6,178.7,13.9,183.2,15.2z"/>
	<path class="st0" d="M42.4,228.5c-0.6-1.3-1.2-2.5-1.7-3.5c5-1.3,10-2.5,14.4-3.6c-0.8,4-1.8,8.9-2.9,13.7
		c-0.1,0.5-1.4,0.7-2.1,1.1C47.6,233.6,45,231,42.4,228.5z"/>
	<path class="st0" d="M228.5,236.1c-1.3,0.6-2.6,1.2-3.5,1.7c-1.3-5.1-2.6-10.1-3.6-14.4c4.2,0.8,8.9,1.7,13.6,2.8
		c0.5,0.1,0.8,1.4,1.1,2.1C233.7,230.9,231.1,233.5,228.5,236.1z"/>
	<path class="st0" d="M15.2,95.6c3.7,4.1,7.3,8.1,10.8,12c-4.2,1.2-9.2,2.6-14.5,4.2c0-0.7,0-1.8,0-2.8
		C12.7,104.4,13.9,100,15.2,95.6z"/>
	<path class="st0" d="M50.3,42.3c1.1-0.6,2.2-1.2,3.3-1.7c1.3,5.1,2.5,10.1,3.6,14.4c-4.1-0.8-8.8-1.7-13.5-2.8
		c-0.5-0.1-0.8-1.3-1.3-2C45,47.5,47.6,44.9,50.3,42.3z"/>
	<path class="st0" d="M236.2,50.2c0.6,1.1,1.2,2.3,1.7,3.3c-5,1.3-10.1,2.5-14.4,3.6c0.8-4.1,1.7-8.8,2.8-13.5
		c0.1-0.6,1.3-0.9,2-1.3C231,44.9,233.6,47.5,236.2,50.2z"/>
	<path class="st0" d="M120.7,46.8c-2.7-3.9-5.5-7.7-8.3-11.5v14.4C115.1,48.5,117.9,47.5,120.7,46.8z"/>
	<path class="st0" d="M195.1,173.4c-9.8,7.5-18.2,7.9-25.2,1.7c-1.2-1.4-2.4-2.7-3.6-4.1c-2.8-2.7-2.4-4.5,1.5-5.2
		c2.8-0.5,5.6-1.1,8.4-1c5.2,0.1,10.3,0.7,15.7,1.1c-3.1-3.5-6-6.7-9-9.9c0.7-0.7,1.5-1.4,2.2-2.1c2.5,3.5,5,7,7.6,10.5
		c0.5-0.4,0.9-0.8,1.4-1.2c-6.1-6.2-13.4-11.8-13.6-21.7c13.3,2.3,18.3,7.9,19.5,20.3c6.2-4.8,13-10,19.7-15.3
		c-0.3-3.7-0.6-7.4-1-11.1c-1.5-1-2.9-2.1-4.1-3.3c-5.1-4.8-9.6-10.3-14.3-15.5c1.3,14.6-8.1,23.8-21.2,22.5c3.8-1.6,9.2-3.1,13.7-6
		c4.8-3.1,6.7-8.3,5.5-14.4c-1.9,4.1-2.9,9.2-6,12.2c-3,2.9-8,3.8-12.1,5.5c-1,0.3-2.1,0.7-3.8,1.2c2.9-10.4,10.2-16.4,17.3-23
		c-10.5,0.8-20.5,2.9-29.4-3.4c15,4,22.6,4.3,28.3,0.3c-9.2,0.4-18,3.2-26.3-3.4c2-1.2,3.4-2.1,4.9-3c0,0-0.2,0.2-0.2,0.2
		c8.5-6.9,16.7-4.3,25.3,1.8c-2.5-9.4-3.3-18.1-1.4-26.7c-1.6-1.9-3.3-3.9-5-5.8c-0.5-0.6-1.1-1.1-1.6-1.7
		c-5.3,1.5-10.5,3.3-15.8,4.3c-3.6,0.7-7.5,0.1-11.6,0.1c10,10.9,11,20.9,3.4,29.4c5.3-14.4,3.4-24.8-3.8-25.7
		c1.7,4.2,4.5,8.7,5.3,13.4c0.9,5.1-1.6,9.9-5.2,14.3c-6.1-8.4-6.2-17.9-6.9-27.8c-5.6,9.4-10.8,18-21.1,21.3
		c13.8-11.1,17.9-15.9,17.6-21.5c-2.6,3.8-4.6,7.7-7.5,10.8c-2.8,3-6.4,5.1-10.3,8.1c-1.3-14.6,3.6-21.5,17.1-24.9
		c-0.6-0.4-1-0.8-1.5-0.9c-9.2-3.7-16.7-9.4-22.3-17.4c-2.5,0.4-4.9,1-7.4,1.9c-2.1,10.2-7.7,18.2-14.4,25.9
		c11.7-2.1,17.8,0.3,23,8.8c0.7,2.3,1.3,4.6,2,6.9c0.6,4.1-2,4.3-4.6,3.2c-7.2-3.1-14.3-6.6-20.8-9.6c5.2,24.2,5.2,24.2,1.8,27.5
		c2-10.6-0.1-22.5-5.8-28c3.3,9.3,7.1,17.5,3.2,26.7c-5.2-3.2-9.2-7.2-10-12.7c-0.7-5.1,0.4-10.4,0.8-15.4
		c-8.4,4.6-17.9,7.3-28.4,6.7c-0.3,0.5-0.6,1-0.9,1.5c0.4,0.3,0.7,0.6,1,0.9c-1.1,1.4-2,2.5-2.9,3.6c0.5-0.1,1-0.2,1.5-0.3
		c3.7,9.1,7.3,18.2,10.8,26.8c8.7-11.8,19.8-14.8,29.5-7.3c-0.6,0.1-1.2,0.1-1.8,0.1c0.6,0.7,1.2,1.5,1.9,2.3
		c-5.7,5.8-12.7,8.7-20,10.8c-1.9,0.6-3.6,1.5-5.5,2.4c10.4,0.7,24.4,9.3,24.9,15.2c-8.1-8.8-18.2-14.3-24.7-12.6
		c8.5,3.3,17.5,4.8,21.9,13.7c-11.4,4.2-20.3,0.8-25.9-9.5c-0.6-1-1.5-1.8-2.2-2.7c0,1.6,0.2,3.2-0.1,4.7
		c-1.8,9.3-6.2,17.4-12.3,24.4c2.9,3.7,6.3,5.2,10.9,6.1c7.4,1.4,14.5,4.5,21.5,6.8c-5.4-11.7-1.2-23.4,9.9-27.1l2.6-0.3
		c0.6,1.4,1.8,2.9,1.7,4.2c-0.3,8.6-2.2,16.8-7.3,23.9c3.9-2.2,7.8-4.7,11.9-6.6c5.3-2.5,10.8-5,17-3.2c-9.7,0.7-18.2,4-25.2,10.9
		c7.8-3.4,14.6-9.9,24.7-6.5c-3.1,4.4-6.1,9.2-10.5,11.5c-4.3,2.3-9.9,2-14.8,2.9c0.6,0.8,2,2,2.7,3.6c3,6.5,6.4,12.9,8.7,19.6
		c3.2,0.7,6.5,1.2,9.7,1.6c1.1-1.3,2.4-2.5,3.7-3.6c5.7-4.3,12-7.9,17.7-11.6c-14.1-6.5-18.3-13.8-14.6-26.5
		c1,17.1,5.1,23.6,15,23.9c-3.7-3.1-8.2-5.7-11-9.5c-3.2-4.3-3.3-9.8-1.9-15.7c9.1,4.9,13.5,13.2,18.1,21.8c3.8-22,5.4-26,10.9-27.6
		c-6.8,7.7-8.8,16.6-8.1,26.4c2-8.3,1.6-17.6,10.2-23.6c1.5,5.2,3.6,10.5,2.6,15.3c-0.9,4.9-4.8,9.3-6.5,12.4
		c7.4,1.8,16,3.9,24.6,5.9c0.4,0.1,0.8,0.2,1.2,0.3c0.1,0,0.1-0.1,0.2-0.1c2.3-1.2,4.6-2.4,6.9-3.7
		C190.7,192.9,192.2,183.3,195.1,173.4z"/>
	<path class="st0" d="M43.9,141.1c0-2,0-4.1,0.1-6.1c-7.7-4.1-12.3-10.7-13.1-21.1c-4.8,10.2-11.4,16.8-20.7,20.8
		c-2.6,1.1-3,5.3-0.5,6.2c10.6,4.1,16.5,12.7,21.5,22.1C30,151.7,35.6,145.5,43.9,141.1z"/>
	<path class="st0" d="M139.9,229.8c-0.8,0-1.6,0-2.5,0.1c-0.8,0.9-1.4,1.6-1.7,2.4c-3.6,9.6-10.6,14.4-22,15.3
		c10.5,4.9,17.1,11.7,21.3,21c0.4,0.8,5.4,0.9,5.7,0.2c4-9.5,11.2-15.7,21.4-20.9C149.9,247.1,143.2,241,139.9,229.8z"/>
	<path class="st0" d="M268.4,137.3c-9.1-4-15.3-10.9-20.2-19.9c-0.8,12.3-8.7,18.2-18.9,22.5c0.1,0.4,0.1,0.9,0.2,1.3
		c10.8,3.8,17.3,10.6,18.2,23.3c4.8-10.2,11.4-16.9,20.7-20.9c0.9-0.4,1.9-1.9,1.9-2.9C270.1,139.6,269.4,137.8,268.4,137.3z"/>
	<path class="st0" d="M138.1,46c1.5,0.2,3.1,0.4,4.6,0.7c3.7-9.6,10.4-14.9,22-15.8c-10.2-4.9-17-11.6-21.1-21
		c-0.4-0.9-2.1-1.8-3-1.6c-1.3,0.3-2.6,1.4-3.5,2.5c-3.9,4.7-7.5,9.7-11.6,14.1c-2.1,2.2-5.2,3.5-8.8,5.7
		C128.1,31.3,134.5,36.7,138.1,46z"/>
	<path class="st0" d="M165.9,62.1c-4.3-1-8.6-2-12.9-3c1.5,3.8,2.8,7,3.9,9.8C159.7,66.8,162.8,64.4,165.9,62.1z"/>
	<path class="st0" d="M145.7,47.3c4.3-8.5,11-12.9,21.9-10.8c-3,4.8-6.6,8.9-10.1,13.1c-0.1,0.1-0.1,0.2-0.2,0.3
		c0.1,0,0.2,0,0.3,0.1c3.9,0.9,8.1,1.6,12.2,2.5c-0.8-6.3-1.7-12.7-2.5-19.1c-10.9-1.7-20.8,4.3-22.8,13.7
		C145,47.1,145.3,47.2,145.7,47.3z"/>
	<path class="st0" d="M153.4,210.1c-1,2.6-2.2,5.6-3.5,8.7c4-0.5,7.8-1.2,11.7-2.1C158.7,214.4,156,212.2,153.4,210.1z"/>
	<path class="st0" d="M155.3,228.4c4.5,3.9,7.8,9.2,10.9,14.7c0.5-6,1.1-11.9,1.6-17.3C163.7,226.9,159.5,227.8,155.3,228.4z"/>
	<path class="st0" d="M70.1,137.4c-7.1-1.4-12-5-15.5-10.3c-0.1,0.5-0.2,1.1-0.2,1.6c0.8,2.7,1.5,5.4,2.3,8.1l-1.4,0.5
		c-0.4-1.5-0.8-3-1.2-4.5c-0.2,2.1-0.3,4.3-0.3,6.4c0.7,0.1,1.5,0.3,2.6,0.4c-1,0.3-1.8,0.6-2.6,0.8c0,0.6,0,1.2,0,1.8
		c1.4,0.6,2.5,1,3.6,1.5c1.7-1.2,3.3-2.7,5.3-3.5c3-1.3,6.2-2.1,9.4-3.1c1.1-9-3.8-24.4-9.9-30.3c-0.4-0.3-0.9-0.5-1.5-0.6
		c-0.2,0.4-0.4,0.8-0.6,1.3C66.8,116.5,69.9,126.2,70.1,137.4z"/>
	<path class="st0" d="M230,166.9c-0.1,0.9-0.3,1.8-0.5,2.6c3.9-0.6,7.9-1.1,12-1.7c-3.6-2.7-7.2-5.3-10.9-8
		C230.5,162.1,230.3,164.5,230,166.9z"/>
	<path class="st0" d="M245.2,159.1c-1.1-6.1-4.8-10.5-10.1-13.4c-2.3-1.3-3.1-0.9-2.9,1.3c8.1,2.8,12.6,11.8,9.7,20.7
		c1.1-0.2,2.2-0.3,3.4-0.5C245.3,165,245.7,162,245.2,159.1z"/>
	<path class="st0" d="M48.4,109.8c-3.8,0.2-7.5,0.4-11.2,0.6c3.1,2.5,6,4.9,9,7.3C46.8,115,47.5,112.4,48.4,109.8z"/>
	<path class="st0" d="M44.2,130.5c-6.8-3.5-10.3-11.8-7.5-20.1c-1,0.1-2,0.1-3.1,0.2c-1.9,9.5,3.1,19.5,10.3,22.8
		C44.1,132.4,44.2,131.4,44.2,130.5z"/>
	<path class="st0" d="M132.1,231.7c-4.1,9.1-13.5,13.7-21.6,9.7c0.1,1.1,0.2,2.3,0.3,3.4c11.4,2.2,21.7-4.1,23.3-14.8
		C133.2,230.8,132.7,231.2,132.1,231.7L132.1,231.7z"/>
	<path class="st0" d="M114.6,228c-0.4,0.6-0.9,1.1-1.5,1.3v-1.6c-1.2-0.3-2.4-0.5-3.6-0.9c0,0.5,0.1,1,0.1,1.3c0,4.4,0.5,8.8,1,13.2
		c3.4-4.4,6.7-8.7,9.6-12.5C118.2,228.6,116.4,228.3,114.6,228z"/>
	<path class="st0" d="M94.7,193.8c-5.7,1.4-11.5,2.8-17.2,4.2c4.3,3.4,9,6.2,13.5,9.3C92.3,202.6,93.5,198.2,94.7,193.8L94.7,193.8z
		"/>
	<path class="st0" d="M202.9,109.4c3.4,0.6,6.9,0.6,10.4,1.3c-1.2-3.1-2.5-6.2-3.9-9.1C207.3,104.3,205,106.8,202.9,109.4
		L202.9,109.4z"/>
	<path class="st0" d="M217.2,173.9c0.9-1.7,1.5-3.4,2-5.1c-5.4,1.3-10.7,2.5-16,3.7c2.7,3.7,6.5,7.3,7.4,12.3
		c0.1-0.2,0.3-0.4,0.4-0.6c1.1-1.7,2.2-3.4,3.3-5.1c-0.3-0.3-0.7-0.5-1-0.7c1.1-1.2,2.3-2.3,3.4-3.4
		C216.8,174.6,217,174.2,217.2,173.9z"/>
	<path class="st0" d="M89.7,70.5c-3.1,1.8-5.4,4.9-7.8,7.6c0.8,0,1.5,0,2.3,0.1c5,0.7,10,1.5,12.7,6.6c-0.8-5.1-1.7-10.2-2.5-15.6
		c-0.8,0.1-1.6,0.2-2.5,0.3c-0.6,0.2-1.1,0.4-1.7,0.5C90,70.3,89.9,70.4,89.7,70.5z"/>
	<path class="st0" d="M73.1,207.1c-1.7-1.3-3.4-2.7-5-4.1c-1.2,3.2-2.4,6.3-3.6,9.4c3.5-1.2,7.1-2.5,10.6-3.8
		C74.4,208.1,73.7,207.6,73.1,207.1z"/>
	<path class="st0" d="M70.3,75.9c1.7-1.8,3.4-3.5,5-5.3c0.7-0.7,1.3-1.5,2-2.2c-3.9-1.3-7.8-2.6-11.6-3.9c1,2.3,2.4,4.9,3.4,7.6
		C69.6,73.4,70,74.6,70.3,75.9z"/>
	<path class="st0" d="M223.7,110.9c0.6,1.9,1.1,3.8,1.6,5.7c1,2,1.9,3.9,2.8,5.8c5.4-3.6,10.3-6.9,15.1-10.1c-6-0.8-12-1.6-18.1-2.2
		C224.7,110,224.2,110.4,223.7,110.9z"/>
	<path class="st0" d="M220.4,153.4c-5.4,2.4-10.3,6.6-12.9,11.4c4.9,0.5,9.7-1.5,13-5.1C220.5,157.6,220.5,155.5,220.4,153.4z"/>
	<path class="st0" d="M67.6,130.3c-1-7.9-3.5-14.1-8.9-19.8c-0.4,1.1-0.8,2.2-1.2,3.3C58.1,120.8,60.5,126.3,67.6,130.3z"/>
	<path class="st0" d="M198.8,177.8v21.9c1-0.7,1.9-1.5,2.8-2.4C205,190.6,204.1,183.6,198.8,177.8z"/>
	<path class="st0" d="M201.5,169.5c-7.3,4.1-9.9,22.9-5.9,32.4c0.4-0.3,0.8-0.5,1.3-0.8C195.3,190.6,196,180.2,201.5,169.5z"/>
	<path class="st0" d="M202,101.8c1.8-2.2,3-4.5,3.7-6.8c-1.6-2.7-3.4-5.3-5.2-7.9C199.6,92.2,200,98.1,202,101.8z"/>
	<path class="st0" d="M67.5,145c-1.8,8-4.7,14.6-10.5,19.9C55.3,156.3,58.9,149.3,67.5,145z"/>
	<path class="st0" d="M101.4,213.3c2,0.9,4.1,1.7,6.2,2.4c-1.2-6.3-4.2-11.6-8.7-16.9C97.6,205,98.8,209.5,101.4,213.3z"/>
	<path class="st0" d="M163.8,71.9c4.7-0.4,8.4-0.2,11.8-1c2.5-0.6,4.9-1.7,7.3-2.8c-1.8-1.2-3.8-2.1-5.9-2.9c-0.7,0-1.5,0-2.2,0
		C170.5,65.3,167,67.3,163.8,71.9z"/>
	<path class="st0" d="M110.9,61.3c-2.5,1.2-4.9,2.3-7.3,3.5c-2.3,3.7-2.8,7.8-1.5,12.3C106.4,72.5,109.6,67.6,110.9,61.3z"/>
	<path class="st0" d="M207.4,117.6c3.3,2.8,6.7,5.6,10,8.4c-0.5-2.5-1-5-1.7-7.5C213.3,117.4,210.4,117,207.4,117.6z"/>
	<path class="st0" d="M153.2,206.4c-6.9-1.7-19.2,5-25.7,13.2c0.7,0,1.5,0.1,2.2,0.1C136.4,213.5,144,208.7,153.2,206.4z"/>
	<path class="st0" d="M100.4,84.5c7.9-6.9,13.8-15,15.4-25.4c0,0-0.1,0-0.1,0c-0.7,0.3-1.3,0.6-1.9,0.9c-1.5,3.6-2.8,7.3-4.8,10.5
		c-3.3,5.3-8,9.6-12.1,14.3C98,84.8,99.6,85.2,100.4,84.5z"/>
	<path class="st0" d="M70.6,92.1c6.5-1.4,12.5-2.7,18.5-4.1c0-0.5,0-1,0.1-1.4c-5.2-3-11-3-14.8-0.3c-1,1.1-2,2.3-2.9,3.5
		C71.1,90.4,70.8,91.2,70.6,92.1z"/>
	<path class="st0" d="M211.7,247.8c-1-7.3,0.8-13.4,4.6-19.4C219.8,236.5,218.1,244.2,211.7,247.8z"/>
	<path class="st0" d="M31,211.6c6.9-1.2,12.9,0.9,19.1,4.4C42.1,219.9,33.6,217.8,31,211.6z"/>
	<path class="st0" d="M247.6,66.7c-7,1.2-13-0.9-19.4-4.6C237.1,58.6,244.9,60.6,247.6,66.7z"/>
	<path class="st0" d="M194.9,257.4c-6.5,3.6-13.7,1.3-19-6C183,250.9,188.9,253.1,194.9,257.4z"/>
	<path class="st0" d="M162.9,24.6c-4.4-4.8-8.8-9.5-14-15.1C157.2,8.7,162.7,14.6,162.9,24.6z"/>
	<path class="st0" d="M51.9,60.2c-6.6,3.8-12.6,5.3-19.5,4.5C35.3,58.4,42.4,56.7,51.9,60.2z"/>
	<path class="st0" d="M66.9,30.8c1.2,7-0.9,12.9-4.3,19.1C58.5,42.3,60.6,33.7,66.9,30.8z"/>
	<path class="st0" d="M218.3,52c-3.8-6.7-5.5-12.7-4.5-19.5C220,35,221.7,42,218.3,52z"/>
	<path class="st0" d="M64.6,182.1c0.6-0.2,1.2-0.9,1.8-0.8c9.2,1.4,18.3,3.2,25.9,9.1c1,0.8,1.6,2.3,2.4,3.4c0,0,0,0,0,0
		c-0.1-1.7,0.4-4.2-0.5-4.9c-8.8-6.2-18.4-10.6-29.6-9.3c-0.6,0.1-1.1,0.7-1.6,1.2c0.2,0.4,0.5,0.8,0.7,1.2
		C64.1,182.2,64.4,182.2,64.6,182.1z"/>
	<path class="st0" d="M9.1,127.5c0.4-6.9,5.9-11.8,15.6-11.9c-4.8,4.4-9.5,8.8-14.3,13.2C9.9,128.4,9.5,128,9.1,127.5z"/>
	<path class="st0" d="M253.8,162.7c4.8-4.4,9.6-8.8,15.3-14C269.7,157.3,263.6,162.8,253.8,162.7z"/>
	<path class="st0" d="M115.7,253.9c4.4,4.7,8.8,9.4,13.9,14.8C121.6,269.9,116.1,264.2,115.7,253.9z"/>
	<path class="st0" d="M101.9,28.1c-6-1.9-11.9-3.8-18.8-6C89.6,17.1,97.6,19.6,101.9,28.1z"/>
	<path class="st0" d="M227.3,216.8c6.1-1.4,12.1-2.8,19.1-4.4C243.6,220.1,235.4,221.9,227.3,216.8z"/>
	<path class="st0" d="M257.9,84.3c3.2,6,0.7,13.3-7.5,17.5c1.9-6,3.8-11.9,5.7-17.9C256.7,84.1,257.3,84.2,257.9,84.3z"/>
	<path class="st0" d="M64.2,245.8c-5.8-2.8-7.5-10-4.2-18.2C64.2,231.5,66.1,240,64.2,245.8z"/>
	<path class="st0" d="M22.8,76.5c8.8,7,12.2,25.3,6.3,32.5c0-6.1,0.8-11.5-0.2-16.7C28,87.3,25.2,82.6,22.8,76.5z"/>
	<path class="st0" d="M250.5,177.7c7.2,5.8,9.3,12.5,6.2,19.5C251.9,191.6,250.3,185.5,250.5,177.7z"/>
	<path class="st0" d="M27.6,99.8c-6.3-3.8-8.9-11.7-5.9-18.1C26.3,85.8,28.8,93.2,27.6,99.8z"/>
	<path class="st0" d="M20.8,194c-3.4-5.6-1.1-12.8,5.8-18C27.9,182,25.5,189.6,20.8,194z"/>
	<path class="st0" d="M81.5,255.1c6-1.9,12-3.8,18-5.7c-2.7,7.6-10.9,10.4-17.5,7.6C81.8,256.3,81.6,255.7,81.5,255.1z"/>
	<path class="st0" d="M178.3,27.8c4.4-6.8,12.2-9.3,18.3-6.1C192.5,26.1,186.2,28.3,178.3,27.8z"/>
	<path class="st0" d="M70,183.3c5.7,1.7,11.3,3.3,17.7,5.2c-4,3.2-9.4,3.8-13.9,1.6c-2-1-3.4-3-5.1-4.6
		C69.1,184.8,69.5,184.1,70,183.3z"/>
	<path class="st0" d="M168.5,252.2c-1.7-0.1-3.6-0.6-5-0.1c-7.4,2.8-12.9,7.8-16.7,14.9c-0.7,1.3-1.9,2.4-3.4,3.1
		c3.6-11.5,12.1-17.8,23.2-21.9c0.6,1.5,1.2,2.8,1.7,4.1C168.4,252.3,168.5,252.2,168.5,252.2z"/>
	<path class="st0" d="M141,56.3c-1.5-0.3-3.1-0.5-4.6-0.6c-0.4,0.3-0.9,1-1.6,2.2c4.5,3.3,9,6.6,14.3,10.5
		C148.4,61.6,145.9,58.1,141,56.3z"/>
	<path class="st0" d="M45.4,159.2c-2.7,2.2-5.4,4.3-8.3,6.6c3.4,0.3,6.6,0.5,9.8,0.8C46.3,164.1,45.8,161.6,45.4,159.2z"/>
	<path class="st0" d="M8.7,147.7c7,2.4,11.2,7.1,14.6,12.9C16.4,161.4,9.4,155.3,8.7,147.7z"/>
	<path class="st0" d="M269.9,130.4c-6.8-2.2-11.4-6.4-14.3-13C262.7,117.4,269.2,123.2,269.9,130.4z"/>
	<path class="st0" d="M130.9,8.4c-2.7,7.1-7.1,11.7-13.4,14.7C117.6,15.9,123.1,9.5,130.9,8.4z"/>
	<path class="st0" d="M161,255.5c0.1,7-5.7,13.6-12.6,14.3C149.3,264,154,258.7,161,255.5z"/>
	<path class="st0" d="M187,71.2c-0.1-0.1-0.3-0.3-0.4-0.4c-10,1-20,2-29.7,2.9C161.6,77.5,179.6,76.1,187,71.2z"/>
	<path class="st0" d="M145.6,210.1c-4.6,3.4-8.9,6.6-13,9.7c2.1,0,4.2,0,6.3-0.1c0.8,0,1.6-0.1,2.5-0.1
		C144.4,217.5,145.7,214.6,145.6,210.1z"/>
	<path class="st0" d="M219,220.5c-2.7,5-5.8,9.6-7.5,14.6c-1.6,4.8-1.7,10.1-2.8,15.1C205.1,240.4,211.1,223.8,219,220.5z"/>
	<path class="st0" d="M250.5,70c-12.4,2.5-26-2.6-29.7-10.9C229.1,67.2,239.7,68.9,250.5,70z"/>
	<path class="st0" d="M57.7,219.2c-8.3-7.9-18.6-10-29.6-10.2C36.8,204.6,53.7,210.5,57.7,219.2z"/>
	<path class="st0" d="M202.9,109.4C202.9,109.4,202.9,109.4,202.9,109.4c-2.2,1.7-2.6,3.8-0.7,5.9c5.3,5.8,10.7,11.6,16.2,17.2
		c0,0,0.1,0,0.1,0.1c-0.2-1.2-0.3-2.4-0.5-3.6C210.9,124.1,204.9,118.4,202.9,109.4z"/>
	<path class="st0" d="M69.8,28c2.8,12.4-2.7,26.8-10.6,29.5C66.9,49.2,69.7,39.1,69.8,28z"/>
	<path class="st0" d="M56.4,148.1c-0.7,1.2-1.5,2.3-2.1,3.6c0.2,2,0.5,4,0.8,6c0.4-1.6,0.8-3.1,1.3-4.4c3-7.2,10.1-11.8,16.3-10.6
		c0.3-1,0.5-2,0.8-3.1C66.4,139.1,60.2,142.1,56.4,148.1z"/>
	<path class="st0" d="M161.7,207.4c2.8,3.8,5.3,6.1,7.8,7c3.2-1.1,6.4-2.3,9.6-3.8C172.6,209.4,167.2,208.4,161.7,207.4z"/>
	<path class="st0" d="M199.5,105.5V85.8c-0.9-1.2-1.8-2.4-2.7-3.5C194.9,91.2,195.8,102.1,199.5,105.5z"/>
	<path class="st0" d="M198.6,166.6c5,4,10.3,4.1,15.7,2.2c2.2-0.8,4-1.7,5.4-2.9c0.2-1.3,0.4-2.5,0.5-3.8
		C214.4,167.5,207,168.3,198.6,166.6z"/>
	<path class="st0" d="M203.4,74c0.4-0.4,0.9-0.8,1.3-1.2c1.4,2,2.7,3.7,4.1,5.7c2-4.5,3.9-8.8,5.8-13.1c-3.4,1.4-6.4,2.8-9.5,4
		c-1.9,0.7-3.2,1.3-4,2C201.9,72.3,202.7,73.2,203.4,74z"/>
	<path class="st0" d="M217.3,192.7c4.1,7.8,3.3,15.8-2.3,24.1c5.3-3.3,7.2-8.1,7.1-13.6c0-4.5-1.3-8.4-4-11.7
		C217.8,191.9,217.5,192.3,217.3,192.7z"/>
	<path class="st0" d="M99.8,195.9c0.5,1.4,1.5,2.5,2.1,3.9c2.5,5.5,4.9,11,7.3,16.5c1.1,0.4,2.3,0.7,3.5,1
		C111,208.4,105.4,198.2,99.8,195.9z"/>
	<path class="st0" d="M70.9,144.5c-4.1,7.8-8.4,16-13,24.8c0.1,0.2,0.2,0.5,0.2,0.7C65.6,164.4,72.2,150.7,70.9,144.5z"/>
	<path class="st0" d="M78.8,138.7c-1.2,6.8,4.2,13.4,11.9,14.6c2.5,0.4,5,0.3,8.5,0.6c-13.7,5.2-25-6.2-23.4-16
		C76.8,138.1,77.8,138.4,78.8,138.7C78.8,138.7,78.8,138.7,78.8,138.7z"/>
	<path class="st0" d="M86.5,216.6c-8.1,4.7-16.3,3.9-24.8-2.1c4.9,9,17.4,9.7,25.7,2.7C87.1,217,86.8,216.8,86.5,216.6z"/>
	<path class="st0" d="M171.3,105.1c1.5-0.4,3.1-0.8,4.6-1.3c8.1-2.9,16.8,0.1,20.7,7.2c0.3,0.6,0.3,1.4,0.1,2.8
		c-7.5-9.8-16.4-11.9-27.8-4.4c1.4-2.4,2-3.4,2.6-4.4C171.4,104.9,171.3,105.1,171.3,105.1z"/>
	<path class="st0" d="M99.1,55.9c2.1-14.7,2.9-15.4,13.2-20.9c-0.4-0.6-0.8-1.7-1-1.7c-5.4,1.4-9.4,4.7-12,9.7
		c-2.3,4.5-2.7,9-1.7,13.6C98.1,56.4,98.6,56.1,99.1,55.9z"/>
	<path class="st0" d="M150.1,71.6c-6.5-5.3-13.1-10.7-19.6-16c-0.5,0-1,0.1-1.5,0.1C133.9,63.7,140.9,69,150.1,71.6z"/>
	<path class="st0" d="M219,98.7c0,0.1,0.1,0.1,0.1,0.2c17.9,2,18.4,2.3,24.3,13.3c0.6-0.7,1.6-1.5,1.5-2
		C242.7,100.1,227.2,93.3,219,98.7z"/>
	<path class="st0" d="M97.4,89c-2.6-6.6-8.7-9.5-17.3-8.9c-1,1-1.9,2-2.8,3C84.5,81.2,91.2,83.5,97.4,89z"/>
	<path class="st0" d="M84.6,61.9c0.4-0.2,0.8-0.4,1.2-0.5c0,0,0.1,0,0.1-0.1c-4.6-3-9.2-3.2-14.9-0.8c3.4,1.9,6.6,3.4,10.1,4
		C82.2,63.5,83.3,62.6,84.6,61.9z"/>
	<path class="st0" d="M227.8,174.6c-0.7,1.9-1.6,3.7-2.6,5.4c5.2-0.1,9.3-2.2,13-6.8C234.4,173.1,231,173.5,227.8,174.6z"/>
	<path class="st0" d="M195.1,168.1c2.7-11.9-1.1-20.2-13.8-24.4c6.6-0.3,12.3,3.5,15.1,9.1C198.9,157.9,199.3,163,195.1,168.1z"/>
	<path class="st0" d="M180.2,55.3c0.5-5.8-1.4-10.6-6.6-15c-0.4,5.6,0.5,10.2,2.7,13.8C177.6,54.5,178.9,54.9,180.2,55.3z"/>
	<path class="st0" d="M214.3,89.5c5.8-6.2,6.8-11.7,3.7-18.4c-3.2,5.8-5.3,11.3-3.7,18.3C214.2,89.4,214.2,89.5,214.3,89.5z"/>
	<path class="st0" d="M22.6,199.6c0.2-1.5-0.1-3.4,0.7-4.5c3.7-5.6,5.4-11.6,5.5-18.2c0-1.2,0.7-2.4,1.7-3.4c1.1,9.9-0.6,18.8-8,26
		C22.5,199.4,22.6,199.6,22.6,199.6z"/>
	<path class="st0" d="M256,78.8c0,1.3,0.4,2.9-0.2,3.7c-4.2,6.1-6.2,12.7-6,20.1c0,0.8-0.6,1.7-1.1,2.8c-3.3-6.8,0.8-20.9,7.5-26.5
		C256.1,79,256,78.8,256,78.8z"/>
	<path class="st0" d="M160.8,104.5c-4.8-4.4-7.1-21.6-3.6-27.4C158.4,86.1,159.6,95.7,160.8,104.5z"/>
	<path class="st0" d="M133.9,95.9c-0.5-7.5,1.9-13.5,8.4-17.1c3.8-2.2,8-3.2,12.5-0.4C142.7,78.2,135.7,83.8,133.9,95.9z"/>
	<path class="st0" d="M44.1,147c-4.2,2.6-6.6,6.4-7.7,12.1c3.3-1.6,6-3.6,8.2-6C44.4,151.1,44.3,149,44.1,147z"/>
	<path class="st0" d="M146.5,229.5c-0.6,0-1.1,0.1-1.7,0.1c2.5,7.2,6.8,11,14.1,12.4C156.4,236,152.4,232.3,146.5,229.5z"/>
	<path class="st0" d="M98.4,223c-0.4,6.1,1.6,10.8,7.1,15.4c-0.3-5.3-0.7-9.9-3.1-13.8C101.1,224.1,99.7,223.6,98.4,223z"/>
	<path class="st0" d="M78.9,22.6c1.5,0.2,3.4-0.1,4.6,0.7c5.6,3.6,11.6,5.5,18.3,5.5c1.2,0,2.4,0.6,3.4,1.7
		c-9.9,1.1-18.8-0.5-26.1-8C79,22.4,78.9,22.6,78.9,22.6z"/>
	<path class="st0" d="M199.7,255.9c-1.5-0.2-3.4,0-4.6-0.7c-5.6-3.7-11.6-5.4-18.2-5.4c-1.2,0-2.4-0.6-3.3-1.7
		c9.9-1.1,18.8,0.5,26,8C199.5,256,199.7,255.9,199.7,255.9z"/>
	<path class="st0" d="M67.8,249.6c-0.4-0.7-1.2-1.5-1.2-2.1c0.9-8.2-1.1-15.7-5.2-22.8c-0.1-0.2,0.3-0.8,0.8-2.1
		c4.8,6.2,6.9,12.7,6.9,19.8c0,2.4-1.1,4.7-1.6,7.1C67.6,249.4,67.8,249.6,67.8,249.6z"/>
	<path class="st0" d="M60.2,194.5c-1.7,3.9-1.8,8-0.2,12.6c2.1-2.4,3.5-5.2,4.2-7.8C62.8,197.7,61.4,196.1,60.2,194.5z"/>
	<path class="st0" d="M213.1,198.7c0.8,3.5,1.5,6.7,2.2,10c2.9-5.2,3-10.1,0.6-13.9C215,196.2,214.1,197.5,213.1,198.7z"/>
	<path class="st0" d="M210.8,28.8c0.4,0.7,1.2,1.5,1.2,2.1c-0.9,8.2,1.1,15.7,5.2,22.8c0.1,0.2-0.3,0.8-0.8,2c-5-6-6.9-12.6-7-19.7
		c0-2.4,1.1-4.7,1.6-7.1C211,28.9,210.8,28.8,210.8,28.8z"/>
	<path class="st0" d="M162.4,178.2c0.1-0.8,0.1-1.6,0.2-2.6c4.7,5.5,4.2,15.2-0.9,20.8c-3.8,4.2-7.3,5.4-10,3.6
		c11.3-5.3,14.8-12.6,10.5-22L162.4,178.2z"/>
	<path class="st0" d="M179.4,221.7c0.9,10.9-3.8,17.7-13,21.6c0.8,0.5,2,1.5,2.3,1.3c3.2-2.2,6.8-4.2,9.3-7.2c3.7-4.5,4.4-10.8,2-16
		C179.8,221.5,179.6,221.6,179.4,221.7z"/>
	<path class="st0" d="M101.6,89.3c-8.1,9.4-7.3,18.4,1.9,28c-6.7-3.8-10.3-10.3-10-16C93.8,95.7,96.6,91.1,101.6,89.3z"/>
	<path class="st0" d="M99.7,185.6c3,1.5,6,3.9,9.1,4.2c3,0.3,6.6-0.9,9.4-2.5c2.9-1.6,5-4.4,7.3-6.5c-3.2,10.6-15.9,14.4-24.2,9.5
		C99,189,98.6,187.7,99.7,185.6C99.7,185.6,99.7,185.6,99.7,185.6z"/>
	<path class="st0" d="M80.4,212.5c-4,0.5-7.6,1.9-11.3,4c5.9,2.2,10.6,1.7,15.6-1.1C83.2,214.5,81.8,213.5,80.4,212.5z"/>
	<path class="st0" d="M191.9,61.9c9.1-4.5,17.1-4,24.8,2.1c-3.3-8.7-17.7-10.1-25.3-2.6C191.5,61.6,191.7,61.8,191.9,61.9z"/>
	<path class="st0" d="M221.8,100.4c6.4-0.9,11.9,0.9,16.1,5.9c-0.2,0.6-0.4,1.2-0.6,1.8c-5.4-1.9-10.9-3.7-16.3-5.6
		C221.3,101.9,221.5,101.1,221.8,100.4z"/>
	<path class="st0" d="M249.7,210.7c-0.7,0.4-1.5,1.3-2.1,1.2c-8.3-1.1-15.8,1-22.8,5.1c-0.3,0.1-0.9-0.3-2.1-0.8
		c5.9-4.8,12.3-6.8,19.3-7c2.5-0.1,5.1,1,7.6,1.6C249.6,210.9,249.7,210.7,249.7,210.7z"/>
	<path class="st0" d="M28.9,67.6c0.7-0.4,1.5-1.3,2.1-1.2c8.3,1.1,15.7-1.1,22.8-5.1c0.2-0.1,0.8,0.3,2.2,0.9
		c-7.1,5.2-14.4,7.3-22.4,6.9c-1.5-0.1-3-1.1-4.6-1.7C29.1,67.5,28.9,67.6,28.9,67.6z"/>
	<path class="st0" d="M104.2,53.4c2.3-4.1,3.2-8.4,3.2-13.6c-5.2,4.4-7.3,9.1-6.8,15.4C101.7,54.6,102.9,54,104.2,53.4z"/>
	<path class="st0" d="M203,164.8c5.7-4.7,11.5-9.4,17.2-14.1c-0.1-0.8-0.1-1.6-0.2-2.5C212.8,151.9,206.9,157.3,203,164.8z"/>
	<path class="st0" d="M175,223.4c-1.6,4.6-3.2,9.1-4.8,13.7l1.7,0.5c5.1-4.3,7.2-9.4,4.9-14.9C176.2,223,175.6,223.2,175,223.4z"/>
	<path class="st0" d="M202.2,209.5c3.7,1.8,7.2,3.4,10.8,5.1c-1.5-3.6-2.8-7-4.3-10.5C206.8,206,204.7,207.8,202.2,209.5z"/>
	<path class="st0" d="M197.9,109.6c4.4-0.5,7.3-3.1,9.5-6.7c0.5-0.8,0.9-1.8,1.2-2.8c-0.5-1-1-1.9-1.6-2.9
		C205.7,101.9,202.8,106,197.9,109.6z"/>
	<path class="st0" d="M53.5,98.4c-6-0.1-10,2.1-12.3,6.8c3.3-0.3,6.8-0.1,9.5-1.3C51.5,102.1,52.5,100.3,53.5,98.4z"/>
	<path class="st0" d="M45,123.9c-2.2-2.5-4.3-4.8-6.5-7.1c-0.5,0.3-0.9,0.6-1.4,0.9c0.6,1.8,0.9,3.9,2,5.4c1.6,2.1,3.4,4.1,5.2,6
		C44.5,127.4,44.7,125.7,45,123.9z"/>
	<path class="st0" d="M158.6,85c6.6,4.1,7.7,9.8,3.3,16.4C160.8,95.9,159.7,90.5,158.6,85z"/>
	<path class="st0" d="M61.7,85.9c-4.2-8.6-3.6-16.5,3.2-24.5c-5,1.7-7.7,5.8-8.4,11.5c-0.6,4.8,1,10.2,4.7,13.8
		C61.3,86.5,61.5,86.2,61.7,85.9z"/>
	<path class="st0" d="M81.5,131.2c3.1-6.2,8.7-8.6,17.1-6.3c-6.3,2.9-11.3,5.2-16.4,7.5C82,132,81.7,131.6,81.5,131.2z"/>
	<path class="st0" d="M109,90.2c7-2.6,12.2,0.1,15,7.9C119,95.4,114,92.8,109,90.2z"/>
	<path class="st0" d="M150,48.2c4.4-1.7,8-5.2,10.9-10.6c-6.5,0.5-11.3,4.3-13,10.1C148.6,47.9,149.3,48,150,48.2z"/>
	<path class="st0" d="M103.1,162.5c-1.9,6.7-3.3,11.9-5,18.1C93.8,173.6,95.8,166.5,103.1,162.5z"/>
	<path class="st0" d="M187.8,170.4c-5.6,5.2-10.5,5.1-17.8,0C176.6,170.4,182.2,170.4,187.8,170.4z"/>
	<path class="st0" d="M194.6,214.2c-1.1,0.7-2.3,1.3-3.5,1.9c5,4,10,4.6,16.1,1.9C203.3,214.7,199,213.9,194.6,214.2z"/>
	<path class="st0" d="M51.2,179.3c-8.3-1.2-13.4-6.4-17-14.9c-1.4,8.3,8.8,17.1,17.7,16.4C51.7,180.4,51.4,179.9,51.2,179.3z"/>
	<path class="st0" d="M163.4,28.4C155,24.1,148.9,17.8,145.3,9c0.4-0.4,0.9-0.7,1.3-1.1c2.6,3.6,4.8,7.6,7.8,10.8
		c3,3.2,6.7,5.7,10.1,8.5C164.2,27.6,163.8,28,163.4,28.4z"/>
	<path class="st0" d="M133.4,179.5c9,3.3,18.8,19.3,15.4,24.8C146.7,193.9,141.1,186,133.4,179.5z"/>
	<path class="st0" d="M135.3,183c3.4,4.5,6.7,9,10.7,14.3c-7.8-1.2-11.3-5.6-11.9-13.4C134.5,183.6,134.9,183.3,135.3,183z"/>
	<path class="st0" d="M155.2,202.7c-0.7,5,1.6,8.6,4.9,11.5c0.9,0.8,1.8,1.5,2.8,2.2c1.1-0.3,2.2-0.6,3.3-0.9
		C161.2,212.6,157.5,208.6,155.2,202.7z"/>
	<path class="st0" d="M8.1,132.9c6.9-6.3,13.4-12.3,19.7-18.1C26.4,121.8,16.8,130.9,8.1,132.9z"/>
	<path class="st0" d="M127.2,45.7c1.7-0.1,3.4-0.2,5-0.2c-2.3-5.3-6.5-7.9-12.6-9.2C122,41.6,124.3,44.5,127.2,45.7z"/>
	<path class="st0" d="M68.7,94.7c8.1-2.1,16.1-4.2,24.2-6.3c-6.9,5.8-15.1,7.5-23.7,7.8C69,95.7,68.8,95.2,68.7,94.7z"/>
	<path class="st0" d="M68.5,134.4c-5.3-4.3-10.5-8.6-12.5-15.2c-0.3,1.2-0.5,2.4-0.8,3.6C56.8,128.1,61.6,132.6,68.5,134.4z"/>
	<path class="st0" d="M127.2,92.7c0.7,2.3,1.3,4.6,2,6.9c-0.8-0.7-1.9-1.2-2.3-2.1c-3.8-7.4-9.4-11.3-18-10.3
		c-0.8,0.1-1.8-0.3-3-0.5c5.1-3.2,11.6-2.1,16.8,2.4C124.1,90.3,125.7,91.5,127.2,92.7z"/>
	<path class="st0" d="M48.5,172.2c-2.4-0.9-4.9-1.4-7.9-0.8c2.9,3.7,6.2,5.8,9.9,6.3C49.8,175.9,49.1,174.1,48.5,172.2z"/>
	<path class="st0" d="M65.5,81.3c0.1-0.2,0.3-0.3,0.4-0.5c0.1-3.5-1.7-7.7-5.7-10.7l2,15.2C63.3,83.9,64.4,82.6,65.5,81.3z"/>
	<path class="st0" d="M216.6,59.3c4.9-6.5,6.3-13.6,4.4-21.9C227.1,42.3,224.3,55.6,216.6,59.3z"/>
	<path class="st0" d="M167.4,168.6c8.9-4.5,25.9-2.4,29,3.7C186.8,167.6,177.3,167.2,167.4,168.6z"/>
	<path class="st0" d="M133.1,270.6c-6.5-7.1-12.5-13.6-18.3-19.8C121.4,251.7,130.7,261.3,133.1,270.6z"/>
	<path class="st0" d="M158,204.8c8.4,1.8,15.9,3.3,23.2,4.8c0.5-0.2,1-0.5,1.6-0.8C180.3,205.5,166.6,202.4,158,204.8z"/>
	<path class="st0" d="M241.7,119.9c-0.8,6.4-3,9.4-8.9,12.2C230.6,127.6,234,123,241.7,119.9z"/>
	<path class="st0" d="M250.1,163.3c4.3-8.4,10.6-14.6,19.4-18.1c0.4,0.4,0.8,0.9,1.1,1.3c-3.7,2.6-7.6,4.9-10.9,7.9
		c-3.2,3-5.7,6.7-8.5,10.1C250.8,164.1,250.5,163.7,250.1,163.3z"/>
	<path class="st0" d="M190,110.1c-6.4,0-11.8,0-18.4,0C178.3,105,183.5,105,190,110.1z"/>
	<path class="st0" d="M100.2,97.1c1.2,5.3,2.4,10.6,3.8,16.6c-6.1-3.2-7.7-9.1-5.4-16.3C99.2,97.4,99.7,97.2,100.2,97.1z"/>
	<path class="st0" d="M37.9,57c5-5.5,17.6-2.9,21.7,4.8C53,57.5,45.9,55.3,37.9,57z"/>
	<path class="st0" d="M104.1,159.5c0.4,1.1,1.3,2.2,1.2,3.3c-0.1,8.3-2.5,15.9-7,22.9c-0.5,0.8-1.3,1.5-2,2.1
		c-0.1,0.1-0.6-0.1-1.3-0.2c0.1-0.7,0.1-1.6,0.5-2.1c5.2-6.8,7.9-14.4,7.8-23c0-1.1,0.6-2.1,0.9-3.2
		C104.3,159.3,104.1,159.5,104.1,159.5z"/>
	<path class="st0" d="M219.1,216.5c6.6,5.1,13.9,6.1,22.3,4.4C236,226.9,223.8,224.5,219.1,216.5z"/>
	<path class="st0" d="M100.8,124.4C98,131.1,82,137.4,74.2,135C83.8,133.2,93.3,131.4,100.8,124.4z"/>
	<path class="st0" d="M174,53.5c-0.9-6.6-1.8-13.4-2.7-20c-2.9,4.5-2.3,13.7,0,19.3C172.2,53,173.1,53.2,174,53.5z"/>
	<path class="st0" d="M88.2,60.3c0.5-0.1,0.9-0.3,1.4-0.5c-5.7-5.3-14.7-6.3-21.8-1.6C75.2,56.2,82.1,56.6,88.2,60.3z"/>
	<path class="st0" d="M62,219c-4.9,6.5-6.3,13.6-4.5,21.6C51.4,236.7,54.1,223.2,62,219z"/>
	<path class="st0" d="M93,15.6c9.4,2.1,15.6,8.2,16.8,17.5c-1.3-1.4-2.2-2-2.5-2.8c-2.4-5.9-6.9-9.5-12.5-12
		C93.9,17.9,93.6,16.4,93,15.6L93,15.6z"/>
	<path class="st0" d="M239.4,155.2c-2.2-2.9-4.8-5.5-7.2-8.2c-0.8,0.1-1.5,0.2-2.1,0.3c0,0.3,0,0.5,0.1,0.8c1.1,2.4,2,5,3.5,6.9
		c1.9,2.4,4.5,4.1,6.8,6.1C240.8,158.8,240.5,156.7,239.4,155.2z"/>
	<path class="st0" d="M102.8,157.6c0.9-0.1,1.7-0.2,2.6-0.3c-0.4,0.7-0.8,1.4-1.2,2.2c0,0,0.2-0.2,0.2-0.2
		c-10.5,5-11.5,13.8-8.8,24.1c-4.7-5.1-4.7-12.8-0.1-18.6C97.5,162.1,100.3,160,102.8,157.6z"/>
	<path class="st0" d="M15.7,185.5c2.1-9.4,8.2-15.6,17.5-16.8c-1.4,1.3-2,2.2-2.7,2.5c-5.9,2.4-9.6,6.8-12,12.5
		C18,184.6,16.6,184.9,15.7,185.5L15.7,185.5z"/>
	<path class="st0" d="M185.6,262.8c-9.4-2-15.6-8.1-16.8-17.5c1.3,1.4,2.2,2,2.5,2.7c2.4,5.9,6.8,9.6,12.5,12
		C184.7,260.5,185,261.9,185.6,262.8L185.6,262.8z"/>
	<path class="st0" d="M215.4,91.6c0.1,0.1,0.1,0.2,0.2,0.3c7.7-4.6,10-15.8,4.6-24.2C222.6,76.6,221.7,84.7,215.4,91.6z"/>
	<path class="st0" d="M152,75.6c3.5-3.6,3.1-10.1-0.3-15.7c-0.3-0.5-0.5-0.9-0.8-1.2c-1.4-0.3-2.8-0.7-4.2-1
		C151.2,62.5,152.5,68.6,152,75.6z"/>
	<path class="st0" d="M262.9,92.9c-2.3,9.6-8.5,15.9-17,16.6c0.8-1,1.2-1.9,1.9-2.2c6.2-2.3,9.9-7,12.4-12.9
		C260.6,93.6,262.1,93.4,262.9,92.9C263,92.9,262.9,92.9,262.9,92.9z"/>
	<path class="st0" d="M78.1,67.4c0.6-0.6,1.1-1.2,1.7-1.8c-4-0.9-7.1-2.7-16.4-8.2C65.1,62.1,71.9,66.1,78.1,67.4z"/>
	<path class="st0" d="M169.9,175.1c-1.2-1.4-2.4-2.7-3.6-4.1c0.9,0.3,2,0.3,2.7,0.8c6.8,4.7,13.6,5.5,20.7,0.8
		c0.6-0.4,1.5-0.2,2.5-0.3c-4.1,5.5-10.7,7-17.8,4.3C173,176,171.5,175.6,169.9,175.1z"/>
	<path class="st0" d="M101.9,84.3c7,8.4,15.1,13.6,25.1,15.7C119.4,102.1,102.7,91.9,101.9,84.3z"/>
	<path class="st0" d="M180.3,136.2c0-1.4-0.7-3.4,0-4.2c5.1-5.7,10.3-11.3,15.7-16.7c1.2-1.2,3.6-2.7,4.1,1c0,0,0.2-0.2,0.2-0.2
		c-2.5,1.3-5.5,2-7.3,4c-4.6,5.1-8.6,10.7-12.9,16.2L180.3,136.2z"/>
	<path class="st0" d="M122.7,181c-3.8,5.1-8.5,8.2-15.3,7c-0.2-0.5-0.4-0.9-0.6-1.4c5.1-2.4,10.1-4.7,15.2-7.1
		C122.3,180,122.5,180.5,122.7,181z"/>
	<path class="st0" d="M205.3,113c3.3,0.7,6.7,1.5,9.7,2.9c-0.3-1-0.6-2.1-1-3.1C211.2,112.1,208.1,112.1,205.3,113z"/>
	<path class="st0" d="M162.2,178c0.2,5.9,1.1,11.9-4.6,16.3c-1.5-6.5,0.8-14,4.8-16.1C162.4,178.2,162.2,178,162.2,178z"/>
	<path class="st0" d="M43.9,142.8c-6,2.6-10.9,9.7-10.7,17.6c2.1-3.6,3.3-7.9,5.9-10.9c1.4-1.6,3.1-2.8,4.9-4
		C44,144.6,44,143.7,43.9,142.8z"/>
	<path class="st0" d="M132.1,231.7c-1.7,1.7-3.2,3.6-5.1,5c-2.7,1.9-5.7,3.4-9.7,5.7C121.1,233.4,125.5,230.5,132.1,231.7
		C132.1,231.7,132.1,231.7,132.1,231.7z"/>
	<path class="st0" d="M192.9,160.4c-3.4-4.3-6.8-8.7-10.3-13C189.9,148.1,193.3,152.4,192.9,160.4z"/>
	<path class="st0" d="M142.8,229.7c-0.2,0-0.4,0-0.6,0c0.6,8.7,9.2,16.1,18.8,15.1C152,243,145.7,238.2,142.8,229.7z"/>
	<path class="st0" d="M159.1,10.2c4.9,0.7,8.2,5.2,9.2,11.3c1,5.6,0.4,8.2-2.6,9.8C167.1,23.2,165.2,16.4,159.1,10.2z"/>
	<path class="st0" d="M247.5,166.6c9.9-0.3,12.7-1.1,21.2-7.5c-0.9,5.5-4.9,6.7-8.4,8.1C255.9,168.9,251.5,169.4,247.5,166.6z"/>
	<path class="st0" d="M97,222.4c-0.4-0.2-0.8-0.4-1.3-0.6c-1.9,8.5,2.9,18.7,10.5,19.6C99.5,236.3,96.6,230.2,97,222.4z"/>
	<path class="st0" d="M91.5,192.1H71.1c0,0,0.1,0.1,0.1,0.1c0.8,0.9,1.7,1.8,2.6,2.7C78.2,197,85.5,196.2,91.5,192.1z"/>
	<path class="st0" d="M100.6,190.8c-7,2.9-8.4,11.2-4,20c0.1,0.1,0.3,0.2,0.4,0.2C95.4,204.2,96.1,197.6,100.6,190.8z"/>
	<path class="st0" d="M200.5,174.8c4.1,5.6,5.8,11.7,4.5,18.7c1-1.3,1.9-2.7,2.8-4.2C208.3,183.5,205.7,177.2,200.5,174.8z"/>
	<path class="st0" d="M82.2,143.5c4.8,2.3,9.6,4.7,15,7.3c-6.3,2.8-11.9,0.3-15.6-6C81.8,144.4,82,143.9,82.2,143.5z"/>
	<path class="st0" d="M44.9,155.4c-3.9,3.4-8.5,5.9-13.5,7.8c0.9,0.4,2,1.3,2.7,1.1c4.3-1.4,8-3.7,11.1-6.7
		C45.1,157,45,156.2,44.9,155.4z"/>
	<path class="st0" d="M152.1,228.9c-0.8,0.1-1.7,0.2-2.5,0.3c7.1,4.3,11.2,10.9,14.4,18.3C164.3,240.6,158,231.8,152.1,228.9z"/>
	<path class="st0" d="M31.1,112c-8.1-0.9-14.7,1.6-21.5,7.8c1.8-6.8,6.5-8.2,10.8-9.3C24,109.5,28.1,108.8,31.1,112z"/>
	<path class="st0" d="M118.7,268.5c-5.5-1.2-6.7-5.9-8-10c-1.2-3.8-1.4-7.8,0.3-11.4c0.4,0.1,0.8,0.1,1.3,0.2
		c0.4,3.6,0.2,7.4,1.2,10.9C114.5,261.7,116.8,264.8,118.7,268.5z"/>
	<path class="st0" d="M212,85.8c0-8.5,3.7-15.6,10.1-22.8c-7.7,2.7-12.5,14.3-10.5,22.1C211.7,85.3,211.8,85.6,212,85.8z"/>
	<path class="st0" d="M224.4,181.5c-0.3,0.6-0.7,1.1-1,1.7c7.6,1.1,15.5-2.9,18-9.9C236.8,178.8,231.2,181.5,224.4,181.5z"/>
	<path class="st0" d="M137.5,95.2c-0.8-7.3,3-11.9,10.5-12.8C144.4,86.7,140.9,90.9,137.5,95.2z"/>
	<path class="st0" d="M209,61.7c-7.1,4.7-10.5,5-14.9,1.3C198.8,59.8,203.6,59.6,209,61.7z"/>
	<path class="st0" d="M102.4,123.1c-2.8-0.3-5.6-0.7-8.4-0.7c-5.6,0-10.3,2-13.6,6.9c-0.8,1.2-1.9,2.2-3.7,4.2
		C78.5,122.4,93.2,117.3,102.4,123.1C102.3,123.2,102.4,123.1,102.4,123.1z"/>
	<path class="st0" d="M54.6,96.5c0.2-0.3,0.4-0.7,0.6-1c-7.5-1.6-15.8,2.5-18,9.9C41.9,99.5,47.7,96.5,54.6,96.5z"/>
	<path class="st0" d="M182.1,56.1c0.2,0.1,0.4,0.2,0.6,0.3c2.1-8.5-2-17.3-9.5-19.2C179.4,42.2,182.3,48.5,182.1,56.1z"/>
	<path class="st0" d="M65.1,200.2c-2.2,4.8-4.4,9.7-6.6,14.5c3.6-1.5,7.1-7.4,8.8-12.4C66.6,201.6,65.8,200.9,65.1,200.2z"/>
	<path class="st0" d="M134.8,45.6c0.2,0,0.4,0,0.5,0c-1.5-7.5-9-13-17.6-12.3C124.9,35.6,131.3,38.8,134.8,45.6z"/>
	<path class="st0" d="M58.9,192.8c-0.2-0.3-0.5-0.7-0.7-1c-4.1,5.7-4.2,14.2,0.6,18.7C56.9,204.4,56.5,198.4,58.9,192.8z"/>
	<path class="st0" d="M232.3,135c7.7-3.2,10.1-10.3,12.7-17.2C246.4,125.7,240.3,134,232.3,135z"/>
	<path class="st0" d="M210.8,219.6c-6.6,5.6-16.6,4.4-21.5-1.9C196.1,221.7,203.2,222.5,210.8,219.6z"/>
	<path class="st0" d="M122.1,46.5c0.9-0.2,1.8-0.4,2.7-0.5c-3.5-4.8-7.1-9.7-10.8-14.9C114.1,36.2,117.8,42.4,122.1,46.5z"/>
	<path class="st0" d="M159.2,71.7c4.6-2.9,8.8-5.5,12.8-8.1c-1.4-0.4-2.8-0.7-4.2-1.1C164.5,64.1,161.2,67.3,159.2,71.7z"/>
	<path class="st0" d="M224.2,60c7.1-4.9,14.4-5.1,17.7-1.4C236.4,59,230.9,59.5,224.2,60z"/>
	<path class="st0" d="M248.4,113.5c-6.7,4.5-12.4,8.2-17.9,11.8C231.3,120.7,239.6,114.6,248.4,113.5z"/>
	<path class="st0" d="M218.5,224.5c4.8,6.1,5.1,13.7,1.4,17.5C219.5,236.4,219,230.8,218.5,224.5z"/>
	<path class="st0" d="M261.7,187.7c-0.7,0.2-1.9,0.7-2,0.4c-2.9-4.3-5.7-8.6-8.5-13c-0.2-0.3,0-0.9,0.1-2.2c6,3.7,9.6,8.3,10.3,14.9
		C261.5,187.8,261.7,187.7,261.7,187.7z"/>
	<path class="st0" d="M174,27.5c3.5-7.7,9.6-11.2,14-9.5C183.5,21.1,178.8,24.3,174,27.5z"/>
	<path class="st0" d="M104.5,250.9c-3.2,7.5-9.3,11.1-14.1,9.5C95,257.3,99.8,254.1,104.5,250.9z"/>
	<path class="st0" d="M58.7,36.3c0.4,5.8,0.9,11.3,1.3,17.4C55.4,48.2,54.9,40.5,58.7,36.3z"/>
	<path class="st0" d="M54.2,218.4c-6.6,4.8-14.1,5.1-17.6,1.3C42.1,219.3,47.6,218.9,54.2,218.4z"/>
	<path class="st0" d="M198.8,211.7C198.8,211.7,198.8,211.7,198.8,211.7c5.6,3.1,10.9,6,16.6,9.1
		C212.6,215.1,204.7,210.9,198.8,211.7z"/>
	<path class="st0" d="M28.2,105.3c-8-3.9-12-10.7-10-14.8C21.3,95,24.4,99.8,28.2,105.3z"/>
	<path class="st0" d="M9.8,157.4c5,2.4,10.3,5.1,16.2,8C17.9,166.4,10.4,162,9.8,157.4z"/>
	<path class="st0" d="M121,9.7c-2.4,4.9-4.9,10.2-7.6,15.8C111.7,18.7,116.3,10.4,121,9.7z"/>
	<path class="st0" d="M252.6,113c8.1-1,15.6,3.4,16.2,8C263.8,118.5,258.5,115.9,252.6,113z"/>
	<path class="st0" d="M165.5,252.4c1,7.9-3,15.1-8,16.3C159.9,263.7,162.5,258.4,165.5,252.4z"/>
	<path class="st0" d="M76.4,209.6c-3.9,0.9-7.9,2.8-10.6,5.6c4.5-1.3,8.9-2.5,13.1-3.8C78.1,210.8,77.2,210.2,76.4,209.6z"/>
	<path class="st0" d="M170.4,225c-2.5,4.4-3.7,11.4-2,15.5c1.4-5.5,2.7-10.9,4.1-16.2C171.8,224.6,171.1,224.8,170.4,225z"/>
	<path class="st0" d="M221.8,105.3c0,0.1,0.1,0.2,0.1,0.3c3.8,3.9,12.7,6.3,19.3,4.5C234.3,108.4,228,106.9,221.8,105.3z"/>
	<path class="st0" d="M210,202.7c1,3.4,2.8,6.4,5.1,9.3c-1.1-3.8-2.2-7.6-3.3-11.5C211.2,201.2,210.6,202,210,202.7z"/>
	<path class="st0" d="M166.4,39c-0.3-0.3-0.7-0.7-1-1c-1.8,2.6-3.5,5.3-5.6,7.6C162,43.4,164.2,41.2,166.4,39z"/>
	<path class="st0" d="M39,112.1c-0.3,0.4-0.7,0.8-1,1.1c2.7,1.5,5.2,3.3,7.4,5.3C43.2,116.4,41.1,114.2,39,112.1z"/>
	<path class="st0" d="M150.1,209.1c-1.9,3.4-3.8,6.7-5.8,10.2c1.2-0.1,2.3-0.2,3.5-0.3C149.5,216.7,150.4,213.2,150.1,209.1z"/>
	<path class="st0" d="M198.9,68.8c4.9-0.1,9.4-1.8,13.3-5.6c-4.8,1.5-9.5,3-14.3,4.5C198.3,68,198.6,68.4,198.9,68.8z"/>
	<path class="st0" d="M47.5,168.8c-3-0.8-6-1.5-9-2.3l-0.4,2.1c3.3,0.7,6.6,1.4,9.9,2.1C47.8,170.1,47.6,169.4,47.5,168.8z"/>
	<path class="st0" d="M99.4,80.3V66.7c-0.1,0.1-0.3,0.1-0.4,0.2c-2.9,2.2-3.3,6.3-0.9,13.2L99.4,80.3z"/>
	<path class="st0" d="M68.8,77.5c-1.3-3.9-2.5-7.9-3.8-11.8c-0.6,0.2-1.2,0.4-1.9,0.6c1.4,4.2,2.8,8.5,4.3,12.7
		C67.9,78.5,68.4,78,68.8,77.5z"/>
	<path class="st0" d="M109.3,51c0.8-4.2,1.5-8.4,2.3-12.7c-0.6-0.1-1.3-0.2-1.9-0.4c-0.8,4.6-1.6,9.3-2.4,13.9c0,0,0.1,0,0.1,0
		C108.1,51.5,108.7,51.3,109.3,51z"/>
	<path class="st0" d="M230.6,155C230.6,155,230.6,155,230.6,155c0,0.8,0,1.5,0,2.2l9.8,8.3c0.4-0.5,0.8-0.9,1.2-1.4
		C238,161,234.3,158,230.6,155z"/>
	<path class="st0" d="M61.9,252.4c-2-3.1-4.1-6.2-6.1-9.3c0.5-0.3,1-0.7,1.5-1c2.2,3,4.4,5.9,6.6,8.9
		C63.2,251.5,62.6,251.9,61.9,252.4z"/>
	<path class="st0" d="M221.2,36.3c-2.2-3-4.3-6-6.5-9c0.6-0.4,1.2-0.8,1.8-1.3c2.1,3,4.2,5.9,6.3,8.9
		C222.3,35.4,221.8,35.9,221.2,36.3z"/>
	<path class="st0" d="M36.3,57.4c-3,2.1-6,4.2-9,6.4c-0.4-0.6-0.8-1.2-1.2-1.8c3-2.1,6.1-4.2,9.1-6.3C35.6,56.2,35.9,56.8,36.3,57.4
		z"/>
	<path class="st0" d="M263,92.9c-0.9-4.2-1.8-8.4-2.8-12.6c0.8-0.1,1.6-0.2,2.4-0.3C263.9,84.1,263.6,88.5,263,92.9
		C262.9,92.9,263,92.9,263,92.9z"/>
	<path class="st0" d="M122.2,231.7c-2.6,3.3-5.2,6.5-7.8,9.8c-0.5-0.4-0.9-0.8-1.4-1.2c2.6-3.3,5.3-6.6,7.9-9.8
		C121.4,230.9,121.8,231.3,122.2,231.7z"/>
	<path class="st0" d="M15.6,185.5c0.9,4.2,1.8,8.4,2.7,12.6c-0.8,0.1-1.6,0.2-2.3,0.3C14.7,194.2,14.9,189.9,15.6,185.5
		C15.7,185.5,15.6,185.5,15.6,185.5z"/>
	<path class="st0" d="M185.6,262.9c4.2-0.9,8.4-1.8,12.6-2.7c0.1,0.8,0.2,1.5,0.3,2.3C194.4,263.8,190,263.5,185.6,262.9
		C185.6,262.8,185.6,262.9,185.6,262.9z"/>
	<path class="st0" d="M93,15.5c-4.2,0.9-8.4,1.8-12.6,2.7c-0.1-0.8-0.2-1.6-0.3-2.4C84.2,14.7,88.5,14.8,93,15.5
		C93,15.6,93,15.5,93,15.5z"/>
	<path class="st0" d="M9.1,119.5c-1.4,3.3-2.8,6.6-4.2,10c-0.7-0.3-1.3-0.6-2-0.9c1.5-3.3,3-6.6,4.5-9.8
		C7.9,119,8.5,119.3,9.1,119.5z"/>
	<path class="st0" d="M150,2.6c3.2,1.6,6.4,3.1,9.6,4.7c-0.2,0.5-0.5,1.1-0.7,1.6c-3.4-1.4-6.7-2.8-10.1-4.2
		C149.3,4,149.7,3.3,150,2.6z"/>
	<path class="st0" d="M275.8,149.7c-1.5,3.3-3,6.6-4.6,9.9c-0.6-0.2-1.1-0.5-1.7-0.7c1.4-3.4,2.7-6.7,4.1-10.1
		C274.4,149.1,275.1,149.4,275.8,149.7z"/>
	<path class="st0" d="M252.5,216.4c-3,2.1-6,4.2-9,6.3c-0.4-0.5-0.7-1-1.1-1.6c3-2.1,5.9-4.3,8.9-6.4
		C251.7,215.3,252.1,215.9,252.5,216.4z"/>
	<path class="st0" d="M128.8,275.7c-3.3-1.6-6.6-3.1-9.9-4.7c0.2-0.5,0.5-1.1,0.7-1.6c3.4,1.4,6.7,2.8,10.1,4.3
		C129.4,274.4,129.1,275.1,128.8,275.7z"/>
	<path d="M180.2,136.2c4.3-5.4,8.3-11.1,12.9-16.2c1.7-1.9,4.8-2.7,7.3-4c1.5,14.8-7.9,24.2-21.2,22.9c3.8-1.6,9.2-3.1,13.7-6
		c4.8-3.1,6.7-8.3,5.5-14.4c-1.9,4.1-2.9,9.2-6,12.2C189.4,133.6,184.3,134.5,180.2,136.2z M182.8,133.2c8.3-0.7,12.2-5.5,11.8-13.5
		C190.3,124.6,186.6,128.9,182.8,133.2z"/>
	<path class="st0" d="M182.8,133.2c3.7-4.3,7.5-8.5,11.8-13.5C195.1,127.6,191.1,132.4,182.8,133.2z"/>
</g>
</svg>
