<?xml version="1.0" encoding="utf-8"?>
<!-- Generator: Adobe Illustrator 19.0.1, SVG Export Plug-In . SVG Version: 6.00 Build 0)  -->
<svg version="1.1" id="Layer_1" xmlns="http://www.w3.org/2000/svg" xmlns:xlink="http://www.w3.org/1999/xlink" x="0px" y="0px"
	 viewBox="0 0 612 1447.5" style="enable-background:new 0 0 612 1447.5;" xml:space="preserve">
<style type="text/css">
	.st0{display:none;fill:url(#SVGID_1_);}
	.st1{opacity:0.58;fill:#FFFFFF;}
	.st2{opacity:0.4;fill:#FFFFFF;}
	.st3{opacity:0.38;fill:#FFFFFF;}
	.st4{opacity:0.2;fill:#FFFFFF;}
	.st5{opacity:0.39;fill:#FFFFFF;}
	.st6{opacity:0.56;fill:#FFFFFF;}
	.st7{opacity:0.45;fill:#FFFFFF;}
	.st8{fill:#FFFFFF;}
</style>
<linearGradient id="SVGID_1_" gradientUnits="userSpaceOnUse" x1="306" y1="2155.0332" x2="306" y2="-1.373792e-008">
	<stop  offset="0" style="stop-color:#FBB040"/>
	<stop  offset="0.1411" style="stop-color:#BE1E2D"/>
	<stop  offset="0.432" style="stop-color:#2E3192"/>
	<stop  offset="0.9086" style="stop-color:#000000"/>
	<stop  offset="1" style="stop-color:#000000"/>
</linearGradient>
<rect class="st0" width="612" height="1447.5"/>
<circle class="st1" cx="256.6" cy="1046.1" r="1"/>
<circle class="st1" cx="263.1" cy="1002.4" r="1"/>
<circle class="st2" cx="281.1" cy="793.6" r="1"/>
<circle class="st3" cx="281.1" cy="242.1" r="1"/>
<circle class="st4" cx="286.7" cy="1446.4" r="1"/>
<circle class="st3" cx="290.8" cy="547.5" r="1"/>
<circle class="st1" cx="294.5" cy="931.8" r="1"/>
<circle class="st5" cx="295.5" cy="366.8" r="1"/>
<circle class="st4" cx="280.4" cy="1239" r="1"/>
<circle class="st2" cx="416.3" cy="882.3" r="1"/>
<circle class="st2" cx="431.4" cy="793.9" r="1"/>
<circle class="st1" cx="171.6" cy="1138.4" r="1"/>
<circle class="st1" cx="192.5" cy="1125.4" r="1"/>
<circle class="st1" cx="272.2" cy="932.8" r="1"/>
<circle class="st1" cx="148" cy="1011.6" r="1"/>
<circle class="st6" cx="562.9" cy="794.6" r="1"/>
<circle class="st4" cx="552.8" cy="283.4" r="1"/>
<circle class="st1" cx="272.2" cy="968.4" r="1"/>
<circle class="st4" cx="534.6" cy="962.5" r="1"/>
<circle class="st2" cx="83.2" cy="1079.3" r="1"/>
<circle class="st1" cx="231.8" cy="1015.5" r="1"/>
<circle class="st4" cx="514" cy="1422.8" r="1"/>
<circle class="st4" cx="507.5" cy="870.4" r="1"/>
<circle class="st3" cx="503.8" cy="277" r="1"/>
<circle class="st3" cx="502.4" cy="86" r="1"/>
<circle class="st4" cx="499.6" cy="583.3" r="1"/>
<circle class="st1" cx="229.9" cy="1053" r="1"/>
<circle class="st6" cx="485.2" cy="763" r="1"/>
<circle class="st1" cx="104.4" cy="1123.9" r="1"/>
<circle class="st4" cx="478.9" cy="325" r="1"/>
<circle class="st4" cx="477.9" cy="890" r="1"/>
<circle class="st4" cx="466.5" cy="367.3" r="1"/>
<circle class="st4" cx="454.7" cy="350.1" r="1"/>
<circle class="st3" cx="445.7" cy="591.4" r="1"/>
<circle class="st4" cx="443.3" cy="465.9" r="1"/>
<circle class="st3" cx="443" cy="606.4" r="1"/>
<circle class="st5" cx="436.5" cy="357.2" r="1"/>
<circle class="st5" cx="431.5" cy="351" r="1"/>
<circle class="st1" cx="283.3" cy="1094.9" r="1"/>
<circle class="st1" cx="205.9" cy="1144.4" r="1"/>
<circle class="st2" cx="419.5" cy="827.4" r="1"/>
<circle class="st5" cx="417.4" cy="317.4" r="1"/>
<circle class="st3" cx="406.4" cy="614.1" r="1"/>
<circle class="st4" cx="404.9" cy="761.2" r="1"/>
<circle class="st5" cx="385" cy="336.5" r="1"/>
<circle class="st3" cx="384.9" cy="523" r="1"/>
<circle class="st2" cx="383.9" cy="901.5" r="1"/>
<circle class="st5" cx="379.4" cy="404.1" r="1"/>
<circle class="st2" cx="378.4" cy="969.1" r="1"/>
<circle class="st3" cx="374.3" cy="245.3" r="1"/>
<circle class="st2" cx="373.3" cy="810.3" r="1"/>
<circle class="st3" cx="369.2" cy="239.1" r="1"/>
<circle class="st5" cx="356.4" cy="341.9" r="1"/>
<circle class="st4" cx="326.5" cy="1164" r="1"/>
<circle class="st2" cx="344.6" cy="1043.2" r="1"/>
<circle class="st4" cx="342.6" cy="770.1" r="1"/>
<circle class="st5" cx="342" cy="323.3" r="1"/>
<circle class="st3" cx="335.9" cy="516.5" r="1"/>
<circle class="st2" cx="331.3" cy="822.8" r="1"/>
<circle class="st4" cx="231.2" cy="1234.6" r="1"/>
<circle class="st5" cx="311.6" cy="362.1" r="1"/>
<circle class="st5" cx="304" cy="345.2" r="1"/>
<circle class="st2" cx="302.9" cy="910.1" r="1"/>
<circle class="st5" cx="295.5" cy="340.7" r="1"/>
<circle class="st5" cx="293.8" cy="354" r="1"/>
<circle class="st5" cx="291.3" cy="314.1" r="1"/>
<circle class="st3" cx="286.7" cy="589.5" r="1"/>
<circle class="st4" cx="283.3" cy="1258.3" r="1"/>
<circle class="st3" cx="282.2" cy="228.6" r="1"/>
<circle class="st3" cx="272.1" cy="579.8" r="1"/>
<circle class="st3" cx="271" cy="582.1" r="1"/>
<circle class="st4" cx="224.7" cy="1303.1" r="1"/>
<circle class="st3" cx="266.6" cy="255.1" r="1"/>
<circle class="st3" cx="263.5" cy="590.4" r="1"/>
<circle class="st3" cx="257.7" cy="198.6" r="1"/>
<circle class="st5" cx="256.7" cy="270.9" r="1"/>
<circle class="st2" cx="255.6" cy="835.9" r="1"/>
<circle class="st1" cx="242.1" cy="1059.2" r="1"/>
<circle class="st1" cx="233.2" cy="1002.7" r="1"/>
<circle class="st5" cx="201.1" cy="320.6" r="1"/>
<circle class="st5" cx="192.1" cy="303.3" r="1"/>
<circle class="st2" cx="178" cy="898.5" r="1"/>
<circle class="st4" cx="127.9" cy="377.4" r="1"/>
<circle class="st2" cx="102.8" cy="821.3" r="1"/>
<circle class="st7" cx="96.6" cy="49.9" r="1"/>
<circle class="st8" cx="90.9" cy="1355.7" r="1"/>
<circle class="st7" cx="85.1" cy="16.3" r="1"/>
<circle class="st7" cx="73.8" cy="107.5" r="1"/>
<circle class="st2" cx="45.1" cy="971" r="1"/>
<circle class="st4" cx="547.5" cy="1286.1" r="1"/>
<circle class="st4" cx="539.3" cy="979.9" r="1"/>
<circle class="st2" cx="350.4" cy="1126.4" r="1"/>
<circle class="st4" cx="550.4" cy="1305.4" r="1"/>
<circle class="st4" cx="491.8" cy="1350.1" r="1"/>
</svg>
