<?xml version="1.0" encoding="utf-8"?>
<!-- Generator: Adobe Illustrator 19.1.0, SVG Export Plug-In . SVG Version: 6.00 Build 0)  -->
<svg version="1.1" id="Layer_1" xmlns="http://www.w3.org/2000/svg" xmlns:xlink="http://www.w3.org/1999/xlink" x="0px" y="0px"
	 viewBox="0 0 1878.5 439.2" style="enable-background:new 0 0 1878.5 439.2;" xml:space="preserve">
<style type="text/css">
	.st0{fill:#3BB54A;}
	.st1{fill:#3A3A3C;}
	.st2{fill:url(#SVGID_1_);}
	.st3{fill:url(#SVGID_2_);}
</style>
<g>
	<path class="st0" d="M605.2,297c0,13.8-0.1,27.7,0.1,41.5c0.1,3.4-1.1,5.5-3.8,7.4c-29.1,20.5-61.5,25.4-95.8,19
		c-36.3-6.8-63-26.8-78.6-60.6c-11.3-24.4-12.8-50.1-8.7-76.3c3.5-22.4,12.5-42.4,28.4-58.9c17.1-17.7,38.1-27.6,62.4-30.8
		c27.3-3.5,53.6-0.4,77.6,14c5.7,3.4,10.7,7.9,16.1,11.8c2.5,1.8,2.7,3.7,0.9,6.3c-3.4,5.1-6.5,10.5-9.7,15.7
		c-5.8,9.2-10.7,10-20.4,4.7c-8.6-4.6-17.4-9.7-26.7-11.9c-24.3-5.8-47.2-3.1-65.6,15.9c-10.2,10.5-15.5,23.6-17.9,37.8
		c-3.1,18.7-2.6,37.3,4.2,55.2c11.3,29.6,35.4,44.7,68.4,42.2c8.6-0.7,17.1-3.9,25.5-6.4c1.5-0.5,3.2-3.3,3.3-5.1
		c0.3-9.8,0-19.7,0.2-29.5c0.1-3.6-1.3-4.6-4.7-4.5c-6.3,0.2-12.7,0.1-19,0c-6.2-0.1-9.3-3-9.5-9.1c-0.2-7.3,0-14.7-0.1-22
		c-0.1-3,1.3-3.6,4-3.6c21.8,0.1,43.7,0.1,65.5,0c3.5,0,4.1,1.6,4.1,4.6C605.1,268.7,605.2,282.8,605.2,297z"/>
	<path class="st1" d="M1323.8,370.5c-0.1-1.9-0.2-3.5-0.2-5.1c0-70.8,0-141.6,0-212.5c0-7.2,0-7.2,7.4-7.2c23,0,46-0.1,69,0
		c13.4,0.1,26.5,2.3,39,7.6c19.7,8.4,32.5,22.8,37.5,43.7c4.6,19.2,3.7,38.2-4.5,56.2c-11.5,25.2-33.2,36-59.2,39.1
		c-12.5,1.5-25.3,1-37.9,1.4c-2.1,0.1-4.3,0-7.2,0c0,25.8,0,51.2,0,76.8C1352.6,370.5,1338.4,370.5,1323.8,370.5z M1368.3,180.6
		c-0.5,1.8-0.8,2.5-0.8,3.1c0,23.5,0,46.9-0.1,70.4c0,2.6,1,3.5,3.6,3.5c9.2-0.1,18.3,0.3,27.5-0.2c10.1-0.5,19.8-2.9,26.9-11.1
		c6.1-7,8.4-15.4,9-24.3c1.5-20.1-7.7-35.7-25.1-38.8C1395.9,180.8,1382,181.4,1368.3,180.6z"/>
	<linearGradient id="SVGID_1_" gradientUnits="userSpaceOnUse" x1="1.132488e-06" y1="219.6128" x2="511.2839" y2="219.6128">
		<stop  offset="0" style="stop-color:#239245"/>
		<stop  offset="0.3868" style="stop-color:#7CBF42"/>
		<stop  offset="1" style="stop-color:#239245"/>
	</linearGradient>
	<path class="st2" d="M0,33.8c0.8-2.7,1.5-5.4,2.4-8.1C7.6,10.2,21.5,0.2,38,0.2c102.3,0,204.6,0.3,307-0.2
		c17.3-0.1,38.3,13.2,38.7,37c0.5,33.8,0.1,67.7,0.1,101.5c0,0.3-0.2,0.6-0.5,1.5c-1.8-0.8-3.6-1.5-5.3-2.4
		c-47.8-25.6-95.6-51.2-143.4-76.8c-11.9-6.4-23.8-12.6-35.6-19.2c-4.7-2.6-8.9-2.6-13.6,0c-36.6,19.7-73.3,39.2-109.9,58.9
		c-24.2,13-48.3,26.1-72.4,39.1c-1,0.5-2.1,0.9-3.2,1.4C0,105.2,0,69.5,0,33.8z M510.6,77.4c-0.6,0.5-1.3,0.9-1.9,1.4
		c-13.8,12.8-27.6,25.6-41.4,38.4c-29.2,27.2-58.4,54.6-87.7,81.7c-45.9,42.6-91.9,85.1-137.8,127.6c-18.2,16.8-36.6,33.5-54.7,50.4
		c-2.5,2.3-3.9,2-6.1-0.2c-8.7-8.9-17.7-17.6-26.4-26.6c-15.8-16.2-31.5-32.5-47.3-48.8c-1-1-2.4-2.3-3.6-2.3
		c-11.7-0.2-23.5-0.1-36.8-0.1c40.9,47.4,80.9,93.6,121.1,140.2c108.2-120.8,215.7-240.9,323.3-361C511.1,78,510.8,77.7,510.6,77.4z
		"/>
	<path class="st1" d="M1597.6,290c-0.5-16.4,3-32.4,11.5-47.3c14.4-25.1,43.9-38,75-34c41.1,5.3,63.3,37,64.6,75.8
		c0.5,14.6-0.6,28.9-6,42.7c-9.3,23.8-26.2,39.2-51.4,44.1c-27.5,5.4-52.9,0.7-73-20.4c-14.6-15.3-20.1-34.5-20.7-55.3
		C1597.6,294,1597.6,292.3,1597.6,290z M1708.2,291.2c-1.2-11.2-1.9-22.2-6.5-32.4c-5.8-12.9-16.1-18.4-30-17.8
		c-13.1,0.6-22.7,6.5-27.2,18.9c-7.2,19.9-7.1,40.2-0.7,60.2c4.8,14.8,15.3,20.9,32.1,20.6c13-0.3,23.3-7.9,27.2-21.7
		C1705.5,309.9,1706.5,300.5,1708.2,291.2z"/>
	<path class="st0" d="M1052.8,364.7c0-2.3,0-3.8,0-5.3c0-49.6,0.1-99.3-0.1-148.9c0-4.6,1.3-6.1,5.9-5.8c6,0.4,12,0.1,18,0.1
		c7.4,0,10.1,2.1,11.9,9.4c0.6,2.5,1.2,5,2,8.1c3.7-3.1,6.6-5.7,9.7-8.1c19.8-15.4,47.6-16.4,66-2.3c11.1,8.5,16.5,20.3,18.9,33.6
		c1.2,6.7,1.7,13.6,1.7,20.4c0.2,30.8,0.1,61.6,0.1,92.4c0,1.8,0,3.6,0,5.9c-13.5,0-26.7,0-40.5,0c-0.1-1.7-0.2-3.5-0.2-5.3
		c0-31.1,0-62.3,0-93.4c0-1.3,0-2.7,0-4c-0.3-22.7-18.2-33.2-38.3-22.6c-0.7,0.4-1.4,0.9-2.2,1.3c-8.5,4.5-12.9,10.3-12.6,21.2
		c0.9,32.6,0.2,65.3,0.4,97.9c0,4.5-1.3,5.6-5.6,5.5C1076.4,364.6,1065,364.7,1052.8,364.7z"/>
	<path class="st0" d="M818.8,291.7c-13.8,0-27.7,0.2-41.5-0.1c-4.5-0.1-5.3,1.5-4.8,5.6c2.5,20.9,13.2,33.7,31.4,36.8
		c10.8,1.8,20.8-0.8,30.3-5.8c3.5-1.9,6.9-4,10.5-5.7c6.4-3,10.6-1.9,14.8,3.7c2.5,3.3,4.7,6.9,7.6,9.9c3.3,3.4,2.2,5.9-0.6,8.7
		c-9.4,9.5-20.5,15.9-33.4,19.2c-16.6,4.2-33.3,5-49.8,0c-20.4-6.1-35-19.1-43.3-38.5c-11.4-26.7-12.6-54-1.1-81
		c12.9-30.2,44.1-46.8,76.5-41.6c31,5,51.3,26.3,54.8,58c0.8,7.1,0.8,14.3,0.5,21.4c-0.3,7.2-3,9.4-10.2,9.4
		C846.8,291.8,832.8,291.7,818.8,291.7z M773.3,265c0.4,0.2,0.9,0.5,1.3,0.5c19,0.1,38,0.1,57,0c1,0,3-2.2,2.9-3.3
		c-0.2-7.9-2.5-15.1-8-21c-8.1-8.7-22.1-11.2-34.2-6.2C781.8,239.4,773.1,252.9,773.3,265z"/>
	<path class="st0" d="M975.8,291.7c-14,0-28,0.1-42-0.1c-4.1-0.1-5.1,1.3-4.7,5.2c2,20.6,13.4,34.2,31.7,37.2
		c11,1.8,21.1-1,30.7-6.1c3.5-1.9,6.9-4,10.6-5.6c6-2.7,10-1.6,14,3.6c2.8,3.7,5.4,7.6,8.5,11.1c2.3,2.6,1.8,4.5-0.4,6.8
		c-9.4,10-20.7,16.7-33.9,20.1c-16.7,4.3-33.6,5.1-50.3,0.1c-20.6-6.2-35.3-19.4-43.5-39.1c-11.1-26.6-12.2-53.7-0.8-80.6
		c12.8-29.9,43.9-46.6,76.1-41.5c31.7,5,52.4,27,55.3,59.1c0.6,6.8,0.8,13.6,0.4,20.4c-0.4,7.2-3,9.3-10.3,9.3
		C1003.4,291.8,989.6,291.7,975.8,291.7z M929.9,265c0.3,0.2,0.5,0.5,0.8,0.5c19.2,0.1,38.3,0.2,57.5,0c1,0,3-2.1,3-3.3
		c0-7.7-2.4-14.8-7.6-20.6c-8-8.9-21.8-11.4-34.1-6.8C940.2,238.3,930.5,250.4,929.9,265z"/>
	<path class="st1" d="M1829.2,208.1c14.8,0.2,30.7,5.3,44.5,16.8c3.1,2.6,3.4,4.7,1.1,7.9c-2.2,2.9-3.9,6.2-5.8,9.3
		c-4.5,7.4-8.1,8.2-16.3,4.9c-7.7-3-15.5-5.9-23.5-7.6c-4.3-0.9-9.3,0.5-13.6,1.9c-4.8,1.6-8,5.3-8.7,10.6
		c-0.8,5.7,1.1,10.4,6.2,13.1c5.7,3,11.8,5.3,17.7,7.9c10.5,4.6,21.7,8,31.2,14.1c15.8,10,18.4,26.2,15.2,43.3
		c-4.3,23.4-19.6,36.4-42.2,41.1c-24.6,5.2-47.2,0.4-67.8-14.3c-3.7-2.6-4.1-4.9-1.5-8.5c2.5-3.5,4.4-7.5,6.6-11.1
		c3.9-6.3,10.3-8,16.8-4.5c3.8,2,7.4,4.5,11.3,6.4c9,4.5,18.4,5.6,28.1,2.6c6.2-1.9,10.3-6,11.4-12.6c1.1-6.9-2-12-7.8-14.8
		c-8.4-3.9-17.3-6.8-25.9-10.2c-4.5-1.8-8.9-3.7-13.3-5.6c-33.1-14.3-31.7-60.8-7.2-78.7C1796.7,212.4,1810.1,208.1,1829.2,208.1z"
		/>
	<path class="st1" d="M1499,210.1c9.1,0,18.1-0.2,27,0.1c4.1,0.1,6.7,2.9,7.5,6.9c1.1,5.5,2,11,3,17c4.2-5.4,7.7-10.6,11.9-15.2
		c9.6-10.8,21.7-14.3,35.7-10.8c6.7,1.7,7.6,3.3,7,10.2c-0.7,8-1.4,15.9-2.1,23.9c-0.5,5.8-2.5,7.5-8.5,7c-4.3-0.3-8.6-1-12.9-1.1
		c-8.6-0.2-15.6,3.2-20.8,10c-5,6.6-8.1,13.6-8,22.4c0.4,28,0.1,56,0.3,83.9c0,4.3-1,5.8-5.5,5.7c-10.3-0.3-20.6-0.2-31,0
		c-3.3,0.1-4.3-1.1-4.3-4.3c0.1-50.6,0.1-101.2,0.1-151.9C1498.5,212.7,1498.8,211.6,1499,210.1z"/>
	<path class="st0" d="M670.5,228.4c4.4-5.8,8-11,12.2-15.6c9.5-10.6,21.5-14.1,35.3-10.8c7.1,1.7,8,3.3,7.3,10.4
		c-0.8,8-1.3,15.9-2.1,23.9c-0.5,5.5-2.7,7.3-8.2,6.9c-5.5-0.4-11-1.2-16.4-1c-7.6,0.3-13.5,4.3-18,10.4c-4.8,6.5-7.7,13.5-7.6,22.1
		c0.5,28,0.1,56,0.3,84c0,4.2-1.3,5.4-5.4,5.3c-10.3-0.3-20.7-0.2-31,0c-3.2,0-4.4-1-4.4-4.3c0.1-50.5,0.1-101,0-151.5
		c0-3.6,1.3-4.5,4.7-4.4c6.3,0.2,12.7,0,19,0.1c8.1,0.1,11.1,2.6,12.3,10.7C669.3,218.8,669.8,223.1,670.5,228.4z"/>
	<linearGradient id="SVGID_2_" gradientUnits="userSpaceOnUse" x1="240.7606" y1="93.2939" x2="148.1572" y2="378.2979">
		<stop  offset="0" style="stop-color:#939598"/>
		<stop  offset="0.7491" style="stop-color:#000000"/>
	</linearGradient>
	<path class="st3" d="M0,178.8c10.6-5.4,21.3-10.7,31.9-16.2c25.7-13.5,51.4-27.2,77-40.8c26.3-14,52.7-28.1,78.9-42.4
		c3.9-2.1,6.8-1.6,10.4,0.5c11.6,6.5,23.4,12.5,35.1,18.8c39.2,21,78.4,42,117.6,62.9c10.9,5.8,21.9,11.6,33.1,17.5
		c-66.4,61.5-132.7,123-198.6,184c-9-8.7-17.9-16.9-26.4-25.5c-15.6-15.8-30.8-31.8-46.4-47.6c-1.7-1.8-4.8-3.1-7.3-3.1
		c-19-0.2-38-0.2-57-0.1c-1.5,0-3,0.8-4.5,1.2c0.7,1.4,1.1,3,2.1,4.2c12.9,15,25.9,30,38.9,44.9c0.7,0.8,1.3,1.7,2.5,3.4
		c-5.8,0-10.7,0-15.7,0c-10.8,0-21.7,0-32.5,0c-18.9,0-33.5-11.7-37.8-30.1c-0.3-1.3-0.9-2.5-1.3-3.7C0,264.2,0,221.5,0,178.8z
		 M200.4,178c11.1,0,22.1,0.1,33-0.2c1,0,2.8-2.4,2.8-3.8c0.3-8.8,0.3-17.7,0.1-26.5c0-1.2-1.6-3.4-2.5-3.5
		c-11.1-0.2-22.2-0.2-33.4-0.2C200.4,155.6,200.4,166.5,200.4,178z M200.4,192.8c0,10.8-0.1,21.1,0.1,31.4c0,0.9,1.8,2.5,2.7,2.5
		c9.8,0.2,19.6,0.3,29.5,0c1.2,0,3.4-2.2,3.5-3.5c0.3-9,0.3-18,0.1-27c0-1.1-1.6-3.2-2.5-3.2C222.8,192.7,211.9,192.8,200.4,192.8z
		 M149.2,192.8c0,10.7-0.1,20.7,0.1,30.7c0,1.1,1.9,3.2,3,3.2c9.7,0.3,19.3,0.3,29,0c1.3,0,3.6-2.1,3.7-3.3
		c0.3-9.1,0.3-18.3,0.1-27.5c0-1.1-1.8-3-2.8-3C171.5,192.7,160.7,192.8,149.2,192.8z M149.2,178c11.2,0,22,0.1,32.8-0.2
		c1.1,0,3-2.9,3.1-4.5c0.3-8.3,0.1-16.6,0.2-25c0.1-3.6-1.5-4.6-4.8-4.5c-5.8,0.2-11.6,0-17.5,0c-4.6,0-9.2,0-13.8,0
		C149.2,155.6,149.2,166.4,149.2,178z M299,340.6c15.2,0,30.3,0,45.5,0c22.7,0,39.2-16.2,39.4-38.8c0.1-19.3,0-38.7,0-58
		c0-1.2-0.3-2.4-0.6-4.7c-30.4,34-60,67.2-90.3,101.2C295.8,340.5,297.4,340.6,299,340.6z"/>
</g>
</svg>
