<?xml version="1.0" encoding="utf-8"?>
<!-- Generator: Adobe Illustrator 19.0.1, SVG Export Plug-In . SVG Version: 6.00 Build 0)  -->
<svg version="1.1" id="Layer_1" xmlns="http://www.w3.org/2000/svg" xmlns:xlink="http://www.w3.org/1999/xlink" x="0px" y="0px"
	 viewBox="0 0 1081.1 1921.1" style="enable-background:new 0 0 1081.1 1921.1;" xml:space="preserve">
<style type="text/css">
	.st0{fill:#FDFDFD;}
	.st1{fill:#E6FAFE;}
	.st2{fill:#E9FEFE;}
	.st3{fill:#F3FEFE;}
	.st4{fill:#DFF6FE;}
	.st5{fill:#B1D2FE;}
	.st6{fill:#EEFEFE;}
	.st7{fill:#F8FEFE;}
	.st8{fill:#C6E3FE;}
	.st9{fill:#DAF2FD;}
	.st10{fill:#ADCFFE;}
	.st11{fill:#D1EBFE;}
	.st12{fill:#C1DFFE;}
	.st13{fill:#B6D6FE;}
	.st14{fill:#65A3FD;}
	.st15{fill:#60A0FE;}
	.st16{fill:#CDE8FE;}
	.st17{fill:#73ABFE;}
	.st18{fill:#7FB2FE;}
	.st19{fill:#BAD9FE;}
	.st20{fill:#CAE6FE;}
	.st21{fill:#8BB9FE;}
	.st22{fill:#79AEFE;}
	.st23{fill:#A0C6FE;}
	.st24{fill:#BCDBFE;}
	.st25{fill:#F7FEFE;}
	.st26{fill:#D6F0FE;}
	.st27{fill:#6EA8FD;}
	.st28{fill:#A8CBFD;}
	.st29{fill:#D5EEFE;}
	.st30{fill:#6CA7FD;}
	.st31{fill:#84B4FE;}
	.st32{fill:#69A6FD;}
	.st33{fill:#86B6FE;}
	.st34{fill:#BEDBFE;}
	.st35{fill:#FEFEFE;}
	.st36{fill:#C3DFFE;}
	.st37{fill:#DAF2FE;}
	.st38{fill:#A7CAFD;}
	.st39{fill:#8CBAFE;}
	.st40{fill:#D5EEFD;}
	.st41{fill:#A1C7FE;}
	.st42{fill:#FDFEFD;}
	.st43{fill:#92BEFD;}
	.st44{fill:#9CC3FD;}
	.st45{fill:#99C2FD;}
	.st46{fill:#93BEFE;}
	.st47{fill:#6EABFE;}
	.st48{fill:#FCFCFC;}
	.st49{fill:#F9FCFD;}
	.st50{fill:#F6FCFD;}
	.st51{fill:#FDFEFE;}
	.st52{fill:#F7FCFD;}
	.st53{fill:#FBFDFD;}
	.st54{fill:#ECF8FD;}
	.st55{fill:#A8CCFD;}
	.st56{fill:#E7F3FD;}
	.st57{fill:#E5F1FC;}
	.st58{fill:#D8EAFB;}
	.st59{fill:#E2EFFC;}
	.st60{fill:#FBFCFC;}
	.st61{fill:#BBD9FE;}
	.st62{fill:#8FBCFE;}
	.st63{fill:#FCFDFD;}
	.st64{fill:#92BEFE;}
	.st65{fill:#A8CDFC;}
	.st66{fill:#A4C9FD;}
	.st67{fill:#FDFDFE;}
	.st68{fill:#E7F2FA;}
	.st69{fill:#D4E7FC;}
	.st70{fill:#96C0FE;}
	.st71{fill:#93BFFE;}
	.st72{fill:#DBF0FC;}
	.st73{fill:#D8EFFD;}
	.st74{fill:#DEF1FC;}
	.st75{fill:#EBF7FD;}
	.st76{fill:#E1F2FD;}
	.st77{fill:#F2F7FB;}
</style>
<g>
	<g>
		<path class="st0" d="M1081,769c0,382.4,0,764.9,0.1,1147.3c0,4.2-1.1,4.8-4.9,4.8c-356.8-0.1-713.6-0.1-1070.3,0
			c-3.9,0-5-0.5-4.9-4.8C1,1533.9,1,1151.4,1,769c1.5-1.3,3.3-1.5,5.1-1.6c2-0.1,4-0.1,6-0.1c352.6,0,705.2,0,1057.8,0
			C1073.6,767.4,1077.6,766.4,1081,769z"/>
		<path class="st1" d="M1081,572c0,16,0,32,0,48c-1.5,1.3-3.3,1.5-5.1,1.6c-2,0.1-4,0.1-6,0.1c-352.6,0-705.2,0-1057.8,0
			c-3.7,0-7.7,1-11.1-1.6c0-16,0-32,0-48c1.5-1.3,3.3-1.5,5.1-1.6c2-0.1,4-0.1,6-0.1c352.6,0,705.2,0,1057.8,0
			C1073.6,570.4,1077.6,569.4,1081,572z"/>
		<path class="st2" d="M1,620c360,0,720,0,1080,0c0,12.3,0,24.7,0,37c-1.5,1.3-3.3,1.5-5.1,1.6c-2,0.1-4,0.1-6,0.1
			c-352.6,0-705.2,0-1057.8,0c-3.7,0-7.7,1-11.1-1.6C1,644.7,1,632.3,1,620z"/>
		<path class="st3" d="M1081,688c0,13.3,0,26.7,0,40c-1.9,1.7-4.3,1.6-6.6,1.6c-27.4,0-54.8,0.1-82.2,0c-3.1,0-6.5,0.1-8.1-3.5
			c-0.9-2.9-0.3-5.9-0.7-8.9c-0.2-1.2-0.6-2.3-2-2.4c-1.1-0.1-2.2,0.3-2.4,1.3c-1.1,8-7.2,6.1-12.2,6.2c-8.1-1-16.2-1.8-24.3,0.5
			c-0.6,0.2-1.4,0.3-2,0.1c-7.5-3-14.7,0.6-22.1,1.1c-3.5,0.2-7,0.5-10.5,0c-3.7-0.6-7.3-0.7-10.9-0.1c-2.9,0.5-5.6,0.3-8.4-0.7
			c-3.2-1.2-5.8-0.8-7.6,2.6c-1.7,3.3-5,3.5-8.3,3.6c-11.3,0.1-22.7,0-34,0c-5.5,0-11,0-16.5,0.7c-2.7,0.3-5.4,0.1-6.7-3
			c-0.9-2.3-2.8-2.6-4.9-2.6c-3.7-0.1-7.3,0-11-0.1c-0.7,0-1.4,0.1-2-0.1c-12.9-4.3-25.9,0-38.9,0c-4.6,0-9-0.7-13.3-1.9
			c-2.6-0.7-5.2-0.9-7.9-0.4c-12.9,2.8-25.9,1.1-38.8,1.1c-0.7,0-1.3-0.4-1.9-0.7c-2.2-2.7-4.6-3.4-7.8-1.3
			c-2.2,1.5-4.8,1.2-7.3,1.2c-11.3,0-22.6,0-34.1,0c1.1,1.4,2.4,2.6,2.1,4.4c-0.3,1.4-0.8,2.3-2.5,2.5c-13.1,1.4-26.3,1-39.5,1.1
			c-1.7,0-3.3,0-4.9,0.5c-10.4,3.3-21.1,1.3-31.7,1.2c-1,0-1.9-0.5-2.6-1.3c-0.4-0.9-0.3-2-0.5-2.9c-0.9-4.7-4.7-7.4-9.4-6.5
			c-3.8,0.7-7.4,1.8-11.3,2.2c-2.4,0.2-4.6,0.5-6.7-1c-0.8-0.6-1.7-1.4-2.7-0.5c-1,0.9-0.2,1.8,0.3,2.6c0.8,1.3,1.7,2.7,0.4,4.1
			c-1.1,1.1-2.5,0.6-3.8,0.1c-3.8-1.5-7.8-1.4-11.8-1.4c-66,0-131.9,0-197.9,0c-5.1,0-10,0.3-12.7-5.5c-1-2.2-4-2.3-6.3-2.3
			c-8.7-0.3-17.3-0.2-26-0.1c-1.7,0-3.3,0.4-4.8,1.2c-6.6,3.7-13.3,3.8-20.1,0.6c-1.8-0.8-3.5-1-5,0.5c-3.4,3.4-7.2,3-11,0.7
			c-2.8-1.6-4.9-2-6.2,1.7c-0.7,2-2.4,2.7-4.3,2.9c-2.2,0.3-4.3,0.2-6.5,0.2c-70.8,0-141.6,0-212.4,0c-3.1,0-6.4,0.7-9.1-1.5
			c0-12.7,0-25.3,0-38c1.5-1.3,3.3-1.5,5.1-1.6c2-0.1,4-0.1,6-0.1c352.6,0,705.2,0,1057.8,0C1073.6,686.4,1077.6,685.4,1081,688z"/>
		<path class="st4" d="M1081,572c-360,0-720,0-1080,0c0-12,0-24,0-36c1.5-1.3,3.3-1.5,5.1-1.6c2-0.1,4-0.1,6-0.1
			c352.6,0,705.2,0,1057.8,0c3.7,0,7.7-1,11.1,1.6C1081,548,1081,560,1081,572z"/>
		<path class="st5" d="M1,287c0-10.3,0-20.7,0-31c1.5-1.3,3.3-1.5,5.1-1.6c2-0.1,4-0.1,6-0.1c352.6,0,705.2,0,1057.8,0
			c3.7,0,7.7-1,11.1,1.6c0,10.3,0,20.7,0,31c-1.5,1.3-3.3,1.5-5.1,1.6c-2,0.1-4,0.1-6,0.1c-352.6,0-705.2,0-1057.8,0
			C8.4,288.6,4.4,289.6,1,287z"/>
		<path class="st6" d="M1081,688c-360,0-720,0-1080,0c0-10.3,0-20.7,0-31c360,0,720,0,1080,0C1081,667.3,1081,677.7,1081,688z"/>
		<path class="st7" d="M985,725c0.5,3.8,3.4,3,5.8,3c30.1,0,60.2,0,90.2,0c0,13.7,0,27.3,0,41c-360,0-720,0-1080,0
			c0-8.3,0-16.7,0-25c1.6-1.5,3.6-1.6,5.6-1.6c2.2-0.1,4.3,0,6.5,0c180.1,0,360.2,0,540.3,0c3.5,0,7-0.4,10.5,0.3
			c4.1,0.8,6.4-0.6,7.1-4.7c1.7-2.4,3.4-2,5,0.1c0.9,1.1,1.1,2.7,2.3,3.6c5.2,1.8,10.5,0.9,15.7,0.6c2.5-0.2,4.9-0.6,7.3,0.6
			c5.7,4.6,12.8,2.3,19.1,3.6c10.5-5,21.7-1.6,32.4-3c4.9-0.6,9.6-2.5,14.6-0.3c1.1,0.5,2.3-0.2,3.3-0.8c1.2-0.7,2.6-1.6,3.7-1
			c3.9,2.2,7.8,0.6,11.7,0.3c6.8-0.5,13.2,1.2,19.5,3.3c2.4,0.8,4.4,1.1,6.6-0.2c2.1-1.2,4.6-1.6,6.8-0.7c8.1,3.2,15.9,2.4,23.6-0.8
			c2.8-1.2,5.7-1.7,8.8-1.4c1,0.1,2.1,0.1,2.9-0.5c7.1-4.7,13.6-1.9,19.9,1.7c6.4,3.7,7.8,3.8,13.9-0.7c2.5-1.8,4.9-3.3,8.1-3.6
			c3.3-0.3,5.7-2.7,8.2-4.5c2-1.5,3.9-2.8,7.2-3.5c-5.8-0.2-10.8-0.1-15.8-0.1c-4.3,0-8.4-1-12.6-2c-7.1-1.7-14.8-2.5-22,0.8
			c-2.9,1.4-5.9,1.7-8.6,0c-2.9-1.9-5.5-1.8-8.4,0c-2.1,1.3-4.5,1.4-6.7,0.1c-2.9-1.8-6-1.9-9.1-1.9c-9.2,0-18.3,0.2-27.5-0.1
			c-4.5-0.1-5.2-1.2-4.1-5.3c9.7,0,19.3,0,29,0c4,0,7.8,0.2,11.7-1.6c3.9-1.8,7.8,0.6,11.5,1.6c8.3,2.2,16.5-0.7,24.7-0.1
			c3.9,0.3,7.9,0.5,11.7-1.6c1.3-0.7,3.8-0.9,4.8-0.2c6.8,5,14.5,2.1,21.7,2.7c2.7,0.2,5,0,4.8,3.8c-0.2,2.5,1.9,2.4,3.6,2.2
			c17.6-1.9,35.2-0.5,52.8-0.9c3.3-0.1,5.8-0.2,7-4.5c1.3-4.5,5.4-2.8,8.4-1.8c1.6,0.5,3,1.6,4.7,1.2c10-2.5,20.2,1.8,30.1-1
			c5.8-1.6,11.2-2.5,17.4-0.4c2.9,1,7.1-1.9,11-1.6c5,0.3,10-0.2,14.9,1.1c-0.5,4.5-1.9,6-6.1,5.8c-11.6-0.6-23.2,0.3-34.8,0.5
			c-2.2,0-4.3-0.4-6.5-0.5c-5.5-0.5-10.9-1.2-15.8,2.5c-2.2,1.6-5.1,1.2-7.8,1.2c-4,0-7.9,0.4-11.5,2.6c10.9-2.9,21.7,1.3,32.4,0.2
			c12.2-1.3,24.4,0.1,36.5-0.6c5.6-0.3,11.2-1.5,16.9-0.8c2.5,0.3,4.2-1.5,6.1-2.9C979.1,727.2,981,723.7,985,725z"/>
		<path class="st8" d="M1,395c0-4.7,0-9.3,0-14c1.6-1.5,3.6-1.6,5.6-1.6c2.5-0.1,5,0,7.5,0c284.7,0,569.4,0,854.1-0.1
			c10.8,0,21.6-0.1,32.4,0c2.3,0,5.1,0.8,6.8-1.9c4.5-2.1,6.1-1.7,8.9,2.4c1.1,2.7,3.5,1.5,5.2,1.6c8.3,0.3,16.6,0.1,25,0.1
			c42,0,83.9,0,125.9,0c2.9,0,6.1-0.6,8.6,1.5c0,8.7,0,17.3,0,26c-1.6,1.5-3.6,1.5-5.6,1.6c-2.3,0.1-4.7,0-7,0
			c-261.5,0-522.9,0-784.4,0c-3.7,0-7.3,0.1-11,0.1c-2.1,0.1-3.2,0.6-2.1,3c0.6,1.2,1.1,2.6-0.5,3.5c-1.4,0.8-2.7,0.3-3.6-0.9
			c-3.2-4.5-9.6-3.6-12.9-8.1c-1.1-1.5-2.7,0.2-3.8,1.1c-4.1,3.6-9.1,4.2-14.1,3.8c-5.9-0.4-12-0.5-17.8-1.9
			c-5.3-1.2-10.6-1.2-15.8,0.4c-6.3,1.9-12.7,2.2-19.3,1.1c-3.9-0.7-8.1-0.8-11.9,0c-12.2,2.5-24.2,0.9-36.1-1.1
			c-8.3-1.4-17-0.5-25.1-3.7c-0.9-0.4-2-0.2-3-0.1c-4.8,0.7-9.1-0.6-13.3-3.2c-6.1-3.8-13.6-3.3-16.4,2.2c-4.6,9-12.3,9.2-20.4,8.9
			c-3.6-0.1-6.8,0.2-10.2,1.3c-4.7,1.6-9.5-0.8-14.2-1.4c-5.8-0.8-11.5-2.3-17.3-2.3c-5.1,0-6.8-4.7-10.3-6.9
			c-1.3-0.9-2.4-2.2-4.1-2.5c0-1.7,0-3.3,0-5C2,397.7,3.8,396.3,1,395z"/>
		<path class="st9" d="M1081,536c-360,0-720,0-1080,0c0-7.7,0-15.3,0-23c1.9-1.7,4.3-1.6,6.6-1.6c70.8,0,141.6-0.3,212.4,0.3
			c11.2,0.1,22.5,0.8,33.7,1.2c3.3,0.1,6.3-2.2,9.8-1c0.9,0.3,1.7,0.7,1.9,1.6c0.1,0.6,0,1.1-0.3,1.6c-2.4,1.4-5,2.4-7.5,3.7
			c-0.5,0.1-0.9,0.2-1.4,0.3c-6.3-1.2-12.7-0.6-19.1-0.6c2.1,0.2,4.2,0.8,6.3,1c1.9,0,3.7,0.1,5.5,0.8c4.6,2.4,9.5,1.8,14.1,0.8
			c3.4-0.8,7.1-1.4,10.4-3.2c5-0.6,10.1-0.8,15.1,0.2c9.3,3.2,18.6,5,28.3,1.8c8.2-2.7,16.5-0.2,24.8,0c7.6,0.2,15.2,2.2,22.9,0.7
			c1.3-0.2,2.8-0.4,4,0c7.1,2.3,14.2,0.8,21.2-0.3c7.9-1.3,15.6-0.4,23.3,1c3.8,0.7,7.3-0.2,10.9-0.7c7.4-0.9,14.9-0.7,22.1-3.4
			c4.3-1.6,8.9-0.2,13.4-0.4c8.7-0.2,17.5-2.9,26.2,0.5c2.9,1.1,6.1,1.9,8.9,3.3c5.7,2.8,11.7,2,17.7,1.6c2.6-0.2,4.3-2.3,6.5-4.2
			c-13.2-2.5-26-4.3-38.6-6.6c-3.1-0.6-6.3-0.9-9.2-2.2c-1.7-0.7-4-1.4-3-4.2c0.4-0.3,0.9-0.5,1.4-0.6c3.6,2.4,7.2,2.4,11,0.4
			c1.7-0.9,3.4-0.4,5,0.2c-2.6-1.6-5.1-0.6-7.7,0.6c-3.1,1.4-3.2,1.2-4.7-1c5.3-4.5,11.7-6.4,18.3-8c1.4-0.3,3.1-0.5,3.1,1.9
			c-0.5,1.6-2.1,2-3.7,3.5c2-0.4,3.6-1.1,5-0.4c5.5,2.8,11.4,1.9,17.2,1.9c186,0,372,0,558,0.1c3.4,0,7.1-0.8,10.1,1.6
			C1081,515.3,1081,525.7,1081,536z"/>
		<path class="st10" d="M1081,256c-360,0-720,0-1080,0c0-10.3,0-20.7,0-31c1.9-1.7,4.3-1.6,6.6-1.6c38.2,0,76.5-0.1,114.7,0.1
			c5.6,0,11.2,1.7,16.8,2.4c1.7,3,4.3,2.7,7.2,2.4c9.1-1.2,18.5-0.7,27.4-3.8c0.4-0.2,1,0.2,1.4,0.3c2.4,1.9,3.7,3.8,0.2,6.4
			c3.9,0,7.5,0.1,11.2,0.1c145,0,289.9,0,434.9,0c1.3,0,2.7-0.1,4,0c3.3,0.2,6-0.5,6.8-4.3c0.2-0.8,0.9-1.4,1.8-1.6
			c5.8,4.5,12.7,3.3,19.1,2.8c9.6-0.9,19.3-0.2,28.9-0.8c2.3-0.1,4.6,0.3,7.1-1.6c-2.3-2.6-5.2-2.1-7.8-2.5c-1.3-0.2-2.8-0.5-3.1-2
			c-0.2-1.3,0.8-2.2,1.8-2.7c6.1-3.1,12.6-4.1,19.3-2.5c0.7,0.2,1.1,0.7,1.2,1.4c-0.8,4-4,7.3-3.1,11.7c124.9,0,249.7,0,374.5,0
			c3.1,0,6.4-0.7,9.1,1.6C1081,239.3,1081,247.7,1081,256z"/>
		<path class="st11" d="M1081,445c0,8.3,0,16.7,0,25c-1.5,1.3-3.3,1.5-5.1,1.6c-2.2,0.1-4.3,0-6.5,0c-175.5,0-350.9,0-526.4,0
			c-5,0-10.3-1.5-14.8-0.6c-6.2,1.3-12.2,0.2-18.2,0.4c-4,0.2-8-0.4-11.1-3.5c-2.4-3.9-5.5-5-10-3.7c-3,0.8-6.3,0.2-9.5,0.2
			c-6.1,0-12.2,0.1-18.2,1.9c-6.2,1.9-12.7,1.5-19.2-0.1c-4.7-1.2-9.7-0.4-13.8,2.4c-3.7,2.4-6.8,3.1-10.1-0.4
			c-2.2-2.4-4.6-1.5-6.4,0.7c-2.4,2.9-5.1,2.8-7.9,0.9c-2.3-1.6-4.7-1.9-7.6-1.8c-9.4,0.4-19,1.8-27.9-2.9c-2-1.1-4.3-0.4-6.4,0.1
			c-6.6,1.6-13.1,1.4-19.8,0c-9-1.8-17.9-1.4-26.4,2.3c-1.5,0.7-3.3,1.9-4.7,1c-4.2-2.4-6.8-1-9.5,2.5c-1.9,2.4-5,3-8.2,2.5
			c-5.7-0.9-11-3-15.9-5.7c-5.4-3-10.6-3.5-16-0.1c-1.6,1-3.3,1.5-5.2,1.5c-7.9,2.1-16.1,2-24.1,2c-67.8,0.3-135.6,0.1-203.3,0.1
			c-7,0-14,0.2-21,0c-2.3-0.1-4.7,0.1-6.6-1.6c0-8.3,0-16.7,0-25c1.5-1.3,3.3-1.5,5.1-1.6c2-0.1,4-0.1,6-0.1
			c352.6,0,705.2,0,1057.8,0C1073.6,443.4,1077.6,442.4,1081,445z"/>
		<path class="st12" d="M908,377.1c1.4,2.6,0.4,4-2.2,3.9c-6.1-0.2-12.3,0.8-18.4-0.6c-4.3-1-8.5,0.8-12.8,0.8
			C583.4,381,292.2,381,1,381c0-10.7,0-21.3,0-32c1.6-1.5,3.6-1.6,5.6-1.6c2.3-0.1,4.7,0,7,0c186.4,0,372.8,0,559.2,0
			c3.8,0,7.7,0.1,11.5-0.5c3.6-1.3,7.9-0.1,10.9-3.3c3-2.2,5.9-1.8,8.8,0.2c4.2,3,8.6,3.9,13.7,3.1c3.1-0.5,6.4-0.7,9.3,0.8
			c6.4,3.3,13.1,3.3,20,2.5c3.1-0.4,6-0.1,8.5,1.8c2,1.5,4.2,1.7,6.6,1.7c16.1-0.1,32.2-2.1,48.3-1c12.3,0.8,24.6,0.6,36.8,1.3
			c2.8,1.1,6.8,1.2,6.7,5.3c-0.2,4.6-4,6.4-7.9,7.5c-0.5,0.2-1,0.3-1.5,0.4c-5.6,0.4-11.1,1.9-16.8,1c-2.6-0.4-4.2,1.5-6.5,2.8
			c2.1,0.8,3.9,0,5.6-0.3c6.4-1.2,12.8-1.2,19.2-0.2c4.9,0.8,9.9,0.3,14.9,0.3c1,0,1.5-0.5,1.4-1.6c-0.1-0.5-0.2-1-0.3-1.5
			c0.1-6.5,1.5-8.2,7.8-8.9c1.3-0.1,2.6-0.5,3.9-0.8c16.6,0.7,32.8-4.3,49.5-3.6c6.4,0.3,12.8-1.4,18.8,2.4c4.5,2.8,4.8,5.2,0.6,8.5
			c-3.3,0.8-6.4,2.6-10.2,1.8c-1.8-0.4-3.2,1-3.7,2.7c-0.4,1.6,1.2,2.2,2.4,2.8c4.8,2.5,10.2,2.3,15,1.4c10.9-2.1,21.8-2,32.8-2.1
			c3,0,4.5,1.7,6,3.7c0.3,0.3,0.7,0.6,1,0.9c2,2.2,3.5-0.5,5.3-0.5C896.7,375.9,902.5,374,908,377.1z"/>
		<path class="st13" d="M1,287c360,0,720,0,1080,0c0,7,0,14,0,21c-1.5,1.3-3.3,1.5-5.1,1.6c-2,0.1-4,0.1-6,0.1
			c-352.6,0-705.2,0-1057.8,0c-3.7,0-7.7,1-11.1-1.6C1,301,1,294,1,287z"/>
		<path class="st14" d="M1081,21c0,6.7,0,13.3,0,20c-1.5,1.3-3.3,1.5-5.1,1.6c-2,0.1-4,0.1-6,0.1c-352.6,0-705.2,0-1057.8,0
			c-3.7,0-7.7,1-11.1-1.6c0-6.7,0-13.3,0-20c1.5-1.3,3.3-1.5,5.1-1.6c2-0.1,4-0.1,6-0.1c352.6,0,705.2,0,1057.8,0
			C1073.6,19.4,1077.6,18.4,1081,21z"/>
		<path class="st15" d="M1081,21C721,21,361,21,1,21C1,14.7,1,8.3,1,2c1.7-0.9,3.6-0.5,5.4-0.5c356.4,0,712.8,0,1069.2,0
			c1.8,0,3.7-0.5,5.4,0.5C1081,8.3,1081,14.7,1081,21z"/>
		<path class="st16" d="M1081,445c-360,0-720,0-1080,0c0-2.3,0-4.7,0-7c0.7-0.7,1.5-0.9,2.4-0.7c1,0.5,2.1,0.1,3.1,0.3
			c0.4,0.2,0.8,0.5,0.7,1.1c0.6-0.1,0.1-0.5,0.1-0.6c-0.5-1.3-0.5-2.5-0.3-3.8c0.1-0.4,0.2-0.9,0.3-1.3c0.6-1.7-0.2-3.1-1.2-4.3
			c-0.6-0.8-0.9-1.6-1-2.6c-0.1-1.6,0.2-3,1.4-4.1c0.4-0.3,0.8-0.6,1.3-0.8c1.8-0.4,3.7-0.7,5.4-1.5c7.5-2.5,14.9,0.2,22.3,0.3
			c1.8,0,3.7,0.8,5.5,0.3c11.3-3,22.9-0.6,34.3-2.5c1.6-0.3,3.3-0.1,4.9,0.4c5.4,2.1,10.7,4.4,16.5,5.2c0.6,0.2,1.1,0.5,1.6,0.8
			c5.9,0.6,11.8,1.7,17.7,0.3c3.6-0.9,7.2-1.3,10.7,0.4c0.9,0.4,1.9,0.5,2.9,0.5c16,0,32,0.8,48-0.4c7.5-0.6,14.9,0.9,22.4,0.7
			c12.8-0.3,25.6-0.6,38.3-1.9c1.5-0.2,3,0.2,4.7,0.9c-2.5-1.2-4.6-1.1-6.9-0.5c-3.2,0.9-6.6,0.7-9.9,0.1c-0.8-0.1-1.8-0.5-1.9-1.3
			c-0.2-1.3,1-1.6,1.9-1.9c2.8-0.7,5.7-1.2,8.4-0.9c8.6,1,17.3-1,25.9,0.5c1.7,0.3,3.3,0.3,4.5,1.9c-1.8,2.7-4.7,1.9-7.2,2.1
			c0,0,0,0,0.1,0.1c3.1-0.4,6.6,1,8.9-2.7c0.7-1.1,3-0.3,4.1,0.8c2.8,2.7,6.2,2.8,9.8,2.8c2,0,4,0,6,0c261.3,0,522.5,0,783.8,0
			c3.6,0,7.4-0.9,10.6,1.6C1081,433,1081,439,1081,445z"/>
		<path class="st17" d="M1081,67c0,6,0,12,0,18c-1.5,1.3-3.3,1.5-5.1,1.6c-2,0.1-4,0.1-6,0.1c-352.6,0-705.2,0-1057.8,0
			c-3.7,0-7.7,1-11.1-1.6c0-6.7,0-13.3,0-20c5.9-2.5,11.8-2.3,17.6,0.2c1,1.3,2.4,1.4,4,1.4c11.4,0.2,22.7-1.2,34.1-1.4
			c1.9,0,4-0.9,5.5,1.1c0.3,1.4,1.8,2.2,2.5,1.2c1.7-2.2,4.1-1.9,6.4-2.1c1.8-0.1,3.7,0,5.5,0c331.1,0,662.2,0,993.3,0
			C1073.6,65.4,1077.6,64.4,1081,67z"/>
		<path class="st18" d="M1081,97c0,5.3,0,10.7,0,16c-1.5,1.3-3.3,1.5-5.1,1.6c-2,0.1-4,0.1-6,0.1c-352.6,0-705.2,0-1057.8,0
			c-3.7,0-7.7,1-11.1-1.6c0-5.3,0-10.7,0-16c1.5-1.3,3.3-1.5,5.1-1.6c2-0.1,4-0.1,6-0.1c352.6,0,705.2,0,1057.8,0
			C1073.6,95.4,1077.6,94.4,1081,97z"/>
		<path class="st19" d="M1,308c360,0,720,0,1080,0c0,7,0,14,0,21c-2.8,2.2-6,1.5-9.1,1.5c-81.5,0-163,0-244.5,0c-1.7,0-3.3,0-5,0
			c-2.8-0.1-5.1,0.3-4.4,4.1c0.2,1.1,0.1,2.6-1.1,3.1c-1.2,0.6-2.3-0.5-2.9-1.4c-4.1-5.5-10-9-14.8-13.6c-1.4-2.2-3.4-4.1-3.6-6.9
			c0.2-0.6,0.7-0.8,1.1-1c-0.5,0-0.7,0.4-1.1,0.7c-0.5,0.4-1,0.7-1.6,0.8c-13.2,0.4-26.3,0.5-39.5,0c-2.9-1.7-4.6-0.6-6.5,2
			c-2.4,3.2-3,7.4-7.3,9.8c-3.8,2.1-7.3,2.6-11.5,2.9c-8.3,0.6-15.8-1.7-23.5-4c-1.8-0.5-3.6-0.4-5.5-0.6c-1.5-0.2-3.5-0.2-3.5-2.1
			c0-2.4,2.1-2,3.7-2.1c0.5,0,1,0.1,1.4,0.4c-3.8-0.5-3.8-0.5-6.5,2.3c-2,2.1-4.5,1.8-6.3-0.7c-0.9-1.2-1.2-1.5-4.9-1.3
			c-3.1,0.2-4.8-0.7-5.1-3.9c-0.2-0.2,0.2-0.8-0.5-0.8c0,0.3,0.1,0.6,0.1,0.9c-0.2,1.4-0.6,2.8-2.4,1.6c-1.3-0.9-2.4-2.2-4-2.8
			c-1.6-0.7-3.4-0.6-5.1-1.2c-5.4-1.9-11-1.8-16.4-0.3c-2.9,0.8-5.7,1.3-8.7,0.7c-0.5-0.1-1-0.4-1.4-0.6c-0.8-0.6-1.5-1.2-2.4-1.6
			c-2.2-1-4.2-0.3-6.3,0.3c-8.3,2.3-16.7,3.5-25.2,1.1c-4.3-2.7-9.1-1.5-13.7-1.3c-0.5,0.1-1,0.2-1.5,0.3
			c-5.7,0.5-11.4-0.4-17.1,0.6c-0.8,0.2-1.6,0.2-2.5,0.1c-3.5-0.9-7-0.2-10.5-0.7c-0.6-0.1-1.1-0.2-1.7-0.3
			c-12.8-0.4-25.5-0.5-38.3-0.4c-26.9,0.3-53.7-0.2-80.6,0c-2.2,0-4.3-0.2-6.4,0.3c-0.7,0.3-1.3,0.9-1.8,1.4
			c-0.8,0.7-1.6,1.2-2.6,1.5c-1,0.3-1.9,0.3-2.8-0.2c-0.4-0.3-0.7-0.6-1-1c-0.3-0.6-0.6-1.2-1-1.7c-2.9-1.1-5.8-0.2-8.7-0.4
			c-1.6,0-3.3,0.1-4.7-0.1c1.6,0.7,3.9-0.9,5.5,1.1c-0.1,0.6-0.5,1-1,1.3c-2.4,0.9-5,0.8-7.4,0.5c-13.6-1.8-27.3-0.7-40.9-0.8
			c-4.9,0-9.9,0.7-14.8,1.6c-5.5,0.5-11,1.1-16.5-0.4c-0.9-0.5-1-1.2-0.3-2c3.7-1.5,7.5-0.2,11.3-0.9c-6.5,1.1-12.9-1.1-19.4,0.1
			c0.1,0.6-0.1,1.1-0.4,1.6c-0.4,0.7-1.2,1.5,0.1,2.2c0.4,0.1,0.8,0.2,1.2,0.4c1.7,0.6,3.7,0.6,5.1,2c0.1,0.5,0.1,1-0.2,1.5
			c-3.6,1.5-4.5,5.5-7.5,7.6c-2.3,0.7-4.6,0.5-7,0.5c-103.4,0-206.7,0-310.1,0c-2.9,0-6.1,0.5-8.6-1.6C1,322,1,315,1,308z"/>
		<path class="st20" d="M97,424c-6,0.4-11.2-1.7-16-5c0.2-0.2,0.3-0.3,0.5-0.5c2.2-1.2,4.8-0.3,7.1-1.2c0.5-0.2,1-0.3,1.5-0.4
			c2.3-0.3,4.6-0.3,6.9-0.1c1.8,0.2,3.5,0.8,5.2,1.3c2.5,0.9,4.9,0.8,7.2-0.5c3.5-1.5,7.2-1.1,10.8-1.3c11.9-0.9,23.6-4.1,35.7-2.3
			c1.8,0.3,3.6,0,5.4-0.4c4.1-1,8.3-0.9,12.2,0.9c4.5,2.2,8.7,1.2,13.4,0.5c11.1-1.6,22.6-4.7,33.7,0.9c2.7,1.4,5.7,2,8.7,1.6
			c9.6-1.2,19.2-1.2,28.8,0c1.4,0.2,2.9,0.3,4.5-0.6c-6.6,0.8-8.3-6.5-13.5-7.8c4.1-4.3,4.6-4.7,7.1-1.3c2,2.7,3.9,3.4,6.9,3.4
			c2.5,0,3.1,2.8,4.6,4.2c0.8,0.8,1.3,2.3,2.7,1.2c1.1-0.9-0.5-1.7-0.6-2.5c-0.3-2-4.6-1.7-3-4.2c1.1-1.7,3.7-0.4,5.6-0.4
			c2.8,0.1,5.6-0.3,8.4-0.3c266.8,0,533.5,0,800.3,0c0,6,0,12,0,18c-267.1,0-534.1,0-801.2,0c-3.6,0-8.1,1.4-9.8-3.7
			c-1,0.6-3-3-3.4,0.9c-0.2,1.9-2.1,1.9-3.6,1.9c-3.7,0-7.3,0-12.3,0c4.3-4.9,9.4-1.7,14-3.9c-13.7-0.6-26.6-0.4-39.5,0.9
			c6.7,0,13.3,0,20,0c1.3,0,3.5-0.7,3.4,1.6c-0.1,1.9-2.1,1.5-3.2,1.3c-8.7-2.2-17.4,0.1-26,0.5c-8.8,0.4-17.6,0.4-26.4,0.5
			c-20.6,0.2-41.1,0-61.7,0.1c-2.9,0-5.5-0.3-8.1-1.8c-3.2-1.9-6.1,1.4-9.4,1.1c-5.4-0.5-10.8-0.2-16.3-0.4
			C96.2,425.9,96.9,424.7,97,424c2.6-0.5,5.1-1.3,7.7-1.2c2,1.6,4.6,0,6,0.7c-1.2-0.1-3.2,0.1-5.2-0.1C102.6,421.6,99.9,424,97,424z
			"/>
		<path class="st21" d="M1,146c0-5,0-10,0-15c1.9-2.4,4.6-2.7,7.3-2.5c10,0.8,19.9-0.2,29.6-2.7c1.8-0.5,3.7-0.5,5.5-0.3
			c14.1,2,28.2,0,42.3,0.1c3,0,5.8-1.8,8.8-0.5c1.9,1.6,4.1,2.2,6.5,2.2c2.8,0,5.7,0,8.5,0c320.1,0,640.3,0,960.4,0
			c3.7,0,7.7-1,11.1,1.6c0,3.7,0,7.3,0,11c-2.6,2.2-5.7,1.6-8.6,1.6c-44.6,0-89.3,0-133.9,0c-71.1,0-142.2,0-213.4,0
			c-3.5,0-3.5,0-9.2,4.2c-0.5-0.3-0.9-0.7-1.3-1.1c-3.2-6.2-3.4-6.3-10.3-4.2c-2.5,0.8-4.9,0.9-7.2-0.5c-2.3-1.4-4.7-1.5-7.1-0.4
			c-3.3,1.5-6.9,2.4-10.2,1.5c-5.9-1.5-11.1,2.4-16.8,1.4c-2-0.5-3.2,0.8-4.6,1.8c-6.8,2.3-14,0.2-20.8,2.4
			c-4.8,0.4-9.7-0.1-14.5-0.1c-158.4,0-316.8,0-475.2,0c-3.3,0-6.7-0.1-10,0.4c-2.6,0.9-5.3,3.1-8,0.1c-9.1-1.3-18.3-1.2-27.3-0.3
			c-9.9,1-19.6,0-29.3-0.8c-1.7-0.1-3.4-0.8-4.9-0.2c-8,2.8-16.4,2.2-24.6,3.3c-2.3,0.3-4.9,0.8-6.9-0.3c-9.7-5.1-19.9-1.7-29.8-2
			C5,146.9,2.9,147.6,1,146z"/>
		<path class="st22" d="M1081,97C721,97,361,97,1,97c0-4,0-8,0-12c360,0,720,0,1080,0C1081,89,1081,93,1081,97z"/>
		<path class="st23" d="M1,201c0-4.7,0-9.3,0-14c1.3-1.4,3-1.1,4.9-1.3c-1.4-0.9-3.2-0.3-4.1-1.8c1.3-3.4,4.6-1.6,6.9-2.6
			c0.6-0.1,1.1-0.1,1.7,0c6.9,1.8,13.9,0,20.8,0c4,0,7.9-0.5,11.9,0.1c2.7,0.5,5.6,0.4,8.4-0.4c1.8-0.5,3.6-0.5,5.4,0.2
			c0.8,0.3,1.5,0.9,1.4,1.8c-0.1,1.2-1.1,0.9-1.9,1c-6.7,0.9-13.4,0.2-19.5,0.5c3.8,0,8.3-0.1,12.8,0c4.5,0.1,8.9-0.6,13.2-1.8
			c2-0.6,4-0.3,5.9,0c0.5,0.1,1,0.2,1.6,0.3c3.1,1,6.2,0.4,9.4,0.3c3.9-0.2,7.8-1.7,11.7-0.2c0.6,0.2,1.5,0.3,1.9-0.1
			c5.5-3.9,11-1.9,16.7-0.5c3.7,0.9,7.6,0.6,11.3,1.7c0-0.2,0.7,0.5,0.2-0.1c-1.3-1.6,0.2-2.1,1.1-2.6c1.9-1,5.2-2.1,5.9-0.6
			c1.2,2.6,2.4,1.1,3.7,1c4.3-0.3,8.5,0.1,12.6,1.6c2,1.7,4.2,0.3,5.4,0.7c-1.2,0.1-3.3,0.7-5.3-0.5c1.5-3.2,4.6-2.4,6.9-2.1
			c19.4,2.8,38.9,1.5,58.3,1.8c2.4,0,5,0.5,7-1.6c0.8-0.8,1.9-0.7,2.8-0.2c4.5,2.6,8.3,0.8,11.9-2c2.2-0.3,4.3-0.3,5.6,1.9
			c0.2,1,0.1,1.9-0.5,2.2c1.2-3,3.2-3.2,6-1.1c1.6,1.2,3.9,0.8,5.9,0.8c19.3,0,38.7,0,58,0c3,0,6-0.1,8.7-1.8
			c1.4-0.9,3.3-1.5,4.7-0.4c3.5,2.8,7.6,2.2,11.5,2.2c127.8,0,255.6,0,383.3,0c6.3,0,12.6,0.8,18.9,1c3.1,1.7,3.9,5.1,5.3,7.9
			c1.1,2.2-0.5,3.6-2.5,4.5c-1.8,0.8-3.9,0.4-5.6,1.5c-6.9,2.3-14,3.1-21.2,4.2c-11.9,0.1-23.9,0.2-35.8,0.2
			c-162.9-0.1-325.8,0-488.8-0.1c-4.9,0-9.6,0.8-14.3,1.6c-2-0.2-3.2-1.6-4.5-2.9c-1.8-1.7-3.9-2.4-6.3-1.6
			c-0.6,0.8-0.1,1.4,0.2,1.9c0.6,1.2,1.4,2.5,0,3.6c-1.1,0.9-2.8,1-3.7,0.1c-3-2.8-7.1-2.7-10.5-4.1c-6.3-2.6-12-2-17.5,1.7
			c-3.5,1.6-6.8,3-10.6,0.3c-1.9-1.3-4.5-0.7-6.9-0.7c-34.1,0-68.2,0-102.3,0C6.4,202.5,3.4,203,1,201z"/>
		<path class="st24" d="M1,329c109,0,218,0,327,0c2.4-2.6,5.1-2.8,8.5-2c7.2,1.5,14.5,0.5,21.8,0.5c2.3,0,4.6-0.1,6.9,0.5
			c-0.7-0.3-1.7-0.3-2-1.1c-0.3-1.3,0.8-1.8,1.8-1.9c3.9-0.5,8.1-1.2,11.8,0.5c5.1,2.4,10.2,2.4,15.5,1.8c0.5-0.1,1.1-0.2,1.6-0.2
			c3.1,0.2,6.3,0.9,9-1.5c0.9-0.8,2.2-0.9,3.4-0.7c1.3,0.1,2.7,0.3,3,2c0.3,1.7-1.7,1.1-2.4,2c2.2-0.8,4.2-1.5,6.4-1.3
			c8,0.5,15.9-1.6,23.9-1c2.1,0.1,3.9-0.7,5.7-1.5c3.3-1.2,6.5-2.4,10-3c3.3-0.5,6.2-0.2,9.2,1.3c5.6,2.9,11.6,4.1,17.8,4.1
			c3.9,0,7.6,1.1,11.3,1.9c1.5,0.3,3,0.9,3.6,2.4c1.6,3.8,4.5,3.4,7.5,2.2c5-2,9.5-1.5,14.4,0.9c6.8,3.3,14.3,4.5,21.8,4.6
			c6.8,0.1,13.6,0,20.5,0c2.3,0,4.7-0.1,6.7,1.4c1.9,2.1,4.5,1.6,6.9,1.7c4,0.3,8.3-0.9,12.1,1.4c1,0.7,1.4,1.7,1.3,2.9
			c-1.4,2.8-4,2-6.2,2c-52.3,0-104.6,0-157,0c-140.6,0-281.2,0-421.9,0C1,342.3,1,335.7,1,329z"/>
		<path class="st25" d="M572,737c0,1.3,0,2.7,0,4c0.1,3.5-1.9,4.6-4.8,3.8c-3.5-1-6.9-0.8-10.4-0.8c-185.3,0-370.6,0-555.8,0
			c0-6,0-12,0-18c75,0,150,0,224.9-0.1c2.4,0,7.1,2.3,5.9-4.1c-0.4-2.1,4.9-3.5,7-1.7c3.9,3.4,7.3,5.5,10.9-0.6
			c1.2-1.9,4.1-1.5,6.3,0.1c4.9,3.5,12.8,3.3,17.9-0.1c1.7-1.1,3.6-1.6,5.7-1.6c8.8,0.1,17.7-0.2,26.5,0.1c3.9,0.1,8.7-0.4,9.3,5.7
			c0.2,1.6,1.7,2.3,3.4,2.2c1.3-0.1,2.7,0,4,0c67.8,0,135.6,0,203.4,0c3.5,0,7,0,10.1,2c0.7,0.4,1.5,1.2,2.1,0.2
			c0.7-1.1-0.1-1.7-1.2-2.2c-3-1.2-3.1-3.4-1.2-5.5c2-2.2,4.1-2.1,5.5,0.8c0.8,1.7,2.1,1.8,3.8,1.5c4.5-1,9.3-1.3,13.5-3.1
			c5.7-2.4,7,2.7,10.1,4.8c3.4,2.3-0.1,4.3-0.1,6.5c-2.2,1.7-3.8,0.2-5-1.4c-1.7-2-3.7-2.6-6.2-2.4c-4.4,0.3-8.7-1.9-13.4-0.3
			c1.6,1.2,3.1,0.8,4.5,0.7c3.8-0.1,6.9,1,8.9,4.3c1.4,2.2,3.1,2.7,5.5,1.7C567.1,732.1,570,733.5,572,737z"/>
		<path class="st26" d="M1081,505c-192.4,0-384.9,0-577.3,0c-2.7,0-5.7,0.9-7.7-2.2c-0.7-1.1-2.1-0.8-3,0.2
			c-1.2,1.4-2.7,1.1-4.1,0.4c-1.1-0.5-3.2-0.2-3.1-1.9c0.1-1.7,1.9-1.4,3.2-1.5c2.2-0.1,4.4-0.2,5-3c7.3-4.6,15.2-4.9,23.5-3.6
			c-3.4-1.2-8.6-1.2-12.7-0.5c-7.9,1.2-15.5,3.9-23.3,5.4c-0.8,0-1.6,0-2.4,0.1c-5.1,0.4-9.6,3.3-14.6,3.9
			c-4.9,0.5-9.6-0.9-14.4-1.1c-1.7-0.1-3.2-1-4.3-2.2c-2.1-2.4-4.6-4.3-7.5-5.6c-1.9-0.8-3.4-2.4-2.7-4.7c0.6-2.1,2.4-2.7,4.3-2.7
			c6-0.1,11.9-0.6,17.8-2c4.2-1,8.3,0.4,12.4,0.6c11.4,0.6,22.6-1.2,33.8-2.3c12.2-1.2,24.6-1.2,36.8-1.7c4.3-0.2,7.7,1.8,10.4,5.1
			c2.6,3.2,5.8,4.4,9.7,3.3c5.2-1.4,10.4,1.6,15.9,0c-1.9-0.7-3.5,0.2-5.1-0.1c-1.3-0.3-3.3-0.2-2.2-2.6c3.7-3.3,7.6-4.5,12.2-1.7
			c1.4,0.9,3.1,1.2,4.8,1.2c59.6-0.9,119.2-0.2,178.8-0.4c36.3-0.1,72.6,0.2,108.9-0.2c0.8,0,1.7,0,2.5,0.3c1.5,3.3-1.3,3-2.5,3.6
			c8.8-1.1,18.2-0.5,27.5-0.4c1.5,0,3.5-0.1,3.5,2.4c-2.4,1.6-5.2,1-7.7,0.8c-7.5-0.7-14.8-0.7-22.1,1.1c-0.4,0.3-0.7,0.6-1.1,0.9
			c-1.3,1-0.6,1.4,0.6,1.6c8.7,0.2,17.4,0.1,26.1,0c-4.9-0.3-9.7,0-14.4-0.2c-2.1-0.1-4.4,0.4-5.6-2.1c0.4-2.6,2.5-1.6,3.9-1.6
			c5.6-0.3,11.2,0.2,16.7,0.4c1.5,0.1,3.3,0.6,4.2-1.5c8.8-1,17.5-1.4,26,1.7c0.5,0.3,0.7,0.7,0.8,1.3c-0.3,0.5-0.3,1.3-1.2,0.7
			c0.7,1,1.3,0,1.9-0.1c1.7-0.3,3.5-0.7,5.2-1.2c7.1-0.4,14.2-0.4,21.3,0c0.5,0.1,1,0.3,1.5,0.5c7.5,1.5,15,3.9,22.1-1.4
			c0.3-2.7-4.3-2.8-3.3-5.9c0.3-3.3,2.5-3.4,4.6-2.3c3.8,1.9,7.7,1.7,11.7,1.7c25.6,0,51.2,0,76.8,0c2.8,0,5.7-0.5,8.1,1.5
			C1081,493,1081,499,1081,505z"/>
		<path class="st27" d="M1081,67c-336.5,0-673,0-1009.5,0.1c-2.7,0-7.1-2.1-6.8,4.4c-0.4-6.8-5.7,0.8-6.9-3.2
			c1.4-0.8,2.8-1.6,4.2-2.4c0.4-3.4-0.6-5.4-4.5-5c-1.1,0.1-2.4-0.2-2.8-1.6c-0.4-1.5,0.8-1.9,1.9-2.4c5.2-1.2,10.5-1.6,15.9-1.6
			c333.3,0,666.6,0,999.9,0c2.9,0,6.1-0.5,8.6,1.6C1081,60.3,1081,63.7,1081,67z"/>
		<path class="st28" d="M731,197.1c2.1-2.3,7,0.4,7.5-3.3c0.3-2.2-2.2-4.8-3.4-7.3c-0.2-0.4-0.1-1-0.1-1.5c0.8-1.2,1.4-3,3.5-1.7
			c0.7,1.2,0.7,2.6,1.2,3.8c0.9,2.2,1.9,4.3,3.3,6.1c1.8,2.2,4-0.1,6.1,0c1.5,0.1,3,0.4,4.5,0.4c4.8,0.2,5.4,0.9,5.2,5.6
			c-0.2,4.3,1.1,5.7,5.1,4.3c6.6-2.4,13-1,19.6-0.4c11.4,1.1,22.9,0.9,34.4,0c1.5-0.1,3-0.5,4.5-0.3c4.2,0.4,5.9,2.4,5,6.6
			c-0.4,1.8-0.4,3,1.7,3.2c4.3,0.4,8.5,1.7,12.8,1.8c4.7,0.2,8.6-1.9,11.9-5.3c4-4,4.8-3.8,8.4,0.7c1.8,2.3,4.1,2.7,6.7,1.8
			c1.9-0.6,3.7-1.4,5.7-1.7c2.8-0.3,5.5,0,6.9,2.8c1.2,2.4,2.8,2.8,5.3,2.5c6.1-0.6,12.2-1.7,18.4-1.5c2.6,0.1,4.9-1,7.1-2.1
			c4.9-2.4,9.8-5.1,15.4-5.5c2.1-0.1-0.6-2.1,1-2.1c1.1-1.1,2.4-1.9,4.2-1.5c-1.1-1.1-3.7-0.2-3.3-2.3c0.3-1.7,2.3-1.5,3.8-1.6
			c0.7,0,1.5-0.1,2,0.2c7.4,6.1,16.3,3.2,24.4,3.3c37.8,0.5,75.6,0.2,113.4,0.2c2.8,0,5.7-0.5,8.1,1.5c0,9,0,18,0,27
			c-128.6,0-257.2,0-385.8,0c1.2-4.8,1.3-10,4.8-13.9c1.1-1.3,2.6-1.4,4.1-1.5c7.6-0.3,15.2-1.4,22.9-1c3.8,1,6.4-1.7,9.5-3.2
			c1.8-0.9,3.7-1.4,6.2-2.1c-2.7-0.1-4.7,0.1-6.3,1.6c-4.7,3.9-8.6,0.1-12.7-1.4c-1.6-0.4-3.5-0.8-3.6-2.8c-0.1-2.1,1.9-2.4,3.4-3
			C726.6,202.2,728.3,199,731,197.1z"/>
		<path class="st29" d="M877,486c-2.7,0.9-5.5,1-8.3,1c-92.2,0-184.4,0-276.6,0c-2.3,0-4.5-0.4-6.8,1c-2.6,1.6-3.5-2.1-6-2.6
			c-2.5-0.4-4.3-1.3-6.5,0.4c-1,0.7-2.5,0.8-3.8,1.1c-5.6,0.7-9.7-1.2-11.9-5.6c-0.9-1.9-2.2-1.9-3.7-1.5c-6.1,1.3-11.5,0-16.3-3.9
			c-2.2-1.8-5.1-1.4-7.6-2c-3.5-0.9-4,2.3-5.5,4c-1.8,1.9-4.1,3-6.2,1.4c-5.3-4-11.3-4.3-17.5-4.1c-1.2,0-2.3-0.2-3.2-1.1
			c-0.2-2.6-1.5,0.1-2.1-0.4c-1.8,0.1-2.8-0.8-2.8-2.6c-0.1-1.7,0.9-2.8,2.5-3c1.7-0.3,3.1-1,4.3-2.1c2.6,3.9,6.8,3.4,10.6,4
			c4,0.6,8.3-1.1,12.2,1.2c0.3,0.2,0.8,0.3,0.9,0.1c5.3-4.4,11.3-1.1,16.8-1.2C720,470,900.5,470,1081,470c0,5.7,0,11.3,0,17
			c-30.2,0-60.3,0-90.5,0c-1.9,0-3.8,0.6-5.6-1.1c-2.2-2.1-2.4-1.9-3,0.9c-0.1,0.2-1.2,0.2-1.9,0.3c-0.6,0.6-1.5,1-2.3,0.8
			c-7-1.7-14.1,1.2-20.8,0.3c-12.4-1.7-24.3-0.7-36.5,1c-11.6,1.5-23.5,0.2-35.1-2.3C882.5,486.2,879.6,487.7,877,486z"/>
		<path class="st30" d="M1081,57c-336.4,0-672.8,0-1009.1,0c-5.7,0-11.4,0.7-17.1,1c-2.7,0-5.1,0.7-7.3,2.6c-2.8,2.5-6.4,3.6-10,4.2
			c-5.5,0.9-11.3,0.4-16.7,1.9C20.1,67,19.5,66.5,19,66c-5.9-1.9-12-0.7-18-1c0-5.3,0-10.7,0-16c2.1-1.8,4.6-1.6,7.1-1.6
			c10.2,0,20.4-0.8,30.5,0.2c13.8,1.3,27.5-0.2,41.3-0.2c330.3,0.1,660.7,0,991,0.1c3.4,0,7.1-0.8,10.1,1.6
			C1081,51.7,1081,54.3,1081,57z"/>
		<path class="st31" d="M1,113c360,0,720,0,1080,0c0,2.7,0,5.3,0,8c-1.6,1.5-3.6,1.6-5.6,1.6c-2.5,0.1-5,0-7.5,0
			c-319.7,0-639.5,0-959.2,0c-6.7,0-13.3,0.8-19.7,2.5c-10.1,0.8-20.3,0.6-30.4,0.5c-16.6-0.2-33.3,0.2-49.9,0
			C6,125.6,3.2,126,1,124C1,120.3,1,116.7,1,113z"/>
		<path class="st32" d="M1081,49c-334.3,0-668.5,0-1002.8,0c-5.1,0-10.3,0.5-15.4-0.2c-3.3-0.5-5.4,2-8.9,1.5
			C36.3,48,18.6,49.2,1,49c0-2.7,0-5.3,0-8c360,0,720,0,1080,0C1081,43.7,1081,46.3,1081,49z"/>
		<path class="st33" d="M89,123.8c3.8-1.7,7.9-1.8,11.9-2.8c1.3-0.3,2.7,0,4,0c325.4,0,650.7,0,976.1,0c0,2.7,0,5.3,0,8
			c-325.7,0-651.5,0-977.2,0c-2.3,0-4.7-0.7-6.9-0.3c-3.6,0.5-3.5-1.2-2.9-3.7C92.3,124.4,90.3,125.8,89,123.8z"/>
		<path class="st34" d="M799,321c6.2,5,12.9,9.5,18,16.9c0-1.6,0-2.2,0-2.8c0.2-2-3.3-3.3-1.4-5.3c1.7-1.9,4.4-0.8,6.7-0.8
			c86.3,0,172.5,0,258.8,0c0,9.7,0,19.3,0,29c-1.9,1.7-4.3,1.6-6.6,1.6c-64.5,0-128.9,0-193.4,0c-4.3,0-8.2-1.3-12.1-2.6
			c-1.5-0.5-2.2-1.4-1.7-3c0.4-3.3-2-4.4-4.4-5.1c-7.6-2.2-15-4.6-23.2-4.1c-8.1,0.5-16.8-0.6-23.6-4.4
			c-7.4-4.1-13.6-10.7-18.4-18.2c-0.1-0.2,0-0.6,0.1-1C798,320.8,798.5,320.7,799,321z"/>
		<path class="st35" d="M1,146c9-2,18.2,0.1,27.2-1.9c2.5-0.6,4.5,1.1,6.4,2.3c1.6,1,3.2,2,5.1,1.6c9-1.8,18.3-0.4,27.4-3.4
			c4.8-1.6,10.8,0.2,16.2,0.8c5.8,0.7,11.6,0.3,17.4,0.1c9.6-0.5,19.3-0.3,28.9-0.3c0.8,0,1.5,0.6,2.3,0.9c0.9,3,1.2,6.4,5.3,7.1
			c0.5,0.2,1,0.4,1.5,0.6c8.6,5.2,18.1,5.6,27.6,4.4c7.9-1,15.6-0.3,23.4,0.6c5.6,0.7,11.2,1.4,16.8,2.2c3.2,0.5,6.5,1.4,5.1,6
			c-2.4,3.6-5.9,4.8-10,4c-4.6-0.9-8.9,0-13.3,1.3c-11.3,3.4-22.7,6.5-34.6,7.7c-4.9,0.5-9.6-0.3-14.4-0.6
			c-9.3-0.5-18.6,0.2-27.8,1.3c-4.9,0.6-9.6,0-14.4,0.2c-4.9-1.3-9.8,0.1-14.6,0.4c-4.4,0.3-8.9,0.1-13.3,0c-0.8,0-1.6-0.1-2.4-0.3
			c-1.7-0.7-3.5-0.6-5.3-0.1c-1.1,0.1-2.3,0-3.3-0.4c-3.2-1.7-6.5-0.1-9.8-0.1c-14.6-0.1-29.2,0-43.8-0.1c-1.3,0-2.4-0.5-3.4-1.3
			C1,168,1,157,1,146z"/>
		<path class="st36" d="M869,352.9c1.2,0.5-3.2,1.8,1.1,3.1c8.8,2.8,17.4,1.8,26.1,1.9c61.6,0.2,123.2,0.1,184.9,0.1
			c0,8.3,0,16.7,0,25c-51.4,0-102.8,0-154.2,0.1c-3.2,0-6.4-1.5-9.7,0.2c-0.8,0.4-3.2-0.7-3.6-1.6c-0.5-1.2,1.3-1.6,2.4-1.7
			c0.2,0,0.4-0.1,0.6-0.1c0.4-0.1,1.1,0,1-0.5c-0.1-0.5-0.9-0.7-1.3-1.2c-7-7-16.4-6-25-7.8c-2.2-0.5-4.6,0-6.9-0.1
			c-2-0.1-4.2-0.3-5.6-1.8c-4.1-4.1-8.2-8.2-13.1-11.3c-1-0.6-1.6-1.9-0.9-3.1C865.8,352.6,867.1,351.9,869,352.9z"/>
		<path class="st37" d="M265,513c-3.1,0.4-6.8-1.3-9.1,2.3c-0.3,0.4-1.5,0.7-1.8,0.4c-5-4.5-10.3-0.4-15.4-0.7
			c-3-0.1-5.9-0.7-8.9-1.2c-8.9-1.5-17.9-0.9-26.9-0.9c-67.3-0.1-134.6,0-202,0c0-1,0-2,0-3c1.3-1.8,3.1-2.9,5.2-3.8
			c3-1.3,5.5-3.2,6.6-6.4c1.1-3,3.2-3.9,6.3-3.4c2,0.3,4.2,0.5,5.8-0.8c5-3.7,10.8-4.4,16.6-4.5c7.1-0.1,13.9-2.3,21.2-1
			c5.1,0.9,7.3,3,7.2,7.9c0.1,1.6-0.9,2.8-1.8,4.3c2.3-0.4,4.2-1.7,5.7,0.7c0.7,1.1,2.2,0.5,3.3,0.5c72.2-0.1,144.3,0,216.5,0
			c4.4,0,8.6-0.7,12.9,3c3.1,2.7,8.8,0.5,12.9-1c2.9-1.1,5.7-1.7,8.7-1.5c8,0.6,15.9-1.8,23.9,0.2c2.7,2.2,1.4,3.4-1.2,3.7
			c-2.8,0.4-5.8,0.1-8.6,0.1c3.1,0.1,6.3,0.1,9.4,0c2.3-0.1,3.2-1,1.4-3c-1.6-2-1.4-4.3-0.7-6.6c0.3-1.2,1.5-2.4,2.5-1.3
			c2.1,2.3,3.5,1.1,5.4-0.2c1.7-1.3,4-1.2,5.4,0.5c2.7,3.3,5.3,3.3,8.5,0.9c1-0.8,2.4-1.3,3.4,0.3c-1.6,5.3-3.9,7.2-8.9,6.3
			c-4.3-0.8-7.6-0.8-9.9,3.9c-1.5,3.1-4.9,3.8-8.2,3.8c-5.8,0-11.6,0.1-17.3,1.7c-3.6,1-7.7,0.9-11.4-0.1c-8.6-2.2-17.1-2-25.6,0.4
			c-7.7,2-15.4,4.2-23.5,1.8C270,515.5,267.3,514.7,265,513z"/>
		<path class="st38" d="M1,201c37.6,0,75.1-0.1,112.7,0.1c2.4,0,6.2-2.3,7.4,2.4c0.2,0.9,0.7,0.3,0.9-0.2c1-2.6,1.8-2.4,3.8-0.5
			c1.6,1.5,1.7-2.1,3.3-1.8c0.5,0.7,0.6,1.5,0.5,2.4c-1,7.3-0.6,7.8,6.4,8.2c4.5,0.3,8.4,2,12.2,4.1c3,1.7,5.6,4.2,9.1,4.9
			c1.5,0.3,2.5,1.6,2.5,3.3c0,1.3-0.5,2.5-1.8,2.7c-6,1-11.9,3-18,0.3c-3,0.4-7.2-3.9-8.7,3.8c-1.4-5.5-4.5-5.9-8.2-5.9
			C82.4,225,41.7,225,1,225C1,217,1,209,1,201z"/>
		<path class="st39" d="M715,144c0.9,0.6,2.3,2.4,1.9-0.7c-0.5-4.4-0.5-4.1,3.4-3.1c2.1,0.5,4.6-0.2,6.9-0.2
			c117.9,0,235.9,0,353.8,0c0,3,0,6,0,9c-1.9,1.7-4.3,1.6-6.6,1.6c-73.4,0-146.7,0.1-220.1,0c-4.1,0-8.3-0.5-12.4-0.2
			c-1.9,0-3.7,0-5.6,0c-1.2,0-2.4,0-3.6,0c-5.1-3-10.2,0.3-15.3,0.2c-16.4-0.2-32.9,0-49.3-0.1c-15.6,0-31.2,0.2-46.8-0.1
			c-1.2,0-2.2,0.2-3.2,0.9c-2.4,1.7-4.3,1-5.8-1.4C711.9,147.3,713.1,145.5,715,144z"/>
		<path class="st40" d="M1,470c77.6,0,155.3,0,232.9,0c2.7,0,5.7,0.8,8-1.6c0.4-0.4,1.5-0.5,1.9-0.3c4.5,3.6,8.8-0.1,13.2-0.1
			c0.1,2.4-1.8,3-3.4,3.5c-3.9,1.1-7.6,2.8-11.8,2.9c-1.4,0-2.8,0.1-4.1,0.6c-1.4,0.4-2.8,0.8-3.1,2.5c-0.2,0.9-0.4,1.7-0.7,2.5
			c-0.5,1.1-1.4,1.8-2.5,2.1c-1.3,0.2-2.5,0.8-3.6,1.6c-1.5,0.7-3,1.2-4.7,1.1c-2.2-0.3-4.3-1-6.4,0c-0.5,1.5,1.7,1.5,1.5,2.8
			c5.7,0.5,11.3-0.5,16.9-0.9c8.8-0.7,17.5,1.2,26.3,0.8c1.5,0.1,3,0.4,4.3,1c1.9,1.3,4.2,0.9,6.2,1.5c0.8,0.2,1.7,0.4,1.8,1.4
			c0.2,1.2-0.6,1.9-1.5,2.3c-2.2,1.1-4.6,1-6.8,0.2c-3.5-1.3-7.2-1.3-10.8-1.3c-42.2,0-84.3,0-126.5,0c-2.3,0-4.7,0.2-7-0.4
			c-1.5-0.4-3.1-1-1.7-3c1.8-2.1,4.2-2.4,6.7-2.1c2.1,0.3,4.2,0.8,6.3,0.2c2-0.5,2.9-2.2,4-3.6c1-1,2.2-1.5,3.5-1.7
			c2.1-1.2,0.1-1.4-0.5-1.9c-0.3-0.2-0.6-0.5-0.9-0.7c-0.2-0.3-0.4-0.7-0.6-1c-6.2,0.1-12.4-0.1-18.5,1.3
			c-10.8-0.1-21.4,2.7-32.3,2.1c-2.4-0.1-5.1,0.6-6.6-2.2c0.5-1,1.5-1.3,2.5-1.3c6.4,0.1,12.8-0.3,19.1-0.6c0.7,0.1-0.3-1,0.1-0.4
			c0.1,0.1-0.1,0.2-0.4,0.2c-9.7,1.3-19.6-0.1-29.2,1.8c-4.3,0.7-8.6,0.5-13,0.4c-11.3-0.4-22.6,0.7-33.9,1.1
			c-3.3,0.1-6.2,1.2-8.8,3.1c-3.4,2.5-7.1,4.4-11.1,5.7c-1.8,0.6-3.5,1-5.2-0.3C1,482.7,1,476.3,1,470z"/>
		<path class="st41" d="M1081,204c-41.3,0-82.6,0-123.9,0c-5.7,0-11.5-0.9-17.2-0.1c-1.4,0.2-2.7,0.6-3.3-2.2
			c-0.8-3.7-4.3-0.8-6.6-1c1.6,0.1,3.2,0.2,5.1,0.3c-1.1,1.2,0.1,5.4-3.8,2.3c-0.5-0.4-1.6,2.2-3.4,1.6c-3.6,1.1-5.1-1.2-5.5-3.9
			c-0.5-3.3,2.1-4.3,4.8-4.4c5.2-0.1,10.3-1.3,15.4-1.1c8.3,0.2,16.2-1.4,23.8-4.5c6.9-2.7,13.9-4.4,21.4-2.8c2.3,0.5,4.7,0.5,7,0.1
			c11.5-1.8,22.8,0.2,34.3,0.7c12.1,0.5,23.7-2.2,33.2-10.8c2.4-1.1,3.1,0.4,2.8,2.2c-0.5,3.2,1.4,3.1,3.5,3.1
			c3.6,0.1,7.2-0.3,10.7,0.4c0.7,0.1,1.2,0.6,1.7,1C1081,191.3,1081,197.7,1081,204z"/>
		<path class="st42" d="M102,419c-1.7-0.3-3.3-0.7-5-1c-2.7-0.8-5.3-0.8-8,0l0,0c-2.5,1.3-5.5-0.4-8,1c0,0,0,0,0,0
			c-13.1,2.1-26.4-0.3-39.6,2.7c-4.6,1.1-9.9,0.1-14.7-0.9c-5.1-1.1-9.8-0.7-14.7,0.3c-1.5,1.1-3.5-0.2-5,0.9l0,0c-1.6,1-2,2.4-1,4
			c0,0.8,0.2,1.6,0.9,2c0.8,1.6,1.3,3.2,1,5l0,0c-0.9,1.6-0.2,3.8-2,5c-0.7,0.1-1.3,1.1-2,0c-1-1-2-2-3-3c0-10.3,0-20.7,0-31
			c0.7-0.9,1.3-2.4,2-2.5c1.7-0.3,1.6,1.7,2.2,2.7c0.9,1.4,0.7,4.6,3.9,2.7c0.1-0.1,0.5,0,0.5,0c1.9,9.3,9.9,3.8,14.7,5.7
			c6,2.4,13,1.4,19.2,3.9c0.5,0.2,1.5,0.3,1.9,0c5.6-5.1,12.5-1.6,18.7-2.3c5-0.6,8.3-1.7,10.7-6.2c4.3-7.9,11.7-9.8,19.2-5
			c4.3,2.7,8.6,4.8,13.9,3c0.6-0.2,1.4-0.1,2,0.1c14.7,4.5,30.1,3.8,45,6.6c4.2,0.8,8.9-0.3,13.3-1c6-1,11.8-1,17.8,0
			c4.9,0.8,9.9,0.4,14.8-1.1c6-1.9,11.9-1.8,18.1-0.8c8.3,1.3,16.6,3.2,25.1,1.1c1.8-0.4,3.6-0.6,5-1.9c3.3-0.9,5.9-0.8,6.9,3.5
			c0.8,3.5,4.3,2.3,6.8,2.5c1.6,0.1,3.9-0.3,3.8,2c0,2.3-2.3,2-3.9,1.9c-3.6-0.1-7.2-0.2-10.9-0.7c-5.9-0.7-12-0.9-17.9,0.3
			c-5.8,1.2-11.3,0.3-16.3-2.3c-1.8-1-3.9-2.2-5.5-1.9c-9.2,1.4-18.9-1.3-27.8,3.1c-3.3,1.6-6.9,0.6-10.1-1c-4.5-2.4-9-3-13.9-1.8
			c-2,0.5-4.3,0.4-6.4,0.3c-11.5-0.8-22.7,1.8-34,3c-3.6,0.4-7.4-0.8-10.8,1.1C106.7,419.8,104.3,419.8,102,419z"/>
		<path class="st43" d="M841,149c80,0,160,0,240,0c0,3,0,6,0,9c-2.6,2.1-5.7,1.6-8.6,1.6c-36.6,0-73.2,0-109.8,0
			c-2.9,0-6-0.5-8.7,1.2c-1.8,1.3-3.1,0.4-4.3-1c-0.7-1.3-2.2-2.4-1.3-4c-7.1,5.6-15.2,4-23.4,1.8c-0.4-0.1-0.5-0.2-0.5,0.1
			c-0.1,4.4-3.1,2.1-3.6,1c-2.7-5.5-7.5-4.2-11.9-4.3c-3.8,5.9-9.9,4.8-15.5,4.8c-6.8,0.1-13.6-0.1-20.4,0c-1.2,0-2.6,0.4-3.2-0.7
			c-2.2-3.8-5.8-2.9-9.2-3c-0.5,0.1-1,0.1-1.6,0c-6.4-0.3-12.3-2.1-17.8-5.3C840.7,150,840.7,149.5,841,149z"/>
		<path class="st35" d="M134,488c-2.2,1.8-4.6,1.2-6.9,0.5c-2.2-0.7-4.1-0.6-6.1,0.6c-9.3,5.3-19.3,4.6-29.3,3.2
			c-7.5-1.1-14.5-1.5-20.4,4.4c-0.6,0.6-1.5,0.7-2.3,0.4c-0.3-0.1-0.7-0.1-1-0.2c-2.3-1.2,2.2-3.6-0.6-4.4c-3.6-0.9-7.8-2.6-11-1.7
			c-6.7,2-13.5,0.6-20.1,2.2c-3.2,0.8-6.5,0.8-9.1,3.3c-2.6,2.4-5.9,2.1-9,1.6c-1.7-0.3-3.1-0.7-3.6,1.3c-1.6,7.3-8.2,8.4-13.5,10.9
			c0-7,0-14,0-21c5.9-0.7,11.1-3.1,15.6-6.7c2.6-2.1,5.4-3,8.6-3.2c15.9-1.3,31.8-1,47.7-1c2.7,0.3,5.5-0.9,8,1c5.9,2,12,1.2,18,0.7
			c7.3-0.6,14.6-2,22-1.7c3,1.6,5.9,0.2,8.9,0c3,0.3,6.2-1,9.1,1l0,0c0.8,1.3,5,0.8,2,4c-1.5-0.2-2.7,0.3-4,1
			C136,485.4,134.9,486.6,134,488z"/>
		<path class="st44" d="M1,179c1,0,2,0,3,0c3.8,1,7.6,0.5,11.4,0.4c13.1-0.1,26.3,0.6,39.4-0.4c1.5-0.1,3,0.3,4.4,0.8
			c0.9,0,1.8,0,2.7,0c1.4-0.8,2.8,0,4.2,0c0.6,0,1.3,0.1,1.9,0.1c5.7,1,11.5,0.8,17.2,0.2c4-0.4,7.8-0.8,11.8-0.4
			c8.9-0.3,17.7-0.9,26.5-2.2c6.4-0.9,13.6-0.5,20.2,0.6c8.5,1.4,16.5-0.6,24.5-2.1c7.5-1.4,14.7-4.1,22-6c3.8-1,7.6-1.9,11.7-0.4
			c3.5,1.3,6.3-0.9,8.9-2.9c1.4,0,2.1,0.8,2.3,2c0.3-0.1,0.4-0.3,0.5-0.7c0.3-1.8-0.5-4.8,1.8-5c2.8-0.2,1.7,2.9,2.3,4.6
			c0.3,0.8,0.9,1.4,1.3,2.1c-1.7,3.3,0.9,4.1,2.9,5.2c1.8,1,3.7,1.1,5.7,1.1c2.4,0.1,4.1,1.1,4.2,3.8c-3.1,5-7.7,6.4-11.7,3.3
			c-1.9-1.5-2.6-2.6-2.1,0.9c0.1,1.1-1.2,0.8-2,0.8c-15.8-0.4-31.6,0.3-47.4-0.3c-6.4-0.3-12.7-1.8-19.1-1.6c-1.6,0-3.4-0.6-4.7,1
			c-5.2,0.7-10.4-1.9-15.8-0.3c-0.5,0.1-2.5-2.5-4.7-1.7c-0.9,0.3-1.8,0.7-2.6,1c0.1,1.5,2.1,0.3,2,1.9c-6.9,0-13.7,0.2-20.3-2.7
			c-2.1-0.9-4.8-0.9-7,1.1c-2.2,2-4.7,1.9-7.8,0.7c-2.2-0.9-5.4,0.4-8.1,0.6c-3.6,0.3-7.2,1.3-10.6-0.6c0.3-0.3,0.7-0.6,0.4-1.1
			c-0.2-0.3-0.5-0.3-0.5-0.2c0.1,0.4,0.4,0.8,0.1,1.2c-10.4,0.3-20.7,1.5-31.1,1c-1.6-0.1-3.2,0-4.9-0.4c7.8-1.4,15.8,0.4,24.1-1.8
			c-2.6-1.3-4.7-1-6.8-0.5c-3.6,0.9-7.2,0.2-10.8,0.1c-7.6-0.2-15.2,0-22.7,1c-3.4,0.4-6.1,0.2-8.8-1.5c-1.3-1-2.9-0.3-4.3-0.5
			c1.4,0.3,3-0.4,4.3,0.5c-1.9,2.2-5-0.2-7,1.9c-0.3,0.4-0.6,0.5-1,0.1C1,182.3,1,180.7,1,179z"/>
		<path class="st45" d="M950,159c1,0.6,1.4,2.2,3,2c1.5-0.3,1.2,0.9,1.5,1.6c0.2,0.5,0.4,0.9,0.8,1.2c1.8,1.4,3.6,2.3,6,1.5
			c3.4-1.2,6.9-1,10.4-0.8c13.1,0.9,26.2,1,39.3,0.3c4.3-0.2,8.6,0.6,13,0.7c16.7,0.5,33.3-0.9,49.9-1c2.5,0,5-0.3,7.2,1.5
			c0,6.3,0,12.7,0,19c-4.8,0-9.6,0-14.4,0c-2.7,0-5.5,0.1-2.7-3.9c0.9-1.3,0.7-2.5-0.9-3.1c-1.6,0.8-3.3,0.4-4.9,0.2
			c-7.9-1.3-15.8-2.1-23.9-1.7c-10.5,0.4-20.9-1.3-31.4-0.3c-9.4,0.9-18.9,1.3-28.1,3.4c-3.1,0.7-6.2,1.1-9.4,0.9
			c-5.6-0.3-7.2-1.5-8.7-7c-0.2-0.8-0.2-2-0.9-2.2c-5.6-1.5-7.2-7.2-11.1-10.5C945.4,156.8,947.7,157.8,950,159z"/>
		<path class="st46" d="M1081,166c-20.1-0.3-40.2,2.2-60.2,0.8c-11.5-0.8-23-0.2-34.4-0.2c-8.9,0-18-2.8-27.1,0.5
			c-2.3,0.8-5.2-1.1-6.3-4.1c1.4,1.1,2.8,0.1,4.5,0.3c-1.7-0.3-3.2,0.8-4.5-0.3c0.1-0.7,1.1-1.3,0-2c-0.7-1.5-0.5-2.7,1.3-2.9
			c1.5-0.2,3-0.1,4.5-0.1c40.7,0,81.5,0,122.2,0C1081,160.7,1081,163.3,1081,166z"/>
		<path class="st47" d="M1081,2C721,2,361,2,1,2c0.2-0.3-0.5-1,0.5-1c1.3,0,2.7,0,4,0c357,0,714,0,1071,0.1
			C1078,1.1,1079.9-0.1,1081,2z"/>
		<path class="st48" d="M89,123.8c1.6,0.6,3.6-0.6,5,1.1c-1.8,0.9-3.4,2.1-5.5,2c-11.3-0.5-22.6,2.4-33.8,0.8
			c-11.3-1.6-22,0.6-32.9,2.6c-4.2,0.8-8.5-1-12.8-0.5c-2.6,0.3-5.3,0.3-7.9,1.1c0-2.3,0-4.7,0-7C30.3,123.9,59.7,123.9,89,123.8z"
			/>
		<path class="st49" d="M1,184c0.3,0,0.7-0.1,1-0.1c2.5,0.8,7.2-1.3,7.2,1.8c0,2.8-4.7,0.6-7.2,1.3c-0.3,0.1-0.7,0-1,0
			C1,186,1,185,1,184z"/>
		<path class="st50" d="M1,395c1-0.2,1.7-2.7,2.5-1.1c1.1,2.2,0.8,4.6-2.5,5.1C1,397.7,1,396.3,1,395z"/>
		<path class="st11" d="M1,435c2.2-0.2,3.2,0.8,3,3c-1,0-2,0-3,0C1,437,1,436,1,435z"/>
		<path class="st0" d="M572,737c-3.7-2.3-7.4-4.3-11.6-0.6c-0.7,0.6-1.5-0.4-1.8-1.2c-2.6-5.9-7.5-6.8-13.2-6.3
			c-1.3,0.1-3.6,0.9-3.8-1.1c-0.1-2.1,2-2.6,3.9-2.9c5.3-0.6,10.4,2,15.8,0.7c1.4-0.3,2.6,1.5,3.3,2.8c1,1.8,2.3,2.8,4.4,2.6
			c9.4,0,19,1.5,28-0.3c12.9-2.6,25.7-0.9,38.5-1.7c2.2-0.1,4.5,0.7,6-2.1c1-1.8,2.9-0.6,4.3,0.4c0.9,0.7,2,2.6,3,0.3
			c0.5-1.3,0.7-3.1-1.5-3.5c-1.5-0.3-2.9-0.6-3.7-3.1c3.6,0,7,0,10.3,0c9.5,0,19,0,28.5,0c2.6,0,5.2,0.6,7.5-2.3
			c2.2-2.7,6.6-0.3,7.1,3.3c-0.4,3,0.8,4.1,3.9,4.1c10.3-0.2,20.7-0.1,31-0.1c2.3,0,4.5-0.2,6.3,2c1.5,1.8,3.8,1.5,5.8-0.1
			c3.1-2.7,6.2-3.3,9.4,0.2c1.7,1.9,5.5,1.7,6.4,0.5c2.8-3.6,6.2-2.3,9.5-2.5c3.7-0.2,7.3,0,11,0c2.1,0,4.3-0.3,5.8,1.9
			c1.1,1.7,3,1,4.6,1.1c7.3,0.1,14.7,0,22,0c1.1,0,2.7-0.4,2.7,1.3c0,1.1-1.2,1.7-2.2,1.6c-5.6-0.8-8,4.5-12.1,6.5
			c-0.6,0.3-0.8,1.6-1.8,1.5c-7-1.2-10.9,4.5-16,7.3c-4.7,2.5-7.2-1.9-10-3.4c-2.9-1.6-5.5-2.3-8.6-2.9c-3.8-0.7-7.2-1.7-9.6,2.3
			c-0.1,0.2-0.6,0.5-0.9,0.4c-7.2-1.7-13.2,1.9-19.7,4.1c-4.1,1.4-9.2,0-13.5-1.7c-3.3-1.3-6.4-1.8-9.2,0.6c-2,1.7-3.5,1-5.8,0.2
			c-8.2-3.1-16.6-5.9-25.5-2.4c-0.6,0.2-1.6,0.7-1.8,0.5c-3.4-4.1-6.6-1.7-10,0.1c-1,0.5-2.6,0.2-3.7-0.8c-1.5-1.5-3.7-1.5-5.2-0.9
			c-9.5,3.7-19.4,1.1-29,1.9c-2.3,0.2-4.6-0.5-6.6,2.2c-1.4,1.9-4.7,0.9-7.1,0.4c-2.8-0.6-5.5-1.4-8.1,0.4c-2.2,1.5-3.1-0.4-3.8-1.7
			c-1-1.7-3.3-0.7-4.2-2.3c0.7-2.2,2.9-1.8,4.7-3c-1.6-1-3.2-0.6-4.7-0.7c-1.8-0.1-4.2,0.7-5.4-0.3c-7.5-6-12.5,2.1-18.7,2.9
			C574.8,741.5,576.5,736.7,572,737z"/>
		<path class="st51" d="M985,725c-3.3,0.9-5.7,3.3-7.8,5.6c-2,2.1-4.4,3.4-6.4,3.1c-8.5-1.2-16.8,1.2-25.3,0.4
			c-3.3-0.3-6.6-0.1-9.9,0.7c-2.5,0.6-5.3,0.8-7.7-1.1c-0.7-0.5-2.1-0.9-2.8-0.6c-5.2,2.3-10.6,1.2-15.9,1.6
			c-2.6,0.2-4.9-0.5-7.3-0.7c-5.6-0.5-11-1.4-16.5,0.9c-1.2,0.5-4,1.1-4.3-1.8c-0.3-2.6,2.2-1.7,3.6-2.3c4.4-2,9-2,13.7-1.8
			c2.8,0.1,4.8-0.9,7.1-2.6c4.3-3.1,9.7-1.5,14.5-1c3.3,0.3,6.5,0.9,9.8-0.1c0.9-0.3,2-0.4,3-0.2c9.7,2.5,19.4-1.8,29.1,0.7
			c3.1,0.8,3.8-2.6,5-4.7c1.6,0,3.3-0.2,4.9,0c3.7,0.4,5.7-0.7,5.1-4.8c-0.4-3.2,1.9-3.2,4.2-3.2c2.2,0,3.9,0.3,3.8,3.1
			C984.9,719.1,985,722,985,725z"/>
		<path class="st0" d="M592.5,722.3c4.4,2.9,8.6-1.5,13.3-1.3c1.3,0.1,2.8-0.2,3.1,1.7c0.3,2-1.2,2.8-2.6,3c-6,0.7-11.9,2.4-18,1.3
			c-1.5-0.3-3.2,0-3.1-2.2c0.1-1.9,1.7-1.7,3-1.8C589.4,722.8,590.7,722.6,592.5,722.3z"/>
		<path class="st25" d="M577,743c0.1-0.7,0.1-1.8,0.3-1.9c4.2-0.8,7.8-2.5,10.8-5.6c0.9-0.9,2.7-0.2,3.2,0.5
			c3.5,4.5,8.3,2.5,12.7,2.9c1.7,0.2,4.3-0.6,4.5,1.8c0.2,2.6-2.5,1.9-4.1,2.2c-1.1,0.2-2.2,0.6-3.3,1c-2-1.1-4-0.8-6.2-0.6
			C588.9,744.1,582.9,745,577,743z"/>
		<path class="st25" d="M605.6,751.8c-0.4,1.4-1.4,1.2-2.4,1.2c-2.1,0-2.3-1.4-2.2-3c0.1-0.8,0.3-1.9,1.3-1.5
			C604,749,605,750.3,605.6,751.8z"/>
		<path class="st35" d="M869,352.9c-1.4,0.4-3.3,0.4-3.5,2.2c-0.2,1.6,1.7,1.8,2.8,2.5c3.6,2.1,7,4.4,9.3,8.1c1.5,2.4,4,3.7,6.9,3.2
			c9.1-1.3,17.6,2.7,26.5,3.2c3.3,0.2,4.1,4.6,7.1,5.9c0.9,2.2,0.2,2.8-1.9,2c0,0,0,0,0,0c-2-2.8-5-2.9-8-2.9c-6.3,0-12.7,0-19,0
			c-1.4,1-2.7,0.8-4-0.1l0,0c-0.6-3.6-2.5-4.8-6.2-4.6c-7.5,0.3-15,0.2-22.5,0.1c-3.7,0-7.2,0.4-10.8,1.4c-5.1,1.4-10.2,0.7-15.1-1
			c-1.6-0.5-3.4-1.4-2.6-3.5c0.7-1.7,2.1-3.5,4.2-2.8c3.7,1.2,6.5-0.1,9.1-2.5c2.1,0.3,3-0.9,3.3-2.8c0.3-1.9-1.1-2.5-2.5-3.1
			c-5.1-2.2-10.4-2.3-16-2.6c-17.8-0.7-35,5-52.8,3.4c-1.1,0-2.3,0-3.4,0c-7,0.1-9.1,3.2-6.6,10l0,0c1,1.9-0.1,2.4-1.7,2.4
			c-7.3,0.3-14.5,0.1-21.7-1.6c-0.8-0.2-1.7-0.5-1.6-1.5c0.1-0.9,0.8-1.5,1.6-1.7c1.8-0.5,3.7,0.4,5.4-0.6l0,0
			c2.8-0.5,5.3-1.2,7.3-3.6c2.9-3.6,2.2-5.9-2.4-6.9c-0.6-0.1-1.3,0-1.9-0.5c-19-0.3-37.9-0.9-56.9-0.9c-10.8,0-21.5,0.9-32.3,1.5
			c-1,0.1-2,0.5-2.6-0.6c-2.4-4-5.7-3.7-9.9-3.2c-6.7,0.7-13.6,1.2-19.8-2.8c-2.8-1.8-6.3-1.4-9.3-0.7c-5.3,1.3-9.9,0.3-13.8-3.3
			c-3-2.7-5.6-1.8-8.4,0.1c-3.8,2.1-7.2,0.5-10.6-1c-3.7-0.9-7.5-0.4-11.3-0.5c-2.8-0.1-5.6-0.1-8.1-1.6c-4.1-2-8.5-0.8-12.7-0.9
			c-11.6-0.1-23.2,0.3-34.4-3.9c-2.9-1.1-5.1-3.4-8.7-3.3c-3.6,0.1-6.7,1.9-10,2.6c-2.6,0.6-4.5,0.3-4.9-2.4
			c-0.4-2.8-2.1-3.1-4.3-3.8c-6.5-1.9-13.2-0.7-19.7-2.4c-1.9-0.5-4-0.8-5.6-1.8c-6.2-4-12.4-3.6-18.7-0.4c-0.8,0.4-2,0.2-3,0.2
			c-0.3,0-0.5,0-0.8,0c-5.2,0.5-10.4,0.4-15.6,0.2c-0.5-0.1-1-0.2-1.5-0.3c-1.6-0.6-3.4-0.7-5.1-1c-0.5-0.1-1-0.2-1.5-0.4
			c-7.4-0.5-14.8,0-22.2,0.7c-0.6,0-1.1-0.1-1.7-0.3c-5.9-1-11.7-0.9-17.6,0c-3,0.1-6.1,0.1-9.1,0c-2.1-0.4-4.1-0.7-6.2-0.9
			c-0.5-0.1-1-0.2-1.5-0.3c-2.6-0.7-5.3-0.3-7.9-0.3c-4.8-0.1-9.7,0.4-14.5-0.3c-1.4-0.3-2.7-1-3.8-2c-2-0.4-3.9-0.7-5.9-1.1
			c-1.6-2.7,0.1-3.7,2.3-4.1c2-0.4,4-0.5,5.7,1.1c5.7,0,11.3,0,17,0c17.5-1.5,35-1,52.6-0.7c4.5,0.1,8.9,0.6,13.3-0.4
			c2.7-0.6,5.6-0.9,8.1,1.1c1,0,2,0,3,0c2.8-1.2,5.7-1.4,8.7-1.4c14.8,0,29.5,0,44.3,0c2.1,0,4.3,0.2,6.4-0.5
			c11.8-0.9,23.5,0.8,35.3,0.6c19.1-0.4,38.2-0.6,57.2,0c4.5,0.1,9,0.3,13.4-0.7c6.4-1.4,12.4,1.7,18.7,1.6
			c15.2-0.2,30.5,0.8,45.7,0c5.7-0.3,11,0.7,16.5,3.9c5.5,3.2,12,6.2,18.5,6.5c7.4,0.3,14.2,2.9,21.4,4c7.5,1.2,15,0.6,22.1-1.4
			c3.1-0.8,6.4-2.9,7.5-7.2c0.8-3.3,2-7.5,7.2-6.3c12.1,0.9,24.2,0.2,36.2,0.4c3.8,0,6.9,0.9,8.6,4.5c-0.1,2.2,2,2.9,3.1,4.2
			c4.3,4.6,9.5,8.3,13.3,13.4c2.1,2.8,6.1,2.3,8.5,2.6c6.6,0.9,13,2.7,20,2.1c8.1-0.7,16.1,2.2,23.6,5.7
			C868.1,349.8,869.3,350.9,869,352.9z"/>
		<path class="st35" d="M218,487c-1.7-0.4-4.5,0.4-3-3c2.7-0.8,5.3-0.8,8,0c1.7-0.3,3.3-0.7,5-1c0.8-1,2.2-1,3-2c1.3,0,2-0.7,2-2
			c2.4-2.4,5.2-4.2,8-6c5.6-0.7,11.3-1.4,16-5c1.2,0,2.3,0,3.3-0.9c5.5-4.5,11.1-4,17-0.6c4.8,2.7,9.8,4.7,15.3,5.7
			c4.9,0.9,8.2-0.5,10-4.9c1.5-3.6,3.8-2.9,5.8-1.1c2,1.7,3.6,1.9,5.8,0.6c8.5-4.8,17.8-4.9,27-3.1c7.3,1.4,14.4,1.9,21.6-0.2
			c2.5-0.7,4.6-0.6,7.1,0.8c8.4,4.6,17.5,2.7,26.4,2.2c2.9-0.2,5.3-0.2,7.3,1.8c2.8,2.7,4.9,2.4,7.2-0.7c3-3.9,5.2-3.7,8.5,0.2
			c1.9,2.3,3.5,2.6,6.3,0.6c5.4-4,11.5-5,18.3-3.1c6.1,1.7,12.7,1.4,18.6-0.7c4-1.4,7.7-1.4,11.6-1.7c6.7-0.5,13.6,1.6,20.2-1.6
			c1.3-0.6,2.3-0.1,2.4,1.5c0.1,1.4,0.7,2.6,2,3.2c-0.2,1.7,0.9,4.5-2.8,3.2c-1.3-0.4-2.8-0.4-3,1.5c-0.3,2.2,1.3,2.3,2.9,2.3
			c0.3-0.4,0.7-0.3,1,0c2.9,2,6.1,1,9.1,0.9c4-0.2,7.4,1,10.5,3.3c4,2.8,6,2.3,7.8-2.3c1-2.7,1.8-2.9,4.8-2.5
			c5,0.6,8.9,2.7,12.9,5.3c3.5,2.2,7.3,1.6,11.1,0.9c2.7-0.5,6.6-2.2,5.1,3.6c-0.2,0.9,0.5,2.8,1.8,2.5c3.6-1,5.7,2.4,8.9,2.5
			c2.5,2.5,5-0.7,7.5,0c1.5,0.4,3.8-0.4,3.8,2c0,1.7-2.1,1.9-3.5,2c-3.1,0.1-6.5-1-9.3-0.6c-8.7,1.2-15.6,0-21.9-7.1
			c-3.1-3.5-9.7-1.6-14.5-1c-5,0.6-9.9,0.8-14.9,0.7c-9.5-0.2-18.7,1.8-28.1,2.7c-7.3,0.7-14.7,0.7-21.9,0
			c-4.3-0.5-8.2-0.5-12.2,0.6c-4.5,1.2-9.1,0.9-13.7,0.9c-1.8,0-3.5-0.2-4,1.9c-0.5,2.2,1.4,3.1,2.9,3.4c3.3,0.5,5.3,2.2,6.9,5
			c0.8,1.4,2.2,2.5,4.1,2.6c5,0.3,9.9,0.7,14.9,1c2.9,0.9,5.2-1.4,7.9-1.7c1.6-0.2,3.6-0.9,4.3,1.1c0.8,2.3-1.7,2.4-3,3.2
			c-1.6,0.9-3.6,0.5-5.2,1.3c-1.6,2,0.4,2.4,1.4,2.6c9.1,2,18.1,4.9,27.6,4.7c4.9-0.1,9.2,2.8,14.3,3.2c3.3,0.3,6.9-0.3,10.3,1.1
			c-8,8.2-18.1,9.5-28.6,5.2c-8.1-3.4-16.4-6.2-25.9-4.1c-5.1,1.1-10.8,1.4-16.2,0.4c-1.7-0.3-3.8-0.4-5.4,0.3
			c-9.3,4.2-19.7,2.2-29.2,4.8c-1.3,0.4-2.9-0.2-4.4-0.5c-10.8-2.2-21.6-2.5-32.3,0.9c-1.5,0.5-2.9,0.4-4.4-0.1
			c-5.5-1.7-11-2.2-16.7-0.7c-3.8,1-7.5-0.8-11.4-0.9c-6.8-0.3-13.5-1-20.2-1.8c-4.1-0.5-8.1,0.1-11.8,1.5c-9,3.2-17.5,0.6-26.2-1
			c-0.4-0.1-0.6-1-0.9-1.6c-0.7-1.2-3.1,0.3-3-1.6c0.1-2,1.8-1.8,3.4-1.6c2.7,0.3,4.5-1.7,6.6-2.8c8.9-2.7,17.7-2,26.9-0.3
			c10.2,1.8,20.5-2.7,31-2c2.9,0.2,5-3,5.4-5.7c0.4-3,1.6-3.1,3.9-2.5c1.3,0.4,2.7,0.1,3.9,0.6c5.4,2.2,7.9-0.8,9.9-5.1
			c-1.4-4.4-4.6-5.6-8.9-6.2c-9.6-1.3-19.2-1.3-28.8-1.3c-2.2,0-4.3,0.1-6.4-0.5c-7.1-3.6-14.4-4.1-21.8-0.8c-0.5,0.3-1,0.5-1.5,0.7
			c-1.7,0.5-3.4,0.4-5.1,0.4c-7.4-3.2-14.7-0.4-21.9,0.6c-6.1,0.8-11.7-0.8-17.5-1.8c-1.3,0-2.7,0-4-0.1c-5-2.5-10.3-0.8-15.5-1.4
			c-7.4-0.8-14.9,0.3-22.3,0.4C221.4,488,219.6,488.3,218,487z"/>
		<path class="st52" d="M469,505c1.4-3.4,5.9-0.7,7.6-4.1c-2-1.5-4-0.7-6.2-0.2c-1.7,0.4-3.5,2.5-5.4,0.3c4.8-0.9,9.1-3.6,14-4
			c0.7,0.7,1.3,0.7,2,0c8-1.7,15.8-4.2,23.9-5.5c4.7-0.7,9.3-0.3,13.9-0.4c1.4,0,2.2,0.6,2.1,2.1c-0.1,1.2-0.9,1.7-2,1.7
			c-0.7,0-1.4,0.2-2,0c-7.9-2.4-15.3,0.6-22.9,2.1c-7.4,1.6-14.2,4.8-21,8c-1,0.5-2,0.9-3,0C469.7,505,469.3,505,469,505z"/>
		<path class="st53" d="M257,518c0.3,0,0.7,0,1,0c2.4-0.9,4.4-2.5,7-3l0,0c2.7-2.1,5.5-0.3,7.4,0.9c2.7,1.7-0.3,2.6-1.5,3.7
			c-7.2,1.8-14.4,4-21.9,1.5c-2,0-4,0-6,0c-1.1-2.9,0.9-3.1,3-3.5C249.7,516.8,253.3,518.9,257,518z"/>
		<path class="st54" d="M271,519c0.5-1.1,3.6-2.4-0.3-3c-1.9-0.3-3.8-0.7-5.7-1c0-0.7,0-1.3,0-2c3-0.6,5.4,1.3,8,2
			c8,2.2,15.5,0.2,23-2c-1.3,2.7-3.8,3.5-6.5,3.6c-1.1,0-2.4-0.8-2.7,0.8c-0.1,0.4,1.4,1.1,2.2,1.6c-5.3,0-10.7,0-16,0
			C272.3,519.6,271.7,519.6,271,519z"/>
		<path class="st54" d="M257,518c-3.1,2.3-6.2-0.8-9.4-0.1c-2.1,0.5-4.4,0.1-4.6,3.1c-2.4-0.6-4.8-1.2-7.3-1
			c-0.9,0.1-2.2,0.1-2.3-1.2c-0.2-1.7,1.3-1.7,2.4-1.7C242.8,517.2,250,516.3,257,518z"/>
		<path class="st4" d="M271,519c0.7,0,1.3,0,2,0c-7,4.2-14.8,4.4-22.6,3.8c-0.9-0.1-1.2-1-1.4-1.8C256.4,521.3,263.7,520.5,271,519z
			"/>
		<path class="st26" d="M470,505c1,0.3,2-1.1,3,0c1.1,1.5,2.4,1,3.4,0c3.8-3.5,7.4-1.2,11.2,0c0.9,0.3,1.4,0.9,1.1,1.9
			c-0.3,1-1.6,1.3-2,0.7c-2.5-3.7-5.1-1.4-8.1-0.9C475.9,507.2,472.3,508.5,470,505z"/>
		<path class="st4" d="M403.1,527.4c4.4-0.2,8.8-1.4,13.3,1.2C411.5,529.8,407.4,527.7,403.1,527.4z"/>
		<path class="st26" d="M504.1,510.6c-1.1-1.9-2.8-2.8-6.1-3.3C504.2,505.6,504.5,505.8,504.1,510.6z"/>
		<path class="st26" d="M496.8,509.5c0-0.1-0.7,0.5-1.9,0.2c-1.1-0.3-2.3-1-2.2-2.3c0-1.1,1.2-1.4,2.2-1.4
			C496.3,506.1,497,506.8,496.8,509.5z"/>
		<path class="st4" d="M376.6,528.7c-2.7,0.3-4.8,0.6-7.9-0.6C371.9,526.3,373.9,527.4,376.6,528.7z"/>
		<path class="st54" d="M265,515c-2.2,1.2-4.2,3.1-7,3C259.9,516.1,262,514.6,265,515z"/>
		<path class="st4" d="M257,528.4c3.1-0.5,5-0.6,8,0.2C262,529.1,260,529.2,257,528.4z"/>
		<path class="st4" d="M298.7,528.6c-1.8,0.1-3.2-0.5-3.1-1.4c0.2-1.8,1.3-0.5,1.9-0.1C297.9,527.3,298.1,527.8,298.7,528.6z"/>
		<path class="st4" d="M512.9,526.5c1.8,0.3,3.4,0.6,3.2,1.7c-0.2,1.3-1.5,0.5-2.2,0C513.6,528,513.5,527.5,512.9,526.5z"/>
		<path class="st4" d="M424.9,527.7c2.8-0.8,4.3-0.8,5.9,0C429.3,527.7,427.8,527.7,424.9,527.7z"/>
		<path class="st4" d="M318.2,528.4c-1.5,0.8-2.8,0.7-4.4,0.1C315.3,527.7,316.6,527.8,318.2,528.4z"/>
		<path class="st4" d="M305,528.2c-0.7,0.2-1.1,0.5-1.4,0.4c-0.4-0.1-0.6-0.6-0.8-1c0.4-0.2,0.8-0.5,1.1-0.4
			C304.2,527.3,304.4,527.7,305,528.2z"/>
		<path class="st55" d="M634.9,226c-1.1,0.1-2.1,0.6-1.8,1.9c1,4.6-1.5,5.2-5.3,5.2c-149.1-0.1-298.2,0-447.3-0.1
			c-3.3,0-6.9,0.3-10.3-3.2c2.7-0.3,4.8,2.3,6-0.2c1.1-2.2-1.2-3.1-2.3-4.4c0.2-0.4,0.5-0.7,0.8-1c1.3-0.6,2-1.7,2.4-3.1
			c2.1-3.6,1.9-6-2.7-7.2c-2.4-0.6-2.1-2.2,0-3.3c6.6-1.8,13.3-1.3,20.1-1.3c145.8,0.2,291.6,0.1,437.4,0.1c3.4,0,6.7-0.2,9.9-1.2
			c4.2-1.2,8.3-0.2,12.4,0.5c1.9,0.3,2.9,1.5,2.8,3.5c-0.3,5-4.1,2.1-6,2.8c3.5,0.2,7.2,1.1,10.9,1.5c2.7,0,5.3,0.1,7.8,1.4
			c1.5,0.8,2.2,2,1.9,3.7c-0.2,1.5-1.4,2.6-2.7,2.4c-11.1-1.6-21.7,2.6-32.6,2.3C635.9,226.3,635.4,226.1,634.9,226z"/>
		<path class="st0" d="M634.9,226c5.8-1,11.5-2.2,17.4-3c5-0.7,10.1-1.9,15.2-0.1c1.2,0.4,3.2,0.5,3.4-1.7c0.2-1.8-1.3-2-2.5-2.5
			c-2.4-1-4.9-0.3-7.4-0.7c-2.1-3.9,1.4-4.5,3.5-6c6-0.6,11.6-2.1,17.1-4.8c6.6-3.3,13.8-4.7,21.3-4.2c2.8,0.2,5.4-1.3,8.2-1.8
			c6.6-1.3,13.3-2.7,19.9-4c0.8,0.2,1.8,0.1,2.2,0.6c0.6,0.6-0.1,1.2-0.8,1.2c-4.9,0.2-5.6,7.3-11,6.6c-0.5-0.1-1.1,0.9-0.7,1.5
			c0.7,1.1,2,0.9,3.1,1.1c0.9,2.9,3.7,3,5.9,4.1c1,0.5,2.7,0.1,2.6,1.7c-0.1,2.1-1.9,1.2-3.1,1.4c-0.5,0.1-0.9,0.3-1.3,0.6
			c-9.3,0.4-18.7,0.7-28,1.1c-7.4-0.3-14.8-0.4-22,4.3c3.5,1.7,6.9,0.2,10,1.5c1.6,0.7,3.5,1.2,3.5,2.9c0.1,2.3-2.3,3-3.9,3
			c-7.4,0.3-14.8,0.2-22.2,0.3c-8.6,0.1-17.1,1.4-25.8,1C636.8,229.9,634.7,229.5,634.9,226z"/>
		<path class="st35" d="M174.9,225c-0.3,0-0.6,0-0.9,0.2c-4,2.6-8.7,3-13.3,3.4c-7.7,0.7-15.4,1.1-23.2,1.6c-0.1-2.4,2-2,2.5-3.1
			c5.3-0.2,10.6,0.3,15.8-1c1.5-0.4,3.2-0.1,3-2.3c-0.2-1.8-1.8-2.7-3.2-2.3c-2.6,0.8-3.6-1-5-2.3c-4.4-3.8-9.5-6-15.3-6.1
			c-7.9-0.2-9.9-2.9-6.8-10.1c0.3-0.6,0.4-1.3,0.6-1.9c5.8-3.5,11.7-3.8,18-1c3.4,1.6,8,0.2,10.4,4.4c0.4,0.7,2,0.8,2.7,0
			c1-1-0.1-1.7-0.7-2.4c-0.8-1.1-3.3-1.3-2.1-3.3c0.9-1.5,2.7-0.6,4.1-0.8c4.2-0.6,6.4,2,8.3,5.1c1,0.8,1.4,2.1,0.9,3
			c-1.9,3.1-0.2,4.6,2.2,6c0.4,0.3,0.8,0.7,1.2,0.8c9.1,2.1,7.3,2.2,3.9,9C177.3,223.3,176.2,224.2,174.9,225z"/>
		<path class="st56" d="M745,366c-1.5,2.2-4.7-0.2-6.3,2.5c6.9,1.3,13.5,3.5,20.5,2.6c1.6-0.2,3.5,0.4,3.8-2
			c0.8,0.1,1.7,0.3,1.8,1.3c0.1,1.3-1,1.6-2,1.6c-5.5,0-11,0.6-16.4-0.3c-7.5-1.1-14.8-0.9-22.1,0.7c-1.5,0.3-2.9,0.8-4.4,0.3
			c-1.4-0.5-2-2.9-1.4-2.8c3.8,0.5,5.1-4.9,9.8-3.2C733.6,368.6,739.4,365.6,745,366z"/>
		<path class="st8" d="M841.1,364c-1.8,3.5-4.8,4.5-8.3,3.7c-2.3-0.6-3.8-0.1-4.3,1.9c-0.5,2.2,1.7,2.9,3.2,3
			c4.6,0.5,9.1,2.4,14-0.1c3.6-1.9,7.8-1.4,12.1-0.9c7.5,0.8,15.2,0.4,22.9,0.4c3.5,0,5.5,1.1,4.4,5c-8.3-7.8-18.3-3.7-27.4-3.4
			c-7.6,0.2-15.2,1.9-22.9,1.8c-2.4-0.1-5.3-1.5-7.2-3.7c-0.7-0.8-1.5-2-0.4-3.1c1.4-1.4,2.7-4.1,4.6-3.3
			C835.3,366.7,838,365.1,841.1,364z"/>
		<path class="st8" d="M809,373c1.8,4.3,6,2.3,9.3,3.5c-4.5,1.6-8.4-0.9-12.5-0.6c-0.8,0.1-2.2-6.3-1.7-6.9c2.4-2.8,10.1-2.8,12.9,0
			c-1.5,1.7-3.5,1.4-5.4,1.3C809.4,370.1,808.8,371.1,809,373z"/>
		<path class="st57" d="M809,373c-0.5-1.3-3.3-0.8-2.7-2.9c0.6-1.8,2.5-1.1,3.9-1.1c2.3-0.1,4.6-0.1,6.8-0.1
			c1.2,0.4,3.5-0.8,3.4,1.5c0,1.5-1.9,1.4-3.2,1.6C814.5,372.6,811.8,373.3,809,373z"/>
		<path class="st58" d="M763,369c-3.6-1.7-2.1-4.8-1.6-7.2c0.4-1.9,1.7-4.1,4.5-3.8c2.4,0.3,5-0.9,7.1,1c-0.7,0.3-1.4,0.9-2.1,1
			C763.2,360.8,763,361.1,763,369z"/>
		<path class="st56" d="M748,355c3-0.1,6.6-0.4,6.8,3.7c0.2,3.7-2.9,5.7-5.9,7.1c-1.1,0.5-2.6,0.2-3.9,0.2c0.8-1.4,2.5-0.6,3.5-1.4
			c1.9-1.5,4.3-2.8,4.4-5.6C753,355.9,749.3,356.7,748,355z"/>
		<path class="st59" d="M585,343c3.3,0.8,6.4,2.9,10.1,2c-2.5,2.8-5.7,2.8-9,2c-0.8-0.4-1-1.2-1-2C584.4,344.4,584.4,343.7,585,343z
			"/>
		<path class="st8" d="M856.9,376.7c-3.2,0-5,0-6.9,0C852,375.8,854,375.7,856.9,376.7z"/>
		<path class="st8" d="M885,377c1.3,0,2.7,0.1,4,0.1C887.6,380.7,886.3,378.7,885,377z"/>
		<path class="st8" d="M828.3,375.9c-0.3-0.3-0.6-0.6-0.8-0.9c0.3-0.2,0.7-0.5,1-0.6c0.2,0,0.6,0.3,0.7,0.6
			C829.5,375.7,828.9,375.8,828.3,375.9z"/>
		<path class="st11" d="M6,438c0.5-1.7,0.7-3.6,2-5c0,2.3,0,4.6,0,7.4C7.1,439.3,6.5,438.7,6,438z"/>
		<path class="st11" d="M8,433c-0.9-1.5-1-3.2-1-5C8.2,429.5,10.1,430.8,8,433z"/>
		<path class="st11" d="M6,426c-1.3-1.8-1.8-3.3,1-4C6.3,423.3,5.9,424.6,6,426z"/>
		<path class="st11" d="M7,422c1.4-1.6,3.3-0.8,5-0.9C10.6,422.6,8.7,421.8,7,422z"/>
		<path class="st60" d="M19,66c5.9-1.7,12.1-1.7,18.1-2.5c4.2-0.5,8.4-2.2,11.5-5.5c2.1-2.2,4.1-2.6,6.2,0c0.4,2.3,2,2.3,3.7,1.6
			c2.2-0.9,3.7-0.1,4.9,1.8c1.4,2.1,0,3.3-1.3,4.5c-13.9,1.5-27.9,2.4-41.9,2.1C18.6,68,16.7,68.1,19,66z"/>
		<path class="st61" d="M753,317.1c-2.8-0.3-4.7,0.5-5.5,3.6c-1.6,6.3-5.4,9.6-12.4,10.8c-8,1.5-15.9,2.1-23.6,0.3
			c-12.3-2.8-25.5-3.9-36.3-10.4c-6.2-3.7-11.9-3.3-17.9-3.2c-8.3,0.2-16.8-1.7-25.1,1.1c-1.4,0.5-3.6-2.1-5.3-2
			c-11.3,0.7-22.4-2.5-33.7-0.7c-5.5,0.9-11.3,0.7-16.9,0c-2.9-0.4-5.5,0-8.3,0.4c-4.7,0.6-9.2-1.4-13.8-1
			c-12.1,1.1-24.2,0.8-36.3,1.1c-9.3,0.2-18.5-1.8-27.8-1.1c-3.9,1-7.9,0.4-11.9,0.4c-13.8,0.1-27.5,0.1-41.3,0
			c-1.6,0-3.3,0.4-4.9-0.5c0-0.7,0-1.3,0-2c1.6-0.9,3.3-0.5,4.9-0.5c15.3,0,30.6-0.3,46,0.1c19.6,0.5,39.2-0.6,58.9,0
			c6.4,0.2,12.9,0.3,19.3,0.4c3.5,2.5,7.4-0.3,11,1c0.7,0,1.3,0,2,0c4.1-0.9,8.2-0.5,12.3-0.2c2.3,0.2,4.6,0.8,6.7-0.8
			c4.3,0.8,8.8-1.7,13,1c9.1,2.4,18,0.5,27-1c2-0.8,4-0.8,6,0c0.8,0,1.6,0.2,2,1c-1.8,1.1-3.8,0.1-5.3,0.5c1.5,0.2,3.5-0.6,5.3,0.5
			c7,0.8,13.6-3.3,20.7-2.1c2.3,0.4,4.6,0,6.3,2.1c-0.1-0.7,0.1,0.7-0.4,0.3c-0.3-0.3-0.6,0.2-0.5,0.2c2,0,3.9-0.2,5.9,0.5
			c1.6,0,2.5,1.1,3.5,2.1c2.6,2.5,0.8-0.9,1.5-1.1c0.7-0.5,1.3-0.6,2,0c0.3,2.7,0.8,4.6,4.5,3.4c3.2-1.1,3.2-0.5,5.6,2.9
			c1.1,1.5,3.3,1.1,4.6-0.3c3.5-3.7,3.7-3.8,9.3-1.5c-2,1.3-4.5-0.5-6.4,1.3c0.5,1.7,1.9,1,2.9,1.2c5.2,0.8,10.9-0.4,15.2,4.2
			c1.2,1.3,3.1,1,4.8,0.5c3.6-0.9,7-0.7,10.6,0c2.9,0.5,7.5,0.7,8.6-3.4c1-3.7,3.7,1.5,4.1-2.1c-0.3-0.4-1.2-1.3-2-2.1
			c0.1-0.4,0.2-0.7,0.2-0.7c5.2,0.1,4.7-5.6,7.8-7.6c0.9-0.6,3.1-1.4,3.2,1.3C752.6,315.7,753.5,316.4,753,317.1z"/>
		<path class="st61" d="M337,321.9c5.3,0.1,10.7,0.1,16,0.2c2.6,1.2,5.4-0.3,8,0.9l0,0c0.2,2-1.1,1.4-2.1,1.5
			c2.7,0.2,5.4-1.9,8.1-0.5c3.3,0,6.6,0,9.9,0c6,0.4,12-1.4,18.1,0c0.3,0,0.6,0,0.9,0c2.4,1.3,4.6-0.1,7-0.3
			c5.7-0.3,11.4-0.7,17.1,0.2l0,0c1.5,1.3,3.5-0.1,5,1l0,0c4.2,1.1,8.5,0.2,12.7,0.5c1.8,0.1,3.6-0.5,5.3,0.5c0,0,0,0,0,0
			c-1.1,1.4-2.7,2-4.4,2c-11.1-0.4-22.1,2.1-33.3,0.8c0.3-1.7,2.7,0,3.2-2.3c-5.4-1.4-10.1,5.3-15.6,1.5c-2.1-0.7-4.1-0.1-4.9-0.3
			c1,0.1,3.1-0.3,4.9,0.3c-4.4,2-9.3,2.2-13.3,0.2c-5.2-2.6-10.2-1.7-15.6-2.1c1.1,1.9,2.9,0.4,4,1.4c-0.3,1.3-1.6,1.5-2.6,1.5
			c-5.9,0.1-11.8,0.2-17.7,0.1c-4.6-0.1-9.3,1-13.7-1.4c-2.2-1.2-3.7,2.2-6,1.4c-1.1-5,2.4-6.1,6-7C335,322.2,336,322.4,337,321.9z"
			/>
		<path class="st13" d="M753,317.1c0.7-0.7-3.4-1.4,0-2.1c14.3,0,28.7,0,43,0c-0.2,2.6,3.2,3.4,3,6c-0.3,0-0.7,0-1,0
			c-4-4-9-3-13.8-3.1c-8.8,0-17.6,0-26.4,0C756.1,317.9,754.4,318.5,753,317.1z"/>
		<path class="st13" d="M561,314c-4.8,1-9.6,0.5-14.5,0.3c-4.5-0.1-8.9-0.3-13.4-0.3c-13.3,0-26.7,1.1-40,0.6
			c-20.4-0.8-40.8,0-61.2-0.6c1.5-1.6,3.4-1,5.2-1c16.1,0,32.3,0,48.4,0c18.9,0,37.7-0.2,56.6,0.1C548.5,313.2,554.8,312.3,561,314z
			"/>
		<path class="st24" d="M427,317c-24.7,0-49.3,0-74,0c4.7-1.6,9.7-1.6,14.5-1.8c11.4-0.4,22.8-0.3,34.2-0.1
			c5.1,0.1,10.1,1.3,15.3,0.9c1.7-2,3.9-2.4,6.4-1.9c1.2,0.6,2.6,0.8,3.6,1.9C427,316.3,427,316.7,427,317z"/>
		<path class="st24" d="M432,316c19.4,0,38.7,0,58.1,0c-1.5,1.5-3.4,0.9-5.2,0.9c-18.3,0-36.6,0-54.8,0
			C430.4,316.2,431.2,316,432,316z"/>
		<path class="st13" d="M328,315c-1.1-0.3-2.7,0.6-3.7-1.7c9.5-1.1,18.6,1.9,27.8,1.3c-4.9,1.8-10.1,1.1-15.1,1.3
			C334,315.8,330.8,317.2,328,315z"/>
		<path class="st13" d="M593,314c-0.8,3.3-3.6,2.2-5.3,1.8c-4.6-1.2-9.2-0.6-13.7-0.8C580.2,312.8,586.7,314.6,593,314z"/>
		<path class="st24" d="M328,315c3,0.5,6.1-0.1,9,1c-0.3,0.3-0.7,0.6-1,1c-1.8,0-3.5,0.1-5.3,0c-2.1-0.1-2.9,1-2.6,3
			c-0.4,0-0.7,0-1.1,0c-0.9-1.3-0.9-2.7,0-4C327.3,315.7,327.7,315.3,328,315z"/>
		<path class="st61" d="M423,315c-2.2-1.1-3.9,1.1-6,1c0-0.3,0-0.7,0-1c-0.4-0.2-0.5-0.4-0.4-0.7c0.1-0.2,0.2-0.3,0.4-0.3
			c3.3-1.6,6.7-1.6,10,0C425.8,314.9,424.7,316,423,315z"/>
		<path class="st13" d="M572,315c-2.6,0-5,1.4-7.7,1c-1.5-0.2-3,0.1-3.3-2C564.6,314.5,568.5,312.9,572,315z"/>
		<path class="st13" d="M606,315c-4.2-1.7-8.8,0.8-13-1C597.4,313.9,601.9,311.2,606,315z"/>
		<path class="st13" d="M321.3,315.3c1.6,1,3,1.7,2.1,3.5c-0.2,0.4-1,0.8-1.1,0.7C321,318.5,321.1,317.1,321.3,315.3z"/>
		<path class="st61" d="M737.4,327.7c-0.6-2.3-0.5-3.7,0.2-5.9C739.6,324.1,738.8,325.6,737.4,327.7z"/>
		<path class="st13" d="M673,317c-2.3,0-4.7,0-7.1,0c0.5-1.3,1.4-0.8,2.1-1C669.7,316.2,671.6,315.3,673,317z"/>
		<path class="st13" d="M799.4,316.5c-1.8,0.1-2.6-0.9-3.3-2c-0.1-0.1,0.6-1,0.8-0.9C798.2,314.1,799.3,314.7,799.4,316.5z"/>
		<path class="st13" d="M417,314c0,0.3,0,0.7,0,1c-2.3,0-4.5,0-6.8,0c0-0.3,0-0.7,0-1C412.4,314,414.7,314,417,314z"/>
		<path class="st24" d="M337,321.9c-0.1,0.7-0.1,1.7-1.1,1.7c-1.1,0.1-1.5-0.8-2-1.6c0-0.3,0-0.6,0-0.9
			C335.1,321,336.2,320.8,337,321.9z"/>
		<path class="st13" d="M680,318c-0.7,0-1.3,0-2,0c-1-0.7-1.1-1.8,0-2.2C679.9,315.1,679.8,316.9,680,318z"/>
		<path class="st13" d="M639,314c-2,0-4,0-6,0C635,312.5,637,312.5,639,314z"/>
		<path class="st13" d="M423,315c1.3-0.3,2.7-0.7,4-1c0,0.7,0,1.3,0,2C425.6,315.9,424.1,316.5,423,315z"/>
		<path class="st13" d="M641,316c-1.6,0-3.2,0-4.8,0c0-0.3,0-0.7,0-1c1.6,0,3.3,0,4.9,0C641,315.3,641,315.7,641,316z"/>
		<path class="st13" d="M327,316c0,1.3,0,2.7,0,4C324.6,318.7,324.6,317.3,327,316z"/>
		<path class="st16" d="M97,424c2.6-1,5-3.1,8-1h0C102.4,423.8,99.7,424.2,97,424L97,424z"/>
		<path class="st16" d="M105,423c2.3,0,4.5,0,6.8,0C109.5,423.7,107.2,424.8,105,423L105,423z"/>
		<path class="st16" d="M81,419c2.5-2,5.3-0.6,8-1C86.5,420,83.7,418.6,81,419z"/>
		<path class="st16" d="M89,418c2.7-1.5,5.3-1.5,8,0C94.3,418,91.7,418,89,418z"/>
		<path class="st16" d="M102,419c2.3,0,4.7,0,7,0C106.7,420.6,104.3,420.6,102,419z"/>
		<path class="st16" d="M108.8,421.4c1.2-0.6,2.2-0.7,3.3,0.1C111,422.2,110,422.3,108.8,421.4z"/>
		<path class="st62" d="M136,146c1.8-1.1,3.8-1,5.8-1c162.5,0,325.1,0,487.6,0c3,0,5.9,1.2,8.9,0.2c0.9,0.7,1.7,1.4,1.9,2.6
			c2.2,3.9,1.9,4.5-2.2,5.4c-5.1,1.2-10.2,1.4-15.4,1.4c-95.5,0-190.9-0.1-286.4,0.1c-8.4,0-16.9-1.1-25.3,0.4
			c-10.8-1-21.6,0.6-32.4-0.4c-2.3-0.2-4.7-0.2-7-0.2c-26,0-52-0.6-78,0.2c-15.6,0.5-31.3-1.5-46.9,0.4c-3.2,0.4-6.7,0-9.8-1.2l0,0
			C134.2,151.7,134.6,148.9,136,146z"/>
		<path class="st63" d="M639,147c-0.2-0.6-0.5-1.3-0.7-1.9c6.8-2,13.9-0.1,20.7-2.1c1.2-1,2.5-1,3.9-0.8c6.3,0,11.9,2.6,17.7,4.5
			c3,1,5.9,0.6,8.7-1c3.4-1.9,6.9-2.3,10.6-1.5c3.3,0.7,6.6,0.5,9.7-1.2c2-1.1,3.8-0.9,5.4,1c0,0,0,0,0,0c0.6,2.1-1.7,3.1-2.1,4.8
			c-3.4,4.8-8.7,6-14,6.4c-8.8,0.7-17.6,0-26.1-2.2c-2.9-0.7-5.7-0.5-8.2,1c-5.8,3.5-10.6,2.4-14.7-2.9c-0.5-0.7-1.2-1.1-1.8-1.6
			c-1.8-1.5-3.9-1.1-6-1C640.8,148.5,640,147.6,639,147z"/>
		<path class="st39" d="M715,144c-0.8-0.2-1.9-0.8-2.4-0.5c-5.9,3.5-12,2.6-18.2,1.6c-0.7-0.1-1.7,0.3-2.3,0.8
			c-6.5,4.9-13,2.7-19.1-0.6c-3.3-1.8-7-0.3-10-2.2c-0.6-0.7-0.6-1.3,0-2c1.4,0.7,2.8,1.4,4.2,0.4c4-2.6,8.3-1.4,12.6-1.4
			c3.5,0,6.9-0.1,10.2-1.8c2.5-1.3,5.1-1.9,7.7,0.7c1.9,1.9,4.5,1.2,6.9,0C710.3,136.3,713.5,137.9,715,144z"/>
		<path class="st64" d="M136,146c0.3,2.7,0,5.5,1,8.1c-6.1,0.1-4.9-4.4-5-8C133.3,149.7,134.6,145.8,136,146z"/>
		<path class="st65" d="M663,141c0,0.7,0,1.3,0,2c-1.3,0-2.7,0-4,0C659.3,140.3,661.4,141.2,663,141z"/>
		<path class="st66" d="M172.9,212.1c-5.5-0.5-5.7-0.9-3.4-5.2c0.7-1.3,0.5-2.5,0.4-3.8c6.5-2.7,13.3-2,20.1-2
			c159.7,0,319.3,0,479,0c9.7,0,19.5,0.3,29.2-0.4c4-0.3,8.6,0.6,13,0.4c-5.5,3.7-12.1,2.6-18.2,3.9c-5.2,1.1-10.2,2.6-14.7,5.3
			c-4.1,2.5-8.7,2.5-13.2,2.7c-2.6,0.3-5.3,2.4-7.9,0c-1.2-0.3-3,0.7-3.4-1c-0.4-1.4,2.1-0.3,2.2-1.3c-7.8-3.4-15.3,0.3-23,0.3
			c-146.7,0-293.4,0-440.1,0c-2.6,0-5.4,0.8-7.7-1.3c-0.3-0.3-1.3-0.4-1.3-0.3C181.1,214.4,176.2,210.3,172.9,212.1z"/>
		<path class="st44" d="M738.1,183c-1.1,0.5-1.6,2.1-3.1,2c-2.6,1.4-5,2.3-8,0.2c-1.1-0.8-3.2-0.2-4.9-0.2
			c-131.5,0-262.9,0-394.4-0.1c-2.9,0-6.4,1.5-8.1-2.8c-0.5-1.2-2.7-0.3-3.3,0.7c-1.6,2.5-3.9,2.1-6.2,2.1c-21.3,0-42.7,0-64,0.1
			c-2.9,0-5.3-0.2-6.5-3.9c-1.4,5-4.7,3.7-8.6,3.7c1.8-1.7,2.8-3.1,4.7-2.1c0.8,0.4,1.1,0.6,1.2-0.4c0.1-0.5,0-1,0-1.5
			c-0.2-1.7,0.8-3.2,0.9-4.9c0.2-3.2,2.2-4.2,5-4.3c3.5-0.1,7-0.1,10.5-0.1c4.8,0.1,9.6-0.2,14.3-1.4c5.1-1.2,10.2-0.8,15.3,0.2
			c5.8,1.1,11.4,1.5,17.2-0.2c5.4-1.6,10.1,0.1,14,4.2c0.9,0.9,1.5,2.2,3,2.3c2.1-1.1,0.8-4.5,3.7-4.9c2.8,1.2,5.7,1.6,8.8,1.6
			c130.4,0,260.8,0,391.1,0c3.3,0,6.7,0,9.9-1c1.6-0.5,3.2-0.8,4.8-0.7c2.8,0.1,6.2-0.1,6.9,3.2C743.2,178.3,742,181.6,738.1,183z"
			/>
		<path class="st67" d="M320.1,172c0,1.2-0.1,2.3,0,3.5c0.1,1.9-0.8,3.3-2.5,3.9c-2.1,0.7-2.3-1.3-3.1-2.5c-3-4.8-8.4-7.5-13.6-5.6
			c-6.3,2.4-12.5,1.6-18.6,0.4c-5.7-1.1-11.2-1.1-16.7,0.3c-7.2,1.9-14.6,0.6-21.8,0.9c-2.7,0.1-5.9-0.6-4.2,4
			c0.8,2.3-2.2,2.2-2.6,3.7c-1.8,0.5-3.4,0-4.9-0.8c-1.5-1.6-2.5-3-5.6-2.6c-4.3,0.6-7.6-2.9-11.1-5.1c0.7-2,3-0.8,3.7-2.3
			c0.2-0.2,0.5-0.6,0.7-0.6c12.3-1,24.2-6.7,36.9-4.2c2.6,0.5,5.6,0.7,7.8-0.8c6.2-4.3,13.2-5.2,20.4-5.4c11-0.2,21.9-1.7,32.8-2.4
			c1.8-0.1,3.7-0.1,5.5,0.2c1.8,0.6,3.8,0.7,5.5,1.5c0.7,0.5,1,1.1,1,2c-0.7,2.7-3.1,4-4.8,6c-1.1,1-2.2,2-2.9,3.3
			C321.5,170.5,320.9,171.4,320.1,172z"/>
		<path class="st44" d="M144.5,184.1c2.8,0,5,0,7.3,0C149.5,185,147.2,185.4,144.5,184.1z"/>
		<path class="st12" d="M556.7,343.5c-8.9,2.4-17.7,1.1-26.4,1.1C539.2,343.6,548.1,344.7,556.7,343.5z"/>
		<path class="st12" d="M585,343c0,0.7,0,1.3,0,2c-4.9-1.7-9.9-0.8-14.8-1c-2-0.1-4.1,0.3-5.1-2.1C571.6,343.3,578.3,343,585,343z"
			/>
		<path class="st12" d="M524,344.4c-3.5,1.5-6.7-0.4-11.1-0.7C517.5,342.2,520.6,344.6,524,344.4z"/>
		<path class="st12" d="M557,344.1c1.6,0,3.2,0,4.8,0C560.2,344.9,558.5,345.5,557,344.1z"/>
		<path class="st63" d="M877,486c4.1-1.2,7.9-1.2,12.1,0.3c5.1,1.9,10.8,0.9,16.3,1.4c8.3,0.8,16.8,1,25.2-1.5
			c6.5-1.9,13.3-2.1,20,0.3c2.8,1,6.4,1,9.4,0.2c6.8-1.7,13.4-1.3,20,0.3c1.1,2.2,5.6,1,5,5c-3,2.5-6.2,3.9-10.4,3.1
			c-4.5-0.8-9.2,0.9-13.6-1.1l0,0c-8.1-1-16.2-0.5-24.3-0.3c-1.7,0-3.3,0.4-4.7-0.7c-8.9-2.3-18-1.3-27-2l0,0
			c-1.5-1.6-3.4-0.9-5.2-1c-9.6-0.1-19.1,0-29.1,0C872.6,487.7,876,488.7,877,486z"/>
		<path class="st9" d="M881,493c6.3,2.2,12.8,0.4,19.1,1c1.8,0.2,4.2-1.1,4.9,2c-6.7,1.1-13.5,0.2-20.2,0.5c-3.7-1.1-7.7,0.3-11.4-1
			c-0.6-0.4-0.7-0.8-0.4-1.5c0-0.3,0-0.7,0-1C875.7,491.6,878.3,491.5,881,493z"/>
		<path class="st29" d="M881,493c-2.7,0-5.3,0-8,0c0.5-2.7,2.7-2,4.3-2c9.2-0.1,18.5,0,27.7,0c0,0,0,0,0,0c0.7,0.5,1.3,0.9,2.3,1.6
			c-7.3,1.4-14.1-1.4-21.1-0.6C884.4,492.2,882.5,491.4,881,493z"/>
		<path class="st9" d="M961,494c5.6,0.3,11.2-0.5,16.7,0.6c2.7,0.5,4.7-2.1,7.3-2.6c-2.3,3.2-5.1,4.8-9.4,4.2
			c-3.5-0.5-7.2-0.1-10.8-0.1C963.2,496,961.3,496.4,961,494z"/>
		<path class="st29" d="M884,496c7,0,14,0,21,0c-1.3,1.5-3,1-4.6,1c-7.6,0-15.2,0-22.7,0c-1.6,0-3.3,0.5-4.6-1
			c0.3-0.1,0.5-0.3,0.8-0.4C877.2,495.7,880.6,495,884,496z"/>
		<path class="st9" d="M932,493c8.1,0,16.2,0,24.3,0c1.6,0,3.4-0.5,4.7,1c-8,0-16,0-24,0c-1.7,0.7-3.3,0.7-5,0
			C932,493.7,932,493.3,932,493z"/>
		<path class="st29" d="M865.8,489.1c1.2,0.3,2.5,1,2.5,2.5c0,1.1-1.3,1.6-2.2,1.6c-1.7,0.1-1.2-1.7-1.6-2.6
			C864,489.7,864.7,489.2,865.8,489.1z"/>
		<path class="st9" d="M935,496.2c2.9,0,5.8,0,8.7,0c0,0.1,0,0.3,0,0.4c-2.9,0-5.8,0-8.7,0C935,496.5,935,496.4,935,496.2z"/>
		<path class="st29" d="M914.2,494.2c1.9,0,3.7,0,5.6,0c0,0.2,0,0.3,0,0.5c-1.9,0-3.7,0-5.6,0C914.2,494.5,914.2,494.3,914.2,494.2z
			"/>
		<path class="st29" d="M932,494c1.7,0,3.3,0,5,0c-1.8,1.8-4,0.7-6,1c-0.3,0-0.9-0.2-0.9-0.2C930.3,493.6,931.3,494.2,932,494z"/>
		<path class="st29" d="M873,494c0,0.3,0,0.7,0,1c0.4,0.2,0.5,0.4,0.4,0.7c-0.1,0.2-0.2,0.3-0.4,0.3c-0.9-0.2-2.6,0.5-2.4-1.2
			C870.7,493.8,872.1,494.1,873,494z"/>
		<path class="st9" d="M906.8,495.9c2.8,0.2,4,0.2,6.1,0.4C910.7,497.2,909.3,497.3,906.8,495.9z"/>
		<path class="st9" d="M928.7,496.8c-2.3,0.1-3.6,0.5-4.9-0.4C925.3,495.8,926.7,495.7,928.7,496.8z"/>
		<path class="st35" d="M481,497c-0.1,0.9,0.2,2.3-0.8,2.4c-1.7,0.2-1-1.5-1.2-2.4C479.7,497,480.3,497,481,497z"/>
		<path class="st35" d="M738.1,183c1.5-2.7,4.7-5.4,3.3-8.3c-1.5-2.9-5.4-1.5-8.3-1.8c-0.7-0.1-1.3-0.1-2-0.1
			c-3.3-1.4-3.5-3.4-0.8-5.5c5.4-4.3,22.7-3.3,27.6,1.4c0.5,0.5,0.6,1.2,0.6,1.8c-1.2,2.2-3.5,1.4-5.3,2.1c-2.4,0.9-3.4,2.2-1,4.2
			c3.2,2.7,4.9,5.6,2.8,10c-1.1,2.4,1.6,2.8,3.3,3.1c2.8,0.4,5.6-0.4,8.5-0.3c7.3,0.1,14.7,0,22,0c1.7,0,3.3,0.1,5-0.4
			c1-0.3,2.1-0.6,2.1-1.8c0-1.3-1.1-1.5-2.1-1.7c-3.5-0.8-7.3-1.5-6.9-6.2c0.2-2.8,5.1-5.1,9.7-4.4c8,1.2,15.5-1.2,23.1-3.1
			c2.2-0.6,4.6-1.4,2.2-4.7c-1.2-1.6,0.5-3,2-4c1.8-1.2,4.1-1.5,5.1-3.8c0.1-0.3,0.3-0.6,0.2-0.9c-0.2-1.7-3.5-2.5-1.9-4.5
			c1.6-2,3.8-3.7,6.6-4c2.7-0.3,5.2,0.3,7.8,1.2c5.7,2,11.5,3.6,17.6,3.7c0.3,0,0.7,0.1,1,0.1c4.7,0.5,9.4,0.8,9.3,7.5
			c0,2,1.9,3.5,4,3.9c7,1.2,14,2.5,21.2,2c4.2-0.3,8.1-1.9,11.5-4.3c2.6-1.8,5.9-3.2,2-7c-1.3-1.2-0.5-2.8,1.2-3.5
			c4.2,0.5,7.9,1.5,10.8,5.2c2.2,2.8,6,2.3,9.2,2.8c5.3,0.8,10.4-2.2,15.7-0.8c2.4-0.2,6.2-2.8,4.2,3.2c-0.8,2.5,1.7,3.6,4.1,3.9
			c3.4,0.4,5.4,1.7,4.7,5.8c-0.6,3.4,2.1,4.7,4.9,5c2.8,0.3,5.9,0.8,8.4-0.1c5.4-1.8,11.1-2.1,16.6-2.7c5.9-0.6,11.9-1.1,17.9-1.3
			c12.4-0.4,24.8,0.6,37.2,0.3c6.7-0.1,13.5,0.9,19.9,3c0.4,2.8-1.3,4.2-3.6,5.3c-13.6,6.7-27.7,9.2-42.8,6.1
			c-5.7-1.2-11.6-0.8-17.3,0c-4.9,0.7-9.9,1-14.8-0.2c-4.9-1.2-9.9,0-14,2c-13.2,6.5-27.4,5.4-41.3,6.7c-2.1,0.2-5.4-1.1-5.8,2.1
			c-0.4,2.8,2,4.2,4.7,4.8c0,0.7,2.7,1.4-0.1,2.1c-5.8,1.3-11.3,3.7-16.5,6.6c-5.5,3.1-11.7,0.7-17.5,2.2c-2.6,0.7-5.6,0.5-8.4,0.8
			c-2,0.3-4.9,1.8-5.1-3.1c-0.2-3.4-4.4-2.8-7.5-2c-2.9,0.7-5.4,3.4-8.9,1.6c-1.7-0.9-3.4-1.5-3.7-3.5c-0.7-3.9-2.6-2.9-4.2-0.9
			c-6.2,7.9-14.2,8-22.9,5.8c-1.3-0.3-2.6-0.5-3.9-0.5c-5.3-0.3-5.6-0.6-2.9-5.1c0.7-1.2,0.7-2.1,0-3.1c-1.4-1.9-3.4-2.1-5.4-1.7
			c-9.1,1.8-18.2,0.5-27.3,0.9c-4.6,0.2-9.3,0.3-13.8-1c-5.1-1.5-10.2-1.2-15,1c-2.2,1-4.2,0.3-6.3-0.1c-2-0.5-2.6-1.6-1.8-3.7
			c1.8-4.9,1.3-5.1-3.2-5.9c-3-0.5-5.7-0.8-8.6,0.5c-1.4,0.7-2.7,0.7-3.2-2C740.7,190.2,736.4,187.6,738.1,183z"/>
		<path class="st68" d="M728,216c0.6-1.8,2.2-1.4,3.6-2.1c-2.6-0.9-5.1-1.9-7.7-2.7c-3.2-1-0.4-2,0-2.9c4,1.1,7.4,5.5,12.1,1.9
			c0.7-0.6,1.5-0.6,1.9,0.2c0.4,0.8-0.3,1.4-0.9,1.9C734.2,213.7,732,217,728,216z"/>
		<path class="st69" d="M737,212.1c0.4-1.1,0.8-2.1-1-2.1c2-3.5,5.3-1.4,8.5-2.3C743,212,739.3,210.7,737,212.1z"/>
		<path class="st10" d="M700.9,225.8c-0.9-0.4-1.7-0.9-1.6-1.8c0.2-1.2,1-2.3,2.2-2.3c1.1,0,1.5,1.2,1.3,2.3
			C702.6,225.1,701.8,225.6,700.9,225.8z"/>
		<path class="st11" d="M548.2,474.6c-0.1,0.8-0.7,1.1-1.4,1.2c-0.4,0-1.1-0.2-1.3-0.5c-0.4-0.8,0.3-1.2,0.9-1.3
			C547.2,474,547.9,473.9,548.2,474.6z"/>
		<path class="st11" d="M497,473c-0.3,0-0.6,0-1,0c0.7-1,1.6-1.7,2.9-1.3c0.2,0.1,0.2,0.5,0.3,0.8C498.5,472.7,497.7,472.9,497,473z
			"/>
		<path class="st11" d="M560.8,476.6c-0.3,0.3-0.6,0.7-0.7,0.7c-0.5-0.4-1.1-0.7-1.4-1.2c-0.4-0.7,0.2-0.9,0.7-0.7
			C560,475.6,560.4,476.2,560.8,476.6z"/>
		<path class="st11" d="M520.5,473.4c-1.5,0.8-2.5,0.8-3.6,0.2C517.8,472.6,518.8,473,520.5,473.4z"/>
		<path class="st19" d="M849.3,336.9c-3.3,1.5-5.3,0.8-8.6,1.1C844,336.5,846,337.2,849.3,336.9z"/>
		<path class="st64" d="M323.9,158.1c-16.2,1-32.4,2-48.6,3c-2.8,0.2-5,1.8-7.2,3.2c-4.1,2.7-8.5,3.4-13.3,2.2
			c-5.5-1.4-11-0.7-16.2,0.9c-6.5,1.9-13,2.6-19.6,2.6c-5.6,0.4-0.8-4.8-3.2-6.3c-2,1.7,1,5.4-2.5,6.2c-2.4,0.5-0.3-2.9-2.3-3
			c0.4-2.2,0.3-3.9-2.7-4.1c-13.6-1-26.9-4.7-40.9-3.1c-10.4,1.2-21.3,1.7-30.4-5.7c9.9-0.6,19.7-1.1,29.6-1.1
			c35.4,0.1,70.7-0.1,106.1,0.1c9,0.1,18,0.3,27,0c3.8-0.1,7.6,0.6,11.3,0.9c1-0.9,1.9-0.2,2.8,0.2c3.8,0.8,7.7,0.7,11.5,0.4
			c1.9-0.1,2.4,1,2.2,2.6C326.7,158.9,325.3,158.7,323.9,158.1z"/>
		<path class="st23" d="M59.2,179.9c-17,0-34,0.1-51,0.1c-1.4,0-3,0.4-4.2-1c14.9,0,29.9-0.1,44.8,0C52.3,179,56,176.6,59.2,179.9z"
			/>
		<path class="st23" d="M97,179.9c-9.7,0.6-19.3,2.4-29,0.1c7.9-0.1,15.9,0.1,23.8-1C93.5,178.9,95.5,178.5,97,179.9z"/>
		<path class="st23" d="M66.1,179.9c-1.4,1-2.8,0.1-4.2,0C63.3,178.7,64.7,178.8,66.1,179.9z"/>
		<path class="st34" d="M879.5,365c2.1-4,5.3-3.4,9.6-1.9C885.5,364.8,882,362.8,879.5,365z"/>
		<path class="st8" d="M916,380c1.3,0,2-0.6,1.9-2c1,0.7,2.9,1.4,1.9,2.6C919.2,381.6,917.1,381.4,916,380z"/>
		<path class="st26" d="M332,489c13.9-0.1,27.8-0.1,41.6,1.9c5.7,0.8,2.5,4.7,3.4,7.1c-0.8,0.3-1.7,0.4-2.2,0.9
			c-3.8,4-6.9,4-10.1-0.9c-1.2-1.9-3.4-1.5-4.9,0.5c-2.5,3.4-4.8,5.1-5.5-2.8c-1.8,4.2-1,6.8-1.2,9.3c-9.8-0.7-19.6,1-29.5,0.6
			c-2.6-0.1-6.4,2.1-9.9,2.8c-4.3,0.9-8.1,0.5-12-0.9c-0.3-2,2-0.8,2.3-2.5c-0.8,0-1.6,0-2.3,0c-75.1,0-150.1,0-225.2-0.1
			c-1.1,0-4.4,2.2-4-2c0.1-0.9-1.3-0.3-1.9,0.2c-1.1,1-2.2,2-3.9,1.9c-0.8-0.1-1.8,0-2.2-0.8c-0.6-1.2,0.1-1.9,1.1-2.4
			c2.1-1,3.9-2.1,3.5-4.8c7.2-9,16.8-7.4,26.3-5.9c8.1,1.3,15.9,0.4,23.7-1.9c0.6-0.2,1.3-0.1,2-0.2c-0.3,0.4-0.7,0.7-0.9,1.2
			c-0.3,0.6,0.1,0.8,0.7,0.8c1.3,0,2.7,0,4,0c43.3,0,86.5,0,129.8,0c4,0,8.1-0.8,12.1,1.7c1.6,1,4.5,0.9,6.9-0.8
			c-2.8-2-6.8,0.8-8.5-2.8c10.1,1.1,20.1,1,29.9-2c3.7-1.1,6.6,2,10.1,2c1.7,0.8,3.3,0.8,5,0l0,0C317.3,485.7,324.7,485.9,332,489z"
			/>
		<path class="st26" d="M337.7,507.5c3.4-1.1,7-0.2,10.5-0.5c1.4-0.1,3.3,0.6,4.2-0.7c0.8-1.2,1.4-1.7,2.5-0.7
			c0.4,0.4,0.8,1.1,0.7,1.7c-0.1,1.1-1.1,1.6-2.2,1.6c-5.2,0.1-10.5,0-15.7,0C337.7,508.5,337.7,508,337.7,507.5z"/>
		<path class="st43" d="M313,155c-0.4-0.8-1.2-1-2-1c1.7-1.7,3.8-1,5.7-1c103.4,0,206.8,0,310.2,0c5,0,9.6-1.3,14.7-2.4
			c-2.6-0.3-3.8-1.2-2.7-3.7c1,0.3,2,0.6,3,0.9c2,1.4,4,1.4,6,0c5.6,6.5,11.4,8.4,19.8,3.5c4.3-2.5,10.5,1.4,15.9,1.9
			c10.3,1.1,20.2,1.2,29.2-4.7c1.5,1.9,3.4,3.7,5.1,0.6c1.6-3,2.7,0,4,0c14.1-0.3,28.3-0.3,42.5-0.3c18.5,0,37,0,55.5,0
			c2,0,4.2,0.6,5.6-2.1c0.6-1.2,2.9-2.8,3.7,0.7c0.5,2,2.4,1.2,3.8,1.4c-0.2,2.2-2.4,2.4-3.7,3.2c-6.1,3.7-6.3,3.9-3.2,9.7
			c-1.4,1.5-3.1,2.2-5.2,2.2c-3.3-1.4-6.7-1.6-10.2-1.5c-17.2,0.2-34.4-1-51.4,0.5c-16.9,1.4-33.6-0.8-50.3-0.6
			c-7.2,0.1-14.5-0.8-21.6-2c-0.6-0.1-1.2-0.5-1.9-0.3c-10.3,3.4-12.7,3.5-22,0.2c-0.6-0.2-1.2-0.4-1.9-0.1
			c-7.6,3.2-15.7,2.4-23.6,2.4c-99.9,0.1-199.9,0-299.8,0c-3.1,0-6.4,0.8-9.1-1.5c0-0.6,0-1.2,0-1.8c-0.5-0.8-1.4-1.4-1.9-2.1
			c0-1.3-0.7-2-2-2C321,155.8,317,155.8,313,155z"/>
		<path class="st70" d="M826,161c-1.7-0.4-3.1-1.3-3.4-3c-0.5-2.8,0.7-4.3,3.5-5.3c2.4-0.8,4.6-2.4,6.9-3.7c1,0,2,0,3,0
			c1.5,1.2,3.5-0.2,5,1c6,1.4,11.8,4.1,18,4.9c-6,0.3-11.9,0.2-17.5-2.3c-5.2-2.4-9.9-2-14,2.6c0.5,1.5,5.5,1.3,2.6,4.8
			c-0.5,0.5-1.2,0.6-1.8,0.4c-0.6-0.1-1.3-1.7-1.9,0.1C826.2,160.7,826.1,160.9,826,161z"/>
		<path class="st43" d="M834.1,147.6c1.9-1.7,4.1-2.1,6.4-1.8c0.1,0,0.4,1.1,0.2,1.3C838.7,149,836.3,147.6,834.1,147.6z"/>
		<path class="st71" d="M841,150c-1.7-0.2-3.6,0.7-5-1c1.7,0,3.3,0,5,0C841,149.3,841,149.7,841,150z"/>
		<path class="st26" d="M144.2,487.3c21.5,0,43.6,0,65.7,0C201.1,490.4,146.3,489.2,144.2,487.3z"/>
		<path class="st26" d="M218,487c12.6,0,25.2,0,37.9,0c2,0,4.1-0.3,5.2,2c-10.3,0.3-20.5-2.1-30.9-0.3c-4.8,0.8-9.9,0.1-15.3,0.1
			C216.1,488.1,217,487.6,218,487z"/>
		<path class="st11" d="M81,479c-2.7-0.4-5.5,1-8-1c1-1.3,2.4-1,3.7-1c9.1,0,18.1,0,27.2,0.2C96.3,479.4,88.6,478.9,81,479z"/>
		<path class="st11" d="M129,479c-2.8,1-5.8,2.6-8-1c5.7-2.2,11.8,0,17.6-1.8c0.8-0.3,3.2,0.4,0.5,1.8
			C135.8,479.4,132.2,477.5,129,479z"/>
		<path class="st11" d="M114.8,475.2c-2.9-0.6-4.8,0.6-6.9,0.7c-1.1,0.1-2.6,0.2-2.6-1.5c0-1.6,1.6-1.8,2.6-1.3
			c3.6,1.9,7.5-1.5,11.1,0.7c0.7,0.4,1.6,0.4,1.8,1.3c0.1,0.7-0.2,1.4-0.9,1.5c-0.7,0.1-1.7,1-1.9-1
			C117.6,474.1,115.4,475.4,114.8,475.2z"/>
		<path class="st11" d="M38.1,474.3c8.5,0,17.1,0,25.6,0c0,0.1,0,0.3,0,0.4c-8.5,0-17.1,0-25.6,0C38.1,474.5,38.1,474.4,38.1,474.3z
			"/>
		<path class="st26" d="M241,473c-1.7,3.4-4.8,4.7-8,6c0.3-0.7,0.7-1.3,1-2c0.4-1.6,1.9-2.1,3-3C238.3,473.3,239.6,472.8,241,473z"
			/>
		<path class="st26" d="M141,483c1.5-2.4-1.9-2.4-2-4c1.9-0.1,3.8,0.3,4.3,2.3C143.7,482.7,142.1,482.9,141,483z"/>
		<path class="st26" d="M129,479c3.2-2.1,6.7-0.6,10-1c0,0.3,0,0.7,0,1C135.7,479,132.3,479,129,479z"/>
		<path class="st26" d="M223,484c-2.7,0-5.3,0-8,0C217.7,482.5,220.3,482.5,223,484z"/>
		<path class="st11" d="M237,474c-0.7,1.3-1.7,2.3-3,3C232.9,473.9,235.7,474.7,237,474z"/>
		<path class="st26" d="M231,481c-0.1,2-1.6,2-3,2C228.1,481,229.6,481,231,481z"/>
		<path class="st26" d="M134,488c0.1-2,1.4-3.1,3-4C136.9,486,135.6,487.1,134,488z"/>
		<path class="st11" d="M23.8,474c-0.9-0.1-2.5-0.1-2.5-0.3c-0.2-1.2,0.9-0.6,1.5-0.7c0.4-0.1,0.8,0.2,1.3,0.3
			C24,473.5,23.9,473.8,23.8,474z"/>
		<path class="st28" d="M956,199.7c2.5-0.6,4.9-1.4,8.3,0.8C960.8,200.2,958.4,200,956,199.7z"/>
		<path class="st71" d="M908.9,153.6c-1.2,2-0.3,3.2,1.5,4.4c2.4,1.6,2.6,2.7-0.1,5c-10.2,8.8-21.8,7.2-33.5,5.3
			c-2.8-0.5-6.2,0-7.9-3.2c-0.2-0.4-0.8-0.9-0.8-1.3c1.1-6.5-4.2-7.1-8.1-8.9c3.7-0.4,7.8-2.9,10,2.4c0.3,0.7,0.6,1,1.4,1
			c10-1.1,20.1-0.1,30.1-0.4c1.8-0.1,3.2-0.2,3.6-2.5c0.4-1.9,2.1-2.3,3.9-2.5C909,153.2,909,153.4,908.9,153.6z"/>
		<path class="st46" d="M908.9,153.6c0-0.2,0.1-0.4,0.1-0.6c1.1,0.1,2.3,0.4,3.4,0.4c3.6-0.2,7.4-1,8.4,4.2c0.1,0.7,1.5,1.2,2.7,2
			c0.4-2.3-2.9-3.9-0.5-6.4c1.7,4.5,5.2,5.2,9.4,4.8c4-0.3,8.6,1,11.8-0.7c2.6-1.4,5.1-2.6,8.4-3.5c-0.7,2.2-5.2,2.1-2.5,5.1
			c-1.7,0.4-4.3-1.2-5,1.9c-5.6,1.9-11.4,2.4-17.2,2.1c-4-0.2-7.9-1-10.2-5C915.7,154.8,911.5,155.7,908.9,153.6z"/>
		<path class="st46" d="M928.3,154.5c-0.1,1.3-0.6,1.4-1.1,1.3c-0.7-0.1-1.1-0.6-1.1-1.4c0-0.5,0.3-1,0.9-0.7
			C927.6,154,928.2,154.4,928.3,154.5z"/>
		<path class="st72" d="M94.3,489c-0.9,0.1-2.3-0.4-2.2-2.7c0.1-2.6,1.5-3.4,3.8-3.4c1.9,0,4.1,0.1,3.9,2.5
			C99.6,488,97.6,489,94.3,489z"/>
		<path class="st23" d="M70,184c-0.6-0.5-1.3-0.9-2.1-1.5c1.7-0.7,3.4-1.2,4.2,0.9C72.4,184,70.8,183.9,70,184L70,184z"/>
		<path class="st23" d="M9,182c-1.6,0-3.2,0-4.8,0C5.8,180.9,7.5,180.5,9,182C9,182,9,182,9,182z"/>
		<path class="st45" d="M953,163c2.5,0.1,5.3-1.8,7.9,1.5C957.8,164.6,955.3,164.5,953,163L953,163z"/>
		<path class="st24" d="M420,324c-6.7,0.8-13.5-1.6-20.1,1.6c-1,0.5-2.9-0.3-4-1.6c6.4-1,12.9-1.2,19.3-1
			C416.9,323.1,418.7,322.5,420,324z"/>
		<path class="st24" d="M395.1,324c-4.3,0-8.6,0-12.9,0.9c-1.6,0.4-3.7,0.7-5.2-0.9C383,322.4,389,322.4,395.1,324z"/>
		<path class="st24" d="M443,326c-6-0.6-12.1,1.2-18-1C431,325.6,437.1,323.7,443,326z"/>
		<path class="st24" d="M367.1,324c-3.1-0.4-5.9,1.8-9.2,0.7c1.1-0.6,2.2-1.2,3.2-1.7C363,323.3,365.3,322.3,367.1,324z"/>
		<path class="st24" d="M361,323c-2.6-0.4-5.5,1-8-0.9C355.7,322.4,358.5,321.1,361,323z"/>
		<path class="st24" d="M425,325c-1.7-0.2-3.6,0.7-5-1C421.7,324.2,423.6,323.4,425,325z"/>
		<path class="st73" d="M421.7,477.3c-2.5,2.1-0.1,7.3-4.7,8.6c-2,0.6-8.3-6.6-7.7-9.1c0.7-2.8,3.3-3.7,6.1-3.8
			C418.4,472.8,421,473.2,421.7,477.3z"/>
		<path class="st74" d="M352.5,478c1.9-0.1,3.6,0.7,3.4,3.3c-0.2,2.4-2.2,3.4-4.2,3.3c-1.9-0.1-4.2-1.3-4.3-3.4
			C347.4,478.5,349.8,478,352.5,478z"/>
		<path class="st75" d="M332,489c-2.9-0.1-5.9,0.4-8.6-1.6c-1.3-1-3.5-1-4.8,0c-2.7,2-5.7,1.5-8.6,1.6c0.8-0.8,1.5-2.3,2.3-2.4
			c6-0.7,12.1-1.6,18,0.7C331,487.5,331.5,488.4,332,489z"/>
		<path class="st76" d="M439.4,481.4c2.4-0.5,4.6-1.2,6,1.1c0.6,1-0.3,1.9-1.3,2.2C441.3,485.7,440.7,483.4,439.4,481.4z"/>
		<path class="st75" d="M310,489c-1.7,1.5-3.3,1.5-5,0C306.7,489,308.3,489,310,489z"/>
		<path class="st77" d="M657.1,213c2.6,0,5.3,0,7.9,0c-1.6,1.4-4.7,1.7-4,4.9c-5.1-0.8-10.3-1.6-16.2-2.6
			C649.1,212.5,653.6,215.5,657.1,213z"/>
		<path class="st66" d="M643.3,214.1c-0.2,0.3-0.5,1-0.7,1c-1,0-1.1-1-1.3-1.7c-0.2-0.6,0.2-0.9,0.8-0.7
			C642.7,212.9,643.4,213.1,643.3,214.1z"/>
		<path class="st66" d="M644.2,211c1.4-0.6,2.6,0,4.2,0.5C646.7,212.2,645.5,212.4,644.2,211z"/>
		<path class="st10" d="M174.9,225c1-1,2-2.1,3-3.1C178,223.9,177,224.9,174.9,225z"/>
		<path class="st10" d="M180.3,221.7c0.3,0.3,0.6,0.6,0.6,0.7c-0.2,0.6-0.4,1.3-0.8,1.7c-0.6,0.5-0.9-0.1-0.7-0.6
			C179.5,222.9,179.9,222.4,180.3,221.7z"/>
		<path class="st24" d="M422.5,326.6c-1.6,2-3.1,1.3-5,1.2C419.1,326.2,420.5,325.6,422.5,326.6z"/>
		<path class="st24" d="M345,326c2.7-1.5,5.3-1.5,8,0l0,0C350.3,326,347.7,326,345,326L345,326z"/>
		<path class="st24" d="M393,327.9c-2.2,0-4.5,0-6.7,0C388.5,327.3,390.8,326.3,393,327.9z"/>
		<path class="st24" d="M353,326c2.3,0,4.5,0,6.8,0C357.5,326.7,355.2,327.8,353,326L353,326z"/>
		<path class="st24" d="M345,326c-2.1,2-4.6,0.5-6.9,0C340.4,326,342.7,326,345,326L345,326z"/>
		<path class="st62" d="M648,148c-2.7,4.2-3.3,4.2-6,0C644,146.6,646,146.6,648,148z"/>
		<path class="st70" d="M328.9,161c105.6,0,211.2,0,316.8-0.1c4.5,0,9.3,0.5,13.3-1.6c2.8-1.4,4.6-3.7,6.1,1
			c0.2,0.5,1.8,0.6,2.7,0.6c5.3,0.1,10.6,0,15.9,0c0.9-2.5-2.5-1.4-2.3-3.2c1.3-1.4,2.5-0.5,3.9,0.2c3.9,2,7.9,3.5,12.1,0.6
			c0.4-0.3,1.6-0.3,1.8,0c2.8,4.1,7,2.4,10.6,2.4c12,0.2,24.1,1.1,36.1,1.5c6.7,0.2,13.7-1.4,20.6-1.4c14.5,0,29,0,43.5,0
			c2.3,0,4.7,0.8,6.8-0.8c1.3-0.9,1.8,0.1,2.1,1.1c0.4,1.8,1.7,1.8,3.1,1.8c-2.6,7.8-3.8,8.7-11.5,8.4c-6.5-0.2-13,0.2-19.5,0.4
			c-2.2,0.1-4.5,0.1-5.8,2.8c-1,2-3.5,1.7-5.4,1.7c-8,0-16,0.7-23.8-1.8c-1.3-0.4-3.5,0.4-3.3-1.9c0.2-1.8,2.1-0.9,3.3-1.1
			c0.7-0.1,1.3,0,1.8-0.6c-3.1-4.6-8.2-4-12.7-4.8c-4.2-0.8-8.5,0.3-12.7,1.4c-4,1-4,2.7-1.6,5.3c0,0.6,1.1,1.7-0.5,1.8
			c-3.9,0.2-7.9,0.3-11.8,0.3c-130.6,0-261.1,0-391.7,0c-2.7,0-5.8,0.8-7-3c-0.3-1.2,0.4-2.1,1.1-3c1.2-0.8,2.1-1.8,2.8-3
			C325.3,164,326.9,162.3,328.9,161z"/>
		<path class="st70" d="M327,157c1.4,0.1,2,0.8,1.9,2.1c-1.7-0.4-3.6,0.4-5.1-1.1C325,157.9,326.2,158.2,327,157z"/>
		<path class="st44" d="M324,166c-0.1,1.8-1,2.8-2.8,3C321.6,167.5,322.7,166.7,324,166z"/>
		<path class="st26" d="M873,496c0-0.3,0-0.7,0-1c3.6,0.5,7.5-1.1,11,1C880.3,496,876.7,496,873,496z"/>
		<path class="st44" d="M758,171c-1,1.7-3.1,0.5-4.3,1.5c8.9,3.3,18.1,2.5,27.3,2.6c2.4,0,3.7-0.4,4.3-3.3c0.5-2.4,4-1.6,5.8-1.5
			c8.1,0.4,16.1-1.2,24.2,0.4c2.1,0.4,2.9-2,3.4-2.7c1-1.8,2.6-3,3.4-4.8c1.6-0.2,3-0.7,4-2v0c0.5-0.7,0.9-1.6,2-1c0.7,0,1.4,0,2,0
			c-0.6,1.6-1.7,2.5-3.4,3.3c-2,1-7.4,1-2.4,5.7c1.3,1.2-0.6,3.4-2.6,3.8c-8.5,1.7-16.7,5.6-25.7,3.3c-0.9-0.2-2,0-2.9,0.2
			c-2.4,0.5-5.6,1.2-5.4,4c0.2,3,3.1,4,6,3.8c2.2-0.1,4.1,0.3,4.4,2.9c0.4,3.2-2.3,3.6-4.3,3.6c-8.5,0.3-17,0.5-25.4,0.1
			c-4.1-0.2-8.1,1.6-12.2,0.3c-3.6-1.1-4.5-2.7-2.2-5.7c2.6-3.4,0-5-1.9-7c-1.3-1.4-4.9-1.8-3.5-4.5c1.1-2.1,3.9-3,6.5-2.9
			C756,171,757,171,758,171z"/>
		<path class="st62" d="M313,155c4,0,8,0,12,0C321,156.6,317,156.6,313,155z"/>
		<path class="st43" d="M828,160c-0.7,0.3-1.3,0.7-2,1c-0.3-1.3-2.1-3,0.2-3.7C828.2,156.7,827.8,158.8,828,160z"/>
	</g>
</g>
</svg>
