<?xml version="1.0" encoding="utf-8"?>
<!-- Generator: Adobe Illustrator 19.0.1, SVG Export Plug-In . SVG Version: 6.00 Build 0)  -->
<svg version="1.1" id="Layer_1" xmlns="http://www.w3.org/2000/svg" xmlns:xlink="http://www.w3.org/1999/xlink" x="0px" y="0px"
	 viewBox="-109 342.5 392.6 109.5" style="enable-background:new -109 342.5 392.6 109.5;" xml:space="preserve">
<style type="text/css">
	.st0{fill:#E67A1E;}
	.st1{fill:none;stroke:#E67A1E;stroke-width:0.7991;}
</style>
<path d="M70.8,368.6h-3.1c-2.3-17.2-12.9-21.9-27.7-21.9h-8.9v35.5c11.8,0,19.8-1.2,19.8-16.9H54v37.1h-3.1c0-15.7-8-16.9-19.8-16.9
	V420h10.7v3.4H4.7V420h10.1v-73.3H4.7v-3.3h66.1V368.6z"/>
<path d="M92.1,424.7c-16.2,0-27.2-11.2-27.2-28.7c0-16.6,11.2-28.7,27.2-28.7s27.2,12.2,27.2,28.7S108.1,424.7,92.1,424.7z
	 M92.1,370.5c-10.9,0-10.9,12.3-10.9,25.4s0,25.4,10.9,25.4S103,409,103,395.9S103,370.5,92.1,370.5z"/>
<path d="M173.8,406.8c-3.4,11-10.2,17.9-22,17.9c-16.2,0-27.2-11.2-27.2-28.7c0-16.6,11.2-28.7,27.2-28.7c8.2,0,20.2,2.1,20.2,14.4
	c0,4.1-2.4,6.3-6.2,6.3c-6.1,0-7.6-3.5-7.6-9.4c0-5-2-7.9-6.4-7.9c-10.9,0-10.9,12.3-10.9,25.4c0,10.4,1,24.1,13.9,24.1
	c8.9,0,13.3-6.6,16.1-14.5L173.8,406.8z"/>
<path d="M233.8,420h7.5v3.4c-10.3,0.1-16.3,0.2-22.6,0.7v-8.6h-0.2c-3.6,6.2-10.2,9.2-16.7,9.2c-10.6,0-18-4-18-18.5v-34.3h-7.5
	v-3.4h6.5c5.3,0,10.8-0.2,16.1-0.7v41.7c0,8.6,3.9,9.7,8.2,9.7c6.7,0,11.6-5.9,11.6-17.9v-29.4h-7.5v-3.4h6.5
	c5.3,0,10.8-0.2,16.1-0.7V420z"/>
<path d="M244.1,402.6h3.1c0.4,10.1,6.6,18.7,15.7,18.7c5.3,0,10.6-2.2,10.6-8.1c0-12.9-28.7-7.2-28.7-28.9
	c0-11.5,8.3-17.2,18.4-17.2c7.9,0,12.2,1.9,16.2,3.6v14.4h-3.1c-0.7-7.7-6.3-14.6-13.8-14.6c-4.2,0-7.6,2.4-7.6,6.9
	c0,11.4,28.7,6.2,28.7,28.1c0,12.4-10.5,19.1-21.1,19.1c-8,0-14.6-2.5-18.4-3.9V402.6z"/>
<path d="M-109,420h7.5v-48.1h-7.5v-3.4h6.5c5.3,0,10.8-0.2,16.1-0.7v52.1h7.5v3.4H-109V420z"/>
<path d="M-78.2,420h7.5v-48.1h-7.5v-3.4h6.5c5.3,0,10.8-0.2,16.1-0.7v8.3h0.2c3.6-5.9,9.3-8.9,16.7-8.9c10.6,0,18,6,18,18.5V420h7.5
	v3.4h-30.1V420h7.5v-36.6c0-8.7-3.9-10.9-8.2-10.9c-5.9,0-11.6,6-11.6,15.4v32h7.6v3.4h-30.2V420z"/>
<circle class="st0" cx="-93.8" cy="351.7" r="9.2"/>
<path class="st0" d="M10.6,436.6l2.2,6.6H8.4L10.6,436.6z M9.5,435l-4.6,13.4h1.7l1.2-3.7h5.4l1.2,3.7h1.8L11.6,435H9.5z"/>
<path class="st0" d="M42.5,444.3c-0.3,0.7-0.8,1.3-1.4,1.7c-0.5,0.3-1,0.6-1.6,0.7c-0.6,0.1-1.3,0.2-2.1,0.2h-1.6v-10.4h1.6
	c0.8,0,1.4,0.1,2,0.2c0.6,0.1,1.1,0.3,1.6,0.6c0.7,0.4,1.2,1,1.5,1.7c0.3,0.7,0.5,1.6,0.5,2.7C42.9,442.7,42.8,443.6,42.5,444.3z
	 M44,438.3c-0.5-0.9-1.1-1.7-2-2.3c-0.5-0.3-1.1-0.6-1.8-0.8c-0.7-0.2-1.7-0.3-2.9-0.3h-3.1v13.4h3.2c1.1,0,2.1-0.1,2.8-0.3
	s1.3-0.4,1.9-0.8c0.8-0.5,1.5-1.3,2-2.3s0.7-2.1,0.7-3.3C44.7,440.4,44.4,439.3,44,438.3z"/>
<path class="st0" d="M71.4,435h1.7l-4.6,13.4h-2.2L61.7,435h1.8l3.9,11.8L71.4,435z"/>
<path class="st0" d="M99.1,446.8v1.6h-8.3V435h8.3v1.6h-6.6v3.7h6.6v1.6h-6.6v5h6.6V446.8z"/>
<path class="st0" d="M123.9,440c-0.1,0.3-0.3,0.6-0.6,0.9c-0.3,0.3-0.6,0.5-1,0.6s-0.9,0.1-1.4,0.1h-1.7v-5.1h2c0.4,0,0.8,0,1.2,0.1
	c0.3,0.1,0.6,0.2,0.9,0.4c0.3,0.2,0.5,0.5,0.6,0.8c0.1,0.3,0.2,0.6,0.2,1C124.1,439.3,124.1,439.7,123.9,440z M125.2,441.1
	c0.5-0.6,0.7-1.5,0.7-2.4c0-0.7-0.1-1.3-0.4-1.8c-0.3-0.5-0.6-0.9-1.1-1.2c-0.4-0.3-0.9-0.5-1.4-0.6s-1.1-0.2-1.9-0.2h-3.5v13.4h1.7
	V443h2.4l4.2,5.3h2.2l-4.7-5.9C124.1,442.2,124.7,441.7,125.2,441.1z"/>
<path class="st0" d="M153.9,435v1.6h-4.5v11.8h-1.7v-11.8h-4.5V435H153.9z"/>
<path class="st0" d="M175.9,447v1.4h-5V447h1.6v-10.6H171V435h5v1.4h-1.6v10.7h1.5V447z"/>
<path class="st0" d="M203.7,444.6c0,0.5-0.1,1-0.3,1.5c-0.2,0.5-0.5,0.9-1,1.3s-1,0.7-1.6,0.9c-0.6,0.2-1.3,0.3-2.2,0.3
	c-0.9,0-1.7-0.1-2.4-0.3c-0.7-0.2-1.5-0.4-2.2-0.8v-2.2h0.1c0.6,0.6,1.4,1,2.2,1.3c0.8,0.3,1.6,0.5,2.3,0.5c1,0,1.8-0.2,2.4-0.6
	c0.6-0.4,0.9-1,0.9-1.7c0-0.6-0.1-1-0.4-1.3c-0.3-0.3-0.7-0.5-1.2-0.7c-0.4-0.1-0.9-0.2-1.4-0.3c-0.5-0.1-1-0.2-1.6-0.3
	c-1.1-0.3-1.9-0.7-2.5-1.3c-0.5-0.6-0.8-1.4-0.8-2.4c0-1.1,0.4-2,1.3-2.8c0.9-0.7,2-1.1,3.4-1.1c0.9,0,1.7,0.1,2.4,0.3
	c0.7,0.2,1.4,0.4,2,0.7v2.1H203c-0.5-0.4-1.1-0.8-1.9-1.1c-0.8-0.3-1.6-0.4-2.4-0.4c-0.9,0-1.6,0.2-2.2,0.6
	c-0.5,0.4-0.8,0.9-0.8,1.5c0,0.6,0.1,1,0.4,1.3c0.3,0.3,0.7,0.6,1.4,0.7c0.4,0.1,0.9,0.2,1.5,0.3c0.7,0.1,1.2,0.2,1.7,0.4
	c0.9,0.3,1.6,0.7,2.1,1.2C203.5,442.9,203.7,443.6,203.7,444.6z"/>
<path class="st0" d="M226.7,447v1.4h-5V447h1.6v-10.6h-1.6V435h5v1.4h-1.6v10.7h1.6V447z"/>
<path class="st0" d="M255,435v13.4h-2.1l-5.9-12v12h-1.6V435h2.6l5.4,10.9V435H255z"/>
<path class="st0" d="M282.9,441.7v5.7c-0.7,0.3-1.4,0.6-2.2,0.9c-0.8,0.2-1.6,0.4-2.4,0.4c-1,0-1.9-0.1-2.7-0.4
	c-0.8-0.3-1.5-0.7-2.1-1.3s-1-1.3-1.3-2.2s-0.5-1.9-0.5-3.1c0-2.1,0.6-3.8,1.8-5.1c1.2-1.2,2.8-1.9,4.8-1.9c0.7,0,1.4,0.1,2.2,0.3
	c0.7,0.2,1.5,0.5,2.4,0.9v2.1h-0.2c-0.2-0.1-0.4-0.3-0.8-0.6c-0.3-0.2-0.7-0.4-1-0.6c-0.4-0.2-0.8-0.3-1.3-0.5
	c-0.5-0.1-1-0.2-1.7-0.2c-1.4,0-2.5,0.5-3.3,1.4c-0.8,1-1.2,2.3-1.2,3.9c0,1.7,0.4,3.1,1.3,4c0.9,1,2,1.4,3.5,1.4
	c0.5,0,1.1-0.1,1.6-0.2s1-0.3,1.4-0.4v-3.3h-3.4v-1.6h5.1V441.7z"/>
<line class="st1" x1="5.4" y1="430.9" x2="282.5" y2="430.9"/>
<line class="st1" x1="5.4" y1="451.6" x2="282.5" y2="451.6"/>
</svg>
