<?xml version="1.0" encoding="utf-8"?>
<!-- Generator: Adobe Illustrator 19.1.0, SVG Export Plug-In . SVG Version: 6.00 Build 0)  -->
<svg version="1.1" id="Layer_1" xmlns="http://www.w3.org/2000/svg" xmlns:xlink="http://www.w3.org/1999/xlink" x="0px" y="0px"
	 viewBox="0 0 392.6 109.5" style="enable-background:new 0 0 392.6 109.5;" xml:space="preserve">
<style type="text/css">
	.Arched_x0020_Green{fill:url(#SVGID_1_);stroke:#FFFFFF;stroke-width:0.25;stroke-miterlimit:1;}
	.st0{fill:#77787B;}
	.st1{fill:#E67A1E;}
	.st2{fill:none;stroke:#E67A1E;stroke-width:0.7991;}
</style>
<linearGradient id="SVGID_1_" gradientUnits="userSpaceOnUse" x1="-113.2554" y1="425.2568" x2="-112.5483" y2="424.5497">
	<stop  offset="0" style="stop-color:#20AC4B"/>
	<stop  offset="0.9831" style="stop-color:#19361A"/>
</linearGradient>
<path class="st0" d="M179.8,26.1h-3.1C174.4,8.9,163.8,4.2,149,4.2h-8.9v35.5c11.8,0,19.8-1.2,19.8-16.9h3.1v37.1h-3.1
	c0-15.7-8-16.9-19.8-16.9v34.5h10.7v3.4h-37.1v-3.4h10.1V4.2h-10.1V0.9h66.1V26.1z"/>
<path class="st0" d="M201.1,82.2c-16.2,0-27.2-11.2-27.2-28.7c0-16.6,11.2-28.7,27.2-28.7c16,0,27.2,12.2,27.2,28.7
	C228.3,70,217.1,82.2,201.1,82.2z M201.1,28c-10.9,0-10.9,12.3-10.9,25.4c0,13.1,0,25.4,10.9,25.4c10.9,0,10.9-12.3,10.9-25.4
	C212,40.3,212,28,201.1,28z"/>
<path class="st0" d="M282.8,64.3c-3.4,11-10.2,17.9-22,17.9c-16.2,0-27.2-11.2-27.2-28.7c0-16.6,11.2-28.7,27.2-28.7
	c8.2,0,20.2,2.1,20.2,14.4c0,4.1-2.4,6.3-6.2,6.3c-6.1,0-7.6-3.5-7.6-9.4c0-5-2-7.9-6.4-7.9c-10.9,0-10.9,12.3-10.9,25.4
	c0,10.4,1,24.1,13.9,24.1c8.9,0,13.3-6.6,16.1-14.5L282.8,64.3z"/>
<path class="st0" d="M342.8,77.5h7.5v3.4c-10.3,0.1-16.3,0.2-22.6,0.7V73h-0.2c-3.6,6.2-10.2,9.2-16.7,9.2c-10.6,0-18-4-18-18.5
	V29.4h-7.5V26h6.5c5.3,0,10.8-0.2,16.1-0.7v41.7c0,8.6,3.9,9.7,8.2,9.7c6.7,0,11.6-5.9,11.6-17.9V29.4h-7.5V26h6.5
	c5.3,0,10.8-0.2,16.1-0.7V77.5z"/>
<path class="st0" d="M353.1,60.1h3.1c0.4,10.1,6.6,18.7,15.7,18.7c5.3,0,10.6-2.2,10.6-8.1c0-12.9-28.7-7.2-28.7-28.9
	c0-11.5,8.3-17.2,18.4-17.2c7.9,0,12.2,1.9,16.2,3.6v14.4h-3.1C384.6,34.9,379,28,371.5,28c-4.2,0-7.6,2.4-7.6,6.9
	c0,11.4,28.7,6.2,28.7,28.1c0,12.4-10.5,19.1-21.1,19.1c-8,0-14.6-2.5-18.4-3.9V60.1z"/>
<path class="st0" d="M0,77.5h7.5V29.4H0V26h6.5c5.3,0,10.8-0.2,16.1-0.7v52.1h7.5v3.4H0V77.5z"/>
<path class="st0" d="M30.8,77.5h7.5V29.4h-7.5V26h6.5c5.3,0,10.8-0.2,16.1-0.7v8.3h0.2c3.6-5.9,9.3-8.9,16.7-8.9
	c10.6,0,18,6,18,18.5v34.3h7.5v3.4H65.7v-3.4h7.5V40.9c0-8.7-3.9-10.9-8.2-10.9c-5.9,0-11.6,6-11.6,15.4v32H61v3.4H30.8V77.5z"/>
<circle class="st1" cx="15.2" cy="9.2" r="9.2"/>
<path class="st1" d="M119.6,94.1l2.2,6.6h-4.4L119.6,94.1z M118.5,92.5l-4.6,13.4h1.7l1.2-3.7h5.4l1.2,3.7h1.8l-4.6-13.4H118.5z"/>
<path class="st1" d="M151.5,101.8c-0.3,0.7-0.8,1.3-1.4,1.7c-0.5,0.3-1,0.6-1.6,0.7c-0.6,0.1-1.3,0.2-2.1,0.2h-1.6V94h1.6
	c0.8,0,1.4,0.1,2,0.2c0.6,0.1,1.1,0.3,1.6,0.6c0.7,0.4,1.2,1,1.5,1.7c0.3,0.7,0.5,1.6,0.5,2.7C151.9,100.2,151.8,101.1,151.5,101.8z
	 M153,95.8c-0.5-0.9-1.1-1.7-2-2.3c-0.5-0.3-1.1-0.6-1.8-0.8c-0.7-0.2-1.7-0.3-2.9-0.3h-3.1v13.4h3.2c1.1,0,2.1-0.1,2.8-0.3
	c0.7-0.2,1.3-0.4,1.9-0.8c0.8-0.5,1.5-1.3,2-2.3c0.5-1,0.7-2.1,0.7-3.3C153.7,97.9,153.4,96.8,153,95.8z"/>
<path class="st1" d="M180.4,92.5h1.7l-4.6,13.4h-2.2l-4.6-13.4h1.8l3.9,11.8L180.4,92.5z"/>
<path class="st1" d="M208.1,104.3v1.6h-8.3V92.5h8.3v1.6h-6.6v3.7h6.6v1.6h-6.6v5H208.1z"/>
<path class="st1" d="M232.9,97.5c-0.1,0.3-0.3,0.6-0.6,0.9c-0.3,0.3-0.6,0.5-1,0.6c-0.4,0.1-0.9,0.1-1.4,0.1h-1.7V94h2
	c0.4,0,0.8,0,1.2,0.1c0.3,0.1,0.6,0.2,0.9,0.4c0.3,0.2,0.5,0.5,0.6,0.8c0.1,0.3,0.2,0.6,0.2,1C233.1,96.8,233.1,97.2,232.9,97.5z
	 M234.2,98.6c0.5-0.6,0.7-1.5,0.7-2.4c0-0.7-0.1-1.3-0.4-1.8c-0.3-0.5-0.6-0.9-1.1-1.2c-0.4-0.3-0.9-0.5-1.4-0.6
	c-0.5-0.1-1.1-0.2-1.9-0.2h-3.5v13.4h1.7v-5.3h2.4l4.2,5.3h2.2l-4.7-5.9C233.1,99.7,233.7,99.2,234.2,98.6z"/>
<path class="st1" d="M262.9,92.5v1.6h-4.5v11.8h-1.7V94.1h-4.5v-1.6H262.9z"/>
<path class="st1" d="M284.9,104.5v1.4h-5v-1.4h1.6V93.9H280v-1.4h5v1.4h-1.6v10.7H284.9z"/>
<path class="st1" d="M312.7,102.1c0,0.5-0.1,1-0.3,1.5c-0.2,0.5-0.5,0.9-1,1.3c-0.5,0.4-1,0.7-1.6,0.9c-0.6,0.2-1.3,0.3-2.2,0.3
	c-0.9,0-1.7-0.1-2.4-0.3c-0.7-0.2-1.5-0.4-2.2-0.8v-2.2h0.1c0.6,0.6,1.4,1,2.2,1.3c0.8,0.3,1.6,0.5,2.3,0.5c1,0,1.8-0.2,2.4-0.6
	c0.6-0.4,0.9-1,0.9-1.7c0-0.6-0.1-1-0.4-1.3c-0.3-0.3-0.7-0.5-1.2-0.7c-0.4-0.1-0.9-0.2-1.4-0.3c-0.5-0.1-1-0.2-1.6-0.3
	c-1.1-0.3-1.9-0.7-2.5-1.3c-0.5-0.6-0.8-1.4-0.8-2.4c0-1.1,0.4-2,1.3-2.8c0.9-0.7,2-1.1,3.4-1.1c0.9,0,1.7,0.1,2.4,0.3
	c0.7,0.2,1.4,0.4,2,0.7v2.1h-0.1c-0.5-0.4-1.1-0.8-1.9-1.1c-0.8-0.3-1.6-0.4-2.4-0.4c-0.9,0-1.6,0.2-2.2,0.6
	c-0.5,0.4-0.8,0.9-0.8,1.5c0,0.6,0.1,1,0.4,1.3c0.3,0.3,0.7,0.6,1.4,0.7c0.4,0.1,0.9,0.2,1.5,0.3c0.7,0.1,1.2,0.2,1.7,0.4
	c0.9,0.3,1.6,0.7,2.1,1.2C312.5,100.4,312.7,101.1,312.7,102.1z"/>
<path class="st1" d="M335.7,104.5v1.4h-5v-1.4h1.6V93.9h-1.6v-1.4h5v1.4h-1.6v10.7H335.7z"/>
<path class="st1" d="M364,92.5v13.4h-2.1l-5.9-12v12h-1.6V92.5h2.6l5.4,10.9V92.5H364z"/>
<path class="st1" d="M391.9,99.2v5.7c-0.7,0.3-1.4,0.6-2.2,0.9c-0.8,0.2-1.6,0.4-2.4,0.4c-1,0-1.9-0.1-2.7-0.4
	c-0.8-0.3-1.5-0.7-2.1-1.3c-0.6-0.6-1-1.3-1.3-2.2c-0.3-0.9-0.5-1.9-0.5-3.1c0-2.1,0.6-3.8,1.8-5.1c1.2-1.2,2.8-1.9,4.8-1.9
	c0.7,0,1.4,0.1,2.2,0.3c0.7,0.2,1.5,0.5,2.4,0.9v2.1h-0.2c-0.2-0.1-0.4-0.3-0.8-0.6c-0.3-0.2-0.7-0.4-1-0.6
	c-0.4-0.2-0.8-0.3-1.3-0.5c-0.5-0.1-1-0.2-1.7-0.2c-1.4,0-2.5,0.5-3.3,1.4c-0.8,1-1.2,2.3-1.2,3.9c0,1.7,0.4,3.1,1.3,4
	c0.9,1,2,1.4,3.5,1.4c0.5,0,1.1-0.1,1.6-0.2c0.5-0.1,1-0.3,1.4-0.4v-3.3h-3.4v-1.6H391.9z"/>
<line class="st2" x1="114.4" y1="88.4" x2="391.5" y2="88.4"/>
<line class="st2" x1="114.4" y1="109.1" x2="391.5" y2="109.1"/>
</svg>
