<?xml version="1.0" encoding="utf-8"?>
<!-- Generator: Adobe Illustrator 19.0.1, SVG Export Plug-In . SVG Version: 6.00 Build 0)  -->
<svg version="1.1" id="Layer_1" xmlns="http://www.w3.org/2000/svg" xmlns:xlink="http://www.w3.org/1999/xlink" x="0px" y="0px"
	 viewBox="0 0 2040 483" style="enable-background:new 0 0 2040 483;" xml:space="preserve">
<style type="text/css">
	.st0{fill:#FFFFFF;}
</style>
<g>
	<path class="st0" d="M0,57c1.7,0,3.5,0,5.2,0c204.2,0,408.5,0,612.7,0c1.7,0,3.3-0.2,6-0.3c-1.3-1.7-2-2.6-2.7-3.5
		c-3.1-3.4-6.5-6.6-9.3-10.3c-12.5-16.8-4.1-37.8,16.7-42.2c0.7-0.1,1.4-0.5,2-0.7c42,0,84,0,126,0c0,9.4,0,18.7,0,28.5
		c-12.8,0-25.3,0-38.2,0c0,19.9,0,39.3,0,59c-10.6,0-20.9,0-31.4,0c0-19.5,0-39,0-58.7c-14,0-27.8,0-42.4,0c1.3,1.5,2.2,2.6,3.1,3.6
		c2.7,2.9,5.5,5.8,8.2,8.8c8.2,9.2,10.2,19.7,5.2,30.9c-4.9,11-14.2,15.6-25.9,15.6c-211.7,0-423.5,0-635.2,0C0,77.5,0,67.2,0,57z"
		/>
	<path class="st0" d="M2040,427.5c-1.5,0.1-3,0.3-4.5,0.3c-298.6,0-597.2,0-895.9,0.1c-3.4,0-5.4-0.9-7.1-3.9
		c-4.5-7.8-9.5-15.3-14.2-22.9c-0.6-1-1.1-2.1-2-3.7c1.9,0,3.3,0,4.6,0c305,0,610,0,915,0c1.4,0,2.7,0.1,4.1,0.2
		C2040,407.5,2040,417.5,2040,427.5z"/>
	<path class="st0" d="M1419.8,0c0,9.3,0,18.7,0,28.5c-15.1,0-29.7,0-45.4,0c1.4,1.7,2.1,2.6,2.9,3.5c3.2,3.5,6.6,6.9,9.6,10.5
		c13.2,15.6,6.3,38.9-13.1,44.1c-2.7,0.7-5.7,1.1-8.5,1.1c-21.7,0.1-43.5,0.1-65.2,0c-8,0-15.2-2.4-20.8-8.5
		c-5.1-5.6-10.5-11-15.8-16.5c-0.3,0.2-0.7,0.4-1,0.5c0,8,0,16,0,24.2c-11.7,0-23,0-34.8,0c0-29.1,0-58.3,0-87.5
		c21.3,0,42.5,0,63.8,0c3.2,1,6.5,1.7,9.5,2.9c9.5,4,16,10.6,17.5,21.1c1.6,11.5-1.9,20.9-12,27.3c-1.3,0.8-2.6,1.8-3.9,2.6
		c0,0.5,0,0.9,0,1.4c2.1,0.5,4.2,1.4,6.3,1.5c13.6,0.1,27.2,0.1,40.8,0.1c1.1,0,2.1-0.2,4.1-0.4c-1.2-1.6-1.8-2.5-2.5-3.4
		c-2.6-2.9-5.4-5.6-7.9-8.5c-13.5-15.5-7.5-36.9,12-43.1c1.7-0.6,3.5-1.1,5.2-1.6C1380.3,0,1400,0,1419.8,0z M1262.9,36
		c6.9,0,13.5,0.1,20.1-0.1c2.9-0.1,4.5-2.2,4.6-5c0.2-3.2-1.6-5.7-4.6-5.9c-6.7-0.4-13.4-0.1-20.1-0.1
		C1262.9,28.7,1262.9,32,1262.9,36z"/>
	<path class="st0" d="M1125,0c-1.7,6.1-3.3,12.2-5.2,18.2c-7,23.1-14.2,46.1-21.3,69.4c-9.9,0-19.7,0-29.8,0
		c-3.3-10.8-6.7-21.7-10-32.6c-0.3,0-0.5-0.1-0.8-0.1c-3.5,10.9-6.9,21.8-10.4,32.8c-9.9,0-19.6,0-29.6,0
		c-9.1-29.2-18.2-58.4-27.2-87.6c12,0,24,0,36,0c2.1,7.7,4.2,15.4,6.4,23.1c0.4,0,0.7,0,1.1,0c2-7.7,4-15.4,6-23.1
		c12.3,0,24.5,0,36.8,0c2.5,7.8,5,15.5,7.4,23.3c0.2,0,0.5,0,0.7-0.1c2.3-7.7,4.6-15.5,6.8-23.2C1103,0,1114,0,1125,0z"/>
	<path class="st0" d="M917.3,0c4,1.3,8.2,2.1,12,3.9c20.5,9.7,20.6,37.2,3.5,47.3c-1.4,0.8-2.6,1.8-4.2,2.9c1.5,2.8,4,2.8,6.4,2.8
		c12.6,0,25.2,0,37.8,0c1.3,0,2.7,0,4.2,0c0,10.4,0,20.4,0,30.8c-1.5,0-2.8,0-4.2,0c-15.2,0-30.5,0-45.7,0c-8.6,0-16.1-2.4-22.1-9
		c-4.9-5.5-10.1-10.7-15.2-16c-0.4,0.2-0.7,0.3-1.1,0.5c0,8,0,16,0,24.2c-11.9,0-23.3,0-35.2,0c0-29.1,0-58.3,0-87.5
		C874.8,0,896,0,917.3,0z M888.9,36c6.9,0,13.5,0.1,20-0.1c2.6-0.1,4.3-1.7,4.6-4.5c0.3-3.2-0.8-6-3.9-6.2
		c-6.9-0.5-13.8-0.1-20.7-0.1C888.9,28.7,888.9,32.1,888.9,36z"/>
	<path class="st0" d="M820.5,0c3.4,11.1,6.7,22.1,10.1,33.2c5.4,17.5,10.9,34.9,16.4,52.4c0.2,0.6,0.3,1.2,0.6,2.2
		c-10.4,0-20.5,0-30.5-0.1c-0.6,0-1.3-0.8-1.8-1.4c-0.3-0.3-0.4-0.9-0.5-1.4c-1.1-3.2-1.3-7.6-3.5-9.2c-2.4-1.7-6.7-0.7-10.1-0.7
		c-6.5-0.1-13,0-19.9,0c-1.1,3.5-2.1,7-3.5,10.4c-0.4,1-1.8,2.2-2.7,2.2c-10,0.2-20,0.1-30.5,0.1c2.8-9.1,5.5-17.9,8.1-26.6
		c6-19.5,11.9-39,17.9-58.6c0.3-0.8,0.3-1.7,0.5-2.5C787.5,0,804,0,820.5,0z M804.4,51.2c-2.5-8.1-5-15.9-7.4-23.6
		c-0.3,0-0.5,0.1-0.8,0.1c-2.4,7.8-4.8,15.5-7.3,23.5C794.2,51.2,799,51.2,804.4,51.2z"/>
	<path class="st0" d="M1189.5,0c4.2,13,8.4,26,12.5,39.1c4.8,15.1,9.4,30.2,14.2,45.2c0.3,1.1,0.6,2.1,0.9,3.3
		c-10.7,0-21.1,0-31.9,0c-1.1-3.4-2.1-6.9-3.4-10.2c-0.4-1-1.7-2.3-2.6-2.3c-9.5-0.2-19-0.1-28.6-0.1c-1.4,4.3-2.8,8.4-4.1,12.6
		c-10.7,0-21.3,0-32.4,0c8.9-29.4,17.8-58.5,26.6-87.6C1157,0,1173.3,0,1189.5,0z M1173.9,51.2c-2.6-8.2-5-15.9-7.5-23.7
		c-0.2,0.1-0.5,0.1-0.7,0.2c-2.4,7.8-4.8,15.6-7.3,23.6C1163.8,51.2,1168.6,51.2,1173.9,51.2z"/>
	<path class="st0" d="M938.3,483c7-11.3,14.1-22.6,21.5-34.4c-5.5,0-10.3,0-15.8,0c3.5-5.6,6.6-10.7,9.9-15.6
		c0.4-0.7,1.6-1.3,2.4-1.3c22-0.1,44-0.1,66.9-0.1c-3.6,5.8-6.8,11-10.2,16.1c-0.5,0.7-2.3,0.7-3.4,0.7c-8.9,0.1-17.7,0.1-26.6,0
		c-2.3,0-3.6,0.6-4.8,2.6c-2.7,4.7-5.7,9.3-8.9,14.5c1.6,0.1,2.7,0.2,3.9,0.2c13.9,0,27.7-0.1,41.6,0.1c2.6,0,4-0.8,5.3-3
		c12.8-20.7,25.7-41.3,38.6-62c0.7-1.1,1.3-2.1,2.3-3.5c5.7,9.1,11.2,17.9,16.7,26.7c11.6,18.5,23.2,37,34.7,55.6
		c0.6,1,1,2.2,1.5,3.3c-6.5,0-13,0-19.5,0c-2.9-4.7-5.9-9.3-8.5-14c-1.4-2.5-3.1-3.3-5.9-3.3c-8.9,0.2-17.9,0.1-27.5,0.1
		c2.2-3.5,4.3-6.3,5.8-9.4c2.7-5.7,6.3-9.3,13.1-7.8c0.3,0.1,0.7-0.2,1.5-0.4c-4-6.3-7.8-12.4-11.8-18.9c-1.1,1.6-1.8,2.7-2.6,3.8
		c-7,11.2-14,22.4-21,33.6c-3.3,5.4-6.5,10.8-9.8,16.3C997.8,483,968,483,938.3,483z"/>
	<path class="st0" d="M0.9,427.8c0-10.4,0-20.2,0-30.3c307.7,0,615.2,0,923.1,0c-0.5,1-0.9,1.8-1.4,2.6c-5.2,8.4-10.3,16.8-15.7,25
		c-0.8,1.3-2.8,2-4.4,2.5c-1.1,0.4-2.5,0.1-3.7,0.1c-297.3,0-594.7,0-892,0C4.9,427.8,3.1,427.8,0.9,427.8z"/>
	<path class="st0" d="M1389,87.5c9.1-8.4,13-18.4,12.1-30.4c212.8,0,425.3,0,638.1,0c0,10.1,0,20.1,0,30.4
		C1822.7,87.5,1606.2,87.5,1389,87.5z"/>
	<path class="st0" d="M1611.5,235.7c-0.5,36.8-11.2,66.1-36.6,89c-17.1,15.4-37.5,23.7-60.3,26.6c-23.2,3-45.9,1.1-67.5-8.2
		c-32.1-13.9-51.3-38.9-59.2-72.5c-8.5-36.3-1.2-69.6,22.5-98.6c15.6-19.1,36.5-30,60.6-34.4c27-5,53.7-3.8,79.5,6.4
		c33.5,13.3,53,38.2,59,73.7C1610.7,224.6,1611.1,231.7,1611.5,235.7z M1573,249.9c-0.3-5.4-0.6-10.7-1.1-16.1
		c-1.7-18.7-6.8-36.3-17.6-51.8c-18.1-26-43.3-37.5-74.7-33.3c-26.1,3.5-42.8,19.2-50.8,43.9c-7.9,24.4-8.1,49.3-2.6,74.2
		c4.5,20.2,13.3,38.2,28.9,52.2c18.1,16.2,39.6,22.5,63.5,18.9c21.1-3.2,35.6-15.9,44.4-35.1C1570.7,286,1572.7,268.1,1573,249.9z"
		/>
	<path class="st0" d="M1657.7,195.3c0.2,3.4,0.4,6.9,0.5,10.3c0.5,21.2,1,42.5,1.6,63.7c0.5,17.1,0.9,34.2,1.6,51.3
		c0.1,3.5,0.8,6.9,1.6,10.3c2.1,8.9,6.1,12,15.6,12.5c3.3,0.2,6.7,0.4,10.2,0.6c0,1.5,0,2.9,0,4.4c-24.6,0-49.1,0-73.9,0
		c0-1.4,0-2.7,0-4.3c4.3-0.4,8.6-0.9,12.9-1.3c4.9-0.5,7.8-3.5,8.6-8.1c1-6.4,2-12.8,2.1-19.3c0.7-40.9,1.3-81.7,1.6-122.6
		c0.1-9.7-0.1-19.5-1.5-29c-1.9-13-7.9-17.3-22.5-19.1c-5.1-0.6-5.1-0.4-4.5-5.9c1.1-0.1,2.3-0.2,3.5-0.2c10,0,20,0.2,30-0.1
		c3.8-0.1,6.2,1.2,8.7,3.8c20.4,21.3,40.9,42.5,61.5,63.7c27.6,28.4,55.2,56.8,82.9,85.2c1.4,1.5,3,2.8,5.3,5
		c0.1-2.2,0.2-3.4,0.2-4.6c-1-40.8-1.9-81.7-3-122.5c-0.1-5-0.5-10-1.6-14.8c-1.4-6.3-5.7-9.7-12.2-10.3c-3.7-0.4-7.4-0.6-11.3-1
		c0-1.4,0-2.7,0-4.2c23.6,0,47,0,70.7,0c0,1.4,0,2.7,0,4.1c-3.4,0.3-6.8,0.5-10.1,0.9c-7.1,0.7-11,4-12.1,11.1
		c-0.8,5.2-1.3,10.4-1.4,15.6c-0.7,38.2-1.1,76.5-1.8,114.7c-0.3,20-0.9,40-1.3,60c0,1.1,0,2.3-0.3,3.4c-0.7,2.9-2.6,4-5.3,2.7
		c-2-1-3.8-2.4-5.4-3.9c-49.5-49.1-99.5-97.8-146.7-149.2c-1.1-1.2-1.9-2.6-2.9-3.9C1658.7,194.7,1658.2,195,1657.7,195.3z"/>
	<path class="st0" d="M1283.1,344.2c0,1.5,0,2.8,0,4.3c-25.7,0-51.3,0-77.3,0c0-1.3,0-2.6,0-4.3c1.9-0.2,3.7-0.5,5.6-0.6
		c6.8-0.6,9.8-2.8,11-9.6c1.1-6.6,2.2-13.4,2.2-20c0.2-50.2,0.1-100.5,0.1-150.7c0-2.7-0.3-5.5-0.8-8.2c-1.1-6.4-5.6-10.1-12.9-10.9
		c-3-0.3-5.9-0.6-9.2-0.9c-0.1-1-0.2-2.1-0.2-3.3c0.8-0.1,1.4-0.3,2-0.3c10.1,0,20.2,0.1,30.4,0c17.5-0.2,35-0.7,52.5-0.6
		c11.2,0.1,22.3,1.8,33,5.6c23.3,8.3,32.9,32.4,30.3,51.6c-1.9,14.2-8.1,26-17.2,36.6c-5.7,6.6-11.5,13.2-17.6,20.2
		c6.4,8.1,14.1,18.1,22.1,27.8c11.9,14.3,23.7,28.7,36.1,42.6c8.6,9.8,18.9,17.4,32.2,19.9c1.2,0.2,2.5,0.2,3.7,0.4
		c1.1,0.2,2.1,0.5,3.3,0.7c0,1.5,0,2.8,0,4.3c-11.4,0-22.6-0.2-33.8,0c-20.5,0.5-34.6-10.5-46.1-25.7
		c-12.5-16.5-24.5-33.4-36.7-50.2c-0.7-0.9-1.4-1.8-1.9-2.8c-3.3-6.4-8.5-8.8-15.7-8.2c-5.6,0.4-11.2,0.1-16.9-0.1
		c-2.6-0.1-3.7,0.9-3.7,3.4c0.3,18.6,0.6,37.2,1,55.8c0.1,4.3,0.7,8.7,1.6,12.9c1.3,5.8,4.3,8.2,10.1,8.9
		C1274.4,343.3,1278.6,343.7,1283.1,344.2z M1257.4,199c0,2.7,0,5.5,0,8.2c0,10.7,0,21.5,0,32.2c0,6,0.7,7.1,6.6,7.9
		c6.3,0.9,12.6,1.2,18.9,1.7c14.7,1.1,24.1-6.6,29.3-19.3c2.8-6.8,4.2-14.3,5-21.6c1.4-12.9-0.5-25.5-7.4-36.7
		c-10-16.4-26.3-21.8-45.6-19.4c-6.7,0.9-6.8,1.2-6.8,8.1C1257.4,173,1257.4,186,1257.4,199z"/>
	<path class="st0" d="M1.7,143.1c0-1.4,0-2.7,0-4.2c1.2-0.1,2.3-0.2,3.4-0.2c23.7,0,47.5-0.3,71.2,0.2c8.1,0.2,16.5,1.4,24.3,3.7
		c33.5,9.6,36.9,40.8,24.2,63.1c-4.6,8.2-11.3,14.6-18.4,20.5c-0.9,0.8-1.8,1.6-2.8,2.4c5.8,2.8,11.5,5.2,16.8,8.3
		c14.6,8.5,26,19.9,31.1,36.4c7.8,25.6-4.2,53.1-28.6,66.2c-12.5,6.7-26,9.5-39.9,9.7c-25.5,0.4-51,0.1-76.5,0.1
		c-0.8,0-1.7-0.1-2.7-0.2c0-1.7,0-3.3,0-5.3c2.1-0.2,4-0.4,6-0.6c6.3-0.6,9.2-2.7,10.4-8.8c1.2-6,2.2-12.1,2.2-18.1
		c0.2-51.7,0.1-103.4,0.1-155.1c0-2.5-0.4-5-0.9-7.4c-1.5-6.4-6.4-8.8-12.3-9.8C6.8,143.7,4.3,143.4,1.7,143.1z M65.5,239.3
		c-2,0-4,0.1-6,0c-2.6-0.2-3.6,0.7-3.6,3.3c0.2,25.9,0.2,51.7,0.5,77.6c0.1,7.1,3.4,12.4,10.6,14.1c6.5,1.5,13.2,3,19.8,2.9
		c16.9-0.1,28.9-10,32.2-25.7c2-9.6,0.9-19.1-1.3-28.5C111.1,255.6,91.7,239.4,65.5,239.3z M55.9,188.9c0,10.7,0,21.5,0,32.2
		c0,5.6,0.1,6,5.7,6.5c4.6,0.4,9.2,0.4,13.8,0.3c11.7-0.3,20.1-6.3,24.2-17.2c3.2-8.5,3.5-17.2,2.3-26.1
		c-2.9-22.1-17.2-34.9-39.3-34.6c-5.9,0.1-6.8,0.9-6.8,6.7C55.9,167.5,55.9,178.2,55.9,188.9z"/>
	<path class="st0" d="M210.2,344.3c0,1.3,0,2.7,0,4.2c-20.8,0-41.5,0-62.4,0c0-1.3,0-2.6,0-4.4c2.4-0.3,4.8-0.4,7.2-0.8
		c8-1.3,13.9-5.7,17.3-12.9c4.7-9.8,8.8-19.8,12.9-29.8c21.3-52.4,42.5-104.8,63.7-157.2c0.6-1.5,1.1-3.1,2.1-4.4
		c1.2-1.6,3-4,4.3-3.9c1.7,0.2,3.5,2.3,4.8,4c1.1,1.4,1.7,3.3,2.4,5c22.8,55.7,45.4,111.4,68.3,167c3,7.2,6.9,14.1,11,20.8
		c4.5,7.4,11.2,11.5,20.2,11.5c1.7,0,3.4,0.4,5.3,0.7c0,1.5,0,2.8,0,4.3c-23,0-45.8,0-69,0c-0.1-1.2-0.1-2.5-0.2-4
		c0.8-0.1,1.3-0.3,1.9-0.4c4.8-0.6,5.9-2.3,4.2-6.8c-3.9-10.4-8-20.7-12-31c-3.2-8.2-6.5-16.5-9.5-24.7c-1.1-2.9-2.6-4.1-5.8-4.1
		c-19.2,0.1-38.5,0.1-57.7,0.1c-2.1,0-3.9,0-4.8,2.5c-5.7,15-11.6,30-17.3,45c-1,2.6-1.5,5.5-1.9,8.4c-0.8,5.9,1.8,9.2,7.7,10.1
		C205.2,343.9,207.6,344.1,210.2,344.3z M275.7,263.8c-9-24.6-17.8-48.6-26.5-72.6c-0.4,0-0.9-0.1-1.3-0.1
		c-9,24.1-18.1,48.2-27.3,72.7C239.5,263.8,257.1,263.8,275.7,263.8z"/>
	<path class="st0" d="M1021.9,307.2c-1.5,11.4-2.8,22.9-4.4,34.4c-0.6,4.1-3.1,6.7-7.6,6.9c-1.5,0-3,0.3-4.5,0.3
		c-37.7,0-75.5,0-113.2,0c-0.7,0-1.5,0-2.4,0c0-1.6,0-2.9,0-4.6c1.8-0.2,3.8-0.5,5.7-0.7c7-0.6,10-2.9,11.1-9.8
		c1.1-7,2.1-14.1,2.2-21.2c0.2-49.5,0.1-99,0.1-148.5c0-2.9-0.3-5.7-0.8-8.6c-1-6.6-5.5-10.5-13-11.4c-3-0.3-5.9-0.6-9.1-0.9
		c0-1.3,0-2.6,0-4.4c1.4,0,2.9,0,4.3,0c34.4,0,68.8,0.1,103.1-0.1c6.2,0,12.5-1.8,18.7-2.7c0.7-0.1,1.4-0.1,2.5-0.1
		c-0.8,8.6-1.6,17-2.3,25.4c-0.4,4.5-1,8.9-1.2,13.4c-0.1,3-1.2,4.2-4.2,3.2c-0.6-3.8-1.1-7.5-1.9-11.3c-1-5.1-4-8.7-9-9.9
		c-4.8-1.2-9.7-2.3-14.7-2.6c-11-0.6-22-0.5-33-1c-3.6-0.1-4.6,1.3-4.6,4.6c0,22.5,0.1,45,0,67.5c0,3.3,1,4.6,4.6,4.5
		c15.2-0.4,30.5-0.5,45.7-0.8c4.6-0.1,8.3-2.3,11.4-5.6c1-1.1,2.7-1.6,4.9-2.9c-1.3,16.1-2.4,30.9-3.6,45.7c-3.3,1.1-4.8,0.4-4.8-3
		c0-2.5-0.4-5-1-7.4c-1.3-6.1-5.6-10.2-12.7-10.9c-8.9-0.9-17.9-1-26.9-1.3c-4.4-0.2-8.8,0.1-13.1-0.2c-3.6-0.3-4.5,1.4-4.5,4.6
		c0,14.4-0.1,28.7,0,43.1c0,8.7,0.3,17.5,0.6,26.2c0.4,9.4,4.3,14.6,13.5,16.2c13.8,2.3,27.8,2.4,41.7-0.4
		c6.4-1.3,10.5-5.6,12.9-11.4c1.5-3.6,3-7.2,3.6-11C1016.5,306.7,1018.1,306.1,1021.9,307.2z"/>
	<path class="st0" d="M1178.4,135.2c-1.4,14.7-2.7,28.4-4,42.3c-1.3,0-2.6,0-4,0c-0.3-2.6-0.6-5.2-1-7.9c-1.4-9.6-6.5-14.6-16.3-15
		c-15.1-0.6-30.2-0.7-45.3-1.1c-2.8-0.1-3.7,1.2-3.7,3.8c0.1,23,0.1,46,0,69c0,2.5,0.8,3.2,3.2,3.2c15-0.2,30-0.2,45-0.3
		c5.9,0,11-1.8,15-6.4c0.8-1,2.4-1.3,4.5-2.4c-1.4,15.6-2.8,30-4.1,44.7c-1.4,0-2.7,0-4.3,0c-0.3-2.1-0.7-4.3-0.9-6.5
		c-0.9-8.5-7-14.6-15.5-14.9c-13.2-0.5-26.5-0.5-39.7-0.9c-2.4-0.1-3.3,0.8-3.3,3.2c0.3,25.9,0.5,51.7,0.9,77.6
		c0.1,3.3,0.7,6.7,1.5,10c1.3,5.5,4.5,8.2,10.1,9c2.2,0.3,4.5,0.5,6.7,0.7c2.2,0.2,4.5,0.4,6.9,0.6c0,1.5,0,2.8,0,4.4
		c-26.7,0-53.5,0-80.6,0c0-1.3,0-2.6,0-4.3c3-0.4,6-0.8,9-1.2c3.9-0.5,6.6-2.8,7.2-6.6c1.2-6.7,2.8-13.5,2.8-20.3
		c0.2-51.6,0.2-103.2,0.1-154.8c0-2.5-0.4-5-0.9-7.4c-1.3-5.7-5.8-9.1-12.7-9.8c-3-0.3-5.9-0.6-9-0.9c0-1.4,0-2.6,0-4.4
		c1.4,0,2.9,0,4.3,0c32,0,64,0.1,96,0C1156.9,138.6,1167.6,140.1,1178.4,135.2z"/>
	<path class="st0" d="M529.2,174c0-13.2,0-26.4,0-39.9c1,0,2.4-0.2,3.4,0.2c10.7,4.6,22.1,4.1,33.2,4.2c35.5,0.4,71,0.3,106.5,0
		c8.9-0.1,17.9-1.2,26.8-2.2c3.1-0.3,6.1-1.8,9.4-2.8c0,14,0,27.3,0,40.7c-1.7,0.2-3.1,0.3-4.4,0.5c-1.8-3.8-3.4-7.5-5.2-11.2
		c-2.7-5.5-7-8.6-13.2-8.8c-16.5-0.6-32.9-1.1-49.8-1.7c-0.1,1.4-0.3,2.6-0.3,3.8c0.1,44.9,0,89.7,0.3,134.6
		c0.1,12.8,1,25.7,1.6,38.5c0.1,1.2,0.4,2.5,0.7,3.7c1.7,7.1,4.1,9.1,11.3,9.7c3.2,0.3,6.5,0.6,10,0.9c0,1.3,0,2.6,0,4.1
		c-26.9,0-53.9,0-81,0c0-1.3,0-2.6,0-4c4.4-0.6,8.7-1.2,13-1.6c4.2-0.4,6.7-3,7.6-6.7c1.1-4.7,2.1-9.5,2.3-14.3
		c0.5-11.7,0.8-23.5,0.9-35.2c0.1-43,0-86,0-129c0-1.3,0-2.7,0-3.9c-5.5,0-10.5-0.1-15.6,0c-12.1,0.4-24.2,0.9-36.3,1.4
		c-4.5,0.2-7.8,2.4-9.9,6.3c-1.7,3.2-3.6,6.3-4.8,9.7C534.5,174.1,533.1,175.6,529.2,174z"/>
	<path class="st0" d="M2038.8,133.6c0,14,0,27.3,0,40.8c-1.8,0.1-3,0.2-4.1,0.3c-2.3-4.4-4.5-8.7-6.6-13c-2.6-5.3-7.5-6.8-12.8-7
		c-16-0.6-32-1-48-1.5c-0.3,0-0.7,0.2-1.2,0.4c-0.1,0.9-0.2,1.9-0.2,2.9c0.1,48.4,0,96.7,0.3,145.1c0.1,10.8,1.1,21.7,2.5,32.4
		c0.9,7,3.9,8.8,11,9.5c3.2,0.3,6.4,0.6,9.9,0.9c0,1.3,0,2.6,0,4.2c-26.8,0-53.6,0-80.7,0c0-1.3,0-2.6,0-4c4.2-0.5,8.3-1.1,12.5-1.5
		c4.7-0.4,7.3-3.4,8.2-7.5c1.1-5.6,2.1-11.3,2.3-17c0.5-17.7,0.7-35.5,0.8-53.2c0.1-35.7,0-71.5,0-107.2c0-1.5,0-2.9,0-4.9
		c-4.5,0.2-8.6,0.5-12.7,0.6c-10.7,0.3-21.5,1-32.2,0.7c-10.9-0.4-17.5,4.4-21,14.2c-0.7,2-1.5,3.9-2.3,6.1
		c-1.4-0.1-2.7-0.2-4.6-0.3c0-13.5,0-26.8,0-40.2c0.9,0,2.1-0.3,3,0.1c10.4,4.5,21.6,4.1,32.4,4.2c36,0.4,72,0.3,108,0
		c8.8-0.1,17.7-1.2,26.4-2.2C2032.8,136,2035.7,134.6,2038.8,133.6z"/>
	<path class="st0" d="M344.9,174.8c-1.6-0.1-2.8-0.2-4.6-0.3c0-13.4,0-26.8,0-40.2c0.9,0,2.1-0.3,3,0.1c10.3,4.5,21.3,4.1,32.1,4.2
		c36.2,0.4,72.5,0.3,108.7,0c8.7-0.1,17.4-1.2,26.1-2.2c3.1-0.4,6-1.8,9.1-2.7c0,14,0,27.3,0,40.8c-1.8,0.1-3,0.2-4.1,0.3
		c-2.3-4.4-4.5-8.7-6.6-13c-2.6-5.3-7.5-6.8-12.8-7c-16-0.6-32-1-48-1.5c-0.3,0-0.7,0.2-1.2,0.4c-0.1,0.9-0.2,1.9-0.2,2.9
		c0.1,48.4,0,96.7,0.3,145.1c0.1,10,0.9,19.9,1.9,29.9c0.9,8.8,4.1,11.4,13.1,12.1c2.7,0.2,5.4,0.6,8.4,0.9c0,1.3,0,2.6,0,4.1
		c-26.8,0-53.6,0-80.7,0c0-1.3,0-2.6,0-4c4.2-0.5,8.3-1.1,12.5-1.5c4.7-0.4,7.3-3.4,8.1-7.5c1.1-5.6,2.1-11.3,2.3-17
		c0.5-17.2,0.7-34.5,0.8-51.7c0.1-36.2,0-72.5,0-108.7c0-1.5,0-2.9,0-4.9c-4.5,0.2-8.6,0.5-12.7,0.6c-10.7,0.3-21.5,1-32.2,0.7
		c-10.9-0.4-17.5,4.4-21,14.2C346.5,170.6,345.7,172.6,344.9,174.8z"/>
	<path class="st0" d="M867.1,309.1c1.5,0,2.8,0,4.7,0c-0.6,6.5-1.1,13-2,19.3c-0.6,4.8-1.7,9.5-2.7,14.3c-0.7,3.2-3,4.9-6,5.3
		c-3,0.4-6,0.8-9,0.8c-38.5,0-77,0-115.5,0c-1,0-2-0.1-3.1-0.2c0-1.7,0-3.3,0-5.3c1.8-0.2,3.4-0.4,5.1-0.6c7.3-0.5,9.9-2.4,11.4-9.5
		c1.1-5,2-10.1,2.1-15.1c0.3-49.2,0.4-98.5,0.5-147.7c0-4.7-0.2-9.5-0.9-14.2c-1.2-7.8-4.7-11-12.5-12.2c-2.5-0.4-4.9-0.6-7.8-1
		c-0.1-1.2-0.1-2.5-0.2-4.1c25.9,0,51.5,0,77.7,0c0.1,1.2,0.1,2.4,0.2,4.1c-3.1,0.3-6.1,0.7-9,0.9c-6.8,0.6-11,4.2-11.6,11
		c-0.7,7.7-1.1,15.4-1.1,23.2c0,41.6,0.1,83.2,0.3,124.8c0,5.8,1.1,11.6,2.1,17.4c1.3,8.2,7.8,10.6,14.7,11.6
		c13.5,1.9,27.1,2,40.7,0.4c12-1.4,18.1-8.9,21.1-19.8C866.5,311.5,866.7,310.4,867.1,309.1z"/>
	<path class="st0" d="M965.6,414c3.5-5.6,6.5-10.5,9.7-15.4c0.4-0.7,1.6-1.3,2.4-1.3c22.6-0.1,45.1-0.1,68.7-0.1
		c-2.7,4.4-5.4,8.1-7.4,12c-1.9,3.7-4.3,4.9-8.5,4.8C1009.1,413.9,987.8,414,965.6,414z"/>
</g>
</svg>
