<?xml version="1.0" encoding="utf-8"?>
<!-- Generator: Adobe Illustrator 19.0.1, SVG Export Plug-In . SVG Version: 6.00 Build 0)  -->
<svg version="1.1" id="Layer_1" xmlns="http://www.w3.org/2000/svg" xmlns:xlink="http://www.w3.org/1999/xlink" x="0px" y="0px"
	 viewBox="0 0 1000 1000" style="enable-background:new 0 0 1000 1000;" xml:space="preserve">
<style type="text/css">
	.st0{fill:#FFFFFF;}
</style>
<g>
	<path class="st0" d="M1000,389c0,166.9,0,333,0,499.7c-1.9,0.1-3.8,0.2-5.5,0.2c-275.7,0-551.5,0.1-827.1,0
		c-68.9,0-128-38.4-153.7-99.2c-8.8-21-13.4-42.9-13.5-65.6C0.1,613.9,0.1,503.8,0.1,393.6c0-1.3,0.1-2.6,0.3-4.7
		c2.5,1.1,4.7,1.9,6.7,2.9c162.6,72.3,325.2,144.6,487.8,216.9c3.8,1.6,6.6,1.7,10.3,0C668.1,536.3,830.9,464,993.6,391.7
		C995.6,390.8,997.6,390,1000,389z"/>
	<path class="st0" d="M0.1,111.1c2.7,0,4.8,0,6.8,0c274,0,548.1,0.1,822.2-0.1c40.8,0,77.9,10.3,109.8,36.1
		c36.8,29.6,56.5,68.6,60.6,115.6c1.3,15,1,15-12.6,21c-160.1,71.2-320.1,142.2-480,213.5c-5,2.2-8.8,1.9-13.7-0.2
		C331,424.8,168.6,352.6,6.3,280.6C1.5,278.5,0,276.1,0,271c0.2-51,0.1-102.1,0.1-153.1C0.1,115.9,0.1,114,0.1,111.1z"/>
</g>
</svg>
