<?xml version="1.0" encoding="utf-8"?>
<!-- Generator: Adobe Illustrator 19.0.1, SVG Export Plug-In . SVG Version: 6.00 Build 0)  -->
<svg version="1.1" id="Layer_1" xmlns="http://www.w3.org/2000/svg" xmlns:xlink="http://www.w3.org/1999/xlink" x="0px" y="0px"
	 viewBox="0 0 1000 1000" style="enable-background:new 0 0 1000 1000;" xml:space="preserve">
<style type="text/css">
	.st0{fill:#010101;}
</style>
<g>
	<path class="st0" d="M824.3,0.3c12.7,6.4,15.8,17,15.8,30.8c-0.4,162-0.2,324.1,0,486.1c0,7.2-2.1,10.9-8.4,13.9
		c-11.9,5.7-23.4,11.9-36.5,18.7c0-167.9,0-334.6,0-502c-172,0-343.2,0-515.6,0c0,3.5,0,6.8,0,10.3c-0.2,59.9-0.2,119.7-0.4,179.6
		c0,6.1-1,12.3-1.6,18.4c-1.4,13.7-9.8,21.3-23.6,21.3c-65,0-130.2,0-195.2,0c-3.5,0-7,0-11.1,0c0,225.1,0,449.6,0,674.7
		c247.8,0,495.9,0,745.2,0c0-3.1,0-6.6,0-10.2c0-47.4,0.2-95.1-0.2-142.5c0-6.8,2.1-10.5,8.2-13.3c12.5-5.9,24.6-12.5,38.7-19.9
		c0,4.7,0,8,0,11.3c0,63.8-0.4,127.5,0.2,191.3c0.2,13.9-3.1,24.4-15.8,30.8c-268.8,0-537.5,0-806.3,0C11.7,994,5.9,988.2,0,982.3
		c0-244.6,0-489.5,0-734.1c3.7-4.7,7-9.8,11.1-14.1C84,161.2,156.8,88.3,229.8,15.5c5.7-5.7,12.1-10.3,18.2-15.4
		C440.3,0.3,632.4,0.3,824.3,0.3z M230.4,86.8c-47.6,47.6-96.3,96.3-143.3,143.3c45.9,0,94.5,0,143.3,0
		C230.4,180.9,230.4,132.5,230.4,86.8z"/>
	<path class="st0" d="M1000,613.3c-6.1,16.8-11.9,33.8-28.5,43.3c-13.3,7.6-27.1,14.3-40.6,21.3c-1.2,0.6-2.1,1.2-4.5,2.3
		c-10.7-21.3-21.3-42.4-32.6-64.6c13.9-7,27.5-13.7,41-20.5c5.9-2.9,10.9-6.1,10.7-14.3c-0.4-12.9-10.5-19.9-22.1-14.3
		c-14.3,7-28.5,14.3-43.1,21.7c-5.3-10-10.3-19.5-16-30.3c22.8-9.4,42-25.4,67.9-24.8c32,0.6,59.2,22.5,66,53.9c0.2,1,1.2,2,1.8,2.9
		C1000,597.7,1000,605.5,1000,613.3z"/>
	<path class="st0" d="M865.9,630.3c10.7,21.7,21.5,42.8,32.4,64.6c-50.4,25.4-100.7,51-151.1,76.3c-48.8,24.6-97.8,48.8-146.8,73
		c-4.1,2-9.2,3.3-13.7,3.3c-39.6,0.2-79.5,0.4-119.1,0c-5.3,0-10.5-3.1-15.8-4.9c1.8-5.1,2.5-11.1,5.7-15.4
		c23.4-32,47.1-63.8,71.1-95.5c3.3-4.5,8-8.4,13.1-10.9c90.4-45.7,180.8-91,271.2-136.5c7.8-3.9,15.4-8,23.8-12.5
		c5.1,10.2,10.2,19.9,15.4,30.5c-30.8,15.4-61.3,30.8-91.8,46.1c-66,33-131.8,66.2-197.8,99.2c-7,3.5-12.5,7.6-12.1,16.8
		c0.4,6.8,3.3,11.5,9.4,12.9c4.5,1,10.2,0.8,14.3-1.2c64.8-32,129.4-64.4,194.1-96.8c29.9-15,59.5-30.5,89.4-45.5
		C860.2,632.5,862.7,631.5,865.9,630.3z"/>
	<path class="st0" d="M121,663.5c5.5-27.9,10.7-54.7,15.8-81.6c3.9-20.1,16.2-33.8,33.2-43.5c22.3-12.9,46.7-19.7,72.4-18.5
		c30.1,1.6,58.2,9.8,80.8,30.8c12.9,12.1,17.4,27.9,20.5,44.5c3.9,20.9,7.8,42,11.5,63.1c0.2,1.6,0,3.1,0,5.3
		C277.6,663.5,199.9,663.5,121,663.5z"/>
	<path class="st0" d="M238.6,502.1c-44.7,0.6-83.6-34.9-83.4-82.6c0.2-46.5,35.3-84,85.5-83.2c45.5,0.6,81,36.3,81.6,82.6
		C322.7,464.4,284.3,503.6,238.6,502.1z"/>
	<path class="st0" d="M453.7,206.5c0-10,0-19.5,0-29.9c88.2,0,176.1,0,264.5,0c0,9.8,0,19.5,0,29.9
		C630.6,206.5,542.8,206.5,453.7,206.5z"/>
	<path class="st0" d="M718.1,281c-88.4,0-176.1,0-264.3,0c0-10,0-19.7,0-30.1c87.9,0,175.7,0,264.3,0
		C718.1,260.5,718.1,270.5,718.1,281z"/>
	<path class="st0" d="M718.5,325c0,10.2,0,19.7,0,30.1c-88.1,0-175.9,0-264.3,0c0-9.8,0-19.7,0-30.1C542.2,325,630,325,718.5,325z"
		/>
	<path class="st0" d="M718.3,399.2c0,10,0,19.7,0,30.1c-87.9,0-175.7,0-264.3,0c0-9.8,0-19.5,0-30.1
		C542,399.2,630,399.2,718.3,399.2z"/>
	<path class="st0" d="M718.5,473.4c0,10.3,0,19.9,0,30.1c-88.1,0-175.7,0-264.3,0c0-9.6,0-19.5,0-30.1
		C541.8,473.4,629.6,473.4,718.5,473.4z"/>
	<path class="st0" d="M453.7,577.4c0-10.3,0-19.9,0-30.1c88.2,0,176.3,0,264.5,0c0,10.2,0,19.7,0,30.1
		C630.4,577.4,542.6,577.4,453.7,577.4z"/>
	<path class="st0" d="M121.8,753.1c0-10.3,0-19.9,0-30.1c77.7,0,155,0,233.1,0c0,9.6,0,19.5,0,30.1
		C277.6,753.1,200.1,753.1,121.8,753.1z"/>
	<path class="st0" d="M354.9,827.9c-77.9,0-154.8,0-232.7,0c0-10,0-19.9,0-30.5c77.3,0,154.8,0,232.7,0
		C354.9,807.6,354.9,817.7,354.9,827.9z"/>
	<path class="st0" d="M122.2,871.2c77.9,0,154.8,0,232.7,0c0,10,0,19.9,0,30.5c-77.3,0-154.8,0-232.7,0
		C122.2,891.5,122.2,881.4,122.2,871.2z"/>
	<path class="st0" d="M453.7,652.4c0-10.7,0-20.3,0-30.7c65,0,129.8,0,197,0c-20.7,10.5-39.6,20.3-58.6,29.9
		c-1.4,0.8-3.1,0.8-4.7,0.8C543.3,652.4,499,652.4,453.7,652.4z"/>
</g>
</svg>
