<?xml version="1.0" encoding="utf-8"?>
<!-- Generator: Adobe Illustrator 19.0.1, SVG Export Plug-In . SVG Version: 6.00 Build 0)  -->
<svg version="1.1" id="Layer_1" xmlns="http://www.w3.org/2000/svg" xmlns:xlink="http://www.w3.org/1999/xlink" x="0px" y="0px"
	 viewBox="0 0 767.3 496.2" style="enable-background:new 0 0 767.3 496.2;" xml:space="preserve">
<g>
	<path d="M739.2,176.3c1.5,2.3,1.9,5.4,3.2,8c1,2.1,2.6,3.9,3.6,5.2c-0.3,1.1-1,2.3-1.1,3.5c4.6,8.1,7.7,17.3,9.1,26.5
		c0.9,0.1,2.1,0.2,3.4,0.2c-2-14.5-6-28.8-9.5-43c-2.3-5.1-5.1-9.9-8.4-14.5c-7.4-5.9-14.8-11.8-22-17.9c-1.7-1.5-3.5-2.9-5.2-4.3
		c-1.5-1.1-3-2.3-4.6-3.4c-12-8.9-22.4-19.5-34.8-27.5c9.6,8.4,19.1,17,28.8,25.2C716.2,146.5,728.7,160.5,739.2,176.3z"/>
	<path d="M435,15.8c0,0.3-0.1,0.7-0.1,1c-4.2-0.3-8.4-0.5-13.3-0.8c0.7,1.1,0.9,1.6,1.1,1.6c8.9,1.5,18.4,0.4,26.4,6
		c0.4,0.3,1,0.2,1.5,0.2c14.2,1.7,28.4,3,42.5,5.1c11.8,1.7,23.8,3.2,35.1,6.5c19.4,5.7,38.6,12,57.3,19.5
		c6.8,2.7,16.2,1.9,20.1,10.7c0.2,0.4,0.7,0.6,1.2,0.9c6.5,3.6,13,7.3,19.5,10.8c1,0.5,3.1,0.9,3.4,0.4c4.3-6.4,8.4-12.9,12.5-19.3
		c0.1-0.2-0.1-0.7-0.1-1c1.1-8.5-5.6-12.6-10.5-17.1c-3.6-3.3-8.3-6.3-14.1-4.4c-0.7,0.2-1.8-0.7-2.7-1
		c-14.4-5.6-28.8-11.1-43.1-16.9c-3.5-1.4-6.5-4.1-9.9-6c-3.7-2.2-7.4-5-11.4-6c-7.5-1.8-15.3-2.4-22.9-3.6
		C522.3,1.5,517.2,0,512.1,0c-3.8,0-7.5,2-11.3,2.7c-14.4,2.6-28.7,5.4-43.2,7.2c-8,1-16.2,0.3-24.2,0.5c-4.4,0.1-8.8,0.5-13.2,0.8
		c0,0.5,0,1,0,1.5C425.2,13.7,430.1,14.7,435,15.8z"/>
	<path d="M422.9,375.8c4.9,8.7,9.3,17.6,14.9,25.8c2.2,3.2,6.6,6.2,10.3,6.6c10.4,1.1,20.9,1.1,31.4,1c5.6,0,11.5-1.2,14.3-6.6
		c4.9-9.5,9.1-19.4,14.2-30.3c-29.5,0-57.5,0-86.1,0C422.2,373.7,422.4,374.8,422.9,375.8z"/>
	<path d="M568.1,138.9c-7.1-1.3-14.3-2.4-22.3-3.7c3.6,4.7,6.6,8.4,9.3,12.4c3.2,4.5,7.5,6.7,12.8,7.5c6.7,1,13.4,2.1,20.1,3.2
		c24.2,4.1,48.4,8.4,72.6,12.5c2.9,0.5,5.9,0.6,10.2,1.1c-2.3-2.7-4.7-4.2-4.5-5.5c0.5-5.3-3.4-6.2-6.7-7.2
		c-10.8-3.2-21.6-6.5-32.6-8.9C607.5,146.2,587.8,142.6,568.1,138.9z"/>
	<path d="M329.3,36c1,0,2.1-0.2,2.8-0.7c7.3-5.4,15.9-6.8,24.4-7.2c5.3-0.3,10.7,1.8,16,2.6c2.2,0.3,5,0.9,6.7,0
		c4.3-2.3,8.2-5.5,12.6-8.6c-22.8-0.5-66.7,8-74,14C321.6,36,325.5,36.1,329.3,36z"/>
	<path d="M644,186.6c0.9,5,1.7,10,2.6,14.9c0.7-0.1,1.3-0.2,2-0.3c-0.5-6.7-1.1-13.5-1.7-21.4c-2.1,1.8-2.9,2.5-3.6,3.1
		c-1.9-2.6-4.1-4.7-7.4-2.5c-3.2,2.2-1.6,8.1,3.6,14.2c-1.4,0-2.8,0-4.3,0c-0.1,3.8,1,6.2,4.9,6.2c3.9-0.1,3.8-3.2,3.6-5.8
		c-0.2-1.9-1.1-3.8-1.5-5.7c-0.2-0.9,0.2-1.9,0.3-2.8C643,186.6,643.5,186.6,644,186.6z"/>
	<path d="M510.1,204.6c-4.3,0.9-6.4,4.1-5.8,7.9c0.4,2.7,2.6,7,4.5,7.3c3.4,0.6,7.7-0.4,9.6-4.9c-2.8-1.3-5.2-2.5-8.7-4.2
		c3.4,0,5.7,0,8.8,0C516.4,206.2,514.4,203.7,510.1,204.6z"/>
	<path d="M707,180.1c15.6,5.5,23.2,6.1,27.3,0.6c-3.2-0.5-5.8-0.8-8.4-1.4c-2-0.5-4.2-0.9-5.9-2C713.7,173.1,711.1,173.6,707,180.1z
		"/>
	<path d="M657.5,186.2c-1.5-1.4-3-3-4.7-4c-0.5-0.3-2.8,1.2-2.8,1.8c0.4,5.5,0.9,11.1,2,16.6c0.2,0.9,3,1.9,4.5,1.7
		c0.8-0.1,2-2.5,1.9-3.8c-0.2-3.1,0.1-6.8-4.3-8c-0.8-0.2-1.1-1.9-2.3-3.9c2.6,0.4,3.8,0.6,4.9,0.8
		C656.9,187,657.2,186.6,657.5,186.2z"/>
	<path d="M676.5,192.1c-0.8-2.2-1.3-3.8-1.9-5.5c-0.4,0.1-0.8,0.3-1.2,0.4c0.6,5.8,1.1,11.7,1.8,18.4c1.2-1.8,1.9-2.9,3-4.4
		c0.7,1.8,1.2,2.9,1.6,4.1c0.4-0.1,0.8-0.1,1.2-0.2c-0.6-5.8-1.1-11.6-1.7-17.4c-0.5,0-1,0.1-1.5,0.1
		C677.3,188.9,677,190.3,676.5,192.1z"/>
	<path d="M159.4,290.9c0.8,0,2-0.2,2.2-0.6c0.3-0.7,0.3-2.2-0.2-2.6c-3.2-2.8-6.6-5.4-11-8.8C149.9,286.3,153.9,290.7,159.4,290.9z"
		/>
	<path d="M670.9,188c0.1-0.5,0.2-1,0.3-1.5c-1.8-0.7-3.7-1.4-6.5-2.4c0.7,7.2,1.3,13.3,1.8,19.3c1.4-2.7,2.8-5,3.7-7.4
		c0.3-0.8-0.2-2.4-0.9-2.9C664.7,190,667.5,189,670.9,188z"/>
	<path d="M686.6,190.3c-1.1-0.7-2.2-1.4-4.1-2.7c0,4.6-0.3,8,0.1,11.4c0.3,2.5,1.5,4.9,2.6,7.3c0.2,0.5,1.8,0.7,2.6,0.4
		c0.5-0.1,1-1.5,0.8-2c-0.2-0.7-1.2-1.1-1.9-1.5c-0.5-0.3-1.2-0.2-1.6-0.3c-0.4-2.6-0.9-4.9-1.1-7.1c-0.1-1,0.3-2.1,0.8-3
		C685.1,191.7,685.9,191.1,686.6,190.3z"/>
	<path d="M584.9,118.8c-13.9-3.9-27.7-7.8-41.6-11.6c-0.2,0.5-0.4,0.9-0.6,1.4c14,3.8,27.9,7.6,41.9,11.3
		C584.7,119.5,584.8,119.1,584.9,118.8z"/>
	<path d="M225.4,215.4c-0.6-1-3.6-0.5-5.3-0.7c1.6,2.1,2.9,3.8,5.1,6.8C225.4,219.2,226.3,216.7,225.4,215.4z"/>
	<path d="M213.8,220.1c0.3,0.7,0.6,1.3,0.9,2c2.1-0.8,4.3-1.7,6.4-2.5c-0.3-0.6-0.6-1.3-1-1.9C218.2,218.8,214.4,216.5,213.8,220.1z
		"/>
	<path d="M270.7,453.2c-5.3-8.3-7.8-17.5-9.3-27.1c-0.9-6.1-2.1-12.2-4.1-18c-0.9-2.8-3.6-5.8-6.2-6.9c-1.3-0.5-4.9,2.5-6.5,4.7
		c-3.7,5-6.8,10.4-10.4,16.1c-3.7-4.7-0.8-8,0.5-11.6c0.6-1.7,0.3-3.7,0.5-6.4c6.4-1.1,7.6-7.7,9.2-13.6c0.4-1.3-1.1-3.1-1.8-4.6
		c-1.4,0.8-3.3,1.4-4.1,2.6c-3.6,5.3-6.8,10.9-10.2,16.4c-0.3-2.2-0.1-4.2,0.7-6c2.2-5,4.6-9.9,7-14.9c6.4-13.3,7.7-26.3-1.2-39.1
		c-3.5-5.1-6.6-10.6-4.6-17.2c2.1-7.2,4.5-14.3,6.8-21.5c2.4,0.4,4.5,1,6.6,1.1c3.6,0.1,4.6,1.4,3.6,5c-0.4,1.7,0.4,4.1,1.4,5.7
		c1.4,2.2,3.5,3.9,6,6.5c7.7-12.8,8.1-27.1,11.7-40.4c-0.6-0.3-1.1-0.6-1.7-0.8c-3.1,3.4-6.1,6.8-9.2,10.1c3.8-10,12.3-15.9,19-23
		c-0.5-2-0.9-3.6-1.5-5.8c-4.5-1.8-11.2-1.1-16.8,2.2c-10.1,5.9-17,14.8-22.4,24.9c-10.3,19.1-16.2,39.7-18.5,61.2
		c-2.8,26.1-3,52.2,4.9,77.6c1.6,5.3,4.1,10.3,6.1,15.5c0.4-0.1,0.8-0.3,1.2-0.4c-0.1-0.5,0-1-0.2-1.4c-11-22.9-12.6-47.4-12.4-72.1
		c0-1.3,0.1-2.8,0.7-3.9c0.4-0.8,1.7-1.6,2.6-1.7c0.5-0.1,1.5,1.2,1.7,2c0.4,1.6,0.6,3.3,0.7,4.9c0.4,8.4,0.3,16.9,1.1,25.3
		c1.1,12.5,2.8,24.9,7.9,36.7c4.8,11.2,10.5,21.5,21.9,27.6c-0.8,1.1-1.5,2-2.5,3.5c2.9,0.2,5,0.3,7.1,0.4c0.3-0.4,0.6-0.8,0.9-1.1
		c-5.9-5.4-11.7-10.8-17.6-16.2c0.4-0.5,0.7-1,1.1-1.5c7.8-0.2,13.6,4.3,21.1,8.2c-3,1.2-4.4,1.8-5.8,2.4c3.4,1.8,6.8,3.1,10.1,2.9
		c5.3-0.4,7.4-4.6,4.8-8.2C270.7,453.2,270.7,453.2,270.7,453.2z M231.2,429.5c-1.5-5.8-3-11.6-4.5-17.4c0.5-0.1,1.1-0.3,1.6-0.4
		c1.1,6,5,11.2,4.8,17.6C232.5,429.3,231.8,429.4,231.2,429.5z M268.6,455.4c-4.2,0.7-10.9-3.6-13.4-8.8c5.4,2.3,10.2,4.4,15.1,6.5
		C269.7,453.9,269.3,455.3,268.6,455.4z"/>
	<path d="M301.1,364.2c-4.6,1.5-9.1,3.2-13.8,4.5c-8,2.1-11.4,7.9-13.2,15.3c-1,4-2.4,8.1,3.9,9c0.5,0.1,1.2,0.8,1.4,1.3
		c1.1,4.3,2.5,8.6,2.9,12.9c0.8,9.1,1.1,18.3,1.6,27.5c0.8,0.4,1.6,0.8,2.4,1.3c1.6-1.6,4.1-2.9,4.7-4.7
		c4.8-15.3,9.5-30.7,13.8-46.2c1.4-5.2,1.8-10.8,2.2-16.3C307.4,363.9,305.7,362.8,301.1,364.2z"/>
	<path d="M294.3,283.5c-0.8-2.3-4.4-5.7-5.9-5.3c-2.9,0.7-5.7,3.4-7.8,5.9c-1.3,1.5-1.4,4-1.7,6.1c-0.9,5.9-1,11.9-2.5,17.6
		c-1.5,5.9-3.1,11.1,5.1,12.9c-4.7,7.8,5.5,17.4,12.4,15.4c3-0.8,6.3-0.8,9.3-1.7c1.3-0.4,3.1-2.2,3.1-3.3c0-4.3,0-8.7-1.1-12.7
		C301.8,306.6,298.3,295,294.3,283.5z"/>
	<path d="M275.2,343.9c-0.6-2.2-1.8-5.7-3.1-5.9c-2.2-0.3-5.2,1-6.9,2.7c-2.2,2.2-3.4,5.5-5.3,8.7c0.5-3,1-5.6,1.4-8.1
		c-0.5-0.2-1-0.4-1.5-0.6c-1,1.3-2.1,2.6-3.1,4c-3.6,5.2-5.2,11.9-12,14.7c-1.3,0.5-1.5,4.4-1.5,6.7c0,1,1.5,2.8,2.5,3
		c4,0.7,8.2,1,13,1.5c1,2.3,2.1,5.6,3.9,8.5c2.8,4.3,7.6,3.8,9.6-0.9c0.7-1.7,1.3-3.4,1.6-5.2C275.9,363.4,277.7,353.7,275.2,343.9z
		"/>
	<path d="M287.3,348.1c-1.4,2-2,5.3-1.5,7.7c0.3,1.5,3.3,3.2,5.2,3.5c7.2,1.1,15.8-6.4,16.3-13.9
		C299.1,341.3,291.7,342.1,287.3,348.1z"/>
	<path d="M260.4,325.2c-1.1,0.6-1.6,2.4-2.5,3.9c0.8,1.8,1.1,4.1,2.1,4.5c3.2,1.3,6.6,2.4,9.9,2.5c2.5,0.1,2.6-2.2,0.9-3.8
		c-2.1-2.1-4.3-4.1-6.7-5.9C263.2,325.6,261.3,324.8,260.4,325.2z"/>
	<path d="M270.2,384.7c-0.3-0.5-0.6-0.9-0.9-1.4c-3.3,1.5-7.1,2.4-9.8,4.7c-1.5,1.3-1.2,4.7-1.7,7.1c1.8-0.6,3.9-0.8,5.2-1.9
		C265.5,390.6,267.8,387.5,270.2,384.7z"/>
	<path d="M160.2,348.2c3.7,3.3,6.7,5.9,9.7,8.5C169.3,350.4,166.4,347.4,160.2,348.2z"/>
	<path d="M110.1,257.4c-0.1-0.6-1-1.2-1.7-1.5c-3.9-1.4-6.5,0.8-7.5,6.7c3.1-1.2,5.7-2.2,8.1-3.3C109.5,259,110.2,258,110.1,257.4z"
		/>
	<path d="M273.7,35.1c-1.6,0.4-3.2,0.8-4.9,1.2C270,37.1,272.6,38.4,273.7,35.1z"/>
	<path d="M285,33.7c6.6-1.5,13-3.4,20.5-5.4c-0.5-0.5-0.9-1-1.4-1.5c-7.6,2.3-15.3,4.4-23,6.4C282.4,33.5,283.8,34,285,33.7z"/>
	<path d="M687,406.8c8.2-2.7,16.3-5.5,23.5-10.3c1-0.6,1.9-1.3,2.9-2c-5.3,2.3-10.6,4.4-15.8,6.3c-44.7,18-87.7,20.8-111.6,20.7
		c-2.8,0.4-5.6,0.8-8.4,1.2c-35.3,4.6-70.5,9.4-105.9,12.7c-25.5,2.4-50.8-1.2-75.4-8.9c-9-2.8-16.8-7.4-23.9-13.4
		c-11.3-9.5-14.3-22.8-16.8-36.3c-0.3-1.5,1.4-3.3,1.7-4c-1.1-1.6-2.8-3.1-3.1-4.8c-3.8-18.4-6.8-37-11.1-55.3
		c-5.4-23.2-12.5-45.9-23.4-67.2c-6.4-12.4-14.7-23.4-26.5-31.3c-10.1-6.7-21.1-8.5-32.9-5.1c-4.5,1.3-9.2,1.8-13.8,2.6
		c-2.5,0.4-5,0.5-7.6,0.7c-0.3-4.1,2.5-6.8,7.4-6.7c5.2,0.1,10.7,1.9,15.7-1.2c-1.4-6-3.9-1.7-5.4-1c-3-1.2-5.5-2.2-9.4-3.8
		c8.6-7.9,16.8-15.4,25.1-23c-6.4,4-13,8-18.4,13.3c-11.6,11.5-23.7,22.7-31.4,37.5c-1.7,3.2-4,6-5.9,9c-4,6.5-7.1,13.7-12,19.4
		c-14.8,17.3-30.2,34.2-45.7,50.8c-4.8,5.2-9.3,11.3-17.3,13.3c-3.1-5.6-7.5-0.7-11.5-0.7c-0.2,1.2-0.6,2.9-0.7,3.5
		c-3.2-2.3-6.2-4.3-9.1-6.5c-1.8-1.4-6.4-1-3.8-5.6c0.1-0.1-0.5-3.9-3.6-2c-0.6,0.4-3.4-1.9-4.5-3.4c-0.3-0.4,1.8-2.6,2.8-3.9
		c1.7,1.4,4,2.4,5.1,4.1c1.6,2.7,2.5,5.8,3.7,8.7c5.2-1,8.6-4.2,10.8-8.7c0.9-1.9,2-3.9,2.4-6c0.9-5.8,4.2-7.7,9.8-6.9
		c2.6,0.4,5.3,0.1,8,0.1l0-1.4c-4.8-0.4-9.6-0.7-14.1-1.1c0.5-2.6,0.8-4.6,1.2-6.7c0.4-2.1,0.7-4.3,1.3-6.3c1.1-3.8,3.8-4.5,6.4-1.5
		c2.7,3.1,5.1,2.4,8.1,0c-4.5-1.5-4.6-3.6-0.8-8.5c3.3,9,8.5-1.1,12.9,3c-2.6-8.8,2.5-15.5,9.8-15.4c6,0.1,12.1,0,18.1,0
		c0-0.4,0-0.9,0-1.3c-8.5-0.6-16.9-1.1-26.1-1.8c7.2-22.1,10-44.4,21.9-63.7c-4.8,19.7-9.6,39.4-14.4,59c0.5,0.2,1.1,0.4,1.6,0.7
		c0.6-0.4,1.3-0.7,1.9-1.2c5.4-4.4,6.9-10.6,8.3-17.1c2.2-10.1,5-20.1,7.8-31c3.5,5.5,5.6,5.8,9.1,1.9c3-3.4,5.5-7.3,8.1-10.8
		c0.4,3.4,0.4,7,1.3,10.3c1.1,4.4,4.4,5.6,7.9,2.9c2.5-1.9,4.6-4.3,6.3-6.9c3.4-5.2,6.5-10.7,9.7-16.2c3.2,4.9,5.9,5.5,9.8,1.1
		c4.4-5,8.2-10.5,11.8-16.1c3.3-5.1,5.6-11,9-16c4.5-6.5,9.9-12.5,14.8-18.8c1.1-1.5,1.7-3.3,2.6-4.9c-0.6-0.4-1.1-0.8-1.7-1.2
		c-11,13.5-22,27-33,40.4c-0.5-0.2-1-0.4-1.5-0.6c1.5-4.2,2.4-8.8,4.8-12.4c5.9-8.9,12.2-17.5,18.9-25.7c2.3-2.9,6-5.3,9.5-6.5
		c14.4-4.8,29-9.1,43.5-13.6c5-1.5,10.1-3,15.1-4.5c0.5,0.6,1,1.2,1.5,1.8c-2.9,2.4-6.1,4.6-8.8,7.3c-3.1,3.1-5.9,6.5-8.8,9.8l0,0
		c0,0,0,0,0,0c-0.7,0.3-1.6,0.5-2.1,1c-15,15.7-29.9,31.5-44.8,47.3c-0.8,0.8-1,2.1-1.5,3.2c2.2-0.5,3.6-1.5,4.8-2.8
		c10.9-12.1,21.7-24.2,32.5-36.3c3.7-4.2,7.5-8.3,11.3-12.4c1.4-1,3-1.9,4.3-3.2c5.3-5.3,10.5-10.7,15.8-16c0.9-0.9,2.2-1.4,3.3-2.1
		c0.3,0.4,0.6,0.8,0.9,1.2c-2.8,3-5.6,6.1-8.5,9c-13.6,14-27.4,27.8-40.7,41.9c-6.7,7.1-12.7,14.8-18.5,21.6
		c5.3-2.4,11.8-5.3,18.2-8.2c0.5-0.2,0.9-1,1.3-1.5c7.3-8.4,14.2-17.1,21.9-25.1c12.6-13,26-25.4,38.6-38.4
		c3.7-3.9,7.7-6.5,12.7-7.8c1.9-0.5,3.9-0.8,5.8-1.3c16.5-4.4,33-8.9,49.6-13.3c1.6-0.4,3.6-0.3,5.2,0.3
		c12.9,4.1,25.8,8.5,38.7,12.6c2.5,0.8,5.2,1.1,7.7,1.6c0.1-0.5,0.3-1,0.4-1.4c-6.4-2.6-12.8-5.2-19.2-7.8c-4.4-1.7-7.2-5.9-7-10.4
		c0-1.4-0.6-2.8-1-4.4V56.3c2.4,0.2,4.2,0.6,6,0.5c10.2-0.6,16.4,5.3,20.6,13.5c3.4,6.7,5.7,13.9,9.3,20.6c1.3,2.5,4.5,4.7,7.3,5.6
		c7.8,2.3,15.9,3.9,23.3,5.6c1.4-1.1,2.4-2.5,3.8-2.9c7-2,13.9-4.4,21.4-2c1.5,0.5,3.4-0.2,5.1-0.3c0.3-0.7,0.5-1.4,0.8-2.1
		c-12-10.4-24-20.8-35.9-31.2c4.3-2.9,8.9-6,14-9.5c-2.1-0.8-4-1.8-6-2.1c-12.6-2-24.1-6.8-35.1-13.2c-10.6-6.1-22.5-8.7-34.7-10.9
		c-0.3,1.3-0.5,2.3-1.1,4.5c-7.3-2.1-14.5-4.1-21.7-6.1c-14.4-4.1-28.5-1.7-42.6,1.7c-8.2,2-8.7,3.3-4.2,9.8
		c-2.6,1.6-5.1,3.5-7.8,4.9c-4.4,2.4-8.2,0.2-12.4-1.1c-5.7-1.9-11.6-2.7-17.7-4.1c4.4-3.6,11.1-3.5,16.8-0.1
		c1.4,0.8,3.2,0.9,4.9,1.3c0.2-0.8,0.4-1.6,0.6-2.5c-3.5-1-7.2-3.1-10.6-2.9c-7.8,0.6-15.5,2.4-23.3,3.8c-0.2,0-0.3,0.1-0.4,0.2
		c-5.5,5.7-13.3,5.5-20.2,7.2c-10.6,2.7-21.5,4.2-32.2,6.3c-4.9,1-9.8,2-14.5,3.5c-2,0.6-4.2,1.7-5.4,3.3
		c-6.8,9.2-13.4,18.5-20,27.9c-0.4,0.5-0.1,1.5-0.2,3.5c6.8-5.2,12.7-9.7,18.9-14.4c-0.2,3.4-0.4,6.1-0.5,8.1
		c2.4-0.2,4.4-0.4,6.4-0.7c0,0.3-0.1,0.5-0.1,0.8c1.8-1.1,3.6-2.2,6-3.8c-0.2,2.1-0.3,3.1-0.4,4.1h4.3c0.3,0.4,0.6,0.8,0.9,1.3
		c-2.6,2.1-5.2,4.1-7.8,6.2c0.2,0.3,0.4,0.5,0.6,0.8c1-0.2,2-0.4,3-0.6c0.3,0.5,0.5,0.9,0.8,1.4c-2.1,1.4-4.5,4.3-6.4,4
		c-2.4-0.4-3.8,0.6-5.6,1c-7.4,1.3-14.8,2.4-21,7.3c-0.6,0.5-2.3,0.8-2.7,0.3c-3.6-3.4-5.1-0.3-7.1,2c-1.4,1.6-3.2,2.9-4.8,4.3
		c-3.2,2.7-5.6,5.8-5.1,10.9c3.1-1.3,5.7-3.3,8.3-5.2c1-0.7,2.1-1.4,3.2-2c0.2-0.1,1.3,1.1,1.2,1.3c-0.6,1.1-1.2,2.3-2.2,2.9
		c-3.9,2.5-8,4.8-11.9,7.3c-3.4,2.2-6.6,5-10.2,6.8c-1.8,0.9-4.5,0.2-7.7,0.2c16.6-31.9,38.7-58.2,59.1-85.9
		c-41.2,10.9-79,27.8-110.8,56.5c31.3-33.9,72.7-49.7,114.5-65.3c0-0.3-0.1-0.7-0.1-1.1c-5.2,1.3-10.4,2.5-15.6,3.9
		c-21.1,5.3-44.1,10.2-62,23.1c-8.1,5.9-15.3,12.9-22.9,19.4c-6.9,5.9-14.2,11.3-21.1,17.2c-13.6,11.6-28.8,26.1-47.3,28.7
		c-9,1.3-16.9,0.4-24.9,4.6c-2.6,4.2-5.8,8-8.5,12.1c0.4-0.1,0.9-0.1,1.4-0.2c2.3,13.1,15.2,10.5,23.6,15.6c-1,2.8-2,5.7-3.3,9.2
		c5.7-1.5,10.8-3,16.1-4.2c9.5-2.2,19-4.3,28.6-6.3c1.1-0.2,2.4,0.3,3.7,0.5c0.9,0.1,2,0.4,2.8,0.1c5-2.2,9.9-4.5,14.8-6.8
		c0.5,0.6,0.9,1.3,1.4,1.9c-4.4,4-8.3,8.8-13.3,11.6c-4.7,2.7-10.4,3.8-15.9,4.4c-1.5,0.2-3.4-4-5.2-6.3
		c-4.4,8.6-12.4,12.3-24.7,12.7c-4.1,4.4-11,8.4-19.3,9.7c-2.1,0.3-3.4,0.3-5.3-1.9c-2.9-3.4-7.7-1.6-11.3,0
		c-4.6,2-5.3,5.8-4.1,12.6c1.1,6.5,1.3,13.1,2.4,19.6c2.1,13-2.5,25.2-3.5,37.8c-0.8,10.9-0.8,21.8-0.6,32.7c0.1,7,1.3,14.1,2,21.1
		c0,0,0,0,0.1,0c0.4,4.8,0.8,9.7,1.2,14.6c-1.4-0.3-3.4-1-5.5-1.2c-3.1-0.4-4.9-1.9-5.1-5c-0.4-6.3-2.5-12.6,0.2-19.1
		c1.1-2.7,0.9-6.5-0.1-9.3c-0.7-2.1-3.6-3.4-5.5-5.1c-0.5,0.3-1,0.6-1.5,0.9c-0.4-6.6-1-13.2-1.1-19.8c-0.2-13.1,0.4-26.3-0.3-39.4
		c-0.4-7.5-2.3-15-4.3-22.3c-1.6-5.9-4.9-6.5-8.8-1.8c-2.6,3.2-3.9,7.4-5.9,11.1c-1.1,2-3.1,3.6-3.7,5.7c-1.7,5.7-3.1,11.5-4.4,17.3
		c-1.1,5.1-2,10.2-3.1,15.5c-0.8-0.3-1.6-0.7-2.4-1c-0.4,1.2-0.8,2.4-1.2,3.6c-1.1,14.8-2.1,35.6-1.1,52.5
		c1.7,29.4,28.7,21.1,28.7,21.1s116.7,36.9,140.1,54.1s36.4,67.5,51,84.1s37.7,36.9,70.5,26.7s50.9-43.8,60.4-56.7
		c9.5-12.9,32.7-6.3,32.7-6.3s53,20.5,125.5,10.5c16.5-4.9,36.4-8.9,60.4-11.5c48.6-5.3,86-13,114.9-21.9
		C685.4,407.3,686.2,407.1,687,406.8z M285.1,77.7c2.4-3.4,7.4-2.4,8.6,1.4c3.6-0.9,7.3-2,11-2.5c0.9-0.1,3.1,2.1,3.1,2.2
		c-2.6,3.8-4.7,9.9-8.2,10.7c-5,1.2-10.1,4.1-16.1,2.9v-5.6c-2.3,3.2-4,5.4-5.6,7.7c-0.5-0.3-1.1-0.7-1.6-1
		C279.1,88.2,281.6,82.6,285.1,77.7z M97.6,142.9c-1.1,2.2-4.1,5.4-3.5,6.3c2.4,3.7,0.2,5.7-1.8,7.7c-0.9,0.9-2.7,1.8-3.7,1.5
		c-5.2-1.5-10.5-3.1-15.5-5.2c-4.1-1.7-4.9-9.7-0.9-12.8c3.7-2.9,8.3-4.7,11.2-6.3c6.4,1.3,11.7,0.1,13.6,6
		C97.3,141,97.9,142.2,97.6,142.9z M13.3,300.1c0.6-4.4,4.5-9.3-3.1-12.2c0.4-0.4,0.7-0.9,1.1-1.3c1.8-0.6,3.5-1.3,5.8-2.1
		C18.3,290.5,17.3,295.5,13.3,300.1z M8.9,283.1c1.6-7,3-12.8,4.3-18.6c0.6,0.1,1.1,0.2,1.7,0.2c-0.4,4.8-0.5,9.6-1.3,14.3
		C13.4,280.3,11.1,281.3,8.9,283.1z M19.6,258.9c-2.5,0.9-5,1.8-7.5,2.7c-2.5-6.3,0.8-11.6,7.5-11.8V258.9z M27,267.6
		c-0.2,0.9-1.4,1.7-2.3,2.2c-0.3,0.1-1.3-0.8-1.7-1.4c-2.9-4.5-0.7-9.2,6.2-11.1C28.3,261.2,27.8,264.5,27,267.6z M85.9,322.1
		c-10.9-3.9-21.8-7.8-32.7-11.8c5,1.1,10.1,2,15.1,3.4c6.2,1.8,12.2,4.2,18.3,6.3L85.9,322.1z M87.6,259.9c-2.2,4.6-6.2,2.2-10,2.8
		c0.7-3.7-0.1-7.7,4.6-8.3c1.5-0.2,3.2,0.9,5.6,1.7c-0.1,0.3,0.3-0.5,0.7-1.3c0.3,0.1,0.5,0.2,0.8,0.3
		C88.7,256.7,88.3,258.4,87.6,259.9z M112.9,289.7c-1.7,0.3-3.5,0.5-5.1,0c-1.6-0.5-2.9-2-5.7-4c3.3-0.3,5.5-0.8,7.6-0.6
		c1.4,0.1,2.8,1.2,3.8,2.1C113.8,287.5,113.3,289.7,112.9,289.7z M97.1,280.1c3.4,0.3,6.1,0.6,8.8,0.8
		C102.9,283.5,99.9,285.2,97.1,280.1z M144,270.7c-0.2,0.4-1.4,0.7-1.6,0.5c-0.5-0.4-1.2-1.4-1-1.9c1.6-4.9,3.2-9.8,5.1-14.5
		c0.3-0.8,2.4-0.9,3.6-1.4c0.5,0.4,0.9,0.7,1.4,1.1C149,259.9,146.6,265.3,144,270.7z M150.7,187.2c-1.8-0.9-3.5-2-5.3-3
		c1.2-1.4,2.5-2.7,4.7-5.1c1.2,3.6,2,6.1,2.8,8.5C152.2,187.5,151.3,187.5,150.7,187.2z M153,187.7C153,187.7,153,187.7,153,187.7
		c0.8,2.5,1.7,4.8-1.5,6.7c-0.9,0.5-0.4,3.1-0.9,4.6c-0.8,2.3-1.9,4.5-3.6,6.2c0.3-3.8,0.9-7.6,0.9-11.3
		C147.8,190.1,150.9,189.4,153,187.7z M151.2,242.5c-0.4,1.5-2.4,2.6-3.7,3.9c-0.5-0.3-1.1-0.7-1.6-1c1.6-7.6,3.1-15.1,4.7-22.6
		c0.6-2.9,1.6-5.8,2.2-8.7c1-4.6,3.9-5.6,7.4-4.9C157.1,220.5,154.3,231.6,151.2,242.5z M159.9,251.4c-0.5-1.4-1.5-2.8-1.6-4.2
		c-0.5-14.2,4.2-26.9,10.8-39.1C168.6,222.8,167.5,237.4,159.9,251.4z M253.1,136.9c-8.6,9.9-12.1,22.7-18.6,33.7
		c-2,3.4-4.7,6.4-7.5,10.2c-5.1-12.5,12.2-41.6,27-46.9C253.6,135.4,253.6,136.3,253.1,136.9z M241.4,130.9c3.9-1,7.8-2.3,12.1-2.5
		c-3.9,3.2-7.8,6.3-11.6,9.6c-13.3,11.6-23.8,25.4-31.2,41.5c-1.6,3.3-4.2,6.2-6.4,9.2c-0.7-0.2-1.4-0.4-2.1-0.6
		c0.4-4,0.8-7.9,1.3-12.9c4.3,3.5,6.9,1.8,8.4-1.3c2.9-6.2,5.3-12.6,6.9-19.5c-9.4,2.9-15.2,8.9-18.6,17.6c-1.1-1.2-2.1-3.3-3-3.2
		c-1.6,0.1-3.8,1.1-4.6,2.4c-4.3,7.3-8.3,14.7-12.2,22.1c-1.1,2-1.7,4.2-2.6,6.5c-0.7-2.4-1.3-4.6-1.9-6.8c-0.6-0.1-1.2-0.2-1.7-0.2
		c-1.2,2.9-2.5,5.8-3.2,7.4c-3.4,0.6-6.1,1.1-10.2,1.9c2.3-3.7,2.7-7.1,7.2-6.4c0.9,0.1,2.7-2.6,3.3-4.3c1.3-4.2,2.2-8.5,3.2-12.8
		c0.6-2.6,1.5-5.1,1.7-7.7c0.3-3.1,0.8-6.9-4.6-4.4c3.5-8.1,10-11.7,16.9-15.7C205.1,141.2,223,135.4,241.4,130.9z M130.4,157.2
		c-2.6-4.3,0.6-5.5,3.3-7.1c1.3,1.6,2.6,3.1,4.1,5C135.4,155.8,133.1,156.4,130.4,157.2z M145.1,135c-1.3-1.1-2.2-1.8-3.4-2.9
		c-2.7,3-5.3,6-7.8,8.7c-2.3-1.9-4.1-3.3-5.8-4.7c-1.7-2.1,2.3-5.8-4.1-6.2c34.7-32,70.2-60.5,117.1-73.3c-1.7,2.2-2.6,3.4-4.1,5.3
		c3.1-1,5.5-1.8,9-2.9c-6.5,8.4-12.5,15.8-18,23.5c-10.9,15.3-21.6,30.7-32.3,46.1c-2.7,3.9-5.2,6.2-10.1,3.3
		c-1.1-0.6-3.3,0.6-5,1.1c-3.6,1.1-6.8,4.9-11,1.9c-1.3-0.9-2.4-2.2-4.4-4.2c-1.8,0.2-4.9,0.5-8.5,0.9c-0.5-2.9-1-5.7-1.6-8.6
		C148.6,124.2,146.7,129.3,145.1,135z M145.8,168.2c6.4-0.4,8-6.3,11.2-9.9c7.3-8.1,17-9.3,26.8-11c-9.5,6.8-19,13.6-28.5,20.4
		c0.4,0.6,0.8,1.3,1.3,1.9c4.7-2.8,9.4-5.5,15.1-8.9c-6.8,11-17.1,10.4-27.8,11.9C144.7,170.5,145.2,168.3,145.8,168.2z
		 M133.1,236.4c1.6-1.5,2.4-3.9,3.7-6.3v8.1c1.8-2.2,2.8-3.4,3.9-4.7l1.2,0.3c-1.2,5-2.1,10.2-3.7,15.1c-0.9,2.6-4.3,1.9-7.4-1.4
		c1-0.5,2-1,3.7-1.8C129.3,242.7,129.4,239.8,133.1,236.4z M127.7,256.4c0.2-3.5,2.9-4.1,5.3-3.2c2.4,0.8,5.5,2.1,4.4,5.8
		c-2.1,6.6-4.4,13.2-6.9,19.7c-0.4,1-2.2,1.7-3.5,2c-1.5,0.4-3.2,0.4-4.8,0.6c0,0.5,0.1,0.9,0.1,1.4c1.2,1,2.4,1.9,3.6,2.9
		c-0.3,0.4-0.7,0.9-1,1.3c-1.2-1-3.1-1.9-3.5-3.1c-1.9-5.7,2.4-18.9,6.3-21C127.7,260.5,127.6,258.4,127.7,256.4z M118.9,221.3
		c2.7-0.2,4.5,0.5,4.4,4.3c-0.1,3.4,1.5,6.9,2.2,9.6c-3.9-1.8-8-3.3-11.5-5.6c-1.7-1.1-2.4-3.7-4.1-6.2
		C113.5,222.4,116.2,221.5,118.9,221.3z M97,260.8c1.2-5.6,7.3-9.2,14-8.6c1.9,0.2,3.7,1.2,5.6,1.3c1.7,0.1,3.5-0.5,6-0.8
		c-1.5,4.3-2.5,7.7-4,11c-0.5,1.1-2.4,2.2-3.6,2.2c-5.3-0.2-10.6-0.6-15.8-1.4C98.2,264.3,96.8,261.9,97,260.8z M98.3,268.1h11.3
		c-1.2,2.3-2.2,4.4-3.5,6.2c-0.6,0.8-2,1.6-3,1.5c-2.1-0.2-4.1-1-6.5-1.6C97.3,271.9,97.8,270.1,98.3,268.1z M94.9,296.2
		c-0.1,1.6-0.2,3.3-0.3,4.9c-0.6,0-1.1,0-1.7,0c-0.3-5.9-0.6-11.8-0.9-17.6c0.5,0,1.1,0,1.6-0.1c-0.1,1.2-0.1,2.4-0.3,4.7
		c4.8,1.6,9.8,3.2,14.3,4.7c-1.9,0.8-4.5,1.8-8.2,3.3c4.1,1.6,6.6,2.6,9.5,3.8c-1.1,1.5-1.8,2.6-2.6,3.8
		C102.4,301.3,94.6,304.3,94.9,296.2z M129.8,335.9c-5,0.4-9.9,0.9-14.4,1.3c-0.3-1.9-0.2-4.6-0.9-4.8c-4.6-1.4-8.8-4.8-13.7-4.7
		l-0.4,1.3l-3-3.7c0.2-0.3,0.4-0.7,0.5-1c10.6,3.6,21.3,7.2,31.9,10.8C129.8,335.3,129.8,335.6,129.8,335.9z M235.2,216.9h9.9
		c0.2,0.4,0.3,0.7,0.5,1.1c-1.7,1.3-3.4,3.6-5.2,3.7c-1.9,0.1-3.9-1.9-5.8-3C234.9,218.1,235,217.5,235.2,216.9z M197.4,269.3
		c0.6,0.5,1.2,1,1.8,1.4c-3.7,4.7-7.2,9.5-11.2,13.9c-1.8,2-4.4,3.3-6.8,4.8C186.7,282.7,192,276,197.4,269.3z M189.2,305.5
		c-0.2,5.9-1.1,11.7-1.6,17.5c-0.1,1.6,0.2,3.2,0.3,5.5c-6-1.2-11.8-2.5-18.4-3.8c1.6,3.2,2.7,5.4,3.7,7.5
		c-6.6,4.6-9.2,4.2-11.9-1.3c9.9-11.9,19.6-23.6,30.2-36.3c0,2.1,0.5,4.2-0.1,4.5C188.7,300.8,189.3,303,189.2,305.5z M162.7,309.4
		c3.8-4.1,7.4-8.5,11.2-12.6c2.2-2.4,4.6-4.6,7-6.9c0.2,1.1,0.9,2.6,0.4,3.1c-8,9-16.1,17.9-24.4,26.7c-0.9,0.9-2.7,1-4,1.4
		c-0.1-0.4-0.2-0.8-0.4-1.1C155.9,316.5,159.3,313,162.7,309.4z M199.2,361.8c-0.8-1.3-1.5-2.6-2.5-4.4c-5.3,4.5,1.6,9.9-1.4,14.1
		c-0.3-0.4-0.7-1-1.8-2.5c0,2.1,0.4,3.4-0.1,4.4c-0.6,1.2-2.1,3-2.7,2.8c-3.6-0.9-7.1-2.2-10.6-3.5c-2-0.8-3.7-2.3-5.7-3
		c-4.5-1.5-9.2-2.6-13.8-4.2c-1.6-0.6-3-2-4.5-2.9c-2.9-1.7-5.7-3.6-8.8-4.9c-3.5-1.4-8.3-7.8-7.4-12.5c0.4-2.1,3.9-3.7,6.1-5.4
		c6.1-4.7,11.9-2.2,17.8,0.7c2.2,1.1,4.6,1.6,7.8,2.6c4.7,4.5,10.2,9.8,15.7,15.1c0.6-0.7,1.3-1.4,1.9-2.1c-2.4-1.9-4.7-3.8-7.1-5.8
		c0.2-0.4,0.4-0.9,0.5-1.3c5.4,2.2,10.9,4.2,16.1,6.8c1.3,0.6,1.4,3.5,2,5.4C200.2,361.4,199.7,361.6,199.2,361.8z M201.4,317.1
		c0.5-15.8,1.6-31.6,6-46.9c4.4-15,10-29.5,18.6-42.8c0.3-0.5,0.9-1,1.4-1.6c2.2,1.3,4.4,2.5,6.9,3.9c-3.4,6-7.1,11.9-10.2,18.1
		c-1.6,3.2-2.6,6.8-3.3,10.4c-0.6,3.1,0.4,5.2,3.9,3.7c-7.6,26.4-15.2,52.9-22.9,79.8c0.2-5,0.6-9.9,0.6-14.8
		C202.3,323.7,201.3,320.4,201.4,317.1z M309.3,362.9c-2.5,23.7-5.3,47.6-15.6,69.6c-4.4,9.4-8.1,19-16.6,26.2
		c-5.7,4.8-10.2,11.1-17.2,14.1c-9.3,3.9-17.7,1.2-24.8-5.4c-9.7-9-14.6-20.8-18.3-33.3c-4.9-16.8-6.6-33.9-6.7-51.9
		c0.6-29.8,5.4-59.4,18-87.3c4.1-9.1,9.2-17.5,17.1-24c2.3-1.9,3.6-5.1,6-6.9c12.4-9.9,24.1-9.1,35,2.1c9,9.2,14.6,20,16.2,32.9
		c0.4,2.9,2.4,5.5,2.9,8.4C308.8,325.7,311.2,344.3,309.3,362.9z"/>
</g>
</svg>
