<?xml version="1.0" encoding="utf-8"?>
<!-- Generator: Adobe Illustrator 19.1.0, SVG Export Plug-In . SVG Version: 6.00 Build 0)  -->
<svg version="1.1" id="Layer_1" xmlns="http://www.w3.org/2000/svg" xmlns:xlink="http://www.w3.org/1999/xlink" x="0px" y="0px"
	 viewBox="0 0 786.5 1112.3" style="enable-background:new 0 0 786.5 1112.3;" xml:space="preserve">
<style type="text/css">
	.st0{fill:#FFFFFF;}
</style>
<path class="st0" d="M623.2,91.3c-3.4,1.7-8-2.1-7-6c0.1-0.5,0.3-1.1,0.4-1.7c-5,3.4-9.9,7.1-14.5,11c0.6,0.7,1,1.7,1.1,2.8
	c0,0,0,0,0,0c2.8-1.5,5.4-3.5,7.7-5.7c4.6-4.5,11.7,2.6,7.1,7.1c-3.1,3-6.5,5.6-10.4,7.6l6.9,2.2c-0.9-1.5-1-3.3-0.1-5.1
	c1.2-2.3,4.7-3.3,6.8-1.8c2,1.4,4,3,5.2,5.2c1,1.9,1.5,3.9,1.6,6l8.8,2.8c-0.4-7.5-5.2-13.8-10.4-20.3
	C625.4,94.2,624.2,92.8,623.2,91.3z"/>
<path class="st0" d="M595,77.8c-2.8,5.2-6.8,9.4-12.4,11.9c0,0,0.1,0,0.1,0c0.6,0.3,1.1,0.7,1.4,1.2c1.1-1,2.1-2,3.2-3
	c3.6-4,7.3-8,10.8-12.1C597.1,76.5,596.1,77.1,595,77.8z"/>
<path class="st0" d="M661,57.7c16.3-11.9,32.2-13.9,41.2-13.9c-8.3-1-25.3-3.9-59.7-11.3c-59.8-13-102.3,52.1-102.3,52.1l19.1,6.2
	c0-0.1,0.1-0.1,0.1-0.2c7.2-12.6,19.7-21.5,32.4-28c13.2-6.8,27.5-11.6,42-14.4c5.6-1.1,8.6,5.9,3.9,9.1c-3.2,2.2-4.5,5.6-5.3,9.2
	c2,3.4,3.6,6.9,4.9,10.5c4.9,4.3,9.2,9.6,12.7,15.4c0.5,0,1.1,0.1,1.7,0.3c10.9,3.7,18.8,10.8,23.1,21.6c2,4.9,3.1,10,4.1,15.2
	l0.4,0.1c0.7-26.3-4.9-31.8-7.5-39.6C669.2,82.1,636.2,75.8,661,57.7z"/>
<path class="st0" d="M656.1,105.9c0.3,1,0.6,1.9,0.9,2.9c2.6,2.4,5.2,4.8,7.5,7.4C662.5,112.2,659.9,108.6,656.1,105.9z"/>
<path class="st0" d="M648.8,119.7c-0.6-1.3-1.3-2.6-2-3.9c0,1.1,0,2.1-0.1,3.2L648.8,119.7z"/>
<path class="st0" d="M709.7,44.4c0,0-2.8-0.6-7.5-0.6C708.3,44.6,709.7,44.4,709.7,44.4z"/>
<path class="st0" d="M80.8,189c0,0-7.3-35.9,27.1-58.5s68.4,30.1,68.4,30.1l-28.9-84.7l-41.9-31.4L71.6,84.6l-29.4,86.6"/>
<path class="st0" d="M147.5,75.9c0,0,17.9,10.1,38.7,48s-18.5,5.3-19.3,5.7c-0.9,0.4-17-28.3-17-28.3L138.1,89"/>
<path class="st0" d="M521.1,166.2c0.7-2.5,6.7-40,53-65.1s48.1-33.6,65.5-12.9s30.4,50.8,37.7,83.9s5-28.2,5-28.2s-0.6-48.6-36.7-77
	c-36.1-28.4-37.8-25.9-67.8,0c-30,25.9-40.3,32.9-51.9,63.6"/>
<path class="st0" d="M595.1,61c0,0,23.8-23.8,44.5-24.2c20.6-0.5,20.7,9.7,20.7,9.7l-14.7,20.4l-13.2-0.3l-21-3.1"/>
<path class="st0" d="M722.7,207.1"/>
<g>
	<path class="st0" d="M770.9,703c-3-5.6-3.8-11.2-2.2-16.9c-0.9-2.6-1.5-5.4-1.8-8.5c-0.6-6.2,0.1-12.9-5.5-17
		c-8.6-6.3-19.2-7.8-24.9-17.8c-2.2-3.9-2.6-9.4-4.5-13.5c-0.2,0.1-0.5,0.1-0.7,0.2c-0.3-0.7-0.5-1.4-0.8-2.1c0.1,0,0.2-0.1,0.3-0.1
		c-0.1-0.2-0.2-0.4-0.4-0.5c-2.6-3.2-8.5-3.7-12-5.9c-7.7-4.9-14.1-16.8-15.1-28c0,0,0-0.1-0.1-0.1c0,0,0,0,0,0
		c-0.6-7.1,0.9-13.9,5.7-18.4c-2.7-5.5-4.3-11.5-2.5-17.6c1.7-6,6-10.8,8.5-16.4c1.7-3.7,3-7.8,2.9-11.8c-0.1-4.4-1-8.8-1-13.2
		c0-9,5.1-16.6,6.9-25.2c-1.7,1.1-3.5,2.2-5.3,3.2c-2.9,1.7-6.3,2.5-10.9,4.3c1.8-4.8,3.1-8.3,4.5-11.9c-0.6,0.1-1.5,0.2-2.6,0.3
		c0.4-2.2,0.8-4.1,1.2-6c-4.8,4.7-10.8,8.4-8.2,16.5c0.5,1.5-0.9,3.8-1.9,5.4c-1.4,2.2-3.5,3.9-4.8,6.2c-1.7,3-3.1,4.1-6,1.2
		c-2.6-2.6-4.2-1.8-5,1.1c7.4,3,14.7,6,21.1,8.6c-0.2,3.3-0.4,5.5-0.5,7.4c-10.9-2.6-21.5-2.1-33.4-0.1c3.9,2,6.8,2.7,8.5,4.6
		c4.2,4.9,6.6,6.5,11.6,3.7c4.2-2.4,5.2,0.6,7.6,2.2c-3.1,0.7-6.6,0.4-6.1,4.9c-8.6,0-16-2.8-22.6-7.3c-7-4.7-16.7-3.6-22.5-10.9
		c-1.9-2.4-4.9-3.9-7.1-6.1c-1.2-1.2-1.8-3-2.7-4.5c0.3-0.3,0.7-0.6,1-0.8c-5.1-3.3-10.2-6.6-15.3-9.8c3.3-1.2,5.8-1,9.7,1.8
		c6.4,4.8,12.4,12.1,22.1,9.4c-1.3-0.7-2.7-1.5-4-2.2c-5.3-2.7-10.6-5.4-15.9-8c0.1-0.5,0.2-1.1,0.2-1.6c1.4-0.3,2.8-1,4.2-0.9
		c1.4,0.1,2.9,0.8,4.6,1.3c-1.3-4.1-7.8-2.3-7-7.7c3.7,0.7,7.2,0.8,10.4,2c6.1,2.2,12.1,5.1,18.1,7.7c-0.9-1.8-1.8-3.6-3.1-6.2
		c5,0.9,9.2,1.6,13.3,2.5c5.3,1.1,8-2.3,11.3-6.4c-4.3-0.8-7.1,0.2-9.6,3.1c-0.8,0.9-2,2.4-2.8,2.3c-3.9-0.8-7.7-2-11.6-3.1
		c-0.1-0.6-0.1-1.3-0.2-1.9c8.6,2.6,12.7-4.5,19-7.4c-2.2-3.6-3.7-1.4-5.4,0.2c-1.7,1.5-3.6,2.8-6,4.5c1.2-6.1,2.2-10.7,3.3-16.3
		c-2.4,1.4-4,2.5-5.7,3.4c-1.2,0.6-2.4,1.5-3.7,1.6c-5.8,0.3-11.6,0.4-17.4,0.6c-0.2,0-0.3,0.5-1.1,2.2c4.6,0.4,8.8,1,13,1.1
		c2.3,0.1,4.7-0.9,7-0.9c1,0,2.1,1.1,3.1,1.8c-0.9,1.3-1.5,3.4-2.7,3.7c-2.1,0.6-4.6,0.3-6.8,0c-2-0.3-4-1.3-5.9-1.9
		c-0.3,0.3-0.6,0.7-1,1c1.9,2.7,3.7,5.3,6,8.5c-8.2-2.1-16-3.9-23.7-6.1c-1.4-0.4-2.3-2.5-3.4-3.8c1.3-0.9,2.6-1.8,4-2.8
		c-1-1.2-2-2.4-3.2-3.7c1.8-0.6,3.1-1.1,4.5-1.6c-4.2-4.4-9.2-3.2-27.3,6.3c1.5,0.1,2.7,0.2,3.8,0.3c0.2,0.3,0.3,0.6,0.5,0.9
		c-1,0.3-2.1,0.7-2.6,0.9c2.5,1.5,4.3,2.4,5.7,3.8c0.4,0.4-0.4,2.1-0.6,3.1c-3.2-0.7-6.4-1.4-9.5-2.1c0,0.6,0.1,1.9,0.2,3.2
		c-3.4-3.2-5.9-6.8-8.3-10.4c-1-1.5-1.8-3.1-2.7-4.7c2-0.2,4-0.6,6-0.6c1,0,2,1,2.8,1.4c1.3-1,2.3-1.8,3.3-2.7
		c1-0.9,1.9-1.9,3.6-3.6c-10.4-1.1-20.1,2.1-29-3.9c-0.2,6.4,7.7,5.9,8.4,10.9c-1,0.5-1.8,0.9-2.3,1.1c4.5,4.8,8.5,9.8,13.2,13.8
		c6.3,5.2,11.4,10.8,11.4,14.6c-0.9-1.3-1.7-2.3-2.7-3.6c-1,3.8,1.3,7.1,4,7c1.3-0.1,3.7,0.7,3.6,1.1c-0.1,2.3,4.4,4.8-1.8,8.6
		c-2.3-3.4-4.7-6.8-7-10.2c-0.3,0.3-0.7,0.7-1,1c1.1,1.8,2.1,3.7,2.6,4.5c-5.1,7.9,3.1,12.3,3.6,18.2c-1.7-0.8-3.2-1.5-4.9-2.4
		c0.7,3.5,1.3,6.3,1.9,9c-14.8-8.3-30.2-14.1-40.6-27.5c-0.4,0.4-0.7,0.9-1.1,1.3c2.7,3.8,5.4,7.6,8.1,11.3
		c-9.1-1.8-15.4-7.1-20.9-13.5c-1.8-2.1-3.9-4-6.1-5.8c-2.8-2.3-5.6-4.7-8.7-6.5c-7.7-4.5-15.3-9.5-23.6-12.8
		c-5.7-2.3-12.4-2.1-17.2-2.8c-3.9,4.9-7,8.7-10,12.7c-2.9,4-3.5,10.3-11.7,10.2c0.4-2.6,0.5-5.2,1.3-7.6c1.3-3.8,2.9-7.4,4.6-11
		c2-4.3,4.1-8.6,6.2-12.9c0.5,0.1,1,0.2,1.5,0.4c0.2,1.8,0.4,3.7,0.6,5.5c1.7-8.8,7.5-14.5,13.5-19.9c0.5,0.6,1.1,1.2,1.8,2
		c1.1-1.6,1.9-2.9,2.9-4c1.1-1.2,2.5-2.1,3.7-3.3c4.9-5,5.2-8.8,0.8-11.9c-1.2,1.1-2.4,2.2-3.6,3.4l-1.2-1.1
		c3.2-3.9,6.5-7.7,9.6-11.7c0.8-1,1.8-2.9,1.4-3.8c-1.4-3.3-7.3-3.6-9.5-0.6c-1.7,2.3-3.2,4.7-4.9,6.9c-0.7,0.9-2,2.5-2.3,2.3
		c-4.5-2.2-5.1,2.5-7.2,4.1c-2.2,1.7-3.8,4.1-5.8,6.2c-0.3,0.3-0.8,0.4-1.3,0.6c-0.2-1-0.4-1.9-0.7-2.9c-1.7,0.3-3.2,0.5-4.9,0.8
		v-4.8c-2.7-0.6-5.2-1.1-8.7-1.8c-1.2,7.7-2.4,15.5-3.6,23.2c-0.4,0-0.9-0.1-1.3-0.1v-16.9c-2.9,5.6-8.2,5.3-12.5,4.7
		c-1.9-0.3-3.1-4.5-4.6-6.9c-0.4,0.7-1.1,1.9-2,3.4c-0.5-1.2-0.8-2-1.1-2.7c-1,4.4-0.1,8.9-1.2,12.8c-1.6,5.7,0.6,10.3,2.1,15.4
		c1.5,5,2.2,10.3,3.5,16.7c-10.1-6.2-6.5,4.8-10.6,5.6c-0.6-1.1-1.3-2.2-1.9-3.3c-1.7,6.8,1.5,15.4-8.8,17.4
		c2.8,5.8,2.8,5.8-1.7,6.8c1.8,6-2.1,9.2-5.9,12c0.4,3.5,0.8,6.6,1.1,8.8c1.5,1.8,3.7,3.2,3.6,4.5c-0.2,4.7,3.7,9.1,0.7,14.2
		c-0.6,1,1.2,4.3,2.7,5.6c2.9,2.5,6.7,3.8,9.4,6.4c2.6,2.5,6.3,5.9,6.2,8.8c-0.2,3.6-2.4,8.5-8,8.4c-3.7-0.1-7.3-0.4-11.1-0.7
		c-1.8,4.6,1,6.6,4.9,8c-4.9,2.6-7.8-5.9-12.8-1.8c2.6,3.5,4.7,7,7.6,9.9c2.6,2.6,2.2,4.6,0,6.7c-2.2,2.1-2,4-0.7,6.7
		c1.7,3.3,2.7,7,3.9,10.5H417c-4.6,1.6-9.5,2.6-14.5,3.5c-2.4,0.4-4.8,0.7-7.2,0.7c-6.2,0.1-12.7,5.2-18.1-1.2
		c-2.3,1.3-4.4,3.5-6.3,3.4c-5.4-0.4-8.3,2.4-9.7,5c-6.3,0-11.5-0.3-16.6,0.1c-3.2,0.2-6.3,1.4-9.4,2.4c-1.5,0.5-2.8,1.9-4.3,2.3
		c-7.8,2.2-13.3,7.6-18.8,13.1c-4.3,4.2-6.6,10.6-13.6,11.9c-0.9,0.2-1.7,1.5-2.2,2.5c-2,3.7-4.1,7.4-5.9,11.3
		c-1.6,3.6-3.7,7.3-4.2,11.1c-0.9,7.4-2.9,9.8-10.3,10.9c-1.5,0.2-3.6,1.5-3.9,2.7c-3.2,12.9-6.4,25.8-9,38.8
		c-3.4,17-1.8,34.8-7.6,51.6c-1.5,4.4-3.8,6.4-8,8.4c-0.7-3.7-1.3-6.7-1.8-9.7c-2.7,6.8-4.6,13.7-6.4,20.6c-0.3,1.1,0.2,2.3,0.3,3.4
		c0.4,3.6,0,6.7-3.7,6.8c-0.4,11.5,4.2,22.9-3.4,34c-1.6-1.9-2.6-3-3.5-4.1c-1.1-1.2-2.2-2.5-3.5-3.5c-0.8-0.6-2.3-1.1-2.9-0.7
		c-0.7,0.4-1,1.9-1.1,3c-0.2,1.9-0.4,3.7-0.3,5.6c0.1,1.3,0.3,2.9,1,3.9c4.2,5.3,4.2,8.5-0.7,12.7c-2.8,2.4-3.8,4.8-2.2,8.3
		c4,8.7,7.8,17.5,11.7,26.3c0.2,0.6,0.8,1,1.2,1.5c0.9-1.4,1.6-2.6,2.4-3.8c0.7,0.1,1.3,0.2,2,0.4c2.2,3.9,4.7,7.8,6.6,11.9
		c3.4,7.5,6.3,15.2,9.8,22.6c1.8,3.9,4.4,7.5,6.9,11.1c1.4,2,4.2,3.3,4.9,5.3c2.3,7.4,4.7,14.4,11,19.5c1.9,1.5,3.2,3.8,5.1,6.1
		c0.3-0.1,1.4-0.4,1.7-0.5c0.5,2.4,0.9,4.5,1.3,6.6c0.4-0.1,0.8-0.2,1.1-0.3c0.1-1,0.1-2,0.2-3.9c3,6.3,5.2,11.9,8.2,17.1
		c3.3,5.7,6.8,11.4,11,16.5c6.8,8.2,14.3,15.9,21.4,23.8c1.2,1.3,2.4,2.8,3.2,4.4c3.9,7.6,6.4,16.3,16,19.3c0.6,0.2,1.1,0.7,1.7,1.1
		c12.4,8,25.8,13.1,40.8,13.2c2.8,0,5.6,0.5,8.3,1.2c1.1,0.3,2.5,1.8,2.7,3c1.2,5.5,2,11.1,3.2,16.6c0.3,1.4,1.9,2.5,2.9,3.7
		c0.4-0.3,0.8-0.6,1.2-1c-0.5-1.9-1-3.8-1.5-5.8l1.2-0.5c1.1,2.6,2.3,5.2,3.8,8.7c5.8-6.6,10.5-12.9,16.2-18.3
		c3.7-3.5,8.5-6.7,13.4-8c10.2-2.6,20.9-3.7,31.3-5.8c4.5-0.9,9.1-2,13.1-4.1c4.2-2.2,7.6-5.7,11.5-8.6c2.7-2,5.4-2.8,7.4,0.8
		c4.8-4.5,7.1-2.2,12.3,6.1c0.4-0.3,0.9-0.5,1.1-0.9c1.8-3.8,3.1-5.1,5.5-4.8c12.9-11.7,25.7-23.5,38.2-35.7
		c4.7-10.7,9.6-21.3,15-31.6c-1.5-1.8-2-4.6-0.1-6.8c3.2-3.7,6.5-7.4,9.9-11c14.4-24.6,31.4-48,51.5-68.1c4.3-6.1,8.9-12,13.8-17.6
		c13.2-14.9,28.8-26.4,45.4-37.2c7.3-4.8,14.5-9.8,21.3-15.3c3.5-7.1,7.7-13.8,12.2-20.3c-0.1-0.1-0.1-0.1-0.2-0.2
		c-3.9-5.8-6.5-12.4-13-16.4c-3.1-1.9-4.9-5.8-7.6-8.4c-4.4-4.2-8.5-8.5-11.2-14c-0.8-1.7-1.5-4.1-0.8-5.7c1.2-2.7,3.2-5.2,7-3.9
		c0.6,0.2,1.2,0.1,2.4,0.2c-7.7-4.2-7.8-4.5-4.2-9c-7.8-5.9-11.4-16.1-7.8-22.8c-4.6-3.3-8.9-6.8-9.3-13.2c0-0.8-1.7-1.9-2.8-2.1
		c-3.4-0.6-6.9-0.9-11.7-1.4c1.6,3.5,3,6.3,4.3,9.1h-3.9c1.6,2,3.2,4.1,5.4,6.9h-10.6c0.3,2.7,4,4.6,0.8,7.2
		c1.6,1.2,3.2,2.5,5.3,4.1c-0.4,0.4-1.7,2-2.1,1.8c-3.4-2-8.1-0.5-10.8-4.9c-1.6-2.6-5.4-4.3-8.5-5.6c-6.2-2.5-9.8-6.5-11-13.3
		c-0.5-3-3.8-5.5-4.6-8.5c-1-4.1-3.6-4.3-6.9-4.7c-2.4-0.3-4.6-1.7-7.4-2.7c1.3-1.5,2.2-2.5,3.8-4.4c-4.2-3.9-8.5-7.8-12.8-11.9
		c0.9-0.8,1.9-1.7,2.9-2.6c-0.2-0.3-0.4-0.6-0.6-1c-0.8,0.3-1.6,1-2.3,0.9c-2.4-0.5-6.5-0.9-6.7-1.9c-0.9-4.7-5-5.7-7.7-8.5
		c-4.4-4.5-9.4-9-10.1-16.4c-0.4-4.1-3.5-7.2-8-8.3c-9.7-2.3-18.7-6.2-26.5-13.3c-0.9,1-1.9,2.1-3.3,3.6c-5.2-2.7-10.2-5.5-15.2-8.1
		c-5.3,3.3-11,0.8-15.6-0.8c-6.1-2.1-10.7-7.3-12.4-15.8c5.1,2.8,9,5,13.9,7.6c-1-8.1-7.6-9.9-10.4-13.9c-1.2,0.8-2.4,2.2-3,2
		c-2.8-0.9-5.8-1.8-7.9-3.6c-1.5-1.3-2-4.2-2.1-6.4c-0.1-7.9,4.7-12.8,11-17c0.5-1.8-6.1-3.3-0.7-5.4c1.5-0.6,3.8,1.1,5.8,1.7
		l1.4-1.8c-1.5-1.3-3.1-2.6-4.4-3.6c6.5-2.2,12.4-0.3,14.3,5.3c1.6-1.4,3.3-2.8,5.5-4.8c-2-1.9-4-3.8-6.1-5.7
		c0.2-0.4,0.4-0.8,0.6-1.2c2.9,1.5,5.9,3,9.1,4.6c1-0.9,2.1-2.4,3.5-2.9c1.7-0.6,4.3-1.3,5.6-0.5c6.4,4.2,7.5,3.1,11-4.8
		c2.7-6,3-6.5,7.7-1.9c4.9,4.8,10,9.5,14.5,14.6c1.3,1.5,1.3,4.5,1.4,6.9c0.1,2.8-0.4,5.5-0.4,8.3c0,2.8,0.2,5.8,4.2,2.8
		c0.5-0.4,1.5-0.1,1.5-0.1c1.3-3.6,2.4-6.6,3.2-9c3.8,0.9,6.3,1.5,8.9,2.2c4,1,7.8,0.9,11.1,5.1c3,3.8,8.8,5.9,13.7,7.6
		c1.9,0.6,5.6-1.2,7.1-3.1c1.9-2.4,3-2.4,5.2-0.8c5.2,3.8,11.2,6.8,15.4,11.5c2.9,3.3,6.5,5.6,9.2,8.6c3.1,3.4,5.5,2.4,8.5,2.1
		c0.2-0.6,0.4-1.2,0.7-1.9c-1.7-0.7-3.4-1.5-5.2-2.3c0.2-3.8,10.3-3,4.5-10.4h3.9c3.6-5.1,5.8-11.3,9.9-13.2
		c4.1-1.9,10.2,0.6,16.9,1.2c-3,2.1-4.9,3.4-7.1,4.9c2.7,0.8,6,0.9,6.4,1.9c0.8,2.6,0.4,5.6,0.2,8.5c-0.1,1.3-0.8,2.5-1.2,3.7
		c4,3.7,4,4.1-0.8,8.1c2.5,3.9,8.6,4.6,16.6,2.2c-2.3,1.4-4.5,2.9-6.8,4.3c0.5,0.5,0.9,1,1.4,1.5c1.8-0.6,3.7-1.1,6.3-1.9
		c-2.8,4.8-5.2,8.7-7.2,12.2c1.9-0.6,4.7-1.6,8.6-2.8c-1.2,2.9-1.9,4.8-3,7.6c5.9-1,10.8-1.8,15.8-2.7c1.2,2.4,2.6,5,3.9,7.7
		c0.3-0.4,0.5-0.8,0.8-1.1c3,1.2,6,2.3,9.3,3.6c-0.3,1.4-0.7,2.6-1,4.1c1.8,0.4,3.5,0.7,4.8,1c0.9,4.8,1.7,9.2,2.5,13.8
		c2.2-0.4,3.7-0.7,5.6-1c1.3,3.2,2.7,6.4,4.1,9.7c0.2,6.9-7,7.4-11.2,11.1c-1.8,1.5-3.9,2.7-5.9,4c2.4,3.9,4.9,4.1,8.4,2.8
		c5.9-2.3,12-4.1,19-6.4c-1,5.3-2,8.8-2.4,12.5c-0.2,2.4-0.5,5.8,0.8,7c1.7,1.6,5,1.6,7.6,2.2c0.6,0.1,1.3,0.1,1.3,0.1
		c0,2.5,0.7,5-0.2,6.7c-1.2,2.6-3.5,4.7-5.4,6.9c-1.6,1.9-3.3,3.7-4.8,5.7c-1.3,1.8-2.2,3.9-3.4,5.9c0.8,0.8,1.7,1.8,2,2.1
		c-4.7,6.2-9,12.3-13.8,17.9c-2.6,3-6.2,5.2-9.6,7.4c-1.4,0.9-3.4,1-5.2,2.2c3.2,0.7,6.3,1.5,10.9,2.6c-2.6,1.5-3.8,2.3-5.3,3.1
		c1.6,1.4,3,2.6,3.7,3.3c-1.4,3.8-2.5,7-3.8,10.8c-4-2.4-6.1-8.9-11.9-6.7c4.6,4.6,9.4,9.6,14.3,14.5c-0.3,0.4-0.7,0.8-1,1.1
		c-1-0.2-2-0.3-3.4-0.5c0.4,1.4,0.7,2.4,1.1,3.6c-2.8,0.4-5.2,0.8-8.3,1.2c1.2,1.5,2.4,2.9,3.4,4.5c0.7,1.1,1.3,2.2,1.9,3.3
		c1.1-1.5,2.1-2.9,3.2-4.3c8.5-11.3,17.8-22,27.4-32.4c5-12,11.1-23.4,21.2-32c0.8-0.7,1.8-1.1,2.7-1.2c0-0.3,0-0.7,0.1-1
		c0.6-9.1,1.9-19.8-2.3-28.2C780.2,714.9,774.4,709.7,770.9,703z M684,532.7c2-7,7-2.5,10.7-3C691.4,531.3,688.9,535.7,684,532.7z
		 M662.8,762.9c0.1,0.6,0.3,1.3,0.4,1.9c-4.8,1-9.6,1.9-14.3,2.9c-0.1-0.5-0.2-0.9-0.3-1.4C652.7,762.5,657.6,761.8,662.8,762.9z
		 M553.4,915.1c2.9-0.3,6-1.4,8.4-0.5c1.1,0.4,0.8,4.8,1.1,7.4l-1.6,0.8l-8.4-5.6C553.2,916.5,553.3,915.8,553.4,915.1z M321.6,749
		c2.1-9.4,4.7-18.7,6.7-28.2c0.7-3.3-0.2-7,0.1-10.4c0.4-4.9,1-9.9,7.6-10.5c0.6-0.1,1.6-0.4,1.7-0.8c2.4-7.3,10.2-7.3,15.2-11.1
		c1.3-1.1,3.4-1.7,5.1-1.7c18.8-0.1,37.6-0.3,56.3,0.1c8.2,0.2,10.2,3.2,10,11.7c0,1.6,1.1,3.3,1.6,4.9c-1.2,0.7-2.5,1.4-3.8,2.2
		c0.8,1.3,1.5,2.4,2.2,3.5c0.6-1,1.3-1.9,1.9-2.8c3.7,5.9,2,11.3-5.4,16.5c1,1,1.9,2,1.9,2c2.8-1.8,4.9-3,6.9-4.4
		c1.6-1.2,3-2.6,4.9-4.4c3.3,3.2,6.1,9.1,13.5,10.9c-0.5,1.1-0.8,3.2-1.9,3.8c-3.1,1.9-7.5,0.1-11.3-3.9c-3.2,0.4-5.8,0.7-8.4,1.1
		c-1.1,0.2-2.1,0.8-3,1.4c-1,0.6-1.7,2.1-2.6,2.2c-6.1,0.6-7.7,5.3-9.4,9.9c-0.1,0.3-1,0.3-1.4,0.5c-1.6,0.7-3.3,1.5-4.9,2.2
		c0.1,0.4,0.2,0.9,0.3,1.3c1.4,0.2,2.8,0.4,5.3,0.8c-1.9,1.5-3.3,2.5-5.1,3.9c4.1-0.7,5.7,0.2,4.8,4.5c-0.5,2.4,1,5.2,1.7,7.8
		c0.2,0.8,0.8,1.5,0.7,2.2c-0.8,5.1-1.7,10.2-2.7,15.4c0,0.2-0.5,0.4-0.8,0.6c-0.9-1.3-1.8-2.5-3.2-4.4c-2.4,9.6-4.8-0.9-7.4,1.9
		v2.5l-1.4,0.9c-0.9-1.3-2.9-3.3-2.6-3.8c3.4-5.5,2.2-9.6-4.5-13.1c2.4-0.5,3.3-0.7,3.9-0.8c-0.9-4-1.9-8-2.9-12.6
		c2.3-0.8,4.8-1.7,7.2-2.6c0-0.3,0.1-0.6,0.1-1c-1.6-0.2-3.3-1-4.7-0.6c-5.1,1.5-7.5-0.9-8.9-5.3c-0.2-0.5-0.7-1-1.7-2.2
		c-1.7,3.1-2.9,5.9-4.7,8.2c-2.5,3.4,0.9,5.3,1.3,7.9c1.1,7.3,1.6,14.8,1.8,22.2c0,2.5-4.3,3.3-8.8,1.6c-0.2,1.8-0.4,3.4-0.5,5.2h-9
		c1.3-2.8,2.4-5,3.8-7.9c0.9,1.2,1.5,2,2.3,3.1c0.7-1.9,1.6-3.5,1.9-5.3c0.9-5.6,2-11.1,2.3-16.7c0.2-4.2-0.5-8.5-1.2-12.7
		c-0.1-0.9-2.2-2.3-3-2.1c-7.5,2.2-13.1-2.7-20.3-4.4c1.4-1.5,2.2-2.4,3.3-3.6c-1,0.1-1.5,0-1.9,0.2c-4.2,1.7-9,2.8-12.6,5.5
		c-4.1,3.1-7,7.7-10.6,11.5c-1.2,1.2-3.1,1.8-4.7,2.7C322.1,752.6,321.2,750.7,321.6,749z M394.5,798.5c0.6-4.1,1-8.2,1.8-12.3
		c0.1-0.7,1.8-1.8,2.6-1.6c1.1,0.2,2.4,1.2,2.8,2.2C403.3,791.1,400.8,796.5,394.5,798.5z M389.6,807.9c-3.8,0.7-7.7,2.4-11.8-2.2
		C382.6,806.6,386.1,807.3,389.6,807.9z M321.4,778c1.1,0.1,2.5-0.3,3.3,0.3c8,5.2,14,1.6,19.5-4.6c3.9-4.4,7.6-9.3,10.7-14.7
		c1.4-2.4,7.8-2,12-2.8c0.1,0,1,2.1,0.7,3c-1.3,4.3-1.6,10.3-4.6,12.4c-3.3,2.3-1.8,6-4.6,8c-1.1,0.8-0.5,4-0.7,7.6
		c-3.8-0.3-8.2-0.7-12.6-1c-0.2,0.5-0.3,1-0.5,1.5l9.2,10.4c-0.4,0.3-0.7,0.7-1.1,1c-10.6-6.6-22.1-11.7-32-19.4L321.4,778z
		 M313.9,768.8c-6.8-5.1-9-12.2-13.2-18.5C306.5,750.1,313.2,759.5,313.9,768.8z M313,858.6c-0.5,0-1,0-1.5,0v-23.8
		c0.5,0,0.9,0,1.4,0C314.9,842.8,314.3,850.7,313,858.6z M258.2,839.7c-0.1-13.5,0-26.9,0.6-40.4c0.1-2.6,2.1-5.5,4-7.7
		c1.6-1.9,4.2-2,4.9,1.1c2.2,9.5,4.2,19.1,6,28.7c0.7,3.7,0.5,7.5,0.7,11.8c-1.8-0.8-3.2-1.4-4.8-2.1c1-6.5,2.9-13-3.2-18.7
		c-0.5,2.7-1.1,5.3-1.4,8c-0.4,3.3,0.4,6.6-2.4,9.7c-1,1.1,1.3,5.5,2.8,8.1c1.2,2.1,1.8,12.1-0.3,12.8c-1.3,0.4-4.3-0.9-4.8-2.1
		C258.9,846.1,258.2,842.8,258.2,839.7z M281.9,943.3c-6-2.8-6-6.4-5-10.2c0.2-0.9,2.1-2.3,2.6-2.1c2,0.8,5.5,2.3,5.4,3.4
		C284.8,937.4,283.1,940.2,281.9,943.3z M284.3,947.2c0.3-0.4,0.5-0.8,0.8-1.1c2.1,0.9,4.2,1.7,6.3,2.6c-0.9,1.6-1.8,3.2-2.6,4.8
		l-1.6-0.2C286.2,951.3,285.3,949.3,284.3,947.2z M517.1,962.2c-0.9,3.3-2.2,6.6-3.4,9.9c-0.1,0.4-1.1,0.4-2.5,0.8
		c0.8-4.3,1.4-8.1,2.2-11.8c0.1-0.6,1.7-1.4,2.2-1.1C516.4,960.3,517.3,961.6,517.1,962.2z M532.8,958.7c-1.5-2-3.1-4.1-5.4-7.2
		c2.6-0.6,4.4-1,6.3-1.4c0.4,2.7,0.9,5.3,1.3,8C534.2,958.3,533.5,958.5,532.8,958.7z M501.2,891.7c-2.1,0.6-4.9,0.7-5.4,1.8
		c-0.9,1.9-0.4,4.5-0.3,6.7c0.3,8.8,0.6,17.5,1,26.3c0.1,2,0.7,3.9,1,6c2.5-6.5,4.8-12.5,7.3-18.9c2.3,1.1,3.7,1.8,6.3,3
		c-0.1-2.1,0-3.7-0.3-5.2c-0.4-1.6-1.4-3-1.8-4.6c-2.3-10.6-1.8-10.8,8.9-9.7c4.5,0.5,9.2-0.3,13.7-0.5c2.3-0.1,4.5-0.3,7.7-0.6
		c-0.6,2.7-0.6,5.2-1.7,6.6c-3.9,4.9-4.7,10.5-4.9,16.4c-0.2,6.6-2.5,9-9.2,9.8c-3,0.4-4.8,1.6-6.1,4.8c-1.7,4.2-5.1,7.7-7.3,11.7
		c-1.2,2.2-1.9,4.9-2,7.4c-0.3,6.5-0.9,7.4-6,8.2c-1.7,8.3-3.4,15.7-4.8,23.2c-0.2,1.1,0.2,2.3,0.5,3.4c2.5,8.6,5.4,17.1,7.5,25.8
		c3,12.2-0.2,23.4-5.9,34.3c-5.3,10.2-15.5,13.2-25,16.4c-17.5,5.7-35.7,7.6-54.1,7.9c-7.6,0.1-15.1,1.9-22.7,2.7
		c-3.9,0.4-8,0.5-11.9,0.3c-9.3-0.6-18.6-0.9-27.7-2.3c-8.2-1.3-22.4-8.7-25.6-20.3c-1.5-5.5-3.9-10.8-5.9-16
		c2.1-8.2,6.4-16.3,1.2-25.5c-4-7-7.6-14.2-11.4-21.2c-0.3-0.6-0.8-1.4-1.3-1.5c-4.3-0.6-6.4-3.1-7.1-7.4c-0.1-0.6-2.8-0.7-4.3-1
		c-0.3,1.6-1.2,3.5-0.7,4.7c1.4,3.4,3.4,6.5,5.3,10c-9.7,1.9-9.3,1.6-10.7-6.9c-0.7-4.6-3.8-8.8-6.7-15c-0.7,1.9-1,2.8-1.3,3.6
		l-1-0.2c0-4.9-0.1-9.9,0.1-14.8c0-1.2,0.8-2.4,1.3-3.6c0.8,1.1,1.7,2.1,2.4,3.2c0.3,0.4,0.3,0.9,0.5,1.7c13-3.5,22.1,5.2,32.8,9.4
		c0-0.2-0.1-0.6,0.1-1c3.8-10.1-3.7-14.1-10-18.9c-1.4-1.1-2.3-3-3.3-4.5c-0.7-1-1.2-2.1-2.5-2.8c0,1.4,0.3,2.9-0.1,4.1
		c-0.3,0.6-2.6,1.3-2.9,1c-2.6-2.8-5.1-5.7-7.3-8.8c-0.6-0.8-0.5-2.3-0.3-3.4c0.3-1.1,1.3-2,1.9-3.1c0.9,0.8,1.9,1.5,2.5,2.5
		c0.5,0.8,0.4,1.9,0.6,2.8c0.4,0,0.8,0,1.2-0.1c0-3.5,0.8-7.2-0.2-10.3c-1.5-4.8-4.1-9.4-6.7-13.8c-0.5-0.8-2.9-0.7-4.4-0.8
		c-3.6-0.2-7.1-0.2-10.8-0.4c-0.1,0.9,0.3,3.3-0.5,5.2c-0.5,1.3-2.9,2.8-4.2,2.5c-1.3-0.2-2.5-2.3-3.1-3.9c-0.6-1.7-0.6-3.6-0.5-5.4
		c0.2-6.3-1.6-11.8-4.8-17.2c-3.7-6.2-6.7-12.8-9.7-19.4c-0.6-1.2-0.6-3.8,0-4.2c4.6-2.8,3.2-7.2,3.5-11.2c0.1-0.7,0.4-1.4,1.7-2
		v21.7c1.4-3.3,2.5-5.9,3.8-9.2c0.9,1.4,1.5,2.3,2.9,4.4c0.3-5.4,0.5-9.4,0.8-13.5c0.7,4.8-0.2,10,4.9,13.4c0.9,0.6,0,3.8,0.3,5.7
		c0.3,1.7,1.3,3.2,2,4.9c0.4,0,0.9-0.1,1.3-0.1c0.2-3.8,0.5-7.6,0.6-11.3c0.2-6.9,0.6-13.9,0.2-20.8c-0.2-3.5-2.2-6.9-3-10.5
		c-0.4-1.6,0.2-3.4,0.5-5.8c1.4,1.1,2.1,1.7,3.2,2.5c0.4-2.5,0.7-4.7,1.2-7.8c1,6.5,1.9,12.3,2.8,18.1c0.4,0,0.8,0,1.2,0l0.8-8.1
		l0.9,0.1v17.5c-0.5,0.1-0.9,0.3-1.4,0.4c-0.9-1.7-1.8-3.4-2.7-5.1c-0.3,0-0.6,0-0.9,0v33.5c0.4,0.1,0.8,0.2,1.2,0.4
		c0.7-1.6,1.3-3.3,1.7-4.3c1.7,1.1,4.7,3.8,5.4,3.3c4.3-3.1,12.4-2.1,12.4-10.3c0-3,0-6.1,0-9.1c0.5-0.2,1-0.3,1.6-0.5
		c0.7,2,1.4,4,2.2,6.1c1.7-0.4,2.4-1.4,6.9-10.8c0.8,3.3,1.3,5.7,1.9,8.1c0.4,0,0.7,0.1,1.1,0.1c0.4-4.2,0.8-8.4,1.3-13.3
		c1.9,2.3,3.4,4,4.8,5.8c0.4,0,0.7-0.1,1.1-0.1c-0.1-1.2,0.4-2.9-0.3-3.5c-4.2-3.8-2.4-8.1-1.4-12.3c0.3-1.1,1.6-2.5,1.3-3.1
		c-5.1-8.7,4.7-16.4,1.6-24.9c-0.2-0.5,0.3-1.2,1.9-2.2c0.7,2.2,1.9,4.4,2.1,6.8c0.7,5.9,2,7.4,7.9,7.9c2.7,0.2,4.3,1.4,4.2,4.4
		c-0.1,3.9,0,7.8,0.7,11.7c0.2-2.4,0.4-4.8,0.7-8.2c1,1.4,1.4,2,1.9,2.6c0.2-0.2,0.5-0.4,0.6-0.6c0.5-4.6,0.9-8.8,7.1-9.7
		c2-0.3,5.2-3.8,4.9-5.1c-0.9-3.5-3.3-6.7-5.4-9.8c-0.2-0.3-2.4,0.4-3.3,1.1c-1.5,1.1-2.4,2.9-3.9,3.7c-9.2,5.1-12,5.7-14.8-5.9
		c-0.9-3.8-2-7.7-3.1-12.2c-1.1,1.4-1.8,2.2-2.1,2.7c-2.3-3.3-4.6-6.4-6.7-9.7c-0.6-0.9-1.2-2.7-0.8-3c0.8-0.8,2.4-1.4,3.3-1.1
		c5.9,2,11.8,4.3,17.7,6.5c6,2.2,12.1,4.6,18.2,6.6c1.3,0.5,3.1,0.4,4.4-0.1c3.5-1.4,5.9-1.8,5.4,3.3c-0.1,0.9,0.9,2.2,1.8,2.8
		c4.4,2.8,5.1,5.9,2,10.3c-3.5,5-2.6,10.5,0.1,17.2c1.1-3.7,1.8-6.1,2.5-8.5c4.1,5.4,3.3,12.9,9.9,17c-0.9-3.7-1.7-6.9-2.6-10.4
		c1.3,0.4,2,0.7,2.8,0.9c0.3-3,0.6-5.8,0.9-8.7c0.5-0.1,1-0.2,1.6-0.3c2,5.9,4.1,11.8,6.1,17.7c-0.3,0.2-0.6,0.4-0.9,0.6
		c-1.6-1.5-3.2-3-5.8-5.4c0.2,2.5-0.1,4.1,0.5,5.2c2.6,5,5.4,9.9,8.1,14.9c0.5,0.9,1.3,2.5,0.9,3c-2.6,3.4-5.5,6.6-8.3,10
		c-0.9,1.1-1.5,2.4-2.2,3.7c0.4,0.4,0.9,0.9,1.3,1.3c3.7-2.7,7.4-5.4,11.2-8.2c1.6,5.6-1,9.4-6.5,10.2c-5.7,0.9-11.5,2.4-17.1,2.2
		c-8.4-0.4-15.5,2.9-22.9,6c-9.3,3.9-18.8,7.5-28.2,11.2c-0.7,0.3-1.3,0.9-3.2,2.2c7-0.9,7.7,2.8,7.6,7.3c-0.1,3.6-0.1,7.3,0.5,10.9
		c0.3,2.1,1.8,4,3.5,5.8c-0.8-8.6,3.8-17.5-2.9-26.2c3-1.5,6-3.1,9.7-5c0.2,2.6,0.4,4.4,0.5,5.2c4,1.4,7.4,3.3,10.9,3.7
		c8.7,1.1,17.4,2,26.1,2.2c5.6,0.1,11.2,0,16.7-0.1c0,0,0-0.1,0-0.1c1.9-0.1,3.7-0.3,5.6-0.4c2-0.1,4,0,6,0c0,0,0,0.1-0.1,0.1
		c2.2-0.1,4.4-0.2,6.5-0.4c3.8-0.2,7.7-1.8,11.1-3.7c10.5-5.6,21.1-10.3,33.2-11.5c5.6-0.6,10.9-3,16.3-5.3
		c-10.6-2.9-19.8-10.5-31.8-7.3c-4.3,1.1-9.2,0.2-13.8,0.3c-1.1,0-2.6-0.4-3.3,0.2c-4.3,3.4-8,0.9-10.5-1.9
		c-2.4-2.7-5.8-5.6-3.5-10.9c0.9-2.1-1.7-6.2-3.5-8.7c-3.7-5-3.5-8.2,1.3-11.8c1-0.8,1.7-2.4,2.1-3.7c0.4-1.4,0.4-3,1.6-4.5
		c0.3,3.1,0.6,6.2,0.9,9.3c0.7,0,1.3,0,2,0v-17.5c0.6-0.1,1.1-0.2,1.7-0.3c1.7,3,0.3,8.4,6.8,7.6V850c0.6,0,1.1,0,1.7,0
		c0.2-3.3-0.1-6.8,0.7-10c0.6-2.4,2.6-5.9,4.2-6.1c3.3-0.3,5.6,2.4,5.6,6.2c0,2.3,0,4.6,0.3,7c0.6-2.8,1.5-5.5,1.8-8.4
		c0.3-2.9,0.1-5.8,0.1-9.2c7.1,7.2,4.7,16.8,7.4,24.9c0.5,0,0.9,0,1.4,0c0.5-2.2,1-4.4,1.8-7.5c1.3,3.9,2.3,6.9,3.3,10
		c0.3,0,0.7,0.1,1,0.1c0.4-3.4,0.7-6.8,1.1-10.2c0.4,0,0.8,0,1.2,0c0.2,3,0.4,6,0.7,9c0.5,4.7,3.3,6.1,7.8,4.5
		c1-0.4,2.5,0.7,3.8,0.9c1.4,0.2,2.9,0,4.4,0c2.5,6.1,8.2,9.6,11.4,7.2c1.2,5.2,2.5,10.6,3.9,16.4
		C493.6,880.7,496.6,887.6,501.2,891.7z M318.9,814.3c1-0.1,2.1-0.2,3.1-0.3c0.2,2.5,0.5,4.9,0.6,7.4c0,0.1-1.9,0.3-3,0.5
		C319.5,819.3,319.2,816.8,318.9,814.3z M504.5,516.4c2,0.4,5,2.1,5.4,3.7c1,4.2-2.9,7.2-9.9,7.4c-0.4-0.3-2.6-1.3-2.9-2.7
		C496.2,521.6,501.3,515.9,504.5,516.4z M518.8,550.3c-0.2,0.4-0.3,0.9-0.5,1.3c-5.7-2-11.5-3.8-17-6.1c-1.8-0.8-3.7-2.8-4.1-4.7
		c-0.5-2.1,0.5-4.6,0.9-6.9c1.6,1.2,3.5,2,4.6,3.5c6.4,8,12.6,10.1,21.1,5c3.3-2,5-6.6,7.6-10c1.1-1.4,2.6-2.5,3.9-3.8
		c1,1.9,3.1,3.9,2.9,5.7C537.3,543,532.4,551,518.8,550.3z M669.5,547.1c-0.3,0.4-0.6,0.7-1,1.1c-8.7-6.1-17.3-12.2-26.9-19
		C648.3,529.2,665.5,540.9,669.5,547.1z M642.6,611.8c2.8,1.8,5.5,3.6,8.4,5.4c0.8,2,1.8,4.6,2.7,7
		C650.6,624,645.3,618.2,642.6,611.8z M655.7,560.1c-3.1-3.8-5-8.1-4.9-13.1c0-1,0.4-2.7,1-2.9c1.2-0.4,3-0.4,4.1,0.2
		c3.6,2.2,7,4.8,10.5,7.3c1.7,1.2,3.4,2.3,4.6,3.2c-1.6,2.3-4.4,4.5-4.7,7.1c-0.4,2.7,1.7,5.6,2.9,9.1
		C662.4,569.9,659.4,564.5,655.7,560.1z M666.4,577.7c6.2,0.4,5.3,6.2,7.9,10.2C665.5,588.4,669.6,580.5,666.4,577.7z M674.9,569.7
		c-2-1.2-4.4-2-5.7-3.7c-0.8-1.1,0.1-3.5,0.2-5.3l1.5-0.3l5.4,7.6C675.8,568.6,675.4,569.2,674.9,569.7z M694.6,570.5
		c-1.1-1-2-2.2-3-3.4c0.7-0.4,1.7-1.4,2.2-1.2c1.2,0.5,2.1,1.6,3.7,2.8C696,569.7,694.7,570.7,694.6,570.5z M678.2,547.1
		c1.1,1.1,2.1,2.2,3.2,3.4c-0.4,0.4-0.8,0.9-1.2,1.3c-3.1-2.7-6.3-5.5-9.8-8.6h31C694.7,548.2,686.2,546.2,678.2,547.1z
		 M729.8,641.1c-2.1-0.3-4.3-0.5-6.4-0.8c0.1-0.9,0.3-1.8,0.4-2.8c2,0.3,4,0.5,6,1C730,638.6,729.8,640.2,729.8,641.1z"/>
	<path class="st0" d="M559.5,998.8c2-2.1,3.9-4.3,5.9-6.5c-0.7-0.2-1.3-0.7-1.9-1.2C562.2,993.6,560.8,996.2,559.5,998.8z"/>
	<path class="st0" d="M587.8,964.9c3-4.1,5.9-8.3,8.8-12.5c-0.9,0.8-1.7,1.6-2.6,2.4C591.9,958.2,589.8,961.6,587.8,964.9z"/>
	<path class="st0" d="M385.4,941c-2.7-18.9-4.8-40.3-1.5-45.5c-3.8,0.2-7.7,0.4-11.5,0.5c3.6,8.4,15.7,75.3,19.4,96
		C392,992.5,385.3,940.5,385.4,941z"/>
	<path class="st0" d="M149.2,118.1c0.3,1.7,0.5,3.4,1.2,4.9c1.1,2.5,2.4,4.9,3.7,7.4C152.8,126.2,151.2,122.1,149.2,118.1z"/>
	<path class="st0" d="M570.7,114.7c-0.5-0.5-1-1.2-1.2-1.8c-0.3,0.4-0.5,0.8-0.8,1.2l1.5,6.4C570.4,118.3,570.6,116.4,570.7,114.7z"
		/>
	<path class="st0" d="M561.9,126.1c-0.6,1.2-1.3,2.5-1.9,3.7c0.2,0,0.4,0,0.6,0.1v10.5c0.7,0.1,1.4,0.2,2.2,0.3
		c-2-9.5,3.5-17,5.3-25.6C565.9,118.7,563.8,122.3,561.9,126.1z"/>
	<path class="st0" d="M553.3,146.2c-0.3,2.4-0.7,4.8-1.1,7.1c0.5,0.7,0.9,1.4,1.4,2c0.5,0,1,0,1.6,0c0.9-4.6,3.9-10.6,2.1-13.6
		c-0.8-1.3-1.1-2.4-1.3-3.4C555,141,554.1,143.6,553.3,146.2z"/>
	<path class="st0" d="M539.7,181.9c2.9-3.8,6.5-7.3,7.1-12.1c-1.7,3.1-3.7,6.1-6.1,9c-1.5,1.8-3.2,3.6-4.9,5.3
		c-0.2,0.8-0.5,1.5-0.7,2.3c0.1-0.1,0.3-0.2,0.4-0.3C537.2,185,538.6,183.5,539.7,181.9z"/>
	<path class="st0" d="M156.8,111.3C156.8,111.3,156.8,111.3,156.8,111.3c6.8,12.5,9.5,26.2,11.4,40.1c3,2.5,6.4,4.6,8.2,9.2
		c2.9,7.4,8.5,13.8,13.2,20.5c1.3,1.8,3.2,3.1,5.1,4.9c0.8,2.2,1.9,5,2.9,7.8c1.8,5,3.9,9.9,5.2,15c0.8,3.1,1.7,5.2,4.8,6.3
		c4.4,1.5,7.6,4.5,9.7,8.8c4.9,10.1,10.2,20.1,14.9,30.3c1.5,3.2,2.6,7.2,2.1,10.5c-0.8,5.2-3,10.2-4.8,15.2
		c-2.9,8.1-6.1,16.1-8.8,24.3c-2.7,8.3-4.5,16.9-7.6,25.1c-5.4,14.1-11.7,27.8-17,41.9c-1.7,4.4-3.3,6.8-7.7,5.7
		c0.3,5,0.5,9.8,0.8,14.6l1.1,0.9c3.3-4.2,6.6-8.3,9.8-12.4c0.8,0,3,0.7,3.8-0.1c2.4-2.2,7.3-4.5,4.7-8.2c-3.7-5.3,0.4-8.9,1.1-13.3
		c0.9,1.4,1.2,2.9,1.2,4.4c-0.3,6.1,0,6.3,6,5.2c2.9-0.5,6.2-3.3,8.7,1.1c0.2,0.4,2.6,0.2,3.5-0.4c2.8-1.8,5.3-4,8.2-6.2
		c-0.3-2.5-0.7-5.9-1.1-9.2c0.5-0.1,0.9-0.1,1.4-0.2c0.4,1.2,0.9,2.4,1.3,3.5c0.9,0,10.6-6.2,11.8-7.7c0.9,1,1.7,1.9,2.5,2.9
		c0.9,1.2,1.7,2.4,2.4,3.5c1.6-2.1,3-4.1,4.5-6c2.1,1.6,4.2,3.2,5.1,4c0.9-3.9,2.2-9.2,3.5-14.5c0.6-0.3,1.2-0.6,1.8-1
		c-2.9,8.1,5.1,5.6,6.9,9.2c-0.2-3.5-0.3-7.1-0.5-10.6c0.6-0.1,1.3-0.2,1.9-0.3c1.1,2.5,2.1,4.9,3.2,7.4c2.4-0.9,5.7-3.3,8.2-2.6
		c2.3,0.7,3.7,4.6,5.7,7.4c0.8-1.4,1.4-2.6,2.4-4.5c0.7,2.4,1.3,4,1.8,5.7c0.5,0,1,0.1,1.5,0.1c0.5-3.9,1-7.9,1.5-11.8
		c0.5,0,1,0,1.5,0c0.7,1.8,1.5,3.5,1.7,4.2c3.1-1.1,5.6-2.8,7.8-2.5c5.7,0.8,5.6,1.2,5.7-4.9c0-0.6,0.4-1.2,0.7-2.2
		c1.8,1.3,3.3,2.4,4.9,3.5c-1.1,0.7-1.9,1.3-2.7,1.9c4.3,1.2,8.4,2.4,12.8,3.7c1-4.6,2.5-9.7,3.5-15c-33.1,5-84.2,9.4-92.7,3.3
		c-12.2-8.7,8.1-62.6,6-92.4c-0.5-6.6-2.5-14.2-5.4-21.9c-0.1,0.4-0.1,0.7-0.2,1c-0.2,0.8-0.5,1.5-0.9,2.8
		c-3.6-3.4-2.3-7.3-1.9-11.3c-0.6-1.4-1.2-2.8-1.9-4.1c-2.3,3.3-5.2,5.9-1.3,10.2c0.7,0.8,0,2.8-0.1,4.3c-0.6,0-1.3,0.1-1.9,0.1
		c-0.7-4.7-1.4-9.5-1.9-13.5c-2.2-1.3-4.5-1.9-5.7-3.5c-1.9-2.5-0.6-4.5,1.9-6.6c2.5-2.1,1.2-4.4-1.7-6.4c-0.8,1.2-1.5,2.4-2.6,4.2
		c-1-3-3-5.9-2.4-8.1c0.6-2.1,1.7-3.5,3.1-4.5c-0.7-1.2-1.4-2.4-2.1-3.5c-0.2,0.8-0.5,1.6-0.8,2.8c-2.5-5.1-8.4,3.1-10.2-3.7
		l0.1,0.1c0,0-0.1-0.1-0.1-0.1c0,0,0,0,0,0c-1.3-1.3-2.9-2.5-3.8-4.1c-10.7-19.3-20.9-38.9-32-58c-5.3-9.1-12.3-17.2-18.5-25.7
		c-0.7-0.9-1-2-1.5-3h-2c4.2,5.7,9,13.5,14.4,24.3L156.8,111.3z"/>
	<path class="st0" d="M346.2,356.5c0.4-1.8,0.9-3.5,1.3-5.2c1.8,2.6,3.2,6.5,5.4,7.1c4,1,9.1,1.2,12.5-0.6c4-2.2,6.8-3.3,10.7-0.6
		c0.8,0.5,2.8-0.4,3.9-1.1c0.4-0.3,0.1-2-0.2-3c-2.2-6.9-1.5-17.5,4.2-21.4c5.2,3.6,15.3,1.2,18.9-4c1-1.5,3.1-2.2,4.7-3.3
		c0.4,2,1,3.9,1,5.9c0,1-1.2,1.9-1.7,3c-1,2.3-1.9,4.6-2.9,6.9c0.5,0.2,1,0.4,1.5,0.7c3.9-7.5,7.8-15.1,11.2-21.6
		c0.3,2.1,0.6,5.8,1.3,9.4c0.5,2.9,1.4,5.7,2.1,8.6c0.4-0.1,0.7-0.2,1.1-0.2c0.3-4.8,0.7-9.5,1-14.3l1.7-0.2c3,4.9,6.1,9.8,9.2,14.9
		c1.3-6.3,4.6-12.3,0.3-19.2c-3.4-5.4-3.6-11.3,0.5-17.3c5.3-7.6,9.6-15.8,14.8-23.5c1.3-1.9,4.4-4.5,5.8-4c4.9,1.6,3.9-2,3.9-4
		c0.1-6.6,3-12.1,7-17.2c0.3,3.3,0.1,6.5-0.3,9.6c-0.2,1.9-0.9,3.7-1,5.5c-0.1,3,0.1,5.9,0.1,8.9c0,4.3,0.7,7.7,4.8,10.6
		c3.1,2.2,4.8,6.5,6.9,10c1.6,2.7,2.9,5.6,4.6,8.2c3.6,5.3,7.1,10.7,11.2,15.5c3.4,4.1,4.4,10.4,11.2,11.7c3.2,0.6,3,3.3,0.3,5
		c-2.9,1.9-3.2,3.2,0.3,4.6c2.6,1.1,3,3.3,0.9,5.1c-1.1,0.9-3,0.7-4.6,0.9c1,3.4,1.9,6.6,6.9,5.2c1.2-0.3,3.4,1.2,4.6,2.3
		c2.7,2.7,3.9,1.8,4.5-1.5c0.2-0.9,0.6-1.7,0.9-2.6c4.3,5.3,8.3,10.4,12.5,15.3c3.6,4.2,7.3,8.3,11.2,12.2c1.2,1.2,3,1.9,5.4,3.3
		c-2.2,1.5-3.9,2.7-5.6,3.8c4.8,0.4,9.8-0.9,13.3,3.5c1,1.3,2.2,2.9,3.7,3.4c4,1.3,2.6,3.2,0.8,5c-1.9,2-4,3.8-7,6.6
		c5.1-2,8.9-3.6,13.1-5.3c-1,2.8-1.7,4.9-2.7,7.8c3-0.2,6.3,0.3,7-0.7c2.3-3.8,3.8-8.1,6.1-13.5c0.2,3.7,0.4,6.3,0.6,8.9
		c0.3,0,0.6,0,0.9,0c0.9-5,1.7-9.9,2.6-14.9c-0.4-0.1-0.8-0.2-1.2-0.3c-0.8,1.1-1.6,2.2-2.4,3.4c0.4-5.6-7.1-8.1-5.2-14.1
		c1.6-4.8,2.7-9.8,4-14.7c-0.5-0.2-1.1-0.3-1.6-0.5l-3.2,8.2c-0.5-0.1-1-0.1-1.5-0.2v-20.2c-6.8,3.6-4.5,11.2-9.5,15
		c1-8.6,1.9-16.9,2.9-25.1c-0.5-0.2-1.1-0.3-1.6-0.5c-1.7,2.7-3.4,5.3-5.2,8c-0.3-0.1-0.5-0.3-0.8-0.4c1.5-4.8,3-9.6,4.4-14.3
		c-6.6-1.4-6.8-6.5-8.5-11.3c-2.1,4.5-4.1,9-6.2,13.5c-0.6-0.2-1.3-0.3-1.9-0.5l4-21.8c-0.3-0.1-0.6-0.2-0.9-0.3
		c-2.3,7-4.6,13.9-6.8,20.9c-0.5,0.1-1,0.2-1.5,0.3c-3.8-7.3-7.6-14.5-11.7-22.3c4.5-1.9,7.7-3.2,11.8-4.9c0.7-2.2,1.8-5.3,2.8-8.4
		l-1.6-0.7c-5.4,2.7-5.5,11.8-13.9,11.7c-0.2-1.6-0.3-3.4-0.7-5.1c-0.3-1.6-0.4-3.9-1.4-4.5c-5.3-3.4-5-7.5-2.4-12.4
		c2.5-4.7,2.7-11,8-13.8c6-3.2,7.4-8.3,7.5-15.1c-3.8,3.3-7.2,6.2-10.5,9.1c-0.4-0.3-0.7-0.7-1.1-1c2.9-4.1,5.6-8.4,8.8-12.3
		c3.5-4.3,4.5-9.9,1.1-15.9c1.3,6.9-3.8,9.3-7.1,13.4c-3.8,4.6-5.5,11.1-8.3,17.3c2.3,0.4,4,0.6,5.9,0.9c-2.5,5-4.8,9.6-7.1,14.2
		c-0.7-0.3-1.4-0.5-2-0.8c0.5-4.5,1-9.1,1.6-14c-3.3-1.6-3.4-4.5-2.6-8.2c1.6-7.5,4.3-14.4,10-19.6c5.1-4.6,10.8-8.6,15.9-13.4
		c1.4-1.3,1.2-4.1,1.8-6.3c-0.1,0-0.2,0-0.3,0c2.1-5.2,4.3-10.4,6.4-15.6c-0.8-0.5-1.6-1.1-2.4-1.6c-3,3.5-5.9,7-9.1,10.3
		c-5,5.3-10.1,10.5-15.2,15.6c-0.8,0.8-2.2,2.1-2.9,1.8c-4.5-1.9-5.3,2.4-7.5,4.3c-1.7,1.4-3,3.4-4.5,5.1c-0.4-0.2-0.7-0.4-1.1-0.6
		c1.4-2.6,2.4-5.5,4.2-7.8c3.4-4.3,7.4-8.1,11-12.2c0.5-0.5,0.9-1.5,1.2-2.3c-2.1-0.9-3.6-2.9-2.9-5.8c1-4,2.1-8,3.3-11.9
		c-4.3,4.8-7.9,10.1-9.9,16.7c-1.9,6.2-11.5,3.5-9.6-2.7c4.6-15,15.4-24,25.8-34.4c5.5-16.6,11.8-32.9,19.1-48.9
		c0.8-3.4,1.9-6.7,3.3-10c0.6-1.3,1.5-2.1,2.5-2.4c0-0.1,0.1-0.2,0.1-0.3c2.4-4.8,4.8-9.7,7.6-14.5c-1.7-1.2-2.8-3.5-2-5.4
		c0.4-0.9,0.8-1.8,1.2-2.6c-0.4-1.2-0.4-2.6,0.4-4c1.2-2.1,2.6-4.1,4-6h-23.2c-4.2,9.8-8.3,19.5-12.5,29.3
		c-2.9,6.8-5.8,13.7-8.9,20.4c-2.9,6.2-5.4,12.8-9.2,18.4c-12,17.6-17.8,37.9-24.9,57.4c-3.5,9.7-10,17.3-13.5,26.7
		c-0.2,0.7-1.1,1.1-2.4,1.7c1.2-4.9-2-8.8-4.1-11.8c-0.8,4.1-1.8,7.8-2.7,11.2c-14.3,48-85.8,76.8-95.5,82.1
		c3.5,1.2,6.7,3.2,10.3,5.1c-6.1,0.6-10.7,1.1-15.8,1.6c-0.5,0.7-1,2-2,2.8c-0.5,0.4-1.8,0.2-2.6-0.1c-0.3-0.1-0.3-1.5,0-2.1
		c0.3-0.7,1.4-1.4,1.3-2c-0.2-1-0.2-1.9-0.2-2.6c-1,0.2-2.1,0.4-3.3,0.7c0.1,0.4,0.3,0.8,0.4,1.2c-0.9-0.3-1.6-0.6-2.3-0.8
		c-3.1,0.6-6.6,1.2-10.3,1.8c-1,3.5-1.8,7-1.9,10.6c0,6.8,2.9,13.7,4.6,20.6C345.2,356.7,345.7,356.6,346.2,356.5z M530.9,344.2
		l1.9,10.2c-0.8,0.1-1.6,0.2-2.3,0.3c-0.4-3.5-0.9-6.9-1.3-10.4C529.8,344.3,530.3,344.2,530.9,344.2z M518.9,233.5
		c2.1-2,4.8-3.6,7.2-5.3c0.3,0.4,0.7,0.9,1,1.3c-1.5,2.3-2.9,4.8-4.7,6.9c-0.7,0.8-2.5,0.8-3.8,1.2
		C518.7,236.1,518.2,234.1,518.9,233.5z M365,329.7c0.5,0.4,1,0.9,1.4,1.3c-0.4,1.8-0.8,3.6-1.4,6.5c-1.6-1-2.9-1.7-4.2-2.5
		C362.2,333.2,363.6,331.4,365,329.7z M342.3,329.3c1.8-0.6,3.6-1.7,5.5-1.8c0.9,0,1.7,2,3.2,3.9c-3.6-0.3-5.9-0.5-8.2-0.7
		C342.6,330.2,342.4,329.7,342.3,329.3z"/>
	<path class="st0" d="M532.5,195.1c-0.9,3-1.8,6-2.6,9c1.1-0.8,2.1-1.5,3.3-2.2c5.5-3.3,5.7-3.1,2-8.7
		C534.3,193.8,533.4,194.4,532.5,195.1z"/>
	<path class="st0" d="M109,96.7c-0.1,0.1-0.1,0.2-0.2,0.2c-0.4-0.1-0.8-0.2-1.2-0.2c0.4,0,0.8,0.1,1.2,0.2
		C108.9,96.8,109,96.8,109,96.7z"/>
	<polygon class="st0" points="99.2,89.1 99.2,89.1 99.2,89.1 	"/>
	<path class="st0" d="M83.3,122.3c-0.2-0.7-0.2-1.4-0.1-2.1c0,0,0,0,0,0C83.1,120.9,83.2,121.6,83.3,122.3z"/>
	<path class="st0" d="M85.3,116.4c-0.5,0.7-1,1.5-1.4,2.2c0,0,0,0,0,0C84.3,117.9,84.8,117.2,85.3,116.4z"/>
	<path class="st0" d="M62.4,494.3c4.1,0.4,7,0.7,10,1c0.1-0.4,0.3-0.9,0.4-1.3c-2.6-2-5.2-3.9-7.8-5.9c0.3-0.5,0.6-1,0.9-1.5
		c4.4,2.1,8.9,4.1,13.3,6.4c10.3,5.2,10.7,5.4,14.1,3c-4-3.5-10.9-5-8.5-12.9c0.2-0.6-1.2-1.5-1.6-2.3c-1.5-3.7-2.9-7.4-4.4-11.1
		c0.3-0.1,0.7-0.3,1-0.4l7.5,4.9c0.4-0.3,0.8-0.7,1.2-1c-0.7-1.4-1.4-2.9-2.3-4.3c-1.3-2.2-3.1-4.1-4-6.4
		c-2.3-5.6-2.9-11.9-7.5-16.7c-2-2-2.9-5.1-4.9-8.7c7,3.9,12.7,7.1,18.5,10.1c1.1,0.6,3.1,0.8,3.9,0.2c0.9-0.7,1.3-2.4,1.5-3.8
		c0.1-1-0.5-2-1-4.3c2.5,1.5,3.9,2.8,5.5,3.2c1.4,0.3,3-0.4,4.5-0.7c-5.2-4.6-10.5-7.4-14.9-11.2c-4.5-3.8-8.1-8.6-12.2-12.8
		c-5.9-6.1-5.7-7.3,2.4-11.4c-3.6-6.6-7.2-13.1-10.8-19.7c-2.9,5.8,3.1,9.4,3.7,15.2c-13.4-10.9-15.5-13.5-14.3-17.9
		c1,1.2,2,2.4,2.6,3.1v-15.3c0.6-0.2,1.1-0.3,1.7-0.5c1.2,3.2,2.3,6.5,3.5,9.7c0.4-0.2,0.8-0.3,1.1-0.5c-0.8-3.5-1.4-7.1-2.6-10.5
		c-1.2-3.5-3-6.7-4.4-10.1c-0.6-1.4-0.9-2.8-1.3-4.3c-1.5-6.3-2.9-12.5-4.3-18.8c-0.6-2.7-1.8-5.6-1.6-8.3
		c0.9-11.5-1.3-23.4,3.7-34.5c0.6-1.3,1.7-4.2-1.9-4.9c-0.5-0.1-1-2.8-0.7-4.1c0.6-2.4,1.7-4.7,2.9-7.9c1.8,5.2,3.3,9.4,4.8,13.6
		c2-7-0.3-14,2.8-20.8c2.8-6.1,2.1-13.6,8.4-18.3c1.8-1.3,2.3-4.5,3.1-6.9c0.6-1.7,1-3.5,1.2-5.3c0.6-4,1.6-8,1.6-12.1
		c0-6.3,0.2-12.4,3.8-17.9c0.1,3.3-0.6,6.5-0.9,9.7c-0.1,1,0.6,2,1,3c0.9-0.5,2.4-0.8,2.7-1.5c0.9-2.2,1.4-4.6,2-6.9
		c0.4-1.5,0.2-3.5,1.1-4.5c4.8-5,4.8-6-1-9.7v-18c-0.3,0-0.7-0.1-1-0.1c-1.4,2.5-2.7,5-4.1,7.5c-0.5-0.2-1-0.3-1.5-0.5v-14.4
		c6.3-0.7,7.3-1.2,7.7-6c-0.5-0.2-1-0.5-1.4-1c-3.1-3.5-3.6-8-3.6-12.4c-2.2-1.4-2.6-4.4-1.5-6.6c0.3-0.6,0.6-1.1,0.9-1.7
		c-1.6-0.9-2.8-2.6-2.7-4.4c0.1-1.4,0.4-2.2,0.9-3.5c0.1-0.1,0.1-0.3,0.2-0.4c0-0.1,0.1-0.3,0.1-0.4c0,0,0,0.1,0,0.1
		c0.1-0.6,0.4-1.2,0.7-1.6c-0.5-0.8-0.8-1.7-0.9-2.7c-0.1-2.5,2-4.7,4.5-5c0.1-0.8,0.4-1.6,0.9-2.3c0,0,0,0,0-0.1
		c0-0.1,0.1-0.3,0.1-0.4c-1-0.7-1.7-1.8-2-3c0,0,0,0.1,0,0.1l-25.8,3.9c0,0,5.2-20,14-41.9h-4.5c-5.6,17.5-11.4,34.9-16.6,52.5
		c-3.3,11.2-5.6,22.8-8.3,34.2c-1.8,7.6-3.4,15.3-5.5,22.8c-1,3.4-3.2,6.4-4.5,9.7c-7.2,18.2-14.4,36.4-21.2,54.7
		c-2.7,7.3-5.2,14.8-6.4,22.4c-2,13.7-3.2,27.6-4.2,41.4c-0.6,7.9-0.8,15.9,0,23.7c0.5,5.1,3.9,9.9,4.7,15.1
		c1.1,7.3,4.4,13.5,8,19.3c10.8,16.9,21.9,33.5,26.5,53.3c1,4.5,0.6,9.3,1,14c0.2,2.1,1,4.1,1.2,6.1c0.3,3,1.4,6.9,0.1,8.9
		c-2.9,4.2-1.3,9-3.1,13.2c-0.3,0.8,1.5,2.7,2.5,4c0.9,1.1,2.1,2.1,3,3.1C50,489,55.5,495.2,61,501.2
		C65.6,500.2,67.7,498.5,62.4,494.3z M69.9,221.4c0.4,5.3,1.4,10,0.9,14.5c-0.6,5.3-2.2,10.6-4,15.6c-0.5,1.5-3.1,2.3-5.3,3
		c6.7-7.4,1.9-16,2.8-23.8C64.7,226.8,65.7,223.9,69.9,221.4z M63.5,203.9c0.6,5.8,1.1,11.5,1.7,17.3c-0.6,0.1-1.2,0.1-1.8,0.2
		c-0.7-5.7-1.4-11.5-2-17.2L63.5,203.9z M58.2,234.6c0.5-2,0.6-4.2,0.9-6.7c4.4,5.2,2.8,15.7-1.9,17.1c-0.4,3.5-0.8,6.4-1.3,10.7
		c-3.5-6.5-3-11,0.1-14.9C57.3,239.2,57.7,236.8,58.2,234.6z M53.7,156.7c1.9,1.2,1.8,6.3,0,9.5c-0.5-0.4-1.3-0.7-1.4-1.2
		c-0.5-2.8-0.8-5.6-1.2-8.3C52,156.7,53.1,156.3,53.7,156.7z M16.2,373.7c-0.4-2.2-0.7-3.9-1-5.6c0.3-0.4,0.6-0.7,0.9-1.1l6.8,4.3
		c0,0.4,0,0.8,0,1.2C20.9,373,18.7,373.3,16.2,373.7z M47.5,336.3c-0.4,0-0.7,0-1.1,0c-1.1-9.5-2.2-19-3.3-29.2
		c1.7,0.6,2.2,0.6,2.3,0.8c1.2,6.5,2.7,13.1,3.4,19.7C49.1,330.4,48,333.4,47.5,336.3z"/>
	<polygon class="st0" points="97.8,94.8 97.8,94.8 97.8,94.8 	"/>
	<polygon class="st0" points="95.6,100.1 95.6,100.1 95.6,100.1 	"/>
	<path class="st0" d="M667.8,96.7c2,0.7,4.1,1.3,6.2,2c0.1-0.3,0.2-0.7,0.4-1c-1-0.6-2.1-1.2-2.5-1.5c0-2.4,0.1-4.4,0-6.3
		c-0.1-1.8-0.4-3.5-0.7-5.3c-3.3,0-6.7,0-10,0C660.3,90.8,662.5,94.7,667.8,96.7z"/>
	<path class="st0" d="M222.1,586.6c8.5,1.6,17.3-0.8,25.5,2.8c1.7,0.7,3.4,1.5,5.1,2c2.2,0.6,4.6,1.8,6.6,1.4
		c8.4-1.5,11.5-0.3,14.8,6.7c1.8,0.2,3.6,0.5,5.4,0.7c8,0.8,14-1.1,16.8-9.6c1.3-3.7,3.1-7.3,5.1-10.7c2.9-4.8,7.4-9,8.9-14.2
		c3.1-10,4.6-20.5,6.7-30.8c-2.9-1.4-4.5-2.9-5.9-4.5c-4.1-4.8-4.7-10.3-3.5-16.4c0.3-1.7-0.9-3.7-1.7-6.7c-1.8,2.4-2.7,3.4-3.6,4.6
		c-1.5-1.9-2.4-3.8-3.9-4.9c-5.9-4.3-8.8-10.7-12.5-16.6c-0.9-1.5-0.6-3.9-1.7-5c-5.9-5.8-6-5.7-1.6-14.5c1.1,3,2.1,5.4,2.9,7.7
		c5.3-2.2,5.3-6.6,5-10.9c-0.3-4.7-1.1-9.3-1.9-15.1c-1.8,2.1-2.6,3-3.5,4.1c-1.9-4.4-3.6-8.5-5.5-12.9c-3,2.4-4.9,3.9-6.7,5.4
		c4.1,8.5,4.1,11.1-0.4,14.9c0-2.7,0-5,0-6.8c-6.7,0-5.6-8.5-11.2-9.9c-0.7,0.9-1.5,2-2.4,3.3c-2.3-1.1-4.3-2.1-6.2-3.1
		c-0.2,0.2-0.4,0.4-0.6,0.6c3.1,3.6,6.1,7.1,9.2,10.7c-0.4,0.4-0.8,0.8-1.2,1.3c-3.7-2.5-7.4-5-12-8.1c1.7,7.7-3.2,5.9-7,5.7
		c-0.4,1.7-0.7,3.2-0.9,4.3c-5-2.2-9.6-4.2-14.4-6.2c-0.3,0.6-0.6,1.3-1.1,2.3c-0.8-0.7-1.5-1.4-2.2-2c-3.4-2.6-7.4-2.4-10.3,0.6
		c-4.1,4.3-8,8.6-12.6,13.5c0.7,0.3,1.7,0.8,2.9,1.3c-2.5,2-4.4,3.5-6.9,5.6c8.4-1,10.2-0.4,10.3,5c0.1,6.7,9.3,9.2,14.2,5.6
		c2.9-2.1,6.1-3.8,9.4-5.1c1.4-0.5,3.5,0.1,5,0.8c3.2,1.6,6.3,3.6,9.3,5.6c1.7,1.1,3.1,2.7,4.7,4c-0.3,0.3-0.6,0.7-0.8,1
		c-1.9-0.1-3.9-0.3-5.8-0.4c0.2,0.4,0.5,0.8,0.7,1.1c-3.2,2.9-5.9,6.6-9.6,8.5c-5,2.6-10.9,3.8-16.2,5.9
		c-7.3,2.9-15.3,6.1-18.5,13.4c-5.3,12-15,20.4-22.5,30.5c-3.3,4.5-10.4,6.2-16.7,9.7c0.4-2.8,0.6-4.3,0.9-5.8
		c-2.3-0.3-4.3-0.9-6.2-0.6c-2.8,0.4-5.4,1.6-8.2,2c-5.7,0.9-10.2,3-12,9c-0.3,0.9-1.8,1.9-2.9,2.1c-0.7,0.1-1.8-1.1-2.5-1.9
		c-0.6-0.8-0.9-1.9-2-4.1c-2.1,5.2-3.7,9.2-5.5,13.7c1.8-0.4,2.6-0.6,3.5-0.7c0.2,0.4,0.3,0.7,0.5,1.1c-1.6,1-3.2,1.9-4.8,2.9
		c0.3,0.4,0.6,0.9,1,1.3c3.5-2.5,7.1-4.9,10.7-7.4c2.3,3.7,1.7,6.4-0.4,9.4c-1.6,2.4-2.3,5.5-3.4,8.5c4-3.2,7.3-5.9,9.9-8
		c2.4,0.4,3.9,0.7,5.8,1c0,1.7,0,3.6,0,6.1c1.5-2.5,2.6-4.2,3.7-5.9c0.4,0.2,0.8,0.4,1.2,0.5c-3.1,8.1-4.1,16.3-2.8,24.7
		c0.5,0.1,1,0.1,1.4,0.2c0.4-2.3,0.8-4.6,1.3-7.4c3.7,6.1,5.6,11.9,4.3,18.4c-0.8,3.9-1.8,7.8-2.5,11.7c-0.3,2-0.1,4-0.1,6.8
		c5.2-3.8,1.6-11.4,9.1-13.6c-1.6,4.7-1.2,7.8,3,8.8c11.5-16.9,17.8-37.1,34.8-49.6c1.8,0.5,3,1.3,4.2,1.2
		C208.4,586.9,215.5,585.4,222.1,586.6z M281.6,529.7c0.8,1.6,1.2,3.6,2.4,4.8c1.2,1.3,3.2,1.9,4.6,3.1c0.9,0.8,1.7,1.9,2.1,3.1
		c1.2,3.9,2.1,8,3.3,12.3c-2.3,1.1-4.2,2-7.3,3.4c-2.5-8.4-5-16.5-7.5-24.7C280,531,280.8,530.3,281.6,529.7z M261.4,551
		c-9.3,8.3-22.1,11-31.6,5.8c-3.3-1.8-6.1-5.1-8.1-8.3c-2.5-3.9-1.7-7.7,2.2-11c2.6-2.2,4.5-5.4,6.6-8.2c0.5-0.6,0.6-1.6,1-2.2
		c1.9-2.6,3.8-6.3,7.7-4.9c2,0.7,4.7,3.6,4.6,5.3c-0.2,2.9-2.1,5.9-4,8.2c-1.2,1.5-3.8,1.9-6,2.9c0.8,13.8,6.8,14.1,14.3,12.6
		c4-0.8,7.3-5.3,10.9-8.1c1-0.8,1.7-1.8,2.6-2.8C265.2,544.8,265.1,547.6,261.4,551z M269.2,510.8c-5.1-3.4-9.8-6.6-15-10.1
		c1.1-0.6,1.4-0.9,1.7-0.9c1.9,0,3.9,0,5.8,0c-1-2.1-1.8-4.3-3-6.3c-2.2-3.7-4.7-7.3-7.8-12C258.7,483.6,270.9,503.6,269.2,510.8z
		 M231.8,511.8c5.9-3.5,11.7-2.9,17.8,0.8c-6.9,1.4-13.6,1.9-19.7,4.3c-6,2.3-11.2,6.5-16.8,9.8c-0.3-0.5-0.6-1.1-0.9-1.6
		C218.7,520.7,225,515.8,231.8,511.8z M207,530.8c1.7,4.3-3.3,14.3-9.1,18C198.6,537.9,197.7,539.5,207,530.8z M200.9,569.6
		c1.1-2.1,2.7-5.6,4.3-5.7c4.9-0.2,9.8,0.7,14.7,1.5c6,0.9,12,2,17.9,3.3c2.9,0.6,7.7,1.3,8.1,2.8c1,4.4-3.6,4.5-6.6,5.5
		c-2.5,0.8-4.8,1.9-6.3,2.5c-1.8-0.1-2.6,0.1-3.1-0.2c-8.4-5.1-18.5-3.6-27.3-6.9C201.7,572.1,200.6,570.1,200.9,569.6z"/>
	<path class="st0" d="M714,361.8c-0.1-0.1-0.3-0.1-0.4-0.2c0.8-0.6,1.3-1.1,1.7-1.4c3.5-4.3,7.4-9.4,10.7-17.1
		c12.3-27.8,12.8-42.3,0-105.6c-1.5-7.2-2.7-13.5-3.7-18.9c-0.2,0-0.3,0.1-0.5,0.1c-0.4-2.2-0.3-3.6-0.9-4.9
		c-6.1-13.4-12.4-26.8-18.6-40.1c-3.8-8.1-7.5-16.2-11.2-24.3c-1.9-4-2.6-9.9-5.7-11.7c-3.6-2.1-5.6-3.9-6.1-8.1
		c-0.1,0.2-0.2,0.4-0.2,0.6c0.9,4.6,1.8,9.2,3.1,13.7c1,3.4-1.4,5.7-4.2,6.1c0.5,6,1.2,12,2.5,17.8c2.4,11.2,1.6,21.3-5.5,30.5
		c-2.4,3.1-0.1,4.7,1.6,6.6c1.4,1.6,3.2,3,4,4.9c1.8,4.1,3,8.4,4.5,12.7c0.8-0.2,1.5-0.5,2.3-0.7c-1.3-3.8-2.7-7.6-3.9-11.4
		c-0.4-1.3-0.8-2.8-0.9-4.2c0-0.3,1.7-1.1,1.8-1c1,1.1,2.1,2.3,2.7,3.7c0.7,1.7,1.1,3.6,1.6,5.5c0.2-0.1,0.5-0.1,0.7-0.2
		c-0.4-6-0.7-12.1-1.1-18.1c0.6-0.1,1.2-0.1,1.8-0.2c0.5,2.7,1.5,5.4,1.6,8.1c0.3,9.8-0.7,19.7,4.3,28.4c0.4-1.2,0.9-2.7,1.7-5.1
		c0.9,2.4,1.4,3.8,1.9,5.2c-0.4-4.1,0.5-7.3,4.1-9.6c0.5-0.3-0.2-2.5-0.2-3.8c0-3.6,0-7.2,0-10.8c2.9,5.8,4.9,11.5,6.5,17.3
		c0.5,1.6,0.6,4.1-0.3,5.2c-4.9,5.9-1.2,11.1,0.6,17.4c3.9-5.6-1.8-13.9,7-17.3c0.5,3.3,1,6.2,1.5,9.2c0.2,0,0.4,0,0.7-0.1
		c0.1-2.1,0.3-4.2,0.4-6.2c0.5,0,1,0,1.4-0.1c2,8.3,3.9,16.6,5.9,24.9c0.9,3.7,2,7.4,2.4,11.1c0.8,6.8,1.6,13.7,1.5,20.6
		c-0.1,4.5-2.5,8.9-2.8,13.4c-0.8,11.5-2.7,22.6-9.2,32.4c-1.4,2.2-3.6,3.8-5,5.9c-2.6,4.1-4.9,8.4-7.1,12.2
		c-1.6-1.8-2.8-4.7-4.5-4.9c-2.1-0.4-5.6,0.8-6.5,2.4c-2.2,4.1-3.2,8.8-4.8,13.6c-0.7,0-3.1-0.5-3.7,0.3c-2,2.6-4.5,5.6-4.9,8.7
		c-1.7,14.3-11,25.4-15.6,38.5c-2.2,6.3-7.5,10.2-12.8,14.1c-4.3,3.2-9.4,6.7-8.5,13.7c3.2-2.6,6-5.5,8.5-8.7c2-2.5,3.7-5.6,7.5-4.5
		c5.5,1.7,10.8,3.6,15.5-1.7c0.4-0.4,2.1,0.3,3.2,0.4c-0.3,1-0.2,2.4-0.9,2.9c-1.2,0.9-2.7,1.1-4.1,1.7l1.8,2
		c1.9,0.6,3.8,1.3,5.7,1.9c0.1,0.5,0.3,0.9,0.4,1.4c-10.2,6.2-23.1,9.1-26.7,22.7c4.8-3.8,9.5-7.5,14.5-11.4
		c3.6,7.1-0.1,10-4.7,13.2c-2.5,1.8-4,5.1-5.9,7.8c0.3,0.3,0.6,0.5,0.9,0.8c4.7-3.6,9.5-7.2,14.2-10.7c0.4,0.5,0.8,0.9,1.2,1.4
		c-1.8,2.7-3.4,5.5-5.4,8c-1.8,2.4-5.8,3.8-2.8,8.2c2.1-1.5,3.9-3,5.8-4.4c0.3,0.2,0.5,0.5,0.8,0.7c-1.8,2.3-3.6,4.6-6,7.7
		c9.1-1,11.6-7.2,15.2-13.9c-3,1.2-5.1,2-7.2,2.8c-0.3-0.4-0.5-0.8-0.8-1.2c1.5-1.4,3.5-4.2,4.4-3.9c4.9,1.6,6-2.3,7.9-4.9
		c5.7-7.7,11.4-15.4,16.8-23.4c1.9-2.8,4.4-6.5,4-9.5c-0.3-2.4-0.7-4.9-1.2-7.3c-1.3-2.8-2.3-5.8-3-9.1
		C698.8,378.9,705.3,372.1,714,361.8z M695,201.7c-0.6,0-1.2-0.1-1.7-0.1c-0.6-4.7-1.5-9.3-1.8-14c-0.1-1.4,1.8-2.8,2.7-4.2
		c1,1.1,2.1,2.2,2.9,3.5C700.9,192.7,695.8,196.8,695,201.7z"/>
	<path class="st0" d="M387.6,376.4c-1.6-3.2-2.5-5.3-3.8-7.1c-0.6-0.8-3.1-1.4-3.5-1c-2.2,2.4-4.3,2.1-6.7,0.7
		c-2.6-1.5-5.2-3-7.8-4.5c-1.5,3.8-2.2,4.3-6.1,4.1c-0.5,0.9-1,1.8-1.5,2.6c-9.2-5-12.7,5.8-21.4,6.1c3.2,3.5,5.3,5.9,7.4,8.3
		c0.4-0.3,0.7-0.5,1.1-0.8c-0.4-1.1-0.8-2.2-1.1-3.2c6.1,0.5,6.9,5.5,8.3,11.5c1.2-3.1,1.8-4.5,2.4-6c0.7-0.1,1.3-0.1,2-0.2
		c0.2,3.7,0.5,7.5,0.7,11.2c0.3,0,0.6,0.1,0.9,0.1c1-2.2,2.1-4.3,3.1-6.5c0.4-0.1,0.8-0.1,1.2-0.2c0.7,3,1.4,5.9,2,8.6
		c5-3.2,6.4-8.1,6.6-14c0.1-2.4,2.3-4.6,4.1-7.9c3.4,7.5,0.3,13.1-1.9,19.8c5.9-4.9,6-10,4.1-15.8
		C382.8,384.1,386.4,381.2,387.6,376.4z"/>
	<path class="st0" d="M500.2,347.6c0,0-0.1,0-0.1,0c0,0.1,0,0.1,0,0.2C500.1,347.7,500.2,347.6,500.2,347.6z"/>
	<path class="st0" d="M490.6,330.1c-5.1-3.1-9.3-7.5-14.2-11c-1.2-0.8-3.5-0.8-4.9-0.2c-1.3,0.5-2.7,2.2-3.1,3.6
		c-0.5,2-0.1,4.3-0.1,6.4c5-0.5,5.9,1.5,5.1,8c4.7,4.4,8.6,8.2,12.7,12.1c2.6-5.9,2.8-5.8,7.8-2.3c1.5,1.1,4.1,0.7,6.3,0.9
		C500.5,339.8,497.5,334.2,490.6,330.1z"/>
	<path class="st0" d="M520.5,441.2c2.3-2.5,2.3-4.5-0.6-6.2c-3.3-1.8-7.7-0.7-9.7,2.3c-1,1.6-2.3,3-3.7,4.3c-4.6,4-4.7,7.7-0.8,12.9
		c0.8,1,0.6,2.9,0.8,4.3c11.8,0.3,20.7-6.8,18.9-14.2c-3.3-0.4-6.4-0.7-10.5-1.2c1.7-2.2,2.6-3.3,3.5-4.6
		C519.4,439.8,520,440.5,520.5,441.2z"/>
	<path class="st0" d="M301,606.9c-1.6,1.7-3.9,2.8-5.3,4.6c-2.3,2.8-4.4,5.8-6.3,9c-1,1.7-0.9,4-2,5.5c-2.4,3.3-6.6,5.9-7.5,9.4
		c-1.5,5.9-0.9,12.4-1.2,18.6c0.6,0.1,1.3,0.2,1.9,0.3c1.6-5,2.8-10.2,4.8-15c1.4-3.6,3.4-7,5.7-10c3.7-4.9,7.9-9.5,12-14.1
		c3-3.3,1.8-9.9,10-9.5C308.7,603.2,303.1,604.5,301,606.9z"/>
	<path class="st0" d="M583.8,438.8c-0.1-0.2-0.3-0.5-0.4-0.7c2.8-1.1,5.6-2.1,9.1-3.5c-7.3-0.8-11.3,1.5-15.2,7.8
		c1.3,1.5,2.4,2.9,3.6,4.3c1.1-0.2,2.5-0.5,4.1-0.8c-0.1,1.2-0.2,2.1-0.2,2.2c4.4-1.5,8.6-3.3,13-4.3c4.5-1,9.1-1.3,13.7-2
		c0-0.8,0-1.6-0.1-2.4c-2.7-0.2-5.5-0.4-8.7-0.6c1.5-4.1,2.8-7.7,4.1-11.5c-4.5-1.6-7.1-0.6-8.6,4c-0.8,2.6-1.2,6.1-5.4,6.2
		C589.8,437.7,586.8,438.4,583.8,438.8z"/>
	<path class="st0" d="M616.8,432c1.9,1.2,4.2,2,5.4,3.6c2.7,3.6,4.8,1.7,6.8-0.4c1.2-1.3,1.9-3.1,2.9-4.6c-1.4,0.2-2.3,0.9-3.3,1.5
		c-0.8,0.5-1.7,0.7-3.7,1.5c3.4-5.9,6-10.6,9.4-16.5c-4.9,0.7-8.7,4.1-10.2-2.1c-4.3,3.7-8.3,4.4-12.8,0.8c-0.8-0.6-3.6,0-4.2,0.8
		c-1.2,1.9-1.7,4.4-2.6,7.3c6-1.1,11.4-2.1,17.2-3.2C619.8,425.2,618.3,428.7,616.8,432z"/>
	<path class="st0" d="M124.8,126.5c0.4-0.1,0.9-0.2,1.3-0.3c0.2-1.3,0.4-2.5,0.6-3.8c-0.7-0.4-1.3-1-1.7-1.8
		c-0.2-0.4-0.5-0.9-0.8-1.4c-0.3,0.2-0.5,0.3-0.8,0.5c-0.2-0.8-0.5-1.7-0.7-2.5c-0.2-0.2-0.4-0.4-0.6-0.5l-0.9,0.1
		C122.4,120,123.6,123.3,124.8,126.5z"/>
	<path class="st0" d="M131.4,105.3c-0.1-0.4-0.2-0.9-0.4-1.3C131.2,104.4,131.3,104.9,131.4,105.3
		C131.4,105.3,131.4,105.3,131.4,105.3z"/>
	<path class="st0" d="M666.2,509.3c-6.2-0.9-5.9-1.1-11.1-6.7c-2-2.1-5.3-2.9-8-4.3c-0.2,0.5-0.5,0.9-0.7,1.4
		c1.8,1.2,3.5,2.5,5.3,3.7c-0.2,0.4-0.3,0.8-0.5,1.2c-1.6-0.4-3.3-0.8-4.9-1.2c-3.4-0.8-6.7-1.5-10.1-2.3
		C644.9,507.5,653.9,513,666.2,509.3z"/>
	<path class="st0" d="M635.9,500.9c0,0-0.1,0.1-0.1,0.1c0.1,0,0.3,0.1,0.4,0.1C636,501,635.9,501,635.9,500.9z"/>
	<path class="st0" d="M100.4,625.9c0.3,0.2,0.6,0.3,0.9,0.5c1.1-2.3,2.3-4.7,3.3-7c1-2.3,1.4-5.6,4.7-2.1c3.4-2.8-0.4-8,3.8-10.4
		c-2.8-4.9,1.6-7.6,3.5-11c0.6-1.1,0.9-2.4,1.4-3.6c-4.4,4.4-8.3,8.9-10.8,14.1C104.2,612.5,102.6,619.4,100.4,625.9z"/>
	<path class="st0" d="M709,263.4c-2.4-6.3-4.6-12.6-7-18.8c-0.3,0-0.6,0.1-0.8,0.1c1.3,9.2,2.6,18.4,3.9,28.2
		C709.9,268.9,710.4,267.2,709,263.4z"/>
	<path class="st0" d="M583.7,387.4c-3.6,10.3-5.6,20.4,0.9,31.4c0-4.5,1.4-9.1-0.3-11.4c-2.4-3.3-2-6-1.6-9.2
		C583.1,394.6,583.4,391,583.7,387.4z"/>
	<path class="st0" d="M82.2,653.4c5-3.3,10.1-13,9.5-18C89.7,642.3,78,643.1,82.2,653.4z"/>
	<path class="st0" d="M91.3,194.8c3.8-4.3-0.1-11.3,5.1-16.6c-0.4-0.9-0.9-2.3-1.5-3.8C89.6,178.3,88.4,186.9,91.3,194.8z"/>
	<path class="st0" d="M630.6,462.4c0.5-2.6,0.7-3.9,0.9-5.2c-3.3-0.5-6.7-0.9-10.6-1.5C623,464.2,626.6,465.8,630.6,462.4z"/>
	<path class="st0" d="M91.9,615c0.7-5.8,6.9-8.9,5.8-15.5C87,610.3,86.6,611.1,91.9,615z"/>
	<path class="st0" d="M575.1,374.8c1-1.5,2-3,3-4.5c0.2,0.1,0.5,0.2,0.7,0.3c-0.6,3.7-1.2,7.3-1.7,11c3.7-5.5,6.6-11,1.8-18.7
		c-1.9,4.5-3.4,8-4.8,11.4C574.4,374.4,574.7,374.6,575.1,374.8z"/>
	<path class="st0" d="M152.1,497.4c-6.7-3.2-12.2-5.3-18.5-2.6c2.9,1.1,7,0.7,8.5,2.6C145.6,501.4,148,499.3,152.1,497.4z"/>
	<path class="st0" d="M74.6,550.8c5.4,0.8,10.9,0.9,16.3,1.3c0-0.6,0.1-1.1,0.1-1.7c-3.7-0.3-7.4-0.5-11.2-0.8
		c-0.6-6.7-4.9-2.9-9.1-3.5C72.5,548.3,73.4,550.7,74.6,550.8z"/>
	<path class="st0" d="M80.6,409.6c-0.5,0.1-1.1,0.1-1.6,0.2c-0.3,1.3-1.2,2.7-0.9,3.7c0.6,1.7,1.7,3.3,3,4.5
		c1.6,1.5,3.7,2.6,5.6,3.9c-0.6-2-0.8-4.2-1.7-6C83.8,413.7,82,411.7,80.6,409.6z"/>
	<path class="st0" d="M529.9,458.5c-5.2-2.6-10.9-0.7-17.6,5.9C519.9,466.3,523.7,459.2,529.9,458.5z"/>
	<path class="st0" d="M110.1,573.7c-5.1,4.9-14.2,5.6-15.3,14.8c0.8-1.2,1.6-2.5,2.6-3.6c0.8-0.9,2-2.6,2.7-2.4
		C107.3,583.7,107.2,577,110.1,573.7z"/>
	<path class="st0" d="M562,1062.2C562,1062.2,562,1062.2,562,1062.2c0.2-0.1,0.3-0.1,0.4-0.2C562.3,1062.1,562,1062.2,562,1062.2z"
		/>
	<path class="st0" d="M589.4,426.4c1.8-2.9,3.5-5.7,5.7-9.1c-2.3-0.6-3.6-1.2-4.8-1.2c-1.2,0-2.8,0.4-3.3,1.2
		c-0.5,0.8,0.1,2.3,0.4,3.5C587.9,422.5,588.6,424.2,589.4,426.4z"/>
	<path class="st0" d="M60.5,523.3c-0.3-1-2.7-1.3-4.7-2.3c3.9,5,7.3,9.4,11,14.1c0.9-2.7,1.5-4.8,2.5-7.9
		C64.6,528.4,61.7,527.7,60.5,523.3z"/>
	<path class="st0" d="M646.3,491.4C646.3,491.4,646.3,491.4,646.3,491.4C646.3,491.3,646.3,491.3,646.3,491.4
		C646.3,491.3,646.3,491.4,646.3,491.4z"/>
	<path class="st0" d="M646.3,491.3c2.7,1.1,5.5,2,8.1,3.4c5.6,3,5.8,3,8.1-2.3c-3.8-0.6-7.6-1.4-11.5-1.9
		C649.5,490.4,647.9,491.1,646.3,491.3z"/>
	<path class="st0" d="M133,475.2c3.1-6.5,1.3-11.6-2.9-12c0.3,2.1,0.4,4.3,0.9,6.3C131.5,471.5,132.3,473.3,133,475.2z"/>
	<path class="st0" d="M461.9,320.5c0.2,3.6,0.5,7.2,0.7,10.9c1.5,0,2.7,0,4.7,0c-1.3-4.3-2.4-7.8-3.5-11.3
		C463.2,320.2,462.5,320.4,461.9,320.5z"/>
	<path class="st0" d="M636.9,441.8c-7.5-2.5-8-2.4-10.1,1.9C633,445.8,633.6,445.6,636.9,441.8z"/>
	<path class="st0" d="M73.2,606.2c4.1-0.7,7.8-1.4,12.2-2.2C75.9,600.1,75.9,600.1,73.2,606.2z"/>
	<path class="st0" d="M646.1,464.2c1.6-0.8,2.4-3.4,3.5-5.2c-0.4-0.2-0.9-0.5-1.3-0.7c-2.3,1-4.6,2-8.8,3.8
		C642.5,463.1,644.8,464.8,646.1,464.2z"/>
	<path class="st0" d="M94.9,564.1c0.3,0.4,0.7,0.8,1,1.1c3.2-2.7,6.4-5.3,9.6-8c-0.6-0.7-1.2-1.3-1.8-2
		C100.8,558.2,97.8,561.1,94.9,564.1z"/>
	<path class="st0" d="M84.2,681.5c-1.1,2.2-2.1,4.3-3.2,6.6c2.7-0.8,4.6-1.2,6.4-1.9c0.8-0.3,1.4-1,2.1-1.5
		c-0.8-0.4-1.6-0.7-2.3-1.2C86.2,683,85.3,682.3,84.2,681.5z"/>
	<path class="st0" d="M133.2,625c0.6,0.1,1.2,0.3,1.7,0.4c1.1-4,2.2-7.9,3.4-11.9c-0.6-0.2-1.3-0.3-1.9-0.5
		C135.3,617,134.3,621,133.2,625z"/>
	<path class="st0" d="M582.4,428.8c-0.1-0.6-0.3-1.1-0.4-1.7c-2.5,0.6-5,1.2-7.6,1.8c0.1,0.6,0.1,1.3,0.2,1.9
		C577.5,431.6,580.3,431.6,582.4,428.8z"/>
	<path class="st0" d="M681.1,123.8c-0.3-2.6-0.7-5.1-1.2-9c-1.1,2.8-1.8,4.8-2.7,7c0.2,0.7,0.3,1.3,0.5,2H681.1z"/>
	<path class="st0" d="M602.4,416.4c-1.2-3.1-2.3-5.6-3.3-8.2c-0.4,0.1-0.9,0.3-1.3,0.4c0.8,2.8,1.5,5.6,2.5,8.3
		C600.3,417,602.3,416.4,602.4,416.4z"/>
	<path class="st0" d="M77.7,562.5c0,0.8,0,1.6,0,2.4c3,0.2,6.1,0.3,9.1,0.5c0-0.7,0.1-1.3,0.1-2C83.8,563.1,80.8,562.8,77.7,562.5z"
		/>
	<path class="st0" d="M66,507.7c3.9,1,7.7,2.1,11.6,3.1c0.1-0.5,0.2-1.1,0.3-1.6c-3.8-1.1-7.6-2.2-11.4-3.3
		C66.3,506.5,66.1,507.1,66,507.7z"/>
	<path class="st0" d="M644.5,496.7c-2.8-1.9-5.7-3.9-8.5-5.8c-0.3,0.5-0.7,1-1,1.4c2.7,2,5.4,4.1,8.1,6.1
		C643.5,497.9,644,497.3,644.5,496.7z"/>
	<path class="st0" d="M135.9,487.7c3.4,0.3,6.7,0.6,10.1,1c0.1-0.6,0.1-1.2,0.2-1.9c-3.3-0.4-6.7-0.8-10-1.2
		C136,486.3,136,487,135.9,487.7z"/>
	<path class="st0" d="M94.5,140.4c-0.5,1.7-0.7,3.3-0.4,4.9c0.1-1.7,0.3-3.4,0.6-5.1C94.6,140.3,94.6,140.3,94.5,140.4z"/>
	<path class="st0" d="M535.1,315.5c0.4,0.1,0.8,0.1,1.3,0.2c0.2-2.3,0.3-4.7,0.6-8.1c-2.2,1.3-3.3,2-4.2,2.5
		C533.6,312.1,534.3,313.8,535.1,315.5z"/>
	<path class="st0" d="M386.4,343.1c-0.7,3.7-1.4,7.5-2.1,11.2c0.6,0.1,1.1,0.2,1.7,0.3c0.7-3.7,1.3-7.4,2-11.1
		C387.4,343.3,386.9,343.2,386.4,343.1z"/>
	<path class="st0" d="M92.1,568c-3.7,0.9-6.4,1.5-9.1,2.1C85.9,571,89.2,573,92.1,568z"/>
	<path class="st0" d="M525,292.7c2.8-2.6,5.6-5.2,8.4-7.8c-0.4-0.4-0.8-0.9-1.2-1.3c-2.9,2.5-5.7,5.1-8.6,7.6
		C524.1,291.7,524.6,292.2,525,292.7z"/>
	<path class="st0" d="M223.5,171c-0.5-0.8-1-1.5-1.4-2.2c-2,2.2-3.9,4.5-5.9,6.7C219.5,174.9,222.1,173.7,223.5,171z"/>
	<path class="st0" d="M216.2,175.4c-0.1,0-0.2,0-0.3,0c0,0,0.1,0.1,0.1,0.1C216.1,175.5,216.1,175.5,216.2,175.4z"/>
	<path class="st0" d="M318.5,836.8c0.3-3.6,0.6-6.4,0.9-9.3C314.8,830.1,314.6,833.4,318.5,836.8z"/>
	<path class="st0" d="M316.4,846.4c0.3,2.1,0.3,4.4,1.2,6.3c0.3,0.6,2.7,0.3,4.8,0.5c-1.9-3-3.2-5.1-4.5-7.2
		C317.4,846.2,316.9,846.3,316.4,846.4z"/>
	<path class="st0" d="M417,829.8c0,2.2,0,4.5,0,6.7c0.7-0.1,1.3-0.1,2-0.2c-0.1-2.2-0.3-4.4-0.4-6.6
		C418.1,829.8,417.5,829.8,417,829.8z"/>
	<path class="st0" d="M544,576.8c2,1.9,4.1,3.8,6.1,5.8c0.6-0.5,1.2-1,1.8-1.5c-2.2-1.9-4.4-3.8-6.6-5.6
		C544.9,575.9,544.5,576.3,544,576.8z"/>
	<path class="st0" d="M127.2,0c0,0-0.6,2.6-1.3,6.8C127.6,2.4,127.2,0,127.2,0z"/>
	<path class="st0" d="M110.5,95.3c0-0.1-0.1-0.1-0.1-0.2C110.4,95.2,110.4,95.3,110.5,95.3C110.4,95.4,110.4,95.4,110.5,95.3
		C110.4,95.4,110.4,95.4,110.5,95.3z"/>
	<path class="st0" d="M113.6,88.8c-1.5-1-2.9-2-4.2-3.2c0,0.9,0,1.7-0.1,2.6c0-0.1,0-0.3,0-0.4c0,0,0,0,0,0c0.9,0.9,1.6,1.7,2.1,2.4
		c0,0,0,0.1-0.1,0.1C112,89.6,112.8,89.1,113.6,88.8z"/>
	<path class="st0" d="M125.8,96.4c2.3,2.7,4.2,5.8,5.6,9c0,0,0,0,0-0.1c-0.2-0.4-0.4-0.9-0.6-1.3c-0.1-0.6-0.2-1.1-0.3-1.7
		c-0.5-1.2-1-2.2-1.7-3.2C127.9,98.1,126.9,97.2,125.8,96.4z"/>
	<path class="st0" d="M130.4,102.3C130.4,102.3,130.4,102.3,130.4,102.3c0,0.1,0,0.1,0.1,0.2C130.5,102.4,130.5,102.3,130.4,102.3z"
		/>
	<path class="st0" d="M130.5,102.4c0.2,0.5,0.4,1,0.6,1.6C130.9,103.5,130.7,102.9,130.5,102.4z"/>
	<path class="st0" d="M96.4,88.1c0.5,2.3,0.9,4.5,1.4,6.8c0.6-1.9,1.1-3.8,1.3-5.7c-0.1-0.4-0.1-0.9-0.2-1.3
		C98.1,87.9,97.3,88,96.4,88.1z"/>
	<path class="st0" d="M91.4,92.4c1.6-3.4,2.7-5.6,3.8-7.8h4.2c0,0,0-0.1,0-0.1c-0.2-3.6,2.8-5.1,5.6-4.8c-2-4.5-1.1-9.5,1.6-14
		c1.1-1.8,2.9-2.5,4.8-2.4c0.6-4.9,8.4-6.4,9.8-0.8c3.6,15,15.7,24.5,25.7,35.4c0,0,0,0,0,0c0.1-0.7,0.1-1.4,0.1-2.1
		c-0.1-3.8-2.4-7.5-3.7-11.2h15c-17.4-23.6-24.9-11.1-31-29.4c-5.4-16.3-3-37.7-1.3-48.4c-2.2,5.9-8.1,15.5-23.4,27.8
		C90,44.8,79.4,65.5,71.6,84.6h16.5C89.2,87.1,90.2,89.6,91.4,92.4z"/>
	<path class="st0" d="M80.1,114.8c0.6,2.4,1.2,4.8,1.7,7.2c0.6-0.6,1.1-1.2,1.4-1.7c0.1-0.5,0.3-1,0.6-1.4c0,0,0-0.1,0.1-0.1
		C84.2,117,83,115.7,80.1,114.8z"/>
	<path class="st0" d="M96.2,98.9c0-0.1,0-0.1,0.1-0.2C96.2,98.8,96.2,98.9,96.2,98.9C96.2,98.9,96.2,98.9,96.2,98.9z"/>
	<path class="st0" d="M96.2,98.8c0.3-0.6,0.6-1.2,0.8-1.9C96.8,97.5,96.5,98.1,96.2,98.8z"/>
	<path class="st0" d="M95.6,100.1c0.2-0.4,0.4-0.8,0.6-1.2c-0.2-0.1-0.4-0.2-0.7-0.3C95.5,99.1,95.6,99.6,95.6,100.1z"/>
	<path class="st0" d="M95.6,100.1c-2.1,4.2-4.8,8.1-7.4,12C90.8,108.2,93.5,104.3,95.6,100.1z"/>
	<path class="st0" d="M99.2,89.1c0.2-1.4,0.3-2.9,0.2-4.4C99.4,86.2,99.4,87.6,99.2,89.1z"/>
	<path class="st0" d="M142.4,107.8c0.3,1.9,0.4,3.8,0.5,5.7l3.3-0.5C145,111.2,143.8,109.4,142.4,107.8z"/>
	<path class="st0" d="M121.2,116.8l0.5-0.4c0.1,0.1,0.3,0.2,0.4,0.3l0,0c-0.5-0.4-1.1-0.8-1.8-0.8c-0.9-0.1-1.4,0.4-1.8,1
		c-0.1,0.1-0.1,0.2-0.1,0.3L121.2,116.8C121.2,116.8,121.2,116.8,121.2,116.8z"/>
	<path class="st0" d="M357.4,322.8c4.5-1,7.7-1.9,9-2.6C362.2,318.6,357.4,316.8,357.4,322.8z"/>
</g>
<g>
	<path class="st0" d="M248.4,957.9l53.5,127.8C301.9,1085.7,275.6,1004.4,248.4,957.9z"/>
	<path class="st0" d="M198.7,839.1c-3.2-2-7.1-4.3-11.8-7c-38.9-21.8-69-37.4-69-37.4s31,0.3,12.2-3.8s-12.2-13.1-12.2-13.1
		l-12.4-8.6l-27.9-19.3c0,0,38,11,7.6-6.2c-30.4-17.2-20.8-54.9-14.5-108.3c4.6-39-2.7-92.6-7-118.7l-8.6-20.6
		c0,0,4.3,25.3-6.3,73.4s-18.7,55.9-21.8,59.7c-3.1,3.7,27.5-7.7,9.2,6.1c-18.3,13.9-1.8,0.7-17.2,18C3.7,670.6,4.7,673.6,4.7,673.6
		l18.2-7c0,0,19.8-40.7,7.4-1c-12.4,39.7-25.7,56-25.6,72.3s1.9,8.1,52.9,41.2c50.9,33.1-6.5,7.6-6.5,7.6s20.8,23.9,74.7,63.9
		s89.6,55.6,118.2,100.3c1.5,2.3,2.9,4.7,4.4,7.2L198.7,839.1z"/>
</g>
<path class="st0" d="M66.4,505.9"/>
<path class="st0" d="M158.4,837.5c-2.3-1.8-43.7-5-45-97.4c-0.3-22.3-1.9-79.9-1.9-79.9s-0.9,1.7-2.3,4.8
	c-10.2,22.3-49.2,115.4-9.6,154.2c45.1,44.2,77.7,52.9,77.7,52.9s-62.7-104.6-60.7-184"/>
</svg>
