<?xml version="1.0" encoding="utf-8"?>
<!-- Generator: Adobe Illustrator 19.1.0, SVG Export Plug-In . SVG Version: 6.00 Build 0)  -->
<svg version="1.1" id="Layer_1" xmlns="http://www.w3.org/2000/svg" xmlns:xlink="http://www.w3.org/1999/xlink" x="0px" y="0px"
	 viewBox="35 -96.3 682.1 985.3" style="enable-background:new 35 -96.3 682.1 985.3;" xml:space="preserve">
<style type="text/css">
	.st0{opacity:0.1;}
</style>
<g class="st0">
	<path d="M146.2,171.5c-0.9-13.9-1.3-26.5-2.7-39c-0.7-6.4-0.5-12.1,3.4-17.3c0.4-0.5,0.7-1.4,0.5-1.8c-3.3-5.7,1.6-8.3,4.6-11.2
		c9.4-8.8,19.3-17.2,28.5-26.2c4.9-4.8,4-6.7-2.3-9.4c-10.2-4.3-20.4-8.7-30.5-13.1c7.4-10.5,14.6-20.8,22.4-31.8
		c-7.8-1.1-10.4-7.8-15-12.5c-10.8-10.8-19.3-23.1-27.3-36c-3-4.9-6.6-9.5-10.5-15.2c4.9-1.3,8.9-2.2,12.9-3.4
		c9-2.8,17.8-7.6,26.9-8.4c13.5-1.1,25.8-6.2,38.6-9.4c30.8-7.5,61.3-16.2,92-24.3c2.2-0.6,4.7-1.2,6.8-0.7
		c4.9,1.2,9.3,1.2,13.7-1.9c1.3-0.9,3.8-0.3,5.7-0.3c12.2,0,24.3,0.4,36.5-0.2c6.2-0.3,12.3-2.6,18.5-3.4c8.4-1.1,16.8-1.8,25.2-2.4
		c1.4-0.1,2.8,0.7,4.2,1.2c3.2,1.1,6,2.4,9.9,0.6c2-0.9,5.9,1.1,8.4,2.6c5.9,3.6,11.2,8.2,17.3,11.5c10.5,5.7,21.2,10.8,32,16
		c6.3,3,12.7,5.7,19.2,8.1c2.8,1,6,0.6,9,1.3c2.5,0.6,5,1.6,7,3.1c15.2,10.9,28,23.8,39.9,38.6c15.9,19.7,28.6,42,47,59.7
		c2.1,2,3.4,2.5,5.8,1.2c3.8-2,7.7-3.6,11.5-5.7c1.4-0.7,2.3-2.2,3.5-3.3c1.9-1.7,3.7-3.5,5.8-4.9c4.1-2.6,7.9-2.6,12.4,0.1
		c5.5,3.3,11.6,5.4,17.5,7.9c3.2,1.3,7.1,8,5.4,10.7c-3.1,4.9-1.4,9.5-0.3,14.3c1.2,5.3,3,10.5,3.3,15.9c0.1,2.2-2.4,5.2-4.6,6.7
		c-3.4,2.4-7.5,3.8-12.2,6.1c2.3,2.2,4,3.5,5.3,5c10.5,12.6,23.1,23,36.1,32.7c20.1,14.8,27.5,36.5,34.3,58.6
		c2.7,8.7,3.2,18.1,4.9,27.8c-9.1-1.3-14.9-6.8-21.6-10.6c-10.3-5.9-20.3-12.7-33-12.4c-0.7,0-1.5-0.3-2,0.1
		c-8.8,5.6-18.8,1-28.1,3.5c-9.1,2.5-18.5,3.7-27.8,5.6c-0.9,0.2-1.8,0.7-1.9,0.8c3.9,11,7.7,21.8,11.7,32.6c0.6,1.5,2.1,2.9,3.4,4
		c4.7,4.1,9.5,8,14.3,11.9c2,1.7,4.6,2.9,6.1,5c3.6,4.7,6.7,9.7,10,14.6c3.2,4.7,6.4,9.6,9.8,14.1c4.1,5.4,8.6,10.5,12.7,15.9
		c1,1.4,1.7,3.8,1.3,5.5c-3.8,14.7-8,29.3-11.7,44c-0.6,2.3-0.1,5.5,1.2,7.5c5,8,10.3,15.8,15.8,23.5c1.9,2.6,4.5,4.7,7,6.9
		c3.4,3,5.4,6.4,5.2,11.3c-0.2,3.1,0.8,6.2,1.1,9.3c0.1,1.4,0,2.8-0.2,4.1c-0.3,3-0.7,5.9-1.2,8.8c-0.2,1.4-0.3,3-1,4.2
		c-7.9,11.8-15.7,23.8-24.2,35.2c-3.3,4.5-8.2,7.7-12.2,11.7c-0.9,0.9-1.7,3.2-1.3,3.6c3.4,3.8,0.5,6.3-2,8.2
		c-5.7,4.3-11.6,8.2-17.6,12.1c-2.7,1.8-5.7,3.4-8.9,5.2c1.9,4.6,4.1,8.6,8.8,10.8c3.1,1.5,6.5,2.7,9,5c2.8,2.5,6.9,4.2,5.1,10.1
		c-0.9,2.8,2.6,6.7,3.3,10.2c1.7,8.3,3.5,16.7,0.8,25.3c-0.3,0.9,1.4,2.5,2.3,3.6c0.9,1.1,2.6,2,2.7,3.1c0,1.2-1.2,2.8-2.3,3.5
		c-4.9,3-9.8,6-14.9,8.5c-2,1-4.7,0.6-7.1,1c-3.3,0.5-7.8-1.7-8.7,4.2c-0.1,0.7-2.4,1.4-3.7,1.5c-6.9,0.6-13.5-0.4-19.5-4.3
		c-2-1.3-4.4-2-7.6-3.5c0.5,4.3,1,7.5,1.3,10.7c0.3,2.8,0.8,5.6,0.8,8.4c0.1,10.9,0.3,21.9-0.2,32.8c-0.2,4.7-0.5,9.9-4.7,13.6
		c-5.2,4.6-3.3,11.3-3.8,16.9c-1.3,14.9-1.6,29.9-2.3,44.8c-0.6,10.9-1.3,21.9-1.8,32.8c-0.3,5.7-3.1,10-6.9,13.9
		c-1.7,1.8-4.4,3.3-2.5,6.7c0.3,0.5-0.5,2-1.1,2.5c-12.3,9.7-17.7,24.1-25.6,36.8c-6.9,11.1-13.9,22.1-20.9,33.1
		c-0.4,0.6-0.6,1.3-1.1,1.7c-8.3,6.5-10.7,15.7-13.1,25.4c-2.1,8.2-6,15.8-9.3,24c-14.5-7.3-28.9-13.5-37.5-27.9
		c-2.1-3.5-4.7-6.9-7.6-9.8c-3.6-3.7-4.9-8-5.5-12.9c-0.9-8.4-2.2-16.7-3.1-25.1c-0.2-1.8-0.2-4,0.5-5.6c6.4-14.5,12.9-29,19.6-43.4
		c2.7-5.7,5.4-11.4,9.2-16.4c5-6.7,6.4-13.9,6.1-21.9c-0.5-14.1-0.8-28.3-1.4-42.4c-0.1-3.4-1.1-6.8-2.1-10c-0.3-0.8-2-1.6-3.1-1.8
		c-7.7-1.1-15.5-1.8-23.2-3.2c-5-0.9-9.8-3.2-14.8-4.2c-10.9-2.1-22-5.7-32.8-5.1c-9.6,0.5-19.3,5-28.2,9.3
		c-5.4,2.7-3.5,8.4,2.5,10.4c1.8,0.6,3.5,1.8,5.2,2.9c9.7,6.4,19.3,12.8,29.1,19.1c2.6,1.6,5.7,2.4,8.3,4c1.1,0.6,2.2,2.5,2.1,3.6
		c-0.9,7.5-1.2,15.2-3.4,22.3c-3.9,12.6-9,24.8-13.8,37.1c-0.6,1.6-2.1,2.9-3.4,4.2c-3.2,3.5-6.3,7-9.8,10.2
		c-2.3,2.1-4.9,4.2-7.7,5.3c-11.3,4.6-22.8,8.7-35.5,13.6c0-3.1-0.5-5.5,0.1-7.7c2.8-10.8,2.9-21.7,2.5-32.6c0-1.1-1.2-2.2-2-3.2
		c-0.3-0.4-0.9-0.4-1.3-0.7c-17.3-16.9-39.9-25.4-59.9-37.9c-6.2-3.9-13.7-5.6-20.7-8c-3.7-1.3-5.6-3.4-6.2-7.5
		c-1-7.5-2.6-15-3.9-22.5c-0.1-0.6-0.3-1.4-0.7-1.8c-5.3-4.2-2.4-8.7-0.2-12.9c3.7-7,7.9-13.8,11.7-20.8c1.2-2.3,1.7-4.9,2.5-7.4
		c0.4-1.4,0.5-3,1.3-4.2c3.4-5.5,7-11,10.5-16.4c3-4.5,5.5-9.4,9.1-13.4c16.2-18,27.5-39.3,41.1-59.1c2.1-3,4.9-5.4,7-8.4
		c1.9-2.6,4.2-5.5,4.6-8.5c1.5-12.4,3.6-24.7,0.8-37.4c-2.2-10-1.9-20.5-3.5-30.6c-2.1-13.9-5-27.6-7.5-41.5
		c-1.2-6.8-2.3-13.7-3.4-20.5c-1-6.6-5.5-9-11.1-5.7c-8.7,5.1-17.2,10.6-26,15.3c-3.1,1.6-8.4,3.2-10.5,1.7
		c-4.1-2.9-7.2-0.8-10.2,0.2c-17.9,6.1-36.8,7-55.2,10.1c-5.8,1-11.8,1.3-17.6,1c-4.8-0.3-9.6-2-14.4-3.1c0-0.4-0.1-0.9-0.1-1.3
		c0.6,1.3,1.2,2.6,1.9,3.9c-0.2,0.2-0.5,0.5-0.7,0.7c-2.2-2.4-4.2-4.9-6.6-7c-14-12.4-23.2-28.2-31.5-44.6
		c-4.3-8.4-8.3-16.9-12.3-25.4c-0.5-1.1-0.7-2.6-0.6-3.8c0.3-3.7-1.7-5.9-4.2-8.5c-2.6-2.7-4.5-6.3-5.8-9.8c-1-2.8-1.8-4.1-5.1-4.8
		c-6.4-1.3-12.5-3.9-18.8-5.5c-4.7-1.2-9.3-1.3-14,1.2c-4.6,2.5-9.8,4-14.5,6.4c-6.8,3.5-13.3,3.7-20.2-1.7
		c3.4-4.2,6.7-8.6,10.4-12.8c3.4-3.9,7.3-7.3,10.5-11.3c3.1-3.9,1.7-6.7-3.3-7.4c-12-1.8-23.3-5.2-31.4-15.1
		c-0.7-0.9-1.5-1.8-2.1-2.8c-0.6-0.8-1-1.7-2.1-3.7c4-0.2,7.4-0.8,10.6-0.6c6.3,0.5,12.6,1.3,18.8,2.3c6.4,1,10.3-2.4,13.7-7
		c0.8-1.2,1.5-2.5,1.8-2.9c-5.9-11.5-16.1-18.2-25.4-25.8c-5.2-4.3-5.1-5.3-2.3-11.7c1-2.3,1.1-5.1,1.7-8c6.8,4,13.3,7.8,19.8,11.7
		c3.1,1.9,6.4,3.6,9.3,5.7c4.4,3.3,9.1,2.4,12.9-0.1c4.6-3,3.1-7.9,1.4-12.2c-2.3-5.8-4.9-11.6-7.1-17.4c-0.6-1.7-0.9-4.2-0.1-5.6
		c3.7-6,7.9-11.6,12.7-18.5c3.3,8.2,6.1,14.9,8.7,21.5c5.1,12.7,12.1,24.4,20.9,34.9c3.8,4.6,6.7,4,9-1.3c2.4-5.6,4.9-11.1,7.3-16.7
		c0.3-0.8,0.6-1.8,1.2-2.1c5.5-2.9,11-5.6,17.4-8.8c0,13.3-0.2,24.9,0.1,36.5c0.1,6.2,0,12.6,1.7,18.4c3.5,12,9,23.2,16.1,33.5
		c10.7,15.7,23.7,28.8,41.3,36.8c5.1,2.3,10.1,4,15.6,1c1.1-0.6,3.3,1,4.8,1.5c11.1-8,22.5-16.2,33.7-24.4c1.3-1,2.7-3,2.6-4.4
		c-0.5-3.9,1.7-5.7,4.3-7.7c9-6.7,18-13.5,26.7-21.5c-1.3-0.1-2.7-0.2-4-0.4c-8.1-1.3-16.4-2-24.3-4.2c-11.6-3.2-23-7.5-34.3-11.6
		c-2.7-1-5-3-7.3-4.8c-10.2-8.2-20.3-16.6-30.6-24.7c-2.7-2.1-6.2-3.1-8.9-5.1c-17-12.5-24.5-30.8-30.4-50c-0.9-3-2-6-2.8-9
		c-1-3.8-3-4.4-6.2-2.6c-0.7,0.4-1.4,0.8-2.1,1.2C157.9,163.6,152.3,167.3,146.2,171.5z M452.1,548L452.1,548
		c-3.5-1.9-7-3.8-10.7-5.9c-1.4,4.9-2.5,8.7-3.5,12.5c-1.3,5.1,0.5,7.8,5.8,8.8c5.7,1,11.4,1.9,17.1,2.7c1.8,0.3,3.7,0.2,5.7,0.3
		c-1.1-3.5-2-6.4-3-9.6c3.9,0.6,7.2,1,10.6,1.5c-0.3,2-0.5,3.6-0.9,6.3c5.2-2.4,9.4-4.4,13.6-6.3c-0.1-0.4-0.1-0.8-0.2-1.2
		c-6.3-0.8-12.7-1.5-19.2-2.3c3.2-1,6.1-1.9,8.7-2.8C468,550.8,460,549.4,452.1,548z M457.6,228.2c0.3,0.5,0.5,1.1,0.8,1.6
		c-6.6,5.8-13.2,11.6-19.7,17.6c-1.4,1.3-2.3,3.2-3.2,5c-7.4,15.5-11.7,32.2-21.7,46.7c-8.9,13-16.2,27.1-24.3,40.6
		c-3.1,5.1-6.5,9.9-10.7,16.1c-1.4-3.3-2-5.4-3.2-7.2c-1.2-1.8-2.6-4.1-4.4-4.9c-9.5-3.8-15.5-11.4-20.3-19.7
		c-7.6-13.2-12.8-27.5-17.4-42c-0.4-1.1-2.7-2.1-4.2-2.2s-3.1,1.2-4.7,1.6c-10.9,2.3-18.6,9.7-26.3,16.9c-0.9,0.8-1.5,2.7-1.2,3.8
		c1.7,5.6,3.4,11.2,5.8,16.5c2.9,6.1,6.5,11.9,9.9,17.8c0.6,1.1,1.9,1.8,2.9,2.6c0.2-0.2,0.4-0.4,0.6-0.7c-0.6-2-1.2-4-1.8-5.9
		c0.3-0.1,0.5-0.2,0.8-0.3c1.8,4.2,3.6,8.4,5.4,12.6c0.4-11.4,0.3-22.2-2.9-32.9c5.6,9.2,11.2,18.4,14.1,28.4
		c9.3,31,19.6,61.8,20.9,94.7c0.3,8.9,2.2,17.7,3.5,26.5c1.7,10.9,3.6,21.9,5.5,33c9-3,17.8-5.8,26.5-8.9c4.5-1.6,8.3-1.3,12.2,1.6
		c2.8,2,6.2,3.2,9.1,5c3.6,2.2,7.3,4.4,10.2,7.3c2.1,2.1,2.7,5.8,7.1,4.2c0.8-0.3,2.9,1.1,3.5,2.2c1.8,3.3,4,6.8,4.6,10.4
		c0.6,4.3,2.5,5.7,6.3,6.1c14.5,1.6,29.1,3.6,43.6,4.7c19.2,1.5,38.4,0.7,57.4-3.4c0.5-2.8,0.8-5.5,1.6-8c2.7-8.9,6.3-17.5,8.3-26.6
		c2-8.8,4.9-16.4,12.4-21.9c1-0.7,1.9-2.6,1.6-3.6c-0.9-3.5-2.6-6.8-3.6-10.3c-3.1-11.2-5.7-22.5-9-33.6c-1.2-4.1-3.8-7.9-6.2-11.5
		c-2-3.1-6.5-6-6.5-8.9c0.1-5.3-3.4-5.4-6.3-6.5c-2.6-1-5.5-1.7-8.3-1.6c-10.8,0.7-17.6-4.5-22.7-13.6c-2.8-5-8.5-8.8-10.1-13.9
		c-2.1-6.8-1.2-14.4-1.8-21.7c-0.2-2.2-1-4.3-1.5-6.5c-1.8,1.1-3.6,2.3-5.4,3.4c-1.1,0.7-2.2,1.3-3.4,2c-0.4-0.4-0.8-0.8-1.2-1.2
		c2.2-4.6,3.5-10,6.8-13.6c10.3-11,21.5-21.2,32.1-32c4.9-4.9,12.5-7,14.4-15.3c0.8-3.4,1.1-5.5-1.4-7.8c-2.1-1.9-4-4.1-6.1-5.9
		c-17.6-15.2-34.2-32.1-58.4-37c-2.5-0.5-5.3,0.4-7.9,0.6c0,0.5,0,1.1,0,1.6C459.3,229.5,458.4,228.8,457.6,228.2z M279.4,252.1
		c-1.3-2.6-2-3.7-2.5-4.9c-3.7-8.1-8.2-15.9-11-24.3c-6.8-20.4-12.9-41-22.9-60.2c-2.5-4.8-5.1-9.3-10.8-10.7
		c-0.8-0.2-1.4-1.1-2.1-1.7c30.2,1.8,60.2,3.6,90.3,0.3c0-3.6,0.9-6.4,4.8-6.6c4.2-0.2,11.7,9.6,10.3,13.5c-0.3,0.9-1.7,1.3-2.4,2.1
		c-1.2,1.2-3.2,2.5-3.4,3.9c-2.4,19.8-7.1,39-11.8,58.3c-2.6,10.7-4.4,21.4-10.5,30.7c-0.3,0.4,0,1.2,0,1.4c28,7.7,54.4-1.2,82-6.2
		c-10.3,8.5-21.4,13.3-33.3,16.5c-9.2,2.5-9.2,2.6-7.5,12c0.1,0.3,0,0.7,0.1,1c0.8,7.9,1.3,8.8,9.4,9.4c13.2,1,26.5,1.2,39.8,2.2
		c4.3,0.3,6.7-1.4,8.6-5c10.3-19.4,22.4-37.9,28.8-59.3c0.4-1.4,0.5-3,0.8-5.5c-7.2,4.8-13.5,9-20.3,13.6c0.3-2.9,0.6-5.1,0.8-7.4
		c0.7-6.2,2.3-12.5,1.8-18.6c-0.8-11.2-3.1-22.4,2.9-33c0.3-0.6,0.6-1.3,0.4-1.9c-1-5.2,2.5-8.3,5.3-11.7c1.2-1.4,2.6-2.6,3.9-3.9
		c11.1-12.2,24.8-22.3,30-39.1c0.5-1.6,0.2-4-0.7-5.4c-2.3-3.6-5.2-6.8-7.9-10.1c-5.2-6.6-10.7-13-15.7-19.8
		c-4.7-6.5-10.5-12.4-10.8-21.2c-0.2-6.8-0.8-13.6-0.9-20.4c-0.1-10.5,0-21.1,0-32.2c-11.6,5.4-22.7,10.4-33.7,15.8
		c-12.2,6-24.2,12.4-36.4,18.4c-3.9,1.9-8.2,3.2-12.4,4.5c-5.4,1.6-10.9,2.7-16.2,4.4c-9.3,2.9-18.4,6.4-27.7,9.1
		c-5.4,1.5-11,2.2-16.6,2.9c-14.5,1.9-28.8,6.5-43.8,4.6c-2.5-0.3-5.1,0-7.6,0c7,13.6,15.1,26.1,13.6,42.1c-2.4-2.5-4.4-5.4-6.5-8.1
		c-1.8-2.3-1-7.6-5.2-6.5c-2.1,0.6-3.3,4.9-4.6,7.7c-2,4.3-3.8,8.8-5.9,13.7c4,0,7.7,0,11.4,0c-1.6,1.5-3.2,2-4.9,2.1
		c-4.3,0.1-8.7-0.4-13,0.2c-5.3,0.7-9.4-1-12.7-4.9c-0.2-0.2-0.1-0.5-0.2-0.8c1.3,0.3,2.5,0.6,4.7,1c-4.6-11.2-1.4-21.2,1.1-31.7
		c-5.5,5.6-11.2,11.1-14.6,17.8c-3.4,6.8-4.7,14.7-6.7,22.2c-4.8,18.2-9.5,36.4-1.5,54.9c1.2,2.7,2.2,5.6,4,7.8
		c8.3,10.4,16.6,20.8,25.5,30.7c5.5,6.1,11.4,12.5,18.4,16.5c11.9,6.9,24.8,12.3,37.4,18.1C273,251.4,275.5,251.4,279.4,252.1z
		 M430,215c1.3-0.7,1.9-1,2.5-1.3c12.5-7.7,21.5-19,31.1-29.8c7-7.8,11.7-16.2,13.1-26.6c0.7-4.9,0.6-10.2,2.7-14.4
		c3.4-7,8.3-13.1,12.3-19.8c2-3.3,4.2-6.9,4.7-10.6c1-6.7,0.8-13.6,1-20.4c0.2-6.1-0.1-12.3,0.3-18.4c0.7-10.7-1.3-20.6-5.8-30.4
		C486,30.3,481,17,475.5,3.8c-0.4-1-1.2-2.1-2.1-2.7c-9.7-5.7-19.4-11.4-29.2-16.9c-3.8-2.1-8.6-3-11.8-5.8c-3.8-3.3-6.3-8-9.4-12
		c-1.8-2.3-3.6-4.7-5.8-6.7c-4.3-3.9-8.8-7.5-13.3-11.1c-2.8-2.2-5.5-5-8.7-5.9c-18.7-4.9-37.5-9.7-56.4-13.7
		c-9.2-2-18.7-2.7-28.1-3.1c-8.4-0.3-16.8,2.2-25.1-1.3c-0.8-0.3-1.9,0.2-2.9,0.4c-2.3,0.6-4.8,2.1-7,1.9c-10-1-19.3,2.6-28.7,4.6
		c-22.7,4.8-45.2,10.5-68,14.8c-17.2,3.3-33.7,8.5-49.8,15.1c-0.7,0.3-1.2,0.9-1.5,1.2c5,5.7,10.3,10.8,14.5,16.7
		c7.7,11.2,17.7,19.1,30.6,23.5c1.8,0.6,3.4,2,4.8,3.3c6,5.3,7.1,5.3,13.4,0.7c4.3-3.1,8.8-6,13.2-9c0.8-0.5,1.8-0.7,2.7-1
		c-3,5.1-6.4,9.6-10,13.9c-4,4.8-7.7,9.8-12.2,14.1c-8.4,8-17.2,15.6-25.7,23.4c-0.8,0.7-1.2,1.8-1.9,2.9c1.3,0.7,2.1,1.3,3,1.6
		c5,1.6,11.2,1.9,14.8,5.1c5.6,4.9,11.7,5.7,18.3,6.5c4.9,0.6,9.6-2.4,11.2-7.1c1.8-5.3,3.1-10.8,5.3-15.9
		c3.2-7.2,5.8-14.9,12.7-19.8c5-3.5,14.8-1.9,16.8,3c2.2,5.5,4.2,11.2,5.7,16.9c1.4,5.4,1.8,11,2.7,16.6c-0.5,0.2-0.9,0.3-1.4,0.5
		c-2.5-2.9-4.8-5.8-7.4-8.6c-5.9-6.3-14.6-6.5-20.1-0.1c-4.2,4.9-7.6,10.6-12.5,17.4c9.9-3.1,18.5-1.5,27.2-0.9
		c7.8,0.5,15.9-0.9,23.6-2.7c9.1-2.1,17.9-5.5,26.8-8.3c7.8-2.5,15.7-4.8,23.5-7.3c12.1-3.9,24.2-8.2,36.4-11.9
		c6.9-2.1,14.4-2.3,21.1-5c14.9-5.9,29.4-12.8,44.1-19.2c6.4-2.8,12.8-5.4,19.7-8.3c-0.3,2.7-0.8,5.6-1,8.4
		c-1.4,21.2,2.6,41.3,12,60.4c2.1,4.3,3.4,9.3,6.4,12.8c5.9,6.8,12.7,12.7,20.2,20.1c4.6-7,8.6-13,12.6-19
		c-1.5,6.6-3.9,12.7-6.3,18.8c-4,10.1-4.1,21.6-11,30.5c-2.7,3.4-6.7,5.9-8.7,9.5c-6.4,11.4-15.3,20.3-24.4,29.3
		c-1.1,1.1-1.7,3-1.7,4.6c-0.3,6.1,0.3,12.4-0.6,18.4C425,204.1,427.5,209.2,430,215z M354.2,556.3c-8.8-3.5-13-2.2-18.3,5.7
		c-2.2,3.3-4.2,6.8-6.5,10.1c-6.7,9.5-13.4,18.9-20.4,28.3c-2.2,3-1.5,5.3,1,7.3c1.8,1.4,3.8,2.5,5.9,3.4
		c10.4,4.4,20.3,9.6,28.8,17.4c13.3,12.2,29.7,16.6,47.4,17.4c2.9,0.1,5.9-0.4,8.8-0.1c7.4,0.8,14.8,1.7,22.1,3.1
		c13.5,2.5,27,5.1,40.4,8.2c11.6,2.7,23,5.2,35,3c15-2.8,30.1-5.5,45-8.5c9.7-2,19.4-4.5,29-6.9c4-1,6-2.9,4.7-7.8
		c-1.3-4.9-1.5-10.2-1.4-15.3c0.1-10.9,0.8-21.8,1.2-33.1c-6.6-1.2-9.4-7-12.3-12.3c-2-3.5-4.4-4.4-8.1-4.2
		c-14.6,1-29.2,1.6-43.8,2.6c-9.1,0.6-18.2,1.5-27.3,2.1c-5.3,0.4-10.7,1.4-15.8,0.7c-12.4-1.6-24.6-4.1-36.9-6.2
		c-1.4-0.2-3-0.2-4.4,0.2c-9.4,2.8-18.8,5.5-28,8.7c-6.5,2.2-12.7,1.5-18-2c-7.6-5-14.4-11.2-18.6-19.7c-1.5-2.9-3.9-5.4-6.1-8.4
		C356.1,552.6,355.1,554.4,354.2,556.3z M605.1,408c0.6,6.6,1,12,1.4,17.4c0.1,0.8-0.3,1.7-0.7,2.3c-7.7,11-15.1,22.2-23.2,33
		c-3.8,5-4.3,10.4-0.2,15.5c5,6.2,10,12.4,14.9,18.7c5.6,7.3,13.6,7.6,20.2,1c2.8-2.8,6.3-4.9,9.4-7.3c2.1-1.6,4.4-3,6.1-5
		c15.4-18.8,32.4-36.5,43.8-58.3c3.4-6.6,3.6-7.7-1-13c-1.1-1.2-2.1-2.6-3.2-3.9c-2.3-2.8-4-5.5-1.8-9.4c0.6-1-0.6-3.2-1.4-4.5
		c-0.7-1.2-2.3-1.9-3.1-3.1c-9.4-14.6-20.6-27.7-33.1-39.7c-4-3.8-8.9-7.4-10.8-12.1c-2.2-5.5-5.7-9-10-12.1
		c-3.5-2.5-7.9-3.9-11.3-6.4c-7.4-5.4-14.3-11.3-21.6-16.8c-8.4-6.4-17.1-12.5-24.8-18.2c-3.2,1.8-5.3,2.9-7.3,4.1
		c-2.6,1.5-5.2,2.8-7.6,4.6c-9.5,6.9-18.7,14.3-28.6,20.8c-6,3.9-6.6,9.8-7.5,15.4c-0.9,6-0.3,12.3-0.1,18.4
		c0.2,4.2-0.2,7.6-4.7,7.7c1.8,4.2,4,8.1,5.4,12.4c1.4,4.4,3.7,6.5,8.4,7.7c21.2,5.3,42.9,9.1,62,20.6c4.8,2.9,10.1,4.9,14.8,7.8
		c3.9,2.4,7.3,5.6,11.1,8.7C602.2,412.1,603.3,410.5,605.1,408z M369.6-81.2c1.6,1.4,2,1.9,2.5,2.2c5.2,2.9,10.4,5.7,15.5,8.6
		c2.3,1.3,4.7,4.1,6.8,3.8c6.7-0.7,9.7,3.9,13.7,7.6c3.7,3.4,7.1,6.7,12.5,8.6c5.7,2,10.4,7.8,14.8,12.5c3,3.2,4.7,7.6,7.3,11.2
		c1.1,1.5,3.1,3.2,4.7,3.2c6.6,0.2,11.5,3.5,16.7,7.1c5.1,3.5,9.6,9.1,17.3,6.3c1.1-0.4,3.4,1.7,4.7,3.1c1.2,1.3,1.9,3.1,2.5,4.8
		c2.5,7.4,6.4,13.8,11.9,19.3c1.1,1.1,1.6,4.9,1.1,5.3c-3.6,2.2-2.2,5-0.7,6.8c4.6,5.8,4.3,12.6,5,19.4c0.5,4.7,1.5,9.5,3.1,14
		c1.6,4.6,4.2,8.7,0,13.2c-0.5,0.5-0.4,1.6-0.5,2.4c-1.2,10-2.3,20-3.5,30c-0.6,5.3-1.2,10.7-1.8,15.2c11.1,0,21.4-0.2,31.7,0.1
		c7.2,0.2,14.7-2.2,21.3,2.7c0.4,0.3,1.6-0.7,2.5-0.9c2.9-0.4,5.8-3.5,9.8,0.2c-8.7,8.6-16.8,17.4-25.6,25.2
		c-9.4,8.4-14,19.4-19.2,30.2c4.7,0.3,9,0.2,13.1,0.9c7.2,1.4,7.2,1.4,10-5.2c3.1-7.3,6.3-14.7,10.2-21.6
		c3.5-6.1,8.5-11.4,12.1-17.4c7.3-12.5,13.6-25.7,21.4-37.9c4.9-7.7,4.8-15.2,2.2-22.9c-1.5-4.2-4.8-7.9-7.4-11.7
		c-8.1-11.7-13.7-24.9-26.6-33.1c-12.4-7.9-21.1-20.1-30.4-31.4c-6.9-8.4-13.8-16.9-20.8-25.3c-1.6-1.9-3.7-4.7-5.6-4.7
		c-5.6,0.1-7.4-4.2-10.5-7.3c-1.8-1.9-3.9-3.7-6.3-4.8c-6.4-3-13.2-5.4-19.6-8.5c-9.5-4.6-19.8-8.4-28-14.7
		c-11.9-9.1-25.5-13.8-39.2-17.7C389.7-84.3,380-81.7,369.6-81.2z M234.3,343.9c-1.5,2.7-2.5,4.5-3.6,6.4c-1.4-1.4-3.6-2.7-3.9-4.4
		c-1.4-6.6-6.6-8.6-11.8-11.2c-14.5-7.3-28.2-15.6-35.3-31.3c-0.6-1.3-1.9-2.2-3-3.2c-0.5,0-0.9,0-1.4,0c1.8,8.1-3.7,10.9-8.7,14.2
		c-1.5,1-2.8,2.3-4.2,3.5c-5.8,5.6-11.5,11.3-17.4,16.8c-3.7,3.6-2.8,10.1,1.5,12.1c2.4,1.1,4.8,2.6,6.5,4.6
		c3.8,4.6,7.1,9.6,10.6,14.5c10.6,14.7,21.3,29.4,36.6,39.7c1.6,1.1,3.7,1.9,5.7,2.2c13.8,1.8,26.6-3.2,39.7-5.7
		c11.6-2.3,23.2-4.3,33.6-10.2c3.7-2.1,7.7-3.8,11.8-5.2c12.3-4.3,24.7-8.3,37.2-12.4c0.1-5.9-0.5-11-6.5-14c-2-1-3.5-3-4.9-4.9
		c-7.8-10-15.3-20.1-23.2-29.9c-1-1.3-3.6-1.8-5.4-1.9c-7.8-0.1-14,4.6-20.7,7.7c-5.4,2.5-10.9,5-15.6,8.5
		C246.1,344,241.3,350.2,234.3,343.9z M573.2,657.7c-0.6,0-1.1-0.1-1.6,0c-16.8,5-33.6,9.8-50.3,15c-8.1,2.5-15.8,5.5-24-0.2
		c-3-2.1-5.5,0.3-5.7,3.7c-0.2,4.1,0.1,8.3,0.4,12.5c0.6,10.9,1.3,21.8,2.1,32.7c0.1,1.7,0.8,3.6,1.9,4.9c4.1,4.9,3.8,9,0.3,14.4
		c-2.9,4.6-7,10.3-6.4,14.9c1.6,11,8.4,20.4,18.8,24.5c8.2,3.2,17.8,3,26.8,4c1.1,0.1,3.2-0.8,3.5-1.8c3.3-8.8,9.7-14.3,17.9-18.3
		c2.4-1.2,5.1-3.4,5.8-5.7c1.8-6.1,3.1-12.5,3.7-18.9c0.8-9.1,0.6-18.3,1.4-27.4C569.4,694,571.4,676.1,573.2,657.7z M373.4,654.7
		c-2-1.7-3.4-3.4-5.2-4.2c-7.5-3.5-15.1-6.7-22.7-10c-8-3.5-16-6.9-23.9-10.6c-6.4-3-12.4-6.8-18.9-9.5c-6-2.6-7.4-1.4-8.6,5.3
		c-0.1,0.6-0.4,1.2-0.8,1.7c-4.3,5-8.4,10.4-13.1,15c-10.6,10.3-10.9,24-12.3,37.1c-0.6,5.9,1.8,12,2.5,18.1c0.4,3.4,2.3,4.1,5,5.1
		c5.3,1.8,10.7,3.5,15.3,6.4c9.9,6,19.3,12.7,29.1,19.2c14.9-12.5,22.3-29.8,35.4-43.2c-2.5-1.1-3.8-1.3-4.4-2
		c-3.4-3.9-6.6-2.7-9.9,0c-1.8,1.5-3.4,3.2-5.4,4.4c-1.9,1.2-4.1,1.8-7.4,3.2C333,680.4,326.5,680.2,373.4,654.7z M98.1,235
		c-5.7,1.1-12.5,1.8-18.8-2.5c-2.9-2-5.8-3.7-8.8-5.5c-4.7-2.8-9.5-5.4-14.3-8.1c-0.4,0.3-0.8,0.6-1.3,0.9c0.8,3.2,1.5,6.3,2.5,10.1
		c2-1.5,3.1-2.4,4.7-3.6c8.4,13,22.1,17.9,34.4,24.2c3.5-3.2,6.8-6.1,10.1-9c0.5,0.4,1,0.9,1.6,1.3c-2.3,3.5-4.7,7-6.8,10.6
		c-2.7,4.5-5.7,8.9-7.5,13.7c-2.8,7.1-4.6,14.5-7,21.7c-0.4,1.3-1.4,2.4-2.7,4.6c-0.5-1.7-0.5-2.4-0.8-2.8c-0.4-0.5-1.1-0.9-1.8-1.4
		c-2.7,11.9-13.2,17.4-21.1,26.7c3.2-0.4,5.1-0.2,6.6-0.9c6.4-2.6,12.9-5.3,19.1-8.3c3.4-1.7,7-2.6,9.6-6.4c1.2-1.7,6.4-1.2,9.7-0.8
		c1,0.1,1.6,3.5,2.7,6.4c7.8,1.6,16.8,4.2,26.3,1.1c2.9-0.9,5.8-0.5,4.4,4.3c-0.5,1.6,0.9,4.1,2.1,5.6c0.5,0.6,3.2-0.4,4.6-1.1
		c2.6-1.4,5.3-2.9,7.6-4.8c4.1-3.4,8.4-6.8,11.9-10.8c3.2-3.6,5.6-8,8.9-12.8c-1.3-2.4-3.2-6.1-5.2-9.8c-0.4,0-0.7,0-1.1,0.1
		c0,4.3,0,8.5,0,13.3c-4.3-1-9.5-0.8-10.7-2.9c-1.6-2.7-0.1-7.3,0.4-11.1c1.3-9.7,3.9-19.3,4-28.9c0-11.3-2.1-22.6-3.3-33.9
		c-0.2,0-0.6-0.1-0.8,0.1c-0.5,0.4-1,0.9-1.4,1.4c-4.3,5.5-6.3,11.3-5.5,18.8c0.7,6-0.7,12.1,3,17.7c0.6,0.8,0.1,3-0.7,3.9
		c-0.5,0.6-2.3,0-3.5,0.2c-4.2,0.6-9.7-0.2-12.3,2.2c-4.4,4.1-7.1,10.1-10.4,15.4c-0.6,0.9-1,2.8-0.5,3.3c5,5.3,1.1,11.4,2.7,17.6
		c-9.3-6.2-11.6-12.4-8.8-21.7c2.7-8.9,8-16.2,14.9-22.6c-1.7-1.9-3.4-3.5-4.8-5.3c-3.9-5-7.8-10.1-11.5-15.3
		c-1.2-1.8-3-5.1-2.3-5.9c3-3.9,0.3-6.3-1.4-9.2c-2-3.6-4-7.2-5.6-11c-2.7-6-5.1-12-7.9-18.9c-1.4,2.2-2.2,3.4-2.9,4.6
		c-2.5,4.1-0.8,9.5,3.6,11.8c0.9,0.5,1.4,2,1.6,3.1c0.4,2.6,0.5,5.3,0.8,7.9c0.7,6.9,1.7,13.8,2.1,20.7c0.1,1.8-1.4,3.7-2.1,5.6
		C102.7,237.6,101,236.7,98.1,235z M712.1,209.4c-3.1-9.9-8-18.8-14.3-26.8c-4.4-5.5-9.6-10.3-14.3-15.6c-0.7-0.8-0.6-2.8,0-3.8
		c2.4-4.3,1.3-7.7-2.3-10.5c-6.1-4.8-12.4-9.5-18.5-14.4c-4-3.2-7.6-7-11.5-10.2c-2.4-2-5.2-3.6-7.9-5.3c-1.5-0.9-3.4-1.4-4.7-2.5
		c-4.6-4-9.1-8.3-14.2-12.9c-3.2,12.9-5.4,24.7-9.1,35.9c-3.7,11.2-7.7,22.1-9.4,33.8c-0.7,4.8-0.9,9.8-1.3,15.1
		C642.4,185.7,678.7,187.9,712.1,209.4z M574.5,476.6c-1.2,1.7-1.9,2.6-2.5,3.6c-6,10.3-10,21.4-14,32.6c-3.6,10.1-1.1,19,2.6,27.7
		c4.3,10.2,10.5,19.4,18,27.8c4.6,5.2,10.4,6.8,16.3,8.3c4.5,1.1,9.2,1.5,13.8,1.6c7.4,0.1,14.9,4.7,22.4-0.7
		c5.7-4.2,12.3-7.1,11.8-16.1c-0.3-4.6,1.1-9.3,1.5-14c0.1-1.2-0.4-2.7-1.1-3.7c-1.3-1.8-3-3.4-4.4-5c-4.5,2.1-7.1,4.7-7.7,10.3
		c-1.1,11.3-2,11.5-12,11.9c0.7-3.8,1.5-7.5,1.8-11.2c0.4-4.6,2.1-10.6-0.1-13.5c-5.7-7.5-12.7-14.5-23-16.1
		c-1.4-0.2-2.8-1.3-4.1-2.1c0.8-1.5,1.4-3.4,2.6-4.4c2.6-2.2,5.6-3.9,9.8-6.7c-9.7-1.9-13.6-8.7-18.3-14.6
		C583.8,487.2,579.3,482.3,574.5,476.6z M536.3,797.3c-1.6-0.5-2.1-0.8-2.6-0.8c-13.1-0.7-25.1-5-35.5-12.9c-3.7-2.8-6.4-7-9.5-10.6
		c-1.5-1.7-2.8-3.6-4.1-5.4c-1.8,1.4-4.2,2.5-5.4,4.3c-9.7,13.8-17.4,28.6-20.1,45.5c-0.5,2.9-1.3,6.4,0,8.6
		c1.6,2.9,1.1,4.8,0.1,7.4c-1,2.7-2.9,6-2.2,8.2c5,14.8,14.2,26.6,27.5,34.8c2.3,1.4,6.1,2.4,8.3,1.4c4.1-1.8,2.7-14.3-1.6-16.3
		c-8.8-4.1-17.6-8.1-26.4-12.3c-1.2-0.6-2-2-3-3c0.9-0.8,1.8-1.6,2.7-2.4c0.5-0.5,1.6-0.9,1.6-1.3c-0.2-3.6,2.2-4.4,4.8-4.1
		c7.5,0.8,15.1,1.8,22.5,3.1c2.7,0.5,4.3,0.8,6.1-2.2c2.1-3.5,5-6.8,8.2-9.4c7.2-6.1,14.8-11.8,20.2-19.8
		C530.6,806.1,533.3,801.9,536.3,797.3z M378.7,759.1c0.2,0.5,0.4,0.9,0.6,1.4c-1.3,0.7-2.6,1.9-4,1.9c-10.8,0.6-13.5,3.4-14.1,13.9
		c-0.1,2.4-1.6,4.7-2.4,7.2c-0.4,1.2-0.8,2.5-0.5,3.6c0.1,0.4,2.1,0.8,3.1,0.5c8.6-2.3,16-6,22.1-13c13.1-15.2,19.5-33.4,24.6-52.2
		c0.6-2.1-0.4-4.8-1.2-7c-1.9-5-6.2-7.4-10.6-9.8c-6.1-3.3-12-7.1-17.8-10.8c-5.2-3.3-11.9-2.2-15.7,2.7
		c-8.4,10.6-17,21.1-25.5,31.6c-2.1,2.6-2.4,5.2,0.4,7.4c2,1.6,4.3,2.9,6.4,4.3c7.9-6.1,20.3-9.4,26.4-5.9c-3,1.5-5.3,2.8-7.7,3.7
		c-2.6,1-5.2,2.7-3.3,5.3c1.2,1.7,4.7,2.8,7,2.5c2.6-0.3,5-2.4,7.5-3.8c3.5-1.9,7-3.7,10.9-5.8c0.3,6.8-3.8,9-7.9,11.3
		c-4,2.2-7.7,4.9-11.6,7.3C368.9,760.9,374.2,758.5,378.7,759.1z M630.5,324.5c7.6,8.7,14.9,17.2,22.5,25.9c0.7-1,1.3-1.6,1.5-2.3
		c2.9-8.2,6.2-16.4,8.4-24.8c1.1-4.2,1.9-9.8,0.1-13.3c-8.8-17.5-19.9-33.7-33.2-48.2c-3.4-3.7-7.5-6.7-10.9-9.7
		c-2.9,3.5-4.7,6.9-7.5,8.9c-3.8,2.7-8.5,4-12.6,6.4c-1.6,0.9-2.9,2.9-3.5,4.7c-0.2,0.7,1.6,2.3,2.7,3.3c1.4,1.4,3.1,2.6,4.5,4
		c8.8,9,17.5,18,26.4,27C633.7,311,634.6,319.9,630.5,324.5z M391.8,495.2c-12.1,2.9-20.2,11.3-24.2,21.9c-2.9,7.6-1.7,16.8-2,25.3
		c0,1.3,1.5,2.9,2.6,4.1c2.3,2.6,4.8,5,7.2,7.4c1.1,1,2.3,2.5,3.5,2.6c5.4,0.5,7.4,4.4,9.6,8.4c1.5,2.8,3.8,3.8,6.7,2.4
		c8.7-4.1,17.3-8.2,25.8-12.4c1-0.5,2.1-1.8,2.3-3c1-5.8,1.5-11.8,2.6-17.6c0.9-5-5-9.2-1.5-14.5c0.2-0.3-0.9-1.6-1.6-2.3
		c-3.8-3.9-7.4-8.1-11.5-11.7c-4.5-4-9.4-7.4-15.2-12c-5.4,6.9-10.5,13.3-15.4,19.8c-1.4,1.9-2.7,4.2-3.2,6.6
		c-1.4,6.5,4.9,20.4,10.8,23.4c1.8,0.9,4.5,0.9,6.6,0.4c5.1-1.3,5.8-6.7,8.6-10.2c0.3-0.4-0.1-2-0.7-2.6c-2.4-2.6-5-5-8.2-8
		c-0.5,2.2-0.5,3.7-1.2,4.7c-1,1.4-2.6,2.5-3.9,3.8c-0.6-1.6-1.6-3.2-1.8-4.9c-0.3-2.1,0.1-4.3,0.1-6.5c-0.2-4.6,1.2-6,5-3.6
		c5.7,3.6,10.9,8,15.9,12.4c0.8,0.7,0.4,3.4-0.1,4.9c-1.5,3.9-3.3,7.8-5.2,11.5c-0.4,0.8-1.4,1.4-2.2,1.7c-7,3-12.9,0.4-18.5-3.6
		c-2.6-1.9-5.7-3.7-7-6.4c-2-4-2.6-8.8-3.5-12.1C378.5,514.4,381.5,502.4,391.8,495.2z M320.5,180.7c-8.8,2-16.7,2.5-23.3,5.7
		c-8.1,3.9-15.4,9.7-22.2,15.7c-3.7,3.2-8,8-5.6,13.8c4.4,10.7,9.3,21.2,14.4,31.6c0.8,1.6,3.5,3.1,5.5,3.3
		c9.1,1,15.4-4.8,18.2-11.9c4.4-10.9,6.9-22.7,9.5-34.3C318.8,197.2,319.3,189.6,320.5,180.7z M478.4,192c0.6,0.3,1.3,0.6,1.9,0.9
		c1.5-0.9,2.8-2.1,4.4-2.8c2.3-0.9,4.7-1.7,7.1-2.2c5-1.1,10.9-0.6,15-3.2c9.6-6,16-15.2,20.8-25.4c3-6.4,5.9-12.4,12.5-16.3
		c4.9-2.9,8.6-7.8,13.7-12.5c-4.1-0.7-6.6-1.5-9.2-1.6c-6.2-0.2-12.3-0.1-18.5-0.3c-8.3-0.3-16.2,1-23.8,4.3c-1.3,0.6-3.9,0.2-4.2,1
		c-2.1,5.3-3.8,10.8-6.1,17.4c8.6-7.2,20.6-12,28.6-11.7c-1.2,0.7-1.9,1.5-2.8,1.7c-9.5,2-11.8,8.2-10.4,17c1,6.5-2.9,11-7.2,15.1
		c-0.7,0.7-2,0.7-3.5,1.2c3.9-8.5,7.7-16.1,5.6-26c-5.9,4.6-12.4,6.8-14.8,14c-2.4,7-5.5,13.8-7.9,20.9
		C478.7,186.1,478.8,189.1,478.4,192z M146.8,160.3c0.6,0.1,1.1,0.3,1.7,0.4c1-1.1,1.9-2.1,2.9-3.2c4.3-4.6,7.5-10.7,14.8-11.7
		c0.9-0.1,1.8-2.1,2.4-3.4c0.8-1.8,1.1-3.8,1.8-5.7c5.4-13.2,10.9-26.4,16.1-39.6c2.5-6.3,4.7-12.8,6.4-19.3c0.5-2-0.5-5.4-2-6.7
		c-2.8-2.2-4.9,0.5-6.1,2.9c-1.9,3.6-3.4,7.5-5.5,11.1c-2.1,3.5-4.1,7.2-7,10c-4.5,4.4-10.2,7.6-14.5,12.1c-2.8,2.9-5.2,7-6,10.9
		c-2,10.6-3.1,21.3-4.4,32C147,153.5,146.9,156.9,146.8,160.3z M626.6,92.6c4-3,7.3-5.8,10.9-8.2c5.9-3.8,8.9-8.3,6.4-15.7
		c-1.2-3.5-0.7-7.7-1.8-11.3c-0.9-3-2.3-6.8-4.7-8.3c-10-6.3-20.9-8.8-32.2-3.4c-2,1-3.9,3-5,5c-6.1,11.5-3.7,22.7,2,33.6
		c3,5.6,8.4,7.1,14,8.1c-0.5-1.2-1.4-1.8-2.1-2.6c-1.6-1.8-3.4-3.5-4.6-5.5c-1.2-2-1.7-4.3-2.4-6.5c-4.5-13.5-1-20.6,12.1-24.9
		c6.6-2.2,9-1.2,12.4,5c4.2,7.7-0.1,17-8.7,18.6c-0.9,0.2-2.2-0.4-2.9-1.1c-0.3-0.3,0.2-1.8,0.7-2.5c0.7-0.9,1.7-1.5,2.7-2.2
		c5.3-3.9,5.6-7.6,1-12.9c-5.1,0.9-10.5,2.3-10.9,8.2c-0.4,5.2-1.5,11,3,15.5C619.9,85,623.1,88.8,626.6,92.6z M565.8,237.5
		c-4.8-1.6-9.5-3.5-14.4-4.9c-10.2-2.9-17.5-9.2-21.6-18.9c-0.7-1.6-0.6-4.2,0.3-5.7c2.2-3.9,5.1-7.4,7.4-11.3
		c0.9-1.4,1.8-4.1,1.2-4.8c-1.1-1.2-3.4-1.6-5.2-1.9c-1.2-0.2-2.6,0.3-3.9,0.6c-9.3,2.4-12.8,8.9-11.3,18.1
		c0.8,5.1,1.9,9.9,5.6,13.5c5.7,5.6,10.9,12.5,17.8,15.9c13.7,6.8,28.6,8.7,43.9,4c10.1-3.1,14.3-9.9,10.9-19.5
		c-0.3-0.9-0.4-2-0.9-2.8c-0.8-1.4-1.7-2.8-2.6-4.2c-1.2,1.2-2.7,2.2-3.4,3.6c-1.6,3.2-1.9,7.5-4.2,9.8
		C580.2,234,573.7,237.1,565.8,237.5z M377.8,337.5c-0.6,0.4-0.3,0.3-0.1,0.1c6.3-11.9,12.5-23.7,18.6-35.6c0.6-1.1,0.6-3.6,0-4
		c-1.3-0.9-3.3-1-4.9-1c-1.8,0-3.7,1-5.5,0.9c-10.9-0.8-21.8-1.9-33.4-2.9C352.5,314.8,358.6,329.9,377.8,337.5z M511.3,197.7
		c-5.8,3.2-9,10.6-6.1,15.8c5.4,9.6,10.6,19.8,18.2,27.6c5.5,5.7,14.2,9.3,22.1,11.2c11,2.7,21.9,7.1,33.8,5.4
		c5.3-0.7,10.9,0.1,16-1c9.2-1.9,13.3-9.8,9.2-16.6c-1.7,0.9-3.8,1.6-5.1,2.9c-5.7,5.7-12.6,6.4-20.2,5.8c-4.1-0.3-8.2,0.4-12.4,0.7
		c-6.8,0.5-13.6,0.2-19.7-3.1c-4.3-2.3-8-6.4-12.5-7.7c-5.2-1.5-9.1-4-11.9-8.2c-3-4.3-5.5-8.9-8.3-13.4
		C510.5,211.3,506.2,205.4,511.3,197.7z M324.8,157.4c-3.5,0.3-6.2,0.5-9,0.7c-8.9,0.8-17.9,2.8-26.7,2.2
		c-12.8-0.9-25.5-3.7-38.2-5.5c-1.4-0.2-3,0.7-4.6,1.1c0.5,1.6,0.6,3.9,1.7,4.6c3.5,2.1,7.2,4.5,11.1,5.1c11.3,1.8,22.6,3.2,34,4
		c9.6,0.6,19.3,0.1,29.5,0.1C323.2,166.2,323.9,162.3,324.8,157.4z M567.1,157.4c-1.9,1.8-3.8,3.3-5.5,5.1c-6.5,6.6-6.5,9-0.3,15.7
		c0.3,0.4,0.7,0.8,1,1.1c7.1,8.5,19.3,10.8,28.9,5.3c2.7-1.5,6.9-9.5,5.2-12c-1.5-2.2-5.2-3.7-8-4c-7.8-0.8-14.5-3.2-19.5-9.5
		C568.5,158.5,567.8,158,567.1,157.4z M553.6,178.3c-6.8,12.5-6.7,13.4,2,22.9c1.1,1.2,2.3,2.4,3.5,3.6c5.8,6.1,16.2,8.6,24.4,4.4
		c6.3-3.3,7-10.8,10.3-18.3C574.8,201.5,564.6,189.3,553.6,178.3z M543.4,201.7c-1.8,4.7-3.5,8.7-4.8,12.8c-0.3,1,0.8,2.7,1.7,3.8
		c1.9,2.6,4.1,5.1,6.2,7.6c1.1,1.2,2.2,2.8,3.6,3.1c3.5,0.9,7.1,1.7,10.7,1.6c5.5-0.2,11.9,2.3,16.1-3.4c2.4-3.2,4-6.9,6-10.4
		c-0.1-0.5-0.2-0.9-0.3-1.4C566.4,221.3,556.1,210.3,543.4,201.7z M604.1,145.4c-11.1,2-18.3-4-26.1-10.4c-2.6,5-5.6,9.2-6.9,13.8
		c-0.5,1.8,2.8,4.7,4.2,7.1c0.3,0.5-0.1,1.5,0.2,1.9c0.7,1,1.5,2.5,2.5,2.7c6.5,1.1,13,2.1,19.6,2.8c1,0.1,2.8-1,3-1.9
		C601.8,156.4,602.8,151.4,604.1,145.4z M501.4,227.8c-1.7-7.7-3.2-15-4.8-22.3c-0.2-0.7-0.8-1.5-1.5-1.7c-4.8-1.4-9.5-3.3-14.4-3.8
		c-2.3-0.3-5.3,1.6-7,3.5c-0.6,0.6,1.2,4.5,2.7,6c3.1,3.1,8.2,4.9,10.1,8.5C489.9,224.5,496.2,225.1,501.4,227.8z M49.1,270.8
		c10.7,8,23,9.5,35.5,10.6c2.3-8.4,4.5-16.3,6.9-24.6c-1.7-0.5-3.4-1-5.6-1.6C79.9,275,64.7,272.9,49.1,270.8z M599,138.6
		c5.3,1.3,7.8-1.1,8.4-6.2c0.1-0.8,0.1-1.7,0.4-2.4c1.9-4.1-0.5-4.8-3.8-5.4c-2.3-0.5-4.8-1.3-6.6-2.7c-6.4-4.9-8.6-4.4-12.9,2.4
		c-2.9,4.5-0.5,8.3,1.4,11.3c1.4,2.1,5.6,2.6,8.7,3.5C595.9,139.4,597.5,138.8,599,138.6z M578,444.7c3.7-8.4,7-15.8,10.4-23.5
		c-5.4-2.5-10.5-4.8-16.6-7.5c-0.5,3.3-1.7,6-1.1,8.2C572.7,429.1,575.3,436.2,578,444.7z M612.5,107.5c0.1-3-6.5-8.8-10.1-6.9
		c-4.2,2.1-6.9,7.6-9.5,12.1c-1,1.7,7.4,7.1,11,7C609.6,119.6,612.3,115.9,612.5,107.5z M600.5,302.3c4-8.9,3.6-9.6-9.6-18.6
		c-3.8,2.4-5.1,7.2-2.2,9.7C592.2,296.5,596.2,299.2,600.5,302.3z M590.4,270c-1.8-0.2-2.6-0.5-3.4-0.4c-5.7,0.3-10.7-0.7-16-3.8
		c-3.9-2.2-9.4-1.6-14.6-2.4C558.7,272,579.8,275.7,590.4,270z M619.4,519.4c-2.7,1.9-2.6,1.8,0.3,4.5c4.4,4,8.8,8.2,13.2,12.4
		c0.9-0.5,2.2-0.9,2.9-1.7c0.8-0.8,1.8-2.3,1.6-3.1c-0.3-1-2.4-2.4-2.9-2.1c-3.2,1.9-4.2-0.9-5.9-2.3
		C625.8,524.6,622.8,522.2,619.4,519.4z M475.8,843.8c-0.2,0.8-0.4,1.5-0.6,2.3c5,2.5,9.9,5.2,15.1,7.4c1.1,0.5,3.3-0.7,4.3-1.7
		c0.5-0.5-0.2-3.4-0.8-3.6C487.9,846.5,481.8,845.2,475.8,843.8z M610.6,298.3c-0.6,0.2-1.1,0.3-1.7,0.5c-0.3,2.6-1.8,6.6-0.7,7.5
		c4,3.3,8.9,5.5,13.4,8.2c0.4-0.5,0.8-1,1.2-1.5C618.7,308.1,614.6,303.2,610.6,298.3z M459.3,203.6c1.7,1.1,3.5,2.2,5.3,3.4
		c-0.2-0.5-0.3-1-0.5-1.6c2.7-2.3,5.6-4.5,8.1-7c1-1,1-2.9,1.4-4.4c-1.4-0.2-3.4-1-4.2-0.3C466,196.7,462.8,200.1,459.3,203.6z
		 M562.3,274.7c12.2,7,20,8,22.7,3.8C577.4,277.3,569.9,276,562.3,274.7z M499.8,558.3c1,2.2,1.8,3.9,2.6,5.6c1.4-0.2,2.7-0.6,4-0.4
		c1.2,0.2,2.2,0.9,3.5,1.5C510.3,560.3,507.5,558.5,499.8,558.3z M586.5,439.4c0.5,0.2,1,0.4,1.5,0.7c2.8-5.5,6.3-10.7,7.7-16.8
		c-0.8-0.3-1.5-0.6-2.3-1C591.1,428,588.8,433.7,586.5,439.4z M619.2,511.2c-3.6-2.6-6.5-0.9-8.6,1.1c-0.9,0.9-0.2,3.5-0.2,6.3
		C614,515.6,616.3,513.7,619.2,511.2z M494.8,558.1c-3.9,1.9-7.3,3.5-11.1,5.4C488.6,566.3,493.9,563.6,494.8,558.1z M164.5,378.3
		c-0.4,0.4-0.9,0.7-1.3,1.1c3.4,4.6,6.9,9.3,10.3,13.9c0.5-0.4,1-0.8,1.6-1.2C171.5,387.5,168,382.9,164.5,378.3z M483.9,549.3
		c0,0.3-0.1,0.5-0.1,0.8c1.7,0.6,3.4,1.2,5.1,1.8c1,0.3,1.9,0.6,2.9,1c0.4-1.1,0.7-2.2,1.2-3.6C489.5,549.3,486.7,549.3,483.9,549.3
		z"/>
	<path d="M410.3,106.3c-2.6-2.4-4.5-3.8-5.9-5.6c-8.6-11.5-19.3-19.9-33.9-22.3c-8-1.3-15.8-4-23.8-4.7c-15.2-1.4-30.4-1-46.3,3
		c0.9-1.2,1.1-2,1.7-2.2c7.5-3.9,14.1-9.6,23.4-10c4-0.2,7.7-4.2,11.7-4.5c10.3-1,20.8-1,31.2-1.3c5.8-0.1,11.6,0.2,17.5,0.1
		c8.3-0.1,14.5,2.5,18.1,10.8C408.8,81,412.4,92.4,410.3,106.3z"/>
	<path d="M370,121.9c-22.7-10.5-46.4-10.1-71.4-7.6c1.7-1.4,2.3-2.2,3.2-2.6c9.2-4,18.3-7.9,29-7.1c9.6,0.7,19.2,0.2,28.5,3.3
		C365.1,109.7,371.1,115.1,370,121.9z"/>
	<path d="M237.1,127.2c5.3-0.6,5.3-0.6,5.8,8.1C237.5,134.5,236.4,133.1,237.1,127.2z"/>
	<path d="M452.1,548c0.7,2.8,1.4,5.6,2.2,8.7c-1.9,0.1-4,0.4-6.2,0.4c-1,0-2.8-0.9-2.7-1.3c0.3-2.2,0.8-4.4,1.5-6.5
		c0.2-0.4,1.9-0.2,2.8-0.4C450.5,548.7,451.3,548.4,452.1,548C452.1,548.1,452.1,548,452.1,548z"/>
</g>
</svg>
