<?xml version="1.0" encoding="utf-8"?>
<!-- Generator: Adobe Illustrator 19.0.1, SVG Export Plug-In . SVG Version: 6.00 Build 0)  -->
<svg version="1.1" id="Layer_1" xmlns="http://www.w3.org/2000/svg" xmlns:xlink="http://www.w3.org/1999/xlink" x="0px" y="0px"
	 viewBox="0 0 1657.9 1330.2" style="enable-background:new 0 0 1657.9 1330.2;" xml:space="preserve">
<style type="text/css">
	.st0{fill:#FFFFFF;}
</style>
<g>
	<path class="st0" d="M736.6,342.5c-0.2,3.2-1.6,2.3-3,0.8c-7.9-8.3-15.9-16.4-19.1-28c-0.4-1.6-1.5-3.1-1.7-4.6
		c-0.6-5.9-4.8-7.9-9.6-9.3c-11.7-3.4-23.3-8.1-35.3-9.8c-20.3-2.8-34.7-14.5-48.6-27.8c-7.7-7.3-15.9-14.1-23.4-21.7
		c-8.5-8.5-15.1-18.3-18.5-30.1c-0.7-2.3-3-4.1-4.8-6.5c1.1,0.3,1.9,0.4,2.6,0.8c10.5,5.7,21.1,5.4,32.2,1.8
		c7.7-2.5,15.6-4.1,23.5-6.1c8.9-2.2,15.6-8,22.1-13.9c3.9-3.6,7.3-7.8,11.2-11.4c8.3-7.7,11.9-18.4,17.8-27.7
		c7.6-12,14.8-24.2,22.2-36.3c0.5-0.9,1-1.8,1.7-2.5c11.1-9.6,20.3-21.4,35.7-25.6c16.7-4.6,33-10.9,49.6-16.1
		c4.4-1.4,9.1-1.5,13.7-2.2c3.7-0.6,7-1.2,7.2-6.4c0.1-4.8,3.5-7.9,7.8-9.5c13.8-4.9,25.5-13.3,37.5-21.3c3.2-2.1,6-5,9.5-6.3
		c6.2-2.3,12.7-3.9,19.2-5.5c2.3-0.6,4.6,0.3,6.2-2.9c0.7-1.5,4.4-2.1,6.6-2c13.3,0.7,25.9-3.1,38.9-4.5c10.4-1.2,21-0.6,31.5-0.7
		c7.4-0.1,14.5-0.8,21.8-3.4c5.8-2.1,12.8-1.3,19.3-1.3c25.7,0.1,51.3,0.4,77,0.6c4,0,7.7-0.1,11.7-2.5c2.9-1.7,8.2-0.8,11.8,0.6
		c8.7,3.2,17,7.3,25.5,11c0.8,0.3,1.6,1,2.3,0.9c14.2-3.3,24.8,6.1,36.8,10.4c11.8,4.3,23.2,9.7,34.8,14.5c2.9,1.2,6.1,2.4,9.1,2.3
		c10.4-0.1,17.6,6.9,26.1,10.9c14.1,6.5,28.2,13.3,41.7,21c13.3,7.6,26,16.5,38.9,24.8c1.9,1.2,4.1,2.2,6,3.4
		c6.2,3.8,12.3,7.6,18.6,11.5c-1.7,1.8-3.5,2.9-3.6,4.1c-0.1,1.3,1.2,3,2.3,4c12.9,10.2,25.8,20.3,38.8,30.5c5.6,4.4,11,9,16.8,13
		c2.2,1.6,5.4,1.8,8,2.9c1.8,0.8,5.1,2.3,5,3.1c-0.7,5.2,3.5,6.7,6.3,9.3c4.1,4,8.1,8.2,12.3,12c8.2,7.5,16.3,15.2,25,22.1
		c14.1,11.3,28.7,22.1,43,33c1.3,1,3,2.4,4.3,2.2c4.9-0.8,7.2,2.7,10.2,5.4c8,7.1,16.6,13.1,27.2,15.7c9.8,2.4,19.6,4.6,29.4,7
		c1.7,0.4,3.4,1.3,5.5,2.1c-6.8,5.4-13.3,10.5-19.7,15.7c-2.1,1.7-4.2,3.3-6,5.2c-5.8,5.8-12.6,9.3-20.7,10.9
		c-16.2,3.3-32.3,7.2-48.4,10.8c-1.3,0.3-2.6,0.2-4,0.3c-21.1,1.3-42.1,2.8-63.2,3.8c-8.5,0.4-17.1-0.3-25.6-0.9
		c-2.3-0.2-4.5-1.8-6.8-2.8c-1.7-0.7-3.5-2.2-5-2c-9.3,1.6-16.9-5.3-26.4-4.1c-9,1-18.3-0.3-27.4-1.2c-4.4-0.4-8.6-2.3-13-3
		c-4.1-0.7-8.6-1.7-12.5-0.8c-19.3,4.5-38.8,8.4-56.3,18.3c-5,2.8-9.9,4.9-15.8,6.2c-6.8,1.5-12.4,7.7-16.8,14.7
		c6.6,3.4,12.4,1.2,18.2-1c0.7,3.3,1.2,6.5,2.2,9.4c1.7,5.3,6.7,6.6,11.1,8c17.5,5.3,35.2,7.5,53.5,5.5c8.9-1,17.9-0.9,26.9-1.2
		c14.5-0.4,29-1.4,43.4-0.8c13.5,0.5,27,2.8,40.5,4.3c4.6,0.5,9.2,1,13.8,1.4c13.1,1.2,23.7,7.1,30.9,18.1c4,6.1,7.7,12.5,9.7,19.9
		c1.4,5.1,6.4,9.5,10.4,13.4c3,2.9,3.4,4.9,1.4,8.5c-4,7.3-1.6,12.2,6.5,13.9c-1.7,8-3.3,16-5.1,24c-0.2,0.9-1.2,1.9-2,2.3
		c-5.8,2.8-6.2,4.2-2.3,9.7c-2.9,0.9-6,1.2-8.4,2.7c-1.8,1-2.7,3.5-4,5.4c2,0.7,4.1,2,6,1.9c5-0.3,10-1.2,15.2-0.9
		c-2.5,1.1-5,2.2-7.6,3.2c-22.5,8.3-44.8,17-67.5,24.8c-9.3,3.2-19.3,3.9-28.8,6.4c-4.5,1.2-8.8,3.5-12.8,5.8
		c-7.9,4.5-15.5,9.4-23.4,13.9c-4.1,2.3-4.5,3.5-1,6.8c13.7,13,23.8,28.7,34.3,44.1c3.1,4.5,7.1,8.4,11.3,11.9
		c1.3,1.1,4.5,0.2,6.8,0.2c0.2-0.6,0.3-1.1,0.5-1.7c1.7,3.2,3.3,6.4,5,9.5c2.9,5.3,5.8,10.6,9,15.6c1.9,3,3.2,5.8,3.8,9.5
		c1.2,6.9,3.6,13.7,6.2,20.2c11.1,27.4,22.7,54.7,33.7,82.1c8,19.8,15.9,39.6,23.1,59.7c7.1,19.6,13.1,39.5,19.9,59.2
		c2.4,7,5.8,13.7,8.8,20.5c0.5,1.1,1.5,2.6,2.5,2.9c7.6,2.1,9.9,9,13.2,14.6c9.9,17,18.5,34.8,28.8,51.5c9,14.7,19.8,28.2,29.4,42.6
		c4.2,6.3,11.2,10.1,14,17.8c6,16,18.2,28.2,26.9,42.6c3.4,5.5,7,10.9,10.8,16.1c3,4.1,6.9,7.5,10,11.6c2.7,3.6,4.8,7.7,7.2,11.5
		c1.2,2,2.9,3.8,3.5,6c0.5,2,0.6,4.8-0.5,6.3c-5,7.2-7.4,15.4-7.5,23.6c-0.2,15.2-1.2,30.2-4.2,45.1c-0.4,1.9-1.5,3.8-1.7,5.7
		c-0.2,3.7-0.2,7.4,0.2,11.1c0.7,6.7,1.8,13.4,2.3,20.2c0.1,1.4-2.3,2.8-3.4,4.3c-1.2,1.7-3.2,3.3-3.3,5.1
		c-0.9,10.3-1.8,20.5-1.7,30.8c0.1,11.1,2.6,21.8,9.2,31.2c6.1,8.6,12.2,17.3,18.3,25.9c0.6,0.8,1,1.7,1.4,2.4
		c-6.9,0.6-13.7,1.1-20.5,1.8c-6.1,0.6-12.1,1.2-18.1,1.8c-5.8,0.6-11.5,1.2-17.3,1.8c-0.2,0-0.4,0.1-0.5,0.1
		c-6.5-2.9-12.4,1.9-18.9,1.4c-6.8-0.6-13.8,1.1-20.7,1.7c-7.8,0.7-15.5,1.5-23.3,1.8c-5,0.2-10-0.3-14.9-0.9
		c-1.9-0.2-3.6-0.9-2.8-4c0.6-2-0.3-6-3.6-4.6c-6.8,2.8-11.5-1.9-15.8-4.7c-5.3-3.5-12.3-6.5-13.2-14.6c-0.1-0.7-4-1-6.1-1.5
		c-0.5,0.4-1,0.7-1.5,1.1c0-31,0-61.9,0-92.9c0-1.8,0.7-3.6,0.7-5.4c0-5,0.9-8.7,7.4-7.2c0.7,0.2,2.5-1.5,2.8-2.5
		c3.5-14.3,4.7-28.8,4.1-43.5c0-1.2-0.5-2.7,0.1-3.4c3.8-5.2,0.3-8.9-2.1-13c-8.9-15.2-22.6-26-34.8-38.2
		c-6.6-6.6-12.9-13.4-19.5-20c-4.5-4.4-9.3-8.6-14.1-12.7c-0.9-0.7-2.4-1-3.6-1c-17.1-0.9-33.5,3.4-50.2,6
		c-12.3,1.9-24.6,3.7-36.9,5.3c-2.8,0.4-4.3,1.1-4.5,4c-0.3,4.6-3.2,6.1-7.5,6.1c-14.8,0-29.6-0.3-44.3,0.1
		c-7.6,0.2-15.1,1.5-22.6,2.7c-10,1.7-19.3-1.7-28.9-3.4c-7.8-1.3-15.6-2.5-23.3-3.7c-0.8-0.1-1.7,0-2.4,0.4
		c-13.8,7.5-27.9,14.4-41.2,22.6c-14.2,8.8-28.2,18-41.2,28.4c-11.9,9.5-23.5,19.9-32.9,31.8c-6.5,8.3-14.8,6.2-22.2,8.9
		c-6.9,2.5-14,4.5-20.7,7.5c-3,1.3-5.4,4.4-7.5,7.1c-18.4,24.1-36.8,48.3-55,72.6c-4.1,5.4-7.3,11.5-10.9,17.2c-1,1.5-2,3.2-3.4,4.2
		c-6.1,4.4-7.4,9.5-3.3,15.9c6.4,9.8,14.7,17.9,23.2,25.8c0.9,0.9,1.9,1.7,4.2,3.7c-4.5,0.8-7.7,1.9-10.9,2
		c-14.5,0.5-29,0.7-43.4,1.2c-21.3,0.8-42.6,1.9-63.8,2.8c-10,0.4-20,0.5-29.9,1.2c-16.9,1.1-33.8,2.5-50.7,3.6
		c-2.4,0.2-4.9-0.3-7.4-0.4c-4-0.2-5.5-1.8-3.7-5.8c0.5-1-0.4-2.7-0.8-4c-0.2-0.6-0.9-0.9-1.3-1.5c-2.9-4.7-5.3-10-12.4-9.9
		c3.2-6.5,4.8-13.7,9.2-18.1c7-7.1,9.7-16,14.2-24.2c1-1.7,0.4-4.3,0.8-6.4c0.2-1.5,0.3-3.6,1.3-4.4c19.8-16.4,29.4-40.4,44.8-60
		c2.3-3,1.8-8.1,4-11.2c8.8-12.2,18.4-23.9,27.4-36c5.3-7.1,10.6-14.3,13.7-22.9c2.2-6,6.3-10.8,13.4-12.9
		c10.7-3.2,21-7.7,31.4-11.9c3.3-1.3,6.3-3.7,9.6-5c2.7-1.1,5.8-0.9,8.6-1.8c3.7-1.2,7.5-2.3,10.9-4.2c11.5-6.6,19.1-17.4,27.8-26.9
		c10.1-11,20.7-21.6,31.1-32.3c0.7-0.7,1.2-1.5,2.3-3c-1.4-0.8-2.6-1.6-3.8-2.3c0.4-0.9,0.6-1.3,0.9-1.7c3.5-5.2,7.2-10.2,10.5-15.5
		c2.6-4.2,4.7-8.6,7-13c0.2-0.4,0.7-1.1,0.5-1.4c-2.6-4.7-1.3-9.5,0.8-14.6c8.3-3.4,10.6-11.6,12.5-20c1.7-7.7,3.2-15.4,5.1-23.1
		c2.1-8.5,4.7-16.8,7.1-25.2c0.2-0.7,0.8-1.7,1.4-2c4.3-1.5,4.1-5.8,5.1-9c3.4-10.4,7.5-20.8,8.8-31.5c1.3-10.6-0.2-21.5-0.7-32.3
		c0-0.7-1.6-2-2.3-1.9c-0.8,0.1-2,1.2-2.3,2.1c-1,3.7-1.2,7.6-2.5,11.1c-5,13.6-10.4,27.1-15.6,40.6c-4.1,10.6-8,21.4-12.6,31.8
		c-4.7,10.4-12.3,18.8-21,26.2c-13.8,11.8-28.1,22.7-45.5,28.7c-3.6,1.2-7.1,2.7-10.7,3.8c-0.9,0.3-2.2-0.3-3.2-0.6
		c-5.8-2-11.7-3.7-17.2-6.1c-2.8-1.2-5.6-3.3-7.5-5.8c-8.8-11.4-12.7-24.5-13.3-38.8c-0.6-15.8-1.4-31.6-2-47.3
		c-0.1-2.3,0.3-4.7,1-6.8c4.7-14.2,9.5-28.4,14.5-42.6c3.4-9.7,5.6-20.2,11.1-28.5c6.4-9.7,7.3-21,12.7-30.8
		c0.6-1.2,1.3-2.4,1.4-3.7c1.6-19.9,11.2-37.3,18.5-55.2c4.7-11.7,6.8-23.4,5.8-35.8c-0.1-0.8-0.2-1.9-0.7-2.3
		c-3.7-3.1-7.3-8.3-11.3-8.5c-4.6-0.3-6.4-3-9.3-4.8c-5.8-3.7-11.3-7.9-17.1-11.9c-2.8-1.9-5-1.5-7.1,1.5
		c-12.2,18.3-27.7,33.9-42.6,50c-6.1,6.6-11.3,13.9-17,20.7c-8.1,9.6-16.6,19-24.5,28.8c-7.6,9.5-14.3,19.6-21.8,29.2
		c-5.2,6.7-11.2,12.7-16.7,19.2c-6.8,8.2-13.3,16.6-20.1,24.8c-1.4,1.6-3.6,2.4-6.3,4.2c2.9,2.8,5.9,5.9,9.1,8.7
		c3,2.6,6.3,4.8,9.3,7.5c1,0.9,1.9,2.5,2,3.9c0.3,4.5-0.1,9,0.1,13.5c0.4,7.3,0.2,14.2-6.6,19.2c-1.7,1.2-1.7,4.4-3.3,6
		c-5.6,5.9-11.3,11.9-19.4,14.4c-1.1,0.3-2.3,0.5-3.4,0.4c-7.7-0.9-15.4-2.2-23.1-2.7c-7.7-0.4-13.6-3.7-18.3-9.5
		c-4.6-5.6-9.2-11.3-13.3-17.3c-1.5-2.1-1.7-5.2-2.1-8c-0.6-3.5-1.8-6.9-0.2-10.8c0.3-0.7-4.4-4.4-7.3-5.4
		c-8.5-3.1-17.1-6.4-25.9-8.1c-8.9-1.7-18.2-1.2-27.2-2.1c-11.5-1.2-23-2.9-34.5-4.5c-10-1.4-20-2.8-29.9-4.2
		c-0.5-0.1-1.1-0.1-1.5,0.1c-13,6.8-24.9,1.1-36.6-3.6c-18.5-7.4-36.6-15.8-55.2-23.2c-6.6-2.6-13.8-3.6-20.7-5.5
		c-1.5-0.4-3.3-1.3-4.2-2.5c-6.1-8.7-15.4-13.4-23.8-19c-9.4-6.3-19.2-11.9-26-21.3c-6.7-9.3-13.4-18.6-20.4-27.6
		c-2-2.6-4.6-5-7.4-6.6c-7.7-4.5-12.5-11.3-17.3-18.4c-2.3-3.4-5.7-6.1-8.8-8.8c-8.7-7.5-15.6-16.2-20.2-26.8
		c-1.7-3.9-3.6-7.9-6-11.4c-1.1-1.5-3.9-2.7-5.8-2.6c-6,0.3-10.2-1.9-13.5-6.8c-2.3-3.5-5-6.6-7.1-10.2
		c-8.3-13.6-16.7-27.1-24.5-40.9c-5.7-10.1-7.1-21.6-9-32.9c-0.4-2.2-1.9-4.2-3.3-6.1c-0.6-0.8-2-1.1-3.1-1.3
		c-8.2-1.7-13.7-7.5-19.2-13.1c-1-1-1.2-2.7-1.6-4.1c-1-3.5-1.7-6.6-4.9-9.3c-1.4-1.2-0.4-6.6,1-9.3c3.4-6.8,7.7-13.2,8.1-21.1
		c0.1-1.3,0.2-2.6,0.3-3.9c-0.4-0.3-0.9-0.5-1.3-0.8c-1.7,2.4-3.8,4.6-5.2,7.1c-5.3,9.6-9.8,19.6-15.6,28.8c-3.3,5.3-8.5,9.5-13,14
		c-0.5,0.5-1.8,0.4-2.7,0.2c-21.8-5.1-42.8-12.3-63.5-20.9c-8.3-3.5-17.6-4.4-26.2-7.1c-14.2-4.4-28.2-9.4-42.3-14.2
		c-21.9-7.4-43.8-14.7-65.5-22.4c-8.8-3.1-17.1-7.3-26.5-11.3c12.7-5.1,24.6-9.8,36.5-14.6c6.3-2.5,12.6-4.9,18.9-7.5
		c1.2-0.5,3.1-1.9,3-2.8c-0.3-5,3.5-6,6.7-7.5c20.9-9.6,41.8-19.2,62.7-28.8c17.4-8,34.7-16.3,52.2-24c6.2-2.7,12.8-4.5,19.3-6.4
		c3-0.8,5.5-0.3,7.5,3c2,3.3,5,6.4,8.3,8.5c17.8,12,28.7,29.5,40.2,46.9c4.7,7.2,10.3,14,16.7,19.7c2.5,2.3,8.3,1,12.6,1.1
		c0.3,0,0.8-1.3,1-2.1c3.3-15.8,6.9-31.6,9.8-47.5c1.4-7.5,1.8-15.2,2.1-22.8c1.2-25.5,8.6-49,21.8-70.8c3.7-6.1,7.2-12.3,11.3-18.1
		c3.2-4.7,7.4-8.3,13.8-8.2c1.4,0,3-1.3,4.1-2.4c5.1-4.8,9.7-10.1,15.1-14.4c8.3-6.6,17.1-12.6,25.6-18.8
		c5.6-4.1,10.9-8.8,16.8-12.3c13.9-8,28.2-15.3,42.3-22.9c1.5-0.8,2.9-1.9,5.6-3.7c-3.7-1.9-6.5-2.9-8.9-4.6
		c-2.7-1.9-5.6-4.1-7.4-6.8c-13.8-20.8-5.3-46.3,16.5-57.9c3.9-2.1,7.4-4.4,12-2.1c1,0.5,3.1,0.5,3.8-0.2c3.7-3.3,6.3-0.6,9.2,1.1
		c6.1,3.6,12.4,6.8,18.4,10.6c2.7,1.7,5.1,4.2,7.2,6.7c5.7,6.9,11.3,13.8,16.5,21c6,8.3,9.4,18,12.5,27.7c1.2,3.8,3.1,7.3,4.4,11
		c1.6,4.7,0.2,8.9-3.1,13.8c-1-3.2-1.7-5.2-2.3-7.2c-0.5-0.2-1-0.4-1.5-0.6c-2.2,4.2-4.6,8.3-6.5,12.6c-0.3,0.6,1.3,2.6,2.5,3.3
		c2.8,1.7,5.7,3.5,8.8,4.5c12,3.7,19.6,14.2,30.8,19.4c11.2,5.3,21.5,12.3,32.4,18.2c10,5.3,20.3,10,30.4,15.2
		c21.3,10.9,42.6,21.9,63.8,33c13.1,6.9,26,14.3,39.1,21.4c2.4,1.3,5,2,8,2.5c-2.6-2.6,2.8-8.3-3.9-8.7c0.5-1.3,0.9-2.7,1.5-4
		c2.5-6.1,5.5-12.1,7.5-18.4c3.1-9.7,4.6-20.1,8.8-29.3c3.3-7.5,7.8-15.3,17.1-17.8c0.9-0.2,1.5-1.2,2.6-2.1
		c-3.5-0.6-6.2-1.3-8.9-1.5c-10.5-0.8-19.9-4.9-29.2-9.3c-4.1-2-8.4-3.4-13.9-5.6c1.8-6.6,3.7-14.4,6.4-22c0.7-1.8,2.6-5.5,6.5-3.4
		c3.5,2,7.1,3.9,10.7,5.8c6.7,3.5,13.2,7.4,20.1,10.5c9.6,4.3,19.4,8.2,29.3,12c1.4,0.5,3.8-0.1,5.1-1c8.2-6.6,16.1-13.5,24.3-20.1
		c14.4-11.4,28.6-23.1,43.5-33.7c13.3-9.5,24.7-20.8,35.2-33.2c10.7-12.5,21.2-25.2,31.6-38c6.5-7.9,13.3-15.6,17.7-25
		c2.2-4.8,5.5-9.2,8-13.3c4.1,8.4,7.5,16.7,12,24.3c4.7,8,7.5,8.4,13.3,1.4c5.6-6.9,12.7-7.8,20-6.1c17.6,4.1,33.5,11.7,47.1,25
		c-4.5,0.7-8.9,0.8-12.8,2.2c-11.9,4.2-23.9,8.3-35.2,13.7c-14.5,6.9-28.9,14.2-41,25.2c-17.6,16.1-35.5,32-53,48.3
		c-5.7,5.3-9.9,12.7-19.7,7.3c1.4-2.4,2.9-5.2,4.6-8c6.6-10.5,12.4-21.5,20-31.2c13-16.5,27.1-32.2,40.9-48.1c4-4.6,8.6-8.8,13-13.1
		c2.3-2.2,2.6-3.9,0.6-6.8c-4.3-6-8-12.5-11.8-18.4c-2,3.5-4,8.2-6.9,12.2c-11,14.7-21.9,29.3-33.5,43.6
		c-11.4,14.1-23.4,27.7-35.3,41.4c-10.9,12.6-24.9,21.5-37.9,31.5c-4.6,3.5-8.7,7.6-13.5,10.7c-7.5,4.8-15.3,9-23,13.5
		c0.1,0.6,0.3,1.2,0.4,1.8c7.9,4.2,15.9,8.3,23.8,12.5c-0.1,0.5-0.2,1-0.3,1.5c-10.3-1.3-20.6-2.7-30.9-4
		c12.5,11.9,28.7,19.3,36.7,35c-0.5,0.4-0.9,0.9-1.4,1.3c-2-2.4-4.1-4.7-6.1-7.1c-0.2,0.1-0.5,0.3-0.7,0.4c0.5,1,1,2.1,1.5,3.1
		c-6.2-3.4-11.5-7.7-17.1-11.5c-9.5-6.4-13.8-7.7-18.6-6.6c10,16.8,14.1,34.9,10.6,54.4c-1.1,6.3-4.8,11-10.3,13.9
		c-9.2,4.8-21.7-0.7-26-11.6c-3.3-8.5-6.5-17.1-6.3-26.5c0-0.9-0.6-1.7-1-2.6c-0.5,0.1-1,0.1-1.5,0.2c-0.6,12.8-1.3,25.5-2,39.3
		c-3.6-9.9-8.8-18.6-6.6-29.3c-2.6,6.1-7.4,11.3-5.8,18.3c1.2,5.2,0,11.7,5.5,15c14,8.4,28.1,16.8,42.4,24.6
		c12.6,6.9,25.6,13.2,38.5,19.8c2.4,1.3,4.9,2.5,7.4,3.7c-0.2,0.3-0.3,0.6-0.5,1c-4.4-1.7-8.9-3.5-13.3-5.2c-0.1,0.3-0.2,0.7-0.4,1
		c17.8,9.9,35.7,19.8,53.9,30c0.7-0.6,1.9-1.7,3-2.8c8.1-8.4,16.4-16.7,24.2-25.4c4.4-4.9,9.3-6.7,15.7-6.5c8,0.3,16,0.2,24,0
		c3.7-0.1,7.5-0.8,11.2-1.3c8.4-1.2,16.8-3.3,25.3-3.4c17.6-0.3,35.2,0.5,52.8,0.8c1,0,1.9,0.6,2.9,0.6c3.6,0.1,7.4,0.7,10.9-0.1
		c12.2-2.5,24.3-6,37-4.6c2.2,0.2,5.6,1.3,6,2.7c0.7,2.1-0.6,5-1.3,7.4c-0.6,2.1-1.8,4-2.7,6c0.4,0.3,0.8,0.5,1.2,0.8
		c5.5-4,11-8,15.8-11.5c-3.1-8.2-6.6-15.6-8.5-23.3c-2.7-10.6-4.1-21.5-6.1-32.2c-0.6-3.5-1.6-7-1.6-10.5c0-3.4,0.9-6.8,1.7-10.1
		c0.3-1.2,1.7-2.1,2.6-3.1c0.5-0.6,1.5-0.8,1.8-1.4c2.5-4.9,5.8-9.7,7.2-14.9c3.5-12.9,9.4-25,10.6-38.6c0.8-9.7,1.1-19.2-1.6-28.4
		c-2.9-9.8-7.2-19.1-10.6-28.7c-2.4-6.6-4-12.7-12.8-14.5c-9.3-1.9-18.2-6.1-27.1-9.8c-10.7-4.4-21.2-9.3-31.7-14.1
		c-6.6-3.1-12.3-8.4-20.4-7.3c-0.2,0-0.5-0.7-0.7-1.1c1.9-0.7,3.7-1.5,5.6-1.9c7-1.3,13-7.9,21.3-0.9c5.4,4.6,13.4,6.1,20,9.3
		c6.5,3.2,12.9,6.8,19.3,10.3c11.2,6.2,22.4,12.4,33.5,18.9c2,1.2,3.3,3.5,5,5.3c-0.4,0.6-0.8,1.2-1.2,1.8c-2.1-1-4.3-2-6.4-3
		c6.6,9.6,9.8,20.5,12.8,31.4c3,11.1,3.8,22.3,1.6,33.8c0.7,0.1,1.4,0.2,2,0.4c2.7-8.4,5.4-16.8,8.1-25.2c0.6,3.1,1.2,6.4,0.5,9.4
		c-1.9,8-3.8,16.1-6.6,23.9c-5.2,14.6-11,28.9-16.4,43.3c-2.1,5.7-5.1,11.7-5.1,17.6c-0.1,8.7,2,17.5,3.5,26.2
		c1,5.9,3.7,11.7,3.7,17.5c0.1,5.6,2,10,4.5,15.3c2.3-2.4,4-4.1,5.6-5.9c8.5-9.8,16.8-19.7,25.4-29.3c2.9-3.2,5.2-6.2,5.1-10.7
		c-0.2-5.7,0.2-11.4-0.1-17.1c-0.5-8.9-1.6-17.7-1.9-26.6c-0.4-10.6-5-21.4,0.7-31.9c0.2-0.4-0.4-1.1-0.5-1.8
		c-0.8-7.9-1.5-15.7-2.2-23.6c-1-10.8-2-21.6-3-32.4c-0.3-3-0.7-6-1.1-9c0.4-0.1,0.9-0.3,1.3-0.4c1.2,2.7,2.3,5.5,3.6,8.6
		c0.4-0.9,1.2-1.8,1-2.3c-3.8-12.5-2.9-26.2-9.2-37.8c-3.3-6-4.2-14.1-12.4-16.7c-0.9-0.3-1.6-1.5-2.2-2.4
		c-2.9-4.5-5.8-9.1-8.6-13.6c-3.7-5.9-6.5-12.9-11.4-17.6c-9.1-8.9-19.2-16.7-31.2-22.1c-14.4-6.5-28.4-14-44.2-16.9
		c-14.6-2.7-29.1-5.7-43.7-8.3c-7.1-1.3-14.2-2.2-21.4-2.9c-3.5-0.3-8.3-0.9-10.4,1c-3.3,2.9-5.2,1.5-7.7-0.1
		c-3.6-2.2-6.9-5.2-10.8-6.5c-14.1-4.6-28.3-8.7-42.5-12.7c-3.3-0.9-7.1-1.5-10.4-0.9c-9.2,1.9-18.4,4.1-27.3,7
		c-8.8,2.8-17.3,6.4-25.9,9.9c-10.2,4.2-18.2,13-29.8,14.4c-0.3,0-0.6,0.7-0.9,1c-3.1,2.9-6.4,5.7-9.5,8.7
		c-7.1,6.7-14.2,13.5-21.1,20.4c-2.2,2.2-3.7,5-5.6,7.6c-0.4-0.3-0.7-0.6-1.1-0.8c4.7-17.5,21.6-24.9,32.5-37.7
		c-1.7-0.1-3,0.2-3.9-0.3c-8-4.7-15.5-0.9-22.4,2.3c-11,5.2-21.6,11.5-32,17.9c-5.6,3.4-11,7.5-15.6,12.2c-5.2,5.4-9.4,11.8-14,17.8
		c-4.2,5.6-8.4,11.4-12.5,17c0.2,0.1,0.3,0.2,0.5,0.3c3.2-2.6,6.5-5.3,9.7-7.9c0.4,0.4,0.7,0.8,1.1,1.2c-0.9,1.1-1.8,2.2-2.8,3.2
		c-12.8,13.2-25.5,26.4-38.5,39.3c-3,3-7.1,5-10.7,7.6c-2.4,1.7-4.9,3.5-7.2,5.4c-1.7,1.4-2.9,3.9-4.7,4.5c-8.6,3-17.3,5.6-26.1,8.1
		c-9.2,2.7-18.2,6.4-29,4.5c15.9,23.8,37.2,39.6,61,52.4c-2.4-2.2-4.2-5-6.4-7.3c-2.3-2.5-5.1-4.5-7.7-6.7c0.3-0.5,0.7-1.1,1-1.6
		c19.2,19.7,42.4,29.5,69.4,29.5c-0.9-4.1-2.3-8.2-2.4-12.2c-0.1-8,0.5-15.9,0.9-23.9c0.5-10.3,1.3-20.6,5.8-30.1
		c1.1-2.3,1.3-5.1,2.2-7.5c3.7-9.3,6.7-19.1,11.6-27.7c6.1-10.6,13.7-20.3,21-30.2c5-6.9,11-13,19.6-16.5c-8,10-15.5,19.7-23.3,29.2
		c-7.3,8.9-12.3,18.8-14.8,30c-2.5,11.1-4,22.5-7.3,33.4c-3.4,11.1-3.2,22.3-2.5,33.4c0.8,13.1,3.1,26.1,4.8,39.1
		c1.6,12,4.5,23.7,9.9,34.5C730.3,337,733.9,339.5,736.6,342.5z M1168.7,461.5c-1.4,1.3-2.7,3-4.3,3.9c-6,3.2-12.4,5.9-18.3,9.4
		c-5.6,3.3-10.7,7.2-16.3,11.1c5.3,5.5,10.3,10,14.4,15.2c2.1,2.6,3.5,2.9,6.1,1.5c4.9-2.7,9.8-5.2,14.6-7.9
		c5.6-3.1,10.7-7.9,16.6-9.1c5.5-1.1,8.8-4.4,12.9-7c1.2-0.8,2.5-1.4,3.8-2.1c0.3,0.4,0.6,0.9,0.8,1.3c-13.2,10-24.3,22.8-41.1,28.4
		c1.5,1.6,2.5,2.5,3.2,3.6c7.9,10.9,7.9,11,20.4,6.3c9.5-3.6,19.1-6.5,29.5-6.6c1.8,0,3.6-1.9,5.2-3.1c1.2-1,2-2.6,3.1-3.7
		c6.9-7,14.1-13.8,16.8-23.8c0.6-2.2,1-5.6,2.4-6.2c6.6-2.7,7.8-9.2,11.2-14.2c4.2-6.3,1.3-12.5-1.6-17.3
		c-5.5-9.2-12.5-17.6-19-26.3c-1.6-2.1-4.4-3.4-2.7-7c0.4-0.9-0.5-3.2-1.5-3.9c-3.5-2.6-7.1-5-10.9-7.2c-2.2-1.3-4.7-2.7-7.1-2.9
		c-10-0.9-20.1-1.7-30.1-2.1c-11.6-0.4-23.3-0.3-35-0.4c-2.8,0-6.3-1-8.4,0.2c-6.6,3.8-12.9,8.3-19.1,12.8
		c-10.4,7.6-20.7,15.4-31.1,23.1c-2.7,2-6.6,3-4.9,8c0.4,1.1-1.5,3.1-2.6,4.5c-2,2.6-4.2,5.1-6.2,7.7c-1.5,1.9-4,4.1-3.8,5.9
		c0.2,1.8,3.2,3.3,5.1,4.9c1.1,0.9,2.6,1.6,3.5,2.7c3.2,3.7,6.7,4.3,10.8,1.7c4.3-2.7,8.5-5.7,13.1-8c10.5-5.2,21.2-10.1,31.9-14.9
		c4.4-2,9-3.5,13.6-5.2c-3.2,2.6-6.4,4.7-8.9,7.4c-5.6,6.1-10.7,12.6-16.2,18.8c-0.8,0.9-2.3,1.2-3.4,1.8c-1.5,0.7-3.1,1.4-4.1,1.9
		c0.9,6.8,5,10.6,9.7,14.1c2.5,1.9,4,1.9,6.5,0.6c13-6.4,26.1-12.6,39.2-18.8C1167.3,460.8,1168,461.2,1168.7,461.5z M1092,832.2
		c0.4-0.1,1.3-0.5,2.2-0.6c9.3-1.3,18.3-3.5,28-3.5c14.8-0.1,29.6-3.5,44.4-5.4c6.2-0.8,12.4-1.6,18.6-2c4.8-0.3,9.7,0.3,14.4-0.1
		c13.7-1.2,27.5-2.5,41.2-4.1c4.9-0.6,9.9-2.1,14.5-4c1.7-0.7,2.5-3.8,3.7-5.8c0.8-1.4,1.3-3.7,2.5-4.2c3.6-1.5,7.9-1.6,11.2-3.5
		c7.6-4.5,15.6-5.4,24.1-5.2c6.2,0.1,12.5,0.9,18.5-0.2c9.3-1.7,17.2-0.9,25,5.2c4.2,3.3,10.4,3.8,14.9,6.8
		c6.4,4.2,12.2,9.4,17.4,13.6c4.7,0.5,9,0.7,13.2,1.6c11.8,2.2,23.5,5,35.3,7c7.1,1.2,14.4,1.6,21.6,2c6.2,0.3,12.4,0.1,19.7,0.1
		c-2.9-10.9-5.5-22.2-9-33.1c-4.5-13.8-9.4-27.4-14.9-40.8c-8-19.6-16.6-38.9-25-58.3c-3-6.9-5.5-14.2-9.5-20.6
		c-9.4-15.1-19.6-29.7-29.3-44.6c-7.1-10.8-13.7-22-21.2-32.5c-6.1-8.5-13.3-16.1-19.9-24.2c-11-13.6-21.9-27.3-32.7-41
		c-4.1-5.2-7.8-10.7-12-16.5c-3.1,1.1-6.9,3-11,3.9c-6.2,1.3-12.1,5.7-18.8,2.1c-4.5,6.6-8.1,6.7-12.6,0.3
		c-2.4-3.5-4.7-7.1-7.5-10.3c-1.2-1.4-3.8-3.2-4.7-2.8c-2.2,1.2-2.9,3.4-2.6,6.5c1.3,11,2.4,22.1,2.6,33.1
		c0.1,9.4-1.2,18.7-1.8,28.1c-0.1,1.3-0.2,2.6-0.5,3.9c-1.8,7.9-3.4,15.8-5.7,23.5c-0.6,2.1-3.4,3.7-5.2,5.5
		c-0.9-1.6-1.7-3.3-2.7-4.9c-0.7-1.2-1.3-2.8-2.4-3.4c-9.4-4.5-15.5-14.8-26.9-15.9c-0.6-0.1-1-0.8-1.6-1.1c-5-3.3-9.6-7.2-15-9.8
		c-13.4-6.6-27.1-12.5-40.8-18.7c-3-1.3-5.9-2.7-8.9-4.1c-4.4-2-7.8-6.2-13.4-5.1c-5.1,1-10.4,2.8-15.4,2.4
		c-8.8-0.6-16.5,1.4-24.6,4.7c-5.9,2.3-12.8,3-19.2,2.7c-11.9-0.6-23.8-2.5-35.7-3.6c-1.7-0.1-3.7,1.2-5.2,2.4
		c-4.5,3.3-4.9,9.6-10.7,12.9c-5.4,3.1-8.3,10.5-12.4,15.9c-6.2,8.1-12.4,16.1-18.8,24c-5.7,7.1-11.6,13.9-17.6,21.2
		c8,4.8,15.8,8.5,22.3,13.7c8,6.4,16.1,12.7,21,22.7c4.4,9.1,9.5,18.2,17,25.6c5.1,5.1,10,10.6,14.2,16.4
		c7.3,10.1,14.1,20.6,21.2,30.9c0.6-0.2,1.1-0.4,1.7-0.6c-1-11.3-6.4-21.7-8.3-33c1.8,2,3.2,4.1,4.4,6.3c4.3,8.3,8.7,16.6,12.7,25
		c2.7,5.5,4.9,11.2,7.3,16.8c0.6,1.3,1.2,2.5,2.1,3.6c1.9,2.5,4.5,4.6,5.7,7.3c1.8,3.8,2.6,8,3.9,12
		C1080.8,795.8,1086.4,813.8,1092,832.2z M1159.4,223.2c4-2.2,7.2-4.1,10.6-5.7c11.9-5.6,23.8-11.2,35.9-16.5
		c4.1-1.8,8.6-3,12.9-4.5c3.8-1.2,7.9-2.5,11,1c2.1,2.4,3.6,5.6,4.5,8.7c0.3,0.9-2.4,2.7-3.7,4.1c-0.3,0.3-0.4,0.9-0.6,1.3
		c-4.7,7.7-8.8,15.8-14.2,22.9c-5.6,7.4-7.3,15.1-7.4,24.1c-0.1,10.3-1.6,20.6-2.8,30.9c-0.7,6.5-1.1,13.2-3.3,19.2
		c-2.2,6-5.5,12-9.9,16.5c-4.3,4.4-5.1,3.6-1.5,9c0.8,1.2,1.3,2.6,2.1,3.9c1.9,3,4.1,2.6,6.6,0.7c4.9-3.7,9.8-7.4,14.9-10.7
		c8.4-5.3,16.8-10.6,25.5-15.4c11.7-6.4,21-18,36.4-16.5c2.1,0.2,4.4-1.1,6.6-1.5c10.4-2,20.7-3.4,31.3-1.5
		c12.1,2.2,24.4,3.2,36.4,5.3c6.3,1.1,13,2.4,18.6,5.5c7.9,4.3,16.2,6,24.8,6.3c14.1,0.4,28.2,0.2,42.2,0.2c9.3,0,18.5,0.1,27.8-0.1
		c15.5-0.3,30.5-3.5,45.3-8.3c15.6-5,31.5-9.2,47.3-13.8c3.9-1.1,7.7-2.6,11.6-3.9c-12.4-2.7-24.6-4.3-36.7-6.2
		c-6.9-1.1-13.4-3.1-19-8.1c-8.7-7.8-18.2-14.8-29.5-18.6c-1.2-0.4-2.4-1-3.4-1.8c-9.5-7.1-18.9-14.2-28.3-21.4
		c-6.3-4.8-13.2-8.6-17.7-16c-4.5-7.4-10.9-13.7-17.2-19.8c-4.5-4.4-10.6-7.1-15.4-11.3c-9.8-8.6-19.1-17.6-28.6-26.5
		c-12.6-11.9-25-24.1-37.9-35.7c-10-8.9-20.2-17.7-32.8-23.1c-7.9-3.4-15.7-7-23.5-10.7c-5.6-2.7-10.8-6.2-16.4-8.9
		c-14.2-6.8-28.8-12.9-42.8-20.1c-10.2-5.2-20.3-10.5-31.9-11.9c-23.9-3-46.5-11.3-69.5-17.7c-16-4.5-32.1-7.2-48.5-9.3
		c-9.4-1.2-18.8-2.7-28.2-3.7c-6.7-0.7-13.7-2-20.2-1c-16.6,2.3-33.1,5.7-49.5,8.8c-8,1.5-16.4,0.3-24.1,3.8
		c-2.4,1.1-5.5,0.9-8.2,1.1c-13.5,0.7-27.1,1.2-40.6,2.1c-5.4,0.3-11,0.6-16,2.3c-6.9,2.3-13.3,6.1-18.8,8.6
		c5.8,0.9,12.5,1.5,19,3.2c13.6,3.5,28.1,3.3,40.9,9.9c8.7,4.4,19.9,2.6,27.2,10.9c2.2,2.6,5.2,3.8,7-1c0.2-0.7,1.6-1.3,2.4-1.4
		c5.6-0.3,11.3-0.8,16.9-0.4c15.3,1.1,30.5,3,45.7,3.7c11.3,0.5,21.5,3.4,31.1,9c0.6,0.3,1,1,1.5,1.5c0.9,0.9,1.7,2.1,2.8,2.5
		c2.6,1,5.5,1.2,7.9,2.4c3.7,1.9,7,4.8,10.8,6.7c5.1,2.5,10.7,4,15.7,6.7c4.8,2.6,9.2,5.8,13.4,9.2c2.1,1.8,3,5.7,5.2,6.6
		c8.2,3.4,10.5,11.2,14.3,17.7c6.2,10.5,11.3,21.6,17.3,32.2c5.7,10.1,10.8,20.5,13.5,31.7c1.7,7,1.6,14.4,2.2,21.6
		C1158.9,215.9,1159.2,219.5,1159.4,223.2z M1570.7,1018.8c-5-8-10.1-15.7-14.8-23.7c-8.3-13.8-17-27.2-27.5-39.6
		c-8.6-10.2-16.1-21.3-23.8-32.3c-4.6-6.5-8.4-13.7-13-20.2c-1.1-1.6-4.7-3.3-6-2.7c-5.1,2.3-10.2,3.1-15.7,3.2
		c-11.3,0.1-22.5,0.6-33.8,0.9c-0.8,0-1.6,0.3-2.4,0.4c-11,1.5-22,3.4-33.1,4.4c-9,0.9-18.2,0.7-27.3,1.2c-1.3,0.1-2.8,1.6-3.6,2.9
		c-4,6.7-7.6,13.6-15.7,16.4c-1.7,0.6-3.1,2.3-4.3,3.7c-3.1,3.8-6,7.8-11.5,7.9c-15.7,0.1-31.3,0.1-47,0c-9.5,0-17-3-22.7-11.7
		c-5-7.7-11.2-15.5-22.6-13.4c-0.3,0.1-0.6-0.2-0.9-0.3c-1.4-7.7-4.8-10.5-12.7-10.6c-10.8-0.2-21.7-0.3-32.5-1.1
		c-7-0.5-13.9-2.9-20.8-2.7c-27.9,0.6-56-2.8-83.8,2.8c-4.1,0.8-8.5,1-11.2,5.1c-2.3,3.6-5.1,6.9-7.3,10.5c-0.6,0.9-0.7,3.3-0.1,3.7
		c2.7,2.1,1.5,4.4,0.6,6.5c-1.3,3.2-2.9,6.2-4.2,9.4c-0.8,2.1-0.7,4.6-1.7,6.5c-3.8,7.1-8,14-11.7,21.2c-3.5,6.7-5,15-10,20
		c-8.2,8.3-12.5,18.9-20,27.9c1.4,0.3,2.4,0.5,3.4,0.7c15.4,2.2,30.9,3.8,46.1,6.8c18,3.6,35.8,8.4,53.6,12.9
		c9.4,2.4,18.7,5.5,28.1,7.9c9.3,2.3,18.8,3.8,28.1,6.1c6,1.5,12.5,2.3,16.5,8.3c0.9,1.4,3.4,2.2,5.2,2.5
		c11.1,1.7,22.3,3.4,33.4,4.8c3.1,0.4,6.3,0.2,9.4-0.2c4.4-0.6,8.6-1.7,13-2.5c5.8-1.1,11.7-1.9,17.4-3.2c2.7-0.6,5.1-2.3,7.8-2.8
		c17.5-3.3,35-6.4,52.5-9.6c9-1.7,17.9-3.9,26.9-5.4c14.5-2.3,29.1-4.2,43.7-6.2c19.3-2.7,38.5-5.6,57.9-7.8
		c14.7-1.6,29.6-2.1,44.4-3.1c5.1-0.3,10.2-0.8,15.3-1c6.4-0.4,12.9-0.3,19.3-1.1C1557.9,1021.7,1564,1020.1,1570.7,1018.8z
		 M450.4,629.6c0.9,1.6,2.2,4.2,3.8,6.7c1,1.5,3,2.6,3.4,4.2c2.1,7,3.6,14.3,10.8,18.4c0.6,0.3,0.8,1.4,1,2.2
		c3.9,16.4,13.2,29.9,24.4,41.8c8,8.5,17.3,15.9,26.2,23.6c3.2,2.8,6.5,5.8,10.3,7.7c10.8,5.7,21.8,10.9,32.8,16.3
		c3.7,1.8,7.5,3.6,11.5,4.8c8.4,2.4,16.9,4.3,25.4,6.5c8.9,2.3,17.7,5.4,27.2,4.8c3.1-0.2,6.3,0.7,9.3,1.6
		c15.7,4.5,31.2,9.2,46.9,13.8c11.6,3.3,23.2,6.3,34.8,9.8c4.5,1.4,8.7,4,13.1,5.7c10.2,3.8,20.6,7.3,30.8,11.2
		c2.4,0.9,4.8,2.3,6.7,4.1c3.8,3.6,7.2,7.7,11.1,11.3c1.1,1,4,1.3,5,0.5c2.5-2,4.6-4.7,6.6-7.3c9.5-12,18.7-24.3,28.4-36.2
		c9-10.9,19.4-20.7,27.7-32.1c13-18.1,27-35.3,42.4-51.3c9-9.3,18.1-18.6,26.4-28.4c5.4-6.4,9.5-14,14.6-20.7
		c2.5-3.3,1.7-4.9-1.3-7.1c-9.4-7-18.6-14.4-28-21.5c-2-1.5-4.6-3-7-3.1c-32.9-0.9-65.9-1.3-98.8-2.2c-29.3-0.8-58.5,1.4-87.7,3.2
		c-7.6,0.5-15.4,0.3-22.8,1.7c-16.4,3.2-32.8,6.5-49.6,6.9c-3.2,0.1-6.4-0.2-9.4,0.5c-7.7,1.8-15.2,4.3-22.9,6
		c-17.2,3.8-34.5,7.1-51.7,10.9c-9.8,2.2-19.4,5-29.1,7.4c-1,0.3-2.5,0.4-3.3-0.2c-8-6-17.6-9.9-23.5-18.8c-2.7-4-6.9-7-10.6-10.3
		c-0.9-0.8-2.5-1.4-3.6-1.2c-7.2,1.9-14.2,1.9-21.3-0.6C456.5,618.9,450.2,624.6,450.4,629.6z M600.6,458.4c0-0.3,0-0.5,0-0.8
		c20.9,0.9,41.9,1.9,62.8,2.7c2,0.1,4.1-0.6,6.1-1.2c2.6-0.8,5-2.5,7.6-2.6c17.5-0.6,35-0.8,52.5-1.1c5.2-0.1,5.8-1.5,3.1-6
		c-0.8-1.3-1.9-2.5-2.3-3.9c-1.7-5.7-5.1-11.7-4.2-17c1.4-9.2,5.7-17.9,8.4-26.9c3.8-12.7,14.2-24,8.9-38.7c-0.6-1.8-1.7-4-3.3-4.9
		c-6.7-4-13.7-7.8-20.6-11.4c-22.3-11.5-44.7-22.8-66.9-34.5c-14.6-7.7-28.8-16.3-43.4-24.2c-13.7-7.5-27.5-14.7-41.3-22
		c-13.8-7.2-27.6-14.5-41.6-21.3c-2.7-1.3-6.3-1.1-9.5-1.4c-5.7-0.4-11.4-0.5-17.1-0.7c-2.3-0.1-4.9-0.6-6.9,0.2
		c-15.6,5.8-29.8,14.2-43.6,23.5c-13.6,9.2-26.3,18.9-35.8,32.6c-16.5,23.7-23.2,50.4-23.8,78.7c-0.4,22,0.4,44,0.4,66
		c0,2.2-1.6,4.6-3,6.5c-2.1,2.6-1.2,4.2,1.3,4.9c4.4,1.2,9,2.4,13.5,2.5c6.8,0.2,13.6-0.8,20.4-0.7c45.3,0.8,90.6-1.7,135.8,1.7
		C572.2,459.3,586.4,458.4,600.6,458.4z M527.8,617.7c-6.9-1.8-12.9-4.6-19.9-3.3c-5.4,1-8.5,7.1-5.3,11.5c2.3,3.1,4.9,6,7.7,8.7
		c3.6,3.4,7.6,6.7,13.1,4.5c4.5-1.8,8.9-3.6,13.8-4.5c6.5-1.2,12.9-3.3,19.3-5.1c13.5-3.7,27-7.3,40.5-11.1
		c17.1-4.8,34-10.2,51.1-14.7c8.6-2.2,17.8-2.6,26.6-4.3c5.1-1,9.7-1.6,13.8,2.3c0.6,0.6,1.8,0.6,2.7,0.6
		c18.1-1.2,36.1-3.2,54.2-3.6c15.8-0.3,31.7,1.2,47.6,1.8c11.4,0.4,22.9,0.7,34.3,1c1.5,0,3,0,4.5,0.1c14.5,0.8,29,1.6,43.5,2.5
		c1-7,1.7-7.2,7.7-5.6c13,3.6,26,6.9,39,10.3c1-3.9,2.5-7.2,2.4-10.5c-0.2-6.9-0.9-13.8-1.9-20.6c-0.5-3,0-7-4.9-8
		c-1.3-0.3-2.1-3.3-2.9-5.2c-0.8-1.7-1.1-3.7-2-5.4c-4.1-7.8-12.1-11.2-18.6-16.2c-17.9-13.7-35.8-27.5-53.7-41.2
		c-1.4-1-3.1-2-4.8-2.2c-3.9-0.6-7.9-0.8-11.8-1.1c-11.7-0.7-23.4-1.5-35.1-2c-13.6-0.5-27.2-0.7-40.8-1c-1.8,0-3.7,0-5.5-0.1
		c-13.2-0.8-26.3-2.5-39.5,0.9c-6.3,1.6-13,2.1-19.5,2.1c-14.8,0-29.6-1-44.4-0.8c-17.7,0.2-35.4,1.4-53.1,1.8
		c-8.8,0.2-17.7-1-26.5-0.8c-13.4,0.3-26.9,1.2-40.3,1.9c-9.1,0.5-18.1,1.6-27.1,1.9c-11.7,0.3-23.3,0.1-35,0.1
		c-1.7,0-3.4,0.3-5.1,0.4c1.1,1.6,2.2,2.1,3.4,2.6c3.1,1.2,7.2,1.5,9.2,3.7c8.3,9,17.3,17.9,23.7,28.2c7.1,11.7,11.7,24.9,17.4,37.5
		c4.1,9.1,7.9,18.2,12.4,27.1C520.7,607.6,524.5,612.5,527.8,617.7z M871.6,1173.5c17.8,5.5,35.1,10.5,52.3,16.1
		c22.6,7.3,45.6,12.3,69.5,10.9c1.9-0.1,4.4-0.8,5.6-2.1c4.5-4.9,8.7-10.3,12.5-14.9c-2.6-1.5-5.4-3-8.1-4.5
		c4.8-5.7,8.8-11.2,13.5-16c2.8-2.9,6.3-6.2,10-7.1c13.6-3.3,27.5-5.4,41.2-8.4c4.5-1,9.3-0.8,13-5.5c7.3-9.2,15.1-18.1,23.8-25.9
		c13.6-12.4,28.1-23.8,42.2-35.6c6.2-5.3,12.2-10.7,18.6-16.3c-7-2.3-13.6-4.1-19.9-6.6c-5-1.9-9.4-5.5-14.5-6.7
		c-33.5-8.4-67.1-16.5-100.3-24.5c-8.4,10.2-15.9,20.2-24.3,29.5c-8.1,8.9-16.5,17.7-25.7,25.5c-11.6,9.8-24.3,18.4-36.3,27.8
		c-6.2,4.8-7.3,5-12.5-0.3c-15.8,5.5-28.4,15.2-37.5,29.2C887.1,1149.6,879.5,1161.3,871.6,1173.5z M1296.2,515.2
		c0.7,1.2,0.9,2.3,1.6,2.9c5.6,4.7,11.4,9.1,16.8,14c6.4,5.8,11.4,7,20.4,2c15.9-9,33.6-14.9,50.9-21.5c9.7-3.7,20-5.7,29.8-9.2
		c9.6-3.5,18.9-7.9,28.3-12c0.8-0.4,1.3-1.7,1.8-2.7c2.1-4.9,4-9.9,6.2-14.8c2.3-4.9,5.1-9.5,7.2-14.4c2.1-4.7,2.6-9.4-1.3-13.7
		c-2.1-2.3-4.4-4.8-5.7-7.6c-3.1-7-5.5-14.3-8.5-21.4c-1.6-3.6-3.5-7.4-6.2-10.2c-4.8-5-11.3-8.6-15.3-14.1
		c-3.2-4.3-6.2-7.4-11.4-8.1c-13-1.8-25.9-3.9-38.9-4.8c-11.7-0.8-23.5-0.7-35.2,0c-10.2,0.6-20.3-1.9-30.7,2.4
		c-6.6,2.7-15,1.4-22.6,1.3c-6.2-0.1-12.4-1.1-18.6-1.8c-9.1-1.1-18.2-2.2-27.2-3.6c-5.1-0.8-10.1-2.4-15.3-3.2
		c-1.3-0.2-3.1,1.4-4.3,2.6c-0.3,0.3,0.9,2.5,1.8,3.3c9.6,7.9,16.1,19.2,27.1,25.7c0.4,0.2,0.6,0.8,0.8,1.2
		c5.4,11.8,11.6,23.4,15.7,35.6c2.7,7.9,2.4,16.8,3.2,25.3c0.4,4.2,1,8.7,0.1,12.7c-1.4,6.4-3.9,12.5-6,18.7c-0.5,0.1-1,0.2-1.6,0.3
		c-0.8-1.1-2-2.1-2.3-3.3c-0.7-2.9-1-5.9-1.5-8.9c-0.6-0.2-1.3-0.3-1.9-0.5c-3.2,4.5-6.4,9.1-9.5,13.7c-0.2,0.3,0.1,1.3,0.4,1.8
		c4.9,5.6,9.9,11.1,14.6,16.3c1.1-1.5,2-3.7,3.6-4.6c6.3-3.5,12.6-7.6,19.4-9.5c26.8-7.4,54-13.7,80.9-20.9
		c19.8-5.3,39.5-3.3,59.3-1c1.6,0.2,3,2.8,4.5,4.3c-1.6,1.3-3,2.9-4.7,3.8c-1.2,0.6-3.1,0.9-4.3,0.4c-2.6-1.1-3-0.1-4.2,2.1
		c-1.2,2.2-3.8,4.3-6.2,4.9c-4.1,1-8.5,1.4-12.8,1.1c-10.7-0.6-20.8,2.5-31,4.7c-13.9,3-27.8,5.7-41.8,8.4c-1.4,0.3-3.6,0.5-4.4-0.3
		c-2.8-2.9-5.5-1.1-8.2-0.4C1304.9,512.8,1300.9,514,1296.2,515.2z M261.3,451.5c-1.4-1.7-2-2.6-2.7-3.4
		c-6.2-7.5-12.2-15.1-18.5-22.5c-6.4-7.4-12.8-14.6-19.6-21.6c-5-5.1-11-9.2-15.7-14.6c-3.1-3.6-6-3.5-9.5-2.1
		c-6.6,2.7-13.1,5.8-19.7,8.7c-12.7,5.5-25.5,10.9-38.1,16.6c-13.2,5.9-26.3,12-39.4,18.2c-12.4,5.8-24.7,11.9-37.1,17.7
		c-8.3,3.9-16.6,7.7-24.9,11.6c0.1,0.4,0.1,0.9,0.2,1.3c20.1-1.6,40.1-3.2,60.2-4.8c0.1,0.5,0.2,1,0.3,1.5c-1.2,0.5-2.4,1.2-3.6,1.4
		c-14.5,1.7-29,3.5-43.5,4.9c-2.3,0.2-4.7-1.1-7-1.3c-2.7-0.2-5.5-0.2-8.2,0.2c-2.6,0.4-5.1,1.6-7.7,2.1c-1.6,0.4-3.3,0.2-5,0.3
		c0.7,1.5,1.4,2.2,2.2,2.4c11.4,3.3,22.9,6.3,34.3,9.7c14.1,4.2,28.2,8.7,42.3,13.1c9.4,3,18.9,6.1,28.3,9.2
		c6.3,2.1,12.6,4.5,19,6.3c12.2,3.5,24.5,6.7,36.7,10.1c6.8,1.9,13.6,4,20.3,6.3c2.9,1,5.4,3.3,8.3,4c3.6,1,7.5,1.3,11.3,1.3
		c1.7,0,4.2-1,5-2.4c2.5-4.1,4-8.8,6.5-12.9c3-5,5.5-10.1,7.1-15.9c1.3-4.7,4.5-9,6.9-13.3c2.4-4.2,4.9-8.4,7.4-12.6
		c2.2-3.7,4.4-7.3,6.8-11.2c-9-5.7-18.3-4.7-26.7-2.7c-12.4,3-25,1.6-37.4,2.9c-8.6,0.9-17.5-0.5-26.3-0.7c-1.3,0-3.3-0.3-3.8,0.4
		c-3.3,4.2-8,1.9-11.8,2.3c-10.4,1-20.9,1-31.4,1.4c-8.6,0.3-17.2,0.6-25.8,0.9c-0.7,0-1.3-0.7-2.8-1.6c4-0.5,7.2-1,10.4-1.3
		c8.2-0.7,16.4-1.2,24.6-2c5.5-0.5,10.9-1.7,16.4-1.9c5.2-0.2,10.5,0.7,15.8,0.8c5.8,0.2,11.7,0.2,17.5,0c6.3-0.3,13.2,1.4,17.7-5.3
		c0.3-0.5,1.5-0.6,2.3-0.7c6.8-0.4,13.5-0.9,20.3-1C235.5,451.4,247.8,451.5,261.3,451.5z M1621.3,1172.6
		c-2.8-10.8,3.9-20.4-2.6-29.2c-0.5-0.7-0.1-2-0.1-3c-0.2-14.4,4.2-27.7,8.9-41c0.6-1.8,0.8-4.4,0-5.9c-2.9-4.9-6.2-9.6-9.5-14.2
		c-7.4-10.2-15.2-20.2-22.4-30.6c-3.6-5.2-6.3-10.9-9.1-15.9c-5.2,1.3-9.8,2.3-14.2,3.8c-1.7,0.5-4,1.8-4.4,3.3
		c-1.3,4.6-4.7,6.2-8.7,6.6c-5.8,0.6-11.6,0.7-17.3,1.1c-17,1-34,2-51,3c-15.3,0.9-30.6,2-45.9,3c-0.9,0.1-1.8,0.6-3.3,1.1
		c2,1.3,3.5,2,4.7,3.1c8,7,16.5,13.5,23.9,21.1c7.7,7.9,14.2,17,21.5,25.4c3,3.5,5.9,8,9.9,9.6c6,2.5,8,4.4,6.7,10.8
		c-0.4,1.9,0.6,4.2,1.3,6.2c0.5,1.5,1.6,2.8,2.1,4.4c2.2,6.5,0.1,12.6-2.1,18.6c-1.7,4.8-0.3,12.4,3.3,13.6
		c10.5,3.6,21,7.3,32.4,7.1C1570.1,1173.9,1595,1173.3,1621.3,1172.6z M860.2,1282.3c6.3-5.4,12.8-9.2,20.8-9.8
		c4.5-0.3,8-1.6,9.7-6.4c0.7-1.9,3-3.9,4.9-4.5c9.5-2.8,19.3-3.5,29.2-2c4.2,0.7,9,3.6,12.2,2.3c4.7-1.9,8.1,1.3,12,0.7
		c1.2-0.2,2.9,0,3.5-0.7c5.3-6.4,11.5-12.4,15.4-19.6c4.5-8.3,9.8-15.8,15.6-23.2c1.9-2.5,3.5-5.3,5.7-8.6c-4.8,0-8.7,0.2-12.5,0
		c-7.4-0.5-15.4,2.2-22-3.4c-0.5-0.4-1.2-0.5-1.9-0.5c-12.5-0.2-23.7-5.7-35.4-9c-12.7-3.6-25-8.5-37.5-12.5
		c-3.7-1.2-8.5-3.3-11.3-1.9c-4.7,2.4-9.1,6.6-11.7,11.1c-3.5,6-10.2,11-8.4,19.5c0.2,0.9-1.1,2.3-1.9,3.3c-1.2,1.4-2.7,2.5-3.7,4
		c-6.7,9.9-12.5,20.4-20.1,29.5c-10.1,12.2-16.3,26.7-25,39.7c-0.6,0.9,0.3,2.8,0.4,4.2c0.1,1.1,0.1,2.3-0.2,3.3
		c-0.8,2.4-3.1,5.3-2.4,6.9c1,2.2,4.2,4.5,6.6,4.6c7.8,0.3,15.6-0.7,23.4-0.6c13.1,0.1,26.2,0.9,39.3,0.7
		c14.2-0.2,28.3-1.2,42.5-1.7c3.8-0.1,7.6,1,11.3,0.8c11.8-0.7,23.6-1.9,35.4-2.9c1.4-0.1,2.8-0.4,5.7-0.8
		c-3.6-6.1-7.6-10.9-9.5-16.3c-2.8-8.3-7.4-8.2-14.5-6.1c-9.1,2.7-18.5,4.2-27.8,6.1c-1.2,0.2-2.6-0.2-3.8-0.5c-2-0.4-4-1.3-6-1.3
		c-4,0-8.1,0.4-12.1,0.6c16.1-7.6,33.3-11.4,50.6-15.3c-8.1-1.3-16.2-2.7-24.3-3.2c-2.7-0.2-5.4,2-8.3,2.6c-5,1-10.2,1.2-15.1,2.5
		c-9.2,2.6-18.1,5.8-27.2,8.7C861.4,1282.6,860.9,1282.4,860.2,1282.3z M1031.4,466.5c-0.3-0.2-0.4-4.6-3.4-0.3
		c-0.7,1.1-3.2,1.2-4.9,1.3c-23.7,0.2-47.3-0.1-70.9-2.7c-13.5-1.5-27.2-1.1-40.8-1.1c-3.6,0-7.2,1.6-10.8,2.3
		c-0.9,0.2-2-0.1-2.9-0.4c-1.9-0.6-3.9-2.1-5.7-1.9c-6.2,0.8-12.3-1.5-18.9,2.3c-4.8,2.8-12.3,1.7-18.5,1.3
		c-10-0.5-19.9-2.5-29.9-2.6c-9.6-0.2-19.3,1.2-28.9,1.8c-2.8,0.2-5.7,0-8.6,0c-10.9,0-21.8-0.2-32.6,0.1c-4.6,0.1-9.1,1.2-13.7,1.9
		c-1.8,0.3-3.5,0.9-5.3,0.9c-27.3-0.3-54.6-0.6-81.8-1c-17.8-0.3-35.5-0.6-53.3-1c-14.4-0.3-28.8-0.7-43.3-1
		c-15.9-0.3-31.8-0.8-47.7-1c-19.8-0.2-39.7,0-59.5,0c-1.5,0-3,0-4.5,0.1c-10.9,0.3-21.9,1.2-32.8,0.7c-12.8-0.6-25.5-3.1-38.3-3.6
		c-30.4-1.4-60.8,2-91.1-2c-1.6-0.2-3.7,0.8-5.1,2c-2.1,1.8-3.9,4-5.4,6.3c-2,2.9-3.7,6.1-5.8,9.6c3.9,0,6.5-0.1,9,0
		c12.9,0.3,25.8,0.7,38.8,1c8.5,0.1,17-0.1,25.5,0.1c13.8,0.2,27.5,0.7,41.3,0.9c6.3,0.1,12.6-0.3,18.9-0.3c1.2,0,2.6,0.8,3.7,1.6
		c1.1,0.8,2,2.5,3.1,2.7c4.6,0.6,9.2,0.9,13.8,1.1c17,0.7,34,1.5,51,2c4.3,0.1,8.5-0.9,12.8-0.9c36.7-0.1,73.3,0,110,0
		c0.5,0,1.1-0.1,1.6-0.1c0-0.2,0-0.4,0-0.6c-1.1-0.2-2.1-0.3-3.2-0.5c1-0.9,2.1-1.4,3.2-1.4c11.9,0.2,23.8,0.6,35.6,0.5
		c11.9-0.1,23.9-1,35.8-0.9c54,0.5,108.1-1.3,162.1,1.7c14,0.8,28.2,1.2,42.4-0.4c9.6-1.1,19.6,1.6,29.5,2.2c3.8,0.2,7.7-0.3,11.5-1
		c2.8-0.5,5.4-2.5,8.1-2.5c35.2-0.2,70.3-0.1,105.5-0.1c4.9,0,9.7,0.2,14.6-0.1c8.1-0.5,16.1-1.6,24.1-1.8
		c5.9-0.2,11.9,0.7,17.8,0.9c5.8,0.2,11.1-5.2,11.6-10.8c-6.4,1.4-13.1,2.8-19.7,4.5c-7.1,1.9-11.5-0.2-14.4-6.5
		c-0.8-1.7-2.8-3.7-4.5-4c-5-0.8-10.1-1.1-15.2-1C1038.4,464.6,1035.6,465.7,1031.4,466.5z M306.7,537.6c2.9-0.4,5.6-0.7,8.4-1.1
		c3.9-0.5,8.8,0.1,11.3-2c2.4-2,4.5-3.7,7.4-3.9c8.8-0.8,17.7-1.3,26.5-2.1c4.4-0.4,8.9-0.4,13.1-1.5c8-2,16.8-14.9,16.1-23.2
		c-0.3-3.1-0.9-6.1-5.2-6.4c-5.9-0.4-11.8-2-17.6-1.8c-19.7,0.6-39.3-1.5-58.9-3c-7-0.5-14.2,1-21.3,0.7c-5.2-0.2-9.1,1.5-12.5,5.2
		c-1.2,1.4-2.6,2.6-3.9,3.9c-7,7.1-7.9,19.8-1.8,27.4c1.7,2.2,3.2,4.6,5.2,6.5c1.4,1.4,3.2,2.3,5,3.1c3.8,1.8,7.8,3.1,11.2,5.4
		c1.1,0.8,0.6,4,0.9,6.1c1.3,8.4,2.6,16.7,3.8,25.1c1.5,10.4,6.9,19.2,12.9,27.1c6.3,8.1,13.6,15.4,18.3,24.7
		c1.6,3.1,3.3,6.2,5.2,9.2c0.5,0.8,1.9,1,2.9,1.4c5.1,1.7,9.9-0.6,14.8-0.7c17.1-0.5,34.3,0.1,51.4,0.2c0.9,0,2.1-0.7,2.8-1.4
		c1.5-1.5,2.8-3.2,4-5c0.9-1.3,1.3-2.8,2.1-4.6c-1.8-0.4-3-0.6-4.8-1c0.8-9.3,7.7-17.4,4.5-27.4c-6.7,0.3-14,0.1-21.1,1.1
		c-13.2,1.9-26.4,4.5-39.6,6.6c-1,0.2-2.2-1.2-3.4-1.9c0.7-0.9,1.3-2.5,2.2-2.7c8.1-1.8,16.2-4,24.4-5c11.7-1.5,23.6-2.1,35.4-3.2
		c1.2-0.1,2.3-0.8,3.6-1.2c-2-2.8-4.3-5.2-5.5-8.1c-2.6-6.1-4.6-12.5-7.2-18.7c-0.6-1.3-2.7-3-4-2.9c-5.5,0.4-11,1.5-16.6,2.1
		c-11.4,1.3-22.8,2.4-34.2,3.5c-0.1-0.6-0.2-1.2-0.2-1.9c17.4-2.6,34.8-5.2,53.1-7.9c-3.7-8.4-6.7-15.6-10-22.6
		c-0.5-1.1-2.5-2.3-3.6-2.1c-9.2,1.1-18.4,2.4-27.6,3.7c-9.1,1.2-18.1,3.2-27.2,3.5c-6.6,0.2-13.3-1.6-19.9-2.6
		C307.2,538.4,307.1,538.2,306.7,537.6z M410.4,717.5c0.9,1.3,1.6,2.9,2.8,4c4.5,4.1,9.2,8,13.8,11.9c11.9,9.9,23.4,20.2,35.7,29.5
		c7.9,6,16.9,10.7,25.5,15.8c5.7,3.4,9.9,8.5,16.3,11.4c16,7.2,32.4,12.9,49.1,17.9c2.8,0.8,5.8,0.8,8.8,1.2
		c9.4,1.4,18.7,3,28.1,4.3c7.8,1.1,15.7,1.7,23.5,2.7c16.3,2.1,32.5,4.1,48.8,6.4c6.7,1,13.6,2,20,4.1c7.4,2.4,14.4,6,21.6,8.9
		c1.4,0.6,3.1,0.7,5.2,1.2c-2.5-4.8,0.6-6.5,3.3-8.3c5-3.4,7.6-10.5,6.5-13.4c-1.3-3.6-2.5-7.3-3.8-11.2c-0.6-0.1-1.9-0.1-3.3-0.4
		c-1.4-0.2-3-0.4-4.2-1c-16.1-7.6-33.1-12.6-50.2-17.4c-13.7-3.8-27.1-9.3-41.8-8.8c-2.6,0.1-6.5-0.6-7.7-2.3
		c-4.1-6.1-10.8-6.9-16.6-7.2c-11.3-0.6-21.3-4.4-31.1-9.3c-3-1.5-6.1-2.7-9.2-4c-3.4-1.4-6.9-2.6-10.3-4.1c-2.4-1.1-4.5-3-6.9-3.6
		c-7.9-2.1-14.1-6.7-19.5-12.7c-0.9-1.1-2.6-2.7-3.4-2.5c-5.9,1.9-7.7-2.8-10.2-6.2c-5.5-7.3-11-14.6-16.2-21.7
		c-2.2,0.9-4.2,2-6.3,2.5c-2.5,0.6-5.3,0.4-7.8,1.1c-8,2.2-15.7,5.4-23.8,6.8C435.1,715.4,423,716.1,410.4,717.5z M1618.8,1180.8
		c-51.4,6.6-90.8,3.6-110.7-6c-0.5,2.9-1.3,5.8-1.4,8.7c-0.8,19.4-1.7,38.7-1.9,58.1c-0.1,8,1,16.1,1.9,24.2
		c0.8,8.1,2.5,16.2,2.8,24.3c0.2,4.3,1.5,6.7,5.4,8.1c2,0.7,4,1.4,5.8,2.5c4.9,2.9,9.6,2.8,14.5,0c3.5-2.1,6.9-0.8,10.2,1
		c2.2,1.2,4.7,2.4,7.2,2.9c6.2,1.2,12.5,2.1,18.9,2.8c8.2,0.9,16.4,1.9,24.6,2.1c8.1,0.2,16.3-0.4,24.4-0.9c4.8-0.3,9.5-1.3,14.2-2
		c-5.8-8.8-11.1-16.9-16.6-25.2c-9.9,4.5-19.4,8.8-28.9,13.1c-2.1,0.9-4.1,2.1-6.2,2.8c-5.3,1.6-10.6,3-16,4.2
		c-1.3,0.3-2.9-0.6-4.9-1.1c6.9-4.4,12.8-8.1,18.7-11.8c1.2-0.7,2.3-1.5,3.5-2.2c5.6-3,11.3-5.9,17-8.9c-0.2-0.5-0.3-1-0.5-1.6
		c-19.9,5.2-39.9,10.5-59.3,15.6c5.5-4.4,12-7.6,19.6-9.2c9.3-1.9,18.3-5.3,27.6-7.6c7.7-2,15.6-3.2,23.4-5.1c3.1-0.7,5.7-1.5,5-6.5
		c-0.7-4.8-3.4-10.4,1.4-15c0.4-0.3,0.2-1.3,0.3-1.9c0-9.9,0-19.7,0-29.6c0-2.8,0.1-5.7,0.1-8.5
		C1618.8,1198.9,1618.8,1189.8,1618.8,1180.8z M990.7,801c-1.6,3.3-3.9,6.9-4.8,10.7c-1.1,4.4-1.1,9.2-1.2,13.8c-0.2,10-0.1,20,0,30
		c0,10.6-1.3,20.9-5,30.9c-6,16.1-9.7,33.3-23.6,45.4c-3.6,3.1-6.6,4.2-9.6,0.8c-2.5-2.8-3.6-6.6-5.3-10
		c-6.3-12.3-5.3-25.3-1.8-37.8c2.3-8.1,6.9-15.6,11-23.1c1.2-2.2,3.3-5.3,7.5-3.4c-1.5,1.9-3.3,3.5-4.2,5.5
		c-4.2,9.3-7.9,18.8-9.2,29.1c-0.8,6.4-0.5,12.3,1.2,18.4c1.6,5.6,5,7.1,10.2,4.9c8.4-3.6,11.4-11.7,14.3-18.9
		c4.7-11.8,7.2-24.5,6.5-37.5c-0.5-9.2-1.5-18.4-1.9-27.6c-0.3-6.2-2-10.9-7.9-13.9c-5.9-3-17.3-2.2-20.3,2.1
		c-6.9,9.7-9.6,21.2-12.7,32.4c-2.2,7.6-3.3,15.6-4.9,23.4c-2,9.9-3.4,19.7-1.4,29.8c1.4,7,1.5,14.4,3.3,21.3
		c2.5,9.8,0.9,21.3,11.1,28.1c3,9.1,12.2,7,18.4,10.1c6,3,11.3-1.2,16.1-4.2c11.2-7,22.6-13.9,32.8-22.2
		c6.6-5.4,12.1-12.8,16.5-20.2c4.7-8,7.7-17.1,11.2-25.8c4.3-10.9,8.8-21.7,12.2-32.9c1-3.2-0.7-8.1-2.7-11.2
		c-2.5-3.9-7.1-4.5-11.5-2.4c-6.6,3.1-13.6,5.6-17.4,12.6c-0.5,0.8-1.4,2.1-2,2.1c-4.8-0.1-5.7,4-7.4,6.9c-3.4,5.7-6,11.9-9.4,17.6
		c-3,5.1-7.2,9.5-8.3,15.7c-1.1,6.6-2.7,13.1-3.5,19.7c-0.3,2.5,0.6,6.2,4,5.4c7.2-1.8,14.3-5.4,17.6-12c4.9-9.8,8-20.5,12-31.1
		c0.6,1.4,2.3,3.4,2.1,5.3c-0.5,5.1-1.7,10.2-2.9,15.3c-2.6,11-8.3,20.1-17,27.2c-3.8,3.2-8.2,5.8-12.5,8.3
		c-3.7,2.2-10.3,0.7-11.3-2.5c-1.8-6.3-2.4-12.5-0.6-19.2c4.3-16.2,11.3-31.2,19.5-45.7c6.1-10.9,11.7-22.3,22.6-29.9
		c6.8-4.7,11.7-11.1,12-19.9c0.1-2.1-0.5-5.7-1.7-6.2c-8.2-3.5-16.7-6.4-25.1-9.6C1000.7,804.7,996,803,990.7,801z M308.3,391.5
		c5.5,0,9.1,0,12.8,0c6,0,12-0.3,18,0.1c11,0.7,21.9,1.8,32.9,2.9c3.6,0.4,4.6-1.1,4.7-4.5c0.2-4.7,0.8-9.5,1.8-14.1
		c2.2-10.3,4.7-20.5,7.3-30.7c4.7-18.2,11.1-35.8,21.9-51.3c5.4-7.8,12.1-14.7,18.8-21.5c3.8-3.8,8.5-6.8,13.1-9.8
		c2.5-1.7,5.7-2.3,8.3-3.9c8.1-5.2,15.8-10.9,24.1-15.7c4.5-2.6,6.1-5.5,5.8-10.5c-0.8-11.3-13.8-19.7-23.8-14.7
		c-5.9,3-11.8,6-17.5,9.4c-10.4,6.1-20.3,13.3-31,18.7c-10.6,5.3-19.4,13.2-29.3,19.4c-8.2,5.1-15,11.6-21.5,18.6
		c-3.6,3.8-6.9,7.4-8.6,12.6c-1.5,4.5-4.2,8.6-6.7,12.8c-1.3,2.2-3.4,3.9-4.6,6.1c-3.2,6-6.4,11.9-9,18.2c-4.2,10-8.4,20-11.6,30.4
		C311.5,372.5,310.3,381.6,308.3,391.5z M1300.4,800.7c-6,2.1-11.6,3.4-16.6,6c-4.6,2.4-9.9,5.1-12.6,9.3c-7,10.7-13,22.1-18.9,33.5
		c-2.5,4.9-4.9,10.2-5.4,15.6c-0.3,4.4,1.6,9.4,3.8,13.4c7.6,14.1,15.7,27.9,23.6,41.8c1.8,3.2,4.4,4.4,8.2,4.3c8-0.3,16,0,24-0.1
		c5.6-0.1,11.2-0.6,16.9-1c1.6-0.1,3.2-0.5,4.8-1c9.7-2.9,20.5-4.2,24.9-15.7c0.4-1,1.7-1.6,2.4-2.5c6-8.2,13.9-15.3,15.9-26
		c1.4-7.5,4.8-14.7,2.4-22.5c-2.9-9.3-5.1-19-9.2-27.6c-4.7-9.9-12.2-17.6-24.4-18.6c-1.3-0.1-2.7-1.1-3.9-1.9
		c-3.3-2.1-6.7-6.4-9.7-6.1c-8.6,0.9-17.6-2.6-25.5,6.4c-10,11.4-19.5,22.9-26.3,36.5c-0.4,0.7-0.5,1.8-0.2,2.6
		c4.7,11.8,9.2,23.6,14.1,35.3c4,9.4,7.3,13.3,18.2,12.4c9.5-0.8,19.1-1.2,28.6-2.2c1.5-0.1,3.5-1.9,4.1-3.4
		c3.4-8.6,6-17.3,5.2-26.8c-0.2-2.5,0.5-5.2,1.4-7.6c1.4-3.5-0.4-5.1-3.2-5.9c-7.5-2.1-15-4.1-22.6-5.7c-1-0.2-3.4,1.4-3.5,2.3
		c-0.7,5.7-0.9,11.5-1.1,17.2c0,0.7,0.8,1.7,1.5,2.1c3.4,2.4,7.1,4.4,10.4,7c1,0.8,1.6,3.5,1,4.2c-0.8,1.1-3.1,1.9-4.5,1.6
		c-2.8-0.6-5.8-1.6-8-3.4c-4.5-3.8-10.1-7.1-8.6-14.7c1.1-5.6,1.5-11.4,2.1-17.1c0.6-6.3,4.4-8.8,10.5-7.1c7.4,2,14.8,3.7,22.3,5.3
		c6.4,1.4,11.7,6.2,11.2,11.2c-0.8,8.1-1.7,16.3-3,24.3c-0.9,5.3-1.9,10.7-4.1,15.5c-2.7,5.8-7.8,7.7-14.7,7.4
		c-10.3-0.4-20.7,1.2-31.1,1.5c-2.8,0.1-5.9-1.5-8.5-3c-7-4.1-8.7-11.8-11.3-18.7c-3.8-10.2-7-20.6-10.4-30.9
		c-0.4-1.3-0.8-3.1-0.2-4.2c2.7-5.3,5.4-10.7,8.8-15.5C1285.6,819.1,1292.7,810.5,1300.4,800.7z M1053,835.5c2.4-6.2,5-12.1,7-18.1
		c1-3.1,2.1-6.7,1.5-9.6c-1.9-9-4.1-17.9-7.1-26.7c-3-9-7.1-17.1-12-25c-8.2-13.3-16.1-26.8-29.5-35.8c-1.1-0.7-1.9-1.9-2.6-3
		c-4.9-7-9.7-14-14.7-21.1c-2.8,6.5-5.6,12.4-7.9,18.5c-5.2,13.6-10,27.4-15.2,41.1c-5.4,14.3-11,28.5-16.5,42.8
		c-1,2.6,0.1,3.8,2.7,3.9c6.5,0.3,13,0.7,19.2,1c1-2.5,2.3-5.5,3.5-8.5c3.1-7.6,7.7-9.1,14.9-5.4c6.2,3.2,12.7,6,19.1,8.8
		c9.1,4,18.5,7.3,27.4,11.8c6.4,3.2,7.6,5.6,4.1,11.1c-1.7,2.7-2.3,6-3.4,9.3C1046.6,832.4,1049.6,833.9,1053,835.5z M1240.1,835.4
		c-3.9,0.4-6.8,1.1-9.7,1c-8.9-0.2-17.8-0.7-26.7-0.9c-4.2-0.1-8.5,0.2-12.7,0.3c-6.9,0.2-13.9,0.1-20.7,0.7
		c-11.9,1.1-23.8,2.5-35.6,4.1c-3.9,0.5-8.3,0.3-10.4,5c-0.4,0.9-2.1,1.6-3.3,1.8c-3.9,0.5-7.8,0.7-11.7,1.1
		c-1.8,0.2-3.7,0.7-5.5,0.9c-4.6,0.6-9.3,1-13.9,1.6c-0.4,0.1-1,1.1-1,1.6c1,8.1-4.4,16.7,1.7,24.4c0.2,0.3,0,0.9-0.1,1.7
		c-1.2-0.4-2.1-0.8-3.9-1.5c0,4.4,0,8.3,0,12.7c6-0.5,11.9-0.7,17.8-1.5c10.7-1.5,21.3-3.4,32-4.9c4.1-0.6,8.2-0.9,12.3-1
		c3.6,0,7.2,0.8,10.8,0.8c1.4,0,3.1-0.9,4-2c2.4-2.9,4.7-5.9,6.7-9.1c2.8-4.7,8.8-6.5,10.6-12c0.2-0.5,1.6-0.5,2.4-0.7
		c0.4,0.4,0.7,0.8,1.1,1.1c-4.9,8-9.6,16-19.1,22.1c3.5,0.3,6,0.7,8.4,0.7c7.3,0.1,14.5,0.3,21.8,0c6.5-0.3,13-1.3,19.5-1.8
		c3.7-0.3,7.4-0.4,11.1-0.1c3.8,0.4,7.5,1.4,11.9,2.3c-2-4.8-3.3-8.6-5.2-12c-2.8-5.1-2.9-9.9-0.6-15.2
		C1234.8,849.9,1237.2,843.1,1240.1,835.4z M1101.2,529.8c5,3.5,9.6,6.4,13.9,9.6c2.7,2.1,4.7,5.3,7.7,7c5.5,3.1,11.2,6.6,17.3,7.9
		c14.2,3.1,24.8,14.1,39.3,16.8c5,0.9,9.4,5.6,14,8.7c5,3.4,9.8,7,14.7,10.5c3.5,2.5,7,4.8,10.6,7.2c0.7,0.5,1.5,0.8,3.5,1.9
		c0.9-7.5,1.8-14,2.4-20.6c0.5-5.7,0.7-11.5,1-17.3c0.4-6.8,1.8-13.8,0.7-20.4c-1.1-6.8-4.8-13.2-7.2-19.7
		c-7.8,3.4-15.8,8.3-25.5,5.3c-1-0.3-2.3,0.1-3.4,0.2c-7.5,0.4-15,2.5-22.6-0.1c-1-0.3-2.8,0.6-3.8,1.5c-4.3,4.2-6.5,4.3-11.3,0.7
		c-3.7-2.8-7.7-5-12.7-4.4C1127.2,526.2,1114.7,527.9,1101.2,529.8z M1004.6,553.9c-0.9-0.4-1.7-1.2-2.7-1.4
		c-11.9-2.2-23.5,0.3-35.2,2c-5.4,0.8-11,2.4-15.4-2.7c-0.6-0.7-1.8-0.8-2.6-1.3c-4.7-3.2-9.5-6.3-14.1-9.6
		c-6.5-4.7-12.7-9.7-19.2-14.4c-5.5-4-11.4-7.6-16.9-11.7c-9-6.7-17.9-13.7-26.1-20c-7.8,5.5-16.3,0.8-25.5,4.1
		c2.3,1.4,3.6,2.2,4.8,3c17.2,12.5,34.5,25,51.6,37.6c4.4,3.3,8.4,7.2,12.6,10.7c1,0.9,2.6,2.2,3.5,1.9c4-1.4,5,1.1,6.4,4
		c2.3,4.9,2.2,11.2,7.8,14.4c0.7,0.4,1,2,1.1,3.1c0.2,2.4,0,4.8,0.1,7.2c0.3,9.3,1.2,18.6,0.8,27.8c-0.2,5.3-0.6,10,4.3,13.3
		c-0.4,1.1-1.1,1.8-1,2.5c0.1,1.9,0.6,3.7,0.9,5.5c1.6-0.9,3.6-1.5,4.6-2.8c4.1-5.1,7.6-10.5,11.8-15.6c12-14.5,24.2-28.9,36.3-43.3
		C996.2,563.7,1000.2,559.2,1004.6,553.9z M752,364.8c0.5,2.6,0.6,4.2,1.2,5.7c1.7,4.9,3.8,9.7,5.4,14.6
		c4.6,13.7,9.3,27.4,20.1,37.9c9.1,8.9,16.3,19.7,27.9,26.1c6,3.3,11.2,7.4,18.8,6.6c6.8-0.7,13.8-0.4,20.6,0.4
		c6.5,0.8,11.8,0.6,16.6-4.9c4.5-5.2,9.9-9.5,15.5-14.7c-2.4-0.9-4.1-1.4-5.7-2.1c-6.3-2.8-12.7-5.2-18.7-8.4
		c-9.8-5.2-19.3-11-28.9-16.4c-11.3-6.4-22.8-12.4-33.9-19.2c-4-2.4-6.5-7.3-10.5-9.8C771.5,375.1,762.3,370.5,752,364.8z
		 M469.5,171.3c0.3-0.4,0.6-0.9,1-1.3c1.6,0.9,3.4,1.5,4.6,2.6c3.7,3.5,7.3,7.1,10.9,10.8c3.1,3.1,3.2,13.9,0,15.9
		c-5.2,3.3-10.6,6.4-16.6,10c11.1,4.4,16.7,13.1,17.3,24.8c6-2.6,11.6-5.4,17.4-7.5c5.7-2.1,10.3-5,12.7-10.9
		c3.2-7.9,8.5-15.8-0.7-23.2c-0.2-0.2-0.3-0.6-0.5-0.8c-7.9-11.5-16-22.8-23.7-34.5c-3.4-5.2-8.5-7.3-13.8-9.5
		c-10.1-4.3-20.2-6.5-28.6,2.9c-4.6,5.2-11.7,7.8-12.6,17.1c-1,10.5,1.5,19.3,5.9,28.1c1.4,2.7,3.6,4.9,7.5,4.7
		c9.3-0.4,17.9-3.2,26-7.5c5.5-2.9,5.4-3.3,1.6-8.9C475.2,179.9,472.4,175.6,469.5,171.3z M1397.6,891.6c6-0.4,12.4-0.8,18.8-1.3
		c6.3-0.5,12.6-1.2,18.8-1.8c6.4-0.6,12.9-0.7,19.2-2.1c5.7-1.3,11.6-0.5,17.7-2.3c-2.7-5.4-5.7-9.8-7.3-14.7
		c-2.6-7.7-4.3-15.7-6.5-23.6c-0.2-0.9-1.4-2-2.2-2.1c-10.3-1.1-20.6-2.4-30.9-3c-13.8-0.8-27.6-1.1-41.3-1.6
		c0.6,1.5,1.5,2.8,1.7,4.3c0.7,3.5,1.6,7.1,1.7,10.6c0.2,6.1-0.2,12.3-0.4,18.4c-0.1,3.5-0.3,7-0.6,10.6c-0.2,1.8-0.3,3.8-1.1,5.4
		c-0.7,1.4-2.2,2.4-3.9,4.2c3.5,0,5.8-0.1,8.1,0c4.1,0.2,5.1-1.7,4.2-5.4c-0.4-1.6-0.2-3.3-0.3-5c0.5-0.1,0.9-0.1,1.4-0.2
		C1395.6,884.9,1396.5,887.9,1397.6,891.6z M1168.5,263.7c-2.4,2.6-4.2,4.2-5.5,6c-1.9,2.8-5.1,5.9-5.1,8.7
		c0.3,12,1.7,23.9,2.7,35.9c0.4,4.4,0.8,8.7,1.4,14.7c11.1-9.4,21.2-17.9,31.2-26.5c0.7-3.7,1.4-7.6,2-11.4
		c1.4-8.2,3.2-16.4,4.2-24.6c0.8-6.5,0.5-13.2,1.2-19.8c0.2-2.1,2-5.9,3-5.8c4.2,0.2,4.7-2.6,5.9-5.3c1.7-3.5,3.7-6.9,5.6-10.3
		c2.5-4.6,5.1-9.2,7.7-13.8c-0.4-0.6-0.9-1.2-1.3-1.7c-23.2,9.5-46.4,19.1-70.3,28.9c1.6,9.2,3.3,18.9,5.1,29.6
		c6-6.8,11.2-12.7,16.4-18.5c7.2-8.3,13.1-12.8,19.1-14c-4.2,5.8-9,11.1-13.6,16.6c-1.8,2.2-4.5,4.7-4.6,7.2
		c-0.3,6,0.7,12.2,0.9,18.2c0.1,2-0.7,3.9-1.1,5.9c-0.8-0.1-1.7-0.1-2.5-0.2C1170.2,277.2,1169.4,270.8,1168.5,263.7z M778.9,872
		c-0.6,0.3-1.2,0.6-1.8,0.9c-0.8-1-1.9-1.8-2.4-2.9c-2.5-5.1-4.9-10.3-7.2-15.5c-2.3-5.2-6.8-7.4-12.5-5.7
		c-4.1,1.2-8.1,2.4-10.6,6.7c-1.7,2.8-4.8,4.9-7.6,6.9c-3.5,2.4-2.9,4.6-0.5,7.2c0.9,1,2.1,2.3,2,3.3c-0.9,8,6.1,17.3,13.7,17.5
		c9.7,0.2,19.3,0,28.2,0c3.3-4.8,6.3-9,9.3-13.2c3.7-5.4,7.5-10.8,11.2-16.3c0.4-0.6,1-1.8,0.8-2.2c-3.2-4.6-3.6-10.8-9.4-14
		c-7-3.9-13.7-8.5-20.1-13.5c-11.5-9-24-16.3-37.1-22.5c-2.7-1.3-5.9-1.6-9.4-2.5c4.4,13.7,10,15-12.5,32.3
		c5.5,2.5,10.9,5.2,16.7,7.2c1.3,0.5,3.7-0.9,5.2-2c3.1-2.3,5.5-5.8,8.8-7.4c2.7-1.3,6.3-0.7,9.5-0.5c1.5,0.1,2.8,1.8,4.3,2
		c8.7,1,13.3,6.1,15.5,14.3c0.8,3.3,2.6,6.3,3.6,9.6C777.5,865,778.1,868.5,778.9,872z M1081.5,398.8c-1.5-0.4-3.1-1.3-4.5-1.1
		c-4.9,0.7-9.6,2.2-14.5,2.8c-7.5,0.9-15,1.4-22.5,2.1c-1.7,0.2-4.1,0.2-5,1.3c-4.6,5.5-8.7,11.5-13.2,17.1c-2.8,3.4-6,6.5-9.1,9.5
		c-3,2.9-6.1,5.7-9.1,8.5c-1.7,1.6-3.3,3.5-5.3,4.4c-4.7,1.9-6.7,4.4-6,9.2c13.3,1.3,26.6,2.7,40,3.9c1.3,0.1,3.2-0.3,4-1.2
		c4.3-4.6,8.7-9.1,12.4-14.2c6.5-8.8,12.3-18.2,18.9-26.9C1071.5,408.8,1076.5,404.2,1081.5,398.8z M395.6,527.4
		c2.2,2.4,4.1,4.9,6.5,6.8c8.5,6.6,17.2,13.1,26,19.4c1.5,1.1,4.3,1.5,6.1,0.9c6.7-2.4,13.3-5.2,19.8-8.1c4.7-2.1,4.4-2.9,1.2-7.1
		c-8.1-10.5-16.7-20.8-15.5-35.4c0.3-3.2-1.2-5.2-4.2-5.7c-4.8-0.7-9.6-1.4-14.4-1.3c-5.2,0.1-10.3,1.1-15.5,1.5
		c-2.5,0.2-5.1,0-7.6,0C399.2,508.7,404.3,518.4,395.6,527.4z M940.5,457.5c7.8,0,14.2,0,20.5,0c1.1,0,2.1-0.7,3.1-1
		c4.1-1.3,8.1-3.3,12.3-3.8c4.7-0.5,9.2,0.4,10.6-5.9c0.2-1.1,1.7-2,2.7-2.9c5.8-5.2,11.9-10.1,17.3-15.6c6.3-6.4,12.1-13.3,18.1-20
		c1.5-1.7,2.9-3.4,4.9-5.8c-3.6-0.4-6.4-1.2-9-1c-8.8,0.8-17.6,2.5-26.4,2.6c-6.4,0.1-9.2,3.9-12.5,8.1c-4.2,5.3-8.6,10.4-13.2,15.3
		c-8.3,8.6-16.9,17-25.3,25.5C942.7,454,942,455.3,940.5,457.5z M786.3,455.4c-2.9-3.7-5.1-6-6.8-8.5c-6.5-9.7-12.7-19.7-19.5-29.3
		c-4.5-6.3-3.7-14-6.4-20.8c-2.2-5.2-4.3-10.4-6.4-15.6c-0.8,4-1.3,7.9-2.4,11.6c-3.8,12.4-8,24.7-11.8,37.2c-0.5,1.8,0,4.2,0.8,6
		c2.5,6.3,5.3,12.5,8.2,19.4C755.7,455.4,770.4,455.4,786.3,455.4z M1013.2,539.5c-3.4-5-6.6-10.6-10.7-15.4
		c-8.5-10-17.4-19.7-26.3-29.3c-1.1-1.2-3.2-2.1-4.8-2.1c-12.5,0-25.1,0.3-37.6,0.5c-0.3,0.6-0.5,1.2-0.8,1.8
		c1.8,1.6,3.5,3.3,5.3,4.8c13.8,11.8,27.6,23.6,41.4,35.5c1.5,1.3,2.9,4,4.4,4.1C993.8,539.7,1003.5,539.5,1013.2,539.5z
		 M1057.3,541.5c-1.5-2.2-2-3.2-2.7-4c-13-14.4-26-28.8-39.1-43.1c-0.9-1-2.5-1.8-3.7-1.9c-8.5-0.2-17-0.1-25.4,0
		c-1.1,0-2.2,0.8-2.5,0.9c9.5,11.8,20,22.7,27.9,35.3c7.2,11.4,16.1,14.3,28.3,12.9C1045.3,541,1050.6,541.5,1057.3,541.5z
		 M869.2,456.5c0.3,0.5,0.6,1,0.9,1.5c2.9-0.8,5.7-2.2,8.6-2.2c6.9-0.1,13.8,0.3,20.8,0.9c3.1,0.2,5.1-0.5,7-3.2
		c3.9-5.6,8-11.2,12.5-16.4c5.6-6.5,11.6-12.7,17.7-18.8c4.1-4.1,8.7-7.8,13.1-11.8c-4.8,0-9.4,0-14,0c-5.5,0-11.3,1.1-16.4-0.3
		c-4.9-1.4-6.1,0.7-7.7,4c-0.4,0.9-0.9,1.7-1.5,2.5c-7.4,8.6-14.7,17.5-22.4,25.8c-4.6,4.9-10.1,9.1-15,13.7
		C871.2,453.4,870.3,455,869.2,456.5z M983.8,405.6c-3.9,0.3-6.5,0.1-8.9,0.6c-8.3,1.8-17.7-3.3-25.1,4.2
		c-3.7,3.7-8.2,6.6-11.7,10.4c-6.8,7.3-13.3,14.9-19.7,22.5c-3.4,4-6.4,8.3-9.4,12.2c7.9,0.5,15.2,0.7,22.4,1.5
		c3.3,0.4,5.5,0.2,8-2.6c7.7-8.9,15.9-17.4,23.9-26.1C969.7,421.3,976.2,414,983.8,405.6z M977.1,538.2c-2.8-1.9-5.2-3.2-7.3-5
		c-11.4-9.8-23-19.4-34-29.6c-6.2-5.7-12.5-9.5-21.2-8.2c-1.9,0.3-3.9-0.6-5.8-0.6c-6.7-0.1-13.3,0-20.9,0c4.4,3.8,7.7,7.2,11.5,9.9
		c14.2,10.1,28.6,20.1,43,30.1c4.7,3.2,9.6,5.3,15.5,4.7C964,538.9,970.3,538.6,977.1,538.2z M1156.5,370c2,0.9,3.9,1.6,5.8,2.5
		c8.8,4.3,18.4,2.5,27.6,3.9c5.2,0.8,10.4,0.3,15.3-2.7c4.7-2.9,10.2-4.7,14.6-8.1c3.7-2.9,9.9-4,9.6-12.1
		c-4.1,1.2-7.8,2.4-11.6,3.4c-1.2,0.3-2.5,0.3-3.8,0.3c-2.3-0.1-4.6-0.4-6.8-0.6c-3.3-0.3-6.9,0.2-9.8-1c-9.2-4-18.1-8.5-19.8-20.1
		c-0.1-0.6-0.7-1.1-0.9-1.5c-2,1.1-3.9,3-5.8,3c-6.1-0.1-9.3,3.6-7.6,9.6c1.6,5.4,2.5,10.5-1.4,15.4
		C1160,364.3,1158.5,366.9,1156.5,370z M455.8,565.9c3.5,7,6.9,14.4,10.9,21.5c2.8,5,5.5,9.7,2.5,15.8c12.8,0,25,0,38.2,0
		c-10.3-20.1-21.3-38.9-36.1-55.2C466.1,554,461.2,559.7,455.8,565.9z M363.4,661c1.7,2.5,2.6,4.1,3.7,5.4c3.4,3.9,5.4,9.1,12.5,8.2
		c12.6-1.6,25.2-2.7,37.9-3c10.6-0.3,20.1-4.1,29.8-7.3c0.8-0.2,1.6-2.6,1.3-3.4c-1.5-3.2-3.3-6.4-5.4-9.3c-0.8-1.1-3.3-2-4.5-1.6
		c-21.2,6.9-42.9,9.3-65,9.4C370.4,659.6,367.2,660.4,363.4,661z M1099.5,539.7c-3.2-1.9-5.7-3-7.8-4.6c-7-5.2-13.9-10.7-20.9-15.8
		c-6.6-4.9-13.5-9.4-20.1-14.2c-5.9-4.3-11.6-8.9-17.3-13.3c-2.7-2.1-10.8-1.5-14.2,1.5c6.1,5.9,12.2,11.6,18.1,17.5
		c7.4,7.5,14.8,15,21.8,22.9c3.6,4,6.2,8.1,12.7,7.6c8.1-0.5,16.2,0.1,24.3,0.1C1096.9,541.4,1097.7,540.6,1099.5,539.7z
		 M374.5,425.2c0.3-0.7,0.6-1.4,0.9-2.1c-1.5-1.8-2.7-4.2-4.7-5.3c-2-1.1-4.7-0.9-7.2-1.3c-8.9-1.3-17.8-2.9-26.7-3.8
		c-8.7-0.8-17.5-1.1-26.2-1.1c-3,0-7.9,0.5-8.8,2.3c-2.7,5.5-3.9,11.8-6,18.7C322.9,430.1,348.7,427.6,374.5,425.2z M378.6,442.7
		c-17.4-1.8-34.6-3.5-51.8-5.2c-4.4-0.4-9.1-1.6-13.2-0.6c-3.5,0.9-6.7,1-10.2,0.8c-7.9-0.5-7.8-0.3-10,7.4
		c-0.7,2.4-1.7,4.8-2.8,7.8c8-0.4,15.5-1.1,23.1-1c19.9,0.1,39.8,0.1,59.6,1.2c5.8,0.3,5.5-1.8,5.3-5.5
		C378.6,446.3,378.6,445.2,378.6,442.7z M461.9,596.6c-4-8.2-8.2-15.1-10.8-22.6c-2-5.8-4.7-5.2-9.4-4.2c-6.7,1.5-13.7,1.8-21.1,2.7
		c0.3,0.8,0.9,2.8,1.8,4.5c4.4,8.1,4.1,19.1,14.5,23.4c0.1,0.1,0.2,0.2,0.3,0.4c2.8,4.5,5.5,9,8.8,14.5c1-2.2,1.7-3.8,2.5-5.4
		c0.8-1.5,1.4-3.3,2.7-4.5C454.7,602.3,458.4,599.5,461.9,596.6z M392.2,699.1c21.2-3.6,43-7.3,64.8-11c0-0.6-0.1-1.2-0.1-1.8
		c-12.6-1.6-25.3-2.9-37.8-5c-13-2.2-25.6,1-39.4,1C384,688.3,387.6,693.1,392.2,699.1z M309.4,405.9c23.7,0.8,46.3,2.1,68.2,9.5
		c0-1.7-0.1-3.8,0-6c0.3-4.6-1.2-7.6-6.3-8.1c-4.7-0.4-9.4-1.5-14.1-1.8c-15.6-1.1-31.3-1.9-47.8-2.9
		C309.4,400.5,309.4,403.3,309.4,405.9z M1054.1,491.5c4.2,3.3,8.9,6.4,13,10.2c5.8,5.3,11,11.2,16.8,16.6c4.9,4.5,9.7,8.7,17.7,5.5
		c4.8-2,10.6-1.5,16-2.3c1.2-0.2,2.4-0.6,3.6-0.9c-6.4-1-12.5-1-18.7-1c-5.1,0-9.5-2.7-10.6-7.5c-1.4-5.8-2.1-11.8-3.3-17.7
		c-0.2-1-1.2-2.7-1.8-2.7C1076,491.5,1065.2,491.5,1054.1,491.5z M468.2,691.6c-23.3,9.2-47.8,10-71.5,14.4c0.1,5.5,3.5,5.9,7.5,5.4
		c13-1.6,26-2.9,38.9-5.1c9.3-1.6,18.4-4.6,28-7C469.8,695.9,469.1,693.8,468.2,691.6z M1100.1,492.4c0.2,2,0.4,4.2,0.5,6.5
		c0.4,6.2,1.9,7.6,8,7.6c4,0,8,0,12,0c3,0,6,0,8.9,0c0.2-0.4,0.4-0.8,0.6-1.2c-5.5-5.1-11-10.2-16.6-15.2c-0.5-0.5-1.6-0.6-2.3-0.4
		C1107.5,490.5,1103.9,491.4,1100.1,492.4z M379.6,440.1c0-3.1-0.2-5,0-6.7c0.8-5.1-2.9-5.6-6-5.2c-10.1,1.3-20.2,3.1-30.3,4.7
		c0,0.3-0.1,0.7-0.1,1C355.1,436,367,438,379.6,440.1z M433,635.5c-5.7,0-10.4,0.1-15.1,0c-4.7-0.2-9.7,4.2-9.2,8.7
		c0.1,1.2,1.9,3.3,2.6,3.1c7.9-1.3,15.6-3,23.4-4.7c0.6-0.1,1-1.1,1.1-1.2C434.7,639,433.7,636.9,433,635.5z M463.2,681
		c0.2-0.5,0.4-1,0.6-1.5c-3.4-3-6.8-6-10.3-8.9c-0.3-0.3-1.2,0.2-1.8,0.4c-5,1.7-10,3.5-14.9,5.3c0,0.5-0.1,0.9-0.1,1.4
		C445.5,678.7,454.3,679.9,463.2,681z"/>
	<path class="st0" d="M979.5,201.5c3.6,4.5,6.3,8.1,9.1,11.4c6.1,7.2,7.2,16.3,8.8,24.9c1.4,8.2,1.1,16.8,1.2,25.2
		c0.1,8.9-2.4,17.7-7.3,24.5c-8.4,11.7-22.4,17.6-37.8,9.1c-9.2-5.1-13.2-14.4-16.7-23.6c-2.4-6.5-3.5-13.4-6-20.9
		c-5.5,14.3-10.9,28.5-16.4,42.8c-0.2,0-0.4-0.1-0.6-0.1c0.1-1.3,0-2.7,0.2-4c1.9-10.6,3.4-21.3,5.8-31.7c1.7-7.4,4.3-14.7,7.5-21.6
		c3.6-7.8,7.9-15.3,12.4-22.5c4-6.4,8.4-12.7,13.4-18.3c5.1-5.8,12.2-8.5,19.9-9.3c6.9-0.7,13.7-1.7,20.6-1.9
		c13.3-0.4,25.2,4.7,36.9,10.3c16,7.8,29.4,19,41.1,32.2c2.5,2.8,3.8,6.6,5.4,10.3c-4.8-3.2-10-5.4-14.2-9.9
		c-3.6-4-8.8-6.6-13.4-9.6c-5.5-3.6-10.8-7.4-16.7-10.2c-6.2-3-12.9-6.1-19.6-6.8C1002.4,200.7,991.6,201.5,979.5,201.5z"/>
	<path class="st0" d="M1066.6,239.7c-1.6,4-2.6,8.3-4.8,12c-9.3,15.3-21.5,28.4-34.4,40.7c-3.9,3.7-9.8,5.9-15.1,7.6
		c-9.1,3-18.9,4.1-27.6,7.8c-8.8,3.7-16.3,0.4-24.4-1.1c-8-1.5-16.3-1.8-24.3-3.3c-4.8-0.9-9.5-3-14.2-4.6c0.1-0.4,0.2-0.9,0.3-1.3
		c6.2,1.2,12.3,2.6,18.5,3.5c6.8,1,13.6,1.7,20.5,2.5c12.8,1.5,25.2-1.4,37.6-4.1c10.6-2.4,20.1-7.9,28.3-14.9
		c14.1-12,25.8-26,34.6-42.4c0.7-1.3,2-2.3,3-3.4C1065.2,239,1065.9,239.3,1066.6,239.7z"/>
	<path class="st0" d="M899.6,388.3c33.7-15.5,70.5-17.2,106.5-23.6c1.9-7,6.3-5.7,10.3-1.8c2.8,2.7,5.8,5.2,8.6,7.9
		c0.8,0.8,1.2,2,1.8,3c-1.2,0.6-2.3,1.7-3.5,1.7c-10.8-0.2-21.6-1.3-32.3-0.7c-10.4,0.5-20.7,2.7-31.1,4.1
		c-5.4,0.7-10.8,1.5-16.2,1.7c-11,0.5-21.7,2.4-32.3,5.5C907.7,387.1,903.6,387.5,899.6,388.3z"/>
	<path class="st0" d="M768.6,361.6c11.7-1.1,24.8,3.1,36.6-2.6c11.4-5.5,22-12.8,30.3-22.8c0.7-0.9,1.7-1.6,2.7-2.6
		C830.5,357.9,797.7,377.3,768.6,361.6z"/>
	<path class="st0" d="M863.1,355.8c-2.1,0.2-4.2,0.9-6.2,0.6c-1.2-0.2-2.1-1.8-3.2-2.7c1.1-0.7,2.5-2.2,3.3-2c2.2,0.6,4.2,2,6.3,3.1
		C863.2,355.1,863.1,355.4,863.1,355.8z"/>
</g>
</svg>
