<?xml version="1.0" encoding="utf-8"?>
<!-- Generator: Adobe Illustrator 19.0.1, SVG Export Plug-In . SVG Version: 6.00 Build 0)  -->
<svg version="1.1" id="Layer_1" xmlns="http://www.w3.org/2000/svg" xmlns:xlink="http://www.w3.org/1999/xlink" x="0px" y="0px"
	 viewBox="0 0 465.5 497.8" style="enable-background:new 0 0 465.5 497.8;" xml:space="preserve">
<g>
	<path d="M430.2,334.9C430.2,334.9,430.2,334.9,430.2,334.9c0.2-0.1,0.3-0.2,0.4-0.4c-0.1,0.1-0.3,0.1-0.4,0.2
		C430.2,334.8,430.2,334.8,430.2,334.9z"/>
	<path d="M422.9,334c-5.3,1.7-10.1,5.2-15.4,6.3c-5.4,1.1-9.3,5.1-15.5,5.2c-8.6,0.2-17.1,3.6-25.6,5.7c-0.3-0.3-0.6-0.6-1-0.9
		c1.4-1.2,2.7-3.4,4.1-3.5c5.6-0.2,9.7-2.8,13.4-7.2c-2.8-0.3-5.7-0.5-8.3,0.3c-5.3,1.8-10.4,4.1-15.4,6.1c-0.4-4-0.8-6.9-1.2-11.1
		c3.6,2.2,6.6,4,9.6,5.8c1.1-0.5,2.8-1.4,5.3-2.6c-1.5-2.3-2.9-4.6-4.3-6.8c-0.4,0.2-0.7,0.4-1.1,0.6c0.5,1.4,1.1,2.9,1.8,4.7
		c-2-0.5-3.6-0.9-5.1-1.3c-7.3-1.9-8.1-1.6-11.8,5.2c-2.1,3.8-4.2,7.6-6.4,11.4c-6.8-3.6-13-7-19.4-10.4c0.9-2.2,1.3-3.7,2.1-4.9
		c3.2-4.7,2.6-8.7-2.1-11.8c-4-2.6-7.8-5.6-12.1-7.7c-3.9-1.9-4.8-4.8-5.4-8.6c-0.3-1.8-1.6-3.9-3.1-5c-6.1-4.4-12.4-8.5-18.7-12.7
		c0,0,0,0-0.1-0.1c0,0-0.1,0-0.1,0c0,0,0,0,0,0c0,0,0,0,0,0l0.2,0.1c-4-2.9-8.1-5.8-12.1-8.7c-6-4-11.9-8.1-17.9-12.1
		c-2.9-1.6-5.9-3-8.6-4.8c-9.2-5.8-18.2-11.8-27.7-18c-2.4,2.7-4.5,5.1-6.8,7.7c5.3,6.3-2.3,10.1-2.9,16.5
		c-6.3-4.1-11.7-7.6-16.2-10.5c0.3-2.8,1-4.9,0.5-6.8c-0.3-1-2.4-1.6-3.8-2.2c-1-0.4-2.2-0.4-3.2-0.8c-1.9-0.8-3.6-2-5.5-2.7
		c-2.2-0.8-4.8-0.7-6.6-1.9c-7.6-5-15-10.4-22.6-15.4c-2.5-1.6-5.5-2.2-8.6-3.4c0.2-2.8-10.5-10-14.7-8.2c1.8,1.5,3.4,2.8,5,4.1
		c-0.3,0.7-0.7,1.8-1.1,2.8c0.3,0.2,0.5,0.3,0.8,0.5c0.6-0.6,1.2-1.1,2-1.9c2.6,2.6,5.3,5.2,8.4,8.3c0.9,0.4,2.8,1,4.4,2.2
		c7.9,5.8,15.7,11.8,23.5,17.7c-1.1,0.1-2.5,0.6-3.2,0.1c-5.8-3.9-11.3-8.1-17.1-12c-1.7-1.1-4.1-1.3-6.4-1.9
		c-0.3,2.6-0.5,4.4-0.7,6.5c-2.6-1.5-4.8-3.8-7-3.8c-4.2,0.1-4.1,0.5-5.2-2.6c-0.5-1.4-1.5-2.6-2.6-3.7c-2-2.1-6.1-4.1-5.9-5.9
		c0.3-3.4-2.2-3.5-3.5-4.9c-0.8-0.9-1.9-1.6-2.8-2.4c-1.9-1.2-4.5-2-5.7-3.8c-2.4-3.4-3.6-2.3-4.3,0.2c-5.1-1.8-9.8-3.5-14.5-5.3
		c0,0,0.6-1.1,1.2-2.1c-0.7,0.6-1.5,1.3-2.2,1.9c-2.9-4.3-5.8-8.6-8.7-12.9c-0.7,0.3-1.3,0.6-2,0.9c-0.1,3.4-0.2,6.7-0.5,10.1
		c-0.1,0.9-0.5,2.3-1.2,2.6c-5.5,2.5-4,8.1-5.7,10.7c2.2,0.9,3.7,2,5.4,2.2c2.2,0.2,4.6-0.3,6.8-0.6c0-0.2,0-0.3,0-0.5
		c-1.1-0.2-2.2-0.4-3.2-0.6c-0.1-0.5-0.2-1-0.2-1.5c4.5,0.2,9.4,2.6,13.2-1.2c0.2-0.2,2.1,1.5,3.3,2.2c0.9,0.5,2,0.8,3.7,1.4
		c-1.3,2.3-3,5.2-4.8,8.3c0.5,0.6,1.3,1.7,2.4,2.5c2.6,1.9,5.2,4,8.2,5.2c2.7,1.2,5.9,1.4,8.9,2.1c0.1,0,0,1.2,0,2.1
		c6.9-5.7,8.2,4.5,13.2,4.1c-1.2,0.6-2.4,1.2-3.6,1.8c0.2-0.5,0.3-0.9,0.5-1.4c-1.5-0.9-3-1.8-4.1-2.5c0,2.5,0,4.5,0,6.8
		c1.1,0.1,2.2,0.3,4.5,0.6c-1.8-0.8-2.3-1-3.4-1.5c4.2-1.1,8-2.6,10.4,2.1c-1.5,2-2.8,3.9-4.2,5.8c0.7,0.4,1.4,0.8,2.6,1.6
		c-4.7,1.1-8.7,2-12.6,2.9c0,0,0-0.1,0-0.1c-6.5,2.2-13,4.6-19.8-0.8c2.2,0.1,3.8,0.3,6.4,0.4c-1.5-2.1-2.5-3.5-2.9-4.1
		c-2.4,0.9-3.9,1.4-5.3,2c0.3,1.7,0.6,3.3,0.9,5c-2.2,0.1-4.3,0.3-6.5,0.4c-7.8,0.4-10.9,7.3-13.3,12.4c-2.8,6.2-4,13.9-1.7,21
		c1.7,5.2,4.3,10.2,6.5,15.2c0.9,2,1.9,4,2.8,6c-0.4,0.2-0.8,0.4-1.2,0.6c-2.3-3.7-4.8-7.4-6.8-11.2c-2.6-4.8-4.8-9.9-7.2-14.8
		c0,0,0,0,0.1,0c0.3-1.1,1-3,0.7-3.2c-1.2-0.7-2.7-1.2-4.1-1.3c-1.9-0.1-3.9,0.2-6,0.3c-0.3-4.1-0.7-7.9-1-11.7
		c-0.5,0-1,0.1-1.6,0.1c0.2,3.3,0.6,6.6,0.4,9.8c-0.1,1.3-1.4,3.5-2.5,3.7c-4.5,1-9.1,1.4-13.7,2.1c1.2-0.7,2.3-1.4,2.7-1.6
		c-7.8,0.8-16.5,1.9-25.1,2.7c-3.9,0.3-8.1,0.7-8.2-6.4c-4,7,1.5,13.9-2.7,19.4c1.1,0.3,2.8,0.7,4.4,1.1c0,0.4,0,0.7,0,1.1
		c-5.5,0.9-11,1.8-17.6,2.9c3.4,6.6,6.2,11.6,8.6,16.8c2.2,4.9,5.9,5.3,10.5,4.5c1.3-0.2,2.9,0.4,4.2,0.9c2,0.9,3.9,2,5.9,3
		c1.1-0.2,1.7,1.4,2.3,1.4c7.4-0.3,11.7,5,16.8,8.9c1.7,1.3,4.5,2.8,6,2.2c8.8-3.5,17.4-7.7,26.1-11.5c3.8-1.7,8-2.5,11.5-4.6
		c4.1-2.4,10.7-0.8,12.5-7.3c0.1-0.4,3.9-0.6,4.8,0.2c3.8,3.7,7,8,10.7,11.7c2.6,2.6,5.5,5.8,8.8,6.7c9,2.5,18.2,4,27.4,5.9
		c0.3-0.5,0.6-1,0.9-1.4c0.8,3,1.6,6,2.5,9c0.5,1.7,0.9,3.7,2.1,5c4.9,5.3,10.1,10.1,18.3,12.4c-0.7,8-1.1,16.2-2.2,24.2
		c-0.8,6.2-2.2,12.3-3.6,18.5c-0.2,1.1-1.7,2.7-2.5,2.7c-4.4,0-6.4,2.7-8,6c-3,6.2-6.7,12.2-8.6,18.7c-2.4,8.5-3.2,17.5-4.9,26.2
		c-0.8,4-5.9,6.5-10.1,6.2c-3.8-0.3-9-1-11.3,1.1c-3.3,2.9-4.4,8.2-6.4,12.5c80.3,0,160.7,0,241,0c4.1-4.5,8.2-9.1,12.4-13.8
		c1.3,0.8,2.5,1.5,4.8,2.9c-1.1-2.6-1.7-4-2.1-5.1c2.2-1,4.1-2.2,6.2-2.6c1.6-0.3,3.7,0.2,5,1.1c5.9,4.4,11.6,8.9,17.2,13.6
		c0.9,0.8,1,2.5,1.5,3.8c1.3,0,2.7,0,4,0c-0.4-1.2-0.5-2.6-1.2-3.5c-2-2.4-4.3-4.5-6.4-6.7c-4.7-4.8-9.6-9.5-14.1-14.5
		c-1.3-1.4-2.5-3.6-2.3-5.4c0.5-5.9-1-11.1-3.6-16.2c-1.7-3.4-3.1-7-4.7-10.4c-1.8-3.8-2.7-8.4-8-8.3c0-8.3,0-16.2,0-23
		c5.4,0,10.7,0,16,0c1.1,0,2.4-0.2,3.2,0.4c5.5,4,10.9,8.1,16.2,12.3c3,2.4,6.5,4.7,9.8,1.5c2.7-2.6,5.2-6,6.3-9.5
		c1.2-3.9-1.5-5.9-5.5-4.6c-2.4,0.8-4.5,2.4-6.5,3.5c0-2.4,0-4.9,0-8c-2.1,1.1-3.3,1.8-3.8,2.1c-2.5-5.4-8-6.8-11.5-10.3
		c0.2-0.5,0.6-1.2,1.1-2.1c-6,0.9-13-2.8-20.9-10.5c-1.8,1.2-3.7,2.5-5.3,3.7c-2.1-1.2-4.3-2.4-6.7-3.7c1.2-1.9,2.2-3.6,3.3-5.3
		c-1.2-0.8-2.3-1.7-3.6-2.6c-1.6,1.4-3.1,2.6-4.6,3.8c-1.9-1.2-3.9-2.3-5.7-3.6c-0.8-0.6-2.1-1.8-1.9-2.4c0.4-1.5,1.4-3.8,2.5-4
		c3.5-0.5,7.2-0.2,10.9-0.2c0.3-0.5,1-1.9,1.6-3.1c-0.5-0.3-1.4-0.8-3.5-2.1c6.1-1.2,10.8-2.1,15.6-3.1c-2.7,0-5.3,0-8,0
		c-0.1-0.3-0.1-0.7-0.2-1c5.6-1.4,11.3-2.8,16.9-4.3c8.1-2.3,16.1-4.7,24.1-7.2c5.5-1.7,11.1-3.4,16.4-5.7c3-1.3,5.5-3.8,8.2-5.7
		c-0.2-0.3-0.5-0.7-0.7-1c-1.4,0.5-2.9,0.9-4.4,1.4c-0.3-1.2-0.6-2.3-0.9-3.5C427.8,334.5,425,333.3,422.9,334z M15.5,300.8
		c2.5,0.2,5.1,0,7.5,0.5c7.9,1.6,15.3-1.4,22.9-2.4C36.1,303.9,25.8,303.3,15.5,300.8z M39.6,309.6c-2.3,0.7-4.7,1.4-7.2,2.1
		c0.8-5.6,29.3-16.4,39-14.5c-1.3,0.2-3,0.1-3.9,0.8c-1.1,0.8-1.5,2.5-2.2,3.7c0,0-0.1,0-0.1,0C56.7,304.4,48.2,307,39.6,309.6z
		 M65.4,301.8c3-1,5.9-1.9,8.9-2.9c0.2,2.2,0.4,4.5,0.5,6.3C71.7,304.1,68.5,302.9,65.4,301.8z M164.4,470.6
		c-0.7,1.2-3.2,1.7-4.9,1.9c-0.5,0-1.7-2.4-1.7-3.6c0.1-2.6,0.9-5.1,1.5-8C166.6,464,167.4,465.3,164.4,470.6z M285.5,306.2
		c2.5,1.9,4.9,3.8,7.5,5.7c0.6,0.5,1.3,0.9,2.1,1.2c5.1,2,10.2,4,15.3,5.9c-1.4,5.1-3.7,6.6-8,4.2c-4.4-2.5-10.6-2.7-11.3-9.6
		c0-0.2-1.2-0.3-1.6-0.6c-1.9-1.4-3.7-2.9-5.5-4.3C284.4,307.9,284.9,307,285.5,306.2z M192.2,267.5c1.6,8,8.9,9.6,14.2,13.5
		c3.3,2.5,7.2,4.3,10.3,7c1.3,1.1,1.5,3.8,1.4,5.8c0,0.7-2.3,1.4-4,2.3c1.4,12.2,13,16.2,21.9,24.2c1.8-2.2,3.1-5.4,5.4-6.4
		c2-0.9,5,0.7,8.2,1.3c3.3-2.6,7.4-5.9,12.1-9.7c-1.4-1.2-3.9-3.2-6.4-5.2c-3.3-2.6-6.7-5.1-10-7.7c-2.2-2-4.3-4.3-6.8-5.9
		c-1.3-0.9-3.3-0.6-6.1-1c5-2.4,12.2,1.2,14.4,6.1c6.1,4.3,12.2,8.7,18.3,13c1.1,0.8,2.3,1.3,3.6,2.1c-1.5,0.6-2.9,1.1-3.6,1.4
		c1.2,3.8,2.2,7.1,3.2,10.3c1.6-0.5,4-1.7,6.3-1.7c5.2,0.2,7.8,5.3,6.1,12.1c-1,4-2.4,7.9-3.5,11.2c2.2,2.1,4.2,4,6.2,5.9
		c-4.2-1.2-8.3-2.5-13.1-4c-2.4,2.8-4.4,7-2.6,12.8c1.3,4.2-1.7,6.7-5.9,5.2c-4.2-1.5-8.1-3.8-12.4-5.8c4.6-6,8.5-11.1,12.5-16.1
		c-0.4-0.4-0.8-0.8-1.2-1.3c-1.3,0.2-2.7,0.5-4.6,0.8c0.6-1.4,1.1-2.5,1.4-3.2c-1.7-1.5-3.4-3.1-4.6-4.1c-3,4-6.1,8.1-9.4,12
		c-0.4,0.5-1.9,0-2.8,0c0,0,0,0,0,0.1c-3-1.8-6-3.6-8.8-5.2c-1,1-1.9,1.7-2.7,2.5c-3-1.7-5.9-3.2-9.3-5.1c3.2-2.7,5.3-6.5,10.4-5.4
		c0.9,0.2,2.2-1.6,3.3-2.5c1.7-1.3,3.4-2.6,5.2-4.1c-5.9-4.7-5.1,6.9-10.6,4.5c1.5-1.8,3-3.5,4.6-5.4c-5.7-4.1-11.4-8.3-16.7-12.1
		c0.2-11.1-10.3-13.1-15.9-19.1c0.3-0.3,0.5-0.7,0.8-1c2.4,1.5,4.8,3.1,7.3,4.6c2.2,1.3,3.8,0.4,6.5-1.8c-2.8,0-4.2,0-4.2,0
		c-0.3-1.8-0.1-3.3-0.7-3.8c-4.8-3.8-10.1-6.9-14.6-11.1c-3.4-3.2-5.6-7.5-8.5-11.4C189.4,262.5,191.8,265.5,192.2,267.5z
		 M252.2,357.8c3,1.4,5.9,2.7,9,4.1C257,363.9,253.2,362.1,252.2,357.8z M253.8,378.8c-0.5,1-1,2.1-1.2,2.5c-4.3-1-8-1.9-11.4-2.7
		c1.1-0.8,2.8-2.2,4.6-3.6C248.4,376.3,250.8,377.4,253.8,378.8z M271.6,393.4c-0.7,1-1.4,2-2.2,3.1c-3.6-2.2-6.6-4.1-10-6.2
		C265.1,385.7,266.6,396,271.6,393.4z M227.8,360.1c-1.5-1.3-3.1-2.7-5.6-4.8c7.5,0.1,10.6,3.6,11.1,11.2c0.4,4.8-2.4,7.9-9.7,9.2
		C227.2,370.1,222.3,363.5,227.8,360.1z M213,348.6c0.4-0.5,0.9-1.1,1.3-1.6c2.1,1.6,5,2.8,6.2,4.9c2.2,4.1,1,6.2-6,14.2
		c1-5.6,1.8-9.8,2.5-13.8C215.9,351.3,214.5,349.9,213,348.6z M218.2,339.3c2.2-2.7,2.3-2.7,10.6,2c-0.6,1.5-1.2,2.8-1.7,4.2
		c-0.2-0.1-0.4-0.1-0.6-0.2c0.2-0.8,0.4-1.6,0.7-2.8C224,341.4,220.9,340.3,218.2,339.3z M232.5,339.9c2.5,0.8,5.4,1.7,8.3,2.6
		c-0.3,1.2-0.2,2.9-0.9,3.3c-1.3,0.7-3,0.6-4.5,0.8C234.4,344.3,233.5,342.2,232.5,339.9z M183.6,275.3c1,0.2,2.2,0,3.3,0
		c-0.4,1.3-0.7,2.5-1.3,4.3c-3-2.1-5.4-3.8-8.5-6c2.4-1.3,4-2.1,5.6-2.9c0.1,0.2,0.3,0.4,0.4,0.6c-0.7,0.8-1.3,1.6-2.3,2.7
		C181.9,274.4,182.7,275.1,183.6,275.3z M179.6,257.7c2,1.5,3.9,3,6,4.6c-5.8-0.8-10.5-4.3-11.8-8.8
		C175.7,254.9,177.7,256.3,179.6,257.7z M165.8,257.4c2.2,1.9,4.4,3.8,7.2,6.2c0.2-0.1,1.1-0.3,2.4-0.6c-1.3,1.9-2.1,3.4-3.1,4.6
		c-0.5,0.6-1.7,0.6-2.5,0.9c0.1-0.7,0.4-1.5,0.1-2c-0.5-0.9-1.3-1.6-1.9-2.4c-1.4-1.6-2.8-3.2-4.1-4.8
		C164.4,258.6,165.1,258,165.8,257.4z M163.6,265.1c-0.9,2.7-0.9,2.7-8.1,3.6c-0.7-2.1-1.4-4.2-2.6-8.1
		C157.2,262.4,160.2,263.7,163.6,265.1z M137.2,251.1c2.4-0.4,4.7-1.2,5-0.7c1,1.5,1.3,3.5,1.9,5.3c-2.3,0.3-4.5,0.7-6.8,1
		c-0.1-0.4-0.1-0.9-0.2-1.3c1.2-0.6,2.4-1.3,3.9-2.1C140.3,252.8,139.5,252.3,137.2,251.1z M133.3,267.7c0.1,0.5,0.2,1,0.2,1.6
		c-2.2,1-4.4,2.1-6.7,3.1c-0.2-0.6-0.5-1.5-0.6-1.5c-3.2,0.3-4-1.5-3.9-4.1C126,267.1,129.7,267.4,133.3,267.7z M99.5,272.6
		c0.9-0.9,1.5-2.2,2.2-3.2c1.4-0.1,2.7-0.2,4.1-0.3c0.1,0.3,0.2,0.7,0.4,1c-3.9,3.4-7.8,6.9-11.6,10.3c-0.5-0.6-1-1.2-1.6-1.7
		C95.2,276.6,97.4,274.7,99.5,272.6z M139.1,328.8c-4.2,0.7-8.4,1.3-12.2,1.9c-1.9-2.1-4.1-4.5-6.4-7c4.5-4,9.7-3.5,13.2,1.1
		c0.7,0.9,1.7,1.6,2.8,1.9c4.1,1.4,8.3,2.5,12.2,4.7C145.3,331.5,140.9,334,139.1,328.8z M153.6,317.4c-2.5-0.2-5-0.3-7.4-0.8
		c-1.1-0.2-1.9-1.3-2.9-1.9c-1-0.6-2.2-0.9-3.9-1.6c2.1-0.8,3.4-1.3,4.6-1.8c-0.1-0.4-0.3-0.8-0.4-1.2c-2.4,0.9-4.7,1.7-7.1,2.6
		c1.3,2,2.6,4,4,6.1c-0.1,0.3-0.2,0.6-0.3,0.9c-2.5-1.4-5-2.8-7.4-4.3c-2.8-1.7-5.5-3.6-9.1-6c3-3.3,5.9-6.4,9-9.8
		c0,1.4,0,2.7,0,4.7c9.9-3.4,18-2.2,20.8,9.6c0,0-0.6,0.2-1.5,0.5c0.8,0.8,1.4,1.3,2,1.9C153.7,316.5,153.7,316.9,153.6,317.4z
		 M169.9,299.4c-1.3,2.3-2.5,4.3-3.7,6.3c-0.3,0-0.7,0-1,0c-0.1-1.2-0.2-2.5-0.3-3.3c-4.5-1.9-8.9-3.8-11.7-8.4
		c-0.8-1.2-3.1-1.5-5.1-2.5c2.6-0.8,5.2-1.6,7.8-2.4c-0.1-0.4-0.1-0.7-0.2-1.1c-2.5-0.2-4.9-0.4-7.5-0.6c-0.7,1.6-1.3,3.1-2,4.7
		c1.7,1.6,3.4,3.1,5,4.7c-0.1,0.4-0.3,0.8-0.4,1.2c-2.5-0.3-5.3-0.1-7.4-1.2c-4.2-2.1-8.2-4.8-11.9-7.7c-0.7-0.5-0.2-4.3,0.8-5
		c2.7-1.7,6-2.6,9.4-3.9c-0.7-0.8-1.3-1.6-1.6-1.9c-3.2,1.8-6.2,3.5-9.5,5.4c-0.2-1.5-0.4-2.5-0.6-4c-3.6,6.8-0.2,11.9,3.7,16.7
		c-2.8-1.7-5.1-3.1-7.4-4.4c2,6.2-2.7,10.7-4.5,15.9c-1,3-3.3,5.7-5.3,8.9c0-2.5,0-4.6,0-7.2c-8.1,2.4-11.5-4.8-17-7.8
		c3,1.1,6,2.1,8.9,3.2c0.2-0.5,0.4-1,0.6-1.5c-4.7-1.9-9.4-3.9-14.7-6.1c1.1-5.7,3.5-12.4,8.2-18.2c0.7-0.9,1.8-1.7,2.8-2
		c7.1-1.7,14.2-3.2,21.3-4.7c1,1.9,2.1,3.8,3.1,5.7c0.9-0.7,1.7-1.4,2.6-2.1c-1.4-0.4-2.9-0.9-3.3-1c2.3-2.8,4.2-5.3,6.3-7.6
		c0.9-0.9,2.4-1.7,3.6-1.7c4.6,0,9.2,0.1,12.7,4c0.8,0.9,2.8,0.8,4,1.6c1.3,0.9,2.4,2.3,3.3,3.6c0.2,0.3-0.5,1.3-0.7,2
		c-1.3-0.6-2.7-1.3-4.3-2c-0.6,0.7-1.5,1.8-2.7,3.3c3.9,2.3,7.8,4.7,12,7.2c0.1-1.8,0.3-3.3,0.4-4.8c2.2,4.9,2.1,5.2-0.6,6.3
		c7.1,4.2,14.6,8.6,22.3,13.1C179.5,302.9,172,302.8,169.9,299.4z M175.3,355.4c3.1-3.1,4.1-8.5,10-6.9
		C183.6,358.3,181.9,359.5,175.3,355.4z M182,360.6c1.5-2.6,3.9-4.7,5.1-6.1c9.1-1.1,17.2-2,25.2-2.9c-0.6,2.2-1.8,5-2.1,7.9
		c-0.4,5-3.4,6-7.6,6.2c-3.6,0.2-7.7-0.2-10.8,1.3c-3.7,1.9-6,0.4-8.9-1.1C180,364.5,181.3,361.9,182,360.6z M195.6,388.5
		c-1.3-0.2-2.6-0.5-3.3-0.6c0-1.9,0-3.5,0-6.1c4.6-0.2,9.4-0.5,14.2-0.7c0,0.5,0.1,1,0.1,1.6c-4.2,0.5-8.3,1-13.2,1.6
		C194.3,385.9,194.9,387.1,195.6,388.5z M248.5,444.9c-0.3-0.7-0.7-1.5-1.4-2.9c-0.3,1.5-0.7,2.4-0.6,3.2c0.4,4-1.8,4.9-5.1,4.6
		c-7.6-0.7-15.3-1.3-22.8-2.4c-1.8-0.3-4-1.8-4.8-3.4c-5.2-10-12.9-17.5-22.7-22.9c-1.8-1-4.2-0.8-6.4-1.2c1.5-1.7,3.2-3.6,4.5-5
		c0.5,1.2,1,3.8,1.6,3.8c2.3,0.1,5.8,0.1,6.6-1.3c2.9-4.9,6.4-5,10.7-2.6l0.2-0.1c-0.1,0.1-0.2,0.1-0.2,0.1c-1.2,1-2.4,2.1-3.3,2.9
		c2,1.6,3.7,2.9,5.7,4.5c-1.8,0.3-3.3,0.5-4.7,0.8c0,0.5,0.1,0.9,0.1,1.4c2.6-0.2,5.4,0,7.9-0.6c6.2-1.3,8.5,0.2,8.7,4.9
		c2.9-1.7,6.2-3.5,9.4-5.4c0.1,0.3,0.1,0.7,0.2,1c2.9-0.5,5.7-1,8.6-1.5c-0.1-0.4-0.1-0.8-0.2-1.2c-1.1,0-2.1,0-3.2,0
		c0-0.2,0-0.4,0-0.6c3.5-0.6,7-1.1,10.5-1.7c-5.5-0.6-10.9-0.5-16.3-0.6c-4.4-0.1-8,0.7-8.3,6.5c-0.4-2.4-0.9-4.9-1.1-6.5
		c-4.9-1.5-9.3-2.9-13.7-4.2c-4.5-3.4-9-6.7-13.5-10.1c-1.1-0.8-1.9-1.9-3.6-3.5c10.5,4.7,18.9,10.7,30.3,6.4
		c5.6-2.1,11.8-0.7,17.5,3c4.2,2.7,9.5,4.5,14.4,4.8c3.8,0.3,7.1,1.6,10.6,2c3.1,0.4,6.3-0.6,9.5-1c1.7-0.2,3.5-0.6,5.2-1
		c0.2,0.4,0.3,0.8,0.5,1.2C269.1,425.9,258.8,435.3,248.5,444.9z M285.5,349c-4,6.1-8,12.2-12,18.2c3.2-6.6,4.1-14.7,11.6-18.6
		c0.8-0.6,1.7-1.3,3.1-2.4c-1.9,0-3.1,0-4.3,0c6.6-3.5,8.8-2.9,12.2,3.3c-1.4,0.7-2.9,1.4-3.4,1.7
		C290.1,350.4,287.8,349.7,285.5,349z M300.7,403.3c-0.3-0.8-0.6-1.6-0.9-2.4c3.1-1,6.2-2,9.4-3c0.2,0.6,0.4,1.2,0.6,1.8
		C306.8,400.8,303.7,402,300.7,403.3z M306.4,385.4c-4.2-4.6-8.1-8.8-12.1-13.2c2.4-3.8,2.4-3.8,10.9,1.2c-1,0.2-2,0.4-3,0.6
		c1.2,1.3,2.3,2.5,3.5,3.9c1-0.9,2.1-1.9,3.2-3c0.3,0.2,0.7,0.4,1,0.5C308.8,378.8,307.6,382.2,306.4,385.4z M310.7,373.3
		c-4.8-5.8-9.4-11.2-13.9-16.6c0.4-0.4,0.9-0.8,1.3-1.1c5.5,4.7,13.4,7,15.2,15.9C312.2,372.2,311.1,373,310.7,373.3z M334.2,366.9
		c-0.8-3.3,2.9-7.4,10.2-10.8C340.9,359.9,337.5,363.5,334.2,366.9z M361.9,388c2.8,2.7,5,4.8,7.9,7.5c-4,0.2-7.2,0.4-11,0.6
		C359.9,393.3,360.8,391.1,361.9,388z"/>
	<path d="M126.2,291.9c0,0,0.1,0.1,0.1,0.1C126.3,292,126.3,291.9,126.2,291.9L126.2,291.9z"/>
	<path d="M100.6,264.3c0,0,0.1,0,0.1,0c0,0,0-0.1,0-0.1L100.6,264.3z"/>
	<path d="M173,263.6L173,263.6C172.9,263.6,172.9,263.6,173,263.6z"/>
	<path d="M379.2,361.8c-0.2,0-0.4,0.1-0.5,0.1c0.2,0,0.4,0,0.7,0L379.2,361.8z"/>
	<path d="M464,277.9c-0.9-0.4-1.7-0.8-2.7-1.3c-0.2-0.8-0.7-2.2-1.1-3.6c-0.4,0.1-0.8,0.2-1.1,0.2c-0.3,1.5-0.6,3-1.2,6.1
		c-10.3-4.7-20.1-9-29.6-13.8c-7.4-3.7-14.6-7.4-19.6-14.7c-5.2-7.5-11-14.6-17.5-20.9c-9.1-8.9-17.1-18.3-21-30.7
		c-1.4-4.3-3.4-8.3-5.5-13.6c-0.6,2.2-0.9,3-1.2,4c-8.8-9.9-17-19.6-28.4-24.8c0.4-1.8,0.4-3.7,0.9-3.9c5.5-1.4,11.1-3.4,16.6-3.3
		c5.8,0.1,11.6,2.5,17.3,3.9c-3.6-3.9-7.6-6.9-11.6-10.1c-4.8-3.9-9.7-4.9-14.8-0.6c-3.7,1.4-7.3,2.7-11,4.1
		c-1.8,0.4-3.7,0.8-5.6,1.2c-1.3-4.1-2.6-7.9-3.8-11.8c1.2-0.6,2.5-1.3,3.8-2c-4.3,2.1-5.3-1.2-7.2-3.7c-1.3-1.8-5.4-4-5.9-3.5
		c-3,2.7-5.6,1.5-8.7,0.8c-4-0.9-9.7-3.1-11.8-1.4c-5.5,4.7-8.5,0.6-12-0.6c3.6-4.1,6.9-7.9,9.8-11.3c-5.3,1.2-10.6,2.4-15.9,3.6
		c0,0,0,0,0,0c0,0,0,0,0,0c0,0,0,0,0,0c-1,0.2-2,0.6-3.1,0.7c-2.9,0.4-6,1.4-8.8,0.9c-1.2-0.2-2.4-3.3-2.8-5.2
		c-0.5-2.3-0.3-4.8,0.1-7.1c0.4-2.3,1.3-4.6,2-6.9c0.6,0,1.2,0,1.8,0.1c1.7,2.7,3.3,5.4,5.1,8.1c0.6-3.1,1.8-6.6,1.5-9.8
		c-0.2-1.9-2.7-4-4.7-5.1c-2.8-1.6-6-2.3-9.7-3.6c1.6,13.4,3.4,27.3,5.1,41.2c-3.7-5.4-21.1-9.4-24.5-4.8c-0.9-2.1-1.8-4.4-2.2-5.6
		c1.7-1.5,3.1-2.8,4.5-4.1c-0.7-0.3-1.3-0.6-2-0.9c-2.2-3.3-4.5-6.7-7.3-10.9c0.8-0.6,2.5-2.7,3.3-2.4c2.6,1.1,2.5,1.4,4.3,0.2
		c-2-0.9-5.5-2.1-5.4-2.5c1.3-5.5-4.2-5.5-7.2-8.8c6.1-0.8,11.3-1.4,17.4-2.2c-5.3-2.8-9.4-4.9-13.4-7c-0.7,4.2,3.2,4.2,6.9,4.7
		c-4,4.5-7,1.5-10-0.3c-0.5,2.1-0.8,3.9-1.4,5.5c-0.8,2.1-1.3,4.8-2.9,5.9c-3.4,2.4-7.4,3.9-10.5,5.4c0.9-1,2.5-3,4.4-4.9
		c1.4-1.4,3.3-2.5,4.3-4.1c1.7-2.9-1.4-5.3-5.9-4.8c-7.7,0.9-15.4,1.9-23.1,2.8c-0.4,0.1-0.9-0.2-1.3-0.3c0.4-1.2,0.8-2.2,1.3-4
		c-2.6,0.8-4.3,1.3-6.1,1.9c-0.2-0.6-0.3-1.2-0.5-1.8c4.1-0.8,8.2-1.9,12.4-2.4c2.6-0.3,5.4,0.9,7.9,0.4c5.5-1,10.8-2.6,16.2-3.9
		c2.7,2.1,4.8,1.8,6.8-1.1c0.9-1.2,2.5-2.5,3.9-2.7c5.9-0.8,11.9-1.1,17.9-1.6c-2.3-0.8-4.6-1.1-6.8-0.5c-7.1,1.7-15.4-1.3-21.2,5.5
		c2.9-10.2,11.3-11.4,20.3-11.5c-0.2-0.5-0.4-1.1-0.5-1.6c-5.8,1-11.7,2-17.2,3c0-0.2,0.2-0.8,0.3-1.5c-6,3.1-6.1,12.9-14.7,11.8
		c0.6-0.6,1.3-1.4,2.1-2.3c-1.8-0.2-3-0.4-3-0.4c-4.1-8.1-7.1-15.7-2.5-24.2c2,0.8,4.5,1.7,7.1,2.6c0.2-0.3,0.4-0.6,0.6-0.9
		c-2.7-2-5.3-3.9-7.9-5.8c2.1-3.5,1-8.5,5.6-10.8c2.3-1.1,4.2-3,6.1-4.8c6.2-5.6,12.9-8.2,21.9-8.2c9.4,0,12.6,6,16.4,11.7
		c1.5,2.3,2.1,5,5.1,5.6c-0.5,0.8-0.9,1.3-1.3,1.9c8.6,3.2,18.1,4.7,19.1,16.2c-9.8,8.9-9.8,8.9-9.2,12.8c0.8-0.3,1.5-0.7,2.3-1
		c-1.1,0.9-2.2,2.4-3.3,2.5c-4.1,0.3-8.2,0.1-12.1,0.1c2.9,2,15.6,1.9,18.2-0.4c0.9-0.8,1.4-1.9,2.1-2.9c3.7,0.8,8.3,5.6,9.9-2.4
		c0.1-0.3,1.2-0.4,2.9-1c-2.6-0.3-4.1-0.4-5.2-0.6c0.3-2.2,0.4-4,0.8-5.6c0.6-2.8,0.5-6.4,2.2-8.3c4.3-4.7,5.3-6,3.8-10.7
		c-1.8-5.9-3.6-11.8-5.5-17.7c-1.4-4.2-2.5-8.5-4.5-12.3C275.1,13,264.9,9.2,251,13.1c-0.5-2.8-0.4-6.2-1.8-8.6
		c-2.1-3.4-5.8-4.8-10.9-4.5c3.6,4.7,6.6,8.6,10.3,13.5c-3.7,1.1-5.7,1.9-7.8,2.1c-6.9,0.8-13.9,1.3-20.8,2.3
		c-4.5,0.7-7.4,0.1-7.6-5.1c0-0.3-1.2-0.6-2.1-1.1c-0.1,1.9-0.2,3.3-0.3,3.9c-7.5,2.3-14.5,4.4-21.4,6.5c0.2-1.6,0.5-3.7,0.9-6.6
		c-3.9,2.7-6.8,4.6-9.3,6.4c-1.1-1.2-2.1-2.8-2.9-2.8c-1.1,0.1-2.7,1.3-3.1,2.3c-1.9,5-3.5,10.1-5.2,15.2c0.3,0.2,0.7,0.3,1,0.5
		c1.4-2,2.8-4,4.2-6c-1.8,3.2-1.4,8.3-6.9,8.3c-0.5,0-1,2.2-1.5,3.3c-1.6,4.7-3.2,9.5-4.7,14.1c0,2.1,0,4.3,0,7
		c0.2,0.2,2,1.1,1.9,1.9c0,4.7-0.3,9.5-0.9,14.2c-0.3,2.1-0.5,3.7,0.4,5.9c1.5,3.8,1.9,8.2,2.6,12.3c0.2,0.9,0,2.5-0.6,2.8
		c-7.9,4.5-5.9,11.6-4.9,18.3c0.4,2.5,2.1,4.9,2.7,6.1c-0.8,2.7-1.9,4.8-1.9,6.8c0,1.1,1.8,2.6,3.1,3.1c3.9,1.3,7.9,1.9,11.8,3.2
		c3.2,1.1,6.1,3,9.3,4.5c-0.7,0.6-2,1.8-3.4,2.8c-8.6,6.2-17.3,12.4-26,18.5c-7.9,5.6-8.3,16-14.8,22.5c-0.1,0.1-0.3,0.2-0.4,0.3
		c-6.8-4.2-10.7-3.5-13.2,2.6c1.8-0.7,3.3-1.2,6.1-2.2c-1.3,1.8-1.8,2.5-2.3,3.2c3.5,2.2,8.3,1.3,10.9,5.4c0.5,0.8,2.6,1.4,3.5,1
		c4.7-2.1,9.3-4.6,13.6-6.8c5.8,2.3,3.2,6.5,2.5,10.3c0.8-0.9,1.6-2.1,2.6-2.7c1.4-0.8,3.5-2,4.6-1.5c7.8,3.6,14.7,0.9,21.1-3.2
		c7-4.4,13.4-10.2,22.4-4.5c0.5,0.3,1.6-0.4,2.3-0.3c2.2,0.1,4.9-0.3,6.6,0.7c4.6,2.7,7.8,1.3,11.3-2.1c8.7-8.6,17.7-17,26.6-25.5
		c0.6,1.5,1.1,3.1,1.6,4.2c1.3-3.1,3.8-6.2,3.5-9c-0.9-7.9,5.6-10.1,9.5-14.2c0.7-0.7,2-0.9,3.9-1.6c-3.9,3.8-6.8,6.8-9.8,9.7
		c0.4,0.3,0.7,0.7,1.1,1c1.6-0.9,3.8-1.3,4.7-2.6c4.4-6.5,11-5.7,17.4-5.9c2.9-0.1,6.3,0.2,8.7-1.1c5-2.8,7.5,1,10.4,3.2
		c3.2,2.4,0.4,4.7-0.8,6.8c-0.3,0.5-0.5,1-0.7,1.5c0.3,0.4,0.6,0.7,0.9,1.1c2.8-4.6,6.1-8.3,12.9-6.7c-2.9,3.9-5.6,7.4-8,10.6
		c1.4,2.6,2.4,5.3,4,7.6c3.1,4.2,1.8,7.2-1.7,10.5c-9.4,8.8-18.7,17.9-27.8,27.1c-1.1,1.1-0.7,3.5-1,5.4c1.6-0.4,3.3-0.6,4.8-1.2
		c2.2-0.9,4.3-2.2,6.5-3.3c0.2,0.4,0.5,0.7,0.7,1.1c-4.9,6.9-7.5,14.4-6.5,22.7c4.5,0.9,8.4,1.8,12.3,2.6c-1.8-1.8-4-3.1-6.2-3.4
		c-4.3-0.5-5.5-2.7-3.8-6.3c0.7-1.5,2.2-2.6,3.4-4c1-1.2,3.1-2.6,2.9-3.6c-1.1-5.2,2.8-5.1,5.8-6c0.8-0.2,1.5-0.6,1.3-0.6
		c0.5-2,0.8-3.4,1.1-4.9c1.7,0.7,2.8,1.2,3.9,1.7c0.2-0.3,0.3-0.5,0.5-0.8c-1.4-1.3-2.8-2.5-4.5-4.1c1.2-0.6,2.2-1.1,2.1-1
		c0.2-1.6,0.4-3.4,0.5-3.4c3.5,0.1,4.2-3,5.5-5.1c2.3-3.8,4.9-0.9,7.4-0.7c1.1,0.1,2.2,0.9,3.3,1.5c4.3,2.1,8.9,3.9,12.9,6.5
		c3.9,2.6,7.2,6.2,10.8,9.5c-0.7,0.5-1,0.9-1.5,1c-4.5,0.9-9.9,0.6-13.4,3.1c-3.2,2.3-4.4,1.6-7.2,0.1c-2.5-1.3-5.9-0.9-8.9-1.3
		c0,0.3-0.1,0.7-0.1,1c3.4,1.1,6.7,2.2,10.1,3.3c-0.1,0.4-0.2,0.7-0.3,1.1c-5.1-0.6-10.3-1.1-15.4-1.7c6,3.2,12,5.5,17.8,8
		c1.5,0.7,3.4,2.1,3.6,3.4c0.2,1.6-1.2,3.5-2,5.2c-0.6-0.6-1.1-1.3-1.7-1.9c0.3,1,0.7,2,0.9,2.8c-4.1,1.3-7.8,2.5-11.6,3.7
		c0,0.3,0,0.7,0,1c1.8,0,3.7,0,5.5,0c0.1,0.4,0.3,0.9,0.4,1.3c-2.8,1.2-5.6,2.4-9.6,4.2c2.9,0.4,4.9,0.7,7.7,1.1
		c-3.6,1.9-6.6,3.4-9.5,4.9c0.1,0.4,0.2,0.8,0.3,1.2c2.7,0,5.3,0,8.6,0c-4.6,2.5-8.4,4.5-12.2,6.6c-1.6,4.4-6.6,0.1-9.2,4.1
		c2.4,0.6,4.5,1.1,6.6,1.6c0,0.4-0.1,0.8-0.1,1.2c-1.5,0.3-2.9,0.7-4.4,1c-0.1,0.5-0.2,1-0.3,1.5c2.5,0.9,5,1.7,9.1,3.1
		c-1.9,1.1-3.2,1.8-4.4,2.5c-0.7,0.8-1.3,1.6-2,2.4c3,1.8,6.1,3.5,8.9,5.5c5.7,4,11.4,8.1,16.7,12.5c2,1.6,3.5,4,4.6,6.4
		c6.4,13.3,15.1,21.2,29.3,13.6c-1.8-3.3-3.5-6.5-5.2-9.6c-1.9-3.4-3.9-6.8-5.9-10.2c1.4,0.1,2.6,0.2,3.9,0.3
		c-0.2-0.6-0.3-1.3-0.5-1.9c-3.2,1.1-6.3,2.2-9.5,3.2c-0.1-0.2-0.1-0.3-0.2-0.5c2.1-1.5,4.1-3.1,7.3-5.4c-2.7-0.2-4.3-0.3-6-0.4
		c1.6-1.7,3.2-3.4,4.7-4.9c-6.1-4.9,0.5-7.6,2.9-11.9c-6.7,2.2-13.4,7.6-16.9-4.4c-3.2,4.1-5.6,7.1-7.9,10c-1-1.8-1.3-3-0.8-3.6
		c3.7-4.6,7.1-9.9,11.7-13.4c2.7-2.1,8.4-2.8,11.4-1.3c2.9,1.4,4.1,6.3,6.3,10.2c3.1,0,7,0,10.8,0c0-0.3,0.1-0.6,0.1-0.9
		c-2.6-0.4-5.2-0.9-7.8-1.3c0-0.3,0.1-0.6,0.1-0.9c2.9,0,5.8,0,8.6,0c-0.1-0.2-0.3-0.4-0.4-0.6c4.3-1.9,8.5-3.8,12.2-5.4
		c5.1,4.1,9.5,7.6,14.1,11.2c-1.7,1.1-2.7,1.7-2.7,1.7c2.1,0.7,4.7,1.2,6.9,2.4c1.4,0.7,2,2.8,3.3,3.7c5.2,3.5,10.5,6.8,16.2,10.4
		c-7.6,2-14.7,3.5-21.6,5.8c-9.3,3.1-14.6,2.1-20.7-5c-1.7,5.5-4,10.7,0.9,15.9c1.7-1.5,3.4-2.9,4.6-4c1.5,1.9,3.1,4,4.7,6.1
		c1-1.3,2-2.5,3.2-4.2c1.4,0.8,4.4,4.9,4.2-1.2c0-0.2,0.4-0.5,0.7-0.6c6.6-0.2,11.4-7.7,18.8-4.8c1.1,0.4,2.1,1.4,2.4,1.6
		c3.2,3.2,5.5,5.5,7.8,7.8c0.1-0.1,0.2-0.2,0.4-0.3c-0.4-0.7-0.8-1.4-1.1-2.1c1.7,0.9,3,2.1,3.7,3.6c1.3,2.6,2.3,5.4,3.5,8.1
		c-1-0.3-1.9-0.7-2-0.7c-1.4,2.4-2.5,4.2-3.1,5.2c2.1,0.8,4.4,1.6,6.6,2.5c1.1,2.8,2.1,5.6,3.6,9.7c-2.5-1-3.8-1.6-4.8-2
		c-2.1,2.3-4.3,4.7-6.5,7c1.5-0.8,3.1-1.7,4.7-2.3c1.7-0.7,4-1.9,5.3-1.2c1.5,0.8,3,3.2,3,4.9c0.1,1.6-0.5,4.8-4,3.6
		c0.1,0.5,0.1,0.9,0.2,1.4c-8.1,6.3-17.2,10.7-26.9,13.8c1.2-0.1,2.5-0.2,3.7-0.5c6.6-1.7,13.2-3.6,19.8-5.4c3.3,0,6.6,0,9.8,0
		c0-1.8,0.1-2.9,0-4.1c-0.7-5.8-0.4-11.3,4-15.9c3.3-3.4,2.9-7.4,1.7-11.7c-1.6-5.8-2.8-11.7-4.1-17.6c0.4-0.1,0.7-0.2,1.1-0.3
		c1,2.8,2,5.6,3,8.4c0.5-0.1,1-0.2,1.5-0.3c-1.8-9.8-3.7-19.5-5.4-28.7c4.9,1.8,11,4.1,17.1,6.4c0.2-0.4,0.3-0.8,0.5-1.3
		c-1.4-1-2.7-2-3.4-2.5C462.9,279.7,463.4,278.8,464,277.9z M174.7,136.3c-0.8-1.8-1.6-3.4-2.5-5.3c4.5,1.5,6.4-6.1,10.4-4.3
		C179.8,130,177.3,133.1,174.7,136.3z M208,131.6c-0.7-1.3-1.2-2.7-1.7-4.1c0.3-0.3,0.6-0.6,1-1c-5.9-1.8-11.8-3.7-17.7-5.5
		c0.1-0.5,0.2-0.9,0.3-1.4c5.9,1.7,11.9,3.1,17.6,5.3c1.3,0.5,1.5,4,2.3,6.1C209.1,131.3,208,131.7,208,131.6z M349.6,193.5
		c-2.6-3.7-8-5.5-11.7-9.2c2.4,0.9,4.8,1.7,7.1,2.6c0.2-0.4,0.4-0.8,0.5-1.2c-6.8-3.3-13.6-6.6-21.2-10.3c1.4-0.4,2.9-0.8,5.5-1.6
		c-1.6-0.8-2.9-1.4-4.1-2c2.7-1.7,5.6-5,8.1-4.7c3.8,0.5,7.4,3.3,10.6,5.7c3.8,2.8,7.6,5.9,10.5,9.6c3.3,4.2,5.6,9.3,7.8,14.4
		C358,196,353.3,199,349.6,193.5z"/>
	<path d="M227.6,225.5c-2.7,0.4-5.4,0.1-8.2,0.1c-0.2,2.1-0.2,4.9-3.9,2c-0.9-0.6-2.9-0.5-4,0.1c-2.1,1.1-3.9,2.7-6,4
		c-3.6,2.3-8.5,3.8-10.6,7.1c-2.8,4.4-6.9,7.1-11.4,4c-8.2-5.6-16.2-11.6-24.9-17.8c-0.4,1.7-0.8,3.2-1.2,4.7
		c0.8,0.1,1.7,0.3,2.5,0.4c-0.1,0.3,0,0.6,0.3,0.8c8.6,10.1,20.5,14.1,31.4,17.3c4.3-1.4,7.9-2.5,11.5-3.8c1.4-0.5,2.9-1.2,3.9-2.2
		c5.8-6.1,12-9.6,19.9-4.4c0.4,1.1,1,2.4,1.9,3.1c5.9,4,11.8,7.9,17.8,11.8c18,11.7,35.9,23.4,53.9,35.1c1.2,0.8,2.6,1.3,4,1.6
		c2.5,0.7,5.4,0.6,7.6,1.8c4.7,2.5,9,5.6,13.5,8.5c0.7-0.8,1.5-1.7,2.2-2.5c-3.7-3.1-7.5-6.2-11.2-9.3c3,1.2,6.5,2.5,8.4,5
		c2.5,3.4,5.1,4.2,9.4,3c-2.3-0.8-4.1-1.3-7.1-2.3c2.7-0.6,4-1,5.3-1.3c0.2-0.4,0.3-0.9,0.5-1.3c-2.8-1.3-5.6-2.6-8.3-3.8
		c0.5-0.3,1-0.6,0.9-0.6c-8.5-5.3-17.1-10.7-25-15.6c0,0,0,0,0,0c0.2,0,0.5-0.1,0.9-0.1c0-0.3-0.1-0.5-0.1-0.8
		c-2.1-0.3-4.3-0.5-6.4-0.8c0-0.2,0.1-0.5,0.1-0.7c0.6-0.2,1.2-0.4,2.5-0.8c-6-2.5-11.1-4.7-17.2-7.2c2.7-1.7,4.4-2.8,6-3.8
		c-1.5-0.5-2.6,0.3-3.7,0.4c-2.1,0.2-5.2,0.9-6.1-0.1c-3.7-4.5-8.9-6.2-13.6-9c5.2,0,5.2,0,6.5-4.4c-4.4-1.4-8.8-2.9-12.6-4.1
		c5.5-1.3,11.4-2.7,17.3-4.2c-0.1-0.5-0.2-0.9-0.2-1.4c-3.6,0.8-7.3,1.5-10.9,2.4c-5.2,1.4-7,1-10.3-2.9c8.8,2.6,13.6-0.6,14.1-10.2
		c-3.6-0.7-7.3-1.3-11-2c-2.2-0.4-4.6-0.5-6.5-1.6c-7.2-4.4-14.3-9-21.3-13.8c-2.3-1.6-4-1.9-5.2,0.7c-1.5,3.3-3,6.7-3.7,10.2
		c-0.3,1.5,0.7,4.2,2,5c1.3,0.9,3.6,0.3,5.5,0.2c1.3-0.1,2.7-0.4,4-0.6c0.1,0,0.5,1.5,0.3,1.7C230,224.1,228.8,225.3,227.6,225.5z"
		/>
	<path d="M360.5,102.6C360.4,102.7,360.3,102.9,360.5,102.6L360.5,102.6z"/>
	<path d="M353.4,98c3.4-2.4,7-1.8,11.6-1.1c-2,1-3.3,1.7-4.9,2.5c2.2,0.4,3.7,0.8,5.2,1.1c-1.5,0.6-3.1,1.3-4.6,1.9
		c2.5,2.1,4.8,4,7.3,6c-5.2,5.2-5.3,7.6-0.6,11.2c4.2,3.3,6,7.5,6.4,11.9c-3.1-0.6-6.2-1.3-9.3-1.9c0,3.2,0.1,6.3,0.1,10.5
		c-3.4,2.2-3.4,2.2,0.4,6.2c-0.6,0.3-1.1,0.6-1.7,0.9c3.9,3,7.4,5.8,11.1,8.3c1,0.7,3.1,1,4.1,0.4c3-1.9,5.7-4.3,8.4-6.4
		c-2-1.6-3.5-2.8-5.1-4.1c1.2-0.7,2.1-1.2,2.7-1.6c-1.5-1.3-2.8-2.4-4.4-3.9c1.5-0.7,2.6-1.2,3.8-1.8c-1.6-1.4-2.9-2.5-4-3.4
		c3.6-4.3-3.5-2.2-2.1-5c0.8,0.1,1.9,0.3,2.9,0.5c0.2-0.3,0.4-0.6,0.6-0.9c-1.7-1.2-3.4-2.5-5.2-3.7c0.1-0.2,0.3-0.4,0.4-0.6
		c1.1,0.4,2.1,0.8,3.2,1.2c0.3-0.4,0.6-0.8,0.9-1.2c-1.2-1.1-2.3-2.4-3.7-3.2c-1.6-0.9-3.4-1.2-4.8-1.7c1.4-1.6,2.9-2.7,2.9-3.6
		c-0.1-3.7,1.6-4.7,4.9-4.2c3.9,0.6,7.7,1.2,11.6,1.9c2.8-5.5,2-6.5-9.5-12c1.2,1.7,2.2,3.2,2.6,3.9c-3-0.2-6.3-0.4-9.5-0.6
		c0.2-0.2,0.4-0.4,0.6-0.6c-3-1.7-6.1-3.4-9.3-5.2c3-6.1,6.2-12.4,9.4-18.8c1.4-2.8-0.7-4.6-2.4-4.7c-7.1-0.2-14.3,0.2-21.4,0.5
		c-4.6,0.2-7.9,1.7-10.1,6.4c-2.6,5.3-6.4,10.1-9.2,14.3C339,97.1,346.5,95,353.4,98z"/>
	<path d="M360.5,102.6C360.5,102.6,360.5,102.6,360.5,102.6c0.1-0.1,0.2-0.1,0.3-0.1c-0.1,0-0.1-0.1-0.2-0.1
		C360.6,102.5,360.5,102.5,360.5,102.6z"/>
	<path d="M88.2,191.2c0.5,0.1,1,0.6,2.2,1.5c-1.9,0.5-3,0.9-5.3,1.5c5.3,2.3,6.1,9,12.9,8.3c1.5-0.2,3.1,3.8,5.2,4.9
		c1.6,0.9,4.2,0.7,6,0.1c0.8-0.3,1.5-3.6,0.9-4.5c-4-5.7-10.1-8.7-16.6-11.1c1.4-3.4,3.6-3.9,6.6-1.8c2,1.4,3.9,3.2,6.2,4.2
		c6.6,2.9,12.6,6.1,12.8,14.6c0,0.7,1.1,1.5,1.9,2c2.9,2,5.8,3.8,9,5.9c2.9-3.1,5.8-2.5,9-0.1c5.2,3.9,10.6,7.4,16.2,11.3
		c0.8-1.4,1.6-2.8,1.8-3.1c-6-7-10.9-13.9-17-19.4c-6.1-5.5-12.9-12.3-20.4-13.8c-8.7-1.8-12.9-10.7-22-11.5c3.5-0.8,6.9-1.5,10-2.2
		c-1.6-0.5-4-1.2-6.4-1.8c-1.5-0.3-4.3,0-4.5-0.6c-1.7-4.9-4.3-1.5-5.4-0.2c-2.4,2.8-4.5,6.1-6.1,9.5
		C83.6,187.7,84.3,190.4,88.2,191.2z"/>
	<path d="M166.4,207.9c0,3.1-0.1,6,0,8.8c0.1,3.9,6.1,9.5,9.4,8.6c5.4-1.5,10.8-3.9,16.4,0.9c-0.4,3-0.8,6.7-1.3,10.3
		c0.9,0.1,1.7,0.3,2.6,0.4c1.5-7.2,3.1-14.4,4.6-21.5c0.1,2,0.2,3.9,0.3,5.3c8.1-8.8,16.4-17.8,25.4-27.6c-2.8,0.4-5.3,0.8-7.8,1.1
		c-0.9,0.1-1.8-0.1-2.7-0.2c-3.5-0.2-6.3-4.7-10.3-1.6c-0.2,0.2-1.4-1-2-1.4c-4.8,4.5-8.6,9.8-13.8,12.6c-5,2.6-11.4,2.6-17.2,3.7
		c-0.1-0.4-0.2-0.8-0.3-1.2c0.8-0.9,1.6-1.7,2.3-2.6c-4.6,2-7.6-0.6-10.7-2.9c-0.4,2.3-0.7,4.6-1.1,6.7
		C162.5,207.6,164.2,207.8,166.4,207.9z"/>
	<path d="M161.1,200.7C161.1,200.7,161.1,200.7,161.1,200.7C161.1,200.7,161.1,200.7,161.1,200.7L161.1,200.7c0-0.1,0-0.2,0-0.2
		c0,0.1-0.1,0.1-0.1,0.2C161.1,200.7,161.1,200.7,161.1,200.7z"/>
	<path d="M385.2,116.1c1.3,3.2,3.1,6.3,3.8,9.7c0.7,3.1-0.4,6.6,0.4,9.7c1,3.8,3,7.3,5.1,10.7c0.1,0.2,4-1.8,6.2-2.7
		c0.2-0.1,0.6,0.1,0.8,0.1c2.6-0.2,5.3-0.5,7.4-0.6c0.3-5.5,0.6-10.2,0.9-15.4c-5.8,1.7-11.5,3.5-17.3,5.2c-0.1-0.6-0.3-1.2-0.4-1.8
		c4.2-1.1,8.4-2.7,12.7-3c4.7-0.4,5.7-4.7,5.8-6.8c0.2-4.6-1.5-9.3-2.7-13.8c-0.7-2.6-2.2-3.5-5.3-2.6c-7.4,2.2-7.5,1.9-7.7,9.8
		c-1.1,0-2.2,0-3.3,0l0.1-0.1c0,0,0,0-0.1,0c0,0,0,0,0,0C389.6,115,387.5,115.5,385.2,116.1z"/>
	<path d="M100.6,264.3c0,0,0.1-0.2,0.1-0.2c-0.1,0-0.2,0-0.2,0C100.5,264.2,100.6,264.3,100.6,264.3z"/>
	<path d="M98.5,262.3c-5.9-2.2-8.7-6.1-9.4-12.5c-0.5-4-2.7-8.6-8.4-8.8c-0.7,0-1.2-0.9-1.9-1.3c-4.2-2.6,0.7-5.5-0.3-9.4
		c-2.1,2.7-4.8,4.6-5.1,6.9c-0.7,4.4-0.2,9-0.2,13.5c-0.6,0-1.1,0.1-1.7,0.1c-0.8-1.3-1.6-2.6-2.8-4.6c-3.6,2.9-6.9,5.5-10.8,8.6
		c3.2,0.8,6.6,0.8,7,1.8c1.3,3.7,3.9,4.9,7.2,5.4c3.6,0.5,8.4-0.4,10.5,1.6c6.2,6.1,12,1.3,18,0.7C99.8,263.5,99.3,262.6,98.5,262.3
		z M78.3,261.9c-0.8-3.4-7.4-4.6-2.9-9.4c0.7-0.7,3.6-0.4,4.8,0.5C82.5,254.7,81.5,259.2,78.3,261.9z"/>
	<path d="M33.9,277.8c-2.8,0-5.6,0-8.3,0c3.5,0.9,7,0.8,10.4,1.3c9,1.4,18.1,4.1,26.6-1.5c-0.2-1-0.4-2.3-0.9-4.8
		c-1.7,0.8-4,2-6.8,3.3c0.6-1.3,1.2-2.8,1.8-4.2c-0.9-0.5-1.8-1.1-3.3-2c4.1-0.8,7.6-1.4,11.1-2.1c-5.1,0.9-7.5-2.1-9.8-5.7
		c-0.7-1.1-1.6-4.1-4-1.7c-6.2,3.2-10.3,0.1-13.9-6.1c-1.3,3.3-2.1,5.4-2.8,7.3c-7,0.8-6,8.1-10.6,11.8c4.2,1.5,7.4,2.6,10.6,3.7
		C34,277.3,34,277.6,33.9,277.8z M31.2,264.7c0.1-0.5,0.2-1,0.3-1.4c6.6,0.7,13.3,1.6,19.2-2.8c0,0-0.1,0.1-0.1,0.1
		c-0.5,2.5-0.5,5.3-1.7,7.4c-0.5,0.9-3.6,0.3-5.5,0.3c-0.1,0-0.1-1.3-0.1-1.2C39.4,266.3,35.3,265.5,31.2,264.7z"/>
	<path d="M396.7,184.4c-10.1-3.9-16.9-11.4-21.2-21.3c5-0.4,8.8-2.7,12.7-5.9c4.4-3.6,9.9-5.9,14.9-8.7c-0.3-0.5-0.5-0.9-0.8-1.4
		c-9.1,5.2-18.1,10.4-27.2,15.7c-0.5,1.5-1.6,3.1-1.3,4.3c0.7,2.7,1.8,5.4,3.4,7.6c2.2,3.1,4.6,6.5,7.6,8.7
		c7.5,5.5,15.7,7.5,24.6,2.5c2.5-1.4,5.6-1.9,8.4-2.9c2.5-0.9,5-2,7.5-3c-0.3-0.7-0.5-1.4-0.8-2c-6.8,1.9-13.6,3.8-20.4,5.6
		C401.7,184,398.8,185.2,396.7,184.4z"/>
	<path d="M409.7,191.4c-0.2,0.2-0.3,0.5-0.5,0.7c1.3,1.9,2.7,3.7,3.8,5.7c6.3,11.7,16,20.5,25.3,29.6c3.9,3.9,8.3,2.9,12.8,2.1
		c-7.8,0.9-12.9-3.8-17.6-9.7c4.1-2.7,8.4-5.4,12.7-8.2c-0.3-0.5-0.7-1-1-1.6c-2.7,1.8-5.4,3.5-8.1,5.4c-1.7,1.2-3.2,3.5-5.3,1
		c-5.9-7.1-11.7-14.4-17.6-21.6C413,193.5,411.2,192.6,409.7,191.4z"/>
	<path d="M451.1,229.5c0.6-0.1,1.3-0.2,2-0.3C452.4,229.3,451.7,229.4,451.1,229.5z"/>
	<path d="M393.6,327c1.2,5,4.8,8.2,9.6,7.5c5.9-0.9,12.7-0.8,17.3-6.6c-6.6-3.4-11.3,1.7-16.7,2.4c1.1-0.6,2.2-1.2,3.2-1.7
		C404.3,320.3,402.2,320.2,393.6,327z"/>
	<path d="M284,282.7c-9.3-6.2-18.5-12.5-27.9-18.6c-0.9-0.6-2.8,0.5-4.2,0.8c0.1,0.4,0.1,0.9,0.2,1.3c2.3,0.7,4.5,1.3,6.9,2
		c-0.7,0.7-1.2,1.3-1.8,1.9c6,4,11.9,8.1,17.9,12.1C278.1,282.4,281.1,282.6,284,282.7z"/>
	<path d="M96.9,241.5c-0.9-1.9-2.2-3.2-2.2-4.6c-0.1-5.7-5.6-5.8-8.6-8c-2.3-1.7-2.7,2.1-2.8,4.4c0,0.7-1.5,1.3-1.8,1.6
		c2.9,2.1,5.9,3.8,8.4,6.2C92.4,243.5,94.5,244.4,96.9,241.5z"/>
	<path d="M452.4,204.4c2-7.4,1.4-12.5-8.7-15.7c-0.4,2.2-0.9,4.4-1.2,6c1.7,2.1,2.9,3.9,4.5,5.5C448.7,201.7,450.6,203,452.4,204.4z
		"/>
	<path d="M425.3,378.8C425.2,378.8,425.2,378.7,425.3,378.8c-0.1,0-0.1,0-0.1,0.1C425.2,378.9,425.3,378.8,425.3,378.8L425.3,378.8
		c0.1-0.1,0.1-0.3,0.1-0.4C425.3,378.5,425.3,378.6,425.3,378.8C425.2,378.7,425.2,378.8,425.3,378.8z"/>
	<path d="M280.6,108.6c5-3.6,9.3-3.5,13.3,1.3c1.2,1.4,3.8,1.5,5.7,2.2c-1.3-3.8-2.2-6.4-3.5-10.3
		C293.5,100.5,284.7,103.3,280.6,108.6z"/>
	<path d="M426.3,373.8C426.3,373.8,426.3,373.8,426.3,373.8c0,0,0-0.1,0-0.1c-0.3,1.6-0.6,3.1-0.9,4.7c3.5-5.7,7-11.4,10.5-17.1
		c0.3,0.6,0.6,1.1,1,1.7c1.7,0,3.5,0,5.2,0c0.1,0,0.1-0.5,0.2-0.9c-1,0.2-1.9,0.4-2.8,0.6c-0.1-0.3-0.3-0.6-0.4-0.9
		c1.6-1.1,3.3-2.2,4.9-3.3c-0.2-0.4-0.3-0.8-0.5-1.3c-2,0.6-4,1.2-6,1.8c-0.1-0.7-0.2-1.8-0.3-2.9c-0.4-0.2-0.7-0.4-1.1-0.6
		C433.6,362.1,426,365.5,426.3,373.8C426.3,373.8,426.3,373.8,426.3,373.8C426.3,373.8,426.3,373.8,426.3,373.8L426.3,373.8z"/>
	<path d="M282.5,284.4c1.6,2.2,3.2,4.3,4.8,6.4c2.8,1,5.6,2.1,8.7,3.2c0.5-0.6,1.3-1.5,2.2-2.7c-4.8-3-9.4-5.7-13.9-8.5l0.1-0.1
		c-0.1,0-0.2,0-0.3,0c0.1,0,0.1,0.1,0.2,0.1C283.6,283.4,282.9,284,282.5,284.4z"/>
	<path d="M123.3,218.6c-2.3-2.1-4.9-3.8-7.5-5.7c-0.8-0.6-1.8-0.9-2.7-1.3c-0.3,0.4-0.6,0.8-0.8,1.1c1.2,1.2,2.4,2.5,3.5,3.7
		c-0.6,0.3-1.2,0.5-1.7,0.7c0.9,2.8,7.1,0.1,4.9,5.4c1.9,0.3,3.9,0.6,6.7,1C124.8,221.5,124.4,219.6,123.3,218.6z"/>
	<path d="M119.1,222.6c-0.1,0-0.1,0-0.2,0C118.9,222.6,119,222.6,119.1,222.6l-0.2,0C118.9,222.6,119,222.6,119.1,222.6
		C119,222.7,119,222.7,119.1,222.6C119,222.6,119,222.6,119.1,222.6z"/>
	<path d="M278.2,109.9c-3.2,3.5-6.4,7-9.6,10.5c0.8,0.3,1.5,0.5,2.7,0.9c-1.3,0.8-2.2,1.4-2.5,1.6c1.9,1,4,2.2,6,3.4
		C274.3,120.5,274.1,114.8,278.2,109.9z"/>
	<path d="M411.1,355c0.4,0,0.8-0.1,1.2-0.1c0.2-0.1,0.4-0.1,0.6-0.2c-0.2,0-0.4,0-0.7,0.1C411.9,354.8,411.5,354.9,411.1,355z"/>
	<path d="M380.6,361.5c10.2-2.2,20.3-4.3,30.5-6.5c-4.6,0.4-9.3,0.5-13.7,1.5C391.7,357.7,386.2,359.7,380.6,361.5z"/>
	<path d="M379.3,361.9c0.4-0.1,0.9-0.3,1.3-0.4c-0.5,0.1-1,0.2-1.4,0.3C379.2,361.8,379.3,361.9,379.3,361.9z"/>
	<path d="M213.8,239c-0.2,0.5-0.5,1-0.7,1.4c4.7,2.4,9.5,4.7,14.2,7.1c0.3-0.5,0.5-1.1,0.8-1.6C223.3,243.7,220,238.4,213.8,239z"/>
	<path d="M251.4,95.3c-2-0.2-4.4-0.5-6.9-0.8c-0.3,0.8-0.9,2.3-1.6,4c4.4-1,8.6-2,13.4-3.2c-0.7-1.9-1.3-3.7-2.5-6.9
		C252.7,91.6,252.1,93.2,251.4,95.3z"/>
	<path d="M463.2,273.9c0-8.7,0-16.8,0-25c-0.5,0-1,0-1.5,0c-0.5,7.5,2.3,15.2-0.9,22.9C460.9,272,461.8,272.7,463.2,273.9z"/>
	<path d="M455.9,386.3c-4.6,3.2-9.1,6.3-13.7,9.5c-2.9-1.4-5.6-3.3-8.6-3.9c-5-1-10.6,2.7-15.2-1.9c0.2-0.5,0.4-1.4,0.6-1.4
		c2.7,0,5.4,0.2,8.1,0.3c0.1-0.3,0.1-0.6,0.2-0.8c-1.7-0.3-3.4-0.7-5.4-1.1c1.2-2.9,2.3-5.5,3.4-8.1c-8,1.7-16,3.3-24,5
		c5.1-1.3,10.2-3.1,15.4-3.8c4.4-0.6,7.6-2.4,9.7-6.2c-0.7,0-1.5-0.2-2.1,0.1c-2.4,1.4-4.6,3.5-7.1,4.2c-5.6,1.4-11.4,2-17.1,3
		c-5.5,1-11,2.2-16.6,3.3c0,0.5,0.1,1,0.1,1.5c1.4,0,2.8,0.2,4.1,0c4.6-0.6,9.1-1.4,13.6-2.1c-4.6,1.2-9.1,2.3-14.4,3.7
		c7.4,5.5,15.2-0.3,22.1,1.6c-0.3,1.2-0.3,2.5-0.9,3.5c-1.3,2.2-3.3,3.9-5.5,1.3c-2.5-3-4.9-2.1-6.6-1.3c3,1.9,6,4.2,9.4,6.1
		c4.3,2.4,8.7,5.7,13.3,6.4c8.6,1.4,16.9-1.3,24.2-6.3c0.1-0.1-0.4-0.9-0.6-1.4c4.9-3,9.9-6,14.8-9
		C456.8,387.6,456.4,386.9,455.9,386.3z"/>
	<path d="M375.1,366.5c7.2-1.2,14.8,0.4,21.7-4.3c-7.5,1.1-14.7,2.1-21.9,3.1C375,365.7,375,366.1,375.1,366.5z"/>
	<path d="M333.7,314.3c-0.1-0.5-0.1-1.1-0.2-1.6c-3.6,0.8-7.2,1.6-10.8,2.4c0.1,0.6,0.2,1.2,0.3,1.8
		C327,319.4,330.3,316.5,333.7,314.3z"/>
	<path d="M334.7,325.4c2.3-0.2,4.6-0.1,6.8-0.7c1.2-0.3,2.2-1.9,3.2-2.8c-0.3-0.5-0.7-0.9-1-1.4c-3.1,0.9-6.1,1.8-9.2,2.7
		C334.6,323.9,334.6,324.6,334.7,325.4z"/>
	<path d="M328.5,319.2c0,0.6,0,1.2,0.1,1.8c2.1,0,4.2,0.3,6.2-0.1c1.4-0.3,2.6-1.6,4-2.4c-0.3-0.7-0.6-1.3-1-2
		C334.6,317.4,331.6,318.3,328.5,319.2z"/>
	<path d="M455.2,218.4c0.1-2.2,0.2-4.3,0.3-5.9c-1.9-0.7-3.9-1.4-6.1-2.3C452.6,218.7,452.6,218.7,455.2,218.4z"/>
	<path d="M319.7,126.4c-5-1-6.5,2.3-8,5.3C316,132.9,318.3,130.9,319.7,126.4z"/>
	<path d="M317.6,224.4c-1.9,1.4-3.7,3.8-5.7,4.1c-4.3,0.5-4.4,3-4.3,6.6c3.8-3.4,7.2-6.5,10.6-9.6
		C318.1,225.2,317.9,224.8,317.6,224.4z"/>
	<path d="M291.3,133.2c3.2-2.3,5.4-3.8,8.5-6C293.4,125.3,292.3,126.1,291.3,133.2z"/>
	<path d="M322.6,305.2c2.8,1.7,5.5,3.3,8.2,4.9c0.3-0.5,0.5-1.1,0.8-1.6C328.8,307,327.5,301.8,322.6,305.2z"/>
	<path d="M313.9,254.2c0,0,0,0.1,0.1,0.1C313.9,254.3,313.9,254.3,313.9,254.2l0.1,0.1c0,0,0,0,0,0c0,0,0-0.1,0-0.1
		C313.9,254.2,313.9,254.2,313.9,254.2z"/>
	<path d="M304.4,251.3c-0.1,0.5-0.2,1.1-0.2,1.6c3.2,0.4,6.5,0.8,9.7,1.3C311.7,249.9,307.9,251.1,304.4,251.3z"/>
	<path d="M437.8,246.3c1.4-3.7,2.8-7.2,4.3-11.1C439.1,234.5,436.6,239.6,437.8,246.3z"/>
	<path d="M126.2,291.9C126.2,291.9,126.3,291.9,126.2,291.9c0.1-0.1,0.1-0.2,0-0.2C126.2,291.8,126.2,291.9,126.2,291.9z"/>
	<path d="M120.3,279.4c-0.2,0.3-0.5,0.7-0.7,1c2.2,3.8,4.4,7.5,6.6,11.3c0.4-2.1,0.7-4.3,1-5.9C124.6,283.4,122.5,281.4,120.3,279.4
		z"/>
	<path d="M100.3,288.5c3.7,2.4,7.5,4.9,11.2,7.3c0.3-0.5,0.6-1,0.9-1.4c-3.8-2.4-7.5-4.8-11.3-7.2
		C100.9,287.6,100.6,288,100.3,288.5z"/>
</g>
</svg>
