<?xml version="1.0" encoding="utf-8"?>
<!-- Generator: Adobe Illustrator 19.1.0, SVG Export Plug-In . SVG Version: 6.00 Build 0)  -->
<svg version="1.1" id="Layer_1" xmlns="http://www.w3.org/2000/svg" xmlns:xlink="http://www.w3.org/1999/xlink" x="0px" y="0px"
	 viewBox="0 0 1023.7 1030.1" style="enable-background:new 0 0 1023.7 1030.1;" xml:space="preserve">
<style type="text/css">
	.st0{fill:#FFFFFF;}
</style>
<g>
	<path class="st0" d="M922.1,888.8c7.7,10.7,13.2,23,17.5,36c1.4,4.2,1,7.8-0.5,11.8c-5.2,13.5-10.3,26.9-18.7,38.8
		c-2.2,3.1-4.7,4.5-8.7,4.4c-25-0.5-49.9-0.8-74.9-1.1c-1.5,0-3,0-5.5,0c7,16.5,13.7,32.4,20.7,48.7c-7.4,0.9-14.6,1.8-22,2.7
		c-6.8-17.8-13.6-35.4-20.2-52.9c-6.4-17.1-12.8-34.3-19-51.5c-1.5-4.2-2.9-5.5-7.8-4c-26.2,8.1-52.7,15.1-79.8,19.4
		c-42.3,6.6-84.7,8.6-127.4,5.4c-26.1-2-51-9.7-75.4-19c-14.1-5.4-28.1-11.1-42.2-16.6c-1.5-0.6-3.1-1-5.4-1.8
		c4.7,38.6,9.4,76.6,14,114.5c-0.5,0.2-0.9,0.5-1.4,0.7c-5-3-10.1-5.8-15-9c-0.9-0.6-1.3-2.3-1.4-3.6c-0.8-9.7-1.2-19.5-2.1-29.2
		c-1.1-11.3-2.6-22.5-3.8-33.8c-0.8-7.5-1.3-15.1-2.1-22.7c-1.1-10.3-2.4-20.6-3.7-30.8c-1.1-8.8-2.2-17.6-3.3-26.4
		c-1-8.7-2-17.3-3.1-26c-1.2-9.3-2.5-18.5-3.9-27.7c-2.9-19.3-6.1-38.5-8.8-57.8c-1.2-8.5-1.4-17.1-2.1-25.6
		c-1.3-16.1-3-32.2-3.8-48.4c-0.6-11.8-0.2-23.7-0.2-35.5c0-17.5,0-34.9,0-53.7c-10.8,3.2-20.2,6.1-29.7,8.6
		c-19.2,5.1-38.3,10.4-57.7,14.6c-16.3,3.5-32.9,5.6-49.4,8.1c-4.9,0.7-9.9,0.9-14.8,1c-20.4,0.4-40.9,1.5-61.3,0.8
		c-23.8-0.8-47.5-3.6-70.8-8.9c-6.2-1.4-12.8-1.7-19.2-1.8c-21.9-0.4-42.5-5.5-61.1-17.2c-13.4-8.4-23.7-19.7-27.4-35.8
		c-1.9-8.3-0.3-16,4.1-23.2c1.1-1.8,2.3-3.6,3.5-5.4c-5.4-4.3-10.8-8.2-15.7-12.7c-8-7.4-9.2-17.1-6.6-26.9c1.7-6.4,5-12.4,8.3-18.3
		c2-3.6,2.2-6-0.7-9.1c-7.9-8.4-12.6-18.5-13.3-30.1c-1-15,8.7-32.4,25.1-37.4c11.9-3.7,24.3-4.2,36.6-5c4.4-0.3,9-0.7,12.9-2.3
		c4.6-1.9,4.1-8.8,2.2-12.8c-5.3-11.3-9.6-23-10.7-35.4c-0.8-9.2-0.3-18.6,0.9-27.7c1.7-12.9,6-25.1,13.9-35.7
		c8.1-10.7,18.8-17.3,31.9-19.9c5.4-1.1,11-2,16.6-2c20.5,0.2,25.6,10.3,26.4,25.8c0.6,12.2-3.2,23.6-7,34.9
		c-3.7,11.1-7.6,22.1-5.9,34c1.2,8.7,4.8,16.7,11.2,22.5c9.5,8.6,19.9,16.2,30.2,23.9c9.2,6.9,16.8,14.6,22.4,25.1
		c2.5,4.8,9.5,8.4,15.3,10.3c19.2,6.3,38.4,12.4,58,17c30.3,7.2,61.3,9.8,92.4,8.2c16.3-0.9,32.6-2.5,48.9-3.9
		c11.8-1,23.7-1.9,35.5-3.1c10.8-1.1,21.6-2.6,33.5-4c-1.7-1.9-2.4-3-3.3-3.8c-20.1-17.4-32.6-39.5-41.3-64.3
		c-5.8-16.5-9.9-33.3-11.4-50.4c-1.5-17.7-1.2-35.8-0.2-53.6c1.4-22.6,6.8-44.5,16.5-65.1c3.3-6.9-0.9-11.9-3.7-17.2
		c-4.8-9.2-9-19-8.6-29.2c0.3-8.9,2-18.7,6.2-26.4c4.1-7.4,3-13,1-20c-8-28.8,1.1-51.3,26.9-66.7c5-3,10.4-5.1,15.7-7.7
		c0.4,0.3,0.8,0.7,1.3,1c-2.1,5-4.1,10-6.2,14.9c-4.9,11.3,3.8,18.3,12.9,19.6c15.3,2.1,23.9-7.3,32.1-17.5
		c8.5-10.4,17.1-20.7,31.2-23.7c4.9-1,10-1.4,15.1-1.9c7.4-0.7,14.8-1.4,22.2-1.9c9.6-0.6,14.9-7.2,20.9-13.5
		c6.8-7.1,13.5-15.1,21.9-19.8c10.8-6.1,22.8-3.6,33.1,3.3c6.5,4.4,12.8,9.5,18.5,14.9c5,4.8,11.3,5.4,17.4,6.9
		c9.4,2.4,18.9,4.7,28.4,6.9c6.7,1.6,9.7,7.2,13,12.2c4.5,6.7,8.5,13.7,12.4,20.7c3.6,6.4,8.4,11.6,14.9,14.7
		c13.7,6.4,22.3,17.8,29.9,30c7.1,11.5,14,23.3,19.3,35.7c3.5,8.4,5.1,18.1,5.5,27.3c1.3,25.5-2,50.7-10.2,74.8
		c-5.6,16.6-13.1,32.5-20.2,48.5c-1.7,3.8-1.9,6.4,0.4,10.2c10.2,17.3,8.1,34.6-1.7,51.3c-7.5,12.7-18.3,21.3-33.1,24.2
		c-0.2,0-0.3,0.2-0.4,0.2c-10.8-2.2-14.2,7-19.5,13c-6.5,7.3-12.4,15-18.8,22.5c-3.3,3.9-3.2,5.1,1.8,6.8
		c28.5,9.7,55.9,21.8,82.5,36c28.9,15.4,57.1,32.2,81.9,53.6c20.5,17.8,39.3,37.7,57.9,57.6c24.2,25.7,44,54.9,64.1,83.8
		c7.9,11.4,9,22.8,5.3,35.5c-6.3,22.2-14.1,43.8-23.8,64.6c-9.1,19.7-18.1,39.5-28.1,58.8c-10.9,21-22.6,41.6-37.6,60
		C929.1,881.3,925.8,884.7,922.1,888.8z M891,690.4c-1.2,1.8-2.1,3.1-3,4.5c-6.6,9.8-13.5,19.4-19.6,29.5
		c-17.8,29.5-31.5,61.1-45.3,92.5c-0.6,1.4-0.5,3.6,0.2,5c6.2,13.5,15.3,25,26.5,34.5c5.8,4.9,12.6,9.3,19.7,12.2
		c16,6.6,32.9,5,49.6,3.6c4.1-0.3,6.1-2,8-5.3c15.6-27.7,31.7-55.1,46.9-83c13.9-25.4,26.3-51.6,35.6-79.1
		c4.1-12.1,7.3-24.5,0.9-36.8c-4.3-8.2-8.6-16.6-14.1-24.1c-24.2-32.9-50.7-63.9-80.2-92.1c-37.4-35.8-78.8-65.8-125.2-88.7
		c-6.9-3.4-14.1-6.4-21.5-9.8c-0.2,1.6-0.3,2.6-0.4,3.5c-1.2,11.6-3.2,23-8.1,33.6c-14.6,31.7-39,53.7-69.4,69.7
		c-16,8.4-33.5,12.5-50.9,16.4c-6.3,1.4-9.8,4.7-10.7,10.7c-1.6,10.2-3.2,20.4-4.3,30.6c-2.4,21.3-4.8,42.7-6.6,64.1
		c-1.5,17.9-2,35.9-3.1,53.8c-1.8,31.4,0.2,62.6,3,93.8c0.4,4.9,3.1,7.8,7.8,8.1c8,0.6,16,1.3,23.9,1c22.9-0.8,45.7-3.5,67.9-9.1
		c20.9-5.3,41.4-12.1,62-18.5c1.9-0.6,4.1-3.1,4.5-5c1.4-8,1.9-16.2,3.3-24.1c4.7-25.5,9.7-51,14.7-76.4c2-9.9,4.6-19.8,6.6-29.7
		c0.3-1.5-1-4.3-2.3-5c-15.9-8.2-32.1-16-48.1-24.2c-4.9-2.5-9.3-5.9-13.9-8.8c0.2-0.5,0.4-1,0.6-1.5c3.2,0.5,6.7,0.3,9.6,1.6
		c14.5,6.2,28.6,13.2,43.1,19.2c22.3,9.3,44.8,18.2,67.4,26.8C873.9,686.8,882.3,688.2,891,690.4z M737.5,192.4
		c4.3-3.3,7.8-6.2,11.5-8.9c12.9-9.4,17.3-17.8,13.9-30.8c-2.7-10.3-13.9-18.9-23.7-18.7c-12.4,0.3-24.2,3-36.1,6.1
		c-9.6,2.5-18.4,1.4-25.5-7.3c-4.7-5.7-10.7-10.5-16.9-14.5c-8.7-5.6-18.3-9.4-29-6.6c-5.2,1.4-10.4,3.2-15.4,5.4
		c-12.1,5.1-24,7.1-36.1,0.1c-3-1.7-6.1-3.3-9.2-4.8c-7.6-3.6-14.9-4-21.2,2.6c-7.3,7.7-14.7,15.4-21.7,23.4
		c-8.4,9.6-17.1,18.5-30,22.1c-3.5,1-7.2,2.9-9.7,5.4c-3.2,3.2-5.4,7.5-7.7,11.5c-15.9,27.2-27.9,55.9-32.5,87.4
		c-2.8,18.7-3,37.5-0.9,56.2c2.1,18.7,6.4,36.9,13.4,54.4c8.4,21,19.5,40.2,34.5,57.2c17.8,20.1,39.8,34.3,64.4,44.7
		c18.6,7.9,38.1,11.2,58.3,10.4c2.1-0.1,4.2-0.5,6.3-0.7c-10,8.1-22.7,7.6-34.2,12c6.5,1.9,13,3.6,19.7,3.9
		c21.9,0.9,41.3-6.9,59.7-18c13.5-8.2,24.4-18.8,29.6-34.2c0.5-1.4,0.7-2.9,1.2-4.9c-23.5,10.2-26.1,10.8-35.9,9.1
		c1.8-1.7,3.2-3.3,4.8-4.5c3.4-2.4,7-4.5,10.3-6.9c24.3-17.5,44-39.3,60.3-64.2c1.5-2.4,3.1-3.8,6.2-3.9c4.6-0.2,9.2-0.8,13.7-1.8
		c24.7-5.2,42.3-37.4,25-59.9c-3-3.9-5.7-7.9-8.7-12.1c3.7-2.3,6.8-4.2,10.2-6.3c-4.9-8-9.5-15.9-14.5-23.4
		c-7.1-10.7-15.4-20.4-25.9-28.1c-3.6-2.6-6.9-5.8-5.4-11.5c25.9,10.4,36.1,34.5,49.9,55.7c0-3.6-0.2-7.1-1.4-10.2
		c-7.8-21-21-38.3-37.2-53.5c-4.7-4.4-9-9.2-13.5-14c1-1.3,2.1-2.6,3.2-4c25.6,15.2,38.7,39.8,51.1,65c0.5-2,0.6-3.8,0.5-5.6
		c-0.1-1.7-0.1-3.3-0.4-5c-3.5-21.7-16-37.8-32.6-51.2C753,204.1,745.9,198.8,737.5,192.4z M717.2,431c-1.9,4.6-3.9,8.6-5.3,12.8
		c-5.9,17.5-14.6,33.2-28.9,45.3c-26,22.1-56.1,31.4-89.8,26.4c-19.9-3-36.5-12.4-46.6-31.1c-1.4-2.6-3.7-5.3-6.3-6.6
		c-6.6-3.3-13.5-6.1-20.4-8.6c-1.2-0.5-4.3,0.7-4.6,1.6c-2.1,7.2-5.4,14.7-5.2,21.9c0.6,16.9,7.2,31.9,19.2,44
		c6,6.1,7.6,12.8,5.9,20.9c-3.3,15.9-6.9,31.7-9.1,47.8c-3.6,26.1-6.9,52.2-8.9,78.4c-1.8,23.2-2,46.6-2,69.8
		c0,20.8,1.3,41.6,1.7,62.4c0.2,9.2-3.8,12.5-13,11.2c-1.9-0.3-3.9-0.9-5.7-1.8c-19.2-10.3-38.4-20.8-57.6-31.2
		c-1.3-0.7-2.6-1.5-4.5-2.5c-0.1,1.6-0.3,2.2-0.2,2.8c1.6,12.3,3.1,24.7,4.9,37c2.9,19.5,6,39.1,9.2,58.6c0.3,1.7,1.8,3.7,3.3,4.5
		c13.5,6.8,26.9,14.2,40.9,20c21.2,8.8,43.4,14.5,66.3,17.2c11.9,1.4,23.9,3.4,35.9,3.8c26,0.8,52.1,0.6,77.9-3.8
		c13.6-2.3,27.6-3.4,41-6.7c22.4-5.5,44.4-12.4,66.6-18.6c4.1-1.1,5-3.2,4.8-7.5c-1-19.1-1.5-38.2-2-57.3c-0.2-6.4,0-12.8,0-19.8
		c-2.6,0.8-4.1,1.3-5.7,1.7c-19.2,5.4-38.3,11.1-57.6,15.9c-12.5,3.1-25.3,5-38,6.9c-10.3,1.5-20.7,2.8-31.1,3
		c-9.9,0.2-19.8-1-29.7-1.9c-6.9-0.6-13.1-6.6-13.8-13.7c-1.6-16.4-3.3-32.8-3.8-49.2c-1.1-34.1-0.1-68.3,2.9-102.3
		c1-11.9,1.9-23.8,3.3-35.7c2-17.8,4.7-35.4,6.6-53.2c1.8-17.7,7.3-25.4,22.1-28.5c5.6-1.2,11.5-1.5,16.9-3.3
		c15-4.9,28.9-12.1,42.2-20.9c26.1-17.3,44.9-40.1,54.8-69.9c2.4-7.3,3.2-15,4.8-22.7C744.5,442.3,731.2,436.8,717.2,431z
		 M504.1,462.2c-8.2,0-17-0.4-25.7,0.1c-13.1,0.8-26.1,2.3-39.2,3.3c-14.9,1.2-29.8,2.2-44.7,3.2c-15.9,1-31.8,2.7-47.7,2.7
		c-15.1,0-30.2-1.3-45.2-2.9c-17.6-2-35.1-4.9-52.6-7.6c-7.9-1.2-15.8-2.9-24-4.4c0.1,1.4,0.1,2,0.2,2.6c4.1,18.1,9.1,36,9.5,54.7
		c0.3,17.9-0.6,35.6-8.6,52.1c-8.9,18.3-22.7,32.7-37.5,46.2c-1.3,1.2-2.6,2.5-4.9,4.8c3.8,0,5.9-0.1,8.1,0
		c33,1.7,65.9,1.4,98.7-3.4c37.2-5.5,74.2-11.7,110-23.7c12.6-4.2,12.6-4.1,13.7-17.2c0.6-7.5,6-11.1,13.5-9.2
		c-0.2,4.3-0.5,8.6-0.7,12.9c-1,21-3.6,41.9-2.1,63.1c2,28.9,2.5,57.8,4.2,86.7c0.9,15.2,3.1,30.4,4.9,45.5c0.2,2,1.6,4.3,3.2,5.7
		c16.6,14.1,35.6,24.3,55.2,33.4c4.7,2.2,9.5,4.3,14.7,6.8c0-4,0.1-7,0-10c-0.5-10-1.3-19.9-1.6-29.9c-1.5-49.8,0-99.6,6.7-149
		c3.3-24.6,8.2-49,12.7-73.5c0.8-4.5,0.5-7.4-3-10.7c-14.3-13.4-20.5-30.6-20.8-49.7C500.7,484.1,502.9,473.3,504.1,462.2z
		 M468.5,67.1c-3.1,3.6-5.5,6-7.4,8.8c-13.7,20.3-10.3,49.7,4.1,68.2c7.9,10.2,17.1,13.2,29,8.5c6.7-2.7,13.4-6.7,18.7-11.7
		c10-9.5,18.3-20.7,28.5-30c14-12.8,24.1-13.4,38.2-4.5c1.3,0.8,2.7,1.4,3.8,2.3c7.2,5.7,14.4,5.3,22,0.8c9.6-5.6,19.3-10.9,29-16.4
		c5.9-3.4,12.1-5.7,18.1-1.4c6.9,4.9,13.6,10.4,19.5,16.4c7.7,7.8,14.5,16.4,21.8,24.5c0.8,0.9,2.6,1.7,3.8,1.5
		c3.7-0.6,7.5-1.4,11.1-2.6c8.4-2.7,16.5-6.2,25-8.4c17.4-4.6,33.2,1.4,40.9,15.5c5,9.2,9.6,19.3,3.1,29.5
		c-4,6.2-9.4,11.5-14.6,16.9c-2.9,3-6.5,5.4-10.3,8.5c22.5,17.9,41.4,37.6,46.6,67.9c1.4-2.3,2.1-3,2.4-3.9c4-13.6,8.7-27.1,11.7-41
		c2.5-11.5,3.9-23.3,3.9-35c0-19.5-6-37.7-16.1-54.2c-6.2-10.1-12.7-20.7-21.4-28.5c-9.6-8.6-18.7-17.2-25.2-28.4
		c-9.7-16.8-24-27-43.3-30.4c-11.5-2.1-22.1-6.6-31.3-14.3c-5.1-4.2-10.5-8.1-16.2-11.5c-7.2-4.4-14.9-6.7-22.6-0.8
		c-2.4,1.9-4.6,4.3-6.5,6.7c-7.5,9.5-14.8,19.2-22.4,28.7c-3.8,4.8-8.9,6.1-14.7,4.2c-2.2-0.7-4.6-1.2-6.6-2.2
		c-16-7.9-30.2-5-42.8,7.2c-7.8,7.5-15.4,15.2-23.4,22.4c-6.8,6.2-14,11.6-23.7,12.4C487.2,94.4,470.2,87.5,468.5,67.1z M67.1,595
		c-0.2,0.6-0.4,1.1-0.6,1.7c4.3,2,8.5,4.7,13,5.8c18.7,4.6,37.7,5.7,56.8,2c12.7-2.5,24.6-7.3,33.9-16.6c10.9-10.9,18.3-24,22.1-39
		c2.3-9.4,4.5-18.8,3.5-29.1c-3.4,1.7-6.4,3.2-10.7,5.3c4.9-9.1,9.2-16.7,13.2-24.5c5.5-10.8,9.2-22.3,7.5-34.5
		c-3.2-22.7-14.2-42-29.7-58.5c-7.6-8-16.8-14.5-25.1-21.9c-13.3-12-17.6-27.6-15.8-44.6c1.2-11.7,4.7-23.2,6.9-34.9
		c1.2-6.5,2.3-13,2.6-19.6c0.3-6.3-3.9-13-8.7-13.7c-6.6-1-13.5-1.9-20-1.1c-14.3,1.6-26.4,8-33.9,20.6
		C72,309.1,70.7,327.6,74,346.7c2.8,16.3,10.1,30.7,18.2,44.9c1.1,2,3.3,3.7,5.4,4.7c11.2,5.1,22.6,9.7,33.7,14.8
		c16.5,7.6,29.5,18.4,32.5,37.8c1.3,8.7,2.4,17.3-3,25c-2.8,4.1-6.4,7.6-9.9,11.8c1.2,1.3,3.6,3.5,5.6,6.1
		c6.6,8.1,14.1,16.4,12,27.8c-1.3,6.6-4.6,13.1-8.4,18.6c-2.9,4.2-2.9,6.7-0.4,10.8c9.4,15.5,4.1,31-12.6,38.4
		c-12,5.3-24.9,6.6-37.7,7.2c-12.3,0.5-24.7,0.1-37,0.1C70.6,594.7,68.8,594.9,67.1,595z M895.9,888c-33.6,0.3-57.2-16.2-74.9-41.3
		c-1.3,0.1-1.5,0.1-1.6,0.2c-10.4,14.1-19.3,28.5-17.7,47.4c1.6,19.6,6.4,38.3,13.1,56.7c3.2,8.8,8.4,14.8,18.4,15.3
		c22.9,1,45.8,2.2,68.7,3.2c2.4,0.1,5.6-0.2,7-1.6c8.5-8.7,14.5-19,15.8-31.2c1.4-13.5-6-24.7-11.2-36.4c-0.4-0.8-3-1.3-4.2-0.9
		c-11.6,3.5-19.5,11.5-23.6,22.4c-1.1,2.8,2,7.5,3.9,10.9c0.4,0.7,4.2-0.3,6.3-0.9c1.9-0.6,3.7-1.7,6-2.7c1.6,4.6,3.1,8.8,4.4,13
		c0.3,0.9,0.2,2.3-0.3,3.2c-4.4,6.9-8.9,7.5-15,2.1c-2-1.7-3.9-3.6-5.9-5.4c-8-6.7-9.7-15.1-6.9-24.8c0.8-2.8,1.9-5.7,3.5-8.2
		C885.8,902.3,890.3,896,895.9,888z M11.9,437.7c-0.1,11.1,5,19.6,10.6,27.8c0.6,0.9,2.8,1.3,4.2,1.1c9.3-1.2,18.6-2.6,27.9-4.1
		c16.9-2.9,33.8-2.9,50.3,1.3c8.5,2.2,16.6,6.1,24.9,9.1c11.2,4.1,18.9,1,20.8-9.3c1.1-6.2,0.4-12.8-0.4-19.1
		c-0.9-7-5.7-12-11.1-15.9c-15.7-11.2-32.8-20.1-52.3-21.6c-17-1.3-34-0.6-51,2.5C22,412,10.7,427.1,11.9,437.7z M72.3,522.5
		c13.6,2.1,28.8,4.3,43.9,6.9c8.6,1.5,17,4.1,25.6,5.4c3.8,0.5,10.2,0.1,11.5-2.1c4.3-7.4,6.9-15.6,3.1-24.5
		c-4.1-9.6-11.7-14.9-20.3-19.5c-14.3-7.7-29.6-12.7-45.7-14.9c-8.2-1.1-16.5-2.1-24.7-1.9c-9.5,0.2-19,1.8-28.5,2.8
		c-11.1,1.1-15.9,5.5-17.1,16.2c-0.5,4.3-0.1,8.8-0.1,13.2c0,7.1,2.8,13.3,7.4,18.4c3.2,3.6,6.9,5.8,12.6,4.5
		C50,524.8,60.2,524.1,72.3,522.5z M95.9,586.2c3,0,6,0.1,9,0c12-0.5,23.8-1.6,34.2-8.7c13.5-9.2,13.3-20.7-1.2-27.4
		c-10-4.6-20.7-8-31.4-10.6c-17.5-4.4-35.5-7.6-53.6-5.6c-13.8,1.5-20.6,8.5-21.2,20.2c-0.6,11.7,5.6,20.5,18.2,25.4
		C64.7,585.4,80.3,586.1,95.9,586.2z M803.3,845c5-4.2,7-10.7,6-15.9c-0.5-2.5-0.5-5.6,0.6-7.9c7.7-17.2,15.3-34.5,23.7-51.5
		c11.8-24.1,24-47.9,40.2-69.5c2-2.7,1.1-4.6-1.9-5.6c-13.8-4.4-27.6-8.6-41.3-13.3c-4-1.4-5-0.2-5.6,3.3c-0.7,3.8-1.8,7.6-2.7,11.4
		c-3.1,13-6.6,25.9-9.1,39.1c-3.5,18.6-6.3,37.4-9.2,56.2C801.1,809,801.6,826.7,803.3,845z M146.7,613.8c5.1,1.2,8.6,2.4,12.1,2.7
		c4,0.3,8.9,1.1,12-0.7c14.8-8.3,27-19.7,37.1-33.4c11.7-15.8,19.7-33,20.9-52.8c1.2-19.7-2.8-38.6-8.9-57.1c-0.4-1.1-1.3-2-2.6-4
		c-1,13.8-4.1,25.5-10.3,36.3c-0.8,1.5-1.1,3.5-1.1,5.2c0.1,4.7,1.3,9.6,0.8,14.2c-1.5,13.2-5.4,25.7-10.7,37.9
		c-8,18.2-19.2,33.8-36.1,44.8C156.1,609.3,151.9,611.1,146.7,613.8z M458.3,195.3c6.2-10.4,12.3-20.6,18.2-30.8
		c0.5-0.8,0.2-2.9-0.5-3.4c-6.1-4.4-12.3-8.7-18.3-12.8C444.2,158.9,447.9,179.3,458.3,195.3z"/>
	<path class="st0" d="M484.8,378.9c-4.6-9-9.6-17.8-13.7-27c-1-2.2,0.4-6.3,2-8.5c4.1-5.7,9.1-10.8,14.3-16.9
		c0.7,2.5,1.4,3.9,1.3,5.2c-0.7,8,3.9,11.5,10.9,13c9.3,2,18.7,4,28,6c22.8,4.8,44.6-0.1,66.3-6.3c8.5-2.4,17.1-4.8,25.5-7.7
		c7.5-2.6,7.9-3.8,6.4-11.3c-0.7-3.7-1.8-7.3-3-12.2c7.3,5.3,14,9.9,20.5,14.9c4.8,3.6,9,7.8,13.9,11.3c4.1,2.9,5.4,6.9,4.5,11.2
		c-2.3,10.6-5.1,21.1-7.7,31.7c-3.1-0.9-3.1-0.9-4.4-18.1c-4.4-2.3-8.5-2.1-12.9,0.7c-15.1,9.4-30.6,18.1-47.4,24.4
		c-23,8.6-45.2,7.4-66.9-3.7c-8.5-4.4-16.7-9.4-24.9-14.3c-6.9-4.2-8.4-3.7-10.5,4.1c-0.3,1-0.5,2.1-0.7,3.2
		C485.8,378.5,485.3,378.7,484.8,378.9z M644.4,350.6c-7.2-6.7-12.7-10.8-21.7-7.2c-9.3,3.8-19.3,5.9-29,8.7
		c-22.2,6.4-44.7,8-67.5,3.7c-10.9-2.1-21.8-4.3-32.7-6c-2-0.3-5.8,0.6-6.2,1.8c-0.8,2.2,0.1,5.2,0.9,7.7c0.4,1.1,2.1,2,3.5,2.5
		c10.9,4.6,21.7,9.2,32.7,13.6c16.8,6.8,34.3,7.7,52.1,5.2c3.4-0.5,6.9-1,10.1-2.2c14.9-6,29.9-12,44.6-18.6
		C635.6,357.8,639.5,354,644.4,350.6z"/>
	<path class="st0" d="M578.6,218.3c-2.2,6.6-3.7,13.6-6.8,19.8c-7,13.9-14.5,27.5-22.3,40.9c-3.3,5.7-2.9,10.7,0.1,15.9
		c1.8,3.2,4,6.1,6,9.1c1.9,2.9,3.8,5.8,5.6,8.7c-9,6-15,5.2-20.4-2.9c-4.3-6.4-8-13.3-11.9-20c-2-3.4-0.8-6.3,1.4-9.1
		c8.6-10.5,17.4-20.8,25.5-31.6c4.7-6.3,8-13.7,12.1-20.4c2.5-4,5.6-7.8,8.4-11.6C577.1,217.5,577.9,217.9,578.6,218.3z"/>
	<path class="st0" d="M516.1,232.4c-0.6,8.2-1.5,15.7-7.6,21.3c-3.4,3.2-7.9,3.4-10.2-0.5c-2.3-4-3.7-8.8-4.4-13.4
		c-1.1-7-0.4-14.1,4.3-19.9c2.1-2.6,5.5-5.7,8.4-5.8c4.7-0.1,7.1,4.5,8.2,8.8C515.6,226.1,515.7,229.5,516.1,232.4z"/>
	<path class="st0" d="M655.8,239.2c-0.6,8.2-1.5,15.7-7.6,21.3c-3.4,3.2-7.9,3.4-10.2-0.5c-2.3-4-3.7-8.8-4.4-13.4
		c-1.1-7-0.4-14.1,4.3-19.9c2.1-2.6,5.5-5.7,8.4-5.8c4.7-0.1,7.1,4.5,8.2,8.8C655.3,233,655.4,236.4,655.8,239.2z"/>
	<path class="st0" d="M639.7,171.1c4.4-3.5,8.2-6.4,11.9-9.4c17.9,11.2,28.7,26.4,28,39.6C667.5,189,657.1,175.7,639.7,171.1z"/>
	<path class="st0" d="M532.6,406c10.6-0.8,20.7-1.5,30.7-2.3c3.7-0.3,6.7,0.7,7.5,4.7c0.9,4.3-1.1,6.7-5.3,8
		C553.4,420.3,539.6,416.2,532.6,406z"/>
	<path class="st0" d="M738.5,261.7c1.1-2.1,2.5-4.3,6.1-2.2c11.6,6.6,19.4,16.2,23.2,29c0.2,0.6,0,1.3,0,1.5
		C758.2,280.8,748.5,271.4,738.5,261.7z"/>
	<path class="st0" d="M750.5,305.7c-4.4-6.3-8.9-12.7-13.3-19c2.3-4.8,5.2-5.8,8.8-1.9c3.5,3.7,6.5,8.1,8.8,12.7
		C756.4,300.9,754.7,304.2,750.5,305.7z"/>
	<path class="st0" d="M493.9,180.5c4.8-9.3,14.7-12.4,23.7-17.4c1.9,2.3,3.7,4.5,5.1,6.2C513.2,173,503.5,176.8,493.9,180.5z"/>
</g>
</svg>
