<?xml version="1.0" encoding="utf-8"?>
<!-- Generator: Adobe Illustrator 19.0.1, SVG Export Plug-In . SVG Version: 6.00 Build 0)  -->
<svg version="1.1" id="Layer_1" xmlns="http://www.w3.org/2000/svg" xmlns:xlink="http://www.w3.org/1999/xlink" x="0px" y="0px"
	 viewBox="0 0 1477.9 1701.1" style="enable-background:new 0 0 1477.9 1701.1;" xml:space="preserve">
<g>
	<path d="M1015.5,769.1c-0.1,0-0.1,0-0.2,0c0,0.1-0.1,0.2-0.1,0.3L1015.5,769.1z"/>
	<path d="M615,1288.6c0.1,0.1,0.2,0.2,0.2,0.2c0,0,0,0,0,0C615.1,1288.7,615,1288.6,615,1288.6L615,1288.6z"/>
	<path d="M1474.7,1583.5c-6.2-13.9-9.4-28.5-8.6-43.8c0.5-9.6-2.9-18-5.9-28.7c-2.5,13.3,2.4,25.2-3.4,36.2
		c-0.4,0.7,0.2,1.9,0.5,2.9c3.4,12.3,7.3,24.5,10.1,37c1.2,5.2,0.8,11.1-0.1,16.5c-1,6.3-1.3,12.2-0.6,18.6
		c0.9,8.5,5.3,18.6-4.8,25.4c-0.8,0.5-0.7,2.5-0.7,3.8c-0.4,11.6-6.8,21-11.4,31.1c-1.5,3.2-3.6,6.2-5.7,9.6
		c-1.9-2.2-3.3-3.9-4.7-5.5c-0.4,0.2-0.9,0.5-1.3,0.7c0.5,3.1,1,6.1,1.6,9.5c-5.3-2.9-5.3-2.9-12,2c-0.3-2.6-0.8-4.7-0.7-6.9
		c0.3-9.3,1.7-18.7,0.9-27.8c-1.2-12.6,3.4-24.6,1.8-37.1c-0.1-0.9,0.8-1.8,1-2.8c1.8-9.3,8.2-15.8,13.9-22.6
		c3.8-4.5,6.1-9.2,5.4-15.4c-0.3-2.8,0.9-5.7,1.6-8.9c-1.4,0.2-3.4,0.5-6,1c0-6.9-0.1-13.1,0.1-19.3c0-1.3,0.5-2.7,1.3-3.7
		c4.2-5.2,2.7-10.5-0.2-15.4c5.2-3.8,5.9-7.3,2.9-12.2c-5.4-8.7-10.7-17.5-16-26.3c-0.5-0.8-0.4-1.8-0.7-2.9
		c1.3-0.3,2.5-0.6,2.4-0.6c-0.2-11.8-0.4-23.3-0.6-34.9c0-3.7,1.7-8.4-0.1-10.8c-5.2-7.1-2.7-14.7-3.4-22c-0.3-3.3-0.9-6.5-1.9-9.6
		c-3.3-10-6.9-20-2.3-30.9c-7.3-4.8-9.6-11.1-6.5-17.9c-2.7-2.2-6.1-3.5-6.7-5.6c-2.5-9.2-4.7-18.5-6.1-27.9
		c-1.1-7.6-1-15.4-1.4-23.1c-1.5,0.3-3.1,0.6-5.3,1.1c1.8-4.1,3.2-7,4.6-10.2c-2.1-1.5-3.6-3.5-5.3-3.6c-10.8-0.6-14-8.7-16.7-16.9
		c-2.3-7-3.8-14.4-5.7-22.1c-5,3.4-4.8,6.9-3,11.5c5.6,13.5,10.7,27.2,16.2,40.7c2.1,5.3,3.3,10.5,1.6,16.7
		c-1.2-0.9-2.5-1.4-2.5-2.1c-1.2-12.7-11.4-21.5-14.7-33.2c-1.5-5.3-3-10.7-4.5-16c-1.1-3.9-2.3-7.8-3.4-11.3
		c4-11.3,7.9-22.8,12.3-34.2c0.8-2.2,3.7-3.6,4.9-4.8c6.5,12.1,12.5,23.2,18.5,34.3c1.8-5.5,1.7-10.5-0.8-15.5
		c-5.2-10.4-10.2-20.9-15.5-31.3c-2.2-4.4-4.2-9.1-1.8-13.3c7.6-13,10.3-28.6,21.1-39.9c0.6-0.6,0.9-1.8,0.9-2.7
		c0.2-7.9,1.1-16,0.4-23.8c-1.4-16.6-4.4-33.2,0-49.7c2.2-8.4,0.5-16.1-1.5-25.4c-3.9,5.9-4.6,11.4-4.6,16.8
		c-0.3,19.3-3.5,38.3-6.4,57.3c-1,6.4-0.3,13.1-0.4,19.6c-0.1,2.9,0.3,6.1-0.6,8.8c-4.6,12.4-9.4,24.8-14.6,37
		c-2.2,5.2-5.8,9.7-8.3,14.7c-5.5,11.4-10.7,22.9-16.2,34.3c-1.6,3.4-3.6,6.7-5.4,10c-2.7-7.8-1-14.2,2.4-20.4
		c1.3-2.3,3.3-4.5,3.5-6.9c0.7-8.4,0.6-16.8,0.9-25.2c0.4-10.5,1.1-21,1.6-31.5c0.1-2.9,0-5.7,0-9.3c-6.6,0-12.5,0-19.4,0
		c0.3-5.5-1.3-12.1,1.3-15.6c5.1-6.8,5-14.8,8.3-21.9c0.2-0.5,1.1-0.6,2-1.2c1.2,1.8,2.3,3.7,3.2,5.1c4.5,0,8.4,0,12.6,0
		c3.4-9,7-17.7,4-28.8c-5.2,3.6-9.5,6.5-13.6,9.5c-4.7,3.4-7.9,3.4-15-0.9c6.5-3.8,8.7-9,5-15.8c-0.6-1-0.4-2.6-0.2-3.9
		c0.8-5.5,1.8-11,2.8-16.5c0.3-1.9,0.1-4.5,1.3-5.6c5.4-5,7.5-11.2,8.1-18.4c0.2-2.1,0.3-4.7,4-4.4c0.7,0.1,2.7-3,2.4-3.8
		c-4.5-8.7,1.6-15.1,4.1-22.5c2.2,1.2,3.9,2.1,6.1,3.2c2.3-7,4.6-13.6,6.8-20.2c-5.3,3.2-5.3,3.2-9.6,2.9
		c-1.9-5.9-3.8-11.7-6.1-18.4c2.6-4.2,6.7-9.1,9-14.7c2.3-5.6,4.6-11.7,1.4-19.2c-6.1,9.1-11.1,18.2-17.6,25.8
		c-6.6,7.7-14.7,14-22.3,21.1c-5.4-10.1-12.1-1.9-19.6-2.4c4.7-4.5,8.6-8.2,12.6-12.2c1.8,2.3,2.9,3.6,3.9,4.8
		c3.8-4,7.2-7.4,10.5-11.1c7.5-8.6,14.4-17.7,17.1-28.9c3.4-13.8,6.4-27.8,8.9-41.8c1.9-10.7,2.1-21.8,4.3-32.5
		c1.5-7.2,0.8-13.7-1.7-20.7c-3,13.3-5.4,26.3-8.9,38.9c-3.6,13.1-7.3,26.4-12.9,38.7c-5.4,12-13.1,23-20,34.3
		c-0.8,1.3-2.7,1.9-5.7,3.9c0.9-3.8,1.1-5.7,1.7-7.4c3.2-8.7,6.5-17.5,9.7-26.2c8-21.5,14.7-43.4,17.8-66.2c0.4-2.8,0-5.8,0-8.7
		c-3.3,4.4-4.1,9-6,13.2c-5.5,12-11.3,24-17.4,35.7c-3.5,6.7-8.2,12.7-12.2,19.1c-2.9,4.6-5.7,9.4-11.4,11.7
		c-2.5-4.5,0.2-6.6,2.5-8.9c2.4-2.5,4.6-5,0.9-8.3c-3.9,1.3-4.8,7.7-11,5.8c0.3-1.6,0.1-3.3,0.8-4.6c5.6-10.6,12.1-20.7,21.3-28.7
		c7.5-6.5,12.8-14.6,16.1-23.7c2.6-6.9,6.3-14.2,0.6-21.8c-1-1.3-0.4-3.8-0.5-5.7c-0.3-4.7,0.8-9.8-3.7-14.1
		c-6.9,15.1-5.9,33.3-20.8,44.1c1.6-14.4,4.8-28.4,6.3-42.6c1.4-14.3,1.1-28.7,1.5-43.1c-0.7-0.2-1.5-0.3-2.2-0.5
		c-2.1,6.5-4.6,12.8-6.1,19.4c-2.8,12.1-11.2,19.8-19.4,28.3c-6.6-10.3-6.6-12.1-1-20c0.7,3.2,1.4,6.1,2.3,10.4
		c2.2-2.6,4-3.9,4.4-5.5c2.5-10,4.7-20,6.8-30c0.4-2.1,0.5-5-0.6-6.6c-3.1-4.6-2.4-8.5,0.5-12.8c1.1-1.7,0.8-4.3,1.5-8.7
		c-5.7,7.7-6.7,15.5-14.3,20.1c-0.7-3.9-1.2-6.8-1.8-9.9c-5.2,2.9-5.4,7.6-5.9,12.2c-0.6,5.5-2.7,10.1-7.7,13.2
		c-2.4,1.5-4.4,3.9-5.9,6.4c-3.6,5.9-8.3,10.2-14.8,12.5c-0.5,0.2-1.2-0.1-1.8-0.2c-0.3-1.2-0.6-2.4-0.9-3.6c-6.1,1.6-3.8,5.8-3.1,9
		c-2.8,2.4-5.2,4.9-7.9,6.6c-2.9,1.8-5,5.5-9,4.7c-4.5-6.1,4.6-5.3,3.9-10.8c-5.1,6-9.4,2.4-14.5-0.6c4.4,6.7-1.8,10.4-3.3,15.3
		c-2.5,1.2-5.1,2.4-8.9,4.1c-3.4-10-6.7-19.7-10.1-29.4c-0.8,0.2-1.6,0.5-2.4,0.7c3.8,13.9,7.6,27.7,11.4,41.6
		c-4.2,3.2-5.3,0.3-6.5-2.6c-5.5-13.5-11.1-26.9-16.8-40.3c-1-2.4-2.3-4.9-4.2-6.6c-15.1-13.9-30.3-27.6-45.6-41.4
		c-2.6-2.3-5.7-4.3-5.9-10.8c18.9,16.2,36.2,31,54.7,46.9c-1-2.9-1.5-4.3-2-5.8c-3.2-9.7-6.5-19.4-9.8-29.1
		c-0.5-1.5-1.3-3.1-2.2-4.4c-4.3-6-8.7-11.9-13.4-18.2c14,5.9,19.9,21.2,33.9,27.5c-0.5-3.3-0.9-5.4-1.3-7.6
		c3.2-0.7,5.8-1.2,8.6-1.7c-4.1-10.9-17.2-14.9-17.9-27.8c2.8,0.1,5.5,0.3,10.6,0.6c-9.1-7.2-16.6-13.1-24-19
		c0.1-0.4,0.3-0.9,0.4-1.3c11.1,2,22.3,4,33.4,6c-2.6-3.3-5.7-5.7-9.2-6.9c-9.1-3.1-18.5-5.3-27.6-8.3c-11.6-3.8-23.2-7.8-34.6-12.4
		c-5.4-2.2-9.6-6.9-16.2-6.8c-2.1,0-4.4-2.5-6.3-4.3c-2-2-3.6-4.4-5.5-6.9c7.1,1.6,13.1-0.4,18.7-4.3c7.7-5.3,15.1-5.8,22.7,0.6
		c2.7,2.3,6.4,3.4,9.7,4.9c4.5,2.1,9,4,13.5,6c-12.7-0.8-25-6.5-38.4,0.3c1.5,2.4,2.2,4.7,3.7,5.4c8.4,4,16.7,8.3,25.5,11
		c8.2,2.6,16.9,3.7,25.4,5c3.9,0.6,8,0.1,12.9,0.1c6.3,7.9,16.6,12,26,17.5c-3.7-8.2-11.6-12-18-17.2c-3.7-3.1-6.7-6-8-10.8
		c-1.4-5.1-4.1-9.8-9.2-12.6c-9.6-5.3-19.2-10.6-28.7-16c-1.2-0.7-2.4-1.8-3.2-2.9c-1.2-1.6-1.9-3.6-3.1-5.1
		c-3.5-4.4-7.1-8.6-10.7-12.9c-1.4-1.7-2.6-3.9-4.5-4.9c-15.7-8.6-32.4-14.4-50.5-10.7c-12.3,2.5-24.4,6.6-36.1,11.1
		c-11.1,4.2-21.6,9.8-34.2,15.5c9.9,4.5,17.6,2.2,25.1,0.5c6.2-1.4,12.1-2.3,17.5,1.1c-20.9,8.7-44.4,8.7-66.8,17.7
		c2.6,1.7,3.6,2.7,4.8,3c12.2,3,24.3,7.4,36.7,8.4c11.3,0.9,16.9,9.1,25.3,13.9c-5.1-0.1-9.9-1.1-14.7-2.3c-12.6-3-25-8-37.7-8.7
		c-14.3-0.8-28.2-3.1-42.4-4.6c-3.8-0.4-8.5-2.1-12.2,2.8c23.7,6.3,47.7,10,68.8,22.2c-30.4,0.7-59.6-7.4-89.8-10.2
		c1.1,2.5,2.6,4.3,4.5,5.5c1.9,1.2,4.8,1.1,6.3,2.6c5,5.1,11.1,4.9,17.6,5.1c15.3,0.3,30.6,0.3,45.8,1.7
		c18.7,1.8,36.1,8.7,52.6,17.4c5.4,2.8,10,7,15,10.6c-0.4,0.8-0.8,1.5-1.2,2.3c-5.5-1.9-11.1-3.7-16.6-5.9c-9.2-3.8-18-9-27.5-11.6
		c-23.4-6.6-47.8-6.9-71.9-8.4c-2.5-0.2-5,0.3-8.5,0.6c1.5,2.6,2.2,4.4,3.3,5.9c10.9,14.8,23.7,28.5,27.2,47.6
		c0.3,1.7,2.1,3.9,3.7,4.5c9.2,3.4,10.3,12.3,13.5,19.9c-3.4-2.9-6.8-5.9-11.5-10c0.5,4.8,0.8,8,1.3,11.2c0.8,5.5,2.5,11.1,2.4,16.6
		c-0.1,10.1-1.2,20.2-1.8,30.3c-0.8,12.9-9.6,21.5-22.5,21.8c-13.5,0.3-26.5-1.7-38.7-7.7c-4.5-2.2-9.1-4.1-13.6-6.2
		c-3.4-1.5-4.7,0.4-6.4,4.1c8.6,4.4,16.7,8.5,26.1,13.2c-13.1-0.7-22.1-7.8-31.9-12.9c0-0.4,0-0.7,0.1-1c0.5-1.2,1-2.5,1.6-3.6
		c6.8-11.5,6.5-23.2-1.4-33.7c-6.4-8.4-14.4-15.5-21.5-23.5c-4.8-5.4-10-8.2-17.6-6.4c-3.1,0.7-6.7,0.3-9.8-0.5
		c-8.6-2.2-17-5.5-26.2-4.8c-1.2,0.1-2.7-0.6-3.6-1.5c-6.7-6.3-16.5-4.3-23.9-8.8c-1.1-0.7-3.2,0.2-4.8,0.1
		c-10.9-0.4-21.8-0.8-32.7-1.4c-1.5-0.1-3.4-0.8-4.5-1.9c-6.9-7.1-16.4-6.3-25-8c-5.5-1.1-10.5,0.5-10.9,8.2
		c-6.3-0.7-11.9-1.1-17.4-1.9c-8.8-1.4-17.6-3-26.3-4.8c-5.1-1.1-10-2.8-15-4.2c17-3.4,33.1,3.8,49.7,1.1c-2.6-1.5-5.3-2.1-8-2.7
		c-14.5-3.2-29.7-1.7-43.9-7c-1.8-0.7-4.4,0.8-6.7,1c-5.9,0.6-11.7,1.1-17.6,1.5c-0.7,0-1.5-1.1-2.4-1.7c1.9-1.4,3.5-2.7,6.9-5.4
		c-8.2-1.7-14.6-3.2-21-4.2c-4.7-0.8-9.7-1.6-12.2,4.5c-0.3,0.7-2.3,0.8-4.2,1.4c-0.3-3.1-0.5-5.4-0.8-9.2
		c-11.3-2.1-22.6-4.2-33.8-6.3c0.1-0.8,0.2-1.7,0.3-2.5c10.9,1.8,21.8,6.8,33.3,2.8c-0.6-7.9-8.6-5.4-11.8-9.2
		c0.3-1.6,0.6-3.1,0.9-4.9c-9.6-3.1-19.2-5.3-29.4-1.2c1.5,1.9,3,3.8,5.2,6.6c-2.8,0.6-5.3,1.9-6.2,1.2c-2-1.6-3.2-4.3-4.2-5.7
		c-8.2-2.4-15.9-4.7-23.3-6.9c-2.3,4.2,2.9,8.3-2.2,11.1c-5.9-2.7-11.8-5.4-18.9-8.6c-4.7,3.3-11.7-3-18.8,1.2
		c4.4,1.7,7.8,3.1,11.1,4.4c-10,1.3-19.5,1.1-26.3-7.2c-7.2,3-13.4,9.6-22.3,1.6c1.1,8.2,6.2,10,10.5,12.4
		c11,6.1,22.3,11.8,33.2,18.2c2.9,1.7,6.1,5.1,6.5,8.1c1.8,12.1,2.8,24.3,3.8,36.5c0.2,2.8-0.5,6.2-2,8.5c-1.4,2.2-4.2,3.7-6.7,4.9
		c-1.7,0.8-4,0.1-5.9,0.8c-10.7,3.8-18.3-0.8-23.9-9.3c-8.2-12.6-14.3-26.2-18.1-40.8c-2.4-9.3-5.6-18.5-9.5-27.2
		c-4.4-10-10.1-19.5-15.1-29.3c-5.1-10.1-3.1-15.9,7.8-18.6c8.6-2.2,17.7-3.2,26.5-3.4c12.2-0.3,18.5,4.6,21.6,16.6
		c2.8,10.8,5.7,11,15.4,11.4c13.9,0.6,27.7,2.1,41.6,2.8c8.8,0.4,17.7,0.1,27.7,0.1c-2.9-5.6-5.1-9.8-7.2-14.1
		c0.4-0.5,0.8-1,1.1-1.5c4.2,2.1,8.4,4.2,12.4,6.1c13.8-12.3,28.4-10.4,49.7-1.8c-1.6,3-3.2,5.9-5.3,9.7c-1.1-2.3-1.9-4.1-2.4-5.2
		c-10.9-1.2-21.1-2.3-31.7-3.5c-1,1.2-2.3,3-4.7,5.9c5.5,2.3,9.8,5.2,14.4,5.8c9.2,1.3,18.5,1.4,27.8,1.8c6.6,0.2,13.2,0,21.3,0
		c-1.5-4.7-2.5-8.2-3.6-11.7c4-1.2,7.5-2.3,10.8-3.2c-8.5-6.8-16.5-13.5-24.9-19.9c-2.9-2.2-6.5-1.6-9.9-0.1c0.8,1.7,1.3,2.6,2,4
		c-1.5-0.4-2.2-0.4-2.7-0.7c-7-4.1-12.7-11.4-22.4-8.7c-0.8,0.2-1.9-0.4-2.8-0.9c-6.5-3.3-13-6.6-19.5-9.8c-2.2-1.1-4.4-2.1-6.6-3.1
		c-0.2,0.4-0.4,0.9-0.7,1.3c3.8,2.4,7.5,4.8,11.3,7.2c-8.5,0.4-14.1-5-19.9-9.5c-5.8-4.5-10.7-10-16-15.1c-0.5,0.5-1,1-1.5,1.6
		c3.2,3.8,6.3,7.6,10.4,12.5c-5.2-1.9-8.8-3.2-12.3-4.5c-4.2-1.6-8.8-2.7-12.7-4.9c-5.7-3.1-10.9-7.1-16.3-10.7
		c-0.3,0.3-0.5,0.7-0.8,1c1,1.7,2,3.4,3.7,6.3c-9.9-2.7-14.5-10.2-20.8-15.3c-6.3-5.1-11.9-11.1-17.8-16.8c-0.4,0.4-0.8,0.8-1.3,1.2
		c5.3,6.2,10.7,12.5,16,18.7c-2.3,0.3-3.8-0.1-4.8-1.1c-4.5-4.9-9.1-9.7-13.2-14.9c-5.4-7-11.1-13.6-20.7-17.9
		c1.8,3.4,2.9,5.7,4.1,8c0,1.3,0,2.6,0.1,4c7.1,1.7,13.3,6.2,15.9,12.2c2.7,6.5,5.9,10.6,12.7,12.2c1.9,0.4,3.7,1.5,5.4,2.6
		c3.6,2.4,9.4,3.1,8.3,9.6c-1.2,7.1-7.5,5.3-11.8,6.7c-2.1,0.7-6.1,0.2-6.3,1c-1.6,6-6.4,3.9-9.9,4c-11.6,0.3-23.3,0.4-35,0.1
		c-6.3-0.1-12.5-1.1-18.8-1.5c-5.4-0.4-8.8-2.3-8.4-8.6c0.1-1.6-1-4.1-2.3-4.9c-5.4-3.3-6-8-6.1-13.7c-0.2-7.7-3.6-14.2-10.5-19.4
		c-0.8,8.2-1.6,15.4-2.3,22.6c0.6,0.1,1.1,0.2,1.7,0.3c1.5-3.6,3.1-7.2,5.1-11.9c6.8,14.2-1.6,26.4-1.4,40.5
		c2.9-5.2,4.9-8.8,6.9-12.4c0.7,0.1,1.4,0.3,2.1,0.4c2.3,10.8-2,21.4-3.1,33.4c3.5-3.9,6-6.6,9.5-10.6c3.6,13.1-8.5,20-7.4,30.4
		c2.8-1.9,5.6-3.8,8.4-5.7c0.7,0.5,1.4,0.9,2.2,1.4c-3.3,11.8-11.9,21.5-15.7,33.7c2.7,0,4.8,0,8.7,0c-4.4,8.6-8.2,16-12.3,24.1
		c3.3-0.8,6-1.4,10.1-2.4c-1.2,2.7-1.6,4.3-2.5,5.4c-4.1,5.2-8.7,10-12.4,15.4c-2,3.1-2.9,7.1-7.5,6.6c-3.5-0.4-6.9-1.6-10.3-2.5
		c-4.7-1.3-8.4-5.3-14.1-4c-1.8,0.4-5.3-1.9-6.1-3.8c-1.3-3-2-7,3-9.6c2.7,6.9,7.4,11,14.9,12c1.4-1.7,2.7-3.6,4.4-5.1
		c9.5-8.7,9.8-10.1,5.3-21.3c-3.1-7.7-6.6-15.4-8.4-23.4c-4-18.4-14.7-33.2-23.9-48.9c-1-1.8-3.2-3.5-5.1-4
		c-9.9-2.7-19.8-5.3-29.9-7.5c-3.6-0.8-7.5-0.1-11.2-0.1c-0.2,0.7-0.5,1.4-0.7,2.1c8,7,19.9,8.8,26.9,17.2c-0.4,0.9-0.8,1.7-1.2,2.6
		c-15.6-4.1-31.2-8.3-46.9-12.4c-0.4,0.6-0.7,1.3-1.1,1.9c5.7,1.7,7.6,6,9.1,10.8c1.1,3.5,1.6,8.2,7,6.9c-1.7,3.5-3.3,6.8-4.8,9.8
		c6.9,5.5,6.9,5.4,1.6,10.9c-1.4,1.5-2.2,3.7-3.3,5.6c-2-0.5-4-1.1-6.8-1.9c2,9.3,13.7,2.7,15.5,11.4c-2.4-0.8-4.2-1.4-6-2
		c-0.4,0.7-0.8,1.4-1.2,2.1c2.7,2.1,5.2,4.3,8,6.2c1.6,1.1,3.9,1.3,5.3,2.5c6.3,5.4,12.3,11,18.5,16.4c0.7,0.6,1.7,0.8,2.3,1
		c2.5-2,4.7-3.7,7.4-5.8c2.8,4.1,1.6,9.3,6.6,11.4c3.4,1.4,7.2,3.8,8.9,9.1c-2.4-0.4-3.7-0.3-4.8-0.9c-5.5-3-10.7-6.9-16.5-9
		c-10.5-3.8-19.3-10.2-28.7-15.8c-6.2-3.7-13.1-6.7-20.1-8.3c-4.2-1-7.2-2.4-10.1-5.4c-4.3-4.6-9.5-7.9-18.7-8.4
		c8.5,10.1,15.3,18.9,22.9,26.9c6.3,6.8,13.6,12.8,20.2,19.3c1.5,1.4,2.1,3.7,2.6,4.6c-9.3,6-17.7,11.4-26,16.8
		c0.4,4.6,0.8,8.4,1.3,14.2c-9.1-8.2-13.4,1.1-19.8,3.6c3.5-13.5,10-25.5,7.8-39.5c1.5,3.2,2.9,6.4,4.5,9.8c3.2-7.5,6-14.1,8.3-19.5
		c-8.7-12.5-16.7-24.6-25.4-36.3c-4.1-5.5-9.4-10.3-14.4-15.1c-1.2-1.2-3.3-1.4-4.9-2.1c-0.4,0.6-0.8,1.1-1.2,1.7
		c3.2,3.3,6.5,6.7,10.3,10.6c0.6,14.2,13.4,20.7,22.8,30c-1.1,2.8-2.1,5.4-2.9,7.7c-3.2-4.1-5.9-7.7-8.8-11.3
		c-5.2-6.5-10.7-12.7-15.7-19.4c-5.3-7.1-9.9-14.7-15.3-21.8c-3.2-4.2-6.2-9.1-12.3-10.2c-2.3,4,0.5,6.1,2.1,8.3
		c3.7,5.1,7.5,10.2,11.5,15.1c2.9,3.6,5.8,7.5,9.5,10.2c4.9,3.6,7.2,8.2,8.8,13.7c-2.8,2.5-5.9,4.3-7.6,7
		c-12.7,20.2-25.2,40.5-37.5,60.9c-3.2,5.4-3.9,11.3-3.1,18c1.4,11.8,7.5,21.1,13.2,30.6c3,4.9,8.2,8.3,14.2,10.2
		c5.4-12.4,9.2-25.2,22.1-33.4c-0.7,10-5.8,17.1-9.3,24.8c-5.3,11.9-11.2,23.6-9.7,37.2c0.4,3.5,0.9,7.7,3.1,10.1
		c6.4,7.4,11.9,16,21.8,19.6c-0.4,2.7-1.1,4.9-1,7.2c0.4,10.3,5.8,15.3,15.6,16c19.4,1.3,37.4-4,55-10.9c0.2-2.1,0.4-3.8,0.5-5.8
		c3.6,1.6,6.6,2.9,9.7,4.3c0.8-2.2,1.5-3.9,1.8-4.8c26.8,0.9,52.9,1.8,78.9,2.6c4.1-3.9,2.1-12.3,10.3-13.4
		c0.7,3.3,1.4,6.3,2.3,10.2c6.6-3.3,12.5-6.1,18.2-9.2c12.3-6.7,26.1-8.3,39.3-11.8c0.3-0.1,0.7-0.3,1-0.2c8.3,4.3,16.1,0,24.1-1.4
		c2.3-0.4,4.5-1.2,6.8-1.3c8.6-0.2,16.5-2.6,23.6-7.2c12-7.7,25.9-8.9,39.4-13.1c1.7,3.2,3.1,5.9,4.6,8.7c1.9-3.6,3.8-7.3,6.1-11.5
		c9.8,8.3-0.4,17.5,2.5,24.7c6.5-3.7,12.4-8,19-10.4c6.4-2.4,12.6-8.6,20.8-3c-0.2,2.8-0.3,5.7-0.5,9.7c-10.3,3.1-20.6,6.1-30.8,9.2
		c16.1,5.7,32.2,8.1,49.5,6.1c-3.3-6.5-3.3-6.5-2.5-11.6c10.8,4.1,10.8,4.1,12.2,9.5c7.6,1.2,13.8-7.5,23.7-3.4
		c-3.8,3.5-6.3,5.8-9.2,8.4c3.7,4,7.2,7.8,11.2,12.1c6.7-2.7,13.4-5.4,20.6-8.4c0.9,2,1.7,3.7,2.6,5.5c-2.8,2.3-5.1,4.2-8.5,7
		c9.7,1.9,17.1-5.5,26.7-1.8c-2.7,3.8-5.1,7.2-7.5,10.6c3.7,6.6,4.9,7.2,11.5,5.2c5.2-1.6,10.4-3.3,16.3-5.2c0.7,8.9-7,12.1-9.3,19
		c2.6,0.2,4.6,1,6,0.4c7.7-3.1,15.2-6.6,22.8-9.8c2.1-0.9,4.4-1.1,6.7-1.7c0.3,0.7,0.5,1.5,0.8,2.2c-4.2,2.3-8.5,4.4-12.6,6.9
		c-4.1,2.6-8,5.6-11.9,8.3c6,11.8,9.1,13.2,19.7,9.3c4.4-1.6,8.7-3.3,13-5.1c3.3-1.4,6.5-2.1,10.8,0.3c-2.3,1.9-3.6,3.4-5.2,4.3
		c-3.8,2.1-7.7,3.9-11.5,5.9c-2.6,1.4-6.2,2.7-4.5,6.4c1.6,3.5,4.7,1.2,7,0.3c5.8-2.4,11.6-4.9,17.4-7.5c4.7-2.1,4.7-2.1,12.1-0.8
		c-6.2,4.4-11.4,8.4-16.9,12c-3.9,2.5-8.1,6.3-12.1,6.2c-7.7,0-15.1-1.7-22.2,3.7c-2.1,1.6-6.6-0.2-10-0.4c4,4,8.6,6.1,13,8.8
		c3.3,2,6.8,4.3,8.9,7.3c6.9,9.6,5.3,24.3-3.7,35c-3.1-4.9-5.9-9.6-9.1-14.2c-1.6-2.3-3.8-4.2-5.8-6.3c-0.1,2.8,1.3,6.7-3.8,5.9
		c0,0.1,0,0.2,0,0.2c-0.1-0.1-0.2-0.1-0.3-0.2c4,8.8,2,19.7,10.2,27.2c-7.9,3-9.2-3.8-11.8-7.8c-2.9-4.4-4.7-9.5-7.3-14.8
		c-7.3,26.8,6.5,49.2,9.9,73.4c-11.9-21.1-20.2-43.9-33.1-65c0,5,0,9.9,0,15.5c-3-1.1-4.8-1.7-6.6-2.4c4.5,14.8,9,29.2,13.2,43.8
		c1,3.7,2.2,8.7,0.6,11.5c-4.1,7-2.4,13.4-0.6,20.2c1.6,5.8,3.1,11.5,4.5,17.3c2.4,9.6,4.7,19.3,6.9,29c0.4,1.6,1.2,3.8,0.5,4.8
		c-5.2,6.9-1.8,11.5,3.5,16c1.3,1.1,2.1,3.8,1.7,5.4c-0.4,1.3-2.8,2.1-5,3.6c2.1,4.3,4,8.8,6.4,13.2c5.5,10.1,8,21,9.4,32.3
		c0.5,3.9,1.2,7.9,1.3,11.8c0.3,13.2,3.9,26.2,1.1,39.6c-1.2,5.5,0.6,11.8,1.3,17.6c0.6,5,1.4,10.1,2.3,15.6
		c-7.4-0.8-10.4-5.6-13.8-9.4c-3.8-4.4-7.9-7.8-13.7-9.2c-2.6-0.7-4.9-2.9-7-4.8c-2.4-2.3-4.3-5-6.3-7.7
		c-8.8-11.7-18-23.1-23.5-36.9c-3.9-9.9-6.4-19.8-3.7-30.9c1.8-7.5,6.7-12,11.5-16.9c4.4-4.5,7.8-9.4,8.1-16.6
		c-2.1,0.7-2.6,2.8-3.9,4.3c-6.8,7.7-13.6,15.5-20.9,22.7c-14.2,14-28.8,27.6-43.3,41.3c1.2,0.9,2.3,1.7,3.5,2.6
		c5.1-5.2,9.9-9.9,15.1-15.2c1.5,8.6,2.6,15.7,4.1,22.8c2.5,11.9,9.1,22.9,7.6,35.7c-0.1,0.9,0.4,1.9,0.8,2.8
		c7.4,16.2,14.9,32.1,35,36.5c5.4,1.2,10,2.3,15.2-0.3c1.8-0.9,4.4-0.6,6.6-0.5c8.9,0.5,17.8,1.4,26.7,1.7c4.6,0.1,7.3-2.4,7.6-7.4
		c0.2-2.6,1.5-5.2,2.1-7c4.4,4.7,8.5,9,12.8,13.6c-1.4,10.1-2.5,21-4.5,31.6c-4,20.8,5.5,39.4,8.9,59c1.4,7.9,3.8,15.6,6,24.4
		c-4.7-2.5-8.4-4.4-12.5-6.5c-1.9,2.1-3.3,3.9-4.9,5.5c-1.9,1.9-3.8,3.7-5.9,5.3c-9.3,7.2-11.3,13.2-8,24.4c0.5,1.9,0.2,4,0.7,5.9
		c0.6,2.9,0.7,6.3,2.5,8.3c4.9,5.6,2.9,12,3,18.1c0.1,7.2-4.1,11.7-11.2,14.7c1.9,4.1,4,7.5,5.2,11.2c1.9,5.6,5.4,11.8,4.4,17
		c-2.1,11.8,3.2,21.9,5.1,32.8c0.5,3.1,4.8,6.6,4,8.5c-2,4.9-0.7,9.5-1,14.2c-1.1,15.9-2.3,31.8-3.3,47.7c-0.1,1.6,0.7,3.2,1,4.8
		c238,0,476,0,714,0c7-10.5,10.7-22.1,11.2-34.7c0.1-2.3,0.3-4.7,1-6.9c5.4-16.5,7.2-33.7,9.6-50.8
		C1478.4,1599.7,1478.3,1591.8,1474.7,1583.5z M1429.8,1539.7c0.7,1.7,1.5,3.5,2.2,5.2c-0.5,0.2-0.9,0.4-1.4,0.6
		c-1-1.6-2-3.3-2.9-4.9C1428.5,1540.4,1429.1,1540,1429.8,1539.7z M1155.3,741.7c-0.5,0.7-1.1,1.3-1.6,2c-5.3-2.5-10.7-5.1-16-7.6
		C1146.1,732.3,1151,736.4,1155.3,741.7z M1045.5,726.8c-1.4-1.9-2.8-3.7-4.1-5.6c0.6-0.5,1.2-1,1.8-1.5c1.5,1.7,3,3.5,4.5,5.2
		C1046.9,725.6,1046.2,726.2,1045.5,726.8z M310.9,710.6c-2.2-1.3-4.4-2.6-6.6-4c0.4-0.5,0.9-0.9,1.3-1.4c2,1.4,4,2.7,6,4.1
		C311.4,709.7,311.1,710.1,310.9,710.6z M239.4,913.9c-0.7-0.9-1.4-1.5-1.3-1.7c1.1-2,2.3-3.9,3.5-5.8c0.1-0.2,0.6-0.3,0.8-0.2
		c0.3,0.1,0.4,0.5,0.8,1C241.9,909.2,240.7,911.4,239.4,913.9z M297.4,777.8c-17.4-6-24.8-21.7-35.5-36.8c7.8,1.3,10.2,6,12.4,10
		c4.9,9,11.8,15.7,20.5,20.9c1.7,1,2.9,2.9,4.3,4.5C298.5,776.7,298,777.2,297.4,777.8z M289.3,752.9c12.3,13.1,20.1,27.8,35.2,35.2
		C313.4,789,295.2,770.9,289.3,752.9z M317.1,771.2c11.1,8.8,22.2,17.7,33.4,26.5C338.7,795.4,324.6,784.1,317.1,771.2z
		 M356.7,795.6c-6.9-3.3-11.3-9.2-15.6-15.2c0.6-0.5,1.2-1,1.8-1.6c5.1,5.1,10.2,10.2,15.3,15.2
		C357.7,794.6,357.2,795.1,356.7,795.6z M368.6,791.3c-2.7-1.6-5.3-3.3-8-4.9c0.2-0.5,0.5-1,0.7-1.6c2.9,1.4,5.8,2.8,8.7,4.1
		C369.5,789.7,369,790.5,368.6,791.3z M399.3,857.7c-7.5-19.3-10.7-39.5-15-61.5C391.4,803,401.2,843.6,399.3,857.7z M406.5,689.8
		c-4.3-8.4,2.7-17.9,14.5-19c-9.5,8.6-5,17.3-2.6,25.5c1.4,4.7,4,8.9,5.5,13.7C416.6,704.6,410.6,697.8,406.5,689.8z M596.3,869.5
		c-3.1,8-10.4,13.2-17.6,20c-1.8-10.4-2.5-19.6-5-28.3c-3.9-13.4-8.9-26.4-13.5-39.5c-0.7-1.9-1.5-3.7-2.1-5.6
		c-2.7-9.4,0.2-12.5,10.2-11.6c0.6,0.1,1.3-0.3,2.1-0.6c3.8-6.8,7.7-13.7,11.6-20.6c2.2-3.9,5-5,9.6-1.4c-1.6,6.1-3.1,12.5-5,18.8
		c-5.1,16.4-4,31.7,8.8,44.3C603.8,853.2,599.4,861.6,596.3,869.5z M599.1,821.7c-0.6-0.4-1.1-0.7-1.7-1.1c1.3-3.5,2.6-6.9,3.9-10.6
		c4.9,3.1,4.9,3.1,10.4-0.2C610.5,818.1,602,816.7,599.1,821.7z M596.9,916.4c7.8-1,14.6-11.5,24.6-2.4
		C612.9,919.3,604.7,916.2,596.9,916.4z M626,806.4c-0.1-0.2,1.4-0.8,2.2-1.3c0.9,1.6,1.7,3.2,2.6,4.8c-0.9,0.3-1.9,0.7-2.8,1
		C627.3,809.4,626.5,807.9,626,806.4z M628.6,908.1c1.3-5.4,3.3-6.9,7.6-5.1C634.1,904.4,632.1,905.8,628.6,908.1z M649.2,909.1
		c-0.8-1.6-1.7-3.1-2.5-4.7c0.5-0.3,1-0.7,1.5-1c1.1,1.4,2.1,2.8,3.2,4.2C650.7,908.1,650,908.6,649.2,909.1z M672.6,913.6
		c-1.5-0.5-3-0.9-4.6-1.4c0.3-0.8,0.5-1.7,0.8-2.5c1.5,0.8,3,1.6,4.5,2.3C673.1,912.6,672.9,913.1,672.6,913.6z M719.6,932.3
		c5.3-2.7,5.3-2.7,8.9,3.7C725.7,934.9,723,933.7,719.6,932.3z M764.7,952.1c0.6-0.6,1.1-1.3,1.7-1.9c2.9,2.3,5.8,4.7,10.4,8.4
		C769.7,958.4,767.2,955.3,764.7,952.1z M716.7,1133c-1.9-2-4.4-3.7-5.5-6.1c-6.1-13.7-11.8-27.5-17.6-41.3
		c-0.4-0.9,0.4-2.3,2.3-3.9c7.3,16.9,14.6,33.7,22,50.6C717.5,1132.5,717.1,1132.8,716.7,1133z M681,1323.3c-2.5-3.5-5-7.1-7.6-10.6
		c0.6-0.5,1.3-0.9,1.9-1.4c2.4,3.6,4.8,7.2,7.2,10.8C682.1,1322.5,681.6,1322.9,681,1323.3z M1289.1,969.8
		c2.8-7.7,6.2-15.1,9.8-23.6c2.5,3.3,4.4,5.1,5.4,7.2c1,1.9,2.1,4.6,1.4,6.3c-3.4,8.6-9,15.7-15.7,21.8c-0.8-0.3-1.6-0.6-2.4-0.9
		C1288.1,977,1287.9,973.1,1289.1,969.8z M1292.4,803.4c0.5,0.1,0.9,0.1,1.4,0.2c-0.8,3-1.3,6.3-2.7,9c-0.7,1.4-3.2,1.9-4.8,2.8
		c-0.3-0.5-0.7-0.9-1-1.4C1287.6,810.4,1290,806.9,1292.4,803.4z M1274.3,826.5c1.2,0.9,2.6,1.7,2.5,1.9c-0.6,1.3-1.4,2.5-2.2,3.7
		c-0.6-0.7-1.7-1.3-1.7-2C1272.9,829,1273.7,827.9,1274.3,826.5z M1227.4,890.2c-0.1,3-0.3,5.9-0.4,8.9c-0.4,0-0.8,0-1.2,0
		c-0.2-3-0.3-5.9-0.5-8.9C1226,890.2,1226.7,890.2,1227.4,890.2z M1224.6,845c-0.6,1-1.3,2-1.9,3c-0.5-1-1-2-1.4-3
		C1222.4,845,1223.5,845,1224.6,845z M1212.7,883.8c16,22.6,12.2,45.2,5.4,68c-4.1-6.9-1.7-14.4-2.6-21.6c-1-7.5-2.2-15-2.9-22.6
		C1211.9,900.1,1209.5,892.7,1212.7,883.8z M990.9,834.8c3.5,2.4,5.7,4,8.3,5.8c1.1-4.4-2.5-9.5,2.2-13c1.4,6,2.9,12,4.2,17.5
		c-2.7,3.4-5.2,6.6-7.9,10.1c-0.5-1.7-1-3.4-1.9-7c-3,8.2-5.6,15-8.1,21.8c-0.5-0.2-1-0.3-1.5-0.5
		C987.7,858.4,989.2,847.3,990.9,834.8z M933.7,936.1c-2.9,7.9-5.9,12.1-13.5,13.2C922,942.3,925.9,938.9,933.7,936.1z M884.4,840.4
		c2.1,1.2,4.1,2.4,6.2,3.5c-0.7,1-1.4,2-2.1,3c-1.9-1.4-3.7-2.9-5.6-4.3C883.4,841.8,883.9,841.1,884.4,840.4z M880.4,850.1
		c1.5,1.4,2.9,2.2,3,3c0.1,0.8-1.3,2.5-2,2.4c-1,0-2.2-1.1-2.7-2.1C878.5,852.9,879.6,851.7,880.4,850.1z M826.6,851.9
		c0.2,1.5,0.4,3,0.6,4.5c0,0-1.3,0.3-1.3,0.2c-0.5-1.4-0.9-2.9-1.4-4.3C825.2,852.1,825.9,852,826.6,851.9z M807.2,862.9
		c1.6,4.7,3.7,9.6-1.5,11.7c-0.9-0.3-1.8-0.7-2.7-1C804.4,870.1,805.8,866.5,807.2,862.9z M795.2,1024.8c4-0.4,8-1.8,12.9-2.9
		c-6,9-14.1,10-26.2,3C786.3,1024.9,790.8,1025.2,795.2,1024.8z M719.1,1083.1c-1-3.2,0.1-5.7,3.5-8.8c-2.4,10.5,6.6,15,9.5,22.6
		C726,1094.5,720.8,1088.7,719.1,1083.1z M736.7,1350.7c-1.1-2.8-2.3-5.5-3.4-8.3c0.8-0.3,1.6-0.7,2.4-1c1.2,2.7,2.4,5.5,3.6,8.2
		C738.4,1350,737.6,1350.4,736.7,1350.7z M738.7,1096c12.2,17.4,20.5,36.9,29.7,56C762.7,1148.7,740,1105.3,738.7,1096z M746,1201.7
		c8,10.8,11.4,23.6,16.1,35.8c0.3,0.7-0.9,2.1-2.2,4.7C754.2,1227.8,747.9,1215.5,746,1201.7z M764.6,1252.4
		c-1.1-2.7-2.2-5.4-3.8-9.5c5.6,2.3,5.3,5.7,5.9,8.7C765.9,1251.9,765.2,1252.2,764.6,1252.4z M769.5,1266.6c-0.9-3-1.8-6-2.6-9.1
		c0.8-0.2,1.6-0.4,2.4-0.7c0.8,3,1.6,6.1,2.5,9.1C771,1266.2,770.2,1266.4,769.5,1266.6z M776.8,1281.1c5.8,4.1,11,14,11.9,22.5
		C782.5,1296.8,778.1,1290.3,776.8,1281.1z M799,1344.1c7,2,10.6,7.5,12.3,16.5C807.2,1355.1,803.1,1349.6,799,1344.1z
		 M815.6,1369.3c-2.2-2.1-3.5-4.7-3.9-7.8c1.9,2.2,3.8,4.3,5.7,6.5C816.8,1368.4,816.2,1368.9,815.6,1369.3z M803.6,1234.8
		c1.2-2.1,1.8-3.1,2.4-4.1c0.5,0.3,1.2,0.5,1.4,0.9c3.3,6.9,8.6,13.7,9,20.7c0.4,6.1,3.2,8.5,6.7,11.4c-0.8,3.3-1.6,6.4-2.7,10.6
		c-3.1-5.3-5.8-10.1-8.6-14.9c-14.5-24.9-29.1-49.9-43.6-74.8c-1.7-2.9-3.4-5.8-4.7-8.8c-3.8-9.1,0.9-18.6,10.1-22.3
		c13.2-5.3,26.2-11.2,39.5-16.5c4.4-1.8,9.2-2.5,13.8-3.7c-5.6,6.5-13.9,8.1-21.1,11.7c-8,4-16.4,7.3-24.5,11
		c-4.1,1.9-7.6,4.4-6.6,9.7c-2.3,1.1-5.3,1.6-6.5,3.3c-1,1.4-0.6,4.6,0.4,6.5c4.7,9.4,9.8,18.7,15.8,29.8c1.4-6,2.2-10,3.2-13.9
		c0.9-3.6,2.7-5.7,7-5.3c2.2,0.2,4.7-0.6,6.8-1.6c7.9-3.3,15.6-7,23.5-10.3c7.5-3.1,7.6-3,17.7,2.1c-9-1-9.4,7.7-15.9,9.3
		c-6,1.5-11.3,6-18.5,10.1c-0.5-0.1-4.8-1.8-5.9-0.6c-4.2,4.6-13.1,3.1-14.1,11.7C793,1215.7,798.1,1224.8,803.6,1234.8z
		 M827.9,1133c6.4-2.5,12.6-5.3,19.1-7.1c3.4-0.9,7.1,0.6,8.6,5.6c-1.9,1.7-3.9,3.5-6.4,5.8C843,1129.8,835.2,1133.1,827.9,1133z
		 M829.3,1274.7c0.5-0.5,0.9-1,1.4-1.4c1.1,1.6,2.3,3.2,3.4,4.8c-0.3,0.3-0.6,0.5-1,0.8C831.8,1277.5,830.5,1276.1,829.3,1274.7z
		 M853.6,1456.6c-1-1.6-2.3-3-3-4.7c-2.1-5.8-2.7-12.5-6.1-17.2c-3.6-4.8-6.4-9.1-6.2-15.2c0-1.2-1.3-2.8-0.9-3.4
		c3.6-4.8,2.8-8.7-1.6-12.5c-1.2-1-0.9-3.6-1.8-7.5c3.5,1.5,7,2.1,7.3,3.4c0.9,4.4,8.3,7.1,3.7,13.1c-0.5,0.6,2.1,3.1,2.5,4.9
		c2.9,12.8,5.6,25.5,8.4,38.3C855,1456.1,854.3,1456.4,853.6,1456.6z M840.1,1303.7c8.3,14.7,16.7,29.4,25,44.2
		C859.1,1343.6,843,1316.6,840.1,1303.7z M851.8,1205.6c0.9-0.4,1.8-0.8,2.7-1.2c4,8.8,8.1,17.6,12.1,26.4
		C858.3,1224.1,855.7,1214.5,851.8,1205.6z M900.9,1309.3c1.9,1.6,3.8,3.2,5.6,4.8c0.5-0.3,1-0.6,1.5-0.8c-0.6-2.4-1.2-4.8-1.7-7.2
		c0.5-0.3,1-0.5,1.5-0.8c1.9,3.2,3.8,6.4,5.8,9.6c0,0,0,0,0.1,0c-1.8,3.9-4.4,6.3-9,7.6c-7.4,2.1-14.6,5.1-22.6,8
		c0-5.5,0-11.4,0-18.3c2.4,0.5,4.8,0.4,6.5,1.5C897.1,1319.1,897.5,1319.1,900.9,1309.3z M890.2,1309.5c0.2-0.8,1.6-2,2.4-2
		c0.8,0,1.6,1.4,3,2.7c-1.7,0.9-2.8,2-3.6,1.8C891.2,1311.7,890,1310.2,890.2,1309.5z M906.3,1577.7c-0.7,0.2-1.4,0.4-2.1,0.6
		c-0.7-2.8-1.4-5.5-2-8.3c0.6-0.2,1.1-0.3,1.7-0.5C904.7,1572.3,905.5,1575,906.3,1577.7z M882,1255.3c1.7,1.7,3.4,3.4,5.1,5.1
		C882.7,1260.7,881.4,1258.7,882,1255.3z M893.8,1350.7c-2.1-1.2-4.2-2.4-6.4-3.7c1.5,2.7,3,5.5,4.6,8.5c-7.7-3.2-11-7.8-11.8-16.8
		c1.4,1.1,2.3,1.9,3.3,2.6c0.4-1.2,0.9-2.4,1.7-4.7c3.4,4.8,6.3,8.8,9.2,12.8C894.3,1349.9,894,1350.3,893.8,1350.7z M876.6,1250.4
		c0.4-0.4,0.8-0.7,1.2-1.1c1.1,1.5,2.2,3,3.2,4.5C879.5,1252.7,878,1251.6,876.6,1250.4z M898.9,1549.5c0.6,2.6,1.2,5.3,1.9,7.9
		C895.6,1555.6,896.6,1552.7,898.9,1549.5z M898.6,1575.2c0.3,7,6.1,6.5,12.1,8.6c-3.3,1.1-5,1.7-7.1,2.5c1.7,1.4,3.1,2.6,4.5,3.8
		c-1.5,1-3,2.1-4.5,3.1c0,0,0,0,0-0.1C898.4,1585.6,898,1584.2,898.6,1575.2z M914,1617.3c-4.6-3-5.3-6.2-4.4-10.1
		C915.2,1608.3,914.5,1612.2,914,1617.3z M907.7,1598.2c1.4,2.8,4.6,5.4,2,8.8c-4.5-3.5-5.7-8.4-6-13.6c3,0.8,6,1.6,11,2.9
		C911.3,1597.2,909.8,1597.6,907.7,1598.2z M912.2,1359.4c3.3-2,6.5-4.1,10.8-6.7C922.3,1360.1,917.2,1359.7,912.2,1359.4z
		 M929.5,1349.7c-0.5-1.8-1.5-3.7-1.6-5.5c-0.2-10.4-3-19.4-12.4-25.5c-1-0.6-1.2-2.4-1.6-3.8
		C927.7,1320.6,932.1,1329.9,929.5,1349.7z M919.2,1262.3c0.6-0.3,1.2-0.6,1.8-0.9c1.4,2.9,2.8,5.8,4.3,8.7c-0.5,0.3-1,0.5-1.5,0.8
		C922.2,1268,920.7,1265.1,919.2,1262.3z M938.4,1458.4c-0.9-1.6-1.9-3.2-2.8-4.8c0.6-0.4,1.1-0.8,1.7-1.2c0.8,1.8,1.6,3.5,2.3,5.3
		C939.2,1458,938.8,1458.2,938.4,1458.4z M945.2,1473.5c-1.2-2.4-2.4-4.8-3.6-7.3c0.4-0.3,0.8-0.7,1.1-1c1.3,2.5,2.7,4.9,4,7.4
		C946.2,1472.9,945.7,1473.2,945.2,1473.5z M997.2,1546.9c-7.3-4.5-14.4-9.4-21.5-14.2c-2.5-1.7-4.7-4.4-7.4-4.9
		c-10.9-1.8-13.6-10.5-16.6-18.9c-1.9-5.2-3.1-10.7-4.6-16c0.8-0.4,1.6-0.8,2.4-1.2c2.6,6.3,5.5,12.5,7.7,18.9c2,6,4.4,11,11.5,12
		c1.5,0.2,2.7,1.8,4.1,2.8c9.9,7.1,19.7,14.2,30.5,22C1000.9,1547.3,998.6,1547.8,997.2,1546.9z M1009.7,963.3
		c-11.6,33.3-35.6,50-69.7,55.7c-22.8,3.8-45.3,9.9-67.7,15.9c-15.4,4.1-30.5,6.2-46,2c-4.3-1.2-8.3-3.5-12.5-5.3c0-0.8,0-1.7,0-2.5
		c10.9-4.2,21.7-8.3,32.5-12.4c-0.6-2.7-1.1-4.7-1.9-8c7.5,4.3,13.7,7.8,19.3,11c4.9-6.5,9.4-13,14.5-19c2.5-2.9,5.8-5.2,9-7.4
		c10.5-7,20.8-13.8,28.8-24.2c6.2-8,14.4-14.7,22.5-20.9c15.1-11.7,26.9-26.5,40.3-39.8c6.1-6,10.8-13.4,15.9-20.4
		c5.3-7.2,7.9-15.2,6.5-24.4c-0.3-2.1,0.3-4.4,0.4-6.6c0.8-0.1,1.7-0.2,2.5-0.3c1.2,3.9,2.4,7.7,3.5,11.6c1.1,3.7,1.9,7.5,3.3,11.1
		c3.8,9.3,6.2,18.7,6.3,28.9C1017.5,927.2,1015.9,945.4,1009.7,963.3z M1024.8,951.1c2.1-24.8,2.3-49.6-4.9-73.6
		c-5.1-16.8-11.4-33.2-17.2-49.8c-0.1-0.3-0.5-0.4-0.7-0.6c-0.2,0.2-0.3,0.4-0.5,0.6c-5.8-3.9-2.6-10.7-6.7-15.1
		c0.7-0.5,1.4-1,2.2-1.5c1.7,1,3.9,1.6,5.1,3.1c10.1,11.9,15.4,26.2,19.7,40.9c5.5,18.8,9.5,37.9,10.2,57.6
		C1032.4,925.9,1029.9,938.7,1024.8,951.1z M1057.2,884c-1.2-3.7-2.4-7.5-3.5-11.2C1059,875.1,1059.3,879.1,1057.2,884z
		 M1073.7,876.8c-0.6-0.2-1.2-0.3-1.8-0.5c0.8-2.1,1.6-4.1,2.4-6.2c0.3,0.1,0.6,0.2,0.9,0.2C1074.7,872.5,1074.2,874.6,1073.7,876.8
		z M1080,852.3c-0.3-7.9-7.3-12.3-9.2-18.2c-2.4-7.6-6.9-12.4-12-17.6c0.1,8.2,3.5,15.2,7.4,22.1c0.7,1.2,1.7,2.8,1.4,4
		c-1.1,5.1,0.9,9.2,4.1,12.7c3.8,4.1,1.1,7-0.1,9.7c-3.9-6.2-7.6-12.1-11.3-18c-0.7,0.2-1.3,0.3-2,0.5c-0.4,6.5-0.8,13-1.2,19.9
		c-13,2.4-13.5,11.5-10.6,22.3c-0.7,0-1.3,0.1-2,0.1c-1-1.6-2.6-3.2-3-5c-1.6-6.8-2.9-13.6-4.3-20.5c-2.1-10.1-4.1-20.2-13.6-26.7
		c-2-1.3-3.2-4.2-4.1-6.6c-2.1-5.2-4.4-10.4-5.4-15.9c-0.7-4.5-3.1-7.6-5.3-11.2c-7.3-11.8-14.1-23.9-24.4-33.6
		c-1.7-1.6-1.9-4.9-1.5-7.8c6.3,5.7,12.6,11.3,19.7,17.8c-0.3-4.1-0.5-6.8-0.7-10.1c4.7-0.5,8.9-0.9,13.1-1.3c1.4-3.7,4.1-5,7.6-2.8
		c8.7,5.5,17.3,11.3,25.8,16.9c0.5,0.3,1.1,0.9,1.2,1.5c0.7,8.8,7,9.6,14.6,10c-0.2,1.8-0.3,3.6-0.5,6c20.8,7.7,29,27.4,39.3,44.8
		c3.1,5.2,5.6,12,3.1,19.8c-3.2-2.8-5.9-7-10.9-2.9c0.5-2.1,1-4.2,1.3-5.8c-3.2-2.2-6.2-4.4-10.1-7.2
		C1085.5,849.9,1083.2,850.9,1080,852.3z M1105.6,1541.1c-0.5,0.3-0.9,0.6-1.4,0.9c-1.1-1.7-2.2-3.4-3.3-5.2
		c0.5-0.3,0.9-0.6,1.4-0.9C1103.4,1537.6,1104.5,1539.3,1105.6,1541.1z M1096.1,1569.7c-5.5-5.1-7.8-11.7-7.8-19.4
		c1,2.4,1.9,4.8,2.9,7.1c3.6,8.2,5.1,8.4,13.3,1.4c-2.1-2.6-3.9-5.7-6.5-7.8c-3.6-2.9-2.6-5.4-0.2-9.8c4.5,6.4,8.2,11.6,12.1,16.9
		C1103.1,1566.6,1102.7,1566.9,1096.1,1569.7z M1108.8,782.7c-1.7-2-3-4.3-5.7-8.2c21.6,10.1,39.8,40.3,49.6,80
		c-2.9,1.8-4.6,1-6.1-2.1c-5.5-11.7-11.5-23.2-16.6-35.1C1124.6,804.7,1117.6,793.2,1108.8,782.7z M1145.8,941.7
		c4.1,12.6,1.2,23.9-8,32.7C1140.6,963.1,1138.8,951.6,1145.8,941.7z M1140.8,1281.4c0.6-4.3,9.7-13.3,14.4-14
		c4-0.6,6.2,2.1,7.6,5.2c4.7,10.6,9.3,21.1,13.8,31.8c1.7,4.2,2.9,8.7,4.7,14.1c-8.4,0.2-12.1-4.6-15.7-9.2
		c-3.7-4.8-7.3-9-13.8-10.5C1146.3,1297.6,1140.1,1286.4,1140.8,1281.4z M1168,950c4.2,8.6,7.5,15.2,1.2,23.5
		C1164.5,965.7,1166.8,958.9,1168,950z M1176.9,1594.8c-6.7,0.5-12.6,1-19.7,1.6C1163.8,1586.8,1169.5,1586.3,1176.9,1594.8z
		 M1158,1617c1.6-2,3.1-4,4.7-6c0.6,0.5,1.3,0.9,1.9,1.4c-1.5,2-3,4.1-4.5,6.1C1159.4,1618,1158.7,1617.5,1158,1617z M1162.5,1624.7
		c0.1-5.7,4.1-7.2,7.5-9.2C1169.4,1619.7,1168.1,1623.5,1162.5,1624.7z M1175.7,1641.7c0.7-1.9,1.3-3.3,2-5.1
		c-2.2-1.4-8.1,1-5.9-5.2c0.1-0.3-0.4-1.1-0.8-1.4c-3.6-3.3-3.9-6.5-0.5-8.6c1-0.6,3.2-1,3.7-0.5c3.5,4,6.8,8.2,9.9,12.6
		c0.4,0.6-0.8,2.2-1.6,4.4c4.8-1.7,7.2,0.1,7.4,4.5c-2.7,2.2-5.5,4.4-9.6,7.6c0.5-3.5,0.7-5.4,1-7.6
		C1179.5,1642.1,1177.7,1641.9,1175.7,1641.7z M1186.7,1655.8c-3.9-6.4,3.1-8.8,3.3-13.2c1,1.2,2,2.3,3.5,4
		C1191.4,1649.4,1189.3,1652.3,1186.7,1655.8z M1188,943.2c2.3-7.5,2.5-15.8,8.5-22C1193.3,928.4,1199.1,938.9,1188,943.2z
		 M1197,870.9c-2.3-2.9-4.1-4.5-5.1-6.5c-7.4-13.8-14.5-27.7-21.9-41.4c-1.9-3.4-3-8.6-9.9-7c0,4.1-0.9,8.4,0.2,12.3
		c3.5,13.4,5.8,27.2,13,39.3c-1.8,6.3,5.8,13.4-3.2,20.1c-1.5-5.4-3.3-9.9-4-14.6c-4-27.8-16.6-53-24.7-79.5
		c-5.2-16.9-16.2-30.4-33.7-37.2c-2.8-1.1-5.4-2.6-8-4c-1.4-0.8-3.3-1.7-3.7-3c-2-6.6-3.7-13.4-5.4-20.1c0.6-0.4,1.2-0.8,1.9-1.2
		c8.4,7.1,16.8,14.3,25.7,21.9c-1.3,0.8-2.4,1.5-4.4,2.8c35.2,32.8,65.5,69.1,84.4,113.7C1198.3,867,1197.7,868.1,1197,870.9z
		 M1231.2,1587.6c-2.2,7.3-10.8,8.8-17,3.9c-4.9-3.9-8.8-8.9-11.5-16.1c8.1-3.5,15.7-7.2,23.7-10.1c1.5-0.6,6,1.8,6,2.9
		C1232.6,1574.6,1233.1,1581.5,1231.2,1587.6z M1270.1,924.1c-2.4,8.1-8.9,13.9-18.6,18.2c1.8-11.4-2-22,2-33.3
		c3.5-9.5,1-20.2,0.8-32.4c-5.3,4.9-5.7,9.2-6.5,13.5c-2.1,12.8-3.9,25.6-6.6,38.2c-1.8,8.7-5.1,17.1-11.1,24.3
		c-0.7-8.1,0.5-16,3.7-23.3c3.3-7.4,5.6-14.8,5.3-23c-0.1-2.3,0.8-4.6,1.2-6.8c1.8-10.4,4.9-20.7,3.3-31.5c-1-6.7,0.9-12.5,6.9-15.8
		c0-5.2-2.6-10.2,1.8-14.5c4.9,3.3-0.1,7.5,1.7,12c3.2-1.5,6.3-2.9,9.4-4.3c4.9,1.1,6.1,5,6,9.1c-0.3,10.2-1.3,20.5-1.4,30.7
		c0,4.4,1.4,8.8,4.1,13.5c1.9-4.9,3.7-9.7,5.6-14.6c0.6,0.2,1.3,0.4,1.9,0.6C1276.6,897.9,1273.9,911.1,1270.1,924.1z M1278.2,855.4
		c-4.1-6.4-4.6-12.6-0.8-19c3.9-0.5,5.1,1.3,5.5,4.4C1284,848.5,1283.5,850.6,1278.2,855.4z M1280.5,866.9c4.7,3.2,4.2,5.7,2.9,8.4
		c-0.7,0-1.4,0-2.1-0.1C1281,873,1280.8,870.7,1280.5,866.9z M1281.4,1469.9c1.3-3.8,2.7-7.9,4-12c0.4,0.1,0.9,0.2,1.3,0.4
		c-0.6,3.7-1.2,7.4-1.9,11.8c6.6-0.7,5.6-12.7,14.5-7.8c0.5,4.2,1,8.7,1.6,13.2C1292.5,1477,1292.5,1477,1281.4,1469.9z
		 M1298.3,1494.3c2.8-2.4,5-4.4,8.9-1.8C1304.8,1496.1,1301.9,1495.4,1298.3,1494.3z M1308.8,1030c0.9-4.5,2-8.8,8.2-10.1
		C1316.4,1025.5,1312.9,1028,1308.8,1030z M1340.5,1353.4c-2,1.9-1.7,6.4-4.2,9.8c-0.7-2.2-1.5-4.3-2.3-6.8
		c-4.3,0.8-8.8,1.7-13.8,2.7c-1.8-7.2,2.6-10.7,6-14.6c0.7,0.2,1.4,0.4,2.1,0.6c0,3,0,6,0,11.1c6-6.9,2.9-12.9,2.8-18.7
		c3.6,0,7.5,0,12.4,0C1343.3,1343.8,1345.4,1348.8,1340.5,1353.4z M1349.5,1273.8c0.5-0.2,1.1-0.4,1.6-0.6c1.2,2.5,2.5,5,3.7,7.5
		c-0.9,0.3-1.9,0.6-2.8,0.9C1351.1,1279,1350.3,1276.4,1349.5,1273.8z M1354.3,1364.1c1.5-8.4,1.3-17.1,2.1-25.7
		c0.3-3.6,1.4-7.1,1.9-10.7c0.4-3.2,1.6-6.7,0.7-9.5c-1.9-6,1.1-10.7,2.3-15.9c-0.1,25.4-0.8,50.7-4.6,75.7
		C1353.8,1373.8,1353.3,1369.4,1354.3,1364.1z M1357.1,1450c-0.4,0-0.7,0-1.1,0c0-3.1,0-6.2,0-9.3c0.4,0,0.7,0,1.1,0
		C1357.1,1443.8,1357.1,1446.9,1357.1,1450z M1409.9,1645.8c-1.9-1.6-4.2-3.6-6.5-5.6c0.4-0.8,0.9-1.6,1.3-2.5
		c4.3,4.3,10.5-1.4,16.1,4.2C1416,1643.6,1413.1,1644.7,1409.9,1645.8z M1421.8,1536.6c-3.4,6.4-7,12.7-10.9,19.6
		c-3.5,1.2-7.8,2.7-12.2,4c-1.5,0.5-3.7,1.1-4.8,0.4c-5.6-3.9-12.5-6.3-16.1-14.6c13.3-5.8,26.3-11.4,39.4-17.1
		c-0.3-0.7-0.5-1.3-0.8-2c-14.8,3.6-28.4,11-43.3,14.8c-6.3-5.6-7.2-13.5-8.5-20.8c-0.4-2.4,3-6.4,5.6-8.4c3.1-2.3,7.2-3.3,10.9-4.8
		c9.5-3.8,19.1-7.6,28.8-11.5c-1.7-3.2-4.3-2.8-7.3-1.7c-6.3,2.2-12.5,4.5-18.9,6.2c-3.4,0.9-8.8,1.9-10.4,0.2
		c-3.5-3.8-9.2-5.3-11.4-9.5c-2.1-4-2-9.3-1.1-14.5c2,4.7,3.9,9.5,5.9,14.2c0.7-0.1,1.4-0.2,2.1-0.4c0.4-1.4,1.5-3.1,1.1-4.1
		c-6.6-13-7.2-27.2-9.2-41.2c-0.9-6.5-0.8-13.2-1.1-19.8c-0.8-15.8,1.1-31.8-2.8-47.5c4.3-2.5,4.1-6.8,4.6-11.2
		c2-18.4,4.3-36.7,7.6-55.3c10.9,10.4,12.1,25.8,21.1,37.9c1-1.6,1.8-2.8,2.8-4.3c0.3,15.4-5.9,30.8,2,44.7c-5.7,11.7-7.5,22.9-3,35
		c9.3-2.2,10.4-12.4,18.6-15.8c-1.4,9.1-3,17.3-13.4,20.7c4.6,5.3,6.8,10.6,5.4,18.6c-3-3.2-5.1-5.4-8.2-8.7
		c0.4,2.7,0.4,4.3,0.8,5.9c3.1,11.6,6,23.2,9.4,34.6c1.7,5.7,3.8,11.3,11.1,12.7c1.8,0.4,3.7,3.6,4.5,5.9c2,6,3.5,12.1,4.8,18.3
		C1426.2,1524,1425,1530.5,1421.8,1536.6z"/>
	<path d="M1223.4,727.2L1223.4,727.2c0-0.2-0.2-0.2-0.3-0.3C1223.2,727,1223.3,727.1,1223.4,727.2
		C1223.4,727.3,1223.4,727.2,1223.4,727.2z"/>
	<path d="M631.6,34.4C631.6,34.4,631.6,34.4,631.6,34.4L631.6,34.4C631.7,34.4,631.7,34.4,631.6,34.4z"/>
	<path d="M941.1,321.9c-0.1,0.1-0.1,0.1-0.2,0.2c0,0,0,0,0.1,0.1L941.1,321.9z"/>
	<path d="M969.6,189.7c-1.6-4.6-3.5-8.2-4-12.1c-1.5-11.1-1.9-22.4-3.7-33.5c-0.9-5.9,0.1-10.1,5.8-12.5
		c-2.8-11.9-8.1-21.8-14.4-31.2c-1.1-1.6-3.2-3.4-3-4.8c0.8-6.7-3.8-9.9-8.4-12.1c-10.4-5-19.7-11.5-29-18.2
		c-3.9-2.8-8.8-4.3-13.3-6.5c4.9-6.8,11.2-8.6,18.6-7.7c2,0.2,4,0.2,6,0.1c1.6-0.1,3.2-0.4,4.9-0.7c-19.6-5.7-38.5-11.2-57.6-16.7
		c-6.8-0.9-13.6-3-20.2-4.8c-5.1-1.4-10.3-3-14.9-5.8c-0.6-0.1-1.1-0.3-1.6-0.5c-4.8,0.7-9.7,1.7-14.5,3c-8.2,2.3-16.1,5.2-24.4,7
		c-2.9,0.6-5.8,1.1-8.8,1.5c-12,5.2-20,4.5-20,4.5s-1,0-3.9-0.3c0,0.1-0.1,0.2-0.1,0.3c-0.4-0.1-0.7-0.3-1-0.4
		c-7.1-0.8-23.3-3.3-57.4-10.9c-52.5-11.7-69.8-10-69.8-10c8,5.9,11.9,16,21.9,19.9c-0.3,0.6-0.6,1.1-0.9,1.7c-3.5-1-7.1-2-10.9-3
		c-0.7,2.3-1.3,4.4-2,6.7c-4.3-2.5-5-9.3-11.2-8.3c0,0,0,0,0,0c0.3,0.6,0.6,1.2,0.9,1.8c-0.3,0.1-0.7,0.3-0.9,0.2
		c-2.5-2.1-5-4.2-7.8-6.7c-5.6,3.2-16.4-2.6-18.1,9.8c2.9,2.7,5.8,5.3,8.6,7.9c-0.2,0.5-0.4,1-0.6,1.6c-4.3-0.8-8.5-1.6-12.8-2.4
		c-0.1,0.7-0.3,1.4-0.4,2.1c4.1,0.8,8.2,1.5,12.2,2.6c2.8,0.8,5.4,2,7.9,3.5c4.3,2.5-3.3,2.4-1.5,5.4c3.2,1.6,6.4,3.1,10.1,4.9
		c0.3-4.7,0.5-7.8,0.8-11.6c7.7,1.9,13.2,5.3,17,10.7c-4,0-8.9-1.4-12,0.4c-3.6,2-5.6,6.8-9.1,11.5c-1.1-3.9-1.8-6.2-2.4-8.6h-23.9
		c1.3,3.4,2.4,6,3.5,9c-5.4,1.3-8.3,4.1-6.2,9.9c2.5,7,0.4,12.8-4.4,18.3c-2.7,3.1-4.3,7.2-6.3,10.7c6.5,6.2,12.4,11.7,18.1,17.1
		c-6.2,3.3-14.3-1.6-21.1,4.4c4.9,2.6,8.9,4.7,14,7.3c-6.7-0.4-12-1.4-17.3-1c-5.2,0.4-10.3,2.2-15.2,3.3
		c0.7,10.9,6.8,16.8,14.8,21.3c2,1.1,4,2.4,5.8,3.8c1.6,1.3,2.8,3,4.2,4.5c-12.4-1.4-18.6-12.6-30.4-17.5c1.6,4.3,2.6,7.2,3.6,9.9
		c3.2,1.5,6.2,3,9.6,4.6c-1.9,4.9,0.2,7.7,4.2,9.9c3.9,2.2,5.5,5.5,3,9.5c3.4,2.4,6.2,4.3,10.9,7.5c-9.1,2.9-16.1,5.2-23.6,7.6
		c8.6,8.4,19.8,12.9,29.9,13c6.2,0,11.8,1.9,17.2,8.5c-4.8-1.1-7.9-1.8-10.9-2.4c-0.2,0.4-0.4,0.9-0.5,1.3c3.9,2.5,7.9,4.9,13.2,8.2
		c-3,1-4.1,1.6-5.3,1.7c-6.6,0.2-12.4-1.8-17.2-6.5c-3-3-5.3-3.8-8.9,0.2c-3.6,4-8.8,4.2-14.1-0.8c-0.4,4.8-1,8-0.9,11.2
		c0.1,3.6,2.4,5.4,6.1,4.7c1.9-0.4,3.9-0.9,5.7-1.7c7-3.1,13.2-1.8,20,1.6c8.4,4.3,17.3,8,26.3,10.9c7.5,2.4,16.1,2,23.2,5.2
		c11.6,5.1,23.5,3.6,35.1,3.6c12.7,0.1,25.8-1.8,38-5.2c9.1-2.6,18.1-3.4,27.3-4.6c4.5-0.5,9-2.1,13.1-4c12.4-5.4,30.7-1.1,36.5,9.5
		c6.2,11.3,12.1,22.6,11.5,36.3c-0.2,5.2-0.4,11.3,3.9,16c8.7,9.6,17.2,19.3,25.8,29c8.2,9.3,16.8,18.7,19.4,30.9
		c3,14.1,8.2,28.2,4.8,43.2c-0.8,3.4,0.2,7.3,0.5,10.9c0.7,7.3,1.5,7.9,9.5,7.2c0.9-0.1,1.7,0.4,3.3,0.7c-0.3,2.6-0.5,5-0.8,8.5
		c-3-2.2-4.9-3.7-7.4-5.6c2.8,8.2,8,15.6-0.1,23.5c2.9,0.9,5.4,1.8,9.4,3.1c0.3-8.8,0.9-16.3,0.8-23.8c-0.1-4.7-1.1-9.5-1.7-14.2
		c-2.4,5.4-2.4,5.4-8.3,3.4c1-2.8,2-5.7,3.3-9.1c2,2.3,3.6,4.1,5.3,6c0.1-2.3,0.1-4.6,0.2-6.9c0.5-5.9-2.6-8.4-8-8.2
		c-0.7-3.9-1.3-7.3-2-11.8c4.6,2.7,7.8,4.5,11.9,6.8c1.3-4.5,2.1-7.7,3-10.8c2.1-7.3,3.9-14.8,6.5-21.9c3.5-9.9,9.5-18.2,17.4-25.1
		c0.9-0.8,2.8-0.6,5-1c-0.6,3.8-1,6.5-1.4,9.7c4.1-1.8,6.8-1.5,7,2.6c0.1,4.3,0.3,8.9-1.1,12.7c-2.4,6.6-6.2,12.7-9.6,19.5
		c0.9,0.3,2.4,1.2,3.2,0.8c4.3-2.3,9-4.3,12.3-7.7c4.5-4.7,6.8-12.2,12-15.7c7.5-5,6.9-11,5.1-17.3c-1.6-5.6-4.8-10.8-7.3-16.1
		c-1.1-2.3-2.3-4.6-3-6c3.7-3.7,6.7-6.6,9.6-9.5c-1-1.3-1.9-2.6-3.4-4.5c5.6-6.7,11.6-13.3,16.9-20.3c2.3-3,3.8-6.8,4.9-10.5
		c4.2-13.2,2.8-27,3.2-40.6c0.2-5.9-0.5-13.1,2.5-17.4c4.4-6.4,3.3-12,1.2-17.7C963.1,202.7,961.8,195.2,969.6,189.7z M610.6,245.8
		c-0.9-0.7-2.1-1.3-2.7-2.2c-0.2-0.3,0.5-1.4,1.2-2.9c1.3,1.2,2.4,1.9,2.9,2.9C612.1,244,611.1,245.1,610.6,245.8z M610.7,94.4
		c0.5-7.8,5-13.8,11.4-19c-0.5,2.8-0.9,5.6-1.5,9.1c1.4,0.2,2.9,0.4,5.5,0.8c-0.8,4.1-0.3,9.5-2.7,12c-5,5.2-4,10.9-3.5,16.6
		c0.4,5,0.1,9.6-2.5,14.1c-0.2-7.3-0.4-13.9-5.4-20.1C609.6,104.9,610.4,98.9,610.7,94.4z M604.3,88.3c4.3,3.5,2.7,6.9,2.6,10.2
		c-0.2,3.8,0.3,7.7,0.6,11.6c0.2,3.2,0.6,6.5,1,9.7C603.9,110,600.9,100.1,604.3,88.3z M610,133.5c5.2,6.1,9.8,11.6,14.3,17
		c-7,6.4,4.8,8.9,3.1,15.7C617.9,157.1,610,148.1,610,133.5z M616.9,208.4c9.2-1.2,12.2,0.2,18.6,10.8
		C629.4,215.7,623.3,212.2,616.9,208.4z M836.6,45.3c1.2,3.3,1.9,5.5,3.2,9C834.5,52.1,835.5,49.4,836.6,45.3z M921.1,114.1
		c-9.8-8.3-20.2-17.1-30.5-26.1c-5-4.4-9.6-8.6-16.5-10.3c-4.6-1.1-8.6-4.3-12.6-6.4c0.2-4.1,1.8-5.9,5.2-4.5
		c5.8,2.4,11.9,4.4,17,7.9c6.5,4.4,12.1,10.2,18.2,15.2c7.6,6.3,15.3,12.4,22.2,18C923.3,109.6,922.3,111.6,921.1,114.1z M924,81.2
		c1.8,1.1,3.7,2.3,6.6,4.1C925.9,87.2,924.2,85.7,924,81.2z M931.5,98.4c11.7,5.2,17.2,14.6,19.5,27.9
		C938.8,119.7,939,106.3,931.5,98.4z"/>
	<path d="M981.2,427.1c-2.3,0.9-4.4,3.2-5.7,5.3c-5,8.2-9.6,16.6-14.2,24.6c1,3.6,2,6.9,3.1,10.7c3.1-0.3,8.2-5,8.9,0.8
		c-3.2,3.8-7.8,6.9-7.6,9.7c0.5,6.3-4.4,6.8-7.3,9.3c-2.2,1.9-5.1,2.8-8.2,4.4c7.9,8.4,15.5,16.6,23.1,24.6c0.2,0.2,0.7,0.1,0.9,0.3
		c9.6,8.1,19.4,15.9,28.7,24.3c5.9,5.4,4.4,14.9-2.2,19.3c-3.2,2.1-6.4,4.3-10.2,6.9c6.3,5,11.5,9.2,16.8,13.4
		c0.4-2.2,0.8-5.3,3.9-3.3c6.4,4,12.9,8.2,18.2,13.5c4.4,4.4,1.4,9.7-1.7,14.5c-4.3-1.1-5-4-4.6-7.5c0.7-5.8-2.1-8.5-7.6-8.9
		c0.8,4.2-0.4,7-4.8,9c-8.4,3.9-16.4,8.8-24.8,12.9c-4.5,2.2-9.4,3.8-14.1,5.6c7.2-10.9,20.2-12.5,28-20.4c0.9-3.6,1.7-6.7,2.8-11.5
		c-4.5-4.5-9.4-9.8-15-14.4c-1.8-1.5-6.1-2.1-8.1-1c-16.5,9.2-32.6,19-49,28.3c-5.2,2.9-10.8,5.1-12,12.1c-2-0.7-3.5-0.8-4.4-1.6
		c-12.4-10.6-24.7-21.2-36.9-31.9c-1.3-1.1-1.5-3.5-2.2-5.3c0.6-0.5,1.2-0.9,1.8-1.4c13.2,9.2,26.5,18.3,40.8,28.3
		c1.3-2.9,2.4-5.6,3.4-7.9c2.7-0.7,6.2-0.7,8.8-2.3c16.9-10.6,33.5-21.5,50.2-32.4c5-3.3,5-8.1-0.4-9.5c-4.4-1.1-4-4.3-5.6-6.5
		c-3.4-0.4-6.6-0.8-9.8-1.1c-0.6-4.4-1.1-8.2-1.6-12.1c-3.2,0.4-5.7,0.7-7.9,1c-0.7-1.1-1.2-1.6-1.5-2.1c-3.9-9-3.7-8.4-12.9-5.8
		c-7.8,2.2-16.1,3-24.2,3.8c-1.3,0.1-2.8-2.4-4.5-3.9c-0.5,5.2-0.6,9.9-1.5,14.4c-0.8,3.9-1.8,8-7.7,6.7c-1.2-0.3-3.3,1.5-4.2,2.9
		c-0.4,0.7,0.9,2.7,1.7,3.9c2.5,3.7,5.1,7.3,7.8,11.1c-4.6,2.2-8.1,3.8-10.5,4.9c-4.5-2.7-8.2-5-11.2-6.8
		c-4.2-5.1-8.2-9.8-12.7-15.3c-8.4,8.2-16.3,15.7-24.1,23.3c-0.6-0.6-1.3-1.2-1.9-1.7c6.4-8.4,12.9-16.8,20.2-26.4
		c-7.7-0.9-12.9,1.3-17.9,3.5c-12.4,5.6-24.5,11.8-37,17.3c-19.3,8.6-36.6,20.3-53,33.4c-11.8,9.5-14.9,22.3-13.1,36.7
		c0.4,3,1.8,5.4,5.8,4.9c-2.2-12.3,0.6-26.6,6.8-33.5c10.6-11.9,24.3-18.8,40-22.8c-0.9,2.2-2.9,3.2-4.7,4.5
		c-7.9,5.5-15.9,10.9-23.6,16.7c-10.1,7.6-13.9,18.2-13.8,30.5c0,4.5,1.9,6.4,6.5,6.8c20.4,1.7,20.4,1.9,37.2-9
		c1.4-0.9,2.4-2.6,3.8-3.1c1.5-0.5,3.4,0,5.1,0c-0.5,1.7-0.4,4-1.5,4.9c-3,2.6-6.5,4.5-11.4,7.8c5.7,0.6,9.3,0.1,12.2,1.4
		c4.8,2.1,9.3,3.2,14.4,1.3c1.4-0.5,3.4-0.3,4.9,0.2c12.3,4.2,24.5,8.5,36.7,12.9c1.5,0.5,3,1.5,4.1,2.7
		c9.3,10.6,21.1,17.4,34.5,22.8c3.3-4.7,6.1-9.6,9.8-13.8c5.2-5.9,10.8-11.7,16.9-16.7c3.7-3,8.8-4.1,13-6.5
		c6.1-3.6,10.6-1.9,12.8,5c1.4,4.3,2.9,8.7,5,12.7c4.8,9.3,18.3,11,23.7,1.1c2.5-4.5,6.3-8.5,10-12.2c2-2,4.9-3.8,7.6-4.1
		c2.5-0.3,5.2,1.7,8.1,2.8c4.9-4.2,9.8-8.7,15-12.9c8.5-6.9,11-8,17.4-8.5c-6.6,6.9-13.1,13.6-20.8,21.6c7.9-1,14.2-1.1,20.1-2.8
		c20.8-5.9,41.4-12.2,62.4-18.5c-3.8-6.4,3.1-6.8,7.5-9.4c-4.7-2.2-8.9-4.1-13.9-6.4c2-0.8,2.8-1.3,3.7-1.6c9.6-2.7,17.9,3.2,27,4.2
		c4,0.4,7.9,2.1,13.5,3.7c-3.7,2.9-5.8,4.5-8.5,6.6c2.7,0.9,4.2,1.4,6.1,2.1c3.6-9.3,11.3-11.7,19.5-11.3c8.7,0.5,17.3,2.7,25.9,4.2
		c0-0.1-0.1-0.1-0.1-0.2c9.4,1.6,18.4,3.7,20.7,14.6c17.8-6.4,24.8,7.9,34.3,18.8c0.9-3.5,1.4-5.7,2.2-8.8c7.2,3.4,12.7,7,16.8,13.1
		c2.9,4.3,6.4,9.2,10.8,11.3c8.1,3.9,13.4,9.4,16.7,17.5c1,2.4,2.6,4.7,4.1,6.8c3.5,4.8,8.3,8.6,9.4,15c0.2,1.4,3.7,3.4,5.2,3.1
		c4.9-1.2,7,1.7,8.4,5.1c2,4.5,3.6,9.3,4.9,14c1.8,6.7,8.2,15.8,14.9,20.5c-0.9-8.9-2.1-17.8-2.6-26.6c-0.3-5.4-1.1-11.4,5.9-14
		c0.4-0.1,0-2.2,0-4.3c-2.1,2-3.4,3.2-5.9,5.5c-3-6-5.8-11.1-7.8-16.4c-0.4-1,2.9-3.2,4.8-5.3c-1.5-4-3-8.5-5-12.7
		c-0.8-1.7-2.8-4.3-3.7-4.1c-7.2,1.8-8-3.9-10.4-8c-1.3-2.2-3.2-6.3-4.4-6.1c-7.8,1.1-8.3-5.7-10.5-9.7c-6.4-11.2-12-22.8-17.7-34.4
		c-2.5-5.1-5.5-9.6-10.4-13.2c-1.5,1.3-2.6,2.3-4.3,3.8c4.6,6.5,8.9,12.8,13.3,19.1c-6.7-0.1-8.9-4.7-11.5-8.6
		c-2.6-3.8-4.5-8.1-7-12.1c-2.4-3.8-5.3-7.4-7.9-11.1c-0.3,0.3-0.7,0.6-1,0.9c1.5,3.2,3.1,6.5,4.6,9.7c-0.7,0.5-1.3,0.9-2,1.4
		c-6.3-5.1-12.2-10.7-17.6-16.9c-3.7-4.2-6.9-9.6-11.6-11.8c-6.9-3.3-11.9-8.3-16.6-13.6c-10-11.5-16.3-25.9-28.3-35.8
		c-0.6-0.5-0.6-1.8-0.9-2.8c-1.3,0.9-2.7,1.8-4.5,3c3.5,8.1,11.8,12.6,16.4,20.3c-13.3-3.2-26.4-6.6-36.9-15.9
		c-1.6,0.5-3.8,2.2-5.3,1.7c-10.8-4-19.6-10.6-25.4-20.8c-1.6-2.7-1.1-5.1,2.3-6.2c1.4-0.5,2.9-0.9,6.3-1.9
		c-5.1-3.8-8.7-6.3-12.2-8.9c0.1-0.3,0.3-0.7,0.4-1c12.8,2.9,25.6,5.8,39.4,9c-1.3,2.2-2.1,3.6-3.3,5.4c5.8,5,10.7,11.5,19.5,11.8
		c-0.9-7.7-5.1-13.5-10.4-18.8c-4.4-4.4-10.1-8.9-8.8-15.9c1.3-6.8-2.5-10.2-6.7-15.8c-3.6,5.2-7.6,5.3-12.7,2.9
		c-2.2-1-6.7,0.4-7.2,4.9c-0.4,4.7-3.1,5.2-7.5,4c4-5.6,7.6-10.7,11.3-15.8c2.7-3.8,2.1-6.1-2.3-8.6c-8-4.4-15.5-9.7-23.8-15.1
		c-7.6,2.5-7.5,1.9-17.6-1c-6.2-1.7-12-3.5-16.7-8c-6.9-6.6-14-8.7-24.9-7.8c12.4,13.5,26.5,24.7,42.2,33.4
		c10.9,6.1,20,13.3,26.8,24.9c-7.2,0.8-13.2-2.2-19.6-3.3c-2.6-6.4-5.8-12.1-13.8-11.7c-1.1-3-2.1-5.5-3.1-8.3
		c-3.9,3.9-7.2,7.2-10.2,10.3c-2-3.4-2.9-6.3-4.8-8.1c-3.3-3.1-5,2.1-7.6,2.5c-7.2-7,0.3-11.5,2.1-17.3c-9.1-2.1-9.1,10.5-18.1,10.6
		c0.6-4,1.1-7.4,1.6-10.8c0.3-2.3,1.5-5,0.7-6.7c-2.6-5.1-6.1-9.8-9.1-14.3c-3.1,1.3-5.9,2.3-8.6,3.5c-3.6,1.5-7.7,2.4-10.6,4.8
		c-13.6,10.7-25,23.6-35.7,38c-1.7-1.4-3.5-3-6.3-5.5c5-4.5,9.9-7.9,13.6-12.4c10.3-12.2,20.2-24.7,30.1-37.1
		c3.2-3.9,4.3-8.3,1.1-12.8c-4.7-6.6-9.5-13.2-14.3-19.7c-0.1,5.6,0,10.2-2.9,14.6c-1.3,2.1-2,5-1.8,7.5
		C997.8,414.8,992.6,422.7,981.2,427.1z M916.3,587.2c-0.9-1.9-2.3-3.6-2-4.6c1.3-3.4,4.7-4.6,13.8-5.1
		C923.7,581.1,920.3,583.9,916.3,587.2z M901.9,567.1c3.3-1,6.5-2.4,9.7-3.8c4-1.8,6.1-0.2,8.3,4.9c-5.4,3.1-10.1,6.2-15.1,8.4
		c-4.5,1.9-8.4,0.2-8.9-3.3C895.2,568.9,898.6,568.1,901.9,567.1z M801.4,575.1c-0.2-6.2,2.8-7.2,5.7-7.7c6.4-1.2,11.7-3.9,14.8-10
		c1.5-3,3.9-3.9,6.1-1.2c0.7,0.9-0.4,4.5-1.7,5.4C818.9,566.8,810.9,570.9,801.4,575.1z M811.9,614.9c1.7-1.8,3.5-3.5,5.2-5.3
		c-1,2.2-2,4.4-3.1,6.7C813.4,615.8,812.7,615.4,811.9,614.9z M817.6,608.9c1.8-7.2,7.3-11.7,12.4-16.4
		C828.2,599.6,823.2,604.5,817.6,608.9z M840,586.7c-0.5-7.1,1.1-12.1,5.4-17.8C845.9,576.1,845.2,581.3,840,586.7z M955.5,610.5
		c2.2,1.5,4.3,3,7.4,5.1C957.7,615.7,957.7,615.7,955.5,610.5z M1232.2,594c5.6,3.8,11.2,7.5,16.8,11.3c-0.6,0.8-1.1,1.6-1.7,2.4
		c-5.5-4-10.9-8-16.4-12C1231.4,595.1,1231.8,594.5,1232.2,594z M1180.6,546.6c1.5,0,3,0,4.5,0c0,0.6,0.1,1.1,0.1,1.7
		c-1.5,0.2-3.1,0.3-4.6,0.5C1180.6,548,1180.6,547.3,1180.6,546.6z M1170.5,567.8c0.3,0.6,0.7,1.2,1,1.9c-3.2,1.7-6.4,3.3-9.6,5
		c-0.3-0.5-0.6-1-0.9-1.6C1164.2,571.3,1167.4,569.6,1170.5,567.8z M1152.2,557.6c-1.7,5.1-4.2,5.5-8.7,1.7
		C1147.3,558.5,1149.7,558,1152.2,557.6z"/>
	<path d="M1015.6,589C1015.6,589,1015.5,589,1015.6,589l-0.1,0.1c0,0-0.1,0.1-0.1,0.1c0.1,0,0.2,0,0.2,0
		C1015.6,589.2,1015.6,589.1,1015.6,589L1015.6,589z"/>
	<path d="M1186.1,615.4C1186.1,615.4,1186.1,615.4,1186.1,615.4l-0.3-0.2C1185.7,615.2,1186.1,615.4,1186.1,615.4
		C1186.1,615.4,1186.1,615.4,1186.1,615.4z"/>
	<path d="M1007.6,581C1007.6,581,1007.6,581,1007.6,581L1007.6,581c0,0-0.1-0.1-0.1-0.1c0,0.1,0,0.2-0.1,0.3l0.1-0.1
		C1007.5,581.1,1007.6,581,1007.6,581z"/>
	<path d="M267.2,1509.3l0.2-0.2c-0.2-0.1-0.4-0.3-0.6-0.4C266.9,1508.9,267.1,1509.1,267.2,1509.3
		C267.2,1509.3,267.2,1509.3,267.2,1509.3z"/>
	<path d="M615,1288.6C615,1288.5,614.9,1288.5,615,1288.6c0,0.1,0,0.2,0,0.3c0.1,0,0.1-0.1,0.2-0.1c0,0,0,0,0,0c0,0,0,0,0,0
		L615,1288.6z"/>
	<path d="M549.8,1315.1c-24.6,8.3-48.1,19.2-70.9,31.6c-4,2.2-9,4.5-10.2,9.4c1.7,5.1,9,6.6,6.5,13.1c-10.2,5-9.1-7.1-14.9-9.6
		c-2.2,2.1-4.6,4.3-7.3,6.9c-2.2-2.3-4.1-4.3-6.4-6.8c-4.5,3-9.7,4.9-12.3,8.7c-2.5,3.5-2.3,8.8-3.7,15.4
		c-5-10.3-9.1-18.8-13.1-27.1c-7.6,1.3-13,6.7-20.4,5.7c-1.1-0.2-2.6,0.8-3.6,1.6c-9.4,7.4-19.4,14.2-27.8,22.6
		c-7.5,7.5-14.7,15.2-23.8,20.9c-4,2.5-7.7,5.7-7.7,10.8c0,4.3-2.7,5.7-5.7,7.2c-5.4,2.7-9.9,7.5-16.7,7.1
		c-11.6,8.9-23.2,17.7-34.7,26.7c-7.2,5.7-14.2,11.6-21.3,17.4c-2.1-2.2-3.3-3.5-4.5-4.9c-0.7,0.8-1.1,1-1.1,1.2
		c-0.4,3-0.7,5.9-1.1,8.9c-1-0.3-2.7-1.1-3-0.8c-3.5,3.9-2.8,9.2,0.9,12.2c3.8,3,7.2,6.6,11,9.5c2.8,2.2,5.9,3.9,9,5.8
		c-1.6-2.5-3.2-5-5.5-8.5c19.2-12.4,38.1-24.7,57.1-36.7c6.5-4.1,7.1-4.6,5.6-11.7c-1.3-6-0.1-8.4,5.2-11.1
		c5.4-2.7,10.5-1.9,14.9,1.6c3.3,2.6,6.2,2.6,10.1,1.8c12.3-2.7,24.8-4.8,34.9-13.3c0.3-0.3,1.1,0.1,3.4,0.4c-2.7,3.2-4.5,6.2-7,8.1
		c-5.7,4.4-11.8,8.2-17.7,12.4c-6.2,4.4-12.4,8.9-19.7,14.1c5.3,1.6,8.7,2.6,11.8,3.6c-0.4,3.1-1.8,6.1-1.1,8.6
		c2.3,8.2-3.2,11.2-8.6,14.5c-0.8,0.5-1.8,0.9-2.6,1.5c-28.9,18.3-57.9,36.4-86.7,54.9c-17.6,11.3-34.7,23.3-52.1,35
		c-34.8,23.3-69.5,46.6-104.2,69.9c-1.7,1.2-3,3-4.3,4.3c2,1.8,3.4,3,4.8,4.3c0,0,0,0,0,0c12.4-6.3,24.7-12.7,37.3-18.7
		c3.9-1.8,8.5-2.1,12.5-3.7c6.8-2.6,13.4-5.9,20.2-8.6c12.6-5.1,25.7-8.8,37.2-16.6c9.2-6.2,20.2-8.1,31.3-9.4
		c6.2-0.7,12.3-2.4,18.5-3.6c9.7-1.9,19.5-5.3,29.2-5.2c10.2,0.2,17.9-2.7,25-9.5c5.5-5.3,11.6-10,17-15.4
		c4.2-4.2,7.9-8.9,11.2-13.8c0.9-1.3-0.7-4.2-1.3-6.9c4.1-2.4,7.5-6.8,12.3-9.4c0.5-0.3,0.7-1.1,1.1-1.6c0,0-0.1,0-0.1,0
		c1.2-3.9,4.3-2.8,7.2-2.9c4.2-0.1,8.7,1.4,12.2-2.5c11.5-12.5,27-19.4,41-28.2c11.9-7.5,25.3-9.3,39-2.3c3.9,2,9.4,1.9,14,1.2
		c9-1.2,17.8-3.7,27.1-2.9c3.1,0.3,8.4,0,9.1-1.6c2.7-6.2,7.8-4.8,12.5-5.8c7.3-1.5,14.2-4,16.8-12.5c1.1-3.7,3.8-6.9,5.7-10.4
		c-2.2-1.1-5-2.5-9.2-4.5c5.3-2,8.9-3.9,12.7-4.8c6.1-1.5,10,2.2,13.4,6.6c3.3,4.3,3.3,8.8-0.4,12.7c-10.7,11.3-20.2,23.8-36,29
		c-8.6,2.8-16.9,6.8-26.2,10.6c2.3,1.9,3.9,4.3,5.2,4.2c4.8-0.5,9.9-0.9,14.1-3c14.6-7.3,30.8-11.9,42.2-25
		c5-5.7,10.5-10.9,13.5-17.8c-1.8-2.2-3.3-4.1-5-6.2c5.3-3.4,10.2-3,14.9-0.9c5.9,2.7,6.8,6.4,3.7,12c-2,3.4-3.4,7.3-5.7,10.4
		c-5.6,7.7-10.5,16.7-17.8,22.4c-10.5,8.1-22.9,13.8-34.9,20.7c1.6,0.4,3.9,1.6,5.6,1.1c5-1.5,9.8-3.9,14.8-5.5
		c9.8-3.2,19.6-6.2,29.4-9.1c0.9-0.3,1.9,0.1,2.9,0.2c6.2,0.3,8.8-2.3,8.5-8.1c-0.1-2.1-0.2-5.4,0.9-6.1c7.6-4.6,6.6-13.1,9.9-19.5
		c-1.7-1.9-3.2-3.4-5-5.4c2.6-1,4.6-1.5,6.3-2.4c3.9-2.3,8.3-2.6,10.9,0.6c1.9,2.4,2.4,6.8,2,10.1c-1.2,9.5-6.2,17.4-12.6,24.4
		c-1.4,1.5-2.3,3.4-4.4,6.5c8.4-2.4,11.4-8,14.9-13.1c2.6-3.8,5.2-7.7,8.4-11c7.8-8.1,16-15.8,23.8-23.9c1.5-1.6,2.4-3.9,3.3-6
		c3.9-8.4,8.5-15.6,17.5-20.2c9.3-4.8,17.8-11.4,21.2-22.6c1-3.2,3.9-5.9,6.4-8.4c4.7-4.6,9.7-8.8,14.4-13
		c-3.6-7.3-7.4-12.9-13.9-16.4c-22.8-12.3-42.9-27.6-57.4-49.8c-9.9-15.2-19.8-30.1-17.5-49.5c0.1-0.8-0.2-1.7-0.4-2.5
		c-7,3.7-13.7,8.1-21.1,10.9C579.4,1305.4,564.5,1310.1,549.8,1315.1z M176.3,1624.5c-0.3-0.4-0.7-0.9-1-1.3
		c2.7-2.1,5.5-4.2,8.2-6.2c0.6,0.6,1.1,1.2,1.7,1.8C182.2,1620.6,179.3,1622.5,176.3,1624.5z M209.3,1603.4c-0.5-0.6-1-1.2-1.5-1.8
		c2-1.6,3.9-3.2,5.9-4.8c0.4,0.5,0.9,1,1.3,1.6C213.1,1600.1,211.2,1601.8,209.3,1603.4z M281.8,1554.2c3.5-4.9,3.7-5,14.4-10.3
		C292.7,1550.5,292.3,1550.8,281.8,1554.2z M349.1,1539.8c-2.6,0-5.2,0-8.1,0c-0.9,2.4-1.7,4.5-2.5,6.5c-4.6,0-9.1,0-14.4,0
		c-0.3-1.7-0.8-4-1.5-7.4c-2.3,1.4-3.9,2.4-4.6,2.8c-4.5-1.3-8.3-2.4-12.5-3.7c2.3-3.1,6-3.7,9.9-3.5c11.6,0.4,23.2,0.7,34.8,1.6
		c2,0.1,3.8,2.4,5.7,3.9C353.7,1539.9,351.4,1539.8,349.1,1539.8z M390.2,1501.2c-0.3,0.5-0.4,1.2-0.9,1.4
		c-5.5,2.8-11.2,5.4-16.6,8.4c-5.7,3.2-11.5,5.1-18.1,4.3c-4-0.5-4.7-1.1-8-6.6c12.1-8.4,22.9-19.1,40.5-18.2c0.8,1,2.3,2.9,4.5,5.7
		c-2.7-0.1-4.5-0.2-8-0.4C386.6,1498.3,388.4,1499.7,390.2,1501.2z M412.3,1423.3c0.6,0.7,1.2,1.4,1.8,2.2c-1.8,1.3-3.6,2.6-5.4,3.9
		c-0.4-0.5-0.8-1-1.3-1.5C409.1,1426.3,410.7,1424.8,412.3,1423.3z M400.7,1501c-2-0.1-3.9-0.3-5.9-0.4c0-0.5,0-1,0.1-1.5
		c2,0,4,0,6.1,0C400.9,1499.7,400.8,1500.4,400.7,1501z M422.8,1501c-6.4-0.3-12.6-2.5-19-3.8c3-10,5.7-18.8,8.2-27.2
		c5.1-2.2,8.4-0.8,10.6,3.3c2.6,5,5.2,10,7.5,15.1C432.8,1494.2,429.1,1501.3,422.8,1501z M409.8,1464c-0.4-0.7-0.9-1.5-1.3-2.2
		c11.6-7.6,23.2-15.1,34.9-22.6c0.4-0.2,1.2,0.3,2.6,0.7C435.1,1450.2,424.3,1459.9,409.8,1464z M437.6,1427.2
		c-2.8-2.2-5.7-4.4-9.4-7.3c7.8-7.4,14.1-4.4,21.7-1.6C445.5,1421.4,442,1424,437.6,1427.2z M460.7,1391c7.9-5.7,12.3-4.4,16.9,5.5
		C470.5,1397,465.2,1395.4,460.7,1391z M530.7,1424.1c-2.6,4-4.4,9.2-4.7,13.9c-0.9,14.8-7.5,26-19.8,33.6c-4,2.5-9.2,4-14,4.3
		c-6.5,0.4-12.4-8.1-10.9-14.9c2.1-9.3,4.6-18.6,7.1-28.5c3.9,1.9,6.2,3.2,4.6,8.8c-2.4,8-2.9,16.6-4.3,25.6
		c9.8-0.2,15.8-5.9,20.5-13.6c1.6-2.7,2.6-5.3-0.5-8.8c-7-8.1-6.8-17.4,1.2-24.6c6.3-5.6,7.5-11.8,7.1-19.3c-0.2-4-1-7.6-4.8-9
		c-3.7-1.4-5.8,1.2-8.1,4c-2.4,3-5.8,5-6.1,9.7c-0.1,1.5-3.2,2.8-4.9,4.3c0.3-10.4,5.7-17.9,11.3-25.2c3.3-4.3,7.6-2.7,11.7-0.2
		c-0.5,1.6-1,3.3-1.6,5.1c8.9-0.3,9.1-0.4,12.4,6.8c2.1,4.5,4.2,9.1,5.6,13.8C533.8,1414.7,533.8,1419.3,530.7,1424.1z
		 M633.5,1461.2c-10.6-3-17.8-8.4-25.3-14.6C618.1,1446.4,630.6,1453.1,633.5,1461.2z"/>
	<path d="M105.2,1662.4C105.2,1662.4,105.1,1662.3,105.2,1662.4C105.1,1662.3,105.1,1662.4,105.2,1662.4
		C105.1,1662.4,105.1,1662.4,105.2,1662.4z"/>
	<path d="M592.5,558.3c2.4,9.6,5.3,19.2,8.9,28.5c4.2,10.8,9.2,21.3,14,31.9c1.5,3.4,3.5,6,8.1,6.2c18.6,0.7,37.1,1.7,55.7,2.9
		c9.9,0.6,19.7,2.1,29.6,2.7c7.5,0.5,15,0.1,21.8,0.1c0-7.7,0-14.2,0-22.1c-8.9,5.6-14.2,14.1-23.5,16.6c0.9-2.3,2.1-4.3,3.6-5.8
		c10.8-10.6,22.1-20.8,32.7-31.8c11.8-12.2,27.3-20.9,41.6-30.5c7.7-5.1,16.8-8.1,24.7-13c19.1-12,37.8-24.6,56.6-37
		c0.8-0.5,1.5-1.4,2.4-1.8c5.5-2.6,10.1-0.7,12.6,4.5c-8.4,4.7-16.8,9.3-25.2,13.9c0.3,0.6,0.5,1.2,0.8,1.8
		c10.9-4.5,21.9-9,32.8-13.5c0.6-0.2,1.1-0.7,1.6-1.2c0.2-0.2,0.3-0.6,0.7-1.2c0-2.6,0-5.5,0-8c2.5-1.2,4.5-2.2,8.2-4.1
		c-8.3-6-15.6-11.2-24.1-17.3c-0.6-1.8-1.9-5.5-3.5-10.2c-8.2,12.5-17.3,22.4-18.5,34.6c-3.2,2.5-5.4,4.2-8,6.2
		c-4.3-5.3-9.9-6.1-16.7-5.9c-6.3,0.2-11.7-3.1-16.5-8.5c-6.2-6.9-3.5-16.3-9-23.3c-10.5-1.9-21.3-5.4-32.2-5.5
		c-11.7-0.1-22.2-9.7-34.2-3.6c-5.6,6.9-3.2,13.1,2.4,18.1c2.8,2.6,2.1,4.2,0.1,7.6c-6.4-2.6-12.7-5.1-18.9-7.8
		c-9.8-4.2-19.4-9.1-30.5-5.6c-3.7,1.2-7.7,2.4-6.6,8.2c2.5,0.2,4.8,0.3,7.1,0.4c11,0.5,14.7,3.2,18.4,13.3c2.7,7.5-0.9,13-9,13.9
		c-5.9,0.6-11.8,1.3-17.7,2.2c-14,2.1-26.4,11.2-41.1,8.5c-0.4,1.6-0.5,2.3-0.7,2.9c-0.2,0.9-0.4,1.8-0.5,2.5
		c-14.2,3.5-19.8-9.3-30-14.8c-0.7,3.1-0.6,6.1-2,8c-2.8,3.9-6.1,7.5-9.7,10.7C590.3,539.9,590.2,549,592.5,558.3z M792.6,534
		c0-0.1,1.5,0,1.6,0c0.1,1.4,0.1,2.8,0.1,4.2c-0.7,0-1.4,0-2.2,0.1C792.2,536.8,792.4,535.4,792.6,534z M722.2,510.2
		c10,3.9,24.7,27.1,25.3,42.2c-6.1-0.8-10.6-4.2-15-7.9c-8.7-7.1-17.8-13.5-29.4-14.8c-2.2-0.2-4.3-0.5-7.4-0.8
		C705.2,522.2,713.4,516.4,722.2,510.2z M691.1,524.9c-6.1,2.9-9.9-0.5-13.8-4.1C684.3,518.1,684.3,518.1,691.1,524.9z M611.9,578.2
		c9-5,18-4.5,27.6-1.5c9.1,2.8,18.7,4.2,28,6.2c1,0.2,2,0.1,3,0.3c14.3,2.3,28.6,6,43.1,0.6c1.4-0.5,3.2-0.1,7.4-0.1
		c-3.8,2.6-5.6,4.4-7.8,5.1c-13.1,3.8-26.2,7.4-40.1,4.6c-4.2-0.8-8.6-0.5-12.9-0.4c-9.6,0.2-18.5-1.9-26.1-9.4
		c0.1,8.1-6.8,7.5-11.1,11.1C619.1,588.9,608.5,588.7,611.9,578.2z"/>
	<path d="M572.3,387.3c2.8,3.2,5.8,6.3,8.8,9.5c-1.5,1-3.3,2.2-6.5,4.4c4.3,2.8,7.6,5,11.4,7.4c-2.5,1.4-4.9,2.7-8.8,4.8
		c7.5,2.9,13.3,5,19.1,7.3c6.4,2.5,12.6,5.1,17.8-2.2c0.6-0.9,2.5-1.4,3.6-1.2c4.8,0.6,7.1-2.5,9.8-5.6c2.3-2.7,5.2-5,6.4-6.1
		c6.8,0.8,11.6,1.4,16.4,1.9c9.8,0.9,19.9,0.5,28.2,7.5c2.3,2,6,3.7,9,3.5c13.2-0.7,22.2,6,30.8,14.9c3.8,4,8.5,7.9,13.6,9.7
		c16.8,6.1,42.5-3.5,54-15.5c5-5.2,10.2-10.9,16.6-13.8c6.2-2.8,11.1-6.7,15.7-10.1c-1.2-3.7-2.7-6.6-3.1-9.7
		c-1.1-6.9-4.9-10.5-11.6-11.7c-2.3-0.4-4.3-1.9-6.6-2.3c-19.4-3.5-38.7-6.8-57.6,2.3c-2.1,1-4.5,1.9-6.7,1.7
		c-1.6-0.2-2.9-2.3-4-3.1c-5.4,6.8-12.7,7.1-20.3,6.7c-0.4-4.3-0.7-8.2-1.1-11.7c-3.8-1.7-6.8-3-8.2-3.6c-7.7,4.5-13.9,8.9-20.7,12
		c-7,3.2-14.3,3.1-20.8-3.5c0,4.6,0.6,8.4-0.2,11.8c-0.4,2-2.8,4.6-4.8,5c-7.9,1.8-11.6-1.4-12.3-9.8c-0.3-3.5-0.7-7-1.2-11.5
		c-4.8,6.6-11.4,4.1-14.1,2.1c-8.4-6.2-19.5-9.2-24.9-19.8c-7,5.5-13.9,2.8-20.6-0.1c-6.3-2.7-12.5-5.8-19.2-8.9
		c1.6,14.3,1.5,14.3-4.6,27.9c-0.6,1.3,0.4,3.3,0.7,5.2C565.8,379.5,565.8,379.6,572.3,387.3z M755.3,405.3c3.2,4.7,1.7,7.1-3,8.4
		C753.2,411.3,754.1,408.9,755.3,405.3z M735.5,404.9c1,1.3,2,2.2,1.8,2.6c-0.4,1-1.3,1.7-2,2.5c-0.6-0.6-1.8-1.3-1.8-1.8
		C733.7,407.3,734.5,406.4,735.5,404.9z"/>
	<path d="M904.6,809.7C904.6,809.7,904.6,809.7,904.6,809.7l0.2,0C904.7,809.7,904.7,809.7,904.6,809.7z"/>
	<path d="M848.6,750.9c-3.9-4.8-7.7-9.8-13-16.6c12.9-0.4,23.9-8.7,34.1,2.8c1.3,1.4,4,1.5,6.4,2.3c0.6-2.5,0.9-4.3,1.3-6.1
		c4.5,0,8.6,0,12.7,0c-2.1-2-4.4-3.5-6.7-3.6c-11.8-0.6-18.6-7.9-23.9-17.3c-1.2-2.2-1.9-4.8-2.3-7.3c-1.4-8.7-2.6-17.5-4.1-27.8
		c-4.1,7.1-3.8,7.1-2.9,12.5c1.2,7.4,3.2,15.2-4.4,21.1c-2.9-1-5.8-1.9-8.4-2.8c-10.2,7.5-10.8,7.2-16.2-4.4
		c-5.4-11.8-10.2-23.8-9.6-37.2c0-0.9-0.6-1.8-1.7-4.6c-2.3,19.3,2.6,35.4,7.9,51.5c-8.5,1.6-8.7,1.6-10.5-4.5
		c-3.4-11.4-6.2-23-9.7-34.4c-0.8-2.6-2.9-5-4.8-7.1c-7.4-8.2-16.9-12.8-27.4-15.8c-5.9,4.3-1.8,7.4,1.5,10.5
		c-2,1.5-3.8,2.9-4.6,3.5c0,6.5,0,11.8,0,17.4c9,1.7,18.6,5.7,24.1-7.1c2.5,3.5,5.1,6.1,6.3,9.3c4.7,11.9,9.1,24,13.5,36.1
		c0.6,1.7,0.6,3.6,0.9,5.8c-5.2,0.5-8.3-1.6-10.5-5.3c-2.5-4.3-5.1-8.6-7.4-13c-2.5-4.7-6.1-7.6-11.6-8.3c-4.8-0.6-9.6-1.9-14.7-3
		c1.5-4.1,1.4-7.2-2.5-8.9c-2.4-1.1-4.8-2.2-7.2-3.5c-0.7-0.4-1-1.4-2-2.8c2.1-0.5,3.5-0.8,5.2-1.2c0-1.2,0-2.5,0-3.8
		c0.3-11.1-0.7-12.6-11.2-16.4c-1.2-0.4-3-0.8-3.3-1.6c-1.9-6.7-6.4-3.6-10.5-3.3c-5.5,0.4-11.3,0.9-16.6-0.2
		c-5.8-1.2-11.4-3.3-17.5-2c-1.6,0.3-4.2-0.4-5.3-1.6c-4.2-4.5-10.1-4.5-15.2-5.2c-13.4-1.8-26.8-2.8-40.3-3.7
		c-3.8-0.3-8.7-0.3-11.4,1.7c-5.8,4.3-10.3,2.1-14.4-1.3c-5.2-4.3-10.4-5-16.6-3c-2.1,0.7-4.9,1.1-6.7,0.2
		c-5.2-2.7-8.1-0.4-10.7,3.6c-0.3,0.5-1.7,0.3-3,0.5c0.3-2.5,0.6-4.6,1-7.6c-8.7,0-16.7,0-25.8,0c4.3,7.9,11.4,7.5,17.5,9.3
		c12.3,3.7,24.9,6.5,34.9,15.7c2.7,2.5,7.1,3.3,10.8,4.5c6.3,2.1,12.6,3.9,18.9,5.8c1.8,0.5,3.6,1.1,5.4,1.2
		c15.9,1.1,31.5,4,46.2,10.9c-11.2-1.6-22.5-3.1-34.6-4.8c6.8,5.1,12.8,9.2,21.2,9.1c4.7-0.1,9.6,2.3,14.2,4.2
		c1.8,0.8,3.2,3.1,4.3,5c1.6,2.8,2.8,5.9,4.8,10.4c-4.7-2.2-8.5-4-12.3-5.7c-2.7-1.2-6-3.8-8.1-3.1c-8.3,2.7-13.8-2.4-20-5.8
		c-2.4-1.3-5.2-2-7.8-2.9c5.5,5,11.8,8.5,18.2,11.6c1.3,0.7,3.5,0.8,4.8,0.2c5.8-2.9,9.2,2.1,13.3,4.1c1.1,0.5,1.7,3.8,1.1,5.2
		c-0.6,1.3-3,2.5-4.6,2.5c-3.3-0.1-6.5-1.2-9.8-1.7c-4.8-0.8-9.7-1.4-14.6-2.1c19,6.4,38.4,8,59.1,7.9
		c-6.3-10.5-12.3-20.5-19.1-31.8c6.1,0.9,10.6,1.5,15.1,2.3c4.9,0.9,9.9,1.6,14.6,3c3.6,1,6.4,3.2,7.1,7.5c1,5.9,4.9,8.1,10.6,7.7
		c3.3,5.6,6.8,11.2,9.9,16.9c3,5.4,1.9,7.5-4.4,8.8c-1.3,0.3-2.5,0.4-3.8,0.6c0,0.4,0.1,0.7,0.1,1.1c3.2,0.1,6.5,0.3,9.3,0.4
		c4.6-5.1,4.5-9.4,0.7-14.5c-2.3-3.1-5.4-6.8-2.3-13c3,3.2,5.6,5.5,7.7,8.2c5.4,7,9.2,15.3,17.9,19.1c0.2,0.1-0.1,1.2-0.3,2.2
		c-5.1,0-10.2,0-16.2,0c8,5,22.9,7.9,33.2,6.1c-11.3-2.4-14.8-10-18.2-18.2c-1.9-4.5-4.8-8.7-7.9-12.6c-2.8-3.6-2.8-7-1.5-11.6
		c6.7,3.1,9.5,8.6,11.9,14.4c3.2,7.7,11.1,18.1,17.4,22.5c-6.7-11-12.4-21.3-16.3-32.5c15.7,10.7,19.1,30.4,31.2,43.6
		c0.6-0.4,1.2-0.7,1.9-1.1c-1.9-4.7-3.8-9.4-6-14.8c6.5-1.2,9.9,1.9,12.8,6.3c5.5,8.3,11.2,16.4,17,24.5c0.8,1.2,2.6,1.7,5.5,3.4
		c-4.8-12.3-15.2-19-18.5-30.6c3.7-0.5,6.8-0.9,10.1-1.3c3,4.3,5.8,8.4,8.7,12.4c15.9,21.8,33.9,41.7,54.8,59
		c3.1,2.5,6.1,2.8,9.6,2.9c-5.1-3.9-10.4-7.6-15.4-11.7C873.1,784.5,861.8,767,848.6,750.9z M716.1,673.5
		c-7.9,0.3-15.9,1.1-23.8,0.8c-7.5-0.2-15.1-1.1-22.5-2.4c-7.8-1.4-15.4-3.7-23.1-5.6c-4.4-1.1-9.3-1.3-11.7-8
		c4.7-1.7,8.7-3.2,12.9-4.7c4.9,11.6,15.7,10.4,24.9,12.7c1.2,0.3,2.9-1,3.9-0.5c13.8,6.6,28.9,2.2,43,5.5c0.5,0.1,0.9,0.7,2.5,2.1
		C719.4,673.5,717.7,673.5,716.1,673.5z M740.1,707.4c-2.1-3-4.3-6.1-6.6-9.4c5.4-2.1,8.8-1.4,10.8,3.2
		C746,705.3,742.4,705.9,740.1,707.4z M748.8,700.1c0.6-0.5,1.1-1,1.7-1.5c2.7,3.1,5.4,6.1,8.1,9.2
		C751.3,708.8,750.2,704.3,748.8,700.1z"/>
	<path d="M954.5,344.6c-1.8,8.4-3.1,16.9-4.9,25.3c-1.3,6.1-2.6,12.3-4.8,18.1c-3.7,9.9-8.1,19.5-12.1,29.2c3.3,3,5.9,5.3,8.9,7.9
		c-6.4,18.9-24.7,28.7-36.4,44.7c1.8,0,2.2,0.1,2.4,0c7.8-4.4,14.2-12.3,24.9-9.4c0.7,0.2,3.3-3.8,3.1-4c-6-6.4,0.7-8.8,3.9-11.6
		c3.7-3.3,6.7-2.4,9.6,2c3.3,4.9,5.1,5.1,7.9,0.1c2.6-4.7,4.4-9.8,7-15.6c1.2,0,3.7,0,6.5,0c2.2-3.9,6.2-7.7,6-11.3
		c-0.3-5.3,1.5-8.7,4.4-12.5c1.7-2.2,2-5.5,2.7-8.4c1-4.1,3.7-9.2,2.2-12.2c-2.6-5.7,2.8-7.8,3.1-11.9c0.2-3.6,2.3-7.7,1.2-10.7
		c-2-5.4-1.9-10.8-3.1-16.2c-0.6-2.7-2.3-6.3-4.5-7.1c-7.4-2.8-15.1-4.4-24.1-6.9C957.1,337.8,955.3,341.1,954.5,344.6z
		 M978.7,390.4c-0.3,13.7-6.3,22.9-15.1,24.4C968.5,407,973.2,399.3,978.7,390.4z"/>
	<path d="M149.9,1562.6c-0.1,0-0.1,0.1-0.2,0.1c-0.1,0.1-0.1,0.2-0.2,0.2C149.6,1562.9,149.9,1562.6,149.9,1562.6z"/>
	<path d="M176.7,1545.6c-3.7,2.4-7.1,5.4-10.6,8.2c0.2,0.2,0.4,0.4,0.6,0.5c5.9-2.4,11.9-4.8,19.2-7.7c0.5-0.9,1.2-4.2,3.3-5.9
		c8.6-6.7,17.4-13.2,26.5-19.2c7.7-5.2,16.1-9.4,23.9-14.5c4.7-3,5.2-7.3,1.6-10.8c-2.7-2.7-5.8-4.1-9.8-1.6
		c-6.2,3.8-12.6,7.1-18.9,10.7c-5.7,3.3-11.7,6.1-16.9,10.1c-8.3,6.4-15.2,14.7-26.2,17.1c-3.4,0.8-6.7,3.1-9.5,5.2
		c-9.7,7.4-21.1,11.8-31.6,17.5c-8.2,4.4-16,9.6-23.8,14.4c-10.2,6.3-18.5,15.4-29.5,21.2c-7.8,4.1-14.6,10.2-21.6,15.7
		c-1.7,1.3-3.7,3.4-3.8,5.2c-0.4,7.1-0.2,14.3-0.2,21.5c0.8,0.3,1.5,0.6,2.3,0.9c1.3-1.4,4.1-3.5,3.8-4.1c-1.5-3,0.1-4.3,2.2-5.7
		c6.7-4.3,13.4-8.5,20-12.9c16.2-10.8,32.4-21.7,48.5-32.6c7.9-5.3,15.7-10.6,23.6-15.9c0.8-1.3,1.5-2.8,2.6-3.6
		c6.1-4.6,12.3-8.9,18.4-13.4c4.6-3.4,9.1-7,14.9-11.6C182.9,1541.8,182.8,1541.6,176.7,1545.6z"/>
	<path d="M1326.9,631.6c-1.2,6.3,0.2,10.8,2.5,15.9c8.3,18.1,16.6,36.3,24.9,54.4c3.9,8.4,7.9,16.7,11.4,23.9
		c5,1.3,8.7,2.3,12.3,3.2c1.4,0.3,2.9,0.8,4.2,0.5c9-2.4,18-5,28-7.9c-5.9-11.3-11.3-21.6-16.7-31.9c-0.7,0.3-1.3,0.6-2,0.9
		c1.5,3.5,3.1,7,4.4,10.6c1.5,4,2.9,8.1,3.9,12.2c0.3,1.2-1.1,2.7-2,4.7c-1.9-5.2-3.4-9.1-4.9-13.1c-3.9-10.7-10.7-20.9-6.1-33.2
		c0.4-1-0.9-2.4-1-3.7c-1.2-8.9-8.7-13.7-12.8-20.7c-7.9,0.4-15.4,1-23,1.1c-2.3,0-5.8-0.8-6.9-2.5c-4.9-7.8-9.1-16.1-13.8-24.1
		c-1.9-3.3-4.1-6.3-6.3-9.5C1324.8,619,1328,625.7,1326.9,631.6z"/>
	<path d="M1322.8,611.8L1322.8,611.8c0.1,0.3,0.3,0.5,0.5,0.7c-0.1-0.3-0.2-0.6-0.2-1C1323,611.6,1322.8,611.8,1322.8,611.8
		C1322.8,611.8,1322.8,611.8,1322.8,611.8z"/>
	<path d="M178.7,786.9c1-2.8,1.9-5.7,2.7-8.5c4.3-15.3,8.6-30.6,13-45.9c1.7-5.9-0.1-10.3-5.2-13.6c-4.1-2.7-8.1-5.5-12.1-8.2
		c-1.6,2.6-3.1,5.1-4.7,7.5c-5.4,8.2-10.8,16.5-16.3,24.7c-2.9,4.4-5.5,9.1-9.1,12.9c-2.9,3.1-7.1,4.9-10.6,7.2
		c0.9,8.4,1.6,16,2.6,23.6c0.3,2.2,1.1,4.7,2.5,6.3c7.3,8.1,16.3,13.7,26.6,18.3c0.4-6.5,0.7-12.3,1-19.2
		C175.5,794.6,177.3,790.9,178.7,786.9z"/>
	<path d="M375.5,613.2C375.4,613.1,375.4,613.1,375.5,613.2L375.5,613.2L375.5,613.2c-0.1,0.1-0.2,0.3-0.2,0.5
		C375.4,613.5,375.5,613.4,375.5,613.2C375.6,613.2,375.5,613.2,375.5,613.2z"/>
	<path d="M329.5,653.7c8.8,15.5,19.2,29.8,26.9,45.4c7.7,15.6,12.7,32.5,19.4,50.2c5.1-10.3,2.8-21.8,10.6-28.2
		c-0.9-8.2-11.1-14.6-1.3-22.7c0.6-0.5,0-2.5-0.1-3.9c-0.5-4.9-1-9.8-1.5-14.8c-0.2-2.3,0.2-4.7-0.4-6.9c-1.6-6-3.7-11.8-5.6-17.8
		c-4.1,0.2-5.7-3-6.1-6.8c-0.4-4-0.8-8-0.3-11.9c1-7.6,2.7-15.1,4.1-22.7c-1.6,2-3.5,3.8-4.4,6.1c-3.9,9.3-5,19-3.6,29.7
		c-4.9,0-9,0-13.1,0c-1.4,8.5,1.1,14.6,7.3,19.8c5.3,4.5,9.8,9.9,14.6,14.9c-0.7,0.8-1.3,1.6-2,2.4
		C360,674.3,345.5,662.9,329.5,653.7z"/>
	<polygon points="375.6,613.2 375.6,613.2 375.6,613.2 	"/>
	<path d="M1424.7,1300c1.4,20.5,3,41.1,3.6,61.7c0.2,5.7,0.7,10.6,4.5,14.7c8.8,9.5,13.1,20.6,13.1,33.6c0.8-0.1,1.7-0.2,2.5-0.3
		c0-8.2,1.9-17-0.4-24.4c-5.7-18.3-7.3-37.2-10.8-55.8c-1.7-8.8-2.9-17.7-5.4-26.3c-3.4-11.9-6.4-23.8-6.3-36.3
		c0-5.7-1.7-10.7-5.5-15.1c0.2,6.7,1.1,13.1,1.9,19.6C1423,1280.8,1424.1,1290.4,1424.7,1300z"/>
	<path d="M1350,711.4c-0.7-1.4-2.4-2.2-3.7-3.3c0,5.8,1.6,10.8,2.6,15.8c1.8,9,2.1,18.6,5.3,27.1c7,18.6,15.4,36.6,23.4,54.8
		c1,2.3,3.3,4.1,5.4,6.6c8.3-6,8.9-6.2,6.1-14c-5-13.7-10.5-27.2-16.5-40.4C1365.5,742.2,1357.7,726.8,1350,711.4z"/>
	<path d="M941.3,845.9c-10.1-4.3-20.7-7.6-30.8-11.1c0,1.9,0.1,3.8,0,5.8c-0.3,5.4,0.9,9.6,6.6,11.9c10.1,3.9,19.8,9.5,30.2,12.1
		c13.7,3.4,26.2,0.3,29.6-16.5c-5.1,0-9.6-0.1-14.1,0C955.5,848.2,948.5,849,941.3,845.9z"/>
	<path d="M1194.3,520.1c10.1,14.4,19.6,29.2,29.8,43.6c4.2,5.9,9.4,11.1,14.4,16.4c0.8,0.9,2.8,0.8,6.1,1.5
		c-3.4-6.7-6-11.7-9.5-18.4c9.4,1.7,11.4,8.9,16,13c5.5,4.9,6.8,11.5,8.6,18.4c2.8-1.4,5.1-2.5,7.2-3.6c0-1.2,0.2-1.9,0-2.4
		c-5.9-13.2-16.2-22.8-27.1-31.8c-1.2-1-4,0-6,0.2c-0.7,0.1-1.4,0.6-2.1,0.9c0.6-5.5-5.4-3.3-7.3-6.3c-2.4-3.5-6-6.2-8.6-9.6
		c-11.6-14.9-23.1-29.8-35.6-46c-2.6,5.7,0.3,8,2.6,10.6C1186.7,511.1,1191,515.3,1194.3,520.1z"/>
	<path d="M595.6,282.3c2.4-2.7,4.4-5,6.5-7.5c-2.6-1.4-4.4-2.4-6.9-3.8c2-3.5,3.6-6.4,5.9-10.4c-6,2.1-8.6,6-10.7,9.9
		c-1.2,2.3-0.2,5.9-0.2,8.8c-5.5,2.9-10.8,5.7-17.5,9.3c3.9,3.2,8.5,5.4,10.4,9c1.9,3.5,4.5,4.7,6.8,3.9c6.2-2.2,9.2,1.4,11.9,5.7
		c5.3-4.6,5.3-4.6,10.9,1.4c-0.3-2.1-0.5-3.8-0.8-5.2c1.8-0.6,3.2-1.1,4.6-1.6C610.9,294,604.7,286.9,595.6,282.3z"/>
	<path d="M616.5,301.6C616.5,301.7,616.6,301.7,616.5,301.6L616.5,301.6c0.1,0,0.3-0.1,0.3-0.1C616.7,301.6,616.6,301.6,616.5,301.6
		z"/>
	<path d="M639.2,734.7c-10.1-3.1-18.5,1-27.5,3c0,1,0,2,0,3c3.7,0.7,7.5,1.4,11.2,2.2c10.7,2.2,21.3,4.7,32,6.7
		c3.9,0.7,8,0.6,11.9-0.1c2.2-0.4,5.5-2.4,5.8-4.1c0.3-1.8-1.8-5.2-3.7-6.1c-3.4-1.8-7.4-2.7-11.3-3.1
		C651.6,735.3,645,736.5,639.2,734.7z"/>
	<path d="M267.6,1509.4c-0.1-0.1-0.1-0.2-0.2-0.3c0,0-0.1,0.1-0.2,0.2l0,0C267.3,1509.3,267.5,1509.3,267.6,1509.4z"/>
	<path d="M321.3,1484.2c4.1-2.7,8.5-5.1,12.5-7.9c2.7-1.9,6.7-3.4,4.5-9.5c-4.2,2.4-7.9,4.3-11.4,6.6c-15.7,10.5-31.3,21-46.9,31.7
		c-3.8,2.6-7.7,4.6-12.5,4.2c1.8,2.5,3.5,5.1,4.9,7.1C292.1,1509.5,305.2,1494.7,321.3,1484.2z"/>
	<path d="M884.6,544.7c0.8-2.8,1.7-5.5,2.5-8.3c0.6,0.1,1.2,0.2,1.8,0.3c0.6,2.8,1.2,5.6,1.7,7.9c3.2-5.3,7.3-10.8,10-17
		c2.6-5.7,4.6-12,0.5-17.7c-8.7,6.8-16.8,13.2-24.6,19.3C879.7,534.7,875.5,543.3,884.6,544.7z"/>
	<path d="M41.4,609.3c-9.6-21.4-19.8-41.9-39.4-55.1c-0.6,0.4-1.3,0.8-1.9,1.2c1.2,2.5,2,5.4,3.6,7.6c10,13.2,20.1,26.4,30.4,39.4
		C36,605,38.9,607,41.4,609.3z"/>
	<path d="M589.4,337.8C589.4,337.8,589.4,337.8,589.4,337.8L589.4,337.8C589.4,337.8,589.4,337.8,589.4,337.8
		C589.4,337.8,589.4,337.8,589.4,337.8C589.4,337.8,589.4,337.8,589.4,337.8z"/>
	<path d="M598.9,314.2c-3.4,2.5-7.5,1.6-9.1-0.2c-3.5-3.8-5.7-0.9-8.5,0c0.6,1.3,1.9,2.9,1.6,3.5c-3.9,6.3,0.5,12.1,1.1,18.1
		c0.1,0.9,3.5,1.4,5.4,2.1c-0.3-2-0.7-4.1-1.1-6.7c4.9,0.8,10.3-2,12.2,4.9c1.3-1.4,2.6-2.8,3.9-4.1c-1.5-2-3.1-4-4.6-5.8
		c2.8-3.9,5.3-7.4,9.1-12.8C603.8,313.6,600.7,312.9,598.9,314.2z"/>
	<path d="M171.6,704.4c-5.7-12.9-11.3-25.9-17.9-38.2c-2.7-5-7.6-8.8-11.5-13.1c-0.9,0.4-1.7,0.8-2.6,1.1c-0.3,1.8-1.4,4-0.8,5.4
		C146.1,677.1,159.3,690.4,171.6,704.4z"/>
	<path d="M199.9,719c-3.7-5.5-6.6-9.7-9.4-14c-5.6-8.5-10.9-17.2-16.7-25.5c-3.2-4.6-6.5-9.7-14.9-10.9
		C169.7,688.6,178.8,707.5,199.9,719z"/>
	<path d="M736.9,302.6c-6.3,7.9-13.4,9.2-21.9,7.7c-8.1-1.4-15.9,0.1-21.7,6.8c19-0.5,38.1,2.6,56.5-5.8
		C745.9,306,738.7,309.5,736.9,302.6z"/>
	<path d="M1223.7,727.3c0-0.1-0.1-0.2-0.1-0.2c0,0,0,0-0.1,0.1l-0.1,0.1C1223.5,727.3,1223.6,727.3,1223.7,727.3z"/>
	<path d="M1236.3,741.9c0.5,0.1,0.9,0.9,1.3,1.4c13.3,16.4,27.1,32.5,34.1,52.9c0.6,1.9,2.6,3.3,4.4,5.4c0.7-2,1.6-3.1,1.3-3.8
		c-3.8-8.4-6.7-17.4-11.9-24.9c-9.1-13-19.5-25.1-29.7-37.3c-3.2-3.8-6.5-8.1-12.2-8.5C1227.1,732.9,1228.6,740,1236.3,741.9z"/>
	<path d="M604.4,929c10.4,9,24.2,11.1,44,6.9c-5.6-4.8-10.8-9.1-15.9-13.4C624.8,931.5,613.7,925.7,604.4,929z"/>
	<path d="M79,629.5c4.3,5.6,9.7,10.3,14.6,15.4c-5.1-20.4-16.1-36.1-34.4-48.1c0,2.6-0.4,3.8,0.1,4.4C65.8,610.7,72,620.4,79,629.5z
		"/>
	<path d="M47.7,605.5c4.4,8,8.3,13.8,17.1,14.5c-6.9-16.4-14.5-31.9-30.2-41.4c-0.9,0.4-1.7,0.7-2.6,1.1c0.6,1.9,0.7,4.3,1.9,5.5
		C40,590.9,43.7,598.2,47.7,605.5z"/>
	<path d="M1439.1,1669.1c0.4,0.2,0.8,0.4,1.3,0.6c1.2-2.6,2.3-5.1,3.5-7.7c3.3-7.4,4.5-16,11.4-21.5c6-4.7,5.1-10.4,2.8-16.7
		c-8.7,4.4-13,11.9-15.5,19.5C1439.8,1651.4,1440.1,1660.5,1439.1,1669.1z"/>
	<path d="M260.4,721c1.6,2.9,2.9,5.3,4.2,7.7c7.9-3.8-1.4-12.9,5.2-16.4c-9.1-5.4-17.8-7.3-25.9,4.5c3,2.4,6.6,5.2,10.1,7.9
		C256,723.6,257.9,722.5,260.4,721z"/>
	<path d="M115.8,640.8c4.7,17.1,15,30.4,27.4,43.1C134.4,657,125.5,642.8,115.8,640.8z"/>
	<path d="M120.9,665.8c-9.9-16.9-13.2-35.5-30.9-46.2C93.4,633.3,107.6,654.7,120.9,665.8z"/>
	<path d="M375.6,613.2c0-0.1,0-0.2,0-0.3c-0.1,0-0.1,0.1-0.2,0.1C375.4,613.1,375.4,613.1,375.6,613.2
		C375.5,613.2,375.6,613.2,375.6,613.2z"/>
	<path d="M381.3,608.4c4.2-10,11.2-16.7,23.9-19.7c-8.3-2.8-14-6.4-19.9-3.8c-1.6,3.5-2,7.1-4,8.5c-7.1,5.3-5.7,12.5-5.7,19.6
		C377.6,611.5,380.5,610.4,381.3,608.4z"/>
	<polygon points="375.6,613.2 375.6,613.2 375.6,613.2 	"/>
	<path d="M40.8,1623c-2.8,4.8-4.6,7.8-6.6,11.2c11.9,14.1,23.7,27.2,44.9,31.2C62.1,1653.8,44.5,1646,40.8,1623z"/>
	<path d="M694.1,964.4c-7.1-0.7-14.3-1.5-21.4-1.8c-4.3-0.2-8.9-1.1-13.1,2.2c12.6,5.8,26.1,5.3,40,6.2
		C699.2,966.7,697.4,964.7,694.1,964.4z"/>
	<path d="M644.8,955.9c13.7,1.1,27.5,2.3,42,3.5C678.9,950.3,659.9,948.5,644.8,955.9z"/>
	<path d="M1458.5,1490.3c3.7-12.9,0.1-25.8-2.4-38.6c-1.1-5.5-2.1-11.8-6.9-15.9c0,0,0,0.1,0,0.1
		C1452.4,1454.1,1455.5,1472.4,1458.5,1490.3z"/>
	<path d="M1447.9,1434.7C1447.9,1434.7,1447.8,1434.7,1447.9,1434.7c0.5,0.3,0.9,0.7,1.4,1.1
		C1449.1,1435.4,1448.3,1435.1,1447.9,1434.7C1447.9,1434.7,1447.9,1434.7,1447.9,1434.7C1447.9,1434.7,1447.9,1434.7,1447.9,1434.7
		z"/>
	<path d="M925.2,788.1c8.4,6.2,17.5,6.5,26.7,6c1.2-0.1,2.3-2.2,3.1-3c-4.5-1.8-8.2-3.7-12.1-4.7C937.5,785,931.7,781.4,925.2,788.1
		z"/>
	<path d="M682.6,977.6c7.7,6.5,11.8,7.6,32.7,7.8C706.4,976.2,695,977.3,682.6,977.6z"/>
	<path d="M884.5,756.3c2.3,2.7,5.6,4.6,8.5,6.8c2.8,2.2,4.2,7.1,8.4,5.4c0.3-3.8,0.6-7.1,0.9-10.5c-9.7-2.4-6.8,1.8-22.9-11.7
		C880.7,749.9,882.1,753.5,884.5,756.3z"/>
	<path d="M1323,611.6c-0.1-0.2-0.2-0.4-0.4-0.6c0,0.3,0.1,0.5,0.1,0.8L1323,611.6z"/>
	<path d="M1312,597c1.3,6.5,7.3,9.2,10.6,14c-1.7-10.4-7.6-18.8-14.2-26.6c-1.2-1.4-4.5-1.1-7-1.6C1300.6,592.1,1310.8,591,1312,597
		z"/>
	<path d="M941.1,321.8c0,0-0.2,0.3-0.2,0.3C941,322.1,941.1,322,941.1,321.8C941.1,321.9,941.1,321.9,941.1,321.8z"/>
	<path d="M949.9,312.6c-3.1,3.3-5.9,6.4-8.7,9.4c1.2,4.8,2.3,9.7,3.6,15.1C950.9,330,953,320.3,949.9,312.6z"/>
	<path d="M1185.9,615.5c0.1,0,0.1,0,0.2,0C1186,615.4,1185.9,615.4,1185.9,615.5C1185.8,615.4,1185.9,615.4,1185.9,615.5z"/>
	<path d="M1185.5,631.4c0.5,2.2,1.1,4.7,2.4,6.5c0.8,1.1,3.1,1.2,6.7,2.4c-1.6-5.4-2.5-9.1-3.7-12.6c-1.5-4.1-3.3-8.1-5-12.2
		c-3.8,0.8-7.6,1.6-13.4,2.8C1181.7,619.6,1184.1,625,1185.5,631.4z"/>
	<path d="M718.1,704.2c-1.6,1.3-3.6,2.9-6.7,5.5c8.6,3.6,15.5,8.9,19.2,17.9c-2-5.4-2.9-10.5,1.3-14.8
		C726.8,709.5,722.4,706.8,718.1,704.2z"/>
	<path d="M312.6,659.6c-0.2,0.5,1.5,2.1,2.6,2.7c3.9,2.1,7.9,3.8,13,4.3c-0.5-1.8-0.6-3-1.1-3.6c-6-6.5-12.2-12.8-18.3-19.2
		C309.6,649.5,315.1,653.1,312.6,659.6z"/>
	<path d="M957.3,754.1c3,7.1,6.6,13.1,7.9,19.6c1.3,6.5,0.3,13.5,0.3,22.1C973.5,783.6,968.8,762.3,957.3,754.1z"/>
	<path d="M655.7,314.7c4.5,5,8.5,4.7,13.3,0.2c0.8,2.4,0.9,4.9,1.7,5.2c5,1.5,9.7,0,15.6-2C675.6,313.9,666.5,310.3,655.7,314.7z"/>
	<path d="M434.8,590.5c-1.3-2.7-2.5-5.2-6.7-4.1c1.7,2.1,4.1,3.8,4.1,5.4c-0.2,10.7,8.4,15.1,14.7,21c0.4,0.4,1.7-0.3,2.6-0.4
		c0-1.3,0-2.6-0.1-4C441.9,604.6,438.2,597.6,434.8,590.5z"/>
	<path d="M1332.6,684.5c1.3,4.4,3.3,8.6,5.4,12.7c1.2,2.5,3.1,4.6,5.8,8.4c-0.4-11.9-2.2-17.3-10.6-27.9
		C1333,679.9,1332,682.5,1332.6,684.5z"/>
	<path d="M920.7,760.7c1.8-2.7,3.4-5.1,5.7-8.5c-6.3-0.6-12.2-1.1-19.1-1.7C910.7,757.2,913.7,762,920.7,760.7z"/>
	<path d="M611.9,480.1C611.9,480.1,612,480.1,611.9,480.1L611.9,480.1C611.9,480.1,611.9,480.1,611.9,480.1
		C611.9,480.1,611.9,480.1,611.9,480.1C611.9,480.1,611.9,480.1,611.9,480.1z"/>
	<path d="M602,500.9c3.8,1.3,5-0.6,5.9-3.5c1.4-4.3,3.4-8.4,4.7-12.7c0.4-1.3-0.4-3.1-0.7-4.6C605.7,485.7,598.7,491,602,500.9z"/>
	<path d="M954.1,507.8c-12.8-2.5-25.6-4.4-38.8-1.3c12.9,1.1,25.8,2.2,38.6,3.4C954,509.1,954.1,508.5,954.1,507.8z"/>
	<path d="M641.4,944.1c-5.8-3.7-11.6-1.9-18.9-1.7C633.5,949,636.5,949.2,641.4,944.1z"/>
	<path d="M616.8,301.5C616.8,301.5,616.8,301.5,616.8,301.5l-0.2,0.2c0,0,0,0,0,0c0.2,0,0.4,0,0.6,0
		C617,301.6,617,301.6,616.8,301.5C616.9,301.5,616.9,301.5,616.8,301.5z"/>
	<path d="M616.9,311.3c4.4-0.2,9.2-0.5,16.1-0.8c-2.9-2.8-4.6-5.4-5.3-5.1c-4.1,1.4-5.9-1.2-8.2-3.5c-0.4-0.4-1.4-0.2-2.3-0.1
		C621,304.7,615.1,307.1,616.9,311.3z"/>
	<path d="M1243.1,723.6c-5.8,2.4-3.7,5.5-1.9,9.7c7-3.6,6.6-9.7,7.4-15.2c-0.7-0.3-1.4-0.6-2.1-0.9
		C1245.4,719.4,1244.8,722.9,1243.1,723.6z"/>
	<path d="M904.7,809.8C904.7,809.8,904.7,809.8,904.7,809.8C904.7,809.8,904.7,809.8,904.7,809.8
		C904.8,809.7,904.7,809.8,904.7,809.8z"/>
	<path d="M904.2,813.5c3.6,4.5,7.3,8.9,11.4,13c0.6,0.6,3.2-0.6,7-1.5c-4.4-3.6-7.3-6-10.1-8.4c-2.6-2.2-5.1-4.5-7.7-6.7
		C904.5,811.1,903.7,812.8,904.2,813.5z"/>
	<path d="M211.6,690.7c-0.1-0.1-0.3-0.2-0.4-0.2c0,0.2,0.1,0.3,0.1,0.5L211.6,690.7z"/>
	<path d="M211.2,690.5c-1.3-5.6-2.6-11.3-4.2-18.3C201.9,684.5,203.9,686.2,211.2,690.5z"/>
	<path d="M1406.1,1041.6c4-13.8,4-16-0.1-21.9C1403.7,1027,1404.5,1033.8,1406.1,1041.6z"/>
	<path d="M735.2,339.3c-4.4,0.8-7.2,1.2-10.2,1.7c2,3.1,3.8,5.9,5.5,8.4C731.7,346.8,733.2,343.6,735.2,339.3z"/>
	<path d="M700.5,1198.9c0.9-4.9,2-8.8-1.4-13.9C697,1190.3,694.5,1194.2,700.5,1198.9z"/>
	<path d="M86.4,1663.7c7.1,3.7,12.6-0.7,18.5-1.3C98.9,1661.5,92.7,1659.2,86.4,1663.7z"/>
	<path d="M104.9,1662.4c0.1,0,0.1,0,0.2,0c0,0,0,0,0,0c0,0,0,0-0.1,0C105,1662.4,105,1662.4,104.9,1662.4z"/>
	<path d="M1288.7,602.2c4.5-5,0-6.9-3.1-11.5C1283.9,597,1285.4,599.6,1288.7,602.2z"/>
	<path d="M406.7,584.9c4.6,2.5,9.2,5.1,13.8,7.6C417,587.3,413.6,582.4,406.7,584.9z"/>
	<path d="M627.7,22.5c1.3,3.9,2.7,7.8,4,11.7C637.4,26,636.9,24.7,627.7,22.5z"/>
	<path d="M631.7,34.3C631.7,34.3,631.6,34.3,631.7,34.3c-0.1,0.1-0.1,0.1-0.1,0.1C631.7,34.4,631.7,34.4,631.7,34.3
		C631.7,34.3,631.7,34.3,631.7,34.3z"/>
	<path d="M880.2,702.6c-4,9.9-4,10.3,3.1,14.4c-1.1-1.9-2.2-3.8-3.6-6.3C879.7,708.5,886.1,705.9,880.2,702.6z"/>
	<path d="M1438.6,1641.1c-3,7.8-3,7.8,0,12.2C1438.6,1650.1,1438.6,1646.5,1438.6,1641.1z"/>
	<path d="M548,349.5c-0.6,4.1-1.1,7.1-1.8,11.8C553.3,357.1,553.3,357.1,548,349.5z"/>
	<path d="M594.2,81.5c-5.1-2.9-8.7-3.1-13.8,0.6C585.6,84.2,589.3,84.6,594.2,81.5z"/>
	<path d="M691,422c-4.4,0.6-7.3,2.6-7,9.3c3.4-2.9,6-5.1,8.5-7.2C692.1,423.4,691.5,422.7,691,422z"/>
	<path d="M1360,1088.9c-1.4,0.5-2.9,2.2-3.1,3.6c-0.1,0.9,2.4,3.2,3,3c1.5-0.6,2.6-2.2,4.7-4.2
		C1362.4,1090.1,1360.8,1088.5,1360,1088.9z"/>
	<path d="M589.4,337.8C589.4,337.8,589.4,337.8,589.4,337.8L589.4,337.8C589.4,337.8,589.4,337.8,589.4,337.8z"/>
	<path d="M595.7,346.1c-0.9-2.8-2.8-3.7-4.3-5c-0.9-0.8-1.4-2.2-2-3.3c-1.1,1.5-2.2,2.9-3.9,5.3
		C589.4,344.3,592.5,345.2,595.7,346.1z"/>
	<path d="M833.9,668.8c-3.4-1.2-6.9-2.4-10.3-3.6c-0.3,0.7-0.5,1.4-0.8,2.1c3.4,1.2,6.9,2.5,10.3,3.7
		C833.3,670.3,833.6,669.5,833.9,668.8z"/>
	<path d="M724.1,1002.8c2,0.6,4.1,1.4,6.1,1.8c0.9,0.2,1.9-0.5,2.9-0.7c0-0.6-0.1-1.2-0.1-1.8c-2.9-0.3-5.8-0.5-8.6-0.8
		C724.3,1001.8,724.2,1002.3,724.1,1002.8z"/>
	<path d="M919.8,809.9c1.1-3,2.2-6.1,3.8-10.8C917.6,802.2,917.1,805.4,919.8,809.9z"/>
	<path d="M716,996.2c0,0.1,0,0.1,0,0.2l0,0l0,0l0,0l0.1-0.1C716.1,996.2,716.1,996.2,716,996.2z"/>
	<path d="M715.2,992.7c-2.6-0.7-5.3-0.8-8-1.1c-0.1,0.5-0.3,1.1-0.4,1.6c3.1,1,6.2,2,9.3,3C715.8,994.9,715.8,992.8,715.2,992.7z"/>
	<path d="M1015.5,589.1L1015.5,589.1C1015.6,589,1015.6,589,1015.5,589.1c-0.1,0-0.2,0-0.3,0c0.1,0.1,0.1,0.1,0.2,0.2L1015.5,589.1
		C1015.5,589.1,1015.5,589.1,1015.5,589.1z"/>
	<path d="M1009.9,590.1c1.9-0.4,3.6-0.7,5.3-1c-2.5-2.5-5-5-7.5-7.5C1008.4,584.4,1009.2,587.2,1009.9,590.1z"/>
	<path d="M1007.5,581.1c-0.1,0-0.1,0.1-0.1,0.1c0.1,0.1,0.2,0.2,0.3,0.3c0-0.2-0.1-0.4-0.1-0.5L1007.5,581.1z"/>
	<path d="M822,686.5c3,0.5,5.9,1.6,8.9-1.7c-2.9-0.3-5.8-0.7-8.6-1C822.2,684.7,822.1,685.6,822,686.5z"/>
	<path d="M737.7,762.9c3.1,0.9,6.1,1.7,9.2,2.6c0.2-0.7,0.4-1.4,0.6-2.1c-2.9-0.9-5.8-1.8-8.6-2.7
		C738.5,761.4,738.1,762.1,737.7,762.9z"/>
	<path d="M653.1,733.3c2.7-1.7,4.4-2.9,6.2-4C655.7,728,652.6,727.4,653.1,733.3z"/>
	<path d="M211.9,691.4c1.2,2.9,2.4,5.8,3.7,8.7C216.4,694.6,216.4,694.4,211.9,691.4z"/>
	<path d="M211.6,690.8c0,0-0.3,0.3-0.3,0.3c0.2,0.1,0.4,0.2,0.5,0.4C211.8,691.2,211.7,691,211.6,690.8z"/>
	<path d="M1293,613.1c0.5-0.2,0.9-0.4,1.4-0.6c-0.9-2.4-1.8-4.9-2.6-7.3c-0.8,0.3-1.5,0.7-2.3,1
		C1290.7,608.5,1291.8,610.8,1293,613.1z"/>
	<path d="M1274.5,581.7c-0.1-1.9-0.3-3.7-0.4-5.6c-0.9,0.1-1.8,0.1-2.7,0.2c0.4,1.9,0.7,3.8,1.1,5.7
		C1273.2,581.9,1273.9,581.8,1274.5,581.7z"/>
	<path d="M606.9,25.4c-0.6-0.1-1.3-0.3-1.9-0.4c-0.6,2.5-1.1,5.1-1.7,7.6c0.5,0.1,1.1,0.1,1.6,0.2C605.6,30.3,606.3,27.8,606.9,25.4
		z"/>
	<path d="M584.5,1537.6c2.8,0,4.5,0,8.6,0c-3.3-2.2-4.9-3.2-6.5-4.2C585.9,1534.6,585.3,1535.9,584.5,1537.6z"/>
	<path d="M892.8,722c-4.1-2.1-6.7-3.4-9.2-4.7C886.7,722.9,886.7,722.9,892.8,722z"/>
	<path d="M883.6,717.3c0-0.1-0.1-0.1-0.1-0.1c0,0,0,0,0,0l0,0c-0.1,0-0.1-0.1-0.2-0.1c0,0.1,0.1,0.1,0.1,0.2
		C883.5,717.2,883.5,717.2,883.6,717.3z"/>
	<path d="M1041.5,427.5c0.4,1.9,0.6,3.4,1,5.2C1045.2,429.6,1045.2,429.6,1041.5,427.5z"/>
	<path d="M716.9,996.3c-0.2,0-0.4-0.1-0.6-0.1c-0.1,0-0.2,0.2-0.2,0.2l0,0C716.3,996.4,716.6,996.3,716.9,996.3z"/>
	<path d="M727,995.2c-3.4,0.4-6.7,0.8-10.1,1.1c3.4,0.5,6.7,0.9,10,1.4C726.9,996.9,727,996,727,995.2z"/>
	<path d="M909,715.4c-0.5,0.6-1,1.1-1.5,1.7c1.7,1.3,3.5,2.5,5.2,3.8c0.3-0.4,0.6-0.8,0.9-1.2C912,718.2,910.5,716.8,909,715.4z"/>
	<path d="M149.9,1562.6c0,0-0.3,0.3-0.3,0.3c0.1,0,0.2,0,0.2,0C149.8,1562.8,149.9,1562.7,149.9,1562.6z"/>
	<path d="M157.2,1562.8c-0.2-0.4-0.3-0.8-0.5-1.2c-2.3,0.4-4.6,0.9-6.9,1.3c-0.3,1.1-0.6,2.2-1.1,4.3
		C152,1565.5,154.6,1564.1,157.2,1562.8z"/>
	<path d="M1447.8,1434.7C1447.8,1434.7,1447.9,1434.7,1447.8,1434.7C1447.9,1434.7,1447.9,1434.7,1447.8,1434.7
		c0.1-0.1,0.1-0.2,0.1-0.3C1447.9,1434.5,1447.8,1434.6,1447.8,1434.7z"/>
	<path d="M1447.9,1425.4c0,3,0,6,0,8.9c0.6-2.9,1.1-5.9,1.7-8.8C1449,1425.5,1448.4,1425.5,1447.9,1425.4z"/>
	<path d="M612.5,327.5c-1.7-0.1-3.4-0.2-5.1-0.2c0,0.6,0,1.2,0,1.8c1.7,0,3.4,0,5.2,0C612.5,328.6,612.5,328.1,612.5,327.5z"/>
	<path d="M687.6,341.1c0.3-0.5,0.7-1,1-1.5c-1.3-1-2.6-2-3.9-3c-0.4,0.8-1.2,2.2-1,2.3C685,339.7,686.3,340.4,687.6,341.1z"/>
	<path d="M619.2,475.1c-2.8,1.9-5,3.5-7.2,5c0,0,0,0,0,0C616.2,481.4,618.7,480.3,619.2,475.1z"/>
	<path d="M723.7,1045.1c0.2-2,0.4-4,0.6-6.1c-1.5,1.4-2.9,2.7-4.4,4.1c1.1,0.7,2.3,1.3,3.4,2c0,0,0-0.1,0-0.1
		C723.4,1045,723.5,1045,723.7,1045.1z"/>
	<path d="M913.9,513.1c2.3-0.2,4.5-0.4,6.8-0.6c0-0.4-0.1-0.8-0.1-1.2c-2.3,0.1-4.5,0.2-6.8,0.3
		C913.8,512.1,913.9,512.6,913.9,513.1z"/>
	<path d="M1035.4,829.5c1.8,22.9,2.4,25.2,9.9,37C1049.8,849.4,1045.7,835,1035.4,829.5z"/>
	<path d="M1024,777.2c1.7,3.1,3.6,1.4,5.3-1.7c-5.4-0.6-6.9-8.8-13.7-6.3c0.2,2.2,0.4,4.4,0.6,6.6
		C1019.1,774.4,1021.7,773,1024,777.2z"/>
	<path d="M1015.5,769.1c0,0-0.3,0.3-0.3,0.3c0.1,0,0.2-0.1,0.3-0.1C1015.5,769.2,1015.5,769.1,1015.5,769.1z"/>
	<path d="M1034,780.4c-1.6,1.9-3.2,3.7-4.8,5.6c0.5,0.5,1.1,1,1.6,1.5c1.6-1.8,3.2-3.6,4.9-5.5
		C1035.1,781.5,1034.6,780.9,1034,780.4z"/>
	<path d="M1083.1,824.7c1.2,2.1,2.5,4.2,3.7,6.3c0.6-0.4,1.3-0.8,1.9-1.2c-1.3-2-2.7-4-4-6.1C1084.2,824,1083.6,824.3,1083.1,824.7z
		"/>
	<path d="M1255.3,932.4c4-4.7,8.3-9.4,2.5-15.9C1257,921.8,1256.2,927.1,1255.3,932.4z"/>
	<path d="M1260.4,906.6c-0.1,1.3,0.7,2.8,1.2,4.2c0.7,0.4,1.4,0.8,2.1,1.2c0.5-1.2,1.5-2.4,1.3-3.6c-0.1-1.3-1.2-2.5-1.9-3.8
		C1262.2,905.2,1260.5,905.8,1260.4,906.6z"/>
</g>
<path d="M824.1,28.8c0,0-18.7-6.1-48.9-19.7C745-4.6,745.7,1.2,745.7,1.2l28.8,21.3c0,0-57-17.7-52.9-17c0,0,43.4,17.6,28.2,22.9
	s-114.9-11-114.9-11l110.7,96.7l72.4-57.1l-35,18.4"/>
</svg>
