<?xml version="1.0" encoding="utf-8"?>
<!-- Generator: Adobe Illustrator 19.1.0, SVG Export Plug-In . SVG Version: 6.00 Build 0)  -->
<svg version="1.1" id="Layer_1" xmlns="http://www.w3.org/2000/svg" xmlns:xlink="http://www.w3.org/1999/xlink" x="0px" y="0px"
	 viewBox="1717.4 -1307.8 1466.5 2255.6" style="enable-background:new 1717.4 -1307.8 1466.5 2255.6;" xml:space="preserve">
<g>
	<path d="M1721.9-1187.3c2.5,1.8,3.7-0.4,5.6-1.5c7.3-4.2,14.5-8.3,22-11.7c2.2-1,5.6-0.1,8.3,0.5c25.4,5.5,50.8,11.3,76.2,16.5
		c15.3,3.2,30.9,5.2,46.2,8.1c5.6,1.1,10,0.7,12-6.4c12,1.4,23.8,3.1,35.6,4c11.3,0.9,22.7,1,33.4,1.4c0.8,1.7,1.3,2.2,1.3,2.8
		c0.1,12.2,6.4,17.1,18.7,14.4c1.5-0.4,3.2-2,3.8-3.4c1.5-3.5,2.3-7.2,3.3-10.8c0.6-2.4,0.9-4.8,1.4-7.4c-1.3-0.8-2.3-1.7-3.4-2.1
		c-14-3.5-27.9-7.6-42-10c-25.5-4.5-51.2-7.7-76.8-12.2c-20.6-3.6-41-8.5-61.5-12.8c-7.8-1.6-12.5-7.6-14.6-14.2
		c-2.3-7.3,6-17.2,14-18.4c11.4-1.8,22.5,0,33.2,3.6c6.1,2,12.1,5.3,17.2,9.2c7.8,6,15,7,22.8,0.9c9.7,3.6,19.2,6.9,28.5,10.4
		c13.3,4.9,27.1,7.2,41.1,9.2c21.4,3,42.6,6.8,63.9,10.3c2.2,0.3,4.2,0.6,6.8,1.1c1.7-2.8,3.2-5.3,5-8.4c6.9,2,13.7,3.9,21.1,6
		c-1.6,7,3.1,9.8,8.8,11.4c16.9,4.6,33.7,9.9,50.9,13.4c20.8,4.2,41.9,7,63,10c6.8,1,13.7,1.2,20.5,1.2c5.1,0,8,1.4,9.7,6.6
		c3.3,10.2,2.1,16.6-6,23.2c-1.4,1.3-4,1.8-6,1.5c-7.5-0.9-14.9-2-22.4-3.2c-5.5-0.9-11-2.5-16.6-3.2c-4.2-0.5-7.6-1.2-10.3-5.1
		c-4.2-6-11.5-6.1-17.7-7.4c-12-2.3-24.1-3.7-36.1-5.4c-1.8-0.2-3.7-0.1-6-0.1c-2.3,8.2-4.6,16.2-7.2,25.4c13,3.2,25.5,6.9,38.3,9.2
		c8.6,1.6,17.4,1,26,2c14.7,1.6,29.2,5.2,41.8,13c5.7,3.6,9.4,10.7,13.2,16.7c1.2,1.9,0.5,5.5-0.2,8.1c-2.2,9.1-7,16.5-15.2,22.7
		c-3.1-0.9-6.6-2.1-10.3-2.8c-3.7-0.8-7.4-1.5-11.1-1.5c-9,0-13.7,4.8-13.8,13.8c-0.1,4.1-0.1,8.1,0.4,12.1c0.6,4.5-1.1,7.1-5.3,8.6
		c-5,1.6-9.8,3.6-14.2,5.2c-5.5-7.1-10.2-13.7-15.5-19.6c-2.4-2.6-5.9-4.5-9.3-5.8c-17.5-6.2-35-4-52.6,1.6
		c-4.2,14-6.8,28.3-7.2,43.1c-0.6,20.6-0.8,41.2-1.7,61.7c-0.3,7.7-2,15.5-3.2,23.2c-0.9,5.9,0.6,8.9,6.7,10.1
		c18.1,3.9,36.3,5.4,54.9,3.4c20.1-2.2,40.2-4.2,60.5-5.9c3.8-0.3,5.9-1.7,6.8-5c4.5-17.2,10.5-34.3,3.6-52.4
		c-0.7-2,0.4-4.7,0.8-6.9c2.2,0.4,4.7,0.4,6.8,1.3c8.5,3.9,16.8,8.3,25.3,12c16.4,7.1,19.6,12.3,16.3,31.7
		c-2.4,14.1-9.5,26.4-15.7,39.1c-2.1,4.2-4,8.3-6.5,13.3c2.5,1.5,4.3,3,6.5,3.8c37,13.6,73.7,27.9,108.9,45.9
		c11.1,5.7,23.1,9.5,34.7,14.2c21.8,8.7,43.5,17.7,65.3,26.2c21.8,8.6,43.9,16.7,65.7,25.1c10.5,4.1,21,8.1,31.4,12.3
		c15.1,6.1,30.1,12.3,45.3,18.2c22.2,8.7,44.4,17,66.6,25.5c7.5,2.9,15,5.9,23.5,9.3c5.3-13.5,7.2-26.7,9.4-39.9
		c2.3-13.5,4.8-27.1,5.7-40.8c0.9-13.1-0.1-26.4-0.3-39.6c0.7-0.3,1.4-0.6,2.1-0.9c2.1,2.1,4.7,3.9,6.2,6.3
		c16.2,24.6,25.3,51.7,27.7,81c0.4,5.7-1.7,11.7-2.9,17.5c-1,4.9-2.4,9.7-3.5,14.6c-0.2,0.7,0.4,1.7,0.9,3.1c3.7-1.2,4.4-4.3,5.5-7
		c1.2-2.9,2.2-5.8,3.5-8.7c3-5.7,7.1-8.1,14.3-8.2c32.7-0.1,65.4-1.1,98-1.6c27.7-0.4,55.3-0.6,83.1-0.8c14-0.1,28-0.2,42-0.5
		c5.9-0.1,7.2-1.4,8.6-7.6c4.9-21.8,2.3-43-4.6-63.7c-7-20.8-17.4-39.5-35.4-53c-4.7-3.5-9.7-6.4-14.7-9.4c-2.8-1.7-5.7-3-8.5-4.5
		c0.2-0.7,0.3-1.6,0.6-2.3c1.8-0.2,3.9-0.9,5.5-0.5c24.2,7.5,45.3,20.6,64.2,37.2c12.9,11.3,25.3,23.2,34.7,37.9
		c10.5,16.3,17.8,33.1,12.5,54.2c3.1,0.1,5.6,0.8,7.6,0c7.8-3.1,16.2-5.6,23.1-10c11.7-7.5,22.7-16.3,34.3-25
		c3.3,4.4,1.3,10.1,3.2,14.7c4.3,1.9,6.8-0.6,9.4-2.7c13.6-10.8,26.1-22.5,32.7-39.1c1.7-4.3,3.3-8.8,4.4-13.3
		c2.1-8.8,3.9-17.7,5.5-26.6c0.7-3.9,1-7.8,1.4-12c3.7-0.7,4.7,2,6.3,4.2c14.3,19.2,19.9,41.6,23.2,64.7c3.1,21.3,3.7,42.9,3.1,64.5
		c-0.3,7.8,0.5,15.7-0.6,23.3c-2.9,19.1-6.7,38.2-10,57.3c-0.9,5.2-0.4,10.6-1.8,15.7c-3.1,11.5-6.4,22.9-10.6,34.1
		c-3.9,10.3-7.6,20.4-6.1,31.8c0.9,6.8-7.6,18.7-14.2,20.5c-1.9,0.5-4.3,0-6.4-0.6c-18.9-4.4-37.7-9.5-56.7-13.2
		c-11.2-2.2-22.9-2.6-34.4-0.6c-4.8,0.9-10.9,0.7-14,3.6c-2.9,2.6-2.9,8.6-3.6,13.1c-2.7,17.9-5.6,35.9-7.2,53.9
		c-1.7,18-2.3,36.1-2.5,54.2c-0.1,8.7,1.4,17.4,2.8,26c0.6,4.6,0.6,8.5-3.8,13.3c-1.3-3.3-2.8-5.5-3.2-8
		c-3.2-21.1-4.8-42.3-0.6-63.4c0.7-3.3,0.7-6.8,1-10.6c-4.9-1.4-9.2-2.6-14.3-4.1c-2.6,7.9-5.1,15.1-7.3,21.3
		c-12.4-2.6-23.6-5.2-34.9-7.2c-6.4-1.1-13-1.7-19.5-1.6c-18.2,0.3-35.4-3.5-52.1-10.2c-12.9-5.1-25.9-8.2-40.1-5.4
		c-3.4,0.7-7.5-0.5-11.1-1.4c-7.9-2.1-15.7-4.3-23.5-6.7c-4.1-1.3-7.2-0.6-9.8,3c-2.8,3.8-6.5,6.8-9,10.8
		c-6.4,10.6-17.3,15-27.4,20.7c-3.1,1.7-6.4,1.5-8.4-1.4c-2.8-4-5.9-8.1-7.2-12.7c-1.9-6.2-2.1-12.9-3.1-19.5
		c-0.7-5-1.1-10-2.2-14.8c-1.5-6.8-2.5-7.6-9.6-7.5c-10.5,0.1-21.1,0.5-32.7,0.9c-3.5-13.9,0.6-29.4-7.7-43.1
		c-0.4,5.3-1,10.6-1.3,15.8c-0.1,2.8,0.2,5.6,0.3,8.4c0.9,12.9-3.4,18.8-15.7,21c-10.8,1.9-10.8,1.9-11.9,15.4
		c23.6-2.7,46.9-5.3,70.8-8c5,6.2,4.4,14.4,4.5,21.9c0.2,13.8-1.6,27.4,2.6,41c0.6,1.9-0.6,4.4-2.1,6.7
		c-9.2-19.5-10.1-40.4-10.4-61.9c-6.8,0.4-12.6,0.8-18.3,1c-7.6,0.3-8.9,1.7-8.5,9.8c5.9,2.5,11.5,4.7,17.6,7.3
		c-1.4,5.1-2.7,9.4-3.8,13.4c-7.8,3-9.3-5.5-14.9-7.4c-2.9,10.5,4,21.4-2.8,31.5c-0.5-1.9-1.4-3.7-1.7-5.7c-2-13-3.7-26-5.6-39.1
		c-1.3-8.9-2.6-9.7-12.2-7.6c0,4.8,0,9.5,0.1,14.4c-9.8-0.5-9.8-0.5-9.7-12.1c-0.5-0.3-1-1-1.5-0.9c-2.2,0.1-4.3,0.2-6.5,0.4
		c-0.4,1.3-0.9,2.1-0.9,3c1.1,14,2.3,28,3.6,42c0.7,7.8,0.3,14.8-7.9,19.5c-2.2,1.2-3.7,6.1-3.4,9c0.9,9.3,2.6,18.6,4.1,27.8
		c0.4,2.4,1.1,4.7,1.6,6.9c-7,2.8-19,0.5-23-4.1c-1.1-1.3-1.7-3.3-1.9-5c-2.4-24.9-4.8-49.9-6.9-74.7c-0.3-3.2,0.3-7.2,1.8-9.8
		c8.3-13.6,8.2-27.9,4.5-42.6c-0.2-0.9-0.4-1.9-0.6-2.8c-3.6-15.7-3.7-15.5-19.8-15.3c-7.1,0-14.3-0.6-21.4-1.4
		c-6.4-0.8-11.8-4.4-15.9-9.2c-3.1-3.6-2.7-6,1.2-8.6c16.7-11.1,34.4-19.5,54.8-19.7c8.9-0.1,18.1,1.3,26.9,3.6
		c24.9,6.3,49.6,13.3,73.1,24.1c15.6,7.2,31.4,14,44.6,25.4c5.4,4.7,12,5.5,19.4,6.8c-6.3-9-49.6-31.3-76.5-43
		c-26.8-11.7-54.9-18.4-84.5-26.3c2.9-2.2,4.4-3.6,6.1-4.5c11.1-5.8,22.1-11.9,33.5-17.2c16.1-7.5,30.1-17.5,42.2-30.8
		c8.3-9.3,17.6-17.8,26.5-26.5c2.7-2.7,5.3-5.3,3.7-10.6c-27.5,1.4-55.1,1.6-81-6.9c-6.4,8.7-12.5,16-19,23.6
		c-31-5.8-59-21-91.3-27.7c8.9-2.8,21.2-1,35.6,4.2c11.1,3.9,22.2,7.7,33.7,10.9c-3.2-4.3-7.6-6.5-12.3-8.7
		c-20.9-9.7-43.2-15-65.2-21.1c-19.4-5.3-38-12.6-55.9-21.7c-13.3-6.7-27.4-12.1-41-18.3c-8.8-4-17.3-8.6-26.1-12.6
		c-8-3.6-16-7-23.9-10.5c-6.9-3-13.7-6.1-20.6-9.2c-11-5-22.2-9.7-33-15.2c-8.3-4.2-16-9.4-24.1-14c-13.1-7.5-26.3-14.8-39.6-22.1
		c-4.4-2.4-8.8-4.9-13.3-6.9c-7.4-3.3-14.8-6.3-22.2-9.5c-1.7-0.7-3.1-1.8-4.2-3.6c7.7,2.2,15.8,3.6,23,6.8
		c13.5,5.8,26.6,12.6,39.7,19.1c15.3,7.7,30.4,15.7,45.9,23.3c12.6,6.2,25.3,12.3,38.2,17.7c14.7,6.2,29.5,12.1,44.5,17.5
		c25.8,9.2,51.4,18.3,77.5,26.5c29.5,9.3,59.1,19.2,89.8,24.2c11.4,1.9,23,0.5,34.5-1.4c0.6-0.1,1-1.4,1.9-2.8
		c-2.4-1.2-4.4-2.3-6.6-3.2c-21.4-7.9-42.9-15.5-64.3-23.5c-19.9-7.5-39.7-15-59.3-23.3c-16.7-7-33-15-49.5-22.3
		c-15.4-6.8-30.9-13.3-46.4-20c-7.5-3.3-14.9-6.7-22.3-10c-11.8-5.1-23.5-10.1-35.1-15.4c-8.6-3.8-16.8-8.2-25.5-11.9
		c-12.4-5.3-24.9-10.1-37.4-15.2c-13.3-5.4-26.7-10.8-40.1-15.9c-9.5-3.6-19.3-6.8-27.7-9.7c-6.1,7.7-11.3,13.8-15.9,20.2
		c-1.9,2.7-2.8,6.1-4.5,10.1c7.4,4.5,14.2,8.9,21.4,12.5c12.6,6.3,25.2,12.6,38.1,18.1c6.1,2.6,9,6,8.1,12.7
		c-1.7,11.7-2.6,23.6-4.5,35.3c-1.8,10.9-9.1,19.1-15.6,27.4c-1.8,2.3-5.1,3.8-8,4.8c-6.2,1.9-12.6,3.6-19,4.5
		c-2.4,0.4-5.6-0.9-7.6-2.5c-13.5-11.1-27.5-21.5-39.7-33.8c-16.5-16.8-32-34.7-47-53c-12.5-15.2-23.5-31.5-35.2-47.3
		c-2.6-3.5-5.1-7.1-7.7-10.6c-2.7-3.4-6.3-3.6-10.1-2.9c-5.4,0.9-11.1,3.1-16.3-0.1c-4.4-2.6-8.5-5.8-13.2-9
		c-2.2,1.1-4.6,2.5-7.2,3.5c-10.3,4.4-20.1,3.1-28.6-4.2c-7.3-6.4-13.8-13.5-20.8-20.2c-5.9-5.5-12.1-10.7-17.9-16.2
		c-1.6-1.5-3.3-4-3.4-6c-1-17.5-2.1-34.9-2.3-52.4c-0.1-7.9,2.4-15.4,8.8-21.2c0.9-0.7,1.3-2,2.4-4.1c-8-7-15.4-14.7-24-20.5
		c-11.6-7.8-16.7-17.7-14.8-31.5c0.6-4.6,0.3-9.3,0.4-14.7c-19.4-3.7-38.9-7.3-59.5-11.1c-4.2,14.8-5.1,29.4-7.2,43.6
		c-9.2,2.8-51.9-4.6-68.1-12c-0.2-0.6-0.9-1.1-0.8-1.6c2.1-19.3,4.1-38.5,6.2-57.8c0.3-3.1,0.6-6.2,0.8-9.4c0.4-4-1.8-6.2-5.3-7.8
		c-13.1-5.9-26-11.9-38.9-18.2c-1.9-0.9-3-3.7-4.4-5.6c-2.1-2.9-4.3-5.8-6.4-8.7C1718.8-1176.4,1720.4-1181.8,1721.9-1187.3z
		 M2947.9-471.7c2.7-8.1,3.1-16.3,2.4-24.3c-1.5-17.1-3.7-34.2-6.5-51.1c-2.9-17.4-5.6-34.6-3-52.2c0.6-3.8,0.9-7.8,1.5-12.3
		c-13.6,0.5-25.2,4.9-36.6,9.6c-16.1,6.8-32.1,13.5-48.6,19.3c-21,7.4-41.8,15-59.6,29c-12.8,10-23,21.9-28.9,37.3
		c-1.6,4.2-0.8,6.6,3.4,7.9c5.1,1.6,10.3,2.8,15.3,4.6c29.1,9.9,57.9,20.4,88,26.9c16.2,3.5,32.4,7.1,49.1,6.7
		C2931.7-470.4,2939.1-471.2,2947.9-471.7z M2051.9-891c7.7,18.8,18.3,35,30.5,50c10.7,13.3,22.6,25.6,34.3,38
		c20.7,22.1,44.5,40.7,67.4,59.9c8.2-1.8,7.6-8.8,9.1-14.1c1.2-4.5,0.3-8.6-4.2-11.5c-5.5-3.4-10.9-7-16.4-10.5
		c-7.8-5-16.3-9.2-23.2-15.2c-12.1-10.6-23.8-21.9-34.8-33.6c-14.3-15.2-27.7-31.4-38.2-49.5c-3.4-5.9-6.7-11.8-10.3-18
		C2061-894.1,2056.7-892.6,2051.9-891z"/>
	<path d="M3060.9,945.7c0.4-1.2,1.3-2.4,1.1-3.4c-3.4-17.6-1.2-35.6-2.3-53.2c-1.2-18.6-3.6-37.3-6.4-55.8
		c-7.8-52-16-104-23.8-155.9c-2.2-14-5.5-27.6-14-39.3c-0.3-0.4-0.1-1.2-0.2-1.8c6.7-1.3,9.3,0,13,5.3c14.5,21.1,21.7,44.8,26,69.7
		c4.9,28.1,6.5,56.4,8.7,84.9c1.1,15.3,3,30.5,3.5,45.7c0.5,13.4-0.2,26.8-0.7,40.1c-0.7,20.2-3.6,40.5,2.5,60.4
		c0.5,1.7,0,3.7,0,5.6C3065.7,947.1,3063.3,946.4,3060.9,945.7z"/>
	<path d="M2673-226.7c-0.7-15-4.6-27.2-7.9-39.4c-3.2-11.7-7.1-23.2-10.7-34.9c-3.8-12.6-5.2-25.7-5.3-38.9
		c-0.1-11.5-2.9-21.7-13.7-28c-0.9-0.4-1-2-1.7-3.6c7-0.5,13.4-1.3,19.7-1.5c1.5-0.1,4.1,1.5,4.3,2.5c0.3,2.2-0.1,5-1.4,6.9
		c-1,1.6-3.6,2.1-5.7,3.2c6.6,33.9,13.1,67.3,19.7,100.9c1.2,6.1,2.3,12.3,3.6,18.4c1,4.7,3.5,7.4,8.9,8c9.1,1,18.1,1.1,27.1-0.5
		c3.3-0.5,6.7-0.5,10.4-0.8c-2.1-41.9-17.1-81.1-25.5-122.3c3.8-1.7,7.4-3.4,11.1-5c6.2,6.5,8.3,14.2,9.9,21.5
		c6.1,26.5,11.5,53.2,17,79.9c1.5,7.3,2.3,14.8,3.5,22.3c7.8,3.8,16.1,3,24,2.8c18.3-0.4,36.6-1.6,55.8-2.5
		c3.4-4.2,2.5-10.1,2.4-15.5c-0.8-32-4.8-63.6-13.7-94.5c-0.6-1.8-1.2-3.6-1.9-5.3c-3.2-8.7-0.6-14.1,9.4-18.1
		c4.9,6.6,7.8,14.1,8.9,22.1c2.6,20.8,4.6,41.6,7.4,62.4c1.6,12.4,4.3,24.6,6.3,36.9c1.2,7.4,6.4,9.8,12.7,10.2
		c7.1,0.5,14.3,0.3,21.5,0.1c5.2-0.2,10.5-1,15.8-1.5c6.7-0.6,7.3-1.3,6.3-8.1c-0.2-1.5-0.6-2.9-1.2-5c17.5-9.3,36.2-5.7,55.5-6.9
		c0.4-5.8,0.8-11.7,1.2-17.7c0.5-0.1,1-0.2,1.5-0.4c2,5.8,4,11.5,6.3,18.5c-8.4,2.7-15.9,5.3-23.5,7.6
		c-13.9,4.4-17.7,12.5-12.4,25.8c0.6,1.4,1.1,3,1.9,4.4c11.4,19.2,15,41,19.7,62.4c3.4,15.5,7.6,31,12.1,46.3
		c2,6.5,5.6,12.5,8.5,18.7c1.1,2.4,1.9,4.8,2.8,7.4c-0.5,0.3-1.1,0.8-1.6,1.1c-1.3-0.9-2.9-1.6-4-2.8
		c-10.4-10.7-20.8-21.6-31.2-32.3c-11.1-11.5-23.5-21.7-37.4-29.3c-8.1-4.4-17.2-7.6-27-5.2c-2,0.5-4.1,0.5-7.8,0.9
		c5.4-13.6,11.6-25.6,20.6-35.3c9-9.8,19.2-18.3,29.9-28.3c-3.9-1.1-7.2-2.8-10.6-2.9c-11.2-0.3-22.3,0.2-33.5,0
		c-4.3,0-8.6-0.9-12.9-1.8c-5.1-1.2-8.3,0.9-10.9,5.1c-2,3.2-4.5,6.1-7.1,8.7c-1.4,1.6-3.4,3-5.4,3.5c-8.2,1.7-16.5,3.3-24.9,4.2
		c-5.3,0.5-12.1-5.3-13.4-10.8c-0.7-3-1.7-5.5-5.1-5.9c-13.9-1.7-27.9-3.4-42.6-5.1c-4.8,10.2-9.8,20.2-14.1,30.5
		c-4.3,10.3-7.9,20.9-12.1,32.2c-0.7-1.8-1.5-3.2-1.8-4.6c-0.7-5.3-0.9-10.6-1.9-15.8c-1.3-6.9-3.5-9-10.7-8.8
		c-4.3,0.1-6.4-1.9-7.9-5.3c-2.3-5.1-4.2-10.4-6.2-15.7c-7.6-1.8-16.2,0.9-21.6-7.7c-7,11,4.3,22-2.1,31.4c-7.7,1.3-8.9-6.2-15-10.6
		c4.4,23.8,9.9,45.2,17.4,66.1c7.6,21.3,16.3,42.1,31.6,58.9c-3.4,8.9-12.6,8.6-18,13.4c-1.4,17.9-0.9,35.2,4.2,52.3
		c6.2,20.4,18.4,36.8,33.9,50.9c9.5,8.5,19.8,16.3,30.3,23.5c10.4,7.1,21.9,11.8,35.9,10.8c-0.8,3.5-1.2,6.2-1.9,8.8
		c-7.6,26.8-16.1,53.4-22.7,80.5c-3.5,14.5-4.1,29.6-5.5,44.6c-1.9,21.5-3.2,42.9-4.8,64.4c-0.4,5.9-0.9,11.7-1.4,19.1
		c-7.5-1.8-13.9-3.1-20.1-4.7c-9.8-2.5-19.4-5-29-8c-4.1-1.3-7.8-3.8-11.8-5.6c-6-2.7-8-7.7-7.9-13.8c0.1-8.8,1.3-17.4,1.2-26.3
		c-0.2-29.4-0.3-58.8-4.5-88c-0.6-4.6-1.9-9.1-2.8-13.7c-9.9-3-18.4,0.3-26.7,3.6c-16.2,6.4-30.1,16.5-43.2,27.7
		c-8.8,0.2-14.6-5.5-20.6-10.2c-21-16.3-30.6-39.2-35.3-64.4c-5.5-29.7-3.6-59.3,5.9-88.1c7.4-22.5,18.5-42.9,37.1-58.7
		c8.9-7.6,16.8-16.7,24.4-25.8c5.2-6.2,10-12.9,13.3-20.1c3.6-8.3,5.7-17.3,7.5-26.2c3.8-18.7,2-36.7-7.8-53.6
		c-4.4-7.5-6.2-8.3-14.2-5.1c-12.4,5.2-24.9,9.9-37.3,15.1c-6.9,2.9-13.6,6.4-20.3,9.7c-3.1,1.5-5.9,3-9.5,3.9
		c3.8-9.5,11.4-15.9,18.2-22.7c6.8-6.7,14.8-12.1,22-19.2c-2.7,0.7-5.5,1.4-8.7,2.2c1.4-8,11.8-9.8,12-18.3
		c-7.1-1.9-11.7,3.8-18.2,5.5c2.5-8,9.1-11,13.8-15.6c3.3-3.3,7.4-5.8,11.6-8c4.6-2.3,5.7-5.6,5.9-10.5c0.6-17.5-4.1-34-8.8-50.6
		c-5.1-18.1-10.8-36-10.9-55.1c-0.1-3.2,0.6-6.5,0.8-9.8c13.9,2.2,15.8,3.9,17.9,16c4,22.5,7.2,45.1,11.9,67.5
		c2.5,11.9,7,23.3,10.8,34.9c0.5,1.5,1.3,2.9,2.1,4.1c3.6,5.7,9,6.2,13.6,1.2c4.5-4.7,11.4-5.4,15.4-0.3
		C2657.8-229.1,2665-229.7,2673-226.7z"/>
	<path d="M2836.7-924c4.9-6.1,9.6-12.2,15.3-19.5c1.7,9.2-3.8,14.6-6,21c-2.2,6.5-5,12.8-6.3,19.5c-1.3,6.9-1,14-1.4,21.4
		c-10.9-4.5-12.5-10.5-10.4-37.5c-1.8,0.3-3.6,0.2-5.1,0.8c-19.1,6.7-38.2,13.6-57.5,20c-10.4,3.4-21.1,6-32.1,4.5
		c-11.9-1.6-22.2-5.9-27.3-18.1c-3.2-7.6-5.2-9.2-13.4-7.1c-9,2.3-17.6,6-26.3,9.5c-3.4,1.4-6.6,3.6-9.9,5.5
		c-9.8,5.5-16.5,3.2-20.8-7c-0.4-0.8-0.9-1.5-1.3-2.1c-15.4-0.7-29.9,6.8-45.7,3c-2-10,10.3-11.3,12.4-19.8
		c-9.9,2-16.7,7.6-22.7,13.5c-9.3,9.3-17.7,19.3-25.8,29.7c-3.3,4.3-5.9,5.4-10.9,3.9c-21-6.2-42.2-12.1-63.3-18.1
		c-1.7-0.5-3.3-1.5-4.7-2.1c-0.4-4.3,2.1-5.2,5.1-5.7c24.9-4,48.2-13.1,70.8-23.8c5.3-2.6,10.4-5.7,15.3-9.1c4.7-3.3,9-3.1,14.1-1.1
		c8.4,3.4,17,6.3,25.7,9c10.1,3.2,20.5,2.4,31.9-1.7c-9.1-4.5-17.3-9.2-25.9-12.9c-2.9-1.3-7-1.6-10.1-0.8
		c-14.5,3.7-22.6-5.3-29.3-15.1c-4.5-6.6-6.8-14.7-9.5-22.4c-1.7-4.9,3.7-10.1,8.7-9c1.7,0.4,3.5,1.4,5.1,2.4
		c12.3,8.5,13.9,6.2,27,6c-0.3-1.8,0-3.9-0.9-5.1c-7.1-9.8-14.2-19.7-21.7-29.3c-2.6-3.3-5.5-6.1-3.6-10.7c2-4.9,6-6,10.7-6.2
		c14-0.5,24.8,6.6,33.2,16.6c7.1,8.6,13,18.4,18.3,28.3c3.6,6.7,7.6,10.4,15.3,12c11.1,2.2,21,0.5,30.8-4.4
		c10.8-5.4,21.5-2.4,28.1,8.2c2.8,4.5,4.9,9.4,7,14.3c2.7,6.4-0.8,17.2-6.7,22c-5.9,4.8-12.1,4.9-19.9,0.3c-0.8-0.4-1.6-0.8-2.5-1.1
		c-3.7,6.5-0.6,16.3,5.8,18.1c23.7,6.4,47.3,8.3,70.6-2c13.1-5.8,24-14.7,33.8-24.9c8.9-9.3,17.5-18.5,21.7-31.3
		c2.5-7.7,8.5-13.1,17.5-13.6c18.5-1.2,35.1-8.9,51.2-17.1c15.8-8.2,30.6-18.3,45.9-27.5c1.3-0.7,2.6-1.3,3.3-1.8
		c3,6.5,5.8,12.4,8.9,19.3c-6.1,3.8-12.8,8.3-19.8,12.4c-13.5,7.9-27.5,15.2-40.6,23.7c-8.3,5.4-15.8,12.2-22.9,19.2
		c-9.1,9-17.2,19-26,28.3c-3.8,4.1-5.4,8.7-5.4,14C2835.2-925,2835.9-924.5,2836.7-924z"/>
	<path d="M2783.6-1211c-1.4,5.1-2.8,10.3-4.4,15.3c-4.2,13.9-15.3,21.8-26.3,29.5c-1.8,1.3-5.4,0.9-8,0.6
		c-29.8-5-57.8-16.1-85.8-26.8c-17.9-6.9-36.3-8.8-55.1-7c-5.6,0.5-9.7,1-10.9-5.4c-5.5,1.1-6.3,5.6-8.2,9c-1.4,2.5-2.5,5.2-6.1,4.4
		c-4-0.7-5-3.7-4.7-7c0.5-5.8,1.5-11.7,2.5-18.8c-4.9-3-10.4-6.3-16-9.5c-1.1-0.6-2.4-0.8-3.5-1.5c-7.2-4.4-8.3-15.4-1.6-20.5
		c2.2-1.7,6.4-1,10.2-1.5c2.5-5.9-3.6-13.2,2.4-19.3c3.9,2.9,2.7,7.2,3.1,11.1c1.3,11.3,1.2,11.7,12.4,14.1c9.5,2,19.2,3.5,28.8,4.4
		c23,2.1,45.9,4.6,68.9,5c27,0.4,54-1.1,81-1.8c4.9-0.2,9.9-0.8,14.8-0.8c3.7,0,6.2-1.5,7-4.9c2.2-9.1,5-18.1,6.1-27.3
		c1.1-9,3.2-12.9,12.6-14.6c7.6-1.3,15.6-1,23.1-2.6c8.9-1.9,14.6,1.7,19.9,8.3c10.2,12.4,16.6,26.4,21.1,41.6
		c1.5,5.1,0.4,8.6-4.5,10.7c-7.8,3.2-15.4,7.1-23.5,9.1c-15.3,4-31,6.1-47,4.9c-1.5-0.1-3.1,0-4.7,0.2
		C2786.2-1212.1,2785.1-1211.5,2783.6-1211z"/>
	<path d="M2263.1,335.6c5.9,4.1,11.7,0.3,18.3,0.7c-3.7,6.5-7.5,11.4-14.2,12.1c-10.5,1.2-21.1,1.9-31.7,2.6c-2.1,0.2-4.3-0.7-6.4-2
		c6.8-5.4,16.4-2,23.6-8.7c-7.7-4.3-14.5-8.6-21.6-12.2c-8-3.9-13.2-10.2-17.5-17.6c-4.8-8.4-9.3-17-14.2-25.5
		c-2.7-4.8-5.8-9.5-8.9-14.6c3.2-3,6.7-3.1,10.4-2.2c9.2,2.1,18.3,4,27.4,6.4c16.3,4,32.8,3.6,49.3,3.1c25.7-0.8,51-4,75.7-11
		c29.7-8.4,57.5-21.1,82.7-39.2c15-10.8,30.1-21.4,45.1-32.2c14.1-10.2,25.8-22.6,36.5-36.3c7.4-9.6,15.9-18.5,24-27.4
		c2-2.2,4.8-3.6,8.3-6.1c8.6,18.3,21.7,31.4,37.8,42.2c-3.6,7.2-9.6,11.1-15.6,14.9c-17.7,11.4-37,19.6-56,28.4
		c-19.1,8.9-38.1,17.8-56.6,27.5c-18.4,9.5-35.9,20.6-54.3,29.9c-11.7,6-24,10.6-36.4,14.9c-16.3,5.7-32.2,11.8-47,20.8
		c-18.2,11-36.6,21.7-56.7,29.1C2264.5,333.5,2264.3,334.2,2263.1,335.6z"/>
	<path d="M3071.9,58.3c6.8,12.8,12.6,25,19.7,36.4c9.9,16,8,31.5,0.1,47.2c-10.4,20.6-21.1,41.1-31.5,61.8
		c-1.8,3.6-2.7,7.7-3.7,11.6c-3.7,14.6-9.1,28.5-15.4,42.2c-13.8,30.3-23.8,62-29.9,94.8c-1.8,9.8-2.9,19.8-5.6,29.4
		c-6.4,24.2-13.6,48.3-20.3,72.4c-1,3.5-0.7,7.4-1.5,11c-2,8.4-4,17-6.7,25.2c-1.4,4.4-5.6,6.6-11.3,6.4c-0.6-1.6-2.1-3.7-1.8-5.5
		c4.6-28.7,4.7-58,11.8-86.4c12.4-49.2,24.2-98.6,36.3-147.9c11.8-48.1,23.4-96.2,35.7-144.2c3.8-14.8,9.7-29.1,14.5-43.6
		C3064.1,64.5,3067.1,61.1,3071.9,58.3z"/>
	<path d="M2799.2,443.9c6.3,6.6,7.4,13.6,5.1,21.3c-3.7,12.3-7.1,24.7-10.6,37c-0.3,1.2-0.6,2.5-0.8,3.7c-1.6,12-1,12.9,10.6,16.3
		c3.3,1,6.6,2.1,9.9,2.9c9.4,2.6,18.1,1.6,24.6-6.7c2.6-3.3,5.5-2.4,8.5-1.5c8.1,2.3,16.2,4.6,25.5,7.3c2.2-6.6,4.3-12.7,6.1-18.8
		c2-6.6,3.9-13.3,5.5-20c1.5-6.1,2.3-12.3,3.7-19.6c4.9,3.8,4.3,7.7,4,11.7c-1.3,18.9-6,37-11.8,54.9c-0.7,2.1-1.2,4.2-1.8,6.4
		c2,1.6,3.4,3.5,5.3,4.3c20.7,8.6,40.3,20.2,62.8,24.5c7.9,1.5,15.8,1.5,22.8-2.6c5.8-3.3,9.8-1.1,15,2.8c-2.2,1.7-3.7,3.6-5.5,4
		c-11.1,3.2-22.3,4.8-33.9,3.9c-12.1-0.9-24.3-1-36.1-2.7c-14.2-2-28.2-5.3-42.4-8.1c-1.8-0.3-3.5-0.8-7.1-1.6
		c4.8,6.1,9.8,8.8,15.3,10.3c14.1,4,28.5,7.6,42.7,11.1c12.5,3.1,24.5,7.5,35.2,14.7c8.8,5.9,18.7,5.4,28,4
		c10.9-1.7,21.6-5.7,32.4-8.6c3.6-0.9,7.2-3.5,13.7-0.9c-4.6,2.9-7.4,5.5-10.6,6.5c-14,3.9-28.6,6.2-41.8,12.9
		c-1.5,0.8-3.8,0.5-5.4-0.1c-7.6-2.8-15.2-5.7-22.8-8.6c-21.5-8.5-43.1-16.7-64.3-25.7c-12.4-5.3-24.7-10.5-37.7-13.9
		c-5.7-1.5-11.3-3.2-17-4.8c0.2-0.6,0.3-1.2,0.4-1.8c6.5,1.5,13.1,2.9,20.5,4.7c-0.9-1.8-1.1-3.1-1.6-3.3
		c-13.8-4.1-27.6-8-41.4-12.1c-7.1-2.1-8.9,3.9-11.8,8.2c-6.4-1.6-9.3-6.7-12.9-10.8c-3-3.5-5.2-7.8-8.2-11.4
		c-0.9-1.1-3.4-2.1-4.8-1.8c-1.4,0.3-2.5,2.3-3.3,3.9c-1.8,3.9-2.9,8.1-4.9,11.9c-4,8-3.8,16.1,2.2,22.6c4.2,4.5,9.3,8.1,13.9,12.3
		c2.5,2.3,4.8,4.8,6.6,7.5c0.7,1.2,0.4,4-0.6,5c-0.9,0.9-3.5,1-5,0.3c-15-6.2-29.1-13.9-41.1-25c-11.5-10.6-22.9-21.1-35.2-32.5
		c14.6-14.3,33.3-16.1,51.3-19.5c0.3-5,0.5-9.4,0.8-14.2c8.6,0.9,16,1.6,23.4,2.5c8.1,1,10-0.1,12.3-7.7c2.4-7.7,4.9-15.3,4-23.8
		c-0.4-4.1,1.8-8.5,3-12.6C2795.5,456.3,2797.4,450.2,2799.2,443.9z"/>
	<path d="M3077.4-96.6c2,12,7.9,23.2,14.9,34.1c4.6-18,2.8-36.8,12.6-55.4c1.5,7.3,0,12.2-0.8,17.3c-1.6,9.8-3.8,19.6-5.2,29.5
		c-0.4,3.2,0.7,6.8,1.8,10c1.9,5.6,4.1,11.1,6.5,16.5c5.2,11.5,4.2,21.9-5.2,30.8c-9.2,8.6-14.5,19.6-19,31
		c-3.8,9.6-6.7,19.5-10.3,29.3c-0.8,2.2-2.3,4.2-3.7,6.9c-13.3-9.3-23.8-20-32.1-32.9s-15.8-26.2-23.3-39.6
		c-8.4-15-17.4-29.6-30-41.6c-2.8-2.8-4.9-6.4-7.8-10.3c4.9-3.6,10.5-2.5,15.4-3.1c21.3-2.8,42.9-4.5,63.3-11.7
		C3062.3-88.5,3069.4-92.8,3077.4-96.6z"/>
	<path d="M2278.8,363.6c-9.5,15.2-11.3,32.3-13.2,49.4c-1.3,12.1-7,22.6-11.9,33.4c-4.3,9.6-8.8,19.5-11.3,29.7
		c-5.4,22.8-14.9,43.7-26.5,63.9c-12.1,21.1-23.9,42.5-37.4,62.7c-8.4,12.7-19.3,23.7-29.4,35.2c-2.5,2.9-6.3,4.6-9.5,6.9
		c-0.5-0.4-0.9-0.9-1.4-1.4c6.5-10.9,13-21.7,19.6-32.6c12.1-20,25-39.6,35.9-60.3c10.2-19.3,17-40.1,19.6-62.2
		c1.8-15.1,5.5-30.2,9.1-45c3.1-12.6,2.1-24.2-5.6-34.8c-0.6-0.7-0.9-1.6-1.4-2.4c-0.1-0.2,0-0.6-0.1-1.5c2.6-2.9,5.5-6.1,8.4-9.3
		c4.8-5.3,9.8-10.5,11.3-18c0.5-2,2.7-4.6,4.6-5.1c12.4-3.8,24.9-7.1,37.4-10.6C2277.7,362,2278.2,362.8,2278.8,363.6z"/>
	<path d="M3103.9-913.7c1.4,4.4,2.3,7.1,3,10c3.8,15.1,3.1,30.5,1.2,45.6c-2.5,19-6.4,37.7-15,55.1c-5.9,11.9-12.6,23-26.5,28.8
		c-2-3.4-4.4-6.4-5.6-9.7c-1.8-5-4.7-7.1-10.3-6c-1,2.1-1.7,4.6-3.3,6.4c-1.5,1.7-4.4,4.3-5.8,3.8c-8.6-2.8-12.5,3.2-17.2,8
		c-0.3,0.2-0.3,0.6-0.7,1.5c0.8,1.8,1.7,3.9,3.2,7.4c-5.9,2.9-11.6,5.8-18,9c-5.1-7.8-7.1-16.7-10-25.1c-1.7-4.7-2.5-9.7-3.9-14.5
		c-1.1-4.2,0-6.3,4.7-7.1c19.8-3.2,36.5-12.9,51-26.3c15.9-14.5,28.5-31.5,37.4-51.1C3093.2-888.9,3098-900.4,3103.9-913.7z"/>
	<path d="M2105.5,255.4c3.1-3.1,5.3-7.1,8.4-8c6.5-1.9,8.6-6.8,8.6-11.9c0.1-7.4-1-14.9-2.6-22.2c-1.9-8.6-4.8-16.8-7.1-25.3
		c-0.5-1.9-0.2-4.1-0.2-7.4c10.2,3.4,18.1,7.7,21.7,17.2c1.3,3.5,2.5,7.3,2.7,10.9c0.9,20.7,9.4,38.7,18.4,56.6
		c8.3,16.6,16.7,33,24.2,49.9c4.1,9.1,6.5,18.9,9.5,28.3c0.9,2.9,1.5,6,2.4,9.2c31.5,10.2,62.3,4.9,93-3.9c0.3,0.7,0.6,1.3,0.9,2
		c-1.3,1.3-2.3,3.3-3.9,3.7c-8.6,2.5-17.4,4.9-26.1,6.9c-12.5,2.9-24.9,5.4-37.4,8.2c-2.7,0.6-5.3,1.7-7.8,3
		c-7.5,3.6-9,3.6-14.1-3.4c-4.6-6.3-9.7-12.7-12.1-20c-5.7-17-17.3-29.5-29.2-41.9c-14.7-15.3-29.6-30.4-44.4-45.5
		C2108.8,260.3,2107.8,258.5,2105.5,255.4z"/>
	<path d="M2780.9,435.8c-9.8,5.9-20.2,4.8-29.8,7.8c-4.8-10.7-4.9-21.5-3.2-31.8c3.7-21,3.7-42.3,4.4-63.5c0.7-21.5,2.7-43,4.4-64.5
		c2.3-29.5,9.8-58,15.8-86.7c2.3-10.7,3.3-21.6,4.9-32.5c1.4-9.6,3.2-19.1,8.2-29.3c2.1,6.6,0,11.4-0.7,16.3c-1.9,12-4.2,24-5.8,36
		c-1.6,12.6-2.9,25.4-3.8,38.1c-1.3,19.3-2.9,38.6-2.8,57.9c0,30.2,1.2,60.5,1.7,90.7c0.1,8.1-0.3,16.2-0.9,24.3
		C2772.5,411.6,2774.2,423.8,2780.9,435.8z"/>
	<path d="M2992.8-376.6c1.8-2,3.1-4,5-5c10.2-6.1,21.6-7.5,33.2-8c9.9-0.3,19.9,0.4,29.8,0.7c2.1,0,4.3,0,7.6-0.1
		c-0.4-6.5-0.6-12.6-1-18.7c-1.6-22.4-3.6-44.8-4.8-67.2c-1-18.2,1-36.2,4.7-54c0.7-3.6,2-7.1,3.1-10.9c8.5,1.2,14.6,5.3,21.6,9
		c-0.3,2.3-0.5,4.4-0.8,6.4c-4.3,20.2-9.8,40.2-12.6,60.6c-3.3,23.8-4.2,47.9,5.9,70.9c2.2,5,4.3,10.1,6.5,15.5
		c-5.4,3.5-13,2.3-19.7,2.1c-12.3-0.3-24.7-3.4-37-4.1c-12.8-0.6-26.1-2.8-38.2,4.1C2995.5-375.4,2994.7-375.9,2992.8-376.6z"/>
	<path d="M2742.2-1138.8c2.6-1.3,5.3-2.7,7.9-4c8.1-4.1,16.5-7.6,24.4-12.1c9.2-5.2,16-12.6,18.8-23.5c1.1-4.4,3.8-8.3,6.5-13.7
		c1.9,2.6,3.1,3.9,3.9,5.3c3.2,6.1,6.6,12.1,9.5,18.4c6.6,14.1,8.7,28.7,3.1,43.7c-0.8,2.2-2.2,5-4.1,5.9
		c-7.3,3.6-14.8,6.7-22.4,9.8c-4.5,1.8-7.8,0.2-10-4.1c-5.3-10.4-15.4-15-25.4-19.4c-3.9-1.7-8.1-2.8-12.1-4.2
		C2742.2-1137.4,2742.2-1138.1,2742.2-1138.8z"/>
	<path d="M3051-176c-5.7-14.7-8.1-28.7-11.6-42.4c-3.6-13.9-7.4-27.7-11.3-42.7c-4.5-1.3-9.3-2.4-13.9-4.1c-2.1-0.8-5.1-2.2-5.7-4
		c-4.3-12.8-6.9-25.8-3.6-39.5c3.4,10.3,4.7,21.1,6.1,32.8c10.9,1.3,21.6,3.1,32.5,3.9c16.7,1,33.4,2.3,50.3,1.1
		c6.6-0.5,13.6,3.5,21.4,5.7c-1.9,2.2-3.1,3.9-4.6,5.1c-20.2,15.1-20.2,15.1-45.6,12c-3.4-0.4-6.8-1.2-10.2-1.5
		c-5.7-0.5-7.4,0.7-7.4,6.5c-0.2,11.5-0.7,23.1,0,34.5c0.5,7.4,3.2,14.5,4.7,21.8C3052.3-183.8,3055.3-181.1,3051-176z"/>
	<path d="M2697.3-1069.8c-3.9-0.4-7.9-0.3-11.6-1.4c-27.7-8-55.3-16.1-82.9-24.3c-3-0.9-6.1-1.7-9-2.6c-6.6-2.1-6.9-2.6-6.4-9.2
		c0.4-5.3,0.5-10.6,0.7-15.8c0.2-4.7,2.6-6.7,7.3-5.8c2.4,0.4,4.8,1.3,7.2,2.2c27.5,10.4,54.3,22.1,78.2,39.7
		c6.2,4.5,11.8,9.8,17.7,14.7C2698.1-1071.6,2697.8-1070.7,2697.3-1069.8z"/>
	<path d="M2273.5-739.9c9.3-0.4,16.6-0.9,23.9-1c7.7-0.2,14.6-2.3,20.7-7.2c5.7-4.4,6-5.7,2.4-11.5c-2.8-4.5-5.9-8.7-9.5-14
		c3.6-0.5,5.9,0.4,8.6,2.2c15.4,11.1,32.6,18.3,50.2,25c12.7,4.8,25.4,9.6,39.1,14.8c-6.6,4.9-13.9,3.3-20.2,3.7
		C2357.3-725.8,2286.7-733,2273.5-739.9z"/>
	<path d="M2930.7-1179.1c-4.7,8.6-13.5,9.7-21.3,12.4c-3.5,1.2-7.3,1.5-10.9,2.3c-10.5,2.5-16.9-1-19.7-11.1
		c-1.3-4.5-2.4-9.1-2.6-13.8c-0.2-2.5,0.9-5.5,2.4-7.5c8.7-11.1,28.8-13.1,39.6-10.4c1.3,0.4,2.7,1.8,3.1,3
		C2924.5-1195.8,2927.6-1187.5,2930.7-1179.1z"/>
	<path d="M3129.7-319.2c-1.8-14.6-2.1-27.8,1.2-40.8c1.6-6.8,10.2-11.4,19-10.5c8.9,0.9,18.2,0.3,25.7,6.9c2,1.7,5,2,8.4,3.3
		c-4.2,6.8-9.1,11.5-16.3,13.6c-4.5,1.3-9.1,2.3-13.5,3.7c-9.4,3-16.6,8.5-19.6,18.4c-0.3,1.2-1.1,2.2-1.8,3.3
		C3132.3-321,3131.6-320.7,3129.7-319.2z"/>
	<path d="M2740-1058.6c10.1-19.3,91-55.4,107.1-49.4c-4.3,2.5-7.9,4.9-11.7,6.7c-14.3,6.4-28.8,12.1-42.9,18.8
		c-10.7,5.1-20.6,11.6-28.6,20.8C2756-1052.8,2752.1-1052.3,2740-1058.6z"/>
	<path d="M2801.2-963.1c-5.6,10.9-13.2,17.6-22.4,22.3c-15.9,8-33.2,12.4-50.5,16c-4.7,1-10.2-1.4-16-2.4c6.5-8.4,12.4-15.9,18.6-24
		c6.1,1.7,13.5,3.5,20.7,6c4.7,1.7,8.6,2.3,13.4,0.2c4.8-2.1,10.5-2.4,15.1-4.8C2787-953.2,2793.2-957.9,2801.2-963.1z"/>
	<path d="M3159.6-282.1c-14.8,7.6-27.6,4.4-39.9-0.9c-1.9-0.8-3.4-4.4-3.9-6.9c-2.1-12.9-4-25.9-5.3-38.9c-1-9-1-18-1.4-27.1
		c-0.1-1.9,0.8-3.9,3-5.9c1.1,5.3,2.3,10.6,3.4,16c1.5,8,2.6,16.1,4.3,23.9c4.3,18.9,15.5,31.5,34.3,37.2
		C3155.5-284.2,3156.9-283.4,3159.6-282.1z"/>
	<path d="M2909.3-1229.9c2-0.6,4.1-1.7,6.1-1.8c7.7-0.3,14.4-3.5,20.9-7.4c8.2-4.9,12.6-2.9,12.7,6.6c0.3,14.1,1.6,27.9,6.4,41.3
		c0.9,2.5,0.7,2.6-2.5,8.5c-3.6-6.1-7-11.5-10.1-17.1c-5.3-9.7-11.9-18.3-22-23.3c-3.8-1.9-7.7-3.4-11.6-5.1
		C2909.3-1228.6,2909.3-1229.2,2909.3-1229.9z"/>
	<path d="M2778.5,71c-0.5-1.6-1.5-3.3-1.4-4.8c1.2-11.8,2.3-23.6,4-35.3c3.1-21.7,8.1-43,14.7-63.9c2.3-7.3,5.7-13.7,12-20.7
		c0.2,2.9,0.5,4.2,0.1,5.4c-5.8,21.1-11.9,42.1-17.5,63.3c-1.4,5.4-2,11.3-1.3,16.7c0.9,5.9-0.6,11.1-2.2,16.5
		c-2.2,7.7-4.4,15.3-6.6,23C2779.7,71.1,2779.1,71.1,2778.5,71z"/>
	<path d="M2934.9-1249.4c-8.1,3.8-15.7,7.2-23.3,10.5c-0.6,0.2-1.5-0.8-1.7-0.9c1.8-11.6,4.3-22.9,5.2-34.2
		c0.9-11.1,0.4-22.3,1.5-33.7c2.9,9.5,6.3,19,8.4,28.7C2927.2-1269,2935.7-1261.3,2934.9-1249.4z"/>
	<path d="M3016.3-934.8c-19.4,29.8-41.6,57.3-68.7,82.8C2951.2-867.1,2999.8-925.8,3016.3-934.8z"/>
	<path d="M2109.6-924.5c-3.2,0.9-6.3,2.2-9.5,2.6c-17.7,2.2-35.4,1.4-52.9-2.3c-6.4-1.3-7.4-2.6-6.2-8.9c1.3-6.6,2.8-13.1,4.7-21.3
		c3.5,6.8,2,12.3,2.3,18.4c6.2,1.8,12.3,4.3,18.6,5.1c12,1.5,24.2,2,36.3,3c2.2,0.1,4.4,1.1,6.6,1.8
		C2109.5-925.6,2109.6-925.1,2109.6-924.5z"/>
	<path d="M2732.8,448.1c-2.3,4.7-4.9,9.3-6.9,14.1c-3.4,8-6.4,16.2-9.5,24.3c-3.3,8.8-2.3,17.1,2.5,25.1c0.7,1.2,1.1,2.6,1.9,4.4
		c-7.2,2.3-16-2.2-20.2,6.8c-3.8-1.8-7.1-3.2-10.9-5c2.5-4.5,6.5-5.4,10.4-6.1c6-1.2,9-4.9,10.2-10.7c2.2-10.9,7.1-21.2,6.1-32.9
		c-0.4-5,1.7-10.5,3.5-15.4C2722.2,445.9,2725.7,444.9,2732.8,448.1z"/>
	<path d="M2079.6,185.7c1.7-6.7,4.2-11.1,9.8-14.1c3.9,6.4,6.5,13.4,11.3,18.4c8.7,9,7.1,18.8,5,29.1c-0.6,2.7-0.9,5.5-1.6,9.7
		c-1-3.3-2.4-5.4-2.2-7.4c1.6-15-4.9-26.4-15.5-36.7C2084.7,185.1,2082.7,185.4,2079.6,185.7z"/>
	<path d="M2866.3-389.7c-6.3,0-11.8,0.3-17.3-0.1c-1.8-0.1-4.7-1.7-5.1-3.2c-2.5-8.9-4.7-18-6.7-27c-0.2-0.9,1-2.2,2.5-5.3
		c2.2,6.8,4.6,11.8,5.2,16.9c1,8.9,6.4,11.2,14.9,11.6c1.4-5,2.8-9.9,4.2-14.8c0.7,0.1,1.4,0.1,2.1,0.2
		C2868.9-404.1,2865-396.8,2866.3-389.7z"/>
	<path d="M2763.3-447.4c1.1,1.5,2,2.1,2.2,2.9c1.8,8.1,7.4,9.9,14.7,9.8c6.5-0.2,13.1,0.1,19.6-0.3c6.5-0.4,12.9-1.3,19.9-2.1
		c0.2,4.3-2.1,6.6-5.7,6.8c-12.4,0.5-24.8,0.9-37.1,0.6c-7-0.1-13.2-6.1-14.4-12.6C2762.4-443.8,2763-445.2,2763.3-447.4z"/>
	<path d="M2888.2-1076.4c-4.5-4.5-8.9-9.1-13.4-13.6c-0.3-0.3-1.2,0.1-3.3,0.1c2.6,5.2,5.1,9.9,7.6,14.9
		c-4.8-0.2-10.3-4.9-21.1-18.1c5.9,0.5,11.2,2.1,15.9-1.7c0.7-0.6,3.3,0.2,4.4,1c5.8,4.2,9.7,9.7,11.9,16.2
		C2889.7-1077.3,2888.9-1076.8,2888.2-1076.4z"/>
	<path d="M2679.2-450.4c4.9,1.4,8.7,8.3,7.2,13.1c-1.1,3.5-7.4,5.7-12.1,4.2c-4.2-1.4-6.9-6.9-5.8-11.2
		C2669.8-449.2,2674.3-451.8,2679.2-450.4z"/>
	<path d="M2908.5-1111.7c5.2-1.9,9,0.3,12.5,2.7c5.7,3.9,10.6,8.7,16.4,12c9.2,5.3,13.3,13.4,16,24.6c-2.4-1.7-4.3-2.2-4.7-3.3
		c-5.5-14.1-17.6-21.1-29.4-28.5C2915.8-1106.4,2912.4-1109,2908.5-1111.7z"/>
	<path d="M2913.9-1086.7c-1.6-2.8-3-5.6-4.6-8.3c-1.6-2.8-3.8-4.6-7.5-3.4c0.5,5.6,9.9,8.5,3.8,15.9c-4.9-6.4-9.5-12.4-14.1-18.4
		c11.5-8.3,18.8-4.3,24.3,12.9C2915.2-1087.5,2914.5-1087.1,2913.9-1086.7z"/>
	<path d="M2683.8-417.7c5.6,1.8,8.6,14.1,4.3,18.2c-0.8,0.8-2.1,1.5-3.2,1.5c-4.5,0-11.3-10.1-10.1-14.7
		C2676.1-418,2678.7-419.4,2683.8-417.7z"/>
	<path d="M2568.6-252.7c-2.9-19.6-7.8-39.1-5-59.3c0.8-0.1,1.7-0.2,2.5-0.3c0.4,5.3,1.2,10.5,1.3,15.8c0.1,11.6,0.5,23.1,4,34.3
		c0.9,2.8-0.2,6.3-0.3,9.4C2570.3-252.8,2569.5-252.8,2568.6-252.7z"/>
	<path d="M2210.1,401.9c-12.7,0.4-16.3-11.2-24.8-16.1C2198,382.8,2207.4,388.6,2210.1,401.9z"/>
	<path d="M2582.9-1170.3c-1.4,8.3-5.1,15.5-11.5,23.1c-2.9-4.5-5.3-8.2-7.9-12.1c6.1-4.4,11.9-8.4,17.8-12.5
		C2581.7-1171.4,2582.3-1170.9,2582.9-1170.3z"/>
	<path d="M2103.3-957.8c-15.6,2-29.8-3.4-44.1-8.7C2074.6-967.7,2088.8-962.5,2103.3-957.8z"/>
	<path d="M3002.3-1079.7c-4.4,8.4-7.9,16-16.2,19.7C2982.8-1071.7,2987.7-1078.7,3002.3-1079.7z"/>
	<path d="M2937.7-1179.5c4.2,9.6,3.5,15.1-4,31.8C2931.6-1158.9,2934.2-1169.3,2937.7-1179.5z"/>
	<path d="M2887.3-1127.7c-1.2-3-2.4-5.9-4.6-11c7.3,4.3,12.6,8,18.3,10.8c5.7,2.9,11.9,5,17.3,9
		C2908.3-1121.8,2898.2-1124.6,2887.3-1127.7z"/>
	<path d="M2534.6-777.8c0.4-2.1,0.6-3.8,1.2-5.4c3.9-12.4,6-13.1,18.6-6.5C2547.8-785.8,2541.5-781.9,2534.6-777.8z"/>
	<path d="M2790.6-1058.3c1.8-0.4,4.3-1.7,4.9-1.1c6.4,6.3,15,10.7,19.2,19.6c-3.7,0.4-3.9,0.5-13.2-7.4
		C2797.7-1050.4,2791.8-1051.8,2790.6-1058.3z"/>
	<path d="M2854.2-1063.1c-5.8-6.8-11.5-13.8-17.7-21.2c10.2-0.2,16,6.1,19.3,19.9C2855.3-1064,2854.7-1063.6,2854.2-1063.1z"/>
	<path d="M2567.8-768.6c1.5-4.3,2.9-8.5,4.6-13.4c4.3,1.2,7.9,2.2,13.6,3.9c-6.3,4.3-11.3,7.6-16.2,10.9
		C2569.2-767.7,2568.5-768.2,2567.8-768.6z"/>
	<path d="M2483.5-815.6c-6.9,2.7-12.6,4.9-19.8,7.8c1.8-4.9,3.1-8.3,4.3-12.1C2473.6-819.9,2478-819.1,2483.5-815.6z"/>
	<path d="M2867.1-1068.4c-5.9-6.2-11.5-12.1-18.1-18.9c2.1-0.6,4.4-1.9,5.5-1.3c6.7,4.1,11.9,9.5,14.2,17.2
		C2868.7-1070.7,2867.9-1069.8,2867.1-1068.4z"/>
	<path d="M2809.1-1065.7c6.4,4,10.2,10.5,14.4,16.6c0.6,1-0.5,3-1.2,6.8c-6-8.2-10.8-14.7-15.5-21.1
		C2807.5-1064.1,2808.3-1065,2809.1-1065.7z"/>
	<path d="M2607.7-769.7c3.5,1.3,6.2,2.3,9.5,3.4c-2.7,7-9.3,8-13.9,11.9C2604.7-759.3,2606.1-764.1,2607.7-769.7z"/>
	<path d="M2815.5-1071.8c10.8,1.4,14.2,10.9,19.3,18.6C2825.3-1055.9,2822.3-1065.8,2815.5-1071.8z"/>
	<path d="M2844.3-1057.5c-6.3-5.7-11.9-11.9-15.9-20.6c6.9-0.6,7.9,5.3,10.9,8c3.2,3,4.9,7.4,7.4,11.1
		C2845.9-1058.5,2845-1058,2844.3-1057.5z"/>
	<path d="M2503.3-805.3c4.5,0.4,8.6,0.7,12.7,1c0.1,0.6,0.3,1.2,0.5,1.8c-5.5,3.3-11,6.6-17,10.1
		C2500.8-796.6,2501.9-800.6,2503.3-805.3z"/>
	<path d="M2446.3-828.4c-5.1,2-10,3.9-15.5,6c-1.6-2.8,0-7.6,2.9-9.1c3.2-1.6,8-0.2,12.1-0.1C2445.8-830.3,2446-829.3,2446.3-828.4z
		"/>
	<path d="M2735.7-1140.1c-10.8-1.5-21.9-2.2-31.2-8.9C2714.9-1146.1,2725.3-1143.1,2735.7-1140.1z"/>
	<path d="M2893.8-1083.9c-4.4-4.9-8.9-9.8-13-14.5C2892.1-1096.6,2893.2-1095.6,2893.8-1083.9z"/>
	<path d="M2410-841.6c-5.1,2.5-8.5,4.2-12.2,6C2396.9-845.7,2398.7-846.8,2410-841.6z"/>
	<path d="M2946.4-295.5c-5.2-6.5-7.3-11.4-3.3-18.7C2946.5-308.2,2944.2-302.5,2946.4-295.5z"/>
	<path d="M2563.2-347.8c1,3.5,3.6,7.2-1.6,10.9C2560.4-341.3,2559.5-344.7,2563.2-347.8z"/>
	<path d="M2561.6-320.9c0.5-3.2,1-6.3,1.7-10.3c4.2,5.8,4.2,5.8,0.2,10.9C2562.9-320.5,2562.3-320.7,2561.6-320.9z"/>
	<path d="M2361.8-849.2c-0.9-2.1-2-3.9-1.6-4.6c0.8-1.1,2.5-2.1,4-2.3c0.6-0.1,2.4,2.5,2.1,3
		C2365.4-851.7,2363.8-850.8,2361.8-849.2z"/>
	<path d="M2292.8-884.1c-2,3.3-4.1,4.7-7.1,2.9c-0.5-0.3-0.9-1.9-0.6-2.5C2287-887,2289.5-886.2,2292.8-884.1z"/>
	<path d="M2257.5-896.9c-1.1,3.7-3.1,4.9-6.1,3c-0.7-0.4-1-2.5-0.6-3.1C2253.1-900.4,2255.3-898.7,2257.5-896.9z"/>
	<path d="M2328.2-867.6c-2.1,0.1-4.2,0.2-6.2,0.2c-0.1,0-0.4-1.6-0.3-1.7c1.9-0.7,3.9-1.4,5.9-2
		C2327.7-870,2327.9-868.7,2328.2-867.6z"/>
	<path d="M2897.1-1122.4c1.7,0.9,3.3,1.6,5.1,2.5c-0.3,0.6-0.5,1.2-0.9,1.8c-1.7-0.8-3.3-1.6-5.1-2.4
		C2896.5-1121.2,2896.8-1121.9,2897.1-1122.4z"/>
</g>
</svg>
