<?xml version="1.0" encoding="utf-8"?>
<!-- Generator: Adobe Illustrator 19.0.1, SVG Export Plug-In . SVG Version: 6.00 Build 0)  -->
<svg version="1.1" id="Layer_1" xmlns="http://www.w3.org/2000/svg" xmlns:xlink="http://www.w3.org/1999/xlink" x="0px" y="0px"
	 viewBox="0 0 928.2 1474.8" style="enable-background:new 0 0 928.2 1474.8;" xml:space="preserve">
<style type="text/css">
	.st0{fill:#FFFFFF;}
</style>
<g>
	<path class="st0" d="M197.3,375c8.3-22.3,13.5-43.2,9.9-65.7c-2.5,2.1-4.9,4.1-8.2,6.8c0,8.5,0,18.4,0,28.3
		C199,354.1,193,363.4,197.3,375z"/>
	<path class="st0" d="M367,1320.3c2.2-1.4,3.9-2.5,6.9-4.3c-7.6-9.6-10-21.5-18.7-29.7c-5,5.1-5.1,5.1-2.9,9.5
		c3.1,6.2,6.2,12.5,9.6,18.5C363.1,1316.5,365.2,1318.2,367,1320.3z"/>
	<path class="st0" d="M285.6,880.2c-4.2,6.3-8.3,12.4-12.6,18.8c3,1.6,5.5,3,7.9,4.2C291.8,894.1,292.5,890.6,285.6,880.2z"/>
	<path class="st0" d="M333.1,1322.5c0.1,0,0.1,0,0.2-0.1c0-0.1,0.1-0.1,0.1-0.2L333.1,1322.5z"/>
	<path class="st0" d="M345.2,1322.9c0-14-4-30.3-8.9-34.7c-0.1,2-0.2,3.5-0.3,5c0,0-0.1-0.2-0.1-0.2c0,0,0,0,0,0c0,0,0,0,0,0
		c0,0-0.1,0-0.1,0c0,0,0.1,0.1,0.1,0.1c2,8.2,4,16.3,6.1,25.1c-3.2,1.5-6,2.8-8.9,4.1c-0.7,1.7-1.5,3.3-2.2,5
		c1.1,0.4,2.2,0.8,3.3,1.2C335.9,1322.9,341.4,1324.1,345.2,1322.9z"/>
	<path class="st0" d="M292.1,1301c9.3-2.3,14.9-9,22-12.8c-1.9-4.3-3.5-7.7-6-13.4c0,6.1,0,9.9,0,14
		C301.5,1291.1,293.8,1291.4,292.1,1301z"/>
	<path class="st0" d="M267,1163.4c-0.4-0.6-0.8-1.2-1.1-1.8c-2.5,0.3-5,0.7-8.4,1.1c1.9,2.8,3.1,4.5,4.9,7
		C264.2,1167.2,265.6,1165.3,267,1163.4z"/>
	<path class="st0" d="M244.9,374.5c-0.2-1.2-2.6-2-5.1-3.8c0,3.8,0,6.2,0,8.5C244,379.6,245.5,377.5,244.9,374.5z"/>
	<path class="st0" d="M300.6,1239.9c-1-5.4-1.7-9.5-2.8-15.5C294,1231.4,297.1,1235,300.6,1239.9z"/>
	<path class="st0" d="M204.1,380.9c5.3-7,5.3-7-0.6-12.2C203.7,373.2,203.9,376.4,204.1,380.9z"/>
	<path class="st0" d="M326.7,1263.3c-3.9,3.4-6.6,5.8-9.2,8.1C324,1270.5,324,1270.5,326.7,1263.3z"/>
	<path class="st0" d="M297,1341.7c0.3-4.3,0.6-8.6,1-14.3C292,1333.1,294.9,1337.4,297,1341.7z"/>
	<path class="st0" d="M344.4,1227.9c-3.3,0.7-6.5,1.3-9.8,2c0.1,0.6,0.2,1.2,0.3,1.8c3.3-0.6,6.5-1.2,9.8-1.8
		C344.7,1229.3,344.5,1228.6,344.4,1227.9z"/>
	<path class="st0" d="M333.1,1322.5c0,0,0.2-0.2,0.2-0.2c-0.3-0.5-0.5-0.9-0.8-1.4C332.7,1321.4,332.9,1321.9,333.1,1322.5z"/>
	<path class="st0" d="M326.3,1309.4c2.1,3.8,4.2,7.6,6.2,11.4C331.4,1316.6,331,1311.9,326.3,1309.4z"/>
	<path class="st0" d="M297.2,1342.1c-0.1-0.1-0.1-0.3-0.2-0.4c0,0.2,0,0.5,0,0.7c0.1,0,0.2-0.1,0.3-0.1
		C297.2,1342.2,297.2,1342.2,297.2,1342.1C297.2,1342.1,297.2,1342.1,297.2,1342.1z"/>
	<path class="st0" d="M297.2,1342.3c0.4,3.3,0.9,6.7,1.3,10c0.7-2.2,1.5-4.4,1.9-6.7C301.1,1343,300.2,1341.4,297.2,1342.3z"/>
	<path class="st0" d="M298.8,1352.9c0-0.1-0.1-0.2-0.1-0.3c0,0-0.2,0.2-0.2,0.2l0.2-0.2c0-0.1,0-0.2,0-0.4c-0.1,0.2-0.1,0.4-0.2,0.6
		C298.5,1352.9,298.6,1352.9,298.8,1352.9z"/>
	<path class="st0" d="M298.8,1352.9c0.9,1.7,1.8,3.5,3.1,6C303.3,1353.1,303.3,1352.9,298.8,1352.9z"/>
	<path class="st0" d="M209.8,463c4-0.1,7.9-0.2,11.9-0.4c-0.1-0.7-0.2-1.5-0.2-2.2C217.5,461.3,213.6,462.2,209.8,463
		c0,0,0-0.1,0-0.1C209.7,462.9,209.7,463,209.8,463C209.7,463,209.7,463,209.8,463z"/>
	<path class="st0" d="M50.6,598c-2.1,0.1-4.1,0.2-6.2,0.3c0.2,1,0.3,2,0.5,3c2-0.7,4-1.4,5.9-2C50.8,598.8,50.7,598.4,50.6,598z"/>
	<path class="st0" d="M325.7,1295.7c2.3-8,2.2-8.7-1.8-13.4C324.5,1286.8,325.1,1291.2,325.7,1295.7L325.7,1295.7
		c0.3,0,0.7-0.2,1-0.3C326.4,1295.4,326.1,1295.5,325.7,1295.7C325.7,1295.6,325.7,1295.6,325.7,1295.7z"/>
	<path class="st0" d="M326.7,1295.3c3.1-0.8,6.2-1.5,9.2-2.3C331.8,1289.6,329.6,1293.8,326.7,1295.3z"/>
	<path class="st0" d="M327.1,1300.1c-0.7,0-1.3,0-2,0c0.4,3.1,0.8,6.1,1.2,9.2l0,0.1c0,0,0.1,0,0.1,0c0,0,0-0.1-0.1-0.1
		C326.5,1306.2,326.8,1303.2,327.1,1300.1z"/>
	<path class="st0" d="M200.5,963.1C200.5,963.1,200.5,963.1,200.5,963.1C200.6,963.1,200.5,963.1,200.5,963.1z"/>
	<path class="st0" d="M200.4,963.1C200.4,963.1,200.5,963.1,200.4,963.1C200.4,963.1,200.4,963.1,200.4,963.1
		C200.4,963.1,200.4,963.1,200.4,963.1z"/>
	<path class="st0" d="M192.3,963.1c2.7,0,5.4,0,8.1,0c-2.7-0.4-5.4-0.9-8-1.3C192.3,962.2,192.3,962.6,192.3,963.1z"/>
	<path class="st0" d="M638.2,1159.9c-6.2,7.6-13.1,13.7-21.8,18.1c-1.3,0.7-2.2,1.9-5.2,4.7c15.1,1.7,27.8,3,41.9-0.2
		c-3.8-8-7.1-15-10-21.2c3.9-4.1,6.8-7.3,9.7-10.4C647.6,1153.6,641.6,1155.7,638.2,1159.9z"/>
	<path class="st0" d="M384,485.9c0.3,0,0.5,0,0.8,0c0-3.6,0-7.2,0-10.9c-0.3,0-0.5,0-0.8,0C384,478.7,384,482.3,384,485.9z"/>
	<path class="st0" d="M555.7,478.9c-1.5,0-2.9,0-6.5,0c3.5,0.9,4.9,1.3,6.3,1.7C555.6,480,555.7,479.4,555.7,478.9z"/>
	<path class="st0" d="M432.7,180.7c1.7-0.3,3.5-1.6,4.7-2.9c4.2-4.2-0.4-8.4,0.3-12.6c-10.3-0.5-14.6,1.5-14.7,6.6
		C423,176.4,428.2,181.6,432.7,180.7z"/>
	<path class="st0" d="M476.5,177.1c-0.8-2-1.4-3.8-2.3-6.2c-4.8,3.1-10.9,2.6-14.2,9.3c4.4,0,7.5,0,10.7,0l-0.3,0.2
		c0.1,0,0.1,0,0.2,0c0-0.1,0.1-0.1,0.1-0.2C472.5,179.2,474.4,178.2,476.5,177.1z"/>
	<path class="st0" d="M460.5,169.1c5.1-1.3,8.9-2.4,13.9-3.7C464.9,163,464.9,163,460.5,169.1z"/>
	<path class="st0" d="M415.5,156.4c-1.2,1.2-1.3,3.4-2,5.1c0.5,0.3,1,0.7,1.6,1c2.4-1.4,4.7-2.7,7.6-4.4
		C420,154,417.5,154.4,415.5,156.4z"/>
	<path class="st0" d="M469.6,157.8c-0.2-0.5-0.3-1.1-0.5-1.6c-1.8,0.5-3.7,1-5.5,1.6c0.2,0.5,0.3,1.1,0.5,1.6
		C466,158.9,467.8,158.3,469.6,157.8z"/>
	<path class="st0" d="M406.6,170.2c-0.3,0.6,0,1.6,0.2,3.4c1.1-1.4,1.7-1.9,2-2.7c0.2-0.5-0.1-1.1-0.2-1.7
		C407.9,169.5,406.9,169.6,406.6,170.2z"/>
	<path class="st0" d="M253.3,990.2c-1.2-0.4-3.4,2.9-5.6,4.9c1.7,0.6,2.3,0.9,2.9,1c6,1,7.9,3.1,6.6,8c-1.2,4.2-3.2,7.3-8.5,4.4
		c-3.1-1.7-5.4,0.3-7.6,3.4c3.5,3.3,6.8,6.4,9.9,9.4c10.9-5.9,15.4-17.3,10.1-25.7C259.4,993.1,256.2,991.1,253.3,990.2z"/>
	<path class="st0" d="M250.3,963c-1.9-1.1-3.7-2.2-5.6-3.3c-0.5,0.8-0.9,1.6-1.4,2.3c2,1,4,1.9,6,2.9
		C249.6,964.2,249.9,963.6,250.3,963z"/>
	<path class="st0" d="M524.8,559.4c0,0,0.1-0.1,0.1-0.1c0,0,0,0,0-0.1c0-0.1,0-0.2-0.1-0.3c0,0,0,0,0,0
		C524.8,559.1,524.8,559.3,524.8,559.4z"/>
	<path class="st0" d="M524.8,559.4c-2.8,2.4-5.6,4.8-9.7,8.3C520.9,565.9,524.6,564.4,524.8,559.4z"/>
	<path class="st0" d="M496.1,545.2c0.6,1.3,1.1,2.7,1.7,4c0.7-0.2,1.4-0.4,2.1-0.6c-0.1-1.3-0.2-2.7-0.3-4
		C498.5,544.8,497.3,545,496.1,545.2z"/>
	<path class="st0" d="M421.8,670.6c-0.3,0.6,0.6,1.7,1.6,4.3c1.7-4.8,2.5-7,3.3-9.2c-0.6-0.3-1.1-0.6-1.7-0.9
		C424,666.7,422.7,668.6,421.8,670.6z"/>
	<path class="st0" d="M309.9,489.2c-0.5-0.4-0.9-0.8-1.4-1.2c-0.4,0.4-1.2,0.7-1.3,1.1c-0.1,0.5,0.5,1,0.8,1.5
		C308.7,490.1,309.3,489.6,309.9,489.2z"/>
	<path class="st0" d="M318.7,1416.3c0.2,1.1,0.4,2.3,0.7,3.4c0.4,0,0.8,0,1.2,0c-0.2-1.2-0.4-2.4-0.6-3.7
		C319.5,1416.1,319.1,1416.2,318.7,1416.3z"/>
	<path class="st0" d="M408.5,93c1.3,0.4,2.7,0.7,4,1.1c0.2-0.5,0.3-1.1,0.5-1.6c-1.3-0.4-2.5-0.9-3.8-1.1
		C409,91.3,408.7,92.4,408.5,93z"/>
	<path class="st0" d="M330.9,1327.5C331,1327.5,331,1327.6,330.9,1327.5c0.1,0,0.1,0,0.1-0.1c-0.1,0-0.2-0.1-0.3-0.1c0,0,0,0,0,0
		c0,0.1,0.1,0.3,0.1,0.4C330.9,1327.6,330.9,1327.6,330.9,1327.5C331,1327.6,331,1327.5,330.9,1327.5z"/>
	<path class="st0" d="M449.3,644c-0.1-0.1-0.2-0.2-0.2-0.2c0.1,0.1,0.1,0.2,0.2,0.3c0,0,0.1,0,0.1,0c0,0,0,0,0-0.1
		c-0.1-0.1-0.2-0.2-0.3-0.3L449.3,644z"/>
	<path class="st0" d="M221.7,637.3C221.7,637.3,221.7,637.3,221.7,637.3C220.8,637.3,221.2,637.3,221.7,637.3z"/>
	<path class="st0" d="M919.8,419.9c-6.2,0-12.5-0.8-18.6,0.2c-6.2,1-12,3.7-18.6,5.8c-12.4-11.7-25-23.5-38-35.6
		c0-0.1-0.5-0.8-0.3-1.3c2.6-7.8-0.1-13.3-6.8-17.7c-11.3-7.6-22.3-15.8-33.4-23.6c-4.3-3.1-8.8-6-13.1-8.9
		c2.3-12.9-1.7-22.4-12.9-28.8c-7.5-4.3-14.3-10-21.9-14c-10.7-5.6-18.2-14.2-25.3-23.6c-9.9-13-19.9-26-31.1-37.7
		c-6.3-6.6-15.2-10.6-22.9-15.8c-6.7-4.4-13.7-8.4-21.8-9.3c-5.2-0.6-7.5-3.6-8.8-8.1c-2.6-9-5.7-17.8-7.9-26.8
		c-2-8.2-6.3-14.4-13.2-19.3c-2.6-1.8-4.9-4.5-6.2-7.4c-1.8-4.2-3.4-7.6-8.5-8.8c-1.8-0.4-3.2-3.1-4.3-5c-1.2-2-1.3-4.7-2.6-6.4
		c-1.5-1.9-3.9-3.1-5.9-4.6c-1.3,2-2.5,4-3.9,6.2c-2.5-0.9-5.3-2.5-8.4-2.9c-1.2-0.2-2.8,2.2-4.7,3.9c2.7,2.4,4.9,4.4,7,6.3
		c-3.1,3.4,1.2,10.3-5.9,11.9c-3.8-3.4-7.9-7.2-11.8-10.6c-17.2,2.7-33.7,0.7-50.2-0.8c-4.3-0.4-5.6-3.1-5.9-6.7
		c-0.6-7-1.3-13.9-1.7-20.9c-0.2-4.6-1.1-8.3-5.8-10.6c-2-1-3.6-3.7-4.6-6c-2.6-6.3-4.8-12.8-7.3-19.1
		c-10.2-14.4-13.8-45.2-13.8-45.2s-24.4-42-106.3-24.6c-63.5,13.6-81.1,36.4-85.8,45.9c3.6,1.5,6.2,0.2,8.5-2.9
		c0.8-1.1,2.1-1.9,2.6-3c4-9.9,12.5-12.5,21.8-14.9c6.3-1.6,11.9-5.5,18-8c12.5-5,25.5-8.4,38.7-4c6.7,2.2,12.4,7.4,18.7,11
		c1.4,0.8,3.3,0.9,5.9,1.5c3.6,10.9,2.4,22.2-3.6,34.6c-3-8.3-1.3-16.4-5.3-22.7c-9.6,1.6-9.6,1.6-10.7,9.1c-1.3,9.2-1.3,9.2,6,12.7
		c-5.4,3.2-11.3,5.3-15.2,9.2c-3.4,3.4-4.7,9-6.9,13.6c-6.1,7-6.2,9.9,0.4,19.7c-2.6-0.6-4.3-1-6.3-1.5c-6.1,9-13.8,15.9-25.8,15.7
		c-1.4-8.5-2.5-16.1-4.1-23.5c-0.5-2.2-2.6-5.3-4.4-5.6c-3.7-0.6-5.1,3.1-5,6c0.3,8.6,1.2,17.2,1.6,25.9c0.2,3.7-0.4,7.4-0.7,11.9h9
		c-11.2,7.7-14.5,7.6-22.7-0.2c-3.1-3-6.3-5.8-9.6-8.8c-10.1,5.2-14.1,13.8-15.5,23.6c-1.6,10.5-2.1,21.2-3,31.8
		c-0.2,2.6-0.3,5.5,0.6,7.9c1.9,4.7,0.3,8.4-2.4,12c-8.6,11.6-11,25.4-13.7,39.7c3.1,1,5.7,1.9,9,2.9c-3.8,6.2-6.3,12.2-3,19.1
		c4.5,1.4,9.4,2.9,16.4,5c-5.5,4.7-9.3,8-13.7,11.7c-2.3-2.5-4.3-4.5-6.8-7.3c-4,3.5-7.6,6.7-11.7,10.4c-3.9-3.2-4.1-8.1-5.6-12.2
		c-4.2-11.1-9.1-12.3-17.6-3.8c-0.4,0.4-1.2,0.3-2.3,0.6c0.3-10.1-3.1-19.3-6.6-28.5c-1.5-4-4-6.9-8.8-4.6c-2.2,12.9,5,24.7,3,39
		c-3.4-2.7-5.4-4.3-7.2-5.7c1.3,15.8,2.9,31.7,3.8,47.6c0.5,8.6-0.1,17.3-0.1,25.9c0,8.9-0.4,17.9,0.4,26.8
		c1.2,14.1-1.5,18.6-15.4,23.2c-0.9,0.3-1.4,2.2-2.3,3.9c4.5,0,7.9,0,11.4,0c9.9-0.1,17.3-4.5,21.9-13.1c5.5-10.2,10.7-20.6,16-30.9
		c1.4-2.6,3.1-5.1,0.9-8.3c-0.8-1.1-0.1-3.2-0.2-4.8c-1-8.5-1.7-17.1-3.2-25.5c-1.8-10.1-4.3-20.1-6.4-30.2c-0.3-1.5,0-3.2,1.7-5.4
		c1.5,3.5,3.1,6.9,4.4,10.4c2.7,7.2,4.4,14.8,7.9,21.6c6.6,12.9,6.4,26,3.9,39.8c-2.9,16-5.2,32.2-7.3,48.4
		c-0.8,5.9-2.9,10.8-6.9,15.1c-5.4,5.9-10.6,12-16,17.8c-4.7,5.1-10.3,7.9-17.7,7.5c-5.9-0.4-11.9,0.7-18.6,1.2
		c1.9,5,5.9,5.1,9.6,5.5c7.9,0.9,10.3,3.2,11.1,10.9c0.3,2.6,0.3,5.2,0.5,7.8c1-4.5,2.5-7.7,8.4-7.6c4.5,0.1,9.4-1,13.5-2.9
		c5-2.3,8.8-1.2,13.4,2.3c-2.1,1.8-3.9,3.4-6.3,5.5c0.7,2.6,1.5,5.4,1.7,6.1c-2.4,7.8-4.3,13.9-6.2,20c7-7,9.8-15.9,12.8-24.8
		c1.4-4.1,2.9-8.2,4.8-12c0.6-1.1,2.9-1.3,6.2-2.7c-1.9,8.2-3.4,14.5-5,20.9c-0.5,1.9-1.1,3.8-1.6,5.8c-6.3,23.5-6.4,23.4-27.8,35.2
		c-4.6,2.6-9,3.7-14.2,2.5c-3.5-0.8-7.3-1.1-10.9-0.7c-9.2,0.9-12.8,8.8-7.8,16.7c1.2,1.9,2.8,3.7,4.5,5.3c5,4.5,4,10.3,3.3,15.8
		c-0.5,4-3.9,4.9-7.3,5.5c-13.1,2.5-26.1,5-39.2,7.5c-9.5,1.8-19,3.5-28.5,5.3c-12.5,2.4-18.8-0.8-24.6-12.5
		c-0.7-1.4-1.8-2.7-3.5-5.1c-6.2,2.9-12.3,5.6-18.9,8.6c1.4,6,2.8,12.3,4.5,19.4c-5.6,0.2-11.7-1.4-15.3,5.3
		c7.2,4.7,15-2.3,22.9,1.6c-6.4,5.5-14,4.7-20.6,6.4c0.8,3.3,2.7,6.6,1.9,8.9c-0.8,2.3-4.2,3.8-6.8,5.2c-5.5,3.1-11.1,5.3-17.9,3.6
		c-2.5-0.6-6,1.3-8.6,2.7c-3.9,2.2-7.4,4.7-11.9,1.5c-0.6-0.5-1.9-0.3-2.8-0.1c-7.3,2.1-14.6,4.3-21.7,6.4
		c-1.9,13,3.6,18.8,15.5,16.6c9.8-1.8,19.6-3.6,29.4-5.4c1.6-0.3,3.6-0.2,4.8-1c7.1-4.7,14.7-4.4,22.5-3c0.1,4.2-2.8,5.1-6.2,6
		c-3.6,0.9-8.1,0.9-9.1,5.8c-5.2,0.6-10.4,1-15.5,1.9c-9.1,1.7-13.5,8.5-11.8,17.7c1.7,8.9,5.6,11.5,14.7,10.5
		c11.5-1.2,23.2-3.2,34.7-2.3c6.7,0.5,14.1,0.5,20.8,4.6c9,5.5,19.2,5.4,29.8,2.9c14.5-3.5,29.4-5.6,44.1-8.2c1.9-0.3,3.9,0,6.1,0
		c0.8,1.1,1.9,2.1,2.1,3.3c2.1,11.5,9.5,17.5,20.1,21c8.5,2.8,16.7,6.5,25,9.9c12.3,5.1,13.9,4.4,17.6-8.1c1.4-0.2,3.1-1,4.5-0.6
		c7.8,2.2,14.2-1,20.8-4.5c4.9-2.6,8.9-5.3,10.3-11.2c1.7-7.1,8.1-7.7,13.9-9.9c4.5,6.1,2.9,10.8-2.5,15c1.2,1.8,2.2,3.4,2.7,4.2
		c-4.2,6-8.5,11.4-12,17.3c-3.4,5.6-5.9,11.7-9.1,18.2c2.4,0.3,4.2,0.5,6.1,0.7c0,0.6,0.2,1.3,0,1.9c-3,7.2-8.1,14-4.2,22.4
		c-4.6,12.6-3.3,26.8-12.4,38.2c-6.4,8-11.2,17.3-16.9,25.9c-1.9,2.9-2.1,5.4,0.8,8.4c1.1-1,2.3-1.7,2.9-2.7
		c9.5-16.7,19.2-33.4,28.3-50.4c1.7-3.2,1.3-7.7,1.1-11.6c-0.3-5.4,0-10.3,2.4-15.4c2.7-5.6,3.9-12,6-17.9
		c4-10.9,10.6-15.8,23.2-17.2c-1.2,1.8-2.3,3.3-2.8,4c3.8,5.3,7.4,10.2,11.9,16.5h-12.4c0.3,3.9,0.1,7.5,0.9,10.8
		c3.9,15.3,4,15.3-11.6,23c-3.8-4-7.8-8.1-11.8-12.3c-0.4,0.3-0.8,0.6-1.3,0.9c3.3,7.1,5.9,14.6,10,21.1c5.6,8.9,4.9,17.8,2.8,27.1
		c0,0,0,0,0.1,0c-2.3,3-4.6,6.1-7.2,9.5c-7.2-4.1-8.3-14.1-17.2-18.3c0.4,2.5,0.2,3.9,0.8,4.8c4.1,5.9,8.6,11.6,12.3,17.7
		c1.4,2.3,2.2,6.3,1.2,8.5c-5.6,11.6-10.9,23.5-19.5,34.1c-2.4-1.9-4.3-3.4-6.2-4.9c-0.8,0.5-1.4,0.7-1.8,1.1
		c-10.5,11.2-14.9,25.8-21.4,39.2c-3.3,6.9-6.5,13.9-8.7,21.2c-2.3,7.6-0.2,10.8,7.1,13.6c5.1-11.1,10.4-22.2,15.3-33.4
		c1.1-2.6,0.9-5.8,1.3-8.7c0.3-2.2,0.5-4.4,0.9-7.7c7.9,6.6,1.8,15.3,6.1,22.2c2.5-11.7,4.9-22.9,7.2-33.9c6.1,0.9,11,1.7,16.2,2.5
		c5.5-9.4,10.9-18.5,16.2-27.5c0.7,13.3-12.5,21.9-11.1,38.2c5.4-7.8,11.5-8.5,18.1-8.9c4.1-0.3,8-3,13-4.9c1.8,2.8,3.7,5.7,5.9,9
		c-3.7,5.4-7.2,10.4-11.6,16.8c-1.2-5.6-2-9-2.8-12.7c-3.7-0.8-6.9-1.7-7.4,3.6c-0.1,1.4-0.9,3-1.9,3.9c-4.3,3.9-6.5,9.5-3,13.1
		c8,8.3,9.1,17,3.1,27.1c6.7,3.8,14.9,2.8,20.1,10.7c-9.3-0.4-18.6-5-24.9,4.2c-5-1.2-7-4.6-9.3-8.5c-2-3.5-6-5.8-8.9-8.4
		c-4.6,7.7-9.1,15.4-13.7,23.2c-2.7-1.8,3-7.6-3.6-7c-1.3-3.1-2.7-6.2-4.1-9.4c9.4-3.1,11.4-9.8,5.6-19.1c-2.4,2.8-4.7,5.4-7.8,8.9
		c-0.6-3-1.1-5.3-1.7-8.2c-5.8,6.9-6.1,14.7-6.1,23.5c-2.8-0.3-5.2-0.5-8.2-0.7c-0.9,3.6,0.6,8.7-5,10.3c-1.2,0.3-2.1,2.5-2.6,4
		c-2.3,6.5-4.4,13.1-6.5,19.7c-6.8-1.9-12.7-3.6-18.9-5.3c-2.1,2.8-3.8,5.2-5.6,7.6l0.1,0c-2.7,5.2-5.5,10.4-8.6,16.5
		c8.3,2,8.4,7.4,8.4,13.9c0.1,14.6,0.8,29.2,2.5,43.7c0.8,7,4.3,13.8,6.8,20.6c1.4,3.9,3.3,7.7,5.4,12.3h-12.6
		c1.1,8.7,2,16.9,3.3,24.9c0.3,1.6,2.2,3.2,3.8,4.3c10.6,7.3,21.4,14.5,32.1,21.7c0.7,0.5,1.7,0.6,2.9,0.9
		c-0.4-5.5-0.9-10.6-1.3-15.6c-9,3.9-9.7,3.4-12.6-9.6c6.3,0.5,7.6-6.7,13.7-8.5c3.6,2,7.7,1.1,12.7-0.1c5.4-1.4,8.5-4,12.6-7.1
		c4.2-3.2,10.2-4,15.5-5.9c3.9,5.5,9.4,7.7,15.9,8.8c12.3,2.2,23,7.9,32.9,15.5c-5.9,8.6-5.9,8.5-14.6,5.8
		c-4.3-1.4-8.8-2.3-12.9-3.3c-2.8,4.9-0.1,6.4,2.4,8.2c6.2,4.3,12.4,8.6,18.8,13.1c-1.3,1.4-2.1,2.4-3.3,3.7c3,1.5,8.4-1.1,8.8,4.2
		c0.4,4.9-4.6,5-7.4,6.9c-1.8,1.2-4.1,1.8-8.2,3.5c8.7-1.3,15.1-2.2,21.5-3.1c0.3,0.6,0.6,1.3,0.9,1.9c-7.3,6.4-20,5.1-24.8,15.7
		c12.3-5.9,20.6,4.8,31.1,5c0.2,0.8,0.5,1.6,0.7,2.4c-1.7,1.6-3.1,3.7-5,4.8c-7.8,4.4-15.8,8.5-23.8,12.7c-3.9,2.1-3.9,2.1-15.7-1
		c1.9-3.8,3.8-7.5,5.8-11.3c-4.6-1.9-8.9-3.6-14.7-6c-2,0.7-5.6,2-11.3,4.1c3.8-5.5,6.3-9.1,9.9-14.3c-5.7,2.2-9.6,3.7-14.3,5.6
		c1.4,4.5,2.6,8.9,4.1,13.2c3.5,10.3,0,19.4-10.1,25.2c-0.8-2-1.5-4-2.2-5.9l-1.7,0.6c1.3,4.9,3.1,9.8,3.9,14.8
		c2.4,15.4,4.8,30.9,6.6,46.4c1.3,11.1,5.7,21,9.2,31.7c2.9-4.3,5.2-7.8,8-11.9c-1.7-0.4-3.4-0.8-5.8-1.3c-0.2-2.7-1.3-5.8-0.6-8.4
		c1.9-6.8-1-12.7-2.1-18.9c-1.2-7.2-1.8-14.5-2.2-21.8c-0.1-2,1.2-4.1,2.3-7.3c2.8,3.1,4.6,5.2,6.7,7.6c4.3-2.9,0.8-6.2,1.1-9.1
		c0.3-2.7-1.7-6.2,3.5-7.6c8.9,9.2,20.5,11.6,33.2,11.1c9.9-0.3,9.9-0.2,15.7-4.5c-2-3.4-5.1-2-7.9-2c-2.9,0.1-6.5,1-8.6-0.3
		c-8.2-5.2-16.7-5.5-26-3.7c15.6-11.9,32.9-18.9,53.2-18.4c-2.3,1.5-4.7,2.9-7,4.4c-2.1,1.4-4.1,2.9-5.6,6.2
		c5.9-0.9,11.9-1.9,18.1-2.9c1.3,3.5,2.3,6.4,3.6,9.3c2.8,6.5,2,8.2-4.8,9.5c-1.6,0.3-3.2,0.5-6,0.9c8.5,3,15.9,5.3,22.9,8.2
		c5.6,2.3,5.7,3.3,4.7,11.4c-11.6,3.9-25.4-1.8-37.1,8.5c13.1,0.4,25.3-5.2,37.5,2c-8.5,4-17.3,7.6-25.4,12.3
		c-7.9,4.6-15.1,10.5-21.8,17.1c12.8-1.8,25.7-3.7,38.3-5.5c4.9,8.8,14.4,57,13.1,66c-8.2,3.5-16.6,3.6-25,0.8
		c-7-2.4-13.8-0.8-20.7,0.4c-9.1,1.6-10.2,0.8-12.2-8.7c-0.8,0.9-1.6,1.9-3.2,3.8c-3.2-13.7-6.2-26.5-9.4-40.1
		c-4.5,7.8-8.5,14.7-18.7,13c-2.2,5.6-4.3,10.9-6.5,16.2c0.5,0.3,1,0.5,1.5,0.8c3-3.9,5.6-8.2,9.2-11.6c3.6-3.3,8.1-5.7,12.5-8.6
		c4,3.9,2.4,7-1.7,8.1c-6.3,1.7-8.1,4.6-5.6,10.7c0.7,1.6-0.4,3.9-0.6,5.9c-0.5,4.1,1.6,6.9,5.4,6.8c4.5-0.1,5.2-3.2,3.6-7.1
		c-0.2-0.5,0-1.2,0-3.6c1.8,2.3,3.3,3.4,3.5,4.6c0.6,4.7-2.3,7.3-6.2,9.2c-3.9,1.9-7.7,4-8.3,10.1c5.6-3.5,10.6-6.8,15.9-10.1
		c3.4,11,2.8,13.6-5.4,16.7c-10.9,4.2-14.9,12.1-14.7,23.2c0.5,0.5,0.9,1.1,1.5,1.3c3.6,1.5,9.7,2.2,10.4,4.5
		c1.8,6.1,1.4,12.9,1.6,19.4c0.1,2-0.8,4-1.4,6.8c-3.4-0.5-6.8-0.9-10.4-1.4c0.6,8.1,0.9,16,1.9,23.9c1.8,13.7-0.8,26.8-4.6,39.9
		h126c0.4-0.4,0.8-0.7,1.2-1.1c2-1.9,4-3.5,6.2-5.1c0.9-4.5,2.9-8.2,5.2-12.3c1.8-3.3,3.8-6.6,4.5-10.3c0.9-4.6-0.2-9.2,0-13.8
		c0.2-4.8,1.9-9,3.4-13.5c1.8-5.2,1.7-9.5,0.4-14.8c-1.5-6.5-3.1-13-1.9-19c-0.8-7.5-1.5-15-1.9-22.6c-0.1-2.3,1.1-5.2,2.7-6.9
		c6.2-6.3,7.8-13.6,6-22c-2.6-12-5.3-24.1-7.4-36.2c-1.5-8.7-2.7-17.2-10.7-20.1c-1.8-9.2-3.1-16.9-4.9-24.6
		c-3.9-16.5-8.1-33-11.9-49.5c-0.7-3.2-0.9-6.7-0.2-9.9c1.4-6.5,0.4-12.4-1.5-18.5c-3.6-11.4-7-22.9-9.8-34.6
		c-1-4.4-2.9-7.1-6.9-8.9c-8-3.8-10.3-10.5-9.7-19.7c1-0.1,2-0.3,2.9-0.4c-2.1-1.6-4.4-3.2-5.9-5.1c-1.2-1.5-2.2-3.2-3-4.9
		c-2-2.9-3.2-7.1-4.3-13.2c-1.5-8.4-4.1-16.6-6.7-26.5c1.9-2.1,4.2-2.9,6.8-3.2c0.4-1.3,1-2.6,1.6-3.9c-0.5-2.1,0.1-3.7,2.6-5.2
		c0.2-0.2,0.5-0.3,0.7-0.5c1.7-2.4,3.8-4.4,6.3-5.8c2.2-2.9,3.6-6.3,4.1-10.2c0.6-5,2.8-8.4,8.1-8.3c1.6,0,3-0.2,4.2-0.6
		c3.2-8.8,6.1-17.7,10.9-25.7c7.4-12.3,18-22.4,25.4-34.7c5.4-9,9.7-18.6,14.4-27.9c5.2-10.3,10.5-20.7,17.2-30.1
		c5.3-7.5,11.7-15.2,20.3-19c10.2-16,23.1-29.5,44.2-37.1c-0.6,4.4-1,8.5-1.5,12.4c0.9,1.1,1.3,2.6,0.8,4.3
		c-0.9,3.1-1.9,6.1-2.9,9.2c0,0,0,0,0,0c0,0,0,0,0,0c-1,3.1-2,6.3-2.9,9.5c1.9,1.6,1.4,4.8,0.1,11.8c-0.2,1-0.3,2-0.5,2.9
		c-1.3,6.6-2.5,8.9-6.1,8.2c-1.1,4.3-2.1,8.7-2.9,13.1c-3.4,17.7-2.8,35.1-1.4,52.9c1.3,17.1,2.9,34.6-0.1,51.6
		c-0.4,2.1-0.8,4.1-1.4,6.1c0.1,0.1,0.1,0.1,0.2,0.2c-0.3,0.6-0.6,1.4-0.9,2.1c-2.3,7.1-5.6,13.8-8.9,20.5c0,0.5-0.1,0.9-0.1,1.4
		c-0.4,7.9-2.1,15.8-3.4,23.7c-0.2,1.4-0.4,2.5-0.7,3.5c-0.3,3.9-1.2,7.6-2.3,11.2c2.5,12.6-1.9,24.2-2,36.4
		c-0.6,0.1-1.1,0.3-1.7,0.4c1.5,13.2,2.4,26.5,7.6,39c2.8,6.6,6.1,13,9.5,19.3c4.7,4.8,9.7,9.3,14.8,13.7c1.2,1.1,2.8,1.9,4.3,2.5
		c19.2,7.6,38.9,11.4,59.6,8.9c5.5-0.7,10.4-2.4,14.2-6.5c3.9-4.2,8.6-5.8,14-6.8c6.1-1.2,11.9-3.3,17.9-6.2
		c-6.9-0.2-13.8-0.9-20.6-0.6c-14.2,0.6-21.8-9.5-16.4-22.5c2.2-5.2,4.9-10.2,7.8-15.1c3.5-5.9,10-7.6,16.9-5.5
		c3.7,1.1,7.8,1.1,11.7,1.8c3.7,0.7,7.3,1.6,11,2.5c-0.2,0.2-0.4,0.4-0.6,0.6c0.3-0.2,0.6-0.4,1-0.5c0,0,0,0,0,0l-0.2-0.2
		c5.3-2.1,10.4-3.5,16.4-2.5c7.7,1.3,8.3,0.6,17.1-5.4c-0.1,11.7-9.7,19.2-11.2,30.1c6.7-3.3,15.2-16.1,30.7-45.1
		c7.2-0.8,13.6,0.7,17.2,8.1c3.6,7.6,12.4,11.3,14.6,19.9c0.2,0.8,1.4,1.5,2.2,1.9c10.9,3.9,21.4,9.5,33.4,9.6
		c7.7,0,15.3-0.4,23-0.2c5.1,0.1,8.9-1.7,12.2-5.4c9.4-10.3,19.1-20.4,28.4-30.9c2.3-2.6,3.3-6.3,4.6-9.6c2.6-6.5,5.8-12.8,7.3-19.6
		c3.6-16.3,5.8-32.7,1.8-49.4c-1.3-5.5-1.8-11.1-2.8-17.8c0.4-0.1,0.8-0.2,1.3-0.3c-0.3-2.2-0.5-4.5-0.8-6.7c-1.1-0.9-2-2.4-2.6-5
		c0.5-0.1,1-0.2,1.5-0.4c0-0.1,0-0.1-0.1-0.2c-0.4-1.6-1-3.2-1.6-4.8c-0.4-0.3-0.8-0.6-1.2-0.9c-1.9-1.9-2.6-5.2-3.4-8.8
		c-3.3-6-7-11.7-10.1-17.8c-5.9-11.5-9-24.6-12.4-37.1c-2.6-9.4-5-18.8-7.6-28.1c-2.4-1.7-3.9-4.5-4.4-8.7c-2-17.2-11-31-23.9-45.3
		c1.2-0.4,2.4-0.9,3.7-1.2c8.3-2,10.5-7.9,11-15.6c1.4-19.9,3.3-39.8,4.8-59.7c0.5-6.3,0.8-12.8-5-17.9c5.7-6.7,13.1-10.5,19.9-15.1
		c6-4.1,12.5-7.6,19-11.1c3.9-2.1,5.8-4.8,5.9-9.4c0.2-15.3,0.7-30.6,1.3-46c0.3-8.9-7-12.1-12.1-17.4c-17.6,4.5-34.9,9.2-48,22.9
		c-2.8,2.9-5.6,4.2-9.7,2.7c-4.7-1.7-4.1-5.4-4.3-9c-0.6-11.3-1.2-22.6-1.9-33.9c-0.3-4.4,0.7-7.3,5.1-9.6
		c7.5-3.8,7.8-14.3,0.4-18.3c-5-2.7-7.4-6.1-8.7-11c7.9-5.2,20.1,1.8,25.7-10.5c3.1,2.1,6.1,4,8.9,6.2c11.2,8.9,23.6,10.9,37.4,7.2
		c2.2-0.6,5.2,0.2,7.4,1.2c4.5,2.1,8.7,4.9,13.1,7.3c10.4,5.6,15.1,4.8,25.7-5.2c-4.1-5.2-8.4-10.5-13.8-17.3
		c6,2.5,10.5,4.3,14.9,6.2c8.6,3.8,9.7,3.5,14.3-4.4c0.7-1.1,1.1-2.4,1.8-4.1c-3-3.8-6-7.6-10.4-13.3c5.9,2.3,9.8,3.8,13.6,5.3
		c6.1-8.3,5.9-10.4-0.9-16.9c-2.8-2.7-5.4-5.6-8-8.2c2.2-3.8,4-6.8,5.7-9.8c-4.8-7.7-15.2-10.5-15.2-21.4c1.8-1,4-2.3,6.3-3.6
		c13.9-7.6,20.8-20.2,24.7-34.7c4.2-15.8,8.6-31.5,11.8-47.5C929.8,443.6,927.5,431.2,919.8,419.9z M397.2,20c-1.5,0-3,0-4.7,0
		c2-6,2-6,7.5-7.8C402.4,16.1,399.4,17.9,397.2,20C397.2,20,397.2,20,397.2,20z M397.3,20.3c2.5,0.4,5,0.8,7.6,1.2
		C401,24.8,398.7,23.7,397.3,20.3z M77.8,592.1c2.6-0.4,6.1-0.3,6,3.3c-0.1,6-4.7,6.3-10.2,6.2C72.1,596.6,72.4,593,77.8,592.1z
		 M56.6,643.3c0.3-1.8,0.6-3.6,1-5.3c5.7-0.4,11.4-0.8,17.4-1.2C72.8,643.2,69.3,644.4,56.6,643.3z M73.1,625.7
		c1.6-3.8,4.6-4.3,9.9-2.6C78.8,624.2,76,624.9,73.1,625.7z M82.5,614.5c-0.7-0.3-1.4-0.6-2.1-1c2-6.1,2.6-12.9,7.9-17.6
		c0.8,0.4,1.5,0.7,2.3,1.1C87.9,602.8,85.2,608.7,82.5,614.5z M109.4,596c2.3-3.5,3.6-5.6,6-9.4C116.5,592.7,115.2,594.8,109.4,596z
		 M127.8,593.6c-0.8-4.4,2.3-6.2,5.2-10.3C133.7,589.3,132.5,592.1,127.8,593.6z M151.8,580.3c2.1,8.4,2.1,8.4-6.2,8.7
		C147.7,586.2,146.7,581.1,151.8,580.3z M148.5,611.8c-0.1-0.6-0.3-1.2-0.4-1.9l6.1-1.6l0.2,2.7
		C152.5,611.3,150.5,611.6,148.5,611.8z M161.5,586.8c1.9-2.8,3.7-5.7,6-9.2C169.2,584.5,169.2,584.5,161.5,586.8z M185,654.5
		c-1.6,3.7-3.9,1.8-8.2-1.3c3.7-1.4,5.7-2.2,7.6-2.9C184.7,651.7,185.5,653.4,185,654.5z M183.6,572.9c-0.5-5.8,2.4-5.6,5.6-5.2
		C187.6,569.2,186.1,570.6,183.6,572.9z M231.1,524.6c9.8,0.8,19,2.6,21.7,15.3c-11.4-0.6-21.9-3.3-32.9-6.6
		C221.8,527,225.3,524.2,231.1,524.6z M237.5,549.2c-6.8,1.5-12.9,2.8-19-0.7C222.6,540.8,228,541,237.5,549.2z M219.2,553.7
		c2.5-3.7,6.4-2.8,14.8,2.9c-3.8,1-6.7,1.8-10.8,2.9c3.4,8.6-7.6,8-8.2,14.2C213.6,566.3,215.2,559.6,219.2,553.7z M214.2,616.3
		c-0.3,3.1,0.4,5.2,3.8,5.5c1.3,0.1,2.6-0.3,4-0.3c7.4-0.1,10.5,1.8,10.3,6.2c-0.2,4.5-5.2,9.1-10.5,9.5c-0.1,0-0.1,0-0.2,0
		c-2.8,7.1-5.3,13.6-8.3,21.4c-3.7-4.1-7.3-7.4-10.1-11.3c-1.4-1.9-2.2-5.1-1.7-7.4c2.2-10,5-19.8,7.5-29.4
		c14.4-3.8,27.9-7.4,42.3-11.2C247.5,608.2,224.5,618.1,214.2,616.3z M211.2,606.2c1.7-3.3,3-5.8,4.2-8.2c5.3-1.5,10.8-2.7,16-4.5
		c9-3,18-3,27.5,0.2c-7.5,2.3-15,4.8-22.6,7C228.5,602.9,220.8,606,211.2,606.2z M256.8,651.2c-4.2,3.4-8.4,3.1-12.6-1.6
		c4.7-6.5,4.7-6.5,13.1-8.6C260.6,644.6,260.5,648.2,256.8,651.2z M215.5,597.8c0,0,0-0.1,0.1-0.1c-4.6,0.4-5.7,4.3-6.9,7.6
		c-3.7,10.3-7.2,20.7-10.4,31.1c-0.9,2.9-0.4,6.2-0.6,9.9c-11.5-13-7.9-27.4-4.3-41.7V625l2.2,0.1c0.5-6.2,1.2-12.3,1.5-18.5
		c0.3-6.2,0.1-12.3,1.8-18.9c1.6,2.2,3.1,4.5,5.2,7.5c3.3-4.4,6.2-8.2,9.4-12.5c6.5,3.5,12.7,2.9,18.8-0.6c2.2-1.3,5.1-1.9,7.7-1.9
		c9,0,17.9,0.3,26.9,0.8c2.7,0.1,5.4,1.2,8.1,2.7C254.2,585,233.3,585.1,215.5,597.8z M307.1,888.1c-2,2.1-4,2.3-7.2-1.4
		c3.2-0.5,5-0.9,6.8-1C306.8,885.7,307.5,887.7,307.1,888.1z M269.6,967.9c8.5,8.9,22.2,11.6,27.2,25.5c-8.4-6-16-11.4-23.2-16.6
		c-4.2,2.8-7.2,4.9-10.2,6.9C263.8,978,264.3,972.2,269.6,967.9z M294,999.8c-8.6-0.9-8.6-0.9-17.9-12.7
		C281.8,991,287.4,995,294,999.8z M261.4,945.6c0.3,0.5,0.6,1,1,1.7c-0.5,0.7-1.1,1.4-1.7,2.1c-0.4-0.7-1.2-1.5-1-2
		C259.8,946.7,260.8,946.2,261.4,945.6z M261.1,932c-0.3,4.2-0.7,8.3-4.9,10.8c-5.5-4-6.5-6.8-4.6-13.2
		C254.8,930.4,258,931.2,261.1,932z M249.5,919.2c0.2-0.6,1.2-1,1.9-1.5c0.3,0.5,0.5,1.1,0.9,1.8c-0.5,0.6-1.2,1.2-1.8,1.9
		C250.1,920.7,249.3,919.8,249.5,919.2z M216.1,1035.6l-0.3-7.1c0.4,0,0.7-0.1,1.1-0.1c0.2,2.3,0.5,4.7,0.7,7
		C217.1,1035.5,216.6,1035.5,216.1,1035.6z M230.5,1096.4c-1.2-3.3-5.8-6.8,0.3-9.6C230.7,1089.9,230.6,1093.1,230.5,1096.4z
		 M255.2,1024.7c-2.6,1.8-5,6.3-3.9,11.4c1.6,7.7,2.1,15.6,3.2,24.3c-1.3,1.8-6.3,3.1-3.1,7.8c0.3,0.5-0.1,2.1-0.7,2.6
		c-6.3,5.3-10.1,13.8-19.4,15.3c-0.2-6.8,5.5-9.9,9.5-13.8c5.9-5.8,7.1-12.6,5.8-20.1c-0.9-5.6-4.8-6.9-9.3-3.3
		c-3.8,3.1-6.1,6.9-6,12c0.1,4.3,0,8.6-0.9,12.9c-1.7-8.7-8-17.1-1.5-26.5c-5.3-5.4-3.5-12.9-5-19.4c-0.3-1.1,2.6-3.6,4.4-4.5
		c3.2-1.5,6.8-2.2,11.8-3.8c-3.8-2.2-6.4-3.7-9.6-5.6c9.4-6.8,11.4-17.5,15-27.3c4-11.1,2-14-10.3-15.5c6.2-10-3.2-22.1,4.5-31.7
		c6.2,5.8,12,11.4,17.4,16.4c-0.4,7.8-0.8,15.1-1.1,22c2.7,2.2,5,4.1,7.3,5.9c2,2,4.1,4.1,6.1,6.1c3.5,3.6,3.9,8.3,1.3,11.7
		C265.1,1009.2,263.6,1019,255.2,1024.7z M234.6,1060.5c0-4.6,2-8,9.5-9.2c-0.9,5-1.1,8.4-2.3,11.5c-0.5,1.2-3.4,2.5-4.7,2.2
		C236,1064.7,234.6,1062.1,234.6,1060.5z M294,1079.6c-1.2-1.1-2.3-2.1-3.5-3.2c0.3-0.4,0.7-0.9,1-1.3c1.4,0.9,2.7,1.8,4.1,2.7
		C295.1,1078.4,294.6,1079,294,1079.6z M269.2,1076c2-7.3,4.5-13.3,11.3-15.7c5.3-1.9,10.7-6.1,17.4-1.3
		C290.8,1068.6,280.8,1072.7,269.2,1076z M338.6,1176.7c-0.8,0.3-1.7,0.4-2.5,0.5c-0.1-0.4-0.2-0.8-0.3-1.3c1.4-0.6,2.8-1.1,4.2-1.7
		l0.7,0.9C340,1175.7,339.3,1176.3,338.6,1176.7z M308,1463.6c0.1-7.4,3.9-11.2,11.6-12.9C320.3,1459.3,319.9,1459.7,308,1463.6z
		 M326.7,1443.7c-0.8,0.2-1.6,0.4-2.4,0.6c-1.3-2.8-2.6-5.6-4.2-9.1c-1.1,4.8-3,7.7-9,5c-1.3-7.4-2.8-15.4-4.1-23.5
		c-0.5-3.3,0.9-5.9,4.5-6.6c1.9-0.4,3.9-0.6,5.6-0.9c0.6-0.8,1-1.3,1.3-1.9c1.1-2.1,2.1-5.9,3.3-5.9c4-0.3,2.9,3.5,3,5.9
		c0.7,10.2,1.4,20.5,2,30.7C326.8,1440,326.7,1441.9,326.7,1443.7z M337.4,1395.1h5.3c0,0.2,0,0.4,0,0.6h-5.3
		C337.4,1395.5,337.4,1395.3,337.4,1395.1z M349.4,1422.4c-3.4,5.7,3.3,12.8-4.8,17.5c-1.5-13-2.9-25.4-4.4-38.4
		c4.1,0.6,7,1,9.8,1.5C350,1409.7,352.3,1417.6,349.4,1422.4z M390.3,1251.7c-10,6-17.9,11.8-28.7,14.9
		C368.2,1257.8,379.8,1251.7,390.3,1251.7z M514.6,1052.1c-0.3,0-0.6,0-0.9,0c-0.1-1.5-0.2-3.1-0.2-4.6c0.5,0.1,0.9,0.1,1.4,0.2
		C514.8,1049.2,514.7,1050.6,514.6,1052.1z M605,155c-5.5-0.6-3.3,4.9-6.1,6.7c-3,1.8-5.5,4.4-9.6,7.9c-1.8-4.3-3.6-9-5.7-14.1
		C591.1,151.8,597.9,154.7,605,155z M583,298.6c3.7,3.7,5.8,8.1,5.7,13.6c-2.6-4.2-5.1-8.4-7.7-12.5L583,298.6z M570.7,188.7
		c0.9,2.2,1.9,4.4,2.7,6.4c-0.7,0.7-0.9,1-1.1,1.2c-1.1-2.3-2.3-4.5-3.4-6.8L570.7,188.7z M553.7,266.7c14.6-3.7,17.9-0.8,16.4,14.2
		c-0.2,1.6-0.3,3.3-0.5,5.9c-3.6,1.2-6.6,2.2-10.5,3.5c-2.7-8-5.1-15.2-7.2-21.7C553.3,267.2,553.5,266.8,553.7,266.7z M544.7,439.6
		c4.8,4.9,3.7,8.5,1.5,12.8C543.8,447.8,543.8,447.8,544.7,439.6z M522.4,263.8c0.6,3,1.3,6,1.9,9
		C521.3,270.5,518.5,268,522.4,263.8z M527.6,301.4c1.8,0.6,3.8,2.7,4.6,4.6c2.1,4.9,3.5,10,5.6,16c-3.3,1.1-6.3,2.9-9.3,3
		c-7.2,0.4-14.4,0.1-21.8,0.1c-1.3-3.9-2.6-8.1-4-12.4c-0.8,5.7-1.6,11.4-2.6,18.6c0.6,0.6,2.5,2.3,4.8,4.2
		c-2.3,6.4-4.6,13.3-7.1,20.1c-0.3,0.8-1.4,1.3-2.1,1.9c-7.2-5.2-5.8-3.9,2.9-21.7c-4.4,0.7-4.9,4.3-6.7,6.5
		c-1.9,2.5-4.1,4.9-6.2,7.4c-10.4-11.8-11.2-19.5-4.4-31.9c1.2-2.1,1.3-4.7,2-7.1c-0.6-0.3-1.2-0.6-1.8-0.9
		c-3.8,5.1-7.6,10.2-11.4,15.3c-0.2-0.2-0.7-0.5-0.6-0.7c2.6-8.5,0.1-16.8-0.4-25.2c-0.2-4.2,0.9-8,6-10.2c0.5,1.4,1,2.7,2.1,5.6
		c2.6-2.3,4.8-4.3,7.7-6.8c1.4,0.3,3.7,0.8,5.8,1.2c0.2,0.8,0.7,1.8,0.5,1.9c-5.1,3.8-2.5,7.6,1.3,8.9c6.7,2.3,9.1,7,10.4,13.1
		c0.9-0.9,1.9-1.8,3.5-3.3c1.1,4.2,2.2,8,3.2,12c5-2.5,3.7-5.9,3.6-9.2C512.8,302.4,517.9,298.4,527.6,301.4z M518.8,329.3
		c-0.8,2-0.9,3.2-1.3,3.3c-1.9,0.4-3.9,0.5-5.8,0.7c-0.1-0.6-0.2-1.2-0.3-1.7C513.5,330.9,515.6,330.3,518.8,329.3z M464.4,239.2
		c9.6,10.1,7.8,38.2-3.4,49.4c-5-5-5.9-11.6-6.7-17.9c-0.7-5.9,3.8-10.9,10-13.2C467.3,251.6,457.8,245.4,464.4,239.2z M517.8,232.3
		c0.6,4.4,1.1,8.8,1.7,13.2c-0.5,0.1-1.1,0.2-1.6,0.3c-0.9-4.4-1.7-8.7-2.6-13.1C516.1,232.6,517,232.4,517.8,232.3z M514.6,270.7
		c0.5,0.2,0.8,0.9,1.1,1.4c-0.6,0.2-1.3,0.8-1.6,0.6c-0.6-0.4-1-1.2-1.4-1.8C513.3,270.7,514,270.5,514.6,270.7z M512.9,257.8h-9.2
		c-0.6-2.4-2.7-6-1.7-7.4c3.4-4.8,2.9-8.9-1.8-13.8C510.3,238.3,513.1,243.5,512.9,257.8z M505.4,148.3c0.2,1.2-1.6,3.8-2.7,4
		c-5.7,0.8-5.8-3.4-6.7-7.6C500.9,143.1,504.5,142.8,505.4,148.3z M484.3,92.3c2,2.4,4.3,4.4,4,4.9c-1,1.7-2.8,3.1-4.6,4
		c-0.5,0.2-3.2-2.1-3-2.8C481.2,96.6,482.6,95,484.3,92.3z M452.8,29.7c6.3,7.9,4.8,16.4,6.6,24.9C452.2,51.9,449.2,40.1,452.8,29.7
		z M452.8,136.4c0.5-1.1,1-2.3,3.2-3.4c0.1,1.9,0.5,3.8,0.3,5.6c-1.2,9.3,2.9,14.3,12.5,14.5c1.5-9.6-4.6-16.4-9.8-23.4
		c10.6-3.4,15.5-2.7,21.7,3.1c-0.9,1.2-1.8,2.5-2.9,3.6c-0.9,0.9-2.2,1.4-4.5,2.8c5.5,2,9.6,2.7,12.6,5c2.7,2.1,4.1,5.8,6.3,9.1
		c-2,0.7-4.1,1.5-6.7,2.4c-1.5,4,1,10.6-7,11.1c4.6,3.4,8.5,6.3,12.9,9.6c-2.5,2.1-4.4,3.6-6.4,5.3c2.5,7,10.3,2.7,13.5,7.1
		c-3.4,2.3-6.9,4.6-10.4,7c3,6.4,9.8,2.7,13.8,7.2c-5,0.5-9.2,1.7-8.2,7.9c0.1,0.7-3,1.9-5.3,3.3c-4.8-9.1-9.5-17.3-10-27.3
		c-0.3-6.2-0.6-6.3-7.8-6.5c-2.5,4.1-6.9,7.8-3.2,13.4c0.1-1.5,0.2-3.1,0.5-6.3c4.2,4.8,3.7,9.3,3.2,13.9c-1.3-2.6-2.6-5.3-3.9-7.9
		c-0.8,2,2.8,6.1-2.8,5.9v12.5c3.7,0.4,6.4,0.8,10.6,1.3c-3.6,2.8-6,4.8-8.6,6.8c2.1,4.3,5.6,8.4-3.3,8.8c-3,0.2-5.7,5.7-9.6,10
		c0.3-3,0.5-4.5,0.8-7.4c-2.1,2.5-3.6,4.3-5.1,6c0-4.3,0-8.7,0-13.2c-1.4,3.5-2.8,7.1-4.7,12c-8.6-15.6-9.8-31.9-13.8-47.8
		c-7.5,0.8-14.2-6.7-23,0.7c1-3.9,1.5-5.8,2.1-8.3c-3.4-0.7-6.2-1.2-9-1.8c-1.2-13.1,10.3-27.4,20-29.4c5.9-1.2,11.8-2.9,17.7-3
		C446.1,146.5,450.2,142.8,452.8,136.4z M448.9,238.1c-0.3,2.1-0.6,4.1-0.8,6.2C445,241.1,446.7,239.5,448.9,238.1z M407.2,380.5
		c4.3,8.7,1.7,18.8-6.1,25c1.2-4.4,2.5-8.9,3.8-13.4c-0.5-0.2-1-0.4-1.4-0.6c-2.9,3.5-5.1,8.5-8.8,10.2c-4.1,1.9-9.6,0.9-14.6,1.2
		c-1-5.8-2.1-11.6-3.2-17.9c0.8-0.2,3.7-0.2,4.8-1.6c0.9-1.2-0.2-4.1-0.4-6c3-0.5,6-0.9,9.7-1.5c-1.4-2.8-2.3-4.4-3.7-7.2
		c2.7,0.6,4.5,0.9,7.3,1.5c-2.5-6.7,5.9-10,4.5-17.1c-0.4-2.1,4.3-4.8,5.3-7.8c2.1-6.2,3.3-12.7,5.3-20.8c-7.3,2.2-13.2,3.9-19,5.6
		c-1.9-7.5-1.9-7.6,5.6-11.5c0,0,0,0,0,0.1c4.8-2.7,8.3,0.4,12.9,4.8c1.7-6.4,3-11.4,4.4-16.3c1.2-4.3,1.3-4.2,7.4-3.8
		c-0.5,2.9-0.9,5.8-1.5,8.6c-4.5,19.4-9,38.8-13.8,58.2C404.5,374.2,405.5,377.1,407.2,380.5z M379.5,227.8c-4.3,2-8.7,4.1-14.1,6.6
		C368.3,227,373.8,226.9,379.5,227.8z M359.8,232.1c-4.5-8.4,4-11.8,5.8-17.8c4.8,2.5,8.8,4.7,13.3,7
		C373.2,224.5,367.1,227.9,359.8,232.1z M389.7,296.9c-0.4,0-0.9-1.4-1.3-2.1c0.9-0.4,1.7-1.1,2.6-1.1c0.7,0,1.4,0.8,2.9,1.8
		C391.9,296.2,390.8,296.8,389.7,296.9z M394.8,303.5c0.2,0.8,0.5,1.7,0.7,2.5c-1.6,0.3-3.2,0.7-4.8,0.8c-0.1,0-0.6-1.6-0.6-1.6
		C391.7,304.6,393.3,304.1,394.8,303.5z M398.5,313.3c-1.2,2.7-1.7,4-2.3,5.3c-1.6-0.7-3.3-1.4-6.5-2.8
		C393.2,314.8,395,314.3,398.5,313.3z M391,200.4c-0.6-1.1,0.2-3.1,2.3-5.2l18.2,39.1c-0.7,0.2-1.4,0.5-2.1,0.7
		C399.8,225.3,397.8,211.6,391,200.4z M390.9,284.9c0.1,0.6,0.3,1.3,0.4,1.9c-2.1,0.6-4.2,1.2-6.3,1.8c-0.2-0.9-0.5-1.8-0.7-2.7
		C386.6,285.6,388.8,285.3,390.9,284.9z M381.8,279.6c-0.1-0.7-0.3-1.4-0.4-2.1c2.1-0.5,4.1-1,7.2-1.8
		C386.9,281.1,384.2,280,381.8,279.6z M377.4,272.8c2.5-5.7,5-5.8,8.5-3.1C383.6,270.5,381.4,271.4,377.4,272.8z M375,264.4
		c1.6-4.7,3.9-7.5,10.3-3.5C380.9,262.5,378,263.5,375,264.4z M373.6,255.8c-0.3-0.7-0.6-1.3-0.9-2c2.3-1,4.7-2.1,7-3.1
		C379.1,255.2,376.7,256.1,373.6,255.8z M375.8,402.5c-2.1,4.1-4.4,3.8-6.9,2.4c-0.1-0.8-0.1-1.6-0.2-2.4H375.8z M376.3,414.3
		c-3,0.6-6,1.2-10.7,2.2C369.3,410.6,372.4,410.2,376.3,414.3z M379.2,422.4c0.1,1,0.1,2,0.2,3.1c-2.9,0.2-5.7,0.5-9.9,0.8
		C372.7,420.3,375.7,420,379.2,422.4z M390.9,337.3c2.6-7.3,6.7-6.3,11.8-7.4C399.6,335.8,395.4,334.5,390.9,337.3z M416,28.8
		c0.7-0.2,1.7,1.2,3.3,2.4c-1.7,1.1-2.6,2.2-3.6,2.2c-0.8,0-2.3-1.6-2.1-2.1C413.9,30.2,415,29,416,28.8z M406,88.5
		c4.2,0.5,9.7-1.8,9.6,4.3c-0.1,4.9-5.5,3-10.2,4.7C405.7,93.4,405.8,91.2,406,88.5z M365.5,95.2c0.7-3.5,1.3-6.2,1.9-8.9
		c2.3-1.5,4.6-3.1,7.7-5.2c1.4,5.8,9.6,5,8.3,12.2C378.2,97.6,372.4,94.7,365.5,95.2z M351.3,129.6c3-0.9,6-2.6,8.4-4.7
		c6-5.3,11.8-10.8,17.4-16.5c3.5-3.6,7.9-5.8,12.5-5.1c12.5,1.8,25,4.4,38.8,6.9c-2.5,1.7-4,2.9-5.6,3.7c-6.1,3.1-12.9,5.3-18.2,9.4
		c-4,3.2-6.7,8.6-8.7,13.5c-1.9,4.9-5.4,10.2-0.3,15.8c1.2,1.3,0.8,5,0,7.1c-2.7,7.1-6,14-9,21c-10.8-7.9-18.3-18.1-30.4-24.4
		c-2.8,11,10.3,11.6,10.3,20.7c-3,0.2-6.7,1.6-9,0.3c-3.1-1.7-5.1-5.4-7.7-8.5c3.8-10.8,7.5-21.4,11.7-33.2
		c-3.6-0.9-6.6-1.6-9.3-2.2c-2.5,3.3-4.5,5.9-7.1,9.5C343.5,133.4,344.8,131.5,351.3,129.6z M341.2,147.5c0.6,0.9,1.4,1.8,1.8,2.8
		c0.1,0.2-1.4,1.4-1.8,1.3c-0.7-0.2-1.2-1.2-2-2.1C339.9,148.7,340.6,148.1,341.2,147.5z M336.7,159.9c1.4,7.2-2.8,8.8-6.9,10.4
		C331.8,167.2,333.9,164.1,336.7,159.9z M329.8,170.4c0.3,2.5,0.7,5.1,1,7.6c-0.6,0.1-1.2,0.1-1.8,0.2
		C329.3,175.6,329.5,173,329.8,170.4z M327.5,278.8c2.9-6.4-4-17.5,8.9-20.7c2.8,25.3,5.5,50.2,8.4,76.9c-4.7-4.3-3.5-8.5-4.6-11.9
		c-1.2-3.8-2.7-7.4-3.9-11.2c-1-3.4-0.7-7.9-2.9-10.2c-3.1-3.2-6.4-5.1-1.8-8.8c-3.1-1.9-6.1-3.7-9.2-5.6c-3.4-2-6.7-4-10.3-6.2
		c1.7-4.7,4.2-8.4,9-8.2C323.2,273.1,325.1,276.4,327.5,278.8z M314.1,509.5c-0.6-0.3-1.1-0.5-1.7-0.8c1.3-3.3,2.6-6.6,4-9.8
		c0.5-1.1,1.9-2.3,1.7-3.2c-2.3-11.8,5.2-21.3,7.1-32.1c0.1,8.5-2.2,16.8,0.1,25.6c1.1,4.2,0.3,10.5-5.1,14
		C317.8,504.8,316.1,507.4,314.1,509.5z M317.3,579.9c-0.4,0.2-0.7,0.4-1.1,0.7c-1-1.3-1.9-2.6-2.9-3.9c0.7-0.4,1.3-0.8,2-1.2
		C316,576.9,316.6,578.4,317.3,579.9z M314.5,472.8c0.1,2.4-2.2,4.9-2,7.3c0.1,2.9,1.9,5.6,2.4,8.6c0.2,1.3-0.9,3.1-1.9,4.3
		c-3.7,4.7-16.8,4.2-20.1-0.9c-0.9-1.4-1.3-3.7-1-5.5c0.8-5,16.2-31.5,20.9-36.4C313.4,458.3,314.2,465.6,314.5,472.8z M300.8,290.7
		c4.5-5.2,6.7-5.7,11.5-1.4c8.7,7.7,9.5,18.1,9.8,28.8c-3.9-3.2-7-6.4-9.1-11.1C310.3,301.3,305.4,296.6,300.8,290.7z M332.6,512.2
		c2.4,7,4.4,12.9,6.8,19.6c-3.8,5.2-7.8,10.7-11.8,16.2C318,540,320.1,525.6,332.6,512.2z M311.4,159.7c4.6,6.3,6,11,2.7,17.3
		C309.7,172,309.3,167.2,311.4,159.7z M306.7,214.3c1.3,0.2,2.3,1.8,3,2.4c0.1,3.8-4.6,9.3-7.3,8.7c-1.4-0.3-3.1-2.4-3.3-3.9
		C298.5,218.4,303.6,213.7,306.7,214.3z M307.7,234.1c-1.7,3.8-3.3,7.1-4.8,10.4c-0.7-0.1-1.4-0.2-2.1-0.3c-0.8-4.7-1.6-9.3-2.4-14
		c0.6-0.4,1.2-0.9,1.7-1.3C302.4,230.5,304.7,232.1,307.7,234.1z M291.7,181.9c-0.5-5.7,0.4-11.2,5-15.8c8.3,3.4,0.7,11.3,4.7,15.6
		c5,5.4,0.6,11,0.9,16.6c-3.8,1-7.1,1.9-11.4,3.1C294.2,194.6,292.2,188.2,291.7,181.9z M287,261.5c6.5-7.3,22.5-15,34.1-15.8
		c-7.1,9-17.2,13.6-27.7,17.2C291.8,263.5,289.5,262.1,287,261.5z M279.7,316.2c1.2-7,6.6-12.7,14-18.6c2.7,5.7,5,10,6.9,14.5
		c1.6,3.9,1.9,8.6,4.2,12c3.7,5.7,2.6,10.8-0.7,15.7c-2.4,3.7-5.2,6.8-3,11.7c0.4,1-0.7,3.8-1.6,4c-1.6,0.4-4.5,0.3-5.3-0.8
		C285.4,343.4,277.1,331.4,279.7,316.2z M313.1,659.5c0.4-1.7,0.8-3.2,1.3-5.2c-10-1.7-18.1,4.2-28.6,5.2
		c5.2-5.7,11.6-9.9,13.7-15.7c3.7-9.9,11.7-11.1,19.5-14.3c5-2,9.3-5.8,14-8.8c4.6,5.3,3.5,10.6,1.9,15.6c-1.5,4.5-1.8,8.6-0.6,13.4
		c2.2,9.2-0.9,12.1-10.4,11.2C320.3,660.6,316.7,660,313.1,659.5z M279.9,842.5l-1.8-1.2c3.7-7.9,7.3-15.9,13.6-22.2
		c0.9,0.7,1.8,1.4,2.7,2.1C289.6,828.3,284.8,835.4,279.9,842.5z M295.7,804.1c-0.4-0.1-0.8-0.3-1.2-0.4c0.8-3.7,1.6-7.4,2.4-11.1
		c1-0.4,2.2-0.8,5-1.9C299.3,796.3,297.5,800.2,295.7,804.1z M298.5,855c1.2-5.5,3.7-9.2,7-12.8C310.4,848,310.1,848.6,298.5,855z
		 M325.5,852.9c-3-2.9-5.9-5.7-9.9-9.6c3.4,0.2,4.8,0.3,6.8,0.4c-1.3-3.9-2.5-7.6-4-12.2c-2.5,2.7-4.5,4.8-7,7.3
		c-2.7-1.8-5.5-3.8-8.8-6.1c3.9-6.4,7.4-12.2,11.7-19.2c1,2.7,2.2,4.2,1.9,5.4c-1.1,3.9,0.8,6,3.6,8.3c2.9,2.6,5.5,5.8,7.7,9
		C332,843.1,331.7,844.2,325.5,852.9z M321.7,795.1c-4.5,1.4-8.7,3.7-14.6,6.2c3.7-10.6,6.3-20.1,10.4-28.9
		c3.1-6.5,8.4-12,15.8-14.5c1.1-0.4,2.4-0.3,4.4-0.5c-1.5,8.9-13.4,7.3-14.1,16.3c2,2.4,4.3,5.2,6.6,8c2.3,2.7,4.6,5.5,8.1,9.7
		C331.6,792.9,326.5,793.6,321.7,795.1z M341.3,668.2c-1.2-0.1-2.4-0.2-3.6-0.3c0.4-2.1,0.7-4.3,1.3-6.3c0.1-0.2,2.5,0.1,2.5,0.1
		C341.6,663.9,341.5,666,341.3,668.2z M342.5,575.9c-4.8,3.5-6.7,10.9-9.9,16.5l-3.2-0.9c-0.4-11.5-1.6-23.1-0.7-34.5
		c0.4-5.1,4.4-10.5,8.1-14.5c4.2-4.7,4.6-9.2,3.2-14.7c-1-4.1-1.8-8.3-3.1-14.7c9.3,9,9.6,18.8,10.3,28.2c0.6,6.9,0.3,13.9,0.3,20.9
		C347.5,567.3,348.3,571.8,342.5,575.9z M358,283.2c-7.7-5.5-7.7-5.5-10.9-33.2c3.8-3,7.8-6.2,13.2-10.4c2.9,15.6,5.8,29.4,7.9,43.3
		c1.1,7.3-4.9,11.7-9,18.8C356.9,294.5,351,289.7,358,283.2z M366.2,304.2c-0.6,3.6-1.1,6.9-2.1,12.8c-2.8-3.6-5.3-5.4-5.3-7.1
		C358.7,306.2,361.3,304.1,366.2,304.2z M362.5,702.7c1.7-2.9,3-5.1,4.5-7.8C371.2,701.5,371.1,701.6,362.5,702.7z M388.6,736.6
		c-2.6-3.6-5.2-7.2-8.1-11.3c3-1.4,6.1-2.9,9-4.3C397.2,727.9,397,729.8,388.6,736.6z M469.3,587.6c-2.8,1.2-4.6,2-6.2,2.7
		c3.1,6.3,7.9,8.2,14,8.5c6.9,0.4,13.8,1.4,20.6,2.4c1.5,0.2,2.7,1.7,4.1,3.3c-34.9-3.4-69.2-2.7-103.4,13.3
		C405.1,594.7,449.9,579.5,469.3,587.6z M429.4,553.3c1.8-5,1.9-5.2,10.8-8.9C436.6,547.3,433,550.3,429.4,553.3z M441.8,536
		c1-4.6,3.7-6.2,7.7-5.5C447,532.3,444.4,534.1,441.8,536z M449.9,540.4c-2.7,1-5.4,2-8,2.9c2.3-1.7,4.6-3.5,6.9-5.2
		C449.1,538.9,449.5,539.7,449.9,540.4z M477.8,583.9c-0.3,0.7-0.5,1.5-0.8,2.2c-1.3-0.6-2.7-1.1-4-1.7c0.3-0.6,0.6-1.6,0.8-1.6
		C475.1,583.1,476.5,583.5,477.8,583.9z M474.4,553.5c1.3-6.2,3-9.8,8.1-11.9C483.7,548.2,479.2,549.9,474.4,553.5z M449.3,644.2
		c-2-0.2-4.2-0.2-6.1-0.9c-1.4-0.5-2.6-1.7-3.9-2.6c4.3-1.8,8.4-3,10.1,3.4c2.7,2.5,5.7,4.7,8,7.5c2.1,2.5,1.8,5.4-0.5,8.1
		c-7.6,9.1-15.1,18.4-23.1,28.3c-1.9-2.1-3.3-3.6-4.7-5.1c1.6-0.5,3.8-0.5,4.7-1.5c7.5-8.4,14.8-16.9,22-25.3
		C453.5,651.9,451.4,648,449.3,644.2z M394,568.9c0.6-0.8,1.1-1.7,1.8-2.3c0.3-0.2,1.2,0.2,3.1,0.7
		C396.6,568.1,395.3,568.5,394,568.9z M400.2,635.7c6,9.2,4.3,13.1-8,19.7C389.4,647,392.2,640.4,400.2,635.7z M411.8,697.7l-2-0.6
		c0.5-3.7,1.1-7.5,1.6-11c-3.3-6.7-12.7-8.3-14.3-19.4c5.3,3.2,9.3,4.8,12.2,7.6c2.8,2.8,4.5,6.8,7.3,11.1
		C415.2,688.9,413.5,693.3,411.8,697.7z M418.8,666.2c0.8-4.5-2-6.6-4.2-9.4c-1.1-1.3-2.6-2.4-3.3-3.8c-1.3-3.1-3.7-6.9-2.8-9.5
		c1.9-5.9,5.3-11.4,8.4-16.8c0.6-1,3.7-1.8,4.2-1.2c5.4,5.8,14.7,7,18,15.2c-2.4,5.1-4.7,10.3-7.1,15.4c0.4,0.3,0.9,0.7,1.3,1
		c2.9-3.4,5.8-6.8,9.3-10.9c1.2,1.8,1.8,2.9,2.4,3.9c3.9,6.9,3.8,6.8-2,13c-5.1,5.5-9.9,11.4-14.7,17.2c-0.3,0.4,0.5,1.7,0.8,2.6
		C419.2,679.3,417.1,676.2,418.8,666.2z M435,719.1c-1.5-1.3-3-2.7-4.5-4c0.8-0.8,1.6-1.6,2.4-2.4c1.5,1.3,3.1,2.5,4.6,3.8
		C436.7,717.4,435.9,718.2,435,719.1z M422.3,697.7c11.7-0.5,17.9,7.1,23.3,16C437.5,708.8,427.2,707.6,422.3,697.7z M455.4,692.4
		c-3.2,3.4-7.5,5.9-1.1,12c-8-2.2-9.1-3.3-15.2-13.9c4.8-9.8,12.6-9.7,22.1-7.2C459.4,686.3,457.9,689.8,455.4,692.4z M488.1,687.8
		c2.4,4.3,3.9,6.9,5.3,9.5C489.9,696.2,487.9,694,488.1,687.8z M493.8,697.7c1.1,1.3,2.2,2.6,3.6,4.1
		C492.4,702.6,493.7,699.8,493.8,697.7z M499,683.4c-2.2-0.3-5.1-1.2-6.7-0.2c-6.4,4.2-10.5,0.9-14.6-3.5c-3.1-3.4-6.6-6.6-9.3-10.3
		c-1.7-2.2-3.6-5-0.6-8c0.7-0.7,0.7-3.2,0-4.1c-6.9-8.6-10.2-20.3-21-25.6c-0.7-0.4-1.1-1.5-3.1-4.1c4.2,0.3,6.5,0.1,8.6,0.6
		c6,1.4,11.7,2.2,16.9-2.5c1.3-1.1,4-1.9,5.5-1.4c9.3,3.3,19,6.2,22.8,17c2.9,8.3,6.2,16.6,9.9,26.5c-1.4,1.5-4,4.2-7.1,7.5
		c2,2.7,4.5,5.9,7.7,10.1C504.5,684.7,501.8,683.9,499,683.4z M509.6,659.7c-0.8-2.3-1.7-4.5-2.5-6.8c0.6-0.2,1.2-0.4,1.8-0.6
		c0.7,2.3,1.5,4.6,2.2,6.9C510.7,659.4,510.1,659.6,509.6,659.7z M521.4,713c-0.9-15.8-1.6-31.6-2.8-47.3c-0.3-4.3-1.9-8.6-3.2-14.1
		c4.3-6.7,3.3-16.1,5.5-25c0.8,28.8,1.6,57.6,2.5,86.4C522.7,713,522.1,713,521.4,713z M535.6,564.1c0.4,4.7-2.1,7.2-4.9,10.4
		c-3.1,3.6-5.3,5.5-9.8,2.9c-0.9-0.5-2.6,0.1-3.9,0.4c-1.8,0.5-5.1,1.9-5.2,1.6c-3.8-6.8-14.8-2.8-17.2-11.4
		c-0.2-0.6-0.5-1.7-0.6-1.7c-8.4,0.3-5.6-6.5-7.6-10.7c-4.2-8.8,0.9-13.6,4.9-18.8c9.2-1.4,18.1-0.2,23.3,6
		c3.8,4.7,8.9,9.5,10.3,16.1c2.9-2.6,5.8-5.2,9.3-8.3C537.3,555.8,535.3,560.1,535.6,564.1z M491.1,518.9c1-0.7,1.9-1.6,3-1.9
		c0.4-0.1,1.7,1.2,1.7,1.8c0,1.3-0.7,2.6-1.4,4.8C492.1,520.4,491.6,519.6,491.1,518.9z M560.6,477.3c-1.4,9.8-4.7,13.3-14.1,14.3
		c-2.3,0.3-4.7,0.4-7,0.1c-5.6-0.7-11-1.8-15.8,2.8c-1.2,1.1-3.8,1.2-5.8,1.1c-4.7-0.3-8.4,1.1-11.1,5.1c-1.1,1.6-2.9,2.8-4.7,3.6
		c-6.6,3.1-13.8,5.3-19.9,9.1c-6.1,3.8-11.4,9.1-16.8,13.6c-4.2-1.8-2.9-4-1.5-6.5c1.4-2.6,3.1-5.7-2.7-6.9
		c-1.5,4.5-7.8,6.6-5.9,13.3c0.2,0.6-3.6,2.2-5.5,3.4c-1.2-1.2-2.6-3.5-3.4-3.2c-3.5,0.9-7.1,2.1-10,4.2
		c-11.7,8.7-23.2,17.6-37.1,23c-3,1.2-5.2,4.5-8.6,7.6c-7.3-16.9-8.3-34.6-13.2-51.3c-5-16.8-10.2-33.5-15.3-50.1
		c1.8-5.4,9.5-6.9,8.6-13.8l0,0.1c0,0.1,0,0.1,0,0.1c0,0,0,0,0,0l0,0c0,0,0,0,0,0c0.2-0.1,0.3-0.1,0.5-0.2c-0.2,0-0.3,0-0.5-0.1
		c0.5-9.6,6.6-14.8,16.9-13.5c0.5-5.6,0.9-11.2,1.5-18.2c3.5,4,5.6,6.4,8.3,9.5c-6.2,3.1-0.1,9.3-3.8,13.3c7-3.4,7-3.4,8.4-10.5
		c4.2,2.7,3.9,5.5,1,8.6c-3.3,3.5-6.5,7-10.1,10.1c-1.9,1.6-4.4,2.5-6.7,3.7c4.7-5.6-3.5-1.7-2.7-6.5c0.3-0.1,1.4-0.7,2.5-1.2
		c-5,1.6-10,3.2-15,4.9c5.6,0.7,8.1,5,9.9,9.8c3.8-1.4,6.1-3,4.8-6.8c0,0,0,0,0.1,0c0,0,0,0-0.1,0l0.4,0c0,0,0,0,0,0
		c2.9,0,5.9,0.2,8.8-0.2c2.9-0.5,5.6-1.7,8.9-2.8c3.3,10.1,4.3,19.7,2.6,29.7c-8.3,5.4-4.7,20.3-17.7,22.1c-1-1-2-2.1-4.2-4.4
		c0.9,4.9,1.5,8.2,2.3,12.2c5-1.6,8.7-2.7,12.7-4c2.4,2.2,4.8,4.4,7.3,6.6c5.8-2.1,9.4-7.3,16.2-7.4c4.2,0,4-5.8,2.4-9.1
		c-6.9-15-11.1-30.6-12.3-47.1c-0.2-3.3-0.3-6.7-1.3-9.7c-2.7-8-2.9-7.9,3.9-12.8c3.5-2.5,7.1-4.9,10.4-7.8c3.9-3.4,7.6-3.2,12.3,0
		c-2.2,1.9-4.2,3.5-6.1,5.1c0.1,0.5-0.1,1.2,0.2,1.6c3,3.5,7.4,14.1,8.4,19.2c2,10.5,3.5,21.3,9.5,30.6c1.4,2.2,3.4,3.9,5.5,6.3
		c-2.8,5.8-2.2,11.4,5.6,14.5c-2.3,7.2-2,13.2,6,17.6c1.6-2.5,3.4-5.1,5-7.8c5.2-8.8,10-18,15.8-26.5c3-4.5,7.7-7.9,11.9-11.5
		c1-0.8,3.5-1.1,4.5-0.5c5,3.4,8.7,1.4,11.3-1.9c8.4,2.2,15.9,4.6,23.6,6c7.2,1.3,14.7,1.4,22.6,2.1
		C562,471.9,561,474.6,560.6,477.3z M573.4,331.5c-1.8-0.1-3.7-0.2-5.5-0.3c0-0.3,0.1-0.5,0.1-0.8h5.5
		C573.4,330.9,573.4,331.2,573.4,331.5z M566.2,322.4c-1.2-5.3-2.4-10.8-3.8-16.7c3.9-2,7.2-3.7,10.4-5.3c2.7,4.7,4.6,9.3,7.7,12.9
		c2.1,2.4,5.9,5,8.2-0.5c1.6,1.7,3.2,3.4,5.8,6C583.6,318,575.9,326.6,566.2,322.4z M592.4,174.9c5.5,0.8,10.3,1.5,16.2,2.4
		c-1.5,3.6-2.5,5.9-3.6,8.3C599.5,183.7,594.1,182.4,592.4,174.9z M600.6,1162.9c-1.5-5.8,2.6-7.1,4.4-10.3l2.1,1.6
		C604.9,1157.1,602.8,1160,600.6,1162.9z M603.8,782v-6.3c0.3,0,0.6-0.1,0.9-0.1c0.2,2,0.4,4,0.6,6.1L603.8,782z M619.9,471
		c-1.2,5.5-14,10.1-19.3,7.9c-3.7-1.6-5.2-7-1.8-10.1c5.5-5,10.7-10.6,20.6-13.7C619.7,461.4,620.9,466.4,619.9,471z M643.3,965.5
		c0.4,0.4,1.1,0.9,1.1,1.3c0,0.5-0.7,0.9-1.1,1.3c-0.4-0.4-1.1-0.9-1.1-1.3C642.2,966.4,642.9,966,643.3,965.5z M632.3,320.2
		c-6.4,1.5-6.4,1.5-9.4-5.8C626.6,316.7,629,318.2,632.3,320.2z M627.5,496c5.3,7.6,6,15.6,6.5,24.2
		C624.5,516,621.3,504.9,627.5,496z M636.2,1009.1c-2-8.6-2-8.6,10.2-18.2C647.7,999.6,640.6,1002.5,636.2,1009.1z M644.2,1142.9
		c-0.6-0.9-1.6-1.8-1.8-2.9c-0.1-0.5,1.1-1.7,1.8-1.8c1.3,0,2.6,0.6,4.7,1.1C645.7,1141.8,645,1142.4,644.2,1142.9z M643,1061.2
		c-0.4-2.8-0.1-5.8-0.1-8.7c0.7-0.3,1.4-0.5,2.1-0.8c2.9,3.8,5.9,7.6,8.8,11.3C646.7,1068.9,644,1068.3,643,1061.2z M649.9,475.1
		c-5.4-4.2-4.9-7.5-1.4-10.6c2.8-2.5,5.9-6.2,10,0.2C656,467.8,653.2,471.2,649.9,475.1z M660.1,1011.1c4.5,5.9,5.7,13.1,7.7,20.1
		C661.5,1025.9,662.4,1017.8,660.1,1011.1z M659.3,907.4c1.8-4,3.6-8,5.4-12l2.8,1.6c-1.9,3.9-3.8,7.7-5.7,11.6L659.3,907.4z
		 M667.9,1031.6c1.5,5.6,3,11.3,4.5,16.9C666.7,1044,666.7,1038,667.9,1031.6z M672.4,1048.6
		C672.4,1048.6,672.4,1048.6,672.4,1048.6c0.3,3,0.5,6,0.8,9.1C669.5,1054.6,671.5,1051.6,672.4,1048.6z M669.5,516.7
		c-1.1-1.7-2.9-3.3-3.1-5c-0.1-1.1,2.3-2.4,3.6-3.6c1.2,1.4,2.3,2.7,3.9,4.5C672.2,514.2,670.9,515.4,669.5,516.7z M668.5,482.3
		c-3,0.2-6.3-1.1-6-4.9c0.1-1.7,2.7-4.7,3.7-4.6c2.4,0.3,4.6,2.3,8.1,4.4C671.5,479.7,670.1,482.1,668.5,482.3z M708.9,515.1
		c-0.2,1.9-1.7,3.6-3.3,6.4c-1.7-2.1-3.4-3.4-3.2-4.3c0.4-1.9,1.9-3.5,2.9-5.3C706.5,513,709,514.2,708.9,515.1z M685,1048.8
		c-4.1-5.6-6.9-10.3-5-16.9C688.7,1039.9,689.4,1041.9,685,1048.8z M684.2,467.5c3.7-0.5,6.5-0.9,10.1-1.4c-0.3,5.1-3.4,6.9-6,9.9
		C687,473.2,685.9,471,684.2,467.5z M690.1,1019.7c1.4-3.1,2.5-5.8,3.7-8.5c0.8,2.7,1.7,5.5,2.8,9.3
		C693.6,1020.2,692.1,1020,690.1,1019.7z M693.9,1010.6c-0.1-1.8-0.1-3.6,0-5.4c0.2-2.6,0.5-5.2,1.7-7.6
		C696.2,1002.2,698.6,1007,693.9,1010.6z M704.2,476.2c1.4,0.2,3.4,2.1,3.7,3.5c0.8,3.7-1.8,5.2-9.4,5.7
		C698.4,478.8,700.3,475.6,704.2,476.2z M707.6,972.9c-2.2-9.7-4.4-19.4-7-31.1C708.1,948.6,710.8,960.5,707.6,972.9z M707.1,1029.8
		c-0.6-0.6-1-0.9-1.4-1.3c0.6-0.6,1.1-1.4,1.9-1.6c0.3-0.1,1,0.9,1.6,1.4C708.4,1028.8,707.7,1029.3,707.1,1029.8z M704.4,1023.3
		c-0.2-4.6,2-6.4,6.4-7.7C711,1020.6,710.2,1023.6,704.4,1023.3z M711.8,1118.9c-0.6-0.2-1.7-0.6-1.7-0.7c0.3-1.5,0.7-3,1.1-4.5
		c0.6,0.2,1.2,0.3,1.9,0.5C712.6,1115.8,712.2,1117.3,711.8,1118.9z M719,1060.9c-4.4-6.7-6.4-14.3-6-22.7
		c2.8,7.2,5.5,14.3,8.3,21.5C720.5,1060.1,719.7,1060.5,719,1060.9z M769,494.3c-1.3,1-2.6,2.1-4.1,2.8c-2.9,1.3-6.3,4-8.9,0.4
		c-2.7-3.7,1.2-6,3.4-8.2c7.5-7.6,16.3-11.8,29.1-10.4C780.8,484.9,774.9,489.6,769,494.3z"/>
	<path class="st0" d="M304.5,1413.5c0,0,27.2-20.4-5.5,6.2s-42,6.4-32.7,26.7s6.8,23.6,32.3,23.6"/>
	<path class="st0" d="M263.4,1439.9c0,0-17.3,14.3-1.2,23.7s25.5,13.5,58.3,9.9s86.6-3.6,93.8-3.6"/>
</g>
</svg>
