<?xml version="1.0" encoding="utf-8"?>
<!-- Generator: Adobe Illustrator 19.0.1, SVG Export Plug-In . SVG Version: 6.00 Build 0)  -->
<svg version="1.1" id="Layer_1" xmlns="http://www.w3.org/2000/svg" xmlns:xlink="http://www.w3.org/1999/xlink" x="0px" y="0px"
	 viewBox="0 0 372.4 456.1" style="enable-background:new 0 0 372.4 456.1;" xml:space="preserve">
<g>
	<path d="M227.7,185c37.8-58.2,75.5-116.2,113.6-174.9c-16.3,4-31.7,7.7-47.2,11.5c-17.6,4.3-35.2,8.6-52.8,12.9
		c-2.5,0.6-5.5,2-6.4-2.1c-0.9-3.8,1.6-4.8,4.7-5.5c35.9-8.8,71.7-17.6,107.5-26.4c5.2-1.3,6.6-0.3,7.5,4.9
		c6,36.1,11.9,72.3,17.6,108.4c0.3,1.8-1.4,5.1-2.9,5.6c-3.4,1.2-4.3-1.6-4.8-4.6c-5.2-31.9-10.5-63.7-15.8-95.6
		c-0.2-1.1-0.5-2.2-1-4.7C309.6,73.6,272,131.6,234.3,189.5c68.8,51.9,78.5,145.2,29.9,208.9c-48.5,63.5-137.1,76.3-203.5,29.7
		c-62.2-43.7-79.3-133-38.5-197.7C64.1,163.9,154.2,138.6,227.7,185z M286.6,308.6c0.5-76-62-138.9-138.5-139.4
		c-77-0.5-139.8,61.5-140.3,138.5c-0.5,76.8,61.5,140,137.9,140.5C223.6,448.7,286.1,386.7,286.6,308.6z"/>
</g>
</svg>
