<?xml version="1.0" encoding="utf-8"?>
<!-- Generator: Adobe Illustrator 19.0.1, SVG Export Plug-In . SVG Version: 6.00 Build 0)  -->
<svg version="1.1" id="Layer_1" xmlns="http://www.w3.org/2000/svg" xmlns:xlink="http://www.w3.org/1999/xlink" x="0px" y="0px"
	 viewBox="0 0 294.9 516.9" style="enable-background:new 0 0 294.9 516.9;" xml:space="preserve">
<g>
	<path d="M144.6,295.2C58,292.1-2.6,221.3,0.1,141.4C2.6,66.1,65.4,2.9,141.1,0.1C219-2.8,284.8,53.6,293.9,130.7
		c9.7,81.9-51.6,160.5-140.7,164.7c0,33.4,0,66.8,0,100.7c2,0,3.8,0,5.6,0c33.7,0,67.3,0,101,0c1.5,0,3.3-0.4,4.4,0.2
		c1.5,0.9,3.2,2.5,3.4,4c0.1,1-1.8,2.9-3.3,3.5c-1.4,0.6-3.3,0.3-4.9,0.3c-33.5,0-67,0-100.5,0c-1.8,0-3.6,0-6,0c0,2.2,0,3.9,0,5.7
		c0,33,0,66,0,99c0,1.3,0.5,2.9-0.1,3.9c-0.9,1.6-2.5,2.9-3.8,4.3c-1.3-1.4-3-2.5-3.9-4.1c-0.6-1-0.1-2.6-0.1-3.9c0-33,0-66,0-99
		c0-1.8,0-3.6,0-5.9c-2.3,0-4.1,0-5.9,0c-33.8,0-67.7,0-101.5,0c-1.5,0-3.3,0.4-4.4-0.2c-1.3-0.8-2.9-2.5-2.9-3.8
		c0-1.3,1.7-3,3.1-3.7c1.2-0.6,2.9-0.2,4.4-0.2c33.7,0,67.3,0,101,0c1.8,0,3.6,0,5.8,0C144.6,362.4,144.6,329,144.6,295.2z
		 M147.5,287c76.3,0.3,139.1-62.2,139.5-139c0.4-76.5-62-139.6-138.5-140C71.4,7.6,8.4,69.8,8.1,146.5
		C7.7,224.1,69.8,286.7,147.5,287z"/>
</g>
</svg>
