<?xml version="1.0" encoding="utf-8"?>
<!-- Generator: Adobe Illustrator 19.2.1, SVG Export Plug-In . SVG Version: 6.00 Build 0)  -->
<svg version="1.1" id="Layer_1" xmlns="http://www.w3.org/2000/svg" xmlns:xlink="http://www.w3.org/1999/xlink" x="0px" y="0px"
	 viewBox="0 0 1080 244" style="enable-background:new 0 0 1080 244;" xml:space="preserve">
<style type="text/css">
	.st0{fill:#E18578;}
	.st1{fill:#F5DBD9;}
	.st2{fill:#C54E55;}
	.st3{fill:#BE6378;}
	.st4{fill:#F8D1C8;}
	.st5{fill:#EEA0A4;}
	.st6{fill:#E8AFB6;}
	.st7{fill:#E79A93;}
	.st8{fill:#FD7A0E;}
	.st9{fill:#F4D8D8;}
	.st10{fill:#AC4C76;}
	.st11{fill:#B44C67;}
	.st12{fill:#B4516E;}
	.st13{fill:#D6767A;}
	.st14{fill:#D06975;}
	.st15{fill:#F93007;}
	.st16{fill:#FDE0DA;}
	.st17{fill:#EBC3C9;}
	.st18{fill:#DA564F;}
	.st19{fill:#E5878B;}
	.st20{fill:#F6C2B8;}
	.st21{fill:#F3D7DA;}
	.st22{fill:#F4BEB7;}
	.st23{fill:#983D67;}
	.st24{fill:#EAA3A5;}
	.st25{fill:#FBB284;}
	.st26{fill:#C02C32;}
	.st27{fill:#FD860B;}
	.st28{fill:#F42E0C;}
	.st29{fill:#FD710B;}
	.st30{fill:#DD626C;}
	.st31{fill:#F0ADAA;}
	.st32{fill:#F94007;}
	.st33{fill:#9E2C3D;}
	.st34{fill:#F46722;}
	.st35{fill:#FE9768;}
	.st36{fill:#C36277;}
	.st37{fill:#9B2B45;}
	.st38{fill:#FD8C37;}
	.st39{fill:#EE8B4B;}
	.st40{fill:#FEB019;}
	.st41{fill:#F3D9DA;}
	.st42{fill:#F47D4C;}
	.st43{fill:#F7C0B1;}
	.st44{fill:#FB5A0E;}
	.st45{fill:#F9C19D;}
	.st46{fill:#F85212;}
	.st47{fill:#C12D1D;}
	.st48{fill:#EB4F14;}
	.st49{fill:#FECBB6;}
	.st50{fill:#FEEA99;}
	.st51{fill:#FCD412;}
	.st52{fill:#F8951A;}
	.st53{fill:#FEE098;}
	.st54{fill:#F99D17;}
	.st55{fill:#F84C0F;}
	.st56{fill:#FB800C;}
	.st57{fill:#E06C70;}
	.st58{fill:#F18C5D;}
	.st59{fill:#EE3B0A;}
	.st60{fill:#F4734F;}
	.st61{fill:#FDB054;}
	.st62{fill:#FDE50F;}
	.st63{fill:#C53F10;}
	.st64{fill:#DA585C;}
	.st65{fill:#F2884C;}
	.st66{fill:#F1C609;}
	.st67{fill:#FC6C18;}
	.st68{fill:#F9D7AB;}
	.st69{fill:#F9B125;}
	.st70{fill:#FEF30F;}
	.st71{fill:#EA6F3F;}
	.st72{fill:#F29E77;}
	.st73{fill:#FBF4A5;}
	.st74{fill:#F95A16;}
	.st75{fill:#2C4112;}
	.st76{fill:#E9987F;}
	.st77{fill:#13ECB9;}
	.st78{fill:#FEBE0C;}
	.st79{fill:#FB4C08;}
	.st80{fill:#F3B483;}
	.st81{fill:#E99986;}
	.st82{fill:#F18D85;}
	.st83{fill:#FE2303;}
	.st84{fill:#FEE664;}
	.st85{fill:#0DF4BB;}
	.st86{fill:#54353F;}
	.st87{fill:#3E0A0A;}
	.st88{fill:#FA9418;}
	.st89{fill:#933E02;}
	.st90{fill:#F1AF5C;}
	.st91{fill:#F78314;}
	.st92{fill:#094E14;}
	.st93{fill:#FDE4A9;}
	.st94{fill:#AC3F04;}
	.st95{fill:#FBCF9C;}
	.st96{fill:#ECB00D;}
	.st97{fill:#FEFE29;}
	.st98{fill:#432A19;}
	.st99{fill:#210508;}
	.st100{fill:#652A11;}
	.st101{fill:#FEFEE5;}
	.st102{fill:#D7D035;}
	.st103{fill:#FBBF16;}
	.st104{fill:#FC8015;}
	.st105{fill:#E07D23;}
	.st106{fill:#F65D2A;}
	.st107{fill:#F77E1D;}
	.st108{fill:#FD720F;}
	.st109{fill:#ED3C13;}
	.st110{fill:#FDB346;}
	.st111{fill:#ED806D;}
	.st112{fill:#FA4708;}
	.st113{fill:#F83E09;}
	.st114{fill:#41D547;}
	.st115{fill:#FEFAED;}
	.st116{fill:#F9C991;}
	.st117{fill:#DDB1BD;}
	.st118{fill:#D26D7B;}
	.st119{fill:#CD6B7B;}
	.st120{fill:#F79385;}
	.st121{fill:#EF8D99;}
	.st122{fill:#EA4517;}
	.st123{fill:#F0AAAF;}
	.st124{fill:#E83E2C;}
	.st125{fill:#FEB17C;}
	.st126{fill:#F7D69B;}
	.st127{fill:#F1A1BA;}
	.st128{fill:#F9AFA4;}
	.st129{fill:#FEFDEE;}
	.st130{fill:#ECE0C0;}
	.st131{fill:#DA3618;}
	.st132{fill:#FEE1AB;}
	.st133{fill:#FDCD10;}
	.st134{fill:#EDA369;}
	.st135{fill:#F06B3F;}
	.st136{fill:#FECD36;}
	.st137{fill:#FEF4A0;}
	.st138{fill:#FEF5A1;}
	.st139{fill:#FEED77;}
	.st140{fill:#FED355;}
	.st141{fill:#FEF9C5;}
	.st142{fill:#FEAC3F;}
	.st143{fill:#CE8595;}
	.st144{fill:#E78B7D;}
	.st145{fill:#F8490E;}
	.st146{fill:#FD752D;}
	.st147{fill:#F0871E;}
	.st148{fill:#FCA25F;}
	.st149{fill:#FE9C3E;}
	.st150{fill:#F3947E;}
	.st151{fill:#F6AE15;}
	.st152{fill:#FA7E1B;}
	.st153{fill:#FEEDBA;}
	.st154{fill:#FECC30;}
	.st155{fill:#FEDA14;}
	.st156{fill:#FEFEEE;}
	.st157{fill:#FEE37E;}
	.st158{fill:#FEF7D5;}
	.st159{fill:#FEFEE8;}
	.st160{fill:#FEFDF0;}
	.st161{fill:#FEFEED;}
	.st162{fill:#FEFEEC;}
	.st163{fill:#FEFEF1;}
	.st164{fill:#F68464;}
	.st165{fill:#FEF3C7;}
	.st166{fill:#FEF0B1;}
	.st167{fill:#FECB59;}
	.st168{fill:#F7EFB7;}
	.st169{fill:#FEDA61;}
	.st170{fill:#FEFDF5;}
	.st171{fill:#F28E85;}
	.st172{fill:#F49F59;}
	.st173{fill:#FEFCF0;}
	.st174{fill:#FEFCEC;}
	.st175{fill:#FDDF6E;}
	.st176{fill:#FEFDE2;}
	.st177{fill:#FBC9B3;}
	.st178{fill:#FEFBE6;}
	.st179{fill:#FED560;}
	.st180{fill:#FAE780;}
	.st181{fill:#FEF5C6;}
	.st182{fill:#FEFACD;}
	.st183{fill:#FCE86F;}
	.st184{fill:#FC3F05;}
	.st185{fill:#F6B553;}
	.st186{fill:#FBE1C7;}
	.st187{fill:#FCFCFC;}
	.st188{fill:#FEF5BF;}
	.st189{fill:#FEFEF5;}
	.st190{fill:#FCAA78;}
	.st191{fill:#FDFDF9;}
	.st192{fill:#FDE606;}
	.st193{fill:#FEFAE6;}
	.st194{fill:#009D50;}
	.st195{fill:#FEFDE6;}
	.st196{fill:#FEFDE3;}
	.st197{fill:#FEFEC7;}
	.st198{fill:#FEF08C;}
	.st199{fill:#FEF6E6;}
	.st200{fill:#F4FEE6;}
	.st201{fill:#F8ECB7;}
	.st202{fill:#FEFEFA;}
	.st203{fill:#FEFBF6;}
	.st204{fill:#FEFEF2;}
	.st205{fill:#FEE475;}
	.st206{fill:#F64D1C;}
	.st207{fill:#FA5514;}
	.st208{fill:#FE4406;}
	.st209{fill:#E95B0E;}
	.st210{fill:#F42F07;}
	.st211{fill:#FED44E;}
	.st212{fill:#FA2103;}
	.st213{fill:#51C97A;}
	.st214{fill:#F65B23;}
	.st215{fill:#FEFCC6;}
	.st216{fill:#FEFDF7;}
	.st217{fill:#FEFEE3;}
	.st218{fill:#FEFEF3;}
	.st219{fill:#FEF9B8;}
	.st220{fill:#FEFBF8;}
	.st221{fill:#FEE56F;}
	.st222{fill:#FEF581;}
</style>
<g>
	<path class="st0" d="M996,117.8c-2.1-2.6-7.7-3-9.8-0.4c-2.1,2.6-4.5,1.3-6.7,1.2c-2-0.1-2-2.4-1.5-3.6c1.7-4.4-0.5-8.6-0.1-12.8
		c0.1-1.5,0.2-3,0.3-4.4c2.1-0.5,3.8-1.7,5.4-3.1c0.7-1.1,3.1-1.3,1.3-3.6c-1-1.3,0.5-2.7,1.9-3.4c1.4-0.7,2.9-0.2,3.3,1.2
		c1.3,5.5,5.2,4.8,9.1,4.4c1.3-0.1,2.7-0.4,3.1,1.4c-0.6,1.6-2.1,2.5-2.9,4c-0.7,1.3-1.9,2.8-0.3,4c1.7,1.2,3.5,0.5,4.8-1.1
		c0.7-0.8,0.5-1.9,1-2.8c0.6-0.5,1.2-0.7,1.9-0.7c3.5,0.4,7,1.7,9.5-2.4c1.1-1.8-0.7-4,1.2-5.4c7.4-0.4,14.4-3.6,21.9-3
		c0.5-0.1,0.9,0,1.4,0.1c1.1,0.3,2.1,1.1,2.9,1.8c2.3,1.9,3.4,0.7,4.3-1.4c0.7-3.9,1.6-7.7,5.9-9.3c0.5,0,0.9,0.1,1.3,0.3
		c0.7,2.9,2.7,5.2,2.9,8.4c0.1,2.5,2.8,0.7,4,1.7c5.9-0.6,12,0.6,17.8-1.1c0,4,0,8,0,12c-3.4,0.7-6.5,2.4-10.2,1.8
		c-2.1-0.3-4.5,0.7-6.4,2.2c-1.6,1.3-3.3,2.2-5.5,1.4c-1.6-1.4-2.7-3.2-4.1-4.8c-0.7-0.9-3.5,1.7-5.7-0.7c0.9,2.7,2.3,4,4.1,4.9
		c1.4,0.7,2.8,1.4,2,3.3c-1.1,1.2-3.1,1-4.3,2.4c2.2,1.6,5.7,2.4,4.5,6.3c-2,1.2-3.9,2.4-6.4,1.9c-3.4-1.7-6.7-3.6-10.3-0.3
		c-1.1,1-2.8,0.5-4.1-0.6c-3.7-3.5-7.5-6.2-12.6-2.4c-1,0.7-2.7,0.7-3.2-0.3c-1.8-3.1-3,0.4-4.5,0.2c-1.9-0.6-1.6-2.2-1.9-3.6
		c-0.4-1.7-0.6-4.2-2.9-3.9c-2.4,0.3-4,2.2-4.3,4.8C1003.5,118.8,1003,119.1,996,117.8z"/>
	<path class="st1" d="M956,58.8c-5-3.7-2.4-9-2.3-13.7c0.2,3,0.3,6.1,0.5,9c1.9,0.5,1.5-1.2,2.2-1.7c1.6-1.3,2.3-3.9,5-3.5
		c2.8,0.5,2.3,2.8,2.7,4.7c0.2,1.3,1.1,2.1,2.4,2c1.3-0.1,1.5-1.3,1.4-2.3c-0.3-4,2-4.4,5.3-4.6c20.6-1.1,41.2-1.3,61.7-0.8
		c15,0.3,30,1.9,45,2.9c0,4.7,0,9.3,0,14c-1.1,1.1-2.3,2.2-3.9,1.2c-2-1.2-2.3-2.6-0.8-3.3c-1.9,1.5-5.1,1.3-8.3,1.4
		c-8.7,0.1-17.4,1.5-26.1,2.2c-2.8-1.2-4.2-5.4-8.3-4.2c-4.9-2.2-10.3-1.9-15.3-2c-5.4-0.1-11.3-1.8-16.6,1.1c-0.6,0.3-1.4,0.3-2,0
		c-5.9-2.5-11.7-2.6-17.8-0.7c-1.2,0.4-2.6-0.2-3.5,1.1c-0.7,0.9-2.1,1.3-2.6,0.6c-1.9-2.9-3.1-1.4-5,0c-2.3,1.6-4.4-2.9-7.3-0.6
		C959,64.1,957.9,60.3,956,58.8z"/>
	<path class="st2" d="M1018.1,160.9c-1,0.1-2.3,0.7-2.8-0.3c-1-2.1-1.6-2.2-3.5-0.7c-2.1,1.6-4.4,1.7-5-1.8c0.3-0.7,0.9-0.9,1.6-1
		c1.6-0.3,3.4-0.1,3.8-2.3c0.1-0.5-0.2-1-0.8-1c-1.6,0.2-3.3,0.1-4.6,1.3c-0.8,0.8-0.9,2.1-2,2.8c-0.9,0-1.8,0-2.7,0
		c-1.4-0.9-1.7-2.7-3.4-3.5c-5.4-2.5-7.1-7.3-4.8-13c0.3-0.4,0.6-0.8,1.1-1c1.3-1,2.8,0.2,4.3-0.3c0.5,0.3-0.4-0.6-0.4,0.1
		c-3.1-0.9-3.1-3.7-3.6-6.1c0.2-0.8,0.6-1.3,1.4-1.5c3.9,0.5,5.9,3.6,8.3,6.1c-0.8-0.9-1.8-1.5-2.2-2.6c-0.7-2,0-3.7,2.2-2.8
		c2.1,0.8,4.3,0,6.1,1c1.2-2.8-2-7,2.9-8.5c5.3,3.4,5.8,4.8,4,11c-0.3,0.9-0.3,1.6,0.6,2.1c0.8,0.6,1.5,1.3,2,2.1
		c1.7,2.8,3.8,2.9,5.9,0.5c2.1-2.5,3.2-1.1,4.4,0.7c2.4,2.7,5.1,0.9,7.6,0.3c1.6-0.4,3.1-1.3,4.1-1.2c-1.2,0.2-3-1.1-4.9-0.8
		c-1.3-0.3-2.1-1.1-1.9-2.5c1-1.8,4.2-3.4,0.4-5.8c-1.3-0.8-0.5-2.4,0.5-3.5c1.2-1.4,3-2.1,4.4-1c4.1,3,8.3,5.6,13.3,7.1
		c1.8,0.6,0.9,3.1,0.9,4.9c-0.2,0.4-0.5,0.8-0.8,1.2c0.4-0.3,0.5-0.8,0.8-1.1c-0.2-3.7,2.5-5.6,5-7.5c1.2-0.9,3.4-1.6,3.8,0.3
		c1,5.3,3.5,2.3,5.6,1.3c3.8-1.8,7.3-1.2,10.5,2.3c0,5.7,0,11.3,0,17c-3.5-1.7-6.5,2.8-10,1c-4.6-4.1-9.3-3.3-14-0.1
		c-2.2,0-4.2,0.8-5.5-2.4c-0.9-2.3-7-1-8.6,1.7c-0.7,1.2-1.5,1-2.5,1c-1.8,0.1-3,1-2.5,2.7c1.7,5.6-2.2,4.1-4.9,4
		c-0.7-0.7-0.6-3-2.1-2c-3.7,2.4-8-2.5-11.3,1.3C1018.4,160.2,1018.3,160.6,1018.1,160.9z"/>
	<path class="st3" d="M1055,139.8c0.6-5.5-6.1-3.8-7.4-7.4c-3.3,1.3-4.3-1.4-5.8-3.2c-1.5-1.8-3.2-1.6-4.7,0.1
		c-1.9,2.1,0.4,2.1,1.4,3c3.7,3.5-0.5,4.1-2.3,5.6c-0.8,0.5-1.3,0-1.6-0.7c-0.1-0.6-0.1-1.9-0.3-1.9c-6.9,1.2-4.5-4.8-6-7.7
		c-0.1-0.1,0.1-0.3,0.1-0.5c1.9-0.9,1.5-4.2,4.3-4.1c2.6,0.4,5.2,3.1,7.8,0c3-1,6-2,9.3-2.1c5,0.7,5.6,0.1,4-4.4c-0.4-4-2.8-5-6.6-4
		c0.8-4.2,3.5-5,6.8-4.8c0.8-1.6,0.2-5.2,3.9-2.9c3.6-0.1,5.5-3.9,9.3-4c4.2-0.1,8.4-1.6,12.6-1c0,12,0,24,0,36
		c-3.7-0.9-7.1-4.2-11.2-0.4c-0.9,0.8-3,2.5-5.3,0.8c-2-1.5-0.8-2.7,0.3-4.6C1058.6,132.8,1057.7,137.3,1055,139.8L1055,139.8z"/>
	<path class="st4" d="M0,55.8c3.2-0.5,5.8-2.7,9.4-2.3c2,0.2,2.8-4,6.5-3.9c4.6,0.2,9.1-0.4,13.4,2.1c0.1,0.1,4.5,4.6,3.8-1.5
		c-0.1-1.2,3.9-2.6,5.1-1.8c2.3,1.6,4.7,0.6,7.2,1.1c-0.4,1.9-3.6,1.2-2.8,4c2.6-1.2,6.2,0.2,8.4-4.3c0,8.1,0,15.3,0,22.5
		c0,1.6-0.2,3.2-2.3,3.1c-8.9-0.3-17.9,1-26.8-0.7c1.4-2,3.6-1.4,5.5-1.5c5.6-0.1,11.3,0,16.9,0c1.9,0,3.9,0.3,3.5-2.6
		c-0.3-2.2,0.3-5.1-3.3-5c-2.5,0-4.5-0.9-6.3-2.5c-3.1-2.7-6.4-0.9-9.5-0.2c-2.5,0.6-4.8,1.4-7.1-0.5c-0.9-0.8-2.5-1.2-3.3-0.5
		c-3.5,3.1-8.4,1.8-12.2,4.2c-1.8,1.2-4.1,0.6-6.2,0.4C0,62.5,0,59.2,0,55.8z"/>
	<path class="st5" d="M0,65.8c3.8-0.8,7-4.1,11.2-2.7c1.8,0.6,2.1-0.9,3.1-1.6c2.7-1.8,5.9-3.9,8.8-0.4c1.7,2,2.9,0.4,4.4,0
		c4.6-1,9.4-3.8,13.2,1.7c0.6,0.9,1.7,0.9,2.7,0.9c4.7,0,7.5,4.3,5.8,8.9c-0.7,1.8-2.3,1-3.4,1c-8,0.2-16,0.2-24,0.3
		C14.6,74,7.3,73.9,0,73.8C0,71.2,0,68.5,0,65.8z"/>
	<path class="st6" d="M1040.2,65.8c3.1-0.4,5.7-4.3,9.5-0.8c1.1,1,2.5-2.3,4.9-2.3c2.8,0,5.4,1,8.4,0.4c4.8-1,10,0.6,14.9-2
		c0,2.5-3.4,1.3-2.3,3.4c1.1,2.2,3,0.3,4.5,0.3c0,3.3,0,6.7,0,10c-1.2,1.3-2.8,2.6-4.3,1.4c-5-4-10.5-0.4-15.6-1.4
		c-2.4-0.5-4,1.9-5.1,4l-0.5,0l-0.5,0c-3.1-0.7-1.5-2.9-1.6-4.6c-0.1-1.5,0.1-3.4-2.4-1.9c-5.9,3.6-8.1,3.1-11.8-2.8
		C1038,67.8,1038.2,66.3,1040.2,65.8z"/>
	<path class="st7" d="M1055,78.9c-0.5-3.3,2.5-6.5,6.5-5.7c3.3,0.6,6.4,0.1,9.6,0.1c1.2,0,4.5-3,4.5,1.9c0,1.6,2.8-0.6,4.3-0.3
		c0,4,0,8,0,12c-4.5-0.5-8.8-1.8-13.7-0.8c-2.8,0.6-3.8,1.6-4.6,3.8c-3,0.1-6.1,0.6-4.9-4.4C1057.3,83.4,1053.4,81.7,1055,78.9z"/>
	<path class="st8" d="M1061.7,89.8c-1.7-2.4-1.3-4.9,1.6-4.9c5.6,0,11.7-3.2,16.7,1.9c0,0.3,0,0.7,0,1
		C1074.4,92.7,1067.8,88.8,1061.7,89.8z"/>
	<path class="st9" d="M569,53.8c1.6,1.1,3.8,1.7,5.2,0.9c5-2.8,10.5-1.6,15.6-2.7c3.5-0.7,6.2,2.9,9.8,1.6c0.4-0.1,1.6,1.4,2.2-0.1
		c1-2.4,3.1-1.6,4.7-1.6c10.8-0.1,21.5,0,32.3,0c2,0,3.7,0.1,5.6,1.3c2.1,1.3,4.8,2.4,7.1-0.4c0.5-0.5,1.5-1,2.2-0.9
		c6.6,1.1,13.1-2.2,20,0.8c2.8,1.3,7.7-0.4,11.4,1.5c0.1,0.1,0.4,0,0.5-0.1c3.6-7.7,5.3,0.9,8.4,0.8c1.1-4.5,4.2-4,8.3-3.7
		c5.3,0.5,10.9,2.8,16.1-1c1.5-1.1,4.5-1.2,5.7,0c2.9,2.8,5.8,1.9,9.2,1.9c15.7-0.1,31.3-1.9,46.9-1.9c13.7-0.1,27.3-1.9,41.1-1.6
		c4.8,0.1,9.8-0.4,14.5-3.6c2.5-1.7,8.1,0.1,11.9,1.6c8.1,3.2,16.3,2.2,24.5,1.8c1.9-0.1,2.8-1.1,3.1-3.8c1-8.6-0.3-17.2,1.1-25.8
		c-0.2,12.3,1.3,24.7-0.4,37c-1.9,0.6-3.8,1.1-3.6,3.8c0.1,1.4-1.2,1.8-2.4,1.9c-6.1-0.4-12.2-0.3-18.4,0.2
		c-5.3,0.4-10.8-0.5-16.3-0.6c-4.2-0.1-8.2,1.6-12.2,1.2c-8.2-0.9-16.5,2.2-24.6-1c-1-0.4-2.1-0.1-2.9,0.5
		c-5.7,3.6-11.8,2.2-17.8,1.6c-2.6-0.2-4.8,0.2-7.2,1.2c-4.3,1.9-8.8,2.2-12.9-0.9c-0.2-2.6-0.5-5.1-0.7-8.2
		c-2.9,1.7-5.5,2.4-5.4,6.3c0.2,6.6-1.3,7.3-8.1,4.8c-2-0.4-3.3-2.1-5.1-3.1c-1.1-0.6-1.7-1.6-1.2-2.9c0.6-1.7,2-1.4,3.3-1
		c-6.9-2-9-0.9-8.2,4.1c-0.9,3.2-4.1,2.9-6.4,4.1c-3.2,1.6-4.4-0.8-5.6-3.1c-0.8-1.4-1.7-0.9-2.9-0.1c-4.5,3.1-9.1,2.7-13.7,0.1
		c-2.7-1.6-5.8-1-8.8-0.8c-7.7,0.6-15.2,0.6-22.7-1.4c-2-0.5-4.2,0.5-6.2-1.3c-1.2-1.1-2.4,0.3-3.2,1.5c-1.2,1.6-1.8,1.2-3.8,0.4
		c-5-2.2-10.9-2.4-16.1-1.4c-3.5,0.7-4.4,0.4-5-2.6c-0.3-1.2-0.5-2.7-2.2-3c-1.9,2.3,1.1,5.6-1.3,7.4c-2.3,1.7-5.4-0.7-7.7,0.4
		c-3.5,1.7-6.1,0.1-9.2-0.7c-5.3-1.3-10.8-0.9-16.1,0.9c-2.1,0.7-4.2,2.9-5.3-1.1c-0.3-1-1.3-1-2.1-0.6c-5,2.3-10-0.9-15.2,0.2
		c-1.8,0.4-1.3,2.4-2.7,1.9c-3.5,1.5-7.9,0.5-10.9,3.8c-0.4,0.5-1.3,0.3-1.9,0c-9-4.5-17.8-3-27.2-0.7c-4.5,1.1-9.9,0-14.9-0.1
		c-2.5-0.1-5-0.2-7.4-0.8c-3-0.8-4.8,0.4-6.6,2.4c-0.5,0.2-0.9,0.1-1.3-0.2c0-3.7,0-7.3,0-11c2.7-0.4,5.3-1.7,7.7,1
		c1.3,1.5,2.2-0.1,3-1.3c1.7-2.8,4.2-3.1,6.9-1.7c3.2,1.7,6.6,1.8,10.1,1.8c3,0,5.9,0,8.7,1.3c3.1,1.4,6.2-1.1,9.6-0.6
		c1.8,0.3,3.9,0.1,5.9,0c2.2,0.2,2.9-1.7,4.1-2.9c0.7-0.3,1.3-0.3,2,0.1c1.2,1.1,1,3.3,2.9,3.6c-2-2.4-2-2.4,0.8-5.5
		C568.2,53.4,568.7,53.5,569,53.8z"/>
	<path class="st10" d="M659.1,139.9c-0.4-7.9-0.4-7.9-8.3-7.9c-8.2,0-16.4-0.2-24.6-0.2c-1.6,0-1.5-1.1-1.4-2c0.8-4.8-1-5.4-5.6-5
		c-8.7,0.7-17.6,0.3-26.3,0.2c-2.4,0-4.4,0-3.8,3.3c0.4,2.3-0.7,2.7-2.8,2.6c-7.4-0.2-14.9-0.1-22.3-0.2c-0.2-0.5,0-0.9,0.5-1.2
		c-5.9-2.1-11.4-6-18.3-4.1c-1.9,0.5-3.5-0.2-5.2-1.1c-1.8-1-3.6-1.9-5.3,0.3c-0.9,0.8-0.2,1.9-0.4,2.9c-0.4,1.4-0.7,2.9-0.7,4.4
		c0,4.6-0.6,4.9-5.2,3.8c-5.8-1.3-10.6-3.8-12.6-10.1c-2.5,2.3-4.6,4.3-7.6,2.3c2-2.4-1.1-4.5-0.3-7c0.6-1.8,0.2-3.9,0.2-5.9
		c2.6-4.4,7.3-4.4,11.4-4.6c4.7-0.2,3.5,4.3,3.7,6.9c0.2,2.3-0.2,4.3,2.7,4.9c1.9,0,1.9,2.2,3.5,3c-0.2-2.6-2.1-4.3-1.9-6.6
		c-0.8-2-6.4-2.6-1.7-6.1c0.6-0.3,1.3-0.4,2-0.4c2.7-0.7,5,2.2,7.8,0.6c1-0.6,1.8-1.3,2.2-2.5c0.4-1.5-1.2-3.5,0.7-4.5
		c1.9-1,3.7,0.8,5.6,1c0.3,0,0.6,0.3,0.8,0.5c1.4,1.6,4,1.4,5,3.5c0.9,3.9,4.2,5.7,7.2,7.7c0.9,0.6,1.8,0.8,2.7,0
		c1-0.8,0.7-1.7,0.3-2.7c-0.8-1.6-1.2-3.1,0.1-4.6c4-3.3,8.8-3.1,13.5-3.6c5,1.2,10,3.5,15.3,1c4.7,0.7,9.3-2.5,14-0.2
		c2.5,0.3,5,1.3,7.3-0.3c6.1-1.6,12-1.8,17.8,1.2c1.9,1,3.5,0.3,5-0.9c3.7,0.1,7.4-2,10.9,0.5c-0.5,1.5,1.4,2.1,1.2,3.5
		c-1.6,2.4-3.9,1.9-6.2,1.8c-8.6-0.2-17.2-1.1-25.6,1.3c-0.8,0.2-1.6,0.5-2.3,1c1.7,0.4,3.1,0.1,4.5-0.9c1.7-1.3,3.7-0.8,5.6-1
		c8.1-1.2,15.9,1.8,23.9,1.8c2.8,0,4.3,0.6,3.1,3.7c-0.3,0.9-1.5,1.5-0.9,2.6c2.5,4.9-0.3,4.3-3.4,3.3c-1.6-0.5-3.3-0.5-3.7,1.2
		c-0.5,1.7,1,2.2,2.5,1.9c0.8-0.3,1.6-0.7,2.3-1.2c3.9-1.5,7.7-3.1,6.7-8.4c1-0.7,2.1-1.1,3.2-1.5c2.2-0.4,3.6-3.4,6.4-2.1
		c1.3,2.1,1.7,4.7,4,6.1c0.5,2.8-2.6,3.1-3.5,5.1c2.1-2.8,3.5-0.9,5.1,0.6c3.3,3-1.3,3.9-1.6,6c1.1,1.8,3.1,1,4.5,1.6
		c1.2,0.5,2,1.2,1.8,2.6c-0.1,0.9-0.6,1.8-1.5,1.7c-4-0.7-7.7,0.8-11.5,1.3C659.5,140.6,659.2,140.2,659.1,139.9z"/>
	<path class="st11" d="M659.1,139.9c3.8-1.1,7.4-3.3,11.6-1.5c0.2,0.1,0.9-0.4,1-0.7c0.3-0.7-0.1-1.3-0.8-1.6
		c-0.6-0.2-1.4,0-1.9-0.3c-1.5-0.6-3.9,1.6-4.6-1.9c-0.7-3.6,2.3-2.8,4.2-4c-1.2-1.2-3-1.8-3-3.8c-2.3,1.2-0.9,4.2-3.5,4.4
		c-0.6-3.5-0.6-3.5,3.9-8.5c-0.5-0.6-1.7-1.6-1.3-1.8c3.4-2.1,0.9-4.7,0.9-7.2c-0.1-2.8,1.6-4.9,4.2-5.4c2.4-0.5,4.1,0.9,4,3.7
		c-0.1,0.5-0.3,0.9-0.6,1.3c-0.9,1.2-2.6,3.6,0.3,3.1c3.7-0.7,7.2-0.4,10.8-0.7c1.8-0.1,3.1-1.1,4.2-2.4c2-1.7,3.6-1.4,4.7,1
		c0.7,1.6,1.3,3.3,2.8,5.7c-2.2-5.6-1.4-8.3,2.5-11.7c1.6-1.4,2.4-0.3,3.2,0.7c2.6,3.2,4.7,7.1,9.5,7.2c2.3,0,0.2,2.9,3.1,3.3
		c3.6,0.5,7,0,10.5,0.2c0.2,14.2,0.4,28.4-0.2,42.6c-5.4-2.7-10.1-6.2-13.2-11.7c-1.6-2.8-4.1-5.1-7.5-1.4c-1.4,1.5-3.1,0.6-4.5-0.5
		c-1.6-1.3-3.4-2.1-5.2-2.8c-0.2-0.2-0.4-0.4-0.5-0.5c0.2,0.1,0.3,0.3,0.5,0.7c3.1,6.8-1.4,10.8-5.5,14.9c-2.1,2.1-6.3,0.9-6.8,0
		c-2-3.3-7.9-2.7-7.7-7.9c-1.3,0.1-2.6,0.7-4,0.2c-0.9-0.2-1.7,0-2.5,0.4c-2.5,2.8-5.3,4.1-8.9,2
		C659.1,149.9,659.1,144.9,659.1,139.9z"/>
	<path class="st12" d="M342.1,132.9c0-0.4,0-0.7,0-1.1c0.9-6.1,0.2-12.3,0.4-18.4c0.2-2.1,0.5-4.2,3.2-4.1c2.5,0.1,3.5,1.9,3.9,4.3
		c2.2-4.3,9.1-4.5,17.4-0.7c0.9-5.1,3-7.4,6.1-6.7c2.8,0.7,3.6,4.1,2.3,8.9c2.5,2.1,2.7-4.5,5.5-1.4c0.4,0.5-0.2-0.2,0.3,0.3
		c-0.1-0.1-0.2-0.2-0.3-0.3c-0.3-1.1-2.4-1.2-1.6-2.7c0.5-1,1.7-0.8,2.7-0.6c2.6,0.5,4.9,0.4,6.8-1.8c1.1-1.3,2.5-1.3,4.1-0.6
		c1.9,0.8,3.3,1.3,4.9-1.2c1-1.6,3.7-1.4,4.6,1.2c0.5,1.4,1,2.6,2.7,2c5.4-1.9,10,1,15,2c-0.1,6.7-0.1,13.3-0.2,20
		c-2.6,2.7-4.7,3.2-7.8,0.2c-2.3-2.1-5.6-3.1-7.9-5.7c-1.9-2.2-5.4-0.7-6.9,2.9c-1.2,3.1-2.7,6.1-3.5,9.3c-0.4,1.7-1.2,3.3-3.4,1.6
		c-6.2-4.6-7.6-4.3-12.1,2.4c-0.2,0.3-0.5,0.5-0.7,0.7c-3.1,0.7-6,2.6-9.5,2c-0.7-0.4-1.1-0.9-1.4-1.5c-0.3-1.9-0.2-4.1-3.1-4.2
		c-1.7-0.1-2.6-1.3-2.6-3.1c0-1.1,0-2.4-1.6-2.7c0.8,3.9-0.9,7.5-1.8,11.1c-2.5,1.1-5.6-0.8-7.8,1.9c-0.6,0.7-2.4,0.3-3.2-0.7
		c-1-1.2,0.1-2.1,0.8-3c0.8-1,1.7-2,2.3-2.7C345.7,139.2,343.5,136.5,342.1,132.9z"/>
	<path class="st13" d="M203.9,126.7c0,2.1,0,4.1,0,6.2c-1.9,0.1-3.9-1.1-5.8,0.9c-1.4,1.4-3.2,0.8-4.4-1.3c-2.1-3.6-2.2-3.5-4.4,0.6
		c-1.5,1.4-2.2,2.8-5.1,0.9c-3.6-2.3-7.2-6.2-12.5-4.8c-0.5,0.1-1.1-0.4-1.7,0.4c-2.7,3.9-4,3.8-6.1-0.3c-0.5-0.9-0.6-1.9-1.6-2.9
		c-2.1,2.2-4.5,3-7,0.4c0-10,0-20,0-30c1.1-3,3.4-4.4,6.5-4.5c4.9-0.2,7,3.2,4.9,7.8c-0.4,0.9-0.9,1.8-0.8,2.5
		c5.3-1.3,9.8-4.5,15.1-5.9c3.8-1,5.7,0.6,5.5,5.6c0-0.4,1.2-1.3,0.5-1.1c-0.3,0.1-0.4,0-0.3-0.3c0.2-2.8,0.8-4.9,4-2.2
		c0.5,0.4,0.9,1.4,1.5,1c4.9-4.1,8.2,0.3,12,2.2c0,3-0.1,6-0.1,9c-1.5,3.4-3.7,3.2-6.4,1.4c-0.7-0.5-1.5-0.7-2.2,0.1
		c-0.2,0.2-0.3,0.6-0.1,0.9c0.4,0.7,1,0.7,1.7,0.7c5.5,0.5,6.5,1.7,6.7,7C203.6,122.9,202.5,124.9,203.9,126.7z"/>
	<path class="st14" d="M874,97.9c0,4.8,0.1,9.5,0,14.3c0,1.5,0.9,3.3-1,4.5c-7,1.6-7,1.6-13.2-3.8c-0.7,4.5-2.8,7.6-7.6,7.1
		c-0.6,1.5,0.6,1.9,1.1,2.7c0.6,1,1.6,1.8,0.7,3.1c-0.7,1-1.8,0.7-2.7,0.5c-3.9-0.7-6.6,0.3-8,4.5c-0.6,1.9-2.4,3.4-5.2,1.9
		c-1.7-0.9-4-1.2-5.9,0.3c-2.8,0.4-5.6,0.5-7.4,3.5c-0.9,1.5-2.8,2.3-4.8,1.5c-0.1-10,0-20-0.2-30c0-2.3,0.9-3.9,2.1-5.5
		c-0.7-1.4,0.4-2.2,1.1-1.6c2.1,1.8,5.1,1,7.1,2.7c0.1,2,1,3.6,2.2,4.9c2-2.4,4.3-5,7.5-4.6c3.7,0.5,4-0.9,3.3-3.7
		c-0.3-1.1-0.7-2.3,0.7-3c0.9-0.4,2-0.2,2.8-0.8c3.4-2.3,3.4-2.3,5.5,1c-1.2-1.7-0.7-2.8,1.1-3.5c5.1,0.5,10.1-0.5,15.1-1.6
		C871.4,93,874,94.1,874,97.9z"/>
	<path class="st15" d="M669.4,150.9c2.2,0.5,5.1,3.1,4.9-3.1c1.1,3,0.6,5.2,2.3,7c1.2,1.3,1.2,3.1,3.4,1.2c1.1-1,1.4,0.9,2.2,1.2
		c-1.5,3.2-0.4,2.9,2.1,1.8c1.6-0.7,6.2-2.2,6.9-2.9c2.5-2.6,4.3-5.3,2.1-9c-0.3-0.5,0.4-1.5,0.6-2.3l0,0c0.9-0.1,2.3-0.7,2.8-0.3
		c3.1,2.7,6,5.2,9.7,0.6c0.7-0.9,2.6,0.1,3.5,1.1c2.4,2.7,4.8,5.4,6.8,8.3c1.6,2.3,4.1,3.2,6.6,1.7c1.3,1.5-0.9,4.1,1.4,5.3
		c0,3.5,0.1,6.9,0.1,10.4c-3.1,4.6-7.9,2.8-12.1,3c-1.1-2.1,1.6-3.1,1.3-5.4c-4.8,0.7-5.5-2.9-6.3-6.3c0.5-0.6,0.8-1.3,1.3-2.1
		c-0.8,0.7-0.8,1.7-1.3,2.4c0.4,4-1.5,5-5,3.8c-2.1-1.6-4.2-2.5-5.8,0.5c-0.4,0.7,0.4,0.5,0.5,0.4c0.5-2.8,2.2-2.7,4.3-1.6
		c2.3,1.1,2.3,3.4,2.9,5.4c0.3,1,0.7,2.1,1.7,0.4c0.2-0.4,0.6-0.7,1-0.9c1.8,0.1,3.1,1,4.1,2.3c0.7,2.8-2,3.4-3.4,4.8
		c-0.7,0-1.3,0.1-2,0.1c-4-0.9-6.3-5.3-11-5.1c0.2,2.3,1.6,5.9-3.4,4.8c-0.5-0.2-0.9-0.4-1.2-0.9c-3.3-4.9-7.4-7.1-13.2-4.6
		c-2.4,1-3.1-1.1-3.9-2.7c-0.7-0.9-0.2-3-2.1-2.7c-0.9,0.1-1.9,0.7-1,2c2.3,0.8,4.3,1.8,3.6,4.9c-0.5,2.3,0.9,2.9,2.9,2.9
		c2.3,0.1,4.6-0.1,7,0.1c1.3,0.1,3.1,0.1,3.2,1.6c0.1,1.7-1.8,1.7-3,1.8c-2,0.2-3.9,0.5-5.9,1c-6.3,0.2-12.6,1.2-18.8-0.9
		c0.7-1.9,0.7-3.8,0.4-5.9c-0.5-2.9,2.2-4,4.1-5.4c0.8-0.6,1.2-1,0.8-1.9c-0.3-0.6-0.7-1.3-1.5-0.7c-4.9,3.9-2.4-2-4-2.4
		c1-1.4,1.6-0.5,2.3-0.3c1,0.4,2.4,1.2,2.8-0.5c0.3-1.3-0.6-2-2.2-1.8c-2.5,0.3-3.4-1.5-2.5-3.4c0.8-1.6,0.6-2.7-0.2-4
		c3.3,0.2,6.1-1.1,8.7-3c0.6,0.2,0.6,1.4,1.1,1.2C669.4,152.7,669.1,151.6,669.4,150.9z"/>
	<path class="st16" d="M342,56.8c-1.2-5.3,0.7-10.8-1.6-16.5c1.4,0.5,1.8,0.5,1.9,0.7c1.6,2.2-0.9,6.3,2.1,7.2
		c5.2,1.5,10.8,2.8,16,2.4c7.6-0.5,15,0.3,22.5,0.3c10.1,0,20.1-1.8,30.2-1c1.7,0.1,3.4-0.3,5,0.1c4.2,0.8,7,0.3,6.4-5.3
		c-0.1,8.7,1.5,17-0.4,25.3c-3.7-3.8-7.8-6.7-13.5-5.3c-0.5,0.1-1.1,0.2-1.5,0c-5.9-3.2-9.6,0.1-12.9,4.4c-0.8,0.2-1.4-0.2-1.8-0.9
		c-0.8-1.6,0.6-3.1,0.2-5c-1.9,1.3-1.1,3.7-2.5,5c-0.7,0.4-1.3,0.4-2,0.2c-4.3-4.2-8.8-0.9-13.2-0.4c-1,0.6-2,1.3-3.2,1.4
		c-2.5-0.7-4.9-1.2-6.6-3.7c-1.3-2-4.1-2.3-6.1-0.5c-1.8,1.7-3.3,1.6-5.3,0.6c-4.2-2-7.9,1.4-11.9,1.2c-0.3,0-0.5,0-0.8-0.1
		C341.6,63.6,343.5,60.1,342,56.8z"/>
	<path class="st17" d="M576,63.9c1.7-0.8,0.5-2.4,0.9-3.7c1.4,0.8,2.6,3.8,4.4,0.5c0.7-1.3,1.9-0.4,3-0.1c2.9,0.8,5.8,1.7,9,0.4
		c3.7-1.4,4.4-0.6,4.5,3.1c8.1-3.2,16.1-5.1,24.5-0.3c0.8,0.5,3.5-2.3,5.9-1.2c0.2,0.1,0.7-0.4,0.9-0.3c6,2,5.7-1.3,4.4-5.3
		c-0.4-1.4-0.1-2.3,1.2-2.8c1.4-0.5,2.7-0.4,3.4,1.1c0.6,1.2,0.8,2.5,1.5,3.7c0.5,0.9-0.9,2.6,1.1,2.7c2.2,0.1,1.4-2.1,2.1-3.4
		c5.2,5,13.1-0.5,18.5,4.5c2.4-4.6,3.4-5.1,7.3-1.3c2,2,2.1-1,4-0.4c7.5,2.4,15.4,2.5,23.2,1.5c2.9-0.4,5.8,0.6,8.7-0.2
		c0.9,4.9,5,1.8,7.4,3c2.2,1.1,4.2,0.3,5.1-1.7c2-4.3,4.3-1.2,4.6,0.3c1,4.8,3.3,3.3,6.1,2.1c1.5-0.6,3.2-0.8,4.3-2.1
		c4.5-1.7,6-1.2,7.9,2.9c-0.9,0.1-1.7,0.3-2.2,1.2c-6.5,2.8-13.3,4.1-20.3,3.8c-5.2-0.2-10.3,0.8-15.3,0.6
		c-6.6-0.2-12.6,0.6-18.4,3.6c-1.8,0.9-3.5-0.1-5-1.3c-3.2-2.5-4.6-1.2-4.9,2.4c-0.8,1.2-1.5,2.4-3.2,2.2c-1.4-1-1.6-3.6-4.1-3.4
		c-2.5-1-4.9-2-7.7-1.7c-3.3,0.3-6.2-0.2-7.7-4c-0.7-1.8-2.6-1.9-4.3-1.9c-3-0.1-6-0.4-9,0.1c-6.3,0.9-12.7-0.8-18.7,0.4
		c-12.1,2.3-24-2.9-36.1-0.3C580.3,69,575.9,69.1,576,63.9z"/>
	<path class="st18" d="M831.9,132.7c0.6-6,4.5,0.4,6.2-1.6c2.5,3.7,3.8,0.2,4.5-1.1c3.6-6.2,4.3-6.6,11.2-4.7
		c-1.5-2-3.6-3.3-4.3-5.7c2-0.1,3.4-1.8,5.9-1.3c2.4,0.5,2-2.3,2.6-3.9c0.4-1.1-0.1-3.1,1.5-3c1.5,0.1,3.8,0.3,4.2,2.2
		c1.1,5.7,4,4.8,7.6,2.6c0.3-0.2,1.1,0.4,1.7,0.7c-2.5,0.3-1.9,2.1-1.9,3.7c0,9.5-0.1,19-0.1,28.6c-1,1.9-2.2,3.5-4.8,3.1
		c-1.6-0.2-2.6,1.1-3.7,1.9c-0.4,0.3-0.8,0.4-1.2,0.6c-0.2,0-0.4,0.1-0.5,0c-2-4-5-0.9-7.6-1c-0.5,0-0.9-0.2-1.3-0.4
		c-1.7-1.1-0.7-3.5-2.9-4.9c-0.4,2.4-2.1,3.8-3.9,5.1c-1.8,1.4-3.3,3.7-5-0.4c-0.6-1.5-3.5,0-5.1-0.9c-1.2-1.2-1.9-3-4.2-2.9
		c-2,0.1-3.1-1.5-4.1-3.1c-0.2-0.4-0.4-0.8-0.5-1.3c0-3.3,1.8-5.1,4.9-5.8c2.1-0.5,4.1-1.2,5.8-2.4c-1.8-0.7-3.6-1.7-4.9-3.3
		C832.1,133.1,832,132.9,831.9,132.7z"/>
	<path class="st7" d="M1039.1,69.9c1.7,0.6,2.2,2.7,4.2,3.3c2.5,0.7,4.7,1.2,5.8-1.6c1-2.4,2.1-1.3,3.6-0.7c1.9,0.8,2.8,1.7,1.4,3.7
		c-1,1.4-1.6,2.9,0,4.4c-3.7,2.3-3.7,6.4-4.9,9.9c-2.5-2.2-5.1-4.3-8.2-1c-0.2,0-0.5,0-0.7,0c-0.9,0-0.6-2.1-2.1-1
		c-1.7,1.3-3.1,0.6-4.2-0.9c-1.3-1.9-2.4-1.3-3.9-0.1c-2.2,1.8-10.1,0.7-12.2-1.3c-0.6-1.4-0.9-2.7-0.4-4.2
		c-0.6,1.2-2.9,1.4-2.1,3.4c-0.1,0.9-0.5,1.7-1.3,2.3c-3.1,0.3-5.5,1-3.9,5c0.4,1,0.1,2.3,0.1,3.4c0.3,2.6-1.2,3.8-3.5,4.4
		c-0.6,0-1.1,0-1.7,0c-3.8,0.6-1.5-3.4-3.2-4.3c-2.8-1.3-5.5,0.4-8.2,0.4c-3.2,0-3.7-0.8-3.9-3.3c-0.1-1.3-0.4-2.7-1.7-3.4
		c-0.9-0.4-1.5,0.4-2.1,1c-0.5,0.5-1.3,1-0.2,1.9c2.1,1.7,2.1,1.7-0.4,3.1c-0.5,0.3-0.8,1-1.3,1.5c-1.7-2.3-3.2-4.8-6-5.9
		c0-1.4-0.1-2.8-0.1-4.3c1.6-1.7,4.3-0.4,6.1-2.3c-1.6-1.7-3.7-1.1-5.5-1.6c-0.2,0-0.4,0-0.6-0.1c-1.2-1.6,0.1-3.5-0.5-5.2
		c-0.4-1.1,0.3-2.3,1.3-2.2c4.1,0.4,7.9-3.3,12.2-1.1c1.5,0.8,3.2,0.6,4.8,0.6c0.7,0,1.6,0.2,1.9-0.2c3.5-4.4,7-3.7,10.8-0.5
		c0.5,0.4,1.3,0.3,1.9,0.2c4.2-2.1,8.3-4.7,13.3-4c0.4,0.3,0.7,0.6,1,1c0.8,2.6,5.2,2.9,4.3,6.6c0.7-0.4,0.8-1.7,2-1.2
		c0.5,0.4,0.8,1,1,1.6c0.5,1.7,1.6,2.4,3.3,1.9c2.3-0.7,1.6-2.4,1.2-3.9c0-0.9,0.3-1.8,0.7-2.6C1037.7,71.6,1038,70.5,1039.1,69.9z"
		/>
	<path class="st19" d="M204,101.8c-1.8,0.3-3.3,1.4-4.7-1.5c-0.9-1.9-4.5-2.8-5.8,0c-1.4,3.1-2.3,0.8-3.5,0.3c-1-0.4,0.7-3.6-1.9-2
		c-1.7,1-1,2.5,0.5,3.6c0.3,0.2,0.5,0.8,0.8,1.2c-2.3,0.9-3.2-0.1-3.4-2.2c-0.3-3.7-3-4.7-5.4-3.2c-2.8,1.7-6.7,1.1-8.5,4.5
		c-0.2,0.4-0.9,1-1,1c-3.9-2.7-4.1,1.8-6.8,4.2c1.2-3.9-1.3-7,2.1-9.3c0.9-0.6,1-2.1,0.3-2.7c-1.4-1.3-3-2.6-5.1-2.5
		c-2.7,0.1-4.4,2-6.4,3.5c-0.6-3.4,0.9-6.7-0.2-10.1c-0.8-2.6,1.1-3,3.1-3.1c-0.5-2-3.6-2.2-3-4.8c3.1-1.5,4.8,0.5,6,2.7
		c1.2,2.2,2.7,2.9,4.1,1c4.4-6.1,10.4-2,15.6-2.6c1-0.1,1.1,1.7,1.4,2.8c-0.3-2.8-1.5-4.8-3.9-6c-1-0.5-1.8-1.6-1.6-2.9
		c0.3-1.6,1.6-1.4,2.7-1.3c1,0.1,1.9-0.6,2.9-0.6c6.6-0.4,7.7,1.3,5.3,8.1c-0.6,0.3,0.8,0.6,0.2,0.3c-0.2-0.1-0.1-0.2,0.1-0.4
		c4.2-2.4,8.9-2,13.4-1.8c1.3,0.1,2.5,0.9,1.3,2.3c-1.9,2.3,1.2,1.5,1.4,2.4C204,89.2,204,95.5,204,101.8z"/>
	<path class="st20" d="M996.3,74.8c-1,0.2-2.2,0.8-2.9,0.4c-3.6-2-7.1-0.8-10.8-0.4c-3.1,0.3-5.1,0.6-4.4,4.4
		c0.2,0.8-0.1,1.6-0.2,2.4c-0.8-7.1-5.9-6-10.8-6c-4.2,0-8.4-1.1-12.7-0.5c-1.2,0.2-1.5-0.6-1.5-1.4c0-2.8-0.3-5.7,0.1-8.4
		c0.4-2.8,3.4-1,5-2c-0.4-1.7-3.1-2.3-2.2-4.5c3,1.5,6,3.5,8.8-0.2c2.9,3.5,4.6,2.1,7.7-0.5c2.8-2.3,0.2,3.7,3,3.6
		c2.2-0.1-0.2-5.2,3.2-3.2c2.6,1.5,4.2,0.6,6.4-0.2c2.9-1,5.7-1.9,8.9,0.2c3.1,2,6.9,2.3,10.4,0.1c0.7-0.4,1.7-0.9,2.3-0.6
		c3.7,1.3,7.8-0.2,11.1,0.5c4.5,1,9.1,0.1,13.4,1.5c0.7,0.2,1.2,1.1,1.8,1.6c-1.7,4.2-6.8,4.6-9.1,8.1c-1,0.6-3.3-1-3.2,1.8
		c0,0.8-0.7,1.5-1.2,1.1c-3.7-2.5-5.6,1.7-8.5,2.1c-1.3-1.6-2.7-3.3-3.9-5c-1.9-2.6-2.6-2.4-5.6-1C998.3,70.3,996.5,71.4,996.3,74.8
		z"/>
	<path class="st21" d="M155,69.8c0-6,0-11.9,0-17.6c1.7-1.8,3,6.9,5.1-0.3c0.5-1.8,2.2,2,4.2,2.6c1-2.9,2.8-4.3,6.2-2.8
		c1.6,0.7,3.6,0,5.4-0.6c1.4-0.5,3.9-0.8,4.2,0.2c1.8,5.5,4.2,1.6,6.3,0.6c4.3-2.2,8.7,0.1,13.1-0.7c4.1-0.7,4.7-2.6,4.6-6
		c-0.1-13.2,0-26.3,0-39.5c0-1.6-0.5-3.3,0.9-5.7c0,10.3,0,19.8,0,29.2c0,9.5,0,19,0,28.5c0,1.7,0.7,3.7-1.1,5.1
		c-0.5,4.4-2.8,6.3-7.3,5.6c-2.5-0.4-5,0.4-7.4,1.1c-6.1,1.7-12,1.1-18.2,0.7C165.8,69.9,160.4,70.3,155,69.8z"/>
	<path class="st22" d="M758,63.8c4.7-0.2,9.7,3.2,14.2-1.6c1-1,4.1-0.9,5.7-0.1c4.1,2,8.5-1.4,12.3,1.3c5.3-5.1,11.4-1.4,17.1-1.9
		c4.7-0.4,9.4,0.4,14-0.5c6.9-1.4,13.9-1.7,20.8-1.1c8.6,0.8,17.1-0.7,25.7-0.1c0.7,0.1,1.5,0.6,2.2,0.9c-0.2,4.7-3.8,6.1-7.3,6.7
		c-5.8,1-11.8,2.8-17.5-0.6c-1.5-0.9-3.2-0.5-4.8-0.1c-2.3,0.8-2.5,2.7-3,4.7c-1,4.7-4.5,6.2-8.6,3.7c-2.7-1.6-5.8-1.4-8.7-1.5
		c-4.4-0.1-9,0.5-11.3-4.7c-0.3-0.6-1.4-0.7-2.1-1.2c-1.4-0.6-3.1-4-3.7,0.6c-0.2,2.1-2,1.5-3.1,1.3c-2-0.4-4.7,1.4-6-1.7
		c-1.7-3.9-4.5-2.8-6.5-0.7c-2.9,3.3-6.5,3.8-10.2,3c-3.3-0.7-6.4-0.7-9.7,0.1c-5.6,1.4-9-0.1-10.2-4.1C757,65.4,757,64.5,758,63.8z
		"/>
	<path class="st23" d="M535,124.4c0.1-3.2,2.8-3.2,4.3-2.2c5.2,3.5,10.5,1.5,15.8,1.1c1.1-0.1,2-0.1,2.5,0.9
		c1.8,3.8,5.7,3.2,8.8,4.2c-0.1,1.4-1.8,1.2-2.3,2.3c-2.4,0-4.7-0.1-7.1-0.1c-2.3-0.3-4.7-1.5-7.2,0.1c0.8,0.5,1.8,0.5,2.2,1.3
		c0,4.3-0.1,8.7-0.1,13c-0.7,1.9-1.9,3.9-3.5,1.1c-2.2-4-4.5-2.4-6.8-0.7c-2.3,1.7-4.3,3.1-7.1,1c-0.5-0.4-1.5-0.5-1.9,0
		c-3.7,4.1-9.4,1.5-13.5,4c-3.1-2.8-5.9-6-10-7.5c0-5,0-9.9,0-14.9c1.8-1.3,5.8,1.5,5.7-3.3c0-0.4,2.5-1,3.2,1
		c0.4,1.2,1.2,2.3,1.8,3.4c3.1,5.2,9.1,3.9,13.8,6.9c-0.1-3.6-1.6-6.8,1.1-9.3c2-1.1,3.6,0.3,6.2,1.6
		C538.7,125.9,536.5,125.8,535,124.4z"/>
	<path class="st24" d="M673,76.7c1.2-1.4-1.6-3.7,1-4.6c2.1-0.7,4.3-0.8,5.6,1.7c1.2,2.2,4,1.7,4.8,0.8c1.9-2.2,5.3-1,6.9-3.6
		c0.5-0.7,2.2-1.2,3.2-1c10,2.5,19.9-0.4,29.8-0.1c4.5,0.1,9-1.3,13.5-2c0.2,6.1,0.2,6.1-6.1,6c-6.7-0.1-6.7-0.1-6.6,6.5
		c0,2.8-0.1,5.6-0.2,8.4c-1.6,2.7-3.6,4.2-6.7,2.1c-1.8-1.2-3.4,0.6-5.1,0.1c-0.9-2.5-2-4.7-4.7-5.6c-7.1-1.9-9.1-0.9-11.9,5.7
		c-0.3,0.8-0.7,1.5-1.4,2c-2.2,0.6-3.2-0.5-3.6-2.5c0.1-2.1,1.6-3.6,2.5-5.3c-5.5-0.5-5.5-0.5-4.3,4.9c-1.3,4-2.7,0.9-4.1,0.1
		c-1.4-3.1-3-5.9-6.9-6.3c-0.8-0.1-2.1-0.9-1.9-1.4C678.4,78.6,673.8,78.9,673,76.7z"/>
	<path class="st25" d="M806.7,67.9c0.8,0,2.2-0.2,2.4,0.2c3.4,6.8,9.9,3.6,15,4.7c2.4,0.5,4.9,0,6.6,2.4c1.5,2.1,1.9-1.6,3.9-0.9
		c1.8,0.7,1.9-2.1,1.7-3.2c-0.6-3.2,0.8-4.7,3.7-5.3c1.4,1,3.3,0.5,4.7,1.4c2.3,1.4,3.8,3,2.7,5.4c3.3-2.8,7.4-1.2,11,0.3
		c2.8,1.2,5.2,1.7,8.1,1.2c2.6-0.4,5.4-1.4,7.1,1.7c1.7,3,0.8,7.6-2,10.3c-1.3,0-3-0.2-3.7-1.1c-2.7-3.3-4.2-1-5.6,1.1
		c-3.2,4.8-5.4,5.5-9.6,1.7c-2.9-2.7-4.5-1.4-6.5,0.7c-1,0.7-2,1-3.2,0.8c-2.6-0.4-4.7-3-7.7,0.7c-1.7,2-5.7-0.8-7.1-3.4
		c-2-3.7-3-2.7-4.2,0.3c-0.6,1.5-1.1,3.5-3.4,1.7c-0.9-2.3-2.6-4.3-0.1-6.9c1-1.1,1.1-4.1,0.3-5.4c-1-1.5-2.9,0.3-4.4,0.7
		c-1.1,0.3-2.3,0.8-3.3,0.6c-3.2-0.5-6.6-1.8-4.9-5.8C809.3,69.3,805.9,69.6,806.7,67.9z"/>
	<path class="st26" d="M419.9,146.7c0.8,6.4-0.9,12.8,0.1,19.2c0.2,1.1,0.4,2.4-1,3c-4.9,1.4-9.9-0.2-14.8,0.2
		c-0.5,0-1.3-0.2-1.3-0.5c-0.5-4.1-4.1-1.7-5.9-2.9c-3.1-1-6.5-1.2-8.7-4.3c-1.5-2.1-2.9-0.5-3.8,0.9c-2.7,4.1-2.8,4.2-6.3,0.8
		c-1-1-2.7-1.6-2.2-3.5c2.4-1.7,4.6-3.4,1.4-6.4c-0.9-0.8-1.1-1.9-0.8-3.1c1.3-2.2,3.5-2.9,5.7-3.7c0.4-0.1,0.9-0.2,1.4-0.3
		c2.9-0.9,4.6,2.7,7.5,2.1c2.2,0.3,3.7-0.9,4.9-2.5c4.2-4.7,4-3.7,12.5-2.1C412.4,144.4,415.8,146.8,419.9,146.7z"/>
	<path class="st27" d="M852,152.8c0.4,0,0.8,0.1,1.2,0.1c2.6,2.8,5.6,1.9,8.6,1.2l0.4-0.3c2.9,1,6.1,1.1,8.6,3
		c0.1,5.8,0.1,11.6,0.2,17.5c0,1.6,0.2,3.3-1,4.6c-2.1,2.7-5,2.3-7.9,2.4c-2.4-0.2-4.9,0.5-7-1.3c-0.1-3.3,2.4-2.4,4.2-2.4
		c2.9,0.1,5.7,0.3,7.2-2.9c0.1-0.4,1.3-1.3,0.1-1.2c-5.2,0.6-10.5-0.1-15.6,1.7c-0.5,0.7-0.6,1.4-0.6,2.2c0,0.8,0.2,1.7-0.2,2.4
		c-0.4,0.6-1,0.9-1.6,1.1c-3.2,0.8-6.7,0.5-9.6,2.6c-2.8,3.3-5.1,7.2-10.7,4.1c-1.6-0.9-4.1,0.3-6,1.4c-0.6,0.6-1.2,1.4-2.2,1
		c0.1-2.7,0.1-5.3,0.2-8c4.3-1.2,0.7-6.6,2.5-6.9c3.5-0.6,4.9-1.9,5.1-5.3c0.1-0.4-1.1-0.1-0.4,0c0.1,0,0.1,0.1,0.1,0.3
		c-0.5,4.1-3.4,2.3-5.2,1.8c-3-0.9-1.1-2.2-0.2-3.9c1.9-3.7,5.3-6.3,6.7-10.3c0.6-1.5,2.1-2.6,4.1-1.8c0.4,2.6-0.4,5.4,2.5,7.4
		c2.2,1.6,0.4,3.5-0.7,5.3c2.1-1.3,4.4,1.7,6.2-0.7c3,0.5,6,1.3,6.9-3c1.8-1.5,3.7-0.4,5.5,0.1c-1.7-0.6-2.4-1.6-2-3.4
		c0.1-0.1,0.2-0.4,0.2-0.4C847.8,157.7,847.8,157.7,852,152.8z"/>
	<path class="st28" d="M375.9,159.9c2.1,1.8,4.2,3.6,7.2,6.1c-2-4.2,1.2-5.2,2.6-7.1c0.7-1,1.8-1.1,2.3,0.1c1.7,4,5.5,4.6,8.9,5.9
		c-2.3,4.7-6.3,5.7-11,5.1c-0.6,0-1.5-0.2-1.3,0.6c0.4,1.5,1.9,0.3,2.8,0.8c2.6,3.1,4.3-2,6.7-0.8c0.7,0.6,1.1,1.4,1.5,2.1
		c0.8,1.4,3.5,1.5,2.8,4c-1.2,1.3-2.6,1.1-4.3,0.7c1.8,1.2,3.2,0.5,4.6-0.2c0.5-0.2,0.9-0.4,1.4-0.4c1.4,0,3.4-0.3,3.7,1.4
		c0.3,1.8-1.8,1.9-3.1,2.3c-0.9,0.3-1.8,0.7-2.7,1.1c-1.3,0-2.7,0-4,0c-6-1.8-12.1-0.4-18.2-0.8c-3.6-0.2-7.3-3.8-8.9-2.8
		c-3.2,1.9-6.2,1.7-8.8,0.6c-2.3-1-7.8,1.8-6.7-4.4c-1.2,0.3-2.4,1.4-3.6,0.1c-2.2-2.3-0.6-4.3,0.4-6.4c1.1-1,1.7-2-0.1-2.9
		c-1.9-4,2-9.3,7.1-8.6c3.4,0.5,7.2,0.4,10.3,2.7c2.4,1.9,4.6,2,6.4-0.9c0.6-1.1,1.3-2.4,2.9-1.7C376,157.2,376.2,158.5,375.9,159.9
		z"/>
	<path class="st29" d="M419,85.7c1.2,6.9,0.8,14,1,20.9c-1.4,4.7-2.2,5-6.3,2.2c-1.6-1.1-3.6-1.6-4.9-3.2c0.2-1.5,1.5-1.9,2.6-2.4
		c-1.2,0.2-2,1-2.7,1.9c-2.1,1.2-3.6-0.3-5.2-1.2c-3.2-1.2-6.1-3.3-9.8-1.6c-0.9,0.4-2,0.3-2.7-0.7c-0.6-1,0-1.9,0.4-2.7
		c0.4-0.7,1.3-1,1.1-2c-2.8-1.7-4.8-1.5-5.7,2.1c-0.3,1.3-1.1,2.4-2.5,2.8c-3.8-0.3-7.8-2.2-11.4,1.1c-0.9,0.9-2-0.2-2.9-1
		c-1.9-1.8-4-3.4-6.1-4.9c-4.6-5.8-3.8-8.9,2.9-11.4c1.1-0.4,2.1-0.8,3.1-1.5c2.3-1.3,4.7-3.4,7.1-0.9c1.7,1.8,5.5,2.8,2.9,7.8
		c9.3-9.1,17.4-5.9,25.1,0.2c1.2-1.8,2-3.7,3.2-5.2c1.7-2.2,4.1-4.7,6.9-1.7c1.4,1.5,2.4-0.4,3.4,0.3c0.1,0.1,0.2,0.2,0.2,0.3
		C419.1,85.4,419,85.6,419,85.7z"/>
	<path class="st30" d="M404,102.9c1.6,0.9,2.9,2.4,5,2l0,0c2.2,1.3,4.7,1.9,6.6,3.9c2.9,3.1,3.1-0.9,4.4-2c0,1.7,0,3.4,0,5.1
		c-3.9-0.1-7.9,0.9-11.4-2.1c-0.9-0.8-1.5,0.8-2.3,1.2c-3.1,1.6-5.1,0.7-5.2-2.6c0-0.9,0.3-1.6-0.9-1.5c-0.7,0.1-1.9-0.8-2.2,0.8
		c-0.5,2.9-1.9,3.2-4.3,1.7c-2-1.2-3.7-1.5-5.4,1.3c-2.1,3.4-5.5,0.2-8.4,0.3c0.5,1.1,0.8,2,1.2,2.8l-0.1,0
		c-0.7-0.2-1.7-0.9-1.9,0.5c-0.7,5.4-4.5,0.5-6.5,1.9c-0.1,0.1-0.6-1.5,0.5-2.3c0.6-0.4,2.8,0.8,1.5-1.7c-0.8-1.7,1.7-5.1-2.3-5.2
		c-3.1-0.1-3.9,2.1-3.7,5.1c0.1,1.1,0.4,5.8-3.3,1.4c-2.4-2.9-6.7-1-10.1-1.8c-1.8-0.4-4.9-0.9-4.3,3.2c0.1,0.8-1.5,1.1-2.5,0.9
		c-1.1-0.2-1.3-1-0.6-1.8c1.6-1.8,0-2.7-1.1-3.6c-1.8-1.4-2.6,0.5-3.6,1.4c-1.4-2.8-0.4-5.8-0.7-8.6c0.5-4,3.5-4.3,6.6-4.6
		c1.4-0.1,2.8,0.1,2.9,1.9c0.1,1.4-1.2,1.8-2.2,2.3c-0.9,0.5-2.8-1.3-2.9,1.2c0,1,0.2,1.6,1,2c1.3,0.7,2.7,0.9,3.6-0.3
		c2.7-3.6,4.2-2.1,5.5,1c0.7,1.6,1.9,2.3,3.6,2c1-0.2,1.9-0.6,2.2-1.7c0.6-2-1-2.4-2.2-3.3c-5.6-3.9-5.7-7.2-0.5-11.1
		c1.9,0.1,2.3,1.8,2.7,3.1c0.5,1.7,1.1,2.1,2.5,1.1c1,1.3,2.9,0.9,4,2.6c1.7,2.6,4,3.6,6.8,0.6c2.9-3.1,5.3,1.1,8.1,1
		c1.3,3.5,4,3.8,7.1,2.9C395.4,102.7,399.6,101.2,404,102.9z"/>
	<path class="st31" d="M155,69.8c2.1-1.2,4.3-1.5,6.7-0.7c2.5,0.8,4.9,1.2,7.3-0.5c0.5-0.4,1.7-0.8,1.8-0.6c3.2,3.9,7.9-0.8,11.2,2
		c0.7,0.6,1.5,0.6,2.2,0c3.4-2.9,8-2.9,11.6-2.7c4.4,0.2,6.5-1,8.2-4.4c0,6.7,0.1,13.3,0.1,20c-1.4,0.2-2.9,0.4-4.3,0.6
		c-0.1-2.1,1.5-2.9,3.4-5.1c-4.3,2.1-7.9-0.1-11.5,1.5c-1.6,0.7-3.4,0.2-3.7,2.7c-0.1,1-1,1.2-1.9,0.6c-0.6-0.4-1-1.3-0.5-1.7
		c3.5-2.3,0.4-5.9,3-9.4c-2.7,1.8-9.2,2.1-10.9,1.2c-0.9,0.9-0.1,1.9,0.4,2c4.7,1.1,3.9,5.5,5.4,8.5c0.5,1.1,0.4,2.1-0.8,2.3
		c-1.1,0.2-1.1-0.9-1.2-1.7c-0.2-1.3-0.5-2.6-0.9-4.2c-1.5,1.4-2.4,2.5-4.8,0.9c-2.6-1.7-6.4-2-9,1.5c-2.8,3.6-4.6,3.3-6.5-0.4
		c-1.1-2.2-3-3-5.2-3.3C155,75.8,155,72.8,155,69.8z"/>
	<path class="st32" d="M419.9,146.7c-3,0-6.6,2-8.4-2.4c-3,2.1-4.8-1.4-7.4-1.7c-4.1-0.4-5.5,2.8-8.2,4.4c-1.8-0.2-3.4-0.2-4.6,1.5
		c-1,1.7-2.7,1.7-3.5,0.5c-1.3-2-3.4-1.4-5-2.4c-0.3-1.8-2.3-3.4-1.1-5.5c-1.7,2.2,1,3.6,1.1,5.5c-1.6,1.6-3.5,2.6-5.7,3.1
		c-0.6-0.4-0.8-1.1-0.8-1.7c0.5-1.1,0.8-2.2-0.1-3.3c-0.1-0.7,0-1.3,0.3-1.9c0.5-1,1.1-2,1.5-3.1c1.5-3.5,4.8-4.1,7.8-4.5
		c3.1-0.4,4.3,2.5,5.7,5.4c2.1-5.2,2.5-10.8,6.4-14.8c3.1-3.2,5-3,7.8,0.5c1.2,1.6,2.6,3,4.7,3.3c0.8,0.1,2.1,0.2,2.3,0.7
		c1.7,4.1,4.6,1.5,7.1,1.4C418.3,136.8,420,141.8,419.9,146.7z"/>
	<path class="st33" d="M376.5,142.8c0.1,0.6,0.2,1.3,0.2,1.9c-1.8,1.4-3,3.5-4.9,4.8c-0.9,0.6-1.4,1.4-1.1,2.5
		c0.2,0.5,0.6,0.8,1.1,0.9c1.3,0.1,1.6-0.9,1.9-1.9c0.5-1.7,0.9-3.6,3.3-3.7c0,0.8,0,1.6,0,2.4c-0.1,1.4,0.6,2.5,1.4,3.5
		c0.5,0.7,3.6-0.6,1.6,1.9c-1.3,1.6,0.3,5.9-4.1,4.7c-0.7-0.8-1.3-2.3-2-2.4c-1.3-0.1-0.7,1.5-1,2.3c-2.7,0.8-5.3,0.7-8,0
		c-5.1-1.3-10.1-3.6-15.4,0.1c-2.5,1.7-1.8,3.1-0.3,4.8c-0.5,1-0.9,2-0.4,3.2c0.7,2-2.5,3.6-0.8,5.7c-1.7,1.8-3.4,1.6-5.2,0.3
		c-0.7-10.2-0.1-20.4-0.3-30.6c0-1.8,0.4-3.6-0.4-5.4c-0.6-1.7-0.3-3.4,0-5c1.2,2.7,4.7,2.5,6,6.1c0.9,2.7,2.8,2.3-1.1,5.6
		c-0.1,0.1-0.1,0.3-0.3,0.7c3.5,2.5,6.6-4.1,10-0.7c0.4,0.2,0.7,0.5,0.9,0.9c0.4,1.9,1.4,2.2,3,1.3c1-0.5,1.9-0.9,3-1.2
		c1.5-0.3,2.9-0.9,4.4-1C370.9,144.3,373.4,142,376.5,142.8z"/>
	<path class="st34" d="M544.9,107.7c-1.9,0.2-3.5-1.1-6-1.7c2.6,3.8,1.8,6.3-1.9,7.7c-2.9,1.3-5.2-2.7-8.1-1
		c-0.6,0.1-1.3,0.2-1.9,0.3c-1.8,0.8-2.9,0.8-3.6-1.6c-2.3-8.2-4.3-9.5-12.8-9.1c-0.5,0-1-0.1-1.4-0.4c-0.5-1.1-0.8-2.2,0.8-2.9
		c1.2-0.5,0.8-1.8,0.2-1.7c-6.9,0.8-1.5-4.8-3.5-6.5c-0.4-1.2-0.2-2.4-0.2-3.6c5,1.3,10.5,0.9,14.4,5.3c1.2,1.4,3.1,1.7,4.2-0.3
		c1.1-2,2.5-2.5,4.5-1.6c1.8,0.8,2.9,1.9,2.9,4.1c0.1,1.8,0.3,3.6,0.2,5.5c1.7,0.9,2.4-1.8,4.1-0.8c-1.7-2.1-5.4-2.5-3.9-6.3
		c0.8-2,1-4.2,4-4.2c1.9,0,4.3-1.9,4.9,1.7c0,2,0.9,3.2,3.1,2.8c1.5-0.3,3-0.2,4.5-0.4c1.4-0.2,3.2-1.4,4.2-0.1
		c1.3,1.6-0.4,3.1-1.1,4.4c-1,1.9-1.2,2.9,1.1,4c1.7,0.8,2.4,2.7,1.7,4.7C552.4,110.3,548.7,109.3,544.9,107.7z"/>
	<path class="st35" d="M419,85.7c-1.4-0.3-3,2.5-4.3-0.6c-0.7-1.7-2.2-0.9-3.7,0c-1.9,1.2-1.5,3.4-2.7,4.7c-2.7,2.9-3.1,2.9-4,2.2
		c-2-1.6-5.1-1.3-6.7-3.8c-1.9-3-4.7-2.7-6.9-1.1c-2.2,1.6-3.9,2-6.2-1c0.2,2.8,2.5,3,2.1,5.3c-2.2-1.7-4.1-1.5-5.7,0.7
		c-0.5,0.7-1.6,0.7-2.1-0.2c-0.3-0.5-0.5-1.5-0.3-1.8c4.1-3.5-1.1-4.3-2-5.9c-1.6-2.6-3.7,0-5.5,0.7c-2.5-1.5-2.2-3.3-0.7-5.3
		c1.1-1,2.8-1.1,3.8-2.3c1.9-2.5,3.5-2.6,5.2,0.3c1,1.7,3.4,1,5,1.9c-1-3.4,0.1-4.5,3.9-3.3c4.1,1.3,8.1,1.7,12.3,1.3
		c0.5,0,1.3,0.2,1.4,0.1c0.5-0.9-0.5-0.5-0.8-0.7c-0.6-0.5-1.4-0.8-2-1.3c-0.9-0.8-1.8-1.6-1.4-3c0.9-1.5,2.4-2,3.8-1.3
		c2.9,1.4,6.4,0.7,9.1,1.6c4.5,1.6,9-1.5,13.3,0.8c-3.3,2.9-5.5,6.1-4.1,10.8C420,84.9,419.3,85.4,419,85.7z"/>
	<path class="st36" d="M724.9,118.8c-1.6,0.7-3.3,1.4-4.9,2.1c-1.2,0.5-2.1,2.1-3.4-0.8c-1.7-3.6-3.3,1.5-5.8,1
		c2.5-4.4,0.9-5.5-3.8-5.1c-0.7,0.1-4-3.2-5.2-5.8c-0.5-1-1.1-2-1.7-3c-1.4,0.9,0.9,3.2-2.2,3.5c-1.6,0.1-4.2,2.5-1.2,5.6
		c2.8,2.9-1.6,2.7-2.4,4.3c0.3-3.1-1.6-5.4-2.6-7.9c-0.5-1.3-1.7-0.1-2.6,0.1c-5.1-0.1-5.8-2.2-2.8-8c2.5-1.2,4.5-3.6,7.7-3.2
		c4.7,1.9,8.9,0.1,13.1-1.8c0.9-2.4,1.8-4.7,4.9-4.6c0.7,0.1,1.2,0.6,1.6,1.2c1,2,2.4,3.2,4.8,2.2c1.1-0.8,2-1.9,3.5-0.9
		c2.4,0.7,3.4,2,3.3,4.6C725,107.9,725,113.4,724.9,118.8z"/>
	<path class="st37" d="M519,149.8c1.8-1.1,3.8-3.3,5.3-2.9c3.7,0.8,6.4,0,8.7-2.9c0.1-0.2,0.8-0.1,0.9,0c3.7,4.9,6.3,0,9.1-1.2
		c2.9-1.3,5-1.5,6,2c1,3.5,1.9,0.5,2.9,0.1c-0.3,1.3,1.4,3.3-1.4,3.8c-0.8,0.1-0.9,1.2-0.2,1.4c3.5,1.2,1.2,3.8,1.6,5.7
		c-1.4,2.6-1.7,7-6.6,4.1c-2.9-0.5-4.8,0.3-4.7,3.6c0.6,0.6,1.3,1,2.1,1.3c2.5,1.1,2.1,3.1,1.2,4.9c-1.3,2.4-3,1.3-4.5,0.2
		c-1.1-0.8-1.9-1.8-3-2.5c-0.4-0.3-0.7-0.6-0.9-1c-0.7-2.7-1.9-4.7-5.3-4.5c-3.5,0.2-5-3.3-7.5-4.9c-1-0.4-1.5-1.4-2.4-1.8
		c-0.8-0.1-1.6,0-2.4-0.3c-0.9-0.3-1.6-0.7-2-1.7C516.1,151.7,516.5,149.8,519,149.8z"/>
	<path class="st38" d="M821.1,187.9c2.2-2,5.3-1.1,7.7-2.4c0.3-0.1,0.7-0.1,0.9,0c4,1.6,5.9,1,8.1-2.6c4.5,1.2,8.1-2.6,12.5-2.2
		c3.9-0.9,8,1.6,11.7-0.8c2.7,0.3,5.4-0.2,8-0.9c2,3.2,0.5,6.7,1,10c-1.1,4.4-4.7,4.8-8.2,4.6c-3-0.1-5.9-0.2-8.7,1.4
		c-1,0.6-2.2,1-3.3,0.7c-9.1-2.7-18.4-1-27.6-1c-0.8,0-1.7-0.1-2.3-0.6l-0.1-0.1c-1.3-1.1-1.1-2.2-0.1-3.4
		C821.4,189.8,821.9,188.9,821.1,187.9z"/>
	<path class="st39" d="M155.1,126.8c2-0.4,4.9,2.4,6-1.7c0.1-0.4,2.1-1.5,2.9,1.2c0.5,1.7,0.2,5,3.4,5.4c0.8,0.1,2.2,0.6,2.1-1.1
		c-0.1-2.5,0.2-2.4,2.7-2.7c3.5-0.4,6.4-1.1,8.4,3.1c0.9,1.9,3.2,0,4.8-0.5c1,1.2-1.4,2.9,0.3,3.5c0.8,0.3,2.2-0.9,3.3-1.4
		c2.9-0.3,4.8,1.2,5.6,3.7c0.9,2.8-1.3,4.1-3.3,5.3c-6.4,0-12.8,0.1-19.1,0.1c-1.3,1,0,2.9-1.4,4.2c-1.8-1-3.9-1.3-5.4-2.9
		c-2.8-2.3-6.6-3.3-8.5-6.7C156.1,133.3,155.1,130.2,155.1,126.8z"/>
	<path class="st40" d="M871.8,191c0,11.6,0,23.2,0,36.4c-2-5.9-5.9-4.9-9.4-4.7c-0.7-2.9,3.3-0.8,2.7-3.5c-3.6,2.2-5.1-3.1-6.3-2.8
		c-5.6,1.1-3-4-4.9-5.5c-0.5-2.9-3-5-3.3-8c-0.1-0.8-0.9,0.5-1.4,0.1c-1.1-0.9-1.1-2-0.6-3.2c0.5-0.9,1.2-2,2.1-2
		c5.4-0.3,9.8-4.9,15.2-3.8C869.1,194.7,869.5,191.4,871.8,191z"/>
	<path class="st41" d="M564.1,55.9c-0.7,0-1.4,0-2.2,0.1c-0.3,2.4-2.1,2.6-3.9,2.9c-1.7,2-4.7-1.2-6.2,1.6
		c-3.9-2.5-8.6,2.6-12.7-1.4c-1-1-3.8-0.3-5.8-0.2c-3.7,0.1-7.3,0-10.5-2.1c-2.3-1.6-4.1-0.7-5.4,1.6c-1.7,3.1-3.2,3.4-5,0.5
		c-0.8-1.2-1.4-0.4-2-0.2c-1.6,0.5-2.9-0.1-4.3-0.8c0.9-6.6-0.9-12.8-3-19c1.4,3.5,4.4,6.1,4.1,10.3c-0.2,2.5,2.7,4,4.6,3.3
		c6.1-2.1,11.7,1.3,17.6,0.8c0.6-0.1,1.5,0.4,1.8,0.1c4.8-4.9,10.5-1.9,15.9-2.1c4.1-0.2,8,0,11.7,2.3c0.9,0.6,2.9,0.7,3.7-0.5
		c2.7-4.1,4.5-1.3,6.5,0.6c-0.4,0-0.8,0.1-1.2,0.1C566.7,54.7,565.9,56.2,564.1,55.9z"/>
	<path class="st42" d="M1014,125.8c-1.7,2.5-2.6,5.2-0.9,8.1c0.4,0.7,1.1,1.4,0.4,2.2c-0.8,0.9-1.5,0.1-2.1-0.3
		c-1.3-0.9-2.2-2-4.1-0.1c-2.3,2.3-1.9-2-3.7-2.2c-1.2,3.4,2,3.5,3.9,5.2c-5.7,1.1-7.4-4.2-11-5.9c-0.4-0.5-0.6-1.2-0.7-1.8
		c-0.6-2.8-3.3-1.1-4.7-2.1c0.2-2.9-3.1-7.4,3.7-7.4c2,0,0.4-2.5,1.2-3.7c0.8-0.2,1.6-0.7,2.4-0.7c3.7,0,6.8,0.4,4.2-5.4
		c-0.8-1.9,3.3-5.8,6.1-6.1c2.8-0.4,3.7,3.2,4.2,5.9c0.2,0.9-0.6,1.9,0.2,2.8c-3.5,3.9-0.9,7,1.4,10.2
		C1014.4,125,1014.3,125.4,1014,125.8z"/>
	<path class="st43" d="M871,85.7c3.3-2.5,3.6-5.8,1.9-9.2c-1.5-3.1-4.2-1.2-6.5-1.1c-2.8,0.1-5.4,1.5-8.6-1.4
		c-1.7-1.6-7.1-3.8-11,0.6c0.6-4.1-0.5-6.8-4.7-7.1c-1.1-0.1-1.7-0.9-2.1-1.9c1.7-0.5,3.4-1.4,5.1-0.3c4.2,2.7,8.6,2,13.2,1.6
		c5-0.5,9-1.8,11.6-6.2c3-0.5,1.7-6.4,6.2-5c-4.7,2.7-1.4,6.9-1.5,10.1c-0.2,10.6,1.1,21.3-0.7,31.9c-1.5-1.7-3-3.3-4.5-5
		c-0.7,0.2-1.6-0.5-1.4-0.8C869.4,90.1,869.6,87.6,871,85.7z"/>
	<path class="st44" d="M397.8,176.6c0.2-2.7-3.5-0.9-3.7-3.1c1-0.9,2.4-0.8,3.9-1.8c-1.4-0.8-2.9,0.1-4-0.6
		c-0.6,0.2-1.5,0.3-1.6,0.6c-1.7,4.7-3.5,3.3-5.4,0.2c-1.2-0.7-2.8-1.1-1.8-3.1c3,0.1,6.3,0.6,8.7-1.3c1-0.8,0.5-3.4,3.1-2.6
		c1.8-0.1,4.5,2.7,5-2.5c-0.2,4.5,0.6,6.2,5,5.7c4-0.5,8.2-0.4,12.1,0.9c1.9,3.6,0.7,7.4,0.6,11.2c0,2.8-2.1,1.7-3.2,1.7
		c-6.1,0.1-12.3-0.1-18.4-0.2c1.1-2,2.9-3,5-3.8c-1.6,0-3.3,0-4.9,0C397.7,177.6,397.5,177.2,397.8,176.6z"/>
	<path class="st45" d="M343.8,66.9c4.3-1.9,8.3-6,13.4-1.6c0.8,0.7,2,0.7,2.5-0.5c2.3-5,5.8-0.5,8.6-1.2c-0.8,4.5,4.1,3,5.5,5.2
		c2.2,2.2,0.8,4.2-0.6,6c-0.7,1-1.8,1.5-3,0.9c-1.9-1-3.8-2.1-4-4.6c-0.1-1,0.2-2-0.1-2.9c-1.9-2.7-3.3-2.1-4.2,0.8
		c-0.1,2.7,1.9,5.2,0.7,7.9c-1.5,3.6-4.1,4.9-7.6,3.2c-2.6-1.2-5.5-0.5-8.1-1.8c-1-0.5-0.3,0.6-0.6,1c-1.4,1.5-2.6,2.1-3.9,0
		c-0.2-3.1,0.4-6.2-0.4-9.3C342.1,68.6,344.4,68.5,343.8,66.9z"/>
	<path class="st46" d="M342.1,70c1.5,3.1,0.3,6.5,1,9.7c2.1,3.6,0.8,7.4,0.9,11.2c-0.6,0.4,0.7,0.6,0.1,0.3
		c-0.3-0.1-0.2-0.3,0.1-0.5c1.8-1.1,3.8-1.8,5.5-3.2c3.2-2.5,8.9,0.6,10.4,5.5c-4.3,5.5-3.8,6.6,3.3,10.4c1.5,0.8,1.7,3.9,0.5,5.5
		c-2.1,2.8-7.7,1.6-8.5-1.6c-0.3-1.1,0.3-2.3-1.2-2.7c-2.4-0.6-0.4,1.5-1.3,2.2c-2.1,1.4-4,2.3-6.3,0.4c-1.4-1.2-2.7-2.4-0.6-4.2
		c0.7-0.6,0.5-0.8,1.6-0.9c1.4-0.1,3,0,3.7-2.2c-3.3-0.7-6.2-0.4-8.4,2.2c-0.9-0.4-0.3-1.6-1.1-2c2.9-1.4,4.5-3.8,4.9-7.1
		c-1.9,0.4-2.5,2.8-4.8,2.5C342.1,87,342.1,78.5,342.1,70z"/>
	<path class="st47" d="M519,149.8c-1,1.3-2,2.6-3,3.8c-0.6,1-1.6,0.9-2.7,1.1c1.7,1.3,3.3,1.1,4.8,0c0.8-0.3,1.6-0.5,2.4-0.8
		c1.1,0.8-0.7,3.8,2.3,3.1c3.6,0.9,5.9,4.6,10.4,4.2c2.4-0.2,2.9,3.1,2.8,5.5c-2.7-0.2-5.1-3.2-8.1-0.9c-3.1,0.2-6.2,0.3-9.2-1
		c-2-0.9-3.8-0.5-5.7,1.8c3.5-0.9,4,1.1,4.4,3.2c0.3,1.8,0.9,3.7-1.3,4.7c-2.8,1.3-5,0.1-7-1.8c0-10,0-20.1,0-30.1
		C514.4,142.3,516.8,145.9,519,149.8z"/>
	<path class="st48" d="M688.3,197.9c1.9,1.3-0.8,2.5-0.1,3.8c-2,4.5,2.3,0.8,2.8,2.1c0,5.7,0,11.3,0.1,17c-1.4,3.2-3.7,5.5-6.3,7.7
		c-1.2-0.1-2.3-0.5-3.1-1.5c-0.8-1.4-1.2-2.9-2.8-3.9c-4.3-2.7-4.2-3.4,0.2-5.8c0.4-0.2,0.8-0.2,1.1-0.6c-1-0.2-2-0.4-2.4-1.4
		c-0.4-1.8,0-3.6-0.2-5.4c0.7-3.1-2.7-3.1-3.7-4.8c-2.3-4.7-2.3-4.7,2.5-6.3C680.3,199.4,684.3,198.4,688.3,197.9z"/>
	<path class="st49" d="M424,73.8c-2.2,0.8-5.4-1.2-6.7,2.3c0,0.1-0.9,0-1.2-0.3c-4.9-4-11.6-0.3-16.6-3.7c-0.2-0.2-0.9,0.3-1.3,0.5
		c-2.2-0.5-1.5-2.6-2.2-4c4.1-7.6,4.2-7.7,12.5-5.2c1.5,0.4,2.5-0.3,3.8-0.5c5.3-0.8,11.2,2.6,11.9,7C424.1,71.2,424,72.5,424,73.8z
		"/>
	<path class="st50" d="M659.1,181.1c6.6-0.2,13.2-0.3,19.9-0.5c4.3,0.3,8.3-1.3,12.3-2.4c3.1,0.1,6,1.3,8.8,2.5c-1,1.7,0.7,3.3,0,5
		c-0.7,0.6-0.9,1.4-0.8,2.2c0.5,3.9-1.4,4-4.3,2.9l0,0c-1.1-1,0.1-2.6-1.1-3.6c-1.5,0.8-0.5,2.8-1.9,3.6c-0.2,0.1-0.5,0.2-0.7,0.2
		c-3.1-1.3-3.5-3.9-3.7-5.7c-0.1,1.5-1.8,2.8-4.1,2.6c-6.7-0.7-13.1,1.7-19.7,1.3c-1.7-0.1-3.3,0-4.7-1.2c-1.4-2-1.5-4.1,0-6.1
		c2.6,1.2,5.3,0,6.7,0.4c-1.4-0.1-4.1,0.6-6.7-0.4C658.9,181.6,658.9,181.3,659.1,181.1z"/>
	<path class="st51" d="M820.7,88.7c2.4,0.3,2.1-1.5,2.2-2.9c0.1-2.3,1.9-3.1,3.7-3.4c2-0.3,2.3,1.4,2.5,3c0.3,2.6,3,2.9,4.5,4.4
		c0.7,0.7,1.8,0,2.7-0.7c1.7-1.5-1-2.5-0.4-3.8c3.6,0.2,6.1,4.7,10.3,2.7c1.3,0.7,2.5,1.3,2.1,3.1c-3.3,0.2-2.2,3.9-4.1,5.2
		c-0.7,0.3-1.4,0.2-2-0.1c-0.7,0.1-0.3-1.8-1.3-0.7c-0.3,0.3-0.2,1.2-0.6,1.7c-1.6,0.6-3.4,0.4-4.1,3c-0.6,2.5-2.4,5.3-6.1,3.9
		c-2.8,0.2-5.4,0-7.4-2.4c-0.2,0.2-0.4,0.5-0.6,0.7c-1.5-0.4-3-0.9-1.2-2.8c0.3-1.6-1-3.5,1.2-5c2.1-1.4-0.2-2.7-0.7-4
		C821.1,90,819.4,89.7,820.7,88.7z"/>
	<path class="st52" d="M849,199.9c0,1.1-0.2,2.2,0.9,2.9c1.4,1.8,2.3,3.7,1.9,6.1c0.4,1.6,0.8,3.2,1.1,4.8c0.3,1.9,2.7,4.7-2,4.4
		c-1.4-0.1-0.8,1-0.4,1.7c1.5,2.4-1.2,2-2.5,2.9c0-4.3-0.1-8.5,0-12.8c0.1-2.8-0.4-4.3-3.7-4c-4.2,0.3-8.4-0.3-12.6,0
		c-1.8,0.1-1.4-2.8-3.4-1.9c-2.7,0.3-5.5,1.2-8.2-0.4c0-1.6,0-3.2,0-4.8c0.6-0.6,1.1-1.3,1.9-1.5c8.6-1.8,17.2-1.8,25.8,0.7
		C848.6,198.2,849.1,198.9,849,199.9z"/>
	<path class="st53" d="M849,199.9c-9.5-3.1-19.2-2.3-28.9-1c-1.1-1.8,0.3-3.3,0.8-4.8c8.6-2.3,17.5-1.6,26.1-1
		c3.5,0.2,6.2,1.5,9.4-0.9c1.2-0.9,3.6-0.6,5.3-0.2c3.9,1,6.7-0.4,9.3-3.1c0.8,0.5,0.9,1.3,0.8,2.2c-0.5,3.9-2.1,5.4-6.4,4
		c-1.7-0.5-5.5-2.3-5.8,2.5c-0.1,1.5-1.5,0.8-2.3,0.5C854.2,197.2,851.6,198.4,849,199.9z"/>
	<path class="st54" d="M659,188c6.2-0.5,12.5,0,18.6-2c1.5-0.5,3.6,0.5,5.5,0.6c3.2,0.1,4.4-0.9,4.2-4.2c1,3.2,2.4,6,4,8.6
		c-0.3,1-0.6,2-2,1.6c-1.5-0.3-2.3-1.7-3.6-2.1c1.2,1,2.5,2,3.2,3.6c-0.7,1.6-2.1,1.8-3.6,1.6c-4.4-1.7-5.9,3.2-9.3,3.9
		c-4.4,0.1-0.9,3.6-2.2,5.1c-1.1,1-2.2,0.5-3.3-0.1c-0.4-0.2-0.7-0.6-1-0.9c-0.3-1.9-0.9-3.8-1.9-5.4c1-2.2,3-2.1,5-2.3
		c-4.4,0.6-8.2-1.9-12.6-1.8c-2.6,0-0.4-2.7-1-4C659.1,189.5,659.1,188.7,659,188z"/>
	<path class="st55" d="M832.9,155.9c-2.3,0.2-3.2,1.7-4,3.8c-0.7,1.9-1.9,3.8-3.2,5.4c-0.9,1.1-3.5,0.7-1.8,3.7
		c1,1.7-2.2-0.4-2.6,1.6c3,0.7,6,2.2,6.1-3.2c3.1,3.5,0.3,6.5-0.6,9.4c-0.3,1.1-2.3-1.3-4.1-1.4c2,3.3,2.5,6.2-2.5,6.7
		c2.2-2.5-0.3-4.8-0.3-7.3c0.2-5.6,0.1-11.1,0.1-16.7c0.3-0.9,1.3-1.5,1.8-2.1c2.2-3.1,1-7.9,5.1-9.8c1.7,1.5,3.2,3,6,2.5
		c2.3-0.4,1.2,2.3,2,3.4C835.5,153.8,835.6,155.6,832.9,155.9z"/>
	<path class="st56" d="M165.8,143.1c1.2,0.8,2.8-1,4.3,0.9c0.9,1.2,0.4-2.2,2-2.2c0,5.3-0.1,10.6,0,16c0.1,3.8,0.1,7.4-3.9,9.5
		c-2.3-1.4-4-3.5-5.2-5.9c-1-2-2-3.7-4.8-3.4c-3.1,0.3-0.6-3.2-2.4-4c-1.5-1.1-0.7-2.5-0.7-3.9c0.5-1.5,1.4-2.1,3-1.3
		c3.2,1.7,4.2-1,4-2.9C161.8,142.3,163.3,142.4,165.8,143.1z"/>
	<path class="st57" d="M509.3,101.9c3.5-2.5,8.8-2.2,10.5-0.4c2.1,2.2,6,5,4.8,9.5c-0.6,2.4,1.4,1.5,2.4,1.9c0,1-3.3,2.7,0.6,2.9
		c1.2,0.1,1.9,0.9,2.2,2.1c-0.1,0.3-0.3,0.6-0.5,0.8c-1.6,1-4.3,1.1-3.3,4.1c-3.3-1.3-4.3-2.6-3.2-5.1c0.5-1.2,0.9-2.2,0.1-3.1
		c-1.1-1.1-0.7-2.6-1.5-3.7c-2.8,2.9-8.4-1.1-10.1,3.7c-1,2.6-1.5,0.3-2.2,0.3C508.8,110.6,508.4,106.2,509.3,101.9z"/>
	<path class="st58" d="M343.1,173.9c1.6-0.1,3.3-0.2,4.9-0.3c1.3,0.9,2.4,1.3,2.5-1c0.1-1.7,1.1-1.9,2.3-1.3
		c1.3,0.6,0.8,1.4,0.2,2.4c-1.5,2.3-1.7,3.5,2,3c2.2-0.3,4.4,2.2,7.1,1.2c1.1-0.4,3.6,1.9,2.6-1.9c-0.3-0.9,1.5-1.5,2.6-0.2
		c4.7,5.5,11.3,3.8,17.2,4.1c3.3,0.2,6.6-0.9,9.4,1.7c-10.2-0.1-20.3,1-30.6-0.4c-4.7-0.6-9.6,0.5-14.4,0.7c-3.2,0.1-6.7-3.9-7-7.6
		C342.4,174.1,342.7,174,343.1,173.9z"/>
	<path class="st59" d="M528.3,164.8c3.8-3.9,5.5,0.1,7.7,2c0,0,0,0,0,0c0.4,0.5,1.5,1,1.4,1.3c-0.4,1.7,0.9,2.5,1.6,3.6
		c-1.8,0-3.5,0.4-4.3,2.2c0.8,2,2.8,0.1,4.5,2.1c-9.9,0-19.2,0-28.4,0c-2.5,0-2-1.6-1.7-3.1c0.9,0.2,2,0.1,2.7,0.6
		c1.3,0.9,2.3,1.5,3.9,0.5c2-1.2,0.1-2.6,0.3-3.8c1.4-2.1,3.1-3.2,5.9-3.3C524,166.7,526.6,166.6,528.3,164.8z"/>
	<path class="st60" d="M172,172.8c0,2.8-0.4,5.7,0.1,8.4c0.9,5.2-1.5,6.4-6,5.7c-1-0.1-2,0-2.9,0.1c-0.2-0.1-0.4-0.2-0.6-0.3
		c-2-2.5-2.8-6.7-7.4-5.8c-0.1-0.3-0.2-0.7-0.2-1c1-2.8,1.1-5.4,0.3-7.2C160.9,170.1,166.4,170.6,172,172.8z"/>
	<path class="st61" d="M172,172.8c-5.6,0-11.1-0.1-16.7-0.1c1.8-6.2-1-12.5,0.5-18.7c1.2,1.3,1.7,4.2,4.6,2.2c0.3-0.2,1.9,0.6,2,1.1
		c0.7,4.1,4.6,6.3,5.8,10c0,1.1,0.7,2.4,1.5,2.3C172.9,169.1,172.1,171.1,172,172.8z"/>
	<path class="st62" d="M848.2,237.8c0-0.5,0.2-1,0.1-1.5c-1.9-6,4.3-5.1,6.5-7.5c0.1-0.1,0.4-0.1,0.5-0.1c1.7,4.2,6,0.4,8.6,2.9
		c2.5,2.5,5.2,0.4,7.6-0.9c1,1.4,0.5,2.8,0.7,4.1c0.3,2-1.7,1.6-2.5,2.5c-1,1.1-1.6,0-2.1-1c-0.6-1.2-1.6-1.9-2.8-1.4
		c-1.1,0.5-1.8,1.5-1.6,2.8c0.9,6.6-3.1,6.7-7.8,6c-1.7-0.6-2.4-1.7-1.8-3.4c0.6-1.8,2-1.8,4-0.9c-1.7-1.5-2.8-2.7-4.5-3
		C851.2,236.2,850.3,239.2,848.2,237.8z"/>
	<path class="st63" d="M191.2,141.7c3.6-4.9,3.6-4.9-2.3-9c-0.8-2.5,0-4.2,2.5-4.8c2-0.5,3,1,3.3,2.8c0.1,1.1-0.5,2.7,1.1,2.7
		c1.2,0,3-0.7,3.4-1.6c2.5-5.3,2.8-2.1,3.3,0.7c0,0.2,0.9,0.2,1.4,0.3c0.1,2.3,0,4.6,0.2,6.9c0.3,2.7-1.1,3-3.2,3
		c-0.4,0.4-0.6,0.4-0.7-0.2C197.3,141.2,194.2,142.2,191.2,141.7z"/>
	<path class="st47" d="M539.1,171.6c-2.1-0.9-2.6-2.9-3.1-4.8c2-0.3,2.9,1,3.9,2.3c0.6,0.7,1.4,1.8,2.4,1c0.7-0.5,1-1.7,1.3-2.6
		c0.4-1.3-0.6-1.8-1.6-1.7c-2,0.1-2.7-0.7-2.2-2.6c0.9-2.7,3.6-3.2,5.7-4.4c4.2,3.3,4-2.5,6.3-3c-0.4,1.9,2,4.4-1.6,5.5
		c-1,0.3,0,1.3,0.5,1.9c1.2,1.4,2.8,2.5-0.4,3.8c-1.8,0.7-0.4,1.7,0.8,2.2c1,0.4,1.2,1.3,0.8,2c-0.6,1.1-1.7,0.5-2.6,0.5
		c-1.6-1.3-3.1-1.3-4.7,0.1C542.8,171.7,541,171.7,539.1,171.6z"/>
	<path class="st64" d="M708,178.7c-0.2-2.4,2.8-2.6,3.2-4.6c0.9-0.9,1.2,0.2,1.6,0.6c3.7-2.1,8.5,0.2,12-2.9
		c0.1,1.3,0.4,2.7,0.2,3.9c-0.4,2.4-0.5,5.3-2,6.9c-2.2,2.4-3.8-1.3-5.7-1.6C714.2,180.6,711.5,178.1,708,178.7z"/>
	<path class="st18" d="M827.1,145.9c0.1,1.2,0.2,2.3-0.9,3.1c-0.8,0.7-0.8,0.7-0.1,2c0.5,0.8-0.1,1.2-0.5,1.6
		c-0.9,1.1-2.8,1.2-3.3,2.9c0.5,1.3,2.8-0.4,2.9,2c-1.6,0.1-3.4,0.1-5.1,0.2c0-6.7-0.1-13.3-0.1-20c2.4-1.2,4.7-2.3,6-5.1
		c0.8-1.6,3.8-0.7,5.8-0.1c0,0,0.2,0.2,0.2,0.2c-0.9,2.9-4,3-5.9,4.6c-4.6,3.9-4.5,5.9,0.8,8.2L827.1,145.9z"/>
	<path class="st65" d="M155.8,195.7c-1.7-3.6,0.1-7.4-0.7-11c2.6,0.3,4.5,3.8,7.6,1.8c0.1,0.1,0.3,0.3,0.4,0.4
		c1,4.6-2.3,9.2-0.2,13.9c-1.8,2.5-3.9,3.6-6.9,1.9l0,0C154.6,200.5,157.6,198,155.8,195.7z"/>
	<path class="st66" d="M666.7,227.8c-1.3,1.4-3,0.8-4.5,0.9c-0.5-0.3-0.2-1.1-0.8-1.1c-0.2,0-0.2,0.8-0.4,1.2
		c-1.9,0.3-2.1-0.8-2.1-2.4c0.1-3.6,0.1-7.3,0.2-10.9c0.8-0.7,1.5-1.5,2.6-1.7c6.1-0.5,6.1-0.5,5.9,5.3c-0.1,1.7,0.5,3.3,0.6,4.9
		C668.3,225.6,668.1,226.9,666.7,227.8z"/>
	<path class="st42" d="M994.8,141.1c-1,3.2,0.6,6.4,0.4,9.6c-0.1,1.8,1.2,2.3,2.6,2.1c4.2-0.6,4.6,2,4.4,5.1c-2.6,0.7-5-0.7-7.8-0.2
		c-1.7,0.3-3.1-3.7-3.4-6c-0.5-4.2,0-8.5,0-12.7C992.9,138.6,993.5,140.3,994.8,141.1z"/>
	<path class="st67" d="M721.9,97.7c-1.3,0.1-2.4,0.7-2.9,2c-2.4-0.3-4.5-1.2-6.1-3.1c-0.3-0.3-0.6-0.6-0.9-0.9
		c-1.4-2.1-0.8-3.7,1.2-5.1c2-1.8,4-2.8,6.4-0.4c2.5,2.5,3.4-1.6,5.3-1.4C724.9,92.1,724.8,95.4,721.9,97.7z"/>
	<path class="st68" d="M200.2,142.6c0.3-0.1,0.5,0,0.7,0.2c1.9,2.1,4.1,4,2.9,7.3c-1.8,1.3-1.3,2.5,0.1,3.7c0,2.7,0,5.3,0,8
		c-1.3,0.5-2.3,1.6-3.8,1.7C199.5,156.6,197.8,149.6,200.2,142.6z"/>
	<path class="st69" d="M162.9,203c-0.3,3.3,2.1,7.4-2.8,9.4c-0.4,0.1-0.9,0.9-0.8,1.1c1,2.5-0.3,4.2-2.3,4.1
		c-2.2-0.1,0.9-1.9-0.3-3.2c-2.9-2.9-1.6-6.4-0.7-9.7C158.2,204,160.6,203.8,162.9,203z"/>
	<path class="st70" d="M165.8,143.1c-0.4,1-5.8-0.1-1.3,3.1c0.8,0.5,1,2.3-0.4,2.2c-2.9-0.1-2.8,2.8-4.8,3.8
		c-1.8,0.4-0.9-5.1-4.1-2.1c-0.5-1.9,0.2-2.4,2.2-2.4c2.1,0,3.5-1.5,3.6-3.8c0.1-2.3-1.5-3.2-3.2-3.7c-3-0.9-3-0.8-0.9-3.7
		c3.6,0.1,4.7,5.2,8.8,4.2C165.7,141.5,165.7,142.3,165.8,143.1z"/>
	<path class="st24" d="M740,66.7c-1.9-3-5-2.8-7.9-2.9c-1-1.6-3.3-3.6-1.4-5.1c2.4-1.9,5.8-1.2,8.8-0.8c0.9,0.1,1.8,1,2.6,1.5
		c-0.6,2.1-3.6-0.6-3.8,1.9c-0.1,2,2.1,1.1,2.9,1.9c1,1,1.8,2.3,2.6,3.5C742.5,66.7,741.3,66.7,740,66.7z"/>
	<path class="st71" d="M700,180.8c-3.2,1.4-5.3-1.5-8-2.1c-0.3-0.2-0.5-0.3-0.3-0.5c0.1-0.2,0.2-0.2,0.3-0.2
		c0.7-0.6,3.6,0.2,1.9-1.9c-1.5-2,0.7-3.3-0.4-4.8c5.3,1.1,9.1,4,12.5,7.5C704.1,179.7,701,176.9,700,180.8z"/>
	<path class="st72" d="M685.2,227.9c-0.1-4.1,4.3-4.4,5.8-7.1c0.1,2,0.1,3.9,0.2,5.9c0.6,2.1,0.1,4.3,0.2,6.4
		c0.1,2.2-0.2,3.4-2.8,3.3c-2.2-0.1-4.2-0.3-3.5-3.3C685.4,231.4,683.8,229.6,685.2,227.9z"/>
	<path class="st73" d="M659.1,190.2c1.1,1.2,0.2,3.6,3.9,3c3.1-0.5,6.9,1.2,10.5,1.8c1,0.2,2.7,0.1,2.1,1.9
		c-0.5,1.5-1.1,1.4-2.5,0.5c-1.6-1.2-3.3,0.9-5,0.9c0.2,0.5,0.1,0.8-0.4,1c-2,0.2-3.7-0.9-5.7-1c-0.2-0.9,0.1-2.1-1.1-2.4
		C657.1,194.9,657.5,192.8,659.1,190.2z"/>
	<path class="st74" d="M203.9,126.7c-2.4-0.1-1.2-1.6-1.2-2.8c0-2.5,1.2-5.2-1.1-7.5c-1.1-1.1-1.7-2.9-3.8-1.1
		c-1.4,1.2-3.2,1-4.3-0.7c-0.9-1.4-0.8-2.9,0.5-4c1.5-1.3,3.4-1.2,4.3,0.3c2.1,3.5,3.7,1,5.4-0.1
		C203.9,116.1,203.9,121.4,203.9,126.7z"/>
	<path class="st75" d="M660.9,214.5c-0.6,0.4-1.1,0.7-1.7,1.1c0-3.5-1.4-7.1,1-10.4c0.3-0.9,1-0.8,1.8-0.6c2,2.9,2,2.9,10,3
		c-0.8-1.2-2.2-2.1-1.6-3.7c1.2,0.3,2.4,0.7,3.5,1c5.2,2.2,5.2,2.2,4,5.2c-3.6,2.1-7.7,0.6-11.5,1.3
		C664.1,211.8,661.8,211.8,660.9,214.5z"/>
	<path class="st76" d="M203.9,171.7c0.1,2.1-0.3,4.4,0.4,6.3c0.7,1.8-4.3,2.1-0.8,4.2c0.3,0.2-0.8,0.7-1.4,0.7
		c-1.8,0.1-2.2-0.8-2.2-2.4c0.2-5.1,0.3-10.2,0.4-15.3c1.4-1.1,2.5-0.4,3.7,0.4c0,0.7,0,1.3,0,2C202.6,169,202,170.4,203.9,171.7z"
		/>
	<path class="st77" d="M661.8,204.8c-0.6,0.1-1.1,0.2-1.7,0.3c-0.1-0.4-0.2-0.8-0.3-1.2c-0.9-2.5-0.1-3.7,2.6-4
		c1.5-0.1,3-0.1,4.2-1.2c0.5-0.1,1-0.3,1.4-0.4c3.4,0.7,2.9,2.9,1.9,5.2c1,4.6,1,4.6-3.3,3.3C665,206.3,663,206.6,661.8,204.8z"/>
	<path class="st78" d="M994.8,141.1c-2.6,1.7-2.7-1-3.7-2.1c0-3.3,0.1-6.7,0.1-10c2.5-1.1,5.2-2.3,5.9,2c-1.6,0.6-2.6,1.5-1.6,3.3
		c1,2.2,1.4,4.4-0.3,6.4C995,140.7,994.9,140.9,994.8,141.1z"/>
	<path class="st79" d="M870.8,156.8c-3.2-0.1-6.4,0-8.6-3c0.8-2.2,2-4.2,4.8-3c2.2,0.9,2.5-1.8,4-1.9
		C870.9,151.5,870.8,154.2,870.8,156.8z"/>
	<path class="st80" d="M1004.9,157.8c0.4-1.5-0.6-3.7,1.1-4.5c2.2-1.1,5.1-0.1,7.4-1.8c0.3-0.2,0.8,1.3,0.6,2.1
		c-0.6,1.7,0.2,4.2-2.6,4.5c-1.4,0.1-2.9,0-4.4-0.1C1006.2,158,1005.5,157.9,1004.9,157.8z"/>
	<path class="st81" d="M1018.1,160.9c-0.5-1.1-1.7-2.7-1.3-3.3c0.8-1.4,2.8-1.1,4.1-0.6c2.7,1.1,5.4,1.5,8.2,1.1
		c2-0.3,3.2,0.5,2.9,2.8c-2.7-1.4-5.2,1.2-7.9,0.4C1022.2,160.7,1020.1,160.9,1018.1,160.9z"/>
	<path class="st82" d="M1056,153.7c3-5.5,7.9-3.6,12.4-3.2c2.2,0.2,1.8,1.9,1.7,3.4C1065.3,154.1,1060.7,154.3,1056,153.7z"/>
	<path class="st83" d="M162.7,186.5c-3.8,4.8-5.5,0.6-7.6-1.8c0-1.3,0-2.6,0-3.9C159.4,178.4,160.7,179.4,162.7,186.5z"/>
	<path class="st84" d="M676,199.7c1.6-1.8,3-3.9,5.2-5.2c1.9-1.2,3.3-1.2,4,1.3c-1.1,3.7,2.3,1,3,2.1
		C684.5,200.6,680.3,200.7,676,199.7z"/>
	<path class="st85" d="M666.7,227.8c0.2-1.4,0.4-2.8,0.7-4.2c1.6-1.2,3.4-1.6,5.4-1.3c1.6,0.7,2,2.4,3.1,3.5c1.2,1.1,3,0.7,4.2,1.7
		c0.3,0.4,0.4,0.8,0.3,1.3c-3.4-0.9-7.6,2.3-10.6-1.8C669.6,226.7,667.8,227.5,666.7,227.8z"/>
	<path class="st86" d="M680.5,228.8c0.1-0.3,0.1-0.7,0.2-1c-0.1-0.5,0-0.9,0.3-1.3c0.5-0.2,0.9-0.2,1.3,0.2c1,0.4,2,0.8,2.9,1.2
		c-0.4,2.1,1.8,3.7,0.6,6.1c-0.9,1.8,1.2,1.4,2.1,1.5c1.1,0.1,2.7,1,2.7-1.5c0-2.4,0.3-4.9,0.5-7.3c2,2.7,1.1,5.8,0.7,8.5
		c-0.5,3.2-3.7,1.2-5.7,1.7c-2.1,0.5-2.3-0.7-2.3-2.6C684,231.9,685.4,228.2,680.5,228.8z"/>
	<path class="st87" d="M343.1,173.9c-0.4,0.1-0.8,0.3-1.1,0.4c0-12.1,0.1-24.3,0.1-36.4c1.9,6.6,0.5,13.4,0.9,20.1
		C343.3,163.3,343.1,168.6,343.1,173.9z"/>
	<path class="st88" d="M978.7,81.8c0.4-0.3,0.7-0.7,1.2-0.8c2.2-0.8,4.2,0,6,1.3c0.8,0.6,0.9,1.3,0.2,2c-1.5,1.7-3.3,1.9-5.4,1.6
		c-0.8-0.1-1.6-0.2-2.4-0.2C977.6,84.3,979.6,83.3,978.7,81.8z"/>
	<path class="st33" d="M342,100c0.9,0.4,0.9,1.3,1.1,2c0,3.2,0,6.5,0.1,9.7c0,5.1,0,10.3-0.1,15.4c0,1.6,0.6,3.4-1,4.6
		C342.1,121.2,342,110.6,342,100z"/>
	<path class="st89" d="M852.8,235.6c0.2-0.8,1.1-2,1.5-1.2c0.9,1.6,2.1,2.8,3.5,3.8c1.1,0.8,0.7,2,0.1,2.6c-1.2,1.1-0.9-0.6-1.4-1
		c-0.6-0.5-1.2-0.6-1.7,0c-1.3,1.5-0.4,2.7,0.5,3.9c-1.4,0-2.8,0-4.3-0.1C850.4,240.7,851.3,238.1,852.8,235.6z"/>
	<path class="st90" d="M852.8,235.6c1.1,3.1-0.7,5.5-1.8,8.1c-4.7-0.2-2.4-3.7-2.8-5.9C850.2,237.9,850.4,234.3,852.8,235.6z"/>
	<path class="st91" d="M978.2,89.9c4.1-0.1,5.2,2.7,6,5.9c-2,0.7-3.2,4.2-6.1,2c-0.8-3.3,3.9-1.1,3.7-3.7
		C981.6,91.8,977.4,93,978.2,89.9z"/>
	<path class="st92" d="M666.6,198.7c-0.1,1.8-0.2,1.5-2.2,2.2c-1.6,0.6-5.1-1.2-4.5,3c-2.1-2.9-1.5-4.8,2.1-5.6
		C663.8,195.8,665.2,197.1,666.6,198.7z"/>
	<path class="st93" d="M821.2,90.6c3.4,1.1,5.5,2.8,1,5.1c-2.1,1.1,0.8,3.3-1.4,3.9C817.7,96.4,820.5,93.6,821.2,90.6z"/>
	<path class="st41" d="M507,87.1c-0.1,1.3-0.2,2.5-0.3,3.8c-1.7-7.3-0.3-14.7-0.7-22c0.3,0,0.6,0,0.9,0c2.6,0.5,1,2.5,1.4,3.8
		c-0.1,3,0,5.9,0,8.9c0,0.6,0,1.1,0,1.7C508.4,84.6,508.1,86,507,87.1z"/>
	<path class="st54" d="M692,190.9c-0.1-5.6-0.1-5.6,4.7-4.4c-0.3,1.6-2.2,2.5-1.7,4.3C694,190.9,693,190.9,692,190.9z"/>
	<path class="st94" d="M820.1,203.6c2.7,0,5.5-1.4,8.2,0.4C825.9,207,821.4,206.8,820.1,203.6z"/>
	<path class="st95" d="M162.9,203c-1.7,2.8-4.1,3.2-6.9,1.8c0-0.7,0.1-1.3,0.1-2c2.4-0.2,4.7-1,6.9-1.9
		C162.9,201.5,162.9,202.3,162.9,203z"/>
	<path class="st10" d="M552,131.9c-1.3-0.7-2.9,1.3-4-0.5c-0.2-0.3,0-1.2,0-1.2c1.7-0.1,2.8-2.5,5-1.3c1.3,0.7,2.7,1.2,4,1.8
		C555.4,131.3,553.3,130.1,552,131.9z"/>
	<path class="st96" d="M695,190.9c2.5,0.1,4.2-0.7,3.7-3.7c-0.2-1,0.3-1.6,1.4-1.4c0,1.5-0.2,3,0,4.4c0.4,2.2-1,3-2.5,3.4
		C695.6,194,695.2,192.4,695,190.9z"/>
	<path class="st84" d="M688.9,194.1c-2.8-0.4-3.8-3.7-6.5-4.4c3-0.6,5.7-0.9,6.9,2.9C689.1,193.1,689,193.6,688.9,194.1z"/>
	<path class="st84" d="M690.9,203.8c-0.2,0-0.3,0.1-0.5,0.1c-2-0.2-2.6,4.5-4.9,1.8c-2.4-2.9,3.1-1.7,2.6-4
		C690.2,200.9,691.8,200.8,690.9,203.8z"/>
	<path class="st53" d="M851.8,208.9c-1.7-1.7-1.4-4-1.9-6.1c0.3-1,1.2-2.3,1.6-0.7c0.7,2.9,3.1,5.4,2.4,8.7
		C853.2,210.2,852.5,209.6,851.8,208.9z"/>
	<path class="st97" d="M848.1,227.2c0.8-0.9,0.5-3,2.4-3.3c0.9-0.1,1.7,0.7,1.4,1.6c-0.5,1.3-0.8,3-2.5,3.4
		C848.4,229.1,847.8,228.5,848.1,227.2z"/>
	<path class="st98" d="M203.9,165.7c-1.2-0.1-2.4-0.3-3.7-0.4c0-0.6,0-1.2,0-1.7c0.8-1.5,1.6-3.1,3.8-1.7
		C204,163.1,204,164.4,203.9,165.7z"/>
	<path class="st95" d="M155.8,195.7c1.5,1.2,4.6,1.9,0.9,4.3c-0.6,0.3-0.4,1.8-0.6,2.7C153.8,200.5,155.6,198.1,155.8,195.7z"/>
	<path class="st99" d="M203.9,171.7c-1.3,0-2.7,0.2-2.8-1.7c-0.1-2.1,1.2-2.3,2.8-2.3C203.9,169,203.9,170.4,203.9,171.7z"/>
	<path class="st100" d="M204,153.8c-1.4,0.1-3,0.7-2.9-1.7c0.1-1.9,1-2.5,2.8-2C203.9,151.3,204,152.6,204,153.8z"/>
	<path class="st45" d="M342,56.8c2,3.2,0.7,6.7,1,10C340.7,63.7,342.6,60.1,342,56.8z"/>
	<path class="st101" d="M661,228.8c-0.4-1.2-1.6-2.2-0.8-3.6c3.6,1.5,3.6,1.5,2,3.5C661.8,228.8,661.4,228.8,661,228.8z"/>
	<path class="st102" d="M544.7,171.8c1.5-4.5,3.1-3.1,4.7-0.1C547.8,171.7,546.2,171.7,544.7,171.8z"/>
	<path class="st53" d="M821.1,187.9c1.9,0.1,1.2,1.1,0.7,2c-0.8,1.3-1.9,2.4-1,4c-2.9-0.9-1.3-2.6-0.7-4.1
		C821.1,189.5,821,188.7,821.1,187.9z"/>
	<path class="st103" d="M1014.1,124.9c-0.4-0.5-0.8-1.1-1.3-1.4c-4.1-2.5-2.9-6.2-2.7-9.7c1.3-0.5,1.4,2.8,2.9,0.6
		c1.8-0.8,3.3-3.6,5.4-0.2c0.7,1.1,2.3,0.7,3-0.4c1.9-2.7,4.4-2.9,6.7-1c1.9,1.5,5.3,0.1,6.1,3.4c0.6,2.3,2.4,2,3.3,0.9
		c3.7-4.4,7-1.4,10.5,0.2c0.6,1.4,4.2,1.6,1.9,4.3c-3.2,0.4-6,2.4-9.3,2.4c-2.5,1.4-4.9-0.7-7.3-0.2c-1.2,0.1-2.5,0.4-2.1,2
		c0.7,2.8-1.5,1.1-2.3,1.6c-1.3,0.7-2.6,0.6-3.9,0c-1.9-1.8-4.1-2.5-6.7-2.1C1016.9,125.5,1015.4,125.9,1014.1,124.9z"/>
	<path class="st104" d="M1013.7,85.7c0.4-0.6,0.9-1.3,1.3-1.9c1.3-0.8,2.6-0.4,3.8,0.3c0.7,2.4,2.5,1.9,4,1.2c1.7-0.7,3.3-1.7,5,0
		c0.5,0.5,0.6,1.1,1.2,0c2.7-4,4.8-3.8,6.6,0.9c0.4,1.1,2,1.3,2.6-0.4c0.4-1-0.2-2.8,1.6-2.4c1.9,0.5-0.3,1.9,0.1,2.9
		c0.2,0.5,0.3,1,0.4,1.4c-0.7,0.9-1.7,1.1-2.7,0.9c-4.8-0.6-9.5,0.3-13.7,2.1c-2.6,1.1-4.5-0.2-6.7,0c-0.4,0.4-0.9,0.5-1.5,0.6
		C1012.3,90.5,1011,88.8,1013.7,85.7z"/>
	<path class="st105" d="M1002,94.6c2.7,0.5,2.6,0.4,1.8,2.6c-0.4,0.9,0.7,1.3,1.5,1.7c0.8,1.8,1.3,3.7-0.9,4.6
		c-1.9,0.8-3.9,2.1-6.1,0.7c-1.5-0.9-2.5-2-1.3-4.1C998.2,98,999.2,95.5,1002,94.6z"/>
	<path class="st106" d="M1058.1,104.9c-2.9-1.2-2.2,2.5-3.9,2.9c-0.2-1.1-1-1.4-2-1.8c-3.9-1.3-5.6-4.1-4.8-8.8
		c2.2,2.1,4.3,5.7,6.2,0.3c0.3-0.8,2.1-0.2,2,0C1053.1,101.1,1058.1,102.1,1058.1,104.9z"/>
	<path class="st107" d="M1015.7,90.9c0.5,0,1,0,1.5,0c-0.1,1.7,3.4,3.2,0.5,4.9c-2.5,1.5-3.1,7.7-8.2,3.5c-0.5-0.4-1.9,0.7-2.6-0.5
		c0.2-1.6,3.4-1.5,2.4-3.9C1011.7,94.2,1012.2,90.2,1015.7,90.9z"/>
	<path class="st108" d="M1040.9,87.9c0.3-1.9,1.4-4,3.2-3.7c2.4,0.3,4.6,1.8,5,4.7C1046.3,92.6,1045.1,92.4,1040.9,87.9z"/>
	<path class="st109" d="M1049.9,121.6c1.1-2.2-1.7-2.7-1.9-4.3c2.3,1.7,3.8-2.2,6-0.8c0.6,1.4,3.9,1.3,2.4,3.8
		C1054.9,123.1,1052.6,123.9,1049.9,121.6z"/>
	<path class="st106" d="M1058.1,95.8c1.1,1.8,2.6,3.5,1.4,5.5c-0.1,0.2-1.4,0.2-1.7-0.2C1056.1,99.3,1059.1,97.7,1058.1,95.8z"/>
	<path class="st110" d="M1023.9,69.7c0.4-5.6,6.4-5,9.1-8.1c4.4-2.1,5.6,1.4,7.2,4.2c-0.9,1.2-1.6,2.5-1.2,4.1
		c-0.2,1,0.1,2.1-0.8,2.9c-3.4,0.1-6.8-2.5-10.3,0.4c-0.9,0.7-3.1-0.6-3.8-2.4C1024.1,70.4,1024,70.1,1023.9,69.7z"/>
	<path class="st111" d="M1014.1,124.9c2.7-1,5.5-1.2,8.3-1.1c2.2,0.1,2.9,1.2,2.8,3.2c2.5,2.2,1.3,4-1.2,5.6
		c2.5,1.4,4.7,2.3,6.4,4.2c0.1,0.5,0.1,0.9-0.1,1.4c-3.9,2.7-8.2-0.1-12.2,0.7c-2.6,0.3-2.9,0.1-2.2-0.8c4.1-4.8,1.9-8.6-1.8-12.3
		C1014,125.5,1014,125.2,1014.1,124.9z"/>
	<path class="st112" d="M1018,138.9c3.1-1,6.2-3.2,9.4-0.1c0.3,0.3,1.7-0.6,2.6-0.9c1,0.4,0.2,2.8,2.3,2c0.4,0.6,0.4,1.3,0.1,1.9
		c-0.6,0.8-1.5,1-2.4,1.1c-1.2-0.1-0.8-2.9-1.7-1.8c-1.7,1.9-3,4-5.8,3.3C1019.6,143.8,1019.7,140.6,1018,138.9z"/>
	<path class="st113" d="M1029.9,143c0.3-0.8,1-1.1,1.8-1.1c0.9,0,1.7-0.9,3.3-0.2c-1.3-0.9-2.5-0.8-3.2-1.8c-2.3,1-1.9-0.7-2-2
		c0-0.3,0-0.7,0-1c1.6-1,3.3-1.5,5-0.1c0.4,0.4,0.8,0.7,1.2,1.1c0.2,1,0.9,1.5,1.8,1.7c2.1,0.6,1.9,1.7,0.9,3.2
		C1036,144.7,1033,146.1,1029.9,143z"/>
	<path class="st42" d="M995.2,140.6c-0.4-2.2,0.7-4.5-0.3-6.7c0.3-0.3,0.6-0.4,1-0.4c1,2.3,2.1,4.7,3.1,7
		C997.7,141.1,996.5,140.8,995.2,140.6z"/>
	<path class="st3" d="M1038.9,142.7c0-1.2,0.1-2.3-0.9-3.2c3.1-2.6,4.1,1.9,6.5,1.9C1042.4,140.9,1041,143.5,1038.9,142.7z"/>
	<path class="st114" d="M1049.9,141.9c0,1.4-0.8,1.8-1.9,1.9c-1.1,0.1-1.9-0.5-1.9-1.7c0-0.9,0.8-1.4,1.6-1.5
		C1048.9,140.5,1049.7,141,1049.9,141.9z"/>
	<path class="st115" d="M995.9,133.4c-0.3,0.1-0.7,0.3-1,0.4c-1.1-0.9-2.6-1.6-1.1-3.4c1.3-1.5,2.2-0.1,3.3,0.4
		c-0.2,0.6-0.3,1.3-0.5,1.9C996.4,133,996.1,133.2,995.9,133.4z"/>
	<path class="st3" d="M1055,139.9c1,1.8,0.1,2.6-1.6,3.2c-0.7,0.2-1.3,0.2-1.3-0.7C1052.2,140.5,1053.3,139.9,1055,139.9
		C1055,139.8,1055,139.9,1055,139.9z"/>
	<path class="st2" d="M1035,136.8c-1.7,0-3.3,0.1-5,0.1c-2.6,0.2-4-2.9-7.2-2.2c-1,0.2-0.1-4.1,0.9-4.1c4.2-0.2,0.4-2.7,1.3-3.7
		c1.3-0.2,2.6-0.4,3.8,0.4c0.9,2.4,2.7,4.6,2.4,7.6c1.2-2.2,3.1-3,4.8-1.7C1037.6,134.4,1036,135.8,1035,136.8z"/>
	<path class="st116" d="M1033.3,123.8c-0.4-0.9-1.4-3,0.1-2.2c2.4,1.3,5,1.1,7.2,2.4C1038,129,1035.7,124.6,1033.3,123.8z"/>
	<path class="st117" d="M507.1,71.9c-0.5-1,1.2-2.1-0.1-3.1c0.9-4.8,4.5-3.9,7.6-3.6c5.8,0.7,11.7,0,17.1,0.4
		c4.2,0.4,7.7-1,11.3-1.4c4.3-0.5,8.5,0.7,12.7-0.3c2.2-0.5,4.2,2.1,7,0.4c1.6-1-1.3,4.3,2.1,3c1.1-0.4,1-3.3,3.6-2.6
		c1.9,0.5,3.4-0.8,5.1-1.5c0.6-0.2,1.5,0.4,2.3,0.6c1.4,4,5.2,3.9,7.8,3.3c7.4-1.6,14.6-0.7,21.9,0.6c3.1,0.5,5.9,0.5,9.1-0.4
		c3.7-1.1,7.9,0.2,11.8,0.3c6,0.1,12.1-0.5,18.1-0.8c1.5-0.1,3,0,4.5,0.1c1.4,0.1,3.2,0.6,3.3,1.8c0.3,5.3,4.2,4.5,7.2,4
		c3.3-0.5,5.5,2.1,8.4,2.3c-0.9,2.6-2.8,1.7-4.5,1.1c-3.1-1.3-6.1-1.5-9,0.6c-0.8,0.6-1.8,0.8-2.8,0.6c-11.6-1.4-23.1-0.8-34.4,1.7
		c-1.6,0.3-2.9-0.4-4.4-0.7c-3.2-0.7-6.5-1.9-9.5,0.6c-1.3,1.2-2.6,2.3-4.5,1.4c-1-0.9-0.9-2-0.2-3.2c-13.5,1.8-27.1,0.8-40.5,1.5
		c-5.9,0.3-12.3-0.9-18.3-1c-5.9-0.1-11.8-0.2-17.7,0c-1.3,0-2.7,0.4-4,0c-4.1-1.2-6.7,0-8.2,4c-0.4,1.2-1.4,2.4-3,1.2
		c0-0.3,0-0.7,0-1C507.9,78.5,507.8,75.2,507.1,71.9z"/>
	<path class="st117" d="M564.1,55.9c1.3-0.6,2.1-2.1,3.8-2c-1.5,2.9-1.5,2.9,1.1,3.6c0.6,0.1,0.9,0.3,0.8,0.8
		c-0.1,0.4-0.4,1-0.7,1.1C566,60.3,563.8,59.7,564.1,55.9z"/>
	<path class="st117" d="M558,58.8c-0.4-0.4-1-1.5-0.2-1.2c2.1,0.6,3-0.6,4.2-1.7C562,58.7,561.3,60.6,558,58.8z"/>
	<path class="st118" d="M599,79.7c1.9,0.5,2.8-1,3.9-2c6.1-1.1,7.8,0.4,6.6,5.6c-0.9,4.1,1.3,6.5,5.7,6c1.6-0.2,2.9,0.1,4.2,1.1
		c1.9,1.5,0.7,4.9,3,5.8c2.2,0.8,1.6-4.2,5-2.4c-2-3.1-5.1-3.3-7.4-4.8c1.1-4.2,2.3-4.9,5.5-3.3c1.5,0.8,2.9,1.6,4.2,2.6
		c0.6,0.5,2.2,1.4,2.4,1.3c1.2,1.4,0.9,3,0.7,4.6c-0.1,1.2-0.8,2.9,1,3.3c1.7,0.3,1.8-1.5,2.3-2.6c0.3-0.7,0.6-1.5,1.1-2.2
		c1.6-3.3,3.4-6.2,7.8-4.2c0.3,3.8,0.4,7.6,1.9,11.2c0.1,0.8-0.1,2,0.8,2.1c5.6,1.1,11.2,1.6,16.8-0.3c0.1-0.7,0.4-1.2,0.9-1.6
		c2.8-0.8,5.5-4.3,8.6-0.6c0.2,0.4,0.3,0.9,0.3,1.3c0,3.4,1.6,1.3,2.8,0.8c2.7-1.5,5.5-0.7,8.3-0.1c2.2,0.4,2.5,1.8,1.3,3.7
		c-1,3-3.3,6.4,2.1,7.8c-1.1,4.3-4.6,3.3-7.6,3.2c-2.1,0-4.5-1-6.2,0.5c-2.4,2.3-4.5,0.8-5.4-0.8c-1.3-2.3,1.1-3.2,3-3.9
		c0.8,0.6,1.7,0.5,2.7,0.3c-0.8-0.6-1.8,0.3-2.5-0.5c-0.3-2.2-1.2-4.4-3.7-3c-1.5,0.8-4.5,2.3-2.2,5.4c0.6,0.8,0.3,2.4,0.9,3.1
		c2.8,2.7,1.8,3.1-1.3,2.6c-1.2-0.2-1.2-0.1-0.9,2.1c-4.2-0.2-3.8-3.3-4-6.1c-3.2-1.4-4,1.9-5.9,3c-1,0.3-2,0.6-3,0.9
		c-1.7-1-3.4,2.3-5.1,0c0.2-1.1,2.3-3.3-1.3-2.4c-4.5,1.2-8.7,0-12.8-2c-1-0.5-2.5-0.9-3.3-0.5c-3.6,2-7,1.9-10.6,0
		c-0.4-0.2-1.6,0.1-1.8,0.4c-2.3,4.6-5.8,1.4-8.8,1.5c5.6-4.5,12.3-3.9,18.8-4.2c5.9-0.3,11.9,1,17.7-0.8c4.2-1,8.6,0.4,12.7-1.4
		c-4.5-0.6-9.3,2.6-13.7-0.6c-3.5-2.4-7.5,1-11.1-0.8c-4.5-0.7-8.8-2.5-13.5-2.2c-3.2,0.2-6.7-0.5-9.4,2c-1.9,3.7-4.8,0-7,1
		c0.7-3-1.1-3-3.1-2.6c-1.7,0.4-3.7,1-4.1-1.2c-0.5-2.4,1.6-3.1,3.7-3.6c-1.3,0.1-2.7,0.7-4-0.1c-0.7-0.4-0.9-1-1-1.8
		c0.1-0.5,0.2-0.9,0.5-1.3c1.7-1.4,3.9-1.2,5.8-1.9c0.7,0,1.3,0.3,1.9,0.5c1.5,0.6,3,0.2,4.4-0.2c1.4-0.4,1.1-1.3,0.2-2.1
		c-0.7-0.5-1.4-1.1-1.9-1.8c-1.2-3.3-2.7-5.9-6.6-7C595.7,85.6,595.7,82.5,599,79.7z"/>
	<path class="st119" d="M555.1,105.1c-0.4-0.9-0.7-2.3-1.4-2.6c-6.1-2.8-2-6,0.1-10.2c-3.5,2.8-6.8,1.7-9.9,2.7
		c-1.6,0.5-4.9-0.8-2.8-4.2c3.7-2,7.9-1.6,11.9-2.1c2.6-0.3,5,0.6,5,4c0,1.9-1,3.9,0.3,6c0.9-1.9,4.2-1.1,4-4c0.5-0.9,1-2.1,2.1-1.8
		c2.1,0.6,1.2,2.8,1.7,4c0.1,0.9,0.9-0.3,0.4,0c-1.4-4.1,0.6-5.9,4.3-6.5c1-0.2,2,0.1,3-0.5c0.7-1.5-1.1-2.7-0.7-4.2
		c0.3-1.2,1-2.7,2.2-1.4c2.7,2.9,8.6,0.5,9.7,6.3c0.3,1.4,2.9,1.6,3.5-0.9c0.1-0.5-0.1-1,0-1.5c0.5-1.9-0.1-4.9,3.2-4.6
		c3.1,0.3,4,2.5,3.6,5.4c-3.2,3.7-3.1,9.1-6.7,12.5c-2.3,1.7-5.2,2.1-7.4,3.2c1.6,0.4,3.4-0.1,5.1-1.1c1.3-0.8,2.8-0.9,4.3-0.8
		c1.4,0.1,2.7,0.6,3.2,1.9c0.6,1.6-0.6,2.4-1.6,3.3c-0.7,0.6-1.7,1-2.4,1.8c-5.3,3.1-10.1,0.6-15.1-1c-4.1-3.7-9.1-2.3-13.8-2.6
		C559.1,106,556.7,107.3,555.1,105.1z"/>
	<path class="st120" d="M555.1,105.1c4.9-0.1,9.8-0.3,14.7-0.2c2.4,0.1,5,0.5,5.2,3.8c-4.8,0.2-9.5,0.8-13.8,3.1
		c-1.3,1.1-3.1,0.7-4.6,1.6c-2.1,1.3-4.1,1.8-4.2-1.9c-0.1-1.5-2,0.7-2.4-0.8c-1.3-1.7-4.4-0.3-5.1-3
		C548.5,107.6,552.5,109.1,555.1,105.1z"/>
	<path class="st121" d="M590,109.8c0.2-0.6,0.3-1.3,0.5-1.9c0.4-1.4,4.1-1.1,2.3-3.3c-1.2-1.5-4-1.2-5.6-0.2c-3,2-6.3,0.9-10.4,2.3
		c1.7-2.4,3-2.8,4.5-2.9c0.5,0,1.9,0.7,1.6-0.8c-0.9-3.6-0.4-4,2.2-1.2c1.2,1.3,1.8-0.9,2.9-1c2.7-0.4,5.4-1,7.9,0.9
		c2.4,0.3,4.9,0.3,7.3-0.7c-0.1,0.6-0.1,1-0.3,1.1c-1.7,1.4-5.9,1-5.2,3.4c0.7,2.6,4.1,0.1,6.3,0.3c1.5,0.1,3-0.1,3.7,1.7
		c-0.4,2.2-4-0.9-3.7,2.2C599.3,107.1,594.7,110.9,590,109.8z"/>
	<path class="st122" d="M550,110.7c3.6-2.1,4.6-0.8,2.9,3.5c3.2-1.4,5.2-3.9,8.3-2.4c-0.3,1.1-0.9,2.5,0.5,3.1
		c2.8,1.4,2.1,2.9,0.3,4.5c-1.7,1.4-3.1,2-5-0.1C554.5,116.5,549.8,115.7,550,110.7z"/>
	<path class="st11" d="M648,119.8c1.5,0.2,2.6-0.3,3.8-1.3c1.9-1.6,0.7,0.9,1.3,1.3c1.2,3.9,2.2,7.7-4.2,7.4c-0.9,0-1.9,1.1-2.9,1.7
		c-0.8-0.3-1.3-1.7-1.8-1.4c-0.7,0.3,0.9,1.4,0,2.2c-1.6,2-2.9,0.9-4.1-0.4c-0.9-0.9-1.3-2.1-0.5-3.1c1.2-1.5,2.8-2.5,4.8-2
		c1.2,0.3,2,1.9,3.9,1.4C649,123.7,643.3,121.6,648,119.8z"/>
	<path class="st121" d="M611,108.8c-1.4-3.2,1.5-2.8,2.8-2.9c4.9-0.2,9.8,0,14.7-0.1c2.5,0,3,3.2,5.4,3.2c-0.2,4.1-4.4,2.2-4.7,2
		c-5.4-4.2-11.4-2.5-17.2-2.2C611.6,108.8,611.3,108.8,611,108.8z"/>
	<path class="st123" d="M645,109.8c2.5,0,5,0,7.4,0c0.8,0,2.3,0.1,2.4-0.1c0.9-3.2,1.9-4.3,3.9-0.6c0.3,0.5,2.4-1.8,2.2,0.6
		c-0.1,1.3-0.8,3.2-2.7,2.9c-4.1-0.5-8.2,1.2-12.2-0.8C645.4,111.3,643.8,111.2,645,109.8z"/>
	<path class="st124" d="M570.4,125.9c1.2-1.4,2.9,2.9,3.7-0.8c0.4-2,2.5-1.7,3.6-0.9c1,0.8,3.1,1.8,2.3,3.2
		c-0.7,1.2-2.3,2.7-4.1,2.4C573.5,129.3,571.1,128.6,570.4,125.9z"/>
	<path class="st23" d="M526,122.9c-2.5-4.6,1.9-3.8,3.8-4.9c-0.4,1.8-0.1,3.3,1.4,4.8c1.2,1.3,1.7,3.7-0.3,4.6
		c-2.1,0.9-2.7-1.1-2.9-2.8C527.8,123.4,527.1,122.9,526,122.9z"/>
	<path class="st125" d="M535,124.4c2.6-1.9,4.3,2.3,7,1.1c0.3-0.2,1.5,1.5,0.3,2.3c-0.9,0.7-1.9,3-3,1.3c-1.2-1.9-3.2-1.3-4.5-2.4
		C534.6,125.9,534,125.1,535,124.4z"/>
	<path class="st57" d="M528.9,112.7c3.2-3.8,5.4,1.3,8.1,1C534,116.4,531.7,112.5,528.9,112.7z"/>
	<path class="st126" d="M644.1,129.6c0.1-2.2-3.5,0.2-3-2.4c0.2-0.9,0.9-1.4,1.7-1.3c1.9,0,3,1,3.1,2.9
		C645.3,129.1,644.7,129.4,644.1,129.6z"/>
	<path class="st11" d="M656.1,118.8c1-2.9,2.7-4.5,6-3.8c0.1,0,0.2,0.2,0.2,0.4c0,0.1-0.1,0.3-0.2,0.4
		C659.4,115.7,658.6,118.9,656.1,118.8z"/>
	<path class="st127" d="M655.5,129.4c0.9-2.1,2.1-2.8,3.8-2.2c0.6,0.2,1,1.1,0.5,1.7C658.7,130.3,657.2,129.8,655.5,129.4z"/>
	<path class="st128" d="M677.2,126.3c2.5,0,3.9,3.9,6.7,1.3c0.3,0.6,0.8,1.1,1,1.7c0.3,1.2-0.7,1.1-1.4,1.5
		c-3.3,1.9-4.7-1.8-7.1-2.6C675.6,128,676.4,126.6,677.2,126.3z"/>
	<path class="st129" d="M669.4,150.9c0.5,1.4,2.7,2.4,0.9,4.3c-0.7,0.7-1.5,0.9-2.2,0.5c-2-1.1-0.7-2.5-0.3-3.8
		C668.1,151.2,668.6,150.8,669.4,150.9z"/>
	<path class="st130" d="M693.8,144.7c-1.3-0.3-3.1,0.9-3.6-1.3c-0.1-0.3,0.5-1,0.8-1.1C692.9,141.9,693.6,143,693.8,144.7
		C693.9,144.7,693.8,144.7,693.8,144.7z"/>
	<path class="st131" d="M364.2,146.8c-0.9,0.4-1.8,0.7-2.6,1.1c-1.7,0-3.5,0.2-4.5-1.6c-0.1-0.5-0.2-1-0.3-1.5
		c0.6-2.7-0.5-5.6,1.6-8.1c1.3-1.6-1.1-2.4-2-3.5c4.6-0.5,4.7-0.6,5.2,3.8c0.2,1.3,0.7,1.8,1.9,1.5c5.6-1.4,4.3,2,3.7,5.1
		C366.7,145,364.8,145.3,364.2,146.8z"/>
	<path class="st30" d="M381,113.8c1.5,0.1,3.1,0,2.9,2.3c-0.1,0.7-0.4,1.4-1.2,1.3C380.8,117,381,115.3,381,113.8
		C381,113.9,381,113.8,381,113.8z"/>
	<path class="st132" d="M364.2,146.8c-0.7-2.7,1.2-2.9,3-3.2c0.3,0.4,0.6,0.8,0.9,1.2C367.1,146,365.7,146.5,364.2,146.8z"/>
	<path class="st19" d="M160.9,97c2-1.5,3.3-1.2,5-0.5C164.4,98.5,163,97.9,160.9,97z"/>
	<path class="st133" d="M848,90.8c-0.6-1-2.2-1.4-2-2.9c2.1-3.8,4.4-4.5,7.6-0.9c2.8,3.1,6,2.6,7.6-0.7c2-4.1,3.7-4.6,6.8-1.9
		c0.9,0.8,3-1.1,3,1.4c-0.8,0.5-1.1,1.1-0.5,2c0.6,0.8,2.4,0.8,1.8,2.5c-0.9,2.4-1.5-0.7-2.5-0.1c-1.7,0.9-0.9,1.8-0.2,2.7
		c-5.3,2.7-11,2.4-16.7,2.2C851.4,93.4,848.8,93.1,848,90.8z"/>
	<path class="st134" d="M842,95.7c0.7,0,1.3,0.1,2,0.1c0.5,0.6,0.6,1.3,0,1.9c0.2,1.5,0.3,3,0.7,4.4c1.1,4-0.6,4.4-3.8,3.2
		c-3-1-7.1,2.3-7.5,5.8c-0.4-2.8-6-2.7-3.4-7c3.4-1.2,5.2-2.9,5.4-7.1c0.2-3.7,3.2,1.7,4.7-0.5C840.6,96.1,841,95.2,842,95.7z"/>
	<path class="st25" d="M844,97.7c0-0.6,0-1.2,0-1.9c1.3-1.6-0.4-3-0.3-5c1.5,0,2.9,0,4.4,0c1.3,1.8,5.2,0.5,4.8,4.3
		c-1.9,1.7,2,1.4,0.9,2.6c-0.6,0.6-1.9,1.1-2.7,0.9c-1.9-0.6-0.6-2.6-1.6-4.4C849,98,846.9,98.8,844,97.7z"/>
	<path class="st135" d="M692,178c0,0.2,0,0.5,0,0.7c-4.3,0.9-8.5,2.9-13.1,1.9c2.1-1.5,4.8-0.3,7-1.7c-4,0-8,0-11.9,0
		c-1.2,0-3.5,0.1-2.5-1.8c2.5-4.5,0-5.8-3.6-6.9c1.6-2.8,3.6-2.6,5.7-0.6c0.9,2.1,2.2,3.4,4.7,2c0.2-0.1,0.7,0,1,0
		C686.1,170.3,689.3,171.9,692,178z"/>
	<path class="st136" d="M712.9,174.7c-0.5-0.2-1.1-0.4-1.6-0.6c-1.4-0.8-2.8-1.5-4.3-2.3c-0.2-0.2-0.4-0.4-0.5-0.5
		c0.1,0.1,0.3,0.3,0.5,0.5c0.1,1,0.2,2,0.2,3c0,0.8-0.1,1.7-1.2,1.9c-1,0.1-1.4-0.7-1.9-1.4c-1.6-2.4-0.5-5.5-2.2-7.9
		c-0.1-0.2-0.3-0.5-0.4-0.7c0.3,0.1,0.5,0.2,0.8,0.3c3.3,0.7,4.6-1.5,5.6-4l-0.1-0.1c0.4,1.7,4.1,1.5,2.4,4.5
		c-0.5,1,0.9,1.5,1.9,0.7c1.2-0.8,2.8-2.6,3.4-0.5c0.4,1.2,1.1,3.9-1,5.1C713.9,173.3,713.1,173.6,712.9,174.7z"/>
	<path class="st137" d="M702,167.3c-3.7-0.3-3.7-0.3-3,3.9c-1.9-1.1-3.5-2.1-5.2-3.1c3.2,1,4.9-7.9,8.6-1.3c0,0-0.4,0.1-0.4,0.1
		L702,167.3z"/>
	<path class="st138" d="M673.7,169.6c-2-1-3.8,0.2-5.7,0.6c-0.9-0.8-1.9-1.8-0.2-2.6c1.5-0.7,2.8-2.5,4.9-1.7
		C674.5,166.7,674.4,168.1,673.7,169.6z"/>
	<path class="st139" d="M696.8,159c-0.4-2-4.1,0-3.6-2.9c0.2-1.2,1.3-1.5,2.3-1.3C697.7,155.4,697.3,157.1,696.8,159z"/>
	<path class="st136" d="M708,162.9c-2.4-3,1.1-3.3,2.2-4.6c0.1-0.1,0.8,0.3,1.1,0.6c0.5,0.5,0.8,1.4,0.2,1.7
		C710.3,161.2,709.7,163,708,162.9C708,162.8,708,162.9,708,162.9z"/>
	<path class="st140" d="M706.9,146.6c1.3,0.9,2.6,2,2,3.8c-0.3,1-0.7,3-2.4,2.6c-2.2-0.6-1-1.9-0.1-2.8
		C707.6,149,705.2,147.8,706.9,146.6z"/>
	<path class="st136" d="M717.1,166.9c-0.4-1.5-3.3-0.2-2.9-2.5c0.2-0.9,1-1.2,1.9-0.9c1.1,0.3,2.4,0.5,2.3,2
		C718.4,166.1,718.3,167.1,717.1,166.9z"/>
	<path class="st141" d="M715,159.2c-2.7-1-3.5-2.1-2.6-4c0.3-0.5,0.8-1.4,1.4-0.9C715.4,155.4,714.3,157.1,715,159.2z"/>
	<path class="st142" d="M396,68.7c2.8,0.2,0.2,3.3,2.2,4c0.2,1.1,0.9,1.8,1.9,2.2c0.5,1.3,2.1,2.2,1.2,3.9c-5.7,1.3-11.2-0.6-16.6-2
		c-0.7,3,2.4,1.3,2.7,3.5c-3.8-0.7-8.6,2.4-10.2-4.3c-1.9,1.9-2.8,5-6.2,3.9c-5.4,3.1-6.8,2.6-9.1-3c1.3-2.9-1.6-5.3-1.1-8.1
		c2.1-0.7,2.8,0.9,3.7,2.2c0-1.7,0.2-3.3,2.5-3.2c3.1,1.3-2,3.4,0.5,4.6c1.5,0.7,2.5,3.4,4.2,2.5c2.1-1.1,2.8-3.5,2.1-6
		c0.7-0.6,1.5-1.2,2.2-1.8c0.6-0.7,1.5-0.6,2.3-0.5c1.8,0.1,4.2-0.3,1.7,2.6c-0.2,0.2,0.5,1.3,0.9,1.5c0.5,0.2,0.6,0.2,0.6-0.1
		c-0.3-3.7,1.9-3.1,4.1-2.3c1.5,0.5,2.9-0.7,4.3-0.2c0.6,0,1.3-0.1,1.9-0.1c1.1-1.2,2.1-1.7,2.9,0.3C395.2,68.2,395.6,68.4,396,68.7
		z"/>
	<path class="st45" d="M390,67.8c-2.2,3.1-4.6,2.3-6.9,0.1c-0.2,0.5-0.3,0.6-0.4,0.7c-1.3,1.7,2.6,3.9,0,5.1c-3,1.4-1.8-2.2-2.9-3.2
		c-0.1-0.1-0.3-0.2-0.4-0.3c-1.1-0.4-3.1,1.1-3.1-1c0-2.4,3.2,0.5,3.9-2.3c-1.5,0-2.8,0-4.2,0c3.2-2.1,7.1-0.8,10.6-2.5
		C387.8,63.8,389.9,65.5,390,67.8z"/>
	<path class="st49" d="M394.8,67.9c-0.9-0.7-1.9-0.5-2.9-0.3c0.1-1.6-0.1-3.4,0.4-4.9c0.5-1.4,2.2-2.3,3.7-1.6c1.4,0.6,0.6,2,0.2,3
		C395.8,65.5,395.3,66.7,394.8,67.9z"/>
	<path class="st143" d="M632.1,89.9c-0.9-1-0.4,3.3-2.3,0.5c-3-4.7-7-5.1-9.8-1.5c0.3,1.1-0.2,1.6-1.1,1.9c-1-0.2-2.4-0.9-2.8-0.6
		c-4.2,3.9-5.8-0.4-7.6-2.6c-1.6-2-1.7-4.5,0.9-6.4c0.6-0.5,0.8-1.6-0.5-1.7c-2.1-0.3-3.6-2.3-5.9-1.8c3.3-3.2,6.9-1.6,10.3-0.6
		c2.2,0.7,4.1,0.4,6.3-0.2c6.8-1.7,13.9-1.1,20.9-1.3c4-0.1,8.2-2,12,0.8c0.2,0.2,1.1-0.4,1.6-0.8c3.2-2.9,6.6-2.3,10-0.5
		c1.5,0.8,2.7,1.1,4.1,0c2.6,0.3,2.7,1.9,1.9,3.9c1,0.7,0.2,2.3,1.7,2.9c1.2,0.5,2.7,1.3,2.3,2.9c-0.5,1.6-2.2,1.9-3.7,2.1
		c-2.3,0.3-4.6-0.1-6.9-0.7c-1-0.5-1.1-1.8-2-2.4c0.8,0.9,1.3,1.9,2.1,2.8c-2.5,3.3-7.9,2.1-10-2.1c0.2-1.2,1.6-2.1,0.7-4.5
		c-0.6,3.1-1.7,4.2-4,2.6c-6.3-4.1-6.3-4.1-14.2-1.5c3.1-0.8,6.2-0.3,9.3-0.8c2.1-0.3,3.5,0.4,4.3,2.4c-0.2,2.6-3.5,3.5-3.3,6.3
		c-0.4,0.3-0.8,0.4-1.2,0.2c-3.5-0.8-5,1.9-6.9,3.9C636.7,90.6,634.5,90.2,632.1,89.9z"/>
	<path class="st144" d="M654,84c1.7,2.7,7.1,3.8,8.9,1.8l0,0c3.1-2.1,6.9,1.7,10-1.5c-0.8-1.8-4.6-2.2-3-5.5c1.6,0.2,2-1.5,3-2.1
		c2.1-0.7,3.3,2.9,7-0.1c-3.4,4.6-3.4,6.6,1.5,6.7c3.6,0.1,3.7,3.6,4.6,6.2c-2.5,4-6.2,5.3-10.6,4.9c1.5,3.3,1.4,3.6-1.5,5.3
		c-3-2.5-5.2,0.8-7.9,1.1c-2.5-0.4-5.4,0.4-7.2-2.2c-0.8-1.1-1.9-2.2-0.9-3.5c1-1.2,2.1,0.1,3.1,0.5c0.4,0.2,0.8,0.5,1.2,0.6
		c-2.2-1.1-4.6-3.5-5.5,1.2c-0.3,0.4-0.6,0.7-1.1,0.8c-0.9,0.1-1.8-0.1-2-0.9c-0.8-4.5-4.5-6.4-7.8-8.7c-2.6-3.8,1.7-4,3.1-5.8
		C650.9,82.5,652.4,83.6,654,84z"/>
	<path class="st79" d="M832.9,155.9c1.5-1,1.2-2.9,2.1-4.1c1.8-1.5,4.1,0,6.2-1.4c1.2-0.8,0.9,1.2,0.1,2.1c-0.4,0.5-0.4,1.3,0.2,1.7
		c0.7,0.4,1.6,0.1,1.6-0.5c-0.1-2.8,5.4-1.7,3.8-5.6c0-0.1,2.1-1.1,3.3-1.7c-0.9,1.9,3,2.3,1.5,4.5c-0.2,0.4,0.1,1.2,0.2,1.7
		c-0.1,2.4-1.6,4.1-3.3,6.2c1.9,0,3.7-1.5,4.5,0.7c0.5,1.3-0.9,0.9-1.5,1.2c-0.5,3.4-3.5,3-5.7,3.7c-1,0.2-1.9,0.1-2.8-0.4
		c-1-0.6-1.4-2.7-3-1.4c-1.3,1.1-1,2.6,0,3.9c0.3,0.4,0.5,0.8,0.7,1.3c0,1,0.1,1.9,0.2,3.1c-3.5-2.3-3.5-2.3-8.2-0.6
		c-0.7-0.5-0.6-1.3-0.2-1.7c2.6-2.6,3.7-4.7-0.4-7.3C829.5,159.7,831.9,157.7,832.9,155.9z"/>
	<path class="st145" d="M826.9,145.8c-1.7-0.5-4.7,1.8-5-0.9c-0.2-2.2-2-5.6,2.3-7.4c2.7-1.1,4.7-3.8,7.8-4.5
		c2.8-0.9,3.9,5.6,7.5,1.7c-1.4,2.8-3.2,4.9-6.2,5.2C829.5,140.1,827.4,142,826.9,145.8z"/>
	<path class="st79" d="M861.8,154.1c-1.5,0.8-2.3,3.2-4.8,1.3c-2-1.5-1.8,1.6-3,2c-1.6-1.4-0.8-3-0.8-4.5c1.3-1.3,3.2-0.8,4.7-1.5
		c2.6-1.2,1.8,0.1,1.6,1.7C859.3,154.3,860.9,153.8,861.8,154.1z"/>
	<path class="st14" d="M845.2,129.1c1.9,0.1,3.2,0.3,3.5,1.9c0.1,0.4-0.8,1.3-1.1,1.3C846.1,132,845.5,130.9,845.2,129.1z"/>
	<path class="st146" d="M996.3,74.8c-4.1-4.2,2.7-5.2,2.3-8.2c1.6,0.5,0.2,2.4,2,2.9c1-1.6,1.2-5.8,4.2-4c3.1,1.9,7,4.3,6.3,9.2
		c-0.2,0-0.3,0-0.5,0.1c-3.5,1.5-4.4-2.6-7.1-3.3c-4.1-1.1-2.2,5.4-5.8,4C997.1,75.3,996.7,75,996.3,74.8z"/>
	<path class="st20" d="M1024.2,70.7c2.1,1.3,4.1,3.1,5.9-0.4c0.3-0.5,1-0.8,1.5-1.2c1.5,2.6,5.1,1.2,6.7,3.6
		c-0.4,0.7-0.7,1.4-1.1,2.1c-0.1,0.1-0.3,0.2-0.4,0.2c-0.1,0-0.3,0-0.5,0c1,1.9,2.4,3.8-0.9,4.9c-3.7,1.1-3.6-1.7-4.1-3.9
		c-2,0.5-0.6,4.9-4.5,3.4c1.5-2.5,3-5.1-1.5-6.2C1024.3,73,1024,71.8,1024.2,70.7z"/>
	<path class="st0" d="M1015.7,90.9c-3-0.1-2.8,5-6.4,4c-0.7-1.5,0.8-3.3-0.4-4.8c-1-1.3-1.4-2.8-0.2-4c1.4-1.4,3.2-1.7,4.9-0.5
		C1012.5,88.2,1013.2,89.9,1015.7,90.9z"/>
	<path class="st147" d="M1031.2,76c0.9,1.2,0.4,3.6,2.7,3.4c1.1-0.1,2.6-0.3,2.8-1.6c0.4-2.2-2.3-2.3-3.2-3.7
		c1.5-1.1,2.5,0.2,3.6,0.7c1.3,1.4,2.2,2.9,0.7,4.7c-1.2,1.5-2.9,1.5-4.5,1.2C1030.7,80.2,1031.1,78,1031.2,76z"/>
	<path class="st0" d="M1018.8,84.1c-1.3,0.7-2.6,0.6-3.8-0.3c-3.6-3.8,3.5-2.4,2.7-5C1018,80.6,1018.4,82.3,1018.8,84.1z"/>
	<path class="st148" d="M974.3,69.2c1.7-1.7,5.1,3.2,4.5-2.1c-0.2-1.5,1-0.8,1.7-0.5c1.5,0.5,2.9,0.3,4.1-0.8
		c2.1-1.9,3.7-0.7,4.9,1.1c1.5,2.4-0.3,4-2.1,4.6c-1.5,0.6-4.1,2.4-4.6-1.5c-0.2-1.7-1.5-2.6-2.4-0.6
		C978,74.7,976.5,70.7,974.3,69.2z"/>
	<path class="st149" d="M966.1,68.3c-0.5,1.6-1.3,3.5-3.4,3.3c-2.2-0.2-4.3-2.3-4.3-4.1c0-1.8,2.8-2.6,4.8-2.7
		C965.1,64.8,965.9,66.2,966.1,68.3z"/>
	<path class="st9" d="M797.3,62.8c-0.3,1.1-0.8,1.9-2,1.9c-0.9,0-1.8-0.1-1.4-1.3c0.3-1.1,1-1.7,2.2-1.6
		C796.7,61.9,797.4,61.9,797.3,62.8z"/>
	<path class="st150" d="M708.1,99.8c-0.1,1-0.1,2.7-0.9,2.5c-4.4-0.7-8.6,4.2-12.9,0.3c-0.5-0.2-0.9-0.5-1.1-1
		c-0.9-1.9,0.6-2.5,1.7-3.5c1.4-1.3-0.8-0.7-1-1.5c-0.3-1.7,0.2-2.9,1.2-4.1c1.7-9.1,7.5-12.2,14-7.6c0.4,2.4-0.9,4.1-2.5,5.6
		c-4,3.8-4,4.5,0.1,7.9C707.2,98.9,707.7,99.3,708.1,99.8z"/>
	<path class="st151" d="M695,92.5c-1.8,4.5,1.7,4.4,5,4.7c-2.2,2.2-7.6,0.1-5.8,5.4c-3.1-1.3-4.1,3.8-7.2,2.4
		c-1.1-3-5.3-3.9-9.7-2.2c-1.5-0.2-2.8-0.7-3.3-2.4c0-0.2,0-0.5-0.1-0.7c1.7-3.1,1.7-3.1-0.3-5.9c4.9,0.2,8.6-2.3,12.5-4.3
		c1-0.5,1.7,3.9,3,0.2c1-1.7,2-1.7,3,0C692.1,91.8,692.9,92.9,695,92.5z"/>
	<path class="st152" d="M708.1,99.8c-7.6-3.1-7.7-4.2-1.9-10.3c1.2-1.3,1.9-3,2.8-4.5c3.1,0.7,5.2,2.1,4.1,5.7
		c-0.4,1.7-0.8,3.4-1.2,5.1C710.4,96.8,708.1,97.2,708.1,99.8z"/>
	<path class="st150" d="M692,89.8c-1-0.6-2-0.6-3,0c-3.4-5.1-3.3-5.3,6.7-6.1C695.3,86.3,693.5,88,692,89.8z"/>
	<path class="st153" d="M391.3,148.5c-0.9-1.6-0.3-3,1.2-3.6c1.8-0.8,2.4,1.1,3.4,2.1C395,149.4,394.1,151.7,391.3,148.5z"/>
	<path class="st154" d="M840.9,168c-3.3-0.5-3.3-2.3-2.6-5.1c0.4-1.6,1.4-2.2,2.4-2.6c1.2-0.4,2.4,0.5,2.6,1.7
		c0.3,1.8,1.3,2,2.7,1.6c0.8,0.3,1.7,0.4,2,1.5c-0.5,1.9,1.7,1.6,2.5,2.9c-2.6,1-7.2-1.8-6.9,3.7C841,171.4,842.8,168.4,840.9,168z"
		/>
	<path class="st155" d="M849.1,176.8c0.2-0.6,0.4-1.2,0.7-1.8c5.8-1.3,11.6-2.2,17.3,0c-0.2,3.1-1.5,4.2-4.8,4c-2.3-0.2-4.7-1-7,0
		c-0.4,0-0.9-0.2-1.2-0.4C852.8,177.1,850.4,178.3,849.1,176.8z"/>
	<path class="st156" d="M867.2,175c-5.8,0-11.6,0-17.3,0c-1-0.9-1.2-1.8,0.3-2c5.9-0.5,11.8-0.7,17.7-1.1c0.9-0.1,1.8,0,1.9,1
		C870.1,175.1,868.4,174.7,867.2,175z"/>
	<path class="st157" d="M849.6,181.6c-1.7,0.6-3.5,0.2-5,2.3c-1.8,2.4-4.7,1.1-6.7-1c3.2-3.2,7.1-3,11.1-2.7
		C849.8,180.4,850.2,180.8,849.6,181.6z"/>
	<path class="st155" d="M849.6,181.6c-0.2-0.5-0.4-0.9-0.7-1.4c0.3-0.4,0.7-0.9,1-1.3c1.6-1.4,3.3-0.8,5-0.1c0,0,0.3,0.2,0.3,0.2
		c2.1,1.5,4.5,0.3,6.7,0.8c-0.2,2.4-2.1,2-3.7,2C855.5,181.8,852.5,181.7,849.6,181.6z"/>
	<path class="st158" d="M848.1,165c-0.9-0.2-1.7-0.5-2-1.5c2-0.6,4.3-0.7,5.7-2.7c-0.4,4.4,3.9,0.5,4.8,2.7
		C854.4,167.9,850.7,163.3,848.1,165z"/>
	<path class="st159" d="M868.8,167.4c-2.1-0.8-5.1-0.2-5.1-3.5c0-1.4,1.3-1.3,2.2-1.3C869.6,162.3,867.2,166,868.8,167.4z"/>
	<path class="st160" d="M834.8,181c0,1.7-1.2,2.1-2.4,2.1c-1.2,0-2.5-0.2-2.4-1.8c0.1-1.5,1.1-2.5,2.6-2.5
		C834,178.8,834.6,179.9,834.8,181z"/>
	<path class="st161" d="M833.3,172.6c1.6,0.4,3.6-0.4,3.4,1.7c-0.2,1.4-1.8,1.7-3.3,1.6c-1.3-0.1-2.4-0.7-2.3-2.1
		C831.3,172.2,832.5,172.2,833.3,172.6z"/>
	<path class="st162" d="M855,178.8c-1.6,1.8-3.4-0.5-5,0.1c-0.9-0.5-1.1-1.2-0.8-2.2C850.9,177.9,854.7,173.5,855,178.8z"/>
	<path class="st58" d="M356.5,167.1c2.5,1.4,3.6,5.8,7.1,2c0.4-0.5,1.5,0.3,1.9,1.2c0.3,0.8-0.2,1.1-0.9,1.4c-2,1-4.7,0.7-5.7,3.7
		c-0.3,0.8-3.1,0.3-3.1-2.1C355.9,171.4,356.3,169.5,356.5,167.1z"/>
	<path class="st163" d="M394,171.1c2-1.5,4.2-1.9,6.4-0.8c0.7,0.3,0.5,1.1,0,1.7c-1.7,2.1-3.9,2.3-6.3,1.5
		C394.1,172.7,394.1,171.9,394,171.1z"/>
	<path class="st164" d="M365,159.9c2.6-1.7,5.3-0.7,8,0C370.3,161.8,367.6,163.5,365,159.9z"/>
	<path class="st165" d="M397.8,176.6c0.1,0.4,0.2,0.8,0.4,1.2c-2.1,3.8-4.7-0.4-7,0.5c-0.1-0.5-0.2-1-0.2-1.4c0-0.8,0.8-1.4,1.3-1
		C394,177.4,396.1,175.8,397.8,176.6z"/>
	<path class="st166" d="M385.3,174.9c1-0.2,1.9,0.2,1.7,1.2c-0.6,2-2.8,1.7-4.3,2.6c-0.7,0.4-1.7-0.6-1.5-1.4
		C381.6,174.8,384.3,176.3,385.3,174.9z"/>
	<path class="st167" d="M385.2,168.8c0.6,1,1.2,2.1,1.8,3.1c-0.9,0.8-2.1,1.9-2.9,0.9c-0.8-0.9-1.1-2.7-0.9-4
		C383.3,167.8,384.4,168.5,385.2,168.8z"/>
	<path class="st168" d="M348.8,167.9c-0.9-0.3-2.6,0.3-2.5-1.3c0.1-1.5,1.8-1.5,2.9-1.9C351.3,166,351,167.1,348.8,167.9z"/>
	<path class="st169" d="M376.9,163.3c-1,1.4-2.2,1.8-3.7,0.8c-0.7-0.5-0.7-1.1-0.1-1.6C374.6,161.5,375.8,162.1,376.9,163.3z"/>
	<path class="st170" d="M355.6,164.9c-1,0.1-1.6-0.3-1.6-1.3c0-1.2,0.6-1.8,1.8-1.8c1,0,1.6,0.6,1.7,1.4
		C357.5,164.4,356.7,164.9,355.6,164.9z"/>
	<path class="st171" d="M361.9,76.8c2.3,3.3,5.3,4.5,9.1,3c-1.3,1.7-1,3.5,0,5.2c-0.7,0.6-1.4,1.5-2.3,1.8c-7.9,2.5-8.4,3.8-3.6,10
		c-1.2,0.8-2.5,2.8-3.3-0.4c-0.3-1.2-1.1-2.3-1.7-3.4c-1.5-3-4.6-3.8-7.2-5.2c-0.8-0.4-2.2-1.1-2.6,0c-1.1,3.7-4.7,2.8-7.3,4.2
		c0-4.2,0-8.3,0-12.3c2.9-0.8,2.9-0.8,2-3.7c3.8,2.6,8.7,1.3,12.6,3.7C359.6,80.8,360.7,78.1,361.9,76.8z"/>
	<path class="st172" d="M404,102.9c-5.3-1.3-9.8,1.9-14.7,2.9c-4.7,0.9-5.9-0.6-5.3-4.8c2-1.9,3.2-4.3,3.1-7.3
		c0.7,0.2,1.2,0.2,1.5,0.4c2,1.7,5.6,0.3,6.6,2.2c1,2.1-3.8,2.2-3.4,5C397.2,100.5,399.5,100.8,404,102.9z"/>
	<path class="st173" d="M412.4,99.8c-1.4-0.2-1.7-1.3-1.4-1.9c1-2,2-4.3,4.4-4.9c1-0.2,2.6,0.9,2.2,2
		C416.7,97.5,413.3,97.4,412.4,99.8z"/>
	<path class="st173" d="M404.6,96.9c-0.6,1.8-1.8,2.8-2.3,2.2c-1.5-1.6-4.5-1.9-4.3-4.7c0.1-0.9,1.3-2,2.2-1.5
		C402.1,93.9,402.6,96.3,404.6,96.9z"/>
	<path class="st174" d="M374.7,85.8c1.3,0.1,2.2,0.8,2.1,2.2c-0.1,1-0.8,1.9-2,1.8c-1.4-0.1-2.1-1.1-2.1-2.3
		C372.6,86.4,373.4,85.6,374.7,85.8z"/>
	<path class="st175" d="M409.1,104.8c0.2-3.8,3.5-1.8,5.2-2.8c0,0,0.7,0.7,0.7,1.1c-0.1,0.9-0.7,1.8-1.6,1.2
		C411.7,103.5,410.4,104.7,409.1,104.8C409,104.8,409.1,104.8,409.1,104.8z"/>
	<path class="st176" d="M382.7,98.6c-0.8-2.4-1.1-4,0.5-5.2c0.7-0.5,1.4-0.3,1.6,0.4C385.3,95.5,384.1,96.7,382.7,98.6z"/>
	<path class="st175" d="M408,98.7c0.9,0.2,1.9,0.7,1.8,1.8c-0.2,1.2-1.2,2.1-2.3,1.9c-0.9-0.1-1.6-1.1-1.5-2.2
		C406,99.1,406.8,98.7,408,98.7z"/>
	<path class="st177" d="M377.1,147.3c-1.6,0.8-2.4,2-2.1,4c0.1,1.2,0.8,3.3-1.5,3.6c-1.1,0.2-2.6,0.1-3.3-0.5
		c-1.4-1.2-1.5-4.1-0.8-4.5c2.3-1.3,3.1-3.8,5-5.2c0.5-0.4,1.6,0,2.4,0.1c0.5,0.9,2.1-0.4,2.3,1.1
		C379.3,147.4,377.5,146.4,377.1,147.3z"/>
	<path class="st178" d="M416.2,138.5c-0.2,1.4-0.7,2.9-2.2,2.8c-1.5-0.2-3.2-1.1-3.7-2.7c-0.3-1.3,0.6-2.8,2.1-2.6
		C413.9,136.2,415.6,136.6,416.2,138.5z"/>
	<path class="st179" d="M382.8,146.6c-3.9-3.7-4.2-5.7-1-7.9c1-0.6,2.6,0,2.1,0.4C381.1,141.5,383.8,144.3,382.8,146.6
		C382.8,146.6,382.8,146.6,382.8,146.6z"/>
	<path class="st180" d="M357,146.2c1.3,1,3.5-0.2,4.5,1.6c-1.6,1.3-3.4,1.3-5,0.4C355.7,147.7,356.6,146.8,357,146.2z"/>
	<path class="st143" d="M595,88.8c-0.1-0.5-0.1-1-0.3-1.4c-0.8-1.3-1-3.7-3.3-2.9c-2.2,0.7-1.9,3.5-1.4,4.5c1.1,2.5,0.6,3.7-1.8,3.7
		c-1.8,0-5.2,2-4.8-2.5c0.2-2.2-1.7-3.8-2.8-3.1c-3.6,2.3-4.4-1-6.1-2.6c-0.2,0.6-0.5,1-0.4,1.1c2.8,4.6,2.7,7.1-3.8,6
		c-2.1-0.4-3.3,1.7-3.3,4.1c0,1.4,1.4,2.9-0.6,4.4c-0.5-1.9-0.8-3.7-1.4-5.4c-0.7-2.2-1.2,0.3-1.8,0.1c-2.1-0.2-4.1-0.5-6-1.6
		c-0.3-5.1-5-4.1-6.7-3.2c-3.3,1.8-6.2,0.2-9.2,0.8c-0.1-0.2-0.1-0.4-0.2-0.5c-2-0.9-3.9,1.2-5.9,0c0.1,2.3-3.3,5.3,1.4,6.7
		c1,0.3,1.8,1.4,2.6,2.3c0.8,0.8-0.1,2.1-0.4,1.9c-2.9-2.1-3.8,0.7-5.7,1.7c-1.8,0.9-2.1-0.9-1.9-2.3c0.2-2,0.8-3.9,0.9-5.8
		c0-2.2-1.7-3.1-3.5-3.6c-2.6-0.7-1.2,1.6-1.8,2.4c-2.1,2.9-5.3,1.8-6.3,0.2c-2.5-3.9-6.5-3.5-9.9-4.4c-1.7-0.4-2.4-1.4-3.5-2.3
		c0-1.4,0-2.8,0-4.2c3.5-1.4,2.6-7.1,6.3-7.4c3.1-0.2,6.2,1.4,9.6,0.7c3.3-0.7,6.7,1.2,10.2,0c4.4-1.5,9,0.3,13.4,0.4
		c3.4,0.1,7.6-2.4,11.1,1.1c0.5,0.5,4.9-0.7,7.7-0.7c8,0,16.1-0.9,24.1-0.2c1.8,0.2,3.6-0.2,5.4-0.7c3.1-0.9,5.2-0.3,4.2,3.6
		c-2.1,5-1.8,5.8,3.3,6.5c4.9,0.6,3.2,5,4.6,7.6c-0.7,1.2-1.8,1.7-3.1,1.9C599.7,95,598.5,90.3,595,88.8z"/>
	<path class="st181" d="M535.5,102.7c4.9,0,9.9,0,14.8,0c1.1,0,2.1,0.4,2.2,1.5c0.1,1.1-1.3,2.2-1.8,2c-4.8-2.4-10.2-0.8-15.2-1.5
		C535.5,104,535.5,103.3,535.5,102.7z"/>
	<path class="st182" d="M521,97.2c1.7,1.2,3.1,1.7,4.6,1.9c0.7,0.1,2.3,0.3,2,1.6c-0.2,1-1.1,2-1.9,2.7c-1,0.8-2.1-0.1-2.5-0.8
		C522.6,101,520.6,100.1,521,97.2z"/>
	<path class="st183" d="M542.1,97.8c0.2-0.9,0.9-0.8,1.5-0.6c1.6,0.7,2.3-3,4.1-0.8c0.3,0.4,0.1,1.4-0.2,1.8c-1.5,2-3.3,0.4-4.9,0.3
		C542.4,98.6,542.3,98.1,542.1,97.8z"/>
	<path class="st162" d="M518.5,95.4c-2.4,0.4-4.1,1-5.2-0.8c-0.4-0.7,0.1-1.3,0.7-1.5C516.1,92.2,516.9,93.7,518.5,95.4z"/>
	<path class="st49" d="M401.3,78.7c-0.4-1.3-0.8-2.6-1.2-3.9c0.8,0.6,1.6,1.1,2.3,1.7c1.1,0.9,3.3-2,3.3,0.5
		C405.6,79.3,403,78.7,401.3,78.7z"/>
	<path class="st184" d="M716.5,117.9c-2.7-0.5-4.2-2.3-4.3-4.4c-0.1-1.9,1.6-3.4,3.9-3.7c2.7-0.3,5.1,1.5,5.3,3.5
		C721.6,115.9,717.9,116.1,716.5,117.9z"/>
	<path class="st24" d="M712.9,96.7c2,1,4,2.1,6.1,3.1C716.9,101.7,714.2,100.2,712.9,96.7z"/>
	<path class="st23" d="M518.2,154.8c-0.1,1.2,0.3,2.9-1.9,2.3c-2-0.5-4.4-0.4-5.6-2.2c-0.6-0.9,0.6-1.8,1.7-1.7
		c1.3,0.1,2.5,0.3,3.8,0.5C516.7,154,517.4,154.4,518.2,154.8z"/>
	<path class="st185" d="M545.5,158.9c-1.2,2.4-3.2,3.7-5.7,4.4c-0.6,0.2-1.6,0.3-1.6-0.5C538.1,160.9,543.4,158.2,545.5,158.9z"/>
	<path class="st186" d="M522.9,157.1c0,0.9,0.6,2.2-0.7,2.5c-1.1,0.3-1.8-0.7-1.8-1.8c0-1.3-0.7-2.6,0.2-3.8
		C522.7,154,521.8,156.3,522.9,157.1z"/>
	<path class="st187" d="M861.8,209.5c1.4,0,2.2,0.5,2.2,2c0.1,2-1,3-2.9,3.4c-1.9,0.4-2.2-1.2-2.6-2.3
		C858.2,211.4,860.3,209.6,861.8,209.5z"/>
	<path class="st188" d="M406.5,174.1c1.8,1.4,5.1-0.8,6,2.5c0.2,0.6-0.5,1.1-1.2,1.3C408.4,178.7,407.7,176.2,406.5,174.1z"/>
	<path class="st189" d="M367.1,67.7c-1.6,3.4-3.6,4.3-6.3,1c0.2-1.8,0.5-3.6,2.9-3.8C365.7,64.7,366.7,65.9,367.1,67.7z"/>
	<path class="st190" d="M528.3,164.8c0.1,2.2-2.5,3.3-3.1,3c-3.8-1.7-6.2,1.6-9.2,2.3c-0.2-1.1,0.8-2.6-0.7-3.1
		c-1.9-0.7-0.6,1.9-2.2,2.2c-0.6-1.7-1.6-3.4,0.2-5.1c1.8-1.6,3.6-1.9,5.8-0.4C521.9,165.6,525.2,164.5,528.3,164.8z"/>
	<path class="st191" d="M672.5,222.8c-1.6,1-3.3,1.1-5.1,0.8c-1.8-2.7-1.8-5.5,0.2-8.5c-2.5-0.2-4.6-0.4-6.7-0.6
		c-1-2.7-1.4-4.2,2.8-4.2c4.7,0,9.4-0.5,14.2-0.3c1.5,1.5,1.5,3.1,0.1,4.6c-1.7,1.3-4.8,1.6-3.2,5.2
		C675.3,221,674.5,222.8,672.5,222.8z"/>
	<path class="st192" d="M672.5,222.8c3.1-2.8,0.6-5.1-1.2-7.7c2.6-0.2,4.7-0.3,6.7-0.4c0.7,1.5,2.5,0.6,3.3,1.5
		c-0.1,3.4-4,1.9-5.2,4.6c3.5,0.5,6.2,2,6.2,6c-0.2,0.1-0.5,0.2-0.8,0.2c-2,0.7-4.1-0.7-6.1,0C673.4,226.2,673.9,223.8,672.5,222.8z
		"/>
	<path class="st193" d="M686.7,219.7c-0.2,1.5-1.1,2.5-2.5,2.7c-1.2,0.2-2.2-0.7-2.3-2.1c-0.1-1.6,0.8-2.5,2.3-2.6
		C685.6,217.6,686.3,218.5,686.7,219.7z"/>
	<path class="st187" d="M659,181.8c3,0,5.9,0,8.9,0C664.9,182.5,661.9,183.8,659,181.8L659,181.8z"/>
	<path class="st93" d="M828.7,99.9c-2,0.1-2.3-1.6-2.5-3.3c-0.2-2.2,1.7-2.5,2.9-2.6c1.7,0,3.1,1.3,3,3.3
		C832.1,99.1,830.9,100,828.7,99.9z"/>
	<path class="st115" d="M842,95.7c-0.7,0.3-1.3,0.5-2,0.8c0.3-1.5-2.9-2.3-0.9-4.1c0.4-0.4,1.2-0.6,1.7-0.4
		C842.8,92.6,841.8,94.4,842,95.7z"/>
	<path class="st194" d="M661.8,204.8c2.5,1.1,6.1-2,8.1,2.1c0-1.1,0-2.3,0-3.4c0,0,0.4,0.3,0.4,0.3c1,2.2,2.6,3.6,5.5,3.6
		c-4.4,1.8-8.9,1.6-13.2,1.4C659.7,208.6,662.6,206.1,661.8,204.8z"/>
	<path class="st195" d="M680,191.3c0,1.6-0.6,2.4-2,2.5c-1.5,0.1-2.7-0.7-2.7-2.2c0-1.4,1.1-2.4,2.6-2.3
		C679,189.5,680.1,190,680,191.3z"/>
	<path class="st196" d="M170.6,157.8c-0.6,1.6-1.4,2.8-3,2.8c-0.7,0-0.9-0.8-0.7-1.5C167.6,157.3,169.3,158.1,170.6,157.8z"/>
	<path class="st197" d="M202,135.9c-0.4,1-0.9,1.9-2.1,1.7c-1-0.2-1.8-1-1.6-2.1c0.2-0.8,0.9-1.5,1.8-1.4
		C201.2,134.1,201.9,134.7,202,135.9z"/>
	<path class="st198" d="M715.5,93c-0.4-1.2,0.4-1.8,1.1-1.8c3.4,0.1-0.7,3.5,1.9,4.3c0.5,0.1-0.1,1-0.9,0.9
		C715.2,96.2,716.4,93.9,715.5,93z"/>
	<path class="st199" d="M159.1,188c-0.8-2.8-2.6-3.6-2.4-5.5c0-0.3,1.4-0.8,1.6-0.6C159.7,183.1,160.5,184.7,159.1,188z"/>
	<path class="st200" d="M675.3,226.9c2.1-3.8,4.1,0.4,6.1,0c-0.3,0.3-0.5,0.6-0.8,0.9C678.9,227.5,676.8,228.8,675.3,226.9z"/>
	<path class="st143" d="M507.1,71.9c1.2,3.3,1.9,6.6,0,9.9C507,78.5,507,75.2,507.1,71.9z"/>
	<path class="st201" d="M1018.1,122.6c3.8-2.2,6.8-3.3,8.8-5.9c0.9-1.1,2.2-0.3,3.2,0.3c1.4,0.9,1.3,2.3,0.9,3.6
		c-0.3,1.3-2.1,2.3-2.5,1.9C1025.4,119.7,1022.4,122.6,1018.1,122.6z"/>
	<path class="st202" d="M1017.9,120.4c-0.1,0.6-1.1,1.9-2.6,1.7c-1.6-0.2-2.3-1.6-2.2-3.3c0-1.7,1.3-2.7,2.4-2.6
		C1016.7,116.4,1018.1,117.4,1017.9,120.4z"/>
	<path class="st203" d="M1041.9,121.8c-1.6,0-2.4-1.2-2.4-2.4c0-1.1,1-2.2,2.2-2.1c1.1,0.1,2,1.2,2.2,2.3
		C1044.1,121,1043.2,121.7,1041.9,121.8z"/>
	<path class="st204" d="M1034.6,62.9c1.4,0.5,2.9,1.1,2.9,2.8c0,1.2-0.8,2.9-2.1,2.9c-1.6,0-3.1-1.2-3.2-3
		C1032.1,64.3,1033.1,63.2,1034.6,62.9z"/>
	<path class="st205" d="M1032,139.9c2.3-0.6,3.6,1.2,5.5,1.9c-2,0.2-3.8,1.5-5.7,0.1C1031.8,141.2,1031.9,140.5,1032,139.9z"/>
	<path class="st206" d="M595,88.8c2.4,0,4.5,0.4,5.5,3.2c0.4,1.2,1.6,2.5,3.4,2.6c1.4,2.6-0.4,3-2.3,3.2c-1.1,2.7-3.9,0.9-5.7,2
		c-0.7-1.1-4.1-1.9-0.5-3.6c0.9-0.4,0.1-0.4-0.1-0.6c-0.3-0.2-0.6-0.2-0.9,0.1c-2.1,2.3,0.3,3,1.5,4.1c0,0.6,0,1.3-0.1,1.9
		c-2.7,0-5.3,0-7.9-0.9c2.7-1.8,2.5-5.1,3.6-7.6C592.4,91.2,593.4,89.9,595,88.8z"/>
	<path class="st144" d="M664.8,101.7c0.9,0.2,2.3-0.2,2.5,1c0.2,1.4-1.4,1.4-2.1,1.4c-5.8,0-11.5-0.1-17.3-0.3
		c-2.9-0.1-3.2-1.8-2-4.1c3-2.3,6.9,0.3,10-1.8l0,0C659.6,97.6,661.4,101.6,664.8,101.7z"/>
	<path class="st207" d="M656,97.8c-2.9,3.1-6.6,1.4-10,1.8c-1.5-3.5-3.3-6.9-1-10.7c0.3-0.1,0.6-0.1,0.9-0.3c3.7-0.1,8,3.4,8.3,7.1
		C654.4,97.3,654.5,97.9,656,97.8z"/>
	<path class="st208" d="M632.1,89.9c3.6-2.3,5.9-1.9,6,3c-0.3,1.4-0.7,2.8-1,4.2c-0.4,2.3-1.8,3.1-3.9,2.6c-2.1-0.5-3-2.3-2.2-4.1
		C632,93.7,631.8,91.8,632.1,89.9z"/>
	<path class="st209" d="M618.9,90.8c0.4-0.6,0.8-1.3,1.1-1.9c3.3-0.6,5.8,0.8,7.7,3.3c1.2,1.6,1.1,2.7-1.3,2
		c-1.3-0.4-1.6,0.4-1.2,1.2c1.6,3.1-0.6,2.3-2.2,2.4c-1.7,0.1-3.2,0.4-3.1-2.2C619.9,94,619.3,92.4,618.9,90.8z"/>
	<path class="st210" d="M664.8,101.7c-4.2,1.5-5.9-2.5-8.9-3.8c1.4-4.5,1.4-4.5,9.5-1.3c-2.4,0.7-2.4,0.7-7.9-1.1
		c2.1,2.3,3.1,4.9,6.4,4.1c1.2-0.3,1.9-0.2,2.1,1.2C665.6,101.1,665.2,101.4,664.8,101.7z"/>
	<path class="st211" d="M601.5,97.8c0.6-1.2,2.8-1.2,2.3-3.2c1.1-0.3,2.1-0.6,3.2-0.8c0.8,0.3,1.6,0.7,2.4,1
		c0.4,5.1-3.9,3.2-6.2,4.2C602.6,98.6,602.1,98.2,601.5,97.8z"/>
	<path class="st212" d="M603.2,99c1.4-2.3,6,0,6.2-4.2c3.6,1.5,1,3.8-0.1,4C607.4,99.2,605.2,100.9,603.2,99z"/>
	<path class="st11" d="M673.1,111.7c0.2-0.1,0.3-0.1,0.5-0.2c1.5-1.1,3-2.2,4.7-0.5c0.8,0.8,0.2,1.5-0.6,1.9c-1.8,0.8-3.7,1.9-4.7-1
		C672.9,111.9,673.1,111.7,673.1,111.7z"/>
	<path class="st213" d="M674,100.5c1.5,0.3,2.6,1.1,3.3,2.4c-0.8,1.5-2.1,2.4-3.5,1.4C672.5,103.3,672.9,101.7,674,100.5z"/>
	<path class="st214" d="M557.1,93.2c2.4-1,4.4-0.5,6,1.6c-1.3,0.6,2.6,5.4-2.5,3c-0.2-0.1-0.6,0.1-0.9,0.2c-1.3,0.4,2.5,3.6-1,2.3
		c-1.9-0.7-3.2-3.2-2.2-5.8C556.7,94.1,556.9,93.6,557.1,93.2z"/>
	<path class="st215" d="M865.5,91.1c-1.8-0.1-3-1.3-3-2.7c-0.1-1.2,1.2-2.3,2.6-2.5c1.5-0.2,2.6,0.6,2.8,2.1
		C868.1,89.6,867,90.6,865.5,91.1z"/>
	<path class="st216" d="M850.1,86c1.1,0.3,1.8,0.9,1.8,2.1c0,1.2-0.8,1.8-1.9,1.7c-1.1-0.1-1.9-0.7-1.8-1.9
		C848.3,86.8,849,86.1,850.1,86z"/>
	<path class="st217" d="M707,171.8c-1.1-0.2-2.8,0.7-3-1.3c-0.1-1,0.8-2.2,1.7-2.1C708,168.6,706.5,170.7,707,171.8L707,171.8z"/>
	<path class="st218" d="M394.9,72.2c0,1.6-0.9,2.5-2.4,2.5c-1.3,0-2.3-0.7-2.4-2c-0.2-1.7,1.1-2.5,2.4-2.6
		C393.8,70,394.6,70.9,394.9,72.2z"/>
	<path class="st117" d="M654,84c-2.1,1.6-3.4-0.4-5-1.1c-0.7-1.5-1.8-2.4-3.5-1.9c-4.2,1.4-8.7-0.3-13.9,2.2
		c5.1-6.5,12-6.5,20.6-1.1c1.7-1.2-2.4-2.9,0.2-3.9c1.4-0.5,2.6,0.4,3.4,1.4C657.4,82,655.5,82.9,654,84z"/>
	<path class="st144" d="M663,85.8c-2.4-0.4-2.7-2.4-3.4-4.4C661.9,82.2,663.1,83.5,663,85.8C663,85.8,663,85.8,663,85.8z"/>
	<path class="st154" d="M846.8,159.8c-0.2,1.1-0.7,1.7-1.6,1.5c-1.5-0.4-2.4-1.7-2.9-3.1c-0.2-0.7,0.3-1.3,1-1.3
		C845.2,157,846,158.5,846.8,159.8z"/>
	<path class="st219" d="M847.7,152.8c1.2,0,1.9,0.4,1.8,1.4c-0.1,0.8-0.5,1.6-1.6,1.6c-1.1-0.1-2-0.5-1.8-1.8
		C846.2,152.9,847.1,152.8,847.7,152.8z"/>
	<path class="st161" d="M689.2,100.6c-2-0.5-2.8-1.9-2.7-3.3c0.1-1.5,1-3.1,2.7-3c1.9,0.1,2.8,1.7,2.8,3.5
		C691.9,99.6,690.2,99.9,689.2,100.6z"/>
	<path class="st220" d="M680,97.7c0,0.9-0.4,1.7-1.3,1.8c-1.1,0-1.6-0.9-1.6-1.9c0-1.2,0.7-1.8,1.8-1.6C680,96,679.9,96.9,680,97.7z
		"/>
	<path class="st221" d="M595.9,99.8c-3.3-0.7-4.9-1.9-2.3-5.3c0.7-0.9,1.2-1.2,1.6-0.2c0.7,1.9,4-0.3,3.6,2.1
		c-0.6,3.1-3-1.6-4.6,1.7C594.2,98.3,595.6,98.8,595.9,99.8C595.9,99.8,595.9,99.8,595.9,99.8z"/>
	<path class="st222" d="M653.7,94.9c-1.2,0.6-1.8,1.1-2,1c-1.8-0.9-3.7,2.1-5.4-0.1c-0.2-0.3,0.1-1.3,0.2-1.3
		C648.6,94.5,650.7,93.2,653.7,94.9z"/>
</g>
</svg>
