<?xml version="1.0" encoding="utf-8"?>
<!-- Generator: Adobe Illustrator 19.1.0, SVG Export Plug-In . SVG Version: 6.00 Build 0)  -->
<svg version="1.1" id="Layer_1" xmlns="http://www.w3.org/2000/svg" xmlns:xlink="http://www.w3.org/1999/xlink" x="0px" y="0px"
	 viewBox="7383.4 -360.8 1357.3 1357.3" style="enable-background:new 7383.4 -360.8 1357.3 1357.3;" xml:space="preserve">
<style type="text/css">
	.st0{clip-path:url(#SVGID_2_);}
	.st1{clip-path:url(#SVGID_4_);fill:url(#SVGID_5_);}
	.st2{clip-path:url(#SVGID_7_);fill:url(#SVGID_8_);}
	.st3{clip-path:url(#SVGID_10_);fill:url(#SVGID_11_);}
	.st4{clip-path:url(#SVGID_13_);fill:url(#SVGID_14_);}
	.st5{clip-path:url(#SVGID_16_);fill:url(#SVGID_17_);}
	.st6{clip-path:url(#SVGID_19_);fill:url(#SVGID_20_);}
	.st7{clip-path:url(#SVGID_22_);fill:url(#SVGID_23_);}
	.st8{clip-path:url(#SVGID_25_);fill:url(#SVGID_26_);}
	.st9{clip-path:url(#SVGID_28_);fill:url(#SVGID_29_);}
	.st10{clip-path:url(#SVGID_31_);fill:url(#SVGID_32_);}
	.st11{clip-path:url(#SVGID_34_);fill:url(#SVGID_35_);}
	.st12{clip-path:url(#SVGID_37_);fill:url(#SVGID_38_);}
	.st13{clip-path:url(#SVGID_40_);fill:url(#SVGID_41_);}
	.st14{clip-path:url(#SVGID_43_);fill:url(#SVGID_44_);}
	.st15{clip-path:url(#SVGID_46_);fill:url(#SVGID_47_);}
	.st16{clip-path:url(#SVGID_49_);fill:url(#SVGID_50_);}
	.st17{clip-path:url(#SVGID_52_);fill:url(#SVGID_53_);}
	.st18{clip-path:url(#SVGID_55_);fill:url(#SVGID_56_);}
	.st19{clip-path:url(#SVGID_58_);fill:url(#SVGID_59_);}
	.st20{clip-path:url(#SVGID_61_);fill:url(#SVGID_62_);}
	.st21{clip-path:url(#SVGID_64_);fill:url(#SVGID_65_);}
	.st22{clip-path:url(#SVGID_67_);fill:url(#SVGID_68_);}
	.st23{clip-path:url(#SVGID_70_);fill:url(#SVGID_71_);}
	.st24{clip-path:url(#SVGID_73_);fill:url(#SVGID_74_);}
	.st25{clip-path:url(#SVGID_76_);fill:url(#SVGID_77_);}
	.st26{clip-path:url(#SVGID_79_);fill:url(#SVGID_80_);}
	.st27{clip-path:url(#SVGID_82_);fill:url(#SVGID_83_);}
	.st28{clip-path:url(#SVGID_85_);fill:url(#SVGID_86_);}
	.st29{clip-path:url(#SVGID_88_);fill:url(#SVGID_89_);}
	.st30{clip-path:url(#SVGID_91_);fill:url(#SVGID_92_);}
	.st31{clip-path:url(#SVGID_94_);fill:url(#SVGID_95_);}
	.st32{clip-path:url(#SVGID_97_);fill:url(#SVGID_98_);}
	.st33{clip-path:url(#SVGID_100_);fill:url(#SVGID_101_);}
	.st34{clip-path:url(#SVGID_103_);fill:url(#SVGID_104_);}
	.st35{clip-path:url(#SVGID_106_);fill:url(#SVGID_107_);}
	.st36{clip-path:url(#SVGID_109_);fill:url(#SVGID_110_);}
	.st37{clip-path:url(#SVGID_112_);fill:url(#SVGID_113_);}
	.st38{clip-path:url(#SVGID_115_);fill:url(#SVGID_116_);}
	.st39{clip-path:url(#SVGID_118_);fill:url(#SVGID_119_);}
	.st40{clip-path:url(#SVGID_121_);fill:url(#SVGID_122_);}
	.st41{clip-path:url(#SVGID_124_);fill:url(#SVGID_125_);}
	.st42{clip-path:url(#SVGID_127_);fill:url(#SVGID_128_);}
	.st43{clip-path:url(#SVGID_130_);fill:url(#SVGID_131_);}
	.st44{clip-path:url(#SVGID_133_);fill:url(#SVGID_134_);}
</style>
<g>
	<defs>
		<rect id="SVGID_1_" x="7383.4" y="-360.8" width="1357.3" height="1357.3"/>
	</defs>
	<clipPath id="SVGID_2_">
		<use xlink:href="#SVGID_1_"  style="overflow:visible;"/>
	</clipPath>
	<g class="st0">
		<g>
			<g>
				<defs>
					<path id="SVGID_3_" d="M8430.2,1161.4c57.3,45.3,107.7,78.6,149.6,104.7l0.1,0l18.9-31.6c-39.6-29.6-87.7-66-141.9-113.3
						c-178-151.4-149.7-124.1-249.5-246.4c-63.2-74.7-93.3-137-96.7-135.3c-0.5,0.3-0.8,0.6-1.1,1.2
						C8096.6,762,8214.5,1006.7,8430.2,1161.4"/>
				</defs>
				<clipPath id="SVGID_4_">
					<use xlink:href="#SVGID_3_"  style="overflow:visible;"/>
				</clipPath>
				
					<linearGradient id="SVGID_5_" gradientUnits="userSpaceOnUse" x1="7890.3091" y1="-1869.478" x2="7891.3091" y2="-1869.478" gradientTransform="matrix(1035.7742 618.8766 -618.8766 1035.7742 -9322008 -2946247.5)">
					<stop  offset="0" style="stop-color:#ADC90E"/>
					<stop  offset="1" style="stop-color:#009639"/>
				</linearGradient>
				<polygon class="st1" points="8001.8,920.7 8111.9,736.5 8689.9,1081.9 8579.8,1266.1 				"/>
			</g>
		</g>
		<g>
			<g>
				<defs>
					<path id="SVGID_6_" d="M8424.3,650.4c160.2,87,303.9,140,427.3,161.2l23.6-39.7c-121.6-24.9-264.9-82.8-425.8-175.8
						c-513.5-300.7-971.9-731-980.6-719.2c0,0,0,0,0,0C7464.5-115.9,7868.2,339.7,8424.3,650.4"/>
				</defs>
				<clipPath id="SVGID_7_">
					<use xlink:href="#SVGID_6_"  style="overflow:visible;"/>
				</clipPath>
				
					<linearGradient id="SVGID_8_" gradientUnits="userSpaceOnUse" x1="7890.5151" y1="-1870.3595" x2="7891.5151" y2="-1870.3595" gradientTransform="matrix(1188.5868 705.7414 -810.9532 1365.912 -10887721 -3013847)">
					<stop  offset="0" style="stop-color:#ADC90E"/>
					<stop  offset="1" style="stop-color:#046837"/>
				</linearGradient>
				<polygon class="st2" points="7475.8,-135.9 8909.2,715.2 8801.2,897.1 7367.8,46 				"/>
			</g>
		</g>
		<g>
			<g>
				<defs>
					<path id="SVGID_9_" d="M7714.9-9.7c-7.1,13.4,464.3,180.2,890.2,484.4c129.4,94.2,223.1,185.9,287.9,267.2l23.4-39.4
						c-63.5-86.9-155.6-182.7-281-279.4C8234.3,115.9,7720.9-19.8,7714.9-9.8C7714.9-9.8,7714.9-9.8,7714.9-9.7"/>
				</defs>
				<clipPath id="SVGID_10_">
					<use xlink:href="#SVGID_9_"  style="overflow:visible;"/>
				</clipPath>
				
					<linearGradient id="SVGID_11_" gradientUnits="userSpaceOnUse" x1="7890.5151" y1="-1870.3757" x2="7891.5151" y2="-1870.3757" gradientTransform="matrix(1188.5712 705.7321 -810.9426 1365.894 -10887501 -3013936.25)">
					<stop  offset="0" style="stop-color:#ADC90E"/>
					<stop  offset="1" style="stop-color:#046837"/>
				</linearGradient>
				<polygon class="st3" points="7795.7,-146.2 8997.3,567.3 8893.4,742.2 7691.9,28.7 				"/>
			</g>
		</g>
		<g>
			<g>
				<defs>
					<path id="SVGID_12_" d="M7383.5-82.4c-6.8,13.1,546.4,263.6,1108.7,577.6c166.3,95.9,300.6,180.2,390,264.9l22.8-38.5
						c-91.1-92.9-223.7-180.6-387.1-280.4C7990,128.1,7389.1-91.7,7383.5-82.4C7383.5-82.4,7383.5-82.4,7383.5-82.4"/>
				</defs>
				<clipPath id="SVGID_13_">
					<use xlink:href="#SVGID_12_"  style="overflow:visible;"/>
				</clipPath>
				
					<linearGradient id="SVGID_14_" gradientUnits="userSpaceOnUse" x1="7890.5151" y1="-1870.3567" x2="7891.5151" y2="-1870.3567" gradientTransform="matrix(1188.5814 705.7382 -810.9496 1365.9059 -10887634 -3013896.5)">
					<stop  offset="0" style="stop-color:#ADC90E"/>
					<stop  offset="1" style="stop-color:#046837"/>
				</linearGradient>
				<polygon class="st4" points="7451,-196.2 8929.1,681.4 8851.6,812 7373.5,-65.7 				"/>
			</g>
		</g>
		<g>
			<g>
				<defs>
					<path id="SVGID_15_" d="M7642.6-138.5c-10.4,17.3,474.3,257.6,965.3,542.6c139,97.9,235.2,206.1,316.9,284.1v0l22.8-38.4
						c-78-82.9-170-193.9-310.9-298.2C8171.3,63.3,7645.5-142.5,7642.6-138.5L7642.6-138.5L7642.6-138.5z"/>
				</defs>
				<clipPath id="SVGID_16_">
					<use xlink:href="#SVGID_15_"  style="overflow:visible;"/>
				</clipPath>
				
					<linearGradient id="SVGID_17_" gradientUnits="userSpaceOnUse" x1="7890.5151" y1="-1870.3644" x2="7891.5151" y2="-1870.3644" gradientTransform="matrix(1188.5839 705.7396 -810.9513 1365.9087 -10887589 -3014016.5)">
					<stop  offset="0" style="stop-color:#ADC90E"/>
					<stop  offset="1" style="stop-color:#046837"/>
				</linearGradient>
				<polygon class="st5" points="7692.4,-222.8 9003.9,555.9 8925.2,688.3 7613.8,-90.3 				"/>
			</g>
		</g>
		<g>
			<g>
				<defs>
					<path id="SVGID_18_" d="M7399.2,74.4c-7,14.8,549.5,193.1,1088.1,484.3c158.1,89.3,281,176.7,355.3,267.9l23.5-39.6
						c-76.5-99.3-198.8-190.1-353.1-282.3C8005,211.2,7404.3,65.9,7399.2,74.4C7399.2,74.4,7399.2,74.4,7399.2,74.4"/>
				</defs>
				<clipPath id="SVGID_19_">
					<use xlink:href="#SVGID_18_"  style="overflow:visible;"/>
				</clipPath>
				
					<linearGradient id="SVGID_20_" gradientUnits="userSpaceOnUse" x1="7890.5151" y1="-1870.356" x2="7891.5151" y2="-1870.356" gradientTransform="matrix(1188.5812 705.7381 -810.9495 1365.9055 -10887679 -3013817.25)">
					<stop  offset="0" style="stop-color:#ADC90E"/>
					<stop  offset="1" style="stop-color:#046837"/>
				</linearGradient>
				<polygon class="st6" points="7502.2,-99.2 8899.9,730.7 8786.3,922.1 7388.6,92.2 				"/>
			</g>
		</g>
		<g>
			<g>
				<defs>
					<path id="SVGID_21_" d="M8029.5,1.6c-6.7,12.5,386.1,135.6,718.6,404.4c95.8,77.9,163.6,155.2,212.1,222.6l24.4-41
						c-46.5-71.8-112.3-151.9-203.8-231.6C8467.2,81.1,8036.2-9.7,8029.5,1.4C8029.5,1.4,8029.5,1.5,8029.5,1.6"/>
				</defs>
				<clipPath id="SVGID_22_">
					<use xlink:href="#SVGID_21_"  style="overflow:visible;"/>
				</clipPath>
				
					<linearGradient id="SVGID_23_" gradientUnits="userSpaceOnUse" x1="7890.5151" y1="-1870.3783" x2="7891.5151" y2="-1870.3783" gradientTransform="matrix(1188.5856 705.7407 -810.9525 1365.9106 -10887564 -3014090.25)">
					<stop  offset="0" style="stop-color:#ADC90E"/>
					<stop  offset="1" style="stop-color:#046837"/>
				</linearGradient>
				<polygon class="st7" points="8109.1,-132.9 9073.2,439.5 8960.7,628.9 7996.6,56.5 				"/>
			</g>
		</g>
		<g>
			<g>
				<defs>
					<path id="SVGID_24_" d="M7616.9,257.7c-1.1,5,126.8,6.3,304.5,62.6c178.4,53.5,403.3,162.6,612.7,312
						c120.5,85.4,214,164.2,287.5,229.9l23.2-39c-71.2-70.7-162.6-153.9-280.9-242.7c-197.2-149.7-429.6-256.1-618.4-299.3
						c-185.5-45.7-324.1-30.9-328.4-23.7C7616.9,257.5,7616.9,257.6,7616.9,257.7"/>
				</defs>
				<clipPath id="SVGID_25_">
					<use xlink:href="#SVGID_24_"  style="overflow:visible;"/>
				</clipPath>
				
					<linearGradient id="SVGID_26_" gradientUnits="userSpaceOnUse" x1="7890.5151" y1="-1870.3645" x2="7891.5151" y2="-1870.3645" gradientTransform="matrix(1188.5826 705.739 -810.9505 1365.9073 -10887711 -3013789)">
					<stop  offset="0" style="stop-color:#ADC90E"/>
					<stop  offset="1" style="stop-color:#046837"/>
				</linearGradient>
				<polygon class="st8" points="7737.3,54.7 8893.7,741.4 8768.8,951.7 7612.4,265 				"/>
			</g>
		</g>
		<g>
			<g>
				<defs>
					<path id="SVGID_27_" d="M7704.4,366.7c-5.4,9.1,348.3,265.3,770.1,466.2c114.8,50.9,210.7,93.3,299,110.3l23.9-40.3
						c-84-19.9-183.3-67.7-298.7-124.4C8109.6,577.6,7711.5,355,7704.4,366.7L7704.4,366.7z"/>
				</defs>
				<clipPath id="SVGID_28_">
					<use xlink:href="#SVGID_27_"  style="overflow:visible;"/>
				</clipPath>
				
					<linearGradient id="SVGID_29_" gradientUnits="userSpaceOnUse" x1="7890.5151" y1="-1870.3542" x2="7891.5151" y2="-1870.3542" gradientTransform="matrix(1188.5894 705.743 -810.9551 1365.9152 -10887836 -3013701)">
					<stop  offset="0" style="stop-color:#ADC90E"/>
					<stop  offset="1" style="stop-color:#046837"/>
				</linearGradient>
				<polygon class="st9" points="7755.5,280.3 8799.2,900 8721.2,1031.4 7677.5,411.6 				"/>
			</g>
		</g>
		<g>
			<g>
				<defs>
					<path id="SVGID_30_" d="M7485.7,232.3c-5.5,12.1,489.1,190.4,977.2,453.6c141.7,76.8,252.9,148.1,338.8,209.8l22.8-38.4
						c-84.9-67.7-195.6-144.4-335.8-225.4C8030.2,366.4,7492.3,221.3,7485.7,232.3C7485.7,232.2,7485.7,232.3,7485.7,232.3"/>
				</defs>
				<clipPath id="SVGID_31_">
					<use xlink:href="#SVGID_30_"  style="overflow:visible;"/>
				</clipPath>
				
					<linearGradient id="SVGID_32_" gradientUnits="userSpaceOnUse" x1="7890.5151" y1="-1870.3577" x2="7891.5151" y2="-1870.3577" gradientTransform="matrix(1188.5677 705.73 -810.9402 1365.8901 -10887610 -3013690.75)">
					<stop  offset="0" style="stop-color:#ADC90E"/>
					<stop  offset="1" style="stop-color:#046837"/>
				</linearGradient>
				<polygon class="st10" points="7574.3,82.9 8838.7,833.7 8741.2,997.9 7476.8,247.1 				"/>
			</g>
		</g>
		<g>
			<g>
				<defs>
					<path id="SVGID_33_" d="M7744.1,651.3c-0.3,0.9,133.9-32.2,310.9-4.8c177.7,23,390.5,106.7,569.1,214.8
						c50.7,30.2,98.2,61.7,142.7,93l17.5-29.4c-44.8-33.7-93.2-67.7-145.6-100.4c-165.9-105.8-383.5-187.5-568.5-203
						c-181.6-20.3-322.6,24.1-326,29.7C7744.1,651.2,7744.1,651.3,7744.1,651.3"/>
				</defs>
				<clipPath id="SVGID_34_">
					<use xlink:href="#SVGID_33_"  style="overflow:visible;"/>
				</clipPath>
				
					<linearGradient id="SVGID_35_" gradientUnits="userSpaceOnUse" x1="7890.5151" y1="-1870.3622" x2="7891.5151" y2="-1870.3622" gradientTransform="matrix(1188.584 705.7397 -810.9514 1365.9088 -10887839 -3013596.75)">
					<stop  offset="0" style="stop-color:#ADC90E"/>
					<stop  offset="1" style="stop-color:#046837"/>
				</linearGradient>
				<polygon class="st11" points="7905.4,379.6 8794.7,907.7 8631.5,1182.6 7742.1,654.5 				"/>
			</g>
		</g>
		<g>
			<g>
				<defs>
					<path id="SVGID_36_" d="M8824.4,420.5c70.3,55.3,132.1,96,183.4,127.8l0,0l23.3-39.2c-48.6-36.2-107.5-80.6-174-138.5
						C8639,185.4,8673.6,218.9,8551.3,68.8C8473.9-22.8,8437.1-99.4,8433-97.3c-0.6,0.3-1,0.8-1.4,1.4
						C8415.7-69.3,8559.8,231.6,8824.4,420.5"/>
				</defs>
				<clipPath id="SVGID_37_">
					<use xlink:href="#SVGID_36_"  style="overflow:visible;"/>
				</clipPath>
				
					<linearGradient id="SVGID_38_" gradientUnits="userSpaceOnUse" x1="7890.5151" y1="-1870.3622" x2="7891.5151" y2="-1870.3622" gradientTransform="matrix(1188.5723 705.7328 -810.9434 1365.8954 -10887370 -3014177.75)">
					<stop  offset="0" style="stop-color:#ADC90E"/>
					<stop  offset="1" style="stop-color:#046837"/>
				</linearGradient>
				<polygon class="st12" points="8433.9,-101.2 9144.1,320.4 9008.5,548.7 8298.4,127.1 				"/>
			</g>
		</g>
		<g>
			<g>
				<defs>
					<path id="SVGID_39_" d="M7953.8,801.8c-2.3,8.2,319.5-52.3,598.2,79.2c82.8,36.6,142.4,80.3,189.4,116l22.7-38.3
						c-45.3-41.5-104.4-90.2-187.2-131.7c-265.9-144-610.7-47.2-622.9-26.8C7953.7,800.9,7953.6,801.4,7953.8,801.8"/>
				</defs>
				<clipPath id="SVGID_40_">
					<use xlink:href="#SVGID_39_"  style="overflow:visible;"/>
				</clipPath>
				
					<linearGradient id="SVGID_41_" gradientUnits="userSpaceOnUse" x1="7890.5151" y1="-1870.3599" x2="7891.5151" y2="-1870.3599" gradientTransform="matrix(1188.6001 705.7492 -810.9623 1365.9271 -10888001 -3013613.5)">
					<stop  offset="0" style="stop-color:#ADC90E"/>
					<stop  offset="1" style="stop-color:#046837"/>
				</linearGradient>
				<polygon class="st13" points="8108.9,539.4 8777.6,936.5 8616.7,1207.5 7948,810.5 				"/>
			</g>
		</g>
		<g>
			<g>
				<defs>
					<path id="SVGID_42_" d="M8286.2-294.5c0,0.1-0.1,0.2-0.1,0.3c-1.4,4.8,105.8-5.9,249.5,30.7
						c144.5,33.9,322.7,115.9,483.9,237.3c92.8,69.3,163.7,134.9,218.9,190.1l23.3-39c-52.9-60.1-121.5-130-212.1-202.8
						c-150.9-122.8-335.7-201.6-489.9-224.8c-150.9-25.8-268.6,0.9-273.5,8.1L8286.2-294.5z"/>
				</defs>
				<clipPath id="SVGID_43_">
					<use xlink:href="#SVGID_42_"  style="overflow:visible;"/>
				</clipPath>
				
					<linearGradient id="SVGID_44_" gradientUnits="userSpaceOnUse" x1="7890.1147" y1="-1869.0612" x2="7891.1147" y2="-1869.0612" gradientTransform="matrix(928.961 555.0556 -555.0556 928.961 -8358762 -2643599.5)">
					<stop  offset="0" style="stop-color:#ADC90E"/>
					<stop  offset="1" style="stop-color:#046837"/>
				</linearGradient>
				<polygon class="st14" points="8283.5,-290.1 8406,-495.2 9309.6,44.7 9187.1,249.8 				"/>
			</g>
		</g>
		<g>
			<g>
				<defs>
					<path id="SVGID_45_" d="M8348.9-199.7c-5.4,9.1,266.5,217.8,601,368c91.4,37.3,167.8,68.4,240.3,76.2l24-40.2
						c-68.6-10.9-147.3-46.8-238.6-89.6C8668.5-38.4,8356-211.3,8348.9-199.7L8348.9-199.7L8348.9-199.7z"/>
				</defs>
				<clipPath id="SVGID_46_">
					<use xlink:href="#SVGID_45_"  style="overflow:visible;"/>
				</clipPath>
				
					<linearGradient id="SVGID_47_" gradientUnits="userSpaceOnUse" x1="7890.1147" y1="-1869.0446" x2="7891.1147" y2="-1869.0446" gradientTransform="matrix(928.9539 555.0514 -555.0514 928.9539 -8358760.5 -2643474)">
					<stop  offset="0" style="stop-color:#ADC90E"/>
					<stop  offset="1" style="stop-color:#046837"/>
				</linearGradient>
				<polygon class="st15" points="8323.1,-156.5 8398.6,-282.9 9214.2,204.4 9138.7,330.8 				"/>
			</g>
		</g>
		<g>
			<g>
				<defs>
					<path id="SVGID_48_" d="M8178.4-306.1c-5.8,11.9,392.1,134.1,776.1,336.9C9066,90.1,9152.4,147,9218.4,197.3l22.9-38.3
						c-64.6-56-150.1-118-259.9-181.4C8622.5-230.2,8185-317,8178.4-306.1C8178.4-306.1,8178.4-306.1,8178.4-306.1"/>
				</defs>
				<clipPath id="SVGID_49_">
					<use xlink:href="#SVGID_48_"  style="overflow:visible;"/>
				</clipPath>
				
					<linearGradient id="SVGID_50_" gradientUnits="userSpaceOnUse" x1="7890.1147" y1="-1869.0505" x2="7891.1147" y2="-1869.0505" gradientTransform="matrix(928.9537 555.0513 -555.0513 928.9537 -8358732 -2643518.75)">
					<stop  offset="0" style="stop-color:#ADC90E"/>
					<stop  offset="1" style="stop-color:#046837"/>
				</linearGradient>
				<polygon class="st16" points="8171.6,-294.7 8265.7,-452.3 9253.8,138.1 9159.6,295.7 				"/>
			</g>
		</g>
		<g>
			<g>
				<defs>
					<path id="SVGID_51_" d="M8354.4,65.1C8354,66,8470,22.3,8615.9,31.6c147,5.1,317.4,64.3,456.8,149.6
						c39.7,23.8,76.4,49.1,110.7,74.4l17.5-29.4c-34.3-27.6-71.6-55.2-112.4-81.2C8959.7,60.9,8785,4.1,8631.1,6.6
						c-150.5-2.2-273.3,52.7-276.6,58.3C8354.4,65,8354.4,65.1,8354.4,65.1"/>
				</defs>
				<clipPath id="SVGID_52_">
					<use xlink:href="#SVGID_51_"  style="overflow:visible;"/>
				</clipPath>
				
					<linearGradient id="SVGID_53_" gradientUnits="userSpaceOnUse" x1="7890.1147" y1="-1869.0577" x2="7891.1147" y2="-1869.0577" gradientTransform="matrix(928.9435 555.0452 -555.0452 928.9435 -8358721.5 -2643354)">
					<stop  offset="0" style="stop-color:#ADC90E"/>
					<stop  offset="1" style="stop-color:#046837"/>
				</linearGradient>
				<polygon class="st17" points="8353.9,65.9 8515.5,-204.6 9210.4,210.7 9048.8,481.1 				"/>
			</g>
		</g>
		<g>
			<g>
				<defs>
					<path id="SVGID_54_" d="M8515.7,187.6c-2.8,8,273.4-79,494.5,19.1c66,26.8,111.7,62.5,147.7,91.8l22.8-38.2
						c-34-35-78.8-75.4-144.3-106.8c-209.2-111.1-508.2,12.3-520.4,32.6C8515.7,186.7,8515.6,187.2,8515.7,187.6"/>
				</defs>
				<clipPath id="SVGID_55_">
					<use xlink:href="#SVGID_54_"  style="overflow:visible;"/>
				</clipPath>
				
					<linearGradient id="SVGID_56_" gradientUnits="userSpaceOnUse" x1="7890.1147" y1="-1869.0538" x2="7891.1147" y2="-1869.0538" gradientTransform="matrix(928.9489 555.0485 -555.0485 928.9489 -8358784.5 -2643346)">
					<stop  offset="0" style="stop-color:#ADC90E"/>
					<stop  offset="1" style="stop-color:#046837"/>
				</linearGradient>
				<polygon class="st18" points="8511.1,194.4 8670.8,-72.8 9193.3,239.4 9033.6,506.6 				"/>
			</g>
		</g>
		<g>
			<g>
				<defs>
					<path id="SVGID_57_" d="M8276.9-52.4c0.4,4.4,93.9-30.3,235.2-42.6c141-14.2,327.5,1.1,500.8,66.1
						c114.8,42.3,198.2,92.7,260.7,133.9l17.5-29.2c-61.5-46.7-145-102.6-261.1-149.4c-166.7-68.8-361.3-80.9-508.6-56.3
						C8377.6-108,8281-59.7,8277-52.9C8276.9-52.7,8276.8-52.5,8276.9-52.4"/>
				</defs>
				<clipPath id="SVGID_58_">
					<use xlink:href="#SVGID_57_"  style="overflow:visible;"/>
				</clipPath>
				
					<linearGradient id="SVGID_59_" gradientUnits="userSpaceOnUse" x1="7889.2959" y1="-1868.9026" x2="7890.2959" y2="-1868.9026" gradientTransform="matrix(893.3547 379.4031 -379.4031 893.3547 -7748744.5 -1323845.625)">
					<stop  offset="0" style="stop-color:#ADC90E"/>
					<stop  offset="1" style="stop-color:#009639"/>
				</linearGradient>
				<polygon class="st19" points="8440.4,-439.2 9348,-53.7 9132.5,453.8 8224.9,68.3 				"/>
			</g>
		</g>
		<g>
			<g>
				<defs>
					<path id="SVGID_60_" d="M8207.8-292.4C8207.8-292.4,8207.8-292.4,8207.8-292.4C8207.8-292.4,8207.8-292.4,8207.8-292.4
						 M8207.8-292.4c0-0.8,107.5-28.7,257.6,6.5c150.9,30.1,342,106.1,531.4,199.3c125.3,61.4,222,116.2,296.7,158.1l17.4-29.2
						C9237.6-5,9141.6-64.9,9016.7-130.6c-178.1-94.3-374.2-166.4-533.8-188.2c-151.7-26.1-267.5,12.6-274.8,24.8
						C8207.7-293.4,8207.7-292.9,8207.8-292.4"/>
				</defs>
				<clipPath id="SVGID_61_">
					<use xlink:href="#SVGID_60_"  style="overflow:visible;"/>
				</clipPath>
				
					<linearGradient id="SVGID_62_" gradientUnits="userSpaceOnUse" x1="7889.1426" y1="-1868.5574" x2="7890.1426" y2="-1868.5574" gradientTransform="matrix(829.33 361.591 -361.591 829.33 -7209962.5 -1303279.625)">
					<stop  offset="0" style="stop-color:#ADC90E"/>
					<stop  offset="1" style="stop-color:#009639"/>
				</linearGradient>
				<polygon class="st20" points="8319.8,-550.6 9370.5,-92.5 9201.2,295.8 8150.5,-162.3 				"/>
			</g>
		</g>
		<g>
			<g>
				<defs>
					<path id="SVGID_63_" d="M8587.2-0.1c0.5,3.7,64.3-17.5,159.2-16.6c94.8-1,218.2,20.6,338.3,61.9c76.5,24.9,135,52.2,181,73
						l17.8-29.7c-45.2-26-103.6-58.4-181.6-87.9c-114.3-45.7-244.8-63-346.3-51.8c-96.9,8.5-163.7,42.8-168.2,50.2
						C8587.2-0.7,8587.1-0.4,8587.2-0.1"/>
				</defs>
				<clipPath id="SVGID_64_">
					<use xlink:href="#SVGID_63_"  style="overflow:visible;"/>
				</clipPath>
				
					<linearGradient id="SVGID_65_" gradientUnits="userSpaceOnUse" x1="7889.2959" y1="-1868.9084" x2="7890.2959" y2="-1868.9084" gradientTransform="matrix(893.3208 379.3887 -379.3887 893.3208 -7748443.5 -1323811)">
					<stop  offset="0" style="stop-color:#ADC90E"/>
					<stop  offset="0.4451" style="stop-color:#ADC90E"/>
					<stop  offset="1" style="stop-color:#008437"/>
				</linearGradient>
				<polygon class="st21" points="8695.4,-256.7 9317.8,7.6 9173.5,347.4 8551.1,83.1 				"/>
			</g>
		</g>
		<g>
			<g>
				<defs>
					<path id="SVGID_66_" d="M8162.1,544.1c74.6,109.3,195.1,235.6,330.4,350.2c83.8,71.1,154.2,124.8,210.4,165.9l18.1-30.2
						c-53.6-45.3-121.4-102.4-201.4-175.6C8396,741.7,8273,624,8190.9,523.8c-85.2-98.1-116.9-185.7-116.4-187.2
						c-0.4,0.1-0.7,0.5-1,0.9C8067.1,348.1,8087.8,441.5,8162.1,544.1"/>
				</defs>
				<clipPath id="SVGID_67_">
					<use xlink:href="#SVGID_66_"  style="overflow:visible;"/>
				</clipPath>
				
					<linearGradient id="SVGID_68_" gradientUnits="userSpaceOnUse" x1="7889.792" y1="-1868.3561" x2="7890.792" y2="-1868.3561" gradientTransform="matrix(793.1334 473.8984 -473.8984 793.1334 -7135155 -2256690)">
					<stop  offset="0" style="stop-color:#ADC90E"/>
					<stop  offset="1" style="stop-color:#009639"/>
				</linearGradient>
				<polygon class="st22" points="7920.8,593 8074.1,336.3 8856.1,803.6 8702.8,1060.2 				"/>
			</g>
		</g>
		<g>
			<g>
				<defs>
					<path id="SVGID_69_" d="M7466.1,991.5c-0.2,0.4-0.3,0.6-0.1,0.8c0.5,4.1,110.1-64.2,283.1-89.9
						c172.4-29.8,399.1-6.2,609.8,74.1c130.2,49.3,229.1,103.2,305.3,148.4l18-30.1c-75.6-50.6-174.9-109.6-306.8-163.3
						c-201.2-83.2-436.8-104.6-617.2-64.5c-173.5,34.5-285.5,114.1-291.9,124.3L7466.1,991.5L7466.1,991.5z"/>
				</defs>
				<clipPath id="SVGID_70_">
					<use xlink:href="#SVGID_69_"  style="overflow:visible;"/>
				</clipPath>
				
					<linearGradient id="SVGID_71_" gradientUnits="userSpaceOnUse" x1="7889.792" y1="-1868.3553" x2="7890.792" y2="-1868.3553" gradientTransform="matrix(793.1262 473.8942 -473.8942 793.1262 -7135324 -2256277.75)">
					<stop  offset="0" style="stop-color:#ADC90E"/>
					<stop  offset="1" style="stop-color:#009639"/>
				</linearGradient>
				<polygon class="st23" points="7464.1,994.9 7742.9,528.2 8684.5,1090.8 8405.7,1557.5 				"/>
			</g>
		</g>
		<g>
			<g>
				<defs>
					<path id="SVGID_72_" d="M7563.6,499.2c-4.7,8.8,378.3,219.9,799.1,422.8c135.5,65.3,244.6,116.5,329.9,155.4l17.6-29.5
						c-84.5-44.1-193.3-100.4-328.4-170.1C7989.2,675.3,7568.8,490.6,7563.6,499.2L7563.6,499.2L7563.6,499.2z"/>
				</defs>
				<clipPath id="SVGID_73_">
					<use xlink:href="#SVGID_72_"  style="overflow:visible;"/>
				</clipPath>
				
					<linearGradient id="SVGID_74_" gradientUnits="userSpaceOnUse" x1="7889.792" y1="-1868.3524" x2="7890.792" y2="-1868.3524" gradientTransform="matrix(793.1346 473.8992 -473.8992 793.1346 -7135266 -2256525.75)">
					<stop  offset="0" style="stop-color:#ADC90E"/>
					<stop  offset="1" style="stop-color:#009639"/>
				</linearGradient>
				<polygon class="st24" points="7558.5,507.8 7623.7,398.7 8710.2,1047.9 8645,1157 				"/>
			</g>
		</g>
		<g>
			<g>
				<defs>
					<path id="SVGID_75_" d="M7984.3,470.1c92.8,135.7,244.5,292,418.4,427.8c111.3,87.2,205.1,150.3,279.2,197.4l17.7-29.6
						c-72.1-51.9-163.6-119.1-271.5-208.9c-159.7-132.4-313.3-278.9-414.3-405.7c-103.3-124.9-147.4-232.1-149.4-231.3
						c-0.1,0.1-0.2,0.2-0.3,0.3C7859.7,227.4,7890.9,339.1,7984.3,470.1"/>
				</defs>
				<clipPath id="SVGID_76_">
					<use xlink:href="#SVGID_75_"  style="overflow:visible;"/>
				</clipPath>
				
					<linearGradient id="SVGID_77_" gradientUnits="userSpaceOnUse" x1="7889.792" y1="-1868.3568" x2="7890.792" y2="-1868.3568" gradientTransform="matrix(793.1265 473.8943 -473.8943 793.1265 -7135105 -2256649.75)">
					<stop  offset="0" style="stop-color:#ADC90E"/>
					<stop  offset="1" style="stop-color:#009639"/>
				</linearGradient>
				<polygon class="st25" points="7693.9,504.9 7865.2,218.1 8853.3,808.4 8681.9,1095.3 				"/>
			</g>
		</g>
		<g>
			<g>
				<defs>
					<path id="SVGID_78_" d="M8422.4,617.7c10.1,104,75.8,216.5,164.2,300.6c51,49.7,97.4,83.7,135.6,109.5l18.5-31
						c-35.3-29.3-78.3-66-124.6-116.5c-77.1-81.9-142.9-179.4-162.7-270.8c-22.3-91.3,7.1-163.9,4.3-164.6c-0.7-1-3.7,2.1-7.7,8.8
						C8436.8,475.8,8412.6,537.1,8422.4,617.7"/>
				</defs>
				<clipPath id="SVGID_79_">
					<use xlink:href="#SVGID_78_"  style="overflow:visible;"/>
				</clipPath>
				
					<linearGradient id="SVGID_80_" gradientUnits="userSpaceOnUse" x1="7889.792" y1="-1868.3563" x2="7890.792" y2="-1868.3563" gradientTransform="matrix(793.1317 473.8974 -473.8974 793.1317 -7135103.5 -2256746)">
					<stop  offset="0" style="stop-color:#ADC90E"/>
					<stop  offset="1" style="stop-color:#009639"/>
				</linearGradient>
				<polygon class="st26" points="8268.8,757 8456.4,443.2 8909.7,714 8722.2,1027.8 				"/>
			</g>
		</g>
		<g>
			<g>
				<defs>
					<path id="SVGID_81_" d="M8265.1,235.4c0.3,1.9,67.4-8.2,171.9,11.5c104.2,18,242,64.8,377.7,129.1
						c90.2,42.7,159.8,81.7,212.9,112.2l8.2-16c-52.7-33.6-122.2-75.2-212.6-120.4c-129.3-64.7-271.5-110.5-380.4-123.6
						c-105.6-14.7-175.1,2.5-177.7,6.9C8265,235.2,8265,235.3,8265.1,235.4"/>
				</defs>
				<clipPath id="SVGID_82_">
					<use xlink:href="#SVGID_81_"  style="overflow:visible;"/>
				</clipPath>
				
					<linearGradient id="SVGID_83_" gradientUnits="userSpaceOnUse" x1="7888.4053" y1="-1863.5071" x2="7889.4053" y2="-1863.5071" gradientTransform="matrix(572.9247 294.7663 -203.5833 395.701 -4890454 -1587626.375)">
					<stop  offset="0" style="stop-color:#EAECAA"/>
					<stop  offset="1.650000e-02" style="stop-color:#EAECAA"/>
					<stop  offset="1" style="stop-color:#3BAA35"/>
				</linearGradient>
				<polygon class="st27" points="8353.4,63.2 9060.6,427 8948.6,644.6 8241.4,280.8 				"/>
			</g>
		</g>
		<g>
			<g>
				<defs>
					<path id="SVGID_84_" d="M9035.2,473.4c0.1,0,0.3,0.1,0.5,0.2l2.7-6.5L9035.2,473.4z"/>
				</defs>
				<clipPath id="SVGID_85_">
					<use xlink:href="#SVGID_84_"  style="overflow:visible;"/>
				</clipPath>
				
					<linearGradient id="SVGID_86_" gradientUnits="userSpaceOnUse" x1="7888.708" y1="-1864.3289" x2="7889.708" y2="-1864.3289" gradientTransform="matrix(625.6844 321.9109 -222.3309 432.1405 -5341976.5 -1733685.5)">
					<stop  offset="0" style="stop-color:#EAECAA"/>
					<stop  offset="1.650000e-02" style="stop-color:#EAECAA"/>
					<stop  offset="1" style="stop-color:#3BAA35"/>
				</linearGradient>
				<polygon class="st28" points="9038,466.9 9039.3,467.6 9036.1,473.9 9034.7,473.2 				"/>
			</g>
		</g>
		<g>
			<g>
				<defs>
					<path id="SVGID_87_" d="M8374.6,117.8c99.7,73.8,244.1,160,398.8,236.3c108.9,53.7,195.9,91.7,261.8,119.4l3.2-6.3l4-9.6
						c-65.5-30.8-152.4-71.7-260.1-127.5c-144.1-74.6-288.1-155.5-391.6-224.4c-104.5-67.8-165.6-124.7-167-124c0,0-0.1,0-0.1,0.1
						C8221.6-15.1,8274.8,45.7,8374.6,117.8"/>
				</defs>
				<clipPath id="SVGID_88_">
					<use xlink:href="#SVGID_87_"  style="overflow:visible;"/>
				</clipPath>
				
					<linearGradient id="SVGID_89_" gradientUnits="userSpaceOnUse" x1="7888.4092" y1="-1863.5051" x2="7889.4092" y2="-1863.5051" gradientTransform="matrix(573.5443 295.0851 -203.8035 396.1289 -4895715 -1589421.75)">
					<stop  offset="0" style="stop-color:#EAECAA"/>
					<stop  offset="1.650000e-02" style="stop-color:#EAECAA"/>
					<stop  offset="1" style="stop-color:#3BAA35"/>
				</linearGradient>
				<polygon class="st29" points="8225.9,-30 9071.6,405.1 9015.3,514.5 8169.6,79.4 				"/>
			</g>
		</g>
		<g>
			<g>
				<defs>
					<path id="SVGID_90_" d="M8543.2,162.5c73.5,64.4,183.5,138.8,303.2,203.7c79.3,43.2,143.9,74.2,194,97.1l8.1-16
						C8999,421.5,8934.9,388,8857,342.9c-110.6-63.6-220.2-132.7-297.4-191.9c-78.2-58.4-119.9-108.3-121.4-107.9
						c-0.1,0-0.1,0.1-0.2,0.2C8435.8,46.9,8470,100.2,8543.2,162.5"/>
				</defs>
				<clipPath id="SVGID_91_">
					<use xlink:href="#SVGID_90_"  style="overflow:visible;"/>
				</clipPath>
				
					<linearGradient id="SVGID_92_" gradientUnits="userSpaceOnUse" x1="7888.4097" y1="-1863.5106" x2="7889.4097" y2="-1863.5106" gradientTransform="matrix(573.6757 295.1526 -203.8501 396.2196 -4896824.5 -1589814.25)">
					<stop  offset="0" style="stop-color:#EAECAA"/>
					<stop  offset="1.650000e-02" style="stop-color:#EAECAA"/>
					<stop  offset="1" style="stop-color:#3BAA35"/>
				</linearGradient>
				<polygon class="st30" points="8434.4,40 9088.7,376.6 9033.4,484.2 8379.1,147.6 				"/>
			</g>
		</g>
		<g>
			<g>
				<defs>
					<path id="SVGID_93_" d="M8704.3,200.2c44.7,56.1,117.6,124.3,204.3,178.5c54,34.7,100.6,57,137.1,74l8.3-16.4
						c-35.4-19.3-80.6-43.6-132.3-79.5c-77.8-52.5-150.3-113.9-199.3-165.6c-49.4-51.4-75.4-91.5-77.8-90.7c-0.1,0-0.1,0.1-0.2,0.2
						C8642.7,103.6,8660.5,145.4,8704.3,200.2"/>
				</defs>
				<clipPath id="SVGID_94_">
					<use xlink:href="#SVGID_93_"  style="overflow:visible;"/>
				</clipPath>
				
					<linearGradient id="SVGID_95_" gradientUnits="userSpaceOnUse" x1="7888.4116" y1="-1863.5287" x2="7889.4116" y2="-1863.5287" gradientTransform="matrix(573.9868 295.3128 -203.9607 396.4345 -4899474.5 -1590701.5)">
					<stop  offset="0" style="stop-color:#EAECAA"/>
					<stop  offset="1.650000e-02" style="stop-color:#EAECAA"/>
					<stop  offset="1" style="stop-color:#3BAA35"/>
				</linearGradient>
				<polygon class="st31" points="8639.5,95.7 9111.4,338.6 9047.2,463.4 8575.3,220.6 				"/>
			</g>
		</g>
		<g>
			<g>
				<defs>
					<path id="SVGID_96_" d="M8494.6,358.5c0.7,2.4,46.4-2.5,117.5,7.6c70.9,9.4,165.8,34.2,260.1,72.6
						c62,24.3,109.5,48.6,146.6,66.9l8.2-16.1c-36.9-21.3-84.6-48.5-147.5-75.4c-90.6-40.3-190.1-63.6-264.4-67.4
						c-71.7-4.8-118.3,7.6-120.5,11.3C8494.6,358.3,8494.5,358.4,8494.6,358.5"/>
				</defs>
				<clipPath id="SVGID_97_">
					<use xlink:href="#SVGID_96_"  style="overflow:visible;"/>
				</clipPath>
				
					<linearGradient id="SVGID_98_" gradientUnits="userSpaceOnUse" x1="7888.4038" y1="-1863.5098" x2="7889.4038" y2="-1863.5098" gradientTransform="matrix(572.7366 294.6696 -203.5163 395.571 -4888850.5 -1587092.375)">
					<stop  offset="0" style="stop-color:#EAECAA"/>
					<stop  offset="1.650000e-02" style="stop-color:#EAECAA"/>
					<stop  offset="1" style="stop-color:#3BAA35"/>
				</linearGradient>
				<polygon class="st32" points="8567.6,216 9043.2,460.6 8953.9,634.2 8478.4,389.5 				"/>
			</g>
		</g>
		<g>
			<g>
				<defs>
					<path id="SVGID_99_" d="M8581.8,439.2c0,0,149.7-15.8,305.2,43.3c50.2,16.6,88.9,34.6,119.1,48l8.2-16.1
						c-30.2-16.5-69.5-37.5-121.3-56.9c-74.9-29.6-157.2-42.2-216.8-39.2c-56.8,2-92.1,16.4-94.4,20.4
						C8581.7,438.9,8581.7,439.1,8581.8,439.2"/>
				</defs>
				<clipPath id="SVGID_100_">
					<use xlink:href="#SVGID_99_"  style="overflow:visible;"/>
				</clipPath>
				
					<linearGradient id="SVGID_101_" gradientUnits="userSpaceOnUse" x1="7888.4033" y1="-1863.5114" x2="7889.4033" y2="-1863.5114" gradientTransform="matrix(572.613 294.606 -203.4725 395.4858 -4887807.5 -1586723.125)">
					<stop  offset="0" style="stop-color:#EAECAA"/>
					<stop  offset="1.650000e-02" style="stop-color:#EAECAA"/>
					<stop  offset="1" style="stop-color:#3BAA35"/>
				</linearGradient>
				<polygon class="st33" points="8653.4,299.5 9027.3,491.8 8943.5,654.7 8569.6,462.3 				"/>
			</g>
		</g>
		<g>
			<g>
				<defs>
					<path id="SVGID_102_" d="M8081,76.4c-0.2,3.2,100.3-24.2,244.3-5.4c144.2,16.1,326.8,77.3,500.1,169.6
						c115.3,61.3,202,119,267.9,164.5l17.5-29.2c-64.3-50.8-150-113.3-264.5-178.9c-164-93.8-353.2-152.9-505.9-159.7
						c-147.9-10.1-254.5,30.5-259.2,38.4C8081,76,8080.9,76.2,8081,76.4"/>
				</defs>
				<clipPath id="SVGID_103_">
					<use xlink:href="#SVGID_102_"  style="overflow:visible;"/>
				</clipPath>
				
					<linearGradient id="SVGID_104_" gradientUnits="userSpaceOnUse" x1="7889.5776" y1="-1867.8921" x2="7890.5776" y2="-1867.8921" gradientTransform="matrix(723.0556 432.0269 -432.0269 723.0556 -6503315 -2057899.625)">
					<stop  offset="0" style="stop-color:#ADC90E"/>
					<stop  offset="1" style="stop-color:#009639"/>
				</linearGradient>
				<polygon class="st34" points="8079.4,78.7 8230.3,-173.9 9121.3,358.4 8970.3,611.1 				"/>
			</g>
		</g>
		<g>
			<g>
				<defs>
					<path id="SVGID_105_" d="M9109.5,378.1L9109.5,378.1c0.2,0.1,0.5,0.2,0.7,0.3l6.2-11.8L9109.5,378.1z"/>
				</defs>
				<clipPath id="SVGID_106_">
					<use xlink:href="#SVGID_105_"  style="overflow:visible;"/>
				</clipPath>
				
					<linearGradient id="SVGID_107_" gradientUnits="userSpaceOnUse" x1="7889.5835" y1="-1867.9052" x2="7890.5835" y2="-1867.9052" gradientTransform="matrix(724.7796 433.0569 -433.0569 724.7796 -6518785.5 -2062913)">
					<stop  offset="0" style="stop-color:#ADC90E"/>
					<stop  offset="1" style="stop-color:#009639"/>
				</linearGradient>
				<polygon class="st35" points="9109.5,378.1 9116.4,366.6 9117,367 9110.2,378.5 				"/>
			</g>
		</g>
		<g>
			<g>
				<defs>
					<path id="SVGID_108_" d="M8280.8-145.3c118,114.2,296,243.4,492.7,353.6c138.4,77.8,250.7,131.2,336,169.7l6.9-11.5l9.1-17.3
						c-83.8-44-194.8-102.7-330.7-184.3c-181.8-109-361.3-229-486.5-333.9c-127-102.9-195.2-193.4-197.4-191.9
						c-0.1,0-0.1,0.1-0.2,0.2C8106.9-354.3,8162.4-256.2,8280.8-145.3"/>
				</defs>
				<clipPath id="SVGID_109_">
					<use xlink:href="#SVGID_108_"  style="overflow:visible;"/>
				</clipPath>
				
					<linearGradient id="SVGID_110_" gradientUnits="userSpaceOnUse" x1="7889.5776" y1="-1867.8906" x2="7890.5776" y2="-1867.8906" gradientTransform="matrix(723.0608 432.03 -432.03 723.0608 -6503274 -2058061.5)">
					<stop  offset="0" style="stop-color:#ADC90E"/>
					<stop  offset="1" style="stop-color:#009639"/>
				</linearGradient>
				<polygon class="st36" points="8031.4,-227.8 8112.1,-362.9 9173.4,271.2 9092.7,406.3 				"/>
			</g>
		</g>
		<g>
			<g>
				<defs>
					<path id="SVGID_111_" d="M8508.6-92.2c83.4,101.6,216.1,215.3,366,310.9c99.2,63.7,181.7,108.2,245.9,140.8l17.4-29.1
						c-62.4-37.6-143.1-86.7-239.8-153.9c-137.3-94.7-271.3-199.2-361.9-291.2c-92.4-90.4-135-171.4-137.2-170.5
						c-0.1,0.1-0.3,0.2-0.4,0.4C8394.5-277.7,8425.1-189.9,8508.6-92.2"/>
				</defs>
				<clipPath id="SVGID_112_">
					<use xlink:href="#SVGID_111_"  style="overflow:visible;"/>
				</clipPath>
				
					<linearGradient id="SVGID_113_" gradientUnits="userSpaceOnUse" x1="7889.5776" y1="-1867.8921" x2="7890.5776" y2="-1867.8921" gradientTransform="matrix(723.0594 432.0291 -432.0291 723.0594 -6503229 -2058111.25)">
					<stop  offset="0" style="stop-color:#ADC90E"/>
					<stop  offset="1" style="stop-color:#009639"/>
				</linearGradient>
				<polygon class="st37" points="8300.3,-120 8399.9,-286.7 9215.6,200.6 9116,367.3 				"/>
			</g>
		</g>
		<g>
			<g>
				<defs>
					<path id="SVGID_114_" d="M8728.1-50.1c44.8,91.3,126,199.7,232,281.5c65.7,52.6,125.2,84.7,171.9,108.9l17.8-29.8
						c-44.3-28.6-101.1-64.3-163-119.2C8893.1,111,8810,14.5,8757.5-68.5c-53.2-82.4-76.6-148.6-80.4-146.9
						c-0.1,0.1-0.3,0.2-0.4,0.4C8673.3-209.2,8684.2-138.9,8728.1-50.1"/>
				</defs>
				<clipPath id="SVGID_115_">
					<use xlink:href="#SVGID_114_"  style="overflow:visible;"/>
				</clipPath>
				
					<linearGradient id="SVGID_116_" gradientUnits="userSpaceOnUse" x1="7889.5776" y1="-1867.8922" x2="7890.5776" y2="-1867.8922" gradientTransform="matrix(723.0562 432.0272 -432.0272 723.0562 -6503171.5 -2058148.875)">
					<stop  offset="0" style="stop-color:#ADC90E"/>
					<stop  offset="1" style="stop-color:#009639"/>
				</linearGradient>
				<polygon class="st38" points="8548.9,-1.1 8678.7,-218.3 9258.8,128.2 9129,345.5 				"/>
			</g>
		</g>
		<g>
			<g>
				<defs>
					<path id="SVGID_117_" d="M8369.1,257.4c0.1,4,68-11.2,167-4c99.1,5.9,227.5,35.2,350.1,88.4c81,33.2,141.1,68.6,188.2,95.1
						l17.5-29.3c-45.7-31.7-105-72.2-186.4-109.8c-116.6-56.9-252.2-83-358.1-78.6c-102.4,2.3-174.2,31.1-178.1,37.6
						C8369.1,257,8369,257.2,8369.1,257.4"/>
				</defs>
				<clipPath id="SVGID_118_">
					<use xlink:href="#SVGID_117_"  style="overflow:visible;"/>
				</clipPath>
				
					<linearGradient id="SVGID_119_" gradientUnits="userSpaceOnUse" x1="7889.5776" y1="-1867.8929" x2="7890.5776" y2="-1867.8929" gradientTransform="matrix(723.0509 432.024 -432.024 723.0509 -6503287.5 -2057861)">
					<stop  offset="0" style="stop-color:#ADC90E"/>
					<stop  offset="1" style="stop-color:#009639"/>
				</linearGradient>
				<polygon class="st39" points="8367.2,260.2 8497.1,42.8 9096,400.6 8966.1,618.1 				"/>
			</g>
		</g>
		<g>
			<g>
				<defs>
					<path id="SVGID_120_" d="M8466.6,384.6c-0.2,0.3-0.2,0.6-0.2,0.8c0.1,0,221.9-49.8,425.7,30.4c66.6,21.6,116.1,47.2,155.2,66.3
						l17.6-29.4c-37.9-24.3-87.2-55.1-155.1-81.4c-97.8-40.6-212.2-50.5-299.4-36.4c-82.9,12-139.1,42.5-143.7,49.6L8466.6,384.6
						L8466.6,384.6z"/>
				</defs>
				<clipPath id="SVGID_121_">
					<use xlink:href="#SVGID_120_"  style="overflow:visible;"/>
				</clipPath>
				
					<linearGradient id="SVGID_122_" gradientUnits="userSpaceOnUse" x1="7889.5776" y1="-1867.8932" x2="7890.5776" y2="-1867.8932" gradientTransform="matrix(723.0688 432.0348 -432.0348 723.0688 -6503479 -2057862.75)">
					<stop  offset="0" style="stop-color:#ADC90E"/>
					<stop  offset="1" style="stop-color:#007E36"/>
				</linearGradient>
				<polygon class="st40" points="8466.2,385.3 8595.4,169.2 9066.2,450.5 8937.1,666.7 				"/>
			</g>
		</g>
		<g>
			<g>
				<defs>
					<path id="SVGID_123_" d="M8051.3,761.2L8051.3,761.2c-6.9,11.8,224.4,163.8,438.6,322c52.8,41.7,98.8,78.9,129.5,118.8
						l24.9-41.7c-28.9-43.2-71.2-81.3-120.5-125.7C8303.5,853.4,8056.7,752.1,8051.3,761.2C8051.3,761.2,8051.3,761.2,8051.3,761.2"
						/>
				</defs>
				<clipPath id="SVGID_124_">
					<use xlink:href="#SVGID_123_"  style="overflow:visible;"/>
				</clipPath>
				
					<linearGradient id="SVGID_125_" gradientUnits="userSpaceOnUse" x1="7889.5664" y1="-1878.3931" x2="7890.5664" y2="-1878.3931" gradientTransform="matrix(719.6777 430.0085 430.0085 -719.6777 -4862297 -4743712)">
					<stop  offset="0" style="stop-color:#ADC90E"/>
					<stop  offset="1" style="stop-color:#046837"/>
				</linearGradient>
				<polygon class="st41" points="8006.7,835.9 8077,718.1 8689.8,1084.2 8619.5,1202 				"/>
			</g>
		</g>
		<g>
			<g>
				<defs>
					<path id="SVGID_126_" d="M8259.7,624.6c-3.3,6.2-8.3,131.1,39.6,247.2c45.4,121.6,143.6,227.8,249.2,283.6
						c25.8,14.2,51.6,26.1,77.1,36.4l18.1-30.3c-23.8-11-48-23.4-71.9-37.7c-109.6-63.5-208.3-165.1-257.5-277.2
						c-52.2-109-53.8-223-54.3-222.2C8259.8,624.4,8259.8,624.4,8259.7,624.6L8259.7,624.6z"/>
				</defs>
				<clipPath id="SVGID_127_">
					<use xlink:href="#SVGID_126_"  style="overflow:visible;"/>
				</clipPath>
				
					<linearGradient id="SVGID_128_" gradientUnits="userSpaceOnUse" x1="7889.5664" y1="-1878.4154" x2="7890.5664" y2="-1878.4154" gradientTransform="matrix(719.6762 430.0075 430.0075 -719.6762 -4862233 -4743792)">
					<stop  offset="0" style="stop-color:#ADC90E"/>
					<stop  offset="1" style="stop-color:#046837"/>
				</linearGradient>
				<polygon class="st42" points="8098.7,894 8260.3,623.5 8779.7,933.8 8618.1,1204.3 				"/>
			</g>
		</g>
		<g>
			<g>
				<defs>
					<path id="SVGID_129_" d="M8404.1,686.3c-12.1,21.2-16.2,319.9,134.7,423.9c36.1,27.8,72.6,42,105.2,50.5l24.4-40.9
						c-29.5-11.9-63.1-28.6-96.2-58.5c-144.7-120.5-161.8-382.7-167.1-376.2c-0.3,0.1-0.7,0.4-1,0.9L8404.1,686.3L8404.1,686.3z"/>
				</defs>
				<clipPath id="SVGID_130_">
					<use xlink:href="#SVGID_129_"  style="overflow:visible;"/>
				</clipPath>
				
					<linearGradient id="SVGID_131_" gradientUnits="userSpaceOnUse" x1="7889.5664" y1="-1878.4097" x2="7890.5664" y2="-1878.4097" gradientTransform="matrix(719.6755 430.0071 430.0071 -719.6755 -4862214.5 -4743811)">
					<stop  offset="0" style="stop-color:#ADC90E"/>
					<stop  offset="1" style="stop-color:#046837"/>
				</linearGradient>
				<polygon class="st43" points="8250.1,944 8409.2,677.9 8794.9,908.3 8635.9,1174.5 				"/>
			</g>
		</g>
		<g>
			<g>
				<defs>
					<path id="SVGID_132_" d="M7594.8-242.9c-0.1,0.2-0.2,0.4-0.1,0.5c0.6,2.6,150.8,1.3,363.5,57.3
						c213.1,52.4,485.9,153.9,747.6,268.6c177.2,77.3,317.7,147.1,427,202.5l19.9-33.4l-0.1,0c-105.7-59.9-243.1-134.2-419.9-216.4
						c-275.7-128.9-557.9-223.6-774.9-262.9C7745.7-268.9,7599.8-251.3,7594.8-242.9L7594.8-242.9z"/>
				</defs>
				<clipPath id="SVGID_133_">
					<use xlink:href="#SVGID_132_"  style="overflow:visible;"/>
				</clipPath>
				
					<linearGradient id="SVGID_134_" gradientUnits="userSpaceOnUse" x1="7890.4033" y1="-1876.6006" x2="7891.4033" y2="-1876.6006" gradientTransform="matrix(1096.7893 655.3332 655.3332 -1096.7893 -7416452.5 -7229379.5)">
					<stop  offset="0" style="stop-color:#ADC90E"/>
					<stop  offset="1" style="stop-color:#009639"/>
				</linearGradient>
				<polygon class="st44" points="7593.5,-240.8 7786.4,-563.7 9152.7,252.6 8959.8,575.5 				"/>
			</g>
		</g>
	</g>
</g>
</svg>
