<?xml version="1.0" encoding="utf-8"?>
<!-- Generator: Adobe Illustrator 19.0.1, SVG Export Plug-In . SVG Version: 6.00 Build 0)  -->
<svg version="1.1" id="Layer_1" xmlns="http://www.w3.org/2000/svg" xmlns:xlink="http://www.w3.org/1999/xlink" x="0px" y="0px"
	 viewBox="0 0 1000 1000" style="enable-background:new 0 0 1000 1000;" xml:space="preserve">
<style type="text/css">
	.st0{fill:#010101;}
</style>
<g>
	<path class="st0" d="M475.9,1000c-7.2-1-14.4-1.6-21.4-2.9c-56.6-9.8-93.8-46-105.2-102c-6.1-29.8-5.1-59.6-0.3-89.3
		c5.3-33.1,16.1-64.8,25.5-96.9c13.6-46.9,27.6-93.7,41-140.7c6-20.8,9.7-42.2,13-63.7c5.6-36.5-26.9-77.4-67.2-76.9
		c-18.2,0.2-35.6,4.2-52.7,10c-10.1,3.5-20.2,7-31,10.8c1.6-7.9,3-15.1,4.5-22.4c2.4-11.8,4.9-23.7,7.3-35.5
		c0.4-2.2,1.2-3.7,3.6-4.6c45.9-17.4,92.7-32,141-40.4c17-3,34.4-4.5,51.6-5.8c30-2.3,57.8,4.9,83.9,19.9
		c16,9.1,30.7,19.6,42.5,33.9c16.5,19.9,24.4,43.2,26.4,68.7c2.7,33.6-3.2,66.2-12.5,98.2c-14.3,49.4-29.3,98.7-43.9,148
		c-9.1,30.9-17.8,62.1-23.4,93.9c-3.2,18.2-5.5,36.6-3.6,55.1c2.2,21.5,10.9,35.1,37.5,42.6c16.6,4.7,33.4,3.7,50.2,1.3
		c19.1-2.8,37.5-8,55.5-14.9c0.8-0.3,1.6-0.6,3-1c-1.3,7.4-2.6,14.5-3.9,21.5c-2.2,11.8-4.4,23.5-6.5,35.3c-0.4,2.6-1.6,4.4-3.9,5.9
		c-25.8,16.2-53.6,27.5-82.8,35.9c-30.4,8.8-61.5,13.8-93.2,15.3c-1.5,0.1-2.9,0.4-4.4,0.6C496.4,1000,486.1,1000,475.9,1000z"/>
	<path class="st0" d="M722.4,138.6c-1.4,7.7-2.5,15.5-4.4,23.1c-13.6,51.9-58.7,89.9-112.1,94.7c-67.3,6.1-127.6-40.3-138.7-106.9
		C455.2,78.5,504.2,11.8,575.8,1.3c2.7-0.4,5.4-0.9,8-1.3c6.7,0,13.5,0,20.2,0c2.8,0.4,5.6,1,8.4,1.3c51.2,7,94.2,45.9,106.1,96.1
		c1.6,6.9,2.5,13.9,3.8,20.8C722.4,125.1,722.4,131.8,722.4,138.6z"/>
</g>
</svg>
