<?xml version="1.0" encoding="utf-8"?>
<!-- Generator: Adobe Illustrator 19.0.1, SVG Export Plug-In . SVG Version: 6.00 Build 0)  -->
<svg version="1.1" id="Layer_1" xmlns="http://www.w3.org/2000/svg" xmlns:xlink="http://www.w3.org/1999/xlink" x="0px" y="0px"
	 viewBox="0 0 1000 1000" style="enable-background:new 0 0 1000 1000;" xml:space="preserve">
<style type="text/css">
	.st0{fill:#FFFFFF;}
</style>
<g>
	<path class="st0" d="M858,200c0,6.7,0,13.4,0,20.2c-0.5,0.8-1.5,1.7-1.5,2.5c-0.8,14.1-6.2,26.7-13.6,38.5
		c-62.2,99.2-124.5,198.3-186.7,297.5c-48.4,77-96.6,153.9-145,230.9c-3.5,5.5-7.2,11.9-12.6,15.1c-18.2,10.9-37.3,20.5-56,30.8
		c-38.7,21-77.1,42.2-115.6,63.2c-45.5,24.9-91.3,49.7-136.8,74.8c-15.6,8.4-30.9,17.6-46.4,26.6c-0.5-4.5-1.2-8.9-1.7-13.4
		c0.5-2.4,1.5-4.7,1.7-7.1c0.7-10.9,1.2-21.7,1.7-32.6c1.7-33.4,3.5-66.9,5-100.3c1.3-28.7,2.2-57.5,3.5-86.2
		c0.5-11.4,1.2-22.9,1.7-34.3c1.5-30.3,3.2-60.5,4.9-90.9c0.7-13.1,0.8-26.2,1.8-39.3c0.3-3.9,2-8.1,4-11.6
		c51.1-81.3,102.4-162.7,153.4-244C380.7,243.4,441.3,146.6,502,49.6c13.6-21.7,32.4-36.8,57.5-43.2C568.7,4,578,2,587.2,0
		c8.4,0,16.8,0,25.2,0c1.2,0.5,2.4,1.5,3.5,1.7c35.1,2,67.6,13.4,98.3,29.4c36.3,18.8,69.2,42.4,96.1,73.6
		c15.5,18,29.4,36.8,37.3,59.3C852.1,175.8,854.6,187.9,858,200z M225.5,597.1c1.3,1.2,2.2,2.2,3.2,2.4c22.7,3.5,45.2,9.1,67.9,9.9
		c18.8,0.7,38.2-2.4,56.5-6.9c23.4-5.9,45.5-15.6,55.3-41c0.5-1.5,1.8-2.7,2.7-4.2c53.4-84.9,106.9-169.7,160.2-254.6
		c8.4-13.4,16.8-27.1,25.5-41.2c-23.4-12.9-46.4-23.7-71.6-29.6c-20.7-4.9-41.5-8.1-62.4-1.3c-4.9,1.5-10.3,4.7-12.8,8.9
		c-63.2,100.2-126.1,200.7-188.9,301C249.2,559.3,237.5,578.2,225.5,597.1z M392.3,608.1c-4.7,1.8-8.1,2.9-11.3,4.4
		c-23.2,10.6-47.7,15.3-73.1,16.1c-28.2,1-55.6-4.4-82.9-10.9c-5.5-1.3-7.1-0.3-7.4,5c-0.5,11.4-1.2,22.9-1.7,34.3
		c-1.2,28.4-2.2,57-3.4,85.4c-0.5,11.9-1.2,24-2,36c-1.2,20.3-2.5,40.5-3.7,61.5c22,3.2,40.2,11.1,51.1,31.9
		c66.2-36.1,131.6-71.9,198.2-108.1C418.3,718,390.9,669.2,392.3,608.1z M728.4,337.1c8.9-14.6,18-27.7,25-41.8
		c3.2-6.4,3.5-15.1,2.5-22.4c-3.5-22.9-16-41.7-30.9-58.5c-33.8-37.8-75-64.5-123.5-79.5c-21-6.6-42.7-9.4-64.7-5.4
		c-30.8,5.5-36,34.3-52.9,55.3c54.1-0.7,99.8,17.8,142.5,44.5C669.2,256,705.2,289.7,728.4,337.1z M800,221.5
		c0-8.1,1.2-15.3-0.2-22.2c-5.2-25.2-20.2-45.2-37.1-63.5c-18.8-20-40.8-36.3-64.7-49.2c-33.3-18.2-68.1-31.3-106.7-29.4
		c-11.9,0.7-22.9,3.9-32.1,12.1C663.5,82,743,131.9,800,221.5z"/>
</g>
</svg>
