<?xml version="1.0" encoding="utf-8"?>
<!-- Generator: Adobe Illustrator 19.0.1, SVG Export Plug-In . SVG Version: 6.00 Build 0)  -->
<svg version="1.1" id="Layer_1" xmlns="http://www.w3.org/2000/svg" xmlns:xlink="http://www.w3.org/1999/xlink" x="0px" y="0px"
	 viewBox="0 0 2462.4 440.9" style="enable-background:new 0 0 2462.4 440.9;" xml:space="preserve">
<style type="text/css">
	.st0{fill:#FFFFFF;}
</style>
<g>
	<path class="st0" d="M2038.4,270c7.9,2.5,8.1,2.7,8.4,9.8c0.1,2.6,0,5.3,0,8.4c1.5-0.2,2.4-0.4,3.2-0.5c0.8-0.2,1.6-0.3,3.1-0.7
		c-5,8.7-9.7,16.8-13.8,23.9c-9.1-0.5-16.9-0.9-26.7-1.4c6.3,8.3,5.8,15.8,3.5,23.4c-0.4,1.3-0.7,2.6-0.7,3.9
		c0.5,14.4,1.1,28.8,1.7,42.9c13,0,26.7,0,41.7,0c0-5.9-0.7-11,0.2-15.7c0.9-4.6,3.5-8.8,5.9-14.4c-1.8-2.2-4.4-6.1-11-4.6
		c0.6-2.5,0.9-4.3,1.6-5.9c0.9-2,3.1-3.8,3.1-5.7c-0.3-5.8,2.6-9.1,6.3-13.5c4.4-5.3,9.1-6.4,14.7-6.2c5.9,0.2,11.7,1.6,17.6,2.4
		c1.9,0.3,4.3,0.9,5.8,0.2c7-3.6,14.4-1.8,21.6-1.9c12.2,0,20.6,9.5,18.7,21.5c-0.9,6-0.2,11.5-0.1,17.4c0.6,25.6,0,51.3-0.2,76.9
		c0,0.3-0.3,0.6-1,1.8c-2.2,0.2-5.1,0.7-8,0.7c-63,0.1-126,0.2-189-0.2c-8.2-0.1-16.3,0.1-24.5,0.2c-8.1,0.1-10-2.3-8.9-10.3
		c0.2-1.3,1-2.5,1-3.8c0-5.8,3.9-11.4-0.8-17.6c-1.9-2.5-1.7-8.7,0.1-11.5c4-6.3,0.9-12.1,1.3-18c-0.7-0.1-1.3-0.3-2-0.4
		c-0.7,3.1-1.9,6.1-2.1,9.3c-0.7,7.7-0.5,7.7-7,13.7c-1-0.5-2.2-1-3.4-1.5c-0.9-0.4-1.8-0.9-3.1-1.6c-0.1,1.6-0.7,3-0.3,4
		c1.9,5.1,0.9,8.7-4,11.6c-2,1.2-3.2,3.8-4.3,6c-2.8,5.5-6.4,10.2-12.5,12.2c-9,3-17.9,5.9-27.2,8.1c-13.6,3.3-27.1,3.6-40.8,4.8
		c-1.6,0.1-3.5,0.4-5-0.2c-8.8-3.7-17.4-1.8-26.3-0.5c-6.3,0.9-13.1-0.7-19.5-2.1c-17-3.8-34-8.1-50.9-12.3
		c-8.3-2.1-9.2-3.4-9.6-12.4c-0.2-4.6-0.5-9.3-0.8-13.9c0-0.2-0.5-0.4-0.7-0.6c-8.1,3.2-8,17.2-18.6,15.8c-3.8,3.6-6.6,7.2-10.2,9.5
		c-12,7.7-25.4,11.7-39.5,14.7c-14,2.9-28,2.6-41.6,1.4c-10.9-0.9-21.8-1.3-32.7-2c-6.9-0.4-13.8-1.6-20.5-3
		c-7.2-1.5-14-4-18.5-10.5c-1-1.5-3.1-3-4.8-3.1c-7.7-0.6-12.8-4.6-16.8-10.8c-1.3-2-3.7-3.3-7.4-6.5c0,9.3,0.2,16.5-0.1,23.6
		c-0.2,6.4-1.4,7.8-7.7,7.8c-38,0.1-76,0-114-0.1c-0.9,0-1.8-0.6-2.6-0.8c-1.2-4.6-3.1-9-3.3-13.4c-0.1-4,1.8-8,3.1-13.4
		c-5-5.4-6.3-14.8-2.4-21.5c3.5-6,10.4-12.1,19.7-11.7c1.3-8.6-1.1-16.1-4.1-23.4c-1.6-3.9-4.4-5.3-8.8-4.2
		c-10,2.5-21.4,0.4-31.1-4.9c-1.1-0.6-2.5-0.5-4.6-0.9c-5,10.2-7.3,20.9-8.8,33.1c6.3,0.5,11.8,0.9,17.7,1.4
		c2.8,9.7,6.3,18.9,2.7,29.1c-0.7,1.9,0.4,4.4,0.5,6.6c0.4,7.5,0.7,15.1,1.1,23.4c-41.8,0-82.2,0-122.8,0c-1.2-4.6-2.4-9-3.7-14.1
		c-6.7,6.9-15.4,6.5-23.6,7.8c-2.3,0.4-5.8,0.1-6.5,1.4c-4.1,7.5-11.9,6.8-18.2,7.9c-13,2.3-26.2,3.2-39.3,5
		c-6.2,0.8-10.1-1.8-11.9-5.3c-5.5-0.5-9.5-0.9-13.5-1.4c-6.2-0.7-12.5-1-18.6-2.5c-11.8-3-22.1-8.6-28.1-20
		c-0.3-0.6-0.7-1.4-1.2-1.5c-11.8-2.5-15.4-13.7-22.6-21.1c-4-4.2-8.1-6.2-13.9-6.2c-14.1-0.1-18.3-3.3-22.9-17.2
		c-4.5-13.7-8.6-27.6-12.7-41.5c-0.5-1.6-0.7-3.3-0.5-4.9c0.9-6-0.7-9.3-6.9-12.6c-5.6-3-10.3-4.1-16.5-3.8
		c-11.6,0.5-22.9,2.7-34.2,4.2c-6.6,0.9-13.3,3.8-21,2.2c-6.1-1.3-13.1,2.1-19.8,2.8c-5.9,0.7-11.8,0.5-17.8,0.8
		c-2.3,0.1-4.5,0.4-8.1,0.7c0,5.9-0.1,11.5,0,17c0.1,4.1-0.1,7.6-4.5,10c-3.8,2-4.9,5.9-3.8,10.4c1,4.4,1.4,9,2.1,13.7
		c12.2-2.8,19.2,7.8,29.1,9.1c3.6,16.2,7.2,31.8,10.6,47.6c1.3,6.2-1.7,9.4-7.6,10.1c-32.8,3.9-65.7,1.3-98.6,2.2
		c-5.5,0.1-10.6-0.1-14.2-5.9c-5.5,8.4-13.1,5.7-21.6,5.3c-0.6-3.7-1.6-7.4-1.7-11.1c-0.2-11.3,1.9-22.2,6.1-32.7
		c4-9.9,1.9-20.4,2.1-30.6c0.2-6.6,0.1-13.1-3.3-19.3c-1.6-2.9-1-6.9-1.3-9.7c-18.2,2.7-36.4,5.3-54.4,8c-1.1,8.4-1.9,16.3-3.3,24.1
		c-1.2,6.1-2.9,12.2-5,18.1c-2.2,6.3-7.6,9.2-13.7,10.3c-13.7,2.4-24.7,8.7-32.2,20.7c-0.4,0.6-0.7,1.3-1.2,1.5
		c-9.6,4.3-14.4,13.9-22.5,20c-5.5,4.2-11.5,6.1-18.3,6.4c-6.9,0.3-13.8,1.3-20.7,2c-0.3,0-0.7,0.2-1,0.1
		c-15.2-1.2-30.4-2.2-45.5-3.7c-7.8-0.8-15.6-2.2-23.4-3.5c-4.5-0.8-9.1-1.6-13.5-2.9c-4.5-1.4-6.8-5.3-8.1-9.5
		c-1.8-5.9-4.6-10.2-11.2-9.9c-5.7-14.1-14-26.9-8.6-43.1c-4.3,0.4-7.5,0.7-12.2,1.1c-2.6,6.2-6.5,12.9-8.3,20.1
		c-3.3,12.9-12.1,21.6-21.9,28.8c-13.4,9.9-29.1,15.5-45.6,18c-11.1,1.7-22.1,3.4-33.3,4.6c-3.9,0.4-7.9-0.5-11.9-0.9
		c-3.6-0.4-7.2-1.1-10.8-1.3c-25.8-1.2-49.5-8.4-70-24.4c-5.1-4-9.1-9.5-13.2-13.9c-17.7,2.8-35.1,5.4-52.5,8.4
		c-5,0.9-10.4,0.8-14.4,5.5c-10.5,12.5-25.7,17.3-40.5,21.5c-11,3.1-22.8,4.8-34.2,4.9c-13.1,0-26.2-2.4-39.3-3.8
		c-13.6-1.5-26.3-6.1-38.8-11.6c-1.8-0.8-3.8-1.4-5.5-2.4C0,413.3,0,413.3,0,395.6c0-12,0-24,0-36c0-3.3,0-6.5,0-10.5
		c21.9,0,42.8,0,64.1,0c1.5,3.6,3.1,7.6,4.9,11.5c3.9,8.1,12.1,12,20.7,9.2c7.9-2.6,11.9-6.2,11.9-16c-0.4-45-0.1-90-0.2-135
		c0-2.3-0.4-4.6-0.6-7.8c-3.5-0.2-6.7-0.4-9.9-0.4c-14.7-0.1-29.3,0.1-44-0.1c-6.7-0.1-8-1.3-8-7.4c-0.1-16.3,0-32.6,0.1-48.9
		c0-0.9,0.5-1.8,1.2-4.2c8.6,0,17.5,0,26.4,0c14.7,0,29.3,0.3,44,0c6.9-0.1,13.3,0.4,18.3,6.5c5.8-3.5,11.4-3.2,18-1.9
		c7.2,1.4,15-0.7,22.6-1c5.6-0.2,11.1,0,16.7,0c7.2,0,14.4,0.4,21.6-0.2c9.5-0.7,19-3,28.5-3.2c31.7-0.4,63.3-0.2,95-0.2
		c2.9,0,5.8,0.5,9.9,0.9c0,6.4-0.2,12.3,0,18.2c0.2,7,0.4,7,9.3,6.7c0.6-8,1.2-16,1.8-23.8c21.1-2.7,40.9-2.4,60.7-1.5
		c14.9,0.7,29.6-0.8,44.4-0.4c13.7,0.4,19.9,8.9,15.6,21.8c-1.1,3.4-3.2,6.4-4.5,9.7c-0.8,2-1,4.2,0.3,7.1c1.3-1.5,2.8-2.9,3.9-4.6
		c7.4-11.8,16.8-22,29.3-27.8c9.4-4.4,20.1-6.8,30.5-8.3c15.4-2.3,31-4.9,46.4-4c15.7,0.9,31.9-0.4,47.4,4.3
		c8.5,2.6,17.3,4,25.9,6.3c4.7,1.2,9.2,3.2,14.4,5.1c2.4-8.5,9.5-9.7,18.5-9.7c82.3,0.3,164.6,0.1,247,0.1c3.3,0,6.5,0,11.1,0
		c-0.8,10.5,3.4,20.2-2.9,29.6c-1.5,2.2-1.3,5.7-1.3,8.7c0,7.7,0.3,15.3,0.4,23c0.1,8.4-3.5,12.3-12,14c-2.7,0.5-6.8,2.1-7.2,3.9
		c-1.5,7.2-7.6,7-12.2,7.7c-6.8,1-13.8,0.3-20.3,0.3c-5.8-8.9-7.8-18-7.3-27.7c-7.1,0.6-13.3,1.2-18.3,1.6c-4.4,3.7-8.1,6.7-11.5,10
		c-1.5,1.5-3.3,3.5-3.5,5.5c-1.1,10.2-2.1,20.3-2.5,30.6c-0.3,8.1,0.5,15.9,9.2,20.4c1.7,0.9,2.5,4.5,2.7,6.9
		c0.4,5.6,0.1,11.2,0.1,18c5.6,0,10.6,0.7,15.2-0.1c10-1.7,19.9-4.3,29.9-6.4c1.9-0.4,4-0.3,5.9-0.6c14-1.9,28-3.7,42.1-5.7
		c6.1-0.9,12.2-2.1,17.7-3c1.1-8.8,2.1-16.6,3.1-24.4c3.6-0.7,6.5-1.3,9.1-1.8c1.2-2.9,2.4-5.6,3.3-8.4c1.5-4.3,4.3-8.7,4-12.9
		c-0.8-10.6,3.8-19.3,7.7-28.3c2.7-6.4,5.9-12.6,8.9-18.8c0.6-1.2,1.3-2.3,2.2-3.3c18.2-18.4,38.3-33.1,64.5-38.9
		c16.3-3.6,32.9-5.7,49.1-5.6c21.3,0.1,42.8,2.2,64,7.2c17.2,4,32.5,11,48.8,20c-0.8,26.2-1.5,52.6-2.3,79.5
		c11,2.4,21.3-1.6,31.6-4.7c1.5-0.4,3-2.8,3.4-4.5c2-8,2.9-16.4,5.7-24c7.4-20.1,10.3-41.3,17.2-61.5c1.5-4.2,4.2-6.1,9-6.1
		c39.7,0.2,79.3,0.1,119,0.2c8,0,11.4,3.1,11.6,11.5c0.1,7.4,1.4,13.8,4.8,20.6c3.9,7.8,5.2,16.9,7.4,25.5
		c1.3,5.1,2.3,10.3,5.7,13.6c6.6-0.5,12.6-0.7,18.4-1.5c2.4-0.3,5.3-1.6,6.6-3.4c1.7-2.3,0.9-4.8-2.6-6.1c-4-1.5-7.7-3.7-8-9.1
		c-0.1-1.4-3.4-2.6-5.1-4c-4-3.1-6.5-6.8-4.5-12.1c3.9-10.3,1.8-20.7,0.2-31c-0.1-0.9-0.3-1.9-0.6-3.8c15.4-0.6,30.4,0,45.5,0.4
		c14.9,0.4,29.9-0.6,44.9-0.8c15.2-0.2,30.5,0,47.2,0c0,16.8,0,33.2,0,50.2c4.3,0.2,7.2,0.4,10.4,0.5c2.8-7.1,5.4-13.5,2.4-21.2
		c-1.3-3.4-0.2-7.8,0.1-11.8c0.3-3.3,1.2-6.5,1.4-9.7c0.4-7.1,0.9-8.2,8.2-7.9c11.6,0.4,23.3-1.6,34.7,2c2.1,0.7,4.8,0.7,6.9,0.1
		c16.1-4,32.2-2.2,48.5-1.2c6.4,0.4,13-0.8,20.4-1.3c0,5.5,0.4,9.7-0.1,13.8c-0.5,4-1.8,7.9-1.9,12.4c8.8-8.9,14-22.4,31-20.5
		c3.9-4.3,9.5-7,16.8-4.6c1.5,0.5,3.8-0.5,5.3-1.5c5.2-3.4,10.9-4.4,17.1-4.3c13.3,0.2,26.6,0.3,39.8-0.1
		c14.5-0.4,27.9,3.4,41.1,8.9c0.9,0.4,1.9,0.8,2.9,0.7c7.6-0.6,15.3-1.3,22.9-1.9c1.7-0.1,3.3-0.6,5-0.5c5.8,0.4,13.3,3.4,17.1,0.8
		c5.9-4.1,11.4-2.5,17-2.9c6-0.4,12,0.1,18,0.2c14.6,0.3,28.9-2,43.3-4.6c9.1-1.7,18.4-2.3,27.8-3.4c1.7-2.4,3.4-4.8,5.2-7.3
		c7.1,0.2,14.7,1.1,19.1-9.1c-3.8,0.8-6.2,1.3-8.5,1.8c-2.2,0.5-4.3,0.9-7.4,1.6c0.4-5.2-0.4-8.9,6.6-8.9c3.5,0,7.1-3.7,10.8-5.8
		c-1.1-4-2-7-3.2-11c-2.4,2.1-4.1,3.5-6.1,5.2c-4.2-3.7-6.9-7.7-4.9-13.6c1.4-4,4.3-5.7,8.4-5.7c4.2,0,6.2,2.9,6.3,6.4
		c0.1,3.9,0.8,6.4,4.3,8.8c2,1.4,2.3,4.7,0.4,8.1c-3,5.2-1.9,6.2,4.5,6.4c1.3,0,17.9,5,19.4,5.1c3.8,0.3,7.6,0.1,12.2,0.1
		c-1.2-7,2.9-9.2,8.4-9.4c3.7,2.6,7.1,4.9,11.4,7.9c2.7-8.8,7.4-13.2,16.8-10.8c-2,1.7-3.7,3.1-5.8,5c7.5,0.8,7.5,0.8,19.6-12.2
		c1.3,2,2.2,4.1,3.7,5.4c1.9,1.5,4.4,3.3,6.5,3.2c5.8-0.2,11.6-1.4,17.5-2.1c6.6-0.9,9.8-3.2,10.8-8.4c1-5.1,0.2-9.1-4.8-12.7
		c-26-19-51.6-38.6-77.4-57.9c-5.6-4.2-11.2-8.3-17.2-11.8c-2.2-1.3-5.6-1.4-8.3-1.1c-5.9,0.6-11.6,1.8-17.9,2
		c6.5-9,16.2-13.9,24.2-21.2c43.3,20.3,83.7,45.1,126.2,70.7c-0.3-5.8-0.4-9.5-0.8-13.3c-0.1-1.3-1.4-2.5-1.3-3.7
		c0.8-10.3-3.9-17.1-12.8-21.7c-0.9-0.5-1.3-2-2.6-4.3c10-1.3,17.9,3.1,26.3,4.5c4.5,11.7,8.8,23.1,13.2,34.5
		c2.3,5.9,4.7,11.6,6.9,17.5c1.8,5,5.4,6.9,10.4,7.8c16.8,3.3,33.5,7.1,50.2,10.8c0.5,0.1,0.8,0.9,2.1,2.5
		c-10.4,11.4-24.4,18.4-36.7,27.6c0.3,3,0.7,5.9,0.8,8.8c0,1.6,0.1,3.7-0.8,4.7c-4,4.8-8.3,9.3-12.5,13.9
		c-4.4,4.8-8.9,9.6-13.4,14.4c-3.6,3.9-7.5,7.6-10.8,11.7c-1.8,2.3-2.5,5.4-4.3,9.5c-5,1.1-10.6,4.5-15.5,10
		c-5.5,6.2-12.3,11.1-18.5,16.8c-2.6,2.4-5,5.1-8.9,9.1c5.9-0.6,9.8-1,13.8-1.4c0.2,0.8,0.4,1.6,0.6,2.4c-4.1,1.6-8.1,3.5-12.3,4.8
		c-8.1,2.6-16.6,4.4-19.5,14.7c2.7,1.2,5.1,2.2,7.9,3.4c-3.4,2.9-6.1,5.2-9.9,8.5c-3.9,0.6-2.8-4.7-4.7-7.3
		c-2.6,2.2-4.8,4.1-8.1,6.9c3.1,2.9,6,5.7,9.1,8.8c-0.5,0.6-1.6,1.8-3.2,3.6c4.5,1.3,8.6,2.6,12.7,3.8c-0.4,6.2-7.4,9.7-4.3,15.4
		c2.2,4,5.6,7.3,7.3,12.5c-2.5-0.7-5-1.3-7.8-2.1c-1.4,6.1,2.7,10,5.7,12.4c5.9,4.5,2.9,8.2,2.1,12.4c-0.7,0.2-1.5,0.4-2.2,0.5
		c-1.1-2.5-2.2-4.9-3.5-8c-2.4-0.5-5.2-1.1-8.1-1.7l0.1,0c0-3.3,0-6.7,0-10.6c-2.3-0.6-4.4-1.2-6.3-1.7c-2.2-4.4-4.3-8.8-6.5-13.2
		c-2.7,1.6-4.8,2.8-8.9,5.3c1.5-4,2.2-6,3.3-8.9c-2.9-1.7-5.7-4.1-9-5c-4.7-1.2-7.4,2.6-11.6,6.9c5.8,0,9.9,0,14.4,0
		c-2.6,7.4-7.8,5.8-13.2,5.2c-1.6-3.6-3.3-7.4-4.9-11.2c-6.2-2-3.2,5.7-7.4,6.5c-5.4,0.5-5-4.2-5.7-7.8c-0.5-0.1-0.8-0.2-1.1-0.2
		c-12,0.8-12,0.8-13.6,12.4l0.3-0.3c-2.3-0.8-3.6-1.7-3.6-4.9c0.1-6.6-0.7-13.2-1.2-21.1c-2.5,1.6-3.5,2.2-4.4,2.9
		c-0.9,0.7-1.7,1.6-2.4,2.2c-3.5-1.7-2.2-6.2,1.9-10.6c-2.9-4.3-5.8-8.3-8.4-12.5c-0.9-1.5-1.1-3.7-1.1-5.6
		c0.1-10.5,0.3-20.9,0.4-31.4c0-1-0.3-1.9-0.4-3.2c2.7-3.1,5.5-6.3,8.6-9.8c-2.7-6-5.3-11.8-8-17.7c-0.7,0.1-1.3,0.2-2,0.3
		c0.2,2.7,0.4,5.5,0.6,8.7c-5.6,1.7-11.2,3.4-17.1,5.3c-0.2,7.7,7,11.7,9.5,17.9c-4.9,2.6-6.4-1.7-9.3-3.1c-2.3-1.2-6,0.5-10,1
		c-2.3,2.4-5.3,5.6-8.5,9c-3.8-4.1,3-11-5.5-12.2c-3.1,7.5-2.1,15.5-1.4,23.1c0.7,7.7,0.6,14.5-6.5,19.5c1.8,3.9,3.4,7.4,5,10.9
		C2023.7,270.3,2031.7,264.3,2038.4,270L2038.4,270z M2148.2,174.9c-0.8,1.1-1.5,2.1-2.3,3.2c3.8,2.3,2.3,4.8,0.3,7.4
		c-1,1.3-2.3,2.7-2.5,4.1c-0.4,4,0.3,8.1-0.5,11.9c-0.7,3.5-2.8,6.7-4.9,11.4c4.8-2.1,7.8-4.3,11-4.6c7.7-0.8,11.3-5.7,14.5-12
		c-2.4-2.7-4.5-5-6.5-7.2c3.5-4.7,6.6-8.9,9.6-13c3.7,1.4,4.1,3.2,1.4,5.1c-4,2.8-2.5,4.6,0.9,6.5c5.7-3.8,9.9-7.9,5.8-15.2
		c6.4-0.5,9.5-2.9,12.1-8.5c1.6-3.3,1.8-6.8,5.6-9.6c4.8-3.4,3.9-7.7-1-11.5c-5-4-8.9-7.5-17.3-5.4c-17.2,4.3-35.2,5.4-52.8,8
		c-1.7,0.2-3.2,1.6-4.7,2.4c0,0.7-0.1,1.3-0.1,2c15.3-2.3,26.4,5.6,37.4,14c-2.1,3.7-4.1,7.4-6.2,11.1L2148.2,174.9z M650.2,265.7
		c-0.1,0.7-0.3,1.4-0.4,2.2c0.6,2.3,0.4,5.5,1.9,6.8c5.3,4.5,10.9,8.6,16.7,12.4c10.1,6.6,19,14,21.9,26.5c0.8,3.4,1.8,6.8,2.8,10.5
		c4,0,7.3,0.4,10.6-0.1c9.8-1.3,19.5-3,29.2-4.5c4.5-0.7,9.2-2.1,13.5-1.5c4.7,0.6,6.1-2.1,7.3-5c0.9-2.3,0.8-5.2,0.8-7.8
		c0.1-29.3,0.1-58.6,0.1-87.9c0-1.9-0.4-3.8-0.6-6.1c-7,0-13.4,0-20.9,0c0,4.3,0.1,7.8,0,11.4c-0.2,7.9-6.4,15.1-14,14.8
		c-14.3-0.6-28.7,2.2-42.8-0.6c-10.2-2-20.3-2.2-30.6-2.2c-10.6,0-21.3,0-31.8,0c-0.9-1.6-1.4-2.9-2.1-3.9
		c-8.3-12.1-20.4-16.4-34.3-12.4c-9.3,2.7-11.5,10.7-4.3,17.1c2.3,2.1,5.5,3.4,8.5,4.5C604.3,248.5,627.3,257.1,650.2,265.7z
		 M1258.8,260c-5.1,0-8.9-0.1-12.6,0c-1.2,0-2.4,0.7-3.6,1c-3.1,0.8-6.1,1.9-9.2,2.4c-6.1,0.9-12.3,1.5-18.5,2.2
		c-10.2,1.2-20.3,2.3-30.5,3.5c-2,0.2-3.9,0.3-5.9,0.7c-17.8,2.8-35.6,5.9-53.4,8.5c-9.1,1.4-18.2,2.1-27.8,3.1
		c-2,4.2-2.8,8.3-2.3,13.7c1.3,14.2,2.1,28.7,0.5,42.8c-0.8,6.9,0.7,12.8,1.9,18.9c2.2,10.7,12.1,15.8,22.6,15.3
		c6.8-0.3,14.8-1.8,18.3-8.2c2.9-5.2,3.4-12,4-18.1c0.5-6.3-0.4-12.6-0.3-18.9c0.1-9.3,3.5-12.4,12.8-12.4c11.3,0,22.7-0.5,33.9,0.1
		c11.4,0.6,22.8,1.1,34.2,0c2.5-0.2,5.1,0.4,8.2,0.7c0,13.8,0,26.9,0,40.1c0.6,0.1,1.2,0.2,1.8,0.2
		C1241.6,323.7,1250.2,291.8,1258.8,260z M364.7,273.5c-3.9,0-6.9,0.1-9.8,0c-2.7-0.1-5.4-0.5-8.2-0.8c0-0.4,0.1-0.8,0.1-1.3
		c5.9-1.2,11.9-2.4,18.4-3.7c0-7.1,0.4-13.4-0.1-19.7c-0.6-6.4,2.8-13.3-2.6-19.1c-0.4-0.4,0-1.9,0.5-2.6c3.9-4.8,2.2-9.9,1.4-15.2
		c-1.8-0.3-3.1-0.6-4.3-0.7c-8.9-0.9-9.2-1.1-9.3-10.3c-0.1-6.6,0-13.2,0-19.5c-8.3-1.7-8.5-1.7-9.9,4.1c-0.6,2.4,0.2,5.1-0.1,7.5
		c-0.7,5.8-0.2,13.2-6.6,15.2c-9.2,2.9-8.2,9.6-9.6,16.6c8,1.9,16.1,0,22.9,3.9c0,0.7-0.1,1.4-0.1,2.1c-7.4,0-14.8,0-23.1,0
		c1.1,13.4,2.2,25.4,3.3,38c4,0.9,7.9,1.7,11.8,2.5c0,0.5,0,1-0.1,1.6c-4.7,1.1-9.4,2.1-13.2,2.9c0.4,18.4,2.1,35.3-0.7,52.1
		c-2.1,12.4,0.2,24.3,4.2,35.9c0.8,2.3,2.9,4.7,5.1,5.9c7.4,4,15.4,4.5,22.7,0.1c6.3-3.7,8.1-10,8.1-17.2c-0.2-23.3-0.1-46.6-0.1-70
		C365.2,279.7,364.9,277.4,364.7,273.5z M1574.9,215.7c0,17.2,0,33,0,48.8c0,29.6-0.1,59.2,0.1,88.8c0,3.2,0.1,7,1.7,9.5
		c4.1,6.5,10.4,10.8,18.4,9.5c7.9-1.2,15.8-3.5,16.9-13.7c0.4-3.6,1.5-7.1,1.5-10.7c0.1-21.9-0.1-43.9,0.2-65.9
		c0.1-6.2,1.6-12.3,2.1-18.5c0.3-3.6,0-7.3-0.4-10.8c-0.4-3.9-1.7-7.7-1.8-11.6c-0.3-8,0-16-0.2-23.9c0-2.1-0.8-4.2-1.3-6.2
		C1599.7,212.6,1588,214,1574.9,215.7z M459.5,270.2c0,14.2,0.1,28.4-0.1,42.6c-0.1,4.2-1,8.4-1.7,12.6c-2,11.4-0.3,22.7-0.2,34.6
		c10.1-1.9,6.8-9.8,8.6-15c12.6,0,24.8,0,36.9,0c11.3,0.1,22.6,0.6,33.8,0.2c11.5-0.4,22.9-1.7,34.3-2.7c0.6-0.1,1.1-1.3,1.7-2.1
		c-7.9-3.4-15.6-6.1-22.7-10c-3.5-1.9-6.6-3.6-10.7-4.2c-5.4-0.9-12.8-2.1-15.3-5.8c-4.4-6.6-10.6-7.1-16.7-9.4
		C486.7,303.4,471,289.9,459.5,270.2z M217.4,210.2c-1-0.1-2.3,0-3.6-0.3c-6.6-1.3-7.7-0.6-8.3,5.5c-0.2,2-0.1,4-0.1,6
		c0,39.9-0.1,79.9,0.1,119.8c0.1,9.1-1,17.8-3.7,26.3c-3.1,9.7-6.6,19.3-10.6,30.6c8.3-1.6,15.3-3,22.3-4.3
		c3.5-0.6,7.4-2.1,10.5-1.1c5.2,1.6,7.3-0.9,9.6-4c-2.2-5.7-4.8-10.8-6.3-16.2c-3.9-14.7-5.2-29.8-4.9-45c0.9-42-2.1-84.1,2.4-127.9
		C221.9,203.8,219.8,206.9,217.4,210.2z M1912.9,235.4c-9-1.1-17.4-2.8-25.9-2.9c-8.9-0.1-17.8,1.3-26.7,1.9
		c-4.5,0.3-10,1.7-11.7-4.6c-2.5-9.2-9.4-11.3-17.4-11.9c-4.6-0.3-9.3-0.2-14,0c-6.7,0.3-11.1,3.4-12.2,8.3
		c-1,4.9,2.8,10.3,9.1,12.7c1.2,0.5,2.7,0.3,3.9,0.8c6.8,2.6,13.6,5.3,20.3,8.1c4.8,2,9.4,5,14.5,5.9c13.3,2.5,25.3,8.2,36.2,15.6
		c10,6.8,19.2,15.2,20.3,28.9c0.1,1.2,1.8,2.3,3.6,4.6C1912.9,279.4,1912.9,257.6,1912.9,235.4z M1797.3,360.1
		c1.7,1.8,2.4,3.1,3.5,3.7c7.4,4.1,13.3,0.9,13.7-7.2c0.6-12.3-0.2-13.6-11.7-18.7c-1.8-0.8-3.8-1.1-5.6-1.9
		c-19.1-8.3-38.5-16-57.1-25.2c-8-3.9-14.9-8.6-24.5-6.9c-6.1,1.1-6.9,1.2-7.5,7.8c-0.8,9.8,2.1,19.9-2.1,29.5
		c-0.3,0.7,2.6,4.1,4,4.1c14.2,0.2,28.3-0.2,42.5-0.2c8.4,0,16.9-1.2,25.4,1.4c0.5,7.2,0.3,14.1,7.9,17.5
		C1790.5,366.3,1794,365,1797.3,360.1z M1148.5,262.6c-7.1-5.7-6.8-12-6.6-18.3c0.1-3.3,0-6.6,0-10c-0.1-14.8-2.6-18.1-16.8-22.6
		c-10-3.1-20.5,0.6-25.9,9.2c-4,6.4-7,12.8-3.6,20.5c0.6,1.4,0.3,3.3,0.3,4.9c0,7,0,14.1,0,22.8
		C1113.6,265.3,1130.3,267.1,1148.5,262.6z M1332.9,304.4c9.9,0.4,19.7,2.3,29.2-0.9c-1.1-7.6-3.1-14.8-2.9-21.9
		c0.3-8.9-2.3-16.6-6.2-24.8c-4.4,0-8.9,0-14.2,0c-1.3,4.3-3.2,8.6-3.7,12.9C1334.1,281,1333.6,292.2,1332.9,304.4z M1450.5,254.7
		c3.9,11.9,7.6,22.1,10.7,32.4c3,10,5.5,20.2,8.8,32.4c0.6-23,1.2-43.6,1.7-64.8C1465.6,254.7,1459.1,254.7,1450.5,254.7z
		 M1473.8,248.8c-0.8-6.3-0.4-13.1-4.9-18.4c-6.2,1-12,1.9-18.4,2.9c-0.2,5.2-7.4,8-5,15.5C1454.6,248.8,1463.7,248.8,1473.8,248.8z
		 M542.1,355.1c2.7,6.9,6.5,10,12.3,10.1c5,0.2,9.9,0.2,14.9,0c9.5-0.5,11.6-3,12.1-13.3C568.6,352.8,556.4,359.4,542.1,355.1z
		 M2095.3,204.4c-6.6-6-16.2-8.5-23.7-6.2C2078.1,205.8,2087.2,208.3,2095.3,204.4z M2136.7,265c-2.5,5-5.6,7.9-2.9,11.4
		c1,1.3,4.4,0.9,7.4,1.4C2139.7,273.4,2138.6,270.4,2136.7,265z M1872.8,388.9c2.8,7.1,7.2,4.4,12.1,4.6
		C1882,387.1,1878.5,386.1,1872.8,388.9z M2131.6,166.2c7.8,1,6-4.9,6.5-7.6c0.6-3.3-2.2-3.9-5.3-2.7
		C2132.5,159.1,2132.1,162.2,2131.6,166.2z M1717.7,296.5c-3.5-3.2-6-5.4-8.7-7.9C1708.1,298.6,1708.2,298.7,1717.7,296.5z
		 M1351.8,250.7c0-0.9,0-1.7,0-2.6c-3-2.6-5.5-2.7-8.5,2.6C1346.8,250.7,1349.3,250.7,1351.8,250.7z M2203.1,106.3
		c-0.4,1.2-0.8,1.9-0.7,2.6c0,0.4,1.2,1.1,1.4,0.9c0.7-0.4,1.2-1.1,1.8-1.7C2204.9,107.6,2204.2,107.1,2203.1,106.3z"/>
	<path class="st0" d="M2246.7,214.1c-3.2,1.8-5.3,3-8.3,4.6c-0.4-6.9,3-10.5,7.1-13.8c1.4-1.2,3.3-2.4,3.8-4c2.5-9,4.5-18.2,7-27.2
		c2.4-8.6,6.4-16,16-18.4c12.2-3.1,24.3-7.5,36.7-9c12.3-1.6,24.6-4.2,37.5-3.1c11,1,22.4,0.1,33.4,2c17.6,3,34.7,7,49.5,18.6
		c9.4,7.4,16,17.1,21.8,26.6c4.7,7.7,5.3,18.3,5.9,27.8c0.6,8.1-1,16.4-2.2,24.6c-0.6,4.1-1.8,8.3-3.5,12.2
		c-6.2,14.1-15.1,26.4-27.2,36.1c2.5,5.7,7.3,6.7,11.4,8.6c9.5,4.4,17.1,10.1,17.4,21.9c0,1.8,1,3.9,2.2,5.4
		c8.4,11.1,7.9,23.4,5.7,36.1c-0.7,4.2-0.8,8.6-0.9,12.9c-0.3,12.2-5.5,22-13.6,31c-22.8,25-52.3,32.6-84.5,33.8
		c-10.3,0.4-20.6,0.4-31,0.1c-21.1-0.6-41.1-6.7-60.9-13.6c-3.4-1.2-6.8-2.8-10.3-3.6c-7.6-1.7-10.8-7-12.8-13.8
		c-1.3-4.4-2.7-8.7-3.8-12.2c1.1-4.5,2.8-8.4,3-12.4c0.4-7.6-0.2-15.3,0-23c0.2-6,0.7-12,1.8-17.8c0.4-2.1,2.6-5.1,4.6-5.6
		c12.7-3.4,25.6-5.9,39.1-4.8c7.6,0.6,15.3-0.2,23,0c8.8,0.2,9.6,1.6,7.6,9.9c-2,8.3,3.1,14.7,7.4,20.6c3.9,5.4,9.2,9.3,17.2,6.1
		c4.6-1.8,10.6,1,14.3-4.8c4.4-6.6,7.2-13.7,6.3-21.6c-0.6-5.5-2.2-11.1-4.2-16.3c-0.9-2.4-3.7-4.8-6.2-5.7c-4.3-1.6-9-1.8-13.5-2.9
		c-6.1-1.5-12.2-2.9-18.1-4.9c-7.2-2.5-9.7-7.9-9.5-15.6c0.3-9.2-0.6-18.5-1-27.8c-0.4-9.8,1.9-12.2,12.1-12.3
		c7.3-0.1,14.5,0.1,21.8,0.1c7.7,0,17.8-10.5,18.6-19.4c0.7-7.3-1.5-14.1-6.3-19.4c-2.2-2.4-6-4-9.3-4.8c-3.5-0.8-7.3-0.4-10.9-0.2
		c-6.1,0.3-10.9,2.8-13.6,8.5c-2.6,5.7-5.6,11.3-7.7,17.2c-1.4,4.1-3.8,6.3-7.8,6.3c-17,0.1-34,0.3-50.9-0.1c-2.8-0.1-6.7-2.3-8-4.6
		c-2.8-5.4-4.6-11.5-6.2-17.5C2246.1,221.8,2246.7,218.7,2246.7,214.1z"/>
	<path class="st0" d="M2203.4,273.1c2.2,7.2,3.9,12.6,5.3,17c6.6,5.6,13,10.7,18.9,16.2c2.9,2.7,3.6,19.1,1.3,22
		c-1.1,1.3-3.3,2.3-5,2.3c-6,0-10.4-3.5-12.3-9.8c-2.1-6.9-3.4-14.2-6-20.9c-2.4-6.3-6.1-12.2-9.4-18.6c-3.4-1.1-7-2.2-10.7-3.4
		c0-0.5,0.1-1,0.1-1.5C2191.4,275.4,2197.2,274.3,2203.4,273.1z"/>
	<path class="st0" d="M2046.1,248.6c2,1.9,4,3.7,6.8,6.3c-6,2-10.5,3.5-15.1,5c0,0,0.3,0.2,0.3,0.2c-2.1-1.9-4.2-3.7-6.8-6
		c0.3-2.3,0.7-5.1,1.1-7.9l-0.3,0.3c3,0.9,6,2,9.1,2.5c1.6,0.3,3.4-0.4,5.1-0.7C2046.3,248.3,2046.1,248.6,2046.1,248.6z"/>
	<path class="st0" d="M2166,340.7c5.1-3,7.4-10.2,16-9.2c0.9,3.8,1.7,7.4,2.9,12.7c-4.3-0.3-7.4-0.7-10.4-0.8c-2.6-0.1-5.2,0-7.7,0
		C2166.5,342.5,2166.2,341.6,2166,340.7z"/>
	<path class="st0" d="M2032.3,238.5c2.1-3,4.1-5.9,6.4-9.2c2.4-0.3,5.2-0.6,8.3-1c0.1,1.3,0.4,2.3,0.1,3.1c-0.8,1.9-3,5.1-2.7,5.3
		c4.5,3.5,1.3,8,1.7,12c0,0,0.2-0.3,0.2-0.3c-4.8-3.4-9.5-6.8-14.3-10.2L2032.3,238.5z"/>
	<path class="st0" d="M2205.1,368.9c-3.1-1.7-5.2-2.3-6.5-3.7c-3.3-3.6-6.1-7.8-9.4-11.5c-3.8-4.2-1.3-6.9,1.3-9.9
		c1.2,0.6,2.3,0.9,2.3,1.1c-1.3,8.1,3.3,13.1,9,17.5c1,0.8,1.7,2,2.5,3C2204.6,365.7,2204.5,366.1,2205.1,368.9z"/>
	<path class="st0" d="M2079.3,299.1c3.2-1.3,7-2.4,8,2c0.9,3.7,2,8.8-3.8,10.3c-7.7-2.4-3.8-8-3.9-12.5
		C2079.6,298.8,2079.3,299.1,2079.3,299.1z"/>
	<path class="st0" d="M2032.4,246.2c-2.9,0.5-5.8,1-9.2,1.6c-1.2-2.3-2.3-4.6-4.2-8.4c5.3-0.4,9.3-0.6,13.3-0.9c0,0-0.3-0.4-0.3-0.4
		c-0.9,2.8-2.9,5.6,0,8.4L2032.4,246.2z"/>
	<path class="st0" d="M2049.7,81.9c3-1.6,4.8-2.6,7.4-4c0,3.8,0,6.5,0,11.2C2054.1,86.2,2052.3,84.4,2049.7,81.9z"/>
	<path class="st0" d="M2024.9,130.2c-3.6-3.5-7.3-6.9-11.8-11.2C2020.8,119.9,2023,121.8,2024.9,130.2z"/>
	<path class="st0" d="M2171.7,289.5c4,5.6,4.5,9-1.5,11.6C2167.7,296.6,2169.8,293.8,2171.7,289.5z"/>
	<path class="st0" d="M2160.9,92.4c-2.2,1.8-3.5,3.8-4.8,3.8c-1.2,0.1-2.6-2-3.8-3.1c1.3-1.2,2.5-2.8,4-3.3
		C2157.2,89.7,2158.7,91.2,2160.9,92.4z"/>
	<path class="st0" d="M2149.7,321.4c2.3,1.1,4.6,2.3,7.9,3.8c-1.5,1.7-2.7,3.9-3.7,3.8c-1.4-0.1-3.2-1.7-3.9-3.1
		C2149.3,324.8,2149.8,322.9,2149.7,321.4C2149.8,321.4,2149.7,321.4,2149.7,321.4z"/>
	<path class="st0" d="M941.4,250c3.9,4,6,6.4,5.6,11.2C942.7,258.8,940.4,256.6,941.4,250z"/>
	<path class="st0" d="M967.4,341.5c0.5,4.9-1.3,6.8-6,6c1-1.6,1.4-2.8,2.3-3.6C964.8,342.9,966.2,342.2,967.4,341.5z"/>
	<path class="st0" d="M2050.9,271.7c0.5,1.7,0.9,3.3,1.4,5c-0.5,0.2-1,0.5-1.5,0.7c-0.9-1.6-1.8-3.2-2.7-4.9
		C2049.1,272.3,2050,272,2050.9,271.7z"/>
	<path class="st0" d="M2001.2,129c0.3,1.8,0.7,3.7,0.8,5.5c0,0.2-2.4,0.8-2.4,0.7c-0.7-1.8-1.3-3.7-1.8-5.6
		C1998.9,129.4,2000.1,129.2,2001.2,129z"/>
	<path class="st0" d="M960.7,243.3c1.1,2.2,2.2,4.4,3.3,6.5c-0.5,0.3-0.9,0.6-1.4,0.8c-1.4-2-2.9-3.9-4.3-5.9
		C959.1,244.3,959.9,243.8,960.7,243.3z"/>
	<path class="st0" d="M2287.5,302.8c2.2,0.2,4.4,0.3,6.8,0.5c-0.4,1.5-0.4,2.3-0.7,2.6c-2.6,1.9-4.5,0.8-6.4-0.8
		C2287.3,304.3,2287.4,303.6,2287.5,302.8z"/>
	<path class="st0" d="M2173.2,316.2c-1.5,1.4-2.3,2.7-3.1,2.7c-1-0.1-2.2-1.2-2.6-2.1c-0.2-0.6,1.1-2.2,1.9-2.4
		C2170.3,314.3,2171.4,315.3,2173.2,316.2z"/>
	<path class="st0" d="M2195.6,379.3c1.9-1.7,3.7-3.3,5.6-5c0.5,0.5,1.1,1.1,1.6,1.6c-1.7,1.8-3.5,3.5-5.2,5.3
		C2196.9,380.6,2196.2,380,2195.6,379.3z"/>
	<path class="st0" d="M2174.6,280.8c-3.1,2.5-3.9,3.2-4.8,4c-0.7-0.9-2-1.9-1.9-2.7c0.1-1,1.3-2.2,2.3-2.5
		C2171.2,279.4,2172.5,280.2,2174.6,280.8z"/>
	<path class="st0" d="M2092.5,108.7c0-1.8,0-3.6,0-5.5c0.6-0.1,1.2-0.2,1.8-0.2c0.3,1.8,0.5,3.6,0.8,5.4
		C2094.2,108.5,2093.3,108.6,2092.5,108.7z"/>
	<path class="st0" d="M2037.7,270c-1.2-3.3-6.2-6.8,0.3-9.9c0,0-0.3-0.2-0.3-0.2C2037.7,263.3,2037.7,266.6,2037.7,270
		C2037.7,270,2037.7,270,2037.7,270z"/>
	<path class="st0" d="M2242.9,290.1c0.6,1.7,1.4,2.9,1.2,3.8c-0.2,0.8-1.5,1.3-2.4,1.9c-0.4-1.1-1.2-2.2-1.2-3.4
		C2240.4,291.9,2241.6,291.3,2242.9,290.1z"/>
	<path class="st0" d="M2170.6,140.7c3.3,2.5,4.5,4.8,1.3,7.4c-0.7,0.5-2.7,0.4-3.3-0.2C2166,145.1,2167,142.8,2170.6,140.7z"/>
	<path class="st0" d="M2147,195.3c2.4-1.3,3.9-2.4,5.6-2.9c0.3-0.1,2,2.5,1.8,2.6c-1.2,1.2-2.6,2.4-4.2,3
		C2149.7,198.2,2148.6,196.6,2147,195.3z"/>
	<path class="st0" d="M2147.2,175.2c4.1-2.4,7.3-0.3,11,2.6c-4.9,2.1-7.6-1.3-10.7-2.8C2147.4,174.9,2147.2,175.2,2147.2,175.2z"/>
</g>
</svg>
