<?xml version="1.0" encoding="utf-8"?>
<!-- Generator: Adobe Illustrator 19.1.0, SVG Export Plug-In . SVG Version: 6.00 Build 0)  -->
<svg version="1.1" id="Layer_1" xmlns="http://www.w3.org/2000/svg" xmlns:xlink="http://www.w3.org/1999/xlink" x="0px" y="0px"
	 viewBox="194 -104 1000 1000" style="enable-background:new 194 -104 1000 1000;" xml:space="preserve">
<style type="text/css">
	.st0{fill:url(#SVGID_1_);}
</style>
<g>
	<linearGradient id="SVGID_1_" gradientUnits="userSpaceOnUse" x1="694" y1="-61.1" x2="694" y2="851.2001">
		<stop  offset="0" style="stop-color:#E87C1E"/>
		<stop  offset="1" style="stop-color:#FFFFFF"/>
	</linearGradient>
	<path class="st0" d="M1194-61.1c0,253.9,0,507.9,0,761.8c-14.2,5.2-28.3,10.4-42.4,15.7c-75,27.7-150,55.3-225,83.1
		c-24.5,9.1-49,18.2-73.3,27.7c-5.8,2.2-11,3.3-16.5,0c-1.1-0.6-2.4-0.8-3.7-1.3c-15.5-5.9-30.9-11.8-46.5-17.6
		c-79.1-29.9-158.3-59.8-237.4-89.6c-1.1-0.4-2.7-0.5-3.9,0c-58.3,21.9-116.5,43.7-174.8,65.7c-46.6,17.6-93.2,35.3-139.8,53
		c-12.2,4.6-24.5,9.2-36.7,13.8c0-254.3,0-508.5,0-762.8c0.2,0,0.5-0.1,0.7-0.1c24.9-9.6,49.8-19.1,74.7-28.6
		c10-3.8,20.1-7.6,30.1-11.3C348.7,30,397.9,11.7,447.1-6.7c33.3-12.5,66.6-25.2,99.9-37.8c1.4-0.5,3.2-0.5,4.6,0
		c16.3,5.9,32.6,12,48.8,18c11.7,4.3,23.4,8.7,35.1,13.1c70.1,26.3,140.2,52.5,210.3,78.7c1.1,0.4,2.5,0.4,3.7,0
		c3.3-1,6.6-2.3,9.9-3.6c100.6-36.9,201.3-73.8,302-110.8C1172.2-53.2,1183.1-57.1,1194-61.1z M815.3,741.9c0-1.2,0-2.1,0-3
		c0-202,0-404.1,0-606.1c0-2-0.6-2.8-2.4-3.5C737.4,101.1,662,72.9,586.6,44.7c-4.6-1.7-9.2-3.5-14.2-5.3c0,1.6,0,2.7,0,4
		c0,201,0,402,0,602.9c0,4.8-0.8,3.6,3.6,5.3c68.7,26,137.4,51.9,206.1,77.9C793.2,733.5,804.1,737.6,815.3,741.9z M886.8,738.1
		c1.3-0.4,2.1-0.7,2.9-1c76.7-28.4,153.5-56.8,230.3-85.1c2-0.7,2.6-1.7,2.6-3.8c-0.1-32.2,0-64.4,0-96.6c0-169.4,0-338.7,0-508
		c0-1,0-2,0-3.2c-1.5,0.5-2.5,0.8-3.5,1.2c-54.7,20.1-109.4,40.1-164.1,60.2c-21.9,8-43.7,16.1-65.6,24c-2,0.7-2.8,1.7-2.5,3.7
		c0.1,0.5,0,1,0,1.5c0,201,0,402,0,602.9C886.8,735.1,886.8,736.4,886.8,738.1z M501.1,49c-1.2,0.4-2,0.6-2.8,0.9
		c-17.6,6.6-35.3,13.2-52.9,19.9c-59,22.1-118,44.3-177,66.3c-2.2,0.8-2.8,1.9-2.8,4.2c0,16.2-0.1,32.4-0.1,48.6
		c0,167.9,0.1,335.8,0.1,503.7c0,17.2,0,34.5,0,51.7c0,0.9,0,1.9,0,3c1.1-0.3,1.8-0.5,2.4-0.8c76.7-29,153.4-58.1,230.1-87.1
		c2.2-0.8,3.1-1.7,3.1-4.2c-0.1-201.1,0-402.1,0-603.2C501.1,51,501.1,50.1,501.1,49z"/>
</g>
</svg>
