<?xml version="1.0" encoding="utf-8"?>
<!-- Generator: Adobe Illustrator 19.1.0, SVG Export Plug-In . SVG Version: 6.00 Build 0)  -->
<svg version="1.1" id="Layer_1" xmlns="http://www.w3.org/2000/svg" xmlns:xlink="http://www.w3.org/1999/xlink" x="0px" y="0px"
	 viewBox="194 -104 1000 1000" style="enable-background:new 194 -104 1000 1000;" xml:space="preserve">
<style type="text/css">
	.st0{fill:url(#SVGID_1_);}
</style>
<g>
	<linearGradient id="SVGID_1_" gradientUnits="userSpaceOnUse" x1="693.033" y1="-87.6179" x2="693.033" y2="873.625">
		<stop  offset="0" style="stop-color:#E87C1E"/>
		<stop  offset="1" style="stop-color:#FFFFFF"/>
	</linearGradient>
	<path class="st0" d="M691.9,755c-19.4,31-38.1,61.4-57.6,91.7c-23,35.9-46.8,35.9-69.1,0c-31.7-52.4-61.9-106.2-95-157.9
		c-9.4-14.5-25.2-27.6-41-34.5c-66.9-27.6-136-51.7-203-79.3c-13.7-5.5-31.7-18.6-33.1-30.3c-1.4-11,12.2-29,24.5-36.6
		C522.1,312.2,827.3,117,1132.5-76.8c13-8.3,39.6-14.5,46.8-8.3c10.8,9,15.8,31.7,13,46.9c-47.6,280.7-97.3,561.4-146.2,842.1
		c-1.4,10.3-3.6,20.7-5.8,30.3c-7.2,37.9-22.3,45.5-60.5,31c-90-34.5-180-69-269.9-104.1C705.6,759.8,699.9,758.4,691.9,755z
		 M1104.4,98.4c-2.2-0.7-4.3-2.1-6.5-2.8c-133.2,198-266.3,395.9-400.2,595.2c95.7,36.6,187.9,71.7,284.3,109
		C1023.8,563.2,1064.1,330.8,1104.4,98.4z M996.4,89.4c-0.7-1.4-2.2-3.4-2.9-4.8C761,233.6,529.3,381.8,291.7,534.3
		c69.8,26.9,132.4,51,197.9,76.6C658.1,437,827.3,263.2,996.4,89.4z M599.1,779.1c161.2-240.7,319.6-478.6,478.7-715.9
		c-75.6,66.9-145.4,138.6-214.5,209.7C753.1,386,642.3,499.1,532.9,613.6c-7.9,8.3-15.1,25.5-11.5,33.1
		C544.4,690.1,571,732.2,599.1,779.1z"/>
</g>
</svg>
