<?xml version="1.0" encoding="utf-8"?>
<!-- Generator: Adobe Illustrator 19.1.0, SVG Export Plug-In . SVG Version: 6.00 Build 0)  -->
<svg version="1.1" id="Layer_1" xmlns="http://www.w3.org/2000/svg" xmlns:xlink="http://www.w3.org/1999/xlink" x="0px" y="0px"
	 viewBox="969 -464 1000.1 961.2" style="enable-background:new 969 -464 1000.1 961.2;" xml:space="preserve">
<style type="text/css">
	.st0{fill:url(#SVGID_1_);}
</style>
<g>
	
		<linearGradient id="SVGID_1_" gradientUnits="userSpaceOnUse" x1="1469.0331" y1="-465.6179" x2="1469.0331" y2="495.625" gradientTransform="matrix(1 0 0 1 0 1.5999)">
		<stop  offset="0.2" style="stop-color:#000000"/>
		<stop  offset="0.8" style="stop-color:#FFFFFF"/>
	</linearGradient>
	<path class="st0" d="M1467.9,378.6c-19.4,31-38.1,61.4-57.6,91.7c-23,35.9-46.8,35.9-69.1,0c-31.7-52.4-61.9-106.2-95-157.9
		c-9.4-14.5-25.2-27.6-41-34.5c-66.9-27.6-136-51.7-203-79.3c-13.7-5.5-31.7-18.6-33.1-30.3c-1.4-11,12.2-29,24.5-36.6
		c304.5-195.9,609.7-391.1,914.9-584.9c13-8.3,39.6-14.5,46.8-8.3c10.8,9,15.8,31.7,13,46.9c-47.6,280.7-97.3,561.4-146.2,842.1
		c-1.4,10.3-3.6,20.7-5.8,30.3c-7.2,37.9-22.3,45.5-60.5,31c-90-34.5-180-69-269.9-104.1C1481.6,383.4,1475.9,382,1467.9,378.6z
		 M1880.4-278c-2.2-0.7-4.3-2.1-6.5-2.8c-133.2,198-266.3,395.9-400.2,595.2c95.7,36.6,187.9,71.7,284.3,109
		C1799.8,186.8,1840.1-45.6,1880.4-278z M1772.4-287c-0.7-1.4-2.2-3.4-2.9-4.8c-232.5,149-464.2,297.2-701.8,449.7
		c69.8,26.9,132.4,51,197.9,76.6C1434.1,60.6,1603.3-113.2,1772.4-287z M1375.1,402.7c161.2-240.7,319.6-478.6,478.7-715.9
		c-75.6,66.9-145.4,138.6-214.5,209.7c-110.2,113.1-221,226.2-330.4,340.7c-7.9,8.3-15.1,25.5-11.5,33.1
		C1320.4,313.7,1347,355.8,1375.1,402.7z"/>
</g>
</svg>
