<?xml version="1.0" encoding="utf-8"?>
<!-- Generator: Adobe Illustrator 19.0.1, SVG Export Plug-In . SVG Version: 6.00 Build 0)  -->
<svg version="1.1" id="Layer_1" xmlns="http://www.w3.org/2000/svg" xmlns:xlink="http://www.w3.org/1999/xlink" x="0px" y="0px"
	 viewBox="0 0 1000 1000" style="enable-background:new 0 0 1000 1000;" xml:space="preserve">
<style type="text/css">
	.st0{fill:#FFFFFF;}
</style>
<g>
	<path class="st0" d="M498.9,862c-19.4,31-38.1,61.4-57.6,91.7c-23,35.9-46.8,35.9-69.1,0c-31.7-52.4-61.9-106.2-95-157.9
		c-9.4-14.5-25.2-27.6-41-34.5c-66.9-27.6-136-51.7-203-79.3c-13.7-5.5-31.7-18.6-33.1-30.3c-1.4-11,12.2-29,24.5-36.6
		C329.1,419.2,634.3,224,939.5,30.2c13-8.3,39.6-14.5,46.8-8.3c10.8,9,15.8,31.7,13,46.9C951.7,349.5,902,630.2,853.1,910.9
		c-1.4,10.3-3.6,20.7-5.8,30.3c-7.2,37.9-22.3,45.5-60.5,31c-90-34.5-180-69-269.9-104.1C512.6,866.8,506.9,865.4,498.9,862z
		 M911.4,205.4c-2.2-0.7-4.3-2.1-6.5-2.8C771.7,400.6,638.6,598.5,504.7,797.8c95.7,36.6,187.9,71.7,284.3,109
		C830.8,670.2,871.1,437.8,911.4,205.4z M803.4,196.4c-0.7-1.4-2.2-3.4-2.9-4.8C568,340.6,336.3,488.8,98.7,641.3
		c69.8,26.9,132.4,51,197.9,76.6C465.1,544,634.3,370.2,803.4,196.4z M406.1,886.1c161.2-240.7,319.6-478.6,478.7-715.9
		c-75.6,66.9-145.4,138.6-214.5,209.7C560.1,493,449.3,606.1,339.9,720.6c-7.9,8.3-15.1,25.5-11.5,33.1
		C351.4,797.1,378,839.2,406.1,886.1z"/>
</g>
</svg>
