<?xml version="1.0" encoding="utf-8"?>
<!-- Generator: Adobe Illustrator 19.1.0, SVG Export Plug-In . SVG Version: 6.00 Build 0)  -->
<svg version="1.1" id="Layer_1" xmlns="http://www.w3.org/2000/svg" xmlns:xlink="http://www.w3.org/1999/xlink" x="0px" y="0px"
	 viewBox="581 -188 1000 749.9" style="enable-background:new 581 -188 1000 749.9;" xml:space="preserve">
<style type="text/css">
	.st0{fill:url(#SVGID_1_);}
</style>
<g>
	<linearGradient id="SVGID_1_" gradientUnits="userSpaceOnUse" x1="1081" y1="-188" x2="1081" y2="561.9004">
		<stop  offset="0.2" style="stop-color:#000000"/>
		<stop  offset="0.8" style="stop-color:#FFFFFF"/>
	</linearGradient>
	<path class="st0" d="M1081.7-188c140.7,0,280.7,0,421.4,0c56.4,0,77.9,21.4,77.9,77.1c0,198.6,0,397.1,0,596.4
		c0,55.7-21.4,76.4-77.9,76.4c-282.1,0-564.3,0-846.4,0C601,562,581,542,581,487c0-200,0-400,0-600c0-54.3,20.7-75,75.7-75
		C798.1-188,939.6-188,1081.7-188z M709.6,433.4c248.6,0,495,0,742.1,0c0-142.9,0-283.6,0-428.6C1326,109.9,1203.9,211.3,1081,314.1
		C956.7,209.8,834.6,108.4,709.6,4.1C709.6,149.9,709.6,290.6,709.6,433.4z M1384.6-58c-206.4,0-405,0-609.3,0
		c105,84.3,205,164.3,305,244.3C1182.4,104.1,1281,24.9,1384.6-58z"/>
</g>
</svg>
