<?xml version="1.0" encoding="utf-8"?>
<!-- Generator: Adobe Illustrator 19.0.1, SVG Export Plug-In . SVG Version: 6.00 Build 0)  -->
<svg version="1.1" id="Layer_1" xmlns="http://www.w3.org/2000/svg" xmlns:xlink="http://www.w3.org/1999/xlink" x="0px" y="0px"
	 viewBox="0 0 1000 1000" style="enable-background:new 0 0 1000 1000;" xml:space="preserve">
<style type="text/css">
	.st0{fill:#E77C24;}
</style>
<g>
	<path class="st0" d="M500.7,125c140.7,0,280.7,0,421.4,0c56.4,0,77.9,21.4,77.9,77.1c0,198.6,0,397.1,0,596.4
		c0,55.7-21.4,76.4-77.9,76.4c-282.1,0-564.3,0-846.4,0C20,875,0,855,0,800c0-200,0-400,0-600c0-54.3,20.7-75,75.7-75
		C217.1,125,358.6,125,500.7,125z M128.6,746.4c248.6,0,495,0,742.1,0c0-142.9,0-283.6,0-428.6C745,422.9,622.9,524.3,500,627.1
		c-124.3-104.3-246.4-205.7-371.4-310C128.6,462.9,128.6,603.6,128.6,746.4z M803.6,255c-206.4,0-405,0-609.3,0
		c105,84.3,205,164.3,305,244.3C601.4,417.1,700,337.9,803.6,255z"/>
</g>
</svg>
