<?xml version="1.0" encoding="utf-8"?>
<!-- Generator: Adobe Illustrator 19.1.0, SVG Export Plug-In . SVG Version: 6.00 Build 0)  -->
<svg version="1.1" id="Layer_1" xmlns="http://www.w3.org/2000/svg" xmlns:xlink="http://www.w3.org/1999/xlink" x="0px" y="0px"
	 viewBox="194 -104 1000 1000" style="enable-background:new 194 -104 1000 1000;" xml:space="preserve">
<style type="text/css">
	.st0{fill:url(#SVGID_1_);}
</style>
<g>
	<linearGradient id="SVGID_1_" gradientUnits="userSpaceOnUse" x1="693" y1="20" x2="693" y2="769.9004">
		<stop  offset="0" style="stop-color:#E87C1E"/>
		<stop  offset="1" style="stop-color:#FFFFFF"/>
	</linearGradient>
	<path class="st0" d="M693.7,20c140.7,0,280.7,0,421.4,0c56.4,0,77.9,21.4,77.9,77.1c0,198.6,0,397.1,0,596.4
		c0,55.7-21.4,76.4-77.9,76.4c-282.1,0-564.3,0-846.4,0C213,770,193,750,193,695c0-200,0-400,0-600c0-54.3,20.7-75,75.7-75
		C410.1,20,551.6,20,693.7,20z M321.6,641.4c248.6,0,495,0,742.1,0c0-142.9,0-283.6,0-428.6C938,317.9,815.9,419.3,693,522.1
		c-124.3-104.3-246.4-205.7-371.4-310C321.6,357.9,321.6,498.6,321.6,641.4z M996.6,150c-206.4,0-405,0-609.3,0
		c105,84.3,205,164.3,305,244.3C794.4,312.1,893,232.9,996.6,150z"/>
</g>
</svg>
