<?xml version="1.0" encoding="utf-8"?>
<!-- Generator: Adobe Illustrator 19.1.0, SVG Export Plug-In . SVG Version: 6.00 Build 0)  -->
<svg version="1.1" id="Layer_1" xmlns="http://www.w3.org/2000/svg" xmlns:xlink="http://www.w3.org/1999/xlink" x="0px" y="0px"
	 viewBox="969 -360 1000 753.3" style="enable-background:new 969 -360 1000 753.3;" xml:space="preserve">
<style type="text/css">
	.st0{fill:url(#SVGID_1_);}
</style>
<g id="_x35_Povl8.tif">
	<g>
		
			<linearGradient id="SVGID_1_" gradientUnits="userSpaceOnUse" x1="1469" y1="-367" x2="1469" y2="386.3" gradientTransform="matrix(1 0 0 1 0 6.9999)">
			<stop  offset="0.2" style="stop-color:#000000"/>
			<stop  offset="0.8" style="stop-color:#FFFFFF"/>
		</linearGradient>
		<path class="st0" d="M1969,393.3V-360H969v753.3H1969z M1089,319.9c86.7-86.7,166.7-173.3,253.3-260
			c13.3,13.3,33.3,33.3,46.7,46.7c33.3,33.3,73.3,40,113.3,26.7c20-6.7,33.3-20,53.3-26.7c13.3-13.3,26.7-33.3,46.7-46.7
			c86.7,86.7,166.7,173.3,253.3,260H1089L1089,319.9z M1895.7,266.6C1809,179.9,1729,93.3,1649,13.3
			c86.7-80,166.7-166.7,246.7-246.7V266.6z M1855.7-293.4c-6.7,6.7-6.7,13.3-13.3,13.3c-113.3,113.3-220,220-333.3,333.3
			c-26.7,26.7-53.3,26.7-80,0c-106.7-113.3-220-220-326.7-333.3c-6.7-6.7-6.7-6.7-13.3-13.3H1855.7z M1042.4-233.4
			c80,80,166.7,160,253.3,246.7c-86.7,86.7-166.7,173.3-253.3,260L1042.4-233.4L1042.4-233.4z"/>
	</g>
</g>
</svg>
