<?xml version="1.0" encoding="utf-8"?>
<!-- Generator: Adobe Illustrator 19.1.0, SVG Export Plug-In . SVG Version: 6.00 Build 0)  -->
<svg version="1.1" id="Layer_1" xmlns="http://www.w3.org/2000/svg" xmlns:xlink="http://www.w3.org/1999/xlink" x="0px" y="0px"
	 viewBox="775 -379.8 1000.1 961.2" style="enable-background:new 775 -379.8 1000.1 961.2;" xml:space="preserve">
<style type="text/css">
	.st0{fill:url(#SVGID_1_);}
</style>
<g id="_x35_Povl8.tif">
	<g>
		<linearGradient id="SVGID_1_" gradientUnits="userSpaceOnUse" x1="1275.0331" y1="-275.8647" x2="1275.0331" y2="477.4719">
			<stop  offset="0.2" style="stop-color:#E87C1E"/>
			<stop  offset="0.8" style="stop-color:#FFFFFF"/>
		</linearGradient>
		<path class="st0" d="M1775,477.5v-753.3H775v753.3H1775z M895,404.1c86.7-86.7,166.7-173.3,253.3-260
			c13.3,13.3,33.3,33.3,46.7,46.7c33.3,33.3,73.3,40,113.3,26.7c20-6.7,33.3-20,53.3-26.7c13.3-13.3,26.7-33.3,46.7-46.7
			c86.7,86.7,166.7,173.3,253.3,260H895L895,404.1z M1701.7,350.8C1615,264.1,1535,177.5,1455,97.5c86.7-80,166.7-166.7,246.7-246.7
			V350.8z M1661.7-209.2c-6.7,6.7-6.7,13.3-13.3,13.3c-113.3,113.3-220,220-333.3,333.3c-26.7,26.7-53.3,26.7-80,0
			c-106.7-113.3-220-220-326.7-333.3c-6.7-6.7-6.7-6.7-13.3-13.3H1661.7z M848.4-149.2c80,80,166.7,160,253.3,246.7
			c-86.7,86.7-166.7,173.3-253.3,260V-149.2z"/>
	</g>
</g>
</svg>
