<?xml version="1.0" encoding="utf-8"?>
<!-- Generator: Adobe Illustrator 19.0.1, SVG Export Plug-In . SVG Version: 6.00 Build 0)  -->
<svg version="1.1" id="Layer_1" xmlns="http://www.w3.org/2000/svg" xmlns:xlink="http://www.w3.org/1999/xlink" x="0px" y="0px"
	 viewBox="53.4 277.5 307.2 238.9" style="enable-background:new 53.4 277.5 307.2 238.9;" xml:space="preserve">
<style type="text/css">
	.st0{fill:#FFFFFF;}
</style>
<g>
	<path class="st0" d="M70.5,414.1h273.1c9.4,0,17.1-7.6,17.1-17.1c0-9.4-7.6-17.1-17.1-17.1H70.5c-9.4,0-17.1,7.6-17.1,17.1
		S61.1,414.1,70.5,414.1z M70.5,311.7h273.1c9.4,0,17.1-7.6,17.1-17.1c0-9.4-7.6-17.1-17.1-17.1H70.5c-9.4,0-17.1,7.6-17.1,17.1
		C53.4,304,61.1,311.7,70.5,311.7z M70.5,516.5h273.1c9.4,0,17.1-7.6,17.1-17.1c0-9.4-7.6-17.1-17.1-17.1H70.5
		c-9.4,0-17.1,7.7-17.1,17.1C53.4,508.8,61.1,516.5,70.5,516.5z"/>
</g>
</svg>
