<?xml version="1.0" encoding="utf-8"?>
<!-- Generator: Adobe Illustrator 19.1.0, SVG Export Plug-In . SVG Version: 6.00 Build 0)  -->
<svg version="1.1" id="Layer_1" xmlns="http://www.w3.org/2000/svg" xmlns:xlink="http://www.w3.org/1999/xlink" x="0px" y="0px"
	 viewBox="-584 749 15 15" style="enable-background:new -584 749 15 15;" xml:space="preserve">
<style type="text/css">
	.st0{fill:#FFFFFF;}
</style>
<path class="st0" d="M-584,764h7.5v-15h-7.5V764z M-579.3,750.9h1.9v1.9h-1.9V750.9z M-579.3,754.6h1.9v1.9h-1.9V754.6z
	 M-579.3,758.4h1.9v1.9h-1.9V758.4z M-583.1,750.9h1.9v1.9h-1.9V750.9z M-583.1,754.6h1.9v1.9h-1.9V754.6z M-583.1,758.4h1.9v1.9
	h-1.9V758.4z M-575.6,753.7h6.6v0.9h-6.6V753.7z M-575.6,764h1.9v-3.7h2.8v3.7h1.9v-8.4h-6.6V764z"/>
</svg>
