<?xml version="1.0" encoding="utf-8"?>
<!-- Generator: Adobe Illustrator 19.1.0, SVG Export Plug-In . SVG Version: 6.00 Build 0)  -->
<svg version="1.1" id="Layer_1" xmlns="http://www.w3.org/2000/svg" xmlns:xlink="http://www.w3.org/1999/xlink" x="0px" y="0px"
	 viewBox="582 -187.9 1000 751.8" style="enable-background:new 582 -187.9 1000 751.8;" xml:space="preserve">
<style type="text/css">
	.st0{fill:url(#SVGID_1_);}
</style>
<linearGradient id="SVGID_1_" gradientUnits="userSpaceOnUse" x1="1082" y1="-187.9" x2="1082" y2="563.9">
	<stop  offset="0.2" style="stop-color:#000000"/>
	<stop  offset="0.8" style="stop-color:#FFFFFF"/>
</linearGradient>
<path class="st0" d="M710.4,433.3c0-102.3,0-201,0-302.6c100.9,0,201.7,0,304.8,0c0,100.1,0,199.6,0,302.6
	C914.4,433.3,814.2,433.3,710.4,433.3z M1328,0.8c0,20.3,0,36.3,0,55.9c-206.1,0-410.7,0-616.8,0c0-18.9,0-36.3,0-55.9
	C917.3,0.8,1121.2,0.8,1328,0.8z M1327.3,184.4c-81.3,0-161.1,0-243.1,0c0-18.9,0-34.8,0-54.4c80.6,0,160.4,0,243.1,0
	C1327.3,148.1,1327.3,164.8,1327.3,184.4z M1084.9,307.7c0-19.6,0-35.6,0-53.7c82,0,161.8,0,243.1,0c0,18.1,0,34.8,0,53.7
	C1247.5,307.7,1167.6,307.7,1084.9,307.7z M1268.5,378.9c0,18.9,0,34.8,0,54.4c-60.2,0-119.7,0-182.9,0c0-16.7,0-34.1,0-54.4
	C1144.4,378.9,1204.6,378.9,1268.5,378.9z M1452.8-60.2c0-42.8,0-85.6,0-127.7c-287.4,0-569.7,0-854.9,0c-4.4,0-8.7,0-13.1,0H582
	v30.5c0,216.3,0,433.2,0,649.5c0,49.3,26.1,71.8,79.1,71.8c270.7,0,541.4,0,812,0c71.8,0,108.9-37.7,108.9-109.6
	c0-159.7,0-319.3,0-479c0-10.9,0-22.5,0-35.6C1539.9-60.2,1493.5-60.2,1452.8-60.2z M1357,505.9c-226.4-1.5-452.1-1.5-678.5,0
	c-31.2,0-38.5-10.2-38.5-39.9c1.5-185.1,0.7-370.1,0-555.9c0-0.7,0-2.2,0-2.9c0-26.9,5.1-38.5,35.6-38.5c21,0,41.4,0,62.4,0
	c208.3,1.5,415.8,1.5,623.4,1.5c4.4,0,8.7,0,13.1,0.7c18.1,2.9,22.5,13.8,22.5,34.8c0,1.5,0,3.6,0,5.1c0,185.1-0.7,370.1,0.7,555.2
	C1398.4,498.6,1388.2,505.9,1357,505.9z"/>
</svg>
