<?xml version="1.0" encoding="utf-8"?>
<!-- Generator: Adobe Illustrator 19.1.0, SVG Export Plug-In . SVG Version: 6.00 Build 0)  -->
<svg version="1.1" id="Layer_1" xmlns="http://www.w3.org/2000/svg" xmlns:xlink="http://www.w3.org/1999/xlink" x="0px" y="0px"
	 viewBox="194 -104 1000 1000" style="enable-background:new 194 -104 1000 1000;" xml:space="preserve">
<style type="text/css">
	.st0{fill:url(#SVGID_1_);}
</style>
<linearGradient id="SVGID_1_" gradientUnits="userSpaceOnUse" x1="694" y1="20.1" x2="694" y2="771.9">
	<stop  offset="0" style="stop-color:#E87C1E"/>
	<stop  offset="1" style="stop-color:#FFFFFF"/>
</linearGradient>
<path class="st0" d="M322.4,641.3c0-102.3,0-201,0-302.6c100.9,0,201.7,0,304.8,0c0,100.1,0,199.6,0,302.6
	C526.4,641.3,426.2,641.3,322.4,641.3z M940,208.8c0,20.3,0,36.3,0,55.9c-206.1,0-410.7,0-616.8,0c0-18.9,0-36.3,0-55.9
	C529.3,208.8,733.2,208.8,940,208.8z M939.3,392.4c-81.3,0-161.1,0-243.1,0c0-18.9,0-34.8,0-54.4c80.6,0,160.4,0,243.1,0
	C939.3,356.1,939.3,372.8,939.3,392.4z M696.9,515.7c0-19.6,0-35.6,0-53.7c82,0,161.8,0,243.1,0c0,18.1,0,34.8,0,53.7
	C859.5,515.7,779.6,515.7,696.9,515.7z M880.5,586.9c0,18.9,0,34.8,0,54.4c-60.2,0-119.7,0-182.9,0c0-16.7,0-34.1,0-54.4
	C756.4,586.9,816.6,586.9,880.5,586.9z M1064.8,147.8c0-42.8,0-85.6,0-127.7c-287.4,0-569.7,0-854.9,0c-4.4,0-8.7,0-13.1,0H194v30.5
	c0,216.3,0,433.2,0,649.5c0,49.3,26.1,71.8,79.1,71.8c270.7,0,541.4,0,812,0c71.8,0,108.9-37.7,108.9-109.6c0-159.7,0-319.3,0-479
	c0-10.9,0-22.5,0-35.6C1151.9,147.8,1105.5,147.8,1064.8,147.8z M969,713.9c-226.4-1.5-452.1-1.5-678.5,0
	c-31.2,0-38.5-10.2-38.5-39.9c1.5-185.1,0.7-370.1,0-555.9c0-0.7,0-2.2,0-2.9c0-26.9,5.1-38.5,35.6-38.5c21,0,41.4,0,62.4,0
	c208.3,1.5,415.8,1.5,623.4,1.5c4.4,0,8.7,0,13.1,0.7c18.1,2.9,22.5,13.8,22.5,34.8c0,1.5,0,3.6,0,5.1c0,185.1-0.7,370.1,0.7,555.2
	C1010.4,706.6,1000.2,713.9,969,713.9z"/>
</svg>
