<?xml version="1.0" encoding="utf-8"?>
<!-- Generator: Adobe Illustrator 19.1.0, SVG Export Plug-In . SVG Version: 6.00 Build 0)  -->
<svg version="1.1" id="Layer_1" xmlns="http://www.w3.org/2000/svg" xmlns:xlink="http://www.w3.org/1999/xlink" x="0px" y="0px"
	 viewBox="194 -104 1000 1000" style="enable-background:new 194 -104 1000 1000;" xml:space="preserve">
<style type="text/css">
	.st0{fill:url(#SVGID_1_);}
</style>
<g>
	<linearGradient id="SVGID_1_" gradientUnits="userSpaceOnUse" x1="694.0575" y1="-104.2556" x2="694.0575" y2="896">
		<stop  offset="0" style="stop-color:#E87C1E"/>
		<stop  offset="1" style="stop-color:#FFFFFF"/>
	</linearGradient>
	<path class="st0" d="M692.9,896c-57.9,0-115.5,0-173.4-0.2c-4.3,0-8.3-2.1-12.6-3.4c1.3-3.8,2.1-7.9,4.3-11.3
		c7.4-12.1,6.4-14.9-7.7-21.3c-68.9-31.1-130-73.2-181.2-129.3c-43.4-47.4-75.9-101.5-98.2-161.4c-19.1-51.3-29.4-104.7-30-160
		c-0.6-48.5,3.4-96.4,15.7-143.2c11.3-41.7,27.7-81.7,49.4-119.3C287.9,97,323.9,53.6,367,16.2c46.8-40.6,99.8-70.8,157.8-91.9
		c81-29.1,164.4-35.1,249.3-21.9C871.8-82.5,956.4-41,1029.4,25.6c46.6,42.5,85.1,91.5,113,147.8c32.3,65.1,49.8,134.6,51.5,207.6
		c1.3,52.1-4.7,103.2-19.4,153.4c-17.7,60.2-45.3,114.6-83.2,164.6C1040.9,765.8,976,814.3,902,851.5c-7.9,4-16.2,7-24.5,10
		c-6.6,2.3-8.1,6.2-5.1,12.1c0.6,1.3,1.3,2.6,1.9,3.8c9.1,18.5,9.1,18.5-12.3,18.5C805.6,896,749.3,896,692.9,896z M257.2,459.3
		c1.3,62.1,13.2,120.8,38.1,176.3c27.2,60.4,66.2,111.9,116.4,155.3c30.4,26.2,64.9,45.5,100.6,63c8.3,4,11.5-1.9,14-8.1
		c20.8-48.3,41.7-96.8,62.5-145.1c2.3-5.5,0.9-8.1-4.3-10.6c-18.7-9.1-37.9-17.9-55.5-28.5c-66.6-40.6-111.7-98.7-134.9-172.9
		c-14.5-46.4-18.3-93.8-9.8-142.7c10.4-60,34.9-112.7,75.3-157.8C509.8,132.3,571.5,97.4,647,86.9c38.5-5.3,76.8-5.3,114,3.4
		c84.4,19.6,151.5,65.3,197.8,139.5c27.2,43.6,43,91,46.4,142.9c3.8,59.3-6,115.9-34,168.3c-37.7,70.6-95.3,119.5-169.1,149.8
		c-2.3,1.1-5.3,7-4.3,9.4c10,24.2,20.6,48.1,31.1,71.9c10.6,24.2,21.5,48.5,31.5,73c4.7,11.3,5.7,12.3,16.4,7.7
		C945,822,1000.7,776.5,1044.7,716c39.1-53.6,64.7-112.7,77-177.6c16.2-84.7,6.6-167-25.5-247c-24.9-62.1-61.5-116.4-110.2-162.1
		c-49.1-45.9-105.3-79.6-170-99.6c-34.5-10.6-69.8-16.8-105.5-18.3c-57.9-2.3-114.2,7.4-168.7,28.1c-53.2,20.2-100,50.4-140.8,89.3
		c-58.7,55.5-100.2,122.3-124,200C264.3,371.9,258.5,415.7,257.2,459.3z M445.1,458.7c0.2,53,15.7,98.9,45.7,143.4
		c24.7,36.4,58.3,61.3,96.6,81c5.1,2.8,8.7,1.3,10.8-4.3c4.5-11.1,8.9-22.3,13.8-33.2c16-37,31.9-74,48.3-110.8
		c5.3-12.1,4.9-15.3-7.7-19.8c-49.8-17.9-87.6-66.4-84.2-124.7c3.4-56.8,37.2-102.1,95.1-116.1c40.8-10,80-1.7,113.6,26.8
		c46.6,39.6,56.6,115.1,21.7,164.9c-17,24.2-39.6,40.2-66.6,50.6c-7.9,3-10,6.6-6.2,15.1c10.8,23.4,20.4,47.4,30.8,71
		c10.8,25.3,21.9,50.6,33.2,75.7c1.3,2.6,7,6,8.7,5.1c13.4-7,27.2-13.8,39.6-22.5c48.5-34.9,80.8-81,95.9-139.5
		c16.2-63.4,7.7-123.6-20.4-181.7c-13.4-27.9-33.2-50.8-54.7-72.5c-64-65.1-165.9-85.9-250.4-52.1
		C510.2,253.8,445.1,353.8,445.1,458.7z M692.7,457.6c3.2,5.3,5.1,8.1,6.4,11.1c4.9,11.3,9.4,22.8,14.5,34
		c2.3,5.1,4.5,11.5,12.3,6.6c15.5-9.1,25.1-22.8,28.5-40.2c6.6-34.9-22.1-72.5-60.8-71.9c-25.3,0.4-50.6,15.5-57.4,39.4
		c-6.8,24.2-5.1,48.3,15.3,65.1c16,13.2,16.8,13,24.9-6.2C681.2,483.8,686.5,472.1,692.7,457.6z"/>
</g>
</svg>
