<?xml version="1.0" encoding="utf-8"?>
<!-- Generator: Adobe Illustrator 19.1.0, SVG Export Plug-In . SVG Version: 6.00 Build 0)  -->
<svg version="1.1" id="Layer_1" xmlns="http://www.w3.org/2000/svg" xmlns:xlink="http://www.w3.org/1999/xlink" x="0px" y="0px"
	 viewBox="194 -104 1000 1000" style="enable-background:new 194 -104 1000 1000;" xml:space="preserve">
<style type="text/css">
	.st0{fill:url(#SVGID_1_);}
</style>
<g>
	<linearGradient id="SVGID_1_" gradientUnits="userSpaceOnUse" x1="693.3503" y1="-103.9701" x2="693.3503" y2="895.9476">
		<stop  offset="0" style="stop-color:#E87C1E"/>
		<stop  offset="1" style="stop-color:#FFFFFF"/>
	</linearGradient>
	<path class="st0" d="M194,391.8c2.1-57.8,28.5-104.8,82-133.3c54.9-29.9,110.5-27.1,161.8,8.6c20.7,15,34.9,15,57,4.3
		C613.8,210,733.6,150.1,853.3,91c17.8-8.6,25.7-17.8,26.4-39.9c0.7-74.9,50.6-134.7,121.9-151.1c69.9-16.4,143.3,19.2,175.3,84.8
		c31.4,63.4,14.3,141.1-39.9,187.5c-55.6,47.8-132.6,50.6-193.9,5.7c-15.7-11.4-26.4-12.8-44.2-3.6C776.3,237.1,653,298.4,529.7,359
		c-17.8,8.6-27.8,19.2-21.4,37.8c4.3,12.8,10.7,28.5,21.4,34.2c122.6,62.7,245.9,124,368.5,186c16.4,8.6,27.8,9.3,44.2-2.9
		c63.4-45.6,141.8-42.1,196.7,7.1c54.2,47.8,69.1,124.7,36.4,188.2c-31.4,62.7-103.3,97.6-169.6,83.4
		c-75.6-16.4-123.3-75.6-127.6-154.7c-0.7-12.1-10.7-28.5-20.7-34.2c-123.3-63.4-248-124-372.1-187.5c-18.5-9.3-28.5-4.3-43.5,6.4
		c-52,36.4-108.3,41.3-164.6,11.4C222.5,504.4,194.7,457.3,194,391.8z"/>
</g>
</svg>
