<?xml version="1.0" encoding="utf-8"?>
<!-- Generator: Adobe Illustrator 19.1.0, SVG Export Plug-In . SVG Version: 6.00 Build 0)  -->
<svg version="1.1" id="Layer_1" xmlns="http://www.w3.org/2000/svg" xmlns:xlink="http://www.w3.org/1999/xlink" x="0px" y="0px"
	 viewBox="582 -312 998.7 999.9" style="enable-background:new 582 -312 998.7 999.9;" xml:space="preserve">
<style type="text/css">
	.st0{fill:url(#SVGID_1_);}
</style>
<g>
	<linearGradient id="SVGID_1_" gradientUnits="userSpaceOnUse" x1="1081.3502" y1="-311.9701" x2="1081.3502" y2="687.9477">
		<stop  offset="0.2" style="stop-color:#000000"/>
		<stop  offset="0.8" style="stop-color:#FFFFFF"/>
	</linearGradient>
	<path class="st0" d="M582,183.8C584.1,126,610.5,79,664,50.5c54.9-29.9,110.5-27.1,161.8,8.6c20.7,15,34.9,15,57,4.3
		C1001.8,2,1121.6-57.9,1241.3-117c17.8-8.6,25.7-17.8,26.4-39.9c0.7-74.9,50.6-134.7,121.9-151.1c69.9-16.4,143.3,19.2,175.3,84.8
		c31.4,63.4,14.3,141.1-39.9,187.5c-55.6,47.8-132.6,50.6-193.9,5.7c-15.7-11.4-26.4-12.8-44.2-3.6C1164.3,29.1,1041,90.4,917.7,151
		c-17.8,8.6-27.8,19.2-21.4,37.8c4.3,12.8,10.7,28.5,21.4,34.2c122.6,62.7,245.9,124,368.5,186c16.4,8.6,27.8,9.3,44.2-2.9
		c63.4-45.6,141.8-42.1,196.7,7.1c54.2,47.8,69.1,124.7,36.4,188.2c-31.4,62.7-103.3,97.6-169.6,83.4
		c-75.6-16.4-123.3-75.6-127.6-154.7c-0.7-12.1-10.7-28.5-20.7-34.2c-123.3-63.4-248-124-372.1-187.5c-18.5-9.3-28.5-4.3-43.5,6.4
		c-52,36.4-108.3,41.3-164.6,11.4C610.5,296.4,582.7,249.3,582,183.8z"/>
</g>
</svg>
