<?xml version="1.0" encoding="utf-8"?>
<!-- Generator: Adobe Illustrator 19.1.0, SVG Export Plug-In . SVG Version: 6.00 Build 0)  -->
<svg version="1.1" id="Layer_1" xmlns="http://www.w3.org/2000/svg" xmlns:xlink="http://www.w3.org/1999/xlink" x="0px" y="0px"
	 viewBox="582 -312.7 1000 1001.4" style="enable-background:new 582 -312.7 1000 1001.4;" xml:space="preserve">
<style type="text/css">
	.st0{fill:url(#SVGID_1_);}
</style>
<linearGradient id="SVGID_1_" gradientUnits="userSpaceOnUse" x1="1081.988" y1="-312.7" x2="1081.988" y2="688.749">
	<stop  offset="0.2" style="stop-color:#000000"/>
	<stop  offset="0.8" style="stop-color:#FFFFFF"/>
</linearGradient>
<path class="st0" d="M1570.7,125.9c-5-38.5-11.5-76.6-20.3-114.3c-2.5-11.1-5.6-22.1-8.5-33.1c-46.6-12.1-93.4-19.5-140.7-24.1
	c-47.2-4.6-94.4-8.5-143-6.2c59.5-58.6,118.8-116,177.4-174.1c-6.4-8-60.2-62.4-64.7-65.3c-86.6,86.6-173.2,173.3-260.1,260.3
	c-47.1-47.4-93.8-94.5-140.8-141.4s-94.1-93.6-141.2-140.4c-4.9,3.7-59.4,59.9-61.2,63.4c66.2,65.2,132.5,130.6,198.9,196
	c-58.5-2.4-116.3,0.8-174,5.7S677.6-34.7,620.6-22.3c-28.8,117.5-40,236.6-38.5,357c1.4,108.7,14.6,215.8,41,321.4
	c1.3,0.2,2,0.4,3.1,0.6c20.6,3.1,41.1,6.5,61.8,9.1c28,3.5,56.1,6.8,84.3,9.5c26.7,2.6,53.4,4.8,80.2,6.4
	c37.1,2.3,74.3,4.5,111.5,5.6c40.5,1.2,81.1,1.6,121.6,1.4c38.6-0.2,77.2-1.3,115.7-2.5c25.1-0.8,50.2-2.5,75.3-3.9
	c15-0.9,30-2,45-3.2c20.8-1.7,41.5-3.5,62.3-5.5c20.2-2,40.5-4,60.7-6.4c22.8-2.6,45.6-5.7,68.4-8.6c7.8-1,15.6-2.3,23.6-3.4
	c0.5-1.6,0.9-3,1.3-4.4c21-80.2,34.2-161.7,40.4-244.4c2.4-32.1,3.6-64.2,3.7-96.3C1582.2,248.5,1578.6,187,1570.7,125.9z
	 M1491.6,352.1c-3.7,69.5-14.2,138-33.1,205c-2.6,9.2-2.7,9.2-12.3,10.2c-25.8,2.7-51.5,5.6-77.4,8.1c-18.6,1.8-37.4,3.2-56.1,4.6
	c-22.7,1.7-45.3,3.4-68,4.8c-15.8,1.1-31.8,1.9-47.7,2.5c-42.4,1.3-84.7,2.5-129.5,3.8c-39.9-0.9-82-1.2-124.3-2.7
	c-35.1-1.3-70.4-3.7-105.5-6.4c-41.2-3.2-82.2-8-123-14.7c-8.3-1.3-8.3-1.3-10.6-9.3c-12.2-43-21.4-86.7-27.4-131.1
	c-6.7-48.8-9-98-7.1-147.2c2.5-65.9,12.1-130.9,32-194.1c1.6-5.2,3.6-10.2,5.2-15.2c0.9-2.9,2.4-4.4,5.5-4.9
	c14.9-2.3,29.6-5.1,44.5-7c23.7-3.1,47.4-6.2,71.3-8.4c24.6-2.4,49.2-4.1,73.8-5.8c49.4-3.5,99-5,148.5-4.8
	c39,0.2,77.9,1.3,116.9,2.5c23.2,0.8,46.5,2.1,69.7,3.7c24.3,1.7,48.5,3.8,72.7,6.1c24.7,2.4,49.5,5,74.1,7.9
	c21,2.4,41.8,5.6,62.7,8.4c1.1,0.2,2.1,0.5,3.1,0.6c2.9,0.3,4.3,1.9,5.1,4.6c5.7,19.1,12.1,38.1,17.1,57.5
	c9.3,35.7,14.7,72.1,17.8,108.8C1493,277,1493.7,314.5,1491.6,352.1z"/>
</svg>
