<?xml version="1.0" encoding="utf-8"?>
<!-- Generator: Adobe Illustrator 19.1.0, SVG Export Plug-In . SVG Version: 6.00 Build 0)  -->
<svg version="1.1" id="Layer_1" xmlns="http://www.w3.org/2000/svg" xmlns:xlink="http://www.w3.org/1999/xlink" x="0px" y="0px"
	 viewBox="194 -104 1000 1000" style="enable-background:new 194 -104 1000 1000;" xml:space="preserve">
<style type="text/css">
	.st0{fill:url(#SVGID_1_);}
</style>
<g>
	<linearGradient id="SVGID_1_" gradientUnits="userSpaceOnUse" x1="694" y1="-104" x2="694" y2="896">
		<stop  offset="0" style="stop-color:#E87C1E"/>
		<stop  offset="1" style="stop-color:#FFFFFF"/>
	</linearGradient>
	<path class="st0" d="M731.1,896c-24.8,0-49.4,0-74.2,0c-1.8-0.6-3.5-1.4-5.5-1.6c-18.6-2.7-37.5-4.5-55.9-8
		c-197.4-37.3-360.1-202.9-393.7-400.6c-2.9-17.6-5.3-35.2-7.8-52.7c0-24.8,0-49.4,0-74.2c0.6-1.8,1.4-3.5,1.6-5.5
		c2.7-18.6,4.5-37.5,8-55.9C240.9,99.7,406.3-62.4,605.1-96.2c17.2-2.9,34.6-5.3,51.8-7.8c24.8,0,49.4,0,74.2,0
		c10.9,1.6,21.7,2.7,32.6,4.5C880.3-81.9,979.5-30.8,1060,55.6c67.2,71.9,109.4,156.6,126.6,253.5c2.9,16.6,5.1,33.2,7.4,49.8
		c0,24.8,0,49.4,0,74.2c-0.6,1.8-1.4,3.5-1.6,5.5c-2.7,18.6-4.5,37.5-8,55.9C1147.1,692,981.5,854.7,783.8,888.3
		C766.3,891.1,748.7,893.5,731.1,896z M501,208.9c-15,51-23,102.3-25,155.1c62.3,0,124.2,0,186.1,0c0-52,0-103.3,0-155.1
		C608.5,208.9,555.3,208.9,501,208.9z M501,582.9c54.1,0,107.6,0,160.9,0c0-52.1,0-103.7,0-154.9c-62.3,0-124,0-185.9,0
		C478.2,481.2,486,532.5,501,582.9z M725.6,364.2c62.5,0,124,0,186.1,0c-2.1-53.3-9.8-104.9-25-155.1c-54.3,0-107.4,0-161.1,0
		C725.6,260.8,725.6,312,725.6,364.2z M725.6,583.1c54.1,0,107.4,0,160.5,0c13.9-36.1,27.1-124.2,24.8-155.5
		c-61.5,0-123.2,0-185.4,0C725.6,479.6,725.6,531,725.6,583.1z M433.1,208.5c-41.8,0-85.4-0.2-128.9,0.2c-2.7,0-7,3.5-8,6.3
		c-9.6,26.8-20.1,53.5-27.5,80.9c-6.1,22.1-8.2,44.9-12.1,68.2c53.7,0,104.9,0,153.9,0C418,312,425.4,260.6,433.1,208.5z
		 M975.8,364.2c51.6,0,102.3,0,153.9,0c0-2.1,0.2-3.7,0-5.3c-4.1-50.6-16.8-99-38.5-145.1c-1.4-2.9-7-5.1-10.5-5.3
		c-40-0.4-79.9-0.2-119.9-0.2c-2.7,0-5.5,0.4-7.4,0.6c4.9,26.2,10.4,51.6,14.1,77.3C971,312,972.9,337.8,975.8,364.2z M433.1,583.5
		c-7.6-52.1-15-103.7-22.7-155.5c-49.6,0-100.8,0-152.5,0c1,9.2,1.6,17.6,2.7,26c5.9,42.8,17.4,83.8,35.5,123c1.4,2.9,5.3,6.4,8,6.4
		C347.5,583.7,391.1,583.5,433.1,583.5z M977.6,427.6c-7.6,52.5-15.2,104.1-22.9,155.9c41.8,0,85.4,0.2,128.9-0.4
		c2.9,0,7.4-3.9,8.4-7c9.6-26.8,19.7-53.5,27.1-81.1c5.9-21.7,8-44.3,11.9-67.4C1078,427.6,1027,427.6,977.6,427.6z M662.2-33.1
		C620.8-12,535.4,100.1,525.6,145.4c45.3,0,90.8,0,136.5,0C662.2,85.6,662.2,26.5,662.2-33.1z M524.1,646.4
		c32.4,71.3,76,132,137.9,180.1c0-61.1,0-120.7,0-180.1C616.1,646.4,571,646.4,524.1,646.4z M863.7,145.6
		C831.7,74.5,787.9,14,725.8-34.5c0,61.3,0,120.5,0,180.1C771.7,145.6,817,145.6,863.7,145.6z M725.8,826.7
		c62.3-48.6,106.1-109.2,137.9-180.1c-46.9,0-92.2,0-137.9,0C725.8,706.4,725.8,765.5,725.8,826.7z M1051.8,146
		C1012.4,80.6,882.5-16.5,837.2-15.1c6.4,8.4,13.1,16.4,19.3,24.6c29.9,39.6,53.7,82.6,72.3,128.7c1.2,2.9,4.7,7.4,7,7.4
		C973.9,146.2,1012.2,146,1051.8,146z M1052.8,646c-39.1,0-75.8,0.2-112.5-0.2c-6.6,0-9.6,2-11.9,8
		c-21.1,53.5-49.8,102.7-86.5,147.1c-1.6,2-3.1,4.3-4.5,6.3C926.2,777.3,997.1,723.7,1052.8,646z M548.3-15.5
		C486.8-3.6,354.7,96.8,337.6,146c37.9,0,75.6,0.2,113.1-0.4c2.9,0,6.8-3.9,8.4-6.8c10.4-21.3,18.8-43.8,30.7-64.1
		C508.3,43.7,529,14,548.3-15.5z M336,646c40.4,66.2,170.3,163.1,215,160.9c-2-2.5-3.7-4.7-5.7-7c-31.6-38.3-57.2-80.5-77.3-125.8
		c-4.1-9.2-5.7-22.1-12.7-26.6c-7.6-4.7-20.1-1.8-30.5-1.8C395.8,646,366.7,646,336,646z"/>
</g>
</svg>
