<?xml version="1.0" encoding="utf-8"?>
<!-- Generator: Adobe Illustrator 19.0.1, SVG Export Plug-In . SVG Version: 6.00 Build 0)  -->
<svg version="1.1" id="Layer_1" xmlns="http://www.w3.org/2000/svg" xmlns:xlink="http://www.w3.org/1999/xlink" x="0px" y="0px"
	 viewBox="0 0 1000 1000" style="enable-background:new 0 0 1000 1000;" xml:space="preserve">
<style type="text/css">
	.st0{fill:#010101;}
</style>
<g>
	<path class="st0" d="M537.1,1000c-24.8,0-49.4,0-74.2,0c-1.8-0.6-3.5-1.4-5.5-1.6c-18.6-2.7-37.5-4.5-55.9-8
		C204.1,953.1,41.4,787.5,7.8,589.8c-2.9-17.6-5.3-35.2-7.8-52.7c0-24.8,0-49.4,0-74.2c0.6-1.8,1.4-3.5,1.6-5.5
		c2.7-18.6,4.5-37.5,8-55.9C46.9,203.7,212.3,41.6,411.1,7.8c17.2-2.9,34.6-5.3,51.8-7.8c24.8,0,49.4,0,74.2,0
		c10.9,1.6,21.7,2.7,32.6,4.5C686.3,22.1,785.5,73.2,866,159.6c67.2,71.9,109.4,156.6,126.6,253.5c2.9,16.6,5.1,33.2,7.4,49.8
		c0,24.8,0,49.4,0,74.2c-0.6,1.8-1.4,3.5-1.6,5.5c-2.7,18.6-4.5,37.5-8,55.9c-37.3,197.5-202.9,360.2-400.6,393.8
		C572.3,995.1,554.7,997.5,537.1,1000z M307,312.9c-15,51-23,102.3-25,155.1c62.3,0,124.2,0,186.1,0c0-52,0-103.3,0-155.1
		C414.5,312.9,361.3,312.9,307,312.9z M307,686.9c54.1,0,107.6,0,160.9,0c0-52.1,0-103.7,0-154.9c-62.3,0-124,0-185.9,0
		C284.2,585.2,292,636.5,307,686.9z M531.6,468.2c62.5,0,124,0,186.1,0c-2.1-53.3-9.8-104.9-25-155.1c-54.3,0-107.4,0-161.1,0
		C531.6,364.8,531.6,416,531.6,468.2z M531.6,687.1c54.1,0,107.4,0,160.5,0c13.9-36.1,27.1-124.2,24.8-155.5
		c-61.5,0-123.2,0-185.4,0C531.6,583.6,531.6,635,531.6,687.1z M239.1,312.5c-41.8,0-85.4-0.2-128.9,0.2c-2.7,0-7,3.5-8,6.3
		c-9.6,26.8-20.1,53.5-27.5,80.9c-6.1,22.1-8.2,44.9-12.1,68.2c53.7,0,104.9,0,153.9,0C224,416,231.4,364.6,239.1,312.5z
		 M781.8,468.2c51.6,0,102.3,0,153.9,0c0-2.1,0.2-3.7,0-5.3c-4.1-50.6-16.8-99-38.5-145.1c-1.4-2.9-7-5.1-10.5-5.3
		c-40-0.4-79.9-0.2-119.9-0.2c-2.7,0-5.5,0.4-7.4,0.6c4.9,26.2,10.4,51.6,14.1,77.3C777,416,778.9,441.8,781.8,468.2z M239.1,687.5
		c-7.6-52.1-15-103.7-22.7-155.5c-49.6,0-100.8,0-152.5,0c1,9.2,1.6,17.6,2.7,26c5.9,42.8,17.4,83.8,35.5,123c1.4,2.9,5.3,6.4,8,6.4
		C153.5,687.7,197.1,687.5,239.1,687.5z M783.6,531.6c-7.6,52.5-15.2,104.1-22.9,155.9c41.8,0,85.4,0.2,128.9-0.4
		c2.9,0,7.4-3.9,8.4-7c9.6-26.8,19.7-53.5,27.1-81.1c5.9-21.7,8-44.3,11.9-67.4C884,531.6,833,531.6,783.6,531.6z M468.2,70.9
		C426.8,92,341.4,204.1,331.6,249.4c45.3,0,90.8,0,136.5,0C468.2,189.6,468.2,130.5,468.2,70.9z M330.1,750.4
		c32.4,71.3,76,132,137.9,180.1c0-61.1,0-120.7,0-180.1C422.1,750.4,377,750.4,330.1,750.4z M669.7,249.6
		c-32-71.1-75.8-131.6-137.9-180.1c0,61.3,0,120.5,0,180.1C577.7,249.6,623,249.6,669.7,249.6z M531.8,930.7
		c62.3-48.6,106.1-109.2,137.9-180.1c-46.9,0-92.2,0-137.9,0C531.8,810.4,531.8,869.5,531.8,930.7z M857.8,250
		C818.4,184.6,688.5,87.5,643.2,88.9c6.4,8.4,13.1,16.4,19.3,24.6c29.9,39.6,53.7,82.6,72.3,128.7c1.2,2.9,4.7,7.4,7,7.4
		C779.9,250.2,818.2,250,857.8,250z M858.8,750c-39.1,0-75.8,0.2-112.5-0.2c-6.6,0-9.6,2-11.9,8c-21.1,53.5-49.8,102.7-86.5,147.1
		c-1.6,2-3.1,4.3-4.5,6.3C732.2,881.3,803.1,827.7,858.8,750z M354.3,88.5C292.8,100.4,160.7,200.8,143.6,250
		c37.9,0,75.6,0.2,113.1-0.4c2.9,0,6.8-3.9,8.4-6.8c10.4-21.3,18.8-43.8,30.7-64.1C314.3,147.7,335,118,354.3,88.5z M142,750
		c40.4,66.2,170.3,163.1,215,160.9c-2-2.5-3.7-4.7-5.7-7c-31.6-38.3-57.2-80.5-77.3-125.8c-4.1-9.2-5.7-22.1-12.7-26.6
		c-7.6-4.7-20.1-1.8-30.5-1.8C201.8,750,172.7,750,142,750z"/>
</g>
</svg>
