<?xml version="1.0" encoding="utf-8"?>
<!-- Generator: Adobe Illustrator 19.1.0, SVG Export Plug-In . SVG Version: 6.00 Build 0)  -->
<svg version="1.1" id="Layer_1" xmlns="http://www.w3.org/2000/svg" xmlns:xlink="http://www.w3.org/1999/xlink" x="0px" y="0px"
	 viewBox="582 -312 1000 1000" style="enable-background:new 582 -312 1000 1000;" xml:space="preserve">
<style type="text/css">
	.st0{fill:url(#SVGID_1_);}
</style>
<g>
	<linearGradient id="SVGID_1_" gradientUnits="userSpaceOnUse" x1="1082" y1="-312" x2="1082" y2="688">
		<stop  offset="0.2" style="stop-color:#000000"/>
		<stop  offset="0.8" style="stop-color:#FFFFFF"/>
	</linearGradient>
	<path class="st0" d="M1119.1,688c-24.8,0-49.4,0-74.2,0c-1.8-0.6-3.5-1.4-5.5-1.6c-18.6-2.7-37.5-4.5-55.9-8
		c-197.4-37.3-360.1-202.9-393.7-400.6c-2.9-17.6-5.3-35.2-7.8-52.7c0-24.8,0-49.4,0-74.2c0.6-1.8,1.4-3.5,1.6-5.5
		c2.7-18.6,4.5-37.5,8-55.9c37.3-197.8,202.7-359.9,401.5-393.7c17.2-2.9,34.6-5.3,51.8-7.8c24.8,0,49.4,0,74.2,0
		c10.9,1.6,21.7,2.7,32.6,4.5c116.6,17.6,215.8,68.7,296.3,155.1c67.2,71.9,109.4,156.6,126.6,253.5c2.9,16.6,5.1,33.2,7.4,49.8
		c0,24.8,0,49.4,0,74.2c-0.6,1.8-1.4,3.5-1.6,5.5c-2.7,18.6-4.5,37.5-8,55.9c-37.3,197.5-202.9,360.2-400.6,393.8
		C1154.3,683.1,1136.7,685.5,1119.1,688z M889,0.9c-15,51-23,102.3-25,155.1c62.3,0,124.2,0,186.1,0c0-52,0-103.3,0-155.1
		C996.5,0.9,943.3,0.9,889,0.9z M889,374.9c54.1,0,107.6,0,160.9,0c0-52.1,0-103.7,0-154.9c-62.3,0-124,0-185.9,0
		C866.2,273.2,874,324.5,889,374.9z M1113.6,156.2c62.5,0,124,0,186.1,0c-2.1-53.3-9.8-104.9-25-155.1c-54.3,0-107.4,0-161.1,0
		C1113.6,52.8,1113.6,104,1113.6,156.2z M1113.6,375.1c54.1,0,107.4,0,160.5,0c13.9-36.1,27.1-124.2,24.8-155.5
		c-61.5,0-123.2,0-185.4,0C1113.6,271.6,1113.6,323,1113.6,375.1z M821.1,0.5c-41.8,0-85.4-0.2-128.9,0.2c-2.7,0-7,3.5-8,6.3
		c-9.6,26.8-20.1,53.5-27.5,80.9c-6.1,22.1-8.2,44.9-12.1,68.2c53.7,0,104.9,0,153.9,0C806,104,813.4,52.6,821.1,0.5z M1363.8,156.2
		c51.6,0,102.3,0,153.9,0c0-2.1,0.2-3.7,0-5.3c-4.1-50.6-16.8-99-38.5-145.1c-1.4-2.9-7-5.1-10.5-5.3c-40-0.4-79.9-0.2-119.9-0.2
		c-2.7,0-5.5,0.4-7.4,0.6c4.9,26.2,10.4,51.6,14.1,77.3C1359,104,1360.9,129.8,1363.8,156.2z M821.1,375.5
		c-7.6-52.1-15-103.7-22.7-155.5c-49.6,0-100.8,0-152.5,0c1,9.2,1.6,17.6,2.7,26c5.9,42.8,17.4,83.8,35.5,123c1.4,2.9,5.3,6.4,8,6.4
		C735.5,375.7,779.1,375.5,821.1,375.5z M1365.6,219.6c-7.6,52.5-15.2,104.1-22.9,155.9c41.8,0,85.4,0.2,128.9-0.4
		c2.9,0,7.4-3.9,8.4-7c9.6-26.8,19.7-53.5,27.1-81.1c5.9-21.7,8-44.3,11.9-67.4C1466,219.6,1415,219.6,1365.6,219.6z M1050.2-241.1
		C1008.8-220,923.4-107.9,913.6-62.6c45.3,0,90.8,0,136.5,0C1050.2-122.4,1050.2-181.5,1050.2-241.1z M912.1,438.4
		c32.4,71.3,76,132,137.9,180.1c0-61.1,0-120.7,0-180.1C1004.1,438.4,959,438.4,912.1,438.4z M1251.7-62.4
		c-32-71.1-75.8-131.6-137.9-180.1c0,61.3,0,120.5,0,180.1C1159.7-62.4,1205-62.4,1251.7-62.4z M1113.8,618.7
		c62.3-48.6,106.1-109.2,137.9-180.1c-46.9,0-92.2,0-137.9,0C1113.8,498.4,1113.8,557.5,1113.8,618.7z M1439.8-62
		c-39.4-65.4-169.3-162.5-214.6-161.1c6.4,8.4,13.1,16.4,19.3,24.6c29.9,39.6,53.7,82.6,72.3,128.7c1.2,2.9,4.7,7.4,7,7.4
		C1361.9-61.8,1400.2-62,1439.8-62z M1440.8,438c-39.1,0-75.8,0.2-112.5-0.2c-6.6,0-9.6,2-11.9,8c-21.1,53.5-49.8,102.7-86.5,147.1
		c-1.6,2-3.1,4.3-4.5,6.3C1314.2,569.3,1385.1,515.7,1440.8,438z M936.3-223.5C874.8-211.6,742.7-111.2,725.6-62
		c37.9,0,75.6,0.2,113.1-0.4c2.9,0,6.8-3.9,8.4-6.8c10.4-21.3,18.8-43.8,30.7-64.1C896.3-164.3,917-194,936.3-223.5z M724,438
		c40.4,66.2,170.3,163.1,215,160.9c-2-2.5-3.7-4.7-5.7-7c-31.6-38.3-57.2-80.5-77.3-125.8c-4.1-9.2-5.7-22.1-12.7-26.6
		c-7.6-4.7-20.1-1.8-30.5-1.8C783.8,438,754.7,438,724,438z"/>
</g>
</svg>
