<?xml version="1.0" encoding="utf-8"?>
<!-- Generator: Adobe Illustrator 19.0.1, SVG Export Plug-In . SVG Version: 6.00 Build 0)  -->
<svg version="1.1" id="Layer_1" xmlns="http://www.w3.org/2000/svg" xmlns:xlink="http://www.w3.org/1999/xlink" x="0px" y="0px"
	 viewBox="0 0 301.9 108.1" style="enable-background:new 0 0 301.9 108.1;" xml:space="preserve">
<style type="text/css">
	.st0{fill:#FFFFFF;}
</style>
<g>
	<path class="st0" d="M2.1,73.6c-0.2,0-0.5-0.4-1.2-1.3C0.3,71.5,0,70.2,0,68.5c0-0.9,0.2-1.5,0.5-1.7c0.3-0.2,0.8-0.3,1.6-0.3
		C6.2,66,11,65.9,16.4,66c5.4,0.2,10.8,0.2,16,0.2C44.7,50,55.7,37.4,65.6,28.4c9.8-9,18.4-15.6,25.8-19.8
		c7.4-4.2,13.5-6.7,18.4-7.5c4.9-0.8,8.5-1.2,10.8-1.2c2.1,0,4.1,0.2,6,0.6c1.8,0.4,2.9,1.2,3.2,2.4c0.2,0.8,0.1,1.6-0.2,2.5
		c-0.2,0.5-0.3,0.8-0.5,1.2c-0.3,0.5-1.3,2-3,4.5c-1.7,2.5-4.3,6.3-7.7,11.4c-3.4,5.1-7.9,11.5-13.5,19.3
		C99.4,49.7,92.6,59,84.6,69.9c0.6,0.2,1.5,0.3,2.5,0.3c1.1,0.1,3.6,0.3,7.6,0.8c0.3,0,0.7,0.1,1,0.2c0.4,0.2,0.6,0.4,0.6,0.7
		c0,0.6-1,0.9-3,0.9c-0.8,0-2.1,0-4,0c-1.9,0-4.3,0.1-7,0.2c-4.9,7.1-9,12.8-12.2,17.4c-3.2,4.5-5.8,8.1-7.6,10.7
		c-1.8,2.6-3.5,4.9-4.8,6.9l-0.5-0.2c-0.2-0.2-0.2-0.5-0.2-1.2c3.1-6.1,6.2-11.8,9.3-17.1c3.1-5.3,6.4-10.8,9.8-16.4
		c-6.3,0.3-13.6,0.5-21.8,0.7C46,74,38.4,74.1,31.5,74.1c-4.4,5.4-8.4,10-12,13.9c-3.5,3.9-6.5,6.9-9,9.1c-1.4,1.4-2.4,2.1-3,2.1
		c-0.5,0-0.7-0.2-0.7-0.7c0-0.3,0.1-0.5,0.2-0.6c0.2-0.1,0.5-0.5,1.2-1.3c0.6-0.6,2.6-3,6-7c3.4-4.1,7.5-9.3,12.4-15.8H2.3L2.1,73.6
		z M62.1,40.5c-4.4,4.4-8.7,8.9-12.8,13.5c-4.1,4.5-7.8,8.7-11.2,12.5c4.6,0.3,10.3,0.7,17.1,1.2c6.8,0.5,14.5,1.1,23.1,1.8
		c3.2-5.4,6.8-11.1,10.7-17.1c3.9-6.1,7.7-11.9,11.4-17.6c3.7-5.7,7.1-10.9,10.2-15.6c3.1-4.8,5.7-8.6,7.7-11.5h-1.8
		c-1.1,0-3,0.2-5.6,0.7c-2.7,0.5-6,1.5-10,3.2c-5.8,2.6-12,6.4-18.6,11.3C75.7,27.7,69,33.6,62.1,40.5z"/>
	<path class="st0" d="M123.3,93.6c-2.5,2-6,3-10.6,3c-0.5,0-1.2,0-2.1-0.1c-0.9-0.1-1.9-0.3-2.9-0.6c-1-0.3-1.9-0.7-2.6-1
		c-0.8-0.4-1.1-1-1.1-1.7c-2,2.1-3.1,3.5-3.2,3.9c-0.8,0-2-0.3-3.6-1c-1.6-0.7-2.4-1.6-2.4-2.9c0-1.1,0.7-2.4,2.2-3.9
		c1.5-1.5,2.7-2.9,3.8-4.1c-4.9,2.5-8.4,4.1-10.6,4.8c-2.1,0.8-3.7,1.2-4.6,1.4c-0.5,0-0.7-0.2-0.7-0.5c0-0.8,0.7-1.4,2.2-1.8
		c1.5-0.5,3.7-1.6,6.8-3.5s7-4.8,11.7-8.7c4.8-4,10.5-9.9,17.3-17.7c0.5-0.5,1-1,1.6-1.7c0.6-0.7,0.9-1.2,0.9-1.5
		c3.5-4.6,6.9-9,10.1-13.2c3.2-4.2,6.1-8.2,8.7-12.1l9.2-13.1c0.2,0,0.5-0.1,0.9-0.2c0.5-0.2,1.1-0.2,1.8-0.2c0.8,0,1.6,0.2,2.5,0.6
		c0.9,0.4,1.5,0.8,1.8,1.3c-0.5,1.4-1.5,3.3-3.1,5.9c-1.6,2.5-3.5,5.4-5.6,8.6c-2.1,3.2-4.5,6.6-7.1,10c-2.6,3.5-5.1,6.8-7.6,10
		c-2.5,3.2-4.8,6.1-6.9,8.6c-2.1,2.5-3.8,4.4-5.1,5.6c1.7,0.5,3.2,1.5,4.6,3.2c1.4,1.7,2.1,3.8,2.1,6.2c0,3.5-0.9,7-2.8,10.3
		c-0.3,0.3-0.5,0.6-0.5,0.9c1.2,0.3,2.4,0.5,3.5,0.5c1.8,0,3.2,0,4.1-0.1c0.9-0.1,1.8-0.3,2.8-0.6l1.8-0.5c0.2,0,0.2,0,0.2-0.1
		c0-0.1,0.1-0.1,0.2-0.1h0.2c0.9,0,1.4,0.2,1.4,0.5v-0.2c0,0.8-0.5,1.5-1.4,2.1c-0.8,0.6-2,1.1-3.8,1.5c-1.8,0.4-4.3,0.6-7.7,0.6
		c-0.8,0-1.4,0-2-0.1c-0.5-0.1-1.2-0.1-2-0.1c-0.5,0.3-0.9,0.7-1.3,1C124.4,93,123.9,93.3,123.3,93.6z M107.9,89.2
		c1.4,1.4,3.3,1.7,5.6,1c2.4-0.7,4.3-1.6,5.6-2.6c-1.5-1.2-2.5-2.6-2.8-4c-0.3-1.5-0.6-3-0.9-4.7c-1.7,1.7-3,3.1-3.9,4.1
		c-0.9,1.1-1.8,2.2-2.5,3.3c-0.8,1.2-1.1,2-1.1,2.6V89.2z M121.2,75.2c-0.6,1.4-0.9,2.9-0.9,4.6c0,2,0.5,3.6,1.6,4.8
		c0.8-1.2,1.3-2.5,1.7-3.7c0.4-1.2,0.6-2.3,0.6-3.2C124.2,75.3,123.2,74.4,121.2,75.2z"/>
	<path class="st0" d="M145.4,89.7c0-1.2,0.2-2.5,0.7-3.7c-1.7,1.1-3.4,1.9-5.2,2.5c-1.8,0.6-3.3,1.1-4.7,1.6
		c-1.7,0.6-3.2,1.1-4.6,1.4c-0.2,0-0.4-0.2-0.7-0.5c0-0.3,0.3-0.6,0.9-0.9c3.1-1.2,6.2-2.8,9.4-4.7c3.2-1.9,6.1-4.1,8.5-6.6
		c4-4,7.2-6.8,9.8-8.4c2.5-1.6,4.3-2.4,5.2-2.4h0.2h0.2l0.5,0.5c0.3-0.3,0.7-0.5,1.3-0.5c0.5,0,1,0,1.3,0c2.9,0,5,1.1,6.2,3.2
		c1.2,2.1,1.8,4.3,1.8,6.4c0,3.4-0.8,6.6-2.5,9.7c0.5,0.3,1.2,0.5,2.2,0.6c1,0.1,2,0.1,3.1,0.1c2.5,0,4.3-0.2,5.6-0.7
		c1.3-0.5,2-0.7,2.2-0.7c0.6,0.3,0.9,0.6,0.9,0.9l-0.2,0.2l-0.9,0.7c-0.8,0.6-2.4,1.3-4.9,2.2c-2.5,0.8-5.6,1.3-9.1,1.3h-0.2
		c-0.3,0-0.6,0-0.9-0.1c-0.3-0.1-0.6-0.1-0.9-0.1c-2.1,2-4.5,3.5-7.1,4.4c-2.6,0.9-5.1,1.4-7.6,1.4c-2,0-4.2-0.6-6.7-1.7
		C146.6,94.6,145.4,92.6,145.4,89.7z M152.9,89c0,0.5,0.2,0.9,0.7,1.3c0.5,0.4,1.5,0.6,3.2,0.6c1.2,0,2.5-0.1,3.7-0.2
		c1.2-0.2,2.4-0.6,3.4-1.4c-1.8-1.2-3.1-2.8-3.7-4.6c-0.6-1.8-0.9-3.4-0.9-4.6c-1.2,1.1-2.3,2-3.1,2.9c-0.8,0.8-1.6,1.8-2.3,2.9
		C153.3,86.9,152.9,87.9,152.9,89z M167,75.4c-0.6,1.2-0.9,2.8-0.9,4.6c0,0.6,0.2,1.4,0.5,2.4c0.3,1,1.1,2,2.3,3.1
		c1.2-1.2,2.1-2.7,2.8-4.5c0.6-1.8,0.9-3.4,0.9-4.9c0-1.2-0.4-2.5-1.3-3.7c-0.8-1.2-2-1.8-3.6-1.8c0,0.3,0.2,0.7,0.6,1.2
		c0.4,0.5,0.6,1,0.6,1.6c0,0.6-0.5,1.1-1.4,1.4h-0.2c0,0.2,0,0.3-0.1,0.3C167,75.2,167,75.3,167,75.4z"/>
	<path class="st0" d="M227.9,86.9c0-0.6,0-0.7-0.1-0.1c-0.1,0.5-0.6,1.3-1.6,2.4c-1,1.1-2.6,2.3-4.8,3.6c-2.2,1.3-5.4,2.4-9.5,3.3
		c-2.1,0.5-3.8,0.3-5.1-0.5c-1.2-0.8-2.1-1.7-2.8-2.8c-0.6-1.1-1-2.1-1-3.2c-0.1-1.1,0.1-1.8,0.6-2.3c-2.1,2.1-4.5,4.3-7.1,6.3
		c-2.6,2.1-5.8,3.1-9.7,3.1c-1.5,0-3-0.7-4.3-2.1c-1.3-1.4-2-3-2-4.8c0-2.5,0.7-5,2.2-7.7c1.5-2.7,3.1-5.1,4.9-7.2
		c2-2.6,4.4-5.1,7.1-7.6l0.2-0.2c1.1,0,2.3,0.2,3.7,0.7s2.2,1.3,2.5,2.5c-0.6,1.1-1.3,2.1-2.1,3.2c-0.8,1.1-1.7,2.2-2.8,3.5
		c-0.3,0.3-0.9,1-1.7,2.1c-0.8,1.1-1.8,2.3-2.9,3.7c-1.1,1.4-2,2.8-2.8,4.1c-0.8,1.4-1.1,2.5-1.1,3.2h0.2h1.4
		c1.1-0.2,2.5-0.7,4.1-1.7c1.7-1,3.5-2.3,5.3-3.8c1.8-1.5,3.7-3.1,5.5-4.8c1.8-1.7,3.5-3.3,5.1-4.8c1.4-1.5,2.4-2.8,3.1-3.8
		c0.7-1,1.6-2,2.9-3.1c0.8-0.6,1.9-0.5,3.3,0.3c1.5,0.8,2.2,1.6,2.2,2.2c0,0.8-0.2,1.5-0.7,2.3c-0.5,0.8-0.9,1.6-1.4,2.5
		c-3.1,4.9-5.4,8.4-7,10.5c-1.6,2.1-2.4,3.5-2.4,4.3c0.5,0.5,1.1,0.7,2.1,0.7c0.5,0,1.5-0.2,3.1-0.5c1.6-0.3,3.3-0.7,5.2-1.2
		s3.5-1,4.8-1.5c1.4-0.5,2.1-1,2.1-1.5h0.2C227.6,86.3,227.9,86.5,227.9,86.9z"/>
	<path class="st0" d="M239,89c-0.5,1.2,0.2,1.8,1.8,1.8c1.8,0,3.8-0.2,5.9-0.6c2.1-0.4,4-0.8,5.8-1.4c1.8-0.5,3.2-1,4.4-1.5
		s1.8-0.8,2-0.9c0.3-0.3,0.8-0.2,1.5,0.2c0.7,0.5,0.9,0.9,0.6,1.4c0,0.3-0.4,0.6-1.2,0.9c-0.3,0.3-0.6,0.5-0.9,0.7
		c-2.1,1.3-4.1,2.2-5.9,3c-1.8,0.7-3.8,1.4-6.1,2.1c-2.3,0.6-4.8,1-7.4,1h-0.7c-0.9,0-2-0.4-3.3-1.2c-1.3-0.8-2-1.8-2-3
		c0-1.7,0.4-3.4,1.1-5.1c0.8-1.7,1.5-3.4,2.3-5.1v-0.2c0.2-0.2,0.2-0.3,0.2-0.3c0-0.1,0.1-0.2,0.2-0.3c-1.1,0.8-2.5,1.8-4.3,3.2
		c-1.8,1.4-3.5,2.7-5.2,3.9c-1.7,1.2-3.2,2.1-4.6,2.8c-1.4,0.6-2.2,0.5-2.5-0.2c0-0.3,0.1-0.6,0.2-0.9c0.9-0.5,2.5-1.6,4.6-3.4
		c2.1-1.8,4.6-4.1,7.4-6.9c2.8-2.8,5.7-5.9,8.7-9.3c3.1-3.4,6.1-7,9.2-10.7c-5.5,0-11,0-16.4-0.1c-5.4-0.1-10.4-0.1-15-0.1
		c-4.5,0-8.3,0-11.3-0.1c-3-0.1-4.8-0.1-5.4-0.1h-0.2c-0.2-0.2-0.6-0.7-1.3-1.5c-0.7-0.8-1-2-1-3.6c0-1.1,0.2-1.7,0.6-1.8
		c0.4-0.2,1-0.3,1.7-0.5h0.2c1.1,0,2.4,0,4,0s4.2,0,7.8,0.1c3.6,0.1,8.6,0.2,15,0.3c6.4,0.2,14.9,0.5,25.6,0.9
		c2.6-3.7,5.1-7.1,7.4-10.1c2.3-3.1,4.2-5.4,5.8-7.1c0.8-1.2,1.4-2.1,2-2.5c0.5-0.5,1-0.8,1.3-1.1c-0.2,0,0.1,0,0.7,0.1
		c0.6,0.1,1.3,0.2,2.1,0.5c0.8,0.2,1.5,0.5,2.1,0.9c0.6,0.4,0.9,0.9,0.9,1.5c0,0.9-0.2,1.7-0.7,2.3c-0.8,1.1-2,2.8-3.6,5.1
		s-4.4,6.1-8.4,11.5c10.6,0.8,18.4,1.4,23.6,2c5.1,0.5,8.7,1,10.7,1.3c2,0.3,3,0.6,2.9,0.8c-0.1,0.2-0.1,0.4-0.1,0.6
		c-0.2,0-0.2,0.1-0.2,0.2l-0.5,0.5h-0.2c-0.3,0-3.8,0-10.3,0.1c-6.6,0.1-16.6,0.1-30.1,0.1c-1.7,1.7-3.6,3.7-5.6,6.2
		c-2.1,2.4-4.1,5.1-6.1,7.9c-2,2.8-3.9,5.6-5.6,8.4C241.2,84.2,239.9,86.7,239,89z"/>
</g>
</svg>
