<?xml version="1.0" encoding="utf-8"?>
<!-- Generator: Adobe Illustrator 19.0.1, SVG Export Plug-In . SVG Version: 6.00 Build 0)  -->
<svg version="1.1" id="Layer_1" xmlns="http://www.w3.org/2000/svg" xmlns:xlink="http://www.w3.org/1999/xlink" x="0px" y="0px"
	 viewBox="0 0 1280 768" style="enable-background:new 0 0 1280 768;" xml:space="preserve">
<style type="text/css">
	.st0{fill:#FFFFFF;}
	.st1{fill:#27AAE1;}
	.st2{fill:#262262;}
	.st3{fill:#E6E7E8;}
	.st4{fill:#A7A9AC;}
	.st5{fill:#6D6E71;}
</style>
<g>
	<path class="st0" d="M-2.9,572.4c0-112.9,0-225.7,0-338.6c3.9,6.8,8.3,10.7,17.6,9.2c5.2-0.9,11.4,4.3,19,7.5
		c3.3-0.2,9.1-0.7,15.8-1.2c-3.8-6.8-7.3-13.3-11.3-20.6c3.4,0.9,5.6,1.4,7.7,2c0.9-0.7,1.8-1.4,2.7-2c-3.7-6.2-6.1-13.7-11.2-18.2
		c-9-7.9-9.7-15.7-3.8-26.3c0.2,7.5,1.7,12.6,10.2,8.9c1.2-0.5,4.1,0.9,5,2.2c0.7,1-0.3,3.5-1.1,5c-1,2-2.4,3.9-3.7,5.8
		c23.4,12.4,23.4,12.4,24.4,19c-3.8-0.3-7.7-0.6-12.2-1c0.9,3.2,1.7,5.4,2,7.6c1.4,8.4,4.9,12.5,14.7,10.9
		c9.2-1.4,13.3,4.8,13.5,13.9c0.1,6.2,3.2,12.2,5.7,21.1c4.3-5.4,6.5-8.3,9.2-11.7c1.5,4.2,2.6,7.2,3.7,10c-4,3.2-7.5,6-9.8,7.9
		c3.5,5.2,6.1,9.1,9.9,14.9c2.9-7.5,5.1-13.5,7.4-19.3c4.1,6.9,7.5,12.6,11.3,19c1.8-5.5,2.8-8.8,3.9-12c1.8,3.1,3.6,6.3,5.4,9.4
		c0.2-0.5,0.5-1,0.7-1.5c5.5,3.1,11,6.3,16.7,9.5c0.8-4,1.4-7.1,2.1-10.2c3.7,0.6,6.6,1,10.9,1.7c-10-10.6-19-20.1-28.4-30.1
		c1.1-1.6,3.2-4.4,4.4-6.1c6.9,4.5,12.9,8.3,21.2,13.6c-1.3-7.5-2.1-12.2-2.8-16.3c3.1-2.2,5.9-4.3,9-6.5c1.8,1.5,5.3,3.4,5.1,4.3
		c-2.1,8.9,6.1,10.6,10.3,14.4c2,1.8,7.3,1.9,9.9,0.5c6.3-3.5,12-3.9,18.3-0.4c2.3,1.3,4.9,1.8,10.2,3.6c-3.1-5.7-4.9-8.5-6.1-11.4
		c-1-2.5-1.2-5.3-1.8-8c3,0,5.9,0,9.5,0c0.4-8.8,4.9-10.2,11.2-5.5c2.4-2.2,5.2-6.2,6.5-5.7c5.5,1.9,12.7,0.4,15.6,8.6
		c0.8,2.4,7.3,3.5,11.4,4c2.6,0.3,5.4-1.9,8.2-2.2c9.5-0.8,18.9-1.2,28.2-1.8c2,3.1,3.9,9.9,7.9,11.6c7,2.8,10.1-3.6,11.1-9.7
		c4.8,4.5,9.2,8.6,13.5,12.6c0.3-0.2,0.6-0.5,0.9-0.7c-4.7-8.3-9.4-16.6-14.9-26.1c5.2-2.2,9.4-4,14.4-6.2c-2.4-2.9-5-5.4-6.9-8.4
		c-1.4-2.2-3.3-5.6-2.5-7.5c2.7-6.5,6.4-12.6,10.1-19.7c-2.4-0.2-4.8-1-5.4-0.3c-10.4,12-17.7,3.2-25.9-3.3
		c-7.6-5.9-12.4-17.9-24.1-15.4c-13.3,2.9-18.8-8.5-30.4-12.2c8.8-1.5,8.8-1.5,18.3,8.1c0.9-0.4,1.7-0.8,2.6-1.2
		c-1.9-3.9-3.9-7.8-6-12.1c2.3,2,4.8,4.6,7.7,6.7c2.8,2,5.8,4.6,8.9,4.9c4.3,0.5,9.5,0.3,13.1-1.8c4.2-2.4,10-7.3,9.8-10.8
		c-0.5-7,1-9.2,7.7-10.2c5.3-0.8,10.4-3.5,16.1-5.6c0-1.5,0-3.7,0-6.4c10.3,6.9,20,13.3,29.7,19.7c7.2-3.4,4.9-8.3,2-13.3
		c-3.5-6.2-6.4-12.8-10.5-18.6c-3.4-4.9-7.9-9.1-12.4-13c-1-0.9-5.5,0-5.8,0.9c-2.9,8.4-9.6,4.5-14.9,5.1c-4.8,0.6-9.9,0.2-14.3,1.8
		c-6.1,2.2-9.4,1-8.7-5.4c0.5-4.6,3-8.9,4.7-13.4c0.5,0.7,1.1,1.5,1.6,2.2c4-2.1,8.6-3.6,11.9-6.4c3.9-3.4,6.8-7.9,11.5-13.7
		c-6.6-7.1-14.8-15.9-23.3-25c12.4-3.7,20.5,1.2,26.1,11c3.8-2.7,6.6-4.6,7.1-4.9c2.6,5.2,4.2,10.5,7.6,14.1c1.1,1.1,7-2.3,12.5-4.3
		c1.2,0.8,5.1,2.8,8.4,5.4c1.5,1.2,2.8,3.7,2.7,5.5c-0.4,6.3-1.4,12.6-2.2,18.9c0.8,0.3,1.7,0.7,2.5,1c2.7-3.6,5.4-7.3,7.9-10.6
		c2.3,3.5,4.6,7.2,7.9,12.2c2.2-4.4,3.4-6.8,3.8-7.6c9.6,3.3,18.8,6.4,29.6,10c-1.6-4.8-2.4-7.2-3.2-9.6c6.3,2.9,12.4,5.7,18.5,8.6
		c-5.7-11.5-21.6-19.1-9.1-33.2c-4.7-5.5-8.5-10-12.2-14.4c1.6-3,3.2-5.8,5.1-9.3c8.6,9.8,16.1,19.4,16.1,32.5
		c0,8.6,4.6,9.9,12.1,9.2c-0.3-3.4-0.6-6.3-0.9-10c2.4,1.1,4.3,1.9,5.5,2.5c1.7-5.2,3.2-10,4.8-14.8c2.7,1.7,4.6,3,6.6,4.3
		c0.6-0.5,1.1-1.1,1.7-1.6c-5.5-7.1-11-14.3-17-22.1c3.3-1.6,6.2-2.9,9-4.3c-0.3,0.9-0.7,1.7-1,2.6c4.3,2.4,8.6,4.8,14,7.9
		c0.5-5.4,0.7-8.2,0.9-11.3c6.5-0.8,13.3,0.1,18.1-2.6c13.2-7.4,19.1-7.5,26.6,0.3c9.1,1.4,15.4,2.3,22,3.3c-1.6-5.4-2.6-9-4-13.6
		c8.6,2.3,15.1,4,23.4,6.3c-4.7-5.5-7.8-9.1-10.9-12.9c-7.3-9.1-14.5-18.3-22.1-27.2c-0.8-0.9-4.2-0.8-5.4,0.1
		c-3.3,2.7-10.5,0.4-10.3,8c0,0.6-3.9,2.2-5.8,1.9c-9.8-1.6-13.2-11.4-7.8-20.5c0.8,1.7,1.6,3.6,3.1,6.6c2-3,3.2-4.7,3.6-5.3
		c2.4,2.3,4.9,4.6,7.4,7c1.1-3.8,2.4-7.6,3.2-11.5c0.2-1-1.1-2.3-1.8-3.5c9.4,0,18.8,0,28.2,0c-1.7,2.3-3.5,4.6-5.5,7.3
		c4.5,5.5,6.5,15.3,19.6,10.7c-3.8-6.8-7-12.4-10.1-18c12.8,0,25.5,0,38.3,0c1.1,3.4,1.2,7.7,3.4,10c4.4,4.7,9.8,10.9,17.1,5.9
		c6.3-4.4,9.1-0.6,14.1,3.1c-4.2,3.3-7.7,6-11.3,8.9c2.9,4,7.1,7.2,7.6,10.9c1.6,11.2,7.7,18.5,16,25.6c6.5,5.6,8.1,12.8,0.5,20
		c-5,4.7-6.1,20.1-2.7,26.5c9.3,17.6,17.5,21.3,37.6,19c13.1-1.5,26.4-2.2,39.6-1.6c10,0.4,19.1,0.3,28-5.3c5.8-3.7,10.8-0.1,13,5.3
		c3,7.1-3.8,6.3-7.5,7.3c-6.2,1.6-12.5,2.6-18.7,4.1c-18.4,4.4-36.7,8.8-55.1,13.3c12.3,11.5,24.1,20.1,36.3,28
		c6.9,4.5,15.6,6.8,21.5,12.2c10.7,9.7,24.4,14.2,36.9,15.5c33.2,3.7,66.8,3.8,100.2,5.2c3.5,0.2,7,0,10.4,0
		c0.1,0.8,0.1,1.5,0.2,2.3c-2.2,0.8-4.5,1.6-6.7,2.4c0.1,0.5,0.2,1,0.2,1.6c41.8-4.5,83.6-8.9,125.4-13.4c0,0.5,0.1,1.1,0.1,1.6
		c-40.7,5.7-81.4,11.4-122.1,17c6.8,3.6,15.2,8.1,20.2,5.6c11.2-5.6,20.1-4.3,30.3,1.2c4.6,2.5,10.4,2.6,15.4,4.5
		c2.9,1.1,7,3.2,7.4,5.5c1.8,8.7,8.2,11.9,15.2,12.2c17.3,0.7,34.9,1.4,52-0.7c9-1.1,17.6-4,27.2-3c21.9,2.4,44.6-3.5,65.8,8.5
		c11.1,6.3,24.5,6.3,37.5,2.3c2.8-0.9,6.8,2.2,10.3,3.4c-2.1,2.5-3.7,5.9-6.4,7.3c-11.7,6-12.6,11.6-2.1,19.5
		c-1.4,1.6-2.8,3.1-4.4,4.9c4.1,1.2,7.6,2.2,11,3.2c-0.1,0.7-0.2,1.4-0.3,2c-11.1,2-22.1,4-33.2,6.1c0.1,1.6,0.2,3.2,0.3,4.9
		c19.2,0.8,38.4,1.7,57.6,2.5c-1.7,2.9-3.8,3.8-5.5,5.2c-2.4,2.1-4.4,4.5-6.6,6.8c2.3,2,4.4,4.6,7,6c8.2,4.1,16.6,7.7,23.3,10.8
		c-2,3-4.1,6.2-6.3,9.5c3.4,1.9,6.6,4.4,10.2,5.6c5.4,1.9,12.2,0.3,15.2,7.7c0.5,1.2,4.2,1.2,6.5,1.6c3.4,0.5,6.8,0.8,10.3,1.1
		c-7.3,4.3-6.4,8.3-1.3,12.2c2.3,1.8,5.2,2.9,7.9,4.3c13.2,6.9,29.4,7.8,37.8,23.7c4.1,7.8,19.3,9,25,5.2c0,12.1,0,24.2,0,36.3
		c-12.5,2.1-24.9,4.2-37.4,6.5c-13.8,2.5-27.7,4.8-41.4,7.8c-6.5,1.4-13.1,3.6-19,6.5c-6.2,3.1-11.8,7.5-20,12.9
		c20.1,1.3,38,2.5,55.9,3.6c-0.1,1.4-0.2,2.8-0.3,4.2c-22.6,1.6-45.1-0.9-68.3-3.5c-0.9,1.7-2.4,4.8-5.2,10.3
		c2.2-12.3-7.4-12.3-11.3-17.1c-3.1,4.6-6.2,9.2-9.7,14.5c-10.5-2.5-22.7-5.3-35.7-8.4c-0.4,0.7-2.1,3.3-4.1,6.5
		c-4-10.9-34.5-15.7-46.6-8.4c-2.4-1.9-4.8-3.8-7.5-5.9c-1.8,4.9-3.4,9.1-5.5,14.8c-1.2-6-2-9.7-3.1-15.1c-4.4,4-7.1,6.4-9.7,8.7
		c-12-7.4-13.4-6.9-16.5,6.8c-1.5,6.5-2.2,13.1-3.2,19.7c-0.8,0.2-1.5,0.3-2.3,0.5c-1.3-5.7-2.6-11.5-4-17.6
		c-2.3,0.1-5.1,0.2-5.4,0.3c-3.1-4.6-5.2-7.7-8.4-12.4c-1.5,7.7-2.5,12.7-3.5,17.7c-0.8-0.2-1.6-0.4-2.4-0.5
		c-2.9-8.1-5.7-16.1-9.3-26.2c-3.9,0.9-8,1.9-12.1,2.9c1.6,1.5,3.3,3.1,6,5.7c-2.2,5.1-5,11.8-7.8,18.5c-1.1-0.3-2.3-0.6-3.4-0.9
		c0.9-5.2,1.7-10.3,2.9-17.4c0.1,0-2.2-1.6-6.4-4.6c-2.7,8.4-4.9,15.3-7.5,23.6c-2.5-2.7-4.5-4.9-6.5-7.1c-0.9,1.3-1.8,2.7-3.8,5.4
		c-1.6-5.6-2.8-9.6-3.9-13.6c-0.8,0.1-1.7,0.2-2.5,0.3c0.2,4.4,0.5,8.8,0.7,13.4c-0.9-0.2-1.8-0.6-2.7-0.5c-7.4,1.2-17.7-6.3-21,7.4
		c-0.4,1.6-3.9,3.8-5.6,3.4c-7.9-1.5-15.7-3.8-23.9-5.8c2.5-1.3,5.4-2.7,8.2-4.2c-0.2-0.7-0.3-1.4-0.5-2.1c-7.3,0.7-14.5,1.4-21.4,2
		c0,4.5,0,7.6,0,13.2c-8-6.9-14.1-12.1-21.9-18.8c0.4,13.7,0.4,13.6,8.7,17.8c4.4,2.2,9.9,3.9,12.5,7.6c7.9,10.7,19.2,8.1,29.8,9.8
		c16.3,2.7,36.2-4,45.9,14.1c4.9-2.2,9.4-5.7,14.1-6c6.7-0.5,13.8,3.1,20.2,2c20.8-3.5,37.7,8.8,56.4,13.5c4.8,1.2,9.4,1.7,14.2,2.5
		c8.3,1.4,16.3,3.9,24.5,5.6c5.6,1.2,11.8,3.6,16.8,2.3c9.4-2.6,17.4-4.9,20.7,7c8.4-3,15.9-5.7,23.5-8.4c9.5,3.6,19.5,6.6,29.1,5.8
		c12.9-1,18.7,1.9,20.8,15.2c-2.6-0.6-5.2-1.1-8.1-1.8c3.9,18.5,3.9,18.5-5.1,26.5c8.8,8-0.6,13-4.5,16.9c-3.1,3-10.3,1.9-16.4,2.8
		c2-6.7,3.7-12.2,5.4-17.8c-10.9-3.8-20.5-7.2-30.1-10.5c2.2-13.2,2.2-13.2-3.2-17.3c-0.7,6.7-1.3,13.5-2,20.3
		c-0.9,0.1-1.8,0.2-2.7,0.3c-3.1-7.2-6.2-14.5-9.3-21.9c-0.2,0.9-1.6,3.2-1.2,5c1.6,8.1,3.9,16.1,5.4,24.2c0.5,2.5-0.6,5.4-1,8.1
		c-2.8-1.1-5.8-1.9-8.4-3.4c-1.4-0.8-2-2.8-3-4.2c-0.5,7-1,13.6-1.6,20.8c-12.2-1.8-20.6-12-31.9-3c-8.3,6.6-15.1,16.8-13.3,26.4
		c-9.2,3-14.7,12.6-25.9,13.2c-5.4,0.3-6.5,5.2-1.9,9.5c2,1.9,3.8,4,5.7,6.1c1-1,2.2-2.7,3.9-3.5c2.1-1,4.5-1.3,6.8-2
		c-0.5,2.4-0.7,4.8-1.4,7.1c-0.7,2.1-2,4-3,5.9c1.1,0.6,2.2,1.3,3.3,1.9c3-4.8,5.9-9.5,9.6-15.5c2.8,6.6,11.8,11.1,3.8,19
		c-3.7-1-6.9-1.8-11.4-2.9c0.6,6.8,1,11.8,1.5,17.7c-4.3-3.5-7.7-6.3-13.1-10.8c0.8,6.2,1.1,9,1.7,13.1c11.1-5.4,7.9,5.6,12,8.9
		c-0.5,0.7-1,1.4-1.5,2.1c-3.4-2-6.8-4.1-10.7-6.4c-2.2,3.6-4.3,6.8-7.1,11.4c-3.9-11.6-12.2-11.6-21-9.3
		c0.3-17.1,1.4-18.2,13.6-13.3c-0.8,2.7-1.6,5.4-2.4,8.1c0.6,0.3,1.2,0.5,1.8,0.8c4.1-6,8.2-12.1,10.9-16
		c-3.6-7.8-6.4-13.8-9.5-20.5c-4.5,0.7-10.9,1.8-17.3,2.8c-0.2-1.1-0.4-2.1-0.6-3.2c2.2-1.9,4.3-3.7,6.5-5.6c-1.9-3-3.7-5.8-6-9.4
		c4.7-1.2,7.8-2,12.2-3.1c-4-2.6-6.7-4.4-8.1-5.3c2-3.7,3.5-6.7,4.7-9.1c-7.5-2.9-13.5-5.1-20-7.6c-0.6,4.7-0.9,7.6-1.3,11.3
		c-4.6-0.6-10.8,0.3-12.6-2.1c-11.3-15.2-23.6-3-35.3-1.8c-1.4,0.2-3,6.3-3.1,9.7c0,2.7,2.1,5.5,3.7,9.2
		c-9.8,2.5-17.4,7.3-17.5,16.6c-5.6,0.3-12.1-1.1-13.5,1c-4.4,6.5-16.7,10.1-9.2,21.5c-4.3,0-7.9,0-11.6,0
		c-5.1-35.9-11.3-71.5-34-101c-3.1,6.3-8.4,12.5-9,19.3c-1.2,12.3-6.9,21.4-14.8,30.1c-1.8,2-2.2,5.4-3.2,8.2
		c0.8,0.4,1.6,0.8,2.5,1.3c-5.5,5.6-11.6,7.1-18.9,3.7c-5-2.3-6.2-4.6-1.5-8.4c3.6-2.9,7.1-5.9,11.8-9.8c-5-3.5-9.2-6.4-13-9.1
		c5-3.2,10.3-6.5,16.6-10.5c-5-0.5-8.4-0.5-11.5-1.4c-3.9-1-7.6-2.8-11.3-4.3c1.7-3.6,3.4-7.2,5-10.7c-1.3-0.1-3.2-0.4-3.9-0.4
		c2.8-4.7,5.5-9.1,9.8-16.1c-13.2,0-22.6,0-32,0c-0.3-0.9-0.6-1.9-0.9-2.8c3.9-3,7.8-6.1,12.6-9.8c-5.9-1.6-10.9-2.9-15.8-4.3
		c0.5-1.9,1-3.9,1.5-5.8c-4.2-1-8-1.2-11.2-2.7c-2.3-1.1-5.7-3.9-5.5-5.6c0.8-6.7-3.1-9.5-8.2-10.8c-16.5-4.3-33.1-7.1-49.6,0.4
		c-1.4-2.3-2.7-4.6-4.1-6.9c-1.1,0.2-2.1,0.3-3.2,0.5c0,6.5,0,13.1,0,20.9c-4.2,3.8-7.1,14.5-18.3,8.9c-0.5-0.2-1.3,0.1-1.9,0.4
		c-9.7,5.1-19.3,10.7-29.3,15.1c-4,1.8-9.2,1.8-13.6,1.1c-7.2-1.1-13-4.4-21.2,1c-6.5,4.3-17.1,10.4-25.3-0.4
		c-0.2-0.2-1.2,0.2-2.3,0.5c0,2.5,0.5,5.2-0.1,7.7c-0.5,1.8-2.4,4.8-3.5,4.8c-9-0.6-17.9-2-26.9-2.8c-4.7-0.4-9.5-0.1-14.3-0.1
		c0.1,0.4,0.2,0.7,0.3,1.1c-26.8-7.3-53.6-14.6-80.9-22c-2.4,1.9-5.8,4.6-8.1,6.4c-3.1-1.9-5.2-4.4-7-4.2c-7,0.8-14.1,1.7-20.7,3.9
		c-6.2,2.1-11.5,4.7-17.7-0.5c-1.9-1.6-6.3-0.2-9.5-0.2c-3.8-3.8-8.5-6.9-13.4-7.2c-5.1-0.3-10.3,2.1-15.9,3.4
		c-0.5-6.7,2.1-14.1-7.8-11.8c-1.1,4.9-2.2,9.6-3.9,16.8c-5.4-5.1-9.4-8.7-14.4-13.4c-1.8,3.4-3.5,6.4-5.4,10
		c-5.5-3.1-10.8-7.5-16.7-8.9c-9.5-2.2-18.1-4.1-20.7-15.6c-0.5,5-1,10.1-1.5,14.5c-10.8,3-20.7,6.2-30.8,8.2
		c-7.1,1.4-10.9,6.2-9.6,11.7c1,4.2,6.8,7.5,11,10.5c4.6,3.3,9.9,5.6,14.5,8.9c7.4,5.3,12.4,14.9,24.3,11.4c10.1-3,20.6-5,30.6-7.3
		c1.9,3.4,3.3,6,4.6,8.4c13-4.6,18.7,0.1,16.5,13.1c-12.7,4.2-25.5,5.9-38.9,1.3c-1.6,4.9-3.2,10-4.6,14.2
		c-6.2-5.6-11.7-10.7-17-15.4c-4.6,8-8.9,15.5-12.1,21c-5.5,2.4-9.5,4.1-13.7,6c0.1-1,0.4-2.3,0.5-3.5c0.2-3,1.4-8,0.3-8.7
		c-4.3-2.4-9.4-3.3-14.2-4.8c-0.7,3.8-1.3,7.6-2.3,11.3c-1.2,4.4-2.2,9-4.3,13c-1,1.9-4.1,2.7-6.3,3.8c-7.7,3.9-15.2,8.4-23.3,11.3
		c-2.3,0.8-6.3-2.9-8.8-4.2c-2.2,2.4-4.2,4.7-6.3,6.9c-1.1-1.3-2.8-2.5-3.1-4c-1.3-7.8,5.7-16.6-2.7-23.8c-0.7-0.6,0.3-3.3,0.6-5.8
		c-8,7-13.6,11.9-20.2,17.7c5.7,4,10.3,7.2,14.9,10.5c0.7-0.6,1.5-1.2,2.2-1.7c-0.3,5.1-0.6,10.3-1,17c-5.7-2.8-10.7-3.7-12.1-6.4
		c-4.3-8.7-7.4-18.1-10.8-27.3c-0.4-1.1,0.1-2.8,0.7-3.8c5.6-9.8,11.3-19.4,17-29.1c-3.8-3.2-7.9-9.6-12-9.5
		c-12.9,0.3-7.5-7-7.6-15.7c3.8,4.5,5.7,6.9,8.7,10.5c0-5.1,0-8.9,0-13.7c0.6-0.2,2.9-0.8,8.2-2.3c-8.4-3.7-15.3-9.7-19.7-8.1
		c-9.6,3.4-13.6-3.8-20-6.6c-3.8-1.7-7.8-2.9-14.4-5.2c-1.9-3.7-5.2-10.2-8.9-17.3c-4.9,6.1-7.6,12.4-12.4,14.9
		c-12.9,6.9-27,8-41.1,3.3c-8.8-2.9-15.1-2.7-20,7.1c-2,4-8.8,5.6-13.4,8.4c-2.5-4.4-5.1-8.6-7.4-13.1c-1.8-3.6-3.2-7.4-4-9.3
		C6,568.5,1.6,570.5-2.9,572.4z M750.1,505.4c3.3,0.4,6.8,0.2,9.9,1.2c6.2,2.1,8.5,0.1,7.5-4.2c10-4.7,18.9-8.9,27.9-13.1
		c-0.5-1-0.9-2-1.4-3c-4.5,1.4-10.1,5.1-13.4,3.7c-10.7-4.7-21.1-7.6-33.2-8.3c-8.8-0.5-16.6-0.1-24.7,2.7
		c-12.9,4.4-25.7,1.8-31-6.5c-3.1,0.5-8-0.1-9.4,1.8c-6.7,9.2-16.3,6.7-25.5,8.8c10.3,2.3,20.6,4.6,30.9,6.8
		c-0.3,1.3-0.5,2.5-0.8,3.8c-8.9-1.6-17.8-3.4-26.7-4.8c-2.4-0.4-4.9,0.3-7.3,0.4c-2.3,0-4.8,0.2-7-0.3c-5-1.2-9.8-3.9-14.8-4.2
		c-6.9-0.4-13.9,1.8-19.3-5.1c-0.8-1-5.6,1.1-8.6,1.8c1,2.2,1.4,5.6,3,6.4c8.4,4.3,16.8,9.9,25.7,11.2c11,1.6,22.6,7.3,34.1,0.2
		c2.1-1.3,7.3-0.9,8.5,0.6c5.3,6.8,17.1,8.4,22.7,2.6c2.5-2.5,5.9-4.1,8.9-6.1c0.3,0.4,0.5,0.9,0.8,1.3c-2.9,2.7-5.8,5.4-10,9.4
		c5.7,1.5,9.1,2.4,12.4,3.3c7.5-13.2,36.2-20.7,50.3-13.2c-3.4,1.1-6.4,2.1-9.3,3.1c-9.4,1.7-18.8,3.1-28,5.1
		c-2.7,0.6-5,2.9-7.5,4.4c2.5,2.2,4.8,6.2,7.5,6.4c7.2,0.5,14.7,0,21.9-1.1c5.3-0.8,10.3-3.2,15.4-4.9
		C756.5,512.2,753.3,508.8,750.1,505.4z M334.4,522.7c8-3.1,15.8-4.4,24,0c2.6,1.4,6.5,0,9.8,0.3c6.2,0.5,12.5,0.8,18.6,2
		c8.8,1.7,17.3,5.3,26.2,6.1c13.2,1.3,26.6,0.1,39.8,1.5c6.7,0.8,11.7,1.5,14.4-6.9c6.2,3.4,11.6,6.3,17.7,9.6
		c0.3-3.4,0.6-6.5,0.8-8.7c-6.8-2.9-12.7-5.4-16.8-7.2c2.3-4.1,6.7-8.7,5.7-10.7c-7.4-15-13.6,1.1-23.6,2.7
		c7.9-8.3,3.4-11.1-2.3-13.5c-9.5-3.9-15.3,2.1-20.2,8c-3.7-2.4-6.4-5.3-9.7-6c-11.7-2.6-21.7,2.1-31,8.5c-5,3.5-27.2,0.7-28-4.9
		c-2-14-4.5-16-17.8-7.3c-14.2,9.3-15.7,6.9-9.2,23c0.5,1.2,1,2.5,1.5,3.7c-3.3-1.4-6.7-2.8-10-4.3c-9.9-4.3-26.1-0.6-32.9,10.3
		C307.5,526.6,321,524.6,334.4,522.7z M638.1,539.2c-3.8-2-8.3-5.2-8.9-4.5c-6.8,7.1-13.1,4.7-19.8,0c-1.3-0.9-5.2-0.6-5.6,0.2
		c-3.6,7.6-10.1,2-15,3.4c-4.7,1.3-9.9,1.2-14.8,0.6c-2.5-0.3-5.2-2.6-6.8-4.8c-0.6-0.8,1.6-3.7,2.4-5.5c-1.9,0.1-5,0.2-6.4,0.3
		c-3.5,5-6.2,8.8-9.6,13.7c7.7,0.7,15.2,1.5,22.7,2.1c10.5,0.9,21,2.4,31.6,2.6c16.9,0.3,33.7-0.1,50.6-0.5c2.3-0.1,4.5-1.6,6.8-2.4
		c-1.2-3-3-8.6-3.4-8.5C653.9,538,644,526.8,638.1,539.2z M577,508.8c-0.2-14.7,7.7-18.1,18.3-19.6c-3.6-1.2-6.7-0.5-9.8-0.3
		c-3.4,0.3-6.9,0.2-10.3,0.2c0.6-3.2,1.2-6.4,1.8-9.9c-6-0.8-11.9-3.1-14.4,7.2c-1.4,5.8-7.2,10.2-15.1,6.4c-2.6-1.3-6.1-0.6-10.9-1
		C549.1,503.6,566.7,493.6,577,508.8z M198.8,582.8c8.7,10.1,17,5.5,25,0.9c0.8-0.5,0.5-5.9-0.8-6.9
		C213.2,569.7,206.3,576.2,198.8,582.8z M329.7,166.2c4.2,1.1,9.4,1.2,12.4,3.8c3.3,2.8,4.7,7.9,6.9,12c1.5-0.6,3-1.2,4.4-1.9
		c-2.4-6.4-4.3-13.1-7.2-19.3c-3.2-7.1-10.1-7.2-14.2-0.5C330.8,162.3,330.2,164.8,329.7,166.2z M292.7,507.7
		c-0.1,0.7-0.1,1.5-0.2,2.2c7.1,0.6,14.3,1.4,21.4,1.8c4.2,0.2,10,0.6,8.6-5.8c-0.5-2.1-6.9-4.6-10.1-4.1
		C305.7,502.7,299.2,505.6,292.7,507.7z M494.5,48.2c6.4,4.7,12.8,9.4,19.2,14.1C510.6,52.6,505.1,46.5,494.5,48.2z M479.3,49.8
		c-0.8,1.1-1.5,2.1-2.3,3.2c2.7,2.3,5.5,4.4,8,6.9c2.4,2.3,4.6,4.8,6.9,7.2c1.1-1.3,2.3-2.6,3.4-4C490,58.7,484.7,54.3,479.3,49.8z
		 M1139.6,577.9c-0.8,0.3-1.7,0.6-2.5,0.9c2.7,5.1,5.4,10.1,8.7,16.5c2.4-3.1,3.8-4.9,4.4-5.7
		C1146.2,585.1,1142.9,581.5,1139.6,577.9z M512.3,500.6c0.8-0.3,1.7-0.6,2.5-1c-1.2-2.9-1.8-6.7-4-8.4c-1.6-1.3-5.3,0.2-10.8,0.7
		C505.7,496,509,498.3,512.3,500.6z"/>
	<path d="M-2.9,572.4c4.5-1.9,8.9-3.9,15.8-6.9c0.8,1.9,2.2,5.7,4,9.3c2.3,4.5,4.9,8.7,7.4,13.1c4.6-2.7,11.4-4.4,13.4-8.4
		c4.8-9.8,11.2-10.1,20-7.1c14.1,4.7,28.2,3.6,41.1-3.3c4.8-2.6,7.5-8.8,12.4-14.9c3.7,7.2,7,13.7,8.9,17.3
		c6.5,2.4,10.6,3.5,14.4,5.2c6.3,2.8,10.3,10,20,6.6c4.3-1.5,11.3,4.4,19.7,8.1c-5.4,1.5-7.7,2.2-8.2,2.3c0,4.8,0,8.6,0,13.7
		c-2.9-3.6-4.9-5.9-8.7-10.5c0.1,8.7-5.3,16,7.6,15.7c4-0.1,8.2,6.3,12,9.5c-5.7,9.7-11.4,19.4-17,29.1c-0.6,1.1-1.1,2.8-0.7,3.8
		c3.4,9.2,6.4,18.6,10.8,27.3c1.3,2.7,6.4,3.5,12.1,6.4c0.4-6.7,0.7-11.8,1-17c-0.7,0.6-1.5,1.2-2.2,1.7c-4.6-3.2-9.1-6.4-14.9-10.5
		c6.6-5.8,12.2-10.7,20.2-17.7c-0.3,2.5-1.4,5.2-0.6,5.8c8.4,7.3,1.4,16,2.7,23.8c0.2,1.5,2,2.7,3.1,4c2.1-2.3,4.1-4.5,6.3-6.9
		c2.5,1.3,6.5,5,8.8,4.2c8.1-2.9,15.6-7.4,23.3-11.3c2.2-1.1,5.4-2,6.3-3.8c2-4,3.1-8.6,4.3-13c1-3.7,1.5-7.5,2.3-11.3
		c4.8,1.5,9.9,2.4,14.2,4.8c1.2,0.7-0.1,5.7-0.3,8.7c-0.1,1.2-0.3,2.5-0.5,3.5c4.2-1.8,8.2-3.5,13.7-6c3.2-5.5,7.5-13,12.1-21
		c5.2,4.8,10.8,9.8,17,15.4c1.4-4.2,3-9.3,4.6-14.2c13.3,4.5,26.2,2.9,38.9-1.3c2.2-13-3.5-17.7-16.5-13.1c-1.3-2.4-2.7-4.9-4.6-8.4
		c-10,2.4-20.4,4.3-30.6,7.3c-11.9,3.5-16.9-6.1-24.3-11.4c-4.6-3.3-9.9-5.6-14.5-8.9c-4.2-3-10-6.4-11-10.5
		c-1.3-5.5,2.5-10.3,9.6-11.7c10.1-2,20-5.2,30.8-8.2c0.5-4.5,1-9.5,1.5-14.5c2.6,11.5,11.2,13.4,20.7,15.6c6,1.4,11.2,5.8,16.7,8.9
		c1.9-3.6,3.6-6.6,5.4-10c5.1,4.7,9,8.4,14.4,13.4c1.7-7.2,2.7-11.9,3.9-16.8c9.9-2.3,7.4,5.1,7.8,11.8c5.6-1.3,10.8-3.7,15.9-3.4
		c4.9,0.3,9.5,3.5,13.4,7.2c3.2,0,7.6-1.4,9.5,0.2c6.2,5.3,11.5,2.6,17.7,0.5c6.6-2.2,13.7-3.1,20.7-3.9c1.8-0.2,3.9,2.3,7,4.2
		c2.2-1.8,5.7-4.5,8.1-6.4c27.2,7.4,54,14.7,80.9,22c-0.1-0.4-0.2-0.7-0.3-1.1c4.8,0,9.6-0.3,14.3,0.1c9,0.8,17.9,2.2,26.9,2.8
		c1.1,0.1,3-2.9,3.5-4.8c0.6-2.5,0.1-5.2,0.1-7.7c1.1-0.2,2.1-0.7,2.3-0.5c8.2,10.8,18.8,4.7,25.3,0.4c8.2-5.4,14-2.1,21.2-1
		c4.4,0.7,9.6,0.6,13.6-1.1c10-4.4,19.6-10,29.3-15.1c0.6-0.3,1.5-0.7,1.9-0.4c11.2,5.5,14.1-5.1,18.3-8.9c0-7.8,0-14.3,0-20.9
		c1.1-0.2,2.1-0.3,3.2-0.5c1.3,2.3,2.7,4.5,4.1,6.9c16.5-7.5,33.1-4.7,49.6-0.4c5,1.3,8.9,4.1,8.2,10.8c-0.2,1.7,3.2,4.6,5.5,5.6
		c3.2,1.5,7,1.8,11.2,2.7c-0.5,1.9-1,3.9-1.5,5.8c5,1.3,9.9,2.7,15.8,4.3c-4.8,3.8-8.7,6.8-12.6,9.8c0.3,0.9,0.6,1.9,0.9,2.8
		c9.4,0,18.8,0,32,0c-4.3,7-7,11.4-9.8,16.1c0.7,0.1,2.6,0.3,3.9,0.4c-1.6,3.5-3.3,7.1-5,10.7c3.8,1.5,7.4,3.2,11.3,4.3
		c3.2,0.8,6.6,0.8,11.5,1.4c-6.3,4-11.5,7.3-16.6,10.5c3.9,2.7,8.1,5.6,13,9.1c-4.7,3.9-8.2,6.9-11.8,9.8c-4.8,3.8-3.6,6.1,1.5,8.4
		c7.4,3.4,13.5,1.9,18.9-3.7c-0.8-0.4-1.6-0.8-2.5-1.3c1-2.8,1.4-6.1,3.2-8.2c7.9-8.6,13.6-17.7,14.8-30.1c0.7-6.7,5.9-13,9-19.3
		c22.7,29.4,28.9,65,34,101c3.6,0,7.3,0,11.6,0c-7.5-11.3,4.8-15,9.2-21.5c1.4-2.1,7.9-0.7,13.5-1c0.1-9.3,7.7-14.1,17.5-16.6
		c-1.6-3.7-3.8-6.4-3.7-9.2c0-3.4,1.6-9.6,3.1-9.7c11.7-1.3,24-13.5,35.3,1.8c1.8,2.4,8,1.4,12.6,2.1c0.4-3.7,0.8-6.6,1.3-11.3
		c6.5,2.5,12.4,4.7,20,7.6c-1.2,2.3-2.8,5.3-4.7,9.1c1.4,0.9,4.1,2.7,8.1,5.3c-4.4,1.1-7.5,1.9-12.2,3.1c2.3,3.7,4.1,6.5,6,9.4
		c-2.2,1.8-4.3,3.7-6.5,5.6c0.2,1.1,0.4,2.1,0.6,3.2c6.4-1.1,12.8-2.1,17.3-2.8c3.1,6.7,5.9,12.7,9.5,20.5c-2.7,4-6.8,10-10.9,16
		c-0.6-0.3-1.2-0.5-1.8-0.8c0.8-2.7,1.6-5.4,2.4-8.1c-12.2-4.8-13.4-3.8-13.6,13.3c8.8-2.3,17.1-2.3,21,9.3
		c2.8-4.5,4.9-7.8,7.1-11.4c3.8,2.3,7.3,4.3,10.7,6.4c0.5-0.7,1-1.4,1.5-2.1c-4.1-3.3-0.9-14.4-12-8.9c-0.5-4-0.9-6.9-1.7-13.1
		c5.4,4.5,8.8,7.3,13.1,10.8c-0.5-5.9-0.9-10.9-1.5-17.7c4.4,1.1,7.7,2,11.4,2.9c8-7.9-1-12.4-3.8-19c-3.7,5.9-6.7,10.7-9.6,15.5
		c-1.1-0.6-2.2-1.3-3.3-1.9c1-2,2.3-3.8,3-5.9c0.8-2.3,1-4.7,1.4-7.1c-2.3,0.6-4.7,0.9-6.8,2c-1.7,0.8-2.9,2.5-3.9,3.5
		c-1.9-2.1-3.7-4.2-5.7-6.1c-4.6-4.3-3.5-9.3,1.9-9.5c11.2-0.6,16.7-10.2,25.9-13.2c-1.8-9.7,5-19.9,13.3-26.4
		c11.3-8.9,19.8,1.2,31.9,3c0.5-7.1,1-13.7,1.6-20.8c0.9,1.4,1.6,3.5,3,4.2c2.6,1.5,5.6,2.3,8.4,3.4c0.4-2.7,1.5-5.6,1-8.1
		c-1.5-8.1-3.8-16.1-5.4-24.2c-0.4-1.9,1-4.1,1.2-5c3.2,7.4,6.3,14.7,9.3,21.9c0.9-0.1,1.8-0.2,2.7-0.3c0.7-6.8,1.3-13.7,2-20.3
		c5.3,4.1,5.3,4.1,3.2,17.3c9.7,3.4,19.3,6.7,30.1,10.5c-1.7,5.6-3.4,11.1-5.4,17.8c6.1-0.8,13.3,0.3,16.4-2.8
		c4-3.8,13.3-8.8,4.5-16.9c9-8,9-8,5.1-26.5c2.9,0.6,5.5,1.2,8.1,1.8c-2-13.3-7.9-16.3-20.8-15.2c-9.7,0.8-19.6-2.2-29.1-5.8
		c-7.6,2.7-15.2,5.4-23.5,8.4c-3.3-11.9-11.3-9.6-20.7-7c-5,1.4-11.2-1.1-16.8-2.3c-8.2-1.7-16.3-4.2-24.5-5.6
		c-4.8-0.8-9.4-1.3-14.2-2.5c-18.7-4.7-35.5-17-56.4-13.5c-6.4,1.1-13.5-2.4-20.2-2c-4.7,0.3-9.2,3.8-14.1,6
		c-9.7-18.1-29.6-11.5-45.9-14.1c-10.6-1.7-21.9,0.9-29.8-9.8c-2.7-3.6-8.2-5.4-12.5-7.6c-8.3-4.1-8.3-4-8.7-17.8
		c7.8,6.7,13.8,11.9,21.9,18.8c0-5.6,0-8.7,0-13.2c6.9-0.6,14.1-1.3,21.4-2c0.2,0.7,0.3,1.4,0.5,2.1c-2.9,1.4-5.7,2.9-8.2,4.2
		c8.2,2.1,15.9,4.3,23.9,5.8c1.7,0.3,5.2-1.9,5.6-3.4c3.3-13.6,13.6-6.2,21-7.4c0.9-0.1,1.8,0.3,2.7,0.5c-0.3-4.6-0.5-9-0.7-13.4
		c0.8-0.1,1.7-0.2,2.5-0.3c1.1,4,2.3,8,3.9,13.6c1.9-2.8,2.9-4.1,3.8-5.4c2,2.2,4,4.4,6.5,7.1c2.7-8.3,4.9-15.2,7.5-23.6
		c4.1,3,6.4,4.6,6.4,4.6c-1.2,7.1-2,12.3-2.9,17.4c1.1,0.3,2.3,0.6,3.4,0.9c2.8-6.7,5.6-13.4,7.8-18.5c-2.8-2.6-4.4-4.2-6-5.7
		c4.1-1,8.2-2,12.1-2.9c3.6,10.1,6.5,18.2,9.3,26.2c0.8,0.2,1.6,0.4,2.4,0.5c1-5,2-10,3.5-17.7c3.1,4.6,5.2,7.7,8.4,12.4
		c0.4,0,3.2-0.2,5.4-0.3c1.4,6.1,2.7,11.9,4,17.6c0.8-0.2,1.5-0.3,2.3-0.5c1.1-6.6,1.7-13.2,3.2-19.7c3.2-13.7,4.5-14.1,16.5-6.8
		c2.6-2.3,5.2-4.7,9.7-8.7c1.1,5.4,1.9,9.1,3.1,15.1c2.1-5.7,3.7-9.8,5.5-14.8c2.7,2.1,5.2,4.1,7.5,5.9c12.2-7.3,42.6-2.5,46.6,8.4
		c2-3.2,3.7-5.8,4.1-6.5c13,3.1,25.2,5.9,35.7,8.4c3.6-5.3,6.7-9.9,9.7-14.5c3.9,4.8,13.5,4.8,11.3,17.1c2.8-5.5,4.3-8.5,5.2-10.3
		c23.3,2.6,45.7,5.2,68.3,3.5c0.1-1.4,0.2-2.8,0.3-4.2c-17.9-1.2-35.7-2.3-55.9-3.6c8.2-5.4,13.8-9.8,20-12.9c6-2.9,12.5-5.1,19-6.5
		c13.7-3,27.6-5.3,41.4-7.8c12.4-2.2,24.9-4.3,37.4-6.5c0,43.7,0,87.3,0,131c-3.2-1.5-7.5-2.2-9.5-4.7c-6.4-8-14-7.5-22.5-4.8
		c-2.8,0.9-6,1.6-8.8,1c-11.3-2.3-21.8-6-32.5,4.4c-4.2,4-4.9,5.4-2.1,8.8c1.7,2.1,4.8,2.9,7.4,4.3c-1.8,8.4-5.5,17,1.4,23.2
		c-1.4,4.4-2.5,8.2-3.7,12.1c1,0.3,2,0.6,3.1,0.9c5-6.5,10-13,15.2-19.8c2.8,3.1,6,6.7,8.5,9.4c-8.4,13.7-16.4,26.5-24.3,39.4
		c0.9,0.8,1.8,1.5,2.7,2.3c6.2-3.8,12.4-7.6,21.4-13.1c-1.9,7.2-3,11.4-4.7,17.7c5.8-0.9,12.9,0,14.5-2.5c5.9-9.4,13.2-12,24.8-7.1
		c-4.1-5-7.5-7.9-9.2-11.6c-1.1-2.5-0.8-8.3,0.3-8.7c7.2-2.5,7-8.4,7.1-13.9c0.2-7.8,5.1-11.7,10.9-15.2c0,67.8,0,135.7,0,203.5
		c-133,0-266,0-399,0c0.3-1.1,1.2-2.9,0.7-3.3c-9.3-10-13.6-9.3-20.9,3.3c-199.5,0-399,0-598.5,0c-1.4-1.3-2.8-2.7-4.2-4
		c6.9-0.4,13.8-0.8,20.8-1.3c0-1.1-0.1-2.1-0.1-3.2c-4.4-0.9-8.8-1.9-13.2-2.8c-0.3-0.1-0.6-0.3-1-0.2c-4.9,0.5-8.6,1.9-5.8,8
		c-2.9-1.6-5.8-3.1-8.8-4.7c0,0,0.2,0.4,0.2,0.4c1-2.6,2.1-5.1,3.2-7.8c-2.4-0.9-4.6-2.5-6.6-2.3c-6.4,0.6-12.7,1.7-19,3
		c-0.8,0.2-1.3,2-2,3.1c0,0,0.4-0.3,0.4-0.3c-15.9,2.4-31.8,4.9-47.8,7c-5,0.7-10.2,0.1-15.3,0.5c-3.8,0.3-9.3-2.6-9.8,4.7
		c-54.2,0-108.5,0-163.2,0c0-43.7,0-87.3,0-131c4.1,1,8.2,1.9,13.1,3c9.9-9.3,17.9-25.3,37-14.5c1.5-5.2,2.5-8.9,4.1-14.5
		c12.8,9.4,21-0.2,30.6-5.8c3.5-2.1,9-3.3,12.7-2.1c9.8,3,13.9,0.3,13.2-9.9c-20.9-5.9-20.9-5.5-43.3-3.3
		c-7.7,0.8-15.9-0.4-23.5-2.2c-11.5-2.7-19.6,0.2-25.4,10.9c-5.5,10.1-9.8,11.1-18.4,4C-2.9,607.4-2.9,589.9-2.9,572.4z M81.5,717.7
		c1.3-11.9-9.4-7.6-14.5-9.7c-2.9-1.1-7.9,3.2-12.1,5.2c5,4.6,8.5,7.8,12,11.1c-0.2-1.5-0.5-3-0.6-3.9c5.1-1,10.1-2,15-3
		c9.4,5.6,13.6,13.3,10.6,19.2c10.5-0.8,15.1,3.6,17.7,15.7c2.6-7.4,5.3-14.8,8.7-24.4c1.4,2.8,2.4,4.8,2.9,5.8
		c3.4-1.2,5.7-2.4,8.1-2.7c0.8-0.1,3,3.1,2.7,3.5c-7.3,10.6,5.8,8.4,8.3,12.9c-0.7-8.1-1.3-16.1-2.1-26c3.8,9.4,6.9,16.9,10,24.5
		c8.2-0.7,12.8-5.2,11.4-11.4c-1-4.4-2.3-8.7-2.8-13.1c-1.3-12.3-6.8-16.2-17.2-16.1c-1.5-2.6-4.6-4.2-7.8-4.3
		c-1.5,0-3.5,2.6-4.6,4.5c-2,3.5-3.4,7.4-5.6,12.5c3.2,0.3,7,0.8,11,1.2c-3.2,12.8-15.3,7.5-20.4,6.6c-8.5-1.4-15.9-9.3-23.7-14.4
		C86.2,713.5,83.8,715.6,81.5,717.7z M380.2,649.2c-5.2-0.4-10.5-0.8-15.7-1.2c2.3-1.9,5.2-4.4,8-6.8c-2.6-3.9-5-7.6-7.3-11.1
		c-9,2.3-17.9,4.5-26.7,6.9c-3.5,0.9-6.9,2.8-10.4,3.1c-8.2,0.7-18.2,11.9-18.2,21c-4.3-2.6-8.5-5.2-13.3-8.1
		c-3.4,8.4-6.2,15.4-9,22.3c1,0.8,2.1,1.5,3.1,2.3c6.7-3.8,14.8-5.5,17.7-14.7c3.7,6,7.4,12,11.7,19.1c2.4-4.1,3.4-5.8,3.8-6.5
		c10,1.5,4.3,20,19.1,15.1c0.3,6.1,0.6,12.2,1.1,20.9c6.4-5.3,11.1-9.2,16.1-13.3c3.3,0.5,7.9,1.2,12.4,2c0.2,1.8,0.4,4.4,0.6,7
		c4.5-12.7,0.4-22.9-9.9-25.2c4.9-4.2,8.8-7.7,11.5-10c-4.7-2.4-11.9-3.8-12.6-6.8c-2.1-8.5,3.5-12.4,12-12.6c2-0.1,3.9-2.3,5.9-3.6
		c6.5,0.5,13,1,19.4,1.5C386.9,638.6,382.9,638.9,380.2,649.2z M614.5,745.2c0.8-10,1.8-20.7,2.6-31.1c6.5,0.7,10.8,1.1,12.1,1.3
		c5.6,5.4,9.6,9.2,12,11.5c2.8-7.1,5.2-13,7.6-19.2c2.2-0.2,4.5-0.5,8.7-0.9c-3.8-2.3-5.8-3.5-7.6-4.6c1.3-1.6,2.2-2.7,3.1-3.8
		c-0.7-0.6-1.3-1.2-2-1.8c-2.8,2.7-5.6,5.3-8.4,8c-0.7-1-1.4-2-2.1-3c5.5-3.5,11-7,17.8-11.4c-2.9-3.4-5.9-6.8-9-10.4
		c3.2-2,6.4-4,9.5-5.9c-1.5-4.6-3-9.3-4.6-14.1c1.9-0.4,3.8-0.8,5.9-1.2c-1.4-2.4-2.7-4.5-4.4-7.2c3.3-0.5,5.7-0.8,7.3-1
		c0.3-1.9,0.1-3.1,0.7-3.9c1.9-2.4,6.3-5.3,5.9-6.9c-3.5-12,5-21.4,5.1-31.9c7.5,0.5,13.7,0.9,19.9,1.3c0.1-1.5,0.1-3.1,0.2-4.6
		c-9.8,0-19.7,0-29.5,0c-2.6,0-5.2-0.2-7.7-0.5c-11.9-1.3-25-6.4-35.3-2.9c-11.2,3.8-21.7,1.2-32.3,3.1c-6.3,1.1-14,2.5-19.2-0.1
		c-7.9-4-14-0.9-21,0.7c-6.3,1.4-13.3,3.7-19.1,2.2c-7.3-1.9-10,1.2-10.6,6.4c-0.9,8.1-0.2,16.4-0.2,21.9c5.4,3.9,8.9,6.4,13,9.4
		c2.2-3.1,4.4-6.1,7.2-10.1c4.9,10.2,9.7,19.5,14,29.1c1.9,4.3,4.6,9.3,3.9,13.4c-1.2,7-4.9,13.6-8,21.2c2.6,0.5,5.7,1,8,1.4
		c1,4.1,2.1,8.3,3.1,12.4c0.8-0.1,1.6-0.2,2.3-0.3c0-3.9,0-7.7,0-13.9c2.3,3.4,3.1,4.5,4,5.8c2.8-3.8,5.4-7.3,9-12.3
		c0.7,4.9,0.4,8,1.7,10.1c1.3,2.3,4.1,3.7,7,6.1c-3.9,2.1-6.4,3.4-8.9,4.7c4.4,2,9.8,2.6,11.6,5.5c4.1,6.4,9.5,12.6,8.9,21.2
		c0,0.6,1.9,1.6,3.1,2C604.3,742.3,608.8,743.6,614.5,745.2z M785,709.3c-6.8,5.1-17.6,0.5-21.3,11.2c-1.5,4.4-5.8,8.3,2.4,9.9
		c-7.9,7.7,7,11.5,2.5,19c14.3-7.2,11.4-20.9,14.6-32.2c2.2,0.5,5,1.2,10,2.3C789.7,715.1,787.7,712.6,785,709.3z M145.5,617.2
		c-7.4-5.7-15-11.4-23.5-18c-4.2,8.8-7.2,15.1-10,20.9c9.8,2.3,18.3,4.2,27.2,6.3C140.4,624.5,142.4,621.7,145.5,617.2z M12.2,735.4
		c0.5,0.8,1,1.6,1.5,2.4c-4.1-1.2-8.2-2.4-12.1-3.5c2.9,6.4,4.9,10.9,7.7,16.9c1-3.2,1.5-4.7,1.2-3.8c8.4,0,16,0,22.8,0
		c2.5-8.8-17.6-6.9-4.2-19.4c-1.1-0.2-2.3-0.4-3.4-0.6C21.2,730,16.7,732.7,12.2,735.4z M1044.5,689.3c1.6,0.5,3.2,1,4.8,1.6
		c4.3-8.3,8.6-16.6,13.8-26.5c-3.5-1.5-6.9-4-10.3-3.8c-1.5,0.1-2.6,5.6-4,8.6c-1.4,3.2-2.9,6.3-4.8,10.4
		C1047.9,681.4,1051.8,684.3,1044.5,689.3z M935,707.7c2.2-4.5,3.5-7.2,4.2-8.5c4.7,1.9,9.2,3.8,13.8,5.6c0.5-1.1,0.9-2.2,1.4-3.3
		c-3.1-1.5-6.2-3-9-4.3c-0.4-3.6-0.8-7.4-1.1-10.2c-3.8,2.1-6.9,4.4-10.4,5.6c-5.1,1.8-10.4,2.7-15.6,4c0.1,1.1,0.2,2.3,0.3,3.4
		C925.3,698.6,932.6,695.7,935,707.7z M912.9,713.6c-3.9-2.5-6.9-4.3-9.3-5.9c-3.2,5.2-6,9.9-9.2,15c1.9,1,4.4,2.2,5.5,2.8
		c0.2,3.5,0.4,6,0.6,8.5c0.8,0.1,1.5,0.1,2.3,0.2C906.1,727.5,909.4,720.7,912.9,713.6z M541.3,743.6c-8.8,2.3-16.3,4.2-23.7,6.2
		c0.3,1.2,0.6,2.5,0.9,3.7c3.5-0.5,7-1.7,10.4-1.3c2.9,0.4,5.5,2.6,7.6,3.7c2.2-1.1,4.4-2.3,6.3-3.2
		C542.3,749.8,541.9,747.1,541.3,743.6z M859.8,745.8c-5.2-0.6-9.9-2.5-13.4-1.2c-4.1,1.5-7.1,6-10.8,9.4c2.4,1.7,4.8,3.3,5.2,3.6
		C847.5,753.4,853,750,859.8,745.8z M51.2,709.2c-0.1-1-0.3-1.9-0.4-2.9c-3.7,2.7-7.9,4.9-10.9,8.3c-2,2.4-2.2,6.3-3.3,10
		c2.6,1.1,5.2,2.1,6,2.5C45.7,720.6,48.4,714.9,51.2,709.2z M887.1,723.4c0.4,8.4-2,12.7-8.9,14.4c-1.9,0.5-2.9,4.8-4.3,7.4
		c6.1-1.8,10.9-3.7,14.5-6.8C893,734.5,893.7,729.6,887.1,723.4z M974,719.4c-11.3,12.4-11.4,12.9-3.4,19.6
		C971.8,731.8,972.9,725.6,974,719.4z M561.7,743.4c-2.2-7.4-3.7-12.2-5.8-19.2c-3.9,5.3-6.2,8.4-9,12.2
		C551,738.4,554.9,740.2,561.7,743.4z M1209.8,573.5c-1.7-0.8-3.4-1.6-5.2-2.4c-2.3,6.8-4.6,13.6-7,20.3c1.1,0.5,2.1,1,3.2,1.4
		C1203.8,586.5,1206.8,580,1209.8,573.5z M916.1,752.2c-4.1-3-7.2-5.3-12.8-9.4c1.8,7.6,2.9,12.2,4.1,17.6
		C910.8,757.2,913.2,755,916.1,752.2z M1218.6,752.8c-9-2-15.6-3.5-22.3-5c-1.1,0.6-2.1,1.1-3.2,1.7c5.7,1.8,11.3,3.6,17,5.4
		c-1.4,1.3-2.8,2.5-4.1,3.8C1209.4,757.2,1212.7,755.6,1218.6,752.8z M984.1,675.6c-0.3,1.4-0.6,2.8-0.9,4.2
		c3.2,1.7,6.5,3.5,9.7,5.2c0.1-2.9,1.5-7.5,0.2-8.4C991.1,675,987.2,675.8,984.1,675.6z M983.7,721.9c2.3-4.2,4.2-7.7,6.9-12.5
		c-4.7,0.7-8.9,1.4-13.7,2.1C979.8,715.9,981.8,719,983.7,721.9z"/>
	<path class="st1" d="M1286.9,397.1c-5.7,3.8-20.9,2.6-25-5.2c-8.4-15.9-24.7-16.8-37.8-23.7c-2.7-1.4-5.6-2.5-7.9-4.3
		c-5.1-4-6-7.9,1.3-12.2c-3.4-0.4-6.9-0.6-10.3-1.1c-2.3-0.3-6-0.4-6.5-1.6c-3-7.3-9.8-5.8-15.2-7.7c-3.6-1.2-6.8-3.7-10.2-5.6
		c2.2-3.3,4.3-6.6,6.3-9.5c-6.7-3.1-15.2-6.7-23.3-10.8c-2.7-1.3-4.7-3.9-7-6c2.2-2.3,4.2-4.8,6.6-6.8c1.6-1.4,3.8-2.3,5.5-5.2
		c-19.2-0.8-38.4-1.7-57.6-2.5c-0.1-1.6-0.2-3.2-0.3-4.9c11.1-2,22.1-4,33.2-6.1c0.1-0.7,0.2-1.4,0.3-2c-3.4-1-6.9-2-11-3.2
		c1.6-1.8,3-3.3,4.4-4.9c-10.4-7.9-9.6-13.5,2.1-19.5c2.7-1.4,4.3-4.8,6.4-7.3c-3.5-1.3-7.5-4.3-10.3-3.4c-13,4-26.4,4-37.5-2.3
		c-21.2-12-43.9-6.1-65.8-8.5c-9.6-1-18.2,1.9-27.2,3c-17.1,2.1-34.6,1.4-52,0.7c-7-0.3-13.4-3.5-15.2-12.2
		c-0.5-2.3-4.6-4.4-7.4-5.5c-5-1.9-10.8-2-15.4-4.5c-10.1-5.6-19.1-6.8-30.3-1.2c-5,2.5-13.4-2-20.2-5.6
		c40.7-5.7,81.4-11.4,122.1-17c0-0.5-0.1-1.1-0.1-1.6c-41.8,4.5-83.6,8.9-125.4,13.4c-0.1-0.5-0.2-1-0.2-1.6
		c2.2-0.8,4.5-1.6,6.7-2.4c-0.1-0.8-0.1-1.5-0.2-2.3c-3.5,0-7,0.1-10.4,0c-33.4-1.5-67-1.5-100.2-5.2c-12.5-1.4-26.2-5.8-36.9-15.5
		c-6-5.4-14.6-7.7-21.5-12.2c-12.2-8-23.9-16.6-36.3-28c18.4-4.4,36.7-8.9,55.1-13.3c6.2-1.5,12.5-2.4,18.7-4.1
		c3.7-1,10.4-0.2,7.5-7.3c-2.2-5.4-7.2-9-13-5.3c-8.8,5.6-18,5.7-28,5.3c-13.2-0.6-26.5,0.1-39.6,1.6c-20.1,2.3-28.3-1.4-37.6-19
		c-3.4-6.4-2.3-21.7,2.7-26.5c7.5-7.2,6-14.4-0.5-20c-8.2-7.1-14.3-14.4-16-25.6c-0.5-3.7-4.7-6.9-7.6-10.9
		c3.7-2.9,7.1-5.6,11.3-8.9c-5-3.7-7.8-7.5-14.1-3.1c-7.2,5-12.6-1.2-17.1-5.9c-2.2-2.3-2.3-6.6-3.4-10c237.1,0,474.2,0,711.4,0
		C1286.9,120.3,1286.9,258.7,1286.9,397.1z"/>
	<path class="st2" d="M505-18c0.6,1.2,2,2.5,1.8,3.5c-0.8,3.9-2.1,7.7-3.2,11.5c-2.5-2.4-5-4.7-7.4-7c-0.4,0.6-1.6,2.4-3.6,5.3
		c-1.4-3-2.3-4.9-3.1-6.6c-5.4,9.2-1.9,18.9,7.8,20.5c1.9,0.3,5.8-1.3,5.8-1.9c-0.2-7.5,7-5.2,10.3-8c1.1-0.9,4.6-1,5.4-0.1
		c7.5,8.9,14.7,18.1,22.1,27.2c3,3.7,6.2,7.4,10.9,12.9c-8.3-2.2-14.8-4-23.4-6.3c1.4,4.6,2.4,8.2,4,13.6c-6.7-1-12.9-1.9-22-3.3
		c-7.5-7.9-13.4-7.8-26.6-0.3c-4.8,2.7-11.6,1.8-18.1,2.6c-0.3,3.1-0.5,5.9-0.9,11.3c-5.5-3.1-9.7-5.5-14-7.9c0.3-0.9,0.7-1.7,1-2.6
		c-2.8,1.3-5.7,2.7-9,4.3c6,7.8,11.5,14.9,17,22.1c-0.6,0.5-1.1,1.1-1.7,1.6c-1.9-1.3-3.9-2.6-6.6-4.3c-1.6,4.9-3.1,9.7-4.8,14.8
		c-1.2-0.5-3.1-1.4-5.5-2.5c0.3,3.7,0.6,6.6,0.9,10c-7.4,0.7-12.1-0.6-12.1-9.2c0-13.1-7.5-22.7-16.1-32.5c-1.9,3.5-3.5,6.4-5.1,9.3
		c3.7,4.4,7.5,8.8,12.2,14.4c-12.5,14.1,3.4,21.7,9.1,33.2c-6.1-2.8-12.3-5.7-18.5-8.6c0.8,2.4,1.6,4.8,3.2,9.6
		c-10.8-3.6-19.9-6.7-29.6-10c-0.4,0.8-1.6,3.2-3.8,7.6c-3.3-5-5.6-8.7-7.9-12.2c-2.5,3.3-5.2,6.9-7.9,10.6c-0.8-0.3-1.7-0.7-2.5-1
		c0.8-6.3,1.9-12.6,2.2-18.9c0.1-1.8-1.2-4.3-2.7-5.5c-3.3-2.7-7.2-4.7-8.4-5.4c-5.5,2-11.4,5.5-12.5,4.3c-3.4-3.6-5-8.9-7.6-14.1
		c-0.5,0.4-3.3,2.3-7.1,4.9c-5.6-9.9-13.7-14.7-26.1-11c8.4,9,16.6,17.8,23.3,25c-4.7,5.8-7.6,10.4-11.5,13.7
		c-3.4,2.9-7.9,4.4-11.9,6.4c-0.5-0.7-1.1-1.5-1.6-2.2c-1.6,4.4-4.2,8.8-4.7,13.4c-0.7,6.4,2.6,7.6,8.7,5.4
		c4.4-1.6,9.5-1.2,14.3-1.8c5.3-0.6,12,3.3,14.9-5.1c0.3-0.9,4.8-1.8,5.8-0.9c4.5,4,9,8.1,12.4,13c4.1,5.8,7,12.4,10.5,18.6
		c2.9,5,5.2,9.9-2,13.3c-9.7-6.4-19.3-12.8-29.7-19.7c0,2.7,0,4.9,0,6.4c-5.7,2.1-10.8,4.7-16.1,5.6c-6.6,1-8.1,3.2-7.7,10.2
		c0.2,3.5-5.6,8.4-9.8,10.8c-3.6,2.1-8.8,2.2-13.1,1.8c-3.1-0.3-6.1-2.9-8.9-4.9c-2.9-2.1-5.4-4.7-7.7-6.7c2.1,4.3,4.1,8.2,6,12.1
		c-0.9,0.4-1.7,0.8-2.6,1.2c-9.5-9.6-9.5-9.6-18.3-8.1c11.6,3.7,17.1,15.1,30.4,12.2c11.8-2.6,16.6,9.5,24.1,15.4
		c8.2,6.4,15.5,15.2,25.9,3.3c0.6-0.7,3,0.1,5.4,0.3c-3.7,7.1-7.5,13.2-10.1,19.7c-0.8,1.9,1.1,5.3,2.5,7.5c1.9,3,4.5,5.5,6.9,8.4
		c-5,2.2-9.2,3.9-14.4,6.2c5.4,9.5,10.2,17.8,14.9,26.1c-0.3,0.2-0.6,0.5-0.9,0.7c-4.4-4.1-8.8-8.2-13.5-12.6
		c-1,6.1-4.1,12.5-11.1,9.7c-4-1.6-5.9-8.4-7.9-11.6c-9.3,0.6-18.8,1-28.2,1.8c-2.8,0.2-5.6,2.5-8.2,2.2c-4.1-0.5-10.6-1.6-11.4-4
		c-2.9-8.2-10.1-6.7-15.6-8.6c-1.3-0.4-4,3.5-6.5,5.7c-6.3-4.8-10.8-3.3-11.2,5.5c-3.5,0-6.5,0-9.5,0c0.6,2.7,0.8,5.5,1.8,8
		c1.2,3,3,5.7,6.1,11.4c-5.3-1.8-8-2.4-10.2-3.6c-6.3-3.5-11.9-3-18.3,0.4c-2.6,1.4-7.9,1.3-9.9-0.5c-4.3-3.9-12.4-5.5-10.3-14.4
		c0.2-1-3.3-2.8-5.1-4.3c-3.1,2.3-5.9,4.3-9,6.5c0.7,4.1,1.5,8.8,2.8,16.3c-8.3-5.3-14.2-9.1-21.2-13.6c-1.2,1.7-3.2,4.5-4.4,6.1
		c9.5,10,18.4,19.4,28.4,30.1c-4.3-0.7-7.2-1.1-10.9-1.7c-0.6,3.1-1.2,6.2-2.1,10.2c-5.7-3.2-11.2-6.4-16.7-9.5
		c-0.2,0.5-0.5,1-0.7,1.5c-1.8-3.1-3.6-6.3-5.4-9.4c-1,3.2-2.1,6.4-3.9,12c-3.8-6.3-7.2-12.1-11.3-19c-2.2,5.8-4.5,11.7-7.4,19.3
		c-3.8-5.8-6.4-9.6-9.9-14.9c2.3-1.9,5.8-4.7,9.8-7.9c-1-2.8-2.1-5.8-3.7-10c-2.7,3.4-4.9,6.2-9.2,11.7c-2.5-8.8-5.6-14.9-5.7-21.1
		c-0.2-9.2-4.2-15.3-13.5-13.9c-9.7,1.5-13.3-2.6-14.7-10.9c-0.4-2.3-1.2-4.4-2-7.6c4.6,0.4,8.4,0.7,12.2,1c-1-6.6-1-6.6-24.4-19
		c1.3-2,2.7-3.8,3.7-5.8c0.7-1.6,1.7-4,1.1-5c-0.9-1.3-3.8-2.7-5-2.2c-8.5,3.7-10-1.4-10.2-8.9c-5.9,10.6-5.2,18.4,3.8,26.3
		c5.1,4.5,7.6,12,11.2,18.2c-0.9,0.7-1.8,1.4-2.7,2c-2.2-0.5-4.3-1.1-7.7-2c4,7.2,7.5,13.7,11.3,20.6c-6.8,0.5-12.6,1-15.8,1.2
		c-7.5-3.2-13.7-8.4-19-7.5c-9.4,1.5-13.7-2.4-17.6-9.2c0-84,0-167.9,0-251.9c135.7,0,271.4,0,407.1,0c4.5,3.5,8.9,7.1,15.5,12.3
		c-5.2,0.3-7.2,0.4-9.8,0.5c9.1,8.9,13.4,9.4,22.4,3c-3.3-2-6.5-4-10.7-6.6c4.2-2.3,7.1-3.9,10.2-5.6c-1.5-1.6-2.4-2.6-3.3-3.5
		C453.9-18,479.5-18,505-18z M117.5,179.8c2.9-8.2,5.7-16.5,8.9-25.7c-0.5-0.1-5.7-2.4-6.3-1.6c-5.4,8.2-10.8,2.7-16,0.1
		c-3.7,11.5,2.2,22.9,13.6,26.9c6.5,7.2,7.7,19,18.8,22.2c-0.6,1.8-1.2,3.6-1.8,5.5c-15-11.2-17.7-11.8-28.7-6.6
		c3.1,2.6,6.3,4.7,8.8,7.6c2.5,2.8,4.1,6.3,6,9.2c5.4-4,9.7-7.2,14.1-10.5c0.8,4.7,1.6,9.4,2.4,14c7.9,1.1,8.7-13.2,18.7-8.5
		c6.6,3.1,15.8,2.8,14.7,14c-5,1.1-9.7,2.1-14.3,3.1c4.8,2.2,10.4,3.8,14.2,1.8c5.3-2.7,10-7.1,7.8-15.1c-1.3-4.9,9.3-14,15.7-13.7
		c-2.9-4.1-5.6-7.9-6.6-9.3c-6.1-0.7-12.3,0.2-13.4-1.7c-4.6-8.4-9.5-4.8-14.9-1.2c-1.3-1.6-2.1-3.1-3.4-4
		c-6-4.1-11.8-10.3-18.5-11.5C131.3,173.8,124.1,178,117.5,179.8z M249.2,76.1c4,5.2,7,11.3,11.9,14.9c4.9,3.6,10.1,6,12.5,12.1
		c0.2,0.5,5.7-0.1,7.5-1.7c2.7-2.2,4.3-5.6,6.6-8.9C275.3,84.2,265.1,72,249.2,76.1z M208.6,166.8c-1.9,1.4-3.9,2.8-5.8,4.2
		c1.7,7.7,3.4,15.3,5.6,25.5c4.9-5.9,8.2-9.7,11.5-13.6C215.8,177.1,212.2,172,208.6,166.8z M195.9,238.5c-9.3-1-17.3-1.8-27.7-2.8
		C179.9,249.8,186.6,254,195.9,238.5z M282.5,179.4c-2,6.5-3.4,11-4.9,15.5c2.4,0.1,5.4,1.2,6.9,0.2
		C290.5,191.1,288.6,186.6,282.5,179.4z M92.5,140.1c1.3,6,2.4,11.3,3.9,18.3C101.7,146.8,100,141,92.5,140.1z M375.5,68.2
		c-0.8,0.6-1.7,1.2-2.5,1.9c-0.5,10.1-0.1,10.5,12.1,8.8C381.4,74.8,378.5,71.5,375.5,68.2z"/>
	<path class="st0" d="M1286.9,586.5c-5.8,3.5-10.8,7.3-10.9,15.2c-0.1,5.5,0.1,11.4-7.1,13.9c-1.1,0.4-1.5,6.2-0.3,8.7
		c1.7,3.7,5,6.5,9.2,11.6c-11.6-4.9-18.9-2.4-24.8,7.1c-1.6,2.5-8.7,1.7-14.5,2.5c1.7-6.3,2.8-10.5,4.7-17.7
		c-8.9,5.5-15.2,9.3-21.4,13.1c-0.9-0.8-1.8-1.5-2.7-2.3c7.9-12.8,15.8-25.7,24.3-39.4c-2.4-2.7-5.6-6.2-8.5-9.4
		c-5.2,6.8-10.2,13.3-15.2,19.8c-1-0.3-2-0.6-3.1-0.9c1.2-3.8,2.3-7.6,3.7-12.1c-6.9-6.2-3.2-14.8-1.4-23.2
		c-2.6-1.4-5.8-2.3-7.4-4.3c-2.7-3.4-2-4.7,2.1-8.8c10.7-10.4,21.1-6.7,32.5-4.4c2.8,0.6,6-0.2,8.8-1c8.5-2.6,16-3.2,22.5,4.8
		c2,2.5,6.3,3.2,9.5,4.7C1286.9,571.8,1286.9,579.1,1286.9,586.5z"/>
	<path class="st0" d="M-2.9,624.8c8.6,7.1,12.9,6.1,18.4-4c5.8-10.7,13.9-13.6,25.4-10.9c7.6,1.8,15.8,2.9,23.5,2.2
		c22.5-2.2,22.4-2.7,43.3,3.3c0.8,10.2-3.4,12.9-13.2,9.9c-3.7-1.2-9.2,0-12.7,2.1c-9.6,5.6-17.8,15.2-30.6,5.8
		c-1.6,5.6-2.6,9.3-4.1,14.5c-19.1-10.8-27.2,5.2-37,14.5c-4.9-1.1-9-2.1-13.1-3C-2.9,647.7-2.9,636.2-2.9,624.8z"/>
	<path class="st0" d="M160.4,790.1c0.4-7.3,6-4.5,9.8-4.7c5.1-0.4,10.3,0.2,15.3-0.5c16-2.1,31.9-4.7,47.8-7c0.5,2.7,1,5.5,1.6,9
		c0,0-1.6,0.8-3.1,0.8c-10.2-0.2-20.3-0.8-30.5-0.7c-2.2,0-4.4,2.1-6.6,3.3C183.2,790.1,171.8,790.1,160.4,790.1z"/>
	<path class="st0" d="M428.4-18c0.9,0.9,1.8,1.9,3.3,3.5c-3,1.7-5.9,3.3-10.2,5.6c4.3,2.6,7.5,4.6,10.7,6.6c-9,6.4-13.3,5.9-22.4-3
		c2.6-0.1,4.6-0.2,9.8-0.5c-6.6-5.2-11.1-8.7-15.5-12.3C412.3-18,420.3-18,428.4-18z"/>
	<path d="M194.6,790.1c2.2-1.1,4.4-3.3,6.6-3.3c10.2-0.1,20.3,0.5,30.5,0.7c1.5,0,3.1-0.8,3.1-0.8c-0.6-3.5-1.1-6.2-1.6-9
		c0,0-0.4,0.3-0.4,0.3c8.1,1.4,16.3,2.7,24.4,4.1c0,0-0.2-0.4-0.2-0.4c-6,2.7-12,5.5-18.1,8.2C224.2,790.1,209.4,790.1,194.6,790.1z
		"/>
	<path d="M537.2-18c3.2,5.6,6.3,11.2,10.1,18c-13.1,4.6-15.1-5.2-19.6-10.7c2-2.7,3.7-5,5.5-7.3C534.5-18,535.9-18,537.2-18z"/>
	<path class="st0" d="M867.7,790.1c7.3-12.6,11.6-13.3,20.9-3.3c0.4,0.5-0.5,2.2-0.7,3.3C881.2,790.1,874.4,790.1,867.7,790.1z"/>
	<path class="st0" d="M239,790.1c6-2.7,12-5.5,18.1-8.2c2.9,1.6,5.8,3.1,8.7,4.7c0,0-0.7-0.5-0.7-0.5c1.4,1.3,2.8,2.7,4.2,4
		C259.1,790.1,249,790.1,239,790.1z"/>
	<path d="M334.6,522.8c-0.5-1.2-1.1-2.5-1.6-3.7c-6.5-16-5-13.7,9.2-23c13.3-8.7,15.8-6.6,17.8,7.3c0.8,5.6,22.9,8.4,28,4.9
		c9.2-6.4,19.3-11.2,31-8.5c3.3,0.7,6,3.7,9.7,6c4.9-5.9,10.7-11.9,20.2-8c5.7,2.4,10.2,5.2,2.3,13.5c10-1.6,16.2-17.8,23.6-2.7
		c1,2-3.4,6.6-5.7,10.7c4.2,1.8,10,4.3,16.8,7.2c-0.2,2.2-0.5,5.3-0.8,8.7c-6.1-3.3-11.5-6.2-17.7-9.6c-2.8,8.4-7.8,7.7-14.4,6.9
		c-13.2-1.5-26.6-0.3-39.8-1.5c-8.8-0.9-17.4-4.4-26.2-6.1c-6.1-1.2-12.4-1.5-18.6-2c-3.3-0.3-7.2,1.1-9.8-0.3c-8.2-4.4-16-3.1-24,0
		L334.6,522.8z"/>
	<path d="M750.4,505.6c2.9-1,5.9-2,9.3-3.1c-14.1-7.4-42.8,0.1-50.3,13.2c-3.2-0.9-6.7-1.8-12.4-3.3c4.2-4,7.1-6.7,10-9.4
		c-0.3-0.4-0.5-0.9-0.8-1.3c-3,2-6.4,3.6-8.9,6.1c-5.7,5.8-17.5,4.2-22.7-2.6c-1.2-1.6-6.5-1.9-8.5-0.6c-11.5,7.1-23.1,1.4-34.1-0.2
		c-8.9-1.3-17.3-6.9-25.7-11.2c-1.7-0.8-2.1-4.2-3-6.4c3-0.7,7.8-2.8,8.6-1.8c5.4,7,12.4,4.8,19.3,5.1c5,0.3,9.8,2.9,14.8,4.2
		c2.2,0.6,4.7,0.4,7,0.3c2.4,0,4.9-0.8,7.3-0.4c8.9,1.4,17.8,3.2,26.7,4.8c0.3-1.3,0.5-2.5,0.8-3.8c-10.3-2.3-20.6-4.6-30.9-6.8
		c9.2-2.1,18.8,0.4,25.5-8.8c1.4-1.9,6.2-1.3,9.4-1.8c5.4,8.3,18.1,10.9,31,6.5c8.1-2.8,15.9-3.2,24.7-2.7c12,0.6,22.4,3.6,33.2,8.3
		c3.3,1.4,8.9-2.3,13.4-3.7c0.5,1,0.9,2,1.4,3c-8.9,4.2-17.9,8.4-27.9,13.1c1,4.3-1.4,6.3-7.5,4.2c-3.1-1-6.6-0.8-9.9-1.2
		L750.4,505.6z"/>
	<path d="M638.1,539.2c5.9-12.3,15.8-1.1,23.8-3.2c0.4-0.1,2.2,5.5,3.4,8.5c-2.3,0.8-4.5,2.3-6.8,2.4c-16.9,0.4-33.7,0.8-50.6,0.5
		c-10.5-0.2-21.1-1.6-31.6-2.6c-7.5-0.7-15-1.4-22.7-2.1c3.4-4.9,6.1-8.7,9.6-13.7c1.4-0.1,4.6-0.2,6.4-0.3c-0.8,1.8-3,4.7-2.4,5.5
		c1.6,2.1,4.3,4.5,6.8,4.8c4.9,0.6,10.1,0.6,14.8-0.6c4.9-1.3,11.4,4.2,15-3.4c0.4-0.8,4.3-1.1,5.6-0.2c6.7,4.7,12.9,7.1,19.8,0
		C629.9,534,634.3,537.2,638.1,539.2z"/>
	<path d="M577,508.8c-10.3-15.2-27.9-5.2-40.4-16.9c4.8,0.4,8.3-0.2,10.9,1c7.9,3.8,13.7-0.6,15.1-6.4c2.5-10.3,8.4-8,14.4-7.2
		c-0.6,3.5-1.2,6.7-1.8,9.9c3.4-0.1,6.9,0,10.3-0.2c3.1-0.3,6.2-0.9,9.8,0.3C584.7,490.7,576.8,494.1,577,508.8z"/>
	<path d="M750.1,505.4c3.2,3.4,6.4,6.8,9.6,10.2c-5.1,1.7-10.1,4.1-15.4,4.9c-7.2,1.1-14.7,1.6-21.9,1.1c-2.6-0.2-5-4.1-7.5-6.4
		c2.5-1.5,4.8-3.9,7.5-4.4c9.3-2,18.7-3.5,28-5.1C750.4,505.6,750.1,505.4,750.1,505.4z"/>
	<path d="M334.4,522.7c-13.5,1.9-26.9,3.9-42.8,6.2c6.7-10.9,23-14.6,32.9-10.3c3.3,1.4,6.7,2.9,10.1,4.3
		C334.6,522.8,334.4,522.7,334.4,522.7z"/>
	<path d="M198.8,582.8c7.4-6.6,14.3-13.2,24.1-5.9c1.4,1,1.7,6.4,0.8,6.9C215.8,588.3,207.5,592.9,198.8,582.8z"/>
	<path d="M329.7,166.2c0.6-1.4,1.1-3.9,2.4-5.9c4.1-6.7,11-6.6,14.2,0.5c2.8,6.2,4.8,12.8,7.2,19.3c-1.5,0.6-3,1.2-4.4,1.9
		c-2.2-4.1-3.6-9.2-6.9-12C339,167.4,333.8,167.4,329.7,166.2z"/>
	<path d="M292.7,507.7c6.6-2.1,13-4.9,19.7-5.9c3.3-0.5,9.7,2,10.1,4.1c1.4,6.4-4.4,6-8.6,5.8c-7.2-0.4-14.3-1.2-21.4-1.8
		C292.6,509.2,292.6,508.4,292.7,507.7z"/>
	<path d="M494.5,48.2c10.7-1.7,16.1,4.4,19.2,14.1C507.2,57.5,500.8,52.9,494.5,48.2z"/>
	<path d="M479.3,49.8c5.4,4.4,10.7,8.8,16.1,13.2c-1.1,1.3-2.3,2.6-3.4,4c-2.3-2.4-4.5-4.9-6.9-7.2c-2.6-2.4-5.3-4.6-8-6.9
		C477.8,52,478.6,50.9,479.3,49.8z"/>
	<path d="M1139.6,577.9c3.3,3.6,6.6,7.2,10.7,11.7c-0.6,0.8-2,2.6-4.4,5.7c-3.4-6.4-6.1-11.5-8.7-16.5
		C1138,578.5,1138.8,578.2,1139.6,577.9z"/>
	<path d="M512.3,500.6c-3.3-2.3-6.5-4.6-12.3-8.7c5.5-0.5,9.2-1.9,10.8-0.7c2.2,1.7,2.7,5.5,4,8.4
		C513.9,499.9,513.1,500.3,512.3,500.6z"/>
	<path class="st0" d="M614.5,745.2c-5.7-1.7-10.2-2.9-14.6-4.3c-1.2-0.4-3.2-1.4-3.1-2c0.6-8.6-4.8-14.8-8.9-21.2
		c-1.9-2.9-7.2-3.6-11.6-5.5c2.4-1.3,5-2.7,8.9-4.7c-2.9-2.4-5.7-3.8-7-6.1c-1.2-2.2-1-5.2-1.7-10.1c-3.6,4.9-6.2,8.5-9,12.3
		c-0.9-1.2-1.7-2.4-4-5.8c0,6.2,0,10.1,0,13.9c-0.8,0.1-1.6,0.2-2.3,0.3c-1-4.2-2.1-8.3-3.1-12.4c-2.3-0.4-5.4-0.9-8-1.4
		c3-7.7,6.7-14.2,8-21.2c0.7-4.1-2-9.1-3.9-13.4c-4.3-9.5-9-18.8-14-29.1c-2.8,4-5,7-7.2,10.1c-4.1-3-7.5-5.4-13-9.4
		c0-5.5-0.7-13.8,0.2-21.9c0.6-5.2,3.3-8.4,10.6-6.4c5.8,1.5,12.8-0.7,19.1-2.2c7-1.6,13-4.7,21-0.7c5.2,2.6,12.9,1.3,19.2,0.1
		c10.6-1.9,21.1,0.6,32.3-3.1c10.3-3.5,23.4,1.6,35.3,2.9c2.6,0.3,5.2,0.5,7.7,0.5c9.8,0.1,19.7,0,29.5,0c-0.1,1.5-0.1,3.1-0.2,4.6
		c-6.2-0.4-12.3-0.8-19.9-1.3c-0.1,10.6-8.5,19.9-5.1,31.9c0.5,1.6-3.9,4.4-5.9,6.9c-0.6,0.7-0.4,2-0.7,3.9c-1.6,0.2-4,0.6-7.3,1
		c1.6,2.7,2.9,4.8,4.4,7.2c-2.1,0.4-4,0.8-5.9,1.2c1.5,4.8,3.1,9.5,4.6,14.1c-3.1,1.9-6.3,3.9-9.5,5.9c3.2,3.7,6.1,7,9,10.4
		c-6.8,4.3-12.3,7.8-17.8,11.4c0.7,1,1.4,2,2.1,3c2.8-2.7,5.6-5.3,8.4-8c0.7,0.6,1.3,1.2,2,1.8c-0.9,1.1-1.8,2.3-3.1,3.8
		c1.8,1.1,3.8,2.3,7.6,4.6c-4.2,0.4-6.5,0.7-8.7,0.9c-2.5,6.2-4.8,12.1-7.6,19.2c-2.4-2.3-6.4-6.1-12-11.5
		c-1.3-0.1-5.6-0.6-12.1-1.3C616.2,724.5,615.3,735.2,614.5,745.2z"/>
	<path class="st0" d="M309.8,661c0-9.1,10.1-20.2,18.2-21c3.5-0.3,6.9-2.2,10.4-3.1c8.9-2.3,17.7-4.6,26.7-6.9
		c2.3,3.5,4.7,7.2,7.3,11.1c-2.8,2.4-5.7,4.8-8,6.8c5.2,0.4,10.5,0.8,15.7,1.2l-0.3-0.3c-2,1.2-3.9,3.5-5.9,3.6
		c-8.5,0.2-14.1,4.1-12,12.6c0.7,3,7.9,4.4,12.6,6.8c-2.7,2.3-6.7,5.8-11.5,10c10.3,2.4,14.4,12.5,9.9,25.2c-0.2-2.6-0.5-5.2-0.6-7
		c-4.5-0.7-9.1-1.4-12.4-2c-5,4.1-9.7,8-16.1,13.3c-0.4-8.7-0.8-14.8-1.1-20.9c-14.9,4.9-9.2-13.5-19.1-15.1
		c-0.4,0.7-1.4,2.4-3.8,6.5c-4.3-7.1-8-13.1-11.7-19.1C308.7,662.2,309.2,661.6,309.8,661z"/>
	<path class="st0" d="M81.5,717.7c2.3-2.1,4.7-4.2,6.9-6.2c7.8,5.1,15.2,13,23.7,14.4c5.1,0.8,17.2,6.2,20.4-6.6
		c-3.9-0.4-7.8-0.8-11-1.2c2.3-5.1,3.7-8.9,5.6-12.5c1-1.9,3.1-4.5,4.6-4.5c3.1,0.1,6.3,1.7,7.8,4.3c10.4-0.1,15.9,3.8,17.2,16.1
		c0.5,4.4,1.8,8.8,2.8,13.1c1.4,6.2-3.2,10.7-11.4,11.4c-3.1-7.6-6.2-15.1-10-24.5c0.8,9.8,1.5,17.9,2.1,26
		c-2.5-4.5-15.6-2.3-8.3-12.9c0.3-0.4-1.9-3.6-2.7-3.5c-2.4,0.2-4.8,1.5-8.1,2.7c-0.5-1-1.5-3-2.9-5.8c-3.4,9.6-6.1,17-8.7,24.4
		c-2.6-12.1-7.2-16.5-17.7-15.7c3-5.9-1.2-13.6-10.6-19.2C81.3,717.5,81.5,717.7,81.5,717.7z"/>
	<path class="st0" d="M785,709.3c2.7,3.4,4.7,5.8,8.2,10.2c-5-1.2-7.8-1.8-10-2.3c-3.3,11.3-0.3,25-14.6,32.2
		c4.5-7.4-10.4-11.3-2.5-19c-8.1-1.6-3.9-5.5-2.4-9.9C767.4,709.8,778.2,714.4,785,709.3z"/>
	<path class="st0" d="M145.5,617.2c-3.1,4.5-5.1,7.3-6.3,9.1c-8.9-2-17.4-4-27.2-6.3c2.7-5.7,5.8-12.1,10-20.9
		C130.5,605.8,138,611.5,145.5,617.2z"/>
	<path class="st0" d="M12.2,735.4c4.5-2.7,9-5.4,13.5-8.1c1.1,0.2,2.3,0.4,3.4,0.6c-13.4,12.5,6.6,10.6,4.2,19.4
		c-6.8,0-14.4,0-22.8,0c0.3-0.8-0.2,0.6-1.2,3.8c-2.7-6-4.8-10.5-7.7-16.9c3.9,1.1,8,2.3,12.1,3.5C13.2,737,12.7,736.2,12.2,735.4z"
		/>
	<path class="st0" d="M309.8,661c-0.5,0.6-1.1,1.2-1.6,1.8c-2.9,9.2-11,10.9-17.7,14.7c-1-0.8-2.1-1.5-3.1-2.3
		c2.8-7,5.6-13.9,9-22.3C301.2,655.8,305.5,658.4,309.8,661z"/>
	<path class="st0" d="M1044.5,689.3c7.3-5,3.4-7.8-0.4-9.7c1.9-4,3.4-7.2,4.8-10.4c1.4-3,2.5-8.6,4-8.6c3.3-0.2,6.8,2.4,10.3,3.8
		c-5.2,9.9-9.5,18.2-13.8,26.5C1047.7,690.3,1046.1,689.8,1044.5,689.3z"/>
	<path class="st0" d="M81.5,717.7c0,0-0.2-0.3-0.2-0.3c-5,1-9.9,1.9-15,3c0.1,0.9,0.4,2.4,0.6,3.9c-3.6-3.3-7-6.5-12-11.1
		c4.2-1.9,9.2-6.3,12.1-5.2C72.1,710.1,82.8,705.8,81.5,717.7z"/>
	<path class="st0" d="M935,707.7c-2.4-12-9.7-9.1-16.5-7.5c-0.1-1.1-0.2-2.3-0.3-3.4c5.2-1.3,10.5-2.3,15.6-4
		c3.5-1.2,6.5-3.5,10.4-5.6c0.3,2.8,0.7,6.5,1.1,10.2c2.8,1.4,5.9,2.8,9,4.3c-0.5,1.1-0.9,2.2-1.4,3.3c-4.6-1.9-9.1-3.7-13.8-5.6
		C938.5,700.6,937.2,703.3,935,707.7z"/>
	<path class="st0" d="M912.9,713.6c-3.5,7.1-6.8,13.9-10.1,20.7c-0.8-0.1-1.5-0.1-2.3-0.2c-0.2-2.5-0.3-5.1-0.6-8.5
		c-1.1-0.6-3.6-1.9-5.5-2.8c3.2-5.1,6-9.8,9.2-15C906,709.2,908.9,711.1,912.9,713.6z"/>
	<path class="st0" d="M541.3,743.6c0.5,3.5,1,6.3,1.4,9.1c-1.9,1-4,2.1-6.3,3.2c-2.1-1.1-4.7-3.4-7.6-3.7c-3.3-0.4-6.9,0.8-10.4,1.3
		c-0.3-1.2-0.6-2.5-0.9-3.7C525,747.8,532.5,745.9,541.3,743.6z"/>
	<path class="st0" d="M859.8,745.8c-6.8,4.2-12.3,7.6-19.1,11.8c-0.4-0.3-2.8-1.9-5.2-3.6c3.8-3.4,6.7-7.9,10.8-9.4
		C849.8,743.3,854.6,745.2,859.8,745.8z"/>
	<path class="st0" d="M51.2,709.2c-2.8,5.7-5.5,11.4-8.6,17.9c-0.8-0.3-3.4-1.4-6-2.5c1.1-3.7,1.3-7.6,3.3-10
		c2.9-3.4,7.2-5.6,10.9-8.3C50.9,707.3,51,708.2,51.2,709.2z"/>
	<path class="st0" d="M887.1,723.4c6.6,6.1,5.9,11.1,1.4,15c-3.6,3.1-8.4,5-14.5,6.8c1.4-2.6,2.3-6.9,4.3-7.4
		C885.1,736.1,887.5,731.8,887.1,723.4z"/>
	<path class="st0" d="M380.2,649.2c2.7-10.3,6.8-10.5,19.2,1.3c-6.5-0.5-13-1-19.4-1.5C379.9,648.9,380.2,649.2,380.2,649.2z"/>
	<path class="st0" d="M257.2,782.2c-8.1-1.4-16.3-2.7-24.4-4.1c0.6-1.1,1.1-2.9,2-3.1c6.3-1.2,12.7-2.4,19-3c2-0.2,4.2,1.4,6.6,2.3
		C259.3,777.1,258.2,779.6,257.2,782.2z"/>
	<path class="st0" d="M265,786c0,0,0.7,0.5,0.7,0.5c-2.9-6.1,0.8-7.5,5.8-8c0.3,0,0.6,0.2,1,0.2c4.4,0.9,8.8,1.9,13.2,2.8
		c0,1.1,0.1,2.1,0.1,3.2C278.9,785.2,272,785.6,265,786z"/>
	<path class="st0" d="M974,719.4c-1.1,6.2-2.2,12.4-3.4,19.6C962.6,732.3,962.7,731.7,974,719.4z"/>
	<path class="st0" d="M561.7,743.4c-6.8-3.2-10.7-5.1-14.8-7c2.8-3.8,5-6.9,9-12.2C558,731.2,559.4,736,561.7,743.4z"/>
	<path class="st0" d="M1209.8,573.5c-3,6.5-6,13-9,19.4c-1.1-0.5-2.1-1-3.2-1.4c2.3-6.8,4.6-13.6,7-20.3
		C1206.4,571.9,1208.1,572.7,1209.8,573.5z"/>
	<path class="st0" d="M916.1,752.2c-2.9,2.8-5.3,4.9-8.7,8.1c-1.3-5.4-2.3-10-4.1-17.6C909,746.9,912,749.2,916.1,752.2z"/>
	<path class="st0" d="M1218.6,752.8c-5.9,2.8-9.3,4.4-12.6,6c1.4-1.3,2.8-2.5,4.1-3.8c-5.7-1.8-11.3-3.6-17-5.4
		c1.1-0.6,2.1-1.1,3.2-1.7C1203,749.3,1209.7,750.8,1218.6,752.8z"/>
	<path class="st0" d="M984.1,675.6c3.1,0.2,7-0.6,9.1,1c1.3,1,0,5.5-0.2,8.4c-3.2-1.7-6.5-3.5-9.7-5.2
		C983.6,678.5,983.8,677,984.1,675.6z"/>
	<path class="st0" d="M983.7,721.9c-1.9-3-3.9-6-6.8-10.4c4.8-0.7,9.1-1.4,13.7-2.1C987.9,714.2,986,717.8,983.7,721.9z"/>
	<path class="st0" d="M134.7,207.3c0.6-1.8,1.2-3.6,1.8-5.4c-11.1-3.3-12.3-15-18.8-22.2c0,0-0.3,0.2-0.3,0.2
		c6.7-1.9,13.8-6.1,20-4.9c6.6,1.2,12.4,7.3,18.5,11.5c1.3,0.9,2.1,2.4,3.4,4c5.4-3.6,10.3-7.2,14.9,1.2c1.1,1.9,7.3,1.1,13.4,1.7
		c1,1.4,3.6,5.1,6.6,9.3c-6.4-0.3-17,8.8-15.7,13.7c2.2,8-2.5,12.5-7.8,15.1c-3.8,1.9-9.4,0.4-14.2-1.8c4.7-1,9.3-2,14.3-3.1
		c1-11.1-8.1-10.9-14.7-14c-10-4.7-10.8,9.6-18.7,8.5c-0.8-4.6-1.6-9.3-2.4-14L134.7,207.3z"/>
	<path class="st0" d="M249.2,76.1c15.9-4,26.1,8.1,38.5,16.4c-2.3,3.2-3.9,6.7-6.6,8.9c-1.9,1.5-7.4,2.1-7.5,1.7
		c-2.4-6.1-7.6-8.5-12.5-12.1C256.2,87.4,253.1,81.2,249.2,76.1z"/>
	<path class="st0" d="M117.7,179.6c-11.4-4-17.4-15.4-13.6-26.9c5.2,2.6,10.6,8.1,16-0.1c0.5-0.8,5.8,1.4,6.3,1.6
		c-3.2,9.2-6.1,17.4-8.9,25.7C117.4,179.8,117.7,179.6,117.7,179.6z"/>
	<path class="st0" d="M135,207.1c-4.4,3.2-8.7,6.5-14.1,10.5c-1.8-2.9-3.5-6.4-6-9.2c-2.5-2.8-5.8-5-8.8-7.6
		c10.9-5.2,13.6-4.6,28.7,6.6C134.7,207.3,135,207.1,135,207.1z"/>
	<path class="st0" d="M208.6,166.8c3.6,5.1,7.2,10.3,11.3,16.1c-3.3,3.9-6.5,7.7-11.5,13.6c-2.3-10.2-3.9-17.9-5.6-25.5
		C204.7,169.6,206.7,168.2,208.6,166.8z"/>
	<path class="st0" d="M195.9,238.5c-9.3,15.5-16,11.3-27.7-2.8C178.6,236.7,186.5,237.5,195.9,238.5z"/>
	<path class="st0" d="M282.5,179.4c6.1,7.2,8.1,11.7,2.1,15.6c-1.6,1-4.6,0-6.9-0.2C279,190.3,280.4,185.8,282.5,179.4z"/>
	<path class="st0" d="M92.5,140.1c7.4,0.9,9.2,6.7,3.9,18.3C94.9,151.4,93.8,146.2,92.5,140.1z"/>
	<path class="st0" d="M375.5,68.2c2.9,3.3,5.9,6.6,9.5,10.7c-12.1,1.7-12.6,1.3-12.1-8.8C373.8,69.5,374.7,68.8,375.5,68.2z"/>
</g>
<path class="st0" d="M-150.8,384c0,0,287.9,10,566.6,57.2s507-25.4,924.1,0c417,25.4,418.3,408.2,418.3,408.2s-52-303-301.7-342.2
	s-253.5,7.6-687-7.9C335.9,483.7,180,407-91.2,424.7C-362.5,442.5-150.8,384-150.8,384z"/>
<path class="st3" d="M-59.6,469.1c0,0,177.5,40.6,309.3,22.8c131.8-17.7,1043.2-25.4,1327.2,135.6S1063.5,1471.7,342.3,1236
	s-934.2-726.3-657.9-749.1"/>
<path class="st0" d="M0,503.7c0,0,121.4-5.1,219.9,5.9c98.5,10.9,32-24.7,195.4-3.5c163.4,21.2,220.6,25.4,220.6,25.4
	s144-6.7,59.8,37.1c-84.2,43.8-151.6,55.6-306.5,25.3s-1007.8,33.7-761.9,232.7"/>
<path class="st0" d="M1201.7,680.8c7.6-34.2,95.1-27.9,43.1-53.2c-52-25.4-63.4,77.3-63.4,77.3"/>
<path d="M1468.7,32.7c0,0-41.7-26.6-95.6,0c-53.9,26.6-64.6,117.9-99.6,181.3s-98.3,105.2-98.3,105.2s45.8-49.4,76.7-62.1
	c18.6-7.6,48.8-70.5,70-119.5c14.1-32.7,24.2-59.2,24.2-59.2 M1247.9,111.3c-10.4,32.8-85.7,57.7-59.4,45.2s57.5-52.3,53.7-77.2
	s5.7-76.3,5.7-76.3S1258.3,78.5,1247.9,111.3z M1141.5,12.8c0,0-27.3,69.2-33.9,118s-34.9,124.2-99.9,127.7c-65,3.5-65,3.5-65,3.5
	s154.5,20.4,163.9-165s281.7-225.3,281.7-225.3 M1073.4,58.3c0,0-57.3,50.4-86.4,91.2s-90.2,96.4-150,72.2
	c-59.8-24.2-59.8-24.2-59.8-24.2s128.5,83.3,225-78.5s359-82.8,359-82.8"/>
<path class="st4" d="M-2.9,572.4c4.5-1.9,8.9-3.9,15.8-6.9c0.8,1.9,2.2,5.7,4,9.3c2.3,4.5,4.9,8.7,7.4,13.1
	c4.6-2.7,11.4-4.4,13.4-8.4c4.8-9.8,11.2-10.1,20-7.1c14.1,4.7,28.2,3.6,41.1-3.3c4.8-2.6,7.5-8.8,12.4-14.9
	c3.7,7.2,7,13.7,8.9,17.3c6.5,2.4,10.6,3.5,14.4,5.2c6.3,2.8,10.3,10,20,6.6c4.3-1.5,11.3,4.4,19.7,8.1c-5.4,1.5-7.7,2.2-8.2,2.3
	c0,4.8,0,8.6,0,13.7c-2.9-3.6-4.9-5.9-8.7-10.5c0.1,8.7-5.3,16,7.6,15.7c4-0.1,8.2,6.3,12,9.5c-5.7,9.7-11.4,19.4-17,29.1
	c-0.6,1.1-1.1,2.8-0.7,3.8c3.4,9.2,6.4,18.6,10.8,27.3c1.3,2.7,6.4,3.5,12.1,6.4c0.4-6.7,0.7-11.8,1-17c-0.7,0.6-1.5,1.2-2.2,1.7
	c-4.6-3.2-9.1-6.4-14.9-10.5c6.6-5.8,12.2-10.7,20.2-17.7c-0.3,2.5-1.4,5.2-0.6,5.8c8.4,7.3,1.4,16,2.7,23.8c0.2,1.5,2,2.7,3.1,4
	c2.1-2.3,4.1-4.5,6.3-6.9c2.5,1.3,6.5,5,8.8,4.2c8.1-2.9,15.6-7.4,23.3-11.3c2.2-1.1,5.4-2,6.3-3.8c2-4,3.1-8.6,4.3-13
	c1-3.7,1.5-7.5,2.3-11.3c4.8,1.5,9.9,2.4,14.2,4.8c1.2,0.7-0.1,5.7-0.3,8.7c-0.1,1.2-0.3,2.5-0.5,3.5c4.2-1.8,8.2-3.5,13.7-6
	c3.2-5.5,7.5-13,12.1-21c5.2,4.8,10.8,9.8,17,15.4c1.4-4.2,3-9.3,4.6-14.2c13.3,4.5,26.2,2.9,38.9-1.3c2.2-13-3.5-17.7-16.5-13.1
	c-1.3-2.4-2.7-4.9-4.6-8.4c-10,2.4-20.4,4.3-30.6,7.3c-11.9,3.5-16.9-6.1-24.3-11.4c-4.6-3.3-9.9-5.6-14.5-8.9
	c-4.2-3-10-6.4-11-10.5c-1.3-5.5,2.5-10.3,9.6-11.7c10.1-2,20-5.2,30.8-8.2c0.5-4.5,1-9.5,1.5-14.5c2.6,11.5,11.2,13.4,20.7,15.6
	c6,1.4,11.2,5.8,16.7,8.9c1.9-3.6,3.6-6.6,5.4-10c5.1,4.7,9,8.4,14.4,13.4c1.7-7.2,2.7-11.9,3.9-16.8c9.9-2.3,7.4,5.1,7.8,11.8
	c5.6-1.3,10.8-3.7,15.9-3.4c4.9,0.3,9.5,3.5,13.4,7.2c3.2,0,7.6-1.4,9.5,0.2c6.2,5.3,11.5,2.6,17.7,0.5c6.6-2.2,13.7-3.1,20.7-3.9
	c1.8-0.2,3.9,2.3,7,4.2c2.2-1.8,5.7-4.5,8.1-6.4c27.2,7.4,54,14.7,80.9,22c-0.1-0.4-0.2-0.7-0.3-1.1c4.8,0,9.6-0.3,14.3,0.1
	c9,0.8,17.9,2.2,26.9,2.8c1.1,0.1,3-2.9,3.5-4.8c0.6-2.5,0.1-5.2,0.1-7.7c1.1-0.2,2.1-0.7,2.3-0.5c8.2,10.8,18.8,4.7,25.3,0.4
	c8.2-5.4,14-2.1,21.2-1c4.4,0.7,9.6,0.6,13.6-1.1c10-4.4,19.6-10,29.3-15.1c0.6-0.3,1.5-0.7,1.9-0.4c11.2,5.5,14.1-5.1,18.3-8.9
	c0-7.8,0-14.3,0-20.9c1.1-0.2,2.1-0.3,3.2-0.5c1.3,2.3,2.7,4.5,4.1,6.9c16.5-7.5,33.1-4.7,49.6-0.4c5,1.3,8.9,4.1,8.2,10.8
	c-0.2,1.7,3.2,4.6,5.5,5.6c3.2,1.5,7,1.8,11.2,2.7c-0.5,1.9-1,3.9-1.5,5.8c5,1.3,9.9,2.7,15.8,4.3c-4.8,3.8-8.7,6.8-12.6,9.8
	c0.3,0.9,0.6,1.9,0.9,2.8c9.4,0,18.8,0,32,0c-4.3,7-7,11.4-9.8,16.1c0.7,0.1,2.6,0.3,3.9,0.4c-1.6,3.5-3.3,7.1-5,10.7
	c3.8,1.5,7.4,3.2,11.3,4.3c3.2,0.8,6.6,0.8,11.5,1.4c-6.3,4-11.5,7.3-16.6,10.5c3.9,2.7,8.1,5.6,13,9.1c-4.7,3.9-8.2,6.9-11.8,9.8
	c-4.8,3.8-3.6,6.1,1.5,8.4c7.4,3.4,13.5,1.9,18.9-3.7c-0.8-0.4-1.6-0.8-2.5-1.3c1-2.8,1.4-6.1,3.2-8.2c7.9-8.6,13.6-17.7,14.8-30.1
	c0.7-6.7,5.9-13,9-19.3c22.7,29.4,28.9,65,34,101c3.6,0,7.3,0,11.6,0c-7.5-11.3,4.8-15,9.2-21.5c1.4-2.1,7.9-0.7,13.5-1
	c0.1-9.3,7.7-14.1,17.5-16.6c-1.6-3.7-3.8-6.4-3.7-9.2c0-3.4,1.6-9.6,3.1-9.7c11.7-1.3,24-13.5,35.3,1.8c1.8,2.4,8,1.4,12.6,2.1
	c0.4-3.7,0.8-6.6,1.3-11.3c6.5,2.5,12.4,4.7,20,7.6c-1.2,2.3-2.8,5.3-4.7,9.1c1.4,0.9,4.1,2.7,8.1,5.3c-4.4,1.1-7.5,1.9-12.2,3.1
	c2.3,3.7,4.1,6.5,6,9.4c-2.2,1.8-4.3,3.7-6.5,5.6c0.2,1.1,0.4,2.1,0.6,3.2c6.4-1.1,12.8-2.1,17.3-2.8c3.1,6.7,5.9,12.7,9.5,20.5
	c-2.7,4-6.8,10-10.9,16c-0.6-0.3-1.2-0.5-1.8-0.8c0.8-2.7,1.6-5.4,2.4-8.1c-12.2-4.8-13.4-3.8-13.6,13.3c8.8-2.3,17.1-2.3,21,9.3
	c2.8-4.5,4.9-7.8,7.1-11.4c3.8,2.3,7.3,4.3,10.7,6.4c0.5-0.7,1-1.4,1.5-2.1c-4.1-3.3-0.9-14.4-12-8.9c-0.5-4-0.9-6.9-1.7-13.1
	c5.4,4.5,8.8,7.3,13.1,10.8c-0.5-5.9-0.9-10.9-1.5-17.7c4.4,1.1,7.7,2,11.4,2.9c8-7.9-1-12.4-3.8-19c-3.7,5.9-6.7,10.7-9.6,15.5
	c-1.1-0.6-2.2-1.3-3.3-1.9c1-2,2.3-3.8,3-5.9c0.8-2.3,1-4.7,1.4-7.1c-2.3,0.6-4.7,0.9-6.8,2c-1.7,0.8-2.9,2.5-3.9,3.5
	c-1.9-2.1-3.7-4.2-5.7-6.1c-4.6-4.3-3.5-9.3,1.9-9.5c11.2-0.6,16.7-10.2,25.9-13.2c-1.8-9.7,5-19.9,13.3-26.4
	c11.3-8.9,19.8,1.2,31.9,3c0.5-7.1,1-13.7,1.6-20.8c0.9,1.4,1.6,3.5,3,4.2c2.6,1.5,5.6,2.3,8.4,3.4c0.4-2.7,1.5-5.6,1-8.1
	c-1.5-8.1-3.8-16.1-5.4-24.2c-0.4-1.9,1-4.1,1.2-5c3.2,7.4,6.3,14.7,9.3,21.9c0.9-0.1,1.8-0.2,2.7-0.3c0.7-6.8,1.3-13.7,2-20.3
	c5.3,4.1,5.3,4.1,3.2,17.3c9.7,3.4,19.3,6.7,30.1,10.5c-1.7,5.6-3.4,11.1-5.4,17.8c6.1-0.8,13.3,0.3,16.4-2.8
	c4-3.8,13.3-8.8,4.5-16.9c9-8,9-8,5.1-26.5c2.9,0.6,5.5,1.2,8.1,1.8c-2-13.3-7.9-16.3-20.8-15.2c-9.7,0.8-19.6-2.2-29.1-5.8
	c-7.6,2.7-15.2,5.4-23.5,8.4c-3.3-11.9-11.3-9.6-20.7-7c-5,1.4-11.2-1.1-16.8-2.3c-8.2-1.7-16.3-4.2-24.5-5.6
	c-4.8-0.8-9.4-1.3-14.2-2.5c-18.7-4.7-35.5-17-56.4-13.5c-6.4,1.1-13.5-2.4-20.2-2c-4.7,0.3-9.2,3.8-14.1,6
	c-9.7-18.1-29.6-11.5-45.9-14.1c-10.6-1.7-21.9,0.9-29.8-9.8c-2.7-3.6-8.2-5.4-12.5-7.6c-8.3-4.1-8.3-4-8.7-17.8
	c7.8,6.7,13.8,11.9,21.9,18.8c0-5.6,0-8.7,0-13.2c6.9-0.6,14.1-1.3,21.4-2c0.2,0.7,0.3,1.4,0.5,2.1c-2.9,1.4-5.7,2.9-8.2,4.2
	c8.2,2.1,15.9,4.3,23.9,5.8c1.7,0.3,5.2-1.9,5.6-3.4c3.3-13.6,13.6-6.2,21-7.4c0.9-0.1,1.8,0.3,2.7,0.5c-0.3-4.6-0.5-9-0.7-13.4
	c0.8-0.1,1.7-0.2,2.5-0.3c1.1,4,2.3,8,3.9,13.6c1.9-2.8,2.9-4.1,3.8-5.4c2,2.2,4,4.4,6.5,7.1c2.7-8.3,4.9-15.2,7.5-23.6
	c4.1,3,6.4,4.6,6.4,4.6c-1.2,7.1-2,12.3-2.9,17.4c1.1,0.3,2.3,0.6,3.4,0.9c2.8-6.7,5.6-13.4,7.8-18.5c-2.8-2.6-4.4-4.2-6-5.7
	c4.1-1,8.2-2,12.1-2.9c3.6,10.1,6.5,18.2,9.3,26.2c0.8,0.2,1.6,0.4,2.4,0.5c1-5,2-10,3.5-17.7c3.1,4.6,5.2,7.7,8.4,12.4
	c0.4,0,3.2-0.2,5.4-0.3c1.4,6.1,2.7,11.9,4,17.6c0.8-0.2,1.5-0.3,2.3-0.5c1.1-6.6,1.7-13.2,3.2-19.7c3.2-13.7,4.5-14.1,16.5-6.8
	c2.6-2.3,5.2-4.7,9.7-8.7c1.1,5.4,1.9,9.1,3.1,15.1c2.1-5.7,3.7-9.8,5.5-14.8c2.7,2.1,5.2,4.1,7.5,5.9c12.2-7.3,42.6-2.5,46.6,8.4
	c2-3.2,3.7-5.8,4.1-6.5c13,3.1,25.2,5.9,35.7,8.4c3.6-5.3,6.7-9.9,9.7-14.5c3.9,4.8,13.5,4.8,11.3,17.1c2.8-5.5,4.3-8.5,5.2-10.3
	c23.3,2.6,45.7,5.2,68.3,3.5c0.1-1.4,0.2-2.8,0.3-4.2c-17.9-1.2-35.7-2.3-55.9-3.6c8.2-5.4,13.8-9.8,20-12.9c6-2.9,12.5-5.1,19-6.5
	c13.7-3,27.6-5.3,41.4-7.8c12.4-2.2,24.9-4.3,37.4-6.5c0,43.7,0,87.3,0,131c-3.2-1.5-7.5-2.2-9.5-4.7c-6.4-8-14-7.5-22.5-4.8
	c-2.8,0.9-6,1.6-8.8,1c-11.3-2.3-21.8-6-32.5,4.4c-4.2,4-4.9,5.4-2.1,8.8c1.7,2.1,4.8,2.9,7.4,4.3c-1.8,8.4-5.5,17,1.4,23.2
	c-1.4,4.4-2.5,8.2-3.7,12.1c1,0.3,2,0.6,3.1,0.9c5-6.5,10-13,15.2-19.8c2.8,3.1,6,6.7,8.5,9.4c-8.4,13.7-16.4,26.5-24.3,39.4
	c0.9,0.8,1.8,1.5,2.7,2.3c6.2-3.8,12.4-7.6,21.4-13.1c-1.9,7.2-3,11.4-4.7,17.7c5.8-0.9,12.9,0,14.5-2.5c5.9-9.4,13.2-12,24.8-7.1
	c-4.1-5-7.5-7.9-9.2-11.6c-1.1-2.5-0.8-8.3,0.3-8.7c7.2-2.5,7-8.4,7.1-13.9c0.2-7.8,5.1-11.7,10.9-15.2c0,67.8,0,135.7,0,203.5
	c-133,0-266,0-399,0c0.3-1.1,1.2-2.9,0.7-3.3c-9.3-10-13.6-9.3-20.9,3.3c-199.5,0-399,0-598.5,0c-1.4-1.3-2.8-2.7-4.2-4
	c6.9-0.4,13.8-0.8,20.8-1.3c0-1.1-0.1-2.1-0.1-3.2c-4.4-0.9-8.8-1.9-13.2-2.8c-0.3-0.1-0.6-0.3-1-0.2c-4.9,0.5-8.6,1.9-5.8,8
	c-2.9-1.6-5.8-3.1-8.8-4.7c0,0,0.2,0.4,0.2,0.4c1-2.6,2.1-5.1,3.2-7.8c-2.4-0.9-4.6-2.5-6.6-2.3c-6.4,0.6-12.7,1.7-19,3
	c-0.8,0.2-1.3,2-2,3.1c0,0,0.4-0.3,0.4-0.3c-15.9,2.4-31.8,4.9-47.8,7c-5,0.7-10.2,0.1-15.3,0.5c-3.8,0.3-9.3-2.6-9.8,4.7
	c-54.2,0-108.5,0-163.2,0c0-43.7,0-87.3,0-131c4.1,1,8.2,1.9,13.1,3c9.9-9.3,17.9-25.3,37-14.5c1.5-5.2,2.5-8.9,4.1-14.5
	c12.8,9.4,21-0.2,30.6-5.8c3.5-2.1,9-3.3,12.7-2.1c9.8,3,13.9,0.3,13.2-9.9c-20.9-5.9-20.9-5.5-43.3-3.3c-7.7,0.8-15.9-0.4-23.5-2.2
	c-11.5-2.7-19.6,0.2-25.4,10.9c-5.5,10.1-9.8,11.1-18.4,4C-2.9,607.4-2.9,589.9-2.9,572.4z M81.5,717.7c1.3-11.9-9.4-7.6-14.5-9.7
	c-2.9-1.1-7.9,3.2-12.1,5.2c5,4.6,8.5,7.8,12,11.1c-0.2-1.5-0.5-3-0.6-3.9c5.1-1,10.1-2,15-3c9.4,5.6,13.6,13.3,10.6,19.2
	c10.5-0.8,15.1,3.6,17.7,15.7c2.6-7.4,5.3-14.8,8.7-24.4c1.4,2.8,2.4,4.8,2.9,5.8c3.4-1.2,5.7-2.4,8.1-2.7c0.8-0.1,3,3.1,2.7,3.5
	c-7.3,10.6,5.8,8.4,8.3,12.9c-0.7-8.1-1.3-16.1-2.1-26c3.8,9.4,6.9,16.9,10,24.5c8.2-0.7,12.8-5.2,11.4-11.4
	c-1-4.4-2.3-8.7-2.8-13.1c-1.3-12.3-6.8-16.2-17.2-16.1c-1.5-2.6-4.6-4.2-7.8-4.3c-1.5,0-3.5,2.6-4.6,4.5c-2,3.5-3.4,7.4-5.6,12.5
	c3.2,0.3,7,0.8,11,1.2c-3.2,12.8-15.3,7.5-20.4,6.6c-8.5-1.4-15.9-9.3-23.7-14.4C86.2,713.5,83.8,715.6,81.5,717.7z M380.2,649.2
	c-5.2-0.4-10.5-0.8-15.7-1.2c2.3-1.9,5.2-4.4,8-6.8c-2.6-3.9-5-7.6-7.3-11.1c-9,2.3-17.9,4.5-26.7,6.9c-3.5,0.9-6.9,2.8-10.4,3.1
	c-8.2,0.7-18.2,11.9-18.2,21c-4.3-2.6-8.5-5.2-13.3-8.1c-3.4,8.4-6.2,15.4-9,22.3c1,0.8,2.1,1.5,3.1,2.3c6.7-3.8,14.8-5.5,17.7-14.7
	c3.7,6,7.4,12,11.7,19.1c2.4-4.1,3.4-5.8,3.8-6.5c10,1.5,4.3,20,19.1,15.1c0.3,6.1,0.6,12.2,1.1,20.9c6.4-5.3,11.1-9.2,16.1-13.3
	c3.3,0.5,7.9,1.2,12.4,2c0.2,1.8,0.4,4.4,0.6,7c4.5-12.7,0.4-22.9-9.9-25.2c4.9-4.2,8.8-7.7,11.5-10c-4.7-2.4-11.9-3.8-12.6-6.8
	c-2.1-8.5,3.5-12.4,12-12.6c2-0.1,3.9-2.3,5.9-3.6c6.5,0.5,13,1,19.4,1.5C386.9,638.6,382.9,638.9,380.2,649.2z M614.5,745.2
	c0.8-10,1.8-20.7,2.6-31.1c6.5,0.7,10.8,1.1,12.1,1.3c5.6,5.4,9.6,9.2,12,11.5c2.8-7.1,5.2-13,7.6-19.2c2.2-0.2,4.5-0.5,8.7-0.9
	c-3.8-2.3-5.8-3.5-7.6-4.6c1.3-1.6,2.2-2.7,3.1-3.8c-0.7-0.6-1.3-1.2-2-1.8c-2.8,2.7-5.6,5.3-8.4,8c-0.7-1-1.4-2-2.1-3
	c5.5-3.5,11-7,17.8-11.4c-2.9-3.4-5.9-6.8-9-10.4c3.2-2,6.4-4,9.5-5.9c-1.5-4.6-3-9.3-4.6-14.1c1.9-0.4,3.8-0.8,5.9-1.2
	c-1.4-2.4-2.7-4.5-4.4-7.2c3.3-0.5,5.7-0.8,7.3-1c0.3-1.9,0.1-3.1,0.7-3.9c1.9-2.4,6.3-5.3,5.9-6.9c-3.5-12,5-21.4,5.1-31.9
	c7.5,0.5,13.7,0.9,19.9,1.3c0.1-1.5,0.1-3.1,0.2-4.6c-9.8,0-19.7,0-29.5,0c-2.6,0-5.2-0.2-7.7-0.5c-11.9-1.3-25-6.4-35.3-2.9
	c-11.2,3.8-21.7,1.2-32.3,3.1c-6.3,1.1-14,2.5-19.2-0.1c-7.9-4-14-0.9-21,0.7c-6.3,1.4-13.3,3.7-19.1,2.2c-7.3-1.9-10,1.2-10.6,6.4
	c-0.9,8.1-0.2,16.4-0.2,21.9c5.4,3.9,8.9,6.4,13,9.4c2.2-3.1,4.4-6.1,7.2-10.1c4.9,10.2,9.7,19.5,14,29.1c1.9,4.3,4.6,9.3,3.9,13.4
	c-1.2,7-4.9,13.6-8,21.2c2.6,0.5,5.7,1,8,1.4c1,4.1,2.1,8.3,3.1,12.4c0.8-0.1,1.6-0.2,2.3-0.3c0-3.9,0-7.7,0-13.9
	c2.3,3.4,3.1,4.5,4,5.8c2.8-3.8,5.4-7.3,9-12.3c0.7,4.9,0.4,8,1.7,10.1c1.3,2.3,4.1,3.7,7,6.1c-3.9,2.1-6.4,3.4-8.9,4.7
	c4.4,2,9.8,2.6,11.6,5.5c4.1,6.4,9.5,12.6,8.9,21.2c0,0.6,1.9,1.6,3.1,2C604.3,742.3,608.8,743.6,614.5,745.2z M785,709.3
	c-6.8,5.1-17.6,0.5-21.3,11.2c-1.5,4.4-5.8,8.3,2.4,9.9c-7.9,7.7,7,11.5,2.5,19c14.3-7.2,11.4-20.9,14.6-32.2c2.2,0.5,5,1.2,10,2.3
	C789.7,715.1,787.7,712.6,785,709.3z M145.5,617.2c-7.4-5.7-15-11.4-23.5-18c-4.2,8.8-7.2,15.1-10,20.9c9.8,2.3,18.3,4.2,27.2,6.3
	C140.4,624.5,142.4,621.7,145.5,617.2z M12.2,735.4c0.5,0.8,1,1.6,1.5,2.4c-4.1-1.2-8.2-2.4-12.1-3.5c2.9,6.4,4.9,10.9,7.7,16.9
	c1-3.2,1.5-4.7,1.2-3.8c8.4,0,16,0,22.8,0c2.5-8.8-17.6-6.9-4.2-19.4c-1.1-0.2-2.3-0.4-3.4-0.6C21.2,730,16.7,732.7,12.2,735.4z
	 M1044.5,689.3c1.6,0.5,3.2,1,4.8,1.6c4.3-8.3,8.6-16.6,13.8-26.5c-3.5-1.5-6.9-4-10.3-3.8c-1.5,0.1-2.6,5.6-4,8.6
	c-1.4,3.2-2.9,6.3-4.8,10.4C1047.9,681.4,1051.8,684.3,1044.5,689.3z M935,707.7c2.2-4.5,3.5-7.2,4.2-8.5c4.7,1.9,9.2,3.8,13.8,5.6
	c0.5-1.1,0.9-2.2,1.4-3.3c-3.1-1.5-6.2-3-9-4.3c-0.4-3.6-0.8-7.4-1.1-10.2c-3.8,2.1-6.9,4.4-10.4,5.6c-5.1,1.8-10.4,2.7-15.6,4
	c0.1,1.1,0.2,2.3,0.3,3.4C925.3,698.6,932.6,695.7,935,707.7z M912.9,713.6c-3.9-2.5-6.9-4.3-9.3-5.9c-3.2,5.2-6,9.9-9.2,15
	c1.9,1,4.4,2.2,5.5,2.8c0.2,3.5,0.4,6,0.6,8.5c0.8,0.1,1.5,0.1,2.3,0.2C906.1,727.5,909.4,720.7,912.9,713.6z M541.3,743.6
	c-8.8,2.3-16.3,4.2-23.7,6.2c0.3,1.2,0.6,2.5,0.9,3.7c3.5-0.5,7-1.7,10.4-1.3c2.9,0.4,5.5,2.6,7.6,3.7c2.2-1.1,4.4-2.3,6.3-3.2
	C542.3,749.8,541.9,747.1,541.3,743.6z M859.8,745.8c-5.2-0.6-9.9-2.5-13.4-1.2c-4.1,1.5-7.1,6-10.8,9.4c2.4,1.7,4.8,3.3,5.2,3.6
	C847.5,753.4,853,750,859.8,745.8z M51.2,709.2c-0.1-1-0.3-1.9-0.4-2.9c-3.7,2.7-7.9,4.9-10.9,8.3c-2,2.4-2.2,6.3-3.3,10
	c2.6,1.1,5.2,2.1,6,2.5C45.7,720.6,48.4,714.9,51.2,709.2z M887.1,723.4c0.4,8.4-2,12.7-8.9,14.4c-1.9,0.5-2.9,4.8-4.3,7.4
	c6.1-1.8,10.9-3.7,14.5-6.8C893,734.5,893.7,729.6,887.1,723.4z M974,719.4c-11.3,12.4-11.4,12.9-3.4,19.6
	C971.8,731.8,972.9,725.6,974,719.4z M561.7,743.4c-2.2-7.4-3.7-12.2-5.8-19.2c-3.9,5.3-6.2,8.4-9,12.2
	C551,738.4,554.9,740.2,561.7,743.4z M1209.8,573.5c-1.7-0.8-3.4-1.6-5.2-2.4c-2.3,6.8-4.6,13.6-7,20.3c1.1,0.5,2.1,1,3.2,1.4
	C1203.8,586.5,1206.8,580,1209.8,573.5z M916.1,752.2c-4.1-3-7.2-5.3-12.8-9.4c1.8,7.6,2.9,12.2,4.1,17.6
	C910.8,757.2,913.2,755,916.1,752.2z M1218.6,752.8c-9-2-15.6-3.5-22.3-5c-1.1,0.6-2.1,1.1-3.2,1.7c5.7,1.8,11.3,3.6,17,5.4
	c-1.4,1.3-2.8,2.5-4.1,3.8C1209.4,757.2,1212.7,755.6,1218.6,752.8z M984.1,675.6c-0.3,1.4-0.6,2.8-0.9,4.2c3.2,1.7,6.5,3.5,9.7,5.2
	c0.1-2.9,1.5-7.5,0.2-8.4C991.1,675,987.2,675.8,984.1,675.6z M983.7,721.9c2.3-4.2,4.2-7.7,6.9-12.5c-4.7,0.7-8.9,1.4-13.7,2.1
	C979.8,715.9,981.8,719,983.7,721.9z"/>
<path d="M1472,73.2c0,0-35.7-24.5-101.5-18.2c-65.9,6.3-107,61-164.8,93.8S1067,195.5,1067,195.5s64.7-22,101.7-24
	c22.2-1.2,74.8-34.5,113.2-61c25.6-17.6,45-32.2,45-32.2 M1211.9,80c-21.7,18.4-109.8,19.5-77.8,16.8c32.1-2.7,78.1-21.6,82.2-37.8
	c4.1-16.2,30.8-46.4,30.8-46.4S1233.5,61.6,1211.9,80z M1130.8-1.5c0,0-51.5,37.8-74.4,66.9c-22.9,29.1-77.4,70.6-147.6,60.4
	s-70.2-10.2-70.2-10.2s157.5,42.1,227.8-71.4s372.5-86.5,372.5-86.5 M1043.7,13.8c0,0-77.3,20.4-121.5,40.3S795.1,96.9,739.4,70.4
	s-55.7-26.5-55.7-26.5s109.4,76.3,264.5-6s408.3,16.9,408.3,16.9"/>
<path class="st5" d="M805.3,757c0,0-30.2,35.9-85.2,23.3c-55-12.5-88.7-98-136.6-150.6c-47.9-52.6-115.4-77.5-115.4-77.5
	s53.8,36.5,84.8,41.2c18.6,2.8,62.1,56.1,93.9,98.2c21.2,28.1,37.2,51.2,37.2,51.2 M587.8,734.9c-17.9-29.1-91.6-34.7-64.8-29.2
	c26.8,5.5,65,36.5,68.2,61.4c3.2,24.9,25.2,72.2,25.2,72.2S605.7,764.1,587.8,734.9z M518.9,855.9c0,0-42.6-60.1-61.4-105.5
	c-18.7-45.5-63.8-111.3-122.7-98.9c-58.9,12.4-58.9,12.4-58.9,12.4s132.3-57.3,189.6,119.2s310.5,148.7,310.5,148.7 M446.2,828.6
	c0,0-64.4-34.6-101.1-66.9s-105.8-71-152.7-33c-46.9,37.9-46.9,37.9-46.9,37.9s92.5-111.7,221.3,20.9s341.8-7.6,341.8-7.6"/>
</svg>
