<?xml version="1.0" encoding="utf-8"?>
<!-- Generator: Adobe Illustrator 19.0.1, SVG Export Plug-In . SVG Version: 6.00 Build 0)  -->
<svg version="1.1" id="Layer_1" xmlns="http://www.w3.org/2000/svg" xmlns:xlink="http://www.w3.org/1999/xlink" x="0px" y="0px"
	 viewBox="694 -104 2000 1000" style="enable-background:new 694 -104 2000 1000;" xml:space="preserve">
<style type="text/css">
	.st0{fill:#FE474A;}
	.st1{fill:#FE335F;}
	.st2{fill:#C61375;}
	.st3{fill:#6B0090;}
	.st4{fill:#FE5136;}
	.st5{fill:#8B0089;}
	.st6{fill:#BC0483;}
	.st7{fill:#9F047B;}
	.st8{fill:#E6197B;}
</style>
<g>
	<path class="st0" d="M2889.3,620.9c0,4.3-0.7,8.3-0.7,12.7c0.7,3.3,1.5,6.2-1.5,9.1c-1.5,1.4-3,2.9-5.2,4c-7.5-4.3-9.7-8.7-6-14.8
		c12-20.3,3.7-41.6,4.5-62.3c0-9.1-45.7-18.5-64.4-14.5c-35.2,7.6-39.7,6.5-36.7-11.2c1.5-7.2-11.2-10.5-18-11.9
		c-18.7-4-35.9-15.6-57.6-8c-12.7,4.3-28.4,6.9-38.2,13c-3,1.1-9,1.8-10.5,1.1c-15-16.7-59.9-15.6-78.6-30.4
		c-7.5-6.2-23.2-2.5-34.4-4c-3.7-0.4-6.7-0.7-10.5-1.1c-32.9-4.7-49.4,9.1-71.1,15.9c-17.2,5.4-29.2,11.9-41.2-2.5
		c-6.7-8.7-19.5-8.3-31.4-1.4c-12.7,8-28.4,7.6-43.4,3.3c-24.7-6.9-61.4-4-74.1-20.6c-28.4,1.8-56.9-10.1-84.6,0.7
		c-0.7,7.2,27.7,5.1,18,13.4c-6.7,5.8-21.7,5.4-34.4,5.1c-22.5-0.7-44.9-1.1-67.4-1.4c-18-0.4-31.4-3.6-33.7-13.4
		c-2.2-9.1-2.2-17,22.5-18.5c-18.7,0.7-26.9,4.7-26.9,14.5c0,12.7-15,15.9-36.7,8c-20.2-7.2-38.9-10.1-61.4-2.5
		c-9,2.9-18.7,3.3-27.7,0c-17.2-6.5-35.2-8.3-55.4-2.5c-5.2,1.8-12.7,1.8-18-0.4c-15-7.2-18.7-5.4-17.2,4c0.7,4-8.2,6.2-16.5,5.8
		c-38.9-1.8-77.8,1.8-116.7,0.4c-15-0.7-26.2-3.6-34.4-9.4c-15-10.1-37.4-10.5-60.6-11.2c-9.7-0.4-18,1.1-20.2,5.8
		c-6.7,12.3-23.9,11.9-43.4,8.3c-16.5-2.9-33.7-4-49.4-7.6c-35.9-8-91.3-1.8-113.8,14.5c-12.7,9.4-24.7,10.9-42.7,5.1
		c-6-11.9-22.5-17.7-47.9-17.7c-12.7-10.9-30.7-14.5-56.9-11.9c-15,1.4-32.2,1.1-44.2-5.8c-3-9.8,19.5-21.4-10.5-28.6
		c-1.5-4.7,2.2-8.3,10.5-10.5c57.6-15.9,119-25.3,185.6-24.6c5.2,0,10.5,0.7,15-0.7c41.2-13.4,90.6-10.9,135.5-17
		c114.5-12.3,230.5-0.4,345.8-3.3c160.2-4,321.1,0.4,480.5-8.3c32.9-1.8,64.4,4.7,96.5,2.9c91.3-5.4,183.4,1.4,275.4-5.4
		c38.2-2.9,77.8,3.6,118.2,3.6c60.6-0.4,120.5-1.8,181.1-1.1c33.7,0.4,49.4,6.5,48.6,22.8c-0.7,10.9-2.2,21.7,3,32.2
		c0,37.3,0,75,0,112.3c-46.4,1.1-92.8,0-139.9,0.7c-37.4,0.7-47.9,5.4-50.9,23.5C2896.8,592.7,2906.5,607.5,2889.3,620.9z"/>
	<path class="st1" d="M3083.1,291.8c0,6.2,0.7,13,0.7,19.2c8.2,18.7-1.5,38.4,5.2,57.6c0,37,0,73.4,0,110.4
		c-10.5-11.5-10.5-23.5-8.2-36.5c3.7-23-13.5-34.1-47.9-29.8c-22.5,2.9-43.4,7.7-63.6-2.9c-6.7-3.4-14.2,0-21,1.4
		c-8.2,1.4-17.2,5.3-24.7,4.3c-46.4-3.4-95,5.8-138.4-3.8c-42.7-9.6-81.6,4.8-122.7,1.9c-87.6-6.2-175.9,4.8-265.7,0
		c-62.9-2.9-128.7,0.5-193.1,4.3c-79.3,4.8-158.7,5.3-237.2,0.5c-32.9-1.9-62.1,5.3-93.5,5.3c-55.4,0-110-2.4-164.6-3.8
		c-44.9-1-87.6-1.9-131,7.2c-12.7,2.9-29.2-1-43.4-1.9c-54.6,0-109.3,1.4-163.9,2.4c-40.4,1-80.1-2.4-115.3-16.3
		c-18.7-7.7-39.7-9.6-61.4-7.7c-21,1.9-41.2,7.2-61.4-1.9c-3.7-1.9-10.5-2.4-14.2,0c-23.9,19.2-44.9,6.7-68.1-1.4
		c-23.9-8.6-47.1-11.5-74.1-2.4c-24.7,8.6-50.9,6.7-73.3-5.8c-18.7-10.6-39.7-13.9-64.4-15.4c-44.2-2.4-86.8-10.1-131.7-13
		c-35.2-1.9-67.4-6.2-101.8,3.4c-26.9,7.7-45.7-6.2-39.7-26.9c95.8-15.4,193.8-15.8,291.1-21.1c81.6-4.3,163.9-2.9,244-16.8
		c13.5-2.4,26.9-4.3,40.4-4.3c118.2,1.4,235.7-5.3,354-4.8c97.3-1,193.8,1,291.1-3.8c75.6-3.8,151.2,0.5,227.5-3.8
		c38.9-2.4,77.8,10.6,118.2,7.2c47.9-3.8,97.3-7.7,145.2-5.3c81.6,4.8,163.1-2.4,244.7,1.4c18.7,1,37.4,0,56.1-1
		c89.1-4.8,178.1-1.4,267.2-1.9c54.6-0.5,110.8-6.2,166.1,1.4C3034.5,292.3,3059.9,279.3,3083.1,291.8z"/>
	<path class="st2" d="M1496.5,286.7c-74.8,1.4-148.9,6.2-223.8,1.8c-9.7-0.7-20.2-2.5-29.2-1.8c-138.4,9.8-277.6,9.1-416.1,11.6
		c-48.6,1.1-98-5.1-145.9,2.5c29.2-9.4,62.9-8.3,95.8-8c36.7,0.4,71.8,3.3,107.8-6.9c18.7-5.1,50.1,0,75.6,0.4
		c19.5,0.4,39.7,1.4,54.6-7.2c9-5.1,20.2-2.2,30.7-1.1c32.9,3.6,61.4-1.4,84.6-13.4c48.6-10.5,98.8-18.8,153.4-18.1
		c18,0.4,35.2,0,47.9-6.9c5.2-2.9,12.7-5.1,19.5-3.6c26.2,5.8,50.9-0.7,76.3,0c71.1,1.4,140.7-5.4,211-4
		c44.2-1.1,86.1-11.2,131.7-7.2c65.1,5.8,129.5-3.6,193.8-4c41.9-0.4,83.1-5.4,124.2-8.7c20.2-1.8,39.7-3.3,58.4,0.7
		c15,2.9,32.9,6.9,13.5,16.7c-4.5,2.2-7.5,5.4-1.5,8c6,2.5,13.5,0.4,16.5-1.4c14.2-8.3,29.2-6.5,45.7-2.2c6,1.4,15,2.2,21.7,1.4
		c86.8-10.1,175.1,0.7,262.7-2.9c9-0.4,17.2,0.4,24.7,2.9c41.2,11.6,63.6,10.1,92.1-7.2c19.5-11.9,34.4-20.6,62.1-2.9
		c18.7,12.3,53.9,9.4,80.8,8.7c33.7-0.7,66.6-0.4,100.3-1.4c2.2,9.4-11.2,12.3-26.2,14.5c-12,1.8-24.7,2.2-37.4,1.1
		c-74.8-5.1-148.2,4.3-222.3,6.5c-20.2,0.7-38.9-1.8-58.4-3.6c-42.7-4-86.1-8.3-115.3,15.2c-15.7,12.3-44.2,12.7-71.1,8.7
		c-21.7-3.3-44.2-5.4-65.9-1.1c-75.6,13.8-154.9,9.8-232.7,12.7c-7.5,0.4-15-1.1-22.5,0c-48.6,6.2-98,4-147.4,5.1
		c-68.1,1.8-137,1.1-205.1,4c-33.7-0.7-67.4,1.1-101,0C1539.2,293.9,1513,299.4,1496.5,286.7z"/>
	<g>
		<path class="st3" d="M1128.3-73.6c58.8-24.3,129.5-29.7,195.4-18.9c15.9,2.4,29.8-0.9,42.3-11.5H694V-2.4
			c39.2-22.2,79.7-27.5,120.1-36.1C917.7-62.8,1022.4-27.7,1128.3-73.6z"/>
		<path class="st0" d="M2694,599.7c-22.1,4.5-43.1,8-63.4-7.7c-8.1-5.9-17,0-25.1,2.5c-9.9,2.5-20.6,9.3-29.6,7.6
			c-55.6-5.9-113.8,10.2-165.8-6.8c-51.1-17-97.7,8.5-147,3.4c-104.8-11-210.6,8.5-318.1,0c-75.3-5.1-154.1,0.8-231.2,7.6
			c-95,8.5-190,9.3-284.1,0.8c-39.4-3.4-74.4,9.3-112,9.3c-66.3,0-131.7-4.2-197.1-6.8c-53.8-1.7-104.8-3.4-156.8,12.7
			c-15.2,5.1-34.9-1.7-52-3.4c-65.4,0-130.8,2.5-196.2,4.2c-7.3,0.3-14.5,0.3-21.7,0.2v243.5c0.9-0.8,1.9-1.6,2.9-2.3
			c19.7,2.4,32.3,3.3,40.3-20.4c8.1-24.4,107.5-50.5,134.4-36.6c22.4,12.2,48.4,13,69.9,22.8c26,11.4,43,13,41.2-20.4
			c0-6.5,1.8-17.1,10.8-14.7c35.8,10.6,83.3-9,106.6,34.2c8.1,15.5,22.4,19.5,41.2,16.3c18.8-4.1,37.6-5.7,55.6,2.4
			c10.8,4.9,20.6,5.7,26-5.7c9.9-19.5,19.7-15.5,31.4-0.8c5.4,7.3,16.1,8.1,24.2,4.1c11.6-6.5,1.8-13-1.8-20.4
			c-6.3-13.8,4.5-22,16.1-35c11.6,26.1,20.6,58.6,52.9,21.2c45.7,24.4,95,9.8,142.5,11.4c5.4,0,10.8,4.9,15.2,8.1
			c9,6.5,11.6,21.2,27.8,15.5c22.4-7.3-1.8-17.1,0.9-25.2c8.1-25.2,30.5-35.8,53.8-44.8c5.4-2.4,12.5,1.6,13.4,8.1
			c2.7,13-2.7,26.1-11.6,33.4c-12.5,9.8-9.9-13-20.6-13.8c-9,52.1-9,52.1,47.5,52.1c29.6,0,59.1,1.6,87.8,1.6c1.8,0,4.5-3.3,9-7.3
			c-17.9-4.9-51.1-1.6-40.3-22.8c10.8-20.4,43.9-29.3,69-20.4c16.1,5.7,30.5,8.1,46.6,8.1c12.5,0,22.4-1.6,19.7,15.5
			c-0.9,5.7,100.4,42.3,107.5,39.9c3.6-1.6,9.9-4.1,10.8-6.5c2.7-21.2,16.1-27.7,36.7-24.4c25.1,4.9,20.6,26.9,29.6,45.6
			c19.7-24.4,48.4-35.8,72.6-53.7c16.1-13,33.2-15.5,49.3-1.6c27.8,0,63.6-16.3,69,28.5c0,1.6,4.5,3.3,7.2,3.3
			c28.4,1.8,47.1,16.2,63,33.6H2694V599.7z"/>
		<path class="st0" d="M2099.3,840.4c4.1-3,9-5.3,12.6-8.9C2108.2,835,2102.6,836.7,2099.3,840.4z"/>
		<path class="st4" d="M2188.9,862.4c-2.7,0-7.2-1.6-7.2-3.3c-5.4-44.8-41.2-28.5-69-28.5c-16.1-13.8-33.2-11.4-49.3,1.6
			c-24.2,17.9-52.9,29.3-72.6,53.7c-9-18.7-4.5-40.7-29.6-45.6c-20.6-3.3-34.1,3.3-36.7,24.4c-0.9,2.4-7.2,4.9-10.8,6.5
			c-7.2,2.4-108.4-34.2-107.5-39.9c2.7-17.1-7.2-15.5-19.7-15.5c-16.1,0-30.5-2.4-46.6-8.1c-25.1-9-58.2,0-69,20.4
			c-10.8,21.2,22.4,17.9,40.3,22.8c-4.5,4.1-7.2,7.3-9,7.3c-28.7,0-58.2-1.6-87.8-1.6c-56.5,0-56.5,0-47.5-52.1
			c10.8,0.8,8.1,23.6,20.6,13.8c9-7.3,14.3-20.4,11.6-33.4c-0.9-6.5-8.1-10.6-13.4-8.1c-23.3,9-45.7,19.5-53.8,44.8
			c-2.7,8.1,21.5,17.9-0.9,25.2c-16.1,5.7-18.8-9-27.8-15.5c-4.5-3.3-9.9-8.1-15.2-8.1c-47.5-1.6-96.8,13-142.5-11.4
			c-32.3,37.5-41.2,4.9-52.9-21.2c-11.6,13-22.4,21.2-16.1,35c3.6,7.3,13.4,13.8,1.8,20.4c-8.1,4.1-18.8,3.3-24.2-4.1
			c-11.6-14.7-21.5-18.7-31.4,0.8c-5.4,11.4-15.2,10.6-26,5.7c-17.9-8.1-36.7-6.5-55.6-2.4c-18.8,3.3-33.2-0.8-41.2-16.3
			c-23.3-43.2-70.8-23.6-106.6-34.2c-9-2.4-10.8,8.1-10.8,14.7c1.8,33.4-15.2,31.8-41.2,20.4c-21.5-9.8-47.5-10.6-69.9-22.8
			c-26.9-13.8-126.3,12.2-134.4,36.6c-8.1,23.6-20.6,22.8-40.3,20.4c-1.1,0.7-2,1.5-2.9,2.3V896h1557.8
			C2235.9,878.6,2217.2,864.3,2188.9,862.4z M2099.3,840.4c3.3-3.8,8.9-5.4,12.6-8.9C2108.3,835.1,2103.4,837.4,2099.3,840.4z"/>
		<path class="st3" d="M2675.6,206.9c6.5,5.3,12.5,8.1,18.4,8.3v-5.4c-11.7-7.9-23.7-12.6-36-14.8
			C2664.1,198.4,2669.9,202.3,2675.6,206.9z"/>
		<path class="st3" d="M939,385.4c11.3,0,22.7,0,34-0.1C961.4,384.2,950.1,384.5,939,385.4z"/>
		<path class="st3" d="M2505,100c2.1,0.4,4.6,1.5,6.4,3.5c28.7,34.2,60.9,40.7,99.5,13c14.3-10.6,30.5-9,46.6-1.6
			c11.8,5.4,23.7,11.3,36.5,15.5V84C2630.5,92.9,2565.6,86.1,2505,100z"/>
		<path class="st3" d="M784.7,236.3c85.1,3.3,168.5-12.2,252.7-9c0,0,0,0,0,0c-0.3-0.3-0.6-0.5-0.9-0.8
			c70.8-41.5,154.1-48.9,233-54.6c69.9-4.9,139.8-20.4,212.4-4.9c40.3,8.1,74.4-28.5,114.7-36.6c10.8-2.4,17.9-18.7-8.1-26.9
			c-36.7-11.4-78,2.4-116.5-19.5c83.3-20.4,165.8-8.1,247.3-12.2c16.7-0.8,35.1,5.4,50.1-7.3c-35.8,0-71.7,0-107.5,0
			c-21.5,0-41.2,0.8-58.2-13.8c-5.4-4.1-14.3-9-19.7-8.1c-93.2,17.1-184.6-12.2-280.5,0.8c-66.3,9-137.1,28.5-207.9,7.3
			c-12.5-4.1-28.7,3.3-43,7.3c-34.1,9-67.2,9.8-101.3,1.6c-18.8-4.9-39.4-7.3-55.6,4.1C849.3,97,800,106,745.3,84
			c-5.4-2.4-13.4-4.9-17-2.4c-11.1,6.7-22.6,10.3-34.3,12.1v142.9C725.1,249.1,754.5,234.6,784.7,236.3z"/>
		<path class="st3" d="M705.9,40.8c13.4,0,20.6-7.3,27.8-17.1c11.6-17.1,18.8-17.1,27.8,4.1c8.1,20.4,31.4,32.6,53.8,22.8
			c39.4-16.3,82.4-15.5,121.9-16.3c77.1-0.8,149.6-21.2,224.9-26.1c95-6.5,189.1-14.7,284.9-4.9c67.2,7.3,138-9,207-16.3
			c9-0.8,19.7-9,25.1-15.5c17.9-26.1,37.6-37.5,73.5-30.1c28.7,5.7,53.8-12.2,75.3-29.3c23.3-17.9,45.7-25.2,68.1,0.8
			c4.5,4.9,11.6,9,17.9,11.4c10.8,4.9,33.2-1.6,29.6,15.5c-3.6,15.5-20.6,27.7-40.3,26.1c-46.6-4.1-90.5,8.1-135.3,16.3
			c-11.6,2.4-26,1.6-27.8,15.5c-1.8,13,7.2,22,22.4,26.1c32.3,8.1,63.6,11.4,96.8,4.9c37.6-7.3,71.7-3.3,103,19.5
			c19.7,14.7,46.6,12.2,68.1,3.3c75.3-31.8,157.7-22.8,235.7-35.8c42.1-6.5,86-16.3,127.2-12.2c93.2,9,181-35,274.2-21.2
			c9.1,1.5,18,0,26.6-1.9V-104H1366c-12.5,10.5-26.4,13.8-42.3,11.5c-65.9-10.8-136.5-5.4-195.4,18.9
			c-105.9,45.9-210.7,10.8-314.2,35.1C773.7-29.9,733.2-24.6,694-2.4v61.7C700.9,56.3,705.4,51.2,705.9,40.8z"/>
		<path class="st5" d="M745.3,84c54.7,22,103.9,13,150.5-20.4c16.1-11.4,36.7-9,55.6-4.1c34.1,8.1,67.2,7.3,101.3-1.6
			c14.3-4.1,30.5-11.4,43-7.3c70.8,21.2,141.6,1.6,207.9-7.3c95.9-13,187.3,16.3,280.5-0.8c5.4-0.8,14.3,4.1,19.7,8.1
			c17,14.7,36.7,13.8,58.2,13.8c35.8,0,71.7,0,107.5,0c0.3-0.3,0.6-0.5,0.9-0.8c2.7,0,6.3,0,9,0c77.1,9,155.9-0.8,233,8.1
			c29.6,15.5,60-0.8,89.6,0c4.2,0.5,8.4,1,12.5,1.4c30.4-0.6,60.7-1.3,89.6-14.4c22-9.7,40,9.7,61.2,14.6c5.3-0.5,10.6-1,15.9-1.6
			c1.6-0.9,3.1-1.8,4.7-2.7c7-10.4,14.5-21.2,30.2-16.9c48.4,13.8,89.6-7.3,131.7-21.2c13.4-4.9,21.5-12.2,30.5,10.6
			c12.5,31.8,49.3,9,73.5,15.5c46.9-2.1,94.5,2.6,142.2-3.3v-73.6c-8.7,1.9-17.5,3.4-26.6,1.9c-93.2-13.8-181,30.1-274.2,21.2
			c-41.2-4.1-85.1,5.7-127.2,12.2c-78,13-160.4,4.1-235.7,35.8c-21.5,9-48.4,11.4-68.1-3.3c-31.4-22.8-65.4-26.9-103-19.5
			c-33.2,6.5-64.5,3.3-96.8-4.9c-15.2-4.1-24.2-13-22.4-26.1c1.8-13.8,16.1-13,27.8-15.5c44.8-8.1,88.7-20.4,135.3-16.3
			c19.7,1.6,36.7-10.6,40.3-26.1c3.6-17.1-18.8-10.6-29.6-15.5c-6.3-2.4-13.4-6.5-17.9-11.4c-22.4-26.1-44.8-18.7-68.1-0.8
			c-21.5,17.1-46.6,35-75.3,29.3c-35.8-7.3-55.6,4.1-73.5,30.1c-5.4,6.5-16.1,14.7-25.1,15.5c-69,7.3-139.8,23.6-207,16.3
			C1351-6.4,1257,1.7,1162,8.3c-75.3,4.9-147.9,25.2-224.9,26.1c-39.4,0.8-82.4,0-121.9,16.3c-22.4,9.8-45.7-2.4-53.8-22.8
			c-9-21.2-16.1-21.2-27.8-4.1c-7.2,9.8-14.3,17.1-27.8,17.1c-0.5,10.3-5,15.4-11.9,18.6v34.3c11.7-1.8,23.2-5.4,34.3-12.1
			C731.9,79.1,739.9,81.5,745.3,84z"/>
		<path class="st2" d="M727.7,269.2c57.2,9.8,111.9,9,171.7-1.6c77.6-13,161.5-12.2,241.6-9.8c89,3.3,171.7-12.2,254.3-26.9
			c33.1-5.7,59.8-4.9,91.5,3.3c68.7,18.7,99.2,10.6,137.3-34.2c14-16.3,31.8-25.2,59.8-23.6c55.9,3.3,110.6,4.1,166.6,11.4
			c77.6,9.8,162.8-0.8,242.9-9.8c17.7-1.9,34.4-3.3,51-4.1c-11.7-2.3-24.6-7.5-39.7-15.5c-9-5.7-18.8-7.3-29.6-6.5
			c-104.8,8.1-210.6-16.3-314.5,6.5c-8.1,1.6-18.8,0-26-3.3c-19.7-9.8-37.6-13.8-54.7,4.9c-3.6,4.1-12.5,9-19.7,3.3
			c-7.2-5.7-3.6-13,1.8-17.9c23.3-22,1.8-30.9-16.1-37.5c-22.4-9-45.7-5.7-69.9-1.6c-49.3,7.3-98.6,18.7-148.7,19.5
			c-77.1,0.8-154.1,22-232.1,9c-54.6-9-104.8,13.8-157.7,16.3c0,0,0,0,0,0c-84.2-3.3-167.6,12.2-252.7,9
			c-30.3-1.6-59.6,12.8-90.7,0.3v109.6c3.2-0.5,6.3-1,9.5-1.6C711.1,266.7,720,268.4,727.7,269.2z"/>
		<path class="st6" d="M2551.8,57.1C2481.9,73.4,2412,97.8,2339.4,71c-19.7-7.3-37.6,7.3-56.5,2.4c-60,29.3-119.2,12.2-179.2,0
			c3.6-0.1,7.2-0.2,10.7-0.2c-4.2-0.4-8.4-0.9-12.5-1.4c-29.6-0.8-60,15.5-89.6,0c-77.1-9-155.9,0.8-233-8.1c-2.7,0-6.3,0-9,0
			c-0.3,0.3-0.6,0.5-0.9,0.8c-15.1,12.8-33.5,6.5-50.1,7.3c-81.5,4.1-164-8.1-247.3,12.2c38.5,22,79.7,8.1,116.5,19.5
			c26,8.1,18.8,24.4,8.1,26.9c-40.3,8.1-74.4,44.8-114.7,36.6c-72.6-15.5-142.5,0-212.4,4.9c-78.9,5.7-162.2,13-233,54.6
			c0.3,0.3,0.6,0.5,0.9,0.8c52.9-2.5,103-25.2,157.7-16.3c78,13,155-8.1,232.1-9c50.2-0.8,99.5-12.2,148.7-19.5
			c24.2-4.1,47.5-7.3,69.9,1.6c17.9,6.5,39.4,15.5,16.1,37.5c-5.4,4.9-9,12.2-1.8,17.9c7.2,5.7,16.1,0.8,19.7-3.3
			c17-18.7,34.9-14.7,54.7-4.9c7.2,3.3,17.9,4.9,26,3.3c103.9-22.8,209.7,1.6,314.5-6.5c10.8-0.8,20.6,0.8,29.6,6.5
			c15,7.9,28,13.1,39.7,15.5c9.6-0.5,19.2-0.8,29-0.9c14.1-4.2,27.2-14.3,41.5-30.8c23.3-26.9,41.2-46.4,74.4-6.5
			c22.4,27.7,64.5,21.2,96.8,19.5c2.9-0.1,5.7-0.2,8.5-0.3c0.9-0.7,1.7-1.4,2.6-2.1c0-8.1,0-16.3,1.3-24.4
			c1.3-10.6-7.6-22.8,11.4-29.3c21.6-7.3,29.2,8.1,40.7,13.8c21.6,10.6,36.9,12.2,66.1,4.1c46.8-13.6,98.5-21.5,141.4,2
			c12.3,2.3,24.3,7,36,14.8v-79.5c-12.8-4.2-24.7-10.1-36.5-15.5c-16.1-7.3-32.3-9-46.6,1.6c-38.5,27.7-70.8,21.2-99.5-13
			c-1.8-2-4.3-3.1-6.4-3.5c60.5-14,125.5-7.2,189-16.1V53.9C2646.3,59.7,2598.7,55,2551.8,57.1z"/>
		<path class="st6" d="M2283,73.4c1-1.4,2-2.8,2.9-4.3c-1.6,0.9-3.2,1.7-4.7,2.7c-5.3,0.6-10.6,1.1-15.9,1.6
			C2270.9,74.6,2276.8,74.9,2283,73.4z"/>
		<path class="st1" d="M715.7,623.4c65.4-1.7,130.8-4.2,196.2-4.2c17,1.7,36.7,8.5,52,3.4c52-16.1,103-14.4,156.8-12.7
			c65.4,2.5,130.8,6.8,197.1,6.8c37.6,0,72.6-12.7,112-9.3c94.1,8.5,189.1,7.6,284.1-0.8c77.1-6.8,155.9-12.7,231.2-7.6
			c107.5,8.5,213.3-11,318.1,0c49.3,5.1,95.9-20.4,147-3.4c52,17,110.2,0.8,165.8,6.8c9,1.7,19.7-5.1,29.6-7.6
			c8.1-2.5,17-8.5,25.1-2.5c20.3,15.7,41.3,12.2,63.4,7.7v-210c-71.8,0.2-144.8-11.7-214.2,7.8c-6.4,1.6-17.8,2.4-24.2,0
			c-54.7-21.2-109.3-13-166.6-5.7c-52.1,7.3-104.3-7.3-152.6-4.9c-96.6,4.9-195.8-2.4-289.9,9.8c-42,5.7-71.2-12.2-113.2-8.1
			c-89,9-180.6,15.5-275.9,2.4c-71.2-9.8-151.3-3.3-225.1,3.3c-82.6,7.3-164,10.6-244.1-6.5c-5.2-1.1-10.3-1.9-15.3-2.4
			c-11.3,0-22.6,0-34,0.1c-23.2,1.9-45.6,6.7-69,7.2c-58.7,1-117.4,1.5-176.1,2v229.1C701.2,623.8,708.5,623.7,715.7,623.4z"/>
		<path class="st2" d="M727.7,345.4c57.2,9.8,111.9,9,171.7-1.6c77.6-13,161.5-12.2,241.6-9.8c89,3.3,171.7-12.2,254.3-26.9
			c33.1-5.7,59.8-4.9,91.5,3.3c68.7,18.7,99.2,10.6,137.3-34.2c14-16.3,31.8-25.2,59.8-23.6c55.9,3.3,110.6,4.1,166.6,11.4
			c77.6,9.8,162.8-0.8,242.9-9.8c17.7-1.9,34.4-3.3,51-4.1c-11.7-2.3-24.6-7.5-39.7-15.5c-9-5.7-18.8-7.3-29.6-6.5
			c-104.8,8.1-210.6-16.3-314.5,6.5c-8.1,1.6-18.8,0-26-3.3c-19.7-9.8-37.6-13.8-54.7,4.9c-3.6,4.1-12.5,9-19.7,3.3
			c-7.2-5.7-3.6-13,1.8-17.9c23.3-22,1.8-30.9-16.1-37.5c-22.4-9-45.7-5.7-69.9-1.6c-49.3,7.3-98.6,18.7-148.7,19.5
			c-77.1,0.8-154.1,22-232.1,9c-54.6-9-104.8,13.8-157.7,16.3c0,0,0,0,0,0c-84.2-3.3-167.6,12.2-252.7,9
			c-30.3-1.6-59.6,12.8-90.7,0.3v109.6c3.2-0.5,6.3-1,9.5-1.6C711.1,342.9,720,344.6,727.7,345.4z"/>
		<path class="st2" d="M2289.2,211.8c-33.2-39.9-51.1-20.4-74.4,6.5c-14.4,16.5-27.5,26.6-41.5,30.8c9.9-0.1,20-0.1,30.6,0.1
			c63.8,1.6,137.5,24.5,190.7-18.2c-2.8,0.1-5.7,0.2-8.5,0.3C2353.7,233,2311.6,239.5,2289.2,211.8z"/>
		<path class="st7" d="M2339.4,71c72.6,26.9,142.5,2.4,212.4-13.8c-24.2-6.5-60.9,16.3-73.5-15.5c-9-22.8-17-15.5-30.5-10.6
			c-42.1,13.8-83.3,35-131.7,21.2c-15.7-4.3-23.2,6.5-30.2,16.9c-1,1.5-2,2.9-2.9,4.3C2301.8,78.3,2319.7,63.6,2339.4,71z"/>
		<path class="st7" d="M2283,73.4c-6.2,1.5-12,1.2-17.7-0.1c-21.2-4.9-39.2-24.3-61.2-14.6c-28.9,13.1-59.2,13.8-89.6,14.4
			c-3.6,0.1-7.2,0.1-10.7,0.2C2163.8,85.6,2222.9,102.7,2283,73.4z"/>
		<path class="st8" d="M939,385.4c11.1-0.9,22.4-1.2,34-0.1c5,0.5,10.1,1.3,15.3,2.4c80.1,17.1,161.5,13.8,244.1,6.5
			c73.7-6.5,153.9-13,225.1-3.3c95.4,13,186.9,6.5,275.9-2.4c42-4.1,71.2,13.8,113.2,8.1c94.1-12.2,193.3-4.9,289.9-9.8
			c48.3-2.4,100.4,12.2,152.6,4.9c57.2-7.3,111.9-15.5,166.6,5.7c6.4,2.4,17.8,1.6,24.2,0c69.4-19.5,142.5-7.5,214.2-7.8V215.3
			c-5.9-0.2-11.9-3-18.4-8.3c-5.7-4.6-11.5-8.6-17.6-11.9c-42.9-23.5-94.6-15.5-141.4-2c-29.2,8.1-44.5,6.5-66.1-4.1
			c-11.4-5.7-19.1-21.2-40.7-13.8c-19.1,6.5-10.2,18.7-11.4,29.3c-1.3,8.1-1.3,16.3-1.3,24.4c-0.9,0.7-1.7,1.4-2.6,2.1
			c-53.2,42.7-126.9,19.8-190.7,18.2c-10.6-0.2-20.7-0.3-30.6-0.1c-9.8,0.1-19.4,0.4-29,0.9c-16.7,0.8-33.3,2.2-51,4.1
			c-80.1,9-165.3,19.5-242.9,9.8c-55.9-7.3-110.6-8.1-166.6-11.4c-28-1.6-45.8,7.3-59.8,23.6c-38.1,44.8-68.7,52.9-137.3,34.2
			c-31.8-8.1-58.5-9-91.5-3.3c-82.6,14.7-165.3,30.1-254.3,26.9c-80.1-2.4-164-3.3-241.6,9.8c-59.8,10.6-114.4,11.4-171.7,1.6
			c-7.6-0.8-16.5-2.4-24.2-0.8c-3.2,0.6-6.3,1.1-9.5,1.6v48.4c58.7-0.5,117.4-0.9,176.1-2C893.4,392.1,915.9,387.3,939,385.4z"/>
	</g>
</g>
</svg>
