<?xml version="1.0" encoding="utf-8"?>
<!-- Generator: Adobe Illustrator 19.0.1, SVG Export Plug-In . SVG Version: 6.00 Build 0)  -->
<svg version="1.1" id="Layer_1" xmlns="http://www.w3.org/2000/svg" xmlns:xlink="http://www.w3.org/1999/xlink" x="0px" y="0px"
	 viewBox="0 0 1080 1920" enable-background="new 0 0 1080 1920" xml:space="preserve">
<linearGradient id="SVGID_1_" gradientUnits="userSpaceOnUse" x1="540" y1="-2.424440e-008" x2="540" y2="1920">
	<stop  offset="1.075269e-002" style="stop-color:#61A0FF"/>
	<stop  offset="0.25" style="stop-color:#DCF4FF"/>
	<stop  offset="0.5" style="stop-color:#FFFFFF"/>
	<stop  offset="0.51" style="stop-color:#FFFFFF"/>
	<stop  offset="1" style="stop-color:#FFFFFF"/>
</linearGradient>
<rect x="0" fill="url(#SVGID_1_)" width="1080" height="1920"/>
<g>
	<path fill="#FFFFFF" d="M0,145.9c6-0.4,12.1-1,18.1-1.1c6.6-0.2,13.3-2.6,19.7,2.4c1.9,1.5,6.5-0.2,9.8-0.7
		c6.6-0.9,13.2-2.4,19.8-2.8c5.1-0.3,10.4,0.9,15.5,1c14.4,0.1,28.7,0,43.1,0c7.3,0,7.3,0,7.6,6.8c9.9,6.8,20.9,9.6,32.3,8
		c14.7-2.1,28.8,1.7,43.2,2.5c1.7,0.1,3.3,1.5,5,2.2c-1.5,2-2.6,4.5-4.6,6c-1.2,0.9-3.9,1.1-5.4,0.4c-4.9-2.4-9.2,0.2-13.7,1.1
		c-12.3,2.7-24.5,5.9-36.9,7.8c-6.9,1-14.1-0.5-21.2-0.4c-6.1,0-12.3,0.7-18.4,0.9c-6.2,0.2-12.4,0.1-18.6,0.2
		c-5.2,0.1-10.4,0.7-15.7,0.6c-25.4-0.3-50.8-0.7-76.3-1.1c-1.2,0-2.3-0.3-3.5-0.4C0,168.3,0,157.1,0,145.9z"/>
	<path fill="#FFFFFF" d="M0,407.1c0.5-1,1.1-1.9,1.2-2.2c4.6,0.6,1.7,8.7,8.4,5.6c-0.7,4.8,2.1,5.1,6,5.6c9.4,1.2,18.6,3.2,28,4.8
		c0.5,0.1,1.2,0.2,1.5,0c5.6-5,12.4-2.3,18.6-2.3c6,0,9.2-2.4,11.8-7.2c3.5-6.7,12.6-9,18.9-4.7c4.2,2.9,8.5,4.5,13.6,3.6
		c1.5-0.3,3-0.1,4.5,0.1c14.4,2.1,28.8,4.7,43.3,6.1c6.5,0.6,13.3-1.4,20-1.5c11.2-0.2,22.2,1.1,33.6-1.4c8.3-1.9,17.6,1.3,26.5,1.5
		c5.6,0.1,11.3-1,16.9-2c3.2-0.6,5.5-1.4,6.3,2.9c0.7,4,4.1,2.9,6.9,3.3c1.5,0.2,2.9,1.2,4.3,1.9c-1.5,0.8-3,2.3-4.5,2.4
		c-12,0.2-23.9,0.3-35.9,0c-3.4-0.1-6.8-1.6-10.1-2.6c-1.7-0.5-3.4-2-5-1.9c-9.6,1-19.5-1.4-28.8,3.1c-2,1-5.3,0.3-7.6-0.6
		c-5.6-2.2-10.9-3.3-17.1-2.5c-11.2,1.5-22.5,1.8-33.7,2.6c-4.5,0.3-9.1,1.3-13.6,1.1c-17.7-0.9-35.2,1.3-52.8,2.1
		c-6.4,0.3-12.7,1.4-19.1,1.5c-6,0-12-1.4-18-1.4c-6.6,0-13.2,1-20.3,1.6c2.3,6.2,5,11.1,1.1,16.5c-1.9-1.3-3.3-2.3-4.7-3.3
		C0,428.8,0,417.9,0,407.1z"/>
	<path fill="#FFFFFF" d="M0,494.5c5.3-2.3,10.6-4.7,15.9-7c2-0.9,4-2.6,6.1-2.7c12.6-0.9,25.3-1.8,37.9-1.9c8.5,0,17,1.9,25.6,2
		c8.6,0.1,17.2-1.2,25.7-1.5c4-0.1,8,1.2,12.1,1.3c4.5,0.2,9.1-0.3,13.6-0.1c2,0.1,4,0.9,6.3,1.4c-3.3,3-5.8,5.7-8.7,8
		c-1,0.8-3.3,1-4.3,0.4c-4.9-3-8.7,1.2-12.9,1.4c-9.2,0.5-18.5,1-27.6,0c-6.7-0.8-12.2,0-17.3,4.3c-1.6,1.3-3.5,2.3-6,2.6
		c0.6-1.2,1.1-2.5,1.8-4.1c-13.2-2.8-25.9-1.6-38.2,1.8c-4.9,1.3-9.4,4.2-15,2.5c-2.1,7.8-7.8,11.3-15,12.9C0,508.7,0,501.6,0,494.5
		z M101.5,492c-3.3-3.6-5.7-4.3-7.9-1.8c-0.6,0.7,0.1,2.6,0.2,4C96,493.5,98.3,492.9,101.5,492z"/>
	<path fill="#FFFFFF" d="M0,123.6c12.8-0.1,25.7-0.3,38.5-0.4c17.6-0.1,35.2-0.2,52.8-0.2c1.2,0,2.3,0.2,3.5,0.3
		c0.2,0.5,0.4,0.9,0.6,1.4c-1.8,0.8-3.6,2.3-5.5,2.3c-14.8,0.2-29.7-0.1-44.5,0.4c-6.6,0.2-13.1,2.5-19.7,2.9
		c-8.5,0.6-17.1,0.3-25.7,0.4C0,128.3,0,125.9,0,123.6z"/>
	<path fill="#FFFFFF" d="M0,184.6c3.6-0.4,7.4-1.6,11.6,3C7,188,3.5,188.3,0,188.6C0,187.3,0,185.9,0,184.6z"/>
	<path fill="#FFFFFF" d="M331.4,319.8c1.1-0.3,2.2-0.8,3.3-0.8c24.3-0.2,48.7-0.5,73-0.5c28.2,0,56.4,0.3,84.6,0.4
		c15.6,0.1,31.3,0.1,46.9,0c5.7-0.1,11.4-1,17.1-1c4.3,0,8.6,0.7,13,1.1c1.3,0.1,2.7,0.4,4,0.4c5.7,0,11.4,0.2,17,0
		c5.2-0.2,10.3-1.4,15.5-1.4c8.1,0,16.1,0.8,24.2,1c8.9,0.3,17.9,1.1,26.8,0.5c13.3-0.9,25.8,1.5,38.2,6.3
		c8.5,3.3,17.6,5.4,26.6,7.1c6.6,1.2,13.5,1.3,20.2,1c7.9-0.3,14-3.5,16.2-12.1c0.3-1.2,2.8-2.5,4.2-2.5c12,0,24,0.6,36,0.4
		c5.3-0.1,9.2,1.3,12.8,5c4.9,5.2,10.2,10,15.4,14.9c0.9,0.9,2.3,1.6,3.5,1.8c9.6,1.4,19.3,2.6,28.9,3.9c6.3,0.9,12.6,1.7,18.7,3.2
		c4.2,1.1,5.5,5.7,3.7,10.1c3.5,3,6.8,6,10.4,8.8c1.8,1.4,4,2.9,6.2,3.3c9,1.3,18.2,2.2,27.2,3.3c3,0.4,8.1,7.7,8,11.7
		c-3.2-0.9-6.5-1.4-9.4-2.6c-7-3-14-1.9-21.1-0.7c-2.8,0.5-5.2,0.7-6.2-3c-0.3-1.1-2.2-2.4-3.5-2.4c-10-0.3-20-0.4-30-0.4
		c-1.3,0-2.7,0.4-3.8,1.1c-5.7,3.7-11.4,1.3-17-0.2c-1.5-0.4-3.2-3.4-3.1-5.2c0.2-3,2.9-4.2,5.7-3.2c4.9,1.6,7.5-1.1,11.2-5.8
		c-6.6-1.1-12.2-3-17.7-2.8c-15.8,0.6-31.5,2.1-47.3,3.3c-4.1,0.3-8.2,0.6-12.3,1.1c-3.5,0.5-4.7,4.2-2.5,7.1
		c0.9,1.1,1.1,2.7,1.7,4.1c-1.5,0.5-3.1,1.5-4.6,1.4c-8.3-0.2-16.7-1-25-1c-4.8,0-9.7,1-14.4,1.9c-5.1,1-7.3-0.7-6.8-4.8
		c7.3-7.5,16.2-3.1,24.1-4.7c4.9-1,9.2-1.9,11.9-7.4c-2.1-0.4-4.1-1.1-6.1-1.1c-23.5-0.5-46.9-1-70.4-1.2c-6.2-0.1-12.5,1-18.7,1.2
		c-1.3,0-2.8-1.3-4.1-2c-1.7-0.9-3.7-3.1-5-2.7c-10.1,2.8-19.6-0.1-29.1-2.5c-1.6-0.4-3.2-0.5-4.9-0.5c-5-0.1-10.1,0.9-14.1-3.8
		c-0.7-0.9-4-0.3-5.7,0.5c-4.6,2.3-8.8,4.4-12.8-1.2c-0.8-1.1-3.4-0.9-5.2-1.1c-18-1.3-36.1-2.4-54.1-3.9c-3.4-0.3-6.9-1.6-9.9-3.2
		c-5.3-2.8-10.4-1.8-15.7-0.3c-3.1,0.8-6.1,1.7-6.9-2.9c-0.1-0.7-1-1.6-1.6-1.7c-4.7-1.1-9.4-2.7-14.1-2.8c-6.4-0.1-12.1-2-18.1-4
		c-3.9-1.3-8.7,0.2-13.1,0.5c-1.6,0.1-3.1,0.3-4.7,0.3c-0.7,0-1.3-0.5-2-0.4c-13.9,2-27.5-5-41.6-1.3c-3.9,1-8.6-1.2-12.9-1.3
		c-6.1,0-12.1,1.2-18.2,0.8c-12.9-0.7-25.8-2.1-38.7-3.4c-1.6-0.2-3-1.5-4.5-2.3C331.2,320.8,331.3,320.3,331.4,319.8z"/>
	<path fill="#FFFFFF" d="M441.9,495.7c1.6,0.8,3.3,1.4,4.8,2.3c1.8,1.1,3.4,2.4,5,3.7c1.7,1.3,3.4,3.7,5.2,3.8
		c8.7,0.9,17.2,0.3,26-1.8c13.6-3.3,27-8.4,41.4-6.9c1.4,0.1,2.7,1.1,4,1.7c-1.3,0.6-2.7,1.8-3.9,1.7c-15.1-1.1-28.8,3.4-42.3,9.4
		c-2,0.9-4.4,1.1-6.6,1.7c-0.1,0.5-0.1,1.1-0.2,1.6c8.9,1.8,17.7,3.7,26.6,5.3c9,1.5,18.1,2.7,27.2,4c-1.5,4.7-7,8.5-11.2,8
		c-1.7-0.2-3.4,0.2-5-0.1c-4.4-0.7-8.8-1.1-13-2.4c-8.2-2.5-16.1-5.7-25.2-3.6c-5.4,1.2-11.4,0.2-17.1,0.3c-2,0-4,0.3-6,0.6
		c-10.1,1.6-20.1,3.5-30.3,4.7c-3.4,0.4-7-1.8-10.4-1.6c-8.7,0.3-17.3,1.2-26,1.9c-1,0.1-2,0.3-3,0.3c-9.1-0.4-18.1-0.8-27.2-1.4
		c-4.7-0.3-9.3-1.7-13.9-1.6c-10.1,0.3-20.2,0.7-30.1,1.9c-8.4,1.1-15.2-1.8-23.5-5.9c4.7-1.7,8.2-3.3,11.9-4.3
		c8.7-2.5,17.4-3.1,26.4-0.7c3.6,1,7.7,0.6,11.6,0.3c5.3-0.3,10.6-1.4,15.9-1.6c7.2-0.3,9.7-2,11.8-9.3c2.2,0.3,4.4,0.5,6.7,1
		c3.9,0.8,7.6,0.3,9.5-3.5c1-1.9,1.3-4.6,0.8-6.7c-0.2-1-2.9-1.9-4.5-2c-12.8-0.7-25.6-1.3-38.4-1.9c-2-0.1-4-0.3-5.9-1
		c-5.8-2.2-11.4-1.4-17.2,0.4c-2.6,0.8-6.1,1.6-8.3,0.5c-7.7-3.9-14.9,0.9-22.3,0.3c-6.6-0.5-13.3-0.1-20-0.5
		c-4-0.2-7.9-1.4-11.8-1.5c-10.1-0.2-20.3-0.1-30.4-0.2c-1.5,0-3-0.8-4.5-1.3c0.1-0.5,0.2-0.9,0.2-1.4c1.1-0.1,2.1-0.4,3.2-0.4
		c5.8,0.1,10.7-0.9,15.2-5.6c6.4-6.8,16.3-7,24.2-11c1.3-0.7,2.7-1.3,4-2c4.4-2.5,8.7-2.7,13.3-0.4c4.7,2.3,9.3,4.6,14.2,6.4
		c6.7,2.6,10.2,1,14.1-4.7c0.7-1,4-1.6,5.1-0.8c2.9,1.9,5.1,1.4,7.9,0c9.3-4.9,19.1-3.7,29.1-2.4c5.7,0.7,11.6,0.1,17.4-0.2
		c3.3-0.2,6.1,0.1,9.5,0.8c8.2,1.8,16.9,2.3,25.4,2.2c3.5-0.1,6.3,0.1,8.7,2.4c2.8,2.6,4.6,1.4,6.5-1c3.3-4.2,5.4-4.2,8.6-0.1
		c1.7,2.1,3.1,3.3,6.1,1c5.5-4.1,11.7-5.3,18.8-3.5c5,1.3,11,1.5,15.8,0c7.9-2.6,15.8-2.6,23.8-2.6c4.4,0,8.9-0.6,13.9-0.9
		c0.8,2,1.8,4.8,3.1,8.2c-2.7,0-4.5,0-6.4,0c-0.2,0.5-0.4,1.1-0.6,1.6c2.3,1,4.5,2.7,6.8,2.8c6.9,0.4,14.2-1.3,20.1,4.3
		c0.4,0.3,3.8-1.5,4.6-3c1.4-2.6,2.3-3.3,5.6-3c5.1,0.5,8.9,2.6,13.2,4.9c3.1,1.7,7.8,1,11.7,0.7c3.2-0.3,6-1.5,5.1,3.7
		c-0.1,0.7,1.7,2,2.8,2.7c1.1,0.7,2.4,1.1,3.7,1.3c3.1,0.5,6.3,0.9,9.5,1.3c1.3,0.1,2.8-0.2,4,0.2c0.9,0.3,1.6,1.3,2.4,2.1
		c-0.8,0.7-1.6,1.7-2.5,1.9c-2,0.4-4,0.5-6,0.5c-5.3-0.1-10.7,0.1-15.9-0.7c-2.4-0.3-5-2-6.7-3.8c-3.1-3.3-6.4-5-11-4.7
		c-12.8,0.7-25.6,0.9-38.4,1.6c-18.1,1.1-36.1,2.5-54.2,3.7c-4,0.3-8.1,0.4-12.1,0.6C442.1,494.2,442,495,441.9,495.7z M424.5,490.4
		c0.7-2.1,1.7-4.2,1.8-6.3c0.1-1.8-0.9-5.2-1.2-5.2c-3.3,0.2-6.6,1-9.8,1.6c0.6,1.4,1.2,2.9,1.8,4.3c0.4,0.9,1,1.8,1.2,2.7
		C419.4,490.9,421.5,491.6,424.5,490.4z M352.3,484.6c1.6,4.5,3.6,6.2,6.4,4.2c0.9-0.6,0.3-3.1,0.5-4.8
		C356.9,484.2,354.6,484.4,352.3,484.6z"/>
	<path fill="#FFFFFF" d="M944.5,207.4c-16.5,8-33.4,12-51.3,10.6c-0.9-5.7-2.5-6.5-8-4.3c-2.2,0.8-4.9,2.2-6.7,1.5
		c-2.9-1-5.4-3.5-8.5-5.7c-5.9,9.3-15.5,9.6-26.2,6.1c-0.8-0.3-1.7,0-2.5-0.2c-1.7-0.4-3.4-0.9-5.1-1.4c0.5-1.8,1-3.6,1.9-6.9
		c-1.7-0.4-4-1.4-6.2-1.4c-14-0.2-27.9-0.3-41.9-0.3c-4.5,0-9,0.7-13.6,1c-2.3,0.1-4.7,0.5-6.9,0.1c-2.7-0.5-5-1.5-2.3-5.1
		c1.3-1.8,2.3-4.8-2.2-4.4c-5.8,0.5-11.5,0.9-18.7,1.5c2.2-1.8,3.6-2.9,4.9-4.1c-4.3-6.6-4.3-6.6,1.9-19.4c-3-0.5-5.7-0.7-8.3-1.5
		c-1.8-0.6-3.4-2-5.1-3c1.4-1.1,2.7-2.9,4.2-3.2c8.9-1.9,17.7-2.1,26.8,3.3c-3.1,0.7-5.4,1.1-7.6,1.9c-1.3,0.5-2.2,1.8-3.3,2.8
		c0.9,0.8,1.8,1.7,2.8,2.5c3.2,2.5,5.7,4.9,2.3,9.2c-1.7,2.2-0.6,3.9,2.2,3.9c12.8,0,25.5,0,38.3-0.3c1.2,0,2.4-1.7,3.6-2.6
		c-1.3-0.7-2.5-1.6-3.8-2.2c-0.9-0.4-2.2-0.2-2.9-0.7c-1.5-1.4-2.7-3.1-4.1-4.6c1.6-1.3,3-3.2,4.8-3.9c1.8-0.7,4,0,6-0.3
		c8.3-1.1,16.5-2.4,24.7-3.7c0.8-0.1,1.5-0.8,2-1.1c-3.4-5.5-3.1-6.1,1.9-8.5c1.8-0.9,3.3-2.5,4.9-3.9c-1.3-1.3-2.5-2.6-4-4.2
		c3.1-3.6,6.9-5.2,11.8-4.2c9.2,1.9,18.5,3.5,27.7,5.6c1.4,0.3,3.4,3.2,3.2,4.3c-1,4.1,1.7,6.6,4.2,6.9c8.9,1,18.1,1.9,27,1.3
		c4-0.3,7.9-4.2,11.6-6.7c0.5-0.3,0.2-2.6-0.4-3.6c-0.7-1.2-2-1.9-4-3.7c5.6-1.4,9.8-1,12.3,2.9c3,4.6,7.2,5.3,11.7,4.9
		c6-0.5,11.9-1.8,17.9-2.7c0.8-0.1,1.6,0,3,0c-2.8,6.4,0.9,7.5,5.8,8.4c1.2,0.2,2.7,3.2,2.6,4.8c-0.2,2.8,0.4,4.5,3.2,4.4
		c7.8-0.4,15.6-1,23.4-1.5c6.6-0.5,13.2-1.4,19.8-1.5c12.9-0.2,25.9-0.2,38.8,0.3c6.7,0.3,13.3,1.7,19.9,2.8
		c0.7,0.1,1.9,1.6,1.7,2.1c-0.4,1.3-1.1,3.2-2.2,3.6c-11,4.8-22.1,10.2-34.4,8.3c-12.1-1.9-24.1-1.8-36.2-0.8
		c-6.5,0.5-13.7-1.2-19.3,1.3c-14.9,6.4-30.5,5.9-46,7.4c-1.3,0.1-2.6,1-3.9,1.5c0.9,1.3,1.7,2.7,2.9,3.8c1.1,1,2.5,1.6,3.7,2.4
		C944.7,207.4,944.6,207.9,944.5,207.4z"/>
	<path fill="#FFFFFF" d="M680.1,221.1c-8.8-1.4-17.6-2.9-26.3-4.3c0-0.4-0.1-0.9-0.1-1.3c1.1-0.4,2.1-1.1,3.2-1.2
		c7.7-0.5,15.4-0.6,23.1-1.3c2.8-0.2,5.7-1.2,8.1-2.6c7.5-4.3,15.7-5.3,24.1-6.6c7.9-1.2,15.6-3.6,23.5-5.3c3.2-0.7,6.5-0.8,9.8-1.2
		c0.1,0.4,0.3,0.8,0.4,1.2c-4.3,3.1-8.6,6.2-12.8,9.2c4.9,2,9.8,6.5,16,1.2c1.2-1,3.7-0.4,6.2-0.6c-0.4,1.5-0.5,2.9-0.8,2.9
		c-6.2,0.9-10.4,6.4-17.5,6.4c-14.8,0-29.5,1.6-44.3,2.7c-0.6,0-1.1,0.6-3,1.7c3.9,0.5,6.5,0.4,8.8,1.2c1.7,0.6,3,2.5,4.5,3.8
		c-1.5,1.2-2.9,3.3-4.4,3.4c-8,0.4-16,0.3-24,0.5c-8.8,0.2-17.5,0.7-26.3,0.7c-1.7,0-3.5-1.6-5.2-2.5c1.6-1.1,3.2-2.7,5-3.1
		c4.9-1.1,9.9-2,14.9-2.4c4.8-0.4,9.6-0.1,14.4-0.2c0.9,0,1.8-0.4,2.7-0.7C680,222.3,680,221.7,680.1,221.1z"/>
	<path fill="#FFFFFF" d="M335,159.2c-3,3.5-5.4,5.6-7,8.2c-1.5,2.4-2.1,5.3-3.2,7.9c-0.8,1.8-1.8,3.6-2.6,5.4c-1.4-1-3.3-1.7-4.2-3
		c-2.8-4.2-7.9-5.8-12.9-5.3c-6.6,0.7-13.3,0.3-20,0.3c-3.5,0-7-0.7-10.5-0.6c-9.7,0.5-19.4,1.3-29.2,2c-0.8,0.1-1.6,0.2-1.5,1.1
		c-1.2,2.1-1.9,5.4-3.6,6.1c-1.9,0.7-4.7-1-7.1-1.7c-0.9-0.3-1.8-1.2-2.6-1c-6.1,0.9-9.6-3.3-15.2-6.7c2.8-0.8,4.2-1.5,5.8-1.7
		c10-1.5,19.9-3,29.9-4.2c2.8-0.3,5.7,0.6,8.5,0.7c2.5,0,5.6,0.5,7.3-0.7c6.8-4.6,14.5-5.2,22.1-5.9c12.1-1,24.2-1.7,36.3-2.2
		C327.9,157.7,330.5,158.5,335,159.2z"/>
	<path fill="#FFFFFF" d="M161.2,205.4c0-0.7,0-0.9,0-1c0.1-2.4-6.2-2.4-2.4-6c1.8-1.7,10.3,0.4,11.6,2.6c1.8,3.2,3.1,6.5-1.4,10.2
		c4.3,1.1,7.7,2.2,11.2,2.9c3.1,0.6,3.8,1.7,2.6,4.9c-2.4,6.1-7.1,9.7-13.1,10.6c-10.6,1.4-21.4,1.9-32.3,1.8
		c6.1-6.4,15.2-1.6,21.9-5.7c0-0.2,0.1-0.8,0-0.8c-8.8-3-15.3-11.8-26.1-10.3c-1.6,0.2-4.9-2.3-5.1-3.8c-0.4-2.7,0.3-6.3,2-8.4
		c1.7-2.1,5.1-3.6,7.9-3.7C146.2,198.3,153.7,201.1,161.2,205.4z"/>
	<path fill="#FFFFFF" d="M885.7,496.2c5.2-6,10.9-5.4,17.9-4.6c14,1.6,28.1,3.2,42.3-0.1c5.7-1.3,11.9-0.1,17.9-0.1
		c4.5,0.1,9,0.8,13.4,0.2c8.4-1.3,12.5-1,23.2,3.8c-1.5,3.9-4.6,5.2-8.3,5c-18.7-0.9-37.4-2.1-56.1-2.9c-14.3-0.6-28.6-0.9-42.9-1.3
		C890.6,496.1,888.2,496.2,885.7,496.2z"/>
	<path fill="#FFFFFF" d="M647.5,144.8c3.4-0.4,6.9-1,10.4-1.2c6-0.3,12-0.8,17.9-0.3c4,0.3,8,2.2,11.9,3.5c4.8,1.6,9.3,2.1,14-0.9
		c2-1.2,5.1-0.5,7.8-0.7c3.5-0.4,7-1,10.6-1.3c1.9-0.2,3.9,0.2,5.9,0.4c-0.7,1.6-1,4-2.1,4.5c-4.8,2.3-9.8,5.5-14.7,5.6
		c-9,0.3-18-1.6-27-2.2c-2.8-0.2-6,0.4-8.6,1.6c-7,3.3-7.3,3.7-12.2-1.9c-2.7-3.1-5.2-5-9.5-3.9c-1.2,0.3-2.8-0.9-4.3-1.3
		C647.4,146,647.5,145.4,647.5,144.8z"/>
	<path fill="#FFFFFF" d="M56.1,58c1.3-0.3,2.6-1,3.5-0.6c1.7,0.8,3.8,2,4.5,3.6c0.4,0.9-1.7,3.8-3,4.1c-4.4,0.9-9,1.1-13.5,1.3
		c-9.6,0.3-19.2,0.5-28.8,0.7c-0.8,0-1.5-0.3-2.3-0.5c-0.1-0.5-0.2-1-0.3-1.4c4.1-0.9,8.1-2.5,12.2-2.7c7.8-0.3,15-1.9,21-7.2
		C53.1,51.9,54.4,55.6,56.1,58z"/>
	<path fill="#FFFFFF" d="M277.1,524c-10,3.5-20.4,3.4-30.8,2.8c-0.2-0.5-0.4-1.1-0.6-1.6c1.6-0.7,3.4-2.1,4.7-1.8
		c6.1,1.3,11.7,0.5,17.4-2.2c2.5-1.2,6.2,0.2,9.3,0.5C277.1,522.4,277.1,523.2,277.1,524z"/>
</g>
</svg>
