<?xml version="1.0" encoding="utf-8"?>
<!-- Generator: Adobe Illustrator 19.0.1, SVG Export Plug-In . SVG Version: 6.00 Build 0)  -->
<svg version="1.1" id="Layer_1" xmlns="http://www.w3.org/2000/svg" xmlns:xlink="http://www.w3.org/1999/xlink" x="0px" y="0px"
	 viewBox="0 0 913.1 319.3" style="enable-background:new 0 0 913.1 319.3;" xml:space="preserve">
<style type="text/css">
	.st0{fill:none;stroke:#010101;stroke-width:2;stroke-miterlimit:10;}
	.st1{fill:#010101;}
</style>
<path class="st0" d="M5.4,243.3c0,0,242.2-195.8,239.5-235.6S94.7,113.9,122.8,191.9s132.7-104.2,122.5-53.9s-75.6,76.7,137.4,82.8
	c212.8,6.1,394-1.7,530.3,16.9"/>
<path class="st0" d="M3.1,166.6c0,0,26.6-55.7,153.6-15.5s223.4,42.8,304.2,39.1"/>
<g>
	<path class="st1" d="M0,271.4c2.7-0.6,7-1,11.3-1c6.2,0,10.1,1.1,13.1,3.5c2.5,1.8,4,4.7,4,8.4c0,4.6-3.1,8.7-8.1,10.5v0.1
		c4.5,1.1,9.9,4.9,9.9,12c0,4.1-1.6,7.2-4,9.6c-3.3,3.1-8.7,4.5-16.5,4.5c-4.3,0-7.5-0.3-9.6-0.6V271.4z M6.2,291h5.6
		c6.5,0,10.4-3.4,10.4-8c0-5.6-4.3-7.8-10.5-7.8c-2.8,0-4.5,0.2-5.5,0.4V291z M6.2,313.9c1.2,0.2,3,0.3,5.2,0.3
		c6.4,0,12.3-2.3,12.3-9.3c0-6.5-5.6-9.2-12.3-9.2H6.2V313.9z"/>
	<path class="st1" d="M84.5,296.2H65.9v17.2h20.7v5.2H59.8v-47.8h25.8v5.2H65.9v15.1h18.6V296.2z"/>
	<path class="st1" d="M116,318.6v-47.8h6.7L138,295c3.5,5.6,6.3,10.6,8.6,15.5l0.1-0.1c-0.6-6.4-0.7-12.2-0.7-19.7v-20h5.8v47.8
		h-6.2l-15.2-24.3c-3.3-5.3-6.5-10.8-8.9-16l-0.2,0.1c0.4,6,0.5,11.8,0.5,19.7v20.4H116z"/>
	<path class="st1" d="M183.9,318.6v-47.8h6.7L206,295c3.5,5.6,6.3,10.6,8.6,15.5l0.1-0.1c-0.6-6.4-0.7-12.2-0.7-19.7v-20h5.8v47.8
		h-6.2l-15.2-24.3c-3.3-5.3-6.5-10.8-8.9-16l-0.2,0.1c0.4,6,0.5,11.8,0.5,19.7v20.4H183.9z"/>
	<path class="st1" d="M276.7,296.2h-18.6v17.2h20.7v5.2h-26.9v-47.8h25.8v5.2h-19.7v15.1h18.6V296.2z"/>
	<path class="st1" d="M318.3,276h-14.5v-5.3h35.4v5.3h-14.6v42.6h-6.2V276z"/>
	<path class="st1" d="M377.6,276H363v-5.3h35.4v5.3h-14.6v42.6h-6.2V276z"/>
	<path class="st1" d="M466.6,318.6l-12.1-47.8h6.5l5.7,24.2c1.4,6,2.7,11.9,3.5,16.5h0.1c0.8-4.8,2.3-10.4,3.9-16.6l6.4-24.1h6.5
		l5.8,24.3c1.3,5.7,2.6,11.4,3.3,16.4h0.1c1-5.3,2.3-10.6,3.8-16.5l6.3-24.1h6.3l-13.6,47.8h-6.5l-6-24.9
		c-1.5-6.1-2.5-10.8-3.1-15.6h-0.1c-0.9,4.8-1.9,9.4-3.7,15.6l-6.8,24.9H466.6z"/>
	<path class="st1" d="M543.9,303.6l-5,15h-6.4l16.3-47.8h7.5l16.3,47.8h-6.6l-5.1-15H543.9z M559.5,298.7l-4.7-13.8
		c-1.1-3.1-1.8-6-2.5-8.7h-0.1c-0.7,2.8-1.5,5.7-2.4,8.7l-4.7,13.8H559.5z"/>
	<path class="st1" d="M607,270.8v47.8h-6.2v-47.8H607z"/>
	<path class="st1" d="M638.2,311.1c2.8,1.7,6.8,3.1,11.1,3.1c6.3,0,10-3.3,10-8.2c0-4.5-2.6-7-9-9.5c-7.8-2.8-12.6-6.8-12.6-13.6
		c0-7.5,6.2-13,15.5-13c4.9,0,8.4,1.1,10.6,2.3l-1.7,5c-1.6-0.9-4.8-2.3-9.1-2.3c-6.5,0-9,3.9-9,7.2c0,4.5,2.9,6.7,9.5,9.2
		c8.1,3.1,12.2,7,12.2,14.1c0,7.4-5.5,13.8-16.7,13.8c-4.6,0-9.7-1.3-12.2-3.1L638.2,311.1z"/>
	<path class="st1" d="M695.4,271.4c2.7-0.6,7-1,11.3-1c6.2,0,10.1,1.1,13.1,3.5c2.5,1.8,4,4.7,4,8.4c0,4.6-3.1,8.7-8.1,10.5v0.1
		c4.5,1.1,9.9,4.9,9.9,12c0,4.1-1.6,7.2-4,9.6c-3.3,3.1-8.7,4.5-16.5,4.5c-4.3,0-7.5-0.3-9.6-0.6V271.4z M701.5,291h5.6
		c6.5,0,10.4-3.4,10.4-8c0-5.6-4.3-7.8-10.5-7.8c-2.8,0-4.5,0.2-5.5,0.4V291z M701.5,313.9c1.2,0.2,3,0.3,5.2,0.3
		c6.4,0,12.3-2.3,12.3-9.3c0-6.5-5.6-9.2-12.3-9.2h-5.1V313.9z"/>
	<path class="st1" d="M755.1,271.4c3.1-0.6,7.6-1,11.9-1c6.6,0,10.9,1.2,13.8,3.9c2.4,2.1,3.8,5.4,3.8,9.1c0,6.3-4,10.5-9,12.2v0.2
		c3.7,1.3,5.9,4.7,7,9.7c1.6,6.7,2.7,11.3,3.7,13.1h-6.4c-0.8-1.3-1.8-5.5-3.2-11.4c-1.4-6.6-4-9.1-9.6-9.3h-5.8v20.7h-6.2V271.4z
		 M761.3,293.2h6.3c6.6,0,10.8-3.6,10.8-9.1c0-6.2-4.5-8.9-11-8.9c-3,0-5.1,0.3-6.1,0.6V293.2z"/>
	<path class="st1" d="M839.3,296.2h-18.6v17.2h20.7v5.2h-26.9v-47.8h25.8v5.2h-19.7v15.1h18.6V296.2z"/>
	<path class="st1" d="M870.8,318.6v-47.8h6.7l15.3,24.2c3.5,5.6,6.3,10.6,8.6,15.5l0.1-0.1c-0.6-6.4-0.7-12.2-0.7-19.7v-20h5.8v47.8
		h-6.2l-15.2-24.3c-3.3-5.3-6.5-10.8-8.9-16l-0.2,0.1c0.4,6,0.5,11.8,0.5,19.7v20.4H870.8z"/>
</g>
</svg>
