<?xml version="1.0" encoding="utf-8"?>
<!-- Generator: Adobe Illustrator 19.0.1, SVG Export Plug-In . SVG Version: 6.00 Build 0)  -->
<svg version="1.1" id="Layer_1" xmlns="http://www.w3.org/2000/svg" xmlns:xlink="http://www.w3.org/1999/xlink" x="0px" y="0px"
	 viewBox="0 0 548.6 113.9" style="enable-background:new 0 0 548.6 113.9;" xml:space="preserve">
<style type="text/css">
	.st0{fill:none;}
	.st1{fill:#32343A;}
	.st2{fill:#DADED2;}
	.st3{fill:#6D727C;}
	.st4{fill:#A8B2B8;}
	.st5{fill:#818E9F;}
	.st6{fill:#4E5560;}
</style>
<image style="overflow:visible;" width="1920" height="1200" xlink:href="965E326E.jpg"  transform="matrix(1 0 0 1 -8294.3057 -8158.0015)">
</image>
<g>
	<path class="st0" d="M365.9,58.2c0.4,0.1,1,0.3,1.5,0.6C366.9,58.5,366.3,58.2,365.9,58.2c-0.1,0.1-0.3,0.2-0.4,0.3c0,0,0,0,0,0
		C365.6,58.3,365.7,58.2,365.9,58.2z"/>
	<path class="st0" d="M366.9,78.3c0.7,0.2,1.4,0.4,2.1,0.6C368.3,78.7,367.6,78.5,366.9,78.3z"/>
	<path class="st0" d="M337.5,82.2c0.2-0.1,0.3-0.2,0.5-0.2c0.1,0.1,0.1,0.2,0.2,0.2c-0.1-0.1-0.1-0.2-0.2-0.2
		C337.8,82,337.6,82.1,337.5,82.2z"/>
	<path class="st0" d="M271.3,55c0.1,0,0.3,0,0.4,0c0,0,0,0,0,0C271.5,55,271.4,55,271.3,55z"/>
	<path class="st0" d="M176.6,63c-0.8-0.5-1.8-0.2-2.8,0c0-0.4,0.1-0.8,0.1-1.1c0,0.4-0.1,0.8-0.1,1.1
		C174.8,62.8,175.8,62.4,176.6,63z"/>
	<path class="st0" d="M363.8,85.4c0.1,0.3,0.2,0.5,0.3,0.8c0,0,0,0,0,0l0,0C364.1,85.9,363.9,85.7,363.8,85.4z"/>
	<path class="st0" d="M371.8,72c-0.5,2.5-0.9,5-1.3,7.5c0,0,0,0,0,0C370.9,77,371.3,74.5,371.8,72z"/>
	<path class="st0" d="M361,88c0.1,0.1,0.2,0.2,0.3,0.3v0C361.2,88.2,361.1,88.1,361,88z"/>
	<path class="st0" d="M360,87c0.1,0.1,0.2,0.2,0.3,0.3C360.3,87.2,360.2,87.1,360,87z"/>
	<path class="st0" d="M395.9,91.1L395.9,91.1c-0.3,0.2-0.5,0.5-0.8,0.7C395.4,91.5,395.6,91.3,395.9,91.1z"/>
	<path class="st0" d="M204.4,70.4C204.4,70.4,204.4,70.4,204.4,70.4C204.4,70.4,204.4,70.4,204.4,70.4c-0.2-0.5-0.5-1-0.8-1.5
		C203.9,69.3,204.3,69.9,204.4,70.4z"/>
	<path class="st0" d="M353,90.5C353,90.5,353,90.5,353,90.5c-0.6-1.2-0.6-2.1,0.2-2.8C352.4,88.4,352.4,89.4,353,90.5z"/>
	<path class="st0" d="M346.7,95.7c-0.9,0.9-0.7,1.9,0.2,2.9c0,0,0,0,0,0C346.1,97.6,345.9,96.6,346.7,95.7z"/>
	<path class="st0" d="M333.3,103.9c0-0.1,0-0.2-0.1-0.3c0,0,0,0,0,0C333.2,103.7,333.3,103.8,333.3,103.9z"/>
	<path class="st0" d="M202.5,49.5c-0.5,0.8-1.1,1.5-1.6,2.3c0,0,0,0,0,0l0,0C201.3,51,202,50.3,202.5,49.5z"/>
	<path class="st0" d="M355.7,93.3c-0.8-0.5-1.1-1.7-1.8-2.3C354.5,91.6,354.9,92.8,355.7,93.3z"/>
	<path class="st0" d="M382.7,83.5c0.2,0.3,0.5,0.7,0.7,0.9C383.2,84.2,382.9,83.9,382.7,83.5c-1.9,0.1-3.7-0.5-5.3-1.2
		C379.1,83.1,380.8,83.6,382.7,83.5z"/>
	<path class="st0" d="M206.5,39.2c0-0.1,0-0.1,0-0.2l0,0C206.6,39.1,206.5,39.1,206.5,39.2z"/>
	<path class="st0" d="M201.4,69.5c-4.3-1.5-8.5-3.7-13.3-3.4c-0.2-0.9-0.3-1.8-0.5-2.8c0.2,1,0.4,1.9,0.5,2.8
		C192.9,65.8,197,67.9,201.4,69.5z"/>
	<path class="st0" d="M177.9,60.3c0.3,0,0.5,0.1,0.8,0.4C178.5,60.4,178.2,60.3,177.9,60.3z"/>
	<path class="st0" d="M254.7,61.3C254.7,61.3,254.7,61.3,254.7,61.3c-0.1,0.1-0.1,0.2-0.2,0.2C254.6,61.5,254.7,61.4,254.7,61.3z"/>
	<path class="st0" d="M325.6,50.3c0.4,0.4,0.9,0.6,1.4,0.9c0.4,0.7,0.5,1.7,0.9,2.4c-0.4-0.7-0.5-1.7-0.9-2.4
		C326.5,50.9,326,50.7,325.6,50.3z"/>
	<path class="st0" d="M350,61.9C350,61.9,350,61.9,350,61.9c0.4,1.8,1.5,3.3,2.4,4.9C351.6,65.2,350.4,63.7,350,61.9z"/>
	<path class="st0" d="M360,42.3c0.1,0.4,0.1,0.8,0.2,1.2c0,0,0,0,0,0C360.2,43.1,360.1,42.7,360,42.3z"/>
	<path class="st0" d="M350.7,71.8c-0.8-0.1-1.5-0.5-2.3-0.5C349.1,71.3,349.9,71.7,350.7,71.8L350.7,71.8z"/>
	<path class="st0" d="M263.8,70.1c1.8-0.5,1.8,0.9,2.2,2C265.6,71,265.6,69.6,263.8,70.1c-1.1-1.6-2.4-2.2-3.9-2.2
		C261.4,67.8,262.7,68.5,263.8,70.1z"/>
	<path class="st0" d="M271.2,55C271.3,55,271.3,55,271.2,55C271.3,55,271.3,55,271.2,55L271.2,55z"/>
	<path class="st0" d="M262,75.9c0.1-0.2,0.2-0.4,0.4-0.6v0C262.2,75.6,262.1,75.7,262,75.9z"/>
	<path class="st0" d="M176.7,71.2c0.6-0.2,1.1-0.3,1.7-0.4C177.9,70.9,177.3,71,176.7,71.2C176.7,71.2,176.7,71.2,176.7,71.2z"/>
	<path class="st0" d="M363.5,42.8c1.2,0.5,2.8,0.5,3.7,1.5C366.3,43.3,364.7,43.3,363.5,42.8C363.5,42.8,363.5,42.8,363.5,42.8z"/>
	<path class="st0" d="M278.2,71.4c-0.3,0.3-0.5,1-0.9,1.1c-0.1,0.1-0.2,0.3-0.3,0.4c0.1-0.1,0.2-0.3,0.3-0.4
		C277.8,72.4,277.9,71.7,278.2,71.4z"/>
	<path class="st0" d="M309.8,59.8c0.1-0.1,0.2-0.2,0.3-0.3C310,59.6,309.9,59.7,309.8,59.8c-0.2,0.6-0.4,1.3-0.9,1.5
		C309.4,61,309.6,60.4,309.8,59.8z"/>
	<path class="st0" d="M304.5,60.9c0.2-0.5,0.4-1,0.6-1.5C304.9,59.9,304.7,60.4,304.5,60.9c0.4,0.1,0.8,0.2,1.1,0.3
		C305.3,61.1,304.9,61,304.5,60.9z"/>
	<path class="st0" d="M307.9,61.4c-0.4,0-0.7-0.1-1.1-0.1C307.2,61.3,307.5,61.3,307.9,61.4C307.9,61.4,307.9,61.4,307.9,61.4z"/>
	<path class="st0" d="M179.2,64.1c1.7,0.8,3.3,1.5,5.4,2.5C182.5,65.6,180.8,64.8,179.2,64.1c-0.1-0.2-0.3-0.3-0.4-0.4v0
		C178.9,63.8,179.1,63.9,179.2,64.1z"/>
	<path class="st0" d="M371.9,61.2c0.1,0.1,0.3,0.2,0.4,0.3C372.1,61.4,372,61.3,371.9,61.2C371.9,61.2,371.9,61.2,371.9,61.2z"/>
	<path class="st0" d="M350.7,81.8C350.7,81.8,350.7,81.8,350.7,81.8L350.7,81.8C350.7,81.8,350.7,81.8,350.7,81.8z"/>
	<path class="st0" d="M176.1,72.2c-0.2,0.2-0.4,0.3-0.6,0.4C175.7,72.6,175.9,72.5,176.1,72.2z"/>
	<path class="st0" d="M367.3,42.5c-1.3-0.6-2.6-1-4.1,0.1l0,0C364.7,41.5,366,41.9,367.3,42.5z"/>
	<path class="st0" d="M327.6,84.6c-0.1-0.2-0.1-0.4,0-0.6c0,0,0,0,0,0c-0.3-0.6-0.5-1.2-0.8-1.9c0.3,0.6,0.5,1.3,0.8,1.9
		C327.5,84.3,327.5,84.5,327.6,84.6z"/>
	<path class="st0" d="M172.1,72.5c-0.4-0.2-0.7-0.4-1.1-0.5C171.4,72.2,171.7,72.4,172.1,72.5c1.4,1.7,3.1,2.9,5.1,3.5
		C175.2,75.4,173.5,74.3,172.1,72.5z"/>
	<path class="st0" d="M326.7,82.1L326.7,82.1c-0.1-0.1-0.1-0.2-0.2-0.2C326.6,82,326.7,82.1,326.7,82.1z"/>
	<path class="st0" d="M203.9,72.5c-0.2-0.1-0.5-0.1-0.8,0c0,0,0,0,0,0c0,0,0,0,0,0C203.4,72.5,203.7,72.5,203.9,72.5z"/>
	<path class="st0" d="M88.1,40.5C88.1,40.5,88.1,40.5,88.1,40.5c0.2,0.2,0.5,0.5,0.7,0.8C88.6,41,88.3,40.7,88.1,40.5L88.1,40.5z"/>
	<path class="st0" d="M329.2,88.1c-0.1-0.4-0.1-0.9-0.1-1.3c1.4,1.6,2.2,3.5,3.3,5.3c-1.1-1.8-1.9-3.7-3.3-5.3
		c-0.1-0.5-0.1-0.9-0.2-1.4c0.1,0.5,0.1,0.9,0.2,1.4C329.1,87.3,329.1,87.7,329.2,88.1z"/>
	<path class="st0" d="M181.6,78.3c0.9,1.2,2.4,1.4,4.1,1.2c0.2,0,0.4,0.1,0.6,0.1c-0.2-0.1-0.4-0.1-0.6-0.1
		C184,79.7,182.5,79.5,181.6,78.3z"/>
	<path class="st0" d="M356.6,72.9c-0.7-0.3-1.4-0.8-1.8-1.6c0,0,0,0,0,0C355.2,72.1,355.8,72.6,356.6,72.9z"/>
	<path class="st0" d="M205.4,74.7C205.4,74.7,205.4,74.7,205.4,74.7c-0.7,0.6-1.3,1.1-2,1.7C204.1,75.8,204.8,75.2,205.4,74.7z"/>
	<path class="st0" d="M355.7,93.3c0.2,0.1,0.4,0.2,0.6,0.2C356,93.5,355.8,93.4,355.7,93.3z"/>
	<path class="st0" d="M319.7,82.4C319.7,82.4,319.7,82.4,319.7,82.4c-0.6-1.2-1.9-2-2.5-3.3C317.8,80.4,319.2,81.2,319.7,82.4z"/>
	<path class="st0" d="M347.6,59.7c0.2,0.5,0.5,1,0.9,1.3C348.1,60.7,347.8,60.3,347.6,59.7c-0.1-0.1-0.3-0.2-0.4-0.2
		C347.4,59.6,347.5,59.6,347.6,59.7z"/>
	<path class="st0" d="M169.3,64.8c-0.1-0.5-0.2-1-0.1-1.5C169.1,63.7,169.2,64.3,169.3,64.8z"/>
	<path class="st0" d="M327.1,81c0,0.2,0,0.4-0.1,0.7C327.1,81.5,327.2,81.2,327.1,81z"/>
	<path class="st0" d="M272.7,53.7c1.6,0.2,3.2,0.3,3.7-2.1C275.9,53.9,274.3,53.9,272.7,53.7z"/>
	<path class="st0" d="M354.3,71.2c-0.2-0.1-0.4-0.1-0.5-0.3C354,71.1,354.2,71.2,354.3,71.2z"/>
	<path class="st0" d="M326.2,76c0.5-1.7,1.1-3.5,2.1-5C327.3,72.5,326.8,74.3,326.2,76C326.2,76,326.2,76,326.2,76
		C326.2,76,326.2,76,326.2,76z"/>
	<path class="st0" d="M340.1,59.5c-0.1,0.1-0.3,0.2-0.4,0.3c-2.4,0.2-3.8-1-5.1-2.5c1.3,1.4,2.7,2.7,5.1,2.5
		C339.8,59.7,339.9,59.6,340.1,59.5C340.1,59.5,340.1,59.5,340.1,59.5z"/>
	<path class="st0" d="M351.2,69.5C351.2,69.5,351.2,69.5,351.2,69.5c-0.6,0.7-0.5,1.5-0.4,2.3C350.7,70.9,350.6,70.1,351.2,69.5z"/>
	<path class="st0" d="M88.8,41.7C88.8,41.7,88.8,41.7,88.8,41.7c0.2,0.1,0.4,0.2,0.5,0.2C89.2,41.8,89,41.8,88.8,41.7z"/>
	<path class="st0" d="M196.7,31.8c-1,0.1-2,0.1-3,0c-0.1-0.2-0.1-0.5-0.1-0.9c0,0.3,0,0.6,0.1,0.9C194.7,31.9,195.7,31.9,196.7,31.8
		z"/>
	<path class="st0" d="M193.7,82.6C193.7,82.6,193.7,82.6,193.7,82.6c1.3-0.1,2.6,0,3.8,0.1C196.3,82.6,195,82.5,193.7,82.6z"/>
	<path class="st0" d="M313.9,68.1c-0.2,0.2-0.4,0.5-0.6,0.8c-0.1-0.1-0.2-0.1-0.3-0.2c0.1,0.1,0.2,0.1,0.3,0.2
		C313.4,68.6,313.6,68.3,313.9,68.1z"/>
	<path class="st0" d="M310.8,108.1c-0.1-0.3-0.2-0.5-0.3-0.7C310.7,107.6,310.8,107.8,310.8,108.1c-0.1,0.1-0.2,0.2-0.3,0.3
		c0,0,0,0,0,0C310.6,108.3,310.7,108.2,310.8,108.1z"/>
	<path class="st0" d="M189.3,80.7C189.3,80.7,189.3,80.7,189.3,80.7c0.5,0,1,0,1.5,0c0,0,0,0,0,0C190.4,80.7,189.8,80.7,189.3,80.7z
		"/>
	<path class="st0" d="M302.9,71.4c-0.1,0.2-0.2,0.3-0.3,0.4c0,0,0,0,0,0c1.2,4,1.5,4.9,3.3,6.8c-1.8-1.9-2.1-2.9-3.3-6.8
		C302.7,71.7,302.9,71.5,302.9,71.4z"/>
	<path class="st0" d="M210,28.8c0,0,0-0.1,0-0.2c-0.2,0.1-0.3,0.3-0.5,0.4c0.2-0.1,0.3-0.3,0.5-0.4C209.9,28.7,210,28.7,210,28.8z"
		/>
	<path class="st0" d="M171.4,60.5c0.7,0.7,1.5,1.2,2.5,1.3c0,0,0,0,0,0C172.8,61.8,172.1,61.2,171.4,60.5z"/>
	<path class="st0" d="M190.9,80.8c0.4,0.9,1.2,1.2,2,1.5C192.1,82,191.3,81.6,190.9,80.8z"/>
	<path class="st0" d="M153.1,53.9c0.3-0.2,0.5-0.4,0.8-0.6c1.7-0.6,4-0.3,5.4-1.3c-1.4,1-3.7,0.7-5.4,1.3
		C153.6,53.5,153.4,53.7,153.1,53.9z"/>
	<path class="st0" d="M284.1,99.7c-2.3-0.1-2.5-2-3.2-3.5C281.6,97.7,281.9,99.7,284.1,99.7c1.2,3.4,4.1,5.5,6.6,7.9
		C288.2,105.3,285.4,103.2,284.1,99.7z"/>
	<path class="st0" d="M202.9,73.1c-5,0.5-10.1,1-15.1,1.4C192.8,74.1,197.9,73.6,202.9,73.1C202.9,73.1,202.9,73.1,202.9,73.1z"/>
	<path class="st0" d="M169.9,66.9c0.4,1,0.9,2.1,1.3,3.1c0.1,0.6,0.3,1.1,0.4,1.7c-0.1-0.6-0.3-1.1-0.4-1.7
		C170.9,68.9,170.4,67.9,169.9,66.9z"/>
	<path class="st0" d="M171.6,71.8c-0.1,0-0.2,0-0.3,0.1C171.4,71.8,171.5,71.8,171.6,71.8C171.6,71.8,171.6,71.8,171.6,71.8z"/>
	<polygon class="st1" points="300,92.1 300,92.1 300,92.1 	"/>
	<path class="st1" d="M228.8,104.3c0.6,0.2,1.3,0.5,1.9,0.7c0.1-0.3,0.1-0.6,0.2-1C230.3,103.7,229.5,104.3,228.8,104.3z"/>
	<path class="st1" d="M297.6,112c-0.6-0.4-1.2-0.7-1.8-1.1c-0.6,0.3-1.1,0.6-1.7,0.9c0.1,1.5-0.6,2.2-2.1,1.9
		c-4.3-0.8-8.4-2.6-12.9-1.8c-0.9,0.2-1.2-0.6-1.4-1.3c-0.3-1.1-1.1-2.2-2.1-2.1c-7.3,0.7-13.6-5-21-3.4c-4.3,0.9-8.4,2.3-12.9,1.5
		c-2.2-0.3-4.3-0.6-6.3,0c20.7,6.6,43.5,8.4,67.2,6.7C301.7,110.9,299.1,113.1,297.6,112z"/>
	<path class="st1" d="M304,113.2c3-0.2,6-0.5,9-0.8C309.9,111.3,306.9,111.9,304,113.2z"/>
	<path class="st1" d="M452.2,69.5c0,0-0.1,0-0.1,0c-0.7,0.1-1.3,0.2-2,0.4c-0.8,0.1-1.5,0.3-2.3,0.5c-0.5,0.1-0.9,0.3-1.4,0.5
		c-6.8,2.9-13.2,6.5-19.7,10.1c11-4.5,21.9-9.2,32.5-14.1c-0.6,0.2-1.2,0.3-1.9,0.5c-1,0.8-2.1,1.3-3.2,1.6
		C453.6,69.3,452.9,69.4,452.2,69.5z"/>
	<path class="st1" d="M402.6,89.2c-0.5,0-1.1,0-1.6,0.1c-1.5,0.1-2.9,0.5-4.3,1.3c-0.1,0.1-0.3,0.2-0.4,0.2
		c-0.1,0.1-0.3,0.1-0.4,0.2c-0.3,0.2-0.5,0.5-0.8,0.7c-1.1,0.8-2.4,1.2-3.7,1.5c-0.7,0.2-1.3,0.3-2,0.5c-0.3,0.1-0.6,0.2-1,0.3
		c-2.6,0.9-5.2,1.7-7.8,2.6c-4.1,1.4-8.2,2.9-12.2,4.6c12.3-3.4,24.5-7.4,36.7-11.9c-0.4,0-0.8-0.1-1.1-0.1
		C403.6,89.3,403.1,89.2,402.6,89.2z"/>
	<path class="st1" d="M299,93.1c-0.1,0.1-0.2,0.3-0.2,0.4c-0.2,0.4-0.3,0.8-0.3,1.2c0,0.1,0,0.2,0,0.3c0,0.2,0.1,0.4,0.2,0.6
		c0.4,0.8,1.3,1.2,2.5,1.4c1.2,0.2,2.2,0.5,3.1,1.1c2.7,1.6,4.2,4.5,6.3,6.6c2,1.8,3.9,3.7,5.9,5.5c0.6,0.5,0.9,1.1,0.9,1.7
		c7.4-0.9,14.9-2.2,22.5-3.7c0.3-2.3-1.2-3.8-2.6-5.1c-0.1-0.1-0.3-0.2-0.5-0.3c-1.1-0.7-2.6-0.5-3.6,0.8c0,0.1,0,0.2,0.1,0.3
		c0.1,0.3,0.2,0.7,0.3,1c0.5,0.2,1,0.5,1.1,0.9c0,0.1,0,0.2,0,0.3c0,0.2-0.1,0.4-0.3,0.6c-0.9,0.9-2,2-3.5,1
		c-3.2-2.1-6.5-4.2-9.7-6.4c-1-0.6-2.1-1.1-2.6-2.3c-0.8-0.3-1.6-0.5-2.3-0.7c-2.4-0.6-4.8-1.2-6.7-3c-1.6-0.7-3.5-0.7-5.1-1.6
		c-0.2-0.1-0.4-0.3-0.6-0.5c-1.2,0.4-1.9-1.2-3.1-0.7c-0.1,0.1-0.2,0.3-0.3,0.4c0-0.2,0-0.3,0-0.5c0-0.2-0.1-0.3-0.3-0.3
		c-0.2,0.2-0.4,0.4-0.7,0.6C299.2,92.8,299.1,92.9,299,93.1z"/>
	<path class="st1" d="M470.4,61.7c-0.2,0-0.4,0-0.6,0.1c-0.1,0.1-0.2,0.3-0.3,0.4C469.7,62.1,470,61.9,470.4,61.7z"/>
	<path class="st1" d="M224.6,102.7c1.2,0.5,2.4,0.9,3.5,1.4C226.9,103,225.7,102.7,224.6,102.7z"/>
	<path class="st2" d="M152.4,23.3c0-2.2,0.2-4.5,1.4-6.4l0,0c0.5-3.4,1.1-6.7,1.5-10.1c-0.4,3.4-1,6.7-1.5,10.1
		C152.5,18.9,152.3,21.1,152.4,23.3c-0.1,0.2-0.2,0.3-0.3,0.5C152.2,23.7,152.3,23.5,152.4,23.3L152.4,23.3z"/>
	<path class="st2" d="M218.1,71.8c0.7,0.4,1.4,0,2.1-0.5C219.4,71.8,218.7,72.2,218.1,71.8z"/>
	<path class="st2" d="M218,42.5c0.7,0.7,1.5,1.4,2.2,2.2C219.5,43.9,218.7,43.2,218,42.5l-0.2-0.1C217.7,42.4,218,42.5,218,42.5
		L218,42.5z"/>
	<path class="st2" d="M218,48.3c-0.1-0.1-0.1-0.2-0.2-0.3c-0.1-1-0.4-1.9-1.1-2.6c0.7,0.6,1,1.5,1.1,2.6
		C217.9,48.1,218,48.2,218,48.3z"/>
	<path class="st2" d="M213.1,69.2c1.3,0.6,2.7,0.9,4,1.3c0,0,0,0,0,0c0.1-0.1,0.2-0.3,0.3-0.4c-0.1,0.2-0.2,0.3-0.3,0.4
		C215.7,70.1,214.3,69.8,213.1,69.2z"/>
	<path class="st2" d="M226.9,50.5c-0.3-0.3-0.7-0.6-1.1-0.9c0,0,0,0,0,0l0,0C226.2,49.9,226.6,50.1,226.9,50.5z"/>
	<path class="st2" d="M218.1,51.4c-0.2-1-0.7-2,0-3c1.1,0.2,1.9,0.8,2.6,1.4c-0.7-0.6-1.5-1.2-2.6-1.4c0,0,0,0,0,0
		C217.4,49.4,217.9,50.4,218.1,51.4z"/>
	<path class="st2" d="M209.7,43.7c0.1,1.9,0.6,3.8,0.7,5.6c0.2,1.4,0.3,2.8,0.4,4.1c-0.1-1.4-0.3-2.8-0.4-4.2
		C210.4,47.4,209.8,45.5,209.7,43.7z"/>
	<path class="st2" d="M136.7,49.7c-0.9-0.3-1.4-1.1-1.9-1.8C135.3,48.6,135.8,49.4,136.7,49.7c0.1,0.1,0.3,0.2,0.4,0.3
		C136.9,49.9,136.8,49.8,136.7,49.7L136.7,49.7z"/>
	<path class="st2" d="M136.2,46.2c0.1-1.3-0.1-2.4-0.9-3.5C136,43.8,136.3,45,136.2,46.2z"/>
	<path class="st2" d="M225.7,49.7L225.7,49.7C225.7,49.7,225.8,49.7,225.7,49.7C225.8,49.7,225.7,49.7,225.7,49.7z"/>
	<path class="st3" d="M502.3,45.6c-0.5,0.2-1,0.4-1.5,0.7c-0.8,0.4-1.5,0.9-2.3,1.4c11.2-5.8,22-11.7,32.1-17.4c0,0-0.1,0-0.1,0
		c-0.9,0.3-1.9,0-2.7-0.6c-4.6,1.2-8.4,3.8-12.1,6.8c-3,2.3-5.5,5.6-9.7,6c0,0,0,0,0,0C505.4,44.3,503.8,44.9,502.3,45.6z"/>
	<path class="st4" d="M548.6,20.1c-1.6,0.6-3.1,1.2-4.7,1.8c0.1,0.2,0.2,0.5,0.3,0.7C545.7,21.8,547.1,20.9,548.6,20.1z"/>
	<path class="st5" d="M530.6,30.3c0,0,0.1,0,0.1,0c4.7-2.6,9.2-5.2,13.5-7.7c-0.1-0.2-0.2-0.4-0.3-0.7c-1.8,0.6-3.6,1-5.3,1.8
		c-3.6,1.8-7.8,2.8-10.7,6C528.7,30.4,529.6,30.6,530.6,30.3z"/>
	<path class="st6" d="M90.1,42.2c-0.3-0.1-0.5-0.2-0.7-0.3c-0.2-0.1-0.4-0.2-0.5-0.2c-1.6-0.1-3.2-0.6-4.8-1
		c57.1,26.6,107.4,49.1,140.6,62c1.2,0,2.4,0.4,3.5,1.4c0.3,0.1,0.5,0.2,0.8,0.3c0.7,0,1.4-0.6,2.1-0.3c-0.1,0.3-0.1,0.7-0.2,1
		c1.5,0.6,3.1,1.1,4.7,1.6c2-0.6,4.1-0.3,6.3,0c-2.9-3.2-7-4.8-10.6-6.7c-8.4-4.4-16.4-9.6-24.6-14.3c-0.2-0.1-0.4-0.2-0.6-0.4
		c-0.5-0.4-1-1-1.5-1.5c-2.3-0.2-4.6-0.7-6.8-1c-1.3-0.1-2.6-0.2-3.8-0.1c-1.1,0.9-2.3,1.4-3.5,1.5c-0.4,0.1-0.8,0.1-1.2,0.1
		c0,0,0,0,0,0c-1.2,0-2.4-0.3-3.5-0.7c-0.4-0.1-0.8-0.3-1.2-0.4c-8.1-3.2-16.1-6.7-24.8-10.3c2.6-0.9,3.3-3.5,5.9-3.1
		c-5-4-10.8-6.7-16.6-9.2c-3.9-1.6-7.6-4-12-3.7c-2.1-0.5-4.3-1-6.4-1.4c-8.2-2-16.1-5-23.8-8.3C100.5,47.4,95.5,43.9,90.1,42.2z"/>
	<path class="st3" d="M370.8,59.2c-0.1,0.5-0.3,0.7-0.7,0.7c-0.2,0-0.3,0-0.5-0.1c-0.1,0-0.1,0-0.2-0.1c-0.1,0-0.3-0.1-0.4-0.2
		c-0.1-0.1-0.3-0.1-0.4-0.2c-0.2-0.1-0.3-0.2-0.5-0.3c-0.2-0.1-0.5-0.2-0.7-0.4c-0.5-0.3-1-0.5-1.5-0.6c-0.1,0.1-0.3,0.2-0.4,0.3
		c0.2,1.4,0.2,2.8-0.2,4.2c-0.6,2.2-0.4,4.3,1,6.4c1.8,2.6,1,6-1.5,8.1c0.6,0.6,1.3,0.9,2,1.1c0.7,0.2,1.4,0.4,2.1,0.6
		c0.5,0.2,1.1,0.3,1.6,0.6c0.4-2.5,0.8-5,1.3-7.5c0.7-3.3,1.7-6.5,3.3-9.5c-0.2-0.9,0-1.3,0.3-1.5c0,0,0.1,0,0.1,0c0,0,0,0,0,0
		c0.1,0,0.2-0.1,0.3-0.1c0.1,0,0.3,0,0.4,0c0.3,0,0.6,0,0.9,0c1.9-0.2,3.3,0.5,3.9,2.3c0.4,1.3,0.6,2.5,1.7,3.4
		c2.8,2.5,0.1,2-1.2,2.2c-0.1,0.3-0.2,0.6-0.2,0.8c1.4,1.3,1.8,2.6,1.4,4.6c-0.1,0.3-0.1,0.6-0.2,0.9c-0.7,2.7,0,5.7,0.1,8.6
		c0.2,0.3,0.5,0.7,0.7,0.9c0.3,0.3,0.5,0.5,0.8,0.7c0.2,0.1,0.4,0.3,0.6,0.4c1.4,0.8,3.1,1.3,4.6,2.3c-0.1-1.7-0.8-2.6-1.8-3.2
		c-1.2-0.7-0.6-1.5-0.2-2.4c0.4-0.9,0.5-1.1,1.7-1c2.6,0.4,4.7,0.7,5.4,4.1c0.4,1.8,1.6,3.6,1.4,5.6l0,0c0.1-0.1,0.3-0.2,0.4-0.2
		c0.1-0.1,0.3-0.2,0.4-0.2c1.4-0.8,2.8-1.1,4.3-1.3c0.5-0.1,1.1-0.1,1.6-0.1c0.5,0,1,0,1.5,0.1c0.4,0,0.8,0.1,1.1,0.1
		c7.2-2.6,14.4-5.4,21.6-8.3c6.4-3.6,12.8-7.2,19.7-10.1c0.5-0.2,0.9-0.3,1.4-0.5c0.8-0.2,1.5-0.4,2.3-0.5c0.7-0.1,1.3-0.2,2-0.4
		c0,0,0.1,0,0.1,0c0.7-0.1,1.3-0.3,2-0.5c1.1-0.4,2.2-0.8,3.2-1.6c0,0,0,0,0,0c-0.3-0.6-0.9-0.6-1.4-0.8c-2.8-1.2-5.9,0.9-8.6-0.7
		c-1.3,0.4-2.6,0.1-3.8-0.6c-0.7-0.1-1.3-0.2-2-0.4l-0.1,0.1c0,0-0.1-0.2-0.1-0.2c-0.4-0.1-0.9-0.3-1.3-0.4c-1.1,0.4-1.9,1-1.7,2.3
		c0.1,0.1,0.2,0.1,0.2,0.2c-0.1,0-0.2-0.1-0.3-0.1v0c-0.9-0.1-1.7-0.4-2.2-0.9c-0.6-0.5-1-1.2-1.4-2c-0.8,0.1-1.6,0.1-2.3-0.4
		c-1.9,0.5-2.5-1.5-3.8-2.1c-2.7-1.3-5.6-1.9-8.5-2.4c-6.4-0.9-12.8-2.2-18.7-4.9c-4-0.6-7.9-1.2-11.9-1.7c-4.3,1.6-6.2,0.9-8.7-3.1
		c-0.9-0.3-1.7-0.5-2.6-0.8c-0.1,0.3-0.1,0.8-0.3,1C374.6,52.1,371.7,54.5,370.8,59.2z M367.5,62.4c-0.2,0-0.5-0.4-0.5-0.7
		c0-0.4,0.3-0.9,0.8-0.8c0.2,0,0.4,0.4,0.6,0.6C368.3,62.1,368.1,62.4,367.5,62.4z M372.4,61.4c0,0-0.1,0.1-0.1,0.1c0,0,0,0,0,0
		c-0.1-0.1-0.3-0.2-0.4-0.3c0,0,0,0,0,0c0,0,0,0,0,0c0.2-0.1,0.3-0.2,0.5-0.2c0,0.1,0.1,0.2,0.1,0.3
		C372.4,61.3,372.4,61.4,372.4,61.4z"/>
	<path class="st5" d="M249.2,81.2c-2.3-1-4.2-1.1-6.4-0.1c-1.7,0.7-3.5,0.7-5.3,0.5c-8.3-1-16.5,0.3-24.8,0.2
		c-2.8,0-5.9-0.3-8.3,1.8c0.5,0.5,1,1,1.5,1.5c0.2,0.1,0.4,0.3,0.6,0.4c8.3,4.7,16.2,9.9,24.6,14.3c3.7,1.9,7.7,3.5,10.6,6.7
		c4.4,0.8,8.6-0.5,12.9-1.5c7.4-1.6,13.7,4,21,3.4c1-0.1,1.8,1,2.1,2.1c0.2,0.7,0.5,1.5,1.4,1.3c4.5-0.9,8.7,1,12.9,1.8
		c1.5,0.3,2.2-0.4,2.1-1.9c-0.6-1.2-1.5-2.2-2.4-3.1c-0.3-0.4-0.7-0.7-1.1-1c-2.5-2.4-5.3-4.5-6.6-7.9c-2.3-0.1-2.5-2-3.2-3.5
		c-0.1-0.2-0.2-0.4-0.4-0.6c-0.2-0.4-0.6-0.6-1-0.8c-0.2-0.1,0.5-1.2,1.4-0.9c2.6,1,2.7-0.3,1.9-2.1c-0.6-1.3,0-2,1-2.5
		c-0.4-0.3-0.7-0.8-1.1-0.8c-6.8-0.3-12.6-3.9-19-5.4c-0.5,0-1,0.1-1.5,0c-0.5,0-1-0.1-1.5-0.2c-0.2-0.1-0.5-0.1-0.7-0.2
		c-0.7-0.2-1.4-0.6-1.9-1.3h0l0,0c-0.5-0.1-1.1-0.2-1.6-0.3C254,82.2,251.4,82.1,249.2,81.2z"/>
	<path class="st4" d="M388.5,94.1c0.3-0.1,0.6-0.2,1-0.3c0.6-0.2,1.3-0.3,2-0.5c1.3-0.3,2.6-0.7,3.7-1.5c0.3-0.2,0.6-0.4,0.8-0.7
		c0.2-2.1-1-3.8-1.4-5.6c-0.7-3.4-2.8-3.7-5.4-4.1c-1.1-0.2-1.3,0.1-1.7,1c-0.3,0.9-1,1.6,0.2,2.4c1,0.6,1.7,1.5,1.8,3.2
		c-1.5-1-3.2-1.4-4.6-2.3c-0.2-0.1-0.4-0.3-0.6-0.4c-0.3-0.2-0.6-0.5-0.8-0.7c-0.3-0.3-0.5-0.6-0.7-0.9c-1.9,0.1-3.7-0.5-5.3-1.2
		c-0.2-0.1-0.5-0.2-0.7-0.3c-1.1-0.5-2.2-1.2-3.3-1.8c-1-0.3-1.9-0.5-2.9-0.8c0,0,0,0,0,0c-0.5-0.3-1-0.5-1.6-0.6
		c-0.7-0.2-1.4-0.4-2.1-0.6c-0.7-0.2-1.4-0.6-2-1.1c-2.7-0.6-5.7-0.5-6.7-3.9c-0.2,0-0.4,0-0.5,0c-0.3,0-0.5-0.1-0.7-0.2
		c-0.1,0-0.2-0.1-0.3-0.1c-0.7-0.3-1.4-0.8-1.8-1.6c-0.1,0-0.3-0.1-0.4-0.1c-0.2-0.1-0.4-0.1-0.5-0.3c0,0,0,0-0.1-0.1
		c-0.1-0.1-0.2-0.3-0.3-0.4l-0.1,0c-0.9,0.2-1.6-0.4-2.3-0.9c-0.6,0.7-0.5,1.5-0.4,2.3c0.2,0.1,0.4,0.1,0.6,0.2
		c-0.1,0.1-0.2,0.2-0.2,0.3c-0.1-0.1-0.3-0.3-0.4-0.4c-0.8-0.1-1.5-0.5-2.3-0.5c-0.5,0-0.9,0.1-1.3,0.5c-0.6,0.5-1.8,0.6-1.7,1.6
		c0.1,1.1,1.2,0.8,1.8,1.1c1.9,1,4.6,1.7,2.9,5c-0.3,0.5,0.4,1.5,0.7,2.3v0l0,0l0.1,0.1c0,0-0.1-0.1-0.1-0.1c-1.7,0.5-1.1,1-0.5,1.5
		c0.1,0.1,0.1,0.1,0.2,0.2c0.1,0.1,0.3,0.2,0.4,0.3c0.2,0.2,0.2,0.4,0,0.7c1.2-0.2,1.9,0.4,2.4,1.1c0.3,0.3,0.5,0.7,0.7,1.1
		c0.1,0.2,0.2,0.3,0.3,0.5c0.4,0.3,0.8,0.6,1.1,0.9c0.1,0.1,0.3,0.2,0.4,0.3c0.1,0.1,0.3,0.1,0.5,0.1c0.5,0.1,1.1-0.2,1.8-1.1
		c0.5-0.6,0.9-0.8,1.3-0.6c0.2,0.1,0.4,0.2,0.6,0.3c0,0,0.1,0,0.1,0.1c0.1,0.1,0.2,0.2,0.3,0.3c0.1,0.1,0.2,0.2,0.3,0.3c0,0,0,0,0,0
		c0.1,0.1,0.2,0.2,0.3,0.3c0.1,0.1,0.2,0.2,0.3,0.3v0c0,0,0.2,0.1,0.2,0.1l-0.1-0.2c0.5-1.5,1.6-1.9,1.9-0.2
		c0.4,2.9,1.6,4.2,4.4,4.6c1.9,0.2,1.5,1.5,0.6,2.5c-0.3,0.3-0.6,0.6-1,0.7c-1,0.5-2.2,0.2-3.4,0.1c-1-0.1-1.1,0.7-1.4,1.3
		c-0.1,0.2-0.2,0.4-0.3,0.6c0,0.5,0.2,1.3,0.6,1.1c4-1.5,4.3-1.4,5,2.6c0.2-0.1,0.4-0.1,0.6-0.2c4-1.8,8.1-3.2,12.2-4.6
		C383.3,95.8,385.9,94.9,388.5,94.1z M364.2,86.2L364.2,86.2C364.2,86.2,364.2,86.2,364.2,86.2c-0.1-0.3-0.2-0.5-0.3-0.8
		c0.1,0.2,0.3,0.4,0.4,0.6c0.1,0.1,0.1,0.1,0.2,0.2C364.4,86.2,364.3,86.2,364.2,86.2z"/>
	<path class="st6" d="M353.2,85.5c-0.5-0.7-1.2-1.2-2.4-1.1c0,0,0,0,0,0c-1.2,0.3-2.4,0.5-3,0.1c-0.1-0.1-0.2-0.2-0.3-0.4
		c-0.1-0.2-0.1-0.4-0.1-0.7c0-0.3,0-0.6,0.1-1c0-0.2,0.1-0.4,0.2-0.6c0.4-1.4-0.6-2.3-2.1-2.1c-2.2,0.4-3.6,0-3-2.7
		c-1.7,0.2-2.3,1.3-3.1,2.1c-1,0.9-2,1.3-3.1,0.3c-2.1-1.8-3.1-1.1-3.5,1.3c-0.1,0.7-0.2,1.6-1.2,1.3c-1-0.3-0.6-1.2-0.4-1.7
		c1.3-2.8,1.4-5.9,2.1-8.9c0.3-1.2,0.5-2.7-0.8-3.5c-1.7-1-2.1,0.8-3,1.6c-0.5,0.4-0.9,0.9-1.2,1.4c-1,1.5-1.6,3.3-2.1,5
		c0,0,0,0,0,0c0,0.4,0,0.9,0,1.3c0,0.5-0.1,1-0.1,1.4c0.1,0.4,0.3,0.9,0.4,1.3c0.4,0.3,0.6,0.6,0.7,1c0,0.2,0,0.4-0.1,0.7
		c-0.1,0.1-0.1,0.3-0.3,0.4l0,0v0c0.3,0.6,0.5,1.2,0.8,1.9c0.6-0.1,1.2,0,1.4,0.3c0,0.1,0.1,0.2,0.1,0.3c0,0,0,0,0,0.1
		c0,0.1,0,0.2,0,0.4c0,0.1-0.1,0.3-0.2,0.5c0.1,0.5,0.1,0.9,0.2,1.4c1.4,1.6,2.2,3.5,3.3,5.3c0.4,0.6,0.8,1.2,1.2,1.7
		c1.5,1.8-0.3,4.2-0.3,6.4c0,1.1-0.8,2.2-0.1,3.4c0,0,0,0,0,0c1-1.4,2.5-1.5,3.6-0.8c0.2,0.1,0.3,0.2,0.5,0.3
		c1.4,1.3,2.9,2.7,2.6,5.1c1.7-0.3,3.4-0.7,5.1-1.1c0-0.2,0-0.4,0-0.6c0-0.2,0-0.4,0-0.6c0.2-2.7,1.3-6.4,2.2-7
		c-0.1-0.1-0.2-0.2-0.3-0.2c0,0,0,0,0,0c0,0,0,0,0,0c-0.9-1-1.1-2-0.2-2.9c0.1-0.1,0.3-0.3,0.4-0.4c1.4-2.3,3.7-3.5,5.8-4.8
		c-0.6-1.2-0.6-2.1,0.2-2.8c0.2-0.2,0.6-0.4,1-0.6c-0.1-0.2-0.2-0.3-0.3-0.5C353.6,86.3,353.4,85.9,353.2,85.5z M337.6,82.4
		c0,0-0.1-0.1-0.2-0.2c0.2-0.1,0.3-0.2,0.5-0.2c0.1,0.1,0.1,0.2,0.2,0.2C338,82.2,337.8,82.3,337.6,82.4z M341.4,80.9
		c-0.1,0-0.2-0.1-0.2-0.1c0-0.1,0.1-0.1,0.1-0.2c0.1,0,0.2,0,0.2,0.1C341.5,80.7,341.5,80.8,341.4,80.9z"/>
	<path class="st6" d="M346.4,106.8c0.4-0.1,0.9-0.2,1.3-0.3C347.3,106.1,346.9,106.4,346.4,106.8z"/>
	<path class="st6" d="M317.5,93c-0.5-0.3-0.9-2.4,0-3.6c1.3-1.7,1.7-3-0.5-4.2c-0.7-0.4-0.7-1.6,0.6-1.6c1,0,1.8-0.3,2.6-0.8
		c0-0.1-0.1-0.1-0.1-0.2c0,0,0,0,0,0c-0.1,0-0.2-0.1-0.2-0.1c0,0,0,0,0,0c0,0,0,0,0,0c-0.6-1.2-1.9-2-2.5-3.3c0-0.1-0.1-0.2-0.1-0.3
		c-0.1-0.2-0.1-0.5-0.1-0.7c0-0.1,0-0.3,0-0.4c-2.4-1-3.6-2.6-3-5.4c0.2-1-0.5-2.2-0.8-3.3c-0.1-0.1-0.2-0.1-0.3-0.2
		s-0.2-0.1-0.2-0.2c-0.1-0.7-0.3-1.2-0.5-1.6c-0.1-0.3-0.3-0.4-0.4-0.6c-0.1-0.1-0.2-0.1-0.2-0.2c-0.2-0.1-0.3-0.1-0.5-0.1
		c-0.1,0-0.3,0-0.4,0.1c0,0-0.1,0-0.1,0c-0.6,0.3-1.3,0.8-1.9,1.5c-0.9,1.3-0.7,3-1.2,4.7c-0.2,0.5-0.4,1.1-0.8,1.6
		c-1-2.7-1.6-5.1,1.4-6.7c-0.4-0.7-0.6-1.5-0.7-2.2c-0.1-1.2,0.2-2.4,0.8-3.6c-0.4,0-0.7-0.1-1.1-0.1c-0.4,0-0.7-0.1-1.1-0.1
		c0.5,1.7,0.2,3.1-0.4,4.4c-0.4,0.8-1,1.5-1.6,2.2c-0.1,0.5-0.2,1-0.2,1.5c0,0.3-0.1,0.7-0.1,1c-0.1,0.3-0.2,0.7-0.4,1
		c-0.1,0.2-0.2,0.3-0.3,0.4c1.2,4,1.5,4.9,3.3,6.8c0.1,0.1,0.3,0.3,0.4,0.4c0.5,0.5,1.1,1.1,1.8,1.8c-0.6-0.1-1.1-0.2-1.6-0.3
		c-1.6-0.3-2.9-0.6-4.3-0.9c0,0-0.2-0.2-0.2-0.2l0.2,0.2c0.7,1.7,2,2.8,3.5,3.9c1,0.8,3.4,1.5,1,3.5c-0.7,0.6,0.2,0.9,0.7,1.2
		c1.5,0.8,2.6,2.2,3.4,3.5c0.8,1.3,1.6,3.3-1.3,3.5c1.9,1.8,4.3,2.3,6.7,3c0.8,0.2,1.6,0.4,2.3,0.7C318.1,97,320,94.8,317.5,93z"/>
	<path class="st3" d="M333.3,100.2c0-2.2,1.8-4.6,0.3-6.4c-0.4-0.5-0.8-1.1-1.2-1.7c-1.1-1.8-1.9-3.7-3.3-5.3c0,0.4,0,0.9,0.1,1.3
		c0,0.1,0.1,0.3,0.1,0.4c0.4,1,0.9,1.9,0,2.9c-1.8-1.9-2.2,3.4-5.5,0.6c-2.4-2.1-0.4-5.5-3.5-6.3c0.1-0.3,0.2-0.8,0.3-0.8
		c0.6-0.1,1.7,0.2,1.1-1c-0.3-0.5-1-0.8-1.6-1.2c-0.8,0.5-1.6,0.8-2.6,0.8c-1.3,0.1-1.3,1.2-0.6,1.6c2.2,1.3,1.8,2.6,0.5,4.2
		c-0.9,1.2-0.5,3.3,0,3.6c2.6,1.8,0.7,4,1,6c0.4,1.3,1.6,1.7,2.6,2.3c3.2,2.1,6.5,4.2,9.7,6.4c0.9-0.9,1.9-1.8,2.8-2.7
		c-0.1-0.3-0.2-0.7-0.3-1c0-0.1,0-0.2-0.1-0.3C332.5,102.4,333.3,101.3,333.3,100.2z"/>
	<path class="st6" d="M284.1,99.7c1.3,3.4,4.1,5.5,6.6,7.9c0.4,0.3,0.7,0.7,1.1,1c0.9,0.9,1.7,2,2.4,3.1c0.6-0.3,1.1-0.6,1.7-0.9
		c-1-1.8-1.6-3.5-0.9-5.7c0.7-1.9-0.8-3.3-1.8-4.7c3.2-1.6,6.3,0.7,9.4-0.5c0.9-0.4,1.6,0.5,1.6,1.4c0,1.1,0.1,2.1,0.4,2.9
		c0.9,2.4,3.2,3.5,6,4c0.1-0.1,0.2-0.2,0.3-0.3c-0.1-0.3-0.2-0.5-0.3-0.7c-0.1-0.2-0.3-0.4-0.5-0.6c-0.6-0.6-1.4-1.2-1.4-2.1
		c0,0,0,0,0,0c0,0,0,0,0,0c-0.3-0.2-0.6-0.3-0.8-0.5c0.1-0.1,0.2-0.2,0.4-0.4c0.2,0.3,0.3,0.6,0.5,0.8c0,0,0,0,0,0c0,0,0,0,0,0
		c0.7,0,1.3,0.1,2,0.1c-2.2-2.2-3.6-5-6.3-6.6c-0.9-0.5-1.9-0.9-3.1-1.1c-1.2-0.2-2.1-0.6-2.5-1.4c-0.1-0.2-0.2-0.4-0.2-0.6
		c0-0.1,0-0.2,0-0.3c0-0.4,0.1-0.8,0.3-1.2c0.1-0.1,0.1-0.3,0.2-0.4s0.2-0.3,0.3-0.5c0-0.2,0-0.5,0-0.7c-0.5,0-1-0.1-1.5-0.1
		c-2.3,2.1-5.3,2.8-8.1,3.2C286.5,95.4,284.9,96.8,284.1,99.7z"/>
	<path class="st3" d="M316.5,110.2c-2-1.8-3.9-3.7-5.9-5.5c-0.7,0-1.3-0.1-2-0.1c0,1,0.8,1.5,1.4,2.1c0.2,0.2,0.4,0.4,0.5,0.6
		c0.1,0.2,0.3,0.5,0.3,0.7c0.1,0.3,0.2,0.5,0.3,0.8c-0.2-0.2-0.4-0.4-0.6-0.6c0,0,0,0,0,0c-2.9-0.5-5.2-1.6-6-4
		c-0.3-0.8-0.4-1.7-0.4-2.9c0-1-0.6-1.8-1.6-1.4c-3,1.2-6.2-1.2-9.4,0.5c1.1,1.4,2.5,2.8,1.8,4.7c-0.7,2.1-0.1,3.9,0.9,5.7
		c0.6,0.4,1.2,0.7,1.8,1.1c1.5,1.1,4.1-1.1,5,1.3c0.4,0,0.9-0.1,1.3-0.1c3-1.3,6-2,9-0.8c1.5-0.2,2.9-0.3,4.4-0.5
		C317.4,111.3,317.1,110.7,316.5,110.2z"/>
	<path class="st3" d="M309.4,95.3c2.9-0.3,2.1-2.2,1.3-3.5c-0.8-1.4-1.9-2.7-3.4-3.5c-0.4-0.2-1.4-0.5-0.7-1.2c2.4-2,0-2.7-1-3.5
		c-1.4-1.1-2.7-2.2-3.5-3.9l-0.2-0.2c0,0,0.2,0.2,0.2,0.2c1.4,0.3,2.8,0.6,4.3,0.9c0.5,0.1,1.1,0.2,1.6,0.3
		c-0.7-0.7-1.3-1.3-1.8-1.8c-0.1-0.1-0.3-0.3-0.4-0.4c-1.8-1.9-2.1-2.9-3.3-6.8c-0.5,1.7-1.1,3.3-1.7,5.4c-0.1,0.3-0.2,0.6-0.3,0.9
		c-0.7-1.9-2-2.5-3-3.5c-2.3,1.8-3.4-0.1-4.6-1.6c-1.8,2.2,0.1,6.1,3.5,6.3c2.6,0.1,3.7,1.5,3.6,3.4c-0.2,1.9,0.9,2.9,1.8,3.9
		c1.9,2.1,3.9,4,5.9,6.1c-1.4,0.7-2.9-0.4-4.2,0.5c0.2,0.2,0.4,0.3,0.6,0.5C305.9,94.6,307.8,94.5,309.4,95.3z"/>
	<path class="st3" d="M351.8,103.5c-2.5,3.3-2.3-1.7-4.2-0.6c0.7-2.1,2.4-1.7,3.7-2.5c-1.4-1.1-2.6-1.4-4-1.5c-0.9,0.6-2,4.3-2.2,7
		c0,0.2,0,0.4,0,0.6c0,0.2,0,0.4,0,0.6c0.5-0.1,0.9-0.2,1.4-0.3c0.4-0.4,0.9-0.7,1.3-0.3c1.9-0.4,3.8-0.9,5.8-1.3
		C352.8,105,352.1,104.5,351.8,103.5z"/>
	<path class="st4" d="M469.7,61.8C469.7,61.8,469.7,61.8,469.7,61.8c-0.1-1.5-0.8-3.2,0.8-4.2c0.9-0.5,0.3,1.7,1.6,1.3
		c1.3-3-0.4-5.2-2.3-7.2c-0.8-0.8-2.5-1.8-3.1-1.1c-0.7,0.8-1.6,2.4-0.8,3.7c1.5,2.7,1.1,5.7,1.8,8.5c0.5-0.2,1-0.5,1.6-0.7
		C469.5,62.1,469.6,61.9,469.7,61.8z"/>
	<path class="st4" d="M363.4,102.7c-1.1-1.9-2.6-2.8-4.9-1.4c0.1,0.9,0.2,1.7,0.3,2.6C360.3,103.5,361.9,103.1,363.4,102.7z"/>
	<path class="st3" d="M358.8,103.9c-0.1-0.9-0.2-1.7-0.3-2.6c-1.1-0.7-0.3-2.9-2.2-2.9c0.3,2,1.1,3.8,1.3,5.8
		C358,104.1,358.4,104,358.8,103.9z"/>
	<path class="st6" d="M334.3,106.6c0.2-0.2,0.3-0.4,0.3-0.6c0-0.1,0-0.2,0-0.3c-0.1-0.4-0.6-0.7-1.1-0.9c-0.9,0.9-1.9,1.8-2.8,2.7
		C332.3,108.7,333.4,107.5,334.3,106.6z"/>
	<path class="st3" d="M300.6,92.5C300.6,92.5,300.6,92.5,300.6,92.5c0,0-0.1-0.2-0.1-0.2s-0.2,0.1-0.2,0.1c0,0.2,0,0.3,0,0.5
		C300.4,92.8,300.5,92.6,300.6,92.5z"/>
	<path class="st3" d="M300,92.1C300,92.1,300,92.1,300,92.1C300,92.1,300,92.1,300,92.1C300,92.1,300,92.1,300,92.1
		c-0.2,0-0.4-0.1-0.7-0.1c0,0.2,0,0.5,0,0.7C299.5,92.4,299.8,92.3,300,92.1z"/>
	<path class="st5" d="M155.9,58.1c1.4,0.4,3,1.9,3.3-1.4c0.2-2,2.4-1.6,3.8-1.1c2.8,0.9,5.5,2.2,7.7,4.2c0.2,0.2,0.5,0.4,0.7,0.7
		c0.7,0.7,1.5,1.2,2.5,1.3c0.4-0.2,0.8-0.4,1.2-0.6c-0.4-1.2-0.8-2.5-1.1-3.7c-0.3-1.7,0.6-3.1,2.3-2.6c0.8,0.2,1.6,0.4,2.4,0.5
		c0.5,0.1,1.1,0.1,1.6,0.1c2.9,0,5.7-0.9,8.5-1.4c0.9-0.7,1.9-1.5,2.8-2.2c0.8-4.1,3-7.2,7-8.6c3-1,5-3.4,8-4.3l0.2-0.2
		c0,0-0.2,0.2-0.2,0.2c0,0.1,0,0.1,0,0.2s0,0.1,0,0.2c2.1-1.1,3.2-3,4.1-5.1c0.9-2.1,2.2-3.7,4.6-3.8c1.3-0.1,1.7-1.1,2.6-1.6
		c0-0.2,0-0.3,0-0.5c-0.5-0.1-1.5-0.4-1-1c1.5-1.8,0.5-3.6,0.2-5.5c-2,0.3-3.9,0.9-6,0.2c-1.5-0.5-2.7,0.5-3.8,1.5
		c-2,1.9-3.9,2.3-6.1-0.1c-2.4-2.7-5.2-1.2-7.8-0.1c-0.5,0.7-1.1,0.8-1.8,0.4c0,0,0,0,0,0c-1,0.4-2.7-0.1-3.3,0.9
		c-0.1,0.2-0.2,0.6-0.2,1c0.1,2,1.5,2.5,3.5,2.3c0.8-0.1,1.3,0,1.6,0.3c0.1,0.1,0.2,0.3,0.3,0.4s0.1,0.4,0.1,0.6
		c0,0.5-0.1,1.1-0.1,1.6c0,0.3,0,0.6,0.1,0.9c1,0.1,2,0.1,3,0c1-0.1,1.9-0.4,2.8-1c2.9-2,5.9,0.2,8.8,0.2c0.9,0,1.1,1.2,0.5,2
		c-1.3,1.7-2.5,3.5-4.3,4.7c-0.5,0.3-1.3,0.6-1.6,0.4c-4-2.2-8.2-1.7-12.4-1.1c-0.9,0.1-0.9-0.6-1-1.1c-0.3-1.2,0.5-1.6,1.4-1.5
		c1.5,0.3,2.8,0.2,4.4-0.6c-2.7-1.2-5.3-1.2-7.9-1.2c-1.2,0-2.7,0.4-3.4-1.2c-0.5-0.4-1.1-0.8-1.6-1.1c-0.4,0.2-0.8,0.4-1.2,0.6
		c0,0.4,0.2,0.9,0,1c-2.3,2.4-4.3,4.8-3.3,8.7c0.3,1.1-1.2,1.3-2.1,0.8c-2-1.1-2.7,0.2-4.1,1.3c-2.6,2.3-5.1,4.9-9,4.9
		c-0.8,0-2,0-2,1c0.1,1.9-0.5,2.9-1.3,3.5c-1.4,1-3.7,0.7-5.4,1.3c-0.3,0.2-0.5,0.4-0.8,0.6c0,0,0,0,0,0v0l0,0l0,0
		C153.7,55.6,153.9,57.5,155.9,58.1z M208.9,29.4c-0.2-0.5,0.4-0.2,0.5-0.4c0.2-0.1,0.3-0.3,0.5-0.4c0,0.1,0,0.1,0,0.2
		c0,0,0,0.1,0,0.1c-0.1,0.1-0.4,0-0.5,0.1C209.3,29.1,209.1,29.3,208.9,29.4z"/>
	<path class="st3" d="M310.1,59.4c0.7,0.2,1.3,0.6,1.2,1.4c0,0.2-0.3,0.4-0.4,0.4c-0.9-0.1-0.9-0.9-1.1-1.5
		c-0.2,0.6-0.4,1.3-0.9,1.5c-0.3,0.1-0.6,0.2-1,0.1c0,0,0,0,0,0c-0.6,1.2-0.9,2.4-0.8,3.6c0.1,0.7,0.3,1.5,0.7,2.2
		c0.2,0.2,0.4,0.3,0.7,0.5c0.7-0.7,1.3-1.2,1.9-1.5c0,0,0.1,0,0.1,0c0.1-0.1,0.3-0.1,0.4-0.1c0.2,0,0.4,0,0.5,0.1
		c0.1,0,0.2,0.1,0.2,0.2c0.2,0.1,0.3,0.3,0.4,0.6c0.2,0.4,0.4,0.9,0.5,1.6c0,0.1,0.1,0.2,0.2,0.2s0.2,0.1,0.3,0.2
		c0.2-0.3,0.4-0.6,0.6-0.8c0.7-0.7,1.6-0.7,1.5,0.6c-0.1,0.8,0.1,1.3,0.3,1.7c0.7,1.3,2.3,1.4,3.1,2.4c1.1-0.7,1.4-1.4,1.4-2.2
		c0-0.2,0-0.3-0.1-0.5c-0.1-0.4-0.2-0.8-0.4-1.1c-0.2-0.4-0.4-0.9-0.6-1.3c-0.2-0.5-1.4-1-0.3-1.6c0.8-0.4,1.5-0.1,1.8,0.9
		c1.2,3.5,2.5,7,3.7,10.4c0.6-0.5,1.2-0.9,1.9-1.4c0.5-1.7,1.1-3.5,2.1-5c0.3-0.5,0.8-1,1.2-1.4c0.9-0.8,1.3-2.6,3-1.6
		c1.3,0.8,1.1,2.3,0.8,3.5c-0.7,3-0.8,6.1-2.1,8.9c-0.3,0.6-0.7,1.5,0.4,1.7c1,0.3,1.1-0.6,1.2-1.3c0.5-2.4,1.5-3.1,3.5-1.3
		c1.1,1,2.1,0.5,3.1-0.3c0.8-0.7,1.4-1.9,3.1-2.1c-0.6,2.7,0.8,3,3,2.7c1.5-0.3,2.5,0.7,2.1,2.1c-0.1,0.2-0.1,0.4-0.2,0.6
		c-0.1,0.4-0.1,0.7-0.1,1c0,0.3,0,0.5,0.1,0.7c0.1,0.2,0.2,0.3,0.3,0.4c0.6,0.5,1.7,0.2,3-0.1c0,0,0,0,0,0c0.3-0.2,0.2-0.4,0-0.7
		c-0.1-0.1-0.2-0.2-0.4-0.3c-0.1-0.1-0.1-0.1-0.2-0.2c-0.6-0.5-1.2-1,0.5-1.5c0,0,0.1,0.1,0.1,0.1l-0.1-0.1l0,0c0,0,0,0,0,0
		c0,0,0,0,0,0c-0.2-0.8-0.9-1.8-0.7-2.3c1.7-3.3-1-3.9-2.9-5c-0.6-0.4-1.8,0-1.8-1.1c0-1,1.1-1,1.7-1.6c0.4-0.4,0.9-0.6,1.3-0.5
		c0.8,0,1.5,0.4,2.3,0.5l0,0c0.1,0.1,0.3,0.3,0.4,0.4c0.1-0.1,0.2-0.2,0.2-0.3c-0.2-0.1-0.4-0.1-0.6-0.2c-0.1-0.8-0.2-1.6,0.4-2.3
		c-0.6-0.4-1.1-0.8-1.7-1.2c-0.2,0.2-0.4,0.4-0.6,0.3c-0.1,0-0.2-0.1-0.3-0.4l0,0c-0.9-0.1-1.4-0.5-1.4-1.4l0,0
		c-4.2-0.5-4.7-4.9-7.5-6.9c-2.4,0.2-3.8-1-5.1-2.5c0,0-0.1-0.1-0.1-0.1c-0.3-0.3-0.5-0.6-0.8-0.9c-0.7-0.8-1.4-1.6-2.3-2.2
		c-0.5,0-1-0.1-1.5-0.1c-1.1,0.3-1.7,0.1-2-0.4c-0.4-0.7-0.5-1.7-0.9-2.4c-0.5-0.3-1-0.5-1.4-0.9c0,0,0,0-0.1,0
		c-0.1-0.1-0.3-0.3-0.3-0.4c-0.1-0.2-0.2-0.5-0.2-0.8c0,0-0.1,0.1-0.1,0.1c-0.8,0.2-1.3-1-2.2-0.5c-0.3,1.4,1.8,1.8,1.3,3.3
		c2.7,4.1,6.6,7.4,8.1,12.6c0.7,2.4-0.9,2.6-1.6,2.1c-2.9-1.9-6.8-1.9-9.2-4.6c-3.5,0-5.7-2.7-8.5-4C312.1,59,309.3,56,310.1,59.4z"
		/>
	<path class="st4" d="M210.3,75.2c-1.6-0.2-3.3-0.5-4.9-0.5c-0.7,0.6-1.3,1.1-2,1.7c-0.6,0.6-1.3,1.2-1.9,1.8c-2,2-5,1.5-7.6,2.3
		c-1,0.3-2.1,0.2-3.1,0.3c0,0,0,0,0,0c0,0,0,0,0,0.1c0.4,0.9,1.2,1.2,2,1.5c0.3,0.1,0.5,0.2,0.8,0.3c1.3-0.1,2.6,0,3.8,0.1
		c2.3,0.3,4.6,0.7,6.8,1c2.4-2.2,5.5-1.8,8.3-1.8c8.3,0,16.5-1.2,24.8-0.2c1.7,0.2,3.6,0.2,5.3-0.5c2.2-0.9,4.1-0.8,6.4,0.1
		c2.2,0.9,4.8,0.9,7.2-0.1c-1.6-2.1-3.7-2.9-6.4-2.8c-3.7,0.1-7.5,0.5-11.3-1c1.5-1.1,3.5-0.4,4.8-2.4c-2.7-0.4-5.1-0.8-7.5-1
		c-1.8-0.2-3-0.7-3-2.7c0,0-0.1-0.1-0.1-0.1c-1.9-0.5-3.4-1.8-5.5-3.5c0.1,3.1,2.6,3.9,3.4,5.7c0.1,0.1,0.1,0.1,0.2,0.2
		c-0.1,0-0.2-0.1-0.3-0.1c-1.5,0-2.7-0.6-3.7-1.8c-0.5-0.6-1.3-1.3-2.1-0.6c-1,0.9,0.1,1.6,0.5,2.4c0.7,1.4,2.7,1.5,3.2,3.2
		c-0.6,0.2-1.1,0.3-1.6,0.6c-2.2,0.9-4.7,3.2-5.2-1.6c-0.1-0.8-0.9-0.8-1.4-0.5c-1.8,1.3-2.7-0.4-3.9-1.1
		C214.5,75.3,212.4,75.4,210.3,75.2z"/>
	<path class="st4" d="M354.9,43.3C354.9,43.3,355,43.3,354.9,43.3c0.6-0.7,1.2-1,1.8-1.2c1-0.3,2.2-0.1,3.3,0c0,0,0.1,0,0.1,0l0,0
		l-0.2,0.1c0.1,0.4,0.1,0.8,0.2,1.2c1-0.3,2-0.6,3-0.9c1.5-1.1,2.8-0.7,4.1-0.1c0.8,0.4,1.5,0.8,2.2,1c2.1,0.6,3.9,2.2,5.8,3.3
		c0.5,0.3,1,0.7,0.7,1.4c-0.3,0.7-1,0.8-1.5,0.5c-2.4-1.2-5.7-0.7-7.1-4c-0.1-0.2-0.2-0.4-0.3-0.5c-0.8-1-2.5-1-3.7-1.5
		c-0.1,0.9,0.3,1.4,1,2c0.1,0.1,0.2,0.1,0.3,0.2c1.2,0.9,1.1,1.9-0.4,2.5c2.6,3.2,3,6.8,1.6,10.7c0.4,0.1,1,0.3,1.5,0.6
		c0.2,0.1,0.5,0.2,0.7,0.4c0.2,0.1,0.3,0.2,0.5,0.3c0.1,0.1,0.3,0.1,0.4,0.2c0.1,0.1,0.3,0.1,0.4,0.2c0.1,0,0.1,0,0.2,0.1
		c0.2,0.1,0.4,0.1,0.5,0.1c0.3,0,0.6-0.2,0.7-0.7c1-4.6,3.9-7.1,7.2-9.6c0.2-0.2,0.2-0.7,0.3-1c0-0.8,0.1-1.7,0.8-2.2
		c0.6-0.5,1.7-0.8,0.9-1.9c-0.4-0.6-1.1-1-1.9-0.8c-4.3,1.1-6-1.4-7-5c-0.5-2-2.3-3.3-3.4-4.9c-1.2-1.6-2.4-3-4.7-0.5
		c0.2-1.8,0.4-3,0.4-4.2c-0.1-1.2-0.7-2.8-2-2.4c-2.5,0.8-5.1,2-7.3,3.5c-1.4,1-1.3,3.5-0.9,4.6c1.3,3.3-0.9,3.7-2.8,4.6
		c-0.3,0.1-0.5,0.4-1,0.8c0.8,1,2.6,0.8,2.5,2.3c0.5,0.3,0.9,0.7,1.4,1C353.9,43.5,354.4,43.4,354.9,43.3z M356,31.1
		c0.1,0.2,0.1,0.4,0.1,0.6c0,0.1-0.1,0.1-0.2,0.2c-0.1-0.2-0.1-0.4-0.2-0.5C355.8,31.2,355.9,31.2,356,31.1z"/>
	<path class="st4" d="M428.7,61.5c1.3,0.6,1.9,2.6,3.8,2.1c-0.5-2.7-1.7-5.4-0.4-8.8c-2.2,1.3-1.6,3.2-2.9,4.2
		c-1.5-2.1-0.6-4.3-0.6-6.4c0-1.4,2.4-3.2-0.4-4.1c-1.8-0.6-2.7-3.1-4.4-2.6c-3.9,1-8.2-3.8-11.8,0.9c-4.8-0.7-8.2,5.4-13.8,1.8
		c1,2.7,3.3,3.4,3.3,5.6c6,2.7,12.3,4,18.7,4.9C423.1,59.6,426,60.2,428.7,61.5z"/>
	<path class="st4" d="M153.9,53.3c1.7-0.6,4-0.3,5.4-1.3c0.9-0.6,1.4-1.6,1.3-3.5c0-1,1.2-1,2-1c3.9,0.1,6.4-2.6,9-4.9
		c1.3-1.2,2.1-2.5,4.1-1.3c0.9,0.5,2.4,0.3,2.1-0.8c-1.1-3.8,0.9-6.3,3.3-8.7c0.2-0.2,0-0.7,0-1c-1.5-0.5-2.7-0.2-4,0.8
		c-2,1.5-4.1,2.7-6.6,3.4c-8.8,2.3-16.9,7-27,8.1c3.9,3.2,6.5,6.5,9.3,9.6l0,0v0C153.2,52.9,153.6,53.1,153.9,53.3z"/>
	<path class="st4" d="M262,56l-0.2,0c-0.4,2.8-2.1,4.2-4.9,4.4c-0.5,0-1,0-1.5,0.1c-0.2,0.3-0.4,0.6-0.6,0.9c0,0,0,0,0,0
		c0,0,0,0,0,0c0,0,0,0,0,0c0,0.3,0,0.7,0,1c1.1,2.6-1.2,2.7-2.6,3.4c0.4,3.3,2.8,5.1,5.2,6.9c0.8-0.6,0.6-1.2,0.2-1.7
		c-0.1-0.1-0.2-0.3-0.3-0.4c-0.1-0.1-0.2-0.2-0.3-0.3c-0.5-0.6-0.9-1.2,0.2-1.9c1-0.3,1.9-0.5,2.8-0.5c1.5,0,2.8,0.7,3.9,2.2
		c1.8-0.5,1.8,0.9,2.2,2c0.1,0.2,0.1,0.3,0.2,0.5c0.1,0.1,0.2,0.3,0.4,0.4c0.9,0.6-0.2,2-0.8,2.7c-0.8,1-1.3-0.5-1.9-0.7
		c-0.5,0.1-1,0.3-1.4,0.4c-0.2,0.2-0.3,0.4-0.4,0.6s-0.2,0.4-0.2,0.6c-0.1,0.4,0,0.9,0.1,1.3c0.3,0.1,0.7,0.1,1,0.2
		c1.4-1.7,2.7-0.6,4,0.2c3.9,1.1,7.9,2.2,11.8,3.3c1.3,0.4,2.6,1.3,4,0.2c-0.7-0.8-1.8-1.1-2.5-1.6c-2.4-1.8-4.4-3.9-3.2-7.3
		c-1.2-0.2-2.3-0.6-2-2.5c1.3,0.3,1.9,1.1,2.4,2.1c0.5-0.1,0.6-0.7,0.9-1.1c0.2-0.2,0.5-0.3,0.9-0.1c2.6-0.4,3.2,3.4,6.2,3
		c-0.5-0.7-0.8-1.2-1.2-1.5c-3.3-2.5-6.6-5-10-7.4c-1.6-1.1-2.8-3.1-5.5-2.3c-0.8,0.3-2.8-1.7-1.8-2.3c2.6-1.6,0-1.9-0.5-2.2
		c-1.3-1-2.8-1.7-4.3-2.5c0,0,0,0,0,0C262.1,56,262,56,262,56z M266.5,66.7c1.6-0.5,3.1-1.2,4.7-1.1c1.4,0,0.9,1.6,1.1,3.1
		c-0.8,1.8-0.9,4.1-1.3,6.4c-0.2,0.9-0.4,2-1.7,1.6c-1-0.2-1.4-1-1.2-1.9c0.6-2.7,1-5.3-1.6-7.3C266.1,67.3,266.1,66.8,266.5,66.7z
		 M264.8,64.9l0,0.2l-0.2-0.2L264.8,64.9z"/>
	<path class="st4" d="M201.3,23.5c2.2,2.4,4.1,1.9,6.1,0.1c1.1-1,2.3-2,3.8-1.5c2.1,0.7,4,0.2,6-0.2c2.1-2.2,4.7-3.9,7.2-5.6
		c1.2-0.8,1.6-1.7,1-2.9c-0.5-1.2-1.2-2.1-2.8-1.4c-1.7,0.7-1.8-0.3-1.8-1.5c-0.8,0-2.3,0.1-2.3,0c-0.4-3.7-3.1-1.4-4.2-1.1
		c-2.2,0.5-4.1,2.2-6.6,2.2c-1,0-1.6,1.1-1.7,2.1c-0.3,2.9-3,3.1-4.7,4.4c-0.9,0.6-1.6-0.1-1.6-1.1c0-0.9,0.3-1.9,0.4-2.8l0,0
		c0.1-0.2,0.1-0.4,0.2-0.6c-0.1,0.2-0.1,0.4-0.2,0.6c-5.4,0.8-4.9,6-6.7,9.4C196.1,22.2,198.9,20.8,201.3,23.5z"/>
	<path class="st3" d="M206.6,39L206.6,39c0,0,0.2-0.2,0.2-0.2L206.6,39c-3,0.8-5.1,3.3-8,4.3c-4,1.3-6.2,4.5-7,8.6
		c2.2-0.3,3.9-1.5,4.5-3.5c0.8-2.8,2.2-2.8,4.4-1.2c-1.9,1.7-3.6,3.4-5.6,4.9c-2.3,1.8-3.5,3.7-3.2,6.9c0.1,1.2,3.6,1.4,0.8,3.4
		c-1.9,1.3-3.4-0.5-5.1-0.1c0.1,0.4,0.1,0.7,0.2,1c0.2,1,0.4,1.9,0.5,2.8c4.8-0.3,9,1.9,13.3,3.4c1,0.4,2,0.7,3,0.9h0
		c-0.6,0.3-1,0.9-1.2,1.5c-0.1,0.2-0.2,0.4-0.2,0.6v0c-2.4-1.8-5.2-2.7-7.9-3.6c-2.8-0.9-5.6-1.6-8.2-2.9c-0.2-0.1-0.3-0.3-0.5-0.4
		c-5.7-2.7-5.7-2.7-0.7-7c1.5-1.2,2.7-2.6,3.2-4.4c-2.8,0.5-5.6,1.4-8.5,1.4c-0.5,0-1,0-1.6-0.1c-0.8-0.1-1.6-0.2-2.4-0.5
		c-1.7-0.5-2.6,0.8-2.3,2.6c0.2,1.3,0.7,2.5,1.1,3.7c0.3,0,0.6-0.1,0.8-0.1c0.7-0.5,1.4-0.9,2-0.8c0.3,0,0.5,0.1,0.8,0.4
		c0.2,0.3,0.4,0.7,0.5,1.3c-0.2,0.6-0.3,1.1-0.5,1.7c0.2,0.1,0.3,0.3,0.4,0.4c1.6,0.8,3.3,1.5,5.4,2.5c-1.5,1.1-2.8,0.5-3.9,0.7
		c0.8,0.7,1.6,1.3,2.6,2.1c-0.5,0.4-1,0.7-1.6,0.9c-0.5,0.2-1.1,0.3-1.7,0.4c-0.3,0-0.6,0.1-1,0.1c-0.2,0-0.4,0-0.6,0.1
		c-0.6,0.1-1.2,0.2-1.7,0.4c-0.1,0.3-0.2,0.5-0.4,0.7c-0.1,0.1-0.2,0.3-0.3,0.4c-0.2,0.2-0.4,0.3-0.6,0.4c-0.1,0-0.2,0.1-0.3,0.1
		c0,0,0,0,0,0c-0.2,0-0.3,0-0.5-0.1s-0.3-0.1-0.5-0.2c-0.3-0.2-0.7-0.4-1.1-0.7c-0.3,0-0.6,0.1-0.9,0.1c0,0.2,0,0.4-0.1,0.6
		c1.4,1.7,3.1,2.9,5.1,3.5c1.2,0.4,2.4,0.6,3.7,0.7c1.8,0.6,3.5,1.4,4.8,2.8c0.2,0,0.4,0.1,0.6,0.1c0-0.9,0.1-1.9-0.1-2.8
		c-0.4-1.5,0.1-2.2,1.6-2.4c5-0.5,10.1-1,15.1-1.4c0-0.2,0-0.4,0.1-0.5c0,0,0,0,0,0c0,0,0,0,0,0c0.3-0.1,0.6-0.1,0.8,0
		c0.7,0.2,0.8,0.9,0.8,1.7c0.2,0.2,0.5,0.3,0.7,0.5c0,0,0,0,0,0c1.6,0,3.3,0.3,4.9,0.5c2.1,0.2,4.2,0.1,6.2-1.3
		c-1-2.2-2.3-3.3-4.9-2.4c-1.2,0.5-2.6,0.4-3.7-0.6c-1.1-0.2-2.3-0.4-3.4-0.6c0,0,0,0,0,0c0,0,0,0,0,0c-0.2-0.5-0.5-1-0.8-1.5
		c-0.1-0.2-0.2-0.4-0.3-0.6c-0.1-0.2-0.1-0.3-0.1-0.5c0-0.2,0.2-0.4,0.5-0.5c0.2-0.1,0.5-0.1,0.9-0.1s0.8,0.1,1.4,0.2
		c2.1,0.4,2.2-2.8,3.7-4.1c0.1-0.5,0.2-1,0.3-1.5c-2.4,1-4.8,1.9-7.2,3c-0.9,0.4-1.5,0.3-2.5-0.2c1-1.5,1.8-3.1,3.1-4.2
		c1.2-1.1,1.4-2.1,0.8-3.4c-0.2-0.4-0.7-0.9-1-0.8c-1.5,0.1-1.4,1.6-2,2.6c-0.3,0.6-0.4,1.3-0.6,2.1c-1.6-2.3-0.5-5.8,2-6.3
		c0.8-0.2,2,1.1,2.1-0.8c0.2-1.8-1.4-1.2-2.2-1.7c-0.4-0.3-1.1,0-1.7,0c0,0,0,0,0,0c0.5-0.8,1.1-1.5,1.6-2.3
		c0.1-0.2,0.2-0.5,0.3-0.7c0.1-0.2,0.2-0.5,0.2-0.7c0-0.1,0-0.3,0-0.4c0-0.1,0-0.3,0-0.4c-0.1-0.4-0.2-0.9-0.5-1.4
		c-0.3-0.5,0.4-1,1-1.2c0.6-2,2-3.6,3.1-5.3c0-0.1,0-0.1,0-0.2C206.5,39.1,206.6,39.1,206.6,39z M184.6,70.6c-0.3-0.3-0.4-1,0.1-1.2
		c1.6-0.6,3,0.3,4.5,0.7C187.6,70.9,186.1,71.8,184.6,70.6z M191.4,71.7c-0.2-0.1-0.3-0.5-0.4-0.8c0.2-0.1,0.4-0.3,0.6-0.2
		c0.3,0.1,0.5,0.4,0.9,0.7C192,71.5,191.6,71.8,191.4,71.7z"/>
	<path class="st3" d="M350.2,52.2c-0.1,0.3-0.3,0.6-0.6,0.8c1.1,2.7,3.6,4.6,4.6,7.4c0.3,0.8,1.4,1.6,0.4,2.5
		c-0.8,0.7-1.5-0.4-2.2-0.5c-0.8-0.2-1.6-0.3-2.4-0.5c0.4,1.8,1.5,3.3,2.4,4.9c0.1,0.2,0.2,0.5,0.4,0.7c0.2,0.4,0.3,0.7,0.4,1.1
		c0.2,0.6,0.2,1.1,0.2,1.8l0.1,0c0.5,0.1,1,0.3,1.2,0.9c0.5,0.8,1.1,1.3,1.8,1.6c0.1,0,0.2,0.1,0.3,0.1c0.2,0.1,0.5,0.1,0.7,0.2
		c0.2,0,0.4,0,0.5,0c0.4-0.7,1-1.2,1.8-1.6c2.6-1.4,3.1-3,0.5-5.1c-0.8-0.6-1.5-1.6-1.7-2.6c-0.6-2.5-1.7-4.6-3.5-6.4
		c-1.4-1.3-1.4-2.5,0.8-2.9c0.6-0.1,1.5,0.4,1.5-0.9c0-1.8,0.6-3.2,2.6-2.4c1.8,0.7,4.1,1.6,2.9,4.3c-1.3,3,0.4,2.9,2.4,2.8
		c0.1-0.1,0.3-0.2,0.4-0.3c1.4-3.8,1.1-7.4-1.6-10.7c-0.5-2.2-3.9-1.5-4.1-4c-0.1-0.4-0.1-0.8-0.2-1.2c0,0,0-0.1,0-0.1
		c-1.1-0.1-2.2-0.3-3.3,0c-0.6,0.2-1.2,0.5-1.7,1.1l0.2,0.2c0,0-0.2-0.2-0.2-0.2c-0.5,0.1-1,0.2-1.5,0.3c-0.1,0.8-0.6,1.1-1.4,1
		c-0.3,0.4-0.6,0.7-1,1.1c0,0,0,0,0,0c0,0,0,0,0,0C350.3,47.8,351.2,50.2,350.2,52.2z M357.9,68.9c0-0.1,0.2-0.3,0.4-0.5
		c0.1,0.4,0.2,0.8,0.2,1.1c0,0.3,0,0.8-0.5,0.4C357.8,69.8,357.9,69.3,357.9,68.9z"/>
	<path class="st4" d="M154.4,34.7c0.7,0.4,1.4,1.5,2.4,0.4c0.7-0.7,1.4-1.4,0.6-2.4c-1-1.2-0.2-2.4,0.7-2.6c3.7-1,3.8-4.6,5.4-7.1
		c0.5-0.7,0.4-2.2,1.6-1.9c1,0.2,0.9,1.5,1.2,2.4c0.8,2.4-0.8,4.8,0,8.1c1.1-2.9,1.2-5.5,2.6-7.6c1,1.1,0.5,2.7,2.3,4
		c0.7-6.7,0.7-13.2,4.2-19c-1.4,1.3-3.2-1.3-4.3,0.8c-0.3-1.6-4.9-0.1-2.7-3.7c0.2-0.3,0-1-0.2-1.3c-0.6-0.5-1,0.1-1.5,0.4
		c-1.5,1-2.7,2.3-2,4.1c0.7,1.8,1.7,3.6,4,4c0.9,0.1,2.2-0.5,2.4,0.8c0.2,1.2-0.8,2.2-1.7,3c-1,0.9-1.6,0.5-1.9-0.8
		c-0.1-0.6-0.8-0.3-1.1,0c-1.4,1.6-4,1.8-4.5,4.4c-0.2,0.9-1.8,1.5-2.4,0.9c-1.7-1.8-2.3,0.1-3.3,0.7c-1.9,1.2-2.7,3.3-3.9,5
		C150.6,30,151.5,33.1,154.4,34.7z"/>
	<path class="st4" d="M492.2,48.9c0.7,0.6,0.6,1.3,0.3,1.9c2-1,4.1-2.1,6.1-3.1c0.7-0.5,1.5-0.9,2.3-1.4c0.5-0.3,1-0.5,1.5-0.7
		c1.5-0.7,3.1-1.3,3.7-3.1c0,0,0,0,0,0c-2.4-1.9-5,0-7.6-0.4c-3.1-0.4-4.2,2.8-5.9,5c0-1.3,0.2-2.4,0.4-3.6c0.1-0.6-0.1-1.5-0.8-1.2
		c-2.6,1.1-6.4,0.7-7.7,3.6c-1.2,2.7-2.8,2.1-4.6,1.8c1.2,2.7,2.3,5.2,3.4,7.7c2.6-1.3,5.1-2.6,7.6-3.9
		C491.3,50.6,491,49.4,492.2,48.9z"/>
	<path class="st4" d="M109.9,38.5c1.3-2.1,3-1.7,4.8-0.9c1.2-1.3,2.4-2.7,3.6-3.9c0.8-0.7,0.9-1.8,0.2-2.1c-2-1.1-2.8-4.5-6.1-3.3
		c-0.7,0.2-1.7,0.2-2.3-0.9c2-1.3,3.1-3.4,4.4-5.3c1.9-3,1.8-3.1,4.2-0.3c-0.2-2.1-0.3-3.8-0.4-5.5c-2.2-0.1-3.3,1.4-4.6,2.7
		c-3.5,3.4-7.2,6.5-12.7,4.4c0.7,1.8,2.6,2.2,3.9,3.4c0.7,0.6,2,1.1,1.4,2.1c-1.5,2.4-0.1,4,1,5.8c0.8,1.2,1.2,2.6,0.3,4
		C108.4,39.2,109.4,39.2,109.9,38.5z M114,30.7c0.1,2.9-1.8,3.9-3.7,4.7c-0.2,0.1-1.1-0.5-1.1-0.6C109.9,32.3,112.4,32.1,114,30.7z"
		/>
	<path class="st4" d="M13.9,5.9c0-1.2,0.1-2.5-1.9-1.6C10.2,5,8.8,4.4,8,2.4C6.5-1.4,3.7,0.3,1.1,0.7C0.6,0.7,0.3,0.8,0,1
		c4.6,2.2,9.1,4.4,13.7,6.5C13.8,7,13.9,6.4,13.9,5.9z"/>
	<path class="st4" d="M333.7,56.3c0.3,0.3,0.5,0.6,0.8,0.9c0,0,0.1,0.1,0.1,0.1c1.3,1.4,2.7,2.7,5.1,2.5c0.1-0.1,0.3-0.2,0.4-0.3
		c-0.3-0.3-0.6-0.6-0.9-0.9c-0.3-0.3-0.6-0.6-1-0.7c-1.8-0.9-0.8-2.3-0.2-2.7c1.9-1.1,4.3-1.4,6.3-0.7c2.1,0.7,3.9,2.2,4.2,4.7
		c0,0.2-0.5,0.4-0.8,0.6c0.2,0.5,0.5,1,0.9,1.3c0.1,0.1,0.3,0.2,0.4,0.3c0.3,0.2,0.7,0.4,1.1,0.6c0,0,0,0,0,0
		c0.8,0.2,1.6,0.3,2.4,0.5c0.8,0.2,1.5,1.2,2.2,0.5c0.9-0.9-0.1-1.7-0.4-2.5c-1-2.8-3.5-4.7-4.6-7.4c-0.2-0.2-0.4-0.3-0.6-0.5
		c-0.9,0-1.8,0.8-2.7,0.1c-4.1-3.3-8.3-6-14-4.2c-0.4,0.1-1.2-1-1.8-0.1c-0.6,0.8-0.3,1.6,0.2,2.3c0.7,1.1,1.7,2.1,0.7,3.5
		C332.3,54.7,333,55.5,333.7,56.3z"/>
	<path class="st4" d="M330.5,66.6c0.7,0.5,2.3,0.3,1.6-2.1c-1.5-5.1-5.4-8.4-8.1-12.6c-1.2,0-2.3-0.5-3.4-0.8
		c-1.8-0.5-4.7-1-5.2,0.2c-0.8,1.9,0,4.4,2.3,5.8c0.6,0.4,1.1,0.9,1.6,1.4c0.9,1,2.3,1.8,2.1,3.5C323.7,64.7,327.5,64.6,330.5,66.6z
		"/>
	<path class="st5" d="M159.5,72.8c8.7,3.6,16.7,7.1,24.8,10.3c0.4,0.2,0.8,0.3,1.2,0.4c1.2,0.4,2.4,0.7,3.5,0.7c0,0,0,0,0,0
		c0.4,0,0.8,0,1.2-0.1c1.2-0.2,2.4-0.6,3.5-1.5c0,0,0,0,0,0c-0.3-0.1-0.5-0.2-0.8-0.3c-0.8-0.3-1.6-0.7-2-1.5c0,0,0,0,0-0.1
		c-0.5,0-1,0-1.5,0c-0.1,0.2-0.3,0.3-0.5,0.5c-1.5,1.3-1.9,0.2-2.2-1c0-0.2-0.1-0.4-0.3-0.5c-0.2-0.1-0.4-0.1-0.6-0.1
		c-1.7,0.1-3.2,0-4.1-1.2c-0.3-0.4-0.5-0.9-0.7-1.6c-1.3-0.1-2.6-0.3-3.7-0.7c-1.9-0.6-3.6-1.8-5.1-3.5c-0.4-0.2-0.7-0.4-1.1-0.5
		c0,0,0,0,0,0c-0.6-0.3-1.1-0.6-1.7-0.8c-1.7,0.5-2.7-0.8-3.9-1.5C162.8,69.3,162,71.9,159.5,72.8z"/>
	<path class="st4" d="M252.7,51.5c-0.4-1.2-1.2-1.9-2.5-2.2c-8.4-2-10.4-6.9-8.4-12.4c0.3-0.8,0.4-1.6,0.5-2.4
		c0.1-0.8,0.8-1.7-0.2-2.2c-0.9-0.5-1.9-0.2-2.7,0.4c-1.1,0.9-1.9,1.9-1.8,3.6c0.3,5,1.2,9.8,4,14.1c0.9,1.4,0.9,2.6-0.1,3.9
		c0,0.2,0.1,0.3,0.2,0.4c2.2-0.9,4.5-1.4,6.8-1.4c4,0,4.4,0.4,3.8,4.5c0.5-0.1,1-0.1,1.6-0.2c0.2-1.2,0.5-2.3,0.7-3.5
		C253.5,53.4,253,52.6,252.7,51.5z M246.5,51.9c-0.8,0.1-0.7-0.7-0.9-1.2c-0.1-0.2,0.2-0.8,0.3-0.8c0.7,0,0.8,0.6,1,1.3
		C246.8,51.5,246.7,51.9,246.5,51.9z"/>
	<path class="st3" d="M171,72C171,72,171,72,171,72c0.1-0.1,0.2-0.1,0.3-0.2c0.1,0,0.2-0.1,0.3-0.1c0,0,0-0.1,0-0.1
		c-0.1-0.6-0.3-1.1-0.4-1.7c-0.4-1-0.9-2.1-1.3-3.1c0-0.1-0.1-0.1-0.1-0.2c-0.2-0.6-0.4-1.1-0.5-1.7c0-0.1,0-0.2,0-0.2
		c-0.1-0.5-0.2-1-0.1-1.5c1.6-0.5,2.7,3.3,4.2,0.2c0.1-0.2,0.2-0.3,0.4-0.4c0-0.4,0.1-0.8,0.1-1.1c-1.1-0.1-1.8-0.7-2.5-1.3
		c-0.2-0.2-0.5-0.4-0.7-0.7c-2.2-2-4.9-3.3-7.7-4.2c-1.4-0.5-3.6-0.9-3.8,1.1c-0.2,3.3-1.9,1.8-3.3,1.4c-2-0.6-2.2-2.5-2.9-4.1
		c-1.4,0.3-1.6,0.4-1.3,1c1.3,2.4-1.2,1.2-2,1.9c1,0.6,1.8,1.1,2.6,1.5c2.9,1.7,6.2,2.4,9.3,3.6c3.9,1.5,3.7,7.1,8.2,8
		c-0.2,0.4-0.4,0.8-0.6,1.3C169.9,71.4,170.4,71.7,171,72C171,72,171,72,171,72z M163.6,61.4c1.6-0.1,2.6,0,3.7,1.3
		C165.3,63.5,164.8,62.2,163.6,61.4z"/>
	<path class="st3" d="M299.2,66.3c0.3-0.8,1.2-1.1,1.5-1.9c0-0.1,0-0.2,0-0.4c0,0,0,0,0,0c-1.1-1.8-3.1-2.7-4.6-4
		c-0.5-0.5-0.9-1-1.3-1.6c-0.1-0.1-0.1-0.2-0.2-0.2c0.1,0,0.3,0,0.4,0l0,0c2.1-0.9,4.2-1.8,6.3-2.8c-4.2-3.6-9.6-3.2-14.5-4.8
		c-2.1,0.9-1.5,2.1-0.7,3.5c0.1,0.1,0.1,0.2,0.2,0.3c0.8,1.4,2.2,2,3.2,3.1c2.9,0.3,4.4,2.7,5.6,4.8c1.6,2.7-1.4,3-2.9,3.9
		c-1.1,1-0.2,2-0.1,3c0.9,0.6,1.7,0.9,2.4,0.9C296.7,70,297.7,67.6,299.2,66.3z"/>
	<path class="st5" d="M261.8,76.6c0-0.2,0.1-0.4,0.2-0.6s0.2-0.4,0.4-0.6c-0.2-1.2-0.7-2.2-1.3-3.2c-1-1.5-2.5-2.8-4-4
		c-1,0.7-0.7,1.3-0.2,1.9c0.1,0.1,0.2,0.2,0.3,0.3c0.1,0.1,0.2,0.3,0.3,0.4c0.4,0.5,0.6,1.1-0.2,1.7c-2.3-1.8-4.8-3.6-5.2-6.9
		c-2.2,0.6-2.4,2.6-3.1,4.3c-0.5,1.1-0.8,3-2.2,2.8c-1.7-0.2-0.8-2.1-1.1-3.3c-0.1-0.3-0.1-0.7-0.1-1c-0.8,1.8-0.2,3.7-0.6,5.5
		c-0.4,1.9,0.6,2.2,2,2.5c4.9,1,10,1.1,15,1.4C261.7,77.4,261.7,77,261.8,76.6z"/>
	<path class="st4" d="M88.1,40.5c0.2,0.3,0.4,0.5,0.7,0.8c0,0.1,0.1,0.3,0.1,0.4c0.2,0.1,0.4,0.2,0.5,0.2c0.2,0.1,0.5,0.2,0.7,0.3
		c5.4,1.7,10.3,5.1,16.4,4.7c-2.1-1.1-3.5-2.5-2.6-5.1c0,0,0,0,0,0c-0.6,1.5-2.9,0.1-3.4,1.9c-0.4-0.2-1.1-0.3-1.2-0.6
		c-0.6-1.9-1.5-3.9-1.6-5.7c-0.1-2.2-1.1-2.7-2.6-3.5c-0.7,1.7-0.4,3.6-2.5,4.7c-0.4-2,0.6-3.8,0.7-5.5c-5.4-0.7-5.4-0.6-5,4.7
		C88.3,38.7,88.1,39.6,88.1,40.5C88.1,40.5,88.1,40.5,88.1,40.5L88.1,40.5z"/>
	<path class="st4" d="M226.4,59.7c0.6-0.8,0.3-1.5-0.5-2.1c-1.6-1.2-2.3-2.9-3.1-4.6c-0.2-0.5-0.5-1-0.8-1.5
		c-0.2-0.3-0.4-0.6-0.6-0.9c-0.2-0.3-0.5-0.6-0.8-0.8c-0.7-0.6-1.5-1.2-2.6-1.4c-0.7,1-0.2,2,0,3c0.1,0.3,0.1,0.7,0,1
		c0.5,0.3,1,0.6,1.4,1c0.6,0.5,1.5,0.8,1.2,1.9c-0.1,0.2-0.5,0.6-0.7,0.6c-0.9-0.3-2.2-0.1-2.1-1.6c-1.3-0.7-1.3-2.2-1.9-3.2
		c-1.4-2.3-0.6-3.2,1.9-3c-0.1-1-0.4-1.9-1.1-2.6c-0.2-0.2-0.5-0.4-0.9-0.5c-1.2,1.6-2.3,3.4-4,4.7c-1,0.8-1.1,0.1-1.5-0.3
		c0.2,1.4,0.3,2.8,0.4,4.2c0.2,3.2,1.7,4.4,4.8,3.5c1.3-0.4,1.7,0.1,2.3,0.8c0.7,0.9,1.3,2,2.7,2.6c0.4-3.5,1.9-3,3.8-1.1
		C224.9,59.7,225.5,60.8,226.4,59.7z"/>
	<path class="st4" d="M202.5,45.9c0.3,0.5,0.4,0.9,0.5,1.4c0,0.1,0,0.3,0,0.4c0,0.1,0,0.3,0,0.4c0,0.3-0.1,0.5-0.2,0.7
		c-0.1,0.2-0.2,0.5-0.3,0.7c-0.5,0.8-1.1,1.5-1.6,2.3l0,0c0.6,0,1.4-0.3,1.7,0c0.7,0.6,2.3,0,2.2,1.7c-0.2,1.9-1.4,0.7-2.1,0.8
		c-2.5,0.6-3.5,4-2,6.3c0.2-0.8,0.2-1.5,0.6-2.1c0.5-1,0.4-2.5,2-2.6c0.3,0,0.8,0.5,1,0.8c0.6,1.3,0.4,2.3-0.8,3.4
		c-1.2,1.2-2,2.8-3.1,4.2c1,0.5,1.7,0.6,2.5,0.2c2.4-1.1,4.8-2,7.2-3c1.3-2.2-0.4-3.7-1.3-5.3c-0.4-0.8-1.8-1.4-1.4-2.3
		c1.7-4.4-2.7-6.3-3.8-9.6C202.9,44.9,202.2,45.4,202.5,45.9z"/>
	<path class="st4" d="M306.8,56.4c0.1,0.1,0.3,0.1,0.4,0.2c0.1,0.1,0.2,0.2,0.3,0.4c0.1,0.2,0.1,0.4,0.1,0.7c-0.1,1-0.9,1.2-1.7,1.1
		c-0.1,0.1-0.3,0.2-0.5,0.2c0,0,0,0.3,0,0.3l-0.3,0c-0.2,0.5-0.4,1-0.6,1.5c0.4,0.1,0.8,0.2,1.1,0.3c0,0,0,0,0,0v0
		c0.4,0,0.7,0.1,1.1,0.1c0.4,0,0.7,0.1,1.1,0.1c0.4,0.1,0.8,0.1,1-0.1c0.5-0.3,0.7-0.9,0.9-1.5c0.1-0.1,0.2-0.2,0.3-0.3
		c-0.8-3.4,2-0.4,2.5-1.4c-0.4-1.3,2.5-1.9,1.1-3c-2.3-1.7-4.6-4.2-8.1-3.1l-0.2,0.1c0,0,0.1-0.2,0.1-0.2c0.1-1.3,0.2-2.6,0.3-3.9
		c0.1-0.7,0.3-1.7-0.4-1.9c-1.7-0.3-3.2,1.1-5,0.8c-0.5-0.1-0.2,0.9-0.2,1.5c0,3.2,1.6,5.4,4.1,7.1c-0.1,0.1-0.1,0.3-0.1,0.4
		c0.5,0.1,0.9,0.3,1.4,0.4C306.2,56.3,306.5,56.3,306.8,56.4z"/>
	<path class="st4" d="M226.1,27.1c3.4,0.8,6.6,0,9.9-0.3c0.7-0.1,1.5-0.1,1.7-1c0.1-0.8-0.6-1.2-1.2-1.5c-2.5-1.1-4.9-2.2-7.4-3.3
		c-2.9-1.2-7.3,0.7-8,3.6c-0.5,1.9-2.1,2.5-3.1,3.7c0,0.2,0,0.3,0,0.5C220.9,29.3,223.2,26.4,226.1,27.1z"/>
	<path class="st5" d="M280.2,55c0-0.2,0-0.4,0-0.5c0.2-1.5-1.2-2.2-1.6-3.4c-0.7-0.1-1.4-0.1-2.1-0.2c0,0.3-0.1,0.5-0.1,0.8
		c-0.5,2.3-2.1,2.3-3.7,2.1c-0.3,0-0.6-0.1-0.9-0.1c-0.5-0.1-1-0.1-1.4-0.1c-1.8,2.5,0.1,7.2,3,6.9c3-0.3,3.3,0.7,2.8,3
		c-0.2,0.7,0.2,1.1,0.8,1.4c0.3,0.1,0.5,0.3,0.8-0.2c0.9-1.4,0.9-1.1,2.4-0.9c1.4,0.2,2.3,1.7,4.1,1.4c-2.2-3.2-6.7-3.9-7.2-8.1
		c-0.2-0.3-0.4-0.5-0.6-0.8c-0.2-0.2-0.5-0.5-0.7-0.7l0,0c-0.2-0.1-0.4-0.1-0.6-0.2c0.1-0.1,0.2-0.2,0.2-0.3
		c0.2,0.1,0.3,0.3,0.5,0.4h0c0.2,0.2,0.5,0.5,0.7,0.7c0.3,0.2,0.5,0.4,0.8,0.7c1.1,0.6,2.2,1.3,3.4,1.9c0.2-0.7,0.1-1.4,0-2.1
		c-0.1-0.2-0.1-0.5-0.2-0.7C280.3,55.6,280.2,55.3,280.2,55z M271.7,55c-0.1,0-0.2,0.1-0.2,0.1c-0.1,0-0.1-0.1-0.1-0.1
		c0,0,0,0,0-0.1h0l0,0c0,0,0,0,0,0C271.4,55,271.5,55,271.7,55C271.7,55,271.7,55,271.7,55C271.7,55,271.7,55,271.7,55z"/>
	<path class="st3" d="M282.8,91.7c0.8,1.8,0.7,3.1-1.9,2.1c-0.9-0.3-1.6,0.8-1.4,0.9c0.4,0.2,0.7,0.5,1,0.8c0.1,0.2,0.3,0.4,0.4,0.6
		c0.7,1.5,1,3.5,3.2,3.5c0.8-2.9,2.3-4.3,5.6-4.7c2.7-0.4,5.8-1.1,8.1-3.2c-1.9-0.6-3.9-1.3-5.8-1.9c-1.3,1.7-2.3,1.4-3-0.5
		c-0.1-0.1-0.3-0.2-0.4-0.1c-1,0.5-2,0.4-3-0.1c-0.6,0-1.2,0-1.7,0C282.8,89.7,282.3,90.4,282.8,91.7z"/>
	<path class="st3" d="M246.8,72.8c1.5,0.2,1.7-1.7,2.2-2.8c0.8-1.7,0.9-3.7,3.1-4.3c1.4-0.7,3.6-0.9,2.6-3.4
		c-0.3-0.2-0.3-0.5-0.2-0.7c0-0.1,0.1-0.2,0.2-0.2c0,0,0,0,0,0c0.2-0.3,0.4-0.6,0.6-0.9c-0.4-1-0.6-2.2-1.5-3
		c-0.5,0.1-1,0.1-1.6,0.2c-2.1,0.9-3.2,2.9-4.8,4.4c0,0-0.1,0.1-0.1,0.1c-0.2,0.3-0.4,0.7-0.6,1c0.1,1.4,1,2.9-0.7,4
		c-0.2,0.4-0.4,0.9-0.6,1.3c0,0.3,0,0.7,0.1,1C246,70.6,245.2,72.5,246.8,72.8z"/>
	<path class="st3" d="M106.1,40.3c0.3,0.8,1.1,1.9-0.6,2.2c0.2,1.2,1.2,1.6,2.1,2.1c-0.2-2.8-0.2-2.8,2.4-2.9
		c4.1-0.2,5.2,1.3,3.7,5.2l0,0c-0.1,0.1-0.3,0.3-0.4,0.4c0.1,0.1,0.2,0.2,0.3,0.2c0.1-0.2,0.1-0.4,0.2-0.6c1.6-0.3,2.1,1.3,3.3,1.8
		c0.6,0.2,1.3,1.2,1.8,0.4c0.8-1.3,1.4-2.9,1.5-4.4c0.1-1.1-1.4-1.1-2.4-1.4c-4.2-1.1-4.9-2.5-3.4-5.7c-1.8-0.8-3.4-1.1-4.8,0.9
		c-0.4,0.7-1.4,0.7-2.2,0.1c-0.4-0.2-0.8-0.3-1.2-0.5C105.5,38.8,105.8,39.5,106.1,40.3z"/>
	<path class="st5" d="M261.7,49.9c-0.4-2.2-1.3-4-4-3.5c-2.8,0.4-2.5,2.6-2.6,4.6c0,1,0.4,2.2-0.6,3c-0.2,1.2-0.4,2.3-0.7,3.5
		c0.9,0.8,1.1,1.9,1.5,3c0.5,0,1,0,1.5-0.1c0.5-5.9,1.3-6.9,5.3-7.1c0.8-0.5,0.7-1.3,0.7-2C262.3,50.9,261.8,50.6,261.7,49.9z"/>
	<path class="st4" d="M193.7,31.8c-0.1-0.2-0.1-0.5-0.1-0.9c0-0.5,0.1-1.1,0.1-1.6c0-0.2,0-0.4-0.1-0.6s-0.2-0.3-0.3-0.4
		c-0.3-0.2-0.8-0.4-1.6-0.3c-2.1,0.2-3.4-0.3-3.5-2.3c0-0.5,0-0.8,0.2-1c0.5-1.1,2.3-0.5,3.3-0.9c0,0,0,0,0,0c0-0.6-0.1-1.2-0.1-1.8
		c0-1,0.5-2.4-0.9-2.7c-1.5-0.4-1.9,1-2.6,2c-1.6,2.3-2,5.5-5.2,6.7c-0.4,0.2-0.5,1.5-0.7,2.3c0.5,0.4,1.1,0.8,1.6,1.1
		C187.2,31.3,190.5,31.1,193.7,31.8z"/>
	<path class="st3" d="M237.7,51.2c0.1-0.4-0.5-1-0.7-1.5c-1.5-0.7-1.6-2.6-3.1-3.7c-0.4,0.5-0.7,1-0.8,1.5c-0.2,0.6-0.2,1.2-0.2,1.8
		c0,0.2,0,0.4,0,0.6c0.1,0.8,0.2,1.6,0.2,2.4c0,0,0.1,0.1,0.1,0.1s-0.1,0.2-0.1,0.1c0.2,0.4,0.4,0.9,0.6,1.3
		c0.1,0.1,0.2,0.2,0.3,0.3c-0.1,0.1-0.1,0.1-0.2,0.2c0.2,0.3,0.5,0.5,0.7,0.8c0,0,0.1,0.1,0.1,0.1c0.2,0.2,0.4,0.4,0.6,0.6
		c0,0,0.1,0.1,0.1,0.1c0.2,0.2,0.4,0.5,0.7,0.7c0.4,0.1,0.7,0.2,0.8,0.4c0.2,0.2,0.3,0.4,0.3,0.6c0,0.1,0,0.2,0,0.3
		c0,0.4-0.2,0.7-0.3,1.1c0,0,0,0,0,0c0,0,0,0,0,0c0.2,0.4,0.4,0.8,0.6,1.3v0c0.8,0,1.6-0.1,2.4-0.3c0.8-0.2,1.5-0.4,2.3-0.7
		c0.1-1.6-1.2-3-0.6-4.6c-0.1-0.1-0.2-0.3-0.2-0.4C238.5,55.2,236.8,54.9,237.7,51.2z"/>
	<path class="st3" d="M133.8,46.5c0.1,0.1,0.3,0.3,0.4,0.4c0.2,0.3,0.4,0.6,0.6,0.9c0.5,0.8,1,1.5,1.9,1.8l0,0
		c0.1,0.1,0.3,0.2,0.4,0.3c-0.1-0.1-0.2-0.2-0.3-0.4c-0.2-0.9-0.4-1.8-0.7-2.8c-1.8-1.2-4.5-2.1-1.2-4.6c-0.3-0.2-0.5-0.3-0.8-0.5
		l-0.2,0c0,0-0.1-0.2-0.1-0.2c-0.1-2.5-1.5-3.9-3.7-4.7c-0.3-0.1-0.6-0.2-1-0.3c-0.4,4.7-0.1,9.1,2.8,12.9
		C133.4,48.9,132.8,47.3,133.8,46.5z"/>
	<path class="st6" d="M295.1,58.1c-0.1,0-0.3,0-0.4,0c0.1,0.1,0.1,0.2,0.2,0.2c0.3,0.6,0.8,1.2,1.3,1.6c1.5,1.4,3.5,2.2,4.6,4
		c0,0,0,0,0,0c0,0,0,0,0,0c0.2-0.2,0.4-0.4,0.7-0.6c0.7-0.8,1.2-1.7,2.1-2.2c0.3-0.2,0.6-0.3,1-0.3c0.2-0.5,0.4-1,0.6-1.5
		c0-0.2,0.1-0.3,0.3-0.3c0.2-0.1,0.3-0.2,0.5-0.2c0-0.8,0-1.7,0-2.5c-0.5-0.1-0.9-0.3-1.4-0.4c-0.5,0.2-1,0-1.3-0.4
		c-0.5,0-1.1-0.1-1.7-0.1C299.3,56.3,297.2,57.2,295.1,58.1L295.1,58.1z"/>
	<path class="st4" d="M272.7,53.7c1.6,0.2,3.2,0.3,3.7-2.1c0.1-0.2,0.1-0.5,0.1-0.8c0,0,0,0,0,0c-0.3-0.1-0.7-0.2-1-0.4
		c-1.6,1.6-2.9,1.7-4.2-0.4c-1-1.7-2.6-2.6-4.4-3.2c-1.4,1.1-2.3-0.1-3.3-0.8l0,0c0.4,1.8,0.1,3.2-1.9,3.8c0.1,0.7,0.6,1,1.1,1.4
		c2.8-0.2,5.1,1.1,7.5,2.2c0.4,0,0.9,0,1.4,0.1C272.1,53.6,272.4,53.6,272.7,53.7z"/>
	<path class="st5" d="M295.2,62.3c-1.2-2.1-2.7-4.4-5.6-4.8c-0.8,0.3-1.6,0.6-2.4,0.9c-0.1,0.2-0.2,0.3-0.4,0.5
		c-0.1,0.1-0.1,0.1-0.2,0.2c-0.2,0.2-0.4,0.4-0.6,0.6c-0.2,0.4-0.1,0.8,1.3,1.2c1.4,0.4,0.8,2.7,2.4,3.3c1.3,0.2,1.8,1.4,2.6,2.2
		C293.9,65.3,296.8,65,295.2,62.3z"/>
	<path class="st4" d="M285.5,56.3c0.4,0.4,0.7,0.8,1.1,1.2c0.1,0.1,0.2,0.3,0.3,0.4c0.1,0.1,0.2,0.3,0.3,0.4v0
		c0.8-0.3,1.6-0.6,2.4-0.9c-1-1.1-2.4-1.7-3.2-3.1c-0.1-0.1-0.1-0.2-0.2-0.3c-0.8-1.4-1.4-2.6,0.7-3.5c0,0,0,0,0,0
		c-1.5-0.6-3-1.1-4.5-1.8c-2.4-1.1-3.7-0.3-3.9,2.2c0.3,1.2,1.7,2,1.6,3.4C282.5,54,284.1,55,285.5,56.3z"/>
	<path class="st3" d="M287.4,60.8c-1.4-0.4-1.5-0.8-1.3-1.2c0.1-0.2,0.3-0.4,0.6-0.6c0.1-0.1,0.1-0.1,0.2-0.2
		c0.2-0.2,0.3-0.3,0.4-0.5v0c-0.1-0.1-0.2-0.3-0.3-0.4c-0.1-0.1-0.2-0.3-0.3-0.4c-0.3-0.4-0.7-0.8-1.1-1.2c-1.4-1.4-3-2.3-5.3-1.9
		c0,0.2,0,0.4,0,0.5c0,0.3,0.1,0.6,0.2,0.9c0.1,0.2,0.1,0.5,0.2,0.7c0.2,0.7,0.3,1.3,0.1,2.1c0.2,0.2,0.4,0.5,0.6,0.7l0.2,0
		c0,0,0,0.2,0,0.2c0.5,0.3,0.9,0.6,1.4,0.9l0.3,0c0,0,0.1,0.2,0.1,0.2c1.4,1.3,2,3.2,3.6,4.3c0,0,0.1,0.1,0.1,0.1
		c1-0.2,2.4,0.6,2.9-1.1C288.1,63.5,288.7,61.1,287.4,60.8z"/>
	<path class="st4" d="M158.4,12.5c0.2,0.1,0.5,0.1,0.9,0.1C159,12.4,158.7,12.4,158.4,12.5z"/>
	<path class="st3" d="M88.8,41.7C88.8,41.7,88.8,41.7,88.8,41.7c0-0.1,0-0.3-0.1-0.4c-0.4-0.1-0.7-0.3-0.7-0.8c0,0,0,0,0,0
		c0,0,0,0.1,0,0.1c0,0,0,0,0,0c-1.7-0.6-3.3-1.2-5-1.7c-3.5-1.1-6.9-2.9-10.5-3.5c3.9,1.8,7.7,3.6,11.5,5.4
		C85.6,41,87.2,41.6,88.8,41.7z"/>
	<path class="st5" d="M297.5,74.6c1.6-0.8,2.5-1.7,1.7-3.8c-0.5-1.3-0.1-3-0.1-4.5c-1.5,1.2-2.5,3.7-4.6,3.8c-0.7,0-1.4-0.2-2.4-0.9
		c-0.4,1.4,0.8,2.5,0.7,3.8C294.2,74.5,295.2,76.4,297.5,74.6z"/>
	<path class="st3" d="M143.7,54l0.1-0.1c-4.3-1.9-9.2-1.3-13.6-2.9l0,0c0,0-0.2-0.2-0.2-0.2l0.1,0.2c1.8,1.3,0.5,2.8,0.1,4.1
		c2.1,0.5,4.3,1,6.4,1.4C138,52.9,141.4,54.8,143.7,54z"/>
	<path class="st3" d="M211.9,49.6c1.6-1.4,2.7-3.1,4-4.7c-4.8,0.2-4-3.3-3.7-6.7c-0.8,0.7-1.3,1.3-1.7,2c-0.2,0.3-0.3,0.7-0.4,1
		c-0.3,0.8-0.4,1.6-0.3,2.5c0.1,1.9,0.7,3.8,0.7,5.6C210.8,49.7,210.9,50.4,211.9,49.6z"/>
	<path class="st6" d="M278.2,71.4c-0.3,0.3-0.5,1-0.9,1.1c-0.1,0.1-0.2,0.3-0.3,0.4c-1.2,3.4,0.9,5.6,3.2,7.3
		c0.8,0.6,1.8,0.9,2.5,1.6l0.2-0.2c0.5-1.8-1.3-3.4-0.5-5.3c-1.6-1.3-2.1-3.5-3.4-5.1C278.7,71.1,278.4,71.2,278.2,71.4z"/>
	<path class="st4" d="M436.1,66c0.6,0.5,1.3,0.8,2.2,0.9v0c0.1,0,0.2,0.1,0.3,0.1c-0.1-0.1-0.2-0.1-0.2-0.2
		c-0.2-1.3,0.7-1.9,1.7-2.3c-3.3-2.3-2.2-6.1-2.6-10.1c-2.7,3.3-2.1,6.6-2.8,9.6C435.1,64.9,435.5,65.5,436.1,66z"/>
	<path class="st5" d="M237.5,60.2L237.5,60.2c-0.4,3.7,2.4,6,4,8.8l0,0c0.4,0.5,0.3,1.6,1.4,1.6c0.3-1.2-0.7-1.2-1.3-1.6
		c1.2-1.5,1.6-3,0.2-4.7c-0.4-0.5-3-2.6,0.6-3c0.9-0.1,0.4-1.3-0.1-2c-0.7,0.3-1.5,0.5-2.3,0.7C239.1,60.1,238.3,60.3,237.5,60.2z"
		/>
	<path class="st4" d="M105.6,42.5c1.6-0.3,0.8-1.4,0.6-2.2c-0.3-0.8-0.6-1.6,0.3-2.1c0.4-2.7-1.3-4.6-2.4-7.2
		c-0.5,2.1,0,4.3-2.4,5.1c0.4-4.1-2.3-7.4-3-11.2c-0.7,3.5,0.8,6.8,0.9,10.2c0,0.9,1.3,0.8,2.1,1c-0.5,2.3,2.3,3.5,2.1,5.7
		c0,0,0,0,0,0C104.5,41.8,105.1,42.1,105.6,42.5z"/>
	<path class="st5" d="M350.2,52.2c1-2,0.2-4.4,0.9-6.4c0,0,0,0,0,0c-1.2,0.8-2.4,1.9-3.9,0.2c-0.6-0.7-1.6-1.8-2.6-0.6
		c-0.8,0.9-0.2,2,0.5,2.9c1.1,1.6,3.3,2.3,4,4.3c0.2,0.2,0.4,0.3,0.6,0.5C349.8,52.8,350,52.5,350.2,52.2z"/>
	<path class="st4" d="M116.2,38.7c2.1,1.9,4.2,3.7,6.3,5.6c0.7-1.9-0.2-7.5-1.2-8.9c-1.1,0.9,0.1,2.5-0.8,3.5
		C119.1,38.4,117.9,36.9,116.2,38.7z"/>
	<path class="st4" d="M232.9,49.9c0-0.2,0-0.4,0-0.6c0-0.6,0-1.2,0.2-1.8c0.2-0.5,0.4-1,0.8-1.5c1.5,1.1,1.5,3,3.1,3.7
		c1-2,0-3.4-1.6-4.4c-1.1-0.7-2.8-1.4-3.6-0.4c-0.7,1-1.9,2.5-0.7,4.2c0.8,1,1.2,2.3,1.8,3.4c0,0,0.1-0.2,0.1-0.2
		C233.1,51.5,233,50.7,232.9,49.9z"/>
	<path class="st4" d="M206.1,67.4c-0.6-0.1-1-0.2-1.4-0.2s-0.7,0-0.9,0.1c-0.3,0.1-0.4,0.3-0.5,0.5c0,0.1,0,0.3,0.1,0.5
		c0.1,0.2,0.2,0.4,0.3,0.6c0.3,0.5,0.6,1.1,0.8,1.5c1.1,0.2,2.3,0.4,3.4,0.6c2.3-2.1,0.8-5.2,1.9-7.7
		C208.3,64.5,208.2,67.7,206.1,67.4z"/>
	<path class="st4" d="M327,51.2c0.4,0.7,0.5,1.7,0.9,2.4c0.3,0.5,0.9,0.8,2,0.4c-1.1-1.8-0.8-3.8-1.2-5.8c-0.4-2-1.6-2.5-3.3-2.1
		c-2.6,0.5,0.4,2.1-0.5,3c0,0,0.1-0.1,0.1-0.1C326.5,49,327,49.8,327,51.2z"/>
	<path class="st3" d="M256.9,60.4c2.8-0.2,4.4-1.7,4.9-4.4c0.1-0.3,0.2-0.6,0.3-0.8c0.1-0.6,0.1-1.2,0.2-1.8
		C258.2,53.5,257.4,54.5,256.9,60.4z"/>
	<path class="st4" d="M182.7,25.6c1.6-0.9,2.9-2.3,3-4.3c0-0.7-0.1-2-1.8-1.5c-2.3,0.1-2.5,2.1-2.7,3.8
		C181,24.6,182.2,25.9,182.7,25.6z"/>
	<path class="st4" d="M128.8,47.2c0.4-1-0.3-1.5-0.8-2.1c-0.6-0.9-0.4-1.7-0.4-2.7c0-0.7,0-1.8-1.3-1.6c-0.9,0.1-1.7,0.3-2,1.5
		C123.7,45.1,124.6,46.3,128.8,47.2z"/>
	<path class="st4" d="M27.5,10.9c0-1.3-0.8-1.5-1.9-1.3c-0.9,0.1-2.2-1-2.7,0.5c-0.2,0.5,0.1,1.1,0.2,1.7c1.4-0.3,2,0.4,2.5,1.3
		c0.7,0.3,1.3,0.6,2,1C27.5,12.9,27.5,11.9,27.5,10.9z"/>
	<path class="st4" d="M479,51.3c-0.9,1.4-0.1,2.8-1.3,3.8c-1,0.9-0.6,2-0.1,3c1.3-0.7,2.7-1.3,4-2C480.8,54.7,480,53.1,479,51.3z"/>
	<path class="st4" d="M216.2,58.3c-0.3,5.3,3.8,7.2,6,10.2C220,65.5,219.7,61.3,216.2,58.3z"/>
	<path class="st4" d="M444.8,57.8c1.3-0.1,2-1.3,1.9-2.6c-0.1-1.1-0.8-1.9-2.1-2.3c-0.9,1-2.5,1.7-2.5,3.1
		C442.1,57.2,443.6,58,444.8,57.8z"/>
	<path class="st4" d="M174.9,23.1c-0.2,0.4-0.4,0.7-0.5,1.1c-0.1,0.3-0.2,0.6-0.3,0.9c-0.1,0.3-0.1,0.5-0.1,0.7
		c0,0.8,0.2,1.5,0.4,2.6l0,0c0.1,0.1,0.2,0.3,0.3,0.4c-0.1-0.2-0.2-0.3-0.2-0.5c0.9-4,3.2-7.5,4.4-11.4
		C176.9,19.9,175.6,21.7,174.9,23.1z"/>
	<path class="st4" d="M389.5,52.5c-2.7-1.6-5.6-2.7-8.7-3.1C383.3,53.4,385.2,54.1,389.5,52.5z"/>
	<path class="st5" d="M271.4,50.1c1.2,2.1,2.6,2,4.2,0.4l-0.1-0.2c-0.8,0.2-1.6,0.3-1.8-0.8c-1.8-1.2-3.3-3-5.5-3.4
		c-0.8-0.2-1.4-0.4-1.1,0.8C268.8,47.5,270.4,48.3,271.4,50.1z"/>
	<path class="st4" d="M447.4,65.9c0.7-2.3-2.2-3.5-1.6-5.8c-1.2,0.2-1.2,1.7-2.3,1.6l0,0c-0.1-0.6-0.2-1.2-0.3-2
		c-0.5,0.9-0.1,1.5,0.3,2c0.1,1.2,0.2,2.4,0.3,3.6C444.9,66,446.1,66.4,447.4,65.9z"/>
	<path class="st4" d="M95.2,21.4c1.6,1.7,3.6,1.9,5.8,1.9C99.6,19.8,98.5,19.4,95.2,21.4z"/>
	<path class="st4" d="M101,23.3C101,23.3,101,23.3,101,23.3C101,23.3,101,23.3,101,23.3C101,23.3,101,23.3,101,23.3
		C101,23.3,101,23.3,101,23.3z"/>
	<path class="st4" d="M283,81.6c0.7,1,1,2.5,2.8,2.3l0,0c1,0.9,2.1,1.5,3.6,1.8c-0.7-2-2.4-1.6-3.6-1.9c-1.5-1.3-2.6-2.6-0.2-4.1
		l0.2-0.2c0-0.7,0-1.3-0.1-2c1.2,0.6,1.5,1.3,0.1,2c0,0-0.2,0.2-0.2,0.2c0.1,0.9,0.2,1.8,0.4,3.1c1-1.6,1.8-2.6,2.3-3.7
		c0.4-0.9,0.2-1.9-0.6-2.5c-1-0.7-1.7-0.3-2,0.9c-1.3,0.2-1.9-1.4-3.2-1.1C281.7,78.2,283.6,79.8,283,81.6z"/>
	<path class="st4" d="M214.1,67.6c-0.5-0.3-0.7-1.5-1.5-0.5c-0.6,0.8-0.3,1.7,0.5,2.1c1.3,0.6,2.7,0.9,4,1.3
		c0.1-0.1,0.2-0.3,0.3-0.4C217.8,67.2,215.4,68.2,214.1,67.6z"/>
	<path class="st4" d="M260,82.6c0.2,0.1,0.5,0.1,0.7,0.2c0.5,0.1,1,0.1,1.5,0.2c0.5,0,1,0,1.5,0c-1.2-3.1-3.6-1.6-5.7-1.6h0
		C258.6,82,259.3,82.4,260,82.6z"/>
	<path class="st4" d="M136.1,46.8c0-0.2,0.1-0.4,0.1-0.6c0.1-1.3-0.1-2.4-0.9-3.5c-0.1-0.2-0.3-0.3-0.4-0.5
		C131.6,44.7,134.3,45.7,136.1,46.8z"/>
	<path class="st4" d="M235.7,72.5c1.1-2.3-0.5-3.3-1.9-4.3l0,0c0,0,0,0,0,0s0,0,0,0l0,0c-0.1,0-0.3,0-0.4-0.1
		c0.1,0.1,0.2,0.1,0.2,0.2c-0.2,0.9-0.5,1.8-0.7,2.8c0,0,0.1,0.1,0.1,0.1C234.1,71,234.6,72.2,235.7,72.5z"/>
	<path class="st4" d="M218.8,45.5c0.4,0.7,1,1.6,1.9,1.1c1-0.7,0.1-1.4-0.5-1.9c-0.7-0.7-1.5-1.4-2.2-2.2l0,0c0,0-0.2-0.1-0.2-0.1
		l0.2,0.2C217.7,43.7,218.2,44.6,218.8,45.5z"/>
	<path class="st4" d="M231.2,67.2c0.7,0.1,1-0.5,0.9-1.4c-0.1-0.7-0.7-1.1-1.6-1.1c-0.5,0-0.9,0.3-0.9,0.8
		C229.8,66.4,230.3,67.1,231.2,67.2z"/>
	<path class="st4" d="M153.8,16.9c2.4-0.4,3-4.1,4.6-4.5c-1.3-0.4-0.9-2.2,0.1-4.4c0.4-0.8,0.6-1.8,0.7-2.7c0.2-1.8-0.7-2-2.2-1.4
		c-1.2,0.5-1.6,1.6-1.8,2.8C154.9,10.2,154.3,13.5,153.8,16.9L153.8,16.9c-1.3,1.9-1.5,4.1-1.5,6.4l0,0c-0.1,0.2-0.2,0.3-0.2,0.5
		c0.1-0.2,0.2-0.3,0.3-0.5C154,21.5,153.5,19.1,153.8,16.9z"/>
	<path class="st4" d="M227.8,52.5c0.5-0.9-0.2-1.5-0.8-2.1c-0.3-0.3-0.7-0.6-1.1-0.9l0,0c0,0,0,0,0,0c-0.1,0-0.2,0-0.3,0
		c0.1,0.1,0.1,0.1,0.2,0.2c0,0,0,0,0,0c0,0,0,0,0,0c0,0.5,0,0.9,0.1,1.4c0.1,0.8,0,1.7,1.1,1.9C227.2,53,227.6,52.8,227.8,52.5z"/>
	<path class="st4" d="M217.1,70.5c0.3,0.7,0.7,1.1,1,1.3c0.7,0.4,1.4,0,2.1-0.5c0.1-0.1,0.3-0.2,0.4-0.3c0.2-0.1,0.3-0.2,0.5-0.3
		c0.1-0.1,0.2-0.1,0.3-0.2c-1.6-1.3-2.9-0.3-4.1-0.5C217.3,70.2,217.2,70.4,217.1,70.5C217.1,70.5,217.1,70.5,217.1,70.5z"/>
	<path class="st5" d="M246.8,63.1c-1.5,1.1,0.1,2.8-0.7,4C247.8,66,246.9,64.5,246.8,63.1z"/>
	<path class="st3" d="M262.9,78.1c1.3,0.7,2.7,1.1,4,0.2C265.7,77.5,264.4,76.4,262.9,78.1z"/>
	<path class="st5" d="M292,89.9c-0.9-0.8-2-0.4-3-0.5C289.7,91.4,290.7,91.6,292,89.9z"/>
	<path class="st4" d="M223.5,49.4c0.5,0.2,0.8-0.3,0.8-0.8c-0.1-0.7-0.5-1-1.3-1c-0.4,0.1-1,0.2-0.7,0.8
		C222.5,48.8,223,49.2,223.5,49.4z"/>
	<path class="st5" d="M353.4,43.7c-0.5-0.3-0.9-0.7-1.4-1c0,0,0,0,0,0c-0.8,0.7-0.6,1.3,0,2C352.8,44.7,353.3,44.5,353.4,43.7z"/>
	<path class="st5" d="M237.2,57.9c0-0.1,0-0.2,0-0.3c0-0.2-0.1-0.4-0.3-0.6c-0.2-0.2-0.4-0.3-0.8-0.4c0.3,0.8,0.6,1.6,0.8,2.4
		c0,0,0,0,0,0C237,58.6,237.2,58.2,237.2,57.9z"/>
	<path class="st4" d="M275.4,50.3c-0.1-1.4-0.9-1.2-1.8-0.8C273.8,50.6,274.6,50.5,275.4,50.3z"/>
	<path class="st3" d="M147.4,55.3c-0.1,0.2-0.3,0.4-0.3,0.5c0.2,0.2,0.5,0.4,0.8,0.6c0.1-0.2,0.3-0.5,0.3-0.6
		C147.9,55.6,147.6,55.5,147.4,55.3z"/>
	<path class="st4" d="M220.9,10.4C220.8,10.4,220.8,10.4,220.9,10.4C220.8,10.5,220.8,10.5,220.9,10.4
		C220.8,10.5,220.8,10.5,220.9,10.4C220.8,10.5,220.8,10.4,220.9,10.4z"/>
	<path class="st4" d="M221.3,9.6c-0.2,0.3-0.3,0.5-0.5,0.8c0.3-0.2,0.5-0.3,0.8-0.5C221.5,9.8,221.4,9.7,221.3,9.6z"/>
	<path class="st5" d="M288.6,89.3c-1-0.9-2-0.7-3-0.1C286.5,89.7,287.5,89.7,288.6,89.3z"/>
	<path class="st4" d="M477.7,49.8c0-0.1-0.2-0.1-0.3-0.2c0.1,0.2,0.2,0.3,0.2,0.5C477.6,50,477.7,49.8,477.7,49.8z"/>
	<polygon class="st5" points="285.2,66.4 284.9,66.5 285.2,66.6 	"/>
	<polygon class="st5" points="282.8,60.6 282.8,60.8 283.1,60.8 283.1,60.5 	"/>
	<polygon class="st5" points="281.2,59.4 281.2,59.6 281.4,59.6 281.4,59.4 	"/>
	<path class="st3" d="M304.4,55.9c0-0.1,0.1-0.3,0.1-0.4c-0.5,0-1,0-1.5,0C303.4,55.9,303.9,56.1,304.4,55.9z"/>
	<path class="st5" d="M262,56c0,0,0.2,0,0.2,0c0,0,0,0,0,0c0-0.3-0.1-0.6-0.1-0.8c-0.1,0.3-0.2,0.6-0.3,0.8L262,56z"/>
	<path class="st3" d="M144.2,54.5c0.1-0.1,0.2-0.3,0.3-0.4c-0.2-0.1-0.4-0.1-0.6-0.2c0,0-0.1,0.1-0.1,0.1
		C143.9,54.2,144,54.3,144.2,54.5z"/>
	<path class="st5" d="M233.7,53.8l-0.1,0.3c0,0,0.2,0.2,0.2,0.2c0.1-0.1,0.1-0.1,0.2-0.2C233.9,54,233.8,53.9,233.7,53.8z"/>
	<path class="st3" d="M153.1,53.9c0.3-0.2,0.5-0.4,0.8-0.6c-0.3-0.2-0.7-0.5-1-0.7v0C152.9,53.1,153,53.5,153.1,53.9L153.1,53.9
		C153.1,53.9,153.1,53.9,153.1,53.9z"/>
	<polygon class="st4" points="349.8,42.3 350.1,42.2 349.9,42.1 	"/>
	<polygon class="st4" points="441.7,65 441.5,64.9 441.5,65.1 	"/>
	<path class="st5" d="M286.9,65.1c0,0-0.1-0.1-0.1-0.1S286.8,65.1,286.9,65.1z"/>
	<path class="st5" d="M247.4,62.1c0,0,0.1-0.1,0.1-0.1S247.4,62.1,247.4,62.1z"/>
	<path class="st5" d="M235.4,55.8C235.4,55.8,235.5,55.9,235.4,55.8C235.5,55.9,235.4,55.8,235.4,55.8z"/>
	<path class="st5" d="M234.7,55.1C234.7,55.2,234.6,55.1,234.7,55.1C234.6,55.1,234.7,55.1,234.7,55.1z"/>
	<polygon class="st5" points="233.1,52.3 233,52.5 233.2,52.5 233.2,52.4 	"/>
	<polygon class="st4" points="134.1,41.8 134.1,41.5 133.8,41.5 133.9,41.7 	"/>
	<path class="st6" d="M364.9,77.1c2.5-2.1,3.2-5.5,1.5-8.1c-1.4-2.1-1.6-4.2-1-6.4c0.4-1.4,0.3-2.8,0.2-4.2c0,0,0,0,0,0
		c-2,0.2-3.7,0.2-2.4-2.8c1.2-2.7-1.1-3.6-2.9-4.3c-2.1-0.8-2.7,0.7-2.6,2.4c0,1.3-0.9,0.8-1.5,0.9c-2.2,0.5-2.2,1.6-0.8,2.9
		c1.8,1.8,2.9,3.9,3.5,6.4c0.2,1,1,2,1.7,2.6c2.6,2.1,2.1,3.7-0.5,5.1c-0.8,0.4-1.4,0.9-1.8,1.6C359.2,76.7,362.2,76.6,364.9,77.1z"
		/>
	<path class="st1" d="M373.4,80.2c0.1-2.2,0.9-3.9,3.5-3.9c2.4-0.1,2-2.3,2.3-3.7c0.4-1.4,0.1-2.9,2.1-3.1c0.1-0.3,0.2-0.6,0.2-0.8
		c-1.2-3-3.2-5.3-6.5-6.2c-1.6,3-2.6,6.2-3.3,9.5c-0.5,2.5-0.9,5-1.3,7.5C371.5,79.7,372.4,80,373.4,80.2z"/>
	<path class="st6" d="M379.2,72.6c-0.4,1.4,0.1,3.6-2.3,3.7c-2.7,0.1-3.4,1.7-3.5,3.9c1.1,0.6,2.2,1.2,3.3,1.8
		c0.2,0.1,0.5,0.2,0.7,0.3c1.7,0.7,3.4,1.3,5.3,1.2c-0.1-2.9-0.8-5.9-0.1-8.6c0.1-0.3,0.1-0.6,0.2-0.9c0.4-1.9,0-3.2-1.4-4.6
		C379.4,69.7,379.6,71.2,379.2,72.6z"/>
	<path class="st6" d="M381.6,68.7c1.3-0.2,4,0.3,1.2-2.2c-1-0.9-1.3-2.2-1.7-3.4c-0.5-1.8-1.9-2.5-3.9-2.3c-0.3,0-0.6,0-0.9,0
		c-0.2,0-0.3,0-0.4,0c-0.1,0-0.2,0-0.3,0.1c0,0,0,0,0,0c0,0-0.1,0-0.1,0c-0.3,0.2-0.5,0.6-0.3,1.5C378.4,63.4,380.4,65.7,381.6,68.7
		z"/>
	<path class="st4" d="M367.9,60.9c-0.6-0.1-0.8,0.4-0.8,0.8c0,0.2,0.3,0.6,0.5,0.7c0.5,0.1,0.8-0.3,0.9-0.9
		C368.3,61.3,368.1,60.9,367.9,60.9z"/>
	<path class="st4" d="M371.9,61.2C371.9,61.2,371.9,61.2,371.9,61.2c0.1,0.1,0.3,0.2,0.4,0.3c0,0,0,0,0,0c0,0,0.1-0.1,0.1-0.1
		c0,0,0.1-0.1,0.1-0.1c0-0.1-0.1-0.2-0.1-0.3C372.2,61,372,61.1,371.9,61.2z"/>
	<path class="st6" d="M353.5,70.4c0-0.6-0.1-1.2-0.2-1.8c-0.1-0.4-0.3-0.8-0.4-1.1c-0.1-0.2-0.2-0.5-0.4-0.7
		c-0.9-1.6-2.1-3.1-2.4-4.9c-0.4-0.2-0.8-0.4-1.1-0.6c-0.1-0.1-0.3-0.2-0.4-0.3c-0.4-0.3-0.7-0.7-0.9-1.3c-0.2-0.1-0.3-0.2-0.4-0.2
		c-0.2-0.1-0.4-0.1-0.6-0.1c0,0,0,0-0.1,0c-1,0-1.2,1.3-1.7,2c-0.2,0.2-0.3,0.4-0.6,0.5c0.3,2,3.1,2.6,2.8,4.9l0,0
		c1.3-0.3,1.6,0.3,1.4,1.4l0,0c0.3,0,0.6,0,1,0c0.6,0.4,1.1,0.8,1.7,1.2c0,0,0,0,0,0C351.9,70,352.5,70.5,353.5,70.4z"/>
	<path class="st3" d="M364,95.9c-0.8-1-1.5-2-2.4-3c-0.5-0.6-0.9-1.6-1.9-0.8c-0.9,0.7,0,1.2,0.3,1.7c0.8,1.3,1.5,2.6,2.2,3.9
		c0.1-0.2,0.2-0.3,0.3-0.6C362.9,96.5,363,95.8,364,95.9z"/>
	<path class="st6" d="M353.9,70.9c0.1,0.1,0.3,0.2,0.5,0.3c0.1,0,0.3,0.1,0.4,0.1c0,0,0,0,0,0c-0.2-0.6-0.6-0.8-1.2-0.9
		C353.6,70.6,353.7,70.8,353.9,70.9C353.8,70.9,353.8,70.9,353.9,70.9z"/>
	<path class="st2" d="M363.8,85.4c0.1,0.3,0.2,0.5,0.3,0.8l0,0v0c0.1,0,0.2,0,0.3,0.1c-0.1-0.1-0.1-0.1-0.2-0.2
		C364.1,85.8,364,85.6,363.8,85.4z"/>
	<path class="st2" d="M314.1,72.3c-0.6,2.8,0.6,4.4,3,5.4c1.5-0.3,2.6,0,3.5,1.4c1.1,1.6-0.4,2.3-0.9,3.3c0.1,0,0.2,0,0.2,0.1
		c0,0,0,0,0,0c0.1,0,0.1,0.1,0.1,0.2c0.5,0.4,1.3,0.7,1.6,1.2c0.6,1.2-0.5,0.8-1.1,1c-0.2,0-0.2,0.5-0.3,0.8
		c3.2,0.7,1.1,4.2,3.5,6.3c3.2,2.8,3.7-2.6,5.5-0.6c0.9-1,0.4-1.9,0-2.9c-0.1-0.1-0.1-0.3-0.1-0.4c-0.1-0.4-0.1-0.9-0.1-1.3
		c-0.1-0.5-0.1-0.9-0.2-1.4c-0.5-0.2-1-0.4-1.2-0.8c-0.1-0.2-0.1-0.4,0-0.6c-0.3-0.6-0.5-1.2-0.8-1.9c-0.1-0.1-0.1-0.2-0.2-0.2
		c-0.1-0.1-0.1-0.2-0.1-0.3c-0.2-0.5-0.1-1.1,0.1-1.6c-0.1-0.4-0.3-0.9-0.4-1.3c-0.7-0.5-0.8-1,0.1-1.4c0-0.4,0-0.9,0-1.3
		c0,0,0,0,0,0c-0.6,0.5-1.2,0.9-1.9,1.4c-1,1.1,1.8,2.6-0.2,3.2c-1.2,0.4-1.8-1.5-2.6-2.4c-1.4-1.5-0.8-4.1-2.8-5.5
		c-0.8-1-2.5-1.1-3.1-2.4c-0.2-0.4-0.3-1-0.3-1.7c0.1-1.3-0.8-1.3-1.5-0.6c-0.2,0.2-0.4,0.5-0.6,0.8
		C313.6,70.1,314.3,71.3,314.1,72.3z"/>
	<path class="st4" d="M347.2,95.4c2.1,1.3-0.3,2.2-0.2,3.3c0.1,0.1,0.2,0.1,0.3,0.2c1.4,0,2.7,0.4,4,1.5c-1.3,0.8-2.9,0.4-3.7,2.5
		c1.8-1.1,1.6,3.9,4.2,0.6c0.4,1.1,1,1.5,1.7,1.7c1.4-0.3,2.7-0.7,4.1-1c-0.2-2-1.1-3.8-1.3-5.8c-1.1-1.3-3.3-2.8,0.7-3.2
		c1.6-0.2,0.3-1.7,0.2-1.7c-0.3,0.1-0.6,0.1-0.8,0c-0.2,0-0.4-0.1-0.6-0.2c-0.8-0.5-1.1-1.7-1.8-2.3c-0.2-0.2-0.5-0.4-0.8-0.5
		c0,0,0,0,0,0C350.9,91.9,348.6,93.1,347.2,95.4z"/>
	<path class="st3" d="M347.2,95.4c-0.2,0.1-0.3,0.3-0.4,0.4c-0.9,0.9-0.7,1.9,0.2,2.9c0,0,0,0,0,0C346.9,97.5,349.3,96.6,347.2,95.4
		z"/>
	<path class="st3" d="M327.6,84.6c0.2,0.5,0.8,0.6,1.2,0.8c0.1-0.2,0.1-0.3,0.2-0.5c0-0.1,0-0.3,0-0.4c0,0,0,0,0-0.1
		c0-0.1,0-0.2-0.1-0.3c-0.2-0.3-0.7-0.3-1.4-0.3c0,0,0,0,0,0C327.5,84.3,327.5,84.5,327.6,84.6z"/>
	<path class="st3" d="M326.4,81.7c0,0.1,0.1,0.2,0.1,0.3c0.1,0.1,0.1,0.2,0.2,0.2l0,0c0.1-0.2,0.2-0.3,0.3-0.4
		c0.1-0.2,0.2-0.5,0.1-0.7c0-0.4-0.2-0.7-0.7-1C326.3,80.6,326.2,81.1,326.4,81.7z"/>
	<path class="st3" d="M326.1,78.7c0-0.5,0.1-1,0.1-1.4C325.3,77.7,325.3,78.2,326.1,78.7z"/>
	<path class="st3" d="M337.5,82.2c0.1,0.1,0.1,0.2,0.2,0.2c0.2-0.1,0.3-0.2,0.5-0.2c-0.1-0.1-0.1-0.2-0.2-0.2
		C337.8,82,337.6,82.1,337.5,82.2z"/>
	<path class="st3" d="M341.2,80.8c0.1,0,0.2,0.1,0.2,0.1c0-0.1,0.1-0.2,0.1-0.2c0-0.1-0.1-0.1-0.2-0.1
		C341.2,80.6,341.2,80.7,341.2,80.8z"/>
	<path class="st2" d="M302.9,71.4c0.2-0.3,0.3-0.6,0.4-1c0.1-0.3,0.1-0.7,0.1-1c0-0.5,0.1-1,0.2-1.5c-1-1.4-0.1-3.7-2.2-4.5
		c-0.2,0.2-0.4,0.4-0.7,0.6c0,0,0,0,0,0c0,0.1,0,0.3,0,0.4c-0.2,0.8-1.2,1.2-1.5,1.9c0,1.5-0.4,3.2,0.1,4.5c0.7,2.1-0.1,3-1.7,3.8
		c1,1,2.4,1.6,3,3.5c0.1-0.3,0.2-0.6,0.3-0.9c0.7-2.1,1.2-3.7,1.7-5.4c0,0,0,0,0,0C302.7,71.7,302.9,71.5,302.9,71.4z"/>
	<path class="st3" d="M303.6,67.9c0.6-0.7,1.2-1.5,1.6-2.2c0.7-1.3,1-2.7,0.4-4.4v0c0,0,0,0,0,0c-0.4-0.1-0.8-0.2-1.1-0.3
		c-0.4,0.1-0.7,0.2-1,0.3c-0.9,0.5-1.4,1.4-2.1,2.2C303.6,64.2,302.7,66.5,303.6,67.9z"/>
	<path class="st4" d="M306.4,73.9c0.4-0.5,0.7-1,0.8-1.6c0.5-1.6,0.3-3.3,1.2-4.7c-0.2-0.2-0.4-0.3-0.7-0.5
		C304.8,68.8,305.4,71.1,306.4,73.9z"/>
	<path class="st3" d="M320.6,79.1c-0.9-1.4-2-1.7-3.5-1.4c0,0.1,0,0.3,0,0.4c0,0.3,0,0.5,0.1,0.7c0,0.1,0.1,0.2,0.1,0.3
		c0.5,1.3,1.9,2,2.5,3.3c0,0,0,0,0,0C320.2,81.4,321.7,80.7,320.6,79.1z"/>
	<path class="st3" d="M307.7,104.1c0.3,0.2,0.6,0.3,0.8,0.5c-0.2-0.3-0.3-0.6-0.5-0.8C307.9,103.9,307.8,104,307.7,104.1z"/>
	<path class="st3" d="M308.5,104.6C308.6,104.6,308.6,104.6,308.5,104.6C308.6,104.6,308.6,104.6,308.5,104.6
		C308.6,104.6,308.6,104.6,308.5,104.6C308.6,104.6,308.6,104.6,308.5,104.6z"/>
	<path class="st6" d="M311.1,108.9c-0.1-0.3-0.2-0.5-0.3-0.8c-0.1,0.1-0.2,0.2-0.3,0.3C310.7,108.5,310.9,108.7,311.1,108.9z"/>
	<path class="st3" d="M193.7,31.8c-3.3-0.7-6.6-0.6-9.8-0.5c0.7,1.6,2.1,1.2,3.4,1.2c2.6,0,5.2,0,7.9,1.2c-1.6,0.8-3,0.9-4.4,0.6
		c-0.9-0.2-1.7,0.3-1.4,1.5c0.1,0.5,0.1,1.3,1,1.1c4.2-0.6,8.4-1.1,12.4,1.1c0.4,0.2,1.2-0.1,1.6-0.4c1.8-1.2,3-3,4.3-4.7
		c0.6-0.8,0.5-2-0.5-2c-2.9,0-5.9-2.2-8.8-0.2c-0.9,0.6-1.9,0.9-2.8,1C195.7,31.9,194.7,31.9,193.7,31.8z"/>
	<path class="st6" d="M185.6,58.5c-5,4.3-5,4.3,0.7,7c0.2,0.1,0.4,0.3,0.5,0.4c0.4,0,0.9,0.1,1.3,0.1c-0.2-0.9-0.3-1.8-0.5-2.8
		c-0.1-0.3-0.1-0.7-0.2-1c1.7-0.4,3.2,1.4,5.1,0.1c2.9-1.9-0.7-2.2-0.8-3.4c-0.2-3.2,0.9-5.1,3.2-6.9c2-1.5,3.7-3.3,5.6-4.9
		c-2.2-1.6-3.5-1.6-4.4,1.2c-0.6,2.1-2.4,3.2-4.5,3.5c-0.9,0.7-1.8,1.5-2.8,2.2C188.3,55.9,187,57.3,185.6,58.5z"/>
	<path class="st4" d="M176.6,63c0.3,0.2,0.5,0.5,0.7,0.9c0.6,1.3,1,0,1.4-0.2v0c0.2-0.6,0.3-1.1,0.5-1.7c-1.2,0-2.3-0.1-3.3-0.8
		c-0.3,0-0.6,0.1-0.8,0.1c-0.4,0.2-0.8,0.4-1.2,0.6c0,0,0,0,0,0c0,0.4-0.1,0.8-0.1,1.1C174.8,62.8,175.8,62.4,176.6,63z"/>
	<path class="st3" d="M209.9,28.9c0,0,0-0.1,0-0.1c0,0,0-0.1,0-0.2c-0.2,0.1-0.3,0.3-0.5,0.4c-0.1,0.2-0.7-0.2-0.5,0.4
		c0.2-0.1,0.3-0.3,0.5-0.4C209.5,28.9,209.8,29,209.9,28.9z"/>
	<path class="st6" d="M321.6,78.2c0.8,0.9,1.4,2.8,2.6,2.4c2-0.6-0.8-2.2,0.2-3.2c-1.3-3.5-2.5-6.9-3.7-10.4c-0.4-1.1-1-1.4-1.8-0.9
		c-1.2,0.6,0.1,1.1,0.3,1.6c0.2,0.4,0.4,0.9,0.6,1.3c0.2,0.4,0.3,0.8,0.4,1.1c0,0.2,0.1,0.3,0.1,0.5c0,0.8-0.3,1.5-1.4,2.2
		C320.7,74.1,320.2,76.7,321.6,78.2z"/>
	<path class="st4" d="M344.3,61.8c-1.2-1.1-2.4-2.3-4.2-2.3c-0.1,0.1-0.3,0.2-0.4,0.3c2.7,2.1,3.2,6.5,7.5,6.9
		C347.4,64.4,344.6,63.8,344.3,61.8z"/>
	<path class="st4" d="M310.9,61.3c0.1,0,0.4-0.3,0.4-0.4c0.1-0.8-0.5-1.2-1.2-1.4c-0.1,0.1-0.2,0.2-0.3,0.3
		C310,60.4,310.1,61.2,310.9,61.3z"/>
	<path class="st2" d="M324.9,49c0,0.3,0.1,0.6,0.2,0.8c0.1,0.2,0.2,0.3,0.3,0.4c0,0,0,0,0.1,0c0.4,0.4,0.9,0.6,1.4,0.9
		C327,49.8,326.5,49,324.9,49z"/>
	<path class="st4" d="M347.2,66.8c0,0.9,0.5,1.3,1.4,1.4C348.8,67,348.4,66.4,347.2,66.8z"/>
	<path class="st4" d="M348.9,68.6c0.2,0,0.4-0.2,0.6-0.3c-0.3,0-0.6,0-1,0C348.7,68.5,348.8,68.6,348.9,68.6z"/>
	<path class="st2" d="M189.3,80.7c0.5,0,1,0,1.5,0c1-0.1,2.1,0,3.1-0.3c2.5-0.7,5.6-0.3,7.6-2.3c0.6-0.6,1.3-1.2,1.9-1.8
		c0.6-0.6,1.3-1.2,2-1.7c-0.2-0.2-0.5-0.3-0.7-0.5c-0.8,0-1.3-0.5-1.8-1.1c-5,0.5-10.1,1-15.1,1.4c-1.5,0.1-2,0.8-1.6,2.4
		c0.2,0.9,0.1,1.9,0.1,2.8c0.2,0.1,0.3,0.2,0.3,0.5c0.4,0.2,0.9,0.4,1.3,0.6C188.4,80.7,188.9,80.7,189.3,80.7z"/>
	<path class="st2" d="M230.9,73.2c0,0-0.1,0.1-0.1,0.1c0.1,0,0.2,0.1,0.3,0.1C231,73.4,230.9,73.3,230.9,73.2z"/>
	<path class="st2" d="M363.3,42.6c0,0,0.1,0.1,0.2,0.1c0,0,0,0,0,0c1.2,0.5,2.8,0.5,3.7,1.5c0.1,0.1,0.2,0.3,0.3,0.5
		c1.4,3.3,4.7,2.7,7.1,4c0.5,0.3,1.2,0.1,1.5-0.5c0.3-0.7-0.1-1.1-0.7-1.4c-1.9-1.2-3.7-2.7-5.8-3.3c-0.7-0.2-1.5-0.6-2.2-1
		C366,41.9,364.7,41.5,363.3,42.6z"/>
	<path class="st5" d="M364.7,45c-0.1-0.1-0.2-0.2-0.3-0.2c-0.6-0.5-1.1-1-1-2c0,0,0,0,0,0c0,0,0,0,0,0c-0.1,0-0.2-0.1-0.2-0.1l0,0
		c-1,0.3-2,0.6-3,0.9c0,0,0,0,0,0c0.2,2.5,3.6,1.8,4.1,4C365.9,46.9,365.9,45.9,364.7,45z"/>
	<path class="st2" d="M356.2,31.7c0-0.2-0.1-0.4-0.1-0.6c-0.1,0.1-0.2,0.1-0.2,0.2c0,0.2,0.1,0.4,0.2,0.5
		C356,31.8,356.2,31.7,356.2,31.7z"/>
	<path class="st5" d="M360.1,42.2c-0.1,0-0.1,0-0.1,0c0,0,0,0.1,0,0.1L360.1,42.2L360.1,42.2z"/>
	<path class="st6" d="M268,74.9c-0.2,0.8,0.2,1.6,1.2,1.9c1.4,0.3,1.6-0.7,1.7-1.6c0.4-2.3,0.6-4.7,1.3-6.4
		c-0.1-1.5,0.3-3.1-1.1-3.1c-1.6,0-3.1,0.7-4.7,1.1c-0.4,0.1-0.4,0.6-0.1,0.8C269,69.5,268.6,72.1,268,74.9z"/>
	<path class="st2" d="M261.1,72.2c0.6,0.9,1.1,2,1.3,3.2v0c0.5-0.1,1-0.3,1.4-0.4c0-1.6,0-3.3-0.1-4.9c-1.1-1.6-2.4-2.2-3.9-2.2
		c-0.9,0-1.8,0.2-2.8,0.5C258.6,69.5,260,70.7,261.1,72.2z"/>
	<path class="st3" d="M263.8,70.1c0,1.6,0,3.3,0.1,4.9c0.7,0.2,1.1,1.7,1.9,0.7c0.6-0.7,1.7-2.1,0.8-2.7c-0.2-0.1-0.3-0.2-0.4-0.4
		c-0.1-0.1-0.2-0.3-0.2-0.5C265.6,71,265.6,69.6,263.8,70.1z"/>
	<path class="st6" d="M274.9,70.3c-0.2,1.9,0.8,2.3,2,2.5c0.1-0.1,0.2-0.3,0.3-0.4C276.8,71.4,276.2,70.6,274.9,70.3z"/>
	<path class="st5" d="M254.8,62.3c0-0.3,0-0.7,0-1c0,0,0,0,0,0c-0.1,0.1-0.1,0.2-0.2,0.2C254.5,61.8,254.5,62,254.8,62.3z"/>
	<polygon class="st6" points="264.8,64.9 264.6,65 264.8,65.2 	"/>
	<path class="st4" d="M186.8,66c2.6,1.3,5.4,2.1,8.2,2.9c2.8,0.9,5.5,1.8,7.9,3.6v0c0.1-0.2,0.1-0.4,0.2-0.6
		c0.2-0.6,0.6-1.2,1.2-1.5h0c-1-0.3-2-0.6-3-0.9c-4.3-1.5-8.5-3.7-13.3-3.4C187.7,66,187.2,66,186.8,66z"/>
	<path class="st6" d="M358.5,69.5c0-0.3-0.1-0.7-0.2-1.1c-0.2,0.2-0.4,0.3-0.4,0.5c0,0.3-0.1,0.8,0.1,1
		C358.5,70.4,358.5,69.8,358.5,69.5z"/>
	<polygon class="st5" points="355.1,43.5 355,43.3 354.9,43.3 	"/>
	<path class="st3" d="M110.3,35.4c1.9-0.8,3.8-1.8,3.7-4.7c-1.6,1.4-4.1,1.6-4.8,4.1C109.2,34.9,110,35.5,110.3,35.4z"/>
	<path class="st3" d="M344.3,61.8c0.2-0.1,0.4-0.2,0.6-0.5c0.5-0.7,0.7-1.9,1.7-2c0,0,0,0,0.1,0c0.2,0,0.4,0,0.6,0.1
		c0.1,0.1,0.3,0.1,0.4,0.2c0.3-0.2,0.9-0.4,0.8-0.6c-0.3-2.5-2.1-4.1-4.2-4.7c-2-0.7-4.4-0.4-6.3,0.7c-0.7,0.4-1.6,1.8,0.2,2.7
		c0.4,0.2,0.7,0.4,1,0.7c0.3,0.3,0.6,0.6,0.9,0.9c0,0,0,0,0,0C341.9,59.5,343.1,60.7,344.3,61.8z"/>
	<path class="st6" d="M185.7,79.5c-1.3-1.4-3-2.3-4.8-2.8c0.1,0.7,0.4,1.2,0.7,1.6C182.5,79.5,184,79.7,185.7,79.5z"/>
	<path class="st6" d="M186.6,80.1c0.3,1.3,0.8,2.3,2.2,1c-0.3-0.1-0.6-0.3-1-0.4C187.5,80.5,187,80.3,186.6,80.1z"/>
	<path class="st4" d="M187.9,80.7c0.3,0.1,0.6,0.3,1,0.4c0.2-0.1,0.4-0.3,0.5-0.5c0,0,0,0,0,0C188.9,80.7,188.4,80.7,187.9,80.7z"/>
	<path class="st4" d="M172.2,71.9c-0.2-0.1-0.4-0.2-0.6-0.2c-0.1,0-0.2,0-0.3,0.1c-0.1,0-0.2,0.1-0.3,0.2c0,0,0,0,0,0
		c0.4,0.2,0.7,0.4,1.1,0.5C172.2,72.3,172.2,72.1,172.2,71.9z"/>
	<path class="st2" d="M245.9,50c-0.1,0-0.3,0.5-0.3,0.8c0.1,0.5,0,1.3,0.9,1.2c0.2,0,0.3-0.5,0.5-0.7C246.7,50.6,246.6,50,245.9,50z
		"/>
	<path class="st2" d="M172.2,71.9c0.3,0,0.6-0.1,0.9-0.1c0.9-2.1,2.3-1.5,3.7-0.6c0.6-0.2,1.1-0.3,1.7-0.4c0.2,0,0.4-0.1,0.6-0.1
		c0.3,0,0.6-0.1,1-0.1c0.6-0.1,1.1-0.2,1.7-0.4c0.5-0.2,1.1-0.4,1.6-0.9c-1-0.8-1.8-1.5-2.6-2.1c-0.6-1-1.8-1.7-1.5-3.1
		c-0.1-0.2-0.3-0.3-0.4-0.4c-0.5,0.2-0.8,1.5-1.4,0.2c-0.2-0.4-0.5-0.7-0.7-0.9c-0.8-0.5-1.8-0.2-2.8,0c-0.2,0.1-0.3,0.2-0.4,0.4
		c0.8,0.6,1.7,1.2,2.2,2.1c1,1.7,1,2.9-1.3,3.2c-1.2,0.2-2.3,0.3-3.2,1.3c0.1,0.5,0.3,1.1,0.4,1.7c0,0,0,0.1,0,0.1c0,0,0,0,0,0
		C171.8,71.8,172,71.8,172.2,71.9z"/>
	<path class="st4" d="M174.4,68.7c2.2-0.3,2.3-1.5,1.3-3.2c-0.6-1-1.4-1.5-2.2-2.1c-1.5,3.2-2.7-0.7-4.2-0.2c0,0.5,0,1,0.1,1.5
		c0,0.1,0,0.2,0,0.2c0.1,0.6,0.3,1.1,0.5,1.7c0,0.1,0.1,0.1,0.1,0.2c0.4,1,0.9,2.1,1.3,3.1C172.1,69,173.2,68.9,174.4,68.7z"/>
	<path class="st4" d="M163.6,61.4c1.2,0.8,1.8,2,3.7,1.3C166.2,61.5,165.1,61.3,163.6,61.4z"/>
	<path class="st2" d="M88.8,41.3c-0.2-0.3-0.4-0.5-0.7-0.8C88.1,41,88.4,41.1,88.8,41.3z"/>
	<path class="st3" d="M216,51c0.7,1.1,0.6,2.6,1.9,3.2c0.1-0.6,0.1-1.2,0.2-1.8c0,0,0,0,0,0c0.1-0.3,0.1-0.7,0-1c-0.2-1-0.7-2,0-3
		c0,0,0,0,0,0c0,0,0-0.1,0-0.1c-0.1-0.1-0.1-0.2-0.2-0.3C215.4,47.8,214.5,48.7,216,51z"/>
	<path class="st2" d="M217.9,54.2c-0.1,1.5,1.2,1.3,2.1,1.6c0.2,0.1,0.7-0.3,0.7-0.6c0.3-1-0.6-1.4-1.2-1.9c-0.5-0.4-0.9-0.7-1.4-1
		c0,0,0,0,0,0C218,53,217.9,53.6,217.9,54.2z"/>
	<path class="st3" d="M307.6,57.7c0-0.3,0-0.5-0.1-0.7c-0.1-0.1-0.2-0.3-0.3-0.4c-0.1-0.1-0.2-0.2-0.4-0.2c-0.3-0.1-0.7-0.1-1-0.1
		c0,0.8,0,1.7,0,2.5C306.7,58.9,307.5,58.7,307.6,57.7z"/>
	<path class="st3" d="M305.4,59.1c-0.2,0-0.3,0.1-0.3,0.3l0.3,0C305.4,59.3,305.4,59.1,305.4,59.1z"/>
	<polygon class="st2" points="305.7,51.9 305.7,51.8 305.6,52 	"/>
	<path class="st4" d="M271.2,55L271.2,55C271.3,55,271.3,55,271.2,55c0.1,0.1,0.1,0.2,0.2,0.2c0.1,0,0.1-0.1,0.2-0.1c0,0,0,0,0,0
		C271.5,55,271.4,55,271.2,55C271.3,55,271.3,55,271.2,55z"/>
	<path class="st2" d="M275.8,55.4c-0.2-0.1-0.3-0.3-0.5-0.4c-0.1,0.1-0.2,0.2-0.2,0.3C275.3,55.4,275.5,55.4,275.8,55.4L275.8,55.4
		c0.1,0.3,0.4,0.5,0.6,0.8c0.2,0.3,0.4,0.5,0.6,0.8c0,0,0.2-0.2,0.2-0.2c-0.3-0.2-0.5-0.4-0.8-0.7l0,0
		C276.2,55.9,276,55.6,275.8,55.4L275.8,55.4z"/>
	<path class="st4" d="M204.7,74.2c0-0.8-0.2-1.5-0.8-1.7c-0.2-0.1-0.5-0.1-0.8,0c-0.1,0.2-0.1,0.4-0.1,0.5c0,0,0,0,0,0
		C203.4,73.7,203.9,74.2,204.7,74.2z"/>
	<path class="st2" d="M285.8,77.6c0,0.7,0,1.3,0.1,2c0,0,0,0,0,0C287.3,78.8,287,78.2,285.8,77.6z"/>
	<path class="st4" d="M180.6,67.2c1.1-0.2,2.4,0.4,3.9-0.7c-2.1-1-3.7-1.7-5.4-2.5C178.9,65.5,180,66.2,180.6,67.2z"/>
	<path class="st4" d="M173.1,71.8c0.4,0.3,0.7,0.5,1.1,0.7c0.2,0.1,0.3,0.1,0.5,0.2s0.3,0.1,0.5,0.1c0,0,0,0,0,0
		c0.1,0,0.2,0,0.3-0.1c0.2-0.1,0.4-0.2,0.6-0.4c0.1-0.1,0.2-0.2,0.3-0.4c0.1-0.2,0.2-0.4,0.4-0.7c0,0,0,0,0,0
		C175.3,70.3,174,69.7,173.1,71.8z"/>
	<path class="st4" d="M184.7,69.5c-0.5,0.2-0.4,0.9-0.1,1.2c1.5,1.2,3,0.3,4.6-0.5C187.7,69.8,186.3,68.9,184.7,69.5z"/>
	<path class="st5" d="M178.7,60.7c-0.2-0.3-0.5-0.4-0.8-0.4c-0.6,0-1.3,0.3-2,0.8c1,0.8,2.1,0.9,3.3,0.8
		C179.1,61.4,178.9,61,178.7,60.7z"/>
	<path class="st4" d="M191,70.9c0.1,0.3,0.2,0.7,0.4,0.8c0.2,0.1,0.5-0.1,1-0.3c-0.4-0.4-0.6-0.6-0.9-0.7
		C191.5,70.6,191.2,70.8,191,70.9z"/>
</g>
</svg>
