<?xml version="1.0" encoding="utf-8"?>
<!-- Generator: Adobe Illustrator 19.0.1, SVG Export Plug-In . SVG Version: 6.00 Build 0)  -->
<svg version="1.1" id="Layer_1" xmlns="http://www.w3.org/2000/svg" xmlns:xlink="http://www.w3.org/1999/xlink" x="0px" y="0px"
	 viewBox="0 0 612 1066" style="enable-background:new 0 0 612 1066;" xml:space="preserve">
<style type="text/css">
	.st0{display:none;fill:url(#SVGID_1_);}
	.st1{fill:#FFFFFF;}
	.st2{opacity:0.76;fill:#FFFFFF;}
	.st3{opacity:0.2;fill:#FFFFFF;}
	.st4{opacity:0.56;fill:#FFFFFF;}
	.st5{opacity:0.39;fill:#FFFFFF;}
</style>
<linearGradient id="SVGID_1_" gradientUnits="userSpaceOnUse" x1="306" y1="1587.0577" x2="306" y2="-1.373814e-008">
	<stop  offset="0" style="stop-color:#FBB040"/>
	<stop  offset="0.1411" style="stop-color:#BE1E2D"/>
	<stop  offset="0.432" style="stop-color:#2E3192"/>
	<stop  offset="0.9086" style="stop-color:#000000"/>
	<stop  offset="1" style="stop-color:#000000"/>
</linearGradient>
<rect class="st0" width="612" height="1066"/>
<circle class="st1" cx="257.6" cy="481.1" r="1"/>
<circle class="st2" cx="574.4" cy="374.6" r="1"/>
<circle class="st2" cx="573.1" cy="521.7" r="1"/>
<circle class="st3" cx="559.1" cy="158.4" r="1"/>
<circle class="st2" cx="559.1" cy="556.7" r="1"/>
<circle class="st4" cx="559" cy="672.5" r="1"/>
<circle class="st4" cx="552.8" cy="650.1" r="1"/>
<circle class="st2" cx="543.2" cy="502.3" r="1"/>
<circle class="st2" cx="535.6" cy="397.5" r="1"/>
<circle class="st1" cx="532" cy="66.4" r="1"/>
<circle class="st2" cx="525.6" cy="442.9" r="1"/>
<circle class="st2" cx="518" cy="516.9" r="1"/>
<circle class="st2" cx="514.2" cy="536.1" r="1"/>
<circle class="st2" cx="508.6" cy="305.4" r="1"/>
<circle class="st4" cx="499.6" cy="728.2" r="1"/>
<circle class="st2" cx="495.1" cy="420.9" r="1"/>
<circle class="st4" cx="463.3" cy="670.9" r="1"/>
<circle class="st1" cx="440.8" cy="78.3" r="1"/>
<circle class="st1" cx="431" cy="442.8" r="1"/>
<circle class="st1" cx="415.4" cy="231" r="1"/>
<circle class="st1" cx="408.4" cy="97.4" r="1"/>
<circle class="st1" cx="402.9" cy="165" r="1"/>
<circle class="st1" cx="397.8" cy="6.2" r="1"/>
<circle class="st1" cx="386.7" cy="751.4" r="1"/>
<circle class="st1" cx="375.1" cy="741.8" r="1"/>
<circle class="st1" cx="360" cy="155.4" r="1"/>
<circle class="st1" cx="357.5" cy="682.4" r="1"/>
<circle class="st1" cx="349.5" cy="441.6" r="1"/>
<circle class="st1" cx="345.7" cy="478.2" r="1"/>
<circle class="st1" cx="327.5" cy="106.1" r="1"/>
<circle class="st1" cx="327" cy="660.3" r="1"/>
<circle class="st1" cx="319" cy="127.7" r="1"/>
<circle class="st1" cx="295.7" cy="138.2" r="1"/>
<circle class="st1" cx="290.3" cy="492.1" r="1"/>
<circle class="st1" cx="280.1" cy="31.8" r="1"/>
<circle class="st1" cx="266.9" cy="731.2" r="1"/>
<circle class="st1" cx="227.8" cy="775.6" r="1"/>
<circle class="st1" cx="262.9" cy="682.2" r="1"/>
<circle class="st1" cx="247.5" cy="470.3" r="1"/>
<circle class="st1" cx="243.1" cy="494.2" r="1"/>
<circle class="st1" cx="234.2" cy="437.7" r="1"/>
<circle class="st5" cx="226.9" cy="414.9" r="1"/>
<circle class="st1" cx="191.2" cy="797.3" r="1"/>
<circle class="st1" cx="211.4" cy="217.3" r="1"/>
<circle class="st1" cx="202.5" cy="94.4" r="1"/>
<circle class="st1" cx="181.4" cy="680.9" r="1"/>
<circle class="st1" cx="181" cy="13.2" r="1"/>
<circle class="st1" cx="179" cy="333.5" r="1"/>
<circle class="st1" cx="174.1" cy="562.6" r="1"/>
<circle class="st1" cx="148.1" cy="166" r="1"/>
<circle class="st1" cx="144.2" cy="315" r="1"/>
<circle class="st1" cx="143.6" cy="601.4" r="1"/>
<circle class="st1" cx="125.8" cy="593.3" r="1"/>
<circle class="st1" cx="91" cy="237.9" r="1"/>
<circle class="st1" cx="86.2" cy="470.7" r="1"/>
<circle class="st1" cx="84.1" cy="143.7" r="1"/>
<circle class="st1" cx="72.2" cy="224.3" r="1"/>
<circle class="st1" cx="69.6" cy="167" r="1"/>
<circle class="st1" cx="66.3" cy="489.2" r="1"/>
<circle class="st1" cx="58.9" cy="654" r="1"/>
<circle class="st1" cx="46.1" cy="406" r="1"/>
<circle class="st1" cx="29.5" cy="342.3" r="1"/>
<circle class="st1" cx="304.3" cy="829.7" r="1"/>
<circle class="st1" cx="323.5" cy="845.1" r="1"/>
<circle class="st1" cx="416.1" cy="765.4" r="1"/>
<circle class="st1" cx="498.1" cy="868.1" r="1"/>
<circle class="st1" cx="440.3" cy="845.7" r="1"/>
<circle class="st1" cx="404.2" cy="856.4" r="1"/>
<circle class="st1" cx="295.7" cy="761.5" r="1"/>
<circle class="st1" cx="382.4" cy="920.6" r="1"/>
<circle class="st1" cx="310" cy="864.1" r="1"/>
<circle class="st1" cx="331.6" cy="984.3" r="1"/>
<circle class="st1" cx="233.4" cy="917.9" r="1"/>
<circle class="st3" cx="272.1" cy="1043.2" r="1"/>
<circle class="st3" cx="235.5" cy="1064.9" r="1"/>
</svg>
