<?xml version="1.0" encoding="utf-8"?>
<!-- Generator: Adobe Illustrator 19.0.1, SVG Export Plug-In . SVG Version: 6.00 Build 0)  -->
<svg version="1.1" id="Layer_1" xmlns="http://www.w3.org/2000/svg" xmlns:xlink="http://www.w3.org/1999/xlink" x="0px" y="0px"
	 viewBox="694 -104 2000 1000" style="enable-background:new 694 -104 2000 1000;" xml:space="preserve">
<style type="text/css">
	.st0{fill:#FEFEFE;}
	.st1{fill:#FC050A;}
	.st2{fill:#FEF012;}
	.st3{fill:#020173;}
	.st4{fill:#E5122D;}
	.st5{fill:#F00802;}
	.st6{fill:#D4424A;}
	.st7{fill:#F8FDFE;}
	.st8{fill:#F7070C;}
	.st9{fill:#360B77;}
	.st10{fill:#FCD407;}
	.st11{fill:#D32C25;}
	.st12{fill:#E384A6;}
	.st13{fill:#1A109F;}
	.st14{fill:#1D0E91;}
	.st15{fill:#1B076E;}
	.st16{fill:#F40202;}
	.st17{fill:#EA0520;}
	.st18{fill:#A14BA7;}
	.st19{fill:#FEF4B1;}
	.st20{fill:#EF44C3;}
	.st21{fill:#FEF76D;}
	.st22{fill:#510D77;}
	.st23{fill:#0D011A;}
	.st24{fill:#FE4237;}
	.st25{fill:#FE374E;}
	.st26{fill:#FEBDA6;}
	.st27{fill:#6E1D8E;}
	.st28{fill:#FEFEE8;}
	.st29{fill:#FEEC6D;}
	.st30{fill:#FEF932;}
	.st31{fill:#FEE9D0;}
	.st32{fill:#FCE6CC;}
	.st33{fill:#FE4805;}
</style>
<g>
	<path d="M1791.4,747.9C1791.4,747.8,1791.5,747.8,1791.4,747.9c0-0.2-0.1-0.3-0.1-0.4c0,0.1,0,0.1,0,0.2c0.1,0,0.1,0,0.2,0
		C1791.4,747.8,1791.4,747.8,1791.4,747.9z"/>
	<path d="M1791.6,748.1c0.1,0.1,0.2,0.1,0.3,0.2c0-0.1,0-0.2,0-0.3C1791.8,748,1791.8,748,1791.6,748.1
		C1791.7,748.1,1791.7,748.1,1791.6,748.1z"/>
	<path d="M1751.7,728.4c-0.1-0.1-0.2-0.2-0.3-0.4c0,0,0,0,0-0.1c-0.1,0.1-0.1,0.1-0.2,0.2c0,0.1,0,0.1,0,0.2
		C1751.4,728.3,1751.6,728.4,1751.7,728.4z"/>
	<path d="M1771.8,737.9c0.3,0.4,0.6,0.8,0.9,1.2c0.1-0.2,0.1-0.4,0.2-0.6C1772.5,738.3,1772.2,738.1,1771.8,737.9z"/>
	<path d="M1737.7,731.7c0.5-0.3,1.1-0.5,1.6-0.7l-0.1-0.1C1738.5,730.5,1738,731,1737.7,731.7z"/>
	<path d="M1786.2,765.7C1786.2,765.7,1786.2,765.8,1786.2,765.7c0,0.3,0,0.6-0.1,0.8c0.3-0.1,0.5-0.2,0.7-0.4
		C1786.7,766,1786.5,765.9,1786.2,765.7C1786.3,765.7,1786.3,765.7,1786.2,765.7z"/>
	<path class="st0" d="M1786.6,781.8L1786.6,781.8C1786.6,781.7,1786.6,781.7,1786.6,781.8c-4.3-1.7-4.6-5.8-6.2-9.1
		c-0.2-0.6,1.1-0.2,1.6-0.4c-1.8-2.8-3.6-5.6-5.2-8.4c0.8-0.3,1.8-0.5,2.7-0.6c-1-2.1-2.3-3.9-4.3-5.9c2.9-0.7,4.9,0.1,6.1,1.8
		c1.7,2.3,3.9,3,6.4,3.3c0.1,0,0.2,0,0.2,0.1c0-0.1-0.1-0.1-0.1-0.2c1.4-0.1,1.5-1.7,2.5-2.2c0,0,0,0-0.1,0
		c-0.4-0.6-0.8-1.2-1.2-1.8c-7,2-7.3-2.9-7.8-7.6l-0.1-0.1c-2.1-2.1-4.6-3.5-7.1-4.8c-1.4-0.7-3-1.2-3.2-3.1c0,0-0.2-0.1-0.3-0.2
		c-0.1,0.1-0.1,0.1-0.2,0.2c-0.8,1-1.9,0.8-3,0.9c1.7,1.5,3.4,3,5.6,4.9c-3.2-0.5-5.3-1.7-7.3-3.1c-3.3-2.3-2.4,0.5-2.6,2
		c0,0-0.1,0-0.1-0.1c-3,4.6-4.5-0.3-6-1.4c-2-1.6-8.1-6.3-10.9-6.8c-0.8-0.2-1.2-0.3-1.1-1.2c0.1-0.6-0.3-1.4,0.6-1.6
		c1.2,0.1,2.4,0.2,2.7-1.4c0.1,0,0.1,0,0.2,0h-0.1c-2.3-3-6.2-2.2-9.1-4c-0.5,0.2-1,0.4-1.6,0.7c-0.2,0.3-0.3,0.6-0.5,0.8
		c-1.3,1.9-3.2,3.2-5.5,3.8c-0.1,0.1-0.1,0.1-0.2,0.2c-0.1,0.3-0.4,0.4-0.7,0.4h-0.1c-3.4,2-6.5-1.1-9.9-0.8
		c-1.9,0.2-3.8-0.5-5.8-0.8c-1,0.3-2.5-0.5-2.8,1.1c-0.2,1.3,0.4,2.1,1.9,2.3c1.1,0.2,1.6,1.5,2.4,2.2c1.7,1.6,4.1,4.4,6.1,3.3
		c3.9-2,4.4,0.1,5.4,2.8c1.1,3,2.7,5.8,3.9,8.8c0.4,1,1.5,2.7-1.1,2.7l-0.1,0.1c-0.2,1-1.3,1.9,0.9,2.6c1.9,0.6,4.1-0.3,5.6,1.5
		c3.6,3.4,5.8,8,10,10.8c1.5,1,2.1,2.9,2.3,4.8c0,0.1-0.1,0.2-0.1,0.3c0.1-0.1,0.1-0.1,0.2-0.2c3.1,4.9-0.5,8.5-2.4,12.5
		c0,1.1,0.1,2,0.1,3.1c3.5,0.5,6.9,1.7,9.8-2c0.9-1.2,4.1-1.7,5.3,0.3c2.3,4.2,5.8,2.5,8.7,1.9c4-0.9,8-0.7,12-1.6v0.1
		c2.6-0.7,4.3-3.3,7.2-3.3C1790,786.4,1789.7,783.4,1786.6,781.8z M1772.9,758.9c-0.2,0.5-0.9,0.9-1.4,1c-0.7,0.1-6-6.3-5.7-6.9
		c0.2-0.6,0.9-0.9,1.3-1.1C1769.4,751.6,1773.7,757.1,1772.9,758.9z"/>
	<path class="st1" d="M1779.2,735.6c-3.5-0.2-4.6,1.2-2.8,5.1c-1.3-0.8-2.2-1.4-3.5-2.2c-0.1,0.2-0.1,0.4-0.2,0.6
		c0.9,1.3,1.5,2.2,2.2,3c0.5,0.6,1.5,1,0.4,1.9c-0.9,0.8-1.8,0.7-2.4-0.4c-0.1-0.1-0.2-0.1-0.2-0.2c-0.6-0.2-1.2-0.4-1.9-0.6
		c0.2,1.9,1.8,2.4,3.2,3.1c2.5,1.3,5,2.7,7.1,4.8l0.1,0.1c0-0.1,0-0.2,0-0.2c1.9,1.4,3.8,2.7,5.7,4c0.4-0.4,0.8-0.8,1.3-1.2
		c1.5-1.7,3-0.9,4.1,0.2c3.1,3.3,6.1,6.8,9.1,10.2c0.6,0.7,2.1,1.4,0.8,2.8c-1.4,1.8-2.2-0.3-3.3-0.4c-0.3,0.4-0.6,0.8-0.9,1.1
		c0,0,0,0,0,0.1c0.7,1.4,1.8,2.4,3.1,3.2l0.1-0.1c0,0.1,0,0.1,0,0.2c0,0,0.1,0,0.1-0.1c2.7-1,4.5,0,5.5,2.6c0.2,0.1,0.3,0.2,0.4,0.3
		l0.1,0.1c0.9-0.5,1.3-2.9,3-0.7c1,1.3,2.3,2.4,3.6,3.7c0.2-0.1,0.4-0.2,0.6-0.3c0,0,0.1,0,0.1,0.1c-1.4-2.6,3.6-2.3,2.2-4.3
		c-3.1-4.3-6.4-9.3-11.5-10.4c-3.7-0.8-5.8-2.4-8-4.8c1.2-1.7,3.9-0.4,4.2-2.3c0.3-2.1-2-2.7-3.4-3.8c-1.3-1-3-1.5-3.7-3.2
		c-0.9-0.3-1.7-0.2-2.5,0.4c0,0.1,0,0.2,0,0.3c1.8,1.2,4,2.2,4.1,5.2c-3.9-2.4-7.8-4.8-12.2-7.5c3.5-1.6,5.1,1.4,7.4,1.7
		c0-0.1,0-0.1,0-0.2c-0.6-0.9-1.3-1.8-2-2.7c-0.1,0-0.2-0.1-0.2-0.1c-3.6-1.3-7-2.8-8.5-6.7c2.8-1.5,3.5,1.3,5.4,1.5
		c0.1-1.4,0.1-2.6,0.2-3.9C1783.9,735.6,1781.5,735.8,1779.2,735.6z"/>
	<path class="st2" d="M1760.5,726.6L1760.5,726.6c2.5,1,5,2.1,7.5,3.1c0.1,0,0.2,0,0.3,0.1c0.9-0.1,1.7-0.2,2.6-0.2
		c1.4-0.1,3.1-0.4,3.8,1.3c0.2,0.6,0.1,1.9-0.4,2.2c-1.7,1-2.4-1.1-3.8-1.4c-0.6,2.1-1.9,1.5-3.4,1c-3.3-1.1-6.2-3.4-10.3-2
		c-1.5,0.6-3.6-0.8-5.1-2.3c-0.2,0-0.4-0.1-0.5-0.1c-0.1,0.7-0.4,1.1-1.1,1.4l0.1,0.1c2.4,0.5,3.2,1.7,1.5,3.9l-0.1-0.1
		c-0.9,0.1-1.4,0.7-1.7,1.5h-0.1c2.8,1.6,6,0.5,9,1.9c2.4,1.1,1.6,2.2,1.3,3.7c0.3,0.1,0.6,0.3,0.8,0.4c2.2,0.6,4.5,0.7,6.3,2.5
		c0,0,0.1,0,0.1,0.1c1.1-0.1,2.2,0.1,3-0.9c0.1-0.1,0.1-0.1,0.2-0.2h-0.1c-1.2-0.3-1.5-1.2-1.3-2.2c0.1-0.8,0.8-1.1,1.5-0.7
		c1.5,0.8,2.7,1.8,2.4,3.8c-0.1,0-0.2-0.1-0.3-0.1c0.1,0.1,0.2,0.2,0.2,0.2c0.6,1.1,1.5,1.2,2.4,0.4c1.1-0.9,0.1-1.3-0.4-1.9
		c-0.7-0.8-1.3-1.7-2.2-3c-0.3-0.4-0.5-0.8-0.9-1.2c0.4,0.2,0.7,0.4,1.1,0.6c1.4,0.8,2.2,1.4,3.5,2.2c-1.8-3.9-0.7-5.3,2.8-5.1
		c2.3,0.2,4.7,0,7,0c0.6-0.1,1.3-0.2,1.6-0.2c0.2-0.1,0.4-0.2,0.6-0.3c0.8-0.7,0.8-1.8,0.9-2.7c-0.1-0.2-0.2-0.4-0.3-0.6l-0.2-0.2
		c0-0.1-0.1-0.1-0.1-0.2c-2.6-1.2-5,0.4-7.5,0.4c-4,0.1-5.7-2.5-6.9-5.6c-0.1-0.2-0.3-0.4-0.4-0.6h0.1c-0.1,0-0.1-0.1-0.2-0.1
		c-3.2-0.3-6.4-0.7-9.6-1C1763.6,726.3,1761.2,725,1760.5,726.6z"/>
	<path class="st3" d="M1771.1,794.2c-2.9,0.6-6.4,2.3-8.7-1.9c-1.2-2-4.4-1.5-5.3-0.3c-2.9,3.8-6.3,2.5-9.8,2h-0.1
		c-1.8,1.3-4.4-0.4-6.4,1.1c2.8,3.5,6.3,1.4,9.4,1.8c7.5,0.9,14.9,2.8,22.5,1.6c1.3-0.2,2.6,0.3,3.9,0.6c2.4,0.5,5.5,0.7,2.6,4.5
		c-0.6,0.8,0.1,1.6,0.9,1.9c1.3,0.5,1.3-0.8,1.2-1.4c-0.8-4.1,2.3-7.4,1.8-11.4v-0.1C1779.1,793.5,1775.1,793.3,1771.1,794.2z"/>
	<path class="st4" d="M1739.7,726.5C1739.7,726.5,1739.8,726.5,1739.7,726.5c1.1-1.3,2.7-0.5,4-1.1c3.5-1.6,6.7-2.1,5.4,3.7
		c0,0.1,0.6,0.3,1,0.6c0.6-0.3,1-0.7,1.1-1.4c0-0.1,0-0.1,0-0.2c0.1-0.1,0.1-0.1,0.2-0.2c-0.7-2-0.1-3.1,2.3-2.6
		c2.3,0.5,4.6,0.9,6.8,1.3c0.8-1.6,3.1-0.3,3.7-2.1c-2.5,0.3-3.7-2.3-5.1-2.5c-6.3-1.7-12.9-2.2-20.2-3.2c1.4,2.5,3.2,1.6,4.4,2.6
		c-2.9,1.2-6.9,1.1-7.4,5.4l0.1,0.1c0-0.1,0-0.1,0-0.2C1737.2,726.5,1738.5,727.6,1739.7,726.5z"/>
	<path class="st5" d="M1813.9,776.6L1813.9,776.6L1813.9,776.6c0.7,1.3,1.3,2.6,2.2,4.5c-4.6-1.3-8.2-2.6-8.8-7.5l-0.1-0.1
		c-0.1-0.1-0.2-0.2-0.4-0.3c-0.9,2.7-0.9,5.7-0.7,8.5c0,1-0.7,3.8,1.6,3.2c1.2-0.3,4.6-0.8,1.9-4.6c8.1,5,9.2,4.8,14.8-1
		c1.5-1.5,1.7-2.3,0.2-3.4c-1.4-1.1-3.8-1.4-4.3,0.2c-1.9,6.4-3.8,1.5-5.7,0.3c0,0-0.1,0-0.1-0.1
		C1814.3,776.4,1814.1,776.5,1813.9,776.6z"/>
	<path class="st6" d="M1749.4,778.6c0-0.1,0.1-0.2,0.1-0.3c-0.2-1.9-0.8-3.8-2.3-4.8c-4.2-2.8-6.4-7.4-10-10.8
		c-0.1,1.3-0.1,2.6-0.2,3.9h-0.1c0.3,0.9-0.2,2.5,1.9,1.8c1.4-0.4,3.2,0.3,2.5,1.9c-1.9,4.4,0.5,7.2,3,10.2c0.1,0,0.1,0.1,0.2,0.1
		C1746.2,780.1,1748.1,780.1,1749.4,778.6z"/>
	<path class="st7" d="M1802.3,741.5c-1.7,0.3-1.9,2.1-1.9,3.5c0,2.3,1.8,1.4,2.9,1.5c1.3,0.1,2.7,0,4,0c1.1,0,2.3,0.1,3.4-0.1
		c1.4-0.1,3.4,1,3.6-1.9c0.2-2.3-0.9-3-2.8-3.7C1808.3,739.6,1805.3,741,1802.3,741.5z"/>
	<path class="st8" d="M1801.2,770.7c0-0.1,0-0.1,0-0.2l-0.1,0.1C1801.1,770.6,1801.1,770.6,1801.2,770.7c-0.8,1.2-2.9,0.9-3,0.7
		c-0.6-5.4-6.8-3.3-8.6-6.8c-0.8,0.7-1.4,2.6-2.8,1.6c-0.2,0.2-0.5,0.3-0.7,0.4c-0.3,0.8-0.5,1.7-0.8,2.5c3.4,1.7,4.9,5.2,7.5,7.7
		c-0.8-2.5,1.8-4.4,1-7.1c1.9,1,2.5,2.7,4.2,3.2C1800.2,773.5,1800.7,773.2,1801.2,770.7z"/>
	<path class="st9" d="M1737.2,732.5c0.1-0.2,0.3-0.5,0.5-0.8c0.4-0.7,0.8-1.2,1.4-0.8l0.1,0.1c2.9,1.8,6.8,1.1,9.1,4h0.1
		c0.4,0,0.9,0.1,1.3,0.1h0.1c0.3-0.8,0.8-1.4,1.7-1.5c-4-2.3-7.4-5.4-11.9-7l0.1-0.1h-0.1c-1.2,1.1-2.5,0-3.8,0.2c0,0.1,0,0.1,0,0.2
		c0.5,3.4-0.6,6-3.3,7.9c-0.5,0.4-0.7,1.1-1.1,1.6c0.1,0,0.1,0,0.2-0.1C1734,735.7,1735.9,734.4,1737.2,732.5z"/>
	<path class="st10" d="M1749.6,778.4c-0.1,0.1-0.1,0.1-0.2,0.2c-1.3,1.5-3.2,1.5-4.9,2h-0.1c0.7,3.4-1.8,7.8,2.8,10.3
		C1749.1,786.9,1752.7,783.3,1749.6,778.4z"/>
	<path class="st4" d="M1781.2,731.8c2.5,0,5-1.5,7.5-0.4c0.1,0.1,0.3,0.1,0.4,0.2c0.2-1.4,2-2.3,1-4.1c-0.6,0.1-1.1,0-1.5,0.2
		c-4.4,2.4-4.3,2.2-8.1,0.1c-1.9-1.1-4.2-1.6-6.4-2.3c0.1,0.2,0.2,0.4,0.2,0.7C1775.5,729.3,1777.2,731.9,1781.2,731.8z"/>
	<path class="st11" d="M1787.1,776.3c-3,1.5,2,3.8-0.5,5.4v0.1c3.1,1.6,3.4,4.6,3.7,7.6c0.8-3.5,3.6-6.4,2.8-10.3
		C1790.4,779.6,1789.6,776.1,1787.1,776.3z"/>
	<path class="st12" d="M1785.3,769C1785.3,769,1785.3,769.1,1785.3,769c-1-0.3-2-0.7-3.5-1.3c0.9,1.7,1.6,2.9,2.3,4.1
		c1.2,1.3,3.7,2,3,4.5c2.5-0.2,3.3,3.3,6,2.8c-0.1-0.7-0.1-1.4-0.1-2.2c-0.1-0.1-0.1-0.1-0.2-0.2
		C1790.2,774.2,1788.7,770.7,1785.3,769z"/>
	<path class="st13" d="M1788.4,735.1c-0.1,0.1-0.1,0.1-0.2,0.2c1.5,3.6,3.9,2.4,6.1,1c1.1-0.7,4.2-0.4,1.8-3.4
		c-2.1-2.6-4.4-1.2-6.7-1.2c-0.1,0.2-0.1,0.4-0.1,0.7C1789.2,733.3,1789.2,734.4,1788.4,735.1z"/>
	<path class="st14" d="M1720.8,736.1c3.4-0.3,6.5,2.9,9.9,0.8c-1.5-0.7-3.7-0.2-4.6-2.4c-1.1-2.9-4.8-1.8-5.3-1.3
		c-1.8,1.6-4.2,0.8-5.9,2.1h0.1C1717,735.6,1718.9,736.3,1720.8,736.1z"/>
	<path class="st15" d="M1737.2,762.7c-1.5-1.8-3.7-0.9-5.6-1.5c-2.2-0.7-1.1-1.6-0.9-2.6v-0.1c-2.1,0.5-2,2.3-1.2,3.4
		c1.8,2.4,3.8,4.9,7.4,4.7h0.1C1737.1,765.3,1737.1,764,1737.2,762.7z"/>
	<path class="st16" d="M1714.1,719.9c-1.1,0.1-2.2,1-1.8,2.4c1.1,3.6,4.1,2.3,6.6,2.5C1718.7,721.5,1717.2,719.7,1714.1,719.9z"/>
	<path class="st4" d="M1764.2,724.5c3.2,0.3,6.4,0.7,9.6,1c0.1,0,0.3,0,0.4,0C1770.8,720.8,1769.8,720.7,1764.2,724.5
		C1764.1,724.5,1764.1,724.5,1764.2,724.5C1764.1,724.5,1764.1,724.5,1764.2,724.5z"/>
	<path class="st17" d="M1797.1,775.6c0,2.5-0.9,4.9,1.2,6.8c0.5,0.5,1.5,0.2,1.6-0.5C1800.2,779.5,1800.5,777,1797.1,775.6z"/>
	<path class="st18" d="M1791.3,747.5c0.1,0.1,0.2,0.2,0.2,0.3c0,0-0.1,0-0.1,0.1s0.1,0.2,0.2,0.2c0,0,0,0,0.1,0
		c0.1-0.1,0.1-0.1,0.2-0.1c0.8-0.6,1.6-0.6,2.5-0.4c0.9-1.7-1.4-0.7-1.3-1.7s2-2.1-0.5-3c-2.3-0.8-2.1,1.5-3.3,1.9
		C1789.9,745.7,1790.6,746.6,1791.3,747.5z"/>
	<path class="st19" d="M1758.5,743.8c2.4-0.1,3.2-0.9,1.6-2.9c0.3,0.1,0.5,0.2,0.8,0.2c-0.2-0.2-0.4-0.3-0.8-0.4
		c0.3-1.5,1.1-2.6-1.3-3.7c-3-1.4-6.2-0.3-9-1.9c-0.4,0-0.9-0.1-1.3-0.1c-0.1,0-0.2,0-0.2,0c-0.3,1.6-1.5,1.5-2.7,1.4
		c-0.9,0.2-0.5,1-0.6,1.6c-0.1,0.9,0.3,1,1.1,1.2c2.8,0.5,8.9,5.2,10.9,6.8c1.5,1.2,3,6.1,6,1.4
		C1761.3,746.5,1759.6,745.7,1758.5,743.8z"/>
	<path class="st20" d="M1787.9,762.6c-0.1,0-0.2-0.1-0.2-0.1c-2.5-0.3-4.7-1-6.4-3.3c-1.2-1.7-3.2-2.5-6.1-1.8c2,2,3.3,3.8,4.3,5.9
		c2.1,1.1,5.1-0.2,6.7,2.4c0,0,0,0,0.1,0c0.2,0.2,0.4,0.3,0.5,0.5c1.4,1,2-0.8,2.8-1.6C1789,764,1788.5,763.3,1787.9,762.6z"/>
	<path class="st21" d="M1798,767.4L1798,767.4C1797.9,767.4,1797.9,767.4,1798,767.4c-3.5-1.5-4.1-5.9-7.7-7.2
		c-1,0.5-1.1,2.1-2.5,2.2c0,0.1,0.1,0.1,0.1,0.2c0.6,0.7,1.1,1.4,1.7,2c1.8,3.5,8,1.4,8.6,6.8c0.1,0.2,2.2,0.5,2.9-0.8
		C1799.8,769.8,1798.7,768.8,1798,767.4z"/>
	<path class="st22" d="M1786.2,765.7c-1.6-2.6-4.7-1.3-6.7-2.4c-0.9,0.1-1.9,0.3-2.7,0.6c1.7,2.8,3.5,5.6,5.2,8.4
		c0.7-0.2,1.3-0.4,2-0.6l0.1,0.1c-0.7-1.2-1.4-2.4-2.3-4.1c1.5,0.6,2.5,1,3.5,1.4V769c0.2-0.8,0.5-1.7,0.8-2.5
		c0.1-0.2,0.2-0.5,0.2-0.7C1786.3,765.8,1786.3,765.7,1786.2,765.7z"/>
	<path class="st23" d="M1782,772.3L1782,772.3c-0.5,0.2-1.8-0.2-1.6,0.4c1.6,3.3,1.9,7.4,6.1,9c0,0,0,0,0.1,0
		c2.5-1.5-2.4-3.9,0.5-5.4c0.7-2.5-1.8-3.2-3-4.5l-0.1-0.1C1783.3,771.9,1782.7,772.1,1782,772.3z"/>
	<path class="st24" d="M1760.9,741.1c-0.3-0.1-0.5-0.1-0.8-0.2c1.6,2,0.8,2.8-1.6,2.9c1.1,1.9,2.8,2.7,4.4,3.6c0,0,0.1,0,0.1,0.1
		c0.2-1.5-0.7-4.3,2.6-2c2,1.4,4.1,2.6,7.3,3.1c-2.3-2-3.9-3.5-5.6-4.9c0,0-0.1,0-0.1-0.1C1765.4,741.8,1763.1,741.7,1760.9,741.1z"
		/>
	<path class="st25" d="M1797.9,767.4L1797.9,767.4c0.4-0.4,0.7-0.8,1-1.2c-3.6-4.3-7.1-8.5-10.7-12.8c-0.5,0.4-0.9,0.8-1.3,1.2
		c0,0,0,0,0.1,0c0.7,1.3,1.4,2.6,2.1,3.8h-0.1c0.4,0.6,0.8,1.2,1.2,1.8c0,0,0,0,0.1,0C1793.9,761.5,1794.5,765.9,1797.9,767.4z"/>
	<path class="st26" d="M1787,754.6L1787,754.6c-2-1.3-3.9-2.6-5.8-4c0,0.1,0,0.2,0,0.2c0.5,4.7,0.8,9.6,7.8,7.6h0.1
		C1788.4,757.2,1787.7,755.9,1787,754.6z"/>
	<path class="st27" d="M1767.1,751.9c-0.4,0.2-1.1,0.5-1.3,1.1c-0.3,0.6,5,7,5.7,6.9c0.5-0.1,1.2-0.5,1.4-1
		C1773.7,757.1,1769.4,751.6,1767.1,751.9z"/>
	<path class="st28" d="M1773,743.5c0.3-2-0.9-3-2.4-3.8c-0.7-0.4-1.4-0.1-1.5,0.7c-0.2,1,0.1,1.9,1.3,2.2c0,0,0,0,0.1,0
		c0.1,0.1,0.3,0.2,0.3,0.2c0.7,0.2,1.3,0.4,1.9,0.6C1772.8,743.4,1772.9,743.5,1773,743.5z"/>
	<path class="st29" d="M1798.9,766.2L1798.9,766.2c1.1,0.1,1.9,2.2,3.3,0.4c1.3-1.4-0.2-2.1-0.8-2.8c-3-3.4-6-6.9-9.1-10.2
		c-1.1-1.1-2.6-1.9-4.1-0.2C1791.8,757.7,1795.3,761.9,1798.9,766.2z"/>
	<path class="st30" d="M1816.1,781.1c-0.9-1.9-1.5-3.2-2.1-4.4l-0.1-0.1c-1.3-1.3-2.6-2.4-3.6-3.7c-1.7-2.2-2.1,0.2-3,0.7
		C1807.9,778.5,1811.5,779.8,1816.1,781.1z"/>
	<path class="st31" d="M1791.6,748.1c-0.1-0.1-0.2-0.1-0.2-0.2c0,0,0-0.1,0-0.2c-0.1,0-0.1,0-0.2,0c-2.3-0.2-3.9-3.2-7.4-1.7
		c4.4,2.7,8.3,5.1,12.2,7.5c-0.1-3-2.3-4-4.1-5.2C1791.8,748.2,1791.7,748.2,1791.6,748.1z"/>
	<path class="st32" d="M1751.7,728.4c1.4,1.5,3.6,2.9,5.1,2.3c4.1-1.4,7,0.9,10.3,2c1.5,0.5,2.8,1.1,3.4-1c-0.8-0.6-1.7-1.3-2.5-1.9
		c0.1,0,0.2,0,0.3,0c-0.1,0-0.2-0.1-0.3-0.1c-2.5-1-5-2.1-7.5-3.1c-2.2-0.4-4.5-0.8-6.8-1.3c-2.5-0.5-3,0.6-2.3,2.6c0,0,0,0,0,0.1
		C1751.5,728.1,1751.6,728.3,1751.7,728.4z"/>
	<path class="st32" d="M1750.2,729.8L1750.2,729.8c-0.5-0.4-1.1-0.6-1.1-0.7c1.3-5.8-1.9-5.3-5.4-3.7c-1.3,0.6-2.9-0.2-3.9,1.1
		l-0.1,0.1c4.4,1.6,7.8,4.7,11.9,7l0.1,0.1C1753.4,731.5,1752.6,730.3,1750.2,729.8z"/>
	<path class="st33" d="M1770.5,731.7L1770.5,731.7c1.4,0.3,2.1,2.4,3.8,1.4c0.5-0.3,0.6-1.6,0.4-2.2c-0.7-1.7-2.4-1.4-3.8-1.3
		c-0.9,0-1.7,0.1-2.6,0.2c-0.1,0-0.2,0-0.3,0C1768.8,730.4,1769.7,731.1,1770.5,731.7z"/>
</g>
</svg>
