<?xml version="1.0" encoding="utf-8"?>
<!-- Generator: Adobe Illustrator 19.0.1, SVG Export Plug-In . SVG Version: 6.00 Build 0)  -->
<svg version="1.1" xmlns="http://www.w3.org/2000/svg" xmlns:xlink="http://www.w3.org/1999/xlink" x="0px" y="0px"
	 viewBox="0 0 243.6 83.6" style="enable-background:new 0 0 243.6 83.6;" xml:space="preserve">
<style type="text/css">
	.st0{fill:#FFFFFF;}
</style>
<g id="Bennett">
	<g>
		<path class="st0" d="M61.1,56.6C61.1,56.6,61.1,56.6,61.1,56.6c-1.7,1.4-3.5,2.8-5.5,4.2c-3.6,2.5-7.3,4.9-11.3,7.2
			c-4,2.3-7.9,4.3-11.9,6.1c-4,1.8-7.6,3.2-11.1,4.2C18,79.4,15,80,12.5,80c-2.5,0.1-4.3-0.5-5.3-1.6c-1.1-1.2-1.5-2.6-1.3-4.3
			c0.3-1.7,0.8-3.4,1.5-5.1c0.8-1.7,1.6-3.3,2.6-4.7c0.9-1.5,1.6-2.6,2.1-3.4c0.4-0.7,0.2-1.2-0.5-1.5c-0.7-0.4-1.6-0.6-2.7-0.6
			c-1.1,0-2.2,0.1-3.2,0.3c-1.1,0.2-1.7,0.6-2,1.1C1.3,64.6,0.1,68.3,0,71.4c-0.1,3.1,0.7,5.7,2.5,7.6c1.7,2,4.2,3.3,7.5,4
			c3.3,0.7,7.2,0.8,11.6,0.3c4.4-0.5,9.2-1.7,14.6-3.4c5.3-1.8,10.8-4.2,16.6-7.2c1.5-0.7,3.2-1.8,5.2-3.1c1.2-0.8,2.5-1.7,3.7-2.7
			C61.7,63.5,61.2,60,61.1,56.6z"/>
		<path class="st0" d="M96.2,4.7c-2.8-2.5-6.6-4-11.3-4.5C80.3-0.2,75.1,0,69.4,0.8c-5.7,0.9-11.6,2.3-17.8,4.2
			c-6.1,2-12.1,4.2-17.8,6.8c-5.7,2.6-10.9,5.3-15.7,8.2c-4.8,2.9-8.6,5.6-11.4,8.2c-2.1,1.9-3.4,3.8-3.8,5.8
			c-0.4,2-0.4,3.7-0.1,5.1c0.4,1.5,0.9,2.5,1.6,3.2c0.7,0.7,1.2,0.7,1.5,0.2c0.9-2,2.7-4.2,5.4-6.5c2.8-2.3,6.1-4.7,10-7.1
			c3.9-2.4,8.2-4.8,12.9-7.2c4.7-2.4,9.5-4.6,14.4-6.6c4.9-2.1,9.7-3.9,14.5-5.5c4.8-1.6,9.1-2.9,13.1-3.8c4-0.9,7.3-1.4,10.1-1.5
			c2.8-0.1,4.6,0.4,5.7,1.4c0.9,0.9,0.4,2.3-1.3,4.1c-1.7,1.8-4.3,3.8-7.5,5.9c-3.3,2.1-7,4.3-11.1,6.6c-4.1,2.3-8.2,4.3-12.1,6.2
			c-3.9,1.9-7.4,3.5-10.5,4.8c-3.1,1.3-5.1,2.1-6.2,2.3c0.4-1,0.8-2.1,1.3-3.2c0.5-1.1,0.5-2.1,0-2.9c-0.2-0.3-0.6-0.6-1.2-0.8
			c-0.6-0.3-1.2-0.5-2-0.6c-0.7-0.1-1.4-0.2-2-0.2c-0.6,0-1.1,0.1-1.4,0.3c-0.4,0.3-0.8,0.9-1.3,1.7c-0.5,0.8-1,1.9-1.6,3.1
			c-0.6,1.2-1.3,2.5-2,3.9c-0.7,1.4-1.5,2.8-2.3,4.1c-0.2,0.1-0.7,0.4-1.6,0.9c-0.8,0.4-1.8,0.9-2.8,1.5c-1,0.5-2,1.1-2.8,1.6
			s-1.4,1-1.6,1.4c-0.8,1.3-1.1,2.3-0.9,2.9c0.2,0.6,0.7,1,1.4,1.2c0.7,0.2,1.5,0.2,2.5,0.1c0.9-0.1,1.7-0.4,2.2-0.7
			c-0.2,0.7-0.4,1.4-0.7,2.2c-0.2,0.8-0.4,1.7-0.5,2.5c-0.1,0.8-0.2,1.5-0.2,2.2c0,0.7,0.1,1.2,0.3,1.6c0.1,0.1,0.3,0.4,0.7,0.7
			c0.4,0.3,0.8,0.6,1.2,0.9c0.4,0.3,0.9,0.4,1.3,0.5c0.4,0.1,0.7-0.1,0.8-0.4c1.2-2.3,2.4-4.8,3.6-7.4c1.2-2.6,2.6-5,4-7.1
			c0.7-0.2,2-0.7,3.8-1.5c1.8-0.8,3.9-1.7,6.3-2.6c2.4-0.9,4.8-1.8,7.4-2.7c2.5-0.9,5-1.5,7.2-1.9c2.3-0.4,4.3-0.3,5.9,0.1
			c1.7,0.4,2.8,1.4,3.3,3c0.6,1.7,0.2,3.8-1.1,6.1c-0.2,0.3-0.4,0.7-0.6,1c2.3,0,4.6-0.1,7-0.3c0-0.1,0-0.1,0.1-0.2
			c0.4-2.2,0.2-4.4-0.7-6.5c-0.8-1.7-2.1-3.3-3.9-4.5c-1.8-1.3-3.9-2.1-6.1-2.3c1.2-0.7,3.1-1.6,5.5-2.8c2.4-1.2,5-2.7,7.8-4.3
			c2.8-1.6,5.5-3.3,8.2-5.1c2.7-1.8,4.9-3.7,6.8-5.6c1.8-1.9,2.9-3.7,3.4-5.6C98.6,8.1,98,6.3,96.2,4.7z"/>
		<path class="st0" d="M101.8,32.4c0.9-0.7,1.4-0.9,1.5-0.7c0.1,0.2-0.1,0.7-0.5,1.4c-0.4,0.7-1.1,1.6-1.9,2.6
			c-0.8,1-1.7,1.9-2.7,2.8c-1,0.9-2,1.7-3.1,2.3c-1.1,0.7-2.1,1.1-3,1.2c-0.6,0.1-1.5-0.1-2.5-0.5c-1-0.4-2-1-3-1.8
			c-0.9-0.8-1.7-1.7-2.4-2.7s-0.9-2.1-0.7-3.1c0.1-0.9,0.5-1.7,1.1-2.5c0.6-0.8,1.2-1.5,2-2.1c0.7-0.6,1.5-1.1,2.2-1.5
			c0.8-0.4,1.4-0.5,1.9-0.5c0.4,0,0.9,0.1,1.5,0.4c0.6,0.2,1.1,0.6,1.5,0.9c0.5,0.4,0.8,0.8,1.1,1.4c0.3,0.5,0.4,1,0.3,1.6
			c-0.1,0.5-0.5,1.2-1.1,1.9c-0.6,0.7-1.3,1.4-2.1,2.1c-0.9,0.8-1.9,1.6-3.1,2.4c1.1,0.3,2.8,0,5.1-1
			C96.7,35.9,99.2,34.4,101.8,32.4z M93.2,31c-0.2-0.1-0.6,0-1.4,0.3c-0.7,0.4-1.4,0.8-2.1,1.4c-0.7,0.6-1.3,1.2-1.7,1.9
			c-0.5,0.7-0.6,1.3-0.3,1.8c0.3-0.1,0.8-0.5,1.4-1c0.7-0.5,1.3-1.1,2-1.8c0.7-0.6,1.2-1.2,1.6-1.7C93.2,31.5,93.3,31.1,93.2,31z"/>
		<path class="st0" d="M103.6,29.1c0.3-0.3,0.6-0.4,1.1-0.3c0.4,0.1,0.8,0.2,1.2,0.5c0.4,0.3,0.7,0.6,1,1c0.3,0.4,0.5,0.8,0.5,1.1
			c0.1,0.3,0.1,0.8,0,1.3c-0.1,0.5-0.3,1-0.5,1.5s-0.4,1-0.6,1.4c-0.2,0.4-0.3,0.7-0.4,0.9c0.2-0.1,0.8-0.6,1.7-1.5
			c0.9-0.9,1.8-1.8,2.8-2.7c1-1,1.9-1.8,2.7-2.6c0.9-0.8,1.4-1.2,1.6-1.3c0.2-0.1,0.5-0.1,1,0c0.5,0.1,1,0.2,1.5,0.4
			c0.5,0.2,0.9,0.5,1.3,0.8c0.4,0.3,0.6,0.7,0.7,1.1c0.1,0.4-0.1,1-0.5,1.9c-0.5,0.9-1,1.8-1.5,2.7c-0.5,0.9-1,1.8-1.4,2.6
			c-0.4,0.8-0.5,1.2-0.3,1.4c0.2,0.1,0.8,0,1.6-0.6c0.8-0.5,1.7-1.2,2.7-2c1-0.8,1.9-1.6,2.8-2.4c0.9-0.8,1.5-1.4,1.9-1.7
			c0.4-0.3,0.7-0.5,1-0.5c0.3,0,0.5,0.1,0.6,0.3c0.1,0.2,0.2,0.4,0.2,0.7c0,0.3-0.1,0.6-0.3,0.9c-0.2,0.3-0.8,0.9-1.5,1.8
			c-0.8,0.9-1.6,1.8-2.6,2.7c-0.9,0.9-1.9,1.8-2.7,2.6c-0.9,0.8-1.6,1.2-2,1.4c-0.7,0.3-1.5,0.4-2.4,0.3s-1.8-0.3-2.6-0.7
			c-0.8-0.3-1.5-0.7-2.1-1.2c-0.6-0.5-0.9-1-0.9-1.6c0-0.2,0-0.6,0.3-1.2c0.2-0.6,0.5-1.2,0.8-1.8c0.3-0.6,0.6-1.1,0.8-1.6
			c0.3-0.5,0.4-0.8,0.4-0.8c-1.4,1.5-2.6,2.7-3.5,3.6c-0.9,0.9-1.8,1.7-2.7,2.4c-0.9,0.7-1.5,1.1-1.9,1.1c-0.6,0-1.3-0.2-2-0.6
			c-0.7-0.4-1.1-1-1.2-1.9c0-0.3,0-0.9,0.2-1.8c0.2-0.9,0.4-1.8,0.7-2.7s0.7-1.9,1.2-2.8C102.4,30.3,103,29.6,103.6,29.1z"/>
		<path class="st0" d="M126.7,29.1c0.3-0.3,0.6-0.4,1.1-0.3c0.4,0.1,0.8,0.2,1.2,0.5c0.4,0.3,0.7,0.6,1,1c0.3,0.4,0.5,0.8,0.5,1.1
			c0.1,0.3,0.1,0.8,0,1.3c-0.1,0.5-0.3,1-0.5,1.5s-0.4,1-0.6,1.4c-0.2,0.4-0.3,0.7-0.4,0.9c0.2-0.1,0.8-0.6,1.7-1.5
			c0.9-0.9,1.8-1.8,2.8-2.7c1-1,1.9-1.8,2.7-2.6c0.9-0.8,1.4-1.2,1.6-1.3c0.2-0.1,0.5-0.1,1,0c0.5,0.1,1,0.2,1.5,0.4
			c0.5,0.2,0.9,0.5,1.3,0.8c0.4,0.3,0.6,0.7,0.7,1.1c0.1,0.4-0.1,1-0.5,1.9c-0.5,0.9-1,1.8-1.5,2.7c-0.5,0.9-1,1.8-1.4,2.6
			c-0.4,0.8-0.5,1.2-0.3,1.4c0.2,0.1,0.8,0,1.6-0.6c0.8-0.5,1.7-1.2,2.7-2c1-0.8,1.9-1.6,2.8-2.4s1.5-1.4,1.9-1.7
			c0.4-0.3,0.7-0.5,1-0.5c0.3,0,0.5,0.1,0.6,0.3c0.1,0.2,0.2,0.4,0.2,0.7c0,0.3-0.1,0.6-0.3,0.9c-0.2,0.3-0.8,0.9-1.5,1.8
			c-0.8,0.9-1.6,1.8-2.6,2.7c-0.9,0.9-1.9,1.8-2.7,2.6c-0.9,0.8-1.6,1.2-2,1.4c-0.7,0.3-1.5,0.4-2.4,0.3s-1.8-0.3-2.6-0.7
			c-0.8-0.3-1.5-0.7-2.1-1.2c-0.6-0.5-0.9-1-0.9-1.6c0-0.2,0-0.6,0.3-1.2c0.2-0.6,0.5-1.2,0.8-1.8c0.3-0.6,0.6-1.1,0.8-1.6
			c0.3-0.5,0.4-0.8,0.4-0.8c-1.4,1.5-2.6,2.7-3.5,3.6c-0.9,0.9-1.8,1.7-2.7,2.4c-0.9,0.7-1.5,1.1-1.9,1.1c-0.6,0-1.3-0.2-2-0.6
			c-0.7-0.4-1.1-1-1.2-1.9c0-0.3,0-0.9,0.2-1.8c0.2-0.9,0.4-1.8,0.7-2.7s0.7-1.9,1.2-2.8C125.6,30.3,126.1,29.6,126.7,29.1z"/>
		<path class="st0" d="M165.7,32.4c0.9-0.7,1.4-0.9,1.5-0.7c0.1,0.2-0.1,0.7-0.5,1.4c-0.4,0.7-1.1,1.6-1.9,2.6
			c-0.8,1-1.7,1.9-2.7,2.8c-1,0.9-2,1.7-3.1,2.3c-1.1,0.7-2.1,1.1-3,1.2c-0.6,0.1-1.5-0.1-2.5-0.5c-1-0.4-2-1-3-1.8
			c-0.9-0.8-1.7-1.7-2.4-2.7s-0.9-2.1-0.7-3.1c0.1-0.9,0.5-1.7,1.1-2.5c0.6-0.8,1.2-1.5,2-2.1c0.7-0.6,1.5-1.1,2.2-1.5
			c0.8-0.4,1.4-0.5,1.9-0.5c0.4,0,0.9,0.1,1.5,0.4c0.6,0.2,1.1,0.6,1.5,0.9c0.5,0.4,0.8,0.8,1.1,1.4s0.4,1,0.3,1.6
			c-0.1,0.5-0.5,1.2-1.1,1.9c-0.6,0.7-1.3,1.4-2.1,2.1c-0.9,0.8-1.9,1.6-3.1,2.4c1.1,0.3,2.8,0,5.1-1
			C160.5,35.9,163,34.4,165.7,32.4z M157,31c-0.2-0.1-0.6,0-1.4,0.3s-1.4,0.8-2.1,1.4c-0.7,0.6-1.3,1.2-1.7,1.9
			c-0.5,0.7-0.6,1.3-0.3,1.8c0.3-0.1,0.8-0.5,1.4-1c0.7-0.5,1.3-1.1,2-1.8c0.7-0.6,1.2-1.2,1.6-1.7C157,31.5,157.2,31.1,157,31z"/>
		<path class="st0" d="M188.4,25.2c-1.7,0-3.4,0.1-5.1,0.1c-1.7,0-3.3,0.1-4.9,0.2c-0.5,0.4-1.2,1-2,1.8c-0.8,0.8-1.7,1.6-2.6,2.6
			c-0.9,0.9-1.7,1.9-2.6,2.9c-0.9,1-1.6,2-2.2,2.8c-0.6,0.9-1,1.6-1.2,2.3c-0.2,0.7-0.2,1.1,0.2,1.3c0.3,0.2,1,0,2-0.7
			c1.1-0.6,2.2-1.4,3.5-2.3c1.2-0.9,2.4-1.7,3.6-2.6c1.1-0.9,1.9-1.4,2.4-1.6c0.9-0.6,1.5-0.7,1.9-0.4c0.4,0.3,0.4,0.8-0.1,1.4
			c-0.2,0.3-0.8,0.9-1.8,1.9c-0.9,0.9-2,1.9-3.2,2.9c-1.2,1-2.5,1.9-3.9,2.7c-1.3,0.8-2.5,1.2-3.5,1.2c-2,0-3.3-0.5-3.9-1.6
			c-0.6-1.1-0.8-2.5-0.5-4.1c0.2-1.6,0.8-3.4,1.8-5.3c0.9-1.9,2-3.6,3.1-5.1c-2.3-0.5-3.2-1-2.6-1.6c0.2-0.2,1.8-0.4,4.6-0.5
			c0.8-0.7,1.5-1.2,2.2-1.7c0.7-0.4,1.3-0.7,2-0.7c0.6,0,1.2,0.2,1.9,0.7c0.7,0.5,1.2,1,1.6,1.6c1.4,0,2.9,0,4.5,0
			c1.6,0,3.2,0,4.8-0.1L188.4,25.2z M184.9,23.6c0.8-0.7,1.5-1.2,2.2-1.7c0.7-0.4,1.3-0.7,2-0.7c0.6,0,1.2,0.2,1.9,0.7
			c0.7,0.5,1.2,1,1.6,1.6c2.5,0,5.1,0,8-0.1c2.8,0,5.7-0.1,8.6-0.2c3.7-0.1,7.1-0.2,10.1-0.4c3.1-0.2,5.8-0.4,8.1-0.6
			c2.3-0.2,4.2-0.4,5.6-0.5c1.4-0.1,2.4-0.2,2.8-0.2c0.8,0,1.7,0.1,2.7,0.4c1,0.3,1.9,0.6,2.7,0.9c0.8,0.4,1.5,0.8,1.9,1.2
			c0.5,0.4,0.5,0.8,0.3,1.1c-0.1,0.2-1,0.3-2.5,0.3c-1.5,0-3.5,0-5.9,0c-2.5,0-5.3-0.1-8.6-0.1c-3.3,0-6.8-0.1-10.6-0.1
			c-3.8,0-7.7,0-11.8,0c-4.1,0-8.1,0.1-12.2,0.3c-0.5,0.4-1.2,1-2,1.8c-0.8,0.8-1.7,1.6-2.6,2.6c-0.9,0.9-1.7,1.9-2.6,2.9
			c-0.9,1-1.6,2-2.2,2.8c-0.6,0.9-1,1.6-1.2,2.3c-0.2,0.7-0.2,1.1,0.2,1.3c0.3,0.2,1,0,2-0.7c1.1-0.6,2.2-1.4,3.5-2.3
			c1.2-0.9,2.4-1.7,3.6-2.6c1.1-0.9,1.9-1.4,2.4-1.6c0.9-0.6,1.5-0.7,1.9-0.4c0.4,0.3,0.4,0.8-0.1,1.4c-0.2,0.3-0.8,0.9-1.8,1.9
			c-0.9,0.9-2,1.9-3.2,2.9c-1.2,1-2.5,1.9-3.9,2.7c-1.3,0.8-2.5,1.2-3.5,1.2c-2,0-3.3-0.5-3.9-1.6c-0.6-1.1-0.8-2.5-0.5-4.1
			c0.2-1.6,0.8-3.4,1.8-5.3c0.9-1.9,2-3.6,3.1-5.1L184.9,23.6z"/>
	</g>
</g>
<g id="Layer_2_xA0_Image_1_">
</g>
<g id="Plays">
	<g>
		<path class="st0" d="M59.4,49.5v-3.4h3.4v3.4H59.4z M59.4,52.8v-3.3h3.4v3.3H59.4z M59.4,56.2v-3.4h3.4v3.4H59.4z M59.4,59.6v-3.4
			h3.4v3.4H59.4z M59.4,63v-3.4h3.4V63H59.4z M59.4,66.4V63h3.4v3.4H59.4z M59.4,69.7v-3.4h3.4v3.4H59.4z M59.4,73.1v-3.4h3.4v3.4
			H59.4z M59.4,76.4v-3.3h3.4v3.3H59.4z M62.8,49.5v-3.4h3.4v3.4H62.8z M62.8,76.4v-3.3h3.4v3.3H62.8z M66.2,76.4v3.3h-3.4v-3.3
			H66.2z M66.2,49.5v-3.4h3.4v3.4H66.2z M66.2,76.4v-3.3h3.4v3.3H66.2z M69.6,76.4v3.3h-3.4v-3.3H69.6z M69.6,49.5v-3.4h3.3v3.4
			H69.6z M69.6,56.2v-3.4h3.3v3.4H69.6z M69.6,59.6v-3.4h3.3v3.4H69.6z M69.6,63v-3.4h3.3V63H69.6z M69.6,69.7v-3.4h3.3v3.4H69.6z
			 M69.6,73.1v-3.4h3.3v3.4H69.6z M69.6,76.4v-3.3h3.3v3.3H69.6z M72.9,76.4v3.3h-3.3v-3.3H72.9z M72.9,49.5v-3.4h3.4v3.4H72.9z
			 M72.9,56.2v-3.4h3.4v3.4H72.9z M72.9,59.6v-3.4h3.4v3.4H72.9z M72.9,63v-3.4h3.4V63H72.9z M72.9,69.7v-3.4h3.4v3.4H72.9z
			 M72.9,73.1v-3.4h3.4v3.4H72.9z M72.9,76.4v-3.3h3.4v3.3H72.9z M76.3,76.4v3.3h-3.4v-3.3H76.3z M76.3,49.5v-3.4h3.4v3.4H76.3z
			 M76.3,56.2v-3.4h3.4v3.4H76.3z M76.3,59.6v-3.4h3.4v3.4H76.3z M76.3,63v-3.4h3.4V63H76.3z M76.3,69.7v-3.4h3.4v3.4H76.3z
			 M76.3,73.1v-3.4h3.4v3.4H76.3z M79.7,49.5v-3.4H83v3.4H79.7z M79.7,69.7v-3.4H83v3.4H79.7z M79.7,73.1v-3.4H83v3.4H79.7z
			 M83,49.5v-3.4h3.4v3.4H83z M83,52.8v-3.3h3.4v3.3H83z M83,66.4V63h3.4v3.4H83z M83,69.7v-3.4h3.4v3.4H83z M83,73.1v-3.4h3.4v3.4
			H83z M86.4,52.8v-3.3h3.4v3.3H86.4z M86.4,56.2v-3.4h3.4v3.4H86.4z M86.4,59.6v-3.4h3.4v3.4H86.4z M86.4,63v-3.4h3.4V63H86.4z
			 M86.4,66.4V63h3.4v3.4H86.4z M86.4,69.7v-3.4h3.4v3.4H86.4z M86.4,73.1v-3.4h3.4v3.4H86.4z M89.8,56.2v-3.4h3.3v3.4H89.8z
			 M89.8,59.6v-3.4h3.3v3.4H89.8z M89.8,63v-3.4h3.3V63H89.8z M89.8,66.4V63h3.3v3.4H89.8z M89.8,69.7v-3.4h3.3v3.4H89.8z"/>
		<path class="st0" d="M89.8,49.5v-3.4h3.4v3.4H89.8z M89.8,52.8v-3.3h3.4v3.3H89.8z M89.8,56.2v-3.4h3.4v3.4H89.8z M89.8,59.6v-3.4
			h3.4v3.4H89.8z M89.8,63v-3.4h3.4V63H89.8z M89.8,66.4V63h3.4v3.4H89.8z M89.8,69.7v-3.4h3.4v3.4H89.8z M89.8,73.1v-3.4h3.4v3.4
			H89.8z M89.8,76.4v-3.3h3.4v3.3H89.8z M93.2,49.5v-3.4h3.4v3.4H93.2z M93.2,76.4v-3.3h3.4v3.3H93.2z M96.5,76.4v3.3h-3.4v-3.3
			H96.5z M96.5,49.5v-3.4h3.4v3.4H96.5z M96.5,76.4v-3.3h3.4v3.3H96.5z M99.9,76.4v3.3h-3.4v-3.3H99.9z M99.9,49.5v-3.4h3.3v3.4
			H99.9z M99.9,52.8v-3.3h3.3v3.3H99.9z M99.9,56.2v-3.4h3.3v3.4H99.9z M99.9,59.6v-3.4h3.3v3.4H99.9z M99.9,63v-3.4h3.3V63H99.9z
			 M99.9,66.4V63h3.3v3.4H99.9z M99.9,69.7v-3.4h3.3v3.4H99.9z M99.9,76.4v-3.3h3.3v3.3H99.9z M103.2,76.4v3.3h-3.3v-3.3H103.2z
			 M103.2,52.8v-3.3h3.4v3.3H103.2z M103.2,56.2v-3.4h3.4v3.4H103.2z M103.2,59.6v-3.4h3.4v3.4H103.2z M103.2,63v-3.4h3.4V63H103.2z
			 M103.2,66.4V63h3.4v3.4H103.2z M103.2,69.7v-3.4h3.4v3.4H103.2z M103.2,76.4v-3.3h3.4v3.3H103.2z M106.6,76.4v3.3h-3.4v-3.3
			H106.6z M106.6,69.7v-3.4h3.4v3.4H106.6z M106.6,76.4v-3.3h3.4v3.3H106.6z M110,76.4v3.3h-3.4v-3.3H110z M110,69.7v-3.4h3.4v3.4
			H110z M110,76.4v-3.3h3.4v3.3H110z M113.4,76.4v3.3H110v-3.3H113.4z M113.4,69.7v-3.4h3.4v3.4H113.4z M113.4,73.1v-3.4h3.4v3.4
			H113.4z M113.4,76.4v-3.3h3.4v3.3H113.4z M116.8,76.4v3.3h-3.4v-3.3H116.8z M116.8,73.1v-3.4h3.4v3.4H116.8z M116.8,76.4v-3.3h3.4
			v3.3H116.8z M120.2,76.4v3.3h-3.4v-3.3H120.2z"/>
		<path class="st0" d="M116.8,52.8v-3.3h3.4v3.3H116.8z M116.8,56.2v-3.4h3.4v3.4H116.8z M116.8,59.6v-3.4h3.4v3.4H116.8z M116.8,63
			v-3.4h3.4V63H116.8z M116.8,66.4V63h3.4v3.4H116.8z M116.8,69.7v-3.4h3.4v3.4H116.8z M116.8,73.1v-3.4h3.4v3.4H116.8z M116.8,76.4
			v-3.3h3.4v3.3H116.8z M120.2,49.5v-3.4h3.4v3.4H120.2z M120.2,52.8v-3.3h3.4v3.3H120.2z M120.2,76.4v-3.3h3.4v3.3H120.2z
			 M123.5,76.4v3.3h-3.4v-3.3H123.5z M123.5,49.5v-3.4h3.4v3.4H123.5z M123.5,76.4v-3.3h3.4v3.3H123.5z M126.9,76.4v3.3h-3.4v-3.3
			H126.9z M126.9,49.5v-3.4h3.3v3.4H126.9z M126.9,56.2v-3.4h3.3v3.4H126.9z M126.9,59.6v-3.4h3.3v3.4H126.9z M126.9,63v-3.4h3.3V63
			H126.9z M126.9,69.7v-3.4h3.3v3.4H126.9z M126.9,73.1v-3.4h3.3v3.4H126.9z M126.9,76.4v-3.3h3.3v3.3H126.9z M130.2,76.4v3.3h-3.3
			v-3.3H130.2z M130.2,49.5v-3.4h3.4v3.4H130.2z M130.2,56.2v-3.4h3.4v3.4H130.2z M130.2,59.6v-3.4h3.4v3.4H130.2z M130.2,63v-3.4
			h3.4V63H130.2z M130.2,69.7v-3.4h3.4v3.4H130.2z M130.2,73.1v-3.4h3.4v3.4H130.2z M130.2,76.4v-3.3h3.4v3.3H130.2z M133.6,76.4
			v3.3h-3.4v-3.3H133.6z M133.6,49.5v-3.4h3.4v3.4H133.6z M133.6,56.2v-3.4h3.4v3.4H133.6z M133.6,59.6v-3.4h3.4v3.4H133.6z
			 M133.6,63v-3.4h3.4V63H133.6z M133.6,69.7v-3.4h3.4v3.4H133.6z M133.6,73.1v-3.4h3.4v3.4H133.6z M133.6,76.4v-3.3h3.4v3.3H133.6z
			 M137,49.5v-3.4h3.4v3.4H137z M137,76.4v-3.3h3.4v3.3H137z M140.4,76.4v3.3H137v-3.3H140.4z M140.4,49.5v-3.4h3.4v3.4H140.4z
			 M140.4,52.8v-3.3h3.4v3.3H140.4z M140.4,76.4v-3.3h3.4v3.3H140.4z M143.8,76.4v3.3h-3.4v-3.3H143.8z M143.8,52.8v-3.3h3.4v3.3
			H143.8z M143.8,56.2v-3.4h3.4v3.4H143.8z M143.8,59.6v-3.4h3.4v3.4H143.8z M143.8,63v-3.4h3.4V63H143.8z M143.8,66.4V63h3.4v3.4
			H143.8z M143.8,69.7v-3.4h3.4v3.4H143.8z M143.8,73.1v-3.4h3.4v3.4H143.8z M143.8,76.4v-3.3h3.4v3.3H143.8z M147.2,76.4v3.3h-3.4
			v-3.3H147.2z M147.2,56.2v-3.4h3.3v3.4H147.2z M147.2,59.6v-3.4h3.3v3.4H147.2z M147.2,63v-3.4h3.3V63H147.2z M147.2,66.4V63h3.3
			v3.4H147.2z M147.2,69.7v-3.4h3.3v3.4H147.2z M147.2,73.1v-3.4h3.3v3.4H147.2z M147.2,76.4v-3.3h3.3v3.3H147.2z M150.5,76.4v3.3
			h-3.3v-3.3H150.5z"/>
		<path class="st0" d="M147.2,49.5v-3.4h3.4v3.4H147.2z M147.2,52.8v-3.3h3.4v3.3H147.2z M147.2,56.2v-3.4h3.4v3.4H147.2z
			 M147.2,59.6v-3.4h3.4v3.4H147.2z M147.2,63v-3.4h3.4V63H147.2z M150.5,49.5v-3.4h3.4v3.4H150.5z M150.5,63v-3.4h3.4V63H150.5z
			 M150.5,66.4V63h3.4v3.4H150.5z M153.9,49.5v-3.4h3.4v3.4H153.9z M153.9,66.4V63h3.4v3.4H153.9z M153.9,69.7v-3.4h3.4v3.4H153.9z
			 M153.9,73.1v-3.4h3.4v3.4H153.9z M153.9,76.4v-3.3h3.4v3.3H153.9z M157.3,49.5v-3.4h3.3v3.4H157.3z M157.3,52.8v-3.3h3.3v3.3
			H157.3z M157.3,56.2v-3.4h3.3v3.4H157.3z M157.3,59.6v-3.4h3.3v3.4H157.3z M157.3,76.4v-3.3h3.3v3.3H157.3z M160.6,76.4v3.3h-3.3
			v-3.3H160.6z M160.6,49.5v-3.4h3.4v3.4H160.6z M160.6,52.8v-3.3h3.4v3.3H160.6z M160.6,56.2v-3.4h3.4v3.4H160.6z M160.6,59.6v-3.4
			h3.4v3.4H160.6z M160.6,76.4v-3.3h3.4v3.3H160.6z M164,76.4v3.3h-3.4v-3.3H164z M164,49.5v-3.4h3.4v3.4H164z M164,66.4V63h3.4v3.4
			H164z M164,69.7v-3.4h3.4v3.4H164z M164,73.1v-3.4h3.4v3.4H164z M164,76.4v-3.3h3.4v3.3H164z M167.4,76.4v3.3H164v-3.3H167.4z
			 M167.4,49.5v-3.4h3.4v3.4H167.4z M167.4,63v-3.4h3.4V63H167.4z M167.4,66.4V63h3.4v3.4H167.4z M167.4,69.7v-3.4h3.4v3.4H167.4z
			 M167.4,73.1v-3.4h3.4v3.4H167.4z M167.4,76.4v-3.3h3.4v3.3H167.4z M170.8,76.4v3.3h-3.4v-3.3H170.8z M170.8,49.5v-3.4h3.4v3.4
			H170.8z M170.8,52.8v-3.3h3.4v3.3H170.8z M170.8,56.2v-3.4h3.4v3.4H170.8z M170.8,59.6v-3.4h3.4v3.4H170.8z M170.8,63v-3.4h3.4V63
			H170.8z M170.8,66.4V63h3.4v3.4H170.8z M170.8,69.7v-3.4h3.4v3.4H170.8z M174.2,52.8v-3.3h3.4v3.3H174.2z M174.2,56.2v-3.4h3.4
			v3.4H174.2z M174.2,59.6v-3.4h3.4v3.4H174.2z M174.2,63v-3.4h3.4V63H174.2z M174.2,66.4V63h3.4v3.4H174.2z"/>
		<path class="st0" d="M174.2,52.8v-3.3h3.4v3.3H174.2z M174.2,56.2v-3.4h3.4v3.4H174.2z M174.2,59.6v-3.4h3.4v3.4H174.2z M174.2,63
			v-3.4h3.4V63H174.2z M174.2,66.4V63h3.4v3.4H174.2z M174.2,69.7v-3.4h3.4v3.4H174.2z M174.2,73.1v-3.4h3.4v3.4H174.2z M177.5,49.5
			v-3.4h3.4v3.4H177.5z M177.5,52.8v-3.3h3.4v3.3H177.5z M177.5,63v-3.4h3.4V63H177.5z M177.5,66.4V63h3.4v3.4H177.5z M177.5,73.1
			v-3.4h3.4v3.4H177.5z M177.5,76.4v-3.3h3.4v3.3H177.5z M180.9,49.5v-3.4h3.4v3.4H180.9z M180.9,66.4V63h3.4v3.4H180.9z
			 M180.9,76.4v-3.3h3.4v3.3H180.9z M184.3,76.4v3.3h-3.4v-3.3H184.3z M184.3,49.5v-3.4h3.3v3.4H184.3z M184.3,56.2v-3.4h3.3v3.4
			H184.3z M184.3,59.6v-3.4h3.3v3.4H184.3z M184.3,66.4V63h3.3v3.4H184.3z M184.3,69.7v-3.4h3.3v3.4H184.3z M184.3,76.4v-3.3h3.3
			v3.3H184.3z M187.6,76.4v3.3h-3.3v-3.3H187.6z M187.6,49.5v-3.4h3.4v3.4H187.6z M187.6,56.2v-3.4h3.4v3.4H187.6z M187.6,59.6v-3.4
			h3.4v3.4H187.6z M187.6,66.4V63h3.4v3.4H187.6z M187.6,69.7v-3.4h3.4v3.4H187.6z M187.6,76.4v-3.3h3.4v3.3H187.6z M191,76.4v3.3
			h-3.4v-3.3H191z M191,49.5v-3.4h3.4v3.4H191z M191,56.2v-3.4h3.4v3.4H191z M191,59.6v-3.4h3.4v3.4H191z M191,66.4V63h3.4v3.4H191z
			 M191,69.7v-3.4h3.4v3.4H191z M191,76.4v-3.3h3.4v3.3H191z M194.4,76.4v3.3H191v-3.3H194.4z M194.4,49.5v-3.4h3.4v3.4H194.4z
			 M194.4,59.6v-3.4h3.4v3.4H194.4z M194.4,76.4v-3.3h3.4v3.3H194.4z M197.8,76.4v3.3h-3.4v-3.3H197.8z M197.8,49.5v-3.4h3.4v3.4
			H197.8z M197.8,52.8v-3.3h3.4v3.3H197.8z M197.8,59.6v-3.4h3.4v3.4H197.8z M197.8,63v-3.4h3.4V63H197.8z M197.8,73.1v-3.4h3.4v3.4
			H197.8z M197.8,76.4v-3.3h3.4v3.3H197.8z M201.2,76.4v3.3h-3.4v-3.3H201.2z M201.2,52.8v-3.3h3.4v3.3H201.2z M201.2,56.2v-3.4h3.4
			v3.4H201.2z M201.2,59.6v-3.4h3.4v3.4H201.2z M201.2,63v-3.4h3.4V63H201.2z M201.2,66.4V63h3.4v3.4H201.2z M201.2,69.7v-3.4h3.4
			v3.4H201.2z M201.2,73.1v-3.4h3.4v3.4H201.2z M201.2,76.4v-3.3h3.4v3.3H201.2z M204.5,76.4v3.3h-3.4v-3.3H204.5z M204.5,56.2v-3.4
			h3.3v3.4H204.5z M204.5,59.6v-3.4h3.3v3.4H204.5z M204.5,63v-3.4h3.3V63H204.5z M204.5,66.4V63h3.3v3.4H204.5z M204.5,69.7v-3.4
			h3.3v3.4H204.5z M204.5,73.1v-3.4h3.3v3.4H204.5z M204.5,76.4v-3.3h3.3v3.3H204.5z"/>
	</g>
</g>
</svg>
