<?xml version="1.0" encoding="utf-8"?>
<!-- Generator: Adobe Illustrator 19.0.1, SVG Export Plug-In . SVG Version: 6.00 Build 0)  -->
<svg version="1.1" id="Layer_1" xmlns="http://www.w3.org/2000/svg" xmlns:xlink="http://www.w3.org/1999/xlink" x="0px" y="0px"
	 viewBox="0 0 372.2 101.3" style="enable-background:new 0 0 372.2 101.3;" xml:space="preserve">
<style type="text/css">
	.st0{fill:url(#SVGID_1_);}
</style>
<g>
	<path d="M46.5,27c0,0.3,0,0.7,0,1c0,3.3-1,6.5-2.9,9.7c-1.9,3.2-4,6.1-6.3,8.9c-0.9,1.1-1.7,2.2-2.6,3.2c-0.9,1-1.7,2-2.5,2.9
		c0.7,1.4,1.3,2.9,1.9,4.3c0.6,1.5,1.2,3,1.8,4.4c0.3,0.6,0.5,1.3,0.6,2c0.1,0.7,0.2,1.5,0.2,2.2c0,2-0.6,3.7-1.8,5.3
		c-1.2,1.6-2.9,2.4-5.3,2.4H0l3-9.2h24.3c-0.9-2.2-1.8-4.3-2.8-6.5c-0.9-2.2-1.8-4.4-2.8-6.5c0.9-1,1.7-2.1,2.6-3.1
		c0.9-1,1.7-2.1,2.6-3.2c0.8-1,1.6-2.1,2.5-3.1c0.9-1,1.7-2.1,2.6-3.1c1.2-1.5,2.3-2.9,3.1-4.3c0.8-1.4,1.4-2.7,1.8-3.9
		c0.2-0.5,0.3-0.9,0.4-1.3c0.1-0.4,0.1-0.8,0.1-1.2c0-0.5-0.2-0.9-0.6-1.2c-0.4-0.3-1-0.5-1.9-0.6c-1-0.1-2,0.2-3.1,0.6
		c-1.1,0.5-2.2,1.2-3.3,2.2c-0.5,0.4-1,0.8-1.4,1.2c-0.4,0.4-0.9,0.9-1.3,1.4c-1.8,1.9-3.5,4.2-5,7c-1.5,2.7-2.8,5.7-3.9,8.9
		c-0.7,2.1-1.2,4.3-1.7,6.6c-0.5,2.3-0.8,4.6-0.9,7H5.3c0.1-2.8,0.4-5.6,1-8.4c0.5-2.7,1.2-5.4,2.1-8.1c1.2-3.8,2.8-7.4,4.6-10.6
		c1.8-3.3,3.9-6.1,6.1-8.6c2-2.3,4.4-4.3,7.2-5.9c2.7-1.7,5.6-2.5,8.6-2.5c0.7,0,1.4,0.1,2.1,0.2c0.7,0.1,1.5,0.3,2.2,0.6
		c2,0.6,3.6,1.6,4.9,3.1c1.3,1.4,2.1,3.2,2.3,5.4C46.5,26.4,46.5,26.7,46.5,27z"/>
	<path d="M69.3,73.5H49.2c-1.7,0-3.2-0.4-4.7-1.1c-1.4-0.7-2.6-1.8-3.4-3.3c-0.4-0.7-0.6-1.4-0.8-2.2c-0.2-0.8-0.3-1.6-0.3-2.4
		c0-0.2,0-0.4,0-0.6c0-0.2,0-0.4,0-0.7c0.1-1.2,0.4-2.5,0.8-3.7c0.4-1.3,0.8-2.4,1.2-3.5c1.3-3,2.9-5.4,4.8-7.4
		c1.9-1.9,3.8-3.4,5.9-4.4c0.9-0.5,1.7-0.9,2.5-1.2c0.8-0.3,1.6-0.5,2.5-0.6c0.4-0.1,0.7-0.1,1.1-0.1c0.4,0,0.8,0,1.2,0
		c2.5,0,4.8,0.7,6.8,2.1c2,1.4,3,3.4,3,5.9c0,0.5,0,1-0.1,1.5c-0.1,0.5-0.3,1.1-0.5,1.7c-0.5,1.5-1.5,3.2-3.1,5
		c-1.5,1.8-3.7,3.7-6.5,5.7h12.8L69.3,73.5z M54.5,53.9c-1.7,1.6-2.9,3.4-3.7,5.3c0,0.1,0,0.1,0,0.1c0,0,0,0.1,0,0.1
		c2.8-1.7,5-3.2,6.5-4.6c1.5-1.4,2.5-2.6,3.1-3.6C58.1,51.4,56.1,52.3,54.5,53.9z"/>
	<path d="M106,73.5h-6.4c-2.3,0-4.1-0.7-5.5-2.2c-1.4-1.5-2.1-3.3-2.1-5.4c0-0.4,0-0.9,0.1-1.3c0.1-0.5,0.2-0.9,0.3-1.3
		c0.1-0.4,0.2-0.8,0.4-1.2c0.1-0.4,0.2-0.8,0.4-1.2c0.2-0.8,0.5-1.6,0.7-2.4c0.2-0.8,0.5-1.6,0.7-2.4c0.1-0.1,0.1-0.2,0.1-0.4
		c0-0.1,0-0.2,0-0.4c0.1-0.3,0.2-0.6,0.3-1c0.1-0.4,0.2-0.7,0.2-1.1c-0.5,0.2-1.1,0.5-1.8,0.9c-0.7,0.4-1.4,1-2,1.6
		c-1.7,1.5-3.3,3.2-4.9,5.3c-1.5,2-2.7,4.1-3.6,6.3l-2,6.3h-9.6l9.7-30h9.6l-0.6,1.9c0.7-0.4,1.4-0.7,2.1-1c0.7-0.3,1.4-0.5,2.2-0.6
		c0.4-0.1,0.7-0.2,1.1-0.2c0.3,0,0.7,0,1.1,0c0.5,0,1,0,1.5,0.1c0.5,0.1,1,0.2,1.4,0.4c1.8,0.6,3.1,1.7,3.9,3.2
		c0.8,1.5,1.2,3.2,1.2,5c0,0.9-0.1,1.9-0.3,3c-0.2,1.1-0.5,2.2-1,3.5c-0.2,0.4-0.3,0.9-0.5,1.3c-0.1,0.5-0.2,0.9-0.4,1.3
		c-0.1,0.2-0.1,0.4-0.2,0.5c-0.1,0.2-0.1,0.3-0.1,0.4c-0.1,0.3-0.2,0.6-0.3,0.9c-0.1,0.3-0.2,0.6-0.3,0.9h7.4L106,73.5z"/>
	<path d="M143.3,73.5h-6.4c-2.3,0-4.1-0.7-5.5-2.2c-1.4-1.5-2.1-3.3-2.1-5.4c0-0.4,0-0.9,0.1-1.3c0.1-0.5,0.2-0.9,0.3-1.3
		c0.1-0.4,0.2-0.8,0.4-1.2c0.1-0.4,0.2-0.8,0.4-1.2c0.2-0.8,0.5-1.6,0.7-2.4c0.2-0.8,0.5-1.6,0.7-2.4c0.1-0.1,0.1-0.2,0.1-0.4
		c0-0.1,0-0.2,0-0.4c0.1-0.3,0.2-0.6,0.3-1c0.1-0.4,0.2-0.7,0.2-1.1c-0.5,0.2-1.1,0.5-1.8,0.9c-0.7,0.4-1.4,1-2,1.6
		c-1.7,1.5-3.3,3.2-4.9,5.3c-1.5,2-2.7,4.1-3.6,6.3l-2,6.3h-9.6l9.7-30h9.6l-0.6,1.9c0.7-0.4,1.4-0.7,2.1-1c0.7-0.3,1.4-0.5,2.2-0.6
		c0.4-0.1,0.7-0.2,1.1-0.2c0.3,0,0.7,0,1.1,0c0.5,0,1,0,1.5,0.1c0.5,0.1,1,0.2,1.4,0.4c1.8,0.6,3.1,1.7,3.9,3.2
		c0.8,1.5,1.2,3.2,1.2,5c0,0.9-0.1,1.9-0.3,3c-0.2,1.1-0.5,2.2-1,3.5c-0.2,0.4-0.3,0.9-0.5,1.3c-0.1,0.5-0.2,0.9-0.4,1.3
		c-0.1,0.2-0.1,0.4-0.2,0.5c-0.1,0.2-0.1,0.3-0.1,0.4c-0.1,0.3-0.2,0.6-0.3,0.9c-0.1,0.3-0.2,0.6-0.3,0.9h7.4L143.3,73.5z"/>
	<path d="M175.7,73.5h-20.2c-1.7,0-3.2-0.4-4.7-1.1c-1.4-0.7-2.6-1.8-3.4-3.3c-0.4-0.7-0.6-1.4-0.8-2.2c-0.2-0.8-0.3-1.6-0.3-2.4
		c0-0.2,0-0.4,0-0.6c0-0.2,0-0.4,0-0.7c0.1-1.2,0.4-2.5,0.8-3.7c0.4-1.3,0.8-2.4,1.2-3.5c1.3-3,2.9-5.4,4.8-7.4
		c1.9-1.9,3.8-3.4,5.9-4.4c0.9-0.5,1.7-0.9,2.5-1.2c0.8-0.3,1.6-0.5,2.5-0.6c0.4-0.1,0.7-0.1,1.1-0.1c0.4,0,0.8,0,1.2,0
		c2.5,0,4.8,0.7,6.8,2.1c2,1.4,3,3.4,3,5.9c0,0.5,0,1-0.1,1.5c-0.1,0.5-0.3,1.1-0.5,1.7c-0.5,1.5-1.5,3.2-3.1,5
		c-1.5,1.8-3.7,3.7-6.5,5.7h12.8L175.7,73.5z M160.8,53.9c-1.7,1.6-2.9,3.4-3.7,5.3c0,0.1,0,0.1,0,0.1c0,0,0,0.1,0,0.1
		c2.8-1.7,5-3.2,6.5-4.6c1.5-1.4,2.5-2.6,3.1-3.6C164.4,51.4,162.5,52.3,160.8,53.9z"/>
	<path d="M197.2,52.8h-4.9l-3.8,11.6h11l-3,9.2h-10.4c-2.2,0-4-0.7-5.4-2.2c-1.4-1.5-2.1-3.2-2.1-5.2c0-0.2,0-0.4,0-0.6
		c0-0.2,0-0.4,0-0.7c0.1-0.2,0.1-0.5,0.2-0.7c0.1-0.2,0.1-0.4,0.2-0.6l3.5-10.7h-5.2l3.1-9.2h5.1l3.5-10.8l8.7,2.9l-2.6,8h4.9
		L197.2,52.8z"/>
	<path d="M219,52.8h-4.9l-3.8,11.6h11l-3,9.2H208c-2.2,0-4-0.7-5.4-2.2c-1.4-1.5-2.1-3.2-2.1-5.2c0-0.2,0-0.4,0-0.6
		c0-0.2,0-0.4,0-0.7c0.1-0.2,0.1-0.5,0.2-0.7c0.1-0.2,0.1-0.4,0.2-0.6l3.5-10.7h-5.2l3.1-9.2h5.1l3.5-10.8l8.7,2.9l-2.6,8h4.9
		L219,52.8z"/>
	<linearGradient id="SVGID_1_" gradientUnits="userSpaceOnUse" x1="292.187" y1="101.3428" x2="292.187" y2="16.6431">
		<stop  offset="0" style="stop-color:#5A53A3"/>
		<stop  offset="1" style="stop-color:#27AAE1"/>
	</linearGradient>
	<path class="st0" d="M263.2,73.5h-27.5v-9.2h6c0.4,0,0.9,0,1.3-0.1c0.4-0.1,0.9-0.2,1.3-0.3c1.8-0.7,3.5-1.8,5-3.4
		c1.5-1.6,2.3-3.3,2.3-5c0-1-0.3-1.7-0.9-2.1c-0.6-0.4-1.4-0.6-2.2-0.6c-1.2,0-2.6,0.5-4.2,1.4c-1.5,1-3.1,2.3-4.7,3.9
		c-0.1,0.2-0.3,0.4-0.5,0.6c-0.2,0.2-0.4,0.4-0.6,0.6c-1.8,2.1-3.5,4.5-5.2,7.3c-1.7,2.7-3,5.7-4.1,8.8l-7.8,24.1l-8.7-2.9l10.4-32
		c0.8-2.5,1.4-4.8,1.7-6.8c0.3-2,0.5-3.7,0.5-5.3c0-1.2-0.1-2.2-0.2-3.2c-0.1-1-0.3-1.8-0.5-2.5c-0.1-0.2-0.1-0.5-0.1-0.7
		c0-0.2-0.1-0.5-0.1-0.6c-0.1-0.3-0.1-0.5-0.1-0.6c0-0.1-0.1-0.2-0.1-0.2l9-1.9c0.1,0.3,0.2,0.6,0.2,0.7c0.1,0.3,0.1,0.6,0.2,0.9
		c0.1,0.3,0.1,0.6,0.2,1c0.2,0.7,0.3,1.4,0.5,2.3c0.1,0.8,0.2,1.7,0.3,2.7c2-1.9,4.2-3.5,6.6-4.9c2.4-1.3,5-2,7.6-2
		c0.7,0,1.4,0,2,0.1c0.7,0.1,1.4,0.3,2,0.5c2.5,0.8,4.4,2.2,5.9,4.3c1.4,2,2.2,4.3,2.2,6.9c0,1.5-0.3,3.1-0.8,4.6
		c-0.5,1.5-1.2,2.9-2.1,4.3h8.2L263.2,73.5z M276.1,64.4h9.2l-3,9.2h-8.2c-2.3,0-4.1-0.8-5.5-2.3c-1.4-1.5-2.1-3.3-2.1-5.3
		c0-0.2,0-0.5,0-0.7c0-0.2,0-0.4,0-0.7c0.1-0.2,0.1-0.4,0.2-0.6c0.1-0.2,0.1-0.4,0.2-0.7L282,16.6h9.6L276.1,64.4z M317.3,73.5h-9
		c-1,0-1.9-0.2-2.7-0.5c-0.8-0.3-1.5-0.7-2.2-1.2c-0.9,0.6-1.9,1-3,1.4c-1.1,0.4-2.1,0.6-3.2,0.7c-0.4,0.1-0.7,0.1-1.1,0.1
		c-0.4,0-0.7,0-1.1,0c-1.9,0-3.7-0.4-5.4-1.3c-1.7-0.9-3-2.2-4-4.2c-0.4-0.8-0.6-1.6-0.8-2.4c-0.2-0.8-0.3-1.6-0.3-2.4
		c0-1.6,0.3-3.2,0.9-4.7c0.6-1.5,1.4-2.9,2.4-4.2c3.1-4.1,6.9-7,11.5-8.7c4.6-1.7,9.4-2.6,14.3-2.7c0.2,0,0.4,0,0.6,0
		c0.2,0,0.4,0,0.7,0v9.2c-2,0-3.9,0.1-5.9,0.4c-1.9,0.2-3.8,0.7-5.6,1.4c-1.6,0.6-3.1,1.3-4.5,2.3c-1.4,1-2.7,2.2-3.7,3.6
		c-0.1,0.1-0.2,0.3-0.3,0.5c-0.1,0.2-0.2,0.4-0.4,0.6c-0.1,0.2-0.2,0.4-0.3,0.6c-0.1,0.2-0.2,0.4-0.3,0.6c-0.1,0.2-0.1,0.4-0.2,0.6
		c-0.1,0.2-0.1,0.5-0.1,0.6c0,0.2,0.1,0.5,0.3,0.7c0.2,0.2,0.5,0.3,0.9,0.3c2.4,0,4.2-0.8,5.4-2.4c1.2-1.6,2.1-3.4,2.8-5.3
		c0.1-0.4,0.2-0.8,0.4-1.2c0.1-0.4,0.2-0.7,0.4-1.1l8.7,2.9l-2,6.4h9.9L317.3,73.5z M351.5,45.4c-0.3,0.6-0.6,1.3-0.9,1.9
		c-0.6,1.4-1.3,3-2.2,4.8c-0.8,1.8-1.7,3.6-2.7,5.4c-0.2,0.6-0.5,1.1-0.8,1.6c-0.3,0.5-0.6,1-0.9,1.5c0,1.7,0,3.3-0.1,5
		c-0.1,1.7-0.2,3.4-0.4,5.1c-0.8,6.7-2.8,13-6.1,18.9c-3.3,5.9-8.5,9.8-15.7,11.6l-2.2-8.8c4.7-1.2,8.2-3.9,10.4-7.9
		c2.2-4,3.6-8.3,4.3-12.9c-0.9,0.6-1.9,1-2.8,1.2c-1,0.3-2,0.4-3,0.4c-3,0-5.4-1-7.3-3c-1.8-2-2.7-4.4-2.7-7.1
		c0-0.6,0.1-1.2,0.2-1.9c0.1-0.6,0.3-1.3,0.5-1.9c0.9-2.6,1.7-5.3,2.6-8c0.9-2.7,1.7-5.3,2.5-8h9.6c-1,3.1-2,6.3-3,9.4
		c-1,3.1-2,6.3-3.1,9.4c0,0.1,0,0.1,0,0.2c0,0.1,0,0.1,0,0.2c0,0.1,0,0.2,0,0.4c0,0.1,0,0.2,0,0.4c0,0.2,0.1,0.4,0.2,0.6
		c0.1,0.1,0.3,0.2,0.6,0.2c0.7,0,1.5-0.3,2.3-0.9c0.8-0.6,1.6-1.4,2.5-2.5c0.9-1.2,1.8-2.6,2.7-4.2c0.9-1.6,1.7-3.2,2.5-4.9
		c0.7-1.5,1.4-2.9,2.1-4.3c0.7-1.4,1.3-2.7,1.8-3.8v-0.1h10.1C352.1,44.2,351.9,44.8,351.5,45.4z M367.7,69.6
		c-2.5,2.6-5.9,3.9-10.1,3.9h-9.3l3-9.2h6.4c1.6,0,2.8-0.4,3.6-1.2c0.8-0.8,1.2-2,1.2-3.7c0-0.9-0.1-1.7-0.3-2.5
		c-0.2-0.8-0.4-1.5-0.7-2.1c-1.2,1.6-2.2,3-3,4.1c-0.8,1.1-1.2,1.7-1.2,1.8l-7.4-5.4c2.7-3.7,4.8-6.7,6.5-8.9c1.5-2.2,3-4.3,4.3-6.1
		c1.4-1.8,2-2.8,2-2.9l8.2,4.1c-0.1,0.1-0.4,0.6-1.1,1.6c-0.7,1-1.5,2.2-2.6,3.6c1.4,1.7,2.5,3.7,3.3,5.9c0.8,2.2,1.2,4.4,1.2,6.7
		C371.5,63.7,370.3,67,367.7,69.6z"/>
</g>
</svg>
