<?xml version="1.0" encoding="utf-8"?>
<!-- Generator: Adobe Illustrator 19.0.1, SVG Export Plug-In . SVG Version: 6.00 Build 0)  -->
<svg version="1.1" xmlns="http://www.w3.org/2000/svg" xmlns:xlink="http://www.w3.org/1999/xlink" x="0px" y="0px"
	 viewBox="0 0 243.6 83.6" style="enable-background:new 0 0 243.6 83.6;" xml:space="preserve">
<style type="text/css">
	.st0{fill:url(#SVGID_1_);}
</style>
<g id="Bennett">
	<g>
		<path d="M96.2,4.7c1.7,1.6,2.4,3.3,2,5.1c-0.4,1.8-1.6,3.7-3.4,5.6c-1.8,1.9-4.1,3.7-6.8,5.6c-2.7,1.8-5.4,3.5-8.2,5.1
			c-2.8,1.6-5.4,3-7.8,4.3c-2.4,1.2-4.3,2.2-5.5,2.8c2.3,0.3,4.3,1.1,6.1,2.3c1.8,1.3,3.1,2.8,3.9,4.5c0.9,2.1,1.1,4.3,0.7,6.5
			c-0.4,2.2-1.3,4.4-2.6,6.6c-1.3,2.2-2.9,4.3-4.7,6.3c-1.9,2-3.9,3.9-5.9,5.6c-2.1,1.7-4.1,3.2-6.1,4.6c-2,1.3-3.7,2.4-5.2,3.1
			c-5.7,3.1-11.3,5.5-16.6,7.2c-5.3,1.8-10.2,2.9-14.6,3.4c-4.4,0.5-8.2,0.4-11.6-0.3c-3.3-0.7-5.8-2-7.5-4c-1.7-2-2.5-4.5-2.5-7.6
			c0.1-3.1,1.3-6.9,3.6-11.2c0.3-0.5,1-0.9,2-1.1c1.1-0.2,2.1-0.3,3.2-0.3c1.1,0,2,0.2,2.7,0.6c0.7,0.4,0.9,0.9,0.5,1.5
			c-0.4,0.8-1.1,1.9-2.1,3.4c-0.9,1.5-1.8,3-2.6,4.7c-0.8,1.7-1.3,3.4-1.5,5.1c-0.3,1.7,0.2,3.1,1.3,4.3c1,1.2,2.8,1.7,5.3,1.6
			c2.5-0.1,5.5-0.6,8.9-1.7c3.4-1.1,7.1-2.5,11.1-4.2c4-1.8,7.9-3.8,11.9-6.1c4-2.3,7.7-4.7,11.3-7.2c3.6-2.5,6.6-5,9.3-7.5
			c2.6-2.5,4.6-4.9,5.9-7.2c1.3-2.3,1.7-4.4,1.1-6.1c-0.5-1.6-1.6-2.6-3.3-3c-1.7-0.4-3.7-0.4-5.9-0.1c-2.3,0.4-4.7,1-7.2,1.9
			c-2.5,0.9-5,1.8-7.4,2.7c-2.4,0.9-4.5,1.8-6.3,2.6c-1.8,0.8-3.1,1.3-3.8,1.5c-1.5,2.1-2.8,4.5-4,7.1c-1.2,2.6-2.4,5.1-3.6,7.4
			c-0.1,0.4-0.4,0.5-0.8,0.4c-0.4-0.1-0.8-0.2-1.3-0.5c-0.4-0.3-0.8-0.5-1.2-0.9c-0.4-0.3-0.6-0.6-0.7-0.7c-0.2-0.4-0.3-0.9-0.3-1.6
			c0-0.7,0.1-1.4,0.2-2.2c0.1-0.8,0.3-1.6,0.5-2.5c0.2-0.8,0.4-1.6,0.7-2.2c-0.6,0.3-1.3,0.5-2.2,0.7c-0.9,0.1-1.7,0.1-2.5-0.1
			c-0.7-0.2-1.2-0.6-1.4-1.2c-0.2-0.6,0.1-1.6,0.9-2.9c0.2-0.4,0.8-0.8,1.6-1.4s1.8-1.1,2.8-1.6c1-0.5,1.9-1,2.8-1.5
			c0.8-0.4,1.4-0.7,1.6-0.9c0.9-1.4,1.7-2.8,2.3-4.1c0.7-1.4,1.3-2.7,2-3.9c0.6-1.2,1.2-2.2,1.6-3.1c0.5-0.8,0.9-1.4,1.3-1.7
			c0.3-0.2,0.7-0.3,1.4-0.3c0.6,0,1.3,0.1,2,0.2c0.7,0.1,1.4,0.3,2,0.6c0.6,0.3,1,0.5,1.2,0.8c0.5,0.8,0.5,1.8,0,2.9
			c-0.5,1.1-0.9,2.2-1.3,3.2c1-0.2,3.1-1,6.2-2.3c3.1-1.3,6.6-2.9,10.5-4.8c3.9-1.9,8-4,12.1-6.2c4.1-2.3,7.8-4.4,11.1-6.6
			c3.3-2.1,5.8-4.1,7.5-5.9c1.7-1.8,2.2-3.2,1.3-4.1c-1-1-2.9-1.5-5.7-1.4c-2.8,0.1-6.1,0.6-10.1,1.5c-4,0.9-8.3,2.2-13.1,3.8
			c-4.8,1.6-9.6,3.4-14.5,5.5c-4.9,2.1-9.7,4.3-14.4,6.6c-4.7,2.4-9,4.8-12.9,7.2c-3.9,2.4-7.2,4.8-10,7.1c-2.8,2.3-4.6,4.5-5.4,6.5
			c-0.3,0.6-0.8,0.5-1.5-0.2c-0.7-0.7-1.3-1.8-1.6-3.2C2.6,37.7,2.6,36,3,34.1c0.4-2,1.7-3.9,3.8-5.8c2.8-2.6,6.6-5.4,11.4-8.2
			c4.8-2.9,10-5.6,15.7-8.2C39.5,9.3,45.5,7,51.6,5.1c6.1-2,12.1-3.4,17.8-4.2C75.1,0,80.3-0.2,85,0.3C89.6,0.8,93.4,2.3,96.2,4.7z"
			/>
		<path d="M101.8,32.4c0.9-0.7,1.4-0.9,1.5-0.7c0.1,0.2-0.1,0.7-0.5,1.4c-0.4,0.7-1.1,1.6-1.9,2.6c-0.8,1-1.7,1.9-2.7,2.8
			c-1,0.9-2,1.7-3.1,2.3c-1.1,0.7-2.1,1.1-3,1.2c-0.6,0.1-1.5-0.1-2.5-0.5c-1-0.4-2-1-3-1.8c-0.9-0.8-1.7-1.7-2.4-2.7
			s-0.9-2.1-0.7-3.1c0.1-0.9,0.5-1.7,1.1-2.5c0.6-0.8,1.2-1.5,2-2.1c0.7-0.6,1.5-1.1,2.2-1.5c0.8-0.4,1.4-0.5,1.9-0.5
			c0.4,0,0.9,0.1,1.5,0.4c0.6,0.2,1.1,0.6,1.5,0.9c0.5,0.4,0.8,0.8,1.1,1.4c0.3,0.5,0.4,1,0.3,1.6c-0.1,0.5-0.5,1.2-1.1,1.9
			c-0.6,0.7-1.3,1.4-2.1,2.1c-0.9,0.8-1.9,1.6-3.1,2.4c1.1,0.3,2.8,0,5.1-1C96.7,35.9,99.2,34.4,101.8,32.4z M93.2,31
			c-0.2-0.1-0.6,0-1.4,0.3c-0.7,0.4-1.4,0.8-2.1,1.4c-0.7,0.6-1.3,1.2-1.7,1.9c-0.5,0.7-0.6,1.3-0.3,1.8c0.3-0.1,0.8-0.5,1.4-1
			c0.7-0.5,1.3-1.1,2-1.8c0.7-0.6,1.2-1.2,1.6-1.7C93.2,31.5,93.3,31.1,93.2,31z"/>
		<path d="M103.6,29.1c0.3-0.3,0.6-0.4,1.1-0.3c0.4,0.1,0.8,0.2,1.2,0.5c0.4,0.3,0.7,0.6,1,1c0.3,0.4,0.5,0.8,0.5,1.1
			c0.1,0.3,0.1,0.8,0,1.3c-0.1,0.5-0.3,1-0.5,1.5s-0.4,1-0.6,1.4c-0.2,0.4-0.3,0.7-0.4,0.9c0.2-0.1,0.8-0.6,1.7-1.5
			c0.9-0.9,1.8-1.8,2.8-2.7c1-1,1.9-1.8,2.7-2.6c0.9-0.8,1.4-1.2,1.6-1.3c0.2-0.1,0.5-0.1,1,0c0.5,0.1,1,0.2,1.5,0.4
			c0.5,0.2,0.9,0.5,1.3,0.8c0.4,0.3,0.6,0.7,0.7,1.1c0.1,0.4-0.1,1-0.5,1.9c-0.5,0.9-1,1.8-1.5,2.7c-0.5,0.9-1,1.8-1.4,2.6
			c-0.4,0.8-0.5,1.2-0.3,1.4c0.2,0.1,0.8,0,1.6-0.6c0.8-0.5,1.7-1.2,2.7-2c1-0.8,1.9-1.6,2.8-2.4c0.9-0.8,1.5-1.4,1.9-1.7
			c0.4-0.3,0.7-0.5,1-0.5c0.3,0,0.5,0.1,0.6,0.3c0.1,0.2,0.2,0.4,0.2,0.7c0,0.3-0.1,0.6-0.3,0.9c-0.2,0.3-0.8,0.9-1.5,1.8
			c-0.8,0.9-1.6,1.8-2.6,2.7c-0.9,0.9-1.9,1.8-2.7,2.6c-0.9,0.8-1.6,1.2-2,1.4c-0.7,0.3-1.5,0.4-2.4,0.3s-1.8-0.3-2.6-0.7
			c-0.8-0.3-1.5-0.7-2.1-1.2c-0.6-0.5-0.9-1-0.9-1.6c0-0.2,0-0.6,0.3-1.2c0.2-0.6,0.5-1.2,0.8-1.8c0.3-0.6,0.6-1.1,0.8-1.6
			c0.3-0.5,0.4-0.8,0.4-0.8c-1.4,1.5-2.6,2.7-3.5,3.6c-0.9,0.9-1.8,1.7-2.7,2.4c-0.9,0.7-1.5,1.1-1.9,1.1c-0.6,0-1.3-0.2-2-0.6
			c-0.7-0.4-1.1-1-1.2-1.9c0-0.3,0-0.9,0.2-1.8c0.2-0.9,0.4-1.8,0.7-2.7s0.7-1.9,1.2-2.8C102.4,30.3,103,29.6,103.6,29.1z"/>
		<path d="M126.7,29.1c0.3-0.3,0.6-0.4,1.1-0.3c0.4,0.1,0.8,0.2,1.2,0.5c0.4,0.3,0.7,0.6,1,1c0.3,0.4,0.5,0.8,0.5,1.1
			c0.1,0.3,0.1,0.8,0,1.3c-0.1,0.5-0.3,1-0.5,1.5s-0.4,1-0.6,1.4c-0.2,0.4-0.3,0.7-0.4,0.9c0.2-0.1,0.8-0.6,1.7-1.5
			c0.9-0.9,1.8-1.8,2.8-2.7c1-1,1.9-1.8,2.7-2.6c0.9-0.8,1.4-1.2,1.6-1.3c0.2-0.1,0.5-0.1,1,0c0.5,0.1,1,0.2,1.5,0.4
			c0.5,0.2,0.9,0.5,1.3,0.8c0.4,0.3,0.6,0.7,0.7,1.1c0.1,0.4-0.1,1-0.5,1.9c-0.5,0.9-1,1.8-1.5,2.7c-0.5,0.9-1,1.8-1.4,2.6
			c-0.4,0.8-0.5,1.2-0.3,1.4c0.2,0.1,0.8,0,1.6-0.6c0.8-0.5,1.7-1.2,2.7-2c1-0.8,1.9-1.6,2.8-2.4s1.5-1.4,1.9-1.7
			c0.4-0.3,0.7-0.5,1-0.5c0.3,0,0.5,0.1,0.6,0.3c0.1,0.2,0.2,0.4,0.2,0.7c0,0.3-0.1,0.6-0.3,0.9c-0.2,0.3-0.8,0.9-1.5,1.8
			c-0.8,0.9-1.6,1.8-2.6,2.7c-0.9,0.9-1.9,1.8-2.7,2.6c-0.9,0.8-1.6,1.2-2,1.4c-0.7,0.3-1.5,0.4-2.4,0.3s-1.8-0.3-2.6-0.7
			c-0.8-0.3-1.5-0.7-2.1-1.2c-0.6-0.5-0.9-1-0.9-1.6c0-0.2,0-0.6,0.3-1.2c0.2-0.6,0.5-1.2,0.8-1.8c0.3-0.6,0.6-1.1,0.8-1.6
			c0.3-0.5,0.4-0.8,0.4-0.8c-1.4,1.5-2.6,2.7-3.5,3.6c-0.9,0.9-1.8,1.7-2.7,2.4c-0.9,0.7-1.5,1.1-1.9,1.1c-0.6,0-1.3-0.2-2-0.6
			c-0.7-0.4-1.1-1-1.2-1.9c0-0.3,0-0.9,0.2-1.8c0.2-0.9,0.4-1.8,0.7-2.7s0.7-1.9,1.2-2.8C125.6,30.3,126.1,29.6,126.7,29.1z"/>
		<path d="M165.7,32.4c0.9-0.7,1.4-0.9,1.5-0.7c0.1,0.2-0.1,0.7-0.5,1.4c-0.4,0.7-1.1,1.6-1.9,2.6c-0.8,1-1.7,1.9-2.7,2.8
			c-1,0.9-2,1.7-3.1,2.3c-1.1,0.7-2.1,1.1-3,1.2c-0.6,0.1-1.5-0.1-2.5-0.5c-1-0.4-2-1-3-1.8c-0.9-0.8-1.7-1.7-2.4-2.7
			s-0.9-2.1-0.7-3.1c0.1-0.9,0.5-1.7,1.1-2.5c0.6-0.8,1.2-1.5,2-2.1c0.7-0.6,1.5-1.1,2.2-1.5c0.8-0.4,1.4-0.5,1.9-0.5
			c0.4,0,0.9,0.1,1.5,0.4c0.6,0.2,1.1,0.6,1.5,0.9c0.5,0.4,0.8,0.8,1.1,1.4s0.4,1,0.3,1.6c-0.1,0.5-0.5,1.2-1.1,1.9
			c-0.6,0.7-1.3,1.4-2.1,2.1c-0.9,0.8-1.9,1.6-3.1,2.4c1.1,0.3,2.8,0,5.1-1C160.5,35.9,163,34.4,165.7,32.4z M157,31
			c-0.2-0.1-0.6,0-1.4,0.3s-1.4,0.8-2.1,1.4c-0.7,0.6-1.3,1.2-1.7,1.9c-0.5,0.7-0.6,1.3-0.3,1.8c0.3-0.1,0.8-0.5,1.4-1
			c0.7-0.5,1.3-1.1,2-1.8c0.7-0.6,1.2-1.2,1.6-1.7C157,31.5,157.2,31.1,157,31z"/>
		<path d="M188.4,25.2c-1.7,0-3.4,0.1-5.1,0.1c-1.7,0-3.3,0.1-4.9,0.2c-0.5,0.4-1.2,1-2,1.8c-0.8,0.8-1.7,1.6-2.6,2.6
			c-0.9,0.9-1.7,1.9-2.6,2.9c-0.9,1-1.6,2-2.2,2.8c-0.6,0.9-1,1.6-1.2,2.3c-0.2,0.7-0.2,1.1,0.2,1.3c0.3,0.2,1,0,2-0.7
			c1.1-0.6,2.2-1.4,3.5-2.3c1.2-0.9,2.4-1.7,3.6-2.6c1.1-0.9,1.9-1.4,2.4-1.6c0.9-0.6,1.5-0.7,1.9-0.4c0.4,0.3,0.4,0.8-0.1,1.4
			c-0.2,0.3-0.8,0.9-1.8,1.9c-0.9,0.9-2,1.9-3.2,2.9c-1.2,1-2.5,1.9-3.9,2.7c-1.3,0.8-2.5,1.2-3.5,1.2c-2,0-3.3-0.5-3.9-1.6
			c-0.6-1.1-0.8-2.5-0.5-4.1c0.2-1.6,0.8-3.4,1.8-5.3c0.9-1.9,2-3.6,3.1-5.1c-2.3-0.5-3.2-1-2.6-1.6c0.2-0.2,1.8-0.4,4.6-0.5
			c0.8-0.7,1.5-1.2,2.2-1.7c0.7-0.4,1.3-0.7,2-0.7c0.6,0,1.2,0.2,1.9,0.7c0.7,0.5,1.2,1,1.6,1.6c1.4,0,2.9,0,4.5,0
			c1.6,0,3.2,0,4.8-0.1L188.4,25.2z M184.9,23.6c0.8-0.7,1.5-1.2,2.2-1.7c0.7-0.4,1.3-0.7,2-0.7c0.6,0,1.2,0.2,1.9,0.7
			c0.7,0.5,1.2,1,1.6,1.6c2.5,0,5.1,0,8-0.1c2.8,0,5.7-0.1,8.6-0.2c3.7-0.1,7.1-0.2,10.1-0.4c3.1-0.2,5.8-0.4,8.1-0.6
			c2.3-0.2,4.2-0.4,5.6-0.5c1.4-0.1,2.4-0.2,2.8-0.2c0.8,0,1.7,0.1,2.7,0.4c1,0.3,1.9,0.6,2.7,0.9c0.8,0.4,1.5,0.8,1.9,1.2
			c0.5,0.4,0.5,0.8,0.3,1.1c-0.1,0.2-1,0.3-2.5,0.3c-1.5,0-3.5,0-5.9,0c-2.5,0-5.3-0.1-8.6-0.1c-3.3,0-6.8-0.1-10.6-0.1
			c-3.8,0-7.7,0-11.8,0c-4.1,0-8.1,0.1-12.2,0.3c-0.5,0.4-1.2,1-2,1.8c-0.8,0.8-1.7,1.6-2.6,2.6c-0.9,0.9-1.7,1.9-2.6,2.9
			c-0.9,1-1.6,2-2.2,2.8c-0.6,0.9-1,1.6-1.2,2.3c-0.2,0.7-0.2,1.1,0.2,1.3c0.3,0.2,1,0,2-0.7c1.1-0.6,2.2-1.4,3.5-2.3
			c1.2-0.9,2.4-1.7,3.6-2.6c1.1-0.9,1.9-1.4,2.4-1.6c0.9-0.6,1.5-0.7,1.9-0.4c0.4,0.3,0.4,0.8-0.1,1.4c-0.2,0.3-0.8,0.9-1.8,1.9
			c-0.9,0.9-2,1.9-3.2,2.9c-1.2,1-2.5,1.9-3.9,2.7c-1.3,0.8-2.5,1.2-3.5,1.2c-2,0-3.3-0.5-3.9-1.6c-0.6-1.1-0.8-2.5-0.5-4.1
			c0.2-1.6,0.8-3.4,1.8-5.3c0.9-1.9,2-3.6,3.1-5.1L184.9,23.6z"/>
	</g>
</g>
<g id="Layer_2_xA0_Image_1_">
</g>
<g id="Plays">
	<linearGradient id="SVGID_1_" gradientUnits="userSpaceOnUse" x1="132.8934" y1="47.0675" x2="132.8934" y2="77.2909">
		<stop  offset="0" style="stop-color:#A874FF"/>
		<stop  offset="1" style="stop-color:#6000FF"/>
	</linearGradient>
	<path class="st0" d="M74.3,74.4H60.6v-27h21.8c0.6,0.8,1.5,1.4,2.5,1.7c0.1,0,0.2,0.1,0.3,0.1c0,0,0,0,0.1,0c0,0,0.1,0,0.1,0
		c0.5,0.9,1.2,1.6,2.1,2V71c-0.2,0-0.4,0-0.6-0.1c-1.3-0.1-2.7-0.5-4-0.5c-0.1,0-0.7-0.2-0.9-0.1c-1.5-1-3.4-1.3-5.2-0.2
		C75.4,70.9,74.4,72.7,74.3,74.4z M91.8,74.4c2.6,0.1,5.1,1.2,7.7,1.2c1.9,0,3.8-0.3,5.7-0.2c2.2,0.1,4.3-0.3,6.5-0.2
		c1.1,0,2.2,0.2,3.3,0.2v-6.6c-0.2,0-0.4,0-0.6,0c-1.2,0-2.3,0-3.5-0.1c-1.1-0.1-2.2-0.4-3.3-0.6c-2.9,0.1-4.6-2.4-4.9-5
		c-0.2-1.3,0-2.6,0-3.8c-0.1-1.6-0.1-3,0.2-4.6c-0.4-0.9-0.8-1.8-1.4-2.6c-0.9-1.4-0.9-3.1-0.2-4.6H91.1v26.8c0.2,0,0.3,0.1,0.5,0.2
		C91.7,74.4,91.7,74.4,91.8,74.4z M146.2,51.1c-2.5,0-4.1-1.6-4.6-3.4h-19.1c-0.4,2-1.9,3.6-4.4,3.8v25.2h13.6
		c0.8-1.3,2.1-2.3,4.1-2.3c2,0,3.4,1,4.1,2.3h7.5V51C147,51.1,146.6,51.1,146.2,51.1z M165.1,47.1c-4.5-0.1-9.4-0.3-13.8,0.5
		c-0.7,0.1-1.4,0.1-2.1,0v13c2.3,0.2,3.7,1.7,4.1,3.5c2.5,1,3.4,3.9,2.7,6.3c0.5,0.8,0.8,1.7,0.8,2.6v0.1c0,0.3,0,0.7-0.1,1
		c0.1,0,0.1,0,0.2,0c1.2-0.1,2.7,0.6,3.5,1.5c0.3,0.3,0.5,0.6,0.7,1c0.2,0,0.3,0,0.5,0c1.1,0,1.9,0.3,2.6,0.7c0.4-0.9,1.2-1.9,2-2.2
		c0.1,0,0.2-0.1,0.3-0.1c0.2-0.1,0.4-0.2,0.6-0.3c-1.6-3-0.2-7.6,4.2-7.6c1.1,0,2,0.3,2.7,0.8V48.5C171.2,48,168.3,47.2,165.1,47.1z
		 M199,76.2c-0.1-2.6,1.5-5.3,4.8-5.3c0.5,0,0.9,0.1,1.3,0.2V53.5c-1.1-0.3-1.9-0.8-2.5-1.6c-2.2-0.6-3.3-2.7-3.3-4.8H181
		c-0.2,2.3-1.8,4.5-4.8,4.5c-0.2,0-0.3,0-0.4,0v19.3c3.3,0.1,4.9,2.8,4.7,5.3H199z"/>
	<g>
		<path d="M59.4,49.5v-3.4h3.4v3.4H59.4z M59.4,52.8v-3.3h3.4v3.3H59.4z M59.4,56.2v-3.4h3.4v3.4H59.4z M59.4,59.6v-3.4h3.4v3.4
			H59.4z M59.4,63v-3.4h3.4V63H59.4z M59.4,66.4V63h3.4v3.4H59.4z M59.4,69.7v-3.4h3.4v3.4H59.4z M59.4,73.1v-3.4h3.4v3.4H59.4z
			 M59.4,76.4v-3.3h3.4v3.3H59.4z M62.8,49.5v-3.4h3.4v3.4H62.8z M62.8,76.4v-3.3h3.4v3.3H62.8z M66.2,76.4v3.3h-3.4v-3.3H66.2z
			 M66.2,49.5v-3.4h3.4v3.4H66.2z M66.2,76.4v-3.3h3.4v3.3H66.2z M69.6,76.4v3.3h-3.4v-3.3H69.6z M69.6,49.5v-3.4h3.3v3.4H69.6z
			 M69.6,56.2v-3.4h3.3v3.4H69.6z M69.6,59.6v-3.4h3.3v3.4H69.6z M69.6,63v-3.4h3.3V63H69.6z M69.6,69.7v-3.4h3.3v3.4H69.6z
			 M69.6,73.1v-3.4h3.3v3.4H69.6z M69.6,76.4v-3.3h3.3v3.3H69.6z M72.9,76.4v3.3h-3.3v-3.3H72.9z M72.9,49.5v-3.4h3.4v3.4H72.9z
			 M72.9,56.2v-3.4h3.4v3.4H72.9z M72.9,59.6v-3.4h3.4v3.4H72.9z M72.9,63v-3.4h3.4V63H72.9z M72.9,69.7v-3.4h3.4v3.4H72.9z
			 M72.9,73.1v-3.4h3.4v3.4H72.9z M72.9,76.4v-3.3h3.4v3.3H72.9z M76.3,76.4v3.3h-3.4v-3.3H76.3z M76.3,49.5v-3.4h3.4v3.4H76.3z
			 M76.3,56.2v-3.4h3.4v3.4H76.3z M76.3,59.6v-3.4h3.4v3.4H76.3z M76.3,63v-3.4h3.4V63H76.3z M76.3,69.7v-3.4h3.4v3.4H76.3z
			 M76.3,73.1v-3.4h3.4v3.4H76.3z M79.7,49.5v-3.4H83v3.4H79.7z M79.7,69.7v-3.4H83v3.4H79.7z M79.7,73.1v-3.4H83v3.4H79.7z
			 M83,49.5v-3.4h3.4v3.4H83z M83,52.8v-3.3h3.4v3.3H83z M83,66.4V63h3.4v3.4H83z M83,69.7v-3.4h3.4v3.4H83z M83,73.1v-3.4h3.4v3.4
			H83z M86.4,52.8v-3.3h3.4v3.3H86.4z M86.4,56.2v-3.4h3.4v3.4H86.4z M86.4,59.6v-3.4h3.4v3.4H86.4z M86.4,63v-3.4h3.4V63H86.4z
			 M86.4,66.4V63h3.4v3.4H86.4z M86.4,69.7v-3.4h3.4v3.4H86.4z M86.4,73.1v-3.4h3.4v3.4H86.4z M89.8,56.2v-3.4h3.3v3.4H89.8z
			 M89.8,59.6v-3.4h3.3v3.4H89.8z M89.8,63v-3.4h3.3V63H89.8z M89.8,66.4V63h3.3v3.4H89.8z M89.8,69.7v-3.4h3.3v3.4H89.8z"/>
		<path d="M89.8,49.5v-3.4h3.4v3.4H89.8z M89.8,52.8v-3.3h3.4v3.3H89.8z M89.8,56.2v-3.4h3.4v3.4H89.8z M89.8,59.6v-3.4h3.4v3.4
			H89.8z M89.8,63v-3.4h3.4V63H89.8z M89.8,66.4V63h3.4v3.4H89.8z M89.8,69.7v-3.4h3.4v3.4H89.8z M89.8,73.1v-3.4h3.4v3.4H89.8z
			 M89.8,76.4v-3.3h3.4v3.3H89.8z M93.2,49.5v-3.4h3.4v3.4H93.2z M93.2,76.4v-3.3h3.4v3.3H93.2z M96.5,76.4v3.3h-3.4v-3.3H96.5z
			 M96.5,49.5v-3.4h3.4v3.4H96.5z M96.5,76.4v-3.3h3.4v3.3H96.5z M99.9,76.4v3.3h-3.4v-3.3H99.9z M99.9,49.5v-3.4h3.3v3.4H99.9z
			 M99.9,52.8v-3.3h3.3v3.3H99.9z M99.9,56.2v-3.4h3.3v3.4H99.9z M99.9,59.6v-3.4h3.3v3.4H99.9z M99.9,63v-3.4h3.3V63H99.9z
			 M99.9,66.4V63h3.3v3.4H99.9z M99.9,69.7v-3.4h3.3v3.4H99.9z M99.9,76.4v-3.3h3.3v3.3H99.9z M103.2,76.4v3.3h-3.3v-3.3H103.2z
			 M103.2,52.8v-3.3h3.4v3.3H103.2z M103.2,56.2v-3.4h3.4v3.4H103.2z M103.2,59.6v-3.4h3.4v3.4H103.2z M103.2,63v-3.4h3.4V63H103.2z
			 M103.2,66.4V63h3.4v3.4H103.2z M103.2,69.7v-3.4h3.4v3.4H103.2z M103.2,76.4v-3.3h3.4v3.3H103.2z M106.6,76.4v3.3h-3.4v-3.3
			H106.6z M106.6,69.7v-3.4h3.4v3.4H106.6z M106.6,76.4v-3.3h3.4v3.3H106.6z M110,76.4v3.3h-3.4v-3.3H110z M110,69.7v-3.4h3.4v3.4
			H110z M110,76.4v-3.3h3.4v3.3H110z M113.4,76.4v3.3H110v-3.3H113.4z M113.4,69.7v-3.4h3.4v3.4H113.4z M113.4,73.1v-3.4h3.4v3.4
			H113.4z M113.4,76.4v-3.3h3.4v3.3H113.4z M116.8,76.4v3.3h-3.4v-3.3H116.8z M116.8,73.1v-3.4h3.4v3.4H116.8z M116.8,76.4v-3.3h3.4
			v3.3H116.8z M120.2,76.4v3.3h-3.4v-3.3H120.2z"/>
		<path d="M116.8,52.8v-3.3h3.4v3.3H116.8z M116.8,56.2v-3.4h3.4v3.4H116.8z M116.8,59.6v-3.4h3.4v3.4H116.8z M116.8,63v-3.4h3.4V63
			H116.8z M116.8,66.4V63h3.4v3.4H116.8z M116.8,69.7v-3.4h3.4v3.4H116.8z M116.8,73.1v-3.4h3.4v3.4H116.8z M116.8,76.4v-3.3h3.4
			v3.3H116.8z M120.2,49.5v-3.4h3.4v3.4H120.2z M120.2,52.8v-3.3h3.4v3.3H120.2z M120.2,76.4v-3.3h3.4v3.3H120.2z M123.5,76.4v3.3
			h-3.4v-3.3H123.5z M123.5,49.5v-3.4h3.4v3.4H123.5z M123.5,76.4v-3.3h3.4v3.3H123.5z M126.9,76.4v3.3h-3.4v-3.3H126.9z
			 M126.9,49.5v-3.4h3.3v3.4H126.9z M126.9,56.2v-3.4h3.3v3.4H126.9z M126.9,59.6v-3.4h3.3v3.4H126.9z M126.9,63v-3.4h3.3V63H126.9z
			 M126.9,69.7v-3.4h3.3v3.4H126.9z M126.9,73.1v-3.4h3.3v3.4H126.9z M126.9,76.4v-3.3h3.3v3.3H126.9z M130.2,76.4v3.3h-3.3v-3.3
			H130.2z M130.2,49.5v-3.4h3.4v3.4H130.2z M130.2,56.2v-3.4h3.4v3.4H130.2z M130.2,59.6v-3.4h3.4v3.4H130.2z M130.2,63v-3.4h3.4V63
			H130.2z M130.2,69.7v-3.4h3.4v3.4H130.2z M130.2,73.1v-3.4h3.4v3.4H130.2z M130.2,76.4v-3.3h3.4v3.3H130.2z M133.6,76.4v3.3h-3.4
			v-3.3H133.6z M133.6,49.5v-3.4h3.4v3.4H133.6z M133.6,56.2v-3.4h3.4v3.4H133.6z M133.6,59.6v-3.4h3.4v3.4H133.6z M133.6,63v-3.4
			h3.4V63H133.6z M133.6,69.7v-3.4h3.4v3.4H133.6z M133.6,73.1v-3.4h3.4v3.4H133.6z M133.6,76.4v-3.3h3.4v3.3H133.6z M137,49.5v-3.4
			h3.4v3.4H137z M137,76.4v-3.3h3.4v3.3H137z M140.4,76.4v3.3H137v-3.3H140.4z M140.4,49.5v-3.4h3.4v3.4H140.4z M140.4,52.8v-3.3
			h3.4v3.3H140.4z M140.4,76.4v-3.3h3.4v3.3H140.4z M143.8,76.4v3.3h-3.4v-3.3H143.8z M143.8,52.8v-3.3h3.4v3.3H143.8z M143.8,56.2
			v-3.4h3.4v3.4H143.8z M143.8,59.6v-3.4h3.4v3.4H143.8z M143.8,63v-3.4h3.4V63H143.8z M143.8,66.4V63h3.4v3.4H143.8z M143.8,69.7
			v-3.4h3.4v3.4H143.8z M143.8,73.1v-3.4h3.4v3.4H143.8z M143.8,76.4v-3.3h3.4v3.3H143.8z M147.2,76.4v3.3h-3.4v-3.3H147.2z
			 M147.2,56.2v-3.4h3.3v3.4H147.2z M147.2,59.6v-3.4h3.3v3.4H147.2z M147.2,63v-3.4h3.3V63H147.2z M147.2,66.4V63h3.3v3.4H147.2z
			 M147.2,69.7v-3.4h3.3v3.4H147.2z M147.2,73.1v-3.4h3.3v3.4H147.2z M147.2,76.4v-3.3h3.3v3.3H147.2z M150.5,76.4v3.3h-3.3v-3.3
			H150.5z"/>
		<path d="M147.2,49.5v-3.4h3.4v3.4H147.2z M147.2,52.8v-3.3h3.4v3.3H147.2z M147.2,56.2v-3.4h3.4v3.4H147.2z M147.2,59.6v-3.4h3.4
			v3.4H147.2z M147.2,63v-3.4h3.4V63H147.2z M150.5,49.5v-3.4h3.4v3.4H150.5z M150.5,63v-3.4h3.4V63H150.5z M150.5,66.4V63h3.4v3.4
			H150.5z M153.9,49.5v-3.4h3.4v3.4H153.9z M153.9,66.4V63h3.4v3.4H153.9z M153.9,69.7v-3.4h3.4v3.4H153.9z M153.9,73.1v-3.4h3.4
			v3.4H153.9z M153.9,76.4v-3.3h3.4v3.3H153.9z M157.3,49.5v-3.4h3.3v3.4H157.3z M157.3,52.8v-3.3h3.3v3.3H157.3z M157.3,56.2v-3.4
			h3.3v3.4H157.3z M157.3,59.6v-3.4h3.3v3.4H157.3z M157.3,76.4v-3.3h3.3v3.3H157.3z M160.6,76.4v3.3h-3.3v-3.3H160.6z M160.6,49.5
			v-3.4h3.4v3.4H160.6z M160.6,52.8v-3.3h3.4v3.3H160.6z M160.6,56.2v-3.4h3.4v3.4H160.6z M160.6,59.6v-3.4h3.4v3.4H160.6z
			 M160.6,76.4v-3.3h3.4v3.3H160.6z M164,76.4v3.3h-3.4v-3.3H164z M164,49.5v-3.4h3.4v3.4H164z M164,66.4V63h3.4v3.4H164z M164,69.7
			v-3.4h3.4v3.4H164z M164,73.1v-3.4h3.4v3.4H164z M164,76.4v-3.3h3.4v3.3H164z M167.4,76.4v3.3H164v-3.3H167.4z M167.4,49.5v-3.4
			h3.4v3.4H167.4z M167.4,63v-3.4h3.4V63H167.4z M167.4,66.4V63h3.4v3.4H167.4z M167.4,69.7v-3.4h3.4v3.4H167.4z M167.4,73.1v-3.4
			h3.4v3.4H167.4z M167.4,76.4v-3.3h3.4v3.3H167.4z M170.8,76.4v3.3h-3.4v-3.3H170.8z M170.8,49.5v-3.4h3.4v3.4H170.8z M170.8,52.8
			v-3.3h3.4v3.3H170.8z M170.8,56.2v-3.4h3.4v3.4H170.8z M170.8,59.6v-3.4h3.4v3.4H170.8z M170.8,63v-3.4h3.4V63H170.8z M170.8,66.4
			V63h3.4v3.4H170.8z M170.8,69.7v-3.4h3.4v3.4H170.8z M174.2,52.8v-3.3h3.4v3.3H174.2z M174.2,56.2v-3.4h3.4v3.4H174.2z
			 M174.2,59.6v-3.4h3.4v3.4H174.2z M174.2,63v-3.4h3.4V63H174.2z M174.2,66.4V63h3.4v3.4H174.2z"/>
		<path d="M174.2,52.8v-3.3h3.4v3.3H174.2z M174.2,56.2v-3.4h3.4v3.4H174.2z M174.2,59.6v-3.4h3.4v3.4H174.2z M174.2,63v-3.4h3.4V63
			H174.2z M174.2,66.4V63h3.4v3.4H174.2z M174.2,69.7v-3.4h3.4v3.4H174.2z M174.2,73.1v-3.4h3.4v3.4H174.2z M177.5,49.5v-3.4h3.4
			v3.4H177.5z M177.5,52.8v-3.3h3.4v3.3H177.5z M177.5,63v-3.4h3.4V63H177.5z M177.5,66.4V63h3.4v3.4H177.5z M177.5,73.1v-3.4h3.4
			v3.4H177.5z M177.5,76.4v-3.3h3.4v3.3H177.5z M180.9,49.5v-3.4h3.4v3.4H180.9z M180.9,66.4V63h3.4v3.4H180.9z M180.9,76.4v-3.3
			h3.4v3.3H180.9z M184.3,76.4v3.3h-3.4v-3.3H184.3z M184.3,49.5v-3.4h3.3v3.4H184.3z M184.3,56.2v-3.4h3.3v3.4H184.3z M184.3,59.6
			v-3.4h3.3v3.4H184.3z M184.3,66.4V63h3.3v3.4H184.3z M184.3,69.7v-3.4h3.3v3.4H184.3z M184.3,76.4v-3.3h3.3v3.3H184.3z
			 M187.6,76.4v3.3h-3.3v-3.3H187.6z M187.6,49.5v-3.4h3.4v3.4H187.6z M187.6,56.2v-3.4h3.4v3.4H187.6z M187.6,59.6v-3.4h3.4v3.4
			H187.6z M187.6,66.4V63h3.4v3.4H187.6z M187.6,69.7v-3.4h3.4v3.4H187.6z M187.6,76.4v-3.3h3.4v3.3H187.6z M191,76.4v3.3h-3.4v-3.3
			H191z M191,49.5v-3.4h3.4v3.4H191z M191,56.2v-3.4h3.4v3.4H191z M191,59.6v-3.4h3.4v3.4H191z M191,66.4V63h3.4v3.4H191z M191,69.7
			v-3.4h3.4v3.4H191z M191,76.4v-3.3h3.4v3.3H191z M194.4,76.4v3.3H191v-3.3H194.4z M194.4,49.5v-3.4h3.4v3.4H194.4z M194.4,59.6
			v-3.4h3.4v3.4H194.4z M194.4,76.4v-3.3h3.4v3.3H194.4z M197.8,76.4v3.3h-3.4v-3.3H197.8z M197.8,49.5v-3.4h3.4v3.4H197.8z
			 M197.8,52.8v-3.3h3.4v3.3H197.8z M197.8,59.6v-3.4h3.4v3.4H197.8z M197.8,63v-3.4h3.4V63H197.8z M197.8,73.1v-3.4h3.4v3.4H197.8z
			 M197.8,76.4v-3.3h3.4v3.3H197.8z M201.2,76.4v3.3h-3.4v-3.3H201.2z M201.2,52.8v-3.3h3.4v3.3H201.2z M201.2,56.2v-3.4h3.4v3.4
			H201.2z M201.2,59.6v-3.4h3.4v3.4H201.2z M201.2,63v-3.4h3.4V63H201.2z M201.2,66.4V63h3.4v3.4H201.2z M201.2,69.7v-3.4h3.4v3.4
			H201.2z M201.2,73.1v-3.4h3.4v3.4H201.2z M201.2,76.4v-3.3h3.4v3.3H201.2z M204.5,76.4v3.3h-3.4v-3.3H204.5z M204.5,56.2v-3.4h3.3
			v3.4H204.5z M204.5,59.6v-3.4h3.3v3.4H204.5z M204.5,63v-3.4h3.3V63H204.5z M204.5,66.4V63h3.3v3.4H204.5z M204.5,69.7v-3.4h3.3
			v3.4H204.5z M204.5,73.1v-3.4h3.3v3.4H204.5z M204.5,76.4v-3.3h3.3v3.3H204.5z"/>
	</g>
</g>
</svg>
