<?xml version="1.0" encoding="utf-8"?>
<!-- Generator: Adobe Illustrator 19.1.0, SVG Export Plug-In . SVG Version: 6.00 Build 0)  -->
<svg version="1.1" id="Layer_1" xmlns="http://www.w3.org/2000/svg" xmlns:xlink="http://www.w3.org/1999/xlink" x="0px" y="0px"
	 viewBox="-21 288.6 63.7 56.8" style="enable-background:new -21 288.6 63.7 56.8;" xml:space="preserve">
<style type="text/css">
	.st0{fill:#FFFFFF;}
</style>
<g id="Bennett">
	<g>
		<path class="st0" d="M11.1,318.3L11.1,318.3c-0.9,0.7-1.8,1.5-2.9,2.2c-1.9,1.3-3.8,2.6-5.9,3.8s-4.1,2.3-6.2,3.2
			c-2.1,0.9-4,1.7-5.8,2.2c-1.7,0.6-3.3,0.9-4.6,0.9c-1.3,0.1-2.3-0.3-2.8-0.8c-0.6-0.6-0.8-1.4-0.7-2.3c0.2-0.9,0.4-1.8,0.8-2.7
			c0.4-0.9,0.8-1.7,1.4-2.5c0.5-0.8,0.8-1.4,1.1-1.8c0.2-0.4,0.1-0.6-0.3-0.8c-0.4-0.2-0.8-0.3-1.4-0.3c-0.6,0-1.2,0.1-1.7,0.2
			c-0.6,0.1-0.9,0.3-1,0.6c-1.3,2.3-1.9,4.2-1.9,5.9s0.4,3,1.3,4c0.9,1,2.2,1.7,3.9,2.1c1.7,0.4,3.8,0.4,6.1,0.2
			c2.3-0.3,4.8-0.9,7.7-1.8c2.8-0.9,5.7-2.2,8.7-3.8c0.8-0.4,1.7-0.9,2.7-1.6c0.6-0.4,1.3-0.9,1.9-1.4
			C11.4,321.9,11.1,320,11.1,318.3z"/>
		<path class="st0" d="M29.5,291.1c-1.5-1.3-3.5-2.1-5.9-2.4c-2.4-0.2-5.1-0.1-8.1,0.3c-3,0.5-6.1,1.2-9.3,2.2
			c-3.2,1-6.3,2.2-9.3,3.6c-3,1.4-5.7,2.8-8.2,4.3s-4.5,2.9-6,4.3c-1.1,1-1.8,2-2,3c-0.2,1-0.2,1.9-0.1,2.7c0.2,0.8,0.5,1.3,0.8,1.7
			s0.6,0.4,0.8,0.1c0.5-1,1.4-2.2,2.8-3.4c1.5-1.2,3.2-2.5,5.2-3.7c2-1.3,4.3-2.5,6.8-3.8c2.5-1.3,5-2.4,7.5-3.5
			c2.6-1.1,5.1-2,7.6-2.9s4.8-1.5,6.9-2s3.8-0.7,5.3-0.8c1.5-0.1,2.4,0.2,3,0.7c0.5,0.5,0.2,1.2-0.7,2.1c-0.9,0.9-2.3,2-3.9,3.1
			c-1.7,1.1-3.7,2.3-5.8,3.5s-4.3,2.3-6.3,3.2s-3.9,1.8-5.5,2.5s-2.7,1.1-3.2,1.2c0.2-0.5,0.4-1.1,0.7-1.7c0.3-0.6,0.3-1.1,0-1.5
			c-0.1-0.2-0.3-0.3-0.6-0.4c-0.3-0.2-0.6-0.3-1-0.3c-0.4-0.1-0.7-0.1-1-0.1s-0.6,0.1-0.7,0.2c-0.2,0.2-0.4,0.5-0.7,0.9
			c-0.3,0.4-0.5,1-0.8,1.6c-0.3,0.6-0.7,1.3-1,2s-0.8,1.5-1.2,2.1c-0.1,0.1-0.4,0.2-0.8,0.5c-0.4,0.2-0.9,0.5-1.5,0.8
			c-0.5,0.3-1,0.6-1.5,0.8c-0.4,0.3-0.7,0.5-0.8,0.7c-0.4,0.7-0.6,1.2-0.5,1.5c0.1,0.3,0.4,0.5,0.7,0.6c0.4,0.1,0.8,0.1,1.3,0.1
			c0.5-0.1,0.9-0.2,1.2-0.4c-0.1,0.4-0.2,0.7-0.4,1.2c-0.1,0.4-0.2,0.9-0.3,1.3c-0.1,0.4-0.1,0.8-0.1,1.2c0,0.4,0.1,0.6,0.2,0.8
			c0.1,0.1,0.2,0.2,0.4,0.4c0.2,0.2,0.4,0.3,0.6,0.5c0.2,0.2,0.5,0.2,0.7,0.3c0.2,0.1,0.4-0.1,0.4-0.2c0.6-1.2,1.3-2.5,1.9-3.9
			c0.6-1.4,1.4-2.6,2.1-3.7c0.4-0.1,1-0.4,2-0.8c0.9-0.4,2-0.9,3.3-1.4c1.3-0.5,2.5-0.9,3.9-1.4c1.3-0.5,2.6-0.8,3.8-1
			c1.2-0.2,2.3-0.2,3.1,0.1c0.9,0.2,1.5,0.7,1.7,1.6c0.3,0.9,0.1,2-0.6,3.2c-0.1,0.2-0.2,0.4-0.3,0.5c1.2,0,2.4-0.1,3.7-0.2
			c0-0.1,0-0.1,0.1-0.1c0.2-1.2,0.1-2.3-0.4-3.4c-0.4-0.9-1.1-1.7-2-2.4c-0.9-0.7-2-1.1-3.2-1.2c0.6-0.4,1.6-0.8,2.9-1.5
			c1.3-0.6,2.6-1.4,4.1-2.3c1.5-0.8,2.9-1.7,4.3-2.7c1.4-0.9,2.6-1.9,3.6-2.9c0.9-1,1.5-1.9,1.8-2.9
			C30.7,292.8,30.4,291.9,29.5,291.1z"/>
	</g>
</g>
<g id="Layer_2_xA0_Image_1_">
</g>
<g id="Plays">
	<g>
		<path class="st0" d="M9.1,315.2v-3.4h3.4v3.4H9.1z M9.1,318.5v-3.3h3.4v3.3H9.1z M9.1,321.9v-3.4h3.4v3.4H9.1z M9.1,325.3v-3.4
			h3.4v3.4H9.1z M9.1,328.7v-3.4h3.4v3.4H9.1z M9.1,332.1v-3.4h3.4v3.4H9.1z M9.1,335.4V332h3.4v3.4H9.1z M9.1,338.8v-3.4h3.4v3.4
			H9.1z M9.1,342.1v-3.3h3.4v3.3H9.1z M12.5,315.2v-3.4h3.4v3.4H12.5z M12.5,342.1v-3.3h3.4v3.3H12.5z M15.9,342.1v3.3h-3.4v-3.3
			H15.9z M15.9,315.2v-3.4h3.4v3.4H15.9z M15.9,342.1v-3.3h3.4v3.3H15.9z M19.3,342.1v3.3h-3.4v-3.3H19.3z M19.3,315.2v-3.4h3.3v3.4
			H19.3z M19.3,321.9v-3.4h3.3v3.4H19.3z M19.3,325.3v-3.4h3.3v3.4H19.3z M19.3,328.7v-3.4h3.3v3.4H19.3z M19.3,335.4V332h3.3v3.4
			H19.3z M19.3,338.8v-3.4h3.3v3.4H19.3z M19.3,342.1v-3.3h3.3v3.3H19.3z M22.6,342.1v3.3h-3.3v-3.3H22.6z M22.6,315.2v-3.4H26v3.4
			H22.6z M22.6,321.9v-3.4H26v3.4H22.6z M22.6,325.3v-3.4H26v3.4H22.6z M22.6,328.7v-3.4H26v3.4H22.6z M22.6,335.4V332H26v3.4H22.6z
			 M22.6,338.8v-3.4H26v3.4H22.6z M22.6,342.1v-3.3H26v3.3H22.6z M26,342.1v3.3h-3.4v-3.3H26z M26,315.2v-3.4h3.4v3.4H26z M26,321.9
			v-3.4h3.4v3.4H26z M26,325.3v-3.4h3.4v3.4H26z M26,328.7v-3.4h3.4v3.4H26z M26,335.4V332h3.4v3.4H26z M26,338.8v-3.4h3.4v3.4H26z
			 M29.4,315.2v-3.4h3.3v3.4H29.4z M29.4,335.4V332h3.3v3.4H29.4z M29.4,338.8v-3.4h3.3v3.4H29.4z M32.7,315.2v-3.4h3.4v3.4H32.7z
			 M32.7,318.5v-3.3h3.4v3.3H32.7z M32.7,332.1v-3.4h3.4v3.4H32.7z M32.7,335.4V332h3.4v3.4H32.7z M32.7,338.8v-3.4h3.4v3.4H32.7z
			 M36.1,318.5v-3.3h3.4v3.3H36.1z M36.1,321.9v-3.4h3.4v3.4H36.1z M36.1,325.3v-3.4h3.4v3.4H36.1z M36.1,328.7v-3.4h3.4v3.4H36.1z
			 M36.1,332.1v-3.4h3.4v3.4H36.1z M36.1,335.4V332h3.4v3.4H36.1z M36.1,338.8v-3.4h3.4v3.4H36.1z M39.5,321.9v-3.4h3.3v3.4H39.5z
			 M39.5,325.3v-3.4h3.3v3.4H39.5z M39.5,328.7v-3.4h3.3v3.4H39.5z M39.5,332.1v-3.4h3.3v3.4H39.5z M39.5,335.4V332h3.3v3.4H39.5z"
			/>
	</g>
</g>
</svg>
