<?xml version="1.0" encoding="utf-8"?>
<!-- Generator: Adobe Illustrator 19.1.0, SVG Export Plug-In . SVG Version: 6.00 Build 0)  -->
<svg version="1.1" id="Layer_1" xmlns="http://www.w3.org/2000/svg" xmlns:xlink="http://www.w3.org/1999/xlink" x="0px" y="0px"
	 viewBox="-183.1 355.4 98.4 83.6" style="enable-background:new -183.1 355.4 98.4 83.6;" xml:space="preserve">
<g id="Bennett">
	<g>
		<path d="M-86.8,360.1c1.7,1.6,2.4,3.3,2,5.1c-0.4,1.8-1.6,3.7-3.4,5.6s-4.1,3.7-6.8,5.6c-2.7,1.8-5.4,3.5-8.2,5.1
			c-2.8,1.6-5.4,3-7.8,4.3c-2.4,1.2-4.3,2.2-5.5,2.8c2.3,0.3,4.3,1.1,6.1,2.3c1.8,1.3,3.1,2.8,3.9,4.5c0.9,2.1,1.1,4.3,0.7,6.5
			c-0.4,2.2-1.3,4.4-2.6,6.6c-1.3,2.2-2.9,4.3-4.7,6.3c-1.9,2-3.9,3.9-5.9,5.6c-2.1,1.7-4.1,3.2-6.1,4.6c-2,1.3-3.7,2.4-5.2,3.1
			c-5.7,3.1-11.3,5.5-16.6,7.2c-5.3,1.8-10.2,2.9-14.6,3.4c-4.4,0.5-8.2,0.4-11.6-0.3c-3.3-0.7-5.8-2-7.5-4s-2.5-4.5-2.5-7.6
			c0.1-3.1,1.3-6.9,3.6-11.2c0.3-0.5,1-0.9,2-1.1c1.1-0.2,2.1-0.3,3.2-0.3c1.1,0,2,0.2,2.7,0.6s0.9,0.9,0.5,1.5
			c-0.4,0.8-1.1,1.9-2.1,3.4c-0.9,1.5-1.8,3-2.6,4.7c-0.8,1.7-1.3,3.4-1.5,5.1c-0.3,1.7,0.2,3.1,1.3,4.3c1,1.2,2.8,1.7,5.3,1.6
			c2.5-0.1,5.5-0.6,8.9-1.7c3.4-1.1,7.1-2.5,11.1-4.2c4-1.8,7.9-3.8,11.9-6.1c4-2.3,7.7-4.7,11.3-7.2s6.6-5,9.3-7.5
			c2.6-2.5,4.6-4.9,5.9-7.2c1.3-2.3,1.7-4.4,1.1-6.1c-0.5-1.6-1.6-2.6-3.3-3c-1.7-0.4-3.7-0.4-5.9-0.1c-2.3,0.4-4.7,1-7.2,1.9
			c-2.5,0.9-5,1.8-7.4,2.7s-4.5,1.8-6.3,2.6c-1.8,0.8-3.1,1.3-3.8,1.5c-1.5,2.1-2.8,4.5-4,7.1c-1.2,2.6-2.4,5.1-3.6,7.4
			c-0.1,0.4-0.4,0.5-0.8,0.4c-0.4-0.1-0.8-0.2-1.3-0.5c-0.4-0.3-0.8-0.5-1.2-0.9c-0.4-0.3-0.6-0.6-0.7-0.7c-0.2-0.4-0.3-0.9-0.3-1.6
			c0-0.7,0.1-1.4,0.2-2.2c0.1-0.8,0.3-1.6,0.5-2.5c0.2-0.8,0.4-1.6,0.7-2.2c-0.6,0.3-1.3,0.5-2.2,0.7c-0.9,0.1-1.7,0.1-2.5-0.1
			c-0.7-0.2-1.2-0.6-1.4-1.2s0.1-1.6,0.9-2.9c0.2-0.4,0.8-0.8,1.6-1.4s1.8-1.1,2.8-1.6s1.9-1,2.8-1.5c0.8-0.4,1.4-0.7,1.6-0.9
			c0.9-1.4,1.7-2.8,2.3-4.1c0.7-1.4,1.3-2.7,2-3.9c0.6-1.2,1.2-2.2,1.6-3.1c0.5-0.8,0.9-1.4,1.3-1.7c0.3-0.2,0.7-0.3,1.4-0.3
			c0.6,0,1.3,0.1,2,0.2c0.7,0.1,1.4,0.3,2,0.6c0.6,0.3,1,0.5,1.2,0.8c0.5,0.8,0.5,1.8,0,2.9s-0.9,2.2-1.3,3.2c1-0.2,3.1-1,6.2-2.3
			c3.1-1.3,6.6-2.9,10.5-4.8s8-4,12.1-6.2c4.1-2.3,7.8-4.4,11.1-6.6c3.3-2.1,5.8-4.1,7.5-5.9c1.7-1.8,2.2-3.2,1.3-4.1
			c-1-1-2.9-1.5-5.7-1.4c-2.8,0.1-6.1,0.6-10.1,1.5s-8.3,2.2-13.1,3.8c-4.8,1.6-9.6,3.4-14.5,5.5c-4.9,2.1-9.7,4.3-14.4,6.6
			c-4.7,2.4-9,4.8-12.9,7.2s-7.2,4.8-10,7.1c-2.8,2.3-4.6,4.5-5.4,6.5c-0.3,0.6-0.8,0.5-1.5-0.2c-0.7-0.7-1.3-1.8-1.6-3.2
			c-0.4-1.4-0.4-3.1,0-5c0.4-2,1.7-3.9,3.8-5.8c2.8-2.6,6.6-5.4,11.4-8.2c4.8-2.9,10-5.6,15.7-8.2c5.6-2.6,11.6-4.9,17.7-6.8
			c6.1-2,12.1-3.4,17.8-4.2c5.7-0.9,10.9-1.1,15.6-0.6C-93.4,356.2-89.6,357.7-86.8,360.1z"/>
	</g>
</g>
<g id="Layer_2_xA0_Image_1_">
</g>
</svg>
