<?xml version="1.0" encoding="utf-8"?>
<!-- Generator: Adobe Illustrator 19.0.1, SVG Export Plug-In . SVG Version: 6.00 Build 0)  -->
<svg version="1.1" id="Layer_1" xmlns="http://www.w3.org/2000/svg" xmlns:xlink="http://www.w3.org/1999/xlink" x="0px" y="0px"
	 viewBox="0 0 549 93.3" style="enable-background:new 0 0 549 93.3;" xml:space="preserve">
<style type="text/css">
	.st0{fill:#FFFFFF;}
</style>
<g>
	<path class="st0" d="M70.2,0c0.1,0,0.2,0.1,0.2,0.2L70.8,0h0.6c0.8,0,1.7,0.6,2.7,1.7c0.1,0,1,1,2.6,3v0.6
		c-0.3,0.5-1.7,1.2-4.2,2.2c0,0.2-2.5,1.8-7.6,4.9c-5.8,3.9-11.8,8.6-18,14C37.2,35.7,31,42.1,28.4,45.6
		C16.1,60.8,9.1,73.4,7.4,83.3c-0.1,1.1-0.2,1.9-0.2,2.6c0.1,0,0.2,0.1,0.2,0.2c3.4,0,9.9-2.8,19.3-8.5c1.1-0.4,2.3-1.1,3.8-2.1
		l5.8-3.4l0.4,0.2c2.7-2.1,4.2-3.2,4.5-3.2c1.4-0.6,2.3-1,2.5-1.4l0.7,0.2c0.6,0,1.9-0.8,3.8-2.3h-0.2l-0.7,0.4l-0.2-0.4
		c0.7-0.8,2.1-1.7,4-2.9l0.4,0.2l0.9-0.6h0.2v0.2c0,0.3-0.4,0.6-1.3,1v0.2h0.5c1.3-0.6,2.2-1.2,2.9-1.7l0.4-0.2l0.7,0.2
		c0.2-0.1,0.4-0.2,0.6-0.2l-0.2-0.4v-0.2c0.6,0,2.5-0.9,5.7-2.6v0.2c-3.9,2.5-6,4-6.5,4.5h0.2l3-1.9l0.4,0.2c1.1-1.1,2-1.7,2.9-1.7
		c0-0.3,0.1-0.4,0.4-0.4l0.4,0.2c0-0.2,0.2-0.4,0.4-0.4l0.4,0.2c1-0.5,1.5-0.8,1.7-0.9c0.3,0,0.4,0.1,0.4,0.4c0,0.1-0.6,0.6-1.7,1.3
		v0.2H64c1.4-0.6,2.3-1,2.7-1l0.5,0.7L67,60.8c0.1,0.2,0.2,0.5,0.2,0.7h-0.4v0.2H67c0.2-0.1,0.5-0.2,0.7-0.2c0,0.3,0.1,0.6,0.4,1
		c-4,3-6.3,4.5-7,4.5c-0.4,0.6-3.4,2.5-8.9,5.9c-10.8,6.7-18.4,11.4-22.9,14c-8.3,4.3-13.8,6.4-16.3,6.4h-2.8
		c-2.5,0-5.1-1.9-7.8-5.7C0.8,86.8,0,85,0,82.2c0-1.6,0.2-2.9,0.6-3.8c-0.1-0.3-0.2-0.5-0.2-0.6c0.2,0,0.5-0.8,0.9-2.5
		c-0.1,0-0.2-0.1-0.2-0.2c0.2-0.2,1.6-3.5,4.2-9.8l4.9-8c3.4-6,9.6-14.2,18.7-24.6c6.7-6.9,11.5-11.3,14.2-13.4
		c0.7-1.1,1.1-1.7,1.3-1.7c0.6-1.2,1.9-2.1,3.8-2.7c0.3-0.2,1.2-1.4,2.8-3.6c0.1,0,0.2,0.1,0.2,0.2c4.3-2.7,6.9-4.6,7.7-5.9
		c0-0.8,1.1-1.8,3.4-3c0-0.2,0.8-0.7,2.5-1.5c0.1,0,0.3,0.1,0.6,0.2c0.3,0,1.1-0.2,2.2-0.7l0.4,0.2L70.2,0z M4.7,69.1
		c0,0.2,0.1,0.4,0.4,0.4l0.2-0.4H4.7z M12.5,55.3c0,0.2-0.3,0.7-0.9,1.7v0.2h0.2c0-0.2,0.3-0.8,1-1.7v-0.2H12.5z M16.7,49.4l-2.3,3
		h0.2c1.1-1,1.8-2,2.2-3H16.7z M21.6,43h0.6v-0.4H22C21.7,42.6,21.6,42.8,21.6,43z M22.1,42.4h0.4c0-0.2,0.2-0.5,0.6-0.9h-0.2
		C22.6,41.5,22.4,41.8,22.1,42.4z M23.3,40.9v0.2h0.4c0-0.1,0.1-0.3,0.2-0.6h-0.2C23.4,40.5,23.3,40.7,23.3,40.9z M45.8,68.2H46
		c0.3,0,0.4-0.1,0.4-0.4h-0.2C46,67.8,45.8,68,45.8,68.2z M45.8,69.3H46c0.6-0.3,0.9-0.5,0.9-0.7C46.2,68.8,45.8,69.1,45.8,69.3z
		 M47.7,67.8v0.4h0.2c0.5-0.2,0.7-0.4,0.7-0.6h-0.2C48.2,67.7,48,67.8,47.7,67.8z M48.6,65.1v0.2h0.2c0.2-0.1,0.4-0.2,0.5-0.2V65
		h-0.2C49,65.1,48.8,65.1,48.6,65.1z M51.7,65.3c0.1,0.3,0.2,0.4,0.4,0.4l0.2-0.4H51.7z M56.6,8.3l-0.2,0.4c0.2-0.1,0.4-0.2,0.6-0.2
		V8.3H56.6z M62.3,61v0.4h0.2c0.2-0.1,0.4-0.2,0.6-0.2v-0.4h-0.2C62.6,60.9,62.4,61,62.3,61z"/>
	<path class="st0" d="M123.8,11.2c2.1,0.6,3.2,1.4,3.2,2.5c1.8,3.3,2.7,5.5,2.7,6.8c-0.2,1.6-0.4,2.6-0.4,2.9c0.1,0,0.6-0.2,1.3-0.6
		c0.1,0.1,0.4,0.2,0.8,0.2c0-0.3,0.5-0.4,1.6-0.4v0.4l0.8-0.2v0.2c0.1,0,0.2-0.1,0.2-0.2l1.1,0.2h0.4v0.4l-0.5,0.7
		c0.1,0.2,0.1,0.4,0.1,0.5c-1.8,1.1-4.4,2.3-7.8,3.9l-0.2,0.4v0.2c4.6-2.1,7.5-3.5,8.7-4.2l0.2,0.4c-0.6,1.4-3.2,3-7.7,4.7v0.2
		c0.1,0.2,0.1,0.4,0.1,0.5h-0.3l-0.5-0.4h-0.3l0.2,0.4c-0.1,0.3-0.2,0.5-0.2,0.6h-0.2l-0.8-0.2c0,0.2-0.2,0.5-0.6,0.9
		c0.1,0,0.2,0.1,0.4,0.2c0.2-0.1,0.4-0.2,0.5-0.2c0,0.1,0.1,0.2,0.2,0.2l1.5-1.1l0.3,0.2c0.5-0.4,0.9-0.6,1.1-0.6v0.2
		c-0.1,0.3-1.2,0.9-3.2,1.8c0,0.3,0.2,0.4,0.5,0.4v0.4c-2.1,0.7-3.1,1.5-3.1,2.5l-0.3,0.6c0.1,0.2,0.2,0.4,0.2,0.5
		c-0.4,0.2-2.2,3.1-5.4,8.8c-3.5,5.5-6.4,10.5-8.8,15c-0.9,1.7-1.8,2.7-2.7,3.1c-1.7,3.5-3.1,5.3-4,5.5v0.4c0.2,0,0.3,0.1,0.3,0.2
		c0,0.2-0.7,1.1-2.2,2.8c-1.1-1.5-2-2.2-2.5-2.2h-1l0.1-0.9l-1.4-1.5c-0.3,0-0.5-0.2-0.5-0.7c0.6-1.7,3.6-6.7,9-15.2
		c0-0.6,1.4-2.8,4-6.8l0.8-1.5v-0.2l-4.5,1.8c0-0.1-0.1-0.2-0.2-0.2c-0.1,0.6-4.8,2.8-13.9,6.8c-0.5,0.4-1.5,0.9-3,1.6
		c-2.9,5-4.9,8.3-5.9,9.9c-1.4,2.3-2.2,3.5-2.4,3.5v-0.2c0.3-0.5,0.5-0.8,0.5-1.1h-0.4c-0.7,1.6-1.7,3.2-2.9,4.7l0.1,0.4v0.4h-0.1
		l-0.3-0.2c-0.8,1-2.3,2.4-4.5,4h-0.2c-0.4-0.4-0.9-0.7-1.5-0.9l0.2-0.4c0-0.1-0.6-0.6-1.8-1.5l-1,0.2c-0.2,0-0.3-0.1-0.3-0.4v-0.2
		l0.3-0.5c-0.7-0.3-1.1-0.6-1.1-0.9v-0.6c-0.2,0-0.3-0.1-0.3-0.4c0.9-0.8,2.6-3.3,5.1-7.5v-0.2c-5.8,2.9-9.3,4.5-10.4,4.8
		c-0.3-0.4-0.6-0.6-1-0.6c-0.5-0.5-1.1-1.2-1.8-2.2c-1-1.1-1.6-1.6-1.8-1.6c-0.3,0-0.5-0.1-0.5-0.4l0.2-0.4
		c-0.5-0.4-0.9-0.9-1.1-1.5v-0.9c1.1-0.7,3.2-1.7,6.2-3.1c3.1-1.7,4.8-2.5,5.1-2.5c3-1.9,7.7-4.4,14.1-7.3c0.8-0.1,2.1-1.8,3.9-5.1
		c5.2-8.7,8.2-13.8,9.3-15.2H94v0.2l-0.8,1.5V28c0.9-1.1,2.5-4,4.8-8.6c0.4-0.4,1.1-1.7,1.9-3.8l0.3-0.2c2,0,3.8,2.4,5.4,7.1v0.4
		c-3.6,6.9-6.2,11.6-7.8,14.1c-0.4,0.7-0.7,1.2-0.7,1.5h0.2c0.6-0.4,2.4-1.3,5.4-2.5c10-4.9,15-7.3,15.2-7.3
		c0.3-0.4,0.9-1.5,1.8-3.3c0.1,0,0.5-0.5,1.1-1.5h0.4l-0.2-0.9l0.3-0.2c0,0.1,0.1,0.2,0.2,0.2c0-0.2,0.4-1.2,1.3-2.9
		c0.4-1.2,0.8-2.5,1.1-3.8c-0.2,0-0.3-0.1-0.3-0.4v-0.4c0.2-0.3,0.4-0.9,0.5-1.8l-0.5-2.2C123.7,11.3,123.8,11.3,123.8,11.2z
		 M79.9,65.7v0.2c0.1,0,0.3-0.2,0.5-0.6v-0.2C80.2,65.1,80,65.3,79.9,65.7z M85.3,41.4c0.1,0,0.4-0.3,0.6-0.9v-0.2
		C85.5,40.5,85.3,40.9,85.3,41.4z M88.5,52.7h0.2c0.2,0,0.3-0.1,0.3-0.4h-0.1C88.6,52.4,88.5,52.5,88.5,52.7z M90.3,51.6v0.2h0.2
		c2.1-0.8,3.2-1.4,3.2-1.6h-0.2C91.5,51.1,90.4,51.6,90.3,51.6z M92.9,28.6v0.2c0.2,0,0.3-0.1,0.3-0.4v-0.2
		C93,28.2,92.9,28.3,92.9,28.6z M96.2,21.8l0.2,0.4c-0.1,0-0.4,0.4-1,1.1h-0.2v-0.2C95.8,22.2,96.1,21.8,96.2,21.8z M98.1,47.9v0.2
		h0.2c0.2-0.1,0.4-0.2,0.6-0.2v-0.2h-0.3C98.4,47.9,98.2,47.9,98.1,47.9z M99.2,47.4v0.4c0.4-0.3,0.6-0.4,0.8-0.4v-0.2h-0.4
		C99.5,47.3,99.3,47.4,99.2,47.4z M100.2,47.2h0.2c0.2,0,0.3-0.1,0.3-0.4h-0.1C100.3,46.9,100.2,47,100.2,47.2z M100.9,46.7v0.2h0.3
		c0.2-0.1,0.4-0.2,0.5-0.2v-0.2h-0.2C101.3,46.6,101.1,46.7,100.9,46.7z M102.6,46.1h0.3c0.2,0,0.4-0.1,0.4-0.4h-0.4
		C102.7,45.8,102.6,45.9,102.6,46.1z M103.4,45.7h0.2c1.1-0.4,1.7-0.8,1.9-1.1h-0.4C104,45.2,103.4,45.6,103.4,45.7z M105.6,44.5
		v0.2h0.3c1.4-0.7,2.3-1.1,2.6-1.1v-0.2h-0.7C106.6,44.1,105.8,44.5,105.6,44.5z M106.8,38.4h0.1c0.4-0.3,1-0.5,1.8-0.7v-0.4
		C107.4,37.9,106.8,38.2,106.8,38.4z M109.3,43h0.2c0.4-0.2,0.6-0.4,0.6-0.5H110C109.6,42.6,109.3,42.8,109.3,43z M110.8,36.2v0.2
		h0.8c1.1-0.7,1.9-1.1,2.2-1.1v-0.2h-0.5C112.8,35.5,111.9,35.9,110.8,36.2z M125.3,33.5v0.2h0.2c0.2-0.1,0.4-0.2,0.5-0.2v-0.4h-0.3
		C125.4,33.2,125.3,33.3,125.3,33.5z M130.2,29.6c0,0.3-0.4,0.5-1.3,0.7V30C129.6,29.8,130,29.6,130.2,29.6z M130.5,29.3h0.3v0.4
		h-0.6C130.2,29.4,130.3,29.3,130.5,29.3z"/>
	<path class="st0" d="M190.2,12.1c0,0.1,0.2,0.3,0.7,0.7v0.3c-0.4,0.4-1.6,1-3.9,1.8l-0.3-0.1c-1.2,0.9-2.7,1.6-4.6,2.1
		c0,0.1-0.1,0.1-0.2,0.1c-0.6,0-2.3,0.6-5.1,1.8c-0.2,0-1.3,0.5-3.3,1.4c-1.4,0.6-2.4,1-3,1.1c-2.5,1.2-5.6,2.5-9.1,3.9l0.1,0.3v0.3
		c-0.1,0.3-0.4,0.4-0.8,0.4h-0.1l-0.3-0.1c0,0.1,0,0.2-0.1,0.4l-0.3-0.1h-0.3l0.1,0.3v0.1c-0.4,0-2.1,0.6-4.8,1.8l-6.5,2.4
		c-0.9,3.4-2.4,7.8-4.4,13.3h0.1c3-1.2,5.3-2.1,6.9-2.5c2.1-1.2,5.1-2.5,8.9-4c0,0.1,0,0.1,0.1,0.1c0-0.2,1.8-1,5.5-2.2
		c2.3-1.1,4-1.7,5.1-1.7h0.1l1,0.1l-0.1-0.3c1.1-0.6,1.8-0.8,2.2-0.8c-0.1,0.3-0.4,0.4-0.8,0.4v0.1h0.5c0.8-0.4,1.6-0.6,2.2-0.6
		l0.1,0.3c0.5-0.1,0.9-0.2,1.1-0.4h0.1v0.6h0.1l0.4-0.3h0.7v0.3c-0.2,0-0.4,0.1-0.7,0.4l0.1,0.3c0,0.4-1.6,1.1-4.8,2.1v0.1h0.4
		c1.3-0.4,2.1-0.7,2.4-0.8l0.3,0.1c0-0.1,0.1-0.3,0.4-0.4l0.6,0.3c0-0.3,0.1-0.4,0.3-0.4h0.1c0,0.1,0.1,0.3,0.4,0.6
		c-0.2,0-1.3,0.5-3.3,1.5c-2,0.9-3.3,1.3-3.7,1.4v0.1h0.3c0.1,0,0.2,0,0.4-0.1l0.6,0.1c0.6-0.1,1.3-0.3,2.2-0.7l0.1,0.3v0.1
		l-1.4,0.4c0-0.1,0-0.1-0.1-0.1c0,0.1-0.1,0.1-0.2,0.1L173,39v0.1c-0.2,0-1.3,0.6-3.3,1.7c-0.3,0-1.2,0.5-2.8,1.4v0.1h0.1l0.7-0.1
		c-0.5,0.5-1,0.7-1.5,0.7l0.1,0.3v0.1l-0.4-0.3c-0.2,0.2-0.5,0.3-0.7,0.3l0.1,0.3v0.1l-0.4-0.3h-0.3v0.3h-0.4v-0.3
		c0.1,0,0.7-0.2,1.8-0.7v-0.1h-0.3c-1.9,0.5-4.6,1.6-8.2,3.2V46h0.1c0.2,0,0.6-0.1,1.1-0.4v0.1c0,0.1-0.7,0.5-2.2,1.1
		c0,0.5-2.5,1.6-7.5,3.5c0-0.1,0-0.1-0.1-0.1c-0.4,0.6-1.9,1.3-4.4,1.9c-3.6,1.3-5.4,2.2-5.4,2.5c-2.5,5.1-3.7,7.7-3.7,7.9h0.1
		l15.1-5.8c0,0.1,0.1,0.1,0.2,0.1c0-0.3,1.1-0.8,3.3-1.5c3.5-1.6,5.9-2.5,7.2-2.8c0.2,0.1,0.4,0.1,0.6,0.1c0.1,0,0.2,0,0.4-0.1
		l0.3,0.1c1.2-0.4,2.2-0.8,3.1-1.2l0.1,0.3c-0.4,0.1-0.6,0.3-0.6,0.4h0.3l0.4-0.3l0.4,0.3c0.4-0.2,0.7-0.3,1.1-0.3
		c-0.1,0.5-0.3,0.8-0.4,0.8l-0.1-0.3h0.3c0-0.2-0.1-0.3-0.3-0.3c0,0.2-0.2,0.4-0.6,0.5l0.3,0.6c-1.1,0.5-2.3,1.1-3.6,1.9
		c-2.6,0.9-3.9,1.4-3.9,1.7h0.1l4.3-1.7h0.3l0.3,0.4c0,0.2-0.4,0.4-1.2,0.5l0.1,0.3c-0.5,0.3-2.4,1.2-5.8,2.6c0,0.2,0.1,0.3,0.4,0.3
		c2.3-0.9,3.6-1.4,3.7-1.4l0.1,0.3l-7.6,3.7l-5.8,2.8c-0.8,0-2.9,0.7-6.4,2.1c0,0.2-0.8,0.7-2.4,1.5v0.2c0.4-0.1,0.7-0.3,1-0.4h0.1
		v0.3c-0.5,0.2-0.8,0.4-0.8,0.7c-0.1,0-0.2,0-0.2-0.1c-0.4,0.1-0.7,0.1-1,0.1l0.1,0.3v0.2l-0.4-0.3h-0.1c0,0.6-1.2,1.2-3.5,1.8
		c-3,1.2-4.6,2-4.6,2.4c-0.6,1.2-1.1,1.8-1.5,1.9l-0.7-0.1c0,0.2-0.1,0.3-0.3,0.3h-0.3c0-0.3-0.5-0.7-1.4-1.2c0-0.1-0.2-0.3-0.7-0.6
		c0-0.5-0.1-0.7-0.4-0.7l-1,0.6h-0.1v-0.3c0.5-0.8,0.8-1.5,1-2.1c0-0.3-0.4-0.5-1.1-0.7l-0.1-0.3l0.1-0.3c-0.5-0.3-0.8-0.9-1.1-1.7
		v-0.3c0.2-0.4,1.5-1,3.9-1.9c0.2-0.7,0.6-1.5,1.3-2.2h0.1l-0.1-0.3c1.7-2.2,2.8-4.2,3.3-6.2c-0.4,0.1-0.7,0.3-1,0.4
		c-1-0.3-2-1.1-3-2.4c-1.4-1.5-2.1-2.4-2.1-2.9l-0.2-0.7c1.3-1,5.1-2.4,11.3-4.3c0.4,0,1.3-2.3,2.9-6.8c0.6-1.3,1.1-2.3,1.2-3.2
		l0.3-0.1l-0.1-0.3c0.2,0,0.6-1.2,1.2-3.7c-0.4,0.3-0.8,0.4-1.1,0.4h-0.4c-1.9-0.7-3.1-1.4-3.6-2.1v-0.1c0-0.4,2.3-1.3,6.9-2.8
		l0.7-1v-0.6l-0.3-0.4c0-0.2,0.1-0.3,0.3-0.3c0,0.1,0,0.1,0.1,0.1c0.3-0.4,0.5-0.7,0.6-0.7c0.4,0,1.4,0.4,2.8,1.2h0.1
		c6.5-2.2,17-6.2,31.4-12C184.8,13.1,188.6,12.1,190.2,12.1z M158,57.1c0,0.2,0.1,0.3,0.3,0.3l0.1-0.3H158z M165.2,54.6v0.1
		c0,0.2-0.1,0.3-0.3,0.3h-0.7C164.2,54.8,164.5,54.7,165.2,54.6z M168.5,41.7v0.1c0,0.2-0.1,0.3-0.3,0.3h-0.4v-0.3
		C168.1,41.9,168.4,41.8,168.5,41.7z M170.5,34.3c0,0.2,0.1,0.3,0.3,0.3l0.1-0.3H170.5z M171.6,36.6v0.1h0.1l0.7-0.1v-0.3h-0.1
		C172,36.5,171.7,36.6,171.6,36.6z M175.3,37.4h0.4c0,0.2-0.2,0.3-0.7,0.4v-0.1C175.1,37.5,175.2,37.4,175.3,37.4z"/>
	<path class="st0" d="M220.8,12.3c0.1,0,0.1,0,0.1,0.1l0.3-0.1h0.4c0.5,0,1.1,0.4,1.8,1.1c0.1,0,0.7,0.7,1.8,2v0.4
		c-0.2,0.3-1.1,0.8-2.8,1.5c0,0.1-1.7,1.2-5.1,3.3c-3.9,2.6-8,5.8-12.1,9.4c-6.6,6.2-10.7,10.5-12.5,12.9
		c-8.3,10.3-13,18.8-14.2,25.4c-0.1,0.7-0.1,1.3-0.1,1.8c0.1,0,0.1,0,0.1,0.1c2.3,0,6.7-1.9,13-5.8c0.7-0.3,1.6-0.7,2.5-1.4l4-2.3
		l0.3,0.1c1.8-1.5,2.8-2.2,3.1-2.2c1-0.4,1.5-0.6,1.7-0.9l0.5,0.1c0.4,0,1.2-0.5,2.5-1.5h-0.1l-0.5,0.3l-0.1-0.3
		c0.5-0.5,1.4-1.2,2.7-1.9l0.3,0.1l0.6-0.4h0.1v0.1c0,0.2-0.3,0.4-0.9,0.6v0.1h0.4c0.8-0.4,1.5-0.8,1.9-1.1l0.3-0.1l0.5,0.1
		c0.1-0.1,0.3-0.1,0.4-0.1l-0.1-0.3v-0.1c0.4,0,1.7-0.6,3.8-1.8v0.1c-2.6,1.7-4,2.7-4.3,3h0.1l2-1.3l0.3,0.1
		c0.7-0.8,1.3-1.1,1.9-1.1c0-0.2,0.1-0.3,0.3-0.3l0.3,0.1c0-0.2,0.1-0.3,0.3-0.3l0.3,0.1c0.6-0.3,1-0.5,1.1-0.6
		c0.2,0,0.3,0.1,0.3,0.2c0,0.1-0.4,0.4-1.2,0.9v0.1h0.1c1-0.4,1.6-0.7,1.8-0.7l0.4,0.5l-0.1,0.3c0.1,0.1,0.1,0.3,0.1,0.5h-0.3v0.1
		h0.1c0.1-0.1,0.3-0.1,0.5-0.1c0,0.2,0.1,0.4,0.3,0.7c-2.7,2-4.2,3-4.7,3c-0.3,0.4-2.3,1.7-6,4c-7.3,4.6-12.4,7.7-15.4,9.4
		c-5.6,2.9-9.3,4.4-11,4.4h-1.9c-1.7,0-3.4-1.3-5.2-3.8c-1.1-0.6-1.7-1.8-1.7-3.7c0-1.1,0.1-1.9,0.4-2.5c-0.1-0.2-0.1-0.3-0.1-0.4
		c0.1,0,0.4-0.6,0.6-1.7c-0.1,0-0.1,0-0.1-0.1c0.2-0.1,1.1-2.4,2.8-6.6l3.3-5.4c2.3-4.1,6.5-9.6,12.6-16.6c4.5-4.6,7.7-7.6,9.6-9.1
		c0.5-0.8,0.8-1.1,0.9-1.1c0.4-0.8,1.2-1.4,2.5-1.8c0.2-0.1,0.8-0.9,1.9-2.4c0.1,0,0.1,0,0.1,0.1c2.9-1.8,4.6-3.1,5.2-4
		c0-0.6,0.8-1.2,2.3-2.1c0-0.1,0.6-0.5,1.7-1c0.1,0,0.2,0,0.4,0.1c0.2,0,0.7-0.2,1.5-0.5l0.3,0.1L220.8,12.3z M176.7,58.8
		c0,0.2,0.1,0.3,0.2,0.3l0.1-0.3H176.7z M181.9,49.5c0,0.1-0.2,0.5-0.7,1.2v0.1h0.1c0-0.1,0.2-0.5,0.7-1.1v-0.1H181.9z M184.7,45.5
		l-1.5,2.1h0.1C184,46.9,184.5,46.2,184.7,45.5L184.7,45.5z M188,41.2h0.4V41h-0.1C188.1,41,188,41.1,188,41.2z M188.4,40.8h0.3
		c0-0.1,0.1-0.4,0.4-0.7h-0.1C188.7,40.2,188.5,40.4,188.4,40.8z M189.1,39.8v0.1h0.3c0-0.1,0-0.2,0.1-0.4h-0.1
		C189.2,39.6,189.1,39.7,189.1,39.8z M204.3,58.2h0.1c0.1,0,0.2-0.1,0.2-0.3h-0.1C204.4,57.9,204.3,58,204.3,58.2z M204.3,58.9h0.1
		c0.4-0.1,0.6-0.3,0.6-0.5C204.6,58.6,204.3,58.8,204.3,58.9z M205.6,57.9v0.3h0.1c0.3-0.1,0.5-0.3,0.5-0.4h-0.1
		C206,57.9,205.8,57.9,205.6,57.9z M206.2,56.1v0.1h0.1c0.2-0.1,0.3-0.1,0.4-0.1V56h-0.1C206.5,56.1,206.3,56.1,206.2,56.1z
		 M208.3,56.3c0,0.2,0.1,0.3,0.2,0.3l0.1-0.3H208.3z M211.6,17.8l-0.1,0.3c0.2-0.1,0.3-0.1,0.4-0.1v-0.1H211.6z M215.4,53.3v0.2h0.1
		c0.2-0.1,0.3-0.1,0.4-0.1v-0.2h-0.1C215.6,53.3,215.5,53.3,215.4,53.3z"/>
	<path class="st0" d="M255.9,12.3v0.1l0.3-0.1c1,0.3,2.4,1.4,4.2,3.3v0.7c-1.4,3-4.1,7.8-8.3,14.3c0,0.2,0.1,0.3,0.3,0.3
		c0-0.1,0.2-0.3,0.7-0.5c0,0.1,0,0.1,0.1,0.1l-0.1,0.3v0.1h0.1l0.4-0.3c0.2,0.1,0.3,0.1,0.4,0.1c0-0.1,1-0.6,3-1.3
		c2.1-0.8,3.3-1.5,3.7-1.9h0.1c0.1,0,0.1,0,0.1,0.1c1.9-0.7,3.3-1.5,4.3-2.2c0.6-0.3,1.2-0.5,2.1-0.8c0-0.1,0.3-0.3,0.8-0.8
		c-0.2-0.1-0.3-0.1-0.4-0.1v-0.1c0.6-0.5,1.7-1,3.5-1.5l-0.3,0.4v0.1c1.2-0.4,2.9-1,5.1-2l1.8-0.6c0,0.1,0.1,0.2,0.3,0.2l0.3-0.1
		c0.9,0.3,1.3,0.8,1.3,1.5c0.4,0,1,0.9,1.8,2.6v0.4c-0.5,0-2.5,0.9-6.2,2.7c-0.3,0-0.7,0.2-1.3,0.7h0.1c2.8-1.3,4.8-2.1,6.1-2.5v0.2
		c-2.8,1-5.2,2.2-7.4,3.5l-5.6,2.3c-1.4,0.9-4.6,2.4-9.6,4.7L245,42v0.3c4.6,4.9,8.9,9.1,13.1,12.6c1.6,1.1,4.7,3.8,9.5,8
		c0.9,0.6,1.8,1.7,2.6,3.1c0.1,0,0.1,0,0.1,0.1l-0.3,0.7c-1.3,0-5.6-3.2-12.8-9.6c-2-1.3-4.7-3.9-8.3-7.5c0-0.1-1.7-2.1-5.2-5.7
		v-0.1h-0.3c-9.3,14.7-15.9,25-19.9,31l-0.5,0.4l-0.3-0.1c-0.1,0.1-0.3,0.1-0.4,0.1c-0.2-0.1-0.3-0.1-0.4-0.1c0,0.1-0.2,0.3-0.5,0.5
		l-0.1-0.3l0.4-0.5v-0.3c-0.3,0-0.7-0.2-1.5-0.7c-0.3,0-0.6-0.3-0.9-0.8h-0.1c-0.1,0.1-0.3,0.1-0.5,0.1c-0.4-0.6-0.8-0.9-1.1-0.9
		v-0.4c1.5-2.6,2.9-4.6,4.2-5.9c-0.2,0-0.3-0.1-0.3-0.3l1.8-2.3c-0.1,0-0.1,0-0.1-0.1c0.4,0,0.7-0.6,0.9-1.7c0.1,0,2.9-4.4,8.4-13.2
		h-0.3c-7.1,3.6-10.9,5.9-11.3,6.9c-0.1,0-0.3,0-0.8,0.1c0-0.2-0.4-0.4-1.1-0.5v-0.1l0.1-0.3c-0.4-0.2-0.5-0.6-0.5-1.1h-0.8
		c-0.1,0-0.3-0.3-0.7-0.9c-0.7,0-1-0.3-1-0.9c-0.4-0.2-0.5-0.4-0.5-0.7c0-0.5,1.2-1.5,3.6-3c7.2-3.9,12.3-6.5,15.2-7.8
		c2-0.9,3.2-1.6,3.8-2.1v-0.3h-0.1c-0.5,0.2-0.8,0.4-0.8,0.5h-0.1c-0.2,0-0.3-0.1-0.3-0.3c0.6-0.2,0.9-0.5,0.9-0.7
		c-0.6-0.5-1.4-1.5-2.5-3.1c-0.1,0-0.5-0.3-0.9-0.9c0.1,0,0.4-0.2,0.9-0.5l0.3,0.1c0.1-0.1,0.3-0.1,0.5-0.1c1.1,0.9,2.3,2.2,3.6,3.7
		h0.1l2.6-3.6c0.4-0.3,1.1-1.3,2.1-3c1.4-1.9,2.6-3.8,3.6-5.7c0.4-0.4,2.1-3,4.9-7.9v-0.4l-0.3,0.1v-0.3c1.1-1.4,1.8-2.4,2.2-3v-0.4
		L255.9,12.3z M248.3,39.6v0.1h0.1c0.2-0.1,0.3-0.1,0.4-0.1v-0.1h-0.1C248.5,39.6,248.4,39.6,248.3,39.6z M249.3,39.1v0.1h0.4
		c0-0.2,0.2-0.3,0.6-0.4v-0.3C249.9,39,249.6,39.1,249.3,39.1z M250.6,38.5v0.1h0.3c0.2-0.1,0.3-0.1,0.4-0.1v-0.3h-0.1
		C250.9,38.4,250.8,38.5,250.6,38.5z M251.4,31.5v0.3c0.4-0.1,0.5-0.2,0.5-0.4v-0.1C251.7,31.4,251.6,31.5,251.4,31.5z M251.4,38.1
		v0.1h0.3c0.2-0.1,0.3-0.1,0.4-0.1v-0.3C251.8,38,251.6,38.1,251.4,38.1z M252.1,30.9c0,0.2,0.1,0.3,0.3,0.3h0.2
		c0-0.2-0.1-0.3-0.2-0.3H252.1z M252.3,18.9c0.1,0,0.4-0.4,0.9-1.3v-0.1h-0.1C252.9,17.4,252.7,17.9,252.3,18.9z M252.3,37.7v0.1
		h0.2c1.1-0.5,1.6-0.8,1.6-0.9H254C253,37.4,252.5,37.7,252.3,37.7z M254.3,36.8v0.1h0.4c0-0.2,0.2-0.3,0.6-0.4v-0.3
		C254.8,36.6,254.4,36.8,254.3,36.8z M256.3,35.8v0.1h0.3c0.9-0.4,1.3-0.7,1.3-0.8h-0.1C257,35.6,256.5,35.8,256.3,35.8z
		 M258.7,34.8h0.1c1.3-0.7,2.1-1.1,2.3-1.1v-0.3H261C259.4,34.3,258.7,34.8,258.7,34.8z M261.3,33.4L261.3,33.4l0.3,0.1
		c1.1-0.5,1.7-0.8,1.7-0.9H263C262,33.2,261.4,33.4,261.3,33.4z M263.7,32.3v0.1h0.3c0.5-0.2,0.8-0.4,0.8-0.5h-0.1
		C264.2,32.1,263.9,32.3,263.7,32.3z M264.9,31.9h0.1c0.2,0,0.3-0.1,0.3-0.3h-0.1C265,31.6,264.9,31.7,264.9,31.9z M265.4,31.5v0.1
		h0.3c1.9-0.9,3-1.4,3.2-1.4v-0.3h-0.1L265.4,31.5z M269,29.9h0.3c0.4-0.3,1.2-0.6,2.3-1.1v-0.1h-0.2
		C269.9,29.4,269.2,29.8,269,29.9z M269.6,22.9V23h0.1c0.2-0.1,0.3-0.1,0.4-0.1v-0.1H270C269.8,22.9,269.6,22.9,269.6,22.9z
		 M271.5,24.9L271.5,24.9c0.3,0,0.4-0.1,0.4-0.3h-0.1C271.6,24.6,271.5,24.7,271.5,24.9z M272.7,28.1v0.3h0.1
		c0.4-0.1,0.5-0.2,0.5-0.4h-0.3C272.9,28.1,272.8,28.1,272.7,28.1z M273.5,28h0.4v-0.3h-0.1C273.6,27.8,273.5,27.8,273.5,28z"/>
	<path class="st0" d="M344.1,11.8V12l-0.3,0.5v0.2h0.6c0.4-0.4,1.2-0.5,2.4-0.5c1.5,0.3,2.2,0.9,2.2,1.9v0.2
		c-0.1,0.2-0.2,0.4-0.2,0.5c0.5,0,0.7,0.2,0.7,0.5v0.2c-0.6,0.6-0.9,0.9-0.9,1.1l-0.3-0.2h-0.7c0,0.2,0.2,0.4,0.6,0.4v0.4l-0.7-0.2
		l-0.1,0.4c0.5,0,0.7,0.1,0.7,0.4c-0.2,0-0.6,0.3-1.2,0.9c-0.4,0-1.6,0.5-3.7,1.4v0.2h0.1c1-0.4,1.6-0.7,1.9-0.9l0.1,0.4
		c-0.8,0.5-2.7,1.4-5.7,2.7v0.2h0.1l0.7-0.2v0.4c-0.4,0-1.5,0.5-3.1,1.6c-1.5,0.4-4.2,1.5-8.3,3.5v1.1l0.3,0.5
		c-1.3,1.7-3.4,5.1-6.3,10.2c-1,1.2-2.6,3.6-4.7,7.4c-0.1,0-1.6,2.1-4.3,6.4h0.2c1.8-0.9,3.6-1.6,5.6-2.1v0.2l-0.1,0.4h0.1
		c0.4-0.2,0.8-0.4,1.2-0.7c0.1,0,0.1,0.1,0.1,0.2c1.7-1,3.2-1.5,4.6-1.6l0.9,0.2c0.7-0.4,1.7-0.7,2.9-0.9c0,0.2,0.2,0.4,0.6,0.4v0.4
		c-0.4,0-0.9,0.5-1.6,1.6c-3.7,1.4-5.6,2.3-5.8,2.6h0.2c0.1,0,1.5-0.6,4.4-1.8c0.3,0.2,0.5,0.4,0.7,0.4v0.4l-4.6,2.5l-0.4,0.5
		l-0.9-0.2l0.1,0.4c-0.3,0-0.8,0.2-1.3,0.7H321v0.2c0.5,0,0.7,0.3,0.7,0.9h-0.1l-0.4-0.4H321v0.4h0.4c0,0.2-0.1,0.4-0.3,0.4h-0.3
		v-0.4h-0.3l0.1,0.4v0.2c-0.2,0-0.4-0.1-0.6-0.2c-0.1,0-0.4,0.3-0.9,0.9h-0.1l-0.3-0.2c-0.5,0.8-1,1.2-1.5,1.2v0.2h0.1l1.1-0.4v0.4
		c-0.3,0-2.7,1.3-7.4,3.9v0.2h0.1c0.6-0.2,1-0.4,1.1-0.4v0.4c-0.4,0-2.3,1.1-5.6,3.3c-0.1,0.3-1.1,0.8-3.1,1.6
		c0,0.2-0.5,0.8-1.6,1.8c0,0.1-0.1,0.3-0.4,0.5h-0.1l0.3-0.7h-0.1c-1.2,1.8-2,2.6-2.4,2.6c-0.8,0.7-1.9,1.4-3.3,1.9
		c-0.9-0.3-1.3-0.6-1.3-0.9H294c-1,0-2-0.9-2.9-2.8c-0.3-0.4-0.9-0.9-1.8-1.5c0-0.8-0.3-1.6-1-2.5v-0.7L289,66l1,0.2h1.5
		c4-2.2,6-3.5,6-3.7c0-0.5,1.5-2.7,4.4-6.5h0.1c0.1,0,0.2,0.1,0.2,0.2c0.4-0.2,0.6-0.4,0.6-0.5v-0.2l-0.4,0.4h-0.1v-0.2
		c0.4-1.2,1.1-1.8,2.1-1.8v-0.2c-0.2,0-0.3-0.1-0.3-0.4c1.1-0.6,2.4-2.3,3.8-5c0.1,0,1.1-1.4,3.1-4.2l-0.2-0.4
		c0.1-0.2,0.2-0.4,0.2-0.5l-0.7,0.7h-0.2c0.3-0.6,0.6-0.9,0.9-0.9c0.2,0.1,0.3,0.2,0.4,0.2c1.8-2.7,2.8-4.1,2.8-4.3
		c-0.2,0-0.3-0.1-0.3-0.4h0.1l0.3,0.2c0-0.2,0.1-0.4,0.3-0.4l-0.1-0.4v-0.4c0.4,0,0.6-0.1,0.6-0.2l-0.1-0.4c0.1-0.4,0.2-0.5,0.3-0.5
		h0.4c0.6-1.2,1.1-1.8,1.3-1.8v-0.2h-0.1c-1.9,1.1-4.7,2.4-8.3,4c-2,1.2-3.3,1.8-4,1.8h-0.6c-0.7-0.4-1.3-1-1.8-1.9
		c0-0.5-0.7-1.5-2.2-3c0-0.4-0.2-1.1-0.7-1.9c0.1-0.5,0.6-1,1.6-1.6v-0.4h0.2l0.4,0.4c0.6-0.7,2.2-1.6,4.7-2.7
		c0.8-0.5,2.3-1.2,4.6-2.1c0.7-0.5,3-1.7,7.1-3.7c3.4-1.9,10-5,19.8-9.4c1.2-0.6,2.9-1.2,5.3-1.8L344.1,11.8z M297.9,62.3h0.4
		c0.1,0,0.3-0.2,0.6-0.7h-0.1C298.2,61.9,297.9,62.1,297.9,62.3z M302.9,55.2h0.1c0.2,0,0.3-0.1,0.3-0.4h-0.1
		C303,54.9,302.9,55,302.9,55.2z M307.1,67.8h0.4c0,0.2-0.1,0.4-0.3,0.4h-0.2V67.8z M317,58.8l-0.3-0.2h-0.3c0,0.2-0.3,0.4-0.9,0.7
		l-0.3,0.5V60h0.1c0.6-0.5,1-0.7,1.2-0.7v0.2l1.5-1.1c-0.1-0.2-0.1-0.4-0.1-0.5h-0.1C317.3,58.2,317.1,58.5,317,58.8z M319.5,57
		l0.1,0.4c-1,0.1-1.5,0.2-1.5,0.5c0,0.2,0.1,0.4,0.4,0.4c0.5-0.4,1.2-0.7,2.1-1.1v-0.4h-0.1L319.5,57z M321.6,56.6h0.3
		c0.1,0,0.3,0.2,0.4,0.5v0.2h-0.2c-0.2-0.2-0.4-0.4-0.6-0.4V56.6z M322.6,56.1h0.3c0.2,0,0.3,0.1,0.3,0.4v0.2l-0.7,0.2
		c-0.2-0.1-0.3-0.2-0.4-0.2v-0.4h0.6V56.1z M323.7,56.1h0.1c0.2,0,0.3,0.1,0.3,0.4h-0.4V56.1z M337.9,24.3v0.4l-0.6,0.2v-0.4
		L337.9,24.3z M341.2,19.4v0.2h0.3c0.5-0.4,1-0.5,1.3-0.5v-0.4h-0.1C342,19.1,341.5,19.4,341.2,19.4z M343.1,18.5
		c0,0.2,0.1,0.4,0.3,0.4h0.2v-0.4H343.1z M343.6,16.4h0.4V16h-0.2C343.7,16.1,343.6,16.2,343.6,16.4z M343.7,18.3v0.4h0.6v-0.4
		H343.7z M345.3,17.3c0,0.2-0.2,0.4-0.6,0.4v0.2l0.7,0.2v-0.4h0.3l0.7,0.2C346.5,17.4,346.1,17.3,345.3,17.3z M346.3,17.1v0.2
		c0.3,0,0.5,0.1,0.5,0.4c0.2-0.1,0.3-0.2,0.4-0.2c0-0.2-0.1-0.4-0.3-0.4H346.3z"/>
	<path class="st0" d="M396.4,12.2c0.4,0.2,0.6,0.4,0.7,0.5c-0.2,0-0.3,0.1-0.3,0.3c0.8,0,1.4,0.3,1.7,0.9c0.1,0,0.3,0.1,0.4,0.4
		l-0.7,0.5h0.1l0.3-0.1c0.5,0.1,0.8,0.4,0.8,0.8c-0.3,0.3-1.1,0.5-2.3,0.8c-0.2-0.1-0.3-0.1-0.4-0.1v0.6c0.2-0.2,0.7-0.4,1.3-0.6
		c0.5,0.1,0.7,0.2,0.7,0.4c-0.3,0.3-1,0.6-2.1,0.8c0,0.1-0.8,0.4-2.5,0.7h-0.9c0,0.1-0.2,0.3-0.7,0.5h0.4v0.2l-0.8,0.1v0.1h0.9v0.3
		c-1.7,0.4-2.5,0.7-2.6,0.7V20h0.3l0.7-0.1l0.1,0.3v0.1c-2,0.4-5,1-9.1,2.1c-2.3,0.7-5.4,1.5-9.1,2.3l-0.1-0.3
		c0.6-0.3,1.6-0.5,3-0.8v-0.1h-0.4c-2.4,0.6-3.6,0.9-3.7,1.1c0.1,0.2,0.1,0.3,0.1,0.4c-0.4,0-1,0.8-1.5,2.5c-1.7,4-6.8,11-15.2,21.2
		c-4.2,5-9.9,12.5-17.1,22.5c-0.8,1.2-1.7,2.7-2.6,4.4l-0.5-0.4h-0.3l-0.4,0.3c-0.2-0.3-0.3-0.7-0.3-1c0.1,0,0.1,0,0.1-0.1
		c-0.4,0-0.7-0.4-0.7-1.1c0.1,0,0.1,0,0.1-0.1H334l-0.4,0.3c-0.1-0.4-0.2-0.8-0.2-1.4c0.1,0,0.1,0,0.1-0.1l-0.2-0.1v0.5h-0.5
		c-0.2,0-0.3-0.1-0.3-0.3v-0.1l0.1-0.9c-0.2,0-0.3-0.1-0.3-0.4c0.3-1.1,0.9-2.2,1.8-3.5c0.4-0.8,1-1.5,1.8-1.8l0.3-0.4v-0.1h-0.3
		c0-0.3,0.8-1.5,2.3-3.7l0.5-0.5v-0.1l-0.1-0.3l0.5-0.3l-0.1-0.3v-0.1c0.9-1.3,1.6-2,2.1-2.1l0.1-0.3c-0.1-0.1-0.1-0.3-0.1-0.4
		c0.4,0,0.8-0.4,1.4-1.3c-0.1-0.1-0.1-0.3-0.1-0.5h0.3l0.3,0.1c0-0.1,0.8-1.1,2.3-2.9l3.4-4.7l-0.1-0.3c1.6-2.1,3.1-3.9,4.7-5.6
		c0.2,0,1.2-0.9,2.8-2.7l0.7-0.1v-0.1l-0.3-0.4c1-1.4,1.6-2.1,1.7-2.1c0.2,0.1,0.3,0.1,0.4,0.1c0-0.4,0.6-1.3,1.9-2.9l-0.1-0.3
		c0.4-0.7,1-1.2,1.6-1.7c-0.1-0.2-0.1-0.3-0.1-0.4c0.1,0,0.6-0.5,1.5-1.5l0.1,0.3c-0.1,0-0.4,0.4-0.9,1.1h0.1c0.3-0.1,1-1.2,2.2-3.3
		v-0.2c-0.2,0-0.4-0.1-0.4-0.4h-0.1c-0.2,0.2-1.1,0.4-2.7,0.6c-4.9,1.6-10,3-15.4,4.3c-1.9,0.7-4.3,1.5-7.4,2.2
		c-0.1-0.4-0.2-0.5-0.4-0.5l-0.6,0.1c0-0.1,0-0.1-0.1-0.1l0.1-0.7c-0.5-0.8-0.8-1.1-0.9-1.1l-0.4-0.4v-0.7c-0.4,0-0.9-0.7-1.7-2.2
		c-0.2,0-0.3-0.1-0.3-0.3c0.4-0.4,2.3-0.9,5.4-1.7c4.8-1.7,13.5-4.1,26-7.1C384.2,14.6,394.4,12.2,396.4,12.2z M359.1,35.5h0.1
		c0.1,0,0.3-0.2,0.5-0.5v-0.1C359.5,34.8,359.3,35.1,359.1,35.5z M360,34.3v0.1c0.1-0.1,0.3-0.1,0.4-0.1v-0.2h-0.1
		C360.1,34.1,360,34.2,360,34.3z M376.8,23.3v0.1h0.3c0.3-0.2,0.5-0.3,0.7-0.3v-0.1h-0.1C377.3,23.2,377,23.3,376.8,23.3z
		 M379.9,22.5l-0.1,0.3h0.4C380.2,22.5,380.1,22.5,379.9,22.5z M382.7,21.8v0.1h0.4c0.1-0.1,0.3-0.1,0.5-0.1v-0.1h-0.1L382.7,21.8z
		 M384.3,21.4v0.1h0.4c0.3-0.2,0.6-0.3,0.9-0.3v-0.1h-0.4C384.9,21.3,384.6,21.4,384.3,21.4z M385.7,21v0.1h0.5V21H385.7z
		 M386.6,20.8L386.6,20.8l0.3,0.1l3.5-0.7V20H390C388.2,20.5,387,20.8,386.6,20.8z M391.4,17.8v0.3h0.1c0.2,0,0.3-0.1,0.3-0.3H391.4
		z M392,17.7v0.1h0.1c0.5-0.1,0.9-0.1,1.2-0.1v-0.1c0-0.1-0.1-0.2-0.4-0.4h-0.1C392.5,17.5,392.2,17.7,392,17.7z M393.2,16.9V17
		c0,0.1,0.2,0.3,0.6,0.5c0.2-0.1,0.3-0.1,0.4-0.1L394,17h0.3l0.9,0.3c0.2-0.1,0.3-0.1,0.4-0.1V17h-0.4v-0.1c0-0.2,0.2-0.3,0.7-0.3
		v-0.2C395,16.5,394.1,16.6,393.2,16.9z M393.4,18.2h0.4v0.3h-0.1C393.4,18.5,393.4,18.4,393.4,18.2z M395.8,16.7V17h0.6v-0.3H395.8
		z"/>
	<path class="st0" d="M422.1,12.5h0.2c0.4,0.6,1.1,0.9,1.9,0.9c0,0.2,0.8,0.8,2.3,1.7l0.7-0.1c3.3,0.9,5.9,2.7,7.6,5.4
		c1.7,1.4,2.5,4.2,2.5,8.4l-0.1,0.9c0.1,0.2,0.1,0.4,0.1,0.6c-0.3,0-0.8,1.8-1.5,5.4l-1.5,4.8c-1.3,3.8-3.8,8.5-7.4,14.2
		c-2.7,3.7-6.2,7.7-10.4,11.8c-6.1,5-11,7.7-14.7,8.3c0,0.3-1.7,0.5-5.1,0.6c-4.2,0-8.2-2.4-12.2-7.3c-1.4-2.1-2.1-3.8-2.1-5.3
		l0.1-0.7V61c0.2-2.2,0.5-3.3,0.7-3.3l-0.1-0.3c1.4-6.2,5.5-13.4,12.2-21.8c7.1-7.9,12.8-13.5,17.1-16.8
		C417,15.1,420.2,13,422.1,12.5z M383.8,61.6v0.7h0.2v-0.7H383.8z M387.4,48.2l0.2,0.3c0,0.3-0.2,0.6-0.5,1.1h0.6
		c-0.2,0.3-0.3,0.6-0.3,0.9c1.4-1.8,2.1-3.1,2.1-4.2h-0.1l0.1-0.7C388.8,46.4,388.1,47.3,387.4,48.2z M388.7,64.4
		c0.6,3.9,1.8,5.8,3.4,5.8c7.2,0,14.6-4.1,22.2-12.4c0.1,0,1.4-1.4,3.7-4.2c2.5-3.3,5.5-8.2,8.9-14.7c2.6-6.4,3.9-11.3,3.9-14.5
		v-2.4c0-1.7-0.5-2.5-1.5-2.5c-0.3-0.1-0.8-0.1-1.5-0.1c-2,0-4.5,0.5-7.6,1.5c-2.4,1.3-7.4,5.8-14.9,13.2
		C394.2,46,388.7,56.2,388.7,64.4z M389.4,48.6v0.2c0.2,0,0.3-0.1,0.3-0.3v-0.2C389.5,48.4,389.4,48.5,389.4,48.6z M389.5,45.4h0.3
		c0-0.3,0.3-0.9,0.9-1.6h-0.1C390.4,43.7,390.1,44.3,389.5,45.4z M392.8,40.7v-0.1c-0.2,0-0.9,0.9-1.9,2.5c-0.1,0-0.2,0-0.2,0.1v0.2
		c0.1,0.2,0.2,0.3,0.3,0.3l-0.1,0.3v0.2h0.1c0.4-0.3,1.2-1.5,2.5-3.8h-0.1L392.8,40.7z M392.7,41v0.3c0,0.1-0.1,0.3-0.4,0.4
		l-0.2-0.3L392.7,41z M398.4,34.1c0,0.3-0.2,0.6-0.7,0.9c0-0.2-0.1-0.3-0.3-0.3c-0.7,0.6-1.9,2-3.6,4.4v0.1l0.3-0.1h0.1v0.1
		l-0.3,0.6v0.1h0.2l4.7-5.8H398.4z M404.1,27.5c0.1,0.2,0.1,0.3,0.1,0.4c-0.4,0.4-0.8,0.6-1.1,0.6l0.3-0.5h-0.2
		c-0.2,0.1-0.4,0.3-0.6,0.7c0.2,0,0.3,0.1,0.3,0.3c-0.1,0-0.5,0.3-0.9,0.9v0.1h0.2c4-4,6.4-6,7-6v0.3h0.2l0.6-0.4l-0.1-0.3v-0.1
		c0-0.2,2.4-2.4,7.2-6.8c0.1,0,1.1-0.7,3-2.1c1.2-0.6,1.8-1,1.8-1.2h-0.1c-3.1,1.3-7.8,4.7-14.1,10.2c-2.3,2.4-3.5,3.6-3.6,3.6V27.5
		z M408.9,25v0.1c0.2,0,0.3-0.1,0.3-0.3v-0.1C409,24.7,408.9,24.8,408.9,25z"/>
	<path class="st0" d="M462.7,12.4c0.6,0.1,0.9,0.2,0.9,0.4c0.2-0.1,0.3-0.1,0.4-0.1c1.5,0.5,2.8,1.5,3.8,2.8c-1.7,1.8-3.1,4-4.4,6.7
		C450,44,443.3,55.4,443.3,56.3c-2.5,5.7-3.8,9.6-3.8,11.5v0.4c0,0.1,0,0.2-0.1,0.2c0,0.1,0,0.1,0.1,0.1c0,0.1,0,0.2-0.1,0.4
		c0.1,1.1,0.2,1.7,0.4,1.7c1.5-0.3,4.5-2.1,9-5.4c0.2,0.1,0.3,0.1,0.4,0.1l0.3-0.4c-0.1-0.2-0.1-0.4-0.1-0.4
		c1.7-1.4,3.4-3.1,4.9-5.2c3.7-3.6,6.2-6.2,7.6-7.9h0.6v-0.1h-0.3v-0.3c0.1,0,0.2,0,0.6-0.1c0,0.1,0.1,0.3,0.4,0.4
		c2.2-2.4,4.6-5.3,7.1-8.6c0.9-1,1.7-2.1,2.5-3.3h-0.1c-0.3,0.5-0.5,0.7-0.6,0.7c0-0.1,0-0.1-0.1-0.1c0.1-0.4,1-1.6,2.9-3.5h0.1
		l-1.5,2.1h0.1c2.5-2.8,6.4-7.6,11.8-14.4c1.3-1.8,2.2-3,2.8-3.3V21l-5.7,7.8V29c0.5-0.1,0.8-0.4,1.1-1c0.2,0,1.2-1,2.9-3l0.6-0.4
		l0.1,0.3c-0.1,0.1-0.1,0.3-0.1,0.6h0.1c0.9-0.6,1.5-1.2,1.8-1.9v-0.2h-0.2l-0.6,0.4h-0.1c-0.2,0-0.3-0.1-0.3-0.3l2.1-2.6h0.1
		c0.2,0,0.3,0.1,0.3,0.3c0.8-0.4,1.3-0.7,1.5-1.2c1.4-1.6,2.3-2.3,2.7-2.3c0.1,0.2,0.2,0.4,0.2,0.6c0.3-0.2,0.5-0.3,0.7-0.3l0.2,0.3
		v0.1c-0.3,0-0.4,0.1-0.4,0.3c0.1,0,0.2,0,0.4,0.1c0-0.3,0.2-0.4,0.6-0.4v0.1c-0.6,1.6-2.5,4.2-5.5,8c-1.3,2.1-6,8.1-14.1,17.9
		c-4.5,6-10.9,13.2-19,21.8c-6.3,5.7-10.6,8.6-12.8,8.6c0,0.1-0.4,0.3-1.3,0.4h-2.6c-3-0.9-4.5-1.9-4.5-2.8c-1.1-0.3-2-1-2.6-2
		c-0.6-1.5-0.9-2.4-0.9-2.8c0.1-1.2,0.2-1.8,0.3-2c-0.1-0.2-0.2-0.4-0.2-0.6c0.1,0,0.4-1.1,0.9-3.2l0.3-0.2c0.1,0.2,0.1,0.4,0.1,0.4
		c-0.2,0.3-0.3,0.6-0.3,0.7V63h0.2c1.2-4.3,4.2-10.6,9-18.9c1.2-2.2,4.8-8.1,10.6-17.6c0-0.1,1.3-2.2,3.8-6.4v-0.3h-0.3v-0.1
		c1.1-2.5,1.8-3.8,2.2-3.8v0.3c1.5-2,2.5-3.3,3.1-3.8H462.7z M437.5,57.2c0,0.1-0.1,0.3-0.3,0.6v0.1h0.3c0-0.2,0-0.4,0.1-0.6v-0.1
		H437.5z M437.9,56.3v0.1h0.1c1.3-2.9,2.3-4.7,2.8-5.2c-0.1-0.2-0.1-0.3-0.1-0.4l0.6-0.6c-0.1-0.2-0.2-0.3-0.2-0.4
		c-0.4,0-1.1,1.1-2,3.3c-0.5,0.9-0.8,1.8-1,2.9C438,56,437.9,56.1,437.9,56.3z M441.3,49c0,0.1-0.1,0.2-0.2,0.4h0.2
		c0.2,0,0.3-0.1,0.3-0.3L441.3,49z M442.3,47.6h0.1c0.1,0,0.5-0.5,1-1.5h-0.1C442.9,46.3,442.6,46.8,442.3,47.6z M442.7,43.6h0.3
		v0.4h-0.3V43.6z M447.2,36.4v0.1c0,0.2-0.1,0.3-0.3,0.3h-0.2C446.7,36.7,446.9,36.5,447.2,36.4z M447.6,66.5v0.1
		c0.2-0.1,0.4-0.1,0.4-0.1v-0.3h-0.1C447.7,66.2,447.6,66.3,447.6,66.5z M450.1,34.2v0.2c0,0.2,0.1,0.3,0.3,0.3l0.1-0.3v-0.2H450.1z
		 M450.5,33.8v0.3c1-0.9,1.5-1.6,1.5-2.2c1.2-1.8,1.8-2.8,1.8-3.1h-0.1C453.3,29.4,452.2,31,450.5,33.8z M457.1,20.1v0.1
		c-0.1,0.2-0.1,0.3-0.1,0.4h-0.3v-0.1C456.6,20.4,456.8,20.3,457.1,20.1z M462.9,52.8v0.3c0,0,0.4-0.4,1.1-1.3v-0.2
		C464,51.6,463.6,52,462.9,52.8z M464.6,50.8l-0.4,0.6v0.1c0.2,0,0.4-0.3,0.6-0.7H464.6z M465.4,50.1h0.3c0-0.3,0.3-0.6,0.9-0.9
		c0-0.1,0-0.2,0.1-0.4h-0.1C465.9,49.3,465.5,49.7,465.4,50.1z M466.8,48.3v0.2h0.3l2.1-2.6h-0.3C468.1,46.6,467.4,47.4,466.8,48.3z
		 M470.2,44.3c0,0.2-0.1,0.4-0.4,0.6h-0.1V45h0.3l0.4-0.6v-0.1H470.2z M471,43.1v0.1h0.3c0-0.1,0.4-0.7,1.2-1.6v-0.3
		C472.4,41.4,471.9,41.9,471,43.1z M475.3,37.8V38c0.2,0,0.3-0.1,0.3-0.3v-0.1C475.4,37.6,475.3,37.7,475.3,37.8z M475.8,35.4v0.1
		c0,0.2-0.1,0.3-0.3,0.3v-0.1C475.6,35.5,475.7,35.4,475.8,35.4z M476.1,36.8V37c0.8-0.8,1.4-1.3,1.9-1.6c0.2-0.7,1-1.6,2.5-2.9
		l2.3-3.2v-0.1c-0.8,0-2.2,1.6-4.2,4.7L476.1,36.8z M486.6,25.9v0.1c0.2-0.1,0.3-0.1,0.4-0.1v-0.4C486.9,25.5,486.8,25.6,486.6,25.9
		z"/>
	<path class="st0" d="M546,12.2c0.4,0.2,0.6,0.4,0.7,0.5c-0.2,0-0.3,0.1-0.3,0.3c0.8,0,1.4,0.3,1.7,0.9c0.1,0,0.3,0.1,0.4,0.4
		l-0.7,0.5h0.1l0.3-0.1c0.5,0.1,0.8,0.4,0.8,0.8c-0.3,0.3-1.1,0.5-2.3,0.8c-0.2-0.1-0.3-0.1-0.4-0.1v0.6c0.2-0.2,0.7-0.4,1.3-0.6
		c0.5,0.1,0.7,0.2,0.7,0.4c-0.3,0.3-1,0.6-2.1,0.8c0,0.1-0.8,0.4-2.5,0.7h-0.9c0,0.1-0.2,0.3-0.7,0.5h0.4v0.2l-0.8,0.1v0.1h0.9v0.3
		c-1.7,0.4-2.5,0.7-2.6,0.7V20h0.3l0.7-0.1l0.1,0.3v0.1c-2,0.4-5,1-9.1,2.1c-2.3,0.7-5.4,1.5-9.1,2.3l-0.1-0.3
		c0.6-0.3,1.6-0.5,3-0.8v-0.1h-0.4c-2.4,0.6-3.6,0.9-3.7,1.1c0.1,0.2,0.1,0.3,0.1,0.4c-0.4,0-1,0.8-1.5,2.5c-1.7,4-6.8,11-15.2,21.2
		c-4.2,5-9.9,12.5-17.1,22.5c-0.8,1.2-1.7,2.7-2.6,4.4l-0.5-0.4h-0.3l-0.4,0.3c-0.2-0.3-0.3-0.7-0.3-1c0.1,0,0.1,0,0.1-0.1
		c-0.4,0-0.7-0.4-0.7-1.1c0.1,0,0.1,0,0.1-0.1h-0.3l-0.4,0.3c-0.1-0.4-0.2-0.8-0.2-1.4c0.1,0,0.1,0,0.1-0.1l-0.2-0.1v0.5h-0.5
		c-0.2,0-0.3-0.1-0.3-0.3v-0.1l0.1-0.9c-0.2,0-0.3-0.1-0.3-0.4c0.3-1.1,0.9-2.2,1.8-3.5c0.4-0.8,1-1.5,1.8-1.8l0.3-0.4v-0.1h-0.3
		c0-0.3,0.8-1.5,2.3-3.7l0.5-0.5v-0.1l-0.1-0.3l0.5-0.3l-0.1-0.3v-0.1c0.9-1.3,1.6-2,2.1-2.1l0.1-0.3c-0.1-0.1-0.1-0.3-0.1-0.4
		c0.4,0,0.8-0.4,1.4-1.3c-0.1-0.1-0.1-0.3-0.1-0.5h0.3l0.3,0.1c0-0.1,0.8-1.1,2.3-2.9l3.4-4.7L498,47c1.6-2.1,3.1-3.9,4.7-5.6
		c0.2,0,1.2-0.9,2.8-2.7l0.7-0.1v-0.1l-0.3-0.4c1-1.4,1.6-2.1,1.7-2.1c0.2,0.1,0.3,0.1,0.4,0.1c0-0.4,0.6-1.3,1.9-2.9l-0.1-0.3
		c0.4-0.7,1-1.2,1.6-1.7c-0.1-0.2-0.1-0.3-0.1-0.4c0.1,0,0.6-0.5,1.5-1.5l0.1,0.3c-0.1,0-0.4,0.4-0.9,1.1h0.1c0.3-0.1,1-1.2,2.2-3.3
		v-0.2c-0.2,0-0.4-0.1-0.4-0.4h-0.1c-0.2,0.2-1.1,0.4-2.7,0.6c-4.9,1.6-10,3-15.4,4.3c-1.9,0.7-4.3,1.5-7.4,2.2
		c-0.1-0.4-0.2-0.5-0.4-0.5l-0.6,0.1c0-0.1,0-0.1-0.1-0.1l0.1-0.7c-0.5-0.8-0.8-1.1-0.9-1.1l-0.4-0.4v-0.7c-0.4,0-0.9-0.7-1.7-2.2
		c-0.2,0-0.3-0.1-0.3-0.3c0.4-0.4,2.3-0.9,5.4-1.7c4.8-1.7,13.5-4.1,26-7.1C533.7,14.6,543.9,12.2,546,12.2z M508.6,35.5h0.1
		c0.1,0,0.3-0.2,0.5-0.5v-0.1C509,34.8,508.8,35.1,508.6,35.5z M509.5,34.3v0.1c0.1-0.1,0.3-0.1,0.4-0.1v-0.2h-0.1
		C509.6,34.1,509.5,34.2,509.5,34.3z M526.3,23.3v0.1h0.3c0.3-0.2,0.5-0.3,0.7-0.3v-0.1h-0.1C526.8,23.2,526.6,23.3,526.3,23.3z
		 M529.5,22.5l-0.1,0.3h0.4C529.7,22.5,529.6,22.5,529.5,22.5z M532.3,21.8v0.1h0.4c0.1-0.1,0.3-0.1,0.5-0.1v-0.1h-0.1L532.3,21.8z
		 M533.8,21.4v0.1h0.4c0.3-0.2,0.6-0.3,0.9-0.3v-0.1h-0.4C534.5,21.3,534.2,21.4,533.8,21.4z M535.3,21v0.1h0.5V21H535.3z
		 M536.2,20.8L536.2,20.8l0.3,0.1l3.5-0.7V20h-0.4C537.7,20.5,536.6,20.8,536.2,20.8z M540.9,17.8v0.3h0.1c0.2,0,0.3-0.1,0.3-0.3
		H540.9z M541.6,17.7v0.1h0.1c0.5-0.1,0.9-0.1,1.2-0.1v-0.1c0-0.1-0.1-0.2-0.4-0.4h-0.1C542,17.5,541.8,17.7,541.6,17.7z
		 M542.8,16.9V17c0,0.1,0.2,0.3,0.6,0.5c0.2-0.1,0.3-0.1,0.4-0.1l-0.3-0.4h0.3l0.9,0.3c0.2-0.1,0.3-0.1,0.4-0.1V17h-0.4v-0.1
		c0-0.2,0.2-0.3,0.7-0.3v-0.2C544.5,16.5,543.6,16.6,542.8,16.9z M542.9,18.2h0.4v0.3h-0.1C543,18.5,542.9,18.4,542.9,18.2z
		 M545.4,16.7V17h0.6v-0.3H545.4z"/>
</g>
</svg>
