<?xml version="1.0" encoding="utf-8"?>
<!-- Generator: Adobe Illustrator 19.0.1, SVG Export Plug-In . SVG Version: 6.00 Build 0)  -->
<svg version="1.1" id="Layer_1" xmlns="http://www.w3.org/2000/svg" xmlns:xlink="http://www.w3.org/1999/xlink" x="0px" y="0px"
	 viewBox="0 0 503.3 93.6" style="enable-background:new 0 0 503.3 93.6;" xml:space="preserve">
<style type="text/css">
	.st0{fill:#FFFFFF;}
</style>
<g>
	<path class="st0" d="M71.9,0l2.2,0.4c0.1,0,0.2-0.1,0.2-0.2c5,0.7,8.6,1.9,11,3.5c3.5,2.8,6.2,6.1,8,9.9c0.5,1.5,0.7,2.6,0.7,3.5
		c0,3.4-1.5,7.1-4.4,11.2c-0.4,1.5-4.2,5.9-11.3,13.4c-2.8,2.3-5.6,4.7-8.6,7.5c-8.5,7.2-18.3,14.7-29.6,22.6
		C21.3,84.8,9.7,92.2,5.4,93.6c-0.6,0-1.3-0.4-2.3-1.2c-0.1,0-0.3-0.3-0.5-1c-0.4,0-0.9-0.6-1.5-1.8c-0.6,0-0.9-0.1-0.9-0.4v-0.5H0
		v-0.4c0.9-1.1,1.9-1.9,3.1-2.4c0-0.3,0.6-0.6,1.8-1.1c0-0.2-0.5-0.6-1.6-1.4c-0.4,0.4-0.8,0.5-1.2,0.5v-0.2
		c0.2-0.7,0.3-1.2,0.3-1.4c-0.2,0-0.3-0.2-0.3-0.5c0-1.8,0.8-3.3,2.4-4.7c1.1-2.5,1.9-3.8,2.4-4l0.4,0.2c0.4-0.6,0.6-0.9,0.7-0.9
		l-0.2-0.4c0.3-0.4,0.7-1,1.2-1.9L8.9,70c0-0.6,0.4-1,1.1-1.2l0.2-0.4c-0.2,0-0.4-0.1-0.4-0.4c0.6-1.4,1.4-2.5,2.4-3.2v-0.4h-0.4
		v-0.1c0.3-0.4,0.6-1.1,1.1-2.1h0.4v0.2l-0.2,0.4h0.2c1.3-1.6,2.1-2.6,2.3-2.9l5.2-9.4c0.6-0.7,2.2-3.8,4.7-9.1
		C34,24.4,38.3,15.3,38.3,14.3c0-0.1-0.3-0.5-0.8-1.2c0.1-0.2,0.2-0.4,0.2-0.5c-0.3,0-0.7-0.5-1.2-1.4l-0.9-0.3
		c-0.2,0.1-0.4,0.1-0.5,0.1l-0.2-0.3c1.5-1.4,2.3-2.1,2.5-2.1c2.9-1.3,4.6-2.1,5.1-2.4c0.5-2,1.5-3,2.9-3c0-0.2,0.1-0.4,0.4-0.4
		c0,0.1,0.4,0.4,1.1,1.1c6.4-1.7,11.5-2.6,15.1-2.6C65,0.6,68.4,0.2,71.9,0z M71.5,7.8c-0.2-0.1-0.4-0.2-0.7-0.2l-1.1,0.2V7.6
		c-7.3,0.9-11.1,1.5-11.5,1.8c-0.2-0.1-0.4-0.2-0.5-0.2c0,0.2-2.3,0.9-6.8,1.9c-2.6,0.9-3.9,1.5-4,1.9c-3.5,8.3-9.7,21.3-18.6,39
		C19.5,68.1,14.6,76.8,13.8,78v0.5c-0.7,0.6-1.2,1.3-1.4,2.1h0.4c0.4-0.9,1.6-1.8,3.6-2.8c0-0.6,0.2-0.9,0.5-0.9l0.4,0.2
		c0.9-1.2,1.8-1.8,2.8-1.8c0.6-0.4,0.8-0.7,0.8-1.1h0.7c0-0.1,0.4-0.5,1.2-1v-0.4l0.4,0.2c0.7-0.5,1.2-0.7,1.4-0.7v-0.2h-0.2
		c-0.2,0.1-0.4,0.2-0.5,0.2v-0.2c0-0.2,0.1-0.4,0.4-0.4l0.8,0.2c0-0.2,0.7-0.8,1.9-1.6c0-0.4,0.4-0.7,1.2-1.1c0.8-0.7,2-1.6,3.6-2.6
		l0.2-0.4h-0.4c0,0.3-0.4,0.6-1.2,0.9h-0.2c0.8-0.9,2.9-2.4,6.3-4.7h0.5l-0.4,0.5h0.4c0.5-0.2,0.8-0.6,1-1.1V62l-0.7,0.5h-0.2
		c0.3-0.4,0.7-0.8,1.4-1.2H39l-0.2,0.4v0.2c0.9-0.6,1.4-0.9,1.4-1.1H40l-0.5,0.4h-0.4c0-0.1,0.4-0.5,1.1-1c0,0.2,0.1,0.3,0.4,0.3
		h0.2v-0.2c-0.1-0.2-0.2-0.4-0.2-0.5l0.9-0.4l0.2,0.4c1.7-0.7,2.6-1.3,2.6-1.8l2.6-2.1l0.3,0.2c0-0.4,0.6-0.8,1.6-1.2
		c0-0.4,0.7-1.1,2.1-2.1v-0.4l-0.7,0.5H50v-0.2c0-0.2,0.2-0.4,0.5-0.5l0.9,0.2L51,51.9v-0.2l1-0.8l0.7,0.2h0.2v-0.2h-0.5v-0.2
		c1.9-1.8,3.4-3,4.5-3.5c0.7-0.5,1.1-0.7,1.1-0.8l0.9,0.2c0.9-0.8,1.4-1.3,1.4-1.4v-0.2l-0.5,0.4l-0.2-0.4c0.5-0.5,0.8-0.7,1-0.7
		l0.4,0.2c0.5-0.2,0.7-0.4,0.7-0.5h-0.2C61.2,44,61.1,44,60.9,44v-0.2c0.5-0.8,1.1-1.2,1.8-1.2l-0.2-0.4c0.1,0,0.7-0.4,1.8-1.2
		c0.9,0,1.4-0.2,1.4-0.7c-0.2,0-0.4-0.1-0.4-0.4l1.6-1.9H67c0.1,0,0.2,0.1,0.2,0.2c0.2,0,0.5-0.5,0.9-1.4c0.4-0.5,1.4-1.4,2.8-2.6
		v0.2c0.2,0,0.7-0.6,1.6-1.9c0.7-0.7,1.6-1.4,2.6-2.1c0-0.4,1.1-1.6,3.2-3.8c3.3-3.7,5.3-6.7,6.1-9.1c1.3-2.3,1.9-4.4,1.9-6.5v-0.5
		c0-0.8-0.9-1.4-2.8-1.8c-0.3-0.2-2.1-0.6-5.5-1.2c-0.1,0-0.2,0.1-0.2,0.2c-1.3-0.1-2-0.3-2.3-0.4c-0.2,0.1-0.4,0.2-0.7,0.2
		c-0.2,0-0.4-0.1-0.4-0.2L71.5,7.8z M12.3,64.2v0.3h0.2c0.1-0.7,0.4-1,0.9-1c0-0.2-0.1-0.4-0.4-0.4C12.9,63.2,12.6,63.5,12.3,64.2z
		 M17.9,75.5v0.2c0,0.3-0.3,0.6-0.9,0.7l-0.2-0.4L17.9,75.5z M23,48.4v0.2c0.1,0,0.4-0.3,0.9-0.9v-0.2C23.7,47.5,23.4,47.8,23,48.4z
		 M26.5,42v0.2c0.2,0,0.4-0.1,0.4-0.4v-0.2C26.6,41.6,26.5,41.8,26.5,42z M29.1,68.2c0,0.1-0.5,0.4-1.4,1v-0.2
		C28,68.5,28.4,68.2,29.1,68.2z M32.6,66.1h0.4c0.2,0,0.4-0.2,0.5-0.7h-0.2C33.1,65.4,32.8,65.7,32.6,66.1z M34.1,64.9h0.2
		c0.3-0.2,0.5-0.4,0.7-0.4v-0.1h-0.2C34.3,64.6,34.1,64.7,34.1,64.9z M39.3,64.7v0.4h0.2c0.2,0,0.4-0.1,0.4-0.4v-0.2
		C39.6,64.7,39.4,64.7,39.3,64.7z M49.1,63.9c0,0.4-0.2,0.5-0.5,0.5v0.1h0.4c0-0.3,0.2-0.4,0.7-0.5v-0.2H49.1z M53.3,50.3v0.4
		c0.2-0.1,0.4-0.2,0.5-0.2v-0.2H53.3z M56.7,47.9h0.5v-0.4h-0.2C56.9,47.6,56.7,47.7,56.7,47.9z M62.3,43v0.4h0.2
		c0.2,0,0.4-0.1,0.4-0.4H62.3z M63.4,42.1c0,0.2-0.1,0.3-0.4,0.3v0.2h0.4l0.2-0.4v-0.1H63.4z M79.9,25.8v0.2c0.2,0,0.4-0.2,0.5-0.5
		h-0.2C80,25.4,79.9,25.5,79.9,25.8z M80.6,24.9V25c0.1,0,0.5-0.4,1.1-1.2v-0.2C81.4,23.7,81,24.1,80.6,24.9z M83.4,20.3
		c0,0.4-0.4,1.1-1.2,2.1c0,0.2-0.2,0.5-0.5,0.9v0.2h0.2c0.8-1.1,1.5-2.1,1.9-3.2H83.4z M84.8,18.1v0.2h0.4v-0.5
		C84.9,17.8,84.8,17.9,84.8,18.1z"/>
	<path class="st0" d="M128.8,12v0.2l-0.3,0.5v0.2h0.6c0.4-0.4,1.2-0.5,2.4-0.5c1.5,0.3,2.2,0.9,2.2,1.9v0.2
		c-0.1,0.2-0.2,0.4-0.2,0.5c0.5,0,0.7,0.2,0.7,0.5v0.2c-0.6,0.6-0.9,0.9-0.9,1.1l-0.3-0.2h-0.7c0,0.2,0.2,0.4,0.6,0.4v0.4l-0.7-0.2
		l-0.1,0.4c0.5,0,0.7,0.1,0.7,0.4c-0.2,0-0.6,0.3-1.2,0.9c-0.4,0-1.6,0.5-3.7,1.4v0.2h0.1c1-0.4,1.6-0.7,1.9-0.9l0.1,0.4
		c-0.8,0.5-2.7,1.4-5.7,2.7v0.2h0.1l0.7-0.2v0.4c-0.4,0-1.5,0.5-3.1,1.6c-1.5,0.4-4.2,1.5-8.3,3.5v1.1l0.3,0.5
		c-1.3,1.7-3.4,5.1-6.3,10.2c-1,1.2-2.6,3.6-4.7,7.4c-0.1,0-1.6,2.1-4.3,6.4h0.2c1.8-0.9,3.6-1.6,5.6-2.1v0.2l-0.1,0.4h0.1
		c0.4-0.2,0.8-0.4,1.2-0.7c0.1,0,0.1,0.1,0.1,0.2c1.7-1,3.2-1.5,4.6-1.6l0.9,0.2c0.7-0.4,1.7-0.7,2.9-0.9c0,0.2,0.2,0.4,0.6,0.4v0.4
		c-0.4,0-0.9,0.5-1.6,1.6c-3.7,1.4-5.6,2.3-5.8,2.6h0.2c0.1,0,1.5-0.6,4.4-1.8c0.3,0.2,0.5,0.4,0.7,0.4v0.4l-4.6,2.5l-0.4,0.5
		l-0.9-0.2l0.1,0.4c-0.3,0-0.8,0.2-1.3,0.7h-0.1V57c0.5,0,0.7,0.3,0.7,0.9h-0.1l-0.4-0.4h-0.1v0.4h0.4c0,0.2-0.1,0.4-0.3,0.4h-0.3
		v-0.4h-0.3l0.1,0.4v0.2c-0.2,0-0.4-0.1-0.6-0.2c-0.1,0-0.4,0.3-0.9,0.9h-0.1l-0.3-0.2c-0.5,0.8-1,1.2-1.5,1.2v0.2h0.1l1.1-0.4v0.4
		c-0.3,0-2.7,1.3-7.4,3.9v0.2H96c0.6-0.2,1-0.4,1.1-0.4v0.4c-0.4,0-2.3,1.1-5.6,3.3c-0.1,0.3-1.1,0.8-3.1,1.6c0,0.2-0.5,0.8-1.6,1.8
		c0,0.1-0.1,0.3-0.4,0.5h-0.1l0.3-0.7h-0.1c-1.2,1.8-2,2.6-2.4,2.6c-0.8,0.7-1.9,1.4-3.3,1.9c-0.9-0.3-1.3-0.6-1.3-0.9h-0.6
		c-1,0-2-0.9-2.9-2.8c-0.3-0.4-0.9-0.9-1.8-1.5c0-0.8-0.3-1.6-1-2.5v-0.7l0.7-1.1l1,0.2h1.5c4-2.2,6-3.5,6-3.7
		c0-0.5,1.5-2.7,4.4-6.5h0.1c0.1,0,0.2,0.1,0.2,0.2c0.4-0.2,0.6-0.4,0.6-0.5v-0.2l-0.4,0.4H87v-0.2c0.4-1.2,1.1-1.8,2.1-1.8v-0.2
		c-0.2,0-0.3-0.1-0.3-0.4c1.1-0.6,2.4-2.3,3.8-5c0.1,0,1.1-1.4,3.1-4.2l-0.2-0.4c0.1-0.2,0.2-0.4,0.2-0.5L95,44.1h-0.2
		c0.3-0.6,0.6-0.9,0.9-0.9c0.2,0.1,0.3,0.2,0.4,0.2c1.8-2.7,2.8-4.1,2.8-4.3c-0.2,0-0.3-0.1-0.3-0.4h0.1l0.3,0.2
		c0-0.2,0.1-0.4,0.3-0.4l-0.1-0.4v-0.4c0.4,0,0.6-0.1,0.6-0.2l-0.1-0.4c0.1-0.4,0.2-0.5,0.3-0.5h0.4c0.6-1.2,1.1-1.8,1.3-1.8v-0.2
		h-0.1c-1.9,1.1-4.7,2.4-8.3,4c-2,1.2-3.3,1.8-4,1.8h-0.6c-0.7-0.4-1.3-1-1.8-1.9c0-0.5-0.7-1.5-2.2-3c0-0.4-0.2-1.1-0.7-1.9
		c0.1-0.5,0.6-1,1.6-1.6v-0.4h0.2l0.4,0.4c0.6-0.7,2.2-1.6,4.7-2.7c0.8-0.5,2.3-1.2,4.6-2.1c0.7-0.5,3-1.7,7.1-3.7
		c3.4-1.9,10-5,19.8-9.4c1.2-0.6,2.9-1.2,5.3-1.8L128.8,12z M82.6,62.4H83c0.1,0,0.3-0.2,0.6-0.7h-0.1C82.9,62,82.6,62.2,82.6,62.4z
		 M87.6,55.4h0.1c0.2,0,0.3-0.1,0.3-0.4h-0.1C87.7,55,87.6,55.2,87.6,55.4z M91.8,67.9h0.4c0,0.2-0.1,0.4-0.3,0.4h-0.2V67.9z
		 M101.7,58.9l-0.3-0.2h-0.3c0,0.2-0.3,0.4-0.9,0.7l-0.3,0.5v0.2h0.1c0.6-0.5,1-0.7,1.2-0.7v0.2l1.5-1.1c-0.1-0.2-0.1-0.4-0.1-0.5
		h-0.1C102,58.3,101.8,58.6,101.7,58.9z M104.2,57.1l0.1,0.4c-1,0.1-1.5,0.2-1.5,0.5c0,0.2,0.1,0.4,0.4,0.4c0.5-0.4,1.2-0.7,2.1-1.1
		V57h-0.1L104.2,57.1z M106.3,56.8h0.3c0.1,0,0.3,0.2,0.4,0.5v0.2h-0.2c-0.2-0.2-0.4-0.4-0.6-0.4V56.8z M107.3,56.3h0.3
		c0.2,0,0.3,0.1,0.3,0.4v0.2l-0.7,0.2c-0.2-0.1-0.3-0.2-0.4-0.2v-0.4h0.6V56.3z M108.4,56.3h0.1c0.2,0,0.3,0.1,0.3,0.4h-0.4V56.3z
		 M122.7,24.5v0.4l-0.6,0.2v-0.4L122.7,24.5z M125.9,19.5v0.2h0.3c0.5-0.4,1-0.5,1.3-0.5v-0.4h-0.1
		C126.8,19.3,126.3,19.5,125.9,19.5z M127.8,18.6c0,0.2,0.1,0.4,0.3,0.4h0.2v-0.4H127.8z M128.3,16.5h0.4v-0.4h-0.2
		C128.4,16.2,128.3,16.3,128.3,16.5z M128.4,18.5v0.4h0.6v-0.4H128.4z M130,17.4c0,0.2-0.2,0.4-0.6,0.4v0.2l0.7,0.2v-0.4h0.3
		l0.7,0.2C131.2,17.6,130.8,17.4,130,17.4z M131,17.2v0.2c0.3,0,0.5,0.1,0.5,0.4c0.2-0.1,0.3-0.2,0.4-0.2c0-0.2-0.1-0.4-0.3-0.4H131
		z"/>
	<path class="st0" d="M162.6,12.2h0.3c2,0.9,3.2,1.8,3.6,2.7l1.5,2.7v0.1c0,0.4-0.9,0.7-2.7,0.7h-0.4l-0.8-0.1
		c-1.6,0.2-4.6,0.9-9.1,2.2c-6,1.9-12.1,4.8-18.3,8.8c-3,2-5.8,4.3-8.5,7c-2.1,2.3-3.1,3.7-3.1,4.2h0.7c0.3,0,0.4,0,0.4,0.1l0.7-0.1
		h1.4c4.2-0.6,6.4-0.9,6.4-1.1v-0.1h0.3l0.3,0.1c0-0.5,1.9-0.9,5.7-1.2c0-0.2,0.1-0.3,0.3-0.3c0.1,0,0.1,0,0.1,0.1l0.3-0.1
		c0.2,0.1,0.3,0.1,0.4,0.1c0-0.1,0.1-0.2,0.4-0.4h0.4l0.3,0.1c0-0.3,0.1-0.4,0.4-0.4c0.2,0.1,0.3,0.1,0.4,0.1c0-0.3,2.7-0.7,8-1.2
		c0-0.1,0-0.1,0.1-0.1s0.1,0,0.1,0.1c1-0.2,2.5-0.3,4.6-0.3h0.1l0.7-0.1V36c0.1,0,0.1,0,0.1-0.1c5.7,0,9.4,1.8,11.3,5.3
		c0.2,0.1,0.9,1.2,2,3.3c0,0.1,0,0.1-0.1,0.1l0.1,0.3v0.3c0,2.8-5.7,7.3-17.2,13.5c-12.2,6.4-24.1,12-35.7,16.8l-0.5,0.1
		c0-0.4-0.4-0.8-1.2-1.1l-0.1-0.3V74c0-0.1,0-0.1,0.1-0.1c0-0.3-0.3-0.8-0.9-1.6c0-0.4-0.2-0.7-0.7-0.9v-0.4c-0.3,0-0.4-0.1-0.4-0.3
		c0.4,0,0.5-0.2,0.5-0.4h0.3l0.3,0.1l1.1-0.8c0.2,0.1,0.3,0.1,0.4,0.1l-0.1-0.3c0.1,0,0.1,0,0.1-0.1l0.3,0.1c1.4-0.6,2.2-1,2.2-1.5
		h0.1l0.3,0.1c0.1-0.2,1.3-0.9,3.5-2h0.1c0.1,0,0.1,0,0.1,0.1l2.9-1.1h0.3V65l-0.1-0.3c0.3-0.2,0.6-0.3,0.8-0.3h0.7v-0.3h-0.1
		l-0.3,0.2v-0.2c0-0.1,0.5-0.3,1.6-0.7c0-0.2,0.4-0.4,1.2-0.5c0-0.3,0.4-0.6,1.1-0.8h1.1c0-0.2,0.9-0.6,2.5-1.2l3.8-2.1
		c0.8-0.3,1.2-0.6,1.2-0.8l0.3,0.1h0.1v-0.1h-0.3V58c0.1-0.1,0.7-0.6,2-1.2v-0.3h-0.3c0,0.3-0.1,0.4-0.4,0.4l-0.1-0.3
		c2.1-1.3,3.4-1.9,3.8-1.9v0.1c0,0.2-0.1,0.3-0.4,0.3v0.1h0.1c0.5-0.2,0.8-0.4,0.8-0.5h-0.3v-0.1c0.5-0.4,1.6-1,3.3-1.9
		c0-0.1,0.4-0.4,1.2-0.8l0.3,0.1c0.2-0.1,0.3-0.1,0.4-0.1v0.3h-0.3v0.2h0.1c0.6,0,1.7-0.7,3.4-2.1h-0.3c0,0.2-0.3,0.4-0.8,0.4
		c-0.1,0.2-0.6,0.5-1.6,1.1l-0.1-0.3c1.8-1.2,3-1.9,3.8-2.2c0-0.4,0.6-0.8,1.8-1.1c0.6-0.4,1-0.7,1.2-0.7c-0.4,0.5-1.1,1-2.3,1.6
		v0.1h0.3c1.5-0.6,3-1.6,4.5-3.1H160c-1.1,0.8-1.8,1.2-2.2,1.2c1.4-1.1,3.1-2.7,5.3-4.6v-0.1c-0.4,0-1.8,0-4.2-0.1
		c-0.2,0-0.9,0.1-2,0.3c-0.1,0-0.1,0-0.1-0.1c-4.2,0.4-11,1.4-20.3,3c-0.7,0-1.7,0.1-2.9,0.3v-0.1c-0.4,0.2-1.2,0.3-2.4,0.3h-3.1
		c-3.4,0-5.6-1.3-6.8-4c0-0.7-0.4-1.4-1.2-2.1c-0.3-0.8-0.4-1.4-0.4-1.6v-0.3c0.5-0.3,0.9-1,1.2-2c1.2-1.5,2.2-2.7,3-3.4
		c4.2-4.1,6.9-6.4,8.2-6.8l4-2.8c0-0.5,0.2-0.7,0.4-0.7l0.1,0.3v0.2h-0.4v0.1h0.3c0.8-0.6,2.3-1.4,4.7-2.5c0-0.2,0.4-0.5,1.1-0.7
		v-0.4l-0.7,0.3l-0.1-0.3c0.8-0.5,1.3-0.9,1.6-1.4l4.2-1.8h0.3c0.1,0,0.1,0,0.1,0.1l0.3-0.1h0.3v0.1l-0.3,0.4
		c0.4,0.2,0.7,0.3,0.9,0.3c0-0.2,0.5-0.5,1.6-0.9V16c-0.3,0-0.4-0.1-0.4-0.3v-0.3c0-0.3,2-1,6.1-2C159.5,12.6,161.7,12.2,162.6,12.2
		z M117.9,68.4h0.1v0.1c0,0.2-0.1,0.3-0.3,0.3h-0.3C117.6,68.7,117.7,68.5,117.9,68.4z M119.4,69h0.3c0.4-0.1,0.6-0.2,0.6-0.4H120
		C119.6,68.8,119.4,68.9,119.4,69z M120.9,35.1h0.3v0.1c0,0.2-0.1,0.3-0.3,0.3V35.1z M121.7,34.3h0.1v0.1c0,0.1-0.1,0.3-0.4,0.4
		l-0.1-0.3L121.7,34.3z M131,61.6h0.5c-1.1,0.6-2.7,1.4-5,2.4l-0.1-0.3L131,61.6z M128,30.1l0.3,0.1l0.3-0.5h-0.1
		C128.2,29.7,128.1,29.8,128,30.1z M128.6,29.5h0.4v-0.3h-0.1C128.7,29.3,128.6,29.4,128.6,29.5z M132.6,63.8h0.1
		c0.2,0,0.3-0.1,0.3-0.3h-0.1C132.7,63.5,132.6,63.6,132.6,63.8z M133.1,26.3h0.3c0.2,0,0.3-0.1,0.3-0.3v-0.1
		C133.3,26,133.1,26.2,133.1,26.3z M135.4,39.3v0.1h0.4v-0.3C135.7,39.2,135.5,39.3,135.4,39.3z M140.7,57v0.1
		c0,0.2-0.2,0.4-0.7,0.4l-0.1-0.3C140.2,57.1,140.4,57,140.7,57z M142.2,38.1l-0.1,0.3h0.1c0.2-0.1,0.3-0.2,0.4-0.2v-0.1H142.2z
		 M146.8,54.3h0.3c0.2,0,0.3-0.1,0.3-0.3H147C146.9,54.1,146.8,54.2,146.8,54.3z M147.7,53.6l0.3,0.1h0.1c0.2,0,0.3-0.1,0.3-0.3
		v-0.1H148C147.8,53.4,147.7,53.5,147.7,53.6z M149.5,52.7l0.3,0.1c0.1,0,0.2-0.1,0.4-0.4h-0.4C149.6,52.5,149.5,52.5,149.5,52.7z
		 M149.6,15.7h0.4V16h-0.4V15.7z M154.2,50.1h0.1c0.2,0,0.3-0.1,0.3-0.3h-0.1C154.3,49.9,154.2,50,154.2,50.1z"/>
	<path class="st0" d="M225.1,11.3c2.1,0.6,3.2,1.4,3.2,2.5c1.8,3.3,2.7,5.5,2.7,6.8c-0.2,1.6-0.4,2.6-0.4,2.9c0.1,0,0.6-0.2,1.3-0.6
		c0.1,0.1,0.4,0.2,0.8,0.2c0-0.3,0.5-0.4,1.6-0.4v0.4l0.8-0.2v0.2c0.1,0,0.2-0.1,0.2-0.2l1.1,0.2h0.4v0.4l-0.5,0.7
		c0.1,0.2,0.1,0.4,0.1,0.5c-1.8,1.1-4.4,2.3-7.8,3.9l-0.2,0.4v0.2c4.6-2.1,7.5-3.5,8.7-4.2l0.2,0.4c-0.6,1.4-3.2,3-7.7,4.7v0.2
		c0.1,0.2,0.1,0.4,0.1,0.5h-0.3l-0.5-0.4h-0.3l0.2,0.4c-0.1,0.3-0.2,0.5-0.2,0.6h-0.2l-0.8-0.2c0,0.2-0.2,0.5-0.6,0.9
		c0.1,0,0.2,0.1,0.4,0.2c0.2-0.1,0.4-0.2,0.5-0.2c0,0.1,0.1,0.2,0.2,0.2l1.5-1.1l0.3,0.2c0.5-0.4,0.9-0.6,1.1-0.6v0.2
		c-0.1,0.3-1.2,0.9-3.2,1.8c0,0.3,0.2,0.4,0.5,0.4v0.4c-2.1,0.7-3.1,1.5-3.1,2.5l-0.3,0.6c0.1,0.2,0.2,0.4,0.2,0.5
		c-0.4,0.2-2.2,3.1-5.4,8.8c-3.5,5.5-6.4,10.5-8.8,15c-0.9,1.7-1.8,2.7-2.7,3.1c-1.7,3.5-3.1,5.3-4,5.5V70c0.2,0,0.3,0.1,0.3,0.2
		c0,0.2-0.7,1.1-2.2,2.8c-1.1-1.5-2-2.2-2.5-2.2h-1l0.1-0.9l-1.4-1.5c-0.3,0-0.5-0.2-0.5-0.7c0.6-1.7,3.6-6.7,9-15.2
		c0-0.6,1.4-2.8,4-6.8l0.8-1.5V44l-4.5,1.8c0-0.1-0.1-0.2-0.2-0.2c-0.1,0.6-4.8,2.8-13.9,6.8c-0.5,0.4-1.5,0.9-3,1.6
		c-2.9,5-4.9,8.3-5.9,9.9c-1.4,2.3-2.2,3.5-2.4,3.5v-0.2c0.3-0.5,0.5-0.8,0.5-1.1h-0.4c-0.7,1.6-1.7,3.2-2.9,4.7l0.1,0.4v0.4H178
		l-0.3-0.2c-0.8,1-2.3,2.4-4.5,4h-0.2c-0.4-0.4-0.9-0.7-1.5-0.9l0.2-0.4c0-0.1-0.6-0.6-1.8-1.5l-1,0.2c-0.2,0-0.3-0.1-0.3-0.4v-0.2
		l0.3-0.5c-0.7-0.3-1.1-0.6-1.1-0.9v-0.6c-0.2,0-0.3-0.1-0.3-0.4c0.9-0.8,2.6-3.3,5.1-7.5v-0.2c-5.8,2.9-9.3,4.5-10.4,4.8
		c-0.3-0.4-0.6-0.6-1-0.6c-0.5-0.5-1.1-1.2-1.8-2.2c-1-1.1-1.6-1.6-1.8-1.6c-0.3,0-0.5-0.1-0.5-0.4l0.2-0.4
		c-0.5-0.4-0.9-0.9-1.1-1.5v-0.9c1.1-0.7,3.2-1.7,6.2-3.1c3.1-1.7,4.8-2.5,5.1-2.5c3-1.9,7.7-4.4,14.1-7.3c0.8-0.1,2.1-1.8,3.9-5.1
		c5.2-8.7,8.2-13.8,9.3-15.2h0.3v0.2l-0.8,1.5v0.2c0.9-1.1,2.5-4,4.8-8.6c0.4-0.4,1.1-1.7,1.9-3.8l0.3-0.2c2,0,3.8,2.4,5.4,7.1V23
		c-3.6,6.9-6.2,11.6-7.8,14.1c-0.4,0.7-0.7,1.2-0.7,1.5h0.2c0.6-0.4,2.4-1.3,5.4-2.5c10-4.9,15-7.3,15.2-7.3
		c0.3-0.4,0.9-1.5,1.8-3.3c0.1,0,0.5-0.5,1.1-1.5h0.4l-0.2-0.9l0.3-0.2c0,0.1,0.1,0.2,0.2,0.2c0-0.2,0.4-1.2,1.3-2.9
		c0.4-1.2,0.8-2.5,1.1-3.8c-0.2,0-0.3-0.1-0.3-0.4v-0.4c0.2-0.3,0.4-0.9,0.5-1.8l-0.5-2.2C225,11.5,225.1,11.4,225.1,11.3z
		 M181.2,65.8V66c0.1,0,0.3-0.2,0.5-0.6v-0.2C181.5,65.3,181.4,65.4,181.2,65.8z M186.7,41.5c0.1,0,0.4-0.3,0.6-0.9v-0.2
		C186.9,40.6,186.7,41,186.7,41.5z M189.8,52.8h0.2c0.2,0,0.3-0.1,0.3-0.4h-0.1C190,52.5,189.8,52.6,189.8,52.8z M191.6,51.7v0.2
		h0.2c2.1-0.8,3.2-1.4,3.2-1.6h-0.2C192.8,51.2,191.7,51.7,191.6,51.7z M194.2,28.7v0.2c0.2,0,0.3-0.1,0.3-0.4v-0.2
		C194.3,28.3,194.2,28.5,194.2,28.7z M197.5,21.9l0.2,0.4c-0.1,0-0.4,0.4-1,1.1h-0.2v-0.2C197.1,22.4,197.4,21.9,197.5,21.9z
		 M199.5,48.1v0.2h0.2c0.2-0.1,0.4-0.2,0.6-0.2v-0.2H200C199.7,48,199.6,48.1,199.5,48.1z M200.6,47.5v0.4c0.4-0.3,0.6-0.4,0.8-0.4
		v-0.2H201C200.8,47.4,200.7,47.5,200.6,47.5z M201.5,47.3h0.2c0.2,0,0.3-0.1,0.3-0.4h-0.1C201.6,47,201.5,47.1,201.5,47.3z
		 M202.2,46.8V47h0.3c0.2-0.1,0.4-0.2,0.5-0.2v-0.2h-0.2C202.6,46.7,202.4,46.8,202.2,46.8z M204,46.2h0.3c0.2,0,0.4-0.1,0.4-0.4
		h-0.4C204.1,45.9,204,46,204,46.2z M204.7,45.9h0.2c1.1-0.4,1.7-0.8,1.9-1.1h-0.4C205.3,45.3,204.7,45.7,204.7,45.9z M207,44.6v0.2
		h0.3c1.4-0.7,2.3-1.1,2.6-1.1v-0.2h-0.7C207.9,44.2,207.2,44.6,207,44.6z M208.1,38.5h0.1c0.4-0.3,1-0.5,1.8-0.7v-0.4
		C208.8,38,208.1,38.4,208.1,38.5z M210.7,43.1h0.2c0.4-0.2,0.6-0.4,0.6-0.5h-0.1C210.9,42.8,210.7,42.9,210.7,43.1z M212.1,36.3
		v0.2h0.8c1.1-0.7,1.9-1.1,2.2-1.1v-0.2h-0.5C214.1,35.7,213.3,36,212.1,36.3z M226.7,33.6v0.2h0.2c0.2-0.1,0.4-0.2,0.5-0.2v-0.4
		H227C226.8,33.3,226.7,33.4,226.7,33.6z M231.5,29.8c0,0.3-0.4,0.5-1.3,0.7v-0.4C230.9,29.9,231.3,29.8,231.5,29.8z M231.8,29.4
		h0.3v0.4h-0.6C231.5,29.5,231.6,29.4,231.8,29.4z"/>
	<path class="st0" d="M298.4,12v0.2l-0.3,0.5v0.2h0.6c0.4-0.4,1.2-0.5,2.4-0.5c1.5,0.3,2.2,0.9,2.2,1.9v0.2
		c-0.1,0.2-0.2,0.4-0.2,0.5c0.5,0,0.7,0.2,0.7,0.5v0.2c-0.6,0.6-0.9,0.9-0.9,1.1l-0.3-0.2H302c0,0.2,0.2,0.4,0.6,0.4v0.4l-0.7-0.2
		l-0.1,0.4c0.5,0,0.7,0.1,0.7,0.4c-0.2,0-0.6,0.3-1.2,0.9c-0.4,0-1.6,0.5-3.7,1.4v0.2h0.1c1-0.4,1.6-0.7,1.9-0.9l0.1,0.4
		c-0.8,0.5-2.7,1.4-5.7,2.7v0.2h0.1l0.7-0.2v0.4c-0.4,0-1.5,0.5-3.1,1.6c-1.5,0.4-4.2,1.5-8.3,3.5v1.1l0.3,0.5
		c-1.3,1.7-3.4,5.1-6.3,10.2c-1,1.2-2.6,3.6-4.7,7.4c-0.1,0-1.6,2.1-4.3,6.4h0.2c1.8-0.9,3.6-1.6,5.6-2.1v0.2l-0.1,0.4h0.1
		c0.4-0.2,0.8-0.4,1.2-0.7c0.1,0,0.1,0.1,0.1,0.2c1.7-1,3.2-1.5,4.6-1.6l0.9,0.2c0.7-0.4,1.7-0.7,2.9-0.9c0,0.2,0.2,0.4,0.6,0.4v0.4
		c-0.4,0-0.9,0.5-1.6,1.6c-3.7,1.4-5.6,2.3-5.8,2.6h0.2c0.1,0,1.5-0.6,4.4-1.8c0.3,0.2,0.5,0.4,0.7,0.4v0.4l-4.6,2.5l-0.4,0.5
		l-0.9-0.2l0.1,0.4c-0.3,0-0.8,0.2-1.3,0.7h-0.1V57c0.5,0,0.7,0.3,0.7,0.9h-0.1l-0.4-0.4h-0.1v0.4h0.4c0,0.2-0.1,0.4-0.3,0.4h-0.3
		v-0.4h-0.3l0.1,0.4v0.2c-0.2,0-0.4-0.1-0.6-0.2c-0.1,0-0.4,0.3-0.9,0.9h-0.1l-0.3-0.2c-0.5,0.8-1,1.2-1.5,1.2v0.2h0.1l1.1-0.4v0.4
		c-0.3,0-2.7,1.3-7.4,3.9v0.2h0.1c0.6-0.2,1-0.4,1.1-0.4v0.4c-0.4,0-2.3,1.1-5.6,3.3c-0.1,0.3-1.1,0.8-3.1,1.6
		c0,0.2-0.5,0.8-1.6,1.8c0,0.1-0.1,0.3-0.4,0.5h-0.1l0.3-0.7h-0.1c-1.2,1.8-2,2.6-2.4,2.6c-0.8,0.7-1.9,1.4-3.3,1.9
		c-0.9-0.3-1.3-0.6-1.3-0.9h-0.6c-1,0-2-0.9-2.9-2.8c-0.3-0.4-0.9-0.9-1.8-1.5c0-0.8-0.3-1.6-1-2.5v-0.7l0.7-1.1l1,0.2h1.5
		c4-2.2,6-3.5,6-3.7c0-0.5,1.5-2.7,4.4-6.5h0.1c0.1,0,0.2,0.1,0.2,0.2c0.4-0.2,0.6-0.4,0.6-0.5v-0.2l-0.4,0.4h-0.1v-0.2
		c0.4-1.2,1.1-1.8,2.1-1.8v-0.2c-0.2,0-0.3-0.1-0.3-0.4c1.1-0.6,2.4-2.3,3.8-5c0.1,0,1.1-1.4,3.1-4.2l-0.2-0.4
		c0.1-0.2,0.2-0.4,0.2-0.5l-0.7,0.7h-0.2c0.3-0.6,0.6-0.9,0.9-0.9c0.2,0.1,0.3,0.2,0.4,0.2c1.8-2.7,2.8-4.1,2.8-4.3
		c-0.2,0-0.3-0.1-0.3-0.4h0.1l0.3,0.2c0-0.2,0.1-0.4,0.3-0.4l-0.1-0.4v-0.4c0.4,0,0.6-0.1,0.6-0.2l-0.1-0.4c0.1-0.4,0.2-0.5,0.3-0.5
		h0.4c0.6-1.2,1.1-1.8,1.3-1.8v-0.2h-0.1c-1.9,1.1-4.7,2.4-8.3,4c-2,1.2-3.3,1.8-4,1.8h-0.6c-0.7-0.4-1.3-1-1.8-1.9
		c0-0.5-0.7-1.5-2.2-3c0-0.4-0.2-1.1-0.7-1.9c0.1-0.5,0.6-1,1.6-1.6v-0.4h0.2l0.4,0.4c0.6-0.7,2.2-1.6,4.7-2.7
		c0.8-0.5,2.3-1.2,4.6-2.1c0.7-0.5,3-1.7,7.1-3.7c3.4-1.9,10-5,19.8-9.4c1.2-0.6,2.9-1.2,5.3-1.8L298.4,12z M252.2,62.4h0.4
		c0.1,0,0.3-0.2,0.6-0.7H253C252.5,62,252.2,62.2,252.2,62.4z M257.2,55.4h0.1c0.2,0,0.3-0.1,0.3-0.4h-0.1
		C257.3,55,257.2,55.2,257.2,55.4z M261.4,67.9h0.4c0,0.2-0.1,0.4-0.3,0.4h-0.2V67.9z M271.3,58.9l-0.3-0.2h-0.3
		c0,0.2-0.3,0.4-0.9,0.7l-0.3,0.5v0.2h0.1c0.6-0.5,1-0.7,1.2-0.7v0.2l1.5-1.1c-0.1-0.2-0.1-0.4-0.1-0.5h-0.1
		C271.6,58.3,271.4,58.6,271.3,58.9z M273.8,57.1l0.1,0.4c-1,0.1-1.5,0.2-1.5,0.5c0,0.2,0.1,0.4,0.4,0.4c0.5-0.4,1.2-0.7,2.1-1.1V57
		h-0.1L273.8,57.1z M275.9,56.8h0.3c0.1,0,0.3,0.2,0.4,0.5v0.2h-0.2c-0.2-0.2-0.4-0.4-0.6-0.4V56.8z M276.9,56.3h0.3
		c0.2,0,0.3,0.1,0.3,0.4v0.2l-0.7,0.2c-0.2-0.1-0.3-0.2-0.4-0.2v-0.4h0.6V56.3z M278,56.3h0.1c0.2,0,0.3,0.1,0.3,0.4H278V56.3z
		 M292.2,24.5v0.4l-0.6,0.2v-0.4L292.2,24.5z M295.5,19.5v0.2h0.3c0.5-0.4,1-0.5,1.3-0.5v-0.4H297C296.3,19.3,295.8,19.5,295.5,19.5
		z M297.4,18.6c0,0.2,0.1,0.4,0.3,0.4h0.2v-0.4H297.4z M297.9,16.5h0.4v-0.4h-0.2C297.9,16.2,297.9,16.3,297.9,16.5z M298,18.5v0.4
		h0.6v-0.4H298z M299.6,17.4c0,0.2-0.2,0.4-0.6,0.4v0.2l0.7,0.2v-0.4h0.3l0.7,0.2C300.7,17.6,300.4,17.4,299.6,17.4z M300.6,17.2
		v0.2c0.3,0,0.5,0.1,0.5,0.4c0.2-0.1,0.3-0.2,0.4-0.2c0-0.2-0.1-0.4-0.3-0.4H300.6z"/>
	<path class="st0" d="M350.7,12.3c0.4,0.2,0.6,0.4,0.7,0.5c-0.2,0-0.3,0.1-0.3,0.3c0.8,0,1.4,0.3,1.7,0.9c0.1,0,0.3,0.1,0.4,0.4
		l-0.7,0.5h0.1l0.3-0.1c0.5,0.1,0.8,0.4,0.8,0.8c-0.3,0.3-1.1,0.5-2.3,0.8c-0.2-0.1-0.3-0.1-0.4-0.1v0.6c0.2-0.2,0.7-0.4,1.3-0.6
		c0.5,0.1,0.7,0.2,0.7,0.4c-0.3,0.3-1,0.6-2.1,0.8c0,0.1-0.8,0.4-2.5,0.7h-0.9c0,0.1-0.2,0.3-0.7,0.5h0.4v0.2l-0.8,0.1v0.1h0.9v0.3
		c-1.7,0.4-2.5,0.7-2.6,0.7v0.1h0.3l0.7-0.1l0.1,0.3v0.1c-2,0.4-5,1-9.1,2.1c-2.3,0.7-5.4,1.5-9.1,2.3l-0.1-0.3
		c0.6-0.3,1.6-0.5,3-0.8v-0.1h-0.4c-2.4,0.6-3.6,0.9-3.7,1.1c0.1,0.2,0.1,0.3,0.1,0.4c-0.4,0-1,0.8-1.5,2.5c-1.7,4-6.8,11-15.2,21.2
		c-4.2,5-9.9,12.5-17.1,22.5c-0.8,1.2-1.7,2.7-2.6,4.4l-0.5-0.4h-0.3l-0.4,0.3c-0.2-0.3-0.3-0.7-0.3-1c0.1,0,0.1,0,0.1-0.1
		c-0.4,0-0.7-0.4-0.7-1.1c0.1,0,0.1,0,0.1-0.1h-0.3l-0.4,0.3c-0.1-0.4-0.2-0.8-0.2-1.4c0.1,0,0.1,0,0.1-0.1l-0.2-0.1v0.5H287
		c-0.2,0-0.3-0.1-0.3-0.3v-0.1l0.1-0.9c-0.2,0-0.3-0.1-0.3-0.4c0.3-1.1,0.9-2.2,1.8-3.5c0.4-0.8,1-1.5,1.8-1.8l0.3-0.4v-0.1h-0.3
		c0-0.3,0.8-1.5,2.3-3.7l0.5-0.5v-0.1l-0.1-0.3l0.5-0.3l-0.1-0.3v-0.1c0.9-1.3,1.6-2,2.1-2.1l0.1-0.3c-0.1-0.1-0.1-0.3-0.1-0.4
		c0.4,0,0.8-0.4,1.4-1.3c-0.1-0.1-0.1-0.3-0.1-0.5h0.3l0.3,0.1c0-0.1,0.8-1.1,2.3-2.9l3.4-4.7l-0.1-0.3c1.6-2.1,3.1-3.9,4.7-5.6
		c0.2,0,1.2-0.9,2.8-2.7l0.7-0.1v-0.1l-0.3-0.4c1-1.4,1.6-2.1,1.7-2.1c0.2,0.1,0.3,0.1,0.4,0.1c0-0.4,0.6-1.3,1.9-2.9l-0.1-0.3
		c0.4-0.7,1-1.2,1.6-1.7c-0.1-0.2-0.1-0.3-0.1-0.4c0.1,0,0.6-0.5,1.5-1.5l0.1,0.3c-0.1,0-0.4,0.4-0.9,1.1h0.1c0.3-0.1,1-1.2,2.2-3.3
		v-0.2c-0.2,0-0.4-0.1-0.4-0.4h-0.1c-0.2,0.2-1.1,0.4-2.7,0.6c-4.9,1.6-10,3-15.4,4.3c-1.9,0.7-4.3,1.5-7.4,2.2
		c-0.1-0.4-0.2-0.5-0.4-0.5l-0.6,0.1c0-0.1,0-0.1-0.1-0.1l0.1-0.7c-0.5-0.8-0.8-1.1-0.9-1.1l-0.4-0.4v-0.7c-0.4,0-0.9-0.7-1.7-2.2
		c-0.2,0-0.3-0.1-0.3-0.3c0.4-0.4,2.3-0.9,5.4-1.7c4.8-1.7,13.5-4.1,26-7.1C338.5,14.8,348.6,12.3,350.7,12.3z M313.4,35.6h0.1
		c0.1,0,0.3-0.2,0.5-0.5V35C313.8,35,313.6,35.2,313.4,35.6z M314.3,34.5v0.1c0.1-0.1,0.3-0.1,0.4-0.1v-0.2h-0.1
		C314.4,34.2,314.3,34.3,314.3,34.5z M331.1,23.5v0.1h0.3c0.3-0.2,0.5-0.3,0.7-0.3v-0.1h-0.1C331.6,23.4,331.3,23.5,331.1,23.5z
		 M334.2,22.6l-0.1,0.3h0.4C334.5,22.7,334.4,22.6,334.2,22.6z M337,21.9v0.1h0.4c0.1-0.1,0.3-0.1,0.5-0.1v-0.1h-0.1L337,21.9z
		 M338.6,21.5v0.1h0.4c0.3-0.2,0.6-0.3,0.9-0.3v-0.1h-0.4C339.2,21.4,338.9,21.5,338.6,21.5z M340,21.1v0.1h0.5v-0.1H340z
		 M340.9,20.9L340.9,20.9l0.3,0.1l3.5-0.7v-0.1h-0.4C342.5,20.7,341.3,20.9,340.9,20.9z M345.7,17.9v0.3h0.1c0.2,0,0.3-0.1,0.3-0.3
		H345.7z M346.3,17.8v0.1h0.1c0.5-0.1,0.9-0.1,1.2-0.1v-0.1c0-0.1-0.1-0.2-0.4-0.4h-0.1C346.8,17.6,346.5,17.8,346.3,17.8z
		 M347.5,17v0.1c0,0.1,0.2,0.3,0.6,0.5c0.2-0.1,0.3-0.1,0.4-0.1l-0.3-0.4h0.3l0.9,0.3c0.2-0.1,0.3-0.1,0.4-0.1v-0.1h-0.4V17
		c0-0.2,0.2-0.3,0.7-0.3v-0.2C349.3,16.6,348.4,16.7,347.5,17z M347.7,18.3h0.4v0.3h-0.1C347.7,18.6,347.7,18.5,347.7,18.3z
		 M350.1,16.9v0.3h0.6v-0.3H350.1z"/>
	<path class="st0" d="M376.4,12.6h0.2c0.4,0.6,1.1,0.9,1.9,0.9c0,0.2,0.8,0.8,2.3,1.7l0.7-0.1c3.3,0.9,5.9,2.7,7.6,5.4
		c1.7,1.4,2.5,4.2,2.5,8.4l-0.1,0.9c0.1,0.2,0.1,0.4,0.1,0.6c-0.3,0-0.8,1.8-1.5,5.4l-1.5,4.8c-1.3,3.8-3.8,8.5-7.4,14.2
		c-2.7,3.7-6.2,7.7-10.4,11.8c-6.1,5-11,7.7-14.7,8.3c0,0.3-1.7,0.5-5.1,0.6c-4.2,0-8.2-2.4-12.2-7.3c-1.4-2.1-2.1-3.8-2.1-5.3
		l0.1-0.7v-0.9c0.2-2.2,0.5-3.3,0.7-3.3l-0.1-0.3c1.4-6.2,5.5-13.4,12.2-21.8c7.1-7.9,12.8-13.5,17.1-16.8
		C371.3,15.3,374.5,13.2,376.4,12.6z M338.1,61.7v0.7h0.2v-0.7H338.1z M341.7,48.3l0.2,0.3c0,0.3-0.2,0.6-0.5,1.1h0.6
		c-0.2,0.3-0.3,0.6-0.3,0.9c1.4-1.8,2.1-3.1,2.1-4.2h-0.1l0.1-0.7C343.1,46.5,342.4,47.4,341.7,48.3z M342.9,64.6
		c0.6,3.9,1.8,5.8,3.4,5.8c7.2,0,14.6-4.1,22.2-12.4c0.1,0,1.4-1.4,3.7-4.2c2.5-3.3,5.5-8.2,8.9-14.7c2.6-6.4,3.9-11.3,3.9-14.5
		v-2.4c0-1.7-0.5-2.5-1.5-2.5c-0.3-0.1-0.8-0.1-1.5-0.1c-2,0-4.5,0.5-7.6,1.5c-2.4,1.3-7.4,5.8-14.9,13.2
		C348.5,46.2,342.9,56.3,342.9,64.6z M343.7,48.8V49c0.2,0,0.3-0.1,0.3-0.3v-0.2C343.8,48.5,343.7,48.6,343.7,48.8z M343.8,45.5h0.3
		c0-0.3,0.3-0.9,0.9-1.6h-0.1C344.7,43.9,344.4,44.4,343.8,45.5z M347.1,40.8v-0.1c-0.2,0-0.9,0.9-1.9,2.5c-0.1,0-0.2,0-0.2,0.1v0.2
		c0.1,0.2,0.2,0.3,0.3,0.3l-0.1,0.3v0.2h0.1c0.4-0.3,1.2-1.5,2.5-3.8h-0.1L347.1,40.8z M347,41.1v0.3c0,0.1-0.1,0.3-0.4,0.4
		l-0.2-0.3L347,41.1z M352.7,34.2c0,0.3-0.2,0.6-0.7,0.9c0-0.2-0.1-0.3-0.3-0.3c-0.7,0.6-1.9,2-3.6,4.4v0.1l0.3-0.1h0.1v0.1
		l-0.3,0.6v0.1h0.2l4.7-5.8H352.7z M358.4,27.6c0.1,0.2,0.1,0.3,0.1,0.4c-0.4,0.4-0.8,0.6-1.1,0.6l0.3-0.5h-0.2
		c-0.2,0.1-0.4,0.3-0.6,0.7c0.2,0,0.3,0.1,0.3,0.3c-0.1,0-0.5,0.3-0.9,0.9v0.1h0.2c4-4,6.4-6,7-6v0.3h0.2l0.6-0.4l-0.1-0.3v-0.1
		c0-0.2,2.4-2.4,7.2-6.8c0.1,0,1.1-0.7,3-2.1c1.2-0.6,1.8-1,1.8-1.2h-0.1c-3.1,1.3-7.8,4.7-14.1,10.2c-2.3,2.4-3.5,3.6-3.6,3.6V27.6
		z M363.2,25.1v0.1c0.2,0,0.3-0.1,0.3-0.3v-0.1C363.3,24.8,363.2,24.9,363.2,25.1z"/>
	<path class="st0" d="M417,12.5c0.6,0.1,0.9,0.2,0.9,0.4c0.2-0.1,0.3-0.1,0.4-0.1c1.5,0.5,2.8,1.5,3.8,2.8c-1.7,1.8-3.1,4-4.4,6.7
		c-13.5,21.9-20.2,33.2-20.2,34.1c-2.5,5.7-3.8,9.6-3.8,11.5v0.4c0,0.1,0,0.2-0.1,0.2c0,0.1,0,0.1,0.1,0.1c0,0.1,0,0.2-0.1,0.4
		c0.1,1.1,0.2,1.7,0.4,1.7c1.5-0.3,4.5-2.1,9-5.4c0.2,0.1,0.3,0.1,0.4,0.1l0.3-0.4c-0.1-0.2-0.1-0.4-0.1-0.4
		c1.7-1.4,3.4-3.1,4.9-5.2c3.7-3.6,6.2-6.2,7.6-7.9h0.6v-0.1h-0.3v-0.3c0.1,0,0.2,0,0.6-0.1c0,0.1,0.1,0.3,0.4,0.4
		c2.2-2.4,4.6-5.3,7.1-8.6c0.9-1,1.7-2.1,2.5-3.3h-0.1c-0.3,0.5-0.5,0.7-0.6,0.7c0-0.1,0-0.1-0.1-0.1c0.1-0.4,1-1.6,2.9-3.5h0.1
		l-1.5,2.1h0.1c2.5-2.8,6.4-7.6,11.8-14.4c1.3-1.8,2.2-3,2.8-3.3v0.2l-5.7,7.8v0.1c0.5-0.1,0.8-0.4,1.1-1c0.2,0,1.2-1,2.9-3l0.6-0.4
		l0.1,0.3c-0.1,0.1-0.1,0.3-0.1,0.6h0.1c0.9-0.6,1.5-1.2,1.8-1.9v-0.2h-0.2l-0.6,0.4h-0.1c-0.2,0-0.3-0.1-0.3-0.3l2.1-2.6h0.1
		c0.2,0,0.3,0.1,0.3,0.3c0.8-0.4,1.3-0.7,1.5-1.2c1.4-1.6,2.3-2.3,2.7-2.3c0.1,0.2,0.2,0.4,0.2,0.6c0.3-0.2,0.5-0.3,0.7-0.3l0.2,0.3
		v0.1c-0.3,0-0.4,0.1-0.4,0.3c0.1,0,0.2,0,0.4,0.1c0-0.3,0.2-0.4,0.6-0.4v0.1c-0.6,1.6-2.5,4.2-5.5,8c-1.3,2.1-6,8.1-14.1,17.9
		c-4.5,6-10.9,13.2-19,21.8c-6.3,5.7-10.6,8.6-12.8,8.6c0,0.1-0.4,0.3-1.3,0.4h-2.6c-3-0.9-4.5-1.9-4.5-2.8c-1.1-0.3-2-1-2.6-2
		c-0.6-1.5-0.9-2.4-0.9-2.8c0.1-1.2,0.2-1.8,0.3-2c-0.1-0.2-0.2-0.4-0.2-0.6c0.1,0,0.4-1.1,0.9-3.2l0.3-0.2c0.1,0.2,0.1,0.4,0.1,0.4
		c-0.2,0.3-0.3,0.6-0.3,0.7v0.1h0.2c1.2-4.3,4.2-10.6,9-18.9c1.2-2.2,4.8-8.1,10.6-17.6c0-0.1,1.3-2.2,3.8-6.4V20h-0.3v-0.1
		c1.1-2.5,1.8-3.8,2.2-3.8v0.3c1.5-2,2.5-3.3,3.1-3.8H417z M391.8,57.3c0,0.1-0.1,0.3-0.3,0.6V58h0.3c0-0.2,0-0.4,0.1-0.6v-0.1
		H391.8z M392.2,56.4v0.1h0.1c1.3-2.9,2.3-4.7,2.8-5.2c-0.1-0.2-0.1-0.3-0.1-0.4l0.6-0.6c-0.1-0.2-0.2-0.3-0.2-0.4
		c-0.4,0-1.1,1.1-2,3.3c-0.5,0.9-0.8,1.8-1,2.9C392.3,56.1,392.2,56.2,392.2,56.4z M395.6,49.2c0,0.1-0.1,0.2-0.2,0.4h0.2
		c0.2,0,0.3-0.1,0.3-0.3L395.6,49.2z M396.6,47.7h0.1c0.1,0,0.5-0.5,1-1.5h-0.1C397.2,46.5,396.9,47,396.6,47.7z M397,43.8h0.3v0.4
		H397V43.8z M401.5,36.5v0.1c0,0.2-0.1,0.3-0.3,0.3H401C401,36.8,401.2,36.7,401.5,36.5z M401.9,66.6v0.1c0.2-0.1,0.4-0.1,0.4-0.1
		v-0.3h-0.1C402,66.3,401.9,66.4,401.9,66.6z M404.4,34.3v0.2c0,0.2,0.1,0.3,0.3,0.3l0.1-0.3v-0.2H404.4z M404.8,33.9v0.3
		c1-0.9,1.5-1.6,1.5-2.2c1.2-1.8,1.8-2.8,1.8-3.1H408C407.6,29.5,406.5,31.1,404.8,33.9z M411.4,20.3v0.1c-0.1,0.2-0.1,0.3-0.1,0.4
		h-0.3v-0.1C410.9,20.6,411.1,20.4,411.4,20.3z M417.2,53v0.3c0,0,0.4-0.4,1.1-1.3v-0.2C418.3,51.8,417.9,52.2,417.2,53z
		 M418.9,50.9l-0.4,0.6v0.1c0.2,0,0.4-0.3,0.6-0.7H418.9z M419.7,50.2h0.3c0-0.3,0.3-0.6,0.9-0.9c0-0.1,0-0.2,0.1-0.4h-0.1
		C420.2,49.4,419.8,49.9,419.7,50.2z M421.1,48.4v0.2h0.3l2.1-2.6h-0.3C422.4,46.7,421.7,47.5,421.1,48.4z M424.5,44.4
		c0,0.2-0.1,0.4-0.4,0.6h-0.1v0.1h0.3l0.4-0.6v-0.1H424.5z M425.3,43.2v0.1h0.3c0-0.1,0.4-0.7,1.2-1.6v-0.3
		C426.7,41.5,426.2,42.1,425.3,43.2z M429.6,38v0.1c0.2,0,0.3-0.1,0.3-0.3v-0.1C429.7,37.7,429.6,37.8,429.6,38z M430.1,35.5v0.1
		c0,0.2-0.1,0.3-0.3,0.3v-0.1C429.9,35.6,430,35.5,430.1,35.5z M430.4,37v0.1c0.8-0.8,1.4-1.3,1.9-1.6c0.2-0.7,1-1.6,2.5-2.9
		l2.3-3.2v-0.1c-0.8,0-2.2,1.6-4.2,4.7L430.4,37z M440.9,26.1v0.1c0.2-0.1,0.3-0.1,0.4-0.1v-0.4C441.2,25.6,441,25.8,440.9,26.1z"/>
	<path class="st0" d="M500.3,12.3c0.4,0.2,0.6,0.4,0.7,0.5c-0.2,0-0.3,0.1-0.3,0.3c0.8,0,1.4,0.3,1.7,0.9c0.1,0,0.3,0.1,0.4,0.4
		l-0.7,0.5h0.1l0.3-0.1c0.5,0.1,0.8,0.4,0.8,0.8c-0.3,0.3-1.1,0.5-2.3,0.8c-0.2-0.1-0.3-0.1-0.4-0.1v0.6c0.2-0.2,0.7-0.4,1.3-0.6
		c0.5,0.1,0.7,0.2,0.7,0.4c-0.3,0.3-1,0.6-2.1,0.8c0,0.1-0.8,0.4-2.5,0.7h-0.9c0,0.1-0.2,0.3-0.7,0.5h0.4v0.2l-0.8,0.1v0.1h0.9v0.3
		c-1.7,0.4-2.5,0.7-2.6,0.7v0.1h0.3l0.7-0.1l0.1,0.3v0.1c-2,0.4-5,1-9.1,2.1c-2.3,0.7-5.4,1.5-9.1,2.3l-0.1-0.3
		c0.6-0.3,1.6-0.5,3-0.8v-0.1H480c-2.4,0.6-3.6,0.9-3.7,1.1c0.1,0.2,0.1,0.3,0.1,0.4c-0.4,0-1,0.8-1.5,2.5c-1.7,4-6.8,11-15.2,21.2
		c-4.2,5-9.9,12.5-17.1,22.5c-0.8,1.2-1.7,2.7-2.6,4.4l-0.5-0.4h-0.3l-0.4,0.3c-0.2-0.3-0.3-0.7-0.3-1c0.1,0,0.1,0,0.1-0.1
		c-0.4,0-0.7-0.4-0.7-1.1c0.1,0,0.1,0,0.1-0.1h-0.3l-0.4,0.3c-0.1-0.4-0.2-0.8-0.2-1.4c0.1,0,0.1,0,0.1-0.1l-0.2-0.1v0.5h-0.5
		c-0.2,0-0.3-0.1-0.3-0.3v-0.1l0.1-0.9c-0.2,0-0.3-0.1-0.3-0.4c0.3-1.1,0.9-2.2,1.8-3.5c0.4-0.8,1-1.5,1.8-1.8l0.3-0.4v-0.1h-0.3
		c0-0.3,0.8-1.5,2.3-3.7l0.5-0.5v-0.1l-0.1-0.3l0.5-0.3l-0.1-0.3v-0.1c0.9-1.3,1.6-2,2.1-2.1l0.1-0.3c-0.1-0.1-0.1-0.3-0.1-0.4
		c0.4,0,0.8-0.4,1.4-1.3c-0.1-0.1-0.1-0.3-0.1-0.5h0.3l0.3,0.1c0-0.1,0.8-1.1,2.3-2.9l3.4-4.7l-0.1-0.3c1.6-2.1,3.1-3.9,4.7-5.6
		c0.2,0,1.2-0.9,2.8-2.7l0.7-0.1v-0.1l-0.3-0.4c1-1.4,1.6-2.1,1.7-2.1c0.2,0.1,0.3,0.1,0.4,0.1c0-0.4,0.6-1.3,1.9-2.9l-0.1-0.3
		c0.4-0.7,1-1.2,1.6-1.7c-0.1-0.2-0.1-0.3-0.1-0.4c0.1,0,0.6-0.5,1.5-1.5l0.1,0.3c-0.1,0-0.4,0.4-0.9,1.1h0.1c0.3-0.1,1-1.2,2.2-3.3
		v-0.2c-0.2,0-0.4-0.1-0.4-0.4h-0.1c-0.2,0.2-1.1,0.4-2.7,0.6c-4.9,1.6-10,3-15.4,4.3c-1.9,0.7-4.3,1.5-7.4,2.2
		c-0.1-0.4-0.2-0.5-0.4-0.5l-0.6,0.1c0-0.1,0-0.1-0.1-0.1l0.1-0.7c-0.5-0.8-0.8-1.1-0.9-1.1l-0.4-0.4v-0.7c-0.4,0-0.9-0.7-1.7-2.2
		c-0.2,0-0.3-0.1-0.3-0.3c0.4-0.4,2.3-0.9,5.4-1.7c4.8-1.7,13.5-4.1,26-7.1C488,14.8,498.2,12.3,500.3,12.3z M462.9,35.6h0.1
		c0.1,0,0.3-0.2,0.5-0.5V35C463.3,35,463.1,35.2,462.9,35.6z M463.8,34.5v0.1c0.1-0.1,0.3-0.1,0.4-0.1v-0.2h-0.1
		C463.9,34.2,463.8,34.3,463.8,34.5z M480.6,23.5v0.1h0.3c0.3-0.2,0.5-0.3,0.7-0.3v-0.1h-0.1C481.1,23.4,480.9,23.5,480.6,23.5z
		 M483.8,22.6l-0.1,0.3h0.4C484,22.7,483.9,22.6,483.8,22.6z M486.6,21.9v0.1h0.4c0.1-0.1,0.3-0.1,0.5-0.1v-0.1h-0.1L486.6,21.9z
		 M488.1,21.5v0.1h0.4c0.3-0.2,0.6-0.3,0.9-0.3v-0.1H489C488.8,21.4,488.5,21.5,488.1,21.5z M489.6,21.1v0.1h0.5v-0.1H489.6z
		 M490.5,20.9L490.5,20.9l0.3,0.1l3.5-0.7v-0.1h-0.4C492,20.7,490.9,20.9,490.5,20.9z M495.2,17.9v0.3h0.1c0.2,0,0.3-0.1,0.3-0.3
		H495.2z M495.9,17.8v0.1h0.1c0.5-0.1,0.9-0.1,1.2-0.1v-0.1c0-0.1-0.1-0.2-0.4-0.4h-0.1C496.3,17.6,496.1,17.8,495.9,17.8z
		 M497.1,17v0.1c0,0.1,0.2,0.3,0.6,0.5c0.2-0.1,0.3-0.1,0.4-0.1l-0.3-0.4h0.3l0.9,0.3c0.2-0.1,0.3-0.1,0.4-0.1v-0.1H499V17
		c0-0.2,0.2-0.3,0.7-0.3v-0.2C498.8,16.6,497.9,16.7,497.1,17z M497.2,18.3h0.4v0.3h-0.1C497.3,18.6,497.2,18.5,497.2,18.3z
		 M499.7,16.9v0.3h0.6v-0.3H499.7z"/>
</g>
</svg>
