<?xml version="1.0" encoding="utf-8"?>
<!-- Generator: Adobe Illustrator 19.0.1, SVG Export Plug-In . SVG Version: 6.00 Build 0)  -->
<svg version="1.1" id="Layer_1" xmlns="http://www.w3.org/2000/svg" xmlns:xlink="http://www.w3.org/1999/xlink" x="0px" y="0px"
	 viewBox="0 0 591.2 93.9" style="enable-background:new 0 0 591.2 93.9;" xml:space="preserve">
<style type="text/css">
	.st0{fill:#FFFFFF;}
</style>
<g>
	<path class="st0" d="M82.5,0v0.3l-0.4,0.8v0.3H83c0.6-0.5,1.8-0.8,3.5-0.8c2.2,0.4,3.3,1.4,3.3,2.9v0.3c-0.1,0.4-0.2,0.6-0.2,0.8
		c0.7,0.1,1.1,0.3,1.1,0.8v0.3c-0.9,0.8-1.3,1.3-1.3,1.5l-0.4-0.3h-1.1c0,0.4,0.3,0.5,0.9,0.5v0.5l-1.1-0.3l-0.2,0.5
		c0.7,0,1.1,0.2,1.1,0.5c-0.3,0-0.9,0.4-1.8,1.3c-0.6,0-2.4,0.7-5.4,2.1v0.3h0.2c1.5-0.6,2.4-1,2.9-1.3l0.2,0.5
		c-1.2,0.7-4,2-8.5,3.9v0.3h0.2l1.1-0.3v0.5c-0.6,0-2.1,0.8-4.6,2.4c-2.2,0.5-6.3,2.2-12.2,5.2V25l0.4,0.8
		c-1.9,2.5-5.1,7.5-9.4,15.1c-1.5,1.7-3.8,5.4-6.9,10.9c-0.2,0-2.3,3.1-6.3,9.4h0.2c2.7-1.4,5.4-2.4,8.3-3.1v0.3L46.6,59h0.2
		c0.6-0.3,1.2-0.6,1.8-1.1c0.1,0,0.2,0.1,0.2,0.3c2.5-1.4,4.7-2.2,6.8-2.4l1.3,0.3c1-0.6,2.4-1.1,4.4-1.3c0,0.3,0.3,0.5,0.9,0.5v0.5
		c-0.5,0-1.3,0.8-2.4,2.4c-5.4,2.2-8.3,3.5-8.5,3.9h0.2c0.1,0,2.3-0.9,6.5-2.6c0.4,0.4,0.7,0.5,1.1,0.5v0.5l-6.8,3.6L51.6,65
		l-1.3-0.3l0.2,0.5c-0.5,0-1.2,0.4-2,1.1h-0.2v0.3c0.7,0,1.1,0.4,1.1,1.3h-0.2l-0.7-0.5h-0.2v0.5H49c0,0.4-0.1,0.5-0.4,0.5h-0.4
		v-0.5h-0.4l0.2,0.5v0.3c-0.3,0-0.6-0.1-0.9-0.3c-0.2,0-0.6,0.4-1.3,1.3h-0.2l-0.4-0.3c-0.8,1.2-1.5,1.8-2.2,1.8v0.2h0.2l1.5-0.5
		v0.5c-0.4,0-4,1.9-10.9,5.8v0.3H34c0.9-0.4,1.5-0.5,1.5-0.5v0.5c-0.6,0-3.4,1.7-8.3,5c-0.2,0.4-1.7,1.2-4.6,2.3
		c0,0.2-0.8,1.1-2.4,2.6c0,0.2-0.2,0.5-0.7,0.7h-0.2l0.4-1h-0.2c-1.8,2.6-3,3.9-3.5,3.9c-1.2,1.1-2.8,2-4.8,2.9
		c-1.3-0.4-2-0.8-2-1.3H8.5c-1.5,0-2.9-1.4-4.4-4.2c-0.4-0.6-1.3-1.3-2.6-2.1C1.5,85.2,1,84,0,82.7v-1.1l1.1-1.6l1.5,0.3h2.2
		c5.8-3.3,8.8-5.1,8.9-5.4c0-0.7,2.2-4,6.5-9.7h0.2c0.1,0,0.2,0.1,0.2,0.3c0.6-0.3,0.9-0.5,0.9-0.8v-0.3L20.9,65h-0.2v-0.3
		c0.7-1.7,1.7-2.6,3-2.6v-0.3c-0.3,0-0.4-0.2-0.4-0.5C25,60.4,26.9,58,29,54c0.1,0,1.6-2.1,4.6-6.3l-0.2-0.5
		c0.1-0.3,0.2-0.6,0.2-0.7l-1.1,1h-0.2c0.4-0.8,0.9-1.3,1.3-1.3c0.3,0.2,0.5,0.3,0.7,0.3c2.8-3.9,4.1-6,4.1-6.3
		c-0.3,0-0.4-0.2-0.4-0.5h0.2l0.4,0.3c0.1-0.4,0.2-0.5,0.4-0.5l-0.2-0.5v-0.5c0.6,0,0.9-0.1,0.9-0.3l-0.2-0.5
		c0.1-0.5,0.3-0.8,0.4-0.8h0.7c1-1.7,1.6-2.6,1.9-2.6v-0.3h-0.2c-2.8,1.6-6.8,3.5-12.2,6c-2.9,1.8-4.9,2.6-5.9,2.6h-0.9
		c-1.1-0.6-1.9-1.5-2.6-2.9c0-0.8-1.1-2.2-3.3-4.4c0-0.6-0.4-1.6-1.1-2.9c0.1-0.7,0.9-1.5,2.4-2.3v-0.5h0.2l0.7,0.5
		c0.9-1.1,3.3-2.4,7-3.9c1.1-0.7,3.4-1.8,6.7-3.2c1-0.7,4.5-2.5,10.5-5.4c5-2.8,14.8-7.4,29.2-13.8c1.7-0.9,4.3-1.7,7.8-2.6L82.5,0z
		 M14.2,74.6h0.7c0.2,0,0.5-0.4,0.9-1.1h-0.2C14.6,74,14.2,74.3,14.2,74.6z M21.6,64.2h0.2c0.3,0,0.4-0.2,0.4-0.5H22
		C21.7,63.7,21.6,63.9,21.6,64.2z M27.9,82.7h0.7c0,0.4-0.1,0.5-0.4,0.5h-0.2V82.7z M42.5,69.4L42,69.1h-0.4c0,0.3-0.4,0.6-1.3,1.1
		L39.9,71v0.3h0.2c0.8-0.7,1.4-1.1,1.7-1.1v0.3l2.2-1.6c-0.1-0.3-0.2-0.6-0.2-0.8h-0.2C42.9,68.5,42.6,68.9,42.5,69.4z M46.1,66.8
		l0.2,0.5c-1.4,0.1-2.2,0.3-2.2,0.7c0,0.4,0.2,0.5,0.7,0.5c0.8-0.5,1.8-1,3-1.5v-0.5h-0.2L46.1,66.8z M49.2,66.3h0.4
		c0.2,0,0.4,0.3,0.7,0.8v0.3h-0.2c-0.4-0.4-0.6-0.5-0.9-0.5V66.3z M50.8,65.5h0.4c0.3,0.1,0.4,0.2,0.4,0.5v0.3l-1.1,0.3
		c-0.3-0.2-0.5-0.3-0.7-0.3v-0.5h0.9V65.5z M52.3,65.5h0.2c0.3,0.1,0.4,0.2,0.4,0.5h-0.7V65.5z M73.4,18.5V19l-0.9,0.3v-0.5
		L73.4,18.5z M78.2,11.2v0.3h0.4c0.8-0.5,1.4-0.8,1.9-0.8v-0.5h-0.2C79.4,10.9,78.7,11.2,78.2,11.2z M81,9.9
		c0.1,0.3,0.2,0.5,0.4,0.5h0.2V9.9H81z M81.7,6.8h0.7V6.2h-0.2C81.8,6.3,81.7,6.5,81.7,6.8z M81.9,9.7v0.5h0.9V9.7H81.9z M84.3,8.1
		c0,0.4-0.3,0.5-0.9,0.5v0.3l1.1,0.3V8.6h0.4L86,8.9C85.9,8.3,85.3,8.1,84.3,8.1z M85.8,7.8v0.3c0.4,0,0.7,0.2,0.7,0.5
		c0.3-0.2,0.5-0.3,0.7-0.3c0-0.4-0.1-0.5-0.4-0.5H85.8z"/>
	<path class="st0" d="M161.1,0c0.6,0.2,0.9,0.5,0.9,0.7c-0.2,0.1-0.4,0.2-0.4,0.4c1.2,0,2.1,0.5,2.5,1.4c0.2,0,0.4,0.2,0.6,0.6
		l-1,0.7h0.2l0.4-0.2c0.8,0.2,1.1,0.6,1.1,1.1c-0.4,0.4-1.6,0.8-3.5,1.1c-0.2-0.1-0.4-0.2-0.6-0.2v1c0.4-0.3,1-0.6,1.9-1
		c0.8,0.1,1.1,0.3,1.1,0.6c-0.4,0.4-1.4,0.8-3.1,1.1c0,0.2-1.2,0.5-3.6,1h-1.3c0,0.2-0.3,0.4-1,0.8h0.6v0.4L155,9.8V10h1.3v0.4
		c-2.4,0.6-3.7,1-3.8,1v0.2h0.4l1.1-0.2l0.2,0.4v0.2c-3,0.5-7.4,1.5-13.4,3.1c-3.5,1-8,2.2-13.4,3.4l-0.2-0.4
		c0.9-0.4,2.4-0.8,4.4-1.2v-0.2H131c-3.6,0.9-5.4,1.4-5.6,1.5c0.1,0.2,0.2,0.4,0.2,0.6c-0.6,0-1.4,1.2-2.3,3.6
		c-2.5,5.9-10,16.4-22.6,31.5c-6.2,7.4-14.7,18.5-25.4,33.4c-1.2,1.8-2.5,4-3.8,6.5l-0.8-0.6h-0.4l-0.6,0.4c-0.2-0.5-0.4-1-0.4-1.5
		c0.1,0,0.2-0.1,0.2-0.2c-0.6,0-1-0.5-1-1.5c0.1,0,0.2-0.1,0.2-0.2h-0.4l-0.6,0.4c-0.3-0.5-0.4-1.2-0.4-2.1c0.1,0,0.2-0.1,0.2-0.2
		l-0.4-0.2v0.7h-0.8c-0.3,0-0.4-0.1-0.4-0.4v-0.2l0.2-1.3c-0.3,0-0.4-0.2-0.4-0.6c0.4-1.6,1.3-3.3,2.7-5.2c0.6-1.3,1.5-2.2,2.7-2.7
		l0.4-0.6v-0.2h-0.4c0-0.4,1.2-2.3,3.5-5.6l0.7-0.7v-0.2l-0.2-0.4l0.8-0.4L75.8,70v-0.2c1.4-2,2.4-3,3.1-3.1l0.2-0.4
		c-0.1-0.2-0.2-0.4-0.2-0.6c0.6,0,1.3-0.6,2.1-1.9c-0.1-0.2-0.2-0.5-0.2-0.8h0.4l0.4,0.2c0-0.2,1.2-1.7,3.5-4.4l5-6.9l-0.2-0.4
		c2.3-3.1,4.6-5.8,6.9-8.3c0.4,0,1.8-1.3,4.2-4l1-0.2V39l-0.4-0.6c1.5-2.1,2.4-3.1,2.5-3.1c0.3,0.1,0.5,0.2,0.6,0.2
		c0-0.6,1-2,2.9-4.2l-0.2-0.4c0.6-1,1.4-1.9,2.3-2.5c-0.1-0.2-0.2-0.4-0.2-0.6c0.1,0,0.9-0.8,2.3-2.3l0.2,0.4
		c-0.1,0-0.6,0.6-1.3,1.7h0.2c0.4-0.1,1.5-1.7,3.3-4.8v-0.4c-0.4,0-0.6-0.2-0.6-0.6h-0.2c-0.2,0.3-1.6,0.6-4,1
		c-7.2,2.3-14.8,4.4-22.9,6.3c-2.8,1.1-6.4,2.2-10.9,3.3c-0.2-0.5-0.4-0.7-0.6-0.7l-1,0.2c0-0.1-0.1-0.2-0.2-0.2l0.2-1
		c-0.7-1.1-1.1-1.7-1.3-1.7L72,28.4v-0.9c-0.6,0-1.4-1.1-2.5-3.3c-0.3,0-0.4-0.1-0.4-0.4c0.7-0.5,3.4-1.4,8.1-2.5
		c7.2-2.6,20-6.1,38.6-10.5C142.9,3.6,158,0,161.1,0z M105.6,34.5h0.2c0.2,0,0.4-0.2,0.7-0.7v-0.2C106.2,33.6,105.9,33.9,105.6,34.5
		z M107,32.8V33c0.2-0.1,0.4-0.2,0.6-0.2v-0.4h-0.2C107.1,32.5,107,32.6,107,32.8z M131.9,16.5v0.2h0.4c0.4-0.3,0.8-0.4,1-0.4v-0.2
		h-0.2C132.7,16.4,132.3,16.5,131.9,16.5z M136.5,15.2l-0.2,0.4h0.6C136.9,15.3,136.8,15.2,136.5,15.2z M140.8,14.2v0.2h0.6
		c0.2-0.1,0.5-0.2,0.7-0.2V14h-0.2L140.8,14.2z M143,13.6v0.2h0.6c0.5-0.3,1-0.4,1.4-0.4v-0.2h-0.6C144,13.5,143.5,13.6,143,13.6z
		 M145.2,13.1v0.2h0.7v-0.2H145.2z M146.5,12.7v0.2h0.4l5.2-1.2v-0.2h-0.6C148.8,12.3,147.1,12.7,146.5,12.7z M153.6,8.3v0.4h0.2
		c0.2,0,0.4-0.1,0.4-0.4H153.6z M154.6,8v0.2h0.2c0.7-0.1,1.3-0.2,1.8-0.2V7.9c0-0.2-0.2-0.4-0.6-0.6h-0.2
		C155.2,7.8,154.8,8,154.6,8z M156.3,6.9v0.2c0,0.2,0.4,0.4,1,0.7c0.3-0.1,0.5-0.2,0.6-0.2l-0.4-0.6h0.4l1.4,0.4
		c0.2-0.1,0.4-0.2,0.6-0.2V7.1h-0.6V6.9c0-0.2,0.3-0.4,1-0.4V6.2C158.9,6.3,157.6,6.5,156.3,6.9z M156.5,8.8h0.6v0.4h-0.2
		C156.6,9.2,156.5,9.1,156.5,8.8z M160.1,6.7v0.4h1V6.7H160.1z"/>
	<path class="st0" d="M202.1,0l2.2,0.4c0.1,0,0.2-0.1,0.2-0.2c5,0.7,8.6,1.9,11,3.5c3.5,2.8,6.2,6.1,8,9.9c0.5,1.5,0.7,2.6,0.7,3.5
		c0,3.4-1.5,7.1-4.4,11.2c-0.4,1.5-4.2,5.9-11.3,13.4c-2.8,2.3-5.6,4.7-8.6,7.5c-8.5,7.2-18.3,14.7-29.6,22.6
		c-18.9,13.1-30.5,20.4-34.8,21.9c-0.6,0-1.3-0.4-2.3-1.2c-0.1,0-0.3-0.3-0.5-1c-0.4,0-0.9-0.6-1.5-1.8c-0.6,0-0.9-0.1-0.9-0.4v-0.5
		h-0.2v-0.4c0.9-1.1,1.9-1.9,3.1-2.4c0-0.3,0.6-0.6,1.8-1.1c0-0.2-0.5-0.6-1.6-1.4c-0.4,0.4-0.8,0.5-1.2,0.5v-0.2
		c0.2-0.7,0.3-1.2,0.3-1.4c-0.2,0-0.3-0.2-0.3-0.5c0-1.8,0.8-3.3,2.4-4.7c1.1-2.5,1.9-3.8,2.4-4l0.4,0.2c0.4-0.6,0.6-0.9,0.7-0.9
		l-0.2-0.4c0.3-0.4,0.7-1,1.2-1.9L139,70c0-0.6,0.4-1,1.1-1.2l0.2-0.4c-0.2,0-0.4-0.1-0.4-0.4c0.6-1.4,1.4-2.5,2.4-3.2v-0.4H142
		v-0.1c0.3-0.4,0.6-1.1,1.1-2.1h0.4v0.2l-0.2,0.4h0.2c1.3-1.6,2.1-2.6,2.3-2.9l5.2-9.4c0.6-0.7,2.2-3.8,4.7-9.1
		c8.6-17.1,12.9-26.1,12.9-27.2c0-0.1-0.3-0.5-0.8-1.2c0.1-0.2,0.2-0.4,0.2-0.5c-0.3,0-0.7-0.5-1.2-1.4l-0.9-0.3
		c-0.2,0.1-0.4,0.1-0.5,0.1l-0.2-0.3c1.5-1.4,2.3-2.1,2.5-2.1c2.9-1.3,4.6-2.1,5.1-2.4c0.5-2,1.5-3,2.9-3c0-0.2,0.1-0.4,0.4-0.4
		c0,0.1,0.4,0.4,1.1,1.1c6.4-1.7,11.5-2.6,15.1-2.6C195.2,0.6,198.6,0.2,202.1,0z M201.7,7.8c-0.2-0.1-0.4-0.2-0.7-0.2L200,7.8V7.6
		c-7.3,0.9-11.1,1.5-11.5,1.8c-0.2-0.1-0.4-0.2-0.5-0.2c0,0.2-2.3,0.9-6.8,1.9c-2.6,0.9-3.9,1.5-4,1.9c-3.5,8.3-9.7,21.3-18.6,39
		c-8.9,16.1-13.8,24.8-14.6,25.9v0.5c-0.7,0.6-1.2,1.3-1.4,2.1h0.4c0.4-0.9,1.6-1.8,3.6-2.8c0-0.6,0.2-0.9,0.5-0.9l0.4,0.2
		c0.9-1.2,1.8-1.8,2.8-1.8c0.6-0.4,0.8-0.7,0.8-1.1h0.7c0-0.1,0.4-0.5,1.2-1v-0.4l0.4,0.2c0.7-0.5,1.2-0.7,1.4-0.7v-0.2h-0.2
		c-0.2,0.1-0.4,0.2-0.5,0.2v-0.2c0-0.2,0.1-0.4,0.4-0.4l0.8,0.2c0-0.2,0.7-0.8,1.9-1.6c0-0.4,0.4-0.7,1.2-1.1c0.8-0.7,2-1.6,3.6-2.6
		l0.2-0.4h-0.4c0,0.3-0.4,0.6-1.2,0.9h-0.2c0.8-0.9,2.9-2.4,6.3-4.7h0.5l-0.4,0.5h0.4c0.5-0.2,0.8-0.6,1-1.1V62l-0.7,0.5h-0.2
		c0.3-0.4,0.7-0.8,1.4-1.2h0.4l-0.2,0.4v0.2c0.9-0.6,1.4-0.9,1.4-1.1h-0.2l-0.5,0.4h-0.4c0-0.1,0.4-0.5,1.1-1c0,0.2,0.1,0.3,0.4,0.3
		h0.2v-0.2c-0.1-0.2-0.2-0.4-0.2-0.5l0.9-0.4l0.2,0.4c1.7-0.7,2.6-1.3,2.6-1.8l2.6-2.1l0.3,0.2c0-0.4,0.6-0.8,1.6-1.2
		c0-0.4,0.7-1.1,2.1-2.1v-0.4l-0.7,0.5h-0.2v-0.2c0-0.2,0.2-0.4,0.5-0.5l0.9,0.2l-0.4-0.5v-0.2l1-0.8l0.7,0.2h0.2v-0.2h-0.5v-0.2
		c1.9-1.8,3.4-3,4.5-3.5c0.7-0.5,1.1-0.7,1.1-0.8l0.9,0.2c0.9-0.8,1.4-1.3,1.4-1.4v-0.2l-0.5,0.4l-0.2-0.4c0.5-0.5,0.8-0.7,1-0.7
		l0.4,0.2c0.5-0.2,0.7-0.4,0.7-0.5h-0.2c-0.2,0.1-0.4,0.2-0.5,0.2v-0.2c0.5-0.8,1.1-1.2,1.8-1.2l-0.2-0.4c0.1,0,0.7-0.4,1.8-1.2
		c0.9,0,1.4-0.2,1.4-0.7c-0.2,0-0.4-0.1-0.4-0.4l1.6-1.9h0.2c0.1,0,0.2,0.1,0.2,0.2c0.2,0,0.5-0.5,0.9-1.4c0.4-0.5,1.4-1.4,2.8-2.6
		v0.2c0.2,0,0.7-0.6,1.6-1.9c0.7-0.7,1.6-1.4,2.6-2.1c0-0.4,1.1-1.6,3.2-3.8c3.3-3.7,5.3-6.7,6.1-9.1c1.3-2.3,1.9-4.4,1.9-6.5v-0.5
		c0-0.8-0.9-1.4-2.8-1.8c-0.3-0.2-2.1-0.6-5.5-1.2c-0.1,0-0.2,0.1-0.2,0.2c-1.3-0.1-2-0.3-2.3-0.4c-0.2,0.1-0.4,0.2-0.7,0.2
		c-0.2,0-0.4-0.1-0.4-0.2L201.7,7.8z M142.5,64.2v0.3h0.2c0.1-0.7,0.4-1,0.9-1c0-0.2-0.1-0.4-0.4-0.4
		C143,63.2,142.8,63.5,142.5,64.2z M148.1,75.5v0.2c0,0.3-0.3,0.6-0.9,0.7l-0.2-0.4L148.1,75.5z M153.1,48.4v0.2
		c0.1,0,0.4-0.3,0.9-0.9v-0.2C153.9,47.5,153.6,47.8,153.1,48.4z M156.6,42v0.2c0.2,0,0.4-0.1,0.4-0.4v-0.2
		C156.7,41.6,156.6,41.8,156.6,42z M159.3,68.2c0,0.1-0.5,0.4-1.4,1v-0.2C158.1,68.5,158.6,68.2,159.3,68.2z M162.7,66.1h0.4
		c0.2,0,0.4-0.2,0.5-0.7h-0.2C163.2,65.4,163,65.7,162.7,66.1z M164.3,64.9h0.2c0.3-0.2,0.5-0.4,0.7-0.4v-0.1H165
		C164.5,64.6,164.3,64.7,164.3,64.9z M169.5,64.7v0.4h0.2c0.2,0,0.4-0.1,0.4-0.4v-0.2C169.8,64.7,169.6,64.7,169.5,64.7z
		 M179.3,63.9c0,0.4-0.2,0.5-0.5,0.5v0.1h0.4c0-0.3,0.2-0.4,0.7-0.5v-0.2H179.3z M183.4,50.3v0.4c0.2-0.1,0.4-0.2,0.5-0.2v-0.2
		H183.4z M186.9,47.9h0.5v-0.4h-0.2C187,47.6,186.9,47.7,186.9,47.9z M192.5,43v0.4h0.2c0.2,0,0.4-0.1,0.4-0.4H192.5z M193.5,42.1
		c0,0.2-0.1,0.3-0.4,0.3v0.2h0.4l0.2-0.4v-0.1H193.5z M210.1,25.8v0.2c0.2,0,0.4-0.2,0.5-0.5h-0.2C210.2,25.4,210.1,25.5,210.1,25.8
		z M210.8,24.9V25c0.1,0,0.5-0.4,1.1-1.2v-0.2C211.6,23.7,211.2,24.1,210.8,24.9z M213.5,20.3c0,0.4-0.4,1.1-1.2,2.1
		c0,0.2-0.2,0.5-0.5,0.9v0.2h0.2c0.8-1.1,1.5-2.1,1.9-3.2H213.5z M214.9,18.1v0.2h0.4v-0.5C215.1,17.8,214.9,17.9,214.9,18.1z"/>
	<path class="st0" d="M251.1,12.5h3.6c1.6,0,2.4,0.1,2.4,0.3l0.3-0.2c0.3,0.2,1.4,0.4,3.3,0.7c3.1,1.3,5.1,2.8,5.9,4.7
		c1.5,2.3,2.2,4,2.2,5.1c-0.5,2.3-3.9,5.3-10.1,9c-4.1,2.3-9.6,5-16.4,8c-7.2,3.5-11.1,5.2-11.6,5.2v0.1c0.3,0.3,1.8,1.1,4.5,2.4
		c0,0.1,1.2,0.9,3.6,2.4l4,2.9c3.4,3.3,5.8,5.8,7,7.6c3.8,5.5,6,9.7,6.6,12.6c-0.4,0.4-0.7,0.6-1.1,0.6c-0.9,0-1.6-0.7-1.8-2
		c-0.5-0.5-0.7-0.8-0.7-1c0-0.2-0.4-0.7-1.1-1.6c-1.2-3.3-2.8-6-4.8-8c-1.3-1.7-3.3-3.5-5.8-5.4c-6-3.9-10.5-6.1-13.5-6.6l-3.6,6
		c-1.8,2.4-4.7,6.5-8.7,12.3c-0.2,0-1.5,1.6-3.8,4.7c-1.1,2-2,3.1-2.8,3.2l-0.3-0.6l-0.3,0.1h-0.2c-0.3-0.4-0.6-0.6-1.1-0.8
		c0-0.6-0.4-1-1.3-1c0-0.2-0.1-0.5-0.4-0.8l-0.3,0.1h-0.3c-0.3-0.6-0.7-1.1-1.3-1.5c0.6-0.7,1-1,1.3-1v-0.1l-0.1-0.3
		c0.1,0,0.1,0,0.1-0.1l0.3,0.1c0.1,0,0.3-0.1,0.4-0.4c-0.1-0.2-0.1-0.3-0.1-0.4c0.3-0.4,0.7-0.6,1.1-0.7v-0.1
		c-0.1-0.2-0.1-0.4-0.1-0.4c0.5,0,1.2-0.7,2.1-2.1c0.4-0.4,0.8-1,1.3-1.8c0.1,0,0.5-0.6,1.1-1.8c0.4-0.1,1.1-1.3,2.1-3.5
		c0.2,0,0.5-0.4,0.8-1.1V57h-0.3v-0.3h0.1c0.2,0.1,0.3,0.1,0.4,0.1c0.3-0.8,0.7-1.4,1.4-1.7c0-0.3,0.5-0.8,1.4-1.5
		c0-0.6,0.4-1.4,1.1-2.2c-0.1,0-0.1,0-0.1-0.1c0.2,0,0.9-1,2.1-2.8c0.2,0,0.3-0.3,0.4-0.8c0.9-0.8,1.4-1.5,1.4-2.1
		c-0.1-0.4-0.6-1-1.4-1.7c-0.4-0.5-0.6-0.8-0.6-1.1v-0.3c0-0.4,0.7-0.6,2.1-0.8c2.6-0.8,4-1.5,4-2.1c0.2,0,0.9-1,2.1-3.1
		c1.1-1.9,2.1-3.2,3.1-3.9v-0.2l-0.1-0.3h0.4l-0.1-0.3c0-0.5,0.3-0.9,0.8-1.1c0-0.3,0.4-1,1.1-2c1.3-1.9,2.6-4,3.8-6.4
		c-0.1,0-0.1-0.1-0.1-0.2c-2.7,0.8-6,1.9-10.1,3.4c-4.9,2.1-7.6,3.2-8.3,3.2c-0.8-0.2-1.4-0.5-1.7-1.1c-0.2-0.8-0.6-1.3-1.3-1.5
		c0-0.6-0.4-0.9-1.1-1v-0.1c0.1,0,0.1,0,0.1-0.1c-0.3,0-0.5-0.4-0.6-1.3c0.3-0.3,1.7-0.8,4.1-1.5c5.6-2.5,10.7-4.4,15.4-5.6
		c3.8-0.8,6.2-1.5,7-2.1c0.4,0,0.8-0.1,1.1-0.4h0.2c0.1,0,0.1,0,0.1,0.1l0.3-0.1c1.2,0.1,1.8,0.1,1.8,0.1c1.1-0.4,2.2-0.6,3.1-0.6
		l-0.1-0.3l0.3-0.1v0.4C249.5,12.9,250.8,12.7,251.1,12.5z M212.3,58.2v0.3c0,0.2-0.1,0.3-0.3,0.3v-0.3
		C212.1,58.3,212.2,58.2,212.3,58.2z M214,55.9h0.1c0,0.1-0.1,0.3-0.4,0.4v-0.2C213.7,55.9,213.8,55.9,214,55.9z M217.4,50.9v0.3
		c0,0.2-0.1,0.3-0.3,0.3v-0.3C217.1,51,217.2,50.9,217.4,50.9z M219.5,47.9h0.1c-0.2,0.9-1,1.9-2.2,3.1v-0.3L219.5,47.9z
		 M220.6,46.2h0.1c-0.1,0.6-0.3,1-0.6,1c0-0.1,0-0.1-0.1-0.1C220.2,46.5,220.4,46.2,220.6,46.2z M250.2,19.4v-0.2l-6.1,1.1h-0.4v0.1
		c0.4,0.6,0.6,1,0.7,1.4L238,33.7c-0.1,0-0.5,0.4-1,1.3h0.3c2.1-1.1,4.5-2.2,7.3-3.2c3.3-1.8,6.2-3.5,8.8-5.2h-0.1
		c-0.1,0-0.7,0.2-1.8,0.7c0.6-0.7,1.3-1.1,2.1-1.1c0,0.2,0.1,0.3,0.3,0.3h0.1c0.2,0,0.3-0.1,0.3-0.3c0-0.1,0-0.1-0.1-0.1
		c0.7-0.9,2.6-2.4,5.6-4.5c0-0.2,0.6-0.8,1.8-2v-0.4h-0.1c-1.6-0.2-2.6-0.3-3.1-0.3C255.2,18.8,252.5,19,250.2,19.4z M255.8,25.1
		h0.3c0.2,0,0.3-0.1,0.3-0.3h-0.3C255.9,24.9,255.8,25,255.8,25.1z"/>
	<path class="st0" d="M312.7,12v0.2l-0.3,0.5v0.2h0.6c0.4-0.4,1.2-0.5,2.4-0.5c1.5,0.3,2.2,0.9,2.2,1.9v0.2
		c-0.1,0.2-0.2,0.4-0.2,0.5c0.5,0,0.7,0.2,0.7,0.5v0.2c-0.6,0.6-0.9,0.9-0.9,1.1l-0.3-0.2h-0.7c0,0.2,0.2,0.4,0.6,0.4v0.4l-0.7-0.2
		l-0.1,0.4c0.5,0,0.7,0.1,0.7,0.4c-0.2,0-0.6,0.3-1.2,0.9c-0.4,0-1.6,0.5-3.7,1.4v0.2h0.1c1-0.4,1.6-0.7,1.9-0.9l0.1,0.4
		c-0.8,0.5-2.7,1.4-5.7,2.7v0.2h0.1l0.7-0.2v0.4c-0.4,0-1.5,0.5-3.1,1.6c-1.5,0.4-4.2,1.5-8.3,3.5v1.1l0.3,0.5
		c-1.3,1.7-3.4,5.1-6.3,10.2c-1,1.2-2.6,3.6-4.7,7.4c-0.1,0-1.6,2.1-4.3,6.4h0.2c1.8-0.9,3.6-1.6,5.6-2.1v0.2l-0.1,0.4h0.1
		c0.4-0.2,0.8-0.4,1.2-0.7c0.1,0,0.1,0.1,0.1,0.2c1.7-1,3.2-1.5,4.6-1.6l0.9,0.2c0.7-0.4,1.7-0.7,2.9-0.9c0,0.2,0.2,0.4,0.6,0.4v0.4
		c-0.4,0-0.9,0.5-1.6,1.6c-3.7,1.4-5.6,2.3-5.8,2.6h0.2c0.1,0,1.5-0.6,4.4-1.8c0.3,0.2,0.5,0.4,0.7,0.4v0.4l-4.6,2.5l-0.4,0.5
		l-0.9-0.2l0.1,0.4c-0.3,0-0.8,0.2-1.3,0.7h-0.1V57c0.5,0,0.7,0.3,0.7,0.9h-0.1l-0.4-0.4h-0.1v0.4h0.4c0,0.2-0.1,0.4-0.3,0.4h-0.3
		v-0.4h-0.3l0.1,0.4v0.2c-0.2,0-0.4-0.1-0.6-0.2c-0.1,0-0.4,0.3-0.9,0.9h-0.1l-0.3-0.2c-0.5,0.8-1,1.2-1.5,1.2v0.2h0.1l1.1-0.4v0.4
		c-0.3,0-2.7,1.3-7.4,3.9v0.2h0.1c0.6-0.2,1-0.4,1.1-0.4v0.4c-0.4,0-2.3,1.1-5.6,3.3c-0.1,0.3-1.1,0.8-3.1,1.6
		c0,0.2-0.5,0.8-1.6,1.8c0,0.1-0.1,0.3-0.4,0.5H270l0.3-0.7h-0.1c-1.2,1.8-2,2.6-2.4,2.6c-0.8,0.7-1.9,1.4-3.3,1.9
		c-0.9-0.3-1.3-0.6-1.3-0.9h-0.6c-1,0-2-0.9-2.9-2.8c-0.3-0.4-0.9-0.9-1.8-1.5c0-0.8-0.3-1.6-1-2.5v-0.7l0.7-1.1l1,0.2h1.5
		c4-2.2,6-3.5,6-3.7c0-0.5,1.5-2.7,4.4-6.5h0.1c0.1,0,0.2,0.1,0.2,0.2c0.4-0.2,0.6-0.4,0.6-0.5v-0.2l-0.4,0.4h-0.1v-0.2
		c0.4-1.2,1.1-1.8,2.1-1.8v-0.2c-0.2,0-0.3-0.1-0.3-0.4c1.1-0.6,2.4-2.3,3.8-5c0.1,0,1.1-1.4,3.1-4.2l-0.2-0.4
		c0.1-0.2,0.2-0.4,0.2-0.5l-0.7,0.7h-0.2c0.3-0.6,0.6-0.9,0.9-0.9c0.2,0.1,0.3,0.2,0.4,0.2c1.8-2.7,2.8-4.1,2.8-4.3
		c-0.2,0-0.3-0.1-0.3-0.4h0.1l0.3,0.2c0-0.2,0.1-0.4,0.3-0.4l-0.1-0.4v-0.4c0.4,0,0.6-0.1,0.6-0.2l-0.1-0.4c0.1-0.4,0.2-0.5,0.3-0.5
		h0.4c0.6-1.2,1.1-1.8,1.3-1.8v-0.2h-0.1c-1.9,1.1-4.7,2.4-8.3,4c-2,1.2-3.3,1.8-4,1.8h-0.6c-0.7-0.4-1.3-1-1.8-1.9
		c0-0.5-0.7-1.5-2.2-3c0-0.4-0.2-1.1-0.7-1.9c0.1-0.5,0.6-1,1.6-1.6v-0.4h0.2l0.4,0.4c0.6-0.7,2.2-1.6,4.7-2.7
		c0.8-0.5,2.3-1.2,4.6-2.1c0.7-0.5,3-1.7,7.1-3.7c3.4-1.9,10-5,19.8-9.4c1.2-0.6,2.9-1.2,5.3-1.8L312.7,12z M266.4,62.4h0.4
		c0.1,0,0.3-0.2,0.6-0.7h-0.1C266.7,62,266.4,62.2,266.4,62.4z M271.5,55.4h0.1c0.2,0,0.3-0.1,0.3-0.4h-0.1
		C271.6,55,271.5,55.2,271.5,55.4z M275.7,67.9h0.4c0,0.2-0.1,0.4-0.3,0.4h-0.2V67.9z M285.6,58.9l-0.3-0.2H285
		c0,0.2-0.3,0.4-0.9,0.7l-0.3,0.5v0.2h0.1c0.6-0.5,1-0.7,1.2-0.7v0.2l1.5-1.1c-0.1-0.2-0.1-0.4-0.1-0.5h-0.1
		C285.9,58.3,285.7,58.6,285.6,58.9z M288.1,57.1l0.1,0.4c-1,0.1-1.5,0.2-1.5,0.5c0,0.2,0.1,0.4,0.4,0.4c0.5-0.4,1.2-0.7,2.1-1.1V57
		h-0.1L288.1,57.1z M290.2,56.8h0.3c0.1,0,0.3,0.2,0.4,0.5v0.2h-0.2c-0.2-0.2-0.4-0.4-0.6-0.4V56.8z M291.2,56.3h0.3
		c0.2,0,0.3,0.1,0.3,0.4v0.2L291,57c-0.2-0.1-0.3-0.2-0.4-0.2v-0.4h0.6V56.3z M292.2,56.3h0.1c0.2,0,0.3,0.1,0.3,0.4h-0.4V56.3z
		 M306.5,24.5v0.4l-0.6,0.2v-0.4L306.5,24.5z M309.8,19.5v0.2h0.3c0.5-0.4,1-0.5,1.3-0.5v-0.4h-0.1
		C310.6,19.3,310.1,19.5,309.8,19.5z M311.7,18.6c0,0.2,0.1,0.4,0.3,0.4h0.2v-0.4H311.7z M312.1,16.5h0.4v-0.4h-0.2
		C312.2,16.2,312.1,16.3,312.1,16.5z M312.3,18.5v0.4h0.6v-0.4H312.3z M313.9,17.4c0,0.2-0.2,0.4-0.6,0.4v0.2l0.7,0.2v-0.4h0.3
		l0.7,0.2C315,17.6,314.6,17.4,313.9,17.4z M314.9,17.2v0.2c0.3,0,0.5,0.1,0.5,0.4c0.2-0.1,0.3-0.2,0.4-0.2c0-0.2-0.1-0.4-0.3-0.4
		H314.9z"/>
	<path class="st0" d="M317.7,12.3h0.2c0.3,0.3,1,0.5,1.9,0.7c0,0.1,0.4,0.4,1.3,0.8l0.3-0.2c2.1,1.1,3.1,1.8,3.3,2.1v0.2
		c-0.5,1.8-1.5,6.2-2.8,13.2c-2.6,9-5.6,18.1-9,27.4h0.4c0-0.2,3.8-4,11.4-11.3c1-0.9,1.5-1.4,1.5-1.6l1-0.8h0.2v0.5
		c-0.3,0-0.6,0.2-1,0.5l0.2,0.3l-0.3,0.5h0.1c1.4-1.2,2.2-1.9,2.2-2.1h-0.2l-0.7,0.5h-0.2c0-0.8,2.7-3.5,8-8.1
		c0.9-0.9,2.8-2.6,5.7-4.9h0.2c-2.5,2.5-4.5,4.4-6.1,5.5v0.3c1.5-1.1,2.9-2.3,4.1-3.6l6.2-5.2c0.2,0.1,0.4,0.2,0.5,0.2l0.2-0.4h-0.5
		v-0.1c0.6-0.6,2.6-2.4,6-5.2l0.3,0.2v-0.2l-0.1-0.3c2.6-2.2,4.1-3.3,4.4-3.3c1-1.2,2.1-1.8,3.4-1.8c0-0.1,0.3-0.4,1-0.8l0.2,0.3
		c-0.6,0.3-0.8,0.5-0.8,0.7h0.3c1.6-1.4,2.6-2.1,3.1-2.1l0.2,0.4c-0.1,0-0.7,0.6-1.8,1.8c0.1,0,0.3,0.1,0.5,0.2
		c0-0.1,0.7-0.4,2.1-0.8h0.4v0.2l-0.7,0.7c0.1,0.2,0.1,0.4,0.1,0.5l-0.3-0.2h-0.2v0.2c0.1,0.2,0.2,0.4,0.2,0.5l1.9-1.1
		c0.2,0,0.4,0.2,0.5,0.5l-0.5,0.7v0.2h0.2l1-0.5v0.2c0,0.1-0.9,1-2.8,2.8c0.1,0,0.7-0.4,1.8-1.3h0.4v0.2c-4.3,4.2-8.7,8-13.1,11.4
		c0,0.2-6,5.9-18.1,17.1l-25.7,25.6c-2.2,1.7-3.6,2.6-4.3,2.6H305c-2.1-0.6-3.1-1.2-3.1-1.9c-3.3-1.3-4.9-2.3-4.9-3.1
		c3.6-8.6,5.9-14.3,7-17.1c0.7-1.5,1.1-2.3,1.3-2.3v0.3c0,0.1-0.6,1.7-1.8,4.7h0.4c1.2-2.1,2.3-4.8,3.4-8.3l2.1-6.4v-0.3
		c-0.6,0.1-0.8,0.6-0.8,1.5h-0.5v-0.2c1.6-5.1,2.6-7.8,2.8-8.1h0.2c0.2,0,0.3,0.1,0.3,0.3H311v0.5h0.3c0.2,0,0.4-0.1,0.4-0.3v-0.3
		c-0.3,0-0.5-0.2-0.7-0.7v-0.4h0.5c0,0.6,0.1,0.8,0.3,0.8c0.2-0.6,0.4-0.9,0.4-1.1c-0.2,0-0.4-0.1-0.4-0.3v-0.2h0.2l0.4,0.2l0.1-0.4
		v-0.2H312V32h0.2l0.3,0.2c1.4-4.5,2.1-7.2,2.1-8.2c-0.2,0.1-0.4,0.2-0.6,0.2l0.1,0.8l-0.3,0.1l-0.3-0.1c0-1.9,0.4-2.8,1.3-2.8
		c0.3-0.2,0.8-2.9,1.6-8L317.7,12.3z M305.8,49.8v0.5h-0.3v-0.1C305.5,49.9,305.6,49.8,305.8,49.8z M306.5,48l0.2,0.4h-0.5
		C306.2,48.1,306.3,48,306.5,48z M309.4,40.2l-0.2,0.4v0.3h0.2c0.2,0,0.3-0.1,0.3-0.3C309.7,40.3,309.6,40.2,309.4,40.2z
		 M310.6,36.6c0,0.2-0.1,0.4-0.4,0.7c0.1,0.2,0.2,0.4,0.2,0.5c-0.2,0-0.4,0.5-0.7,1.5l0.5,0.4c0.4-1.5,0.7-2.4,0.7-2.8L310.6,36.6z
		 M314.6,21.1h0.4v0.5h-0.4V21.1z M314.6,22.8v1h0.2v-1H314.6z M315.1,17.8h0.3v0.5h-0.3V17.8z M319.2,51.3v0.1h0.2
		c0.4,0,1-0.6,1.8-1.8H321C320.2,50.1,319.6,50.7,319.2,51.3z M322.6,48h0.2c2-1.9,3.1-2.9,3.3-2.9v-0.4
		C325.8,44.7,324.6,45.8,322.6,48z M342.5,28.6h0.3c0,0.1-0.3,0.4-0.8,0.8l-0.1-0.4L342.5,28.6z M344.1,27.2h0.1v0.1
		c0,0.1-0.3,0.4-0.8,0.8l-0.2-0.3L344.1,27.2z M354.4,18.2h0.4c0,0.1-3.3,3-9.8,8.6l-0.2-0.3c3.5-3.2,5.3-4.7,5.4-4.7
		c0.5-0.8,1.5-1.7,3.1-2.6C353.2,19.1,353.6,18.8,354.4,18.2z M355.5,17.4h0.2c0,0.2-0.2,0.4-0.7,0.7h-0.2
		C354.9,17.8,355.1,17.6,355.5,17.4z M356.5,16.4h0.4c0,0.1-0.3,0.4-0.8,0.8h-0.1C356.1,16.7,356.3,16.5,356.5,16.4z M360.1,15.1
		h0.2v0.2c0,0.1-0.2,0.3-0.5,0.5l-0.2-0.3L360.1,15.1z"/>
	<path class="st0" d="M409.5,12.3c0,0.1,0.2,0.3,0.7,0.7v0.3c-0.4,0.4-1.6,1-3.9,1.8l-0.3-0.1c-1.2,0.9-2.7,1.6-4.6,2.1
		c0,0.1-0.1,0.1-0.2,0.1c-0.6,0-2.3,0.6-5.1,1.8c-0.2,0-1.3,0.5-3.3,1.4c-1.4,0.6-2.4,1-3,1.1c-2.5,1.2-5.6,2.5-9.1,3.9l0.1,0.3v0.3
		c-0.1,0.3-0.4,0.4-0.8,0.4h-0.1l-0.3-0.1c0,0.1,0,0.2-0.1,0.4l-0.3-0.1h-0.3l0.1,0.3v0.1c-0.4,0-2.1,0.6-4.8,1.8l-6.5,2.4
		c-0.9,3.4-2.4,7.8-4.4,13.3h0.1c3-1.2,5.3-2.1,6.9-2.5c2.1-1.2,5.1-2.5,8.9-4c0,0.1,0,0.1,0.1,0.1c0-0.2,1.8-1,5.5-2.2
		c2.3-1.1,4-1.7,5.1-1.7h0.1l1,0.1l-0.1-0.3c1.1-0.6,1.8-0.8,2.2-0.8c-0.1,0.3-0.4,0.4-0.8,0.4v0.1h0.5c0.8-0.4,1.6-0.6,2.2-0.6
		l0.1,0.3c0.5-0.1,0.9-0.2,1.1-0.4h0.1v0.6h0.1l0.4-0.3h0.7v0.3c-0.2,0-0.4,0.1-0.7,0.4l0.1,0.3c0,0.4-1.6,1.1-4.8,2.1v0.1h0.4
		c1.3-0.4,2.1-0.7,2.4-0.8l0.3,0.1c0-0.1,0.1-0.3,0.4-0.4l0.6,0.3c0-0.3,0.1-0.4,0.3-0.4h0.1c0,0.1,0.1,0.3,0.4,0.6
		c-0.2,0-1.3,0.5-3.3,1.5c-2,0.9-3.3,1.3-3.7,1.4v0.1h0.3c0.1,0,0.2,0,0.4-0.1l0.6,0.1c0.6-0.1,1.3-0.3,2.2-0.7l0.1,0.3v0.1
		l-1.4,0.4c0-0.1,0-0.1-0.1-0.1c0,0.1-0.1,0.1-0.2,0.1l0.2,0.3v0.1c-0.2,0-1.3,0.6-3.3,1.7c-0.3,0-1.2,0.5-2.8,1.4v0.1h0.1l0.7-0.1
		c-0.5,0.5-1,0.7-1.5,0.7l0.1,0.3v0.1l-0.4-0.3c-0.2,0.2-0.5,0.3-0.7,0.3l0.1,0.3v0.1l-0.4-0.3H384v0.3h-0.4v-0.3
		c0.1,0,0.7-0.2,1.8-0.7v-0.1H385c-1.9,0.5-4.6,1.6-8.2,3.2v0.3h0.1c0.2,0,0.6-0.1,1.1-0.4v0.1c0,0.1-0.7,0.5-2.2,1.1
		c0,0.5-2.5,1.6-7.5,3.5c0-0.1,0-0.1-0.1-0.1c-0.4,0.6-1.9,1.3-4.4,1.9c-3.6,1.3-5.4,2.2-5.4,2.5c-2.5,5.1-3.7,7.7-3.7,7.9h0.1
		l15.1-5.8c0,0.1,0.1,0.1,0.2,0.1c0-0.3,1.1-0.8,3.3-1.5c3.5-1.6,5.9-2.5,7.2-2.8c0.2,0.1,0.4,0.1,0.6,0.1c0.1,0,0.2,0,0.4-0.1
		l0.3,0.1c1.2-0.4,2.2-0.8,3.1-1.2l0.1,0.3c-0.4,0.1-0.6,0.3-0.6,0.4h0.3l0.4-0.3l0.4,0.3c0.4-0.2,0.7-0.3,1.1-0.3
		c-0.1,0.5-0.3,0.8-0.4,0.8l-0.1-0.3h0.3c0-0.2-0.1-0.3-0.3-0.3c0,0.2-0.2,0.4-0.6,0.5l0.3,0.6c-1.1,0.5-2.3,1.1-3.6,1.9
		c-2.6,0.9-3.9,1.4-3.9,1.7h0.1l4.3-1.7h0.3l0.3,0.4c0,0.2-0.4,0.4-1.2,0.5l0.1,0.3c-0.5,0.3-2.4,1.2-5.8,2.6c0,0.2,0.1,0.3,0.4,0.3
		c2.3-0.9,3.6-1.4,3.7-1.4l0.1,0.3l-7.6,3.7l-5.8,2.8c-0.8,0-2.9,0.7-6.4,2.1c0,0.2-0.8,0.7-2.4,1.5v0.2c0.4-0.1,0.7-0.3,1-0.4h0.1
		v0.3c-0.5,0.2-0.8,0.4-0.8,0.7c-0.1,0-0.2,0-0.2-0.1c-0.4,0.1-0.7,0.1-1,0.1l0.1,0.3v0.2l-0.4-0.3h-0.1c0,0.6-1.2,1.2-3.5,1.8
		c-3,1.2-4.6,2-4.6,2.4c-0.6,1.2-1.1,1.8-1.5,1.9l-0.7-0.1c0,0.2-0.1,0.3-0.3,0.3h-0.3c0-0.3-0.5-0.7-1.4-1.2c0-0.1-0.2-0.3-0.7-0.6
		c0-0.5-0.1-0.7-0.4-0.7l-1,0.6h-0.1v-0.3c0.5-0.8,0.8-1.5,1-2.1c0-0.3-0.4-0.5-1.1-0.7l-0.1-0.3l0.1-0.3c-0.5-0.3-0.8-0.9-1.1-1.7
		V68c0.2-0.4,1.5-1,3.9-1.9c0.2-0.7,0.6-1.5,1.3-2.2h0.1l-0.1-0.3c1.7-2.2,2.8-4.2,3.3-6.2c-0.4,0.1-0.7,0.3-1,0.4
		c-1-0.3-2-1.1-3-2.4c-1.4-1.5-2.1-2.4-2.1-2.9l-0.2-0.7c1.3-1,5.1-2.4,11.3-4.3c0.4,0,1.3-2.3,2.9-6.8c0.6-1.3,1.1-2.3,1.2-3.2
		l0.3-0.1l-0.1-0.3c0.2,0,0.6-1.2,1.2-3.7c-0.4,0.3-0.8,0.4-1.1,0.4h-0.4c-1.9-0.7-3.1-1.4-3.6-2.1v-0.1c0-0.4,2.3-1.3,6.9-2.8
		l0.7-1v-0.6l-0.3-0.4c0-0.2,0.1-0.3,0.3-0.3c0,0.1,0,0.1,0.1,0.1c0.3-0.4,0.5-0.7,0.6-0.7c0.4,0,1.4,0.4,2.8,1.2h0.1
		c6.5-2.2,17-6.2,31.4-12C404.1,13.3,407.9,12.3,409.5,12.3z M377.3,57.2c0,0.2,0.1,0.3,0.3,0.3l0.1-0.3H377.3z M384.5,54.8v0.1
		c0,0.2-0.1,0.3-0.3,0.3h-0.7C383.5,54.9,383.8,54.8,384.5,54.8z M387.8,41.9V42c0,0.2-0.1,0.3-0.3,0.3h-0.4V42
		C387.4,42,387.7,42,387.8,41.9z M389.8,34.4c0,0.2,0.1,0.3,0.3,0.3l0.1-0.3H389.8z M390.8,36.7v0.1h0.1l0.7-0.1v-0.3h-0.1
		C391.3,36.7,391,36.7,390.8,36.7z M394.6,37.6h0.4c0,0.2-0.2,0.3-0.7,0.4v-0.1C394.4,37.7,394.4,37.6,394.6,37.6z"/>
	<path class="st0" d="M437.7,12.2h0.3c2,0.9,3.2,1.8,3.6,2.7l1.5,2.7v0.1c0,0.4-0.9,0.7-2.7,0.7h-0.4l-0.8-0.1
		c-1.6,0.2-4.6,0.9-9.1,2.2c-6,1.9-12.1,4.8-18.3,8.8c-3,2-5.8,4.3-8.5,7c-2.1,2.3-3.1,3.7-3.1,4.2h0.7c0.3,0,0.4,0,0.4,0.1l0.7-0.1
		h1.4c4.2-0.6,6.4-0.9,6.4-1.1v-0.1h0.3l0.3,0.1c0-0.5,1.9-0.9,5.7-1.2c0-0.2,0.1-0.3,0.3-0.3c0.1,0,0.1,0,0.1,0.1l0.3-0.1
		c0.2,0.1,0.3,0.1,0.4,0.1c0-0.1,0.1-0.2,0.4-0.4h0.4l0.3,0.1c0-0.3,0.1-0.4,0.4-0.4c0.2,0.1,0.3,0.1,0.4,0.1c0-0.3,2.7-0.7,8-1.2
		c0-0.1,0-0.1,0.1-0.1s0.1,0,0.1,0.1c1-0.2,2.5-0.3,4.6-0.3h0.1l0.7-0.1V36c0.1,0,0.1,0,0.1-0.1c5.7,0,9.4,1.8,11.3,5.3
		c0.2,0.1,0.9,1.2,2,3.3c0,0.1,0,0.1-0.1,0.1l0.1,0.3v0.3c0,2.8-5.7,7.3-17.2,13.5c-12.2,6.4-24.1,12-35.7,16.8l-0.5,0.1
		c0-0.4-0.4-0.8-1.2-1.1l-0.1-0.3V74c0-0.1,0-0.1,0.1-0.1c0-0.3-0.3-0.8-0.9-1.6c0-0.4-0.2-0.7-0.7-0.9v-0.4c-0.3,0-0.4-0.1-0.4-0.3
		c0.4,0,0.5-0.2,0.5-0.4h0.3l0.3,0.1l1.1-0.8c0.2,0.1,0.3,0.1,0.4,0.1l-0.1-0.3c0.1,0,0.1,0,0.1-0.1l0.3,0.1c1.4-0.6,2.2-1,2.2-1.5
		h0.1l0.3,0.1c0.1-0.2,1.3-0.9,3.5-2h0.1c0.1,0,0.1,0,0.1,0.1l2.9-1.1h0.3V65l-0.1-0.3c0.3-0.2,0.6-0.3,0.8-0.3h0.7v-0.3h-0.1
		l-0.3,0.2v-0.2c0-0.1,0.5-0.3,1.6-0.7c0-0.2,0.4-0.4,1.2-0.5c0-0.3,0.4-0.6,1.1-0.8h1.1c0-0.2,0.9-0.6,2.5-1.2l3.8-2.1
		c0.8-0.3,1.2-0.6,1.2-0.8l0.3,0.1h0.1v-0.1h-0.3V58c0.1-0.1,0.7-0.6,2-1.2v-0.3H417c0,0.3-0.1,0.4-0.4,0.4l-0.1-0.3
		c2.1-1.3,3.4-1.9,3.8-1.9v0.1c0,0.2-0.1,0.3-0.4,0.3v0.1h0.1c0.5-0.2,0.8-0.4,0.8-0.5h-0.3v-0.1c0.5-0.4,1.6-1,3.3-1.9
		c0-0.1,0.4-0.4,1.2-0.8l0.3,0.1c0.2-0.1,0.3-0.1,0.4-0.1v0.3h-0.3v0.2h0.1c0.6,0,1.7-0.7,3.4-2.1h-0.3c0,0.2-0.3,0.4-0.8,0.4
		c-0.1,0.2-0.6,0.5-1.6,1.1l-0.1-0.3c1.8-1.2,3-1.9,3.8-2.2c0-0.4,0.6-0.8,1.8-1.1c0.6-0.4,1-0.7,1.2-0.7c-0.4,0.5-1.1,1-2.3,1.6
		v0.1h0.3c1.5-0.6,3-1.6,4.5-3.1h-0.2c-1.1,0.8-1.8,1.2-2.2,1.2c1.4-1.1,3.1-2.7,5.3-4.6v-0.1c-0.4,0-1.8,0-4.2-0.1
		c-0.2,0-0.9,0.1-2,0.3c-0.1,0-0.1,0-0.1-0.1c-4.2,0.4-11,1.4-20.3,3c-0.7,0-1.7,0.1-2.9,0.3v-0.1c-0.4,0.2-1.2,0.3-2.4,0.3h-3.1
		c-3.4,0-5.6-1.3-6.8-4c0-0.7-0.4-1.4-1.2-2.1c-0.3-0.8-0.4-1.4-0.4-1.6v-0.3c0.5-0.3,0.9-1,1.2-2c1.2-1.5,2.2-2.7,3-3.4
		c4.2-4.1,6.9-6.4,8.2-6.8l4-2.8c0-0.5,0.2-0.7,0.4-0.7l0.1,0.3v0.2h-0.4v0.1h0.3c0.8-0.6,2.3-1.4,4.7-2.5c0-0.2,0.4-0.5,1.1-0.7
		v-0.4l-0.7,0.3l-0.1-0.3c0.8-0.5,1.3-0.9,1.6-1.4l4.2-1.8h0.3c0.1,0,0.1,0,0.1,0.1l0.3-0.1h0.3v0.1l-0.3,0.4
		c0.4,0.2,0.7,0.3,0.9,0.3c0-0.2,0.5-0.5,1.6-0.9V16c-0.3,0-0.4-0.1-0.4-0.3v-0.3c0-0.3,2-1,6.1-2C434.6,12.6,436.7,12.2,437.7,12.2
		z M393,68.4h0.1v0.1c0,0.2-0.1,0.3-0.3,0.3h-0.3C392.6,68.7,392.7,68.5,393,68.4z M394.5,69h0.3c0.4-0.1,0.6-0.2,0.6-0.4H395
		C394.7,68.8,394.5,68.9,394.5,69z M396,35.1h0.3v0.1c0,0.2-0.1,0.3-0.3,0.3V35.1z M396.8,34.3h0.1v0.1c0,0.1-0.1,0.3-0.4,0.4
		l-0.1-0.3L396.8,34.3z M406,61.6h0.5c-1.1,0.6-2.7,1.4-5,2.4l-0.1-0.3L406,61.6z M403,30.1l0.3,0.1l0.3-0.5h-0.1
		C403.3,29.7,403.2,29.8,403,30.1z M403.7,29.5h0.4v-0.3H404C403.8,29.3,403.7,29.4,403.7,29.5z M407.6,63.8h0.1
		c0.2,0,0.3-0.1,0.3-0.3h-0.1C407.7,63.5,407.6,63.6,407.6,63.8z M408.2,26.3h0.3c0.2,0,0.3-0.1,0.3-0.3v-0.1
		C408.3,26,408.2,26.2,408.2,26.3z M410.4,39.3v0.1h0.4v-0.3C410.7,39.2,410.6,39.3,410.4,39.3z M415.7,57v0.1
		c0,0.2-0.2,0.4-0.7,0.4l-0.1-0.3C415.2,57.1,415.5,57,415.7,57z M417.2,38.1l-0.1,0.3h0.1c0.2-0.1,0.3-0.2,0.4-0.2v-0.1H417.2z
		 M421.8,54.3h0.3c0.2,0,0.3-0.1,0.3-0.3h-0.3C421.9,54.1,421.8,54.2,421.8,54.3z M422.8,53.6l0.3,0.1h0.1c0.2,0,0.3-0.1,0.3-0.3
		v-0.1h-0.4C422.9,53.4,422.8,53.5,422.8,53.6z M424.5,52.7l0.3,0.1c0.1,0,0.2-0.1,0.4-0.4h-0.4C424.6,52.5,424.5,52.5,424.5,52.7z
		 M424.6,15.7h0.4V16h-0.4V15.7z M429.3,50.1h0.1c0.2,0,0.3-0.1,0.3-0.3h-0.1C429.3,49.9,429.3,50,429.3,50.1z"/>
	<path class="st0" d="M510.5,0.2c0.8,0.1,1.3,0.3,1.3,0.7c0.3-0.1,0.5-0.2,0.7-0.2c2.3,0.8,4.2,2.1,5.6,4.1c-2.5,2.7-4.7,6-6.5,10
		c-20,32.5-30.1,49.5-30.1,50.8c-3.8,8.6-5.6,14.3-5.6,17.1v0.7c0,0.1-0.1,0.2-0.2,0.2c0,0.1,0.1,0.2,0.2,0.2c0,0.1-0.1,0.4-0.2,0.6
		c0.1,1.7,0.3,2.6,0.7,2.6c2.2-0.4,6.7-3.1,13.4-8c0.3,0.1,0.5,0.2,0.7,0.2l0.4-0.6c-0.1-0.3-0.2-0.5-0.2-0.7c2.6-2.1,5-4.6,7.3-7.8
		c5.5-5.3,9.2-9.2,11.3-11.7h0.9v-0.2h-0.4v-0.4c0.1,0,0.4-0.1,0.9-0.2c0,0.2,0.2,0.4,0.7,0.7c3.3-3.6,6.8-7.8,10.6-12.7
		c1.3-1.5,2.5-3.1,3.6-5h-0.2c-0.4,0.7-0.6,1.1-0.8,1.1c0-0.1-0.1-0.2-0.2-0.2c0.1-0.6,1.6-2.3,4.3-5.2h0.2l-2.2,3h0.2
		c3.6-4.2,9.5-11.4,17.5-21.4c1.9-2.8,3.3-4.4,4.1-5v0.2l-8.4,11.7v0.2c0.7-0.1,1.2-0.6,1.7-1.5c0.3,0,1.7-1.5,4.4-4.6l0.9-0.7
		l0.2,0.4c-0.1,0.3-0.2,0.6-0.2,0.9h0.2c1.4-0.9,2.3-1.8,2.6-2.8v-0.2h-0.2l-0.9,0.7h-0.2c-0.3,0-0.4-0.1-0.4-0.4l3-3.9h0.2
		c0.3,0.1,0.4,0.2,0.4,0.4c1.3-0.5,2-1.1,2.2-1.7c2.1-2.3,3.5-3.5,4.1-3.5c0.1,0.3,0.2,0.6,0.2,0.9c0.5-0.3,0.8-0.4,1.1-0.4l0.2,0.4
		v0.2c-0.4,0-0.7,0.1-0.7,0.4c0.1,0,0.4,0.1,0.7,0.2c0-0.4,0.3-0.7,0.9-0.7v0.2c-0.9,2.3-3.6,6.3-8.2,11.9c-2,3.2-9,12-21,26.6
		c-6.7,8.9-16.1,19.7-28.3,32.4c-9.5,8.5-15.8,12.7-19,12.7c0,0.2-0.7,0.4-2,0.7h-3.9c-4.5-1.4-6.7-2.8-6.7-4.1
		c-1.7-0.5-3-1.5-3.9-3c-0.9-2.3-1.3-3.7-1.3-4.1c0.2-1.8,0.3-2.8,0.4-3c-0.1-0.2-0.2-0.5-0.2-0.8c0.2,0,0.7-1.6,1.3-4.8l0.4-0.2
		c0.1,0.3,0.2,0.5,0.2,0.7c-0.3,0.5-0.4,0.8-0.4,1.1v0.2h0.2c1.8-6.5,6.3-15.8,13.4-28.1c1.9-3.3,7.1-12,15.8-26.2
		c0-0.1,1.9-3.3,5.6-9.5v-0.4h-0.4V11c1.6-3.7,2.7-5.6,3.3-5.6v0.4c2.2-3,3.7-4.9,4.5-5.6H510.5z M472.8,66.8c0,0.2-0.1,0.5-0.4,0.8
		v0.2h0.4c0-0.3,0.1-0.6,0.2-0.8v-0.2H472.8z M473.5,65.5v0.2h0.2c2-4.4,3.4-7,4.1-7.8c-0.1-0.3-0.2-0.5-0.2-0.7l0.8-0.8
		c-0.1-0.3-0.2-0.5-0.2-0.7c-0.6,0-1.6,1.7-3,5c-0.7,1.3-1.2,2.8-1.5,4.3C473.5,65,473.5,65.2,473.5,65.5z M478.4,54.7
		c0,0.1-0.1,0.4-0.2,0.7h0.2c0.3,0,0.4-0.1,0.4-0.4L478.4,54.7z M480,52.5h0.2c0.2,0,0.7-0.7,1.5-2.2h-0.2
		C480.9,50.7,480.4,51.4,480,52.5z M480.6,46.7h0.4v0.7h-0.4V46.7z M487.3,35.9v0.2c0,0.3-0.1,0.4-0.4,0.4h-0.2
		C486.7,36.3,486.9,36.1,487.3,35.9z M488,80.6v0.2c0.3-0.1,0.5-0.2,0.7-0.2v-0.4h-0.2C488.1,80.2,488,80.4,488,80.6z M491.7,32.6
		v0.2c0,0.3,0.2,0.4,0.4,0.4l0.2-0.4v-0.2H491.7z M492.3,31.9v0.4c1.5-1.3,2.2-2.4,2.2-3.3c1.9-2.6,2.8-4.1,2.8-4.5h-0.2
		C496.4,25.4,494.8,27.8,492.3,31.9z M502,11.6v0.2c-0.1,0.3-0.2,0.5-0.2,0.7h-0.4v-0.2C501.4,12.1,501.6,11.9,502,11.6z
		 M510.7,60.3v0.4c0.1,0,0.7-0.6,1.7-1.9v-0.2C512.3,58.6,511.7,59.2,510.7,60.3z M513.3,57.3l-0.7,0.9v0.2c0.3-0.1,0.6-0.4,0.9-1.1
		H513.3z M514.3,56.2h0.4c0-0.4,0.4-0.8,1.3-1.3c0-0.1,0.1-0.4,0.2-0.7h-0.2C515.1,55,514.5,55.7,514.3,56.2z M516.5,53.6v0.2h0.4
		l3-3.9h-0.4C518.4,51,517.4,52.3,516.5,53.6z M521.5,47.5c0,0.3-0.2,0.6-0.7,0.8h-0.2v0.2h0.4l0.7-0.8v-0.2H521.5z M522.8,45.8V46
		h0.4c0-0.2,0.6-1,1.8-2.4v-0.4C524.7,43.2,524,44.1,522.8,45.8z M529.1,38v0.2c0.3,0,0.4-0.1,0.4-0.4v-0.2
		C529.2,37.6,529.1,37.8,529.1,38z M529.9,34.4v0.2c0,0.3-0.1,0.4-0.4,0.4v-0.2C529.5,34.5,529.7,34.4,529.9,34.4z M530.4,36.5v0.2
		c1.1-1.2,2-2,2.8-2.4c0.3-1,1.5-2.4,3.6-4.4l3.5-4.7V25c-1.2,0-3.3,2.3-6.3,6.9L530.4,36.5z M545.9,20.3v0.2
		c0.3-0.1,0.5-0.2,0.7-0.2v-0.7C546.4,19.6,546.2,19.9,545.9,20.3z"/>
	<path class="st0" d="M582.9,12.2h0.3c2,0.9,3.2,1.8,3.6,2.7l1.5,2.7v0.1c0,0.4-0.9,0.7-2.7,0.7h-0.4l-0.8-0.1
		c-1.6,0.2-4.6,0.9-9.1,2.2c-6,1.9-12.1,4.8-18.3,8.8c-3,2-5.8,4.3-8.5,7c-2.1,2.3-3.1,3.7-3.1,4.2h0.7c0.3,0,0.4,0,0.4,0.1l0.7-0.1
		h1.4c4.2-0.6,6.4-0.9,6.4-1.1v-0.1h0.3l0.3,0.1c0-0.5,1.9-0.9,5.7-1.2c0-0.2,0.1-0.3,0.3-0.3c0.1,0,0.1,0,0.1,0.1l0.3-0.1
		c0.2,0.1,0.3,0.1,0.4,0.1c0-0.1,0.1-0.2,0.4-0.4h0.4l0.3,0.1c0-0.3,0.1-0.4,0.4-0.4c0.2,0.1,0.3,0.1,0.4,0.1c0-0.3,2.7-0.7,8-1.2
		c0-0.1,0-0.1,0.1-0.1s0.1,0,0.1,0.1c1-0.2,2.5-0.3,4.6-0.3h0.1l0.7-0.1V36c0.1,0,0.1,0,0.1-0.1c5.7,0,9.4,1.8,11.3,5.3
		c0.2,0.1,0.9,1.2,2,3.3c0,0.1,0,0.1-0.1,0.1l0.1,0.3v0.3c0,2.8-5.7,7.3-17.2,13.5c-12.2,6.4-24.1,12-35.7,16.8l-0.5,0.1
		c0-0.4-0.4-0.8-1.2-1.1l-0.1-0.3V74c0-0.1,0-0.1,0.1-0.1c0-0.3-0.3-0.8-0.9-1.6c0-0.4-0.2-0.7-0.7-0.9v-0.4c-0.3,0-0.4-0.1-0.4-0.3
		c0.4,0,0.5-0.2,0.5-0.4h0.3l0.3,0.1l1.1-0.8c0.2,0.1,0.3,0.1,0.4,0.1l-0.1-0.3c0.1,0,0.1,0,0.1-0.1l0.3,0.1c1.4-0.6,2.2-1,2.2-1.5
		h0.1l0.3,0.1c0.1-0.2,1.3-0.9,3.5-2h0.1c0.1,0,0.1,0,0.1,0.1l2.9-1.1h0.3V65l-0.1-0.3c0.3-0.2,0.6-0.3,0.8-0.3h0.7v-0.3H548
		l-0.3,0.2v-0.2c0-0.1,0.5-0.3,1.6-0.7c0-0.2,0.4-0.4,1.2-0.5c0-0.3,0.4-0.6,1.1-0.8h1.1c0-0.2,0.9-0.6,2.5-1.2l3.8-2.1
		c0.8-0.3,1.2-0.6,1.2-0.8l0.3,0.1h0.1v-0.1h-0.3V58c0.1-0.1,0.7-0.6,2-1.2v-0.3h-0.3c0,0.3-0.1,0.4-0.4,0.4l-0.1-0.3
		c2.1-1.3,3.4-1.9,3.8-1.9v0.1c0,0.2-0.1,0.3-0.4,0.3v0.1h0.1c0.5-0.2,0.8-0.4,0.8-0.5h-0.3v-0.1c0.5-0.4,1.6-1,3.3-1.9
		c0-0.1,0.4-0.4,1.2-0.8l0.3,0.1c0.2-0.1,0.3-0.1,0.4-0.1v0.3h-0.3v0.2h0.1c0.6,0,1.7-0.7,3.4-2.1h-0.3c0,0.2-0.3,0.4-0.8,0.4
		c-0.1,0.2-0.6,0.5-1.6,1.1l-0.1-0.3c1.8-1.2,3-1.9,3.8-2.2c0-0.4,0.6-0.8,1.8-1.1c0.6-0.4,1-0.7,1.2-0.7c-0.4,0.5-1.1,1-2.3,1.6
		v0.1h0.3c1.5-0.6,3-1.6,4.5-3.1h-0.2c-1.1,0.8-1.8,1.2-2.2,1.2c1.4-1.1,3.1-2.7,5.3-4.6v-0.1c-0.4,0-1.8,0-4.2-0.1
		c-0.2,0-0.9,0.1-2,0.3c-0.1,0-0.1,0-0.1-0.1c-4.2,0.4-11,1.4-20.3,3c-0.7,0-1.7,0.1-2.9,0.3v-0.1c-0.4,0.2-1.2,0.3-2.4,0.3h-3.1
		c-3.4,0-5.6-1.3-6.8-4c0-0.7-0.4-1.4-1.2-2.1c-0.3-0.8-0.4-1.4-0.4-1.6v-0.3c0.5-0.3,0.9-1,1.2-2c1.2-1.5,2.2-2.7,3-3.4
		c4.2-4.1,6.9-6.4,8.2-6.8l4-2.8c0-0.5,0.2-0.7,0.4-0.7l0.1,0.3v0.2h-0.4v0.1h0.3c0.8-0.6,2.3-1.4,4.7-2.5c0-0.2,0.4-0.5,1.1-0.7
		v-0.4l-0.7,0.3l-0.1-0.3c0.8-0.5,1.3-0.9,1.6-1.4l4.2-1.8h0.3c0.1,0,0.1,0,0.1,0.1l0.3-0.1h0.3v0.1l-0.3,0.4
		c0.4,0.2,0.7,0.3,0.9,0.3c0-0.2,0.5-0.5,1.6-0.9V16c-0.3,0-0.4-0.1-0.4-0.3v-0.3c0-0.3,2-1,6.1-2C579.8,12.6,582,12.2,582.9,12.2z
		 M538.2,68.4h0.1v0.1c0,0.2-0.1,0.3-0.3,0.3h-0.3C537.8,68.7,538,68.5,538.2,68.4z M539.7,69h0.3c0.4-0.1,0.6-0.2,0.6-0.4h-0.3
		C539.9,68.8,539.7,68.9,539.7,69z M541.2,35.1h0.3v0.1c0,0.2-0.1,0.3-0.3,0.3V35.1z M542,34.3h0.1v0.1c0,0.1-0.1,0.3-0.4,0.4
		l-0.1-0.3L542,34.3z M551.3,61.6h0.5c-1.1,0.6-2.7,1.4-5,2.4l-0.1-0.3L551.3,61.6z M548.3,30.1l0.3,0.1l0.3-0.5h-0.1
		C548.5,29.7,548.4,29.8,548.3,30.1z M548.9,29.5h0.4v-0.3h-0.1C549,29.3,548.9,29.4,548.9,29.5z M552.9,63.8h0.1
		c0.2,0,0.3-0.1,0.3-0.3h-0.1C553,63.5,552.9,63.6,552.9,63.8z M553.4,26.3h0.3c0.2,0,0.3-0.1,0.3-0.3v-0.1
		C553.6,26,553.4,26.2,553.4,26.3z M555.7,39.3v0.1h0.4v-0.3C556,39.2,555.8,39.3,555.7,39.3z M561,57v0.1c0,0.2-0.2,0.4-0.7,0.4
		l-0.1-0.3C560.5,57.1,560.7,57,561,57z M562.5,38.1l-0.1,0.3h0.1c0.2-0.1,0.3-0.2,0.4-0.2v-0.1H562.5z M567.1,54.3h0.3
		c0.2,0,0.3-0.1,0.3-0.3h-0.3C567.2,54.1,567.1,54.2,567.1,54.3z M568,53.6l0.3,0.1h0.1c0.2,0,0.3-0.1,0.3-0.3v-0.1h-0.4
		C568.1,53.4,568,53.5,568,53.6z M569.8,52.7l0.3,0.1c0.1,0,0.2-0.1,0.4-0.4h-0.4C569.9,52.5,569.8,52.5,569.8,52.7z M569.9,15.7
		h0.4V16h-0.4V15.7z M574.5,50.1h0.1c0.2,0,0.3-0.1,0.3-0.3h-0.1C574.6,49.9,574.5,50,574.5,50.1z"/>
</g>
</svg>
