<?xml version="1.0" encoding="utf-8"?>
<!-- Generator: Adobe Illustrator 19.0.1, SVG Export Plug-In . SVG Version: 6.00 Build 0)  -->
<svg version="1.1" id="Layer_1" xmlns="http://www.w3.org/2000/svg" xmlns:xlink="http://www.w3.org/1999/xlink" x="0px" y="0px"
	 viewBox="0 0 492.5 93.8" style="enable-background:new 0 0 492.5 93.8;" xml:space="preserve">
<style type="text/css">
	.st0{fill:#FFFFFF;}
</style>
<g>
	<path class="st0" d="M105.2,0h0.2l0.6,0.4c0-0.3,0.2-0.4,0.6-0.4c1.4,0.3,3.1,1.6,5.2,4l1.2,1.5c0.3,0,0.4,0.2,0.4,0.4V6
		C108.3,18.1,96,39.7,76.6,71C69.8,82.1,66,89.5,65.2,93.2c-0.3,0.4-0.5,0.6-0.6,0.6h-0.2c-0.3-0.3-0.7-0.4-1.2-0.4
		c0,0.3-0.1,0.4-0.4,0.4l-1.2-2.3c-1.1-0.3-1.7-0.7-1.7-1.2c0-0.3-0.4-0.5-1.2-0.8c0,0.6-0.1,0.8-0.4,0.8l-0.4-0.6
		c0-0.6,0.1-1.5,0.4-2.7c0-0.4-0.2-1-0.6-1.6v-0.2c0.3-0.4,0.6-1.7,1.1-3.9c1-0.8,1.9-2.4,2.7-4.8c1.6-3.5,3.6-6.9,6.3-10.2h0.2
		v-1.2c1.8-2.8,2.9-4.1,3.3-4.1l-0.2-0.4c1.9-2.2,4.9-6.9,9.1-14.1c0.3,0,0.8-1.2,1.5-3.7c2.3-2.4,4-4.9,5.2-7.5l0.4-0.2h0.2
		l0.4,0.2c0-0.3,0.1-0.4,0.4-0.4l-0.2-1.1v-0.4c0.1-0.3,0.2-0.4,0.4-0.4c0.1,0,0.2,0.1,0.2,0.2c0.8,0,1.8-1.5,2.9-4.4h-0.2
		c-3.3,3.3-13.9,15.3-32,36.1c-3.2,3.5-6,5.2-8.5,5.2c-0.9-0.2-2.2-1.4-4-3.5l-3.1-2.3c-0.4-1.4-0.7-2.4-0.7-2.9
		c0.6-6.5,1.3-12,2.1-16.4c0.1,0,0.2-0.1,0.2-0.2c0-0.3-0.1-0.6-0.2-0.8c0.4-3.2,0.9-6.1,1.5-8.7c0-0.1-0.1-0.2-0.2-0.2
		c0.7-5.7,1.2-8.5,1.5-8.5l-0.2-1v-0.2c0-0.1,0.1-0.2,0.2-0.2c-0.1-0.3-0.2-0.5-0.2-0.6l0.2-1h-0.4c-0.2,0.9-4.2,7.5-12,19.7
		C18.2,69,9.7,82.4,9.7,83l0.2,1.2c-0.9,1.4-1.7,2.1-2.3,2.1c-1.8,0-2.7-0.4-2.7-1.2c-0.2,0-0.4-0.2-0.6-0.6v-0.2l0.2-0.4
		c-0.4,0-1.3-0.5-2.9-1.5c-0.9,0-1.3-0.4-1.3-1.1c-0.3,0-0.4-0.1-0.4-0.4v-1.1c0-0.9,1.2-2.9,3.5-6.2c2.9-5.1,5.2-8.6,6.9-10.6v0.4
		l-0.2,0.4h0.4c2-3.2,5.1-7.7,9.3-13.5c2.3-3.1,4.6-6.7,6.9-10.6C35.1,27,42.4,15.1,48.6,4c0.6,0.2,0.8,0.4,0.8,0.6v0.2L49,5.4
		C49,5.7,49,6,49.2,6.2C49,6.5,49,6.7,49,6.9h0.4c0.4-0.9,0.7-2,0.8-3.3l0.4-0.2h0.2c1.8,1.1,3.7,2.9,5.6,5.2v0.2l-0.2,1.2
		c0,0.1,0.1,0.2,0.2,0.2l-0.2,1c0,10.4-1.4,24.7-4.1,43c-0.1,0.9-0.2,1.9-0.2,3.1c1-0.4,3.9-3.6,8.7-9.3c4.1-5.1,7.5-9,10.2-11.6H71
		l-0.2,1c0.6-0.4,2.9-2.6,6.6-6.8c0.1,0,1-0.8,2.5-2.5l4.4-6v-0.2l-0.6,0.4h-0.2c0.1-0.4,0.8-1.2,2.1-2.5h0.2v0.2l-0.4,0.7v0.2h0.2
		c3-2.2,5.6-4.9,7.9-8.1c0.1,0,1-1,2.7-3.1h-0.2L93.2,12l-0.2-0.4c1.9-2,4.2-4.6,7-7.7L105.2,0z M2.9,75.5h0.2
		c0.2,0,0.7-0.9,1.6-2.7c1.1-1.2,2.2-3,3.1-5.2C5.9,70.4,4.2,73.1,2.9,75.5z M22.6,48.6v0.2c0.3,0,0.4-0.1,0.4-0.4v-0.2
		C22.8,48.2,22.6,48.3,22.6,48.6z M24.7,45.2v0.6h0.2l0.4-1.2C25.1,44.6,24.9,44.8,24.7,45.2z M35.5,28.2c0,0.2-0.4,0.8-1.1,1.7v0.2
		h0.4c0-0.1,0.3-0.7,0.8-1.6v-0.2H35.5z M40.5,20.3l-0.2,0.4v0.4h0.2c0-0.4,0.1-0.6,0.4-0.6v-0.2H40.5z M41.3,19.1v0.2
		c0.6-0.4,1.2-1.5,1.8-3.3C42.9,16,42.3,17.1,41.3,19.1z M43.4,15.1v0.4c0.2,0,0.4-0.3,0.6-0.8h-0.2C43.5,14.8,43.4,14.9,43.4,15.1z
		 M44,14.5c0.5-0.4,1-1.1,1.5-2.1c1.1,0,2.1-1.6,3.1-4.8l-0.2-1.5C48.1,6.4,46.6,9.1,44,14.5z M59.5,86.5l-0.4,1.7h0.4l0.2-1.5v-0.2
		H59.5z M64.7,76.1c0,0.1-0.1,0.4-0.2,0.8h0.4v-0.8H64.7z M75.1,54.8c0,0.1-0.1,0.4-0.2,0.6h0.2c0.3,0,0.4-0.1,0.4-0.4v-0.2H75.1z
		 M85.3,38.4h0.2c0.3,0,0.4-0.1,0.4-0.4h-0.2C85.4,38,85.3,38.2,85.3,38.4z M85.9,37.6v0.2h0.4l0.2-0.8
		C86.3,36.9,86.1,37.1,85.9,37.6z M91.3,28.4h0.2c0.3,0,0.4-0.1,0.4-0.4h-0.2C91.4,28.1,91.3,28.2,91.3,28.4z M93.4,28v0.6h0.2
		c0-0.1,0.1-0.4,0.2-0.6H93.4z"/>
	<path class="st0" d="M139.5,12.4c1.3,0,2.3,0.2,2.9,0.6c2.3,1.8,3.4,2.8,3.4,3c0,1.1-0.7,3.5-2.2,7.3c-0.7,1.7-1.8,4.6-3.3,8.8
		l-0.2,0.4v0.2c1.3-0.3,2.1-0.6,2.4-0.7l0.6,0.1c0-0.1,0.3-0.3,0.8-0.4c0.2,0.1,0.3,0.1,0.4,0.1c0-0.2,0.9-0.5,2.6-0.7
		c0.8-0.3,1.6-0.5,2.3-0.6v0.1l0.2-0.1h0.3l0.8,0.1c0-0.1,0.3-0.3,1-0.4c0.3-0.1,0.4-0.3,0.4-0.5l0.7-0.1c0.4,0.1,0.8,0.1,1,0.1v0.1
		c0,0.1-0.1,0.2-0.4,0.2v0.1h0.4c0.2,0,0.3-0.1,0.3-0.3c-0.1,0-0.1,0-0.1-0.1c0.3-0.2,0.7-0.4,1.2-0.5c1.2,0.3,1.9,0.5,2.1,0.5
		c0-0.2,0.1-0.3,0.2-0.3h0.3c0.4,0,0.7,0.2,0.8,0.5c-0.3,0.1-0.5,0.2-0.5,0.4c0.1,0,0.1,0,0.1,0.1c-0.2,0.1-0.3,0.1-0.4,0.1
		l-0.6-0.1l0.1,0.3c0,0.1-0.1,0.2-0.2,0.2h-0.6v0.1c0.1,0.1,0.1,0.3,0.1,0.4l-0.3,0.1h-0.6v0.3h0.1c0.2-0.1,0.3-0.1,0.4-0.1v0.1
		c0.3-0.2,0.5-0.3,0.7-0.3V32c0,0.1-0.9,0.4-2.8,0.8c-0.6,0.1-1,0.3-1,0.6h-0.4l-0.4-0.3c-0.2,0.2-0.6,0.4-1.2,0.5v0.1
		c0.1,0,0.4,0.2,0.7,0.5c0.1-0.1,0.3-0.1,0.4-0.1v0.1c0,0.1-0.1,0.2-0.4,0.4l-0.3-0.1c0,0.1-0.1,0.2-0.2,0.2h-0.6v-0.2h0.7v-0.1
		c0-0.1-0.2-0.2-0.5-0.4c0,0.1-0.1,0.2-0.3,0.2h-0.2v-0.4h-0.3v0.1l0.1,0.2l-0.3,0.1h-0.2v-0.3h-0.5v0.3l0.2-0.1h0.1v0.1
		c0,0.2-0.9,0.4-2.6,0.7c0,0.1,0.1,0.2,0.2,0.2c0.3-0.1,0.9-0.3,1.8-0.5h0.1v0.3c-0.1,0-0.2,0-0.4,0.1l0.1,0.3v0.1l-0.4-0.3h-0.1
		c-0.5,0.1-0.7,0.2-0.7,0.4h0.4v-0.2h0.4v0.4c-0.7,0.1-1.4,0.3-2.2,0.6c-0.1-0.1-0.3-0.1-0.4-0.1c0,0.2-0.1,0.3-0.2,0.3l-0.4-0.3
		l-0.2,0.1l-0.3-0.1l-1.7,0.6c-0.2-0.1-0.3-0.1-0.4-0.1c-0.6,0.4-0.8,0.6-0.8,0.7c-1.4,0.3-2.4,0.7-2.9,1.1l0.1,0.2v0.3
		c-0.1,0.2-0.3,0.4-0.7,0.4l-0.6-0.1c0,0.3-0.2,0.5-0.7,0.6l-3,7.3L128,62.5c-0.4,0.6-1.3,2.7-2.7,6.3c-1.8,3.5-2.7,5.5-2.7,6.1
		c-0.3,0.5-0.5,0.7-0.6,0.7h-0.1c-0.2,0-0.3-0.1-0.3-0.4l-0.7,0.4c0-0.4-0.2-0.7-0.7-0.7c0-0.2-0.2-0.4-0.7-0.7
		c0,0.1-0.1,0.2-0.4,0.4c0-0.1-0.2-0.4-0.5-0.8c-0.3,0.1-0.5,0.2-0.7,0.2h-0.1v-0.2c0-0.2,0-0.3,0.1-0.5c-0.1-0.6-0.3-0.9-0.5-0.9
		c1.1-4.1,1.9-6.3,2.6-6.8c-0.1,0-0.2-0.1-0.2-0.3c0.3,0,0.5-0.4,0.8-1.3l0.3-0.1l-0.1-0.2v-0.4c1.1-1.8,2.2-4.3,3.3-7.4l-0.1-0.3
		c0.6-1.2,1.3-2.9,2.1-5.1c0.4-0.3,1-1.7,1.8-4.1c0.4-0.4,0.8-1.4,1.4-3.2c0.2-0.3,0.4-0.6,0.4-1c-0.2,0.1-0.3,0.1-0.4,0.1
		c0-0.1,0-0.1-0.1-0.1c0,0.1-0.1,0.2-0.3,0.2h-0.1l-0.4-0.2h-0.1l-0.4,0.2c-0.1,0-0.2-0.1-0.2-0.4c-0.9,0-2.2,0.4-4,1.1l0.2,0.6
		c-1.4,0.6-2.8,1-4.3,1.5c-0.9,0.2-1.4,0.4-1.5,0.5h-0.1l-0.4-0.3h-0.1l0.1,0.3l-0.2,0.1c0-0.2-0.1-0.3-0.3-0.3h-0.2l0.1,0.3v0.2
		l-7.7,2.4c-0.7,0-2.4,1.3-4.9,4C95.8,60.2,90,64.5,86.8,65.3c-0.2,0-0.4,0-0.5,0.1c-0.9-0.1-1.8-0.6-2.7-1.5
		c-0.2-0.1-0.7-0.4-1.5-1c0.1,0,0.1,0,0.1-0.1c-0.2,0-0.3-0.1-0.3-0.2v-0.4c0.1-0.3,1.7-1.1,4.8-2.6c3.4-2.6,6.2-4.9,8.3-6.8v-0.1
		c-2.8,0.7-5.1,1.3-7,1.6c-0.1-0.1-0.3-0.1-0.5-0.1c0,0.2-0.2,0.3-0.6,0.4l-0.1-0.3c0.1,0,0.1,0,0.1-0.1c-0.6,0-1.4-0.6-2.4-1.7
		l-0.7-0.1h-0.5v-0.1l0.3-0.4v-0.1c-0.3,0-0.6-0.2-1-0.7v-0.5c0.8-0.6,3.3-1.4,7.4-2.3c1.2-0.5,3.8-1.3,7.7-2.3
		c1.6-0.7,3.2-1.2,4.9-1.6c0-0.1,0.3-0.3,1-0.5v0.1c1.4-0.3,2.4-1,3.2-1.9c0.4,0,0.6-0.2,0.7-0.7c0.2,0,0.7-0.5,1.6-1.5
		c0.4,0,0.6-0.2,0.7-0.6c0.4-0.6,1.6-1.8,3.6-3.7l6.3-6.2c2.6-2.3,3.9-3.5,4-3.5c0.7-0.9,1.9-2,3.5-3.3c0.1,0.1,0.3,0.1,0.4,0.1
		c0.2-0.5,0.3-0.7,0.5-0.7c0,0.1,0,0.1,0.1,0.1c0-0.3,0.3-0.5,0.9-0.5l-0.1-0.2v-0.1c0-0.2,0.1-0.3,0.2-0.3c0,0.1,0,0.1,0.1,0.1
		c0.5-0.6,0.7-0.9,0.7-1l0.2,0.1h0.1c0-0.6,1.5-2.1,4.4-4.3c0.4-0.6,1.2-1.2,2.3-2.1C137.4,13.5,138.2,13,139.5,12.4z M136.8,22.3
		v-0.4c-3.2,2.5-9.4,8.2-18.7,17.3H118v0.2c7.2-2.1,11.7-3.5,13.7-4.2c0-0.1,0-0.1,0.1-0.1s0.1,0,0.1,0.1c0.3,0,1-1.4,1.9-4.3
		c1.2-2.9,1.8-4.5,1.8-4.8c-0.1,0-0.4,0.5-0.7,1.4h-0.1c0-0.1,0-0.1-0.1-0.1c0.5-1.2,0.8-1.8,0.9-1.9l-0.1-0.3V25
		c0.2-0.2,0.6-1.1,1.1-2.6L136.8,22.3v0.1c0,0.4-0.2,1.2-0.7,2.2V25c0.1,0,0.6-1.2,1.5-3.7h-0.1L136.8,22.3z M129.6,20.4L129.6,20.4
		c0.1,0.1,0,0.2-0.3,0.4v-0.1C129.3,20.5,129.4,20.4,129.6,20.4z M138.5,39.3h0.2c0.2,0,0.3-0.1,0.3-0.2v-0.1h-0.1
		C138.8,38.9,138.7,39,138.5,39.3z M141.4,36.7h-0.1l-0.2-0.1c0,0.1-0.2,0.3-0.6,0.5h-0.4l-0.5-0.4v0.1l0.1,0.3l-0.3,0.1
		c0-0.1-0.1-0.2-0.2-0.2h-0.1l0.1,0.2c-0.2,0-0.3,0.1-0.3,0.3v0.1l3-0.9c0-0.1-0.1-0.2-0.3-0.2L141.4,36.7z M142.2,36.6h0.2
		c0.2-0.1,0.3-0.1,0.4-0.1v-0.1h-0.4C142.3,36.4,142.2,36.5,142.2,36.6z M142.8,36.2c0.1,0,0.2,0,0.4,0.1h0.2v-0.1
		c-0.2,0-0.4-0.1-0.4-0.2C142.9,36,142.8,36.1,142.8,36.2z M143.2,36.7h0.4v-0.2h-0.1C143.2,36.5,143.2,36.6,143.2,36.7z M143.9,36
		c0,0.1,0.1,0.2,0.3,0.2l0.1-0.2H143.9z M146.1,35.5v0.1h0.4v-0.3C146.3,35.5,146.2,35.5,146.1,35.5z M146.7,35.4h0.4v-0.2h-0.1
		C146.8,35.2,146.7,35.2,146.7,35.4z M147,35.9h0.1c0.1,0,0.2-0.1,0.2-0.2h-0.1C147.1,35.7,147,35.7,147,35.9z M151.9,30.6l-0.1,0.2
		h0.1c0.1-0.1,0.3-0.1,0.4-0.1v-0.1H151.9z M157.4,31.6h0.4v0.3h-0.4V31.6z"/>
	<path class="st0" d="M192.1,12.3l1.5,0.3c0.1,0,0.1,0,0.1-0.1c3.4,0.5,5.9,1.3,7.4,2.3c2.3,1.9,4.1,4.1,5.4,6.7
		c0.3,1,0.5,1.8,0.5,2.4c0,2.3-1,4.8-2.9,7.5c-0.3,1-2.8,4-7.6,9c-1.8,1.5-3.8,3.2-5.8,5.1c-5.7,4.8-12.4,9.9-20,15.3
		c-12.8,8.9-20.6,13.8-23.5,14.8c-0.4,0-0.9-0.3-1.5-0.8c-0.1,0-0.2-0.2-0.4-0.7c-0.3,0-0.6-0.4-1.1-1.1c-0.4,0-0.6-0.1-0.6-0.3
		v-0.4h-0.1V72c0.6-0.8,1.3-1.3,2.1-1.6c0-0.2,0.4-0.4,1.2-0.7c0-0.1-0.4-0.4-1.1-1c-0.3,0.2-0.6,0.4-0.8,0.4v-0.1
		c0.1-0.5,0.2-0.8,0.2-1c-0.1,0-0.2-0.1-0.2-0.4c0-1.2,0.5-2.2,1.6-3.2c0.8-1.7,1.3-2.6,1.7-2.7l0.2,0.1c0.3-0.4,0.4-0.6,0.5-0.6
		l-0.1-0.2c0.2-0.3,0.5-0.7,0.8-1.3l-0.1-0.2c0-0.4,0.2-0.7,0.7-0.8l0.1-0.2c-0.2,0-0.3-0.1-0.3-0.2c0.4-1,1-1.7,1.7-2.1v-0.3h-0.3
		v-0.1c0.2-0.2,0.4-0.7,0.7-1.4h0.3v0.1l-0.1,0.3h0.1c0.9-1.1,1.4-1.8,1.5-2l3.6-6.3c0.4-0.5,1.4-2.5,3.2-6.1
		c5.8-11.5,8.7-17.6,8.7-18.3c0-0.1-0.2-0.3-0.6-0.8c0.1-0.1,0.1-0.3,0.1-0.4c-0.2,0-0.5-0.3-0.8-0.9l-0.6-0.2
		c-0.1,0.1-0.3,0.1-0.4,0.1l-0.1-0.2c1-0.9,1.5-1.4,1.6-1.4c2-0.9,3.1-1.4,3.4-1.6c0.4-1.4,1-2,2-2c0-0.1,0.1-0.2,0.2-0.2
		c0,0.1,0.2,0.3,0.7,0.7c4.3-1.1,7.7-1.7,10.2-1.8C187.5,12.7,189.8,12.5,192.1,12.3z M191.9,17.6c-0.1-0.1-0.3-0.1-0.5-0.1
		l-0.7,0.1v-0.1c-4.9,0.6-7.5,1-7.7,1.1c-0.1-0.1-0.3-0.1-0.4-0.1c0,0.1-1.5,0.6-4.6,1.3c-1.7,0.6-2.6,1-2.7,1.3
		c-2.3,5.6-6.5,14.4-12.6,26.3c-6,10.9-9.3,16.7-9.9,17.5v0.4c-0.5,0.4-0.8,0.8-1,1.4h0.3c0.2-0.6,1.1-1.2,2.5-1.9
		c0-0.4,0.1-0.6,0.4-0.6l0.2,0.1c0.6-0.8,1.2-1.1,1.9-1.1c0.4-0.3,0.6-0.5,0.6-0.7h0.5c0-0.1,0.3-0.4,0.8-0.7v-0.3l0.2,0.1
		c0.5-0.3,0.8-0.5,0.9-0.5v-0.1h-0.1c-0.2,0.1-0.3,0.1-0.4,0.1v-0.1c0-0.2,0.1-0.3,0.2-0.3l0.6,0.1c0-0.1,0.4-0.5,1.3-1.1
		c0-0.3,0.3-0.5,0.8-0.7c0.6-0.5,1.4-1.1,2.5-1.8l0.1-0.2H165c0,0.2-0.3,0.4-0.8,0.6H164c0.6-0.6,2-1.6,4.2-3.2h0.4l-0.2,0.4h0.2
		c0.3-0.1,0.6-0.4,0.7-0.7v-0.1l-0.4,0.4h-0.1c0.2-0.3,0.5-0.6,0.9-0.8h0.3l-0.1,0.2V54c0.6-0.4,0.9-0.6,0.9-0.7h-0.1l-0.4,0.2H170
		c0-0.1,0.2-0.4,0.7-0.7c0,0.1,0.1,0.2,0.3,0.2h0.1V53c-0.1-0.2-0.1-0.3-0.1-0.4l0.6-0.3l0.1,0.3c1.2-0.4,1.8-0.8,1.8-1.2l1.8-1.4
		l0.2,0.1c0-0.3,0.4-0.5,1.1-0.8c0-0.3,0.5-0.7,1.4-1.4v-0.2l-0.4,0.4h-0.1v-0.1c0-0.1,0.1-0.2,0.4-0.4l0.6,0.1l-0.2-0.4v-0.1
		l0.7-0.6l0.5,0.1h0.1v-0.1H179v-0.1c1.3-1.2,2.3-2,3.1-2.3c0.5-0.4,0.7-0.6,0.7-0.6l0.6,0.1c0.6-0.5,0.9-0.9,0.9-1v-0.1l-0.4,0.2
		l-0.1-0.2c0.3-0.3,0.5-0.5,0.7-0.5l0.2,0.1c0.3-0.1,0.5-0.2,0.5-0.4h-0.1c-0.1,0.1-0.3,0.1-0.4,0.1v-0.1c0.3-0.6,0.7-0.8,1.2-0.8
		l-0.1-0.2c0.1,0,0.5-0.3,1.2-0.8c0.6,0,0.9-0.2,0.9-0.5c-0.1,0-0.2-0.1-0.2-0.2l1.1-1.3h0.1c0.1,0,0.1,0,0.1,0.1
		c0.2,0,0.4-0.3,0.6-0.9c0.3-0.3,0.9-0.9,1.9-1.8v0.1c0.1,0,0.5-0.4,1.1-1.3c0.5-0.5,1.1-0.9,1.8-1.4c0-0.2,0.7-1.1,2.1-2.6
		c2.2-2.5,3.6-4.6,4.1-6.1c0.9-1.5,1.3-3,1.3-4.4v-0.4c0-0.5-0.6-0.9-1.9-1.2c-0.2-0.1-1.5-0.4-3.7-0.8c-0.1,0-0.1,0-0.1,0.1
		c-0.9-0.1-1.4-0.2-1.5-0.2c-0.1,0.1-0.3,0.1-0.4,0.1c-0.2,0-0.3,0-0.3-0.1L191.9,17.6z M151.9,55.6v0.2h0.1c0-0.5,0.2-0.7,0.6-0.7
		c0-0.1-0.1-0.2-0.2-0.2C152.3,54.9,152.1,55.2,151.9,55.6z M155.7,63.3v0.1c0,0.2-0.2,0.4-0.6,0.5l-0.1-0.3L155.7,63.3z
		 M159.1,44.9v0.1c0.1,0,0.3-0.2,0.6-0.6v-0.1C159.6,44.4,159.4,44.6,159.1,44.9z M161.5,40.6v0.1c0.1,0,0.2-0.1,0.2-0.2v-0.1
		C161.5,40.4,161.5,40.5,161.5,40.6z M163.2,58.3c0,0.1-0.3,0.3-1,0.7v-0.1C162.5,58.5,162.8,58.3,163.2,58.3z M165.6,56.9h0.2
		c0.1,0,0.2-0.1,0.4-0.4h-0.1C165.9,56.5,165.8,56.6,165.6,56.9z M166.6,56.1h0.1c0.2-0.2,0.3-0.3,0.4-0.3v-0.1h-0.1
		C166.8,55.9,166.6,56,166.6,56.1z M170.1,56v0.2h0.1c0.1,0,0.2-0.1,0.2-0.2v-0.1C170.4,56,170.2,56,170.1,56z M176.8,55.4
		c0,0.2-0.1,0.4-0.4,0.4v0.1h0.2c0-0.2,0.2-0.3,0.5-0.4v-0.1H176.8z M179.6,46.3v0.2c0.1-0.1,0.3-0.1,0.4-0.1v-0.1H179.6z
		 M181.9,44.6h0.4v-0.2h-0.1C182,44.4,181.9,44.5,181.9,44.6z M185.6,41.3v0.3h0.1c0.1,0,0.2-0.1,0.2-0.3H185.6z M186.3,40.7
		c0,0.1-0.1,0.2-0.2,0.2v0.1h0.2l0.1-0.2v-0.1H186.3z M197.5,29.7v0.1c0.1,0,0.2-0.1,0.4-0.4h-0.1C197.6,29.5,197.5,29.6,197.5,29.7
		z M198,29.1v0.1c0.1,0,0.3-0.3,0.7-0.8v-0.1C198.5,28.3,198.3,28.5,198,29.1z M199.9,26.1c0,0.2-0.3,0.7-0.8,1.4
		c0,0.1-0.1,0.3-0.4,0.6v0.1h0.1c0.6-0.7,1-1.4,1.3-2.1H199.9z M200.8,24.5v0.1h0.2v-0.4C200.9,24.3,200.8,24.4,200.8,24.5z"/>
	<path class="st0" d="M268.9,12.2c0,0.1,0.2,0.3,0.7,0.7v0.3c-0.4,0.4-1.6,1-3.9,1.8l-0.3-0.1c-1.2,0.9-2.7,1.6-4.6,2.1
		c0,0.1-0.1,0.1-0.2,0.1c-0.6,0-2.3,0.6-5.1,1.8c-0.2,0-1.4,0.5-3.3,1.4c-1.4,0.6-2.4,1-3,1.1c-2.6,1.2-5.6,2.5-9.2,3.9l0.1,0.3v0.3
		c-0.1,0.3-0.4,0.4-0.8,0.4h-0.1l-0.3-0.1c0,0.1,0,0.2-0.1,0.4l-0.3-0.1h-0.3l0.1,0.3v0.1c-0.4,0-2.1,0.6-4.8,1.8l-6.5,2.4
		c-0.9,3.4-2.4,7.8-4.4,13.3h0.1c3-1.2,5.3-2.1,7-2.5c2.1-1.2,5.1-2.6,8.9-4.1c0,0.1,0,0.1,0.1,0.1c0-0.2,1.8-1,5.5-2.2
		c2.3-1.1,4-1.7,5.1-1.7h0.1l1,0.1l-0.1-0.3c1.1-0.6,1.8-0.8,2.2-0.8c-0.1,0.3-0.4,0.4-0.8,0.4v0.1h0.5c0.9-0.4,1.6-0.6,2.2-0.6
		l0.1,0.3c0.5-0.1,0.9-0.2,1.1-0.4h0.1v0.6h0.1l0.4-0.3h0.7v0.3c-0.2,0-0.4,0.1-0.7,0.4l0.1,0.3c0,0.4-1.6,1.1-4.8,2.1v0.1h0.4
		c1.3-0.4,2.1-0.7,2.4-0.8l0.3,0.1c0-0.1,0.1-0.3,0.4-0.4l0.6,0.3c0-0.3,0.1-0.4,0.3-0.4h0.1c0,0.1,0.1,0.3,0.4,0.6
		c-0.2,0-1.3,0.5-3.3,1.5c-2,0.9-3.3,1.3-3.7,1.4v0.1h0.3c0.1,0,0.2,0,0.4-0.1l0.6,0.1c0.6-0.1,1.3-0.3,2.2-0.7l0.1,0.3v0.1
		l-1.4,0.4c0-0.1,0-0.1-0.1-0.1c0,0.1-0.1,0.1-0.2,0.1l0.2,0.3v0.1c-0.2,0-1.3,0.6-3.3,1.7c-0.3,0-1.2,0.5-2.8,1.4v0.1h0.1l0.7-0.1
		c-0.5,0.5-1,0.7-1.5,0.7l0.1,0.3v0.1l-0.4-0.3c-0.2,0.2-0.5,0.3-0.7,0.3l0.1,0.3v0.1l-0.4-0.3h-0.3v0.3h-0.4v-0.3
		c0.1,0,0.7-0.2,1.8-0.7v-0.1h-0.3c-1.9,0.5-4.6,1.6-8.2,3.2v0.3h0.1c0.2,0,0.6-0.1,1.1-0.4v0.1c0,0.1-0.7,0.5-2.2,1.1
		c0,0.5-2.5,1.6-7.5,3.5c0-0.1,0-0.1-0.1-0.1c-0.4,0.6-1.9,1.3-4.4,1.9c-3.6,1.4-5.4,2.2-5.4,2.5c-2.5,5.1-3.7,7.7-3.7,7.9h0.1
		l15.1-5.8c0,0.1,0.1,0.1,0.2,0.1c0-0.3,1.1-0.8,3.3-1.5c3.5-1.6,5.9-2.5,7.2-2.8c0.2,0.1,0.4,0.1,0.6,0.1c0.1,0,0.2,0,0.4-0.1
		l0.3,0.1c1.2-0.4,2.2-0.8,3.1-1.2l0.1,0.3c-0.4,0.1-0.6,0.3-0.6,0.4h0.3l0.4-0.3l0.4,0.3c0.4-0.2,0.7-0.3,1.1-0.3
		c-0.1,0.5-0.3,0.8-0.4,0.8l-0.1-0.3h0.3c0-0.2-0.1-0.3-0.3-0.3c0,0.2-0.2,0.4-0.6,0.5l0.3,0.6c-1.1,0.5-2.3,1.1-3.6,1.9
		c-2.6,0.9-3.9,1.4-3.9,1.7h0.1l4.3-1.7h0.3l0.3,0.4c0,0.2-0.4,0.4-1.2,0.5l0.1,0.3c-0.5,0.3-2.4,1.2-5.8,2.6c0,0.2,0.1,0.3,0.4,0.3
		c2.3-0.9,3.6-1.4,3.7-1.4l0.1,0.3l-7.6,3.7l-5.8,2.8c-0.8,0-2.9,0.7-6.4,2.1c0,0.2-0.8,0.7-2.4,1.5v0.2c0.4-0.1,0.7-0.3,1-0.4h0.1
		v0.3c-0.5,0.2-0.8,0.4-0.8,0.7c-0.1,0-0.2,0-0.2-0.1c-0.4,0.1-0.7,0.1-1,0.1l0.1,0.3v0.2l-0.4-0.3h-0.1c0,0.6-1.2,1.2-3.5,1.8
		c-3.1,1.2-4.6,2-4.6,2.4c-0.6,1.2-1.1,1.8-1.5,1.9l-0.7-0.1c0,0.2-0.1,0.3-0.3,0.3h-0.3c0-0.3-0.5-0.7-1.4-1.2
		c0-0.1-0.2-0.3-0.7-0.6c0-0.5-0.1-0.7-0.4-0.7l-1,0.6h-0.1v-0.3c0.5-0.8,0.8-1.5,1-2.1c0-0.3-0.4-0.5-1.1-0.7l-0.1-0.3l0.1-0.3
		c-0.5-0.3-0.8-0.9-1.1-1.7v-0.3c0.2-0.4,1.5-1,3.9-1.9c0.2-0.7,0.6-1.5,1.3-2.2h0.1l-0.1-0.3c1.7-2.2,2.8-4.3,3.3-6.3
		c-0.4,0.1-0.7,0.3-1,0.4c-1-0.3-2-1.1-3-2.4c-1.4-1.5-2.1-2.4-2.1-2.9l-0.2-0.7c1.3-1,5.1-2.5,11.3-4.3c0.4,0,1.4-2.3,2.9-6.8
		c0.6-1.3,1.1-2.3,1.2-3.2l0.3-0.1l-0.1-0.3c0.2,0,0.6-1.2,1.2-3.7c-0.4,0.3-0.8,0.4-1.1,0.4h-0.4c-1.9-0.7-3.1-1.4-3.6-2.1v-0.1
		c0-0.4,2.3-1.3,6.9-2.8l0.7-1v-0.6l-0.3-0.4c0-0.2,0.1-0.3,0.3-0.3c0,0.1,0,0.1,0.1,0.1c0.3-0.4,0.5-0.7,0.6-0.7
		c0.4,0,1.4,0.4,2.8,1.2h0.1c6.5-2.2,17-6.3,31.5-12.1C263.5,13.2,267.3,12.2,268.9,12.2z M236.6,57.2c0,0.2,0.1,0.3,0.3,0.3
		l0.1-0.3H236.6z M243.8,54.8v0.1c0,0.2-0.1,0.3-0.3,0.3h-0.7C242.8,55,243.2,54.8,243.8,54.8z M247.1,41.9V42
		c0,0.2-0.1,0.3-0.3,0.3h-0.4V42C246.8,42,247,42,247.1,41.9z M249.1,34.4c0,0.2,0.1,0.3,0.3,0.3l0.1-0.3H249.1z M250.2,36.7v0.1
		h0.1l0.7-0.1v-0.3h-0.1C250.6,36.6,250.4,36.7,250.2,36.7z M253.9,37.6h0.4c0,0.2-0.2,0.3-0.7,0.4v-0.1
		C253.7,37.6,253.8,37.6,253.9,37.6z"/>
	<path class="st0" d="M312.4,12.5c2.8,0,5.3,0.6,7.3,1.8c2.3,2,3.6,3.8,4.1,5.3c0,1.7-1,3.5-2.9,5.5c-1.2,1.7-2.7,3.2-4.4,4.5
		c-3,2.7-5.5,4.7-7.4,6c-0.7,0.7-3.3,2.8-7.7,6.2h0.3c1.5-0.3,3.5-0.4,6.2-0.4h0.1c4.1,0,7,1.5,8.7,4.5c0.9,0.8,1.3,1.8,1.3,2.8
		c0,2.1-2.3,5.1-6.9,8.8c-4.3,2.9-7.9,5.2-10.8,6.7c-5.8,3.1-11.3,5.8-16.6,8.1c-2.8,1.1-4.9,1.7-6.4,2l-0.2-0.1
		c-0.6,0.1-1.3,0.2-2,0.2h-0.2c-0.6-0.6-1.4-1.2-2.5-1.8c0-0.2-0.4-0.4-1.1-0.6c-1-0.7-1.5-1.2-1.5-1.5c0-0.4,0.6-0.7,1.8-1h1.4
		c0.2,0,0.3,0,0.5,0.1c1.4-0.4,3-1,4.9-1.8c1-0.2,3.3-1.3,7-3.3c3.4-1.4,8.8-4.3,16.2-8.6c6.1-4.2,9.6-7.6,10.5-10h-1.1
		c-6.2,0-14.4,2.2-24.5,6.7c-1.1,0.6-1.8,1-2.3,1h-0.4c-0.6-0.3-1-0.6-1.1-1.1c-0.1,0-0.3-0.3-0.6-0.8c-0.4,0-0.7-0.2-0.8-0.7h-0.2
		c-1,1.5-3.5,5.8-7.6,13.1l-5.9,9.8c-0.4,0.7-0.8,1.1-1.1,1.3h-0.4c-0.2,0-0.3,0-0.5-0.1c-0.1,0.1-0.3,0.1-0.4,0.1
		c-0.1-0.3-0.4-0.7-1.1-1.1l-0.2,0.1c-0.1,0-0.4-0.3-1.1-0.8l-0.2,0.1c-0.1,0-0.3-0.2-0.7-0.7v-0.1c0-0.5,0.5-1.3,1.4-2.5
		c0-0.4,0.3-0.8,0.9-1.4l0.2,0.1c0-0.2,0.1-0.4,0.2-0.4l-0.1-0.2v-0.2c1.2-2.4,2.6-4.8,4-7c0.1,0,0.2-0.2,0.2-0.5l-0.2,0.1l-0.1-0.2
		l1.1-1.5c0.2,0,0.7-0.5,1.4-1.5c0.1,0.1,0.3,0.1,0.4,0.1c1.3-2.1,2-3.4,2-3.9c0-0.6,0.4-1.5,1.3-2.6v0.2h0.2
		c0.1-0.5,0.6-1.2,1.6-2.1c0.6-0.9,1.5-2.6,2.6-5.2c1.2-1.8,1.8-2.7,1.8-2.8c-0.1-0.1-0.1-0.3-0.1-0.4c0.1-0.1,0.1-0.3,0.1-0.4
		c-0.1,0-0.2-0.1-0.2-0.2l0.4-0.3v0.4h0.1c0-0.1,0.1-0.3,0.2-0.4v-0.1l-0.3,0.2v-0.1c0.3-0.6,0.5-0.8,0.6-0.8c0,0.1,0,0.1,0.1,0.1
		c0.2-0.5,0.4-0.7,0.4-0.8l-0.2,0.1v-0.1c0-0.1,0.1-0.2,0.2-0.2c0,0.1,0,0.1,0.1,0.1c0.6-1,1.1-1.7,1.8-2.1c2.7-5.1,4.6-9,5.6-11.8
		H289l-5.4,2.4h-0.2c-0.7-0.2-1.2-0.6-1.5-1c0-0.1-0.7-0.8-2.1-1.9l-0.6-0.9c0-0.3,1.6-1.2,4.7-2.7c2-0.7,3.9-1.4,5.7-2.2
		c2-0.8,4.2-1.5,6.5-2.3c0.8-0.5,1.7-0.8,2.7-0.8c1.3-0.6,2.6-1,4-1.2c0.5-0.2,1.4-0.5,2.6-0.8C305.3,13.2,307.7,12.8,312.4,12.5z
		 M277.3,48.8c0,0.1,0.1,0.2,0.2,0.2c0.1-0.4,0.3-0.7,0.6-1H278C277.8,48.1,277.5,48.3,277.3,48.8z M315.1,17.6h-0.4
		c-3.1,0-9.3,1.5-18.7,4.5c-0.5,0-1.1,1-1.6,3c-2.9,6.7-6.5,13.7-10.7,21h0.1c2.5-1.8,4-2.6,4.4-2.6c0.1,0.1,0.3,0.1,0.4,0.1
		c0-0.1,1-0.7,3-2c1.1-0.7,1.7-1.2,1.8-1.6c-0.1,0-0.1,0-0.1-0.1c0.4,0,1.5-0.7,3.1-2.1h-0.4c0-0.1,0.2-0.3,0.6-0.6h0.3v0.2h-0.3
		v0.2l1.6-1.1v-0.1l-0.1-0.2l0.4-0.2h0.1v0.3c1.2-0.7,1.8-1.2,1.8-1.3l2.6-2.1v-0.1l-0.8,0.6h-0.1c0.2-0.4,0.4-0.6,0.8-0.8h0.3v0.2
		c0.2-0.1,0.3-0.2,0.4-0.2v-0.2l-0.4,0.2h-0.1c0.4-0.7,1.4-1.6,3-2.9c0.2-0.3,1-0.9,2.3-1.8h0.1v0.5c0.6-0.4,0.8-0.6,0.8-0.7
		l-0.1-0.3h0.2l-0.1-0.2v-0.1c0.6-0.6,2.2-2.2,4.8-4.8c0.1,0,1.2-1.2,3-3.7c0-0.1,0.1-0.4,0.4-0.9H316c-0.2,0-0.3,0-0.5-0.1
		C315.4,17.6,315.3,17.6,315.1,17.6z M288.5,28v0.4h-0.2v0.1h0.2v0.1l-0.2,0.4v0.4h0.1c0.3-0.3,0.6-1,1.1-2.2l-0.3-0.1L288.5,28z
		 M298.1,36.2h0.3c0,0.1-0.1,0.2-0.4,0.4h-0.1v-0.1C297.9,36.3,298,36.2,298.1,36.2z M299.4,35.4h0.1c0,0.1-0.1,0.2-0.2,0.2h-0.1
		C299.2,35.5,299.2,35.4,299.4,35.4z"/>
	<path class="st0" d="M327.6,11.9c0.1,0,0.5,0.7,1.2,2.2c0.2,0.1,0.4,0.2,0.4,0.2c0-0.1,0-0.2-0.1-0.2l0.1-0.7
		c-0.1-0.2-0.1-0.3-0.1-0.4l0.3-0.1c0.2,0,0.3,0.1,0.3,0.3l1.1-0.1h1.4c0.5,0,1.4,1.6,2.7,4.7c0.9,1.5,2.9,7.1,5.9,16.9
		c0,0.1,1.2,3.2,3.6,9.2l1.5,3.2c0.2,0.1,0.3,0.1,0.4,0.1c0-0.3,0.9-1.1,2.6-2.6c0.7-0.9,1.4-1.7,2.2-2.4c0-0.4,0.5-0.9,1.5-1.5
		c0-0.3,0.3-0.7,0.9-1.1c0-0.1,0.6-0.7,1.7-1.8l2.6-2.4c0.5,0,1.4-0.9,2.7-2.6c8.2-8.6,12.4-13.4,12.4-14.3c0.7-1.2,1.2-1.9,1.5-2.2
		c-0.1,0-0.1-0.1-0.1-0.2l0.3-0.1c0,0.1,0,0.1,0.1,0.1v-0.6c0.7-0.4,1.3-0.9,1.7-1.5l1.8-0.1c0,0.1,0.1,0.3,0.4,0.4l0.7-0.1l0.2,0.3
		c-0.1,0.2-0.2,0.4-0.2,0.6c0.6,0,1,0.3,1.4,0.9l0.3-0.1h0.4l0.6,0.9c0.3,0,0.5,0.3,0.6,0.9c0.2,0,0.3,0.1,0.3,0.3
		c0,2.3-3.6,7.3-10.8,15.2c-4,4.1-10.4,10.4-19.1,18.8v0.4l1.1,0.6v0.3l-0.4,0.6c0.2,0,0.3,0.1,0.3,0.3c-0.2,0.2-0.8,0.4-1.8,0.4
		c-0.7-0.1-1.2-0.2-1.4-0.3c-0.3,0-4.2,3.9-11.8,11.7c-2.8,3.2-4.2,4.8-4.4,4.8h-0.1l-0.5-0.3c-0.1,0-0.3,0.2-0.6,0.6
		c0.2,0,0.3,0.1,0.3,0.3l-0.4,0.6c0.1,0.2,0.2,0.4,0.2,0.5c-0.1,0-0.6,0.6-1.7,1.9c0-0.1-0.2-0.3-0.6-0.4c-0.3,0.5-0.7,1-1.2,1.5
		h-0.2c-0.9-0.3-1.4-0.6-1.5-0.9c0.2,0,0.4-0.4,0.6-1.3V73h-0.2c-0.7,0.8-1.1,1.2-1.2,1.2c-0.1,0-0.4-0.3-0.6-0.7l0.3-0.5l-0.3-0.1
		c0,0.1-0.1,0.3-0.4,0.4h-0.7c-0.6-0.4-0.9-0.6-0.9-0.7c0.2-0.3,0.3-0.6,0.3-0.9l-0.7,0.6h-0.1v-0.1l0.1-0.3c-0.3,0-0.4-0.1-0.4-0.3
		c0-1,1.6-3.2,4.7-6.6c0.9-1.1,2.3-2.6,4.2-4.7c2.6-2.9,4.1-4.4,4.7-4.4l-0.1-0.3c1.5-1.8,3.1-3.3,4.7-4.7c0-0.1-0.9-1-2.7-2.6
		c-1.9-2.7-3.5-6-4.8-9.8c-2.9-8.5-4.4-13.3-4.4-14.5h0.2c0.1,0,0.3,0.4,0.6,1.2h0.2v-0.2c-1.1-4.1-2.4-7.6-3.8-10.7
		c0-0.2,0.2-0.3,0.6-0.3V14c0-0.2,0-0.4-0.1-0.6l0.1-0.3c-0.3-0.5-0.4-0.9-0.4-1.1L327.6,11.9z M337.3,66.1c0,0.1-0.1,0.4-0.3,0.6
		v0.1h0.2c0-0.3,0.1-0.4,0.4-0.4v-0.3H337.3z M347.4,47c0,0.1-0.3,0.4-0.9,0.9V48h0.1c0.5-0.3,0.8-0.6,0.9-0.9V47H347.4z
		 M348.3,45.3h0.1c0.2,0,0.3-0.1,0.3-0.3v-0.2C348.6,44.9,348.5,45,348.3,45.3z M350,43.5v0.1h0.5v-0.3
		C350.3,43.5,350.1,43.5,350,43.5z M358.6,35.2v0.2h0.2c0.5-0.3,0.7-0.6,0.7-1.1C359.3,34.3,359,34.6,358.6,35.2z M359.9,33.7
		c0,0.2,0.1,0.3,0.3,0.3l0.1-0.3H359.9z M375.5,13.1h0.3v0.2c0,0.2-0.1,0.3-0.3,0.3h-0.2C375.4,13.4,375.5,13.2,375.5,13.1z"/>
	<path class="st0" d="M419.4,12.5c0.6,0.1,0.9,0.2,0.9,0.4c0.2-0.1,0.3-0.1,0.4-0.1c1.5,0.5,2.8,1.5,3.8,2.8c-1.7,1.8-3.2,4-4.4,6.7
		c-13.5,21.9-20.3,33.3-20.3,34.2c-2.5,5.8-3.8,9.6-3.8,11.5v0.4c0,0.1,0,0.2-0.1,0.2c0,0.1,0,0.1,0.1,0.1c0,0.1,0,0.2-0.1,0.4
		c0.1,1.1,0.2,1.7,0.4,1.7c1.5-0.3,4.5-2.1,9-5.4c0.2,0.1,0.3,0.1,0.4,0.1l0.3-0.4c-0.1-0.2-0.1-0.4-0.1-0.4
		c1.7-1.4,3.4-3.2,4.9-5.2c3.7-3.6,6.2-6.2,7.6-7.9h0.6v-0.1h-0.3v-0.3c0.1,0,0.2,0,0.6-0.1c0,0.1,0.1,0.3,0.4,0.4
		c2.2-2.4,4.6-5.3,7.1-8.6c0.9-1,1.7-2.1,2.5-3.3h-0.1c-0.3,0.5-0.5,0.7-0.6,0.7c0-0.1,0-0.1-0.1-0.1c0.1-0.4,1-1.6,2.9-3.5h0.1
		l-1.5,2.1h0.1c2.5-2.8,6.4-7.7,11.8-14.4c1.3-1.8,2.2-3,2.8-3.3v0.2l-5.7,7.8v0.1c0.5-0.1,0.9-0.4,1.1-1c0.2,0,1.2-1,2.9-3l0.6-0.4
		l0.1,0.3c-0.1,0.1-0.1,0.3-0.1,0.6h0.1c0.9-0.6,1.5-1.2,1.8-1.9v-0.2h-0.2l-0.6,0.4h-0.1c-0.2,0-0.3-0.1-0.3-0.3l2.1-2.6h0.1
		c0.2,0,0.3,0.1,0.3,0.3c0.9-0.4,1.3-0.7,1.5-1.2c1.4-1.6,2.3-2.3,2.7-2.3c0.1,0.2,0.2,0.4,0.2,0.6c0.3-0.2,0.5-0.3,0.7-0.3l0.2,0.3
		v0.1c-0.3,0-0.4,0.1-0.4,0.3c0.1,0,0.2,0,0.4,0.1c0-0.3,0.2-0.4,0.6-0.4v0.1c-0.6,1.6-2.5,4.3-5.5,8c-1.4,2.1-6.1,8.1-14.1,17.9
		c-4.5,6-10.9,13.3-19.1,21.8c-6.3,5.7-10.6,8.6-12.8,8.6c0,0.1-0.4,0.3-1.3,0.4h-2.6c-3-0.9-4.5-1.9-4.5-2.8c-1.1-0.3-2-1-2.6-2
		c-0.6-1.5-0.9-2.5-0.9-2.8c0.1-1.2,0.2-1.8,0.3-2c-0.1-0.2-0.2-0.4-0.2-0.6c0.1,0,0.4-1.1,0.9-3.2l0.3-0.2c0.1,0.2,0.1,0.4,0.1,0.4
		c-0.2,0.3-0.3,0.6-0.3,0.7v0.1h0.2c1.2-4.3,4.2-10.7,9-18.9c1.2-2.2,4.8-8.1,10.6-17.6c0-0.1,1.3-2.2,3.8-6.4v-0.3h-0.3v-0.1
		c1.1-2.5,1.8-3.8,2.2-3.8v0.3c1.5-2,2.5-3.3,3.1-3.8H419.4z M394.1,57.3c0,0.1-0.1,0.3-0.3,0.6V58h0.3c0-0.2,0-0.4,0.1-0.6v-0.1
		H394.1z M394.5,56.4v0.1h0.1c1.4-2.9,2.3-4.7,2.8-5.2c-0.1-0.2-0.1-0.3-0.1-0.4l0.6-0.6c-0.1-0.2-0.2-0.3-0.2-0.4
		c-0.4,0-1.1,1.1-2,3.3c-0.5,0.9-0.8,1.8-1,2.9C394.6,56.1,394.5,56.2,394.5,56.4z M397.9,49.2c0,0.1-0.1,0.2-0.2,0.4h0.2
		c0.2,0,0.3-0.1,0.3-0.3L397.9,49.2z M398.9,47.7h0.1c0.1,0,0.5-0.5,1-1.5h-0.1C399.5,46.5,399.2,47,398.9,47.7z M399.3,43.8h0.3
		v0.4h-0.3V43.8z M403.8,36.5v0.1c0,0.2-0.1,0.3-0.3,0.3h-0.2C403.4,36.8,403.5,36.6,403.8,36.5z M404.3,66.6v0.1
		c0.2-0.1,0.4-0.1,0.4-0.1v-0.3h-0.1C404.4,66.4,404.3,66.5,404.3,66.6z M406.8,34.3v0.2c0,0.2,0.1,0.3,0.3,0.3l0.1-0.3v-0.2H406.8z
		 M407.2,33.9v0.3c1-0.9,1.5-1.6,1.5-2.2c1.2-1.8,1.8-2.8,1.8-3.1h-0.1C409.9,29.5,408.8,31.1,407.2,33.9z M413.7,20.2v0.1
		c-0.1,0.2-0.1,0.3-0.1,0.4h-0.3v-0.1C413.3,20.5,413.4,20.4,413.7,20.2z M419.6,53v0.3c0,0,0.4-0.4,1.1-1.3v-0.2
		C420.6,51.8,420.3,52.2,419.6,53z M421.3,50.9l-0.4,0.6v0.1c0.2,0,0.4-0.3,0.6-0.7H421.3z M422,50.2h0.3c0-0.3,0.3-0.6,0.9-0.9
		c0-0.1,0-0.2,0.1-0.4h-0.1C422.5,49.4,422.2,49.9,422,50.2z M423.5,48.4v0.2h0.3l2.1-2.6h-0.3C424.8,46.7,424.1,47.5,423.5,48.4z
		 M426.8,44.4c0,0.2-0.1,0.4-0.4,0.6h-0.1v0.1h0.3l0.4-0.6v-0.1H426.8z M427.7,43.2v0.1h0.3c0-0.1,0.4-0.7,1.2-1.6v-0.3
		C429,41.5,428.5,42,427.7,43.2z M431.9,37.9v0.1c0.2,0,0.3-0.1,0.3-0.3v-0.1C432,37.7,431.9,37.8,431.9,37.9z M432.5,35.5v0.1
		c0,0.2-0.1,0.3-0.3,0.3v-0.1C432.2,35.6,432.3,35.5,432.5,35.5z M432.8,36.9v0.1c0.8-0.8,1.4-1.3,1.9-1.6c0.2-0.7,1-1.6,2.5-2.9
		l2.3-3.2v-0.1c-0.8,0-2.2,1.6-4.2,4.7L432.8,36.9z M443.3,26v0.1c0.2-0.1,0.3-0.1,0.4-0.1v-0.4C443.6,25.6,443.5,25.7,443.3,26z"/>
	<path class="st0" d="M484.2,12.2h0.3c2,0.9,3.2,1.8,3.7,2.7l1.5,2.7v0.1c0,0.4-0.9,0.7-2.7,0.7h-0.4l-0.8-0.1
		c-1.6,0.2-4.6,0.9-9.1,2.2c-6,1.9-12.1,4.8-18.3,8.8c-3,2-5.8,4.3-8.5,7c-2.1,2.3-3.1,3.7-3.1,4.2h0.7c0.3,0,0.4,0,0.4,0.1l0.7-0.1
		h1.4c4.3-0.6,6.4-0.9,6.4-1.1v-0.1h0.3l0.3,0.1c0-0.5,1.9-0.9,5.7-1.2c0-0.2,0.1-0.3,0.3-0.3c0.1,0,0.1,0,0.1,0.1l0.3-0.1
		c0.2,0.1,0.3,0.1,0.4,0.1c0-0.1,0.1-0.2,0.4-0.4h0.4l0.3,0.1c0-0.3,0.1-0.4,0.4-0.4c0.2,0.1,0.3,0.1,0.4,0.1c0-0.3,2.7-0.7,8-1.2
		c0-0.1,0-0.1,0.1-0.1s0.1,0,0.1,0.1c1-0.2,2.5-0.3,4.6-0.3h0.1l0.7-0.1V36c0.1,0,0.1,0,0.1-0.1c5.7,0,9.4,1.8,11.3,5.3
		c0.2,0.1,0.9,1.2,2,3.3c0,0.1,0,0.1-0.1,0.1l0.1,0.3v0.3c0,2.8-5.7,7.3-17.2,13.6c-12.2,6.4-24.1,12-35.8,16.8l-0.5,0.1
		c0-0.4-0.4-0.8-1.2-1.1l-0.1-0.3v-0.1c0-0.1,0-0.1,0.1-0.1c0-0.3-0.3-0.8-0.9-1.6c0-0.4-0.2-0.7-0.7-0.9V71c-0.3,0-0.4-0.1-0.4-0.3
		c0.4,0,0.5-0.2,0.5-0.4h0.3l0.3,0.1l1.1-0.8c0.2,0.1,0.3,0.1,0.4,0.1l-0.1-0.3c0.1,0,0.1,0,0.1-0.1l0.3,0.1c1.4-0.6,2.2-1,2.2-1.5
		h0.1l0.3,0.1c0.1-0.2,1.3-0.9,3.5-2h0.1c0.1,0,0.1,0,0.1,0.1l2.9-1.1h0.3V65l-0.1-0.3c0.3-0.2,0.6-0.3,0.8-0.3h0.7v-0.3h-0.1
		l-0.3,0.2v-0.2c0-0.1,0.5-0.3,1.6-0.7c0-0.2,0.4-0.4,1.2-0.5c0-0.3,0.4-0.6,1.1-0.8h1.1c0-0.2,0.9-0.6,2.6-1.2l3.8-2.1
		c0.8-0.3,1.2-0.6,1.2-0.8l0.3,0.1h0.1v-0.1h-0.3V58c0.1-0.1,0.7-0.6,2-1.2v-0.3h-0.3c0,0.3-0.1,0.4-0.4,0.4l-0.1-0.3
		c2.1-1.3,3.4-1.9,3.8-1.9v0.1c0,0.2-0.1,0.3-0.4,0.3v0.1h0.1c0.5-0.2,0.8-0.4,0.8-0.5H467v-0.1c0.5-0.4,1.6-1,3.3-1.9
		c0-0.1,0.4-0.4,1.2-0.8l0.3,0.1c0.2-0.1,0.3-0.1,0.4-0.1v0.3h-0.3v0.2h0.1c0.6,0,1.7-0.7,3.4-2.1h-0.3c0,0.2-0.3,0.4-0.8,0.4
		c-0.1,0.2-0.6,0.5-1.6,1.1l-0.1-0.3c1.8-1.2,3-1.9,3.8-2.2c0-0.4,0.6-0.8,1.8-1.1c0.6-0.4,1-0.7,1.2-0.7c-0.4,0.5-1.1,1-2.3,1.6
		v0.1h0.3c1.5-0.6,3-1.6,4.5-3.1h-0.2c-1.1,0.8-1.8,1.2-2.2,1.2c1.4-1.1,3.1-2.7,5.3-4.6v-0.1c-0.4,0-1.8,0-4.2-0.1
		c-0.2,0-0.9,0.1-2,0.3c-0.1,0-0.1,0-0.1-0.1c-4.2,0.4-11,1.4-20.3,3c-0.7,0-1.7,0.1-2.9,0.3v-0.1c-0.4,0.2-1.2,0.3-2.4,0.3h-3.1
		c-3.4,0-5.6-1.4-6.8-4.1c0-0.7-0.4-1.4-1.2-2.1c-0.3-0.9-0.4-1.4-0.4-1.6V38c0.5-0.3,0.9-1,1.2-2c1.2-1.5,2.2-2.7,3-3.4
		c4.2-4.1,6.9-6.4,8.2-6.8l4-2.8c0-0.5,0.2-0.7,0.4-0.7l0.1,0.3v0.2h-0.4v0.1h0.3c0.8-0.6,2.3-1.4,4.8-2.5c0-0.2,0.4-0.5,1.1-0.7
		v-0.4l-0.7,0.3l-0.1-0.3c0.8-0.5,1.3-0.9,1.6-1.4l4.2-1.8h0.3c0.1,0,0.1,0,0.1,0.1l0.3-0.1h0.3v0.1l-0.3,0.4
		c0.4,0.2,0.7,0.3,0.9,0.3c0-0.2,0.5-0.5,1.6-0.9V16c-0.3,0-0.4-0.1-0.4-0.3v-0.3c0-0.3,2-1,6.1-2C481.1,12.6,483.3,12.2,484.2,12.2
		z M439.5,68.4h0.1v0.1c0,0.2-0.1,0.3-0.3,0.3h-0.3C439.1,68.7,439.2,68.6,439.5,68.4z M441,69.1h0.3c0.4-0.1,0.6-0.2,0.6-0.4h-0.3
		C441.1,68.8,441,69,441,69.1z M442.5,35.1h0.3v0.1c0,0.2-0.1,0.3-0.3,0.3V35.1z M443.3,34.2h0.1v0.1c0,0.1-0.1,0.3-0.4,0.4
		l-0.1-0.3L443.3,34.2z M452.5,61.6h0.5c-1.1,0.6-2.7,1.4-5,2.4l-0.1-0.3L452.5,61.6z M449.5,30.1l0.3,0.1l0.3-0.5h-0.1
		C449.8,29.7,449.7,29.8,449.5,30.1z M450.2,29.5h0.4v-0.3h-0.1C450.3,29.3,450.2,29.3,450.2,29.5z M454.1,63.8h0.1
		c0.2,0,0.3-0.1,0.3-0.3h-0.1C454.2,63.6,454.1,63.6,454.1,63.8z M454.7,26.3h0.3c0.2,0,0.3-0.1,0.3-0.3v-0.1
		C454.8,26,454.7,26.1,454.7,26.3z M457,39.3v0.1h0.4v-0.3C457.2,39.2,457.1,39.3,457,39.3z M462.2,57v0.1c0,0.2-0.2,0.4-0.7,0.4
		l-0.1-0.3C461.7,57.1,462,57,462.2,57z M463.7,38l-0.1,0.3h0.1c0.2-0.1,0.3-0.2,0.4-0.2V38H463.7z M468.4,54.3h0.3
		c0.2,0,0.3-0.1,0.3-0.3h-0.3C468.4,54.1,468.4,54.2,468.4,54.3z M469.3,53.6l0.3,0.1h0.1c0.2,0,0.3-0.1,0.3-0.3v-0.1h-0.4
		C469.4,53.4,469.3,53.5,469.3,53.6z M471,52.7l0.3,0.1c0.1,0,0.2-0.1,0.4-0.4h-0.4C471.1,52.5,471,52.5,471,52.7z M471.2,15.7h0.4
		V16h-0.4V15.7z M475.8,50.1h0.1c0.2,0,0.3-0.1,0.3-0.3h-0.1C475.9,49.9,475.8,50,475.8,50.1z"/>
</g>
</svg>
