<?xml version="1.0" encoding="utf-8"?>
<!-- Generator: Adobe Illustrator 19.0.1, SVG Export Plug-In . SVG Version: 6.00 Build 0)  -->
<svg version="1.1" id="Layer_1" xmlns="http://www.w3.org/2000/svg" xmlns:xlink="http://www.w3.org/1999/xlink" x="0px" y="0px"
	 viewBox="-52.6 368 123.3 61.3" style="enable-background:new -52.6 368 123.3 61.3;" xml:space="preserve">
<style type="text/css">
	.st0{fill:#FFFFFF;}
</style>
<g>
	<g>
		<path class="st0" d="M4.4,398.1c0,19.4-11.8,31.2-29.1,31.2c-17.6,0-27.9-13.3-27.9-30.2c0-17.8,11.4-31.1,28.9-31.1
			C-5.5,368.1,4.4,381.7,4.4,398.1z M-38.4,398.9c0,11.6,5.5,19.8,14.4,19.8c9.1,0,14.3-8.6,14.3-20.2c0-10.6-5.1-19.8-14.3-19.8
			S-38.4,387.3-38.4,398.9z"/>
		<path class="st0" d="M34.4,369h36.3v11H47.9v13.6h21.3v10.9H47.9v23.8H34.4V369z"/>
	</g>
</g>
</svg>
