<?xml version="1.0" encoding="utf-8"?>
<!-- Generator: Adobe Illustrator 19.0.1, SVG Export Plug-In . SVG Version: 6.00 Build 0)  -->
<svg version="1.1" id="Layer_1" xmlns="http://www.w3.org/2000/svg" xmlns:xlink="http://www.w3.org/1999/xlink" x="0px" y="0px"
	 viewBox="0 0 314.1 66" style="enable-background:new 0 0 314.1 66;" xml:space="preserve">
<style type="text/css">
	.st0{fill:#FFFFFF;}
</style>
<g>
	<path class="st0" d="M34.3,46.4c1.8,8.4,4.5,14.9,12.3,19.6c-9.6,0-18.1,0-27.4,0c6.8-4.4,10.2-10.4,11.5-18.7
		c-4.5,4.6-8.8,7.6-14.7,7.4C9.2,54.3,4.2,51,1.6,44.9C-1,38.9-0.6,32.6,4.1,27.7c8.6-9,17.7-17.6,26.4-26.5c2.2-2.2,3.2-1,4.7,0.5
		C43.4,9.9,51.6,18,59.6,26.1c7.4,7.4,7.7,17.2,0.8,23.9c-6.9,6.7-17.2,6-24.3-1.6C35.8,48.1,35.5,47.7,34.3,46.4z"/>
	<path class="st0" d="M283,46.4c1.8,8.4,4.5,14.9,12.3,19.6c-9.6,0-18.1,0-27.4,0c6.8-4.4,10.2-10.4,11.5-18.7
		c-4.5,4.6-8.8,7.6-14.7,7.4c-6.9-0.3-11.8-3.5-14.4-9.7c-2.6-6.1-2.2-12.3,2.6-17.2c8.6-9,17.7-17.6,26.4-26.5
		c2.2-2.2,3.2-1,4.7,0.5c8.1,8.1,16.3,16.2,24.3,24.4c7.4,7.4,7.7,17.2,0.8,23.9c-6.9,6.7-17.2,6-24.3-1.6
		C284.5,48.1,284.2,47.7,283,46.4z"/>
	<g>
		<path class="st0" d="M152.4,34.1c0,19.4-11.8,31.2-29.1,31.2c-17.6,0-27.9-13.3-27.9-30.2c0-17.8,11.4-31.1,28.9-31.1
			C142.5,4.1,152.4,17.7,152.4,34.1z M109.6,34.9c0,11.6,5.5,19.8,14.4,19.8c9.1,0,14.3-8.6,14.3-20.2c0-10.6-5.1-19.8-14.3-19.8
			C114.8,14.7,109.6,23.3,109.6,34.9z"/>
		<path class="st0" d="M182.4,5h36.3v11h-22.8v13.6h21.3v10.9h-21.3v23.8h-13.5V5z"/>
	</g>
</g>
</svg>
