<?xml version="1.0" encoding="utf-8"?>
<!-- Generator: Adobe Illustrator 19.0.1, SVG Export Plug-In . SVG Version: 6.00 Build 0)  -->
<svg version="1.1" id="spade-white" xmlns="http://www.w3.org/2000/svg" xmlns:xlink="http://www.w3.org/1999/xlink" x="0px" y="0px"
	 viewBox="-148 364 65.4 66" style="enable-background:new -148 364 65.4 66;" xml:space="preserve">
<style type="text/css">
	.st0{fill:#FFFFFF;}
</style>
<g>
	<path class="st0" d="M-113.7,410.4c1.8,8.4,4.5,14.9,12.3,19.6c-9.6,0-18.1,0-27.4,0c6.8-4.4,10.2-10.4,11.5-18.7
		c-4.5,4.6-8.8,7.6-14.7,7.4c-6.8-0.4-11.8-3.7-14.4-9.8c-2.6-6-2.2-12.3,2.5-17.2c8.6-9,17.7-17.6,26.4-26.5c2.2-2.2,3.2-1,4.7,0.5
		c8.2,8.2,16.4,16.3,24.4,24.4c7.4,7.4,7.7,17.2,0.8,23.9c-6.9,6.7-17.2,6-24.3-1.6C-112.2,412.1-112.5,411.7-113.7,410.4z"/>
</g>
</svg>