<?xml version="1.0" encoding="utf-8"?>
<!-- Generator: Adobe Illustrator 19.0.1, SVG Export Plug-In . SVG Version: 6.00 Build 0)  -->
<svg version="1.1" id="Layer_1" xmlns="http://www.w3.org/2000/svg" xmlns:xlink="http://www.w3.org/1999/xlink" x="0px" y="0px"
	 viewBox="0 0 483.6 85.3" style="enable-background:new 0 0 483.6 85.3;" xml:space="preserve">
<style type="text/css">
	.st0{fill:#FFFFFF;}
</style>
<g>
	<path class="st0" d="M86.6,0c0.5,0.2,0.8,0.4,0.8,0.7c-0.2,0.1-0.3,0.2-0.3,0.4c1.1,0,1.9,0.4,2.2,1.2c0.2,0,0.4,0.2,0.6,0.5
		L89,3.5h0.2l0.4-0.2c0.7,0.2,1,0.5,1,1c-0.4,0.3-1.4,0.7-3.2,1c-0.2-0.1-0.4-0.2-0.5-0.2v0.9c0.3-0.3,0.9-0.6,1.8-0.9
		c0.7,0.1,1,0.3,1,0.5c-0.4,0.4-1.3,0.7-2.8,1c0,0.2-1.1,0.5-3.3,0.9h-1.2c0,0.2-0.3,0.4-0.9,0.7H82v0.3l-1,0.2v0.2h1.2v0.4
		c-2.2,0.6-3.4,0.9-3.5,0.9v0.2h0.4l1-0.2l0.2,0.3v0.2c-2.7,0.5-6.8,1.4-12.2,2.8c-3.2,0.9-7.3,2-12.2,3.1l-0.2-0.3
		c0.9-0.4,2.2-0.7,4-1.1v-0.2h-0.5c-3.2,0.8-4.9,1.2-5.1,1.4c0.1,0.2,0.2,0.4,0.2,0.5c-0.6,0-1.3,1.1-2.1,3.3
		c-2.2,5.4-9.1,14.9-20.6,28.6c-5.7,6.7-13.4,16.8-23.1,30.4c-1.1,1.7-2.3,3.7-3.5,6l-0.7-0.5H4l-0.5,0.4c-0.2-0.4-0.3-0.9-0.3-1.4
		c0.1,0,0.2-0.1,0.2-0.2c-0.6,0-0.9-0.5-0.9-1.4c0.1,0,0.2-0.1,0.2-0.2H2.3l-0.5,0.4c-0.2-0.5-0.4-1.1-0.4-1.9
		c0.1,0,0.2-0.1,0.2-0.2l-0.3-0.2v0.7H0.5c-0.2,0-0.4-0.1-0.4-0.3v-0.2l0.2-1.2c-0.2,0-0.4-0.2-0.4-0.5c0.3-1.4,1.2-3,2.4-4.7
		c0.6-1.1,1.4-2,2.4-2.4l0.4-0.6v-0.2H4.9c0-0.4,1.1-2.1,3.2-5.1l0.7-0.7v-0.2l-0.2-0.4L9.3,64l-0.2-0.4v-0.2
		c1.3-1.8,2.2-2.7,2.8-2.8l0.2-0.4c-0.1-0.2-0.2-0.4-0.2-0.5c0.5,0,1.1-0.6,1.9-1.7c-0.1-0.2-0.2-0.5-0.2-0.7h0.3l0.4,0.2
		c0-0.2,1.1-1.5,3.2-4l4.5-6.3l-0.2-0.4c2.1-2.8,4.2-5.3,6.3-7.5c0.3,0,1.6-1.2,3.8-3.7l0.9-0.2v-0.2l-0.4-0.5
		c1.4-1.9,2.1-2.8,2.3-2.8c0.2,0.1,0.4,0.2,0.5,0.2c0-0.5,0.9-1.8,2.6-3.8l-0.2-0.4c0.6-0.9,1.3-1.7,2.1-2.3
		c-0.1-0.2-0.2-0.4-0.2-0.5c0.1,0,0.8-0.7,2.1-2.1l0.2,0.4c-0.1,0-0.5,0.5-1.2,1.6h0.2c0.4-0.1,1.4-1.6,3-4.4v-0.4
		c-0.3,0-0.5-0.2-0.5-0.5h-0.2c-0.2,0.2-1.4,0.5-3.7,0.9c-6.6,2.1-13.5,4-20.8,5.8c-2.5,1-5.8,2-9.9,3c-0.2-0.5-0.3-0.7-0.5-0.7
		L7.3,29c0-0.1-0.1-0.2-0.2-0.2l0.2-0.9c-0.6-1-1-1.6-1.2-1.6l-0.5-0.6V25c-0.5,0-1.3-1-2.3-3C3.1,22,3,21.9,3,21.7
		c0.6-0.5,3.1-1.2,7.4-2.3c6.5-2.3,18.2-5.5,35.1-9.6C70,3.3,83.8,0,86.6,0z M36.1,31.4h0.2c0.2,0,0.4-0.2,0.7-0.7v-0.2
		C36.7,30.5,36.4,30.8,36.1,31.4z M37.4,29.8V30c0.2-0.1,0.4-0.2,0.5-0.2v-0.4h-0.2C37.5,29.5,37.4,29.7,37.4,29.8z M60.1,15v0.2
		h0.3c0.4-0.2,0.7-0.4,0.9-0.4v-0.2h-0.2C60.7,14.9,60.4,15,60.1,15z M64.2,13.8L64,14.1h0.5C64.6,13.9,64.4,13.8,64.2,13.8z
		 M68.1,12.9v0.2h0.5c0.2-0.1,0.4-0.2,0.7-0.2v-0.2h-0.2L68.1,12.9z M70.2,12.4v0.2h0.5c0.5-0.2,0.9-0.4,1.2-0.4V12h-0.5
		C71,12.3,70.6,12.4,70.2,12.4z M72.1,11.9V12h0.7v-0.2H72.1z M73.3,11.5v0.2h0.3l4.7-1.1v-0.2h-0.5C75.4,11.2,73.8,11.5,73.3,11.5z
		 M79.7,7.5v0.4h0.2c0.2,0,0.3-0.1,0.3-0.4H79.7z M80.6,7.3v0.2h0.2c0.6-0.1,1.2-0.2,1.6-0.2V7.2c0-0.2-0.2-0.3-0.5-0.5h-0.2
		C81.2,7.1,80.9,7.3,80.6,7.3z M82.2,6.3v0.2c0,0.2,0.3,0.4,0.9,0.7C83.3,7,83.5,7,83.6,7l-0.3-0.5h0.3l1.2,0.3
		c0.2-0.1,0.4-0.2,0.5-0.2V6.5h-0.5V6.3c0-0.2,0.3-0.3,0.9-0.3V5.6C84.6,5.7,83.4,5.9,82.2,6.3z M82.4,8h0.5v0.4h-0.2
		C82.5,8.4,82.4,8.3,82.4,8z M85.7,6.1v0.4h0.9V6.1H85.7z"/>
	<path class="st0" d="M86.2,11.3c1.2,0,2.1,0.2,2.6,0.6c2.1,1.7,3.1,2.6,3.1,2.8c0,1-0.7,3.2-2,6.6c-0.7,1.5-1.7,4.2-3,8l-0.2,0.4
		v0.2c1.2-0.3,1.9-0.5,2.2-0.6l0.6,0.1c0-0.1,0.3-0.2,0.8-0.3c0.2,0.1,0.3,0.1,0.3,0.1c0-0.2,0.8-0.4,2.3-0.7
		c0.7-0.3,1.5-0.5,2.1-0.6V28l0.2-0.1h0.2l0.8,0.1c0-0.1,0.3-0.2,0.9-0.3c0.2-0.1,0.4-0.3,0.4-0.4l0.6-0.1c0.4,0.1,0.7,0.1,0.9,0.1
		v0.1c0,0.1-0.1,0.2-0.3,0.2v0.1H99c0.2,0,0.2-0.1,0.2-0.2c-0.1,0-0.1,0-0.1-0.1c0.3-0.2,0.6-0.4,1.1-0.4c1.1,0.3,1.7,0.4,1.9,0.4
		c0-0.2,0.1-0.2,0.2-0.2h0.2c0.4,0,0.7,0.1,0.8,0.4c-0.3,0.1-0.4,0.2-0.4,0.3c0.1,0,0.1,0,0.1,0.1c-0.2,0.1-0.3,0.1-0.4,0.1
		l-0.5-0.1l0.1,0.2c0,0.1-0.1,0.2-0.2,0.2h-0.6v0.1c0.1,0.1,0.1,0.2,0.1,0.3l-0.2,0.1h-0.6v0.2h0.1c0.2-0.1,0.3-0.1,0.4-0.1v0.1
		c0.2-0.2,0.5-0.2,0.6-0.2v0.1c0,0.1-0.8,0.4-2.5,0.8c-0.6,0.1-0.9,0.3-0.9,0.6h-0.4l-0.3-0.2c-0.2,0.2-0.6,0.4-1.1,0.4v0.1
		c0.1,0,0.4,0.1,0.7,0.4c0.1-0.1,0.2-0.1,0.3-0.1v0.1c0,0.1-0.1,0.2-0.3,0.3l-0.2-0.1c0,0.1-0.1,0.2-0.2,0.2h-0.6v-0.2H97v-0.1
		c0-0.1-0.1-0.2-0.4-0.3c0,0.1-0.1,0.2-0.2,0.2h-0.2v-0.3h-0.2V31l0.1,0.2l-0.2,0.1h-0.2v-0.2h-0.4v0.2l0.2-0.1h0.1v0.1
		c0,0.2-0.8,0.4-2.3,0.7c0,0.1,0.1,0.2,0.2,0.2c0.3-0.1,0.9-0.3,1.7-0.4h0.1V32c-0.1,0-0.2,0-0.4,0.1l0.1,0.2v0.1l-0.3-0.2h-0.1
		c-0.4,0.1-0.6,0.2-0.6,0.3h0.3v-0.2h0.3v0.3c-0.6,0.1-1.3,0.3-2,0.6c-0.1-0.1-0.2-0.1-0.3-0.1c0,0.2-0.1,0.2-0.2,0.2l-0.4-0.2
		l-0.2,0.1l-0.2-0.1l-1.5,0.6c-0.2-0.1-0.3-0.1-0.4-0.1c-0.5,0.3-0.8,0.5-0.8,0.7c-1.3,0.3-2.2,0.6-2.6,1l0.1,0.2v0.2
		c-0.1,0.2-0.3,0.3-0.7,0.3l-0.6-0.1c0,0.2-0.2,0.4-0.6,0.6L81.3,43l-5.6,13.8c-0.3,0.6-1.2,2.5-2.4,5.7c-1.6,3.2-2.4,5-2.4,5.5
		c-0.2,0.5-0.4,0.7-0.6,0.7h-0.1c-0.2,0-0.2-0.1-0.2-0.3l-0.6,0.3c0-0.4-0.2-0.6-0.7-0.7c0-0.2-0.2-0.4-0.7-0.6
		c0,0.1-0.1,0.2-0.3,0.3c0-0.1-0.1-0.4-0.4-0.8c-0.2,0.1-0.5,0.2-0.6,0.2h-0.1V67c0-0.2,0-0.3,0.1-0.4c-0.1-0.5-0.3-0.8-0.5-0.8
		c1-3.7,1.8-5.7,2.3-6.2c-0.1,0-0.2-0.1-0.2-0.2c0.2,0,0.5-0.4,0.8-1.2l0.2-0.1l-0.1-0.2v-0.4c1-1.6,2-3.9,3-6.7L72,50.5
		c0.6-1.1,1.2-2.6,1.9-4.6c0.4-0.3,0.9-1.5,1.6-3.7c0.3-0.3,0.8-1.3,1.2-2.9c0.2-0.3,0.3-0.6,0.3-0.9c-0.2,0.1-0.3,0.1-0.3,0.1
		c0-0.1,0-0.1-0.1-0.1c0,0.1-0.1,0.2-0.2,0.2h-0.1l-0.4-0.2h-0.1l-0.3,0.2c-0.1,0-0.2-0.1-0.2-0.3c-0.8,0-2,0.3-3.6,1l0.2,0.6
		c-1.3,0.5-2.6,0.9-3.9,1.3c-0.8,0.2-1.2,0.3-1.4,0.4h-0.1l-0.4-0.2H66l0.1,0.2l-0.2,0.1c0-0.2-0.1-0.2-0.2-0.2h-0.2l0.1,0.2v0.2
		l-7,2.2c-0.7,0-2.1,1.2-4.4,3.6c-7.7,7-13,10.8-15.9,11.6c-0.2,0-0.3,0-0.4,0.1c-0.8-0.1-1.6-0.6-2.4-1.3c-0.2-0.1-0.6-0.4-1.3-0.9
		c0.1,0,0.1,0,0.1-0.1c-0.2,0-0.2-0.1-0.2-0.2v-0.4c0.1-0.2,1.6-1,4.4-2.4c3.1-2.4,5.6-4.4,7.5-6.2v-0.1c-2.5,0.7-4.6,1.1-6.4,1.4
		c-0.1-0.1-0.3-0.1-0.4-0.1c0,0.2-0.2,0.3-0.6,0.4l-0.1-0.2c0.1,0,0.1,0,0.1-0.1c-0.5,0-1.3-0.5-2.2-1.5l-0.7-0.1h-0.4v-0.1l0.2-0.3
		V47c-0.3,0-0.6-0.2-0.9-0.7v-0.4c0.7-0.6,3-1.3,6.7-2.1c1.1-0.5,3.4-1.2,7-2.1c1.4-0.6,2.9-1.1,4.4-1.4c0-0.1,0.3-0.3,0.9-0.4v0.1
		c1.2-0.3,2.2-0.9,2.9-1.8c0.4,0,0.6-0.2,0.6-0.6c0.2,0,0.7-0.5,1.4-1.4c0.3,0,0.5-0.2,0.7-0.5c0.3-0.5,1.4-1.6,3.3-3.3l5.8-5.6
		c2.3-2.1,3.5-3.2,3.6-3.2c0.7-0.8,1.7-1.8,3.2-3c0.1,0.1,0.2,0.1,0.3,0.1c0.2-0.4,0.3-0.6,0.4-0.6c0,0.1,0,0.1,0.1,0.1
		c0-0.3,0.3-0.4,0.8-0.4l-0.1-0.2v-0.1c0-0.2,0.1-0.2,0.2-0.2c0,0.1,0,0.1,0.1,0.1c0.5-0.5,0.7-0.8,0.7-0.9l0.2,0.1h0.1
		c0-0.6,1.3-1.9,4-3.9c0.4-0.5,1.1-1.1,2.1-1.9C84.3,12.3,85,11.9,86.2,11.3z M83.7,20.3V20c-2.9,2.3-8.5,7.5-17,15.7h-0.1v0.2
		c6.5-1.9,10.7-3.2,12.5-3.8c0-0.1,0-0.1,0.1-0.1s0.1,0,0.1,0.1c0.3,0,0.9-1.3,1.8-3.9c1.1-2.6,1.6-4.1,1.6-4.3
		c-0.1,0-0.3,0.4-0.6,1.2H82c0-0.1,0-0.1-0.1-0.1c0.4-1.1,0.7-1.7,0.8-1.8l-0.1-0.2v-0.1c0.2-0.2,0.5-1,1-2.4L83.7,20.3v0.1
		c0,0.4-0.2,1.1-0.6,2v0.4c0.1,0,0.5-1.1,1.3-3.3h-0.1L83.7,20.3z M77.2,18.6L77.2,18.6c0.1,0.1,0,0.2-0.2,0.4v-0.1
		C76.9,18.7,77,18.6,77.2,18.6z M85.3,35.7h0.2c0.2,0,0.2-0.1,0.2-0.2v-0.1h-0.1C85.5,35.4,85.4,35.5,85.3,35.7z M87.9,33.4h-0.1
		l-0.2-0.1c0,0.1-0.2,0.3-0.6,0.4h-0.3l-0.4-0.4v0.1l0.1,0.2l-0.2,0.1c0-0.1-0.1-0.2-0.2-0.2h-0.1l0.1,0.2c-0.2,0-0.2,0.1-0.2,0.2
		v0.1l2.8-0.8c0-0.1-0.1-0.2-0.2-0.2L87.9,33.4z M88.6,33.3h0.2c0.2-0.1,0.3-0.1,0.4-0.1v-0.1h-0.4C88.7,33.1,88.6,33.2,88.6,33.3z
		 M89.2,33c0.1,0,0.2,0,0.3,0.1h0.2V33c-0.2,0-0.3-0.1-0.3-0.2C89.2,32.8,89.2,32.9,89.2,33z M89.5,33.4h0.3v-0.2h-0.1
		C89.6,33.2,89.5,33.3,89.5,33.4z M90.1,32.8c0,0.1,0.1,0.2,0.2,0.2l0.1-0.2H90.1z M92.1,32.3v0.1h0.3v-0.2
		C92.3,32.3,92.2,32.3,92.1,32.3z M92.7,32.2H93V32h-0.1C92.8,32,92.7,32.1,92.7,32.2z M93,32.6h0.1c0.1,0,0.2-0.1,0.2-0.2h-0.1
		C93.1,32.4,93,32.5,93,32.6z M97.4,27.8L97.3,28h0.1c0.1-0.1,0.2-0.1,0.3-0.1v-0.1H97.4z M102.4,28.8h0.3V29h-0.3V28.8z"/>
	<path class="st0" d="M120.9,11.3h0.2c0,0.4,0,0.6,0.1,0.6c0.3-0.2,0.5-0.2,0.8-0.2h0.5c1.7,1.2,2.5,2,2.7,2.4v0.2
		c-0.4,0.2-1.5,2.7-3.2,7.4c-3.2,7.9-9.6,19.1-19.4,33.8l-4.5,6.4h0.3c6.8-2.3,11.1-3.9,12.7-4.9c2.9-1.2,4.8-2.1,5.6-2.7l0.3,0.1
		l5.9-2.6l4-1.4c0,0.2,0.1,0.2,0.2,0.2c0-0.2,0.1-0.2,0.3-0.2h0.2v0.4h0.6c0-0.3,0.4-0.5,1.2-0.5v-0.1h-0.4V50l0.9-0.1l0.2,0.1
		l4.1-1.5v0.2c-2.6,1-4,1.7-4.2,1.9c4-1.6,6.2-2.4,6.5-2.4h0.5c0.2,0,0.2,0.1,0.2,0.3c-1.4,0.7-2.3,1.1-2.6,1.2v0.2l0.9-0.1
		c0,0.2,0.1,0.2,0.2,0.2c0.2-0.2,0.4-0.2,0.6-0.2l-0.1-0.3v-0.1l0.4,0.3h0.3l0.4-0.3h0.3v0.3h0.1c0.2,0,0.2-0.1,0.2-0.4h0.1
		c0,0.3,0.1,0.5,0.2,0.5c0.2-0.1,0.3-0.1,0.4-0.1v0.1c0,0.2-0.3,0.4-1,0.5l0.1,0.2c-1.3,0.9-2.5,1.5-3.8,2v0.1h0.1
		c0.8-0.4,1.8-0.8,2.8-1.1v0.2c-14.5,6.7-27.2,12-37.8,15.7c-2.5,0.7-4,1-4.4,1c-1.8,0-3-0.6-3.7-1.9l-1.9-1.3c0-0.2-0.3-0.5-0.9-1
		v-0.1c1.9-2.3,3.2-4.1,4-5.4c0.5-0.5,1.4-1.9,2.7-4c0.7-0.7,1-1.2,1-1.6h0.1l0.2,0.2v-0.2l-0.1-0.2l0.3-0.1c0,0.1,0,0.1,0.1,0.1
		c1.1-1.9,2.7-4.1,4.7-6.6h0.1v0.1c-0.1,0.2-0.1,0.3-0.1,0.4h0.3c0-0.2,0.3-0.6,0.8-1.3v-0.2h-0.1l-0.6,0.6v-0.2
		c2.3-3.5,4.2-6.8,5.9-10c0.2,0,0.6-0.8,1.4-2.4c0.3-0.1,0.9-1.1,1.9-3.2c0.9-1.4,1.3-2,1.4-2h0.1l0.3,0.1c1.8-2.6,3.6-6.4,5.5-11.3
		C119.3,13.2,120.2,11.3,120.9,11.3z M103.2,43.9c0,0.2-0.3,0.7-0.8,1.4v0.1c0.5-0.4,0.8-0.9,1-1.5H103.2z M103.4,43.7
		c0.4-0.3,1-1.2,1.8-2.8C104,42.5,103.4,43.5,103.4,43.7z M126.4,52.3h0.2c0.2,0,0.3-0.1,0.3-0.3h-0.3
		C126.5,52,126.4,52.1,126.4,52.3z M128.5,51.1c0,0.2,0.1,0.2,0.3,0.2l0.6-0.5h-0.3C128.9,51.1,128.7,51.1,128.5,51.1z M131.4,51.1
		v0.2c0.1,0,0.2,0.1,0.4,0.2v-0.2c0-0.2-0.1-0.2-0.2-0.2H131.4z M131.4,53.8h0.1c0.3-0.1,0.5-0.3,0.5-0.4h-0.1
		C131.6,53.6,131.4,53.7,131.4,53.8z M132.2,53.5h0.2c0.9-0.4,1.4-0.6,1.6-0.6v-0.2h-0.3C132.8,53,132.2,53.3,132.2,53.5z
		 M132.7,50.9h0.4v-0.3h-0.1C132.8,50.6,132.7,50.7,132.7,50.9z M133.4,50.3v0.2h0.4c0.2,0,0.2-0.1,0.2-0.2l0.2,0.1h0.3
		c0-0.1-0.1-0.3-0.4-0.4h-0.1C133.9,50.2,133.7,50.3,133.4,50.3z M134.5,49.9V50h0.2v0.4l-0.1,0.2h0.2c0.1,0,0.3-0.1,0.4-0.4
		l-0.6-0.4H134.5z M135.4,50v0.3h0.4c0-0.2-0.1-0.3-0.3-0.3H135.4z"/>
	<path class="st0" d="M159.4,11.3v0.1l0.2-0.1c0.9,0.3,2.2,1.3,3.8,3v0.6c-1.3,2.7-3.8,7.1-7.6,13c0,0.2,0.1,0.2,0.2,0.2
		c0-0.1,0.2-0.3,0.7-0.5c0,0.1,0,0.1,0.1,0.1l-0.1,0.2V28h0.1l0.4-0.2c0.2,0.1,0.3,0.1,0.4,0.1c0-0.1,0.9-0.5,2.7-1.2
		c1.9-0.7,3-1.3,3.4-1.8h0.1c0.1,0,0.1,0,0.1,0.1c1.7-0.7,3-1.3,3.9-2c0.5-0.2,1.1-0.5,1.9-0.7c0-0.1,0.2-0.3,0.7-0.7
		c-0.2-0.1-0.3-0.1-0.4-0.1v-0.1c0.5-0.5,1.6-0.9,3.2-1.4l-0.2,0.4v0.1c1.1-0.3,2.6-0.9,4.6-1.8l1.6-0.6c0,0.1,0.1,0.2,0.2,0.2
		l0.2-0.1c0.8,0.3,1.2,0.7,1.2,1.3c0.3,0,0.9,0.8,1.6,2.4v0.4c-0.4,0-2.3,0.8-5.7,2.5c-0.3,0-0.7,0.2-1.2,0.6h0.1
		c2.6-1.1,4.4-1.9,5.5-2.2v0.2c-2.5,0.9-4.8,2-6.7,3.2l-5.1,2.1c-1.3,0.8-4.2,2.2-8.7,4.3l-11.5,5.4v0.2c4.2,4.5,8.1,8.3,11.9,11.5
		c1.4,1,4.3,3.4,8.6,7.3c0.9,0.6,1.6,1.5,2.4,2.8c0.1,0,0.1,0,0.1,0.1l-0.2,0.6c-1.2,0-5.1-2.9-11.7-8.7c-1.8-1.2-4.3-3.5-7.6-6.8
		c0-0.1-1.6-1.9-4.7-5.2V40h-0.2c-8.4,13.4-14.5,22.8-18.1,28.2l-0.5,0.4l-0.2-0.1c-0.1,0.1-0.2,0.1-0.3,0.1
		c-0.2-0.1-0.3-0.1-0.4-0.1c0,0.1-0.2,0.3-0.5,0.5l-0.1-0.2l0.4-0.5v-0.2c-0.2,0-0.7-0.2-1.3-0.7c-0.2,0-0.5-0.2-0.8-0.7h-0.1
		c-0.1,0.1-0.3,0.1-0.5,0.1c-0.4-0.6-0.7-0.8-1-0.8v-0.4c1.4-2.3,2.6-4.1,3.8-5.4c-0.2,0-0.2-0.1-0.2-0.2l1.6-2.1
		c-0.1,0-0.1,0-0.1-0.1c0.3,0,0.6-0.5,0.8-1.6c0.1,0,2.6-4,7.7-12H138c-6.5,3.2-9.9,5.3-10.3,6.3c-0.1,0-0.3,0-0.7,0.1
		c0-0.2-0.3-0.3-1-0.4v-0.1l0.1-0.2c-0.3-0.2-0.5-0.5-0.5-1h-0.7c-0.1,0-0.3-0.3-0.6-0.8c-0.6,0-0.9-0.3-0.9-0.8
		c-0.3-0.2-0.5-0.4-0.5-0.6c0-0.4,1.1-1.3,3.3-2.7c6.6-3.5,11.2-5.9,13.8-7.1c1.8-0.9,2.9-1.5,3.4-1.9v-0.2h-0.1
		c-0.5,0.2-0.7,0.3-0.7,0.5h-0.1c-0.2,0-0.2-0.1-0.2-0.2c0.5-0.2,0.8-0.4,0.8-0.6c-0.6-0.5-1.3-1.4-2.2-2.8c-0.1,0-0.4-0.3-0.8-0.8
		c0.1,0,0.4-0.2,0.8-0.5l0.2,0.1c0.1-0.1,0.3-0.1,0.4-0.1c1,0.9,2.1,2,3.3,3.4h0.1l2.4-3.3c0.3-0.2,1-1.1,1.9-2.7
		c1.3-1.7,2.4-3.5,3.3-5.2c0.4-0.4,1.9-2.8,4.5-7.2v-0.4l-0.2,0.1v-0.2c1-1.3,1.7-2.2,2-2.7v-0.4L159.4,11.3z M152.4,36.2v0.1h0.1
		c0.2-0.1,0.3-0.1,0.4-0.1V36h-0.1C152.6,36.1,152.5,36.2,152.4,36.2z M153.4,35.7v0.1h0.4c0-0.2,0.2-0.3,0.6-0.3v-0.2
		C153.9,35.5,153.6,35.7,153.4,35.7z M154.5,35.1v0.1h0.2c0.2-0.1,0.3-0.1,0.4-0.1v-0.2H155C154.8,35,154.7,35.1,154.5,35.1z
		 M155.3,28.7V29c0.3-0.1,0.5-0.2,0.5-0.4v-0.1C155.6,28.6,155.4,28.7,155.3,28.7z M155.3,34.8v0.1h0.2c0.2-0.1,0.3-0.1,0.4-0.1
		v-0.2C155.6,34.7,155.4,34.8,155.3,34.8z M155.9,28.2c0,0.2,0.1,0.2,0.2,0.2h0.2c0-0.2-0.1-0.2-0.2-0.2H155.9z M156.1,17.3
		c0.1,0,0.3-0.4,0.8-1.2V16h-0.1C156.6,16,156.4,16.4,156.1,17.3z M156.1,34.4v0.1h0.2c1-0.5,1.4-0.8,1.4-0.8h-0.1
		C156.7,34.2,156.2,34.4,156.1,34.4z M157.9,33.6v0.1h0.4c0-0.2,0.2-0.3,0.6-0.4v-0.2C158.3,33.4,158,33.6,157.9,33.6z M159.7,32.6
		v0.1h0.2c0.8-0.4,1.2-0.6,1.2-0.7h-0.1C160.4,32.4,159.9,32.6,159.7,32.6z M161.9,31.8h0.1c1.2-0.6,1.9-1,2.1-1v-0.2H164
		C162.6,31.3,161.9,31.7,161.9,31.8z M164.2,30.5L164.2,30.5l0.2,0.1c1-0.4,1.6-0.7,1.6-0.8h-0.2C164.9,30.3,164.4,30.5,164.2,30.5z
		 M166.4,29.4v0.1h0.2c0.5-0.2,0.7-0.3,0.7-0.5h-0.1C166.9,29.3,166.6,29.4,166.4,29.4z M167.5,29.1h0.1c0.2,0,0.2-0.1,0.2-0.2h-0.1
		C167.6,28.9,167.5,29,167.5,29.1z M168,28.7v0.1h0.2c1.7-0.9,2.7-1.3,2.9-1.3v-0.2h-0.1L168,28.7z M171.3,27.3h0.2
		c0.4-0.3,1.1-0.6,2.1-1v-0.1h-0.2C172.1,26.8,171.4,27.2,171.3,27.3z M171.8,20.9v0.1h0.1c0.2-0.1,0.3-0.1,0.4-0.1v-0.1h-0.1
		C172,20.9,171.8,20.9,171.8,20.9z M173.6,22.7L173.6,22.7c0.2,0,0.3-0.1,0.3-0.2h-0.1C173.6,22.5,173.6,22.6,173.6,22.7z
		 M174.6,25.7v0.2h0.1c0.3-0.1,0.5-0.2,0.5-0.3H175C174.8,25.6,174.7,25.7,174.6,25.7z M175.3,25.6h0.4v-0.2h-0.1
		C175.4,25.4,175.3,25.4,175.3,25.6z"/>
	<path class="st0" d="M265.8,11.2l0.1,0.2l-0.1,0.8c0.6-0.4,1-0.6,1.2-0.6c0,0.1,0.1,0.2,0.3,0.4l-0.4,0.6v0.1
		c0.3,0,0.4,0.1,0.4,0.2c0.6-0.4,1-0.6,1.2-0.6c0,0.4,0.5,0.7,1.5,1v0.3c-0.3,0.7-2.8,4-7.6,9.7c-0.6,0.9-5.3,7.2-14.1,18.9
		c-5.7,8-10.4,14.1-14.1,18.4c-2.2,2.6-4,3.9-5.7,3.9c-1.1,0-2.8-0.7-4.8-2.1c-0.8-0.1-1.6-0.6-2.5-1.5l0.1-0.3
		c-0.3-0.9-0.7-2.9-1-6.1c0.2-0.6,0.3-1,0.3-1.1l-0.1-0.3l0.1-0.3l-0.1-0.3c0.2-0.3,0.3-0.6,0.3-0.8v-1.9c0-0.5,0.1-0.7,0.3-0.7
		l-0.2-0.3c0.3-1.4,0.5-2.2,0.7-2.5c-0.1-0.2-0.1-0.3-0.1-0.6c0.2-0.1,0.3-0.2,0.4-0.2c-0.2-0.3-0.3-0.6-0.3-0.8
		c0.5-1.3,0.7-1.9,0.7-2.1h-0.2c-1.1,1.3-6.3,7.9-15.5,19.9c-3,3.9-5,5.8-6.2,5.8h-0.7c-0.5,0-1.6-0.5-3.3-1.5
		c-1.8-0.6-3.1-1.5-3.9-2.6v-1.1c0-1.3,0.5-3.3,1.5-6c0-0.5,0.3-1.2,0.8-2h0.1c-0.2,0.7-0.3,1.1-0.3,1.3h0.3c0-0.9,0.5-2.3,1.4-4.3
		c-0.1-0.2-0.2-0.3-0.2-0.4c0.2,0,0.5-1,1-2.9l0.4-0.3l-0.1-0.7c0.1-0.2,0.1-0.3,0.1-0.4l-0.8,1.5l-0.1-0.3c0.7-2.4,1.4-4.4,2.1-6
		h0.3c0,0.2-0.1,0.4-0.2,0.6v0.1h0.2c0.1-0.6,0.4-1.2,1-1.8c-0.1-0.2-0.2-0.3-0.2-0.5c0.2,0,0.6-0.5,1.1-1.4
		c-0.1-0.2-0.1-0.3-0.1-0.4l0.2-0.2c0,0.1,0.1,0.2,0.2,0.2c0.2-1.2,0.5-2.5,0.8-3.8c-0.1,0-0.2,0-0.2-0.1c0.3,0,0.7-1.1,1.4-3.2
		c0.3,0,0.4-0.1,0.4-0.4c-0.1-0.2-0.1-0.3-0.1-0.4h0.1l0.3,0.2v-0.4l-0.3-0.4h0.2l0.3,0.2c0.3-0.7,0.4-1.1,0.4-1.4l-0.3,0.1h-0.1
		v-0.1c0.5-1.3,0.9-2,1.2-2.1c0-0.4,0.5-1.5,1.5-3.3c-0.1-0.2-0.2-0.3-0.2-0.6c0.2-0.2,0.5-0.9,1-2.1v-0.1l-0.2-0.4
		c0.6,0,1.3-1.9,2-5.7l0.4-0.3h0.3c0.2,0,0.3,0.1,0.3,0.3v0.3l-0.6,1.5l0.1,0.3c-0.2,0.3-0.3,0.6-0.3,0.8v0.2h0.2
		c0.5-1.8,0.8-2.8,1.1-2.8h0.3l0.8,0.1c0.2-0.1,0.4-0.1,0.7-0.1c1.5,0.7,2.2,1.1,2.2,1.2v0.7c-0.7,1.9-1.6,4.9-2.5,8.8
		c-1.6,5-4.7,14.2-9.4,27.6h0.2c0.4-0.1,1.5-1.3,3.3-3.7h0.1v0.1l-1.8,2.5v0.1c1.3-1.4,2.7-2.8,4.3-4.3c0-0.3,0.6-0.9,1.8-1.8v-0.6
		c1.1-1.3,2-2.5,2.5-3.4c0.5-0.5,1.6-1.9,3.2-4.4c0.1,0,0.5-0.5,1.2-1.4c3.9-4.2,5.8-6.8,5.8-7.7c0.6-0.6,1-0.8,1.1-0.8l2.6,0.8
		c0.2-0.1,0.3-0.2,0.4-0.2c0,0.2,0.6,0.5,1.8,0.8c0,0.1,0.5,0.5,1.4,1l0.2,0.7c-0.7,1-1.4,3.2-2.1,6.6c-1.1,6.7-1.9,11.7-2.4,15.1
		c0,0.1,0,0.2,0.1,0.2l-0.1,1.6v2.9c0.3-0.2,0.8-0.7,1.5-1.6v-0.2l-1,1l-0.2-0.3c1-1,1.8-2.1,2.5-3.3c0.2,0,0.6-0.4,1.4-1.2
		c0,0.1,0.1,0.2,0.2,0.2c0,0.1-0.3,0.5-0.8,1.1V54h0.3c1-1.4,1.7-2.1,2.2-2.1c0.8-0.7,1.6-2.1,2.4-4l1-1.3v-0.1h-0.1
		c-0.2,0.1-0.3,0.1-0.4,0.1v-0.1c0-0.2,0.1-0.3,0.3-0.3c0.1,0,0.2,0.1,0.2,0.2c0.3,0,0.9-0.7,1.9-2c0.9-0.9,1.5-1.8,1.8-2.5
		c1.4-2.1,2.6-3.5,3.6-4.3c0.2-0.1,0.8-0.8,1.6-2.1c-0.1-0.2-0.1-0.3-0.1-0.4l2.8-3.7c0.5,0,0.9-0.4,1.1-1.2
		c0.1-0.3,0.6-0.9,1.5-1.8c0-0.5,0.4-1,1.2-1.5c2.1-2.8,3.7-5.1,4.7-7.1c3-3.6,4.8-5.8,5.5-6.5c1.4-1.2,2.1-1.9,2.1-2.1h0.1
		c0.1,0,0.2,0,0.2,0.1l0.3-0.1h0.1l-1.2,1.7v0.1h0.1C264.7,11.8,265.4,11.2,265.8,11.2z M194.6,57.2v0.2h0.3c0-0.1,0.1-0.3,0.2-0.4
		h-0.2C194.7,56.9,194.6,57,194.6,57.2z M195.7,53.1l0.2,0.3l-0.3,0.1l0.1,0.3c-0.3,1-0.5,1.5-0.7,1.5l-0.2-0.3v-0.1
		C195.3,53.7,195.6,53.1,195.7,53.1z M196.4,50.1h0.3v0.6h-0.3V50.1z M198.4,45.4c0,0.3-0.2,0.9-0.6,1.7v0.3h0.1
		c0-0.2,0.2-0.8,0.7-2H198.4z M211,47.9h0.2c0-0.2,0.3-0.6,0.8-1.3v-0.1C211.9,46.5,211.5,47,211,47.9z M216.5,38l0.1,0.2l-0.3,0.2
		l-0.1-0.3L216.5,38z M221.3,36.6h0.3c0-0.1,0.2-0.5,0.7-1h-0.1C222,35.6,221.7,36,221.3,36.6z M228.6,56.4v0.1c0.1,0,0.4-0.3,0.8-1
		v-0.2C229.4,55.4,229.1,55.7,228.6,56.4z M230,54.4c0,0.2-0.1,0.4-0.4,0.7v0.2c0.2-0.3,0.4-0.4,0.5-0.4v-0.4H230z M234.9,48.1v0.2
		c-0.2,0.4-0.4,0.6-0.6,0.7v-0.3C234.3,48.5,234.5,48.3,234.9,48.1z M235.3,47.2h0.2v0.2c-0.2,0.4-0.4,0.7-0.6,0.7v-0.3
		C235,47.4,235.1,47.2,235.3,47.2z M236.9,45h0.1v0.1c-0.2,0.4-0.3,0.7-0.6,0.7v-0.4C236.5,45.3,236.6,45.2,236.9,45z M237.5,44.2
		h0.3v0.2c0,0.1-0.2,0.3-0.6,0.6v-0.4C237.2,44.3,237.3,44.2,237.5,44.2z M238.7,42.7h0.1v0.2c0,0.1-0.3,0.4-0.8,0.8v-0.1
		C238.4,43,238.6,42.7,238.7,42.7z M239.6,41.6h0.1v0.1c-0.3,0.3-0.4,0.5-0.4,0.7H239v-0.1C239.2,41.8,239.4,41.6,239.6,41.6z
		 M240.6,39.8h0.3V40c-0.7,1-1.1,1.6-1.2,1.6v-0.2L240.6,39.8z M242,38.2h0.1v0.2c0,0.1-0.2,0.3-0.6,0.6h-0.1v-0.2
		C241.5,38.7,241.7,38.5,242,38.2z M243,37v0.3c0,0.1-0.1,0.3-0.4,0.4h-0.2v-0.2C242.4,37.4,242.6,37.2,243,37z M246,32.7h0.2v0.2
		c-0.7,1.1-1.2,1.6-1.3,1.6v-0.3C245.5,33.2,245.9,32.7,246,32.7z M246.5,32.2h0.1v0.2c0,0.2-0.1,0.3-0.3,0.3h-0.1v-0.2
		C246.2,32.3,246.3,32.2,246.5,32.2z M246.9,31.6h0.1v0.2c0,0.2-0.1,0.3-0.3,0.3h-0.1v-0.2C246.6,31.7,246.7,31.6,246.9,31.6z
		 M248.5,29.4h0.2v0.2c0,0.1-0.2,0.3-0.7,0.7h-0.2C248.2,29.7,248.4,29.4,248.5,29.4z M249.1,28.7h0.2c0,0.2-0.1,0.3-0.3,0.3h-0.2
		C248.8,28.8,248.9,28.7,249.1,28.7z M249.6,28l0.2,0.2l-0.3,0.2l-0.2-0.3L249.6,28z M250.2,27h0.3v0.2c0,0.1-0.1,0.3-0.4,0.4h-0.1
		C250.1,27.4,250.2,27.2,250.2,27z M253.5,25.5h0.6c0-0.4,0.1-0.6,0.3-0.6c0,0.1,0,0.2,0.1,0.2l0.2-0.3v-0.1h-0.4
		C254.1,24.7,253.8,25,253.5,25.5z M261.5,12.5l0.1,0.3c-3.3,3.8-5.5,6.7-6.8,8.6h-0.3v-0.2l5.2-6.9C260,14.3,260.6,13.7,261.5,12.5
		z"/>
	<path class="st0" d="M298.5,10.9V11l-0.3,0.5v0.2h0.6c0.4-0.3,1.1-0.5,2.2-0.5c1.3,0.2,2,0.8,2,1.8v0.2c-0.1,0.2-0.2,0.4-0.2,0.5
		c0.5,0,0.7,0.2,0.7,0.5v0.2c-0.5,0.5-0.8,0.8-0.8,1l-0.3-0.2h-0.6c0,0.2,0.2,0.3,0.5,0.3v0.3l-0.7-0.2l-0.1,0.3
		c0.5,0,0.7,0.1,0.7,0.3c-0.2,0-0.5,0.3-1.1,0.8c-0.3,0-1.5,0.4-3.4,1.3v0.2h0.1c0.9-0.3,1.5-0.6,1.8-0.8l0.1,0.3
		c-0.7,0.4-2.5,1.2-5.2,2.4v0.2h0.1l0.7-0.2v0.3c-0.4,0-1.3,0.5-2.8,1.4c-1.4,0.3-3.9,1.4-7.5,3.2v1l0.3,0.5
		c-1.2,1.5-3.1,4.6-5.8,9.3c-0.9,1.1-2.3,3.3-4.3,6.8c-0.1,0-1.4,1.9-3.9,5.8h0.2c1.6-0.9,3.3-1.5,5.1-1.9v0.2l-0.1,0.3h0.1
		c0.4-0.2,0.8-0.4,1.1-0.6c0.1,0,0.1,0.1,0.1,0.2c1.5-0.9,2.9-1.4,4.2-1.5l0.8,0.2c0.6-0.4,1.5-0.7,2.7-0.8c0,0.2,0.2,0.3,0.6,0.3
		v0.3c-0.3,0-0.8,0.5-1.5,1.5c-3.4,1.3-5.1,2.1-5.2,2.4h0.2c0.1,0,1.4-0.5,4-1.6c0.2,0.2,0.5,0.3,0.7,0.3v0.3l-4.2,2.2l-0.4,0.5
		l-0.8-0.2l0.1,0.3c-0.3,0-0.7,0.2-1.2,0.6h-0.1v0.2c0.4,0,0.6,0.3,0.6,0.8H278l-0.4-0.3h-0.1v0.3h0.4c0,0.2-0.1,0.3-0.3,0.3h-0.3
		v-0.3H277l0.1,0.3v0.2c-0.2,0-0.4-0.1-0.6-0.2c-0.1,0-0.4,0.3-0.8,0.8h-0.1l-0.3-0.2c-0.5,0.7-0.9,1.1-1.3,1.1v0.2h0.1l1-0.3v0.3
		c-0.2,0-2.5,1.2-6.7,3.6v0.2h0.1c0.6-0.2,0.9-0.3,1-0.3v0.3c-0.4,0-2.1,1-5.1,3c-0.1,0.3-1,0.7-2.8,1.4c0,0.2-0.5,0.7-1.5,1.6
		c0,0.1-0.1,0.3-0.4,0.5h-0.1l0.2-0.6h-0.1c-1.1,1.6-1.8,2.4-2.2,2.4c-0.7,0.7-1.7,1.3-3,1.8c-0.8-0.2-1.2-0.5-1.2-0.8h-0.5
		c-0.9,0-1.8-0.9-2.7-2.6c-0.3-0.4-0.8-0.8-1.6-1.3c0-0.7-0.3-1.4-0.9-2.2v-0.6l0.7-1l0.9,0.2h1.4c3.6-2,5.4-3.1,5.5-3.4
		c0-0.5,1.3-2.4,4-6h0.1c0.1,0,0.2,0.1,0.2,0.2c0.3-0.2,0.5-0.3,0.5-0.5v-0.2l-0.4,0.3h-0.1v-0.2c0.4-1.1,1-1.6,1.9-1.6v-0.2
		c-0.2,0-0.3-0.1-0.3-0.3c1-0.6,2.2-2.1,3.5-4.5c0.1,0,1-1.3,2.8-3.8l-0.2-0.3c0.1-0.2,0.2-0.4,0.2-0.5l-0.7,0.6h-0.2
		c0.3-0.5,0.5-0.8,0.8-0.8c0.2,0.1,0.3,0.2,0.4,0.2c1.7-2.4,2.5-3.7,2.5-3.9c-0.2,0-0.2-0.1-0.2-0.3h0.1l0.3,0.2
		c0-0.2,0.1-0.3,0.2-0.3l-0.1-0.3v-0.3c0.3,0,0.5-0.1,0.5-0.2l-0.1-0.3c0.1-0.3,0.2-0.5,0.3-0.5h0.4c0.6-1.1,1-1.6,1.2-1.6v-0.2
		h-0.1c-1.7,1-4.2,2.2-7.5,3.7c-1.8,1.1-3,1.6-3.6,1.6H262c-0.6-0.3-1.2-0.9-1.6-1.8c0-0.5-0.7-1.4-2-2.7c0-0.4-0.2-1-0.6-1.8
		c0.1-0.4,0.5-0.9,1.4-1.4V29h0.2l0.4,0.3c0.6-0.7,2-1.5,4.3-2.4c0.7-0.4,2.1-1.1,4.2-1.9c0.6-0.4,2.8-1.5,6.4-3.4
		c3.1-1.7,9.1-4.6,18-8.5c1.1-0.5,2.7-1.1,4.8-1.6L298.5,10.9z M256.4,56.8h0.4c0.1,0,0.3-0.2,0.5-0.6h-0.1
		C256.7,56.4,256.4,56.6,256.4,56.8z M260.9,50.3h0.1c0.2,0,0.3-0.1,0.3-0.3h-0.1C261,50,260.9,50.2,260.9,50.3z M264.8,61.7h0.4
		c0,0.2-0.1,0.3-0.2,0.3h-0.2V61.7z M273.8,53.5l-0.3-0.2h-0.2c0,0.2-0.3,0.4-0.8,0.6l-0.2,0.5v0.2h0.1c0.5-0.4,0.9-0.6,1.1-0.6v0.2
		l1.3-1c-0.1-0.2-0.1-0.4-0.1-0.5h-0.1C274.1,53,273.9,53.3,273.8,53.5z M276.1,51.9l0.1,0.3c-0.9,0.1-1.3,0.2-1.3,0.5
		c0,0.2,0.1,0.3,0.4,0.3c0.5-0.3,1.1-0.6,1.9-1v-0.3H277L276.1,51.9z M278,51.6h0.3c0.1,0,0.3,0.2,0.4,0.5v0.2h-0.2
		c-0.2-0.2-0.4-0.3-0.5-0.3V51.6z M278.9,51.1h0.3c0.2,0,0.3,0.1,0.3,0.3v0.2l-0.7,0.2c-0.2-0.1-0.3-0.2-0.4-0.2v-0.3h0.5V51.1z
		 M279.8,51.1h0.1c0.2,0,0.3,0.1,0.3,0.3h-0.4V51.1z M292.8,22.3v0.3l-0.5,0.2v-0.3L292.8,22.3z M295.8,17.7v0.2h0.3
		c0.5-0.3,0.9-0.5,1.2-0.5v-0.3h-0.1C296.6,17.5,296.1,17.7,295.8,17.7z M297.5,16.9c0,0.2,0.1,0.3,0.2,0.3h0.2v-0.3H297.5z
		 M297.9,15h0.4v-0.3h-0.2C298,14.7,297.9,14.8,297.9,15z M298.1,16.8v0.3h0.5v-0.3H298.1z M299.5,15.8c0,0.2-0.2,0.3-0.5,0.3v0.2
		l0.6,0.2v-0.3h0.3l0.7,0.2C300.6,16,300.2,15.8,299.5,15.8z M300.5,15.7v0.2c0.3,0,0.4,0.1,0.4,0.3c0.2-0.1,0.3-0.2,0.4-0.2
		c0-0.2-0.1-0.3-0.3-0.3H300.5z"/>
	<path class="st0" d="M346,11.2c0.4,0.2,0.6,0.3,0.6,0.5c-0.2,0-0.2,0.1-0.2,0.2c0.7,0,1.3,0.3,1.5,0.8c0.1,0,0.3,0.1,0.4,0.3
		l-0.6,0.5h0.1l0.2-0.1c0.5,0.1,0.7,0.3,0.7,0.7c-0.3,0.2-1,0.5-2.1,0.7c-0.2-0.1-0.3-0.1-0.4-0.1v0.6c0.2-0.2,0.6-0.3,1.2-0.6
		c0.5,0.1,0.7,0.2,0.7,0.3c-0.3,0.3-0.9,0.5-1.9,0.7c0,0.1-0.7,0.3-2.2,0.6h-0.8c0,0.1-0.2,0.3-0.6,0.5h0.4v0.2l-0.7,0.1v0.1h0.8
		v0.2c-1.5,0.4-2.3,0.6-2.4,0.6v0.1h0.2l0.7-0.1l0.1,0.2v0.1c-1.8,0.3-4.6,0.9-8.2,1.9c-2.1,0.6-4.9,1.3-8.2,2.1l-0.1-0.2
		c0.6-0.2,1.5-0.5,2.7-0.7v-0.1h-0.4c-2.2,0.5-3.3,0.9-3.4,1c0.1,0.2,0.1,0.3,0.1,0.4c-0.4,0-0.9,0.7-1.4,2.2
		c-1.5,3.6-6.1,10-13.9,19.3c-3.8,4.5-9,11.3-15.5,20.5c-0.7,1.1-1.5,2.5-2.4,4l-0.4-0.4h-0.2l-0.4,0.2c-0.2-0.3-0.2-0.6-0.2-0.9
		c0.1,0,0.1,0,0.1-0.1c-0.4,0-0.6-0.3-0.6-1c0.1,0,0.1,0,0.1-0.1h-0.2l-0.4,0.2c-0.1-0.3-0.2-0.7-0.2-1.3c0.1,0,0.1,0,0.1-0.1
		l-0.2-0.1v0.5h-0.5c-0.2,0-0.2-0.1-0.2-0.2v-0.1l0.1-0.8c-0.2,0-0.2-0.1-0.2-0.4c0.2-1,0.8-2,1.6-3.2c0.4-0.8,0.9-1.3,1.6-1.6
		l0.2-0.4v-0.1H291c0-0.3,0.7-1.4,2.1-3.4l0.5-0.5v-0.1l-0.1-0.2l0.5-0.2l-0.1-0.2V54c0.9-1.2,1.5-1.8,1.9-1.9l0.1-0.2
		c-0.1-0.1-0.1-0.3-0.1-0.4c0.3,0,0.8-0.4,1.3-1.2c-0.1-0.1-0.1-0.3-0.1-0.5h0.2l0.2,0.1c0-0.1,0.7-1,2.1-2.7l3.1-4.2l-0.1-0.2
		c1.4-1.9,2.8-3.6,4.2-5.1c0.2,0,1.1-0.8,2.6-2.5l0.6-0.1v-0.1l-0.2-0.4c0.9-1.3,1.4-1.9,1.5-1.9c0.2,0.1,0.3,0.1,0.4,0.1
		c0-0.3,0.6-1.2,1.8-2.6l-0.1-0.2c0.4-0.6,0.9-1.1,1.4-1.5c-0.1-0.2-0.1-0.3-0.1-0.4c0.1,0,0.5-0.5,1.4-1.4l0.1,0.2
		c-0.1,0-0.4,0.3-0.8,1h0.1c0.3-0.1,0.9-1.1,2-3V25c-0.2,0-0.3-0.1-0.3-0.4h-0.1c-0.2,0.2-1,0.3-2.5,0.6c-4.4,1.4-9.1,2.7-14,3.9
		c-1.7,0.7-3.9,1.3-6.7,2c-0.1-0.3-0.2-0.5-0.4-0.5l-0.6,0.1c0-0.1,0-0.1-0.1-0.1l0.1-0.6c-0.4-0.7-0.7-1-0.8-1l-0.4-0.4V28
		c-0.3,0-0.9-0.7-1.5-2c-0.2,0-0.2-0.1-0.2-0.2c0.4-0.3,2.1-0.8,5-1.5c4.4-1.6,12.3-3.7,23.6-6.5C334.9,13.4,344.1,11.2,346,11.2z
		 M312,32.4h0.1c0.1,0,0.3-0.2,0.5-0.5v-0.1C312.4,31.8,312.2,32,312,32.4z M312.9,31.3v0.1c0.1-0.1,0.2-0.1,0.3-0.1v-0.2h-0.1
		C312.9,31.1,312.9,31.2,312.9,31.3z M328.1,21.3v0.1h0.2c0.2-0.2,0.4-0.2,0.6-0.2v-0.1h-0.1C328.6,21.3,328.4,21.3,328.1,21.3z
		 M331,20.5l-0.1,0.2h0.4C331.2,20.6,331.1,20.5,331,20.5z M333.5,19.9v0.1h0.4c0.1-0.1,0.3-0.1,0.5-0.1v-0.1h-0.1L333.5,19.9z
		 M335,19.6v0.1h0.4c0.3-0.2,0.6-0.2,0.8-0.2v-0.1h-0.4C335.5,19.5,335.3,19.6,335,19.6z M336.3,19.2v0.1h0.5v-0.1H336.3z M337.1,19
		L337.1,19l0.2,0.1l3.2-0.7v-0.1h-0.4C338.5,18.8,337.5,19,337.1,19z M341.4,16.3v0.2h0.1c0.2,0,0.2-0.1,0.2-0.2H341.4z M342,16.2
		v0.1h0.1c0.4-0.1,0.8-0.1,1.1-0.1v-0.1c0-0.1-0.1-0.2-0.4-0.4h-0.1C342.4,16,342.2,16.2,342,16.2z M343.1,15.5v0.1
		c0,0.1,0.2,0.3,0.6,0.5c0.2-0.1,0.3-0.1,0.4-0.1l-0.2-0.4h0.2l0.8,0.2c0.2-0.1,0.3-0.1,0.4-0.1v-0.1h-0.4v-0.1
		c0-0.2,0.2-0.2,0.6-0.2V15C344.7,15.1,343.9,15.2,343.1,15.5z M343.2,16.7h0.3v0.2h-0.1C343.3,16.9,343.2,16.8,343.2,16.7z
		 M345.4,15.3v0.2h0.6v-0.2H345.4z"/>
	<path class="st0" d="M371,10.3c1.9,0.5,2.9,1.3,2.9,2.3c1.7,3,2.5,5,2.5,6.2c-0.2,1.5-0.3,2.4-0.3,2.7c0.1,0,0.5-0.2,1.2-0.5
		c0.1,0.1,0.4,0.2,0.8,0.2c0-0.2,0.5-0.4,1.4-0.4v0.4l0.7-0.2v0.2c0.1,0,0.2-0.1,0.2-0.2l1,0.2h0.3v0.3l-0.4,0.7
		c0.1,0.2,0.1,0.4,0.1,0.5c-1.6,1-4,2.1-7.1,3.5l-0.2,0.3v0.2c4.2-1.9,6.8-3.2,7.9-3.8l0.2,0.4c-0.6,1.3-2.9,2.7-7,4.3v0.2
		c0.1,0.2,0.1,0.4,0.1,0.5h-0.3l-0.4-0.3h-0.3l0.2,0.3c-0.1,0.2-0.2,0.4-0.2,0.5H374l-0.7-0.2c0,0.2-0.2,0.5-0.6,0.8
		c0.1,0,0.2,0.1,0.4,0.2c0.2-0.1,0.4-0.2,0.4-0.2c0,0.1,0.1,0.2,0.2,0.2l1.3-1l0.3,0.2c0.5-0.3,0.8-0.5,1-0.5v0.2
		c-0.1,0.3-1.1,0.8-2.9,1.6c0,0.2,0.1,0.4,0.4,0.4v0.3c-1.9,0.6-2.8,1.4-2.8,2.3l-0.3,0.5c0.1,0.2,0.2,0.4,0.2,0.5
		c-0.3,0.2-2,2.8-5,8c-3.1,5-5.8,9.6-8,13.6c-0.8,1.5-1.7,2.5-2.5,2.8c-1.6,3.2-2.8,4.9-3.6,5v0.3c0.2,0,0.3,0.1,0.3,0.2
		c0,0.2-0.7,1-2,2.5c-1-1.3-1.8-2-2.3-2H347l0.1-0.8l-1.3-1.3c-0.3,0-0.4-0.2-0.4-0.7c0.6-1.5,3.3-6.1,8.2-13.8
		c0-0.5,1.2-2.6,3.6-6.2l0.7-1.4V40l-4.1,1.7c0-0.1-0.1-0.2-0.2-0.2c-0.1,0.5-4.4,2.6-12.7,6.2c-0.5,0.3-1.4,0.8-2.8,1.5
		c-2.6,4.6-4.4,7.6-5.4,9c-1.3,2.1-2,3.2-2.2,3.2v-0.2c0.3-0.4,0.4-0.8,0.4-1h-0.3c-0.7,1.4-1.5,2.9-2.6,4.3l0.1,0.3v0.4h-0.1
		l-0.3-0.2c-0.7,0.9-2.1,2.2-4.1,3.7h-0.2c-0.4-0.3-0.8-0.6-1.3-0.8l0.2-0.3c0-0.1-0.5-0.6-1.6-1.3l-0.9,0.2c-0.2,0-0.3-0.1-0.3-0.4
		v-0.2l0.3-0.5c-0.6-0.3-1-0.6-1-0.8V64c-0.2,0-0.3-0.1-0.3-0.3c0.8-0.7,2.3-3,4.7-6.8v-0.2c-5.3,2.6-8.5,4.1-9.5,4.4
		c-0.3-0.3-0.6-0.5-0.9-0.5c-0.5-0.5-1-1.1-1.6-2c-0.9-1-1.4-1.5-1.6-1.5c-0.3,0-0.4-0.1-0.4-0.4l0.2-0.3c-0.5-0.4-0.8-0.8-1-1.3
		v-0.8c1-0.6,2.9-1.6,5.7-2.8c2.9-1.5,4.4-2.3,4.7-2.3c2.7-1.7,7-4,12.8-6.7c0.8-0.1,1.9-1.6,3.5-4.6c4.7-7.9,7.5-12.5,8.4-13.8h0.3
		v0.2l-0.7,1.3v0.2c0.8-1,2.3-3.6,4.4-7.8c0.4-0.3,1-1.5,1.8-3.5l0.3-0.2c1.8,0,3.5,2.2,5,6.5v0.3c-3.3,6.3-5.7,10.5-7.1,12.8
		c-0.4,0.7-0.6,1.1-0.6,1.3h0.2c0.5-0.4,2.2-1.2,5-2.3c9.1-4.4,13.7-6.6,13.8-6.6c0.3-0.3,0.8-1.3,1.6-3c0.1,0,0.5-0.5,1-1.4h0.3
		l-0.2-0.8l0.3-0.2c0,0.1,0.1,0.2,0.2,0.2c0-0.2,0.4-1.1,1.2-2.6c0.4-1.1,0.7-2.3,1-3.5c-0.2,0-0.3-0.1-0.3-0.4v-0.3
		c0.2-0.2,0.3-0.8,0.4-1.7l-0.4-2C370.9,10.4,371,10.4,371,10.3z M331.1,59.8V60c0.1,0,0.3-0.2,0.4-0.5v-0.2
		C331.4,59.3,331.2,59.5,331.1,59.8z M336.1,37.7c0.1,0,0.3-0.3,0.6-0.8v-0.2C336.2,36.9,336.1,37.3,336.1,37.7z M338.9,48h0.2
		c0.2,0,0.3-0.1,0.3-0.3h-0.1C339,47.7,338.9,47.8,338.9,48z M340.5,47v0.2h0.2c1.9-0.8,2.9-1.3,2.9-1.5h-0.2
		C341.6,46.6,340.7,47,340.5,47z M342.9,26.1v0.2c0.2,0,0.3-0.1,0.3-0.4v-0.2C343,25.8,342.9,25.9,342.9,26.1z M345.9,19.9l0.2,0.3
		c-0.1,0-0.3,0.3-0.9,1H345v-0.2C345.6,20.3,345.8,19.9,345.9,19.9z M347.7,43.7v0.2h0.2c0.2-0.1,0.3-0.2,0.6-0.2v-0.2h-0.3
		C347.9,43.7,347.8,43.7,347.7,43.7z M348.7,43.2v0.4c0.3-0.2,0.6-0.4,0.8-0.4V43h-0.3C348.9,43.1,348.8,43.2,348.7,43.2z M349.6,43
		h0.2c0.2,0,0.3-0.1,0.3-0.3h-0.1C349.7,42.7,349.6,42.8,349.6,43z M350.2,42.6v0.2h0.3c0.2-0.1,0.3-0.2,0.4-0.2v-0.2h-0.2
		C350.6,42.5,350.4,42.6,350.2,42.6z M351.8,42h0.3c0.2,0,0.3-0.1,0.3-0.3H352C351.9,41.7,351.8,41.8,351.8,42z M352.5,41.7h0.2
		c1-0.4,1.5-0.7,1.8-1h-0.3C353,41.2,352.5,41.6,352.5,41.7z M354.5,40.6v0.2h0.3c1.3-0.7,2.1-1,2.4-1v-0.2h-0.6
		C355.4,40.2,354.7,40.6,354.5,40.6z M355.6,35h0.1c0.4-0.2,0.9-0.5,1.6-0.6V34C356.1,34.5,355.6,34.9,355.6,35z M357.9,39.2h0.2
		c0.4-0.2,0.6-0.3,0.6-0.5h-0.1C358.1,38.9,357.9,39,357.9,39.2z M359.2,33v0.2h0.7c1-0.6,1.7-1,2-1V32h-0.4
		C361,32.4,360.2,32.7,359.2,33z M372.4,30.6v0.2h0.2c0.2-0.1,0.3-0.2,0.4-0.2v-0.3h-0.3C372.5,30.3,372.4,30.4,372.4,30.6z
		 M376.8,27c0,0.3-0.4,0.5-1.2,0.7v-0.3C376.2,27.2,376.6,27,376.8,27z M377.1,26.7h0.3V27h-0.6C376.8,26.8,376.9,26.7,377.1,26.7z"
		/>
	<path class="st0" d="M417.3,11.4c0.5,0.1,0.8,0.2,0.8,0.4c0.2-0.1,0.3-0.1,0.4-0.1c1.4,0.5,2.5,1.3,3.4,2.5c-1.5,1.6-2.9,3.6-4,6.1
		c-12.3,19.9-18.4,30.2-18.4,31c-2.3,5.2-3.4,8.7-3.4,10.4v0.4c0,0.1,0,0.2-0.1,0.2c0,0.1,0,0.1,0.1,0.1c0,0.1,0,0.2-0.1,0.4
		c0.1,1,0.2,1.6,0.4,1.6c1.3-0.2,4.1-1.9,8.2-4.9c0.2,0.1,0.3,0.1,0.4,0.1l0.2-0.4c-0.1-0.2-0.1-0.3-0.1-0.4
		c1.6-1.3,3.1-2.9,4.5-4.8c3.4-3.2,5.6-5.6,6.9-7.2h0.6v-0.1h-0.3v-0.3c0.1,0,0.2,0,0.5-0.1c0,0.1,0.1,0.3,0.4,0.4
		c2-2.2,4.2-4.8,6.5-7.8c0.8-0.9,1.5-1.9,2.2-3h-0.1c-0.2,0.4-0.4,0.6-0.5,0.6c0-0.1,0-0.1-0.1-0.1c0.1-0.3,0.9-1.4,2.6-3.2h0.1
		l-1.3,1.9h0.1c2.2-2.6,5.8-7,10.7-13.1c1.2-1.7,2-2.7,2.5-3v0.2l-5.2,7.1v0.1c0.4-0.1,0.8-0.4,1-0.9c0.2,0,1.1-0.9,2.7-2.8l0.5-0.4
		l0.1,0.3c-0.1,0.1-0.1,0.3-0.1,0.5h0.1c0.8-0.6,1.4-1.1,1.6-1.7v-0.2h-0.2l-0.5,0.4h-0.1c-0.2,0-0.3-0.1-0.3-0.2l1.9-2.4h0.1
		c0.2,0,0.3,0.1,0.3,0.3c0.8-0.3,1.2-0.7,1.3-1.1c1.3-1.4,2.1-2.1,2.5-2.1c0.1,0.2,0.2,0.3,0.2,0.6c0.3-0.2,0.5-0.3,0.6-0.3l0.2,0.3
		v0.1c-0.3,0-0.4,0.1-0.4,0.3c0.1,0,0.2,0,0.4,0.1c0-0.3,0.2-0.4,0.5-0.4v0.1c-0.6,1.4-2.2,3.9-5,7.3c-1.2,1.9-5.5,7.3-12.8,16.3
		c-4.1,5.4-9.9,12-17.3,19.8c-5.8,5.2-9.6,7.8-11.6,7.8c0,0.1-0.4,0.2-1.2,0.4h-2.4c-2.7-0.9-4.1-1.7-4.1-2.5
		c-1-0.3-1.8-0.9-2.4-1.8c-0.5-1.4-0.8-2.2-0.8-2.5c0.1-1.1,0.2-1.7,0.3-1.8c-0.1-0.2-0.2-0.3-0.2-0.5c0.1,0,0.4-1,0.8-2.9l0.3-0.2
		c0.1,0.2,0.1,0.3,0.1,0.4c-0.2,0.3-0.3,0.5-0.3,0.7v0.1h0.2c1.1-3.9,3.8-9.7,8.2-17.2c1.1-2,4.3-7.3,9.6-16c0-0.1,1.1-2,3.4-5.8
		v-0.3h-0.2V18c1-2.3,1.6-3.4,2-3.4v0.2c1.3-1.8,2.3-3,2.8-3.4H417.3z M394.3,52.1c0,0.1-0.1,0.3-0.3,0.5v0.1h0.3
		c0-0.2,0-0.4,0.1-0.5v-0.1H394.3z M394.7,51.3v0.1h0.1c1.2-2.7,2.1-4.2,2.5-4.8c-0.1-0.2-0.1-0.3-0.1-0.4l0.5-0.5
		c-0.1-0.2-0.2-0.3-0.2-0.4c-0.3,0-1,1-1.8,3c-0.4,0.8-0.7,1.7-0.9,2.6C394.8,51,394.7,51.1,394.7,51.3z M397.8,44.7
		c0,0.1-0.1,0.2-0.2,0.4h0.2c0.2,0,0.2-0.1,0.2-0.3L397.8,44.7z M398.7,43.4h0.1c0.1,0,0.4-0.5,0.9-1.3h-0.1
		C399.3,42.3,399,42.7,398.7,43.4z M399.1,39.8h0.2v0.4h-0.2V39.8z M403.2,33.2v0.1c0,0.2-0.1,0.3-0.2,0.3h-0.2
		C402.8,33.5,402.9,33.3,403.2,33.2z M403.6,60.6v0.1c0.2-0.1,0.3-0.1,0.4-0.1v-0.3h-0.1C403.7,60.3,403.6,60.4,403.6,60.6z
		 M405.9,31.2v0.2c0,0.2,0.1,0.2,0.2,0.2l0.1-0.2v-0.2H405.9z M406.2,30.8v0.2c0.9-0.8,1.4-1.5,1.4-2c1.1-1.6,1.7-2.6,1.7-2.8h-0.1
		C408.7,26.8,407.7,28.3,406.2,30.8z M412.2,18.4v0.1c-0.1,0.2-0.1,0.3-0.1,0.4h-0.3v-0.1C411.8,18.7,411.9,18.6,412.2,18.4z
		 M417.5,48.1v0.2c0,0,0.4-0.4,1-1.2v-0.2C418.4,47.1,418.1,47.4,417.5,48.1z M419,46.3l-0.4,0.6v0.1c0.2,0,0.4-0.3,0.6-0.7H419z
		 M419.7,45.6h0.2c0-0.2,0.3-0.5,0.8-0.8c0-0.1,0-0.2,0.1-0.4h-0.1C420.2,44.9,419.8,45.3,419.7,45.6z M421,44v0.2h0.2l1.9-2.4h-0.3
		C422.2,42.5,421.6,43.2,421,44z M424.1,40.4c0,0.2-0.1,0.4-0.4,0.5h-0.1V41h0.2l0.4-0.5v-0.1H424.1z M424.9,39.3v0.1h0.2
		c0-0.1,0.4-0.6,1.1-1.4v-0.2C426.1,37.7,425.6,38.2,424.9,39.3z M428.7,34.5v0.1c0.2,0,0.2-0.1,0.2-0.2v-0.1
		C428.8,34.3,428.7,34.4,428.7,34.5z M429.2,32.3v0.1c0,0.2-0.1,0.3-0.3,0.3v-0.1C429,32.4,429.1,32.3,429.2,32.3z M429.5,33.6v0.1
		c0.7-0.7,1.3-1.2,1.7-1.4c0.2-0.6,0.9-1.5,2.3-2.6l2.1-2.9v-0.1c-0.7,0-2,1.4-3.8,4.2L429.5,33.6z M439,23.7v0.1
		c0.2-0.1,0.3-0.1,0.4-0.1v-0.4C439.3,23.3,439.2,23.4,439,23.7z"/>
	<path class="st0" d="M476.1,11.1h0.2c1.8,0.9,2.9,1.7,3.3,2.5l1.4,2.5v0.1c0,0.4-0.8,0.6-2.4,0.6h-0.4l-0.7-0.1
		c-1.4,0.2-4.2,0.8-8.2,2c-5.4,1.7-11,4.4-16.6,8c-2.7,1.8-5.3,3.9-7.8,6.4c-1.9,2.1-2.8,3.4-2.8,3.8h0.6c0.2,0,0.4,0,0.4,0.1
		l0.6-0.1h1.2c3.9-0.5,5.8-0.8,5.8-1v-0.1h0.2l0.2,0.1c0-0.5,1.7-0.9,5.2-1.1c0-0.2,0.1-0.2,0.3-0.2c0.1,0,0.1,0,0.1,0.1l0.2-0.1
		c0.2,0.1,0.3,0.1,0.4,0.1c0-0.1,0.1-0.2,0.4-0.4h0.4l0.3,0.1c0-0.2,0.1-0.4,0.4-0.4c0.2,0.1,0.3,0.1,0.4,0.1c0-0.3,2.4-0.7,7.3-1.1
		c0-0.1,0-0.1,0.1-0.1s0.1,0,0.1,0.1c0.9-0.2,2.3-0.2,4.2-0.2h0.1l0.6-0.1v0.1c0.1,0,0.1,0,0.1-0.1c5.1,0,8.6,1.6,10.2,4.8
		c0.2,0.1,0.8,1.1,1.8,3c0,0.1,0,0.1-0.1,0.1l0.1,0.2V41c0,2.6-5.2,6.7-15.6,12.3c-11.1,5.8-21.9,10.9-32.5,15.3l-0.5,0.1
		c0-0.4-0.4-0.7-1.1-1l-0.1-0.2v-0.1c0-0.1,0-0.1,0.1-0.1c0-0.2-0.3-0.7-0.8-1.5c0-0.3-0.2-0.6-0.6-0.8v-0.4c-0.2,0-0.4-0.1-0.4-0.2
		c0.3,0,0.5-0.1,0.5-0.4h0.2l0.3,0.1l1-0.7c0.2,0.1,0.3,0.1,0.4,0.1l-0.1-0.3c0.1,0,0.1,0,0.1-0.1l0.3,0.1c1.3-0.5,2-0.9,2-1.3h0.1
		l0.2,0.1c0.1-0.2,1.2-0.8,3.2-1.8h0.1c0.1,0,0.1,0,0.1,0.1l2.6-1h0.2v-0.1l-0.1-0.2c0.3-0.2,0.5-0.2,0.8-0.2h0.6v-0.3h-0.1
		l-0.2,0.2v-0.2c0-0.1,0.5-0.3,1.5-0.6c0-0.2,0.4-0.4,1.1-0.5c0-0.3,0.3-0.5,1-0.8h1c0-0.2,0.8-0.6,2.3-1.1l3.4-1.9
		c0.7-0.3,1.1-0.5,1.1-0.7l0.2,0.1h0.1v-0.1h-0.2v-0.1c0.1-0.1,0.7-0.5,1.8-1.1v-0.2h-0.2c0,0.2-0.1,0.4-0.4,0.4l-0.1-0.2
		c1.9-1.1,3.1-1.7,3.4-1.7v0.1c0,0.2-0.1,0.2-0.4,0.2v0.1h0.1c0.5-0.2,0.7-0.3,0.7-0.5h-0.2v-0.1c0.5-0.4,1.4-0.9,3-1.7
		c0-0.1,0.4-0.4,1.1-0.8l0.2,0.1c0.2-0.1,0.3-0.1,0.4-0.1v0.2h-0.2v0.2h0.1c0.6,0,1.6-0.6,3.1-1.9h-0.2c0,0.2-0.3,0.3-0.8,0.4
		c-0.1,0.2-0.5,0.5-1.5,1l-0.1-0.2c1.6-1.1,2.7-1.7,3.4-2c0-0.4,0.5-0.7,1.6-1c0.5-0.4,0.9-0.6,1.1-0.6c-0.3,0.4-1,0.9-2.1,1.5v0.1
		h0.2c1.4-0.5,2.7-1.5,4.1-2.8h-0.2c-1,0.7-1.7,1.1-2,1.1c1.3-1,2.9-2.4,4.8-4.2v-0.1c-0.4,0-1.6,0-3.8-0.1c-0.2,0-0.8,0.1-1.8,0.2
		c-0.1,0-0.1,0-0.1-0.1c-3.8,0.4-10,1.3-18.5,2.7c-0.7,0-1.5,0.1-2.6,0.2v-0.1c-0.4,0.2-1.1,0.2-2.2,0.2h-2.8
		c-3.1,0-5.1-1.2-6.2-3.7c0-0.6-0.4-1.3-1.1-1.9c-0.2-0.8-0.4-1.3-0.4-1.4v-0.3c0.5-0.3,0.8-0.9,1.1-1.8c1.1-1.4,2-2.4,2.7-3.1
		c3.8-3.7,6.3-5.8,7.5-6.2L452,21c0-0.4,0.1-0.6,0.4-0.6l0.1,0.2v0.2h-0.4v0.1h0.2c0.7-0.5,2.1-1.3,4.3-2.2c0-0.2,0.3-0.4,1-0.6
		v-0.4l-0.6,0.2l-0.1-0.2c0.7-0.4,1.2-0.8,1.5-1.2l3.8-1.6h0.2c0.1,0,0.1,0,0.1,0.1l0.3-0.1h0.2v0.1l-0.2,0.4
		c0.4,0.2,0.7,0.2,0.8,0.2c0-0.2,0.5-0.5,1.5-0.8v-0.1c-0.2,0-0.4-0.1-0.4-0.3v-0.2c0-0.3,1.8-0.9,5.5-1.8
		C473.4,11.5,475.3,11.1,476.1,11.1z M435.5,62.2h0.1v0.1c0,0.2-0.1,0.2-0.2,0.2h-0.2C435.2,62.4,435.3,62.3,435.5,62.2z
		 M436.9,62.8h0.2c0.3-0.1,0.5-0.2,0.5-0.4h-0.3C437.1,62.5,436.9,62.7,436.9,62.8z M438.3,31.9h0.2V32c0,0.2-0.1,0.2-0.2,0.2V31.9z
		 M439,31.2h0.1v0.1c0,0.1-0.1,0.3-0.4,0.4l-0.1-0.2L439,31.2z M447.4,56h0.5c-1,0.6-2.5,1.3-4.6,2.2l-0.1-0.2L447.4,56z
		 M444.7,27.4l0.2,0.1l0.2-0.5H445C444.9,27,444.8,27.1,444.7,27.4z M445.3,26.8h0.4v-0.2h-0.1C445.3,26.6,445.3,26.7,445.3,26.8z
		 M448.8,58h0.1c0.2,0,0.2-0.1,0.2-0.2h-0.1C448.9,57.8,448.8,57.8,448.8,58z M449.3,23.9h0.2c0.2,0,0.2-0.1,0.2-0.3v-0.1
		C449.5,23.7,449.3,23.8,449.3,23.9z M451.4,35.7v0.1h0.4v-0.2C451.6,35.7,451.5,35.7,451.4,35.7z M456.2,51.8v0.1
		c0,0.2-0.2,0.3-0.6,0.4l-0.1-0.3C455.7,51.9,456,51.8,456.2,51.8z M457.6,34.6l-0.1,0.3h0.1c0.2-0.1,0.3-0.2,0.4-0.2v-0.1H457.6z
		 M461.8,49.4h0.2c0.2,0,0.2-0.1,0.2-0.2H462C461.8,49.2,461.8,49.3,461.8,49.4z M462.6,48.7l0.3,0.1h0.1c0.2,0,0.2-0.1,0.2-0.2
		v-0.1h-0.4C462.7,48.5,462.6,48.6,462.6,48.7z M464.2,47.9l0.3,0.1c0.1,0,0.2-0.1,0.4-0.4h-0.4C464.3,47.7,464.2,47.8,464.2,47.9z
		 M464.3,14.3h0.4v0.3h-0.4V14.3z M468.5,45.5h0.1c0.2,0,0.2-0.1,0.2-0.2h-0.1C468.6,45.3,468.5,45.4,468.5,45.5z"/>
</g>
</svg>
