<?xml version="1.0" encoding="utf-8"?>
<!-- Generator: Adobe Illustrator 19.0.1, SVG Export Plug-In . SVG Version: 6.00 Build 0)  -->
<svg version="1.1" id="Layer_1" xmlns="http://www.w3.org/2000/svg" xmlns:xlink="http://www.w3.org/1999/xlink" x="0px" y="0px"
	 viewBox="0 0 417.6 93.9" style="enable-background:new 0 0 417.6 93.9;" xml:space="preserve">
<style type="text/css">
	.st0{fill:#FFFFFF;}
</style>
<g>
	<path class="st0" d="M95.2,0c0.6,0.2,0.9,0.5,0.9,0.7c-0.2,0.1-0.4,0.2-0.4,0.4c1.2,0,2.1,0.5,2.5,1.4c0.2,0,0.4,0.2,0.6,0.6
		l-1,0.7h0.2l0.4-0.2c0.8,0.2,1.1,0.6,1.1,1.1c-0.4,0.4-1.6,0.8-3.5,1.1c-0.2-0.1-0.4-0.2-0.6-0.2v1c0.4-0.3,1-0.6,1.9-1
		c0.8,0.1,1.1,0.3,1.1,0.6c-0.4,0.4-1.4,0.8-3.1,1.1c0,0.2-1.2,0.5-3.6,1h-1.3c0,0.2-0.3,0.4-1,0.8h0.6v0.4l-1.1,0.2V10h1.3v0.4
		c-2.4,0.6-3.7,1-3.8,1v0.2H87l1.1-0.2l0.2,0.4v0.2c-3,0.5-7.4,1.5-13.4,3.1c-3.5,1-8,2.2-13.4,3.4l-0.2-0.4
		c0.9-0.4,2.4-0.8,4.4-1.2v-0.2h-0.6c-3.6,0.9-5.4,1.4-5.6,1.5c0.1,0.2,0.2,0.4,0.2,0.6c-0.6,0-1.4,1.2-2.3,3.6
		c-2.5,5.9-10,16.4-22.6,31.5c-6.2,7.4-14.7,18.5-25.4,33.4c-1.2,1.8-2.5,4-3.8,6.5l-0.8-0.6H4.4l-0.6,0.4c-0.2-0.5-0.4-1-0.4-1.5
		c0.1,0,0.2-0.1,0.2-0.2c-0.6,0-1-0.5-1-1.5c0.1,0,0.2-0.1,0.2-0.2H2.5l-0.6,0.4c-0.3-0.5-0.4-1.2-0.4-2.1c0.1,0,0.2-0.1,0.2-0.2
		l-0.4-0.2v0.7H0.6c-0.3,0-0.4-0.1-0.4-0.4v-0.2L0.4,87C0.1,87,0,86.8,0,86.4c0.4-1.6,1.3-3.3,2.7-5.2c0.6-1.3,1.5-2.2,2.7-2.7
		l0.4-0.6v-0.2H5.4c0-0.4,1.2-2.3,3.5-5.6l0.7-0.7v-0.2l-0.2-0.4l0.8-0.4L10,70v-0.2c1.4-2,2.4-3,3.1-3.1l0.2-0.4
		c-0.1-0.2-0.2-0.4-0.2-0.6c0.6,0,1.3-0.6,2.1-1.9C15,63.7,15,63.4,15,63.1h0.4l0.4,0.2c0-0.2,1.2-1.7,3.5-4.4l5-6.9L24,51.6
		c2.3-3.1,4.6-5.8,6.9-8.3c0.4,0,1.8-1.3,4.2-4l1-0.2V39l-0.4-0.6c1.5-2.1,2.4-3.1,2.5-3.1c0.3,0.1,0.5,0.2,0.6,0.2
		c0-0.6,1-2,2.9-4.2l-0.2-0.4c0.6-1,1.4-1.9,2.3-2.5c-0.1-0.2-0.2-0.4-0.2-0.6c0.1,0,0.9-0.8,2.3-2.3l0.2,0.4
		c-0.1,0-0.6,0.6-1.3,1.7h0.2c0.4-0.1,1.5-1.7,3.3-4.8v-0.4c-0.4,0-0.6-0.2-0.6-0.6h-0.2c-0.2,0.3-1.6,0.6-4,1
		c-7.2,2.3-14.8,4.4-22.9,6.3c-2.8,1.1-6.4,2.2-10.9,3.3c-0.2-0.5-0.4-0.7-0.6-0.7l-1,0.2c0-0.1-0.1-0.2-0.2-0.2l0.2-1
		C7.4,29.6,6.9,29,6.7,29l-0.6-0.6v-0.9c-0.6,0-1.4-1.1-2.5-3.3c-0.3,0-0.4-0.1-0.4-0.4c0.7-0.5,3.4-1.4,8.1-2.5
		c7.2-2.6,20-6.1,38.6-10.5C77,3.6,92.1,0,95.2,0z M39.7,34.5h0.2c0.2,0,0.4-0.2,0.7-0.7v-0.2C40.3,33.6,40,33.9,39.7,34.5z
		 M41.1,32.8V33c0.2-0.1,0.4-0.2,0.6-0.2v-0.4h-0.2C41.2,32.5,41.1,32.6,41.1,32.8z M66,16.5v0.2h0.4c0.4-0.3,0.8-0.4,1-0.4v-0.2
		h-0.2C66.8,16.4,66.4,16.5,66,16.5z M70.6,15.2l-0.2,0.4H71C71,15.3,70.9,15.2,70.6,15.2z M74.9,14.2v0.2h0.6
		c0.2-0.1,0.5-0.2,0.7-0.2V14H76L74.9,14.2z M77.2,13.6v0.2h0.6c0.5-0.3,1-0.4,1.4-0.4v-0.2h-0.6C78.1,13.5,77.7,13.6,77.2,13.6z
		 M79.3,13.1v0.2H80v-0.2H79.3z M80.6,12.7v0.2H81l5.2-1.2v-0.2h-0.6C82.9,12.3,81.2,12.7,80.6,12.7z M87.7,8.3v0.4h0.2
		c0.2,0,0.4-0.1,0.4-0.4H87.7z M88.7,8v0.2h0.2C89.6,8.1,90.1,8,90.6,8V7.9c0-0.2-0.2-0.4-0.6-0.6h-0.2C89.3,7.8,88.9,8,88.7,8z
		 M90.4,6.9v0.2c0,0.2,0.4,0.4,1,0.7c0.3-0.1,0.5-0.2,0.6-0.2l-0.4-0.6h0.4l1.4,0.4c0.2-0.1,0.4-0.2,0.6-0.2V7.1h-0.6V6.9
		c0-0.2,0.3-0.4,1-0.4V6.2C93,6.3,91.7,6.5,90.4,6.9z M90.6,8.8h0.6v0.4H91C90.7,9.2,90.6,9.1,90.6,8.8z M94.3,6.7v0.4h1V6.7H94.3z"
		/>
	<path class="st0" d="M94.8,12.5c1.3,0,2.3,0.2,2.9,0.6c2.3,1.8,3.4,2.8,3.4,3c0,1.1-0.7,3.5-2.2,7.3c-0.7,1.7-1.8,4.6-3.3,8.8
		l-0.2,0.4v0.2c1.3-0.3,2.1-0.6,2.4-0.7l0.6,0.1c0-0.1,0.3-0.3,0.8-0.4c0.2,0.1,0.3,0.1,0.4,0.1c0-0.2,0.8-0.5,2.5-0.7
		c0.8-0.3,1.6-0.5,2.3-0.6v0.1l0.2-0.1h0.3l0.8,0.1c0-0.1,0.3-0.3,1-0.4c0.3-0.1,0.4-0.3,0.4-0.5l0.7-0.1c0.4,0.1,0.8,0.1,1,0.1v0.1
		c0,0.1-0.1,0.2-0.4,0.2v0.1h0.4c0.2,0,0.3-0.1,0.3-0.3c-0.1,0-0.1,0-0.1-0.1c0.3-0.2,0.7-0.4,1.2-0.5c1.2,0.3,1.9,0.5,2.1,0.5
		c0-0.2,0.1-0.3,0.2-0.3h0.3c0.4,0,0.7,0.2,0.8,0.5c-0.3,0.1-0.5,0.2-0.5,0.4c0.1,0,0.1,0,0.1,0.1c-0.2,0.1-0.3,0.1-0.4,0.1
		l-0.6-0.1l0.1,0.3c0,0.1-0.1,0.2-0.2,0.2h-0.6v0.1c0.1,0.1,0.1,0.3,0.1,0.4l-0.3,0.1h-0.6v0.3h0.1c0.2-0.1,0.3-0.1,0.4-0.1v0.1
		c0.3-0.2,0.5-0.3,0.7-0.3V32c0,0.1-0.9,0.4-2.8,0.8c-0.6,0.1-1,0.3-1,0.6h-0.4l-0.4-0.3c-0.2,0.2-0.6,0.4-1.2,0.5v0.1
		c0.1,0,0.4,0.2,0.7,0.5c0.1-0.1,0.3-0.1,0.4-0.1v0.1c0,0.1-0.1,0.2-0.4,0.4l-0.3-0.1c0,0.1-0.1,0.2-0.2,0.2H106v-0.2h0.7v-0.1
		c0-0.1-0.2-0.2-0.5-0.4c0,0.1-0.1,0.2-0.3,0.2h-0.2V34h-0.3v0.1l0.1,0.2l-0.3,0.1h-0.2v-0.3h-0.5v0.3l0.2-0.1h0.1v0.1
		c0,0.2-0.9,0.4-2.5,0.7c0,0.1,0.1,0.2,0.2,0.2c0.3-0.1,0.9-0.3,1.8-0.5h0.1v0.3c-0.1,0-0.2,0-0.4,0.1l0.1,0.3v0.1l-0.4-0.3h-0.1
		c-0.5,0.1-0.7,0.2-0.7,0.4h0.4v-0.2h0.4v0.4c-0.7,0.1-1.4,0.3-2.2,0.6c-0.1-0.1-0.3-0.1-0.4-0.1c0,0.2-0.1,0.3-0.2,0.3l-0.4-0.3
		l-0.2,0.1l-0.3-0.1L98.6,37c-0.2-0.1-0.3-0.1-0.4-0.1c-0.6,0.4-0.8,0.6-0.8,0.7c-1.4,0.3-2.4,0.7-2.9,1.1l0.1,0.2v0.3
		c-0.1,0.2-0.3,0.4-0.7,0.4l-0.6-0.1c0,0.3-0.2,0.5-0.7,0.6l-3,7.3l-6.2,15.2c-0.4,0.6-1.3,2.7-2.7,6.3c-1.8,3.5-2.7,5.5-2.7,6.1
		c-0.3,0.5-0.5,0.7-0.6,0.7h-0.1c-0.2,0-0.3-0.1-0.3-0.4l-0.7,0.4c0-0.4-0.2-0.7-0.7-0.7c0-0.2-0.2-0.4-0.7-0.7
		c0,0.1-0.1,0.2-0.4,0.4c0-0.1-0.2-0.4-0.5-0.8c-0.3,0.1-0.5,0.2-0.7,0.2h-0.1v-0.2c0-0.2,0-0.3,0.1-0.5c-0.1-0.6-0.3-0.9-0.5-0.9
		c1.1-4,1.9-6.3,2.5-6.8c-0.1,0-0.2-0.1-0.2-0.3c0.3,0,0.5-0.4,0.8-1.3l0.3-0.1L76,63.6v-0.4c1.1-1.8,2.2-4.2,3.3-7.4l-0.1-0.3
		c0.6-1.2,1.3-2.9,2.1-5.1c0.4-0.3,1-1.7,1.8-4.1c0.4-0.4,0.8-1.4,1.4-3.2c0.2-0.3,0.4-0.6,0.4-1c-0.2,0.1-0.3,0.1-0.4,0.1
		c0-0.1,0-0.1-0.1-0.1c0,0.1-0.1,0.2-0.3,0.2h-0.1l-0.4-0.2h-0.1L83,42.5c-0.1,0-0.2-0.1-0.2-0.4c-0.9,0-2.2,0.4-4,1.1l0.2,0.6
		c-1.4,0.6-2.8,1-4.3,1.5c-0.9,0.2-1.4,0.4-1.5,0.5h-0.1l-0.4-0.3h-0.1l0.1,0.3l-0.2,0.1c0-0.2-0.1-0.3-0.3-0.3H72l0.1,0.3v0.2
		l-7.6,2.4c-0.7,0-2.4,1.3-4.9,4c-8.4,7.7-14.3,11.9-17.4,12.7c-0.2,0-0.4,0-0.5,0.1c-0.9-0.1-1.8-0.6-2.7-1.5
		c-0.2-0.1-0.7-0.4-1.5-1c0.1,0,0.1,0,0.1-0.1c-0.2,0-0.3-0.1-0.3-0.2v-0.4c0.1-0.3,1.7-1.1,4.8-2.6c3.4-2.6,6.2-4.9,8.3-6.8v-0.1
		c-2.8,0.7-5.1,1.3-7,1.6c-0.1-0.1-0.3-0.1-0.5-0.1c0,0.2-0.2,0.3-0.6,0.4l-0.1-0.3c0.1,0,0.1,0,0.1-0.1c-0.6,0-1.4-0.6-2.4-1.7
		l-0.7-0.1h-0.5v-0.1l0.3-0.4v-0.1c-0.3,0-0.6-0.2-1-0.7v-0.5c0.8-0.6,3.3-1.4,7.4-2.3c1.2-0.5,3.8-1.3,7.6-2.3
		c1.6-0.7,3.2-1.2,4.9-1.6c0-0.1,0.3-0.3,1-0.5v0.1c1.3-0.3,2.4-1,3.2-1.9c0.4,0,0.6-0.2,0.7-0.7c0.2,0,0.7-0.5,1.6-1.5
		c0.4,0,0.6-0.2,0.7-0.6c0.4-0.6,1.6-1.8,3.6-3.6l6.3-6.2c2.5-2.3,3.9-3.5,4-3.5c0.7-0.9,1.9-2,3.5-3.3c0.1,0.1,0.3,0.1,0.4,0.1
		c0.2-0.5,0.3-0.7,0.5-0.7c0,0.1,0,0.1,0.1,0.1c0-0.3,0.3-0.5,0.9-0.5l-0.1-0.2v-0.1c0-0.2,0.1-0.3,0.2-0.3c0,0.1,0,0.1,0.1,0.1
		c0.5-0.6,0.7-0.9,0.7-1l0.2,0.1h0.1c0-0.6,1.5-2.1,4.4-4.3c0.4-0.6,1.2-1.2,2.3-2.1C92.7,13.6,93.5,13.1,94.8,12.5z M92.1,22.3V22
		c-3.2,2.5-9.4,8.2-18.7,17.2h-0.1v0.2c7.1-2.1,11.7-3.5,13.7-4.2c0-0.1,0-0.1,0.1-0.1s0.1,0,0.1,0.1c0.3,0,1-1.4,1.9-4.3
		c1.2-2.9,1.8-4.5,1.8-4.7c-0.1,0-0.4,0.5-0.7,1.4h-0.1c0-0.1,0-0.1-0.1-0.1c0.5-1.2,0.8-1.8,0.9-1.9l-0.1-0.3v-0.1
		c0.2-0.2,0.6-1.1,1.1-2.6L92.1,22.3v0.1c0,0.4-0.2,1.2-0.7,2.2V25c0.1,0,0.6-1.2,1.5-3.6h-0.1L92.1,22.3z M84.9,20.5L84.9,20.5
		c0.1,0.1,0,0.2-0.3,0.4v-0.1C84.6,20.6,84.7,20.5,84.9,20.5z M93.8,39.3H94c0.2,0,0.3-0.1,0.3-0.2v-0.1h-0.1
		C94.1,38.9,93.9,39.1,93.8,39.3z M96.7,36.7h-0.1l-0.2-0.1c0,0.1-0.2,0.3-0.6,0.5h-0.4l-0.5-0.4v0.1l0.1,0.3l-0.3,0.1
		c0-0.1-0.1-0.2-0.2-0.2h-0.1l0.1,0.2c-0.2,0-0.3,0.1-0.3,0.3v0.1l3-0.9c0-0.1-0.1-0.2-0.3-0.2L96.7,36.7z M97.5,36.7h0.2
		c0.2-0.1,0.3-0.1,0.4-0.1v-0.1h-0.4C97.5,36.4,97.5,36.5,97.5,36.7z M98.1,36.3c0.1,0,0.2,0,0.4,0.1h0.2v-0.1
		c-0.2,0-0.4-0.1-0.4-0.2C98.2,36.1,98.1,36.1,98.1,36.3z M98.4,36.7h0.4v-0.2h-0.1C98.5,36.5,98.4,36.6,98.4,36.7z M99.1,36
		c0,0.1,0.1,0.2,0.3,0.2l0.1-0.2H99.1z M101.3,35.6v0.1h0.4v-0.3C101.5,35.5,101.4,35.6,101.3,35.6z M102,35.4h0.4v-0.2h-0.1
		C102,35.2,102,35.3,102,35.4z M102.3,35.9h0.1c0.1,0,0.2-0.1,0.2-0.2h-0.1C102.4,35.7,102.3,35.8,102.3,35.9z M107.2,30.6l-0.1,0.2
		h0.1c0.1-0.1,0.3-0.1,0.4-0.1v-0.1H107.2z M112.6,31.6h0.4v0.3h-0.4V31.6z"/>
	<path class="st0" d="M133,12.4h0.3c0,0.5,0,0.7,0.1,0.7c0.3-0.2,0.6-0.3,0.8-0.3h0.6c1.8,1.3,2.8,2.2,2.9,2.7v0.3
		c-0.4,0.2-1.6,2.9-3.5,8.1c-3.5,8.6-10.6,21-21.4,37.1l-4.9,7h0.3c7.5-2.5,12.2-4.3,14-5.4c3.2-1.3,5.2-2.3,6.2-2.9l0.3,0.1
		l6.5-2.8l4.4-1.5c0,0.2,0.1,0.3,0.3,0.3c0-0.2,0.1-0.3,0.3-0.3h0.3V56h0.7c0-0.4,0.4-0.6,1.3-0.6v-0.1H142V55l1-0.1l0.3,0.1
		l4.5-1.7v0.3c-2.8,1.1-4.4,1.8-4.6,2.1c4.5-1.8,6.8-2.7,7.2-2.7h0.6c0.2,0,0.3,0.1,0.3,0.3c-1.6,0.8-2.5,1.2-2.8,1.3v0.3l1-0.1
		c0,0.2,0.1,0.3,0.3,0.3c0.2-0.2,0.5-0.3,0.7-0.3l-0.1-0.3v-0.1l0.4,0.3h0.3l0.4-0.3h0.3v0.3h0.1c0.2,0,0.3-0.1,0.3-0.4h0.1
		c0,0.4,0.1,0.6,0.2,0.6c0.2-0.1,0.3-0.1,0.4-0.1v0.1c0,0.2-0.4,0.4-1.1,0.6l0.1,0.3c-1.4,0.9-2.8,1.7-4.2,2.2v0.1h0.1
		c0.9-0.5,1.9-0.9,3.1-1.2V57c-16,7.4-29.9,13.2-41.6,17.3c-2.8,0.8-4.4,1.1-4.8,1.1c-2,0-3.3-0.7-4.1-2.1l-2.1-1.4
		c0-0.2-0.3-0.6-1-1.1v-0.1c2.1-2.5,3.5-4.5,4.4-5.9c0.5-0.6,1.5-2,2.9-4.4c0.8-0.8,1.1-1.4,1.1-1.7h0.1l0.3,0.2v-0.2l-0.1-0.3
		l0.3-0.1c0,0.1,0,0.1,0.1,0.1c1.2-2.1,3-4.5,5.2-7.3h0.1v0.1c-0.1,0.2-0.1,0.3-0.1,0.4h0.3c0-0.2,0.3-0.7,0.8-1.4v-0.2h-0.1
		l-0.7,0.7v-0.3c2.5-3.9,4.6-7.5,6.5-11c0.2,0,0.7-0.9,1.5-2.6c0.3-0.1,1-1.3,2.1-3.5c1-1.5,1.5-2.2,1.5-2.2h0.1l0.3,0.1
		c1.9-2.9,3.9-7,6-12.4C131.2,14.5,132.2,12.4,133,12.4z M113.5,48.3c0,0.2-0.3,0.7-0.8,1.5v0.1c0.5-0.5,0.9-1,1.1-1.7H113.5z
		 M113.7,48.1c0.4-0.3,1.1-1.3,2-3.1C114.4,46.8,113.7,47.8,113.7,48.1z M139,57.5h0.3c0.2,0,0.3-0.1,0.3-0.3h-0.3
		C139.1,57.2,139,57.3,139,57.5z M141.3,56.3c0,0.2,0.1,0.3,0.3,0.3l0.7-0.5H142C141.8,56.2,141.5,56.3,141.3,56.3z M144.5,56.3v0.3
		c0.1,0,0.2,0.1,0.4,0.2v-0.2c0-0.2-0.1-0.3-0.3-0.3H144.5z M144.5,59.2h0.1c0.4-0.1,0.6-0.3,0.6-0.4h-0.1
		C144.7,58.9,144.5,59,144.5,59.2z M145.4,58.8h0.3c1-0.5,1.5-0.7,1.7-0.7v-0.2H147C146,58.3,145.5,58.6,145.4,58.8z M145.9,56h0.4
		v-0.3h-0.1C146,55.7,145.9,55.8,145.9,56z M146.8,55.3v0.3h0.4c0.2,0,0.3-0.1,0.3-0.3l0.3,0.1h0.3c0-0.1-0.1-0.3-0.4-0.4h-0.1
		C147.2,55.2,147,55.3,146.8,55.3z M147.9,54.8V55h0.3v0.4l-0.1,0.3h0.3c0.1,0,0.3-0.1,0.4-0.4l-0.7-0.4H147.9z M148.9,55v0.3h0.4
		c0-0.2-0.1-0.3-0.3-0.3H148.9z"/>
	<path class="st0" d="M175.3,12.4v0.1l0.3-0.1c1,0.3,2.4,1.4,4.2,3.3v0.7c-1.4,3-4.1,7.8-8.3,14.3c0,0.2,0.1,0.3,0.3,0.3
		c0-0.1,0.2-0.3,0.7-0.5c0,0.1,0,0.1,0.1,0.1l-0.1,0.3v0.1h0.1l0.4-0.3c0.2,0.1,0.3,0.1,0.4,0.1c0-0.1,1-0.6,3-1.3
		c2.1-0.8,3.3-1.5,3.7-1.9h0.1c0.1,0,0.1,0,0.1,0.1c1.9-0.7,3.3-1.5,4.3-2.2c0.6-0.3,1.2-0.5,2.1-0.8c0-0.1,0.3-0.3,0.8-0.8
		c-0.2-0.1-0.3-0.1-0.4-0.1v-0.1c0.6-0.5,1.7-1,3.5-1.5l-0.3,0.4v0.1c1.2-0.4,2.9-1,5.1-2l1.8-0.6c0,0.1,0.1,0.2,0.3,0.2l0.3-0.1
		c0.9,0.3,1.3,0.8,1.3,1.5c0.4,0,1,0.9,1.8,2.6v0.4c-0.5,0-2.5,0.9-6.2,2.7c-0.3,0-0.7,0.2-1.3,0.7h0.1c2.8-1.3,4.8-2.1,6.1-2.5v0.2
		c-2.8,1-5.2,2.2-7.4,3.5l-5.6,2.3c-1.4,0.9-4.6,2.4-9.6,4.7l-12.6,5.9v0.3c4.6,4.9,8.9,9.1,13.1,12.6c1.6,1.1,4.7,3.8,9.5,8
		c0.9,0.6,1.8,1.7,2.6,3.1c0.1,0,0.1,0,0.1,0.1l-0.3,0.7c-1.3,0-5.6-3.2-12.8-9.6c-2-1.3-4.7-3.9-8.3-7.5c0-0.1-1.7-2.1-5.2-5.7
		v-0.1h-0.3c-9.3,14.7-15.9,25-19.9,31l-0.5,0.4l-0.3-0.1c-0.1,0.1-0.3,0.1-0.4,0.1c-0.2-0.1-0.3-0.1-0.4-0.1c0,0.1-0.2,0.3-0.5,0.5
		l-0.1-0.3l0.4-0.5v-0.3c-0.3,0-0.7-0.2-1.5-0.7c-0.3,0-0.6-0.3-0.9-0.8h-0.1c-0.1,0.1-0.3,0.1-0.5,0.1c-0.4-0.6-0.8-0.9-1.1-0.9
		v-0.4c1.5-2.6,2.9-4.6,4.2-5.9c-0.2,0-0.3-0.1-0.3-0.3l1.8-2.3c-0.1,0-0.1,0-0.1-0.1c0.4,0,0.7-0.6,0.9-1.7c0.1,0,2.9-4.4,8.4-13.2
		h-0.3c-7.1,3.6-10.9,5.9-11.3,6.9c-0.1,0-0.3,0-0.8,0.1c0-0.2-0.4-0.4-1.1-0.5v-0.1l0.1-0.3c-0.4-0.2-0.5-0.6-0.5-1.1h-0.8
		c-0.1,0-0.3-0.3-0.7-0.9c-0.7,0-1-0.3-1-0.9c-0.4-0.2-0.5-0.4-0.5-0.7c0-0.5,1.2-1.5,3.6-3c7.2-3.9,12.3-6.5,15.2-7.8
		c2-0.9,3.2-1.6,3.8-2.1v-0.3h-0.1c-0.5,0.2-0.8,0.4-0.8,0.5h-0.1c-0.2,0-0.3-0.1-0.3-0.3c0.6-0.2,0.9-0.5,0.9-0.7
		c-0.6-0.5-1.4-1.5-2.5-3.1c-0.1,0-0.5-0.3-0.9-0.9c0.1,0,0.4-0.2,0.9-0.5l0.3,0.1c0.1-0.1,0.3-0.1,0.5-0.1c1.1,0.9,2.3,2.2,3.6,3.7
		h0.1l2.6-3.6c0.4-0.3,1.1-1.3,2.1-3c1.4-1.9,2.6-3.8,3.6-5.7c0.4-0.4,2.1-3,4.9-7.9V16l-0.3,0.1v-0.3c1.1-1.4,1.8-2.4,2.2-3v-0.4
		L175.3,12.4z M167.7,39.8v0.1h0.1c0.2-0.1,0.3-0.1,0.4-0.1v-0.1H168C167.9,39.7,167.7,39.8,167.7,39.8z M168.7,39.2v0.1h0.4
		c0-0.2,0.2-0.3,0.6-0.4v-0.3C169.2,39.1,168.9,39.2,168.7,39.2z M170,38.6v0.1h0.3c0.2-0.1,0.3-0.1,0.4-0.1v-0.3h-0.1
		C170.3,38.5,170.1,38.6,170,38.6z M170.8,31.6v0.3c0.4-0.1,0.5-0.2,0.5-0.4v-0.1C171.1,31.5,170.9,31.6,170.8,31.6z M170.8,38.2
		v0.1h0.3c0.2-0.1,0.3-0.1,0.4-0.1V38C171.2,38.1,171,38.2,170.8,38.2z M171.4,31.1c0,0.2,0.1,0.3,0.3,0.3h0.2
		c0-0.2-0.1-0.3-0.2-0.3H171.4z M171.7,19c0.1,0,0.4-0.4,0.9-1.3v-0.1h-0.1C172.3,17.6,172,18.1,171.7,19z M171.7,37.8V38h0.2
		c1.1-0.5,1.6-0.8,1.6-0.9h-0.1C172.4,37.6,171.8,37.8,171.7,37.8z M173.6,36.9V37h0.4c0-0.2,0.2-0.3,0.6-0.4v-0.3
		C174.1,36.7,173.8,36.9,173.6,36.9z M175.7,35.9V36h0.3c0.9-0.4,1.3-0.7,1.3-0.8h-0.1C176.4,35.7,175.9,35.9,175.7,35.9z M178,35
		h0.1c1.3-0.7,2.1-1.1,2.3-1.1v-0.3h-0.1C178.8,34.5,178,34.9,178,35z M180.6,33.6L180.6,33.6l0.3,0.1c1.1-0.5,1.7-0.8,1.7-0.9h-0.3
		C181.4,33.3,180.8,33.6,180.6,33.6z M183.1,32.4v0.1h0.3c0.5-0.2,0.8-0.4,0.8-0.5H184C183.6,32.3,183.3,32.4,183.1,32.4z M184.3,32
		h0.1c0.2,0,0.3-0.1,0.3-0.3h-0.1C184.4,31.8,184.3,31.8,184.3,32z M184.8,31.6v0.1h0.3c1.9-0.9,3-1.4,3.2-1.4v-0.3h-0.1L184.8,31.6
		z M188.4,30.1h0.3c0.4-0.3,1.2-0.6,2.3-1.1v-0.1h-0.2C189.3,29.5,188.5,29.9,188.4,30.1z M188.9,23v0.1h0.1
		c0.2-0.1,0.3-0.1,0.4-0.1v-0.1h-0.1C189.1,23,189,23,188.9,23z M190.9,25L190.9,25c0.3,0,0.4-0.1,0.4-0.3h-0.1
		C191,24.8,190.9,24.9,190.9,25z M192,28.2v0.3h0.1c0.4-0.1,0.5-0.2,0.5-0.4h-0.3C192.3,28.2,192.1,28.2,192,28.2z M192.8,28.1h0.4
		v-0.3h-0.1C192.9,27.9,192.8,28,192.8,28.1z"/>
	<path class="st0" d="M278.3,12.3c0.4,0.2,0.6,0.4,0.7,0.5c-0.2,0-0.3,0.1-0.3,0.3c0.8,0,1.4,0.3,1.7,0.9c0.1,0,0.3,0.1,0.4,0.4
		l-0.7,0.5h0.1l0.3-0.1c0.5,0.1,0.8,0.4,0.8,0.8c-0.3,0.3-1.1,0.5-2.3,0.8c-0.2-0.1-0.3-0.1-0.4-0.1v0.6c0.2-0.2,0.7-0.4,1.3-0.6
		c0.5,0.1,0.7,0.2,0.7,0.4c-0.3,0.3-1,0.6-2.1,0.8c0,0.1-0.8,0.4-2.5,0.7h-0.9c0,0.1-0.2,0.3-0.7,0.5h0.4v0.2l-0.8,0.1v0.1h0.9v0.3
		c-1.7,0.4-2.5,0.7-2.6,0.7v0.1h0.3l0.7-0.1l0.1,0.3v0.1c-2,0.4-5,1-9.1,2.1c-2.3,0.7-5.4,1.5-9.1,2.3l-0.1-0.3
		c0.6-0.3,1.6-0.5,3-0.8v-0.1H258c-2.4,0.6-3.6,0.9-3.7,1.1c0.1,0.2,0.1,0.3,0.1,0.4c-0.4,0-1,0.8-1.5,2.5c-1.7,4-6.8,11-15.2,21.2
		c-4.2,5-9.9,12.5-17.1,22.5c-0.8,1.2-1.7,2.7-2.6,4.4l-0.5-0.4h-0.3l-0.4,0.3c-0.2-0.3-0.3-0.7-0.3-1c0.1,0,0.1,0,0.1-0.1
		c-0.4,0-0.7-0.4-0.7-1.1c0.1,0,0.1,0,0.1-0.1h-0.3l-0.4,0.3c-0.1-0.4-0.2-0.8-0.2-1.4c0.1,0,0.1,0,0.1-0.1l-0.2-0.1v0.5h-0.5
		c-0.2,0-0.3-0.1-0.3-0.3v-0.1l0.1-0.9c-0.2,0-0.3-0.1-0.3-0.4c0.3-1.1,0.9-2.2,1.8-3.5c0.4-0.8,1-1.5,1.8-1.8l0.3-0.4v-0.1h-0.3
		c0-0.3,0.8-1.5,2.3-3.7l0.5-0.5v-0.1l-0.1-0.3l0.5-0.3l-0.1-0.3v-0.1c0.9-1.3,1.6-2,2.1-2.1l0.1-0.3c-0.1-0.1-0.1-0.3-0.1-0.4
		c0.4,0,0.8-0.4,1.4-1.3c-0.1-0.1-0.1-0.3-0.1-0.5h0.3l0.3,0.1c0-0.1,0.8-1.1,2.3-2.9l3.4-4.7l-0.1-0.3c1.6-2.1,3.1-3.9,4.7-5.6
		c0.2,0,1.2-0.9,2.8-2.7l0.7-0.1v-0.1l-0.3-0.4c1-1.4,1.6-2.1,1.7-2.1c0.2,0.1,0.3,0.1,0.4,0.1c0-0.4,0.6-1.3,1.9-2.9l-0.1-0.3
		c0.4-0.7,1-1.2,1.6-1.7c-0.1-0.2-0.1-0.3-0.1-0.4c0.1,0,0.6-0.5,1.5-1.5l0.1,0.3c-0.1,0-0.4,0.4-0.9,1.1h0.1c0.3-0.1,1-1.2,2.2-3.3
		v-0.2c-0.2,0-0.4-0.1-0.4-0.4h-0.1c-0.2,0.2-1.1,0.4-2.7,0.6c-4.9,1.6-10,3-15.4,4.3c-1.9,0.7-4.3,1.5-7.4,2.2
		c-0.1-0.4-0.2-0.5-0.4-0.5l-0.6,0.1c0-0.1,0-0.1-0.1-0.1l0.1-0.7c-0.5-0.8-0.8-1.1-0.9-1.1l-0.4-0.4v-0.7c-0.4,0-0.9-0.7-1.7-2.2
		c-0.2,0-0.3-0.1-0.3-0.3c0.4-0.4,2.3-0.9,5.4-1.7c4.8-1.7,13.5-4.1,26-7.1C266.1,14.8,276.3,12.3,278.3,12.3z M241,35.6h0.1
		c0.1,0,0.3-0.2,0.5-0.5V35C241.4,35,241.2,35.2,241,35.6z M241.9,34.5v0.1c0.1-0.1,0.3-0.1,0.4-0.1v-0.2h-0.1
		C242,34.2,241.9,34.3,241.9,34.5z M258.7,23.5v0.1h0.3c0.3-0.2,0.5-0.3,0.7-0.3v-0.1h-0.1C259.2,23.4,258.9,23.5,258.7,23.5z
		 M261.8,22.6l-0.1,0.3h0.4C262.1,22.7,262,22.6,261.8,22.6z M264.6,21.9v0.1h0.4c0.1-0.1,0.3-0.1,0.5-0.1v-0.1h-0.1L264.6,21.9z
		 M266.2,21.5v0.1h0.4c0.3-0.2,0.6-0.3,0.9-0.3v-0.1h-0.4C266.8,21.4,266.5,21.5,266.2,21.5z M267.6,21.1v0.1h0.5v-0.1H267.6z
		 M268.5,20.9L268.5,20.9l0.3,0.1l3.5-0.7v-0.1h-0.4C270.1,20.7,269,20.9,268.5,20.9z M273.3,17.9v0.3h0.1c0.2,0,0.3-0.1,0.3-0.3
		H273.3z M274,17.8v0.1h0.1c0.5-0.1,0.9-0.1,1.2-0.1v-0.1c0-0.1-0.1-0.2-0.4-0.4h-0.1C274.4,17.6,274.1,17.8,274,17.8z M275.1,17
		v0.1c0,0.1,0.2,0.3,0.6,0.5c0.2-0.1,0.3-0.1,0.4-0.1l-0.3-0.4h0.3l0.9,0.3c0.2-0.1,0.3-0.1,0.4-0.1v-0.1h-0.4V17
		c0-0.2,0.2-0.3,0.7-0.3v-0.2C276.9,16.6,276,16.7,275.1,17z M275.3,18.3h0.4v0.3h-0.1C275.4,18.6,275.3,18.5,275.3,18.3z
		 M277.7,16.9v0.3h0.6v-0.3H277.7z"/>
	<path class="st0" d="M281.7,12.6h0.2c0.4,0.6,1.1,0.9,1.9,0.9c0,0.2,0.8,0.8,2.3,1.7l0.7-0.1c3.3,0.9,5.9,2.7,7.6,5.4
		c1.7,1.4,2.5,4.2,2.5,8.4l-0.1,0.9c0.1,0.2,0.1,0.4,0.1,0.6c-0.3,0-0.8,1.8-1.5,5.4l-1.5,4.8c-1.3,3.8-3.8,8.5-7.4,14.2
		c-2.7,3.7-6.2,7.7-10.4,11.8c-6.1,5-11,7.7-14.7,8.3c0,0.3-1.7,0.5-5.1,0.6c-4.2,0-8.2-2.4-12.2-7.3c-1.4-2.1-2.1-3.8-2.1-5.3
		l0.1-0.7v-0.9c0.2-2.2,0.5-3.3,0.7-3.3l-0.1-0.3c1.4-6.2,5.5-13.4,12.2-21.8c7.1-7.9,12.8-13.5,17.1-16.8
		C276.6,15.3,279.8,13.2,281.7,12.6z M243.4,61.7v0.7h0.2v-0.7H243.4z M247,48.3l0.2,0.3c0,0.3-0.2,0.6-0.5,1.1h0.6
		c-0.2,0.3-0.3,0.6-0.3,0.9c1.4-1.8,2.1-3.1,2.1-4.2H249l0.1-0.7C248.4,46.5,247.7,47.4,247,48.3z M248.2,64.6
		c0.6,3.9,1.8,5.8,3.4,5.8c7.2,0,14.6-4.1,22.2-12.4c0.1,0,1.4-1.4,3.7-4.2c2.5-3.3,5.5-8.2,8.9-14.7c2.6-6.4,3.9-11.3,3.9-14.5
		v-2.4c0-1.7-0.5-2.5-1.5-2.5c-0.3-0.1-0.8-0.1-1.5-0.1c-2,0-4.5,0.5-7.6,1.5c-2.4,1.3-7.4,5.8-14.9,13.2
		C253.8,46.2,248.2,56.3,248.2,64.6z M249,48.8V49c0.2,0,0.3-0.1,0.3-0.3v-0.2C249.1,48.5,249,48.6,249,48.8z M249.1,45.5h0.3
		c0-0.3,0.3-0.9,0.9-1.6h-0.1C250,43.9,249.7,44.4,249.1,45.5z M252.4,40.8v-0.1c-0.2,0-0.9,0.9-1.9,2.5c-0.1,0-0.2,0-0.2,0.1v0.2
		c0.1,0.2,0.2,0.3,0.3,0.3l-0.1,0.3v0.2h0.1c0.4-0.3,1.2-1.5,2.5-3.8H253L252.4,40.8z M252.3,41.1v0.3c0,0.1-0.1,0.3-0.4,0.4
		l-0.2-0.3L252.3,41.1z M258,34.2c0,0.3-0.2,0.6-0.7,0.9c0-0.2-0.1-0.3-0.3-0.3c-0.7,0.6-1.9,2-3.6,4.4v0.1l0.3-0.1h0.1v0.1
		l-0.3,0.6v0.1h0.2l4.7-5.8H258z M263.7,27.6c0.1,0.2,0.1,0.3,0.1,0.4c-0.4,0.4-0.8,0.6-1.1,0.6l0.3-0.5h-0.2
		c-0.2,0.1-0.4,0.3-0.6,0.7c0.2,0,0.3,0.1,0.3,0.3c-0.1,0-0.5,0.3-0.9,0.9v0.1h0.2c4-4,6.4-6,7-6v0.3h0.2l0.6-0.4l-0.1-0.3v-0.1
		c0-0.2,2.4-2.4,7.2-6.8c0.1,0,1.1-0.7,3-2.1c1.2-0.6,1.8-1,1.8-1.2h-0.1c-3.1,1.3-7.8,4.7-14.1,10.2c-2.3,2.4-3.5,3.6-3.6,3.6V27.6
		z M268.5,25.1v0.1c0.2,0,0.3-0.1,0.3-0.3v-0.1C268.6,24.8,268.5,24.9,268.5,25.1z"/>
	<path class="st0" d="M344.7,12.5c0.6,0.1,0.9,0.2,0.9,0.4c0.2-0.1,0.3-0.1,0.4-0.1c1.5,0.5,2.8,1.5,3.8,2.8c-1.7,1.8-3.1,4-4.4,6.7
		c-13.5,21.9-20.2,33.2-20.2,34.1c-2.5,5.7-3.8,9.6-3.8,11.5v0.4c0,0.1,0,0.2-0.1,0.2c0,0.1,0,0.1,0.1,0.1c0,0.1,0,0.2-0.1,0.4
		c0.1,1.1,0.2,1.7,0.4,1.7c1.5-0.3,4.5-2.1,9-5.4c0.2,0.1,0.3,0.1,0.4,0.1l0.3-0.4c-0.1-0.2-0.1-0.4-0.1-0.4
		c1.7-1.4,3.4-3.1,4.9-5.2c3.7-3.6,6.2-6.2,7.6-7.9h0.6v-0.1h-0.3v-0.3c0.1,0,0.2,0,0.6-0.1c0,0.1,0.1,0.3,0.4,0.4
		c2.2-2.4,4.6-5.3,7.1-8.6c0.9-1,1.7-2.1,2.5-3.3h-0.1c-0.3,0.5-0.5,0.7-0.6,0.7c0-0.1,0-0.1-0.1-0.1c0.1-0.4,1-1.6,2.9-3.5h0.1
		l-1.5,2.1h0.1c2.5-2.8,6.4-7.6,11.8-14.4c1.3-1.8,2.2-3,2.8-3.3v0.2l-5.7,7.8v0.1c0.5-0.1,0.8-0.4,1.1-1c0.2,0,1.2-1,2.9-3l0.6-0.4
		l0.1,0.3c-0.1,0.1-0.1,0.3-0.1,0.6h0.1c0.9-0.6,1.5-1.2,1.8-1.9v-0.2h-0.2l-0.6,0.4h-0.1c-0.2,0-0.3-0.1-0.3-0.3l2.1-2.6h0.1
		c0.2,0,0.3,0.1,0.3,0.3c0.8-0.4,1.3-0.7,1.5-1.2c1.4-1.6,2.3-2.3,2.7-2.3c0.1,0.2,0.2,0.4,0.2,0.6c0.3-0.2,0.5-0.3,0.7-0.3l0.2,0.3
		v0.1c-0.3,0-0.4,0.1-0.4,0.3c0.1,0,0.2,0,0.4,0.1c0-0.3,0.2-0.4,0.6-0.4v0.1c-0.6,1.6-2.5,4.2-5.5,8c-1.3,2.1-6,8.1-14.1,17.9
		c-4.5,6-10.9,13.2-19,21.8c-6.3,5.7-10.6,8.6-12.8,8.6c0,0.1-0.4,0.3-1.3,0.4h-2.6c-3-0.9-4.5-1.9-4.5-2.8c-1.1-0.3-2-1-2.6-2
		c-0.6-1.5-0.9-2.4-0.9-2.8c0.1-1.2,0.2-1.8,0.3-2c-0.1-0.2-0.2-0.4-0.2-0.6c0.1,0,0.4-1.1,0.9-3.2l0.3-0.2c0.1,0.2,0.1,0.4,0.1,0.4
		c-0.2,0.3-0.3,0.6-0.3,0.7v0.1h0.2c1.2-4.3,4.2-10.6,9-18.9c1.2-2.2,4.8-8.1,10.6-17.6c0-0.1,1.3-2.2,3.8-6.4V20h-0.3v-0.1
		c1.1-2.5,1.8-3.8,2.2-3.8v0.3c1.5-2,2.5-3.3,3.1-3.8H344.7z M319.4,57.3c0,0.1-0.1,0.3-0.3,0.6V58h0.3c0-0.2,0-0.4,0.1-0.6v-0.1
		H319.4z M319.8,56.4v0.1h0.1c1.3-2.9,2.3-4.7,2.8-5.2c-0.1-0.2-0.1-0.3-0.1-0.4l0.6-0.6c-0.1-0.2-0.2-0.3-0.2-0.4
		c-0.4,0-1.1,1.1-2,3.3c-0.5,0.9-0.8,1.8-1,2.9C319.9,56.1,319.8,56.2,319.8,56.4z M323.2,49.2c0,0.1-0.1,0.2-0.2,0.4h0.2
		c0.2,0,0.3-0.1,0.3-0.3L323.2,49.2z M324.2,47.7h0.1c0.1,0,0.5-0.5,1-1.5h-0.1C324.8,46.5,324.5,47,324.2,47.7z M324.6,43.8h0.3
		v0.4h-0.3V43.8z M329.1,36.5v0.1c0,0.2-0.1,0.3-0.3,0.3h-0.2C328.7,36.8,328.8,36.7,329.1,36.5z M329.5,66.6v0.1
		c0.2-0.1,0.4-0.1,0.4-0.1v-0.3h-0.1C329.6,66.3,329.5,66.4,329.5,66.6z M332.1,34.3v0.2c0,0.2,0.1,0.3,0.3,0.3l0.1-0.3v-0.2H332.1z
		 M332.4,33.9v0.3c1-0.9,1.5-1.6,1.5-2.2c1.2-1.8,1.8-2.8,1.8-3.1h-0.1C335.2,29.5,334.1,31.1,332.4,33.9z M339,20.3v0.1
		c-0.1,0.2-0.1,0.3-0.1,0.4h-0.3v-0.1C338.6,20.6,338.7,20.4,339,20.3z M344.8,53v0.3c0,0,0.4-0.4,1.1-1.3v-0.2
		C345.9,51.8,345.5,52.2,344.8,53z M346.6,50.9l-0.4,0.6v0.1c0.2,0,0.4-0.3,0.6-0.7H346.6z M347.3,50.2h0.3c0-0.3,0.3-0.6,0.9-0.9
		c0-0.1,0-0.2,0.1-0.4h-0.1C347.8,49.4,347.4,49.9,347.3,50.2z M348.8,48.4v0.2h0.3l2.1-2.6h-0.3C350,46.7,349.3,47.5,348.8,48.4z
		 M352.1,44.4c0,0.2-0.1,0.4-0.4,0.6h-0.1v0.1h0.3l0.4-0.6v-0.1H352.1z M353,43.2v0.1h0.3c0-0.1,0.4-0.7,1.2-1.6v-0.3
		C354.3,41.5,353.8,42.1,353,43.2z M357.2,38v0.1c0.2,0,0.3-0.1,0.3-0.3v-0.1C357.3,37.7,357.2,37.8,357.2,38z M357.8,35.5v0.1
		c0,0.2-0.1,0.3-0.3,0.3v-0.1C357.5,35.6,357.6,35.5,357.8,35.5z M358,37v0.1c0.8-0.8,1.4-1.3,1.9-1.6c0.2-0.7,1-1.6,2.5-2.9
		l2.3-3.2v-0.1c-0.8,0-2.2,1.6-4.2,4.7L358,37z M368.5,26.1v0.1c0.2-0.1,0.3-0.1,0.4-0.1v-0.4C368.8,25.6,368.7,25.8,368.5,26.1z"/>
	<path class="st0" d="M409.4,12.2h0.3c2,0.9,3.2,1.8,3.6,2.7l1.5,2.7v0.1c0,0.4-0.9,0.7-2.7,0.7h-0.4l-0.8-0.1
		c-1.6,0.2-4.6,0.9-9.1,2.2c-6,1.9-12.1,4.8-18.3,8.8c-3,2-5.8,4.3-8.5,7c-2.1,2.3-3.1,3.7-3.1,4.2h0.7c0.3,0,0.4,0,0.4,0.1l0.7-0.1
		h1.4c4.2-0.6,6.4-0.9,6.4-1.1v-0.1h0.3l0.3,0.1c0-0.5,1.9-0.9,5.7-1.2c0-0.2,0.1-0.3,0.3-0.3c0.1,0,0.1,0,0.1,0.1l0.3-0.1
		c0.2,0.1,0.3,0.1,0.4,0.1c0-0.1,0.1-0.2,0.4-0.4h0.4l0.3,0.1c0-0.3,0.1-0.4,0.4-0.4c0.2,0.1,0.3,0.1,0.4,0.1c0-0.3,2.7-0.7,8-1.2
		c0-0.1,0-0.1,0.1-0.1s0.1,0,0.1,0.1c1-0.2,2.5-0.3,4.6-0.3h0.1l0.7-0.1V36c0.1,0,0.1,0,0.1-0.1c5.7,0,9.4,1.8,11.3,5.3
		c0.2,0.1,0.9,1.2,2,3.3c0,0.1,0,0.1-0.1,0.1l0.1,0.3v0.3c0,2.8-5.7,7.3-17.2,13.5c-12.2,6.4-24.1,12-35.7,16.8l-0.5,0.1
		c0-0.4-0.4-0.8-1.2-1.1l-0.1-0.3V74c0-0.1,0-0.1,0.1-0.1c0-0.3-0.3-0.8-0.9-1.6c0-0.4-0.2-0.7-0.7-0.9v-0.4c-0.3,0-0.4-0.1-0.4-0.3
		c0.4,0,0.5-0.2,0.5-0.4h0.3l0.3,0.1l1.1-0.8c0.2,0.1,0.3,0.1,0.4,0.1l-0.1-0.3c0.1,0,0.1,0,0.1-0.1l0.3,0.1c1.4-0.6,2.2-1,2.2-1.5
		h0.1l0.3,0.1c0.1-0.2,1.3-0.9,3.5-2h0.1c0.1,0,0.1,0,0.1,0.1l2.9-1.1h0.3V65l-0.1-0.3c0.3-0.2,0.6-0.3,0.8-0.3h0.7v-0.3h-0.1
		l-0.3,0.2v-0.2c0-0.1,0.5-0.3,1.6-0.7c0-0.2,0.4-0.4,1.2-0.5c0-0.3,0.4-0.6,1.1-0.8h1.1c0-0.2,0.9-0.6,2.5-1.2l3.8-2.1
		c0.8-0.3,1.2-0.6,1.2-0.8l0.3,0.1h0.1v-0.1h-0.3V58c0.1-0.1,0.7-0.6,2-1.2v-0.3h-0.3c0,0.3-0.1,0.4-0.4,0.4l-0.1-0.3
		c2.1-1.3,3.4-1.9,3.8-1.9v0.1c0,0.2-0.1,0.3-0.4,0.3v0.1h0.1c0.5-0.2,0.8-0.4,0.8-0.5h-0.3v-0.1c0.5-0.4,1.6-1,3.3-1.9
		c0-0.1,0.4-0.4,1.2-0.8l0.3,0.1c0.2-0.1,0.3-0.1,0.4-0.1v0.3H397v0.2h0.1c0.6,0,1.7-0.7,3.4-2.1h-0.3c0,0.2-0.3,0.4-0.8,0.4
		c-0.1,0.2-0.6,0.5-1.6,1.1l-0.1-0.3c1.8-1.2,3-1.9,3.8-2.2c0-0.4,0.6-0.8,1.8-1.1c0.6-0.4,1-0.7,1.2-0.7c-0.4,0.5-1.1,1-2.3,1.6
		v0.1h0.3c1.5-0.6,3-1.6,4.5-3.1h-0.2c-1.1,0.8-1.8,1.2-2.2,1.2c1.4-1.1,3.1-2.7,5.3-4.6v-0.1c-0.4,0-1.8,0-4.2-0.1
		c-0.2,0-0.9,0.1-2,0.3c-0.1,0-0.1,0-0.1-0.1c-4.2,0.4-11,1.4-20.3,3c-0.7,0-1.7,0.1-2.9,0.3v-0.1c-0.4,0.2-1.2,0.3-2.4,0.3h-3.1
		c-3.4,0-5.6-1.3-6.8-4c0-0.7-0.4-1.4-1.2-2.1c-0.3-0.8-0.4-1.4-0.4-1.6v-0.3c0.5-0.3,0.9-1,1.2-2c1.2-1.5,2.2-2.7,3-3.4
		c4.2-4.1,6.9-6.4,8.2-6.8l4-2.8c0-0.5,0.2-0.7,0.4-0.7l0.1,0.3v0.2H383v0.1h0.3c0.8-0.6,2.3-1.4,4.7-2.5c0-0.2,0.4-0.5,1.1-0.7
		v-0.4l-0.7,0.3l-0.1-0.3c0.8-0.5,1.3-0.9,1.6-1.4l4.2-1.8h0.3c0.1,0,0.1,0,0.1,0.1l0.3-0.1h0.3v0.1l-0.3,0.4
		c0.4,0.2,0.7,0.3,0.9,0.3c0-0.2,0.5-0.5,1.6-0.9V16c-0.3,0-0.4-0.1-0.4-0.3v-0.3c0-0.3,2-1,6.1-2C406.3,12.6,408.4,12.2,409.4,12.2
		z M364.7,68.4h0.1v0.1c0,0.2-0.1,0.3-0.3,0.3h-0.3C364.3,68.7,364.4,68.5,364.7,68.4z M366.2,69h0.3c0.4-0.1,0.6-0.2,0.6-0.4h-0.3
		C366.4,68.8,366.2,68.9,366.2,69z M367.7,35.1h0.3v0.1c0,0.2-0.1,0.3-0.3,0.3V35.1z M368.5,34.3h0.1v0.1c0,0.1-0.1,0.3-0.4,0.4
		l-0.1-0.3L368.5,34.3z M377.7,61.6h0.5c-1.1,0.6-2.7,1.4-5,2.4l-0.1-0.3L377.7,61.6z M374.7,30.1l0.3,0.1l0.3-0.5h-0.1
		C375,29.7,374.9,29.8,374.7,30.1z M375.4,29.5h0.4v-0.3h-0.1C375.5,29.3,375.4,29.4,375.4,29.5z M379.3,63.8h0.1
		c0.2,0,0.3-0.1,0.3-0.3h-0.1C379.4,63.5,379.3,63.6,379.3,63.8z M379.9,26.3h0.3c0.2,0,0.3-0.1,0.3-0.3v-0.1
		C380,26,379.9,26.2,379.9,26.3z M382.1,39.3v0.1h0.4v-0.3C382.4,39.2,382.3,39.3,382.1,39.3z M387.4,57v0.1c0,0.2-0.2,0.4-0.7,0.4
		l-0.1-0.3C386.9,57.1,387.2,57,387.4,57z M388.9,38.1l-0.1,0.3h0.1c0.2-0.1,0.3-0.2,0.4-0.2v-0.1H388.9z M393.5,54.3h0.3
		c0.2,0,0.3-0.1,0.3-0.3h-0.3C393.6,54.1,393.5,54.2,393.5,54.3z M394.5,53.6l0.3,0.1h0.1c0.2,0,0.3-0.1,0.3-0.3v-0.1h-0.4
		C394.6,53.4,394.5,53.5,394.5,53.6z M396.2,52.7l0.3,0.1c0.1,0,0.2-0.1,0.4-0.4h-0.4C396.3,52.5,396.2,52.5,396.2,52.7z
		 M396.3,15.7h0.4V16h-0.4V15.7z M401,50.1h0.1c0.2,0,0.3-0.1,0.3-0.3h-0.1C401,49.9,401,50,401,50.1z"/>
</g>
</svg>
