<?xml version="1.0" encoding="utf-8"?>
<!-- Generator: Adobe Illustrator 19.0.1, SVG Export Plug-In . SVG Version: 6.00 Build 0)  -->
<svg version="1.1" id="Layer_1" xmlns="http://www.w3.org/2000/svg" xmlns:xlink="http://www.w3.org/1999/xlink" x="0px" y="0px"
	 viewBox="0 0 486.2 104.6" style="enable-background:new 0 0 486.2 104.6;" xml:space="preserve">
<style type="text/css">
	.st0{fill:#FFFFFF;}
</style>
<g>
	<path class="st0" d="M106.1,0c0.7,0.3,1,0.5,1,0.8c-0.3,0.1-0.4,0.2-0.4,0.4c1.4,0,2.3,0.5,2.7,1.5c0.2,0,0.5,0.2,0.7,0.6l-1.1,0.8
		h0.2l0.4-0.2c0.8,0.2,1.3,0.6,1.3,1.3c-0.5,0.4-1.7,0.8-3.9,1.3c-0.3-0.1-0.5-0.2-0.6-0.2v1.1c0.4-0.3,1.1-0.7,2.2-1.1
		c0.8,0.1,1.3,0.3,1.3,0.6c-0.5,0.5-1.6,0.9-3.4,1.3c0,0.2-1.4,0.6-4.1,1.1H101c0,0.2-0.4,0.5-1.1,0.9h0.6v0.4l-1.3,0.2v0.2h1.5v0.4
		c-2.7,0.7-4.1,1.1-4.3,1.1v0.2h0.4l1.3-0.2l0.2,0.4v0.2c-3.3,0.6-8.3,1.7-14.9,3.4c-3.9,1.1-8.9,2.4-15,3.8l-0.2-0.4
		c1-0.5,2.7-0.9,4.9-1.3v-0.2h-0.6c-4,0.9-6.1,1.5-6.2,1.7c0.1,0.3,0.2,0.5,0.2,0.6C65.8,21,65,22.3,64,25
		c-2.7,6.6-11.2,18.3-25.2,35.1c-7,8.2-16.4,20.6-28.3,37.2c-1.3,2.1-2.8,4.5-4.3,7.3L5.3,104H4.9l-0.6,0.4
		c-0.3-0.5-0.4-1.1-0.4-1.7c0.1,0,0.2-0.1,0.2-0.2c-0.7,0-1.1-0.6-1.1-1.7c0.2,0,0.2-0.1,0.2-0.2H2.8L2.2,101
		c-0.3-0.6-0.4-1.3-0.4-2.4c0.1,0,0.2-0.1,0.2-0.2l-0.4-0.2V99H0.6c-0.3,0-0.4-0.1-0.4-0.4v-0.2l0.2-1.5c-0.3,0-0.4-0.2-0.4-0.6
		c0.4-1.8,1.4-3.7,3-5.8c0.7-1.4,1.7-2.4,3-3l0.4-0.7v-0.2H6c0-0.5,1.3-2.6,3.9-6.2l0.8-0.8v-0.2L10.5,79l0.9-0.4l-0.2-0.4v-0.2
		c1.6-2.2,2.7-3.3,3.4-3.4l0.2-0.4c-0.1-0.3-0.2-0.5-0.2-0.6c0.6,0,1.4-0.7,2.4-2.1c-0.1-0.3-0.2-0.6-0.2-0.9h0.4l0.4,0.2
		c0-0.2,1.3-1.9,3.9-4.9l5.5-7.7l-0.2-0.4c2.6-3.4,5.1-6.5,7.7-9.2c0.4,0,2-1.5,4.7-4.5l1.1-0.2v-0.2l-0.4-0.6
		c1.7-2.3,2.6-3.4,2.8-3.4c0.3,0.1,0.5,0.2,0.6,0.2c0-0.6,1.1-2.2,3.2-4.7l-0.2-0.4c0.7-1.1,1.5-2.1,2.5-2.8
		c-0.1-0.3-0.2-0.5-0.2-0.6c0.2,0,1-0.8,2.5-2.5l0.2,0.4c-0.1,0-0.6,0.6-1.5,1.9h0.2c0.5-0.1,1.7-1.9,3.6-5.3V25
		c-0.4,0-0.6-0.2-0.6-0.6h-0.2c-0.3,0.3-1.8,0.7-4.5,1.1c-8,2.5-16.5,4.9-25.5,7.1c-3.1,1.2-7.1,2.4-12.2,3.6
		c-0.2-0.6-0.4-0.8-0.6-0.8L9,35.5c0-0.1-0.1-0.2-0.2-0.2L9,34.2c-0.8-1.3-1.2-1.9-1.5-1.9l-0.6-0.7v-1c-0.7,0-1.6-1.2-2.8-3.7
		c-0.3,0-0.4-0.1-0.4-0.4c0.8-0.6,3.8-1.5,9-2.8c8-2.9,22.3-6.8,43-11.8C85.8,4,102.7,0,106.1,0z M44.3,38.5h0.2
		c0.2,0,0.5-0.3,0.8-0.8v-0.2C45,37.4,44.6,37.8,44.3,38.5z M45.8,36.6v0.2c0.3-0.1,0.5-0.2,0.6-0.2v-0.4h-0.2
		C45.9,36.2,45.8,36.4,45.8,36.6z M73.6,18.4v0.2H74c0.5-0.3,0.8-0.4,1.1-0.4V18h-0.2C74.4,18.3,74,18.4,73.6,18.4z M78.7,16.9
		l-0.2,0.4h0.6C79.2,17,79,16.9,78.7,16.9z M83.5,15.8v0.2h0.6c0.2-0.2,0.5-0.2,0.8-0.2v-0.2h-0.2L83.5,15.8z M86,15.2v0.2h0.6
		c0.6-0.3,1.1-0.4,1.5-0.4v-0.2h-0.6C87.1,15,86.6,15.2,86,15.2z M88.4,14.5v0.2h0.8v-0.2H88.4z M89.9,14.1v0.2h0.4l5.8-1.3v-0.2
		h-0.6C92.4,13.7,90.5,14.1,89.9,14.1z M97.8,9.2v0.4H98c0.3,0,0.4-0.1,0.4-0.4H97.8z M98.8,9v0.2H99C99.8,9,100.5,9,101,9V8.8
		c0-0.2-0.2-0.4-0.6-0.6h-0.2C99.6,8.7,99.1,9,98.8,9z M100.8,7.7v0.2c0,0.2,0.4,0.5,1.1,0.8c0.3-0.1,0.5-0.2,0.6-0.2l-0.4-0.6h0.4
		l1.5,0.4c0.3-0.1,0.5-0.2,0.6-0.2V7.9H104V7.7c0-0.3,0.4-0.4,1.1-0.4V6.9C103.7,7,102.3,7.3,100.8,7.7z M101,9.8h0.6v0.4h-0.2
		C101.1,10.3,101,10.1,101,9.8z M105.1,7.5v0.4h1.1V7.5H105.1z"/>
	<path class="st0" d="M115.3,12.6c2.4,0.6,3.6,1.6,3.6,2.8c2,3.7,3,6.2,3,7.5c-0.3,1.8-0.4,2.9-0.4,3.3c0.2,0,0.6-0.2,1.4-0.6
		c0.2,0.2,0.5,0.2,0.9,0.2c0-0.3,0.6-0.4,1.8-0.4v0.4l0.9-0.2v0.2c0.1,0,0.2-0.1,0.2-0.2l1.2,0.2h0.4v0.4l-0.5,0.8
		c0.1,0.3,0.1,0.5,0.1,0.6c-2,1.2-4.9,2.6-8.7,4.3l-0.2,0.4v0.2c5.1-2.4,8.3-3.9,9.6-4.7l0.2,0.4c-0.7,1.5-3.5,3.3-8.6,5.3v0.2
		c0.1,0.3,0.1,0.5,0.1,0.6h-0.3l-0.5-0.4h-0.3l0.2,0.4c-0.1,0.3-0.2,0.5-0.2,0.6h-0.2l-0.9-0.2c0,0.3-0.2,0.6-0.7,1
		c0.1,0,0.3,0.1,0.5,0.2c0.3-0.1,0.4-0.2,0.5-0.2c0,0.1,0.1,0.2,0.2,0.2l1.6-1.2l0.3,0.2c0.6-0.4,1-0.6,1.3-0.6v0.2
		c-0.2,0.3-1.4,1-3.6,2c0,0.3,0.2,0.4,0.5,0.4v0.4c-2.3,0.8-3.4,1.7-3.4,2.8l-0.3,0.6c0.1,0.3,0.2,0.5,0.2,0.6
		c-0.4,0.2-2.4,3.5-6.1,9.8c-3.9,6.2-7.1,11.7-9.8,16.7c-1,1.9-2,3-3,3.5c-1.9,3.9-3.4,6-4.5,6.1V78c0.2,0,0.3,0.1,0.3,0.2
		c0,0.2-0.8,1.3-2.5,3.1c-1.3-1.6-2.2-2.4-2.8-2.4h-1.1l0.1-1l-1.6-1.6c-0.3,0-0.5-0.3-0.5-0.8c0.7-1.9,4-7.5,10-16.9
		c0-0.6,1.5-3.1,4.5-7.5l0.9-1.7v-0.2l-5,2.1c0-0.1-0.1-0.2-0.2-0.2c-0.2,0.6-5.3,3.1-15.5,7.5c-0.6,0.4-1.7,1-3.4,1.8
		c-3.2,5.6-5.4,9.3-6.6,11c-1.6,2.6-2.5,3.9-2.6,3.9V75c0.4-0.5,0.5-0.9,0.5-1.2h-0.4c-0.8,1.8-1.9,3.5-3.2,5.3l0.1,0.4v0.4h-0.1
		l-0.3-0.2c-0.9,1.1-2.5,2.6-5,4.5h-0.2c-0.5-0.4-1-0.8-1.6-1l0.2-0.4c0-0.2-0.7-0.7-2-1.6l-1.1,0.2c-0.2,0-0.3-0.1-0.3-0.4v-0.2
		l0.3-0.6c-0.8-0.4-1.2-0.7-1.3-1v-0.6c-0.2,0-0.3-0.1-0.3-0.4c0.9-0.9,2.9-3.7,5.7-8.4v-0.2c-6.5,3.2-10.4,5-11.6,5.3
		c-0.3-0.4-0.7-0.6-1.1-0.6c-0.6-0.6-1.2-1.4-2-2.4c-1.1-1.2-1.8-1.8-2-1.8c-0.4,0-0.5-0.1-0.5-0.4l0.2-0.4c-0.6-0.5-1-1-1.3-1.6v-1
		c1.2-0.8,3.5-1.9,7-3.5c3.5-1.9,5.4-2.8,5.7-2.8c3.4-2.1,8.6-4.8,15.7-8.2c0.9-0.1,2.4-2,4.3-5.7c5.7-9.7,9.2-15.4,10.3-16.9h0.3
		v0.2l-0.9,1.6v0.2c1-1.2,2.8-4.4,5.3-9.6c0.5-0.4,1.2-1.8,2.2-4.3l0.3-0.2c2.2,0,4.2,2.6,6.1,7.9v0.4c-4,7.7-7,12.9-8.7,15.7
		c-0.5,0.8-0.7,1.4-0.7,1.6h0.2c0.7-0.5,2.7-1.4,6.1-2.8c11.1-5.4,16.8-8.1,16.9-8.1c0.4-0.4,1-1.6,2-3.7c0.2,0,0.6-0.6,1.2-1.7h0.4
		l-0.2-1l0.3-0.2c0,0.1,0.1,0.2,0.2,0.2c0-0.2,0.5-1.3,1.4-3.2c0.5-1.4,0.9-2.8,1.2-4.3c-0.2,0-0.3-0.1-0.3-0.4v-0.4
		c0.2-0.3,0.4-1,0.5-2.1l-0.5-2.4C115.3,12.8,115.3,12.7,115.3,12.6z M66.5,73.3v0.2c0.2,0,0.3-0.2,0.5-0.6v-0.2
		C66.8,72.7,66.6,72.9,66.5,73.3z M72.5,46.2c0.2,0,0.4-0.3,0.7-1V45C72.8,45.3,72.5,45.7,72.5,46.2z M76.1,58.9h0.2
		c0.2,0,0.3-0.1,0.3-0.4h-0.1C76.2,58.5,76.1,58.6,76.1,58.9z M78,57.6v0.2h0.2c2.4-0.9,3.5-1.6,3.6-1.8h-0.2
		C79.4,57.1,78.2,57.6,78,57.6z M80.9,32v0.2c0.2,0,0.3-0.1,0.3-0.4v-0.2C81,31.6,80.9,31.7,80.9,32z M84.6,24.4l0.2,0.4
		c-0.1,0-0.4,0.4-1.1,1.2h-0.2v-0.2C84.2,24.9,84.5,24.4,84.6,24.4z M86.8,53.6v0.2H87c0.2-0.1,0.4-0.2,0.7-0.2v-0.2h-0.3
		C87.1,53.5,86.9,53.6,86.8,53.6z M88,52.9v0.4c0.4-0.3,0.7-0.4,0.9-0.4v-0.2h-0.4C88.3,52.9,88.1,52.9,88,52.9z M89.1,52.8h0.2
		c0.2,0,0.3-0.1,0.3-0.4h-0.1C89.2,52.4,89.1,52.5,89.1,52.8z M89.8,52.2v0.2h0.3c0.2-0.1,0.4-0.2,0.5-0.2v-0.2h-0.2
		C90.3,52.1,90.1,52.2,89.8,52.2z M91.8,51.5h0.3c0.3,0,0.4-0.1,0.4-0.4h-0.4C91.9,51.2,91.8,51.3,91.8,51.5z M92.7,51.1h0.2
		c1.2-0.5,1.9-0.9,2.2-1.2h-0.4C93.3,50.5,92.7,50.9,92.7,51.1z M95.2,49.7v0.2h0.3c1.6-0.8,2.5-1.2,2.9-1.2v-0.2h-0.7
		C96.2,49.3,95.4,49.7,95.2,49.7z M96.4,43h0.1c0.5-0.3,1.1-0.6,2-0.8v-0.4C97.1,42.4,96.4,42.8,96.4,43z M99.3,48h0.2
		c0.5-0.2,0.7-0.4,0.7-0.6H100C99.5,47.7,99.3,47.9,99.3,48z M100.9,40.5v0.2h0.9c1.2-0.8,2.1-1.2,2.5-1.2v-0.2h-0.5
		C103.1,39.7,102.2,40.1,100.9,40.5z M117.1,37.5v0.2h0.2c0.2-0.1,0.4-0.2,0.5-0.2v-0.4h-0.3C117.2,37.1,117.1,37.2,117.1,37.5z
		 M122.5,33.2c0,0.3-0.5,0.6-1.5,0.8v-0.4C121.8,33.3,122.3,33.2,122.5,33.2z M122.8,32.8h0.3v0.4h-0.7
		C122.5,32.9,122.6,32.8,122.8,32.8z"/>
	<path class="st0" d="M172.2,13.3v0.2l-0.3,0.6v0.2h0.7c0.5-0.4,1.3-0.6,2.6-0.6c1.6,0.3,2.4,1,2.4,2.2v0.2
		c-0.1,0.3-0.2,0.5-0.2,0.6c0.6,0,0.8,0.2,0.8,0.6v0.2c-0.7,0.6-1,1-1,1.2l-0.3-0.2h-0.8c0,0.3,0.2,0.4,0.6,0.4v0.4L176,19l-0.1,0.4
		c0.6,0,0.8,0.1,0.8,0.4c-0.2,0-0.7,0.3-1.3,1c-0.4,0-1.8,0.5-4.1,1.6v0.2h0.1c1.1-0.4,1.8-0.8,2.2-1l0.1,0.4c-0.9,0.5-3,1.5-6.4,3
		v0.2h0.1l0.8-0.2v0.4c-0.5,0-1.6,0.6-3.5,1.8c-1.7,0.4-4.7,1.7-9.2,3.9v1.2l0.3,0.6c-1.5,1.9-3.8,5.7-7.1,11.4
		c-1.1,1.3-2.9,4.1-5.2,8.3c-0.2,0-1.8,2.4-4.8,7.1h0.2c2-1,4.1-1.8,6.2-2.4v0.2l-0.1,0.4h0.1c0.5-0.2,0.9-0.5,1.3-0.8
		c0.1,0,0.1,0.1,0.1,0.2c1.9-1.1,3.6-1.7,5.1-1.8l1,0.2c0.8-0.5,1.8-0.8,3.3-1c0,0.3,0.2,0.4,0.7,0.4v0.4c-0.4,0-1,0.6-1.8,1.8
		c-4.1,1.6-6.3,2.6-6.4,2.9h0.2c0.1,0,1.7-0.7,4.9-2c0.3,0.3,0.6,0.4,0.8,0.4V59l-5.1,2.7l-0.5,0.6l-1-0.2l0.1,0.4
		c-0.4,0-0.8,0.3-1.5,0.8h-0.1v0.2c0.5,0,0.8,0.3,0.8,1h-0.1l-0.5-0.4h-0.1v0.4h0.5c0,0.3-0.1,0.4-0.3,0.4h-0.3v-0.4H146l0.1,0.4V65
		c-0.3,0-0.5-0.1-0.7-0.2c-0.2,0-0.5,0.3-1,1h-0.1l-0.3-0.2c-0.6,0.9-1.1,1.4-1.6,1.4v0.2h0.1l1.2-0.4v0.4c-0.3,0-3,1.5-8.2,4.4v0.2
		h0.1c0.7-0.3,1.1-0.4,1.2-0.4v0.4c-0.5,0-2.5,1.2-6.3,3.7c-0.1,0.3-1.3,0.9-3.4,1.8c0,0.2-0.6,0.9-1.8,2c0,0.2-0.2,0.4-0.5,0.6
		h-0.1l0.3-0.8h-0.1c-1.4,2-2.3,2.9-2.6,2.9c-0.9,0.8-2.1,1.5-3.6,2.2c-1-0.3-1.5-0.6-1.5-1h-0.6c-1.1,0-2.2-1-3.3-3.1
		c-0.3-0.5-1-1-2-1.6c0-0.8-0.4-1.8-1.1-2.7v-0.8l0.8-1.2l1.1,0.2h1.7c4.4-2.5,6.6-3.9,6.7-4.1c0-0.6,1.6-3,4.9-7.3h0.1
		c0.1,0,0.2,0.1,0.2,0.2c0.4-0.2,0.6-0.4,0.6-0.6v-0.2l-0.5,0.4h-0.1v-0.2c0.5-1.3,1.3-2,2.3-2V60c-0.2,0-0.3-0.1-0.3-0.4
		c1.2-0.7,2.7-2.5,4.3-5.5c0.1,0,1.3-1.6,3.5-4.7l-0.2-0.4c0.1-0.3,0.2-0.5,0.2-0.6l-0.8,0.8h-0.2c0.3-0.7,0.7-1,1-1
		c0.2,0.1,0.4,0.2,0.5,0.2c2.1-3,3.1-4.6,3.1-4.8c-0.2,0-0.3-0.1-0.3-0.4h0.1l0.3,0.2c0-0.3,0.1-0.4,0.3-0.4l-0.1-0.4v-0.4
		c0.4,0,0.6-0.1,0.6-0.2l-0.1-0.4c0.1-0.4,0.2-0.6,0.3-0.6h0.5c0.7-1.3,1.2-2,1.5-2v-0.2h-0.1c-2.1,1.2-5.2,2.7-9.2,4.5
		c-2.2,1.3-3.7,2-4.5,2h-0.6c-0.8-0.4-1.4-1.1-2-2.2c0-0.6-0.8-1.7-2.5-3.3c0-0.5-0.3-1.2-0.8-2.2c0.1-0.5,0.7-1.1,1.8-1.8v-0.4h0.2
		l0.5,0.4c0.7-0.8,2.4-1.8,5.2-3c0.9-0.5,2.6-1.3,5.1-2.4c0.8-0.5,3.4-1.9,7.9-4.1c3.8-2.1,11.1-5.6,22-10.4c1.3-0.7,3.3-1.3,5.9-2
		L172.2,13.3z M120.6,69.6h0.5c0.2,0,0.4-0.3,0.6-0.8h-0.1C121,69.1,120.6,69.4,120.6,69.6z M126.2,61.7h0.1c0.2,0,0.3-0.1,0.3-0.4
		h-0.1C126.3,61.4,126.2,61.5,126.2,61.7z M131,75.7h0.5c0,0.3-0.1,0.4-0.3,0.4H131V75.7z M142,65.6l-0.3-0.2h-0.3
		c0,0.2-0.3,0.5-1,0.8l-0.3,0.6V67h0.1c0.6-0.5,1.1-0.8,1.3-0.8v0.2l1.6-1.2c-0.1-0.3-0.1-0.5-0.1-0.6h-0.1
		C142.3,65,142.1,65.3,142,65.6z M144.8,63.7l0.1,0.4c-1.1,0.1-1.6,0.3-1.6,0.6c0,0.3,0.2,0.4,0.5,0.4c0.6-0.4,1.4-0.8,2.3-1.2v-0.4
		H146L144.8,63.7z M147.1,63.3h0.3c0.2,0,0.3,0.2,0.5,0.6v0.2h-0.2c-0.3-0.3-0.5-0.4-0.6-0.4V63.3z M148.2,62.7h0.3
		c0.2,0,0.3,0.2,0.3,0.4v0.2l-0.8,0.2c-0.2-0.1-0.4-0.2-0.5-0.2v-0.4h0.6V62.7z M149.4,62.7h0.1c0.2,0,0.3,0.2,0.3,0.4h-0.5V62.7z
		 M165.3,27.3v0.4l-0.6,0.2v-0.4L165.3,27.3z M168.9,21.7v0.2h0.3c0.6-0.4,1.1-0.6,1.5-0.6V21h-0.1
		C169.9,21.5,169.3,21.7,168.9,21.7z M171.1,20.8c0,0.3,0.1,0.4,0.3,0.4h0.2v-0.4H171.1z M171.6,18.4h0.5V18h-0.2
		C171.7,18.1,171.6,18.2,171.6,18.4z M171.7,20.6V21h0.6v-0.4H171.7z M173.5,19.4c0,0.3-0.2,0.4-0.6,0.4V20l0.8,0.2v-0.4h0.3
		l0.8,0.2C174.8,19.6,174.4,19.4,173.5,19.4z M174.7,19.2v0.2c0.4,0,0.5,0.1,0.5,0.4c0.2-0.1,0.4-0.2,0.5-0.2c0-0.3-0.1-0.4-0.3-0.4
		H174.7z"/>
	<path class="st0" d="M209.8,13.6h0.3c2.2,1,3.5,2.1,4.1,3l1.7,3v0.1c0,0.5-1,0.7-3,0.7h-0.5l-0.9-0.1c-1.7,0.2-5.1,1-10.1,2.4
		c-6.7,2.1-13.5,5.4-20.4,9.8c-3.3,2.2-6.5,4.8-9.5,7.8c-2.3,2.5-3.5,4.1-3.5,4.7h0.8c0.3,0,0.4,0,0.4,0.1l0.7-0.1h1.5
		c4.7-0.6,7.1-1,7.1-1.2v-0.1h0.3l0.3,0.1c0-0.6,2.1-1,6.3-1.4c0-0.2,0.1-0.3,0.3-0.3c0.1,0,0.1,0,0.1,0.1l0.3-0.1
		c0.2,0.1,0.3,0.1,0.4,0.1c0-0.1,0.1-0.3,0.4-0.4h0.4l0.3,0.1c0-0.3,0.1-0.4,0.4-0.4c0.2,0.1,0.3,0.1,0.4,0.1c0-0.4,3-0.8,8.9-1.4
		c0-0.1,0-0.1,0.1-0.1s0.1,0,0.1,0.1c1.1-0.2,2.8-0.3,5.1-0.3h0.1l0.7-0.1v0.1c0.1,0,0.1,0,0.1-0.1c6.3,0,10.5,2,12.5,5.9
		c0.2,0.1,1,1.3,2.3,3.6c0,0.1,0,0.1-0.1,0.1L219,50v0.3c0,3.1-6.4,8.2-19.2,15.1c-13.6,7.2-26.8,13.4-39.8,18.7l-0.6,0.1
		c0-0.5-0.5-0.9-1.4-1.2l-0.1-0.3v-0.1c0-0.1,0-0.1,0.1-0.1c0-0.3-0.3-0.9-1-1.8c0-0.4-0.3-0.7-0.8-1v-0.5c-0.3,0-0.4-0.1-0.4-0.3
		c0.4,0,0.6-0.2,0.6-0.4h0.3l0.3,0.1l1.2-0.9c0.2,0.1,0.3,0.1,0.4,0.1l-0.1-0.3c0.1,0,0.1,0,0.1-0.1l0.3,0.1
		c1.6-0.6,2.4-1.2,2.4-1.6h0.1l0.3,0.1c0.2-0.3,1.5-1,3.9-2.3h0.1c0.1,0,0.1,0,0.1,0.1l3.2-1.2h0.3v-0.1l-0.1-0.3
		c0.3-0.2,0.6-0.3,0.9-0.3h0.7v-0.3h-0.1l-0.3,0.2v-0.2c0-0.1,0.6-0.4,1.8-0.7c0-0.3,0.4-0.5,1.3-0.6c0-0.4,0.4-0.7,1.2-0.9h1.2
		c0-0.3,1-0.7,2.8-1.3l4.2-2.3c0.9-0.3,1.4-0.6,1.4-0.9l0.3,0.1h0.1v-0.1h-0.3v-0.1c0.1-0.2,0.8-0.6,2.3-1.4v-0.3h-0.3
		c0,0.3-0.1,0.4-0.4,0.4l-0.1-0.3c2.4-1.4,3.8-2.1,4.2-2.1v0.1c0,0.2-0.1,0.3-0.4,0.3v0.1h0.1c0.6-0.2,0.9-0.4,0.9-0.6h-0.3v-0.1
		c0.6-0.5,1.8-1.2,3.6-2.1c0-0.1,0.5-0.4,1.4-0.9l0.3,0.1c0.2-0.1,0.3-0.1,0.4-0.1v0.3h-0.3v0.2h0.1c0.7,0,1.9-0.8,3.8-2.3h-0.3
		c0,0.3-0.3,0.4-0.9,0.5c-0.1,0.2-0.7,0.6-1.8,1.2l-0.1-0.3c2-1.3,3.4-2.1,4.2-2.4c0-0.5,0.7-0.9,2-1.2c0.7-0.5,1.1-0.7,1.4-0.7
		c-0.4,0.5-1.3,1.1-2.5,1.8V55h0.3c1.7-0.6,3.4-1.8,5-3.5h-0.2c-1.2,0.9-2,1.4-2.4,1.4c1.5-1.2,3.5-3,5.9-5.1v-0.1
		c-0.5,0-2,0-4.7-0.1c-0.2,0-1,0.1-2.3,0.3c-0.1,0-0.1,0-0.1-0.1c-4.7,0.5-12.2,1.6-22.6,3.3c-0.8,0-1.9,0.1-3.2,0.3V51
		c-0.5,0.2-1.4,0.3-2.7,0.3h-3.5c-3.8,0-6.3-1.5-7.5-4.5c0-0.8-0.5-1.6-1.4-2.3c-0.3-0.9-0.4-1.5-0.4-1.8v-0.3
		c0.6-0.4,1-1.1,1.4-2.3c1.3-1.7,2.4-3,3.3-3.8c4.7-4.6,7.7-7.1,9.2-7.5l4.4-3.1c0-0.5,0.2-0.8,0.4-0.8l0.1,0.3v0.2h-0.4v0.1h0.3
		c0.8-0.7,2.6-1.6,5.3-2.7c0-0.3,0.4-0.5,1.2-0.7v-0.4l-0.7,0.3l-0.1-0.3c0.8-0.5,1.5-1,1.8-1.5l4.7-2h0.3c0.1,0,0.1,0,0.1,0.1
		l0.3-0.1h0.3v0.1l-0.3,0.4c0.5,0.2,0.8,0.3,1,0.3c0-0.3,0.6-0.6,1.8-1v-0.1c-0.3,0-0.4-0.1-0.4-0.3v-0.3c0-0.3,2.3-1.1,6.8-2.3
		C206.4,14.1,208.8,13.6,209.8,13.6z M160.1,76.2h0.1v0.1c0,0.2-0.1,0.3-0.3,0.3h-0.3C159.6,76.5,159.8,76.4,160.1,76.2z
		 M161.7,76.9h0.3c0.4-0.1,0.6-0.3,0.6-0.4h-0.3C161.9,76.7,161.7,76.8,161.7,76.9z M163.4,39.1h0.3v0.1c0,0.2-0.1,0.3-0.3,0.3V39.1
		z M164.3,38.2h0.1v0.1c0,0.2-0.1,0.3-0.4,0.4l-0.1-0.3L164.3,38.2z M174.6,68.7h0.6c-1.2,0.7-3,1.6-5.6,2.7l-0.1-0.3L174.6,68.7z
		 M171.2,33.6l0.3,0.1l0.3-0.6h-0.1C171.5,33.1,171.4,33.3,171.2,33.6z M172,32.9h0.5v-0.3h-0.1C172.1,32.7,172,32.8,172,32.9z
		 M176.4,71.1h0.1c0.2,0,0.3-0.1,0.3-0.3h-0.1C176.5,70.8,176.4,70.9,176.4,71.1z M177,29.3h0.3c0.2,0,0.3-0.1,0.3-0.3v-0.1
		C177.2,29,177,29.2,177,29.3z M179.5,43.8v0.1h0.5v-0.3C179.8,43.7,179.6,43.8,179.5,43.8z M185.4,63.5v0.1c0,0.2-0.2,0.4-0.7,0.5
		l-0.1-0.3C184.8,63.6,185.1,63.5,185.4,63.5z M187.1,42.4l-0.1,0.3h0.1c0.2-0.1,0.3-0.2,0.4-0.2v-0.1H187.1z M192.2,60.5h0.3
		c0.2,0,0.3-0.1,0.3-0.3h-0.3C192.3,60.3,192.2,60.4,192.2,60.5z M193.2,59.8l0.3,0.1h0.1c0.2,0,0.3-0.1,0.3-0.3v-0.1h-0.4
		C193.3,59.5,193.2,59.6,193.2,59.8z M195.2,58.7l0.3,0.1c0.1,0,0.3-0.1,0.4-0.4h-0.4C195.3,58.5,195.2,58.6,195.2,58.7z
		 M195.3,17.5h0.5v0.3h-0.5V17.5z M200.5,55.8h0.1c0.2,0,0.3-0.1,0.3-0.3h-0.1C200.6,55.6,200.5,55.7,200.5,55.8z"/>
	<path class="st0" d="M301,13.3v0.2l-0.3,0.6v0.2h0.7c0.5-0.4,1.3-0.6,2.6-0.6c1.6,0.3,2.4,1,2.4,2.2v0.2c-0.1,0.3-0.2,0.5-0.2,0.6
		c0.6,0,0.8,0.2,0.8,0.6v0.2c-0.7,0.6-1,1-1,1.2l-0.3-0.2H305c0,0.3,0.2,0.4,0.6,0.4v0.4l-0.8-0.2l-0.1,0.4c0.6,0,0.8,0.1,0.8,0.4
		c-0.2,0-0.7,0.3-1.3,1c-0.4,0-1.8,0.5-4.1,1.6v0.2h0.1c1.1-0.4,1.8-0.8,2.2-1l0.1,0.4c-0.9,0.5-3,1.5-6.4,3v0.2h0.1l0.8-0.2v0.4
		c-0.5,0-1.6,0.6-3.5,1.8c-1.7,0.4-4.7,1.7-9.2,3.9v1.2l0.3,0.6c-1.5,1.9-3.8,5.7-7.1,11.4c-1.1,1.3-2.9,4.1-5.2,8.3
		c-0.2,0-1.8,2.4-4.8,7.1h0.2c2-1,4.1-1.8,6.2-2.4v0.2l-0.1,0.4h0.1c0.5-0.2,0.9-0.5,1.3-0.8c0.1,0,0.1,0.1,0.1,0.2
		c1.9-1.1,3.6-1.7,5.1-1.8l1,0.2c0.8-0.5,1.8-0.8,3.3-1c0,0.3,0.2,0.4,0.7,0.4v0.4c-0.4,0-1,0.6-1.8,1.8c-4.1,1.6-6.3,2.6-6.4,2.9
		h0.2c0.1,0,1.7-0.7,4.9-2c0.3,0.3,0.6,0.4,0.8,0.4V59l-5.1,2.7l-0.5,0.6l-1-0.2l0.1,0.4c-0.4,0-0.8,0.3-1.5,0.8h-0.1v0.2
		c0.5,0,0.8,0.3,0.8,1h-0.1l-0.5-0.4h-0.1v0.4h0.5c0,0.3-0.1,0.4-0.3,0.4h-0.3v-0.4h-0.3l0.1,0.4V65c-0.3,0-0.5-0.1-0.7-0.2
		c-0.2,0-0.5,0.3-1,1h-0.1l-0.3-0.2c-0.6,0.9-1.1,1.4-1.6,1.4v0.2h0.1l1.2-0.4v0.4c-0.3,0-3,1.5-8.2,4.4v0.2h0.1
		c0.7-0.3,1.1-0.4,1.2-0.4v0.4c-0.5,0-2.5,1.2-6.3,3.7c-0.1,0.3-1.3,0.9-3.4,1.8c0,0.2-0.6,0.9-1.8,2c0,0.2-0.2,0.4-0.5,0.6h-0.1
		l0.3-0.8h-0.1c-1.4,2-2.3,2.9-2.6,2.9c-0.9,0.8-2.1,1.5-3.6,2.2c-1-0.3-1.5-0.6-1.5-1h-0.6c-1.1,0-2.2-1-3.3-3.1
		c-0.3-0.5-1-1-2-1.6c0-0.8-0.4-1.8-1.1-2.7v-0.8l0.8-1.2l1.1,0.2h1.7c4.4-2.5,6.6-3.9,6.7-4.1c0-0.6,1.6-3,4.9-7.3h0.1
		c0.1,0,0.2,0.1,0.2,0.2c0.4-0.2,0.6-0.4,0.6-0.6v-0.2l-0.5,0.4h-0.1v-0.2c0.5-1.3,1.3-2,2.3-2V60c-0.2,0-0.3-0.1-0.3-0.4
		c1.2-0.7,2.7-2.5,4.3-5.5c0.1,0,1.3-1.6,3.5-4.7l-0.2-0.4c0.1-0.3,0.2-0.5,0.2-0.6l-0.8,0.8h-0.2c0.3-0.7,0.7-1,1-1
		c0.2,0.1,0.4,0.2,0.5,0.2c2.1-3,3.1-4.6,3.1-4.8c-0.2,0-0.3-0.1-0.3-0.4h0.1l0.3,0.2c0-0.3,0.1-0.4,0.3-0.4l-0.1-0.4v-0.4
		c0.4,0,0.6-0.1,0.6-0.2l-0.1-0.4c0.1-0.4,0.2-0.6,0.3-0.6h0.5c0.7-1.3,1.2-2,1.5-2v-0.2h-0.1c-2.1,1.2-5.2,2.7-9.2,4.5
		c-2.2,1.3-3.7,2-4.5,2h-0.6c-0.8-0.4-1.4-1.1-2-2.2c0-0.6-0.8-1.7-2.5-3.3c0-0.5-0.3-1.2-0.8-2.2c0.1-0.5,0.7-1.1,1.8-1.8v-0.4h0.2
		l0.5,0.4c0.7-0.8,2.4-1.8,5.2-3c0.9-0.5,2.6-1.3,5.1-2.4c0.8-0.5,3.4-1.9,7.9-4.1c3.8-2.1,11.1-5.6,22-10.4c1.3-0.7,3.3-1.3,5.9-2
		L301,13.3z M249.5,69.6h0.5c0.2,0,0.4-0.3,0.6-0.8h-0.1C249.8,69.1,249.5,69.4,249.5,69.6z M255,61.7h0.1c0.2,0,0.3-0.1,0.3-0.4
		h-0.1C255.2,61.4,255,61.5,255,61.7z M259.8,75.7h0.5c0,0.3-0.1,0.4-0.3,0.4h-0.2V75.7z M270.8,65.6l-0.3-0.2h-0.3
		c0,0.2-0.3,0.5-1,0.8l-0.3,0.6V67h0.1c0.6-0.5,1.1-0.8,1.3-0.8v0.2l1.6-1.2c-0.1-0.3-0.1-0.5-0.1-0.6h-0.1
		C271.2,65,270.9,65.3,270.8,65.6z M273.6,63.7l0.1,0.4c-1.1,0.1-1.6,0.3-1.6,0.6c0,0.3,0.2,0.4,0.5,0.4c0.6-0.4,1.4-0.8,2.3-1.2
		v-0.4h-0.1L273.6,63.7z M275.9,63.3h0.3c0.2,0,0.3,0.2,0.5,0.6v0.2h-0.2c-0.3-0.3-0.5-0.4-0.6-0.4V63.3z M277,62.7h0.3
		c0.2,0,0.3,0.2,0.3,0.4v0.2l-0.8,0.2c-0.2-0.1-0.4-0.2-0.5-0.2v-0.4h0.6V62.7z M278.2,62.7h0.1c0.2,0,0.3,0.2,0.3,0.4h-0.5V62.7z
		 M294.1,27.3v0.4l-0.6,0.2v-0.4L294.1,27.3z M297.8,21.7v0.2h0.3c0.6-0.4,1.1-0.6,1.5-0.6V21h-0.1
		C298.7,21.5,298.1,21.7,297.8,21.7z M299.9,20.8c0,0.3,0.1,0.4,0.3,0.4h0.2v-0.4H299.9z M300.4,18.4h0.5V18h-0.2
		C300.5,18.1,300.4,18.2,300.4,18.4z M300.5,20.6V21h0.6v-0.4H300.5z M302.4,19.4c0,0.3-0.2,0.4-0.6,0.4V20l0.8,0.2v-0.4h0.3
		l0.8,0.2C303.6,19.6,303.2,19.4,302.4,19.4z M303.5,19.2v0.2c0.4,0,0.5,0.1,0.5,0.4c0.2-0.1,0.4-0.2,0.5-0.2c0-0.3-0.1-0.4-0.3-0.4
		H303.5z"/>
	<path class="st0" d="M338.6,13.6h0.3c2.2,1,3.5,2.1,4.1,3l1.7,3v0.1c0,0.5-1,0.7-3,0.7h-0.5l-0.9-0.1c-1.7,0.2-5.1,1-10.1,2.4
		c-6.7,2.1-13.5,5.4-20.4,9.8c-3.3,2.2-6.5,4.8-9.5,7.8c-2.3,2.5-3.5,4.1-3.5,4.7h0.8c0.3,0,0.4,0,0.4,0.1l0.7-0.1h1.5
		c4.7-0.6,7.1-1,7.1-1.2v-0.1h0.3l0.3,0.1c0-0.6,2.1-1,6.3-1.4c0-0.2,0.1-0.3,0.3-0.3c0.1,0,0.1,0,0.1,0.1l0.3-0.1
		c0.2,0.1,0.3,0.1,0.4,0.1c0-0.1,0.1-0.3,0.4-0.4h0.4l0.3,0.1c0-0.3,0.1-0.4,0.4-0.4c0.2,0.1,0.3,0.1,0.4,0.1c0-0.4,3-0.8,8.9-1.4
		c0-0.1,0-0.1,0.1-0.1s0.1,0,0.1,0.1c1.1-0.2,2.8-0.3,5.1-0.3h0.1l0.7-0.1v0.1c0.1,0,0.1,0,0.1-0.1c6.3,0,10.5,2,12.5,5.9
		c0.2,0.1,1,1.3,2.3,3.6c0,0.1,0,0.1-0.1,0.1l0.1,0.3v0.3c0,3.1-6.4,8.2-19.2,15.1c-13.6,7.2-26.8,13.4-39.8,18.7l-0.6,0.1
		c0-0.5-0.5-0.9-1.4-1.2l-0.1-0.3v-0.1c0-0.1,0-0.1,0.1-0.1c0-0.3-0.3-0.9-1-1.8c0-0.4-0.3-0.7-0.8-1v-0.5c-0.3,0-0.4-0.1-0.4-0.3
		c0.4,0,0.6-0.2,0.6-0.4h0.3l0.3,0.1l1.2-0.9c0.2,0.1,0.3,0.1,0.4,0.1l-0.1-0.3c0.1,0,0.1,0,0.1-0.1l0.3,0.1
		c1.6-0.6,2.4-1.2,2.4-1.6h0.1l0.3,0.1c0.2-0.3,1.5-1,3.9-2.3h0.1c0.1,0,0.1,0,0.1,0.1l3.2-1.2h0.3v-0.1l-0.1-0.3
		c0.3-0.2,0.6-0.3,0.9-0.3h0.7v-0.3h-0.1l-0.3,0.2v-0.2c0-0.1,0.6-0.4,1.8-0.7c0-0.3,0.4-0.5,1.3-0.6c0-0.4,0.4-0.7,1.2-0.9h1.2
		c0-0.3,1-0.7,2.8-1.3l4.2-2.3c0.9-0.3,1.4-0.6,1.4-0.9l0.3,0.1h0.1v-0.1h-0.3v-0.1c0.1-0.2,0.8-0.6,2.3-1.4v-0.3h-0.3
		c0,0.3-0.1,0.4-0.4,0.4l-0.1-0.3c2.4-1.4,3.8-2.1,4.2-2.1v0.1c0,0.2-0.1,0.3-0.4,0.3v0.1h0.1c0.6-0.2,0.9-0.4,0.9-0.6h-0.3v-0.1
		c0.6-0.5,1.8-1.2,3.6-2.1c0-0.1,0.5-0.4,1.4-0.9l0.3,0.1c0.2-0.1,0.3-0.1,0.4-0.1v0.3h-0.3v0.2h0.1c0.7,0,1.9-0.8,3.8-2.3h-0.3
		c0,0.3-0.3,0.4-0.9,0.5c-0.1,0.2-0.7,0.6-1.8,1.2l-0.1-0.3c2-1.3,3.4-2.1,4.2-2.4c0-0.5,0.7-0.9,2-1.2c0.7-0.5,1.1-0.7,1.4-0.7
		c-0.4,0.5-1.3,1.1-2.5,1.8V55h0.3c1.7-0.6,3.4-1.8,5-3.5h-0.2c-1.2,0.9-2,1.4-2.4,1.4c1.5-1.2,3.5-3,5.9-5.1v-0.1
		c-0.5,0-2,0-4.7-0.1c-0.2,0-1,0.1-2.3,0.3c-0.1,0-0.1,0-0.1-0.1c-4.7,0.5-12.2,1.6-22.6,3.3c-0.8,0-1.9,0.1-3.2,0.3V51
		c-0.5,0.2-1.4,0.3-2.7,0.3h-3.5c-3.8,0-6.3-1.5-7.5-4.5c0-0.8-0.5-1.6-1.4-2.3c-0.3-0.9-0.4-1.5-0.4-1.8v-0.3
		c0.6-0.4,1-1.1,1.4-2.3c1.3-1.7,2.4-3,3.3-3.8c4.7-4.6,7.7-7.1,9.2-7.5l4.4-3.1c0-0.5,0.2-0.8,0.4-0.8l0.1,0.3v0.2h-0.4v0.1h0.3
		c0.8-0.7,2.6-1.6,5.3-2.7c0-0.3,0.4-0.5,1.2-0.7v-0.4l-0.7,0.3l-0.1-0.3c0.8-0.5,1.5-1,1.8-1.5l4.7-2h0.3c0.1,0,0.1,0,0.1,0.1
		l0.3-0.1h0.3v0.1l-0.3,0.4c0.5,0.2,0.8,0.3,1,0.3c0-0.3,0.6-0.6,1.8-1v-0.1c-0.3,0-0.4-0.1-0.4-0.3v-0.3c0-0.3,2.3-1.1,6.8-2.3
		C335.2,14.1,337.6,13.6,338.6,13.6z M288.9,76.2h0.1v0.1c0,0.2-0.1,0.3-0.3,0.3h-0.3C288.4,76.5,288.6,76.4,288.9,76.2z
		 M290.6,76.9h0.3c0.4-0.1,0.6-0.3,0.6-0.4h-0.3C290.7,76.7,290.6,76.8,290.6,76.9z M292.2,39.1h0.3v0.1c0,0.2-0.1,0.3-0.3,0.3V39.1
		z M293.1,38.2h0.1v0.1c0,0.2-0.1,0.3-0.4,0.4l-0.1-0.3L293.1,38.2z M303.4,68.7h0.6c-1.2,0.7-3,1.6-5.6,2.7l-0.1-0.3L303.4,68.7z
		 M300.1,33.6l0.3,0.1l0.3-0.6h-0.1C300.4,33.1,300.2,33.3,300.1,33.6z M300.8,32.9h0.5v-0.3h-0.1C300.9,32.7,300.8,32.8,300.8,32.9
		z M305.2,71.1h0.1c0.2,0,0.3-0.1,0.3-0.3h-0.1C305.3,70.8,305.2,70.9,305.2,71.1z M305.8,29.3h0.3c0.2,0,0.3-0.1,0.3-0.3v-0.1
		C306,29,305.8,29.2,305.8,29.3z M308.3,43.8v0.1h0.5v-0.3C308.6,43.7,308.5,43.8,308.3,43.8z M314.2,63.5v0.1
		c0,0.2-0.2,0.4-0.7,0.5l-0.1-0.3C313.7,63.6,313.9,63.5,314.2,63.5z M315.9,42.4l-0.1,0.3h0.1c0.2-0.1,0.3-0.2,0.4-0.2v-0.1H315.9z
		 M321,60.5h0.3c0.2,0,0.3-0.1,0.3-0.3h-0.3C321.1,60.3,321,60.4,321,60.5z M322,59.8l0.3,0.1h0.1c0.2,0,0.3-0.1,0.3-0.3v-0.1h-0.4
		C322.2,59.5,322,59.6,322,59.8z M324,58.7l0.3,0.1c0.1,0,0.3-0.1,0.4-0.4h-0.4C324.1,58.5,324,58.6,324,58.7z M324.2,17.5h0.5v0.3
		h-0.5V17.5z M329.3,55.8h0.1c0.2,0,0.3-0.1,0.3-0.3h-0.1C329.4,55.6,329.3,55.7,329.3,55.8z"/>
	<path class="st0" d="M404.9,14c0.7,0.1,1,0.3,1,0.5c0.2-0.1,0.4-0.1,0.5-0.1c1.7,0.6,3.1,1.6,4.2,3.1c-1.9,2-3.5,4.5-4.8,7.4
		c-15,24.4-22.5,37-22.5,38.1c-2.8,6.4-4.2,10.7-4.2,12.8v0.5c0,0.1,0,0.2-0.1,0.2c0,0.1,0,0.1,0.1,0.1c0,0.1,0,0.3-0.1,0.5
		c0.1,1.3,0.2,1.9,0.5,1.9c1.6-0.3,5-2.3,10-6c0.2,0.1,0.4,0.1,0.5,0.1l0.3-0.4c-0.1-0.2-0.1-0.4-0.1-0.5c1.9-1.6,3.8-3.5,5.5-5.8
		c4.1-4,6.9-6.9,8.4-8.8h0.7v-0.1h-0.3v-0.3c0.1,0,0.3,0,0.6-0.1c0,0.2,0.2,0.3,0.5,0.5c2.4-2.7,5.1-5.9,7.9-9.6
		c1-1.1,1.9-2.3,2.7-3.7h-0.1c-0.3,0.5-0.5,0.8-0.6,0.8c0-0.1,0-0.1-0.1-0.1c0.1-0.4,1.1-1.7,3.2-3.9h0.1l-1.6,2.3h0.1
		c2.7-3.2,7.1-8.5,13.1-16.1c1.4-2.1,2.5-3.3,3.1-3.7v0.2l-6.3,8.7v0.1c0.5-0.1,0.9-0.5,1.3-1.1c0.2,0,1.3-1.1,3.3-3.4l0.6-0.5
		l0.1,0.3c-0.1,0.2-0.1,0.4-0.1,0.6h0.1c1-0.7,1.7-1.4,2-2.1v-0.2h-0.2l-0.6,0.5h-0.1c-0.2,0-0.3-0.1-0.3-0.3l2.3-2.9h0.1
		c0.2,0,0.3,0.1,0.3,0.3c0.9-0.4,1.5-0.8,1.6-1.3c1.5-1.7,2.5-2.6,3-2.6c0.1,0.2,0.2,0.4,0.2,0.7c0.3-0.2,0.6-0.3,0.8-0.3l0.2,0.3
		v0.1c-0.3,0-0.5,0.1-0.5,0.3c0.1,0,0.3,0,0.5,0.1c0-0.3,0.2-0.5,0.6-0.5v0.1c-0.7,1.8-2.7,4.7-6.2,8.9c-1.5,2.4-6.7,9-15.7,19.9
		c-5,6.7-12.1,14.8-21.2,24.3c-7.1,6.4-11.8,9.6-14.3,9.6c0,0.1-0.5,0.3-1.5,0.5h-2.9c-3.4-1-5-2.1-5-3.1c-1.3-0.4-2.2-1.1-2.9-2.3
		c-0.7-1.7-1-2.7-1-3.1c0.1-1.3,0.2-2.1,0.3-2.3c-0.1-0.2-0.2-0.4-0.2-0.6c0.2,0,0.5-1.2,1-3.6l0.3-0.2c0.1,0.2,0.1,0.4,0.1,0.5
		c-0.2,0.4-0.3,0.6-0.3,0.8v0.1h0.2c1.3-4.8,4.7-11.9,10-21.1c1.4-2.4,5.3-9,11.8-19.6c0-0.1,1.4-2.4,4.2-7.1v-0.3h-0.3v-0.1
		c1.2-2.8,2-4.2,2.4-4.2v0.3c1.6-2.3,2.8-3.7,3.4-4.2H404.9z M376.8,63.9c0,0.2-0.1,0.4-0.3,0.6v0.1h0.3c0-0.2,0-0.4,0.1-0.6v-0.1
		H376.8z M377.2,62.9V63h0.1c1.5-3.3,2.5-5.2,3.1-5.8c-0.1-0.2-0.1-0.4-0.1-0.5l0.6-0.6c-0.1-0.2-0.2-0.4-0.2-0.5
		c-0.4,0-1.2,1.2-2.3,3.7c-0.5,1-0.9,2.1-1.1,3.2C377.3,62.5,377.2,62.7,377.2,62.9z M381,54.8c0,0.1-0.1,0.3-0.2,0.5h0.2
		c0.2,0,0.3-0.1,0.3-0.3L381,54.8z M382.1,53.2h0.1c0.2,0,0.5-0.6,1.1-1.6h-0.1C382.8,51.8,382.5,52.3,382.1,53.2z M382.6,48.8h0.3
		v0.5h-0.3V48.8z M387.6,40.7v0.1c0,0.2-0.1,0.3-0.3,0.3h-0.2C387.1,41,387.3,40.9,387.6,40.7z M388.1,74.3v0.1
		c0.2-0.1,0.4-0.1,0.5-0.1v-0.3h-0.1C388.2,73.9,388.1,74.1,388.1,74.3z M390.9,38.3v0.2c0,0.2,0.1,0.3,0.3,0.3l0.1-0.3v-0.2H390.9z
		 M391.3,37.8v0.3c1.1-1,1.7-1.8,1.7-2.4c1.4-2,2.1-3.1,2.1-3.4h-0.1C394.4,32.9,393.2,34.7,391.3,37.8z M398.6,22.6v0.1
		c-0.1,0.2-0.1,0.4-0.1,0.5h-0.3v-0.1C398.1,22.9,398.3,22.7,398.6,22.6z M405.1,59v0.3c0,0,0.5-0.5,1.3-1.4v-0.2
		C406.3,57.7,405.9,58.1,405.1,59z M407,56.7l-0.5,0.7v0.1c0.2,0,0.5-0.3,0.7-0.8H407z M407.9,55.9h0.3c0-0.3,0.3-0.6,1-1
		c0-0.1,0-0.3,0.1-0.5h-0.1C408.4,55.1,408,55.6,407.9,55.9z M409.5,54v0.2h0.3l2.3-2.9h-0.3C410.9,52.1,410.1,53,409.5,54z
		 M413.2,49.5c0,0.2-0.2,0.4-0.5,0.6h-0.1v0.1h0.3l0.5-0.6v-0.1H413.2z M414.2,48.1v0.1h0.3c0-0.2,0.4-0.8,1.3-1.8v-0.3
		C415.6,46.2,415.1,46.9,414.2,48.1z M418.9,42.3v0.1c0.2,0,0.3-0.1,0.3-0.3V42C419,42.1,418.9,42.2,418.9,42.3z M419.5,39.6v0.1
		c0,0.2-0.1,0.3-0.3,0.3v-0.1C419.2,39.7,419.3,39.6,419.5,39.6z M419.8,41.2v0.1c0.8-0.9,1.6-1.5,2.1-1.8c0.2-0.8,1.2-1.8,2.8-3.2
		l2.6-3.6v-0.1c-0.9,0-2.4,1.7-4.7,5.2L419.8,41.2z M431.5,29v0.1c0.2-0.1,0.3-0.1,0.4-0.1v-0.5C431.8,28.6,431.7,28.7,431.5,29z"/>
	<path class="st0" d="M477,13.6h0.3c2.2,1,3.5,2.1,4.1,3l1.7,3v0.1c0,0.5-1,0.7-3,0.7h-0.5l-0.9-0.1c-1.7,0.2-5.1,1-10.1,2.4
		c-6.7,2.1-13.5,5.4-20.4,9.8c-3.3,2.2-6.5,4.8-9.5,7.8c-2.3,2.5-3.5,4.1-3.5,4.7h0.8c0.3,0,0.4,0,0.4,0.1l0.7-0.1h1.5
		c4.7-0.6,7.1-1,7.1-1.2v-0.1h0.3l0.3,0.1c0-0.6,2.1-1,6.3-1.4c0-0.2,0.1-0.3,0.3-0.3c0.1,0,0.1,0,0.1,0.1l0.3-0.1
		c0.2,0.1,0.3,0.1,0.4,0.1c0-0.1,0.1-0.3,0.4-0.4h0.4l0.3,0.1c0-0.3,0.1-0.4,0.4-0.4c0.2,0.1,0.3,0.1,0.4,0.1c0-0.4,3-0.8,8.9-1.4
		c0-0.1,0-0.1,0.1-0.1c0.1,0,0.1,0,0.1,0.1c1.1-0.2,2.8-0.3,5.1-0.3h0.1l0.7-0.1v0.1c0.1,0,0.1,0,0.1-0.1c6.3,0,10.5,2,12.5,5.9
		c0.2,0.1,1,1.3,2.3,3.6c0,0.1,0,0.1-0.1,0.1l0.1,0.3v0.3c0,3.1-6.4,8.2-19.2,15.1c-13.6,7.2-26.8,13.4-39.8,18.7l-0.6,0.1
		c0-0.5-0.5-0.9-1.4-1.2l-0.1-0.3v-0.1c0-0.1,0-0.1,0.1-0.1c0-0.3-0.3-0.9-1-1.8c0-0.4-0.3-0.7-0.8-1v-0.5c-0.3,0-0.4-0.1-0.4-0.3
		c0.4,0,0.6-0.2,0.6-0.4h0.3l0.3,0.1l1.2-0.9c0.2,0.1,0.3,0.1,0.4,0.1l-0.1-0.3c0.1,0,0.1,0,0.1-0.1l0.3,0.1
		c1.6-0.6,2.4-1.2,2.4-1.6h0.1l0.3,0.1c0.2-0.3,1.5-1,3.9-2.3h0.1c0.1,0,0.1,0,0.1,0.1l3.2-1.2h0.3v-0.1l-0.1-0.3
		c0.3-0.2,0.6-0.3,0.9-0.3h0.7v-0.3h-0.1l-0.3,0.2v-0.2c0-0.1,0.6-0.4,1.8-0.7c0-0.3,0.4-0.5,1.3-0.6c0-0.4,0.4-0.7,1.2-0.9h1.2
		c0-0.3,1-0.7,2.8-1.3l4.2-2.3c0.9-0.3,1.4-0.6,1.4-0.9l0.3,0.1h0.1v-0.1H452v-0.1c0.1-0.2,0.8-0.6,2.3-1.4v-0.3h-0.3
		c0,0.3-0.1,0.4-0.4,0.4l-0.1-0.3c2.4-1.4,3.8-2.1,4.2-2.1v0.1c0,0.2-0.1,0.3-0.4,0.3v0.1h0.1c0.6-0.2,0.9-0.4,0.9-0.6h-0.3v-0.1
		c0.6-0.5,1.8-1.2,3.6-2.1c0-0.1,0.5-0.4,1.4-0.9l0.3,0.1c0.2-0.1,0.3-0.1,0.4-0.1v0.3h-0.3v0.2h0.1c0.7,0,1.9-0.8,3.8-2.3h-0.3
		c0,0.3-0.3,0.4-0.9,0.5c-0.1,0.2-0.7,0.6-1.8,1.2l-0.1-0.3c2-1.3,3.4-2.1,4.2-2.4c0-0.5,0.7-0.9,2-1.2c0.7-0.5,1.1-0.7,1.4-0.7
		c-0.4,0.5-1.3,1.1-2.5,1.8V55h0.3c1.7-0.6,3.4-1.8,5-3.5h-0.2c-1.2,0.9-2,1.4-2.4,1.4c1.5-1.2,3.5-3,5.9-5.1v-0.1
		c-0.5,0-2,0-4.7-0.1c-0.2,0-1,0.1-2.3,0.3c-0.1,0-0.1,0-0.1-0.1c-4.7,0.5-12.2,1.6-22.6,3.3c-0.8,0-1.9,0.1-3.2,0.3V51
		c-0.5,0.2-1.4,0.3-2.7,0.3h-3.5c-3.8,0-6.3-1.5-7.5-4.5c0-0.8-0.5-1.6-1.4-2.3c-0.3-0.9-0.4-1.5-0.4-1.8v-0.3
		c0.6-0.4,1-1.1,1.4-2.3c1.3-1.7,2.4-3,3.3-3.8c4.7-4.6,7.7-7.1,9.2-7.5l4.4-3.1c0-0.5,0.2-0.8,0.4-0.8l0.1,0.3v0.2h-0.4v0.1h0.3
		c0.8-0.7,2.6-1.6,5.3-2.7c0-0.3,0.4-0.5,1.2-0.7v-0.4l-0.7,0.3l-0.1-0.3c0.8-0.5,1.5-1,1.8-1.5l4.7-2h0.3c0.1,0,0.1,0,0.1,0.1
		l0.3-0.1h0.3v0.1l-0.3,0.4c0.5,0.2,0.8,0.3,1,0.3c0-0.3,0.6-0.6,1.8-1v-0.1c-0.3,0-0.4-0.1-0.4-0.3v-0.3c0-0.3,2.3-1.1,6.8-2.3
		C473.6,14.1,476,13.6,477,13.6z M427.3,76.2h0.1v0.1c0,0.2-0.1,0.3-0.3,0.3h-0.3C426.8,76.5,427,76.4,427.3,76.2z M428.9,76.9h0.3
		c0.4-0.1,0.6-0.3,0.6-0.4h-0.3C429.1,76.7,428.9,76.8,428.9,76.9z M430.6,39.1h0.3v0.1c0,0.2-0.1,0.3-0.3,0.3V39.1z M431.5,38.2
		h0.1v0.1c0,0.2-0.1,0.3-0.4,0.4l-0.1-0.3L431.5,38.2z M441.8,68.7h0.6c-1.2,0.7-3,1.6-5.6,2.7l-0.1-0.3L441.8,68.7z M438.4,33.6
		l0.3,0.1l0.3-0.6h-0.1C438.7,33.1,438.6,33.3,438.4,33.6z M439.2,32.9h0.5v-0.3h-0.1C439.3,32.7,439.2,32.8,439.2,32.9z
		 M443.6,71.1h0.1c0.2,0,0.3-0.1,0.3-0.3h-0.1C443.7,70.8,443.6,70.9,443.6,71.1z M444.2,29.3h0.3c0.2,0,0.3-0.1,0.3-0.3v-0.1
		C444.3,29,444.2,29.2,444.2,29.3z M446.7,43.8v0.1h0.5v-0.3C447,43.7,446.8,43.8,446.7,43.8z M452.6,63.5v0.1
		c0,0.2-0.2,0.4-0.7,0.5l-0.1-0.3C452,63.6,452.3,63.5,452.6,63.5z M454.2,42.4l-0.1,0.3h0.1c0.2-0.1,0.3-0.2,0.4-0.2v-0.1H454.2z
		 M459.4,60.5h0.3c0.2,0,0.3-0.1,0.3-0.3h-0.3C459.5,60.3,459.4,60.4,459.4,60.5z M460.4,59.8l0.3,0.1h0.1c0.2,0,0.3-0.1,0.3-0.3
		v-0.1h-0.4C460.5,59.5,460.4,59.6,460.4,59.8z M462.4,58.7l0.3,0.1c0.1,0,0.3-0.1,0.4-0.4h-0.4C462.5,58.5,462.4,58.6,462.4,58.7z
		 M462.5,17.5h0.5v0.3h-0.5V17.5z M467.7,55.8h0.1c0.2,0,0.3-0.1,0.3-0.3H468C467.8,55.6,467.7,55.7,467.7,55.8z"/>
</g>
</svg>
