<?xml version="1.0" encoding="utf-8"?>
<!-- Generator: Adobe Illustrator 19.0.1, SVG Export Plug-In . SVG Version: 6.00 Build 0)  -->
<svg version="1.1" id="Layer_1" xmlns="http://www.w3.org/2000/svg" xmlns:xlink="http://www.w3.org/1999/xlink" x="0px" y="0px"
	 viewBox="0 0 487.6 51.3" style="enable-background:new 0 0 487.6 51.3;" xml:space="preserve">
<style type="text/css">
	.st0{fill:#FFFFFF;}
</style>
<g>
	<path class="st0" d="M65.1,0l0.1,0.2L65.1,1c0.5-0.3,0.9-0.5,1.1-0.5c0,0,0.1,0.2,0.2,0.4l-0.4,0.5v0.1c0.2,0,0.4,0,0.4,0.1
		c0.5-0.3,0.9-0.5,1.1-0.5C67.6,1.5,68,1.8,69,2v0.2c-0.3,0.7-2.5,3.5-6.8,8.6c-0.5,0.8-4.7,6.4-12.6,16.9
		c-5.1,7.1-9.3,12.6-12.6,16.4c-1.9,2.3-3.6,3.5-5,3.5c-1,0-2.5-0.6-4.3-1.8c-0.7-0.1-1.5-0.6-2.2-1.4l0.1-0.2
		c-0.3-0.8-0.6-2.6-0.9-5.4c0.2-0.5,0.2-0.8,0.2-1l-0.1-0.2l0.1-0.3L24.9,37c0.2-0.3,0.2-0.5,0.2-0.7v-1.7c0-0.4,0.1-0.6,0.2-0.6
		l-0.1-0.3c0.3-1.2,0.5-2,0.6-2.2c-0.1-0.1-0.1-0.3-0.1-0.5c0.2-0.1,0.3-0.1,0.4-0.1c-0.2-0.3-0.2-0.5-0.2-0.7
		c0.4-1.1,0.6-1.7,0.6-1.8h-0.1c-1,1.2-5.6,7.1-13.8,17.7c-2.6,3.5-4.5,5.2-5.5,5.2H6.4c-0.4,0-1.4-0.5-2.9-1.4
		c-1.6-0.5-2.8-1.3-3.5-2.3v-1c0-1.1,0.5-2.9,1.4-5.3c0-0.4,0.2-1,0.7-1.7h0.1C2,40.1,2,40.4,2,40.6h0.2c0-0.8,0.4-2.1,1.2-3.8
		c-0.1-0.2-0.1-0.3-0.1-0.4c0.1,0,0.4-0.9,0.9-2.6l0.4-0.3l-0.1-0.6c0.1-0.2,0.1-0.3,0.1-0.4l-0.7,1.4l-0.1-0.3
		c0.7-2.1,1.3-3.9,1.8-5.3h0.2c0,0.2,0,0.3-0.1,0.5V29h0.1c0.1-0.5,0.4-1,0.9-1.6c-0.1-0.1-0.1-0.3-0.1-0.5c0.2,0,0.5-0.4,1-1.2
		c-0.1-0.2-0.1-0.3-0.1-0.4l0.3-0.1c0,0.1,0,0.1,0.1,0.1c0.2-1.1,0.4-2.2,0.7-3.3c-0.1,0-0.1,0-0.1-0.1c0.2,0,0.7-0.9,1.2-2.8
		c0.2,0,0.4-0.1,0.4-0.4c-0.1-0.2-0.1-0.3-0.1-0.4H10l0.2,0.1V18L10,17.7h0.1l0.3,0.1c0.2-0.6,0.4-1,0.4-1.2l-0.2,0.1h-0.1v-0.1
		c0.4-1.2,0.8-1.8,1.1-1.8c0-0.4,0.4-1.4,1.3-2.9c-0.1-0.1-0.1-0.3-0.1-0.5c0.2-0.1,0.5-0.8,0.9-1.8V9.3l-0.2-0.4
		c0.5,0,1.1-1.7,1.8-5.1l0.4-0.2h0.3c0.2,0,0.2,0.1,0.2,0.2v0.2l-0.5,1.4l0.1,0.2c-0.2,0.3-0.2,0.5-0.2,0.7v0.1h0.1
		c0.4-1.6,0.8-2.5,1-2.5h0.3l0.7,0.1c0.1-0.1,0.3-0.1,0.6-0.1c1.3,0.7,2,1,2,1.1v0.6c-0.7,1.7-1.4,4.4-2.2,7.9
		c-1.4,4.4-4.2,12.6-8.4,24.6h0.1c0.4-0.1,1.4-1.2,2.9-3.3h0.1v0.1l-1.6,2.2v0.1c1.2-1.2,2.4-2.5,3.8-3.8c0-0.3,0.5-0.8,1.6-1.6
		v-0.5c1-1.2,1.8-2.2,2.2-3.1c0.5-0.4,1.4-1.7,2.8-4c0.1,0,0.5-0.4,1.1-1.2c3.5-3.8,5.2-6.1,5.2-6.9c0.6-0.5,0.9-0.7,1-0.7l2.3,0.7
		c0.2-0.1,0.3-0.1,0.4-0.1c0,0.2,0.5,0.5,1.6,0.7c0,0.1,0.4,0.4,1.2,0.9l0.1,0.6c-0.7,0.9-1.3,2.9-1.9,5.9c-1,5.9-1.7,10.4-2.1,13.4
		c0,0.1,0,0.1,0.1,0.1l-0.1,1.5V42c0.3-0.2,0.8-0.7,1.4-1.5v-0.1L31,41.3l-0.1-0.2c0.9-0.9,1.6-1.9,2.2-3c0.1,0,0.6-0.4,1.2-1.1
		c0,0.1,0,0.1,0.1,0.1c0,0.1-0.2,0.5-0.7,1v0.1H34c0.9-1.2,1.5-1.9,2-1.9c0.7-0.6,1.4-1.8,2.1-3.5l0.9-1.1v-0.1h-0.1
		c-0.2,0.1-0.3,0.1-0.4,0.1v-0.1c0-0.2,0.1-0.2,0.2-0.2c0.1,0,0.1,0,0.1,0.1c0.3,0,0.8-0.6,1.7-1.7c0.8-0.8,1.4-1.6,1.6-2.2
		c1.3-1.8,2.4-3.1,3.2-3.8c0.2-0.1,0.7-0.7,1.5-1.8c-0.1-0.2-0.1-0.3-0.1-0.4l2.5-3.3c0.5,0,0.8-0.4,1-1.1c0.1-0.3,0.5-0.8,1.3-1.6
		c0-0.4,0.4-0.9,1.1-1.3c1.9-2.5,3.3-4.6,4.2-6.3c2.7-3.3,4.3-5.2,4.9-5.8c1.2-1.1,1.8-1.7,1.8-1.8h0.1c0.1,0,0.1,0,0.1,0.1L64,0.2
		h0.1L63,1.7v0.1h0.1C64.2,0.6,64.8,0,65.1,0z M1.7,41.1v0.1H2c0-0.1,0-0.2,0.1-0.4H2C1.8,40.8,1.7,40.9,1.7,41.1z M2.7,37.4
		l0.1,0.2l-0.2,0.1L2.7,38c-0.3,0.9-0.5,1.4-0.6,1.4L2,39.1v-0.1C2.4,37.9,2.6,37.4,2.7,37.4z M3.3,34.8h0.2v0.5H3.3V34.8z
		 M5.1,30.6c0,0.3-0.2,0.8-0.5,1.5v0.2h0.1c0-0.2,0.2-0.8,0.6-1.7H5.1z M16.2,32.8h0.2c0-0.1,0.2-0.5,0.7-1.1v-0.1
		C17.1,31.6,16.8,32,16.2,32.8z M21.2,23.9l0.1,0.2l-0.2,0.1l-0.1-0.2L21.2,23.9z M25.5,22.7h0.3c0-0.1,0.2-0.4,0.6-0.9h-0.1
		C26.1,21.8,25.9,22.1,25.5,22.7z M32,40.3v0.1c0.1,0,0.3-0.3,0.7-0.9v-0.1C32.7,39.4,32.4,39.7,32,40.3z M33.2,38.6
		c0,0.1-0.1,0.4-0.4,0.6v0.1c0.2-0.3,0.4-0.4,0.5-0.4v-0.4H33.2z M37.6,32.9v0.1c-0.2,0.4-0.3,0.6-0.5,0.6v-0.2
		C37.1,33.3,37.2,33.1,37.6,32.9z M37.9,32.2H38v0.1c-0.1,0.4-0.3,0.6-0.5,0.6v-0.3C37.7,32.3,37.8,32.2,37.9,32.2z M39.4,30.2h0.1
		v0.1c-0.2,0.4-0.3,0.6-0.5,0.6v-0.4C39,30.5,39.2,30.4,39.4,30.2z M39.9,29.5h0.2v0.1c0,0.1-0.2,0.3-0.5,0.5v-0.4
		C39.7,29.6,39.8,29.5,39.9,29.5z M41,28.1h0.1v0.1c0,0.1-0.2,0.4-0.7,0.7v-0.1C40.7,28.4,40.9,28.1,41,28.1z M41.8,27.1h0.1v0.1
		c-0.3,0.3-0.4,0.5-0.4,0.6h-0.2v-0.1C41.5,27.4,41.6,27.1,41.8,27.1z M42.7,25.5H43v0.3c-0.7,0.9-1,1.3-1.1,1.3V27L42.7,25.5z
		 M44,24.2h0.1v0.1c0,0.1-0.2,0.3-0.5,0.5h-0.1v-0.1C43.5,24.5,43.6,24.4,44,24.2z M44.8,23.1v0.2c0,0.1-0.1,0.2-0.4,0.4h-0.1v-0.1
		C44.3,23.4,44.5,23.3,44.8,23.1z M47.5,19.2h0.1v0.1c-0.7,1-1,1.5-1.1,1.5v-0.2C47.1,19.7,47.4,19.3,47.5,19.2z M47.9,18.8H48v0.1
		c0,0.2-0.1,0.2-0.3,0.2h-0.1V19C47.7,18.8,47.8,18.8,47.9,18.8z M48.3,18.3h0.1v0.1c0,0.2-0.1,0.3-0.2,0.3H48v-0.1
		C48,18.4,48.1,18.3,48.3,18.3z M49.8,16.3h0.1v0.1c0,0.1-0.2,0.3-0.6,0.6h-0.1C49.4,16.5,49.6,16.3,49.8,16.3z M50.2,15.7h0.1
		c0,0.2-0.1,0.3-0.2,0.3H50C50,15.8,50.1,15.7,50.2,15.7z M50.7,15.1l0.1,0.2l-0.2,0.1l-0.1-0.2L50.7,15.1z M51.2,14.2h0.2v0.1
		c0,0.1-0.1,0.2-0.4,0.4H51C51.1,14.5,51.2,14.3,51.2,14.2z M54.2,12.8h0.5c0-0.3,0.1-0.5,0.2-0.5c0,0.1,0,0.1,0.1,0.1l0.1-0.2v-0.1
		h-0.4C54.7,12.1,54.5,12.4,54.2,12.8z M61.3,1.3l0.1,0.3c-2.9,3.4-4.9,5.9-6,7.6h-0.2V9l4.7-6.2C60,2.9,60.4,2.3,61.3,1.3z"/>
	<path class="st0" d="M96.7,0c1.7,0.4,2.6,1.1,2.6,2c1.5,2.6,2.2,4.4,2.2,5.4c-0.2,1.3-0.3,2-0.3,2.3c0.1,0,0.5-0.1,1-0.4
		c0.1,0.1,0.3,0.1,0.6,0.1c0-0.2,0.4-0.3,1.3-0.3v0.3l0.6-0.1v0.1c0.1,0,0.1,0,0.1-0.1l0.9,0.1h0.3v0.3l-0.4,0.6
		c0.1,0.2,0.1,0.3,0.1,0.4c-1.4,0.8-3.5,1.9-6.3,3.1l-0.1,0.3v0.1c3.7-1.7,6-2.8,6.9-3.4l0.1,0.3c-0.5,1.1-2.5,2.4-6.1,3.8v0.1
		c0.1,0.2,0.1,0.3,0.1,0.4h-0.3l-0.4-0.3h-0.2l0.1,0.3c-0.1,0.2-0.1,0.3-0.1,0.5h-0.1l-0.6-0.1c0,0.2-0.2,0.4-0.5,0.7
		c0.1,0,0.2,0,0.4,0.1c0.2-0.1,0.3-0.1,0.4-0.1c0,0.1,0,0.1,0.1,0.1l1.2-0.9l0.2,0.1c0.4-0.3,0.7-0.5,0.9-0.5v0.1
		c-0.1,0.3-1,0.7-2.6,1.5c0,0.2,0.1,0.3,0.4,0.3v0.3c-1.6,0.5-2.4,1.2-2.4,2l-0.3,0.4c0.1,0.2,0.1,0.3,0.1,0.5
		c-0.3,0.1-1.7,2.5-4.3,7c-2.8,4.4-5.1,8.4-7,12c-0.7,1.3-1.4,2.2-2.2,2.5c-1.4,2.8-2.4,4.3-3.2,4.4v0.3c0.2,0,0.3,0,0.3,0.1
		c0,0.2-0.6,0.9-1.8,2.2c-0.9-1.2-1.6-1.8-2-1.8h-0.8l0.1-0.7l-1.2-1.2c-0.2,0-0.3-0.2-0.4-0.6c0.5-1.3,2.9-5.4,7.2-12.1
		c0-0.4,1.1-2.2,3.2-5.4l0.6-1.2v-0.1l-3.6,1.5c0-0.1,0-0.1-0.1-0.1c-0.1,0.5-3.8,2.3-11.1,5.4c-0.4,0.3-1.2,0.7-2.4,1.3
		c-2.3,4-3.9,6.6-4.7,7.9c-1.2,1.9-1.8,2.8-1.9,2.8v-0.1c0.3-0.4,0.4-0.7,0.4-0.9h-0.3c-0.6,1.3-1.4,2.5-2.3,3.8l0.1,0.3v0.3h-0.1
		l-0.2-0.1c-0.6,0.8-1.8,1.9-3.6,3.2h-0.1c-0.3-0.3-0.7-0.6-1.2-0.7l0.1-0.3c0-0.1-0.5-0.5-1.4-1.2l-0.8,0.1c-0.2,0-0.3-0.1-0.3-0.3
		v-0.1l0.3-0.4c-0.6-0.3-0.9-0.5-0.9-0.7v-0.5c-0.2,0-0.2-0.1-0.2-0.3c0.7-0.7,2-2.7,4.1-6v-0.1c-4.6,2.3-7.4,3.6-8.3,3.8
		c-0.2-0.3-0.5-0.5-0.8-0.5c-0.4-0.4-0.9-1-1.4-1.7c-0.8-0.9-1.3-1.3-1.4-1.3c-0.3,0-0.4-0.1-0.4-0.3l0.1-0.3
		c-0.4-0.4-0.7-0.7-0.9-1.2v-0.7c0.9-0.5,2.5-1.4,5-2.5c2.5-1.4,3.9-2,4.1-2c2.4-1.5,6.2-3.5,11.3-5.8c0.7-0.1,1.7-1.4,3.1-4.1
		c4.1-7,6.6-11,7.4-12.1h0.3v0.1l-0.6,1.2v0.1c0.7-0.9,2-3.2,3.8-6.9c0.3-0.3,0.8-1.3,1.5-3.1l0.3-0.1c1.6,0,3,1.9,4.3,5.7v0.3
		c-2.9,5.5-5,9.2-6.3,11.3c-0.4,0.6-0.5,1-0.5,1.2h0.1c0.5-0.4,1.9-1,4.3-2c8-3.9,12-5.8,12.2-5.8c0.3-0.3,0.7-1.2,1.4-2.6
		c0.1,0,0.4-0.4,0.9-1.2h0.3l-0.1-0.7l0.2-0.1c0,0.1,0,0.1,0.1,0.1c0-0.2,0.3-1,1-2.3c0.4-1,0.7-2,0.9-3.1c-0.2,0-0.3-0.1-0.3-0.3
		V3.4c0.2-0.2,0.3-0.7,0.4-1.5l-0.4-1.7C96.6,0.1,96.7,0.1,96.7,0z M61.6,43.5v0.1c0.1,0,0.3-0.1,0.4-0.4v-0.1
		C61.9,43.1,61.8,43.3,61.6,43.5z M66,24.1c0.1,0,0.3-0.2,0.5-0.7v-0.1C66.2,23.4,66,23.7,66,24.1z M68.5,33.2h0.1
		c0.2,0,0.2-0.1,0.2-0.3h-0.1C68.6,32.9,68.5,33,68.5,33.2z M70,32.3v0.2h0.1c1.7-0.7,2.5-1.1,2.6-1.3h-0.1
		C70.9,31.9,70.1,32.3,70,32.3z M72,13.9V14c0.2,0,0.3-0.1,0.3-0.3v-0.1C72.1,13.6,72,13.7,72,13.9z M74.7,8.5l0.1,0.3
		c0,0-0.3,0.3-0.8,0.9h-0.1V9.5C74.4,8.8,74.6,8.5,74.7,8.5z M76.2,29.4v0.2h0.1c0.1-0.1,0.3-0.2,0.5-0.2v-0.1h-0.2
		C76.4,29.3,76.3,29.4,76.2,29.4z M77.1,28.9v0.3c0.3-0.2,0.5-0.3,0.6-0.3v-0.1h-0.3C77.3,28.9,77.2,28.9,77.1,28.9z M77.9,28.8H78
		c0.2,0,0.3-0.1,0.3-0.3h-0.1C78,28.5,77.9,28.6,77.9,28.8z M78.4,28.4v0.1h0.3c0.2-0.1,0.3-0.1,0.4-0.1v-0.1h-0.1
		C78.8,28.3,78.6,28.4,78.4,28.4z M79.8,27.9h0.3c0.2,0,0.2-0.1,0.2-0.3h-0.2C79.9,27.6,79.8,27.7,79.8,27.9z M80.5,27.6h0.1
		c0.8-0.3,1.4-0.6,1.5-0.9h-0.3C80.9,27.2,80.5,27.5,80.5,27.6z M82.2,26.6v0.1h0.3c1.1-0.6,1.8-0.9,2-0.9v-0.1H84
		C83,26.3,82.4,26.6,82.2,26.6z M83.1,21.8h0.1c0.3-0.2,0.8-0.4,1.4-0.6v-0.3C83.7,21.3,83.1,21.6,83.1,21.8z M85.2,25.4h0.1
		c0.4-0.1,0.5-0.3,0.5-0.4h-0.1C85.3,25.1,85.2,25.3,85.2,25.4z M86.3,20v0.1H87c0.9-0.6,1.5-0.9,1.8-0.9v-0.1h-0.4
		C87.9,19.5,87.2,19.8,86.3,20z M98,17.8V18h0.1c0.2-0.1,0.3-0.1,0.4-0.1v-0.3h-0.3C98.1,17.6,98,17.7,98,17.8z M101.8,14.8
		c0,0.2-0.3,0.4-1,0.6v-0.3C101.3,14.9,101.7,14.8,101.8,14.8z M102.1,14.5h0.3v0.3h-0.5C101.8,14.6,101.9,14.5,102.1,14.5z"/>
	<path class="st0" d="M134.9,0.1c1.1,0,1.9,0.2,2.4,0.5c1.8,1.5,2.7,2.3,2.8,2.4c0,0.9-0.6,2.8-1.8,5.9c-0.6,1.4-1.5,3.8-2.7,7.2
		l-0.2,0.3v0.2c1-0.3,1.7-0.4,2-0.6l0.5,0.1c0-0.1,0.2-0.2,0.7-0.3c0.1,0.1,0.2,0.1,0.3,0.1c0-0.1,0.7-0.3,2.1-0.6
		c0.7-0.3,1.3-0.4,1.9-0.5V15l0.2-0.1h0.2l0.7,0.1c0-0.1,0.3-0.2,0.8-0.3c0.2-0.1,0.3-0.2,0.3-0.4l0.6-0.1c0.4,0.1,0.6,0.1,0.8,0.1
		v0.1c0,0.1-0.1,0.2-0.3,0.2v0.1h0.3c0.1,0,0.2-0.1,0.2-0.2c-0.1,0-0.1,0-0.1-0.1c0.3-0.2,0.6-0.3,1-0.4c1,0.3,1.5,0.4,1.7,0.4
		c0-0.1,0.1-0.2,0.2-0.2h0.2c0.4,0,0.6,0.1,0.7,0.4c-0.3,0.1-0.4,0.2-0.4,0.3c0.1,0,0.1,0,0.1,0.1c-0.1,0.1-0.2,0.1-0.3,0.1
		l-0.5-0.1l0.1,0.2c0,0.1-0.1,0.2-0.2,0.2h-0.5v0.1c0.1,0.1,0.1,0.2,0.1,0.3l-0.2,0.1h-0.5v0.2h0.1c0.1-0.1,0.2-0.1,0.3-0.1v0.1
		c0.2-0.1,0.4-0.2,0.6-0.2V16c0,0.1-0.8,0.4-2.3,0.7c-0.5,0.1-0.8,0.3-0.8,0.5h-0.3l-0.3-0.2c-0.2,0.2-0.5,0.3-1,0.4v0.1
		c0.1,0,0.3,0.1,0.6,0.4c0.1-0.1,0.2-0.1,0.3-0.1v0.1c0,0.1-0.1,0.2-0.3,0.3l-0.2-0.1c0,0.1-0.1,0.2-0.2,0.2H144V18h0.6v-0.1
		c0-0.1-0.1-0.2-0.4-0.3c0,0.1-0.1,0.2-0.2,0.2h-0.2v-0.3h-0.2v0.1l0.1,0.2l-0.2,0.1h-0.2v-0.2h-0.4v0.2l0.2-0.1h0.1v0.1
		c0,0.2-0.7,0.4-2.1,0.6c0,0.1,0.1,0.2,0.2,0.2c0.3-0.1,0.7-0.2,1.5-0.4h0.1v0.2c-0.1,0-0.2,0-0.3,0.1l0.1,0.2v0.1l-0.3-0.2h-0.1
		c-0.4,0-0.6,0.2-0.6,0.3h0.3v-0.2h0.3v0.3c-0.6,0.1-1.2,0.2-1.8,0.5c-0.1-0.1-0.2-0.1-0.3-0.1c0,0.1-0.1,0.2-0.2,0.2l-0.3-0.2
		l-0.2,0.1l-0.2-0.1L138,20c-0.1-0.1-0.2-0.1-0.3-0.1c-0.5,0.3-0.7,0.5-0.7,0.6c-1.1,0.3-1.9,0.6-2.3,0.9l0.1,0.2v0.2
		c-0.1,0.2-0.3,0.3-0.6,0.3l-0.5-0.1c0,0.2-0.2,0.4-0.6,0.5l-2.4,5.9l-5,12.3c-0.3,0.5-1,2.2-2.2,5.1c-1.4,2.8-2.2,4.4-2.2,4.9
		c-0.2,0.4-0.4,0.6-0.5,0.6h-0.1c-0.1,0-0.2-0.1-0.2-0.3l-0.6,0.3c0-0.3-0.2-0.5-0.6-0.6c0-0.1-0.2-0.3-0.6-0.6
		c0,0.1-0.1,0.2-0.3,0.3c0-0.1-0.1-0.3-0.4-0.7c-0.2,0.1-0.4,0.2-0.6,0.2h-0.1v-0.2c0-0.1,0-0.3,0.1-0.4c-0.1-0.5-0.2-0.7-0.4-0.7
		c0.9-3.3,1.5-5.1,2.1-5.5c-0.1,0-0.2-0.1-0.2-0.2c0.2,0,0.4-0.4,0.7-1.1l0.2-0.1l-0.1-0.2v-0.3c0.9-1.5,1.7-3.5,2.7-6l-0.1-0.2
		c0.5-1,1.1-2.3,1.7-4.1c0.3-0.3,0.8-1.4,1.5-3.4c0.3-0.3,0.7-1.1,1.1-2.5c0.2-0.3,0.3-0.5,0.3-0.8c-0.1,0.1-0.2,0.1-0.3,0.1
		c0-0.1,0-0.1-0.1-0.1c0,0.1-0.1,0.2-0.2,0.2h-0.1l-0.3-0.2h-0.1l-0.3,0.2c-0.1,0-0.2-0.1-0.2-0.3c-0.7,0-1.8,0.3-3.2,0.9l0.2,0.5
		c-1.2,0.5-2.3,0.9-3.5,1.2c-0.7,0.2-1.1,0.3-1.3,0.4h-0.1l-0.3-0.2H117l0.1,0.2l-0.2,0.1c0-0.1-0.1-0.2-0.2-0.2h-0.2l0.1,0.2v0.2
		l-6.2,2c-0.6,0-1.9,1.1-3.9,3.3c-6.9,6.2-11.6,9.6-14.2,10.3c-0.1,0-0.3,0-0.4,0.1c-0.7-0.1-1.5-0.5-2.2-1.2
		c-0.1-0.1-0.5-0.3-1.2-0.8c0.1,0,0.1,0,0.1-0.1c-0.1,0-0.2-0.1-0.2-0.2v-0.3c0.1-0.2,1.4-0.9,3.9-2.2c2.8-2.1,5-3.9,6.7-5.5v-0.1
		c-2.3,0.6-4.2,1-5.7,1.3c-0.1-0.1-0.2-0.1-0.4-0.1c0,0.1-0.2,0.2-0.5,0.3L92.4,34c0.1,0,0.1,0,0.1-0.1c-0.5,0-1.1-0.5-2-1.4
		l-0.6-0.1h-0.4v-0.1l0.2-0.3v-0.1c-0.3,0-0.5-0.2-0.8-0.6v-0.4c0.7-0.5,2.7-1.1,6-1.9c1-0.4,3-1.1,6.2-1.9c1.3-0.5,2.6-1,3.9-1.3
		c0-0.1,0.3-0.2,0.8-0.4v0.1c1.1-0.3,1.9-0.8,2.6-1.6c0.3,0,0.5-0.2,0.6-0.6c0.2,0,0.6-0.4,1.3-1.2c0.3,0,0.5-0.2,0.6-0.5
		c0.3-0.4,1.3-1.4,2.9-2.9l5.1-5c2.1-1.9,3.1-2.9,3.2-2.9c0.6-0.7,1.5-1.6,2.9-2.7c0.1,0.1,0.2,0.1,0.3,0.1c0.1-0.4,0.3-0.6,0.4-0.6
		c0,0.1,0,0.1,0.1,0.1c0-0.3,0.2-0.4,0.7-0.4l-0.1-0.2V7.2c0-0.1,0.1-0.2,0.2-0.2c0,0.1,0,0.1,0.1,0.1c0.4-0.4,0.6-0.7,0.6-0.8
		l0.2,0.1h0.1c0-0.5,1.2-1.7,3.5-3.5c0.3-0.4,1-1,1.9-1.7C133.3,1,133.9,0.6,134.9,0.1z M132.8,8.1V7.8c-2.6,2-7.6,6.7-15.1,13.9
		h-0.1V22c5.8-1.7,9.5-2.9,11.1-3.5c0-0.1,0-0.1,0.1-0.1c0.1,0,0.1,0,0.1,0.1c0.3,0,0.8-1.2,1.6-3.5c1-2.3,1.5-3.6,1.5-3.8
		c-0.1,0-0.3,0.4-0.6,1.1h-0.1c0-0.1,0-0.1-0.1-0.1c0.4-1,0.6-1.5,0.7-1.6l-0.1-0.2v-0.1c0.2-0.2,0.5-0.9,0.9-2.2L132.8,8.1
		L132.8,8.1c0,0.5-0.2,1.1-0.6,1.9v0.3c0.1,0,0.5-1,1.2-3h-0.1L132.8,8.1z M126.9,6.6L126.9,6.6c0.1,0.1,0,0.2-0.2,0.3V6.8
		C126.7,6.7,126.8,6.6,126.9,6.6z M134.1,21.9h0.2c0.1,0,0.2-0.1,0.2-0.2v-0.1h-0.1C134.4,21.6,134.3,21.7,134.1,21.9z M136.5,19.8
		L136.5,19.8l-0.3-0.1c0,0.1-0.2,0.3-0.5,0.4h-0.3l-0.4-0.3v0.1l0.1,0.2l-0.2,0.1c0-0.1-0.1-0.2-0.2-0.2h-0.1l0.1,0.2
		c-0.1,0-0.2,0.1-0.2,0.2v0.1l2.4-0.7c0-0.1-0.1-0.2-0.2-0.2L136.5,19.8z M137.1,19.7h0.2c0.1-0.1,0.2-0.1,0.3-0.1v-0.1h-0.3
		C137.2,19.5,137.1,19.6,137.1,19.7z M137.6,19.4c0.1,0,0.2,0,0.3,0.1h0.2v-0.1c-0.2,0-0.3-0.1-0.3-0.2
		C137.7,19.2,137.6,19.3,137.6,19.4z M137.9,19.8h0.3v-0.2h-0.1C137.9,19.6,137.9,19.7,137.9,19.8z M138.5,19.2
		c0,0.1,0.1,0.2,0.2,0.2l0.1-0.2H138.5z M140.3,18.8L140.3,18.8l0.3,0.1v-0.2C140.4,18.8,140.3,18.8,140.3,18.8z M140.7,18.7h0.3
		v-0.2h-0.1C140.8,18.5,140.7,18.6,140.7,18.7z M141,19.1L141,19.1c0.2,0,0.3-0.1,0.3-0.2h-0.1C141.1,18.9,141,19,141,19.1z
		 M145,14.8l-0.1,0.2h0.1c0.1-0.1,0.2-0.1,0.3-0.1v-0.1H145z M149.4,15.7h0.3v0.2h-0.3V15.7z"/>
	<path class="st0" d="M187.3,0c0.3,0.1,0.5,0.3,0.5,0.4c-0.1,0-0.2,0.1-0.2,0.2c0.7,0,1.1,0.2,1.3,0.7c0.1,0,0.2,0.1,0.3,0.3
		l-0.5,0.4h0.1l0.2-0.1c0.4,0.1,0.6,0.3,0.6,0.6c-0.2,0.2-0.9,0.4-1.9,0.6c-0.1-0.1-0.2-0.1-0.3-0.1v0.5c0.2-0.2,0.5-0.3,1.1-0.5
		c0.4,0.1,0.6,0.2,0.6,0.3c-0.2,0.2-0.8,0.4-1.7,0.6c0,0.1-0.7,0.3-2,0.5h-0.7c0,0.1-0.2,0.2-0.5,0.4h0.3v0.2l-0.6,0.1v0.1h0.7v0.2
		c-1.3,0.4-2,0.5-2.1,0.5v0.1h0.2l0.6-0.1l0.1,0.2v0.1c-1.6,0.3-4.1,0.8-7.3,1.7c-1.9,0.6-4.4,1.2-7.3,1.9l-0.1-0.2
		c0.5-0.2,1.3-0.4,2.4-0.6V9.2h-0.3c-1.9,0.5-3,0.7-3,0.8c0.1,0.1,0.1,0.2,0.1,0.3c-0.3,0-0.8,0.7-1.2,2c-1.3,3.2-5.5,8.9-12.3,17.2
		c-3.4,4-8,10.1-13.8,18.2c-0.7,1-1.4,2.2-2.1,3.6l-0.4-0.3h-0.2l-0.3,0.2c-0.1-0.3-0.2-0.5-0.2-0.8c0.1,0,0.1,0,0.1-0.1
		c-0.4,0-0.5-0.3-0.5-0.8c0.1,0,0.1,0,0.1-0.1h-0.2l-0.3,0.2c-0.1-0.3-0.2-0.7-0.2-1.2c0.1,0,0.1,0,0.1-0.1l-0.2-0.1v0.4h-0.4
		c-0.1,0-0.2-0.1-0.2-0.2v-0.1l0.1-0.7c-0.1,0-0.2-0.1-0.2-0.3c0.2-0.9,0.7-1.8,1.5-2.8c0.4-0.7,0.8-1.2,1.5-1.5l0.2-0.3v-0.1h-0.2
		c0-0.2,0.6-1.3,1.9-3l0.4-0.4v-0.1l-0.1-0.2l0.4-0.2l-0.1-0.2v-0.1c0.8-1.1,1.3-1.6,1.7-1.7l0.1-0.2c-0.1-0.1-0.1-0.2-0.1-0.3
		c0.3,0,0.7-0.3,1.2-1c-0.1-0.1-0.1-0.3-0.1-0.4h0.2l0.2,0.1c0-0.1,0.6-0.9,1.9-2.4l2.7-3.8l-0.1-0.2c1.3-1.7,2.5-3.2,3.8-4.5
		c0.2,0,1-0.7,2.3-2.2l0.5-0.1v-0.1l-0.2-0.3c0.8-1.1,1.3-1.7,1.4-1.7c0.1,0.1,0.2,0.1,0.3,0.1c0-0.3,0.5-1.1,1.6-2.3l-0.1-0.2
		c0.3-0.6,0.8-1,1.2-1.4c-0.1-0.1-0.1-0.2-0.1-0.3c0.1,0,0.5-0.4,1.2-1.2l0.1,0.2c-0.1,0-0.3,0.3-0.7,0.9h0.1
		c0.2-0.1,0.8-0.9,1.8-2.6v-0.2c-0.2,0-0.3-0.1-0.3-0.3h-0.1c-0.1,0.1-0.9,0.3-2.2,0.5c-3.9,1.2-8.1,2.4-12.5,3.5
		c-1.5,0.6-3.5,1.2-6,1.8c-0.1-0.3-0.2-0.4-0.3-0.4l-0.5,0.1c0-0.1,0-0.1-0.1-0.1l0.1-0.5c-0.4-0.6-0.6-0.9-0.7-0.9l-0.3-0.3V15
		c-0.3,0-0.8-0.6-1.4-1.8c-0.1,0-0.2-0.1-0.2-0.2c0.4-0.3,1.8-0.7,4.4-1.4c3.9-1.4,10.9-3.3,21-5.8C177.4,2,185.6,0,187.3,0z
		 M157,18.9h0.1c0.1,0,0.2-0.1,0.4-0.4v-0.1C157.4,18.4,157.2,18.5,157,18.9z M157.8,18L157.8,18c0.1,0,0.2,0,0.3,0v-0.2H158
		C157.8,17.8,157.8,17.8,157.8,18z M171.4,9.1L171.4,9.1l0.2,0.1c0.2-0.1,0.4-0.2,0.5-0.2V8.8H172C171.8,9,171.6,9.1,171.4,9.1z
		 M173.9,8.3l-0.1,0.2h0.3C174.1,8.4,174,8.3,173.9,8.3z M176.2,7.8v0.1h0.3c0.1-0.1,0.2-0.1,0.4-0.1V7.7h-0.1L176.2,7.8z
		 M177.5,7.5v0.1h0.3c0.3-0.1,0.5-0.2,0.7-0.2V7.3h-0.3C178,7.4,177.7,7.5,177.5,7.5z M178.6,7.2L178.6,7.2l0.4,0.1V7.2H178.6z
		 M179.3,7v0.1h0.2l2.8-0.6V6.3h-0.3C180.6,6.7,179.7,7,179.3,7z M183.2,4.6v0.2h0.1c0.1,0,0.2-0.1,0.2-0.2H183.2z M183.7,4.4v0.1
		h0.1c0.4-0.1,0.7-0.1,1-0.1V4.3c0-0.1-0.1-0.2-0.3-0.3h-0.1C184.1,4.3,183.9,4.4,183.7,4.4z M184.7,3.8v0.1c0,0.1,0.2,0.2,0.5,0.4
		c0.1-0.1,0.2-0.1,0.3-0.1l-0.2-0.3h0.2l0.7,0.2c0.1-0.1,0.2-0.1,0.3-0.1V3.9h-0.3V3.8c0-0.1,0.2-0.2,0.5-0.2V3.4
		C186.1,3.5,185.4,3.6,184.7,3.8z M184.8,4.9h0.3v0.2H185C184.8,5.1,184.8,5,184.8,4.9z M186.8,3.7v0.2h0.5V3.7H186.8z"/>
	<path class="st0" d="M233.6,0.1h0.1l0.3,0.2c0-0.1,0.1-0.2,0.3-0.2c0.8,0.1,1.7,0.9,2.8,2.2l0.7,0.8c0.2,0,0.2,0.1,0.2,0.2v0.1
		c-2.8,6.6-9.5,18.4-20.1,35.4c-3.7,6-5.8,10.1-6.2,12.1c-0.2,0.2-0.3,0.3-0.3,0.3h-0.1c-0.1-0.1-0.4-0.2-0.7-0.2
		c0,0.1-0.1,0.2-0.2,0.2l-0.7-1.2c-0.6-0.2-0.9-0.4-0.9-0.7c0-0.1-0.2-0.3-0.7-0.5c0,0.3-0.1,0.5-0.2,0.5l-0.2-0.3
		c0-0.3,0.1-0.8,0.2-1.5c0-0.2-0.1-0.5-0.3-0.9v-0.1c0.2-0.2,0.4-0.9,0.6-2.1c0.5-0.4,1-1.3,1.5-2.6c0.8-1.9,2-3.7,3.4-5.5h0.1v-0.7
		c1-1.5,1.6-2.3,1.8-2.3l-0.1-0.2c1-1.2,2.7-3.8,5-7.7c0.2,0,0.4-0.7,0.8-2c1.2-1.3,2.2-2.7,2.8-4.1l0.2-0.1h0.1l0.2,0.1
		c0-0.1,0.1-0.2,0.2-0.2l-0.1-0.6v-0.2c0-0.1,0.1-0.2,0.2-0.2c0.1,0,0.1,0,0.1,0.1c0.4,0,1-0.8,1.6-2.4h-0.1
		c-1.8,1.8-7.6,8.3-17.4,19.7c-1.7,1.9-3.3,2.8-4.6,2.8c-0.5-0.1-1.2-0.8-2.2-1.9l-1.7-1.2c-0.2-0.8-0.4-1.3-0.4-1.6
		c0.3-3.6,0.7-6.5,1.2-8.9c0.1,0,0.1,0,0.1-0.1c0-0.2,0-0.3-0.1-0.5c0.2-1.7,0.5-3.3,0.8-4.7c0-0.1,0-0.1-0.1-0.1
		c0.4-3.1,0.6-4.6,0.8-4.6l-0.1-0.6v-0.1c0-0.1,0-0.1,0.1-0.1c-0.1-0.1-0.1-0.3-0.1-0.3l0.1-0.6h-0.2c-0.1,0.5-2.3,4.1-6.5,10.7
		c-9.3,14.2-13.9,21.5-13.9,21.8l0.1,0.7c-0.5,0.8-0.9,1.1-1.2,1.1c-1,0-1.5-0.2-1.5-0.7c-0.1,0-0.2-0.1-0.3-0.3v-0.1l0.1-0.2
		c-0.2,0-0.7-0.3-1.6-0.8c-0.5,0-0.7-0.2-0.7-0.6c-0.1,0-0.2-0.1-0.2-0.2v-0.6c0-0.5,0.6-1.6,1.9-3.4c1.6-2.8,2.8-4.7,3.7-5.8v0.2
		l-0.1,0.2h0.2c1.1-1.8,2.8-4.2,5.1-7.3c1.3-1.7,2.5-3.6,3.7-5.8c4.6-7,8.5-13.5,11.9-19.5c0.3,0.1,0.5,0.2,0.5,0.3v0.1L203,3
		c0,0.2,0,0.3,0.1,0.4C203,3.6,203,3.8,203,3.8h0.2c0.2-0.5,0.4-1.1,0.4-1.8l0.2-0.1h0.1c1,0.6,2,1.6,3,2.8v0.1l-0.1,0.7
		c0,0.1,0,0.1,0.1,0.1l-0.1,0.6c0,5.6-0.8,13.4-2.3,23.4c-0.1,0.5-0.1,1-0.1,1.7c0.5-0.2,2.1-1.9,4.7-5.1c2.3-2.8,4.1-4.9,5.5-6.3
		h0.1l-0.1,0.6c0.4-0.2,1.6-1.4,3.6-3.7c0.1,0,0.5-0.5,1.3-1.4l2.4-3.3V12l-0.3,0.2h-0.1c0-0.2,0.4-0.6,1.2-1.3h0.1v0.1l-0.2,0.4
		v0.1h0.1c1.6-1.2,3-2.7,4.3-4.4c0,0,0.5-0.6,1.5-1.7h-0.1L227,6.6l-0.1-0.2c1-1.1,2.3-2.5,3.8-4.2L233.6,0.1z M177.9,41.2h0.1
		c0.1,0,0.4-0.5,0.9-1.5c0.6-0.7,1.2-1.6,1.7-2.8C179.5,38.4,178.6,39.9,177.9,41.2z M188.6,26.5L188.6,26.5c0.1,0.1,0.2,0,0.2-0.1
		v-0.1C188.7,26.3,188.6,26.4,188.6,26.5z M189.8,24.7V25h0.1l0.2-0.7C190,24.4,189.9,24.5,189.8,24.7z M195.6,15.5
		c0,0.1-0.2,0.4-0.6,0.9v0.1h0.2c0-0.1,0.2-0.4,0.5-0.9v-0.1H195.6z M198.3,11.2l-0.1,0.2v0.2h0.1c0-0.2,0.1-0.3,0.2-0.3v-0.1H198.3
		z M198.8,10.5L198.8,10.5c0.3-0.1,0.7-0.7,1-1.7C199.7,8.8,199.4,9.4,198.8,10.5z M199.9,8.3v0.2c0.1,0,0.2-0.1,0.3-0.4h-0.1
		C200,8.1,199.9,8.2,199.9,8.3z M200.3,8c0.3-0.2,0.5-0.6,0.8-1.1c0.6,0,1.2-0.9,1.7-2.6l-0.1-0.8C202.5,3.6,201.7,5.1,200.3,8z
		 M208.7,47.2l-0.2,0.9h0.2l0.1-0.8v-0.1H208.7z M211.6,41.5c0,0,0,0.2-0.1,0.5h0.2v-0.5H211.6z M217.2,29.9c0,0.1,0,0.2-0.1,0.3
		h0.1c0.1,0,0.2-0.1,0.2-0.2v-0.1H217.2z M222.7,21h0.1c0.1,0,0.2-0.1,0.2-0.2H223C222.8,20.8,222.7,20.9,222.7,21z M223.1,20.5v0.1
		h0.2l0.1-0.5C223.3,20.2,223.2,20.3,223.1,20.5z M226,15.6h0.1c0.2,0,0.2-0.1,0.2-0.2h-0.1C226.1,15.4,226,15.5,226,15.6z
		 M227.2,15.3v0.3h0.1c0-0.1,0-0.2,0.1-0.3H227.2z"/>
	<path class="st0" d="M269,0.1c1.1,0,1.9,0.2,2.4,0.5c1.8,1.5,2.7,2.3,2.8,2.4c0,0.9-0.6,2.8-1.8,5.9c-0.6,1.4-1.5,3.8-2.7,7.2
		l-0.2,0.3v0.2c1-0.3,1.7-0.4,2-0.6l0.5,0.1c0-0.1,0.2-0.2,0.7-0.3c0.1,0.1,0.2,0.1,0.3,0.1c0-0.1,0.7-0.3,2.1-0.6
		c0.7-0.3,1.3-0.4,1.9-0.5V15l0.2-0.1h0.2L278,15c0-0.1,0.3-0.2,0.8-0.3c0.2-0.1,0.3-0.2,0.3-0.4l0.6-0.1c0.4,0.1,0.6,0.1,0.8,0.1
		v0.1c0,0.1-0.1,0.2-0.3,0.2v0.1h0.3c0.1,0,0.2-0.1,0.2-0.2c-0.1,0-0.1,0-0.1-0.1c0.3-0.2,0.6-0.3,1-0.4c1,0.3,1.5,0.4,1.7,0.4
		c0-0.1,0.1-0.2,0.2-0.2h0.2c0.4,0,0.6,0.1,0.7,0.4c-0.3,0.1-0.4,0.2-0.4,0.3c0.1,0,0.1,0,0.1,0.1c-0.1,0.1-0.2,0.1-0.3,0.1
		l-0.5-0.1l0.1,0.2c0,0.1-0.1,0.2-0.2,0.2h-0.5v0.1c0.1,0.1,0.1,0.2,0.1,0.3l-0.2,0.1H282v0.2h0.1c0.1-0.1,0.2-0.1,0.3-0.1v0.1
		c0.2-0.1,0.4-0.2,0.6-0.2V16c0,0.1-0.8,0.4-2.3,0.7c-0.5,0.1-0.8,0.3-0.8,0.5h-0.3l-0.3-0.2c-0.2,0.2-0.5,0.3-1,0.4v0.1
		c0.1,0,0.3,0.1,0.6,0.4c0.1-0.1,0.2-0.1,0.3-0.1v0.1c0,0.1-0.1,0.2-0.3,0.3l-0.2-0.1c0,0.1-0.1,0.2-0.2,0.2h-0.5V18h0.6v-0.1
		c0-0.1-0.1-0.2-0.4-0.3c0,0.1-0.1,0.2-0.2,0.2h-0.2v-0.3h-0.2v0.1l0.1,0.2l-0.2,0.1h-0.2v-0.2H277v0.2l0.2-0.1h0.1v0.1
		c0,0.2-0.7,0.4-2.1,0.6c0,0.1,0.1,0.2,0.2,0.2c0.3-0.1,0.7-0.2,1.5-0.4h0.1v0.2c-0.1,0-0.2,0-0.3,0.1l0.1,0.2v0.1l-0.3-0.2h-0.1
		c-0.4,0-0.6,0.2-0.6,0.3h0.3v-0.2h0.3v0.3c-0.6,0.1-1.2,0.2-1.8,0.5c-0.1-0.1-0.2-0.1-0.3-0.1c0,0.1-0.1,0.2-0.2,0.2l-0.3-0.2
		l-0.2,0.1l-0.2-0.1l-1.4,0.5c-0.1-0.1-0.2-0.1-0.3-0.1c-0.5,0.3-0.7,0.5-0.7,0.6c-1.1,0.3-1.9,0.6-2.3,0.9l0.1,0.2v0.2
		c-0.1,0.2-0.3,0.3-0.6,0.3l-0.5-0.1c0,0.2-0.2,0.4-0.6,0.5l-2.4,5.9l-5,12.3c-0.3,0.5-1,2.2-2.2,5.1c-1.4,2.8-2.2,4.4-2.2,4.9
		c-0.2,0.4-0.4,0.6-0.5,0.6h-0.1c-0.1,0-0.2-0.1-0.2-0.3l-0.6,0.3c0-0.3-0.2-0.5-0.6-0.6c0-0.1-0.2-0.3-0.6-0.6
		c0,0.1-0.1,0.2-0.3,0.3c0-0.1-0.1-0.3-0.4-0.7c-0.2,0.1-0.4,0.2-0.6,0.2h-0.1v-0.2c0-0.1,0-0.3,0.1-0.4c-0.1-0.5-0.2-0.7-0.4-0.7
		c0.9-3.3,1.5-5.1,2.1-5.5c-0.1,0-0.2-0.1-0.2-0.2c0.2,0,0.4-0.4,0.7-1.1l0.2-0.1l-0.1-0.2v-0.3c0.9-1.5,1.7-3.5,2.7-6l-0.1-0.2
		c0.5-1,1.1-2.3,1.7-4.1c0.3-0.3,0.8-1.4,1.5-3.4c0.3-0.3,0.7-1.1,1.1-2.5c0.2-0.3,0.3-0.5,0.3-0.8c-0.1,0.1-0.2,0.1-0.3,0.1
		c0-0.1,0-0.1-0.1-0.1c0,0.1-0.1,0.2-0.2,0.2h-0.1l-0.3-0.2h-0.1l-0.3,0.2c-0.1,0-0.2-0.1-0.2-0.3c-0.7,0-1.8,0.3-3.2,0.9l0.2,0.5
		c-1.2,0.5-2.3,0.9-3.5,1.2c-0.7,0.2-1.1,0.3-1.3,0.4h-0.1l-0.3-0.2h-0.1l0.1,0.2l-0.2,0.1c0-0.1-0.1-0.2-0.2-0.2h-0.2l0.1,0.2v0.2
		l-6.2,2c-0.6,0-1.9,1.1-3.9,3.3c-6.9,6.2-11.6,9.6-14.2,10.3c-0.1,0-0.3,0-0.4,0.1c-0.7-0.1-1.5-0.5-2.2-1.2
		c-0.1-0.1-0.5-0.3-1.2-0.8c0.1,0,0.1,0,0.1-0.1c-0.1,0-0.2-0.1-0.2-0.2v-0.3c0.1-0.2,1.4-0.9,3.9-2.2c2.8-2.1,5-3.9,6.7-5.5v-0.1
		c-2.3,0.6-4.2,1-5.7,1.3c-0.1-0.1-0.2-0.1-0.4-0.1c0,0.1-0.2,0.2-0.5,0.3l-0.1-0.2c0.1,0,0.1,0,0.1-0.1c-0.5,0-1.1-0.5-2-1.4
		l-0.6-0.1h-0.4v-0.1l0.2-0.3v-0.1c-0.3,0-0.5-0.2-0.8-0.6v-0.4c0.7-0.5,2.7-1.1,6-1.9c1-0.4,3-1.1,6.2-1.9c1.3-0.5,2.6-1,3.9-1.3
		c0-0.1,0.3-0.2,0.8-0.4v0.1c1.1-0.3,1.9-0.8,2.6-1.6c0.3,0,0.5-0.2,0.6-0.6c0.2,0,0.6-0.4,1.3-1.2c0.3,0,0.5-0.2,0.6-0.5
		c0.3-0.4,1.3-1.4,2.9-2.9l5.1-5c2.1-1.9,3.1-2.9,3.2-2.9c0.6-0.7,1.5-1.6,2.9-2.7c0.1,0.1,0.2,0.1,0.3,0.1c0.1-0.4,0.3-0.6,0.4-0.6
		c0,0.1,0,0.1,0.1,0.1c0-0.3,0.2-0.4,0.7-0.4l-0.1-0.2V7.2c0-0.1,0.1-0.2,0.2-0.2c0,0.1,0,0.1,0.1,0.1c0.4-0.4,0.6-0.7,0.6-0.8
		l0.2,0.1h0.1c0-0.5,1.2-1.7,3.5-3.5c0.3-0.4,1-1,1.9-1.7C267.4,1,268,0.6,269,0.1z M266.9,8.1V7.8c-2.6,2-7.6,6.7-15.1,13.9h-0.1
		V22c5.8-1.7,9.5-2.9,11.1-3.5c0-0.1,0-0.1,0.1-0.1c0.1,0,0.1,0,0.1,0.1c0.3,0,0.8-1.2,1.6-3.5c1-2.3,1.5-3.6,1.5-3.8
		c-0.1,0-0.3,0.4-0.6,1.1h-0.1c0-0.1,0-0.1-0.1-0.1c0.4-1,0.6-1.5,0.7-1.6l-0.1-0.2v-0.1c0.2-0.2,0.5-0.9,0.9-2.2L266.9,8.1
		L266.9,8.1c0,0.5-0.2,1.1-0.6,1.9v0.3c0.1,0,0.5-1,1.2-3h-0.1L266.9,8.1z M261,6.6L261,6.6c0.1,0.1,0,0.2-0.2,0.3V6.8
		C260.8,6.7,260.9,6.6,261,6.6z M268.2,21.9h0.2c0.1,0,0.2-0.1,0.2-0.2v-0.1h-0.1C268.5,21.6,268.3,21.7,268.2,21.9z M270.6,19.8
		L270.6,19.8l-0.3-0.1c0,0.1-0.2,0.3-0.5,0.4h-0.3l-0.4-0.3v0.1l0.1,0.2l-0.2,0.1c0-0.1-0.1-0.2-0.2-0.2h-0.1l0.1,0.2
		c-0.1,0-0.2,0.1-0.2,0.2v0.1l2.4-0.7c0-0.1-0.1-0.2-0.2-0.2L270.6,19.8z M271.2,19.7h0.2c0.1-0.1,0.2-0.1,0.3-0.1v-0.1h-0.3
		C271.3,19.5,271.2,19.6,271.2,19.7z M271.7,19.4c0.1,0,0.2,0,0.3,0.1h0.2v-0.1c-0.2,0-0.3-0.1-0.3-0.2
		C271.8,19.2,271.7,19.3,271.7,19.4z M272,19.8h0.3v-0.2h-0.1C272,19.6,272,19.7,272,19.8z M272.6,19.2c0,0.1,0.1,0.2,0.2,0.2
		l0.1-0.2H272.6z M274.3,18.8L274.3,18.8l0.3,0.1v-0.2C274.5,18.8,274.4,18.8,274.3,18.8z M274.8,18.7h0.3v-0.2H275
		C274.9,18.5,274.8,18.6,274.8,18.7z M275.1,19.1L275.1,19.1c0.2,0,0.3-0.1,0.3-0.2h-0.1C275.2,18.9,275.1,19,275.1,19.1z
		 M279.1,14.8L279,15h0.1c0.1-0.1,0.2-0.1,0.3-0.1v-0.1H279.1z M283.5,15.7h0.3v0.2h-0.3V15.7z"/>
	<path class="st0" d="M297.5,0.1L297.5,0.1h0.2c0.8,0.3,1.9,1.1,3.4,2.6v0.5c-1.1,2.4-3.4,6.3-6.7,11.5c0,0.1,0.1,0.2,0.2,0.2
		c0-0.1,0.2-0.2,0.6-0.4c0,0.1,0,0.1,0.1,0.1l-0.1,0.2V15h0.1l0.3-0.2c0.1,0.1,0.2,0.1,0.3,0.1c0-0.1,0.8-0.4,2.4-1.1
		c1.7-0.7,2.7-1.2,3-1.6h0.1c0.1,0,0.1,0,0.1,0.1c1.5-0.6,2.7-1.2,3.5-1.8c0.4-0.2,1-0.4,1.7-0.6c0,0,0.2-0.2,0.6-0.6
		c-0.1-0.1-0.2-0.1-0.3-0.1V9.1c0.4-0.4,1.4-0.8,2.8-1.2l-0.2,0.3v0.1c0.9-0.3,2.3-0.8,4.1-1.6l1.5-0.5c0,0.1,0.1,0.2,0.2,0.2
		l0.2-0.1c0.7,0.3,1.1,0.6,1.1,1.2c0.3,0,0.8,0.7,1.5,2.1v0.3c-0.4,0-2,0.7-5,2.2c-0.3,0-0.6,0.2-1.1,0.5h0.1c2.3-1,3.9-1.7,4.9-2
		v0.2c-2.3,0.8-4.2,1.8-6,2.8l-4.5,1.9c-1.2,0.7-3.7,1.9-7.8,3.8l-10.2,4.8v0.2c3.7,4,7.2,7.3,10.6,10.2c1.3,0.9,3.8,3.1,7.7,6.5
		c0.8,0.5,1.4,1.4,2.1,2.5c0.1,0,0.1,0,0.1,0.1l-0.2,0.5c-1.1,0-4.5-2.6-10.4-7.7c-1.6-1.1-3.8-3.1-6.7-6.1c0-0.1-1.4-1.6-4.2-4.6
		v-0.1h-0.2c-7.5,11.9-12.8,20.3-16,25.1l-0.4,0.3l-0.2-0.1c-0.1,0.1-0.2,0.1-0.3,0.1c-0.1-0.1-0.2-0.1-0.3-0.1
		c0,0.1-0.1,0.3-0.4,0.4l-0.1-0.2l0.3-0.4v-0.2c-0.2,0-0.6-0.2-1.2-0.6c-0.2,0-0.5-0.2-0.7-0.6h-0.1c-0.1,0.1-0.3,0.1-0.4,0.1
		c-0.4-0.5-0.6-0.7-0.8-0.7v-0.3c1.2-2.1,2.3-3.7,3.4-4.8c-0.1,0-0.2-0.1-0.2-0.2l1.5-1.9c-0.1,0-0.1,0-0.1-0.1
		c0.3,0,0.5-0.5,0.7-1.4c0.1,0,2.4-3.6,6.8-10.7h-0.2c-5.8,2.9-8.8,4.7-9.1,5.6c0,0-0.3,0-0.6,0.1c0-0.2-0.3-0.3-0.9-0.4v-0.1
		l0.1-0.2c-0.3-0.1-0.4-0.4-0.4-0.8h-0.6c-0.1,0-0.2-0.2-0.5-0.7c-0.6,0-0.8-0.2-0.8-0.7c-0.3-0.1-0.4-0.3-0.4-0.5
		c0-0.4,1-1.2,2.9-2.4c5.8-3.1,9.9-5.2,12.2-6.3c1.6-0.8,2.6-1.3,3-1.7v-0.2h-0.1c-0.4,0.1-0.6,0.3-0.6,0.4h-0.1
		c-0.1,0-0.2-0.1-0.2-0.2c0.4-0.2,0.7-0.4,0.7-0.5c-0.5-0.4-1.1-1.2-2-2.5c-0.1,0-0.3-0.2-0.7-0.7c0.1,0,0.3-0.1,0.7-0.4l0.2,0.1
		c0.1-0.1,0.2-0.1,0.4-0.1c0.9,0.8,1.8,1.8,2.9,3h0.1l2.1-2.9c0.3-0.2,0.9-1,1.7-2.4c1.1-1.5,2.1-3.1,2.9-4.6c0.3-0.3,1.6-2.4,4-6.4
		V3l-0.2,0.1V2.9c0.9-1.1,1.5-1.9,1.8-2.4V0.2L297.5,0.1z M291.3,22.2L291.3,22.2L291.3,22.2c0.2,0,0.3,0,0.4,0v-0.1h-0.1
		C291.4,22.2,291.3,22.2,291.3,22.2z M292.1,21.8L292.1,21.8l0.3,0.1c0-0.2,0.2-0.3,0.5-0.3v-0.2C292.5,21.7,292.3,21.8,292.1,21.8z
		 M293.2,21.3L293.2,21.3l0.2,0.1c0.1-0.1,0.2-0.1,0.3-0.1v-0.2h-0.1C293.4,21.2,293.3,21.3,293.2,21.3z M293.8,15.6v0.2
		c0.3-0.1,0.4-0.2,0.4-0.3v-0.1C294,15.6,293.9,15.6,293.8,15.6z M293.8,21L293.8,21l0.2,0.1c0.1-0.1,0.2-0.1,0.3-0.1v-0.2
		C294.1,20.9,294,21,293.8,21z M294.3,15.2c0,0.1,0.1,0.2,0.2,0.2h0.2c0-0.1-0.1-0.2-0.2-0.2H294.3z M294.5,5.5
		c0.1,0,0.3-0.4,0.7-1.1V4.3h-0.1C295,4.3,294.8,4.7,294.5,5.5z M294.5,20.7v0.1h0.2c0.8-0.4,1.3-0.7,1.3-0.7h-0.1
		C295.1,20.5,294.6,20.7,294.5,20.7z M296.1,19.9L296.1,19.9l0.3,0.1c0-0.2,0.2-0.3,0.5-0.3v-0.2C296.5,19.8,296.2,19.9,296.1,19.9z
		 M297.8,19.1L297.8,19.1l0.2,0.1c0.7-0.3,1.1-0.5,1.1-0.6h-0.1C298.3,18.9,297.9,19.1,297.8,19.1z M299.7,18.4L299.7,18.4
		c1.2-0.6,1.8-0.8,2-0.8v-0.2h-0.1C300.3,17.9,299.7,18.3,299.7,18.4z M301.7,17.2L301.7,17.2l0.2,0.1c0.9-0.4,1.4-0.6,1.4-0.7h-0.2
		C302.3,17,301.9,17.2,301.7,17.2z M303.7,16.3L303.7,16.3l0.2,0.1c0.4-0.2,0.6-0.3,0.6-0.4h-0.1C304.1,16.2,303.9,16.3,303.7,16.3z
		 M304.7,16L304.7,16c0.2,0,0.3-0.1,0.3-0.2h-0.1C304.8,15.8,304.7,15.8,304.7,16z M305.1,15.6v0.1h0.2c1.5-0.8,2.4-1.2,2.6-1.2
		v-0.2h-0.1L305.1,15.6z M308,14.4h0.2c0.3-0.2,0.9-0.5,1.9-0.8v-0.1h-0.2C308.8,14,308.1,14.3,308,14.4z M308.5,8.7L308.5,8.7
		l0.1,0.1c0.1-0.1,0.2-0.1,0.3-0.1V8.6h-0.1C308.6,8.7,308.5,8.7,308.5,8.7z M310,10.3L310,10.3c0.2,0,0.3-0.1,0.3-0.2h-0.1
		C310.1,10.1,310,10.2,310,10.3z M311,12.9v0.2h0.1c0.3-0.1,0.4-0.2,0.4-0.3h-0.2C311.2,12.9,311.1,12.9,311,12.9z M311.6,12.8h0.3
		v-0.2h-0.1C311.7,12.6,311.6,12.7,311.6,12.8z"/>
	<path class="st0" d="M364.9,0.1c0,0,0.2,0.2,0.6,0.6v0.2c-0.3,0.3-1.3,0.8-3.1,1.5l-0.2-0.1c-0.9,0.7-2.2,1.3-3.7,1.7
		c0,0.1,0,0.1-0.1,0.1c-0.5,0-1.9,0.5-4.1,1.5c-0.2,0-1.1,0.4-2.7,1.1c-1.1,0.5-2,0.8-2.5,0.9c-2.1,1-4.5,2-7.4,3.1l0.1,0.2v0.2
		c-0.1,0.2-0.3,0.4-0.7,0.4h-0.1l-0.2-0.1c0,0.1,0,0.2-0.1,0.3l-0.2-0.1h-0.2l0.1,0.2v0.1c-0.4,0-1.7,0.5-3.9,1.5l-5.3,1.9
		c-0.7,2.7-1.9,6.3-3.6,10.8h0.1c2.4-1,4.2-1.7,5.6-2c1.7-1,4.1-2.1,7.2-3.3c0,0.1,0,0.1,0.1,0.1c0-0.2,1.5-0.8,4.5-1.8
		c1.9-0.9,3.2-1.3,4.1-1.3h0.1l0.8,0.1l-0.1-0.2c0.9-0.5,1.5-0.7,1.8-0.7c-0.1,0.2-0.3,0.3-0.7,0.3v0.1h0.5c0.7-0.3,1.3-0.5,1.8-0.5
		l0.1,0.2c0.4-0.1,0.7-0.2,0.9-0.3h0.1v0.4h0.1l0.3-0.2h0.6v0.2c-0.1,0-0.3,0.1-0.6,0.4l0.1,0.2c0,0.3-1.3,0.9-3.9,1.7v0.1h0.3
		c1.1-0.3,1.7-0.5,1.9-0.7l0.2,0.1c0-0.1,0.1-0.2,0.3-0.3l0.5,0.2c0-0.2,0.1-0.3,0.2-0.3h0.1c0,0.1,0.1,0.3,0.3,0.4
		c-0.1,0-1,0.4-2.7,1.2c-1.6,0.7-2.7,1.1-3,1.1v0.1h0.2c0.1,0,0.2,0,0.3-0.1l0.5,0.1c0.5-0.1,1.1-0.3,1.8-0.6l0.1,0.2v0.1l-1.1,0.3
		c0-0.1,0-0.1-0.1-0.1c0,0.1,0,0.1-0.1,0.1l0.1,0.2V22c-0.2,0-1.1,0.4-2.7,1.3c-0.2,0-1,0.4-2.2,1.1v0.1h0.1l0.6-0.1
		c-0.4,0.4-0.8,0.6-1.2,0.6l0.1,0.2v0.1l-0.3-0.2c-0.2,0.1-0.4,0.2-0.6,0.2l0.1,0.2v0.1l-0.3-0.2h-0.2v0.2h-0.3v-0.2
		c0,0,0.5-0.2,1.5-0.6v-0.1h-0.2c-1.5,0.4-3.7,1.3-6.6,2.6v0.2h0.1c0.2,0,0.5-0.1,0.9-0.3v0.1c0,0.1-0.6,0.4-1.8,0.9
		c0,0.4-2,1.3-6,2.8c0-0.1,0-0.1-0.1-0.1c-0.3,0.5-1.5,1-3.6,1.6c-2.9,1.1-4.4,1.8-4.4,2c-2,4.1-3,6.2-3,6.4h0.1l12.2-4.7
		c0,0.1,0,0.1,0.1,0.1c0-0.2,0.9-0.7,2.7-1.2c2.8-1.3,4.8-2,5.8-2.2c0.1,0.1,0.3,0.1,0.5,0.1c0.1,0,0.2,0,0.3-0.1l0.2,0.1
		c1-0.3,1.8-0.6,2.5-1l0.1,0.2c-0.3,0.1-0.5,0.2-0.5,0.3h0.2l0.3-0.2l0.3,0.2c0.3-0.1,0.6-0.2,0.9-0.2c-0.1,0.4-0.2,0.7-0.3,0.7
		l-0.1-0.2h0.2c0-0.1-0.1-0.2-0.2-0.2c0,0.2-0.2,0.3-0.5,0.5l0.2,0.4c-0.9,0.4-1.9,0.9-2.9,1.6c-2.1,0.7-3.1,1.1-3.1,1.3h0.1
		l3.5-1.3h0.2l0.2,0.3c0,0.2-0.3,0.3-1,0.4l0.1,0.2c-0.4,0.3-1.9,1-4.7,2.1c0,0.1,0.1,0.2,0.3,0.2c1.9-0.8,2.9-1.1,3-1.1l0.1,0.2
		l-6.2,3l-4.7,2.2c-0.6,0-2.3,0.6-5.1,1.7c0,0.2-0.6,0.6-1.9,1.2v0.1c0.3-0.1,0.6-0.2,0.8-0.3h0.1v0.2c-0.4,0.1-0.7,0.3-0.7,0.6
		c-0.1,0-0.1,0-0.1-0.1c-0.3,0.1-0.6,0.1-0.8,0.1l0.1,0.2v0.1l-0.3-0.2h-0.1c0,0.4-0.9,0.9-2.8,1.4c-2.5,0.9-3.7,1.6-3.7,1.9
		c-0.5,1-0.9,1.5-1.2,1.6l-0.6-0.1c0,0.1-0.1,0.2-0.2,0.2h-0.2c0-0.3-0.4-0.6-1.1-1c0-0.1-0.2-0.2-0.6-0.5c0-0.4-0.1-0.6-0.3-0.6
		l-0.8,0.5H311v-0.2c0.4-0.7,0.7-1.2,0.8-1.7c0-0.3-0.3-0.5-0.9-0.6l-0.1-0.2l0.1-0.2c-0.4-0.3-0.7-0.7-0.9-1.3v-0.2
		c0.2-0.3,1.2-0.8,3.1-1.6c0.2-0.6,0.5-1.2,1-1.8h0.1l-0.1-0.2c1.4-1.8,2.3-3.4,2.7-5c-0.3,0.1-0.6,0.2-0.8,0.3
		c-0.8-0.3-1.6-0.9-2.4-1.9c-1.1-1.2-1.7-2-1.7-2.3l-0.1-0.6c1.1-0.8,4.1-2,9.1-3.5c0.3,0,1.1-1.8,2.3-5.5c0.5-1,0.9-1.9,1-2.6
		l0.2-0.1l-0.1-0.2c0.2,0,0.5-1,1-3c-0.4,0.2-0.7,0.4-0.9,0.4h-0.3c-1.6-0.6-2.5-1.2-2.9-1.7v-0.1c0-0.3,1.9-1,5.6-2.3l0.6-0.8v-0.5
		l-0.2-0.3c0-0.1,0.1-0.2,0.2-0.2c0,0.1,0,0.1,0.1,0.1c0.2-0.4,0.3-0.6,0.5-0.6c0.3,0,1.1,0.3,2.2,1h0.1c5.3-1.8,13.7-5,25.4-9.8
		C360.5,0.9,363.6,0.1,364.9,0.1z M338.8,36.5c0,0.2,0.1,0.2,0.2,0.2l0.1-0.2H338.8z M344.6,34.5v0.1c0,0.1-0.1,0.2-0.2,0.2h-0.6
		C343.8,34.6,344.1,34.5,344.6,34.5z M347.3,24.1L347.3,24.1c0,0.3-0.1,0.3-0.2,0.3h-0.3v-0.2C347,24.2,347.2,24.2,347.3,24.1z
		 M348.9,18c0,0.2,0.1,0.2,0.2,0.2l0.1-0.2H348.9z M349.8,19.9L349.8,19.9L349.8,19.9h0.7v-0.2h-0.1
		C350.1,19.9,349.9,19.9,349.8,19.9z M352.8,20.6h0.3c0,0.2-0.2,0.3-0.6,0.3v-0.1C352.6,20.7,352.7,20.6,352.8,20.6z"/>
	<path class="st0" d="M386.9,0.1h0.2c1.6,0.7,2.6,1.5,2.9,2.2l1.2,2.2v0.1c0,0.4-0.7,0.5-2.2,0.5h-0.3L388.1,5
		c-1.3,0.1-3.7,0.7-7.3,1.7c-4.8,1.5-9.7,3.9-14.7,7.1c-2.4,1.6-4.6,3.5-6.9,5.7c-1.7,1.8-2.5,2.9-2.5,3.4h0.6c0.2,0,0.3,0,0.3,0.1
		l0.6-0.1h1.1c3.4-0.5,5.1-0.8,5.1-0.9v-0.1h0.2l0.2,0.1c0-0.4,1.5-0.8,4.6-1c0-0.1,0.1-0.2,0.2-0.2c0.1,0,0.1,0,0.1,0.1l0.2-0.1
		c0.1,0.1,0.2,0.1,0.3,0.1c0-0.1,0.1-0.2,0.3-0.3h0.3l0.2,0.1c0-0.2,0.1-0.3,0.3-0.3c0.1,0.1,0.2,0.1,0.3,0.1c0-0.2,2.1-0.6,6.4-1
		c0-0.1,0-0.1,0.1-0.1c0.1,0,0.1,0,0.1,0.1c0.8-0.2,2-0.2,3.7-0.2h0.1l0.6-0.1v0.1c0.1,0,0.1,0,0.1-0.1c4.5,0,7.6,1.4,9.1,4.2
		c0.2,0.1,0.7,1,1.6,2.6c0,0.1,0,0.1-0.1,0.1l0.1,0.2v0.2c0,2.3-4.6,5.9-13.9,10.9c-9.8,5.2-19.4,9.7-28.8,13.5l-0.4,0.1
		c0-0.3-0.3-0.6-1-0.9l-0.1-0.2V50c0-0.1,0-0.1,0.1-0.1c0-0.2-0.3-0.6-0.8-1.3c0-0.3-0.2-0.5-0.5-0.8v-0.3c-0.2,0-0.3-0.1-0.3-0.2
		c0.3,0,0.4-0.1,0.4-0.3h0.2l0.2,0.1l0.9-0.6c0.1,0.1,0.3,0.1,0.3,0.1l-0.1-0.2c0.1,0,0.1,0,0.1-0.1l0.2,0.1
		c1.2-0.5,1.7-0.9,1.7-1.2h0.1l0.2,0.1c0.1-0.2,1.1-0.7,2.9-1.7h0.1c0.1,0,0.1,0,0.1,0.1l2.3-0.9h0.2v-0.1l-0.1-0.2
		c0.2-0.1,0.5-0.2,0.6-0.2h0.6V42h-0.1l-0.2,0.1V42c0-0.1,0.4-0.3,1.3-0.6c0-0.2,0.3-0.3,1-0.4c0-0.3,0.3-0.5,0.9-0.7h0.9
		c0-0.2,0.7-0.5,2.1-1l3.1-1.6c0.7-0.2,1-0.5,1-0.6l0.2,0.1h0.1v-0.1h-0.2V37c0-0.1,0.6-0.4,1.7-1v-0.2h-0.2c0,0.2-0.1,0.3-0.3,0.3
		l-0.1-0.2c1.7-1,2.7-1.5,3.1-1.5v0.1c0,0.1-0.1,0.2-0.3,0.2v0.1h0.1c0.4-0.2,0.6-0.3,0.6-0.4h-0.2v-0.1c0.4-0.3,1.3-0.8,2.6-1.5
		c0-0.1,0.3-0.3,1-0.6l0.2,0.1c0.1-0.1,0.3-0.1,0.3-0.1v0.2H377v0.1h0.1c0.5,0,1.4-0.5,2.7-1.6h-0.2c0,0.2-0.2,0.3-0.6,0.3
		c0,0.1-0.5,0.4-1.3,0.9l-0.1-0.2c1.4-0.9,2.4-1.5,3-1.7c0-0.3,0.5-0.6,1.4-0.9c0.5-0.4,0.8-0.6,1-0.6c-0.3,0.4-0.9,0.8-1.8,1.3V30
		h0.2c1.2-0.4,2.4-1.3,3.6-2.5h-0.1c-0.9,0.7-1.5,1-1.7,1c1.1-0.9,2.5-2.1,4.2-3.7v-0.1c-0.3,0-1.5,0-3.4-0.1
		c-0.2,0-0.7,0.1-1.6,0.2c-0.1,0-0.1,0-0.1-0.1c-3.4,0.4-8.8,1.2-16.4,2.4c-0.6,0-1.4,0.1-2.3,0.2v-0.1c-0.4,0.1-1,0.2-2,0.2h-2.5
		c-2.7,0-4.5-1.1-5.5-3.3c0-0.6-0.3-1.1-1-1.7c-0.2-0.7-0.3-1.1-0.3-1.3v-0.2c0.4-0.3,0.7-0.8,1-1.7c0.9-1.2,1.7-2.1,2.4-2.7
		c3.4-3.3,5.6-5.1,6.7-5.5l3.2-2.3c0-0.4,0.1-0.5,0.3-0.5l0.1,0.2v0.1h-0.3v0.1h0.2c0.6-0.5,1.9-1.1,3.8-2c0-0.2,0.3-0.4,0.9-0.6
		V5.9L370,6.1l-0.1-0.2c0.6-0.4,1.1-0.7,1.3-1.1l3.4-1.4h0.2c0.1,0,0.1,0,0.1,0.1l0.2-0.1h0.2v0.1l-0.2,0.3c0.4,0.1,0.6,0.2,0.8,0.2
		c0-0.2,0.4-0.4,1.3-0.8V3.1c-0.2,0-0.3-0.1-0.3-0.2V2.7c0-0.3,1.6-0.8,4.9-1.6C384.5,0.4,386.2,0.1,386.9,0.1z M350.9,45.4h0.1v0.1
		c0,0.1-0.1,0.2-0.2,0.2h-0.2C350.6,45.6,350.7,45.5,350.9,45.4z M352.1,45.9h0.2c0.3-0.1,0.4-0.2,0.4-0.3h-0.2
		C352.3,45.7,352.1,45.8,352.1,45.9z M353.3,18.6h0.2v0.1c0,0.1-0.1,0.2-0.2,0.2V18.6z M354,17.9h0.1V18c0,0.1-0.1,0.2-0.3,0.3
		l-0.1-0.2L354,17.9z M361.4,39.9h0.4c-0.9,0.5-2.2,1.2-4.1,2l-0.1-0.2L361.4,39.9z M359,14.5l0.2,0.1l0.2-0.5h-0.1
		C359.2,14.2,359.1,14.3,359,14.5z M359.6,14.1h0.3v-0.2h-0.1C359.6,13.9,359.6,13.9,359.6,14.1z M362.7,41.7h0.1
		c0.1,0,0.2-0.1,0.2-0.2h-0.1C362.8,41.5,362.7,41.6,362.7,41.7z M363.1,11.5h0.2c0.1,0,0.2-0.1,0.2-0.2v-0.1
		C363.3,11.2,363.1,11.3,363.1,11.5z M365,21.9L365,21.9l0.3,0.1v-0.2C365.2,21.9,365.1,21.9,365,21.9z M369.3,36.2v0.1
		c0,0.2-0.2,0.3-0.5,0.3l-0.1-0.2C368.9,36.3,369.1,36.2,369.3,36.2z M370.5,20.9l-0.1,0.2h0.1c0.1-0.1,0.2-0.1,0.3-0.1v-0.1H370.5z
		 M374.2,34h0.2c0.2,0,0.2-0.1,0.2-0.2h-0.2C374.2,33.8,374.2,33.9,374.2,34z M374.9,33.5l0.2,0.1h0.1c0.1,0,0.2-0.1,0.2-0.2v-0.1
		h-0.3C375,33.3,374.9,33.4,374.9,33.5z M376.4,32.7l0.2,0.1c0.1,0,0.2-0.1,0.3-0.3h-0.3C376.4,32.5,376.4,32.6,376.4,32.7z
		 M376.5,2.9h0.3v0.2h-0.3V2.9z M380.2,30.7L380.2,30.7c0.2,0,0.3-0.1,0.3-0.2h-0.1C380.3,30.5,380.2,30.5,380.2,30.7z"/>
	<path class="st0" d="M428.8,0.1c0.5,0,0.7,0.2,0.7,0.4c0.2-0.1,0.3-0.1,0.4-0.1c1.2,0.4,2.3,1.2,3.1,2.2c-1.4,1.5-2.6,3.3-3.5,5.4
		c-10.9,17.7-16.4,27-16.4,27.7c-2,4.7-3.1,7.8-3.1,9.3v0.4c0,0.1,0,0.1-0.1,0.1c0,0.1,0,0.1,0.1,0.1c0,0.1,0,0.2-0.1,0.3
		c0.1,0.9,0.2,1.4,0.4,1.4c1.2-0.2,3.6-1.7,7.3-4.4c0.2,0.1,0.3,0.1,0.4,0.1l0.2-0.3c-0.1-0.2-0.1-0.3-0.1-0.4
		c1.4-1.1,2.7-2.5,4-4.2c3-2.9,5-5,6.1-6.4h0.5v-0.1h-0.2v-0.2c0,0,0.2,0,0.5-0.1c0,0.1,0.1,0.2,0.4,0.4c1.8-1.9,3.7-4.3,5.8-7
		c0.7-0.8,1.4-1.7,2-2.7h-0.1c-0.2,0.4-0.3,0.6-0.5,0.6c0-0.1,0-0.1-0.1-0.1c0.1-0.3,0.8-1.2,2.3-2.8h0.1l-1.2,1.7h0.1
		c2-2.3,5.2-6.2,9.6-11.7c1-1.5,1.8-2.4,2.2-2.7v0.1l-4.6,6.4v0.1c0.4-0.1,0.7-0.4,0.9-0.8c0.1,0,0.9-0.8,2.4-2.5l0.5-0.4l0.1,0.2
		c-0.1,0.1-0.1,0.3-0.1,0.5h0.1c0.8-0.5,1.2-1,1.4-1.5V9H450l-0.5,0.4h-0.1c-0.2,0-0.2-0.1-0.2-0.2l1.7-2.1h0.1
		c0.2,0,0.2,0.1,0.2,0.2c0.7-0.3,1.1-0.6,1.2-0.9c1.1-1.3,1.9-1.9,2.3-1.9c0.1,0.1,0.1,0.3,0.1,0.5c0.3-0.2,0.5-0.2,0.6-0.2l0.1,0.2
		V5c-0.2,0-0.4,0.1-0.4,0.2c0.1,0,0.2,0,0.4,0.1c0-0.2,0.2-0.4,0.5-0.4v0.1c-0.5,1.3-2,3.4-4.5,6.5c-1.1,1.7-4.9,6.6-11.5,14.5
		c-3.7,4.9-8.8,10.8-15.4,17.7c-5.2,4.6-8.6,7-10.4,7c0,0.1-0.4,0.2-1.1,0.4H411c-2.4-0.8-3.7-1.5-3.7-2.3c-0.9-0.3-1.6-0.8-2.1-1.6
		c-0.5-1.2-0.7-2-0.7-2.3c0.1-1,0.2-1.5,0.2-1.7c-0.1-0.1-0.1-0.3-0.1-0.5c0.1,0,0.4-0.9,0.7-2.6l0.2-0.1c0.1,0.2,0.1,0.3,0.1,0.4
		c-0.2,0.3-0.2,0.5-0.2,0.6v0.1h0.1c1-3.5,3.4-8.6,7.3-15.3c1-1.8,3.9-6.6,8.6-14.3c0,0,1-1.8,3.1-5.2V6.2h-0.2V6
		c0.9-2,1.5-3,1.8-3.1v0.2c1.2-1.7,2-2.7,2.5-3.1H428.8z M408.2,36.5c0,0.1-0.1,0.3-0.2,0.5v0.1h0.2c0-0.2,0-0.3,0.1-0.5v-0.1H408.2
		z M408.6,35.8v0.1h0.1c1.1-2.4,1.9-3.8,2.3-4.2c-0.1-0.2-0.1-0.3-0.1-0.4l0.5-0.5c-0.1-0.2-0.1-0.3-0.1-0.4c-0.3,0-0.9,0.9-1.7,2.7
		c-0.4,0.7-0.7,1.5-0.8,2.3C408.6,35.5,408.6,35.6,408.6,35.8z M411.3,29.9c0,0.1,0,0.2-0.1,0.4h0.1c0.2,0,0.2-0.1,0.2-0.2
		L411.3,29.9z M412.1,28.7h0.1c0.1,0,0.4-0.4,0.8-1.2h-0.1C412.7,27.7,412.4,28.1,412.1,28.7z M412.5,25.5h0.2v0.4h-0.2V25.5z
		 M416.1,19.6v0.1c0,0.2-0.1,0.2-0.2,0.2h-0.1C415.8,19.9,415.9,19.7,416.1,19.6z M416.5,44v0.1c0.2-0.1,0.3-0.1,0.4-0.1v-0.2h-0.1
		C416.6,43.8,416.5,43.9,416.5,44z M418.5,17.8V18c0,0.2,0.1,0.2,0.2,0.2l0.1-0.2v-0.1H418.5z M418.8,17.5v0.2
		c0.8-0.7,1.2-1.3,1.2-1.8c1-1.4,1.5-2.3,1.5-2.5h-0.1C421.1,13.9,420.2,15.2,418.8,17.5z M424.2,6.4v0.1c-0.1,0.1-0.1,0.3-0.1,0.4
		h-0.2V6.8C423.8,6.6,423.9,6.5,424.2,6.4z M428.9,32.9v0.2c0,0,0.4-0.4,0.9-1.1V32C429.7,32,429.4,32.3,428.9,32.9z M430.3,31.3
		l-0.4,0.5v0.1c0.2,0,0.3-0.2,0.5-0.6H430.3z M430.9,30.7h0.2c0-0.2,0.2-0.4,0.7-0.7c0-0.1,0-0.2,0.1-0.4h-0.1
		C431.3,30.1,431,30.4,430.9,30.7z M432.1,29.3L432.1,29.3l0.2,0.1l1.7-2.1h-0.2C433.1,27.9,432.6,28.6,432.1,29.3z M434.8,26
		c0,0.2-0.1,0.3-0.4,0.5h-0.1v0.1h0.2l0.4-0.5V26H434.8z M435.5,25v0.1h0.2c0-0.1,0.3-0.6,1-1.3v-0.2
		C436.5,23.6,436.1,24.1,435.5,25z M438.9,20.8v0.1c0.2,0,0.2-0.1,0.2-0.2v-0.1C439,20.6,438.9,20.7,438.9,20.8z M439.4,18.8
		L439.4,18.8c0,0.3-0.1,0.3-0.2,0.3V19C439.2,18.9,439.2,18.8,439.4,18.8z M439.6,20v0.1c0.6-0.7,1.1-1.1,1.5-1.3
		c0.1-0.5,0.8-1.3,2-2.4l1.9-2.6v-0.1c-0.6,0-1.8,1.3-3.4,3.8L439.6,20z M448.1,11.1v0.1c0.1-0.1,0.3-0.1,0.4-0.1v-0.4
		C448.4,10.8,448.2,10.9,448.1,11.1z"/>
	<path class="st0" d="M481,0.1h0.2c1.6,0.7,2.6,1.5,2.9,2.2l1.2,2.2v0.1c0,0.4-0.7,0.5-2.2,0.5h-0.3L482.2,5
		c-1.3,0.1-3.7,0.7-7.3,1.7c-4.8,1.5-9.7,3.9-14.7,7.1c-2.4,1.6-4.6,3.5-6.9,5.7c-1.7,1.8-2.5,2.9-2.5,3.4h0.6c0.2,0,0.3,0,0.3,0.1
		l0.6-0.1h1.1c3.4-0.5,5.1-0.8,5.1-0.9v-0.1h0.2l0.2,0.1c0-0.4,1.5-0.8,4.6-1c0-0.1,0.1-0.2,0.2-0.2c0.1,0,0.1,0,0.1,0.1l0.2-0.1
		c0.1,0.1,0.2,0.1,0.3,0.1c0-0.1,0.1-0.2,0.3-0.3h0.3l0.2,0.1c0-0.2,0.1-0.3,0.3-0.3c0.1,0.1,0.2,0.1,0.3,0.1c0-0.2,2.1-0.6,6.4-1
		c0-0.1,0-0.1,0.1-0.1c0.1,0,0.1,0,0.1,0.1c0.8-0.2,2-0.2,3.7-0.2h0.1l0.6-0.1v0.1c0.1,0,0.1,0,0.1-0.1c4.5,0,7.6,1.4,9.1,4.2
		c0.2,0.1,0.7,1,1.6,2.6c0,0.1,0,0.1-0.1,0.1l0.1,0.2v0.2c0,2.3-4.6,5.9-13.9,10.9c-9.8,5.2-19.4,9.7-28.8,13.5l-0.4,0.1
		c0-0.3-0.3-0.6-1-0.9l-0.1-0.2V50c0-0.1,0-0.1,0.1-0.1c0-0.2-0.3-0.6-0.8-1.3c0-0.3-0.2-0.5-0.5-0.8v-0.3c-0.2,0-0.3-0.1-0.3-0.2
		c0.3,0,0.4-0.1,0.4-0.3h0.2l0.2,0.1l0.9-0.6c0.1,0.1,0.3,0.1,0.3,0.1l-0.1-0.2c0.1,0,0.1,0,0.1-0.1l0.2,0.1
		c1.2-0.5,1.7-0.9,1.7-1.2h0.1l0.2,0.1c0.1-0.2,1.1-0.7,2.9-1.7h0.1c0.1,0,0.1,0,0.1,0.1l2.3-0.9h0.2v-0.1l-0.1-0.2
		c0.2-0.1,0.5-0.2,0.6-0.2h0.6V42h-0.1l-0.2,0.1V42c0-0.1,0.4-0.3,1.3-0.6c0-0.2,0.3-0.3,1-0.4c0-0.3,0.3-0.5,0.9-0.7h0.9
		c0-0.2,0.7-0.5,2.1-1l3.1-1.6c0.7-0.2,1-0.5,1-0.6l0.2,0.1h0.1v-0.1h-0.2V37c0-0.1,0.6-0.4,1.7-1v-0.2h-0.2c0,0.2-0.1,0.3-0.3,0.3
		l-0.1-0.2c1.7-1,2.7-1.5,3.1-1.5v0.1c0,0.1-0.1,0.2-0.3,0.2v0.1h0.1c0.4-0.2,0.6-0.3,0.6-0.4h-0.2v-0.1c0.4-0.3,1.3-0.8,2.6-1.5
		c0-0.1,0.3-0.3,1-0.6l0.2,0.1c0.1-0.1,0.3-0.1,0.3-0.1v0.2H471v0.1h0.1c0.5,0,1.4-0.5,2.7-1.6h-0.2c0,0.2-0.2,0.3-0.6,0.3
		c0,0.1-0.5,0.4-1.3,0.9l-0.1-0.2c1.4-0.9,2.4-1.5,3-1.7c0-0.3,0.5-0.6,1.4-0.9c0.5-0.4,0.8-0.6,1-0.6c-0.3,0.4-0.9,0.8-1.8,1.3V30
		h0.2c1.2-0.4,2.4-1.3,3.6-2.5h-0.1c-0.9,0.7-1.5,1-1.7,1c1.1-0.9,2.5-2.1,4.2-3.7v-0.1c-0.3,0-1.5,0-3.4-0.1
		c-0.2,0-0.7,0.1-1.6,0.2c-0.1,0-0.1,0-0.1-0.1c-3.4,0.4-8.8,1.2-16.4,2.4c-0.6,0-1.4,0.1-2.3,0.2v-0.1c-0.4,0.1-1,0.2-2,0.2h-2.5
		c-2.7,0-4.5-1.1-5.5-3.3c0-0.6-0.3-1.1-1-1.7c-0.2-0.7-0.3-1.1-0.3-1.3v-0.2c0.4-0.3,0.7-0.8,1-1.7c0.9-1.2,1.7-2.1,2.4-2.7
		c3.4-3.3,5.6-5.1,6.7-5.5l3.2-2.3c0-0.4,0.1-0.5,0.3-0.5l0.1,0.2v0.1h-0.3v0.1h0.2c0.6-0.5,1.9-1.1,3.8-2c0-0.2,0.3-0.4,0.9-0.6
		V5.9L464,6.1L464,5.9c0.6-0.4,1.1-0.7,1.3-1.1l3.4-1.4h0.2c0.1,0,0.1,0,0.1,0.1l0.2-0.1h0.2v0.1l-0.2,0.3c0.4,0.1,0.6,0.2,0.8,0.2
		c0-0.2,0.4-0.4,1.3-0.8V3.1c-0.2,0-0.3-0.1-0.3-0.2V2.7c0-0.3,1.6-0.8,4.9-1.6C478.5,0.4,480.2,0.1,481,0.1z M444.9,45.4h0.1v0.1
		c0,0.1-0.1,0.2-0.2,0.2h-0.2C444.6,45.6,444.7,45.5,444.9,45.4z M446.2,45.9h0.2c0.3-0.1,0.4-0.2,0.4-0.3h-0.2
		C446.3,45.7,446.2,45.8,446.2,45.9z M447.4,18.6h0.2v0.1c0,0.1-0.1,0.2-0.2,0.2V18.6z M448,17.9h0.1V18c0,0.1-0.1,0.2-0.3,0.3
		l-0.1-0.2L448,17.9z M455.4,39.9h0.4c-0.9,0.5-2.2,1.2-4.1,2l-0.1-0.2L455.4,39.9z M453,14.5l0.2,0.1l0.2-0.5h-0.1
		C453.3,14.2,453.1,14.3,453,14.5z M453.6,14.1h0.3v-0.2h-0.1C453.6,13.9,453.6,13.9,453.6,14.1z M456.7,41.7h0.1
		c0.1,0,0.2-0.1,0.2-0.2H457C456.8,41.5,456.7,41.6,456.7,41.7z M457.2,11.5h0.2c0.1,0,0.2-0.1,0.2-0.2v-0.1
		C457.3,11.2,457.2,11.3,457.2,11.5z M459,21.9L459,21.9l0.3,0.1v-0.2C459.2,21.9,459.1,21.9,459,21.9z M463.3,36.2v0.1
		c0,0.2-0.2,0.3-0.5,0.3l-0.1-0.2C462.9,36.3,463.1,36.2,463.3,36.2z M464.5,20.9l-0.1,0.2h0.1c0.1-0.1,0.2-0.1,0.3-0.1v-0.1H464.5z
		 M468.2,34h0.2c0.2,0,0.2-0.1,0.2-0.2h-0.2C468.3,33.8,468.2,33.9,468.2,34z M469,33.5l0.2,0.1h0.1c0.1,0,0.2-0.1,0.2-0.2v-0.1
		h-0.3C469,33.3,469,33.4,469,33.5z M470.4,32.7l0.2,0.1c0.1,0,0.2-0.1,0.3-0.3h-0.3C470.5,32.5,470.4,32.6,470.4,32.7z M470.5,2.9
		h0.3v0.2h-0.3V2.9z M474.2,30.7L474.2,30.7c0.2,0,0.3-0.1,0.3-0.2h-0.1C474.3,30.5,474.2,30.5,474.2,30.7z"/>
</g>
</svg>
