<?xml version="1.0" encoding="utf-8"?>
<!-- Generator: Adobe Illustrator 19.0.1, SVG Export Plug-In . SVG Version: 6.00 Build 0)  -->
<svg version="1.1" id="Layer_1" xmlns="http://www.w3.org/2000/svg" xmlns:xlink="http://www.w3.org/1999/xlink" x="0px" y="0px"
	 viewBox="0 0 492.8 67.5" style="enable-background:new 0 0 492.8 67.5;" xml:space="preserve">
<style type="text/css">
	.st0{fill:#FFFFFF;}
</style>
<g>
	<path class="st0" d="M86.1,0l0.2,0.3l-0.2,1c0.7-0.4,1.1-0.7,1.5-0.7c0,0.1,0.1,0.2,0.3,0.5l-0.5,0.6V2c0.3,0,0.5,0.1,0.5,0.2
		c0.7-0.4,1.2-0.7,1.5-0.7c0,0.5,0.6,0.9,1.8,1.1v0.3c-0.3,0.9-3.3,4.7-9,11.4c-0.6,1.1-6.2,8.5-16.6,22.3
		C58.9,46.1,53.3,53.3,49,58.2c-2.5,3-4.8,4.6-6.7,4.6c-1.4,0-3.3-0.8-5.7-2.4c-1-0.1-2-0.7-2.9-1.8l0.2-0.3c-0.4-1-0.8-3.4-1.1-7.2
		c0.2-0.7,0.3-1.1,0.3-1.3l-0.2-0.3l0.2-0.3l-0.2-0.3c0.2-0.4,0.3-0.7,0.3-1v-2.3c0-0.5,0.1-0.8,0.3-0.8l-0.2-0.3
		c0.3-1.6,0.6-2.6,0.8-2.9c-0.1-0.2-0.2-0.4-0.2-0.7c0.2-0.1,0.4-0.2,0.5-0.2c-0.2-0.4-0.3-0.7-0.3-1c0.5-1.5,0.8-2.3,0.8-2.4h-0.2
		c-1.3,1.6-7.4,9.4-18.2,23.4c-3.5,4.6-5.9,6.8-7.3,6.8H8.5c-0.5,0-1.8-0.6-3.9-1.8C2.4,65,0.9,64,0,62.7v-1.3c0-1.5,0.6-3.8,1.8-7
		c0-0.6,0.3-1.4,1-2.3h0.2c-0.2,0.8-0.3,1.3-0.3,1.5h0.3c0-1,0.5-2.7,1.6-5c-0.1-0.2-0.2-0.4-0.2-0.5c0.2,0,0.6-1.2,1.1-3.4L6,44.2
		l-0.2-0.8C6,43.2,6,43.1,6,43l-1,1.8l-0.2-0.3c0.9-2.8,1.7-5.1,2.4-7h0.3c0,0.2-0.1,0.4-0.2,0.6v0.2h0.2c0.1-0.7,0.5-1.4,1.1-2.1
		c-0.1-0.2-0.2-0.4-0.2-0.6c0.3,0,0.7-0.5,1.3-1.6c-0.1-0.2-0.2-0.4-0.2-0.5l0.3-0.2c0,0.1,0.1,0.2,0.2,0.2c0.2-1.4,0.5-2.9,1-4.4
		c-0.1,0-0.2-0.1-0.2-0.2c0.3,0,0.9-1.2,1.6-3.7c0.3,0,0.5-0.2,0.5-0.5c-0.1-0.2-0.2-0.4-0.2-0.5h0.2l0.3,0.2v-0.5l-0.3-0.5h0.2
		l0.3,0.2c0.3-0.8,0.5-1.3,0.5-1.6L13.8,22h-0.2v-0.2c0.5-1.5,1-2.4,1.5-2.4c0-0.5,0.6-1.8,1.8-3.9c-0.1-0.2-0.2-0.4-0.2-0.7
		c0.3-0.2,0.6-1,1.1-2.4v-0.2l-0.3-0.5c0.7,0,1.5-2.2,2.4-6.7l0.5-0.3h0.3c0.2,0,0.3,0.1,0.3,0.3v0.3l-0.7,1.8l0.2,0.3
		c-0.2,0.4-0.3,0.7-0.3,1v0.2h0.2c0.6-2.2,1-3.3,1.3-3.3h0.3l1,0.2c0.2-0.1,0.4-0.2,0.8-0.2c1.7,0.9,2.6,1.4,2.6,1.5v0.8
		c-0.9,2.3-1.8,5.8-2.9,10.4c-1.8,5.8-5.5,16.7-11.1,32.6h0.2c0.5-0.1,1.8-1.6,3.9-4.4h0.2v0.2l-2.1,2.9v0.2
		c1.5-1.6,3.2-3.3,5.1-5.1c0-0.4,0.7-1.1,2.1-2.1v-0.7c1.4-1.5,2.3-2.9,2.9-4.1c0.6-0.5,1.9-2.3,3.7-5.2c0.1,0,0.6-0.5,1.5-1.6
		c4.6-5,6.8-8,6.8-9.1c0.7-0.7,1.2-1,1.3-1l3.1,1c0.2-0.1,0.4-0.2,0.5-0.2c0,0.3,0.7,0.6,2.1,1c0,0.1,0.5,0.5,1.6,1.1l0.2,0.8
		c-0.9,1.2-1.7,3.8-2.5,7.8C41.8,40,40.9,46,40.4,50c0,0.1,0.1,0.2,0.2,0.2l-0.2,2v3.4c0.4-0.2,1-0.9,1.8-2v-0.2L41,54.5l-0.2-0.3
		c1.2-1.2,2.2-2.5,2.9-3.9c0.2,0,0.7-0.5,1.6-1.5c0,0.1,0.1,0.2,0.2,0.2c0,0.2-0.3,0.6-1,1.3v0.2h0.3c1.1-1.6,2-2.5,2.6-2.5
		c1-0.8,1.9-2.4,2.8-4.7l1.1-1.5v-0.2h-0.2c-0.2,0.1-0.4,0.2-0.5,0.2v-0.2c0-0.2,0.1-0.3,0.3-0.3c0.1,0,0.2,0.1,0.2,0.2
		c0.3,0,1.1-0.8,2.3-2.3c1.1-1.1,1.8-2.1,2.1-2.9c1.7-2.4,3.1-4.1,4.2-5.1c0.3-0.1,0.9-1,1.9-2.4c-0.1-0.2-0.2-0.4-0.2-0.5l3.3-4.4
		c0.6,0,1.1-0.5,1.3-1.5c0.1-0.4,0.7-1.1,1.8-2.1c0-0.6,0.5-1.2,1.5-1.8c2.5-3.3,4.3-6,5.5-8.3c3.6-4.3,5.7-6.9,6.5-7.7
		C83.2,1.2,84,0.4,84,0.2h0.2c0.1,0,0.2,0.1,0.2,0.2l0.3-0.2h0.2l-1.5,2v0.2h0.2C84.8,0.8,85.6,0,86.1,0z M2.3,54.2v0.2h0.3
		c0-0.1,0.1-0.3,0.2-0.5H2.6C2.4,53.9,2.3,54,2.3,54.2z M3.6,49.3l0.2,0.3l-0.3,0.2l0.2,0.3c-0.3,1.2-0.6,1.8-0.8,1.8l-0.2-0.3v-0.2
		C3.1,50,3.5,49.3,3.6,49.3z M4.4,45.9h0.3v0.6H4.4V45.9z M6.7,40.4c0,0.4-0.2,1-0.7,2v0.3h0.2c0-0.2,0.3-1,0.8-2.3H6.7z M21.5,43.3
		h0.3c0-0.2,0.3-0.7,1-1.5v-0.2C22.6,41.7,22.2,42.2,21.5,43.3z M28,31.6l0.2,0.3l-0.3,0.2l-0.2-0.3L28,31.6z M33.7,29.9H34
		c0-0.1,0.3-0.5,0.8-1.1h-0.2C34.5,28.8,34.2,29.2,33.7,29.9z M42.3,53.2v0.2c0.1,0,0.4-0.4,1-1.1v-0.2
		C43.2,52.1,42.8,52.5,42.3,53.2z M43.9,50.9c0,0.2-0.2,0.5-0.5,0.8v0.2c0.3-0.3,0.5-0.5,0.6-0.5v-0.5H43.9z M49.6,43.5v0.2
		c-0.2,0.5-0.4,0.7-0.7,0.8v-0.3C49,43.9,49.2,43.7,49.6,43.5z M50.1,42.5h0.2v0.2c-0.2,0.5-0.4,0.8-0.6,0.8v-0.3
		C49.8,42.7,50,42.5,50.1,42.5z M52.1,39.9h0.2V40c-0.2,0.5-0.4,0.7-0.6,0.8v-0.5C51.6,40.2,51.8,40,52.1,39.9z M52.7,38.9h0.3v0.2
		c0,0.2-0.2,0.4-0.7,0.6v-0.5C52.4,39,52.5,38.9,52.7,38.9z M54.2,37.1h0.2v0.2c0,0.2-0.3,0.5-1,1v-0.2C53.8,37.4,54,37.1,54.2,37.1
		z M55.2,35.8h0.2V36c-0.3,0.4-0.5,0.6-0.5,0.8h-0.3v-0.2C54.8,36.1,55,35.8,55.2,35.8z M56.5,33.7h0.3V34c-0.9,1.2-1.4,1.8-1.5,1.8
		v-0.2L56.5,33.7z M58.1,31.9h0.2v0.2c0,0.2-0.2,0.4-0.6,0.7h-0.2v-0.2C57.5,32.4,57.7,32.1,58.1,31.9z M59.2,30.4v0.3
		c0,0.1-0.2,0.3-0.5,0.5h-0.2v-0.2C58.6,30.9,58.8,30.7,59.2,30.4z M62.8,25.4H63v0.2c-0.9,1.3-1.4,1.9-1.5,1.9v-0.3
		C62.2,26,62.7,25.4,62.8,25.4z M63.3,24.7h0.2v0.2c0,0.2-0.1,0.3-0.3,0.3H63v-0.2C63,24.8,63.1,24.7,63.3,24.7z M63.8,24.1H64v0.2
		c0,0.2-0.1,0.3-0.3,0.3h-0.2v-0.2C63.5,24.2,63.6,24.1,63.8,24.1z M65.8,21.5h0.2v0.2c0,0.1-0.3,0.4-0.8,0.8h-0.2
		C65.3,21.8,65.6,21.5,65.8,21.5z M66.4,20.7h0.2c0,0.2-0.1,0.3-0.3,0.3h-0.2C66.1,20.8,66.2,20.7,66.4,20.7z M67.1,19.9l0.2,0.3
		l-0.3,0.2L66.7,20L67.1,19.9z M67.7,18.7H68v0.2c0,0.1-0.2,0.3-0.5,0.5h-0.2C67.6,19.1,67.7,18.9,67.7,18.7z M71.6,16.9h0.6
		c0-0.4,0.1-0.6,0.3-0.6c0,0.1,0.1,0.2,0.2,0.2l0.2-0.3v-0.2h-0.5C72.2,15.9,72,16.3,71.6,16.9z M81,1.6L81.2,2
		c-3.9,4.5-6.5,7.9-8,10.1h-0.3v-0.2l6.2-8.1C79.2,3.7,79.9,3,81,1.6z"/>
	<path class="st0" d="M109.6,8.1c1.5,0.4,2.3,1,2.3,1.8c1.3,2.4,2,4,2,4.9c-0.2,1.2-0.3,1.9-0.3,2.1c0.1,0,0.4-0.1,0.9-0.4
		c0.1,0.1,0.3,0.2,0.6,0.2c0-0.2,0.4-0.3,1.1-0.3v0.3l0.6-0.2v0.2c0.1,0,0.1-0.1,0.1-0.2l0.8,0.2h0.3V17l-0.3,0.5
		c0.1,0.2,0.1,0.3,0.1,0.4c-1.3,0.8-3.1,1.7-5.6,2.8l-0.1,0.3v0.1c3.3-1.5,5.4-2.5,6.2-3l0.1,0.3c-0.4,1-2.3,2.1-5.5,3.4v0.1
		c0.1,0.2,0.1,0.3,0.1,0.4h-0.2l-0.3-0.3h-0.2l0.1,0.3c-0.1,0.2-0.1,0.3-0.1,0.4H112l-0.6-0.1c0,0.2-0.1,0.4-0.4,0.7
		c0.1,0,0.2,0,0.3,0.1c0.2-0.1,0.3-0.1,0.3-0.1c0,0.1,0,0.1,0.1,0.1l1-0.8l0.2,0.1c0.4-0.3,0.7-0.4,0.8-0.4v0.2
		c-0.1,0.2-0.9,0.6-2.3,1.3c0,0.2,0.1,0.3,0.3,0.3v0.3c-1.5,0.5-2.2,1.1-2.2,1.8l-0.2,0.4c0.1,0.2,0.1,0.3,0.1,0.4
		c-0.3,0.1-1.6,2.2-3.9,6.3c-2.5,4-4.6,7.6-6.3,10.8c-0.7,1.2-1.3,2-2,2.2c-1.2,2.5-2.2,3.9-2.9,4v0.3c0.1,0,0.2,0,0.2,0.1
		c0,0.1-0.5,0.8-1.6,2c-0.8-1.1-1.4-1.6-1.8-1.6h-0.7l0.1-0.7l-1-1c-0.2,0-0.3-0.2-0.3-0.5c0.4-1.2,2.6-4.8,6.5-10.9
		c0-0.4,1-2,2.9-4.9l0.6-1.1v-0.1l-3.2,1.3c0-0.1,0-0.1-0.1-0.1c-0.1,0.4-3.5,2-10,4.9c-0.4,0.3-1.1,0.7-2.2,1.2
		c-2.1,3.6-3.5,6-4.3,7.1c-1,1.7-1.6,2.5-1.7,2.5v-0.1c0.2-0.3,0.3-0.6,0.3-0.8h-0.3c-0.5,1.1-1.2,2.3-2.1,3.4l0.1,0.3v0.3h-0.1
		l-0.2-0.2c-0.6,0.7-1.6,1.7-3.2,2.9h-0.1c-0.3-0.3-0.6-0.5-1-0.7l0.1-0.3c0-0.1-0.4-0.5-1.3-1l-0.7,0.1c-0.1,0-0.2-0.1-0.2-0.3
		v-0.1l0.2-0.4c-0.5-0.2-0.8-0.5-0.8-0.7v-0.4c-0.1,0-0.2-0.1-0.2-0.3c0.6-0.6,1.8-2.4,3.7-5.4v-0.1c-4.2,2.1-6.7,3.2-7.5,3.5
		c-0.2-0.3-0.4-0.4-0.7-0.4c-0.4-0.4-0.8-0.9-1.3-1.6c-0.7-0.8-1.1-1.2-1.3-1.2c-0.2,0-0.3-0.1-0.3-0.3l0.1-0.3
		c-0.4-0.3-0.6-0.7-0.8-1V43c0.8-0.5,2.3-1.2,4.5-2.2c2.3-1.2,3.5-1.8,3.7-1.8c2.2-1.4,5.6-3.1,10.1-5.3c0.6,0,1.5-1.3,2.8-3.7
		c3.7-6.3,5.9-9.9,6.7-11h0.2v0.2l-0.6,1v0.1c0.7-0.8,1.8-2.9,3.5-6.2c0.3-0.3,0.8-1.2,1.4-2.8l0.2-0.1c1.4,0,2.7,1.7,3.9,5.1v0.3
		c-2.6,5-4.5,8.4-5.6,10.2c-0.3,0.5-0.5,0.9-0.5,1h0.1c0.4-0.3,1.7-0.9,3.9-1.8c7.2-3.5,10.8-5.3,11-5.3c0.2-0.3,0.7-1.1,1.3-2.4
		c0.1,0,0.4-0.4,0.8-1.1h0.3l-0.1-0.7l0.2-0.1c0,0.1,0,0.1,0.1,0.1c0-0.1,0.3-0.8,0.9-2.1c0.3-0.9,0.6-1.8,0.8-2.8
		c-0.1,0-0.2-0.1-0.2-0.3v-0.3c0.1-0.2,0.3-0.6,0.3-1.3l-0.3-1.6C109.5,8.3,109.6,8.2,109.6,8.1z M78,47.4v0.2
		c0.1,0,0.2-0.1,0.3-0.4V47C78.2,47,78.1,47.2,78,47.4z M81.9,29.9c0.1,0,0.3-0.2,0.4-0.7v-0.1C82,29.3,81.9,29.5,81.9,29.9z
		 M84.2,38.1h0.1c0.1,0,0.2-0.1,0.2-0.3h-0.1C84.2,37.8,84.2,37.9,84.2,38.1z M85.4,37.3v0.1h0.1c1.5-0.6,2.3-1,2.3-1.2h-0.1
		C86.3,36.9,85.5,37.3,85.4,37.3z M87.3,20.7v0.1c0.1,0,0.2-0.1,0.2-0.3v-0.1C87.4,20.4,87.3,20.5,87.3,20.7z M89.7,15.8l0.1,0.3
		c0,0-0.3,0.3-0.7,0.8H89v-0.1C89.4,16.1,89.6,15.8,89.7,15.8z M91.1,34.7v0.1h0.1c0.1-0.1,0.3-0.1,0.4-0.1v-0.1h-0.2
		C91.3,34.6,91.2,34.7,91.1,34.7z M91.9,34.2v0.3c0.3-0.2,0.5-0.3,0.6-0.3v-0.1h-0.3C92.1,34.2,92,34.2,91.9,34.2z M92.6,34.1h0.1
		c0.1,0,0.2-0.1,0.2-0.3h-0.1C92.7,33.9,92.6,34,92.6,34.1z M93.1,33.7v0.1h0.2c0.1-0.1,0.3-0.1,0.3-0.1v-0.2h-0.1
		C93.4,33.7,93.2,33.7,93.1,33.7z M94.3,33.3h0.2c0.2,0,0.3-0.1,0.3-0.3h-0.3C94.4,33.1,94.3,33.2,94.3,33.3z M94.9,33.1H95
		c0.8-0.3,1.2-0.6,1.4-0.8h-0.3C95.3,32.7,94.9,32.9,94.9,33.1z M96.5,32.1v0.1h0.2c1-0.5,1.6-0.8,1.9-0.8v-0.1h-0.5
		C97.2,31.9,96.7,32.1,96.5,32.1z M97.3,27.8L97.3,27.8c0.4-0.2,0.8-0.4,1.4-0.5V27C97.8,27.4,97.3,27.7,97.3,27.8z M99.2,31.1h0.1
		c0.3-0.1,0.4-0.3,0.4-0.4h-0.1C99.3,30.8,99.2,30.9,99.2,31.1z M100.2,26.2v0.1h0.6c0.8-0.5,1.3-0.8,1.6-0.8v-0.2h-0.3
		C101.7,25.7,101,26,100.2,26.2z M110.7,24.2v0.1h0.1c0.1-0.1,0.3-0.1,0.3-0.1V24H111C110.8,24,110.7,24.1,110.7,24.2z M114.2,21.4
		c0,0.2-0.3,0.4-1,0.5v-0.3C113.7,21.5,114.1,21.4,114.2,21.4z M114.4,21.2h0.2v0.3h-0.4C114.2,21.3,114.3,21.2,114.4,21.2z"/>
	<path class="st0" d="M142.2,9c1,0,1.6,0.1,2.1,0.4c1.6,1.3,2.4,2,2.5,2.2c0,0.8-0.5,2.5-1.6,5.3c-0.5,1.2-1.3,3.3-2.4,6.4l-0.2,0.3
		v0.2c0.9-0.2,1.5-0.4,1.7-0.5l0.4,0.1c0-0.1,0.2-0.2,0.6-0.3c0.1,0.1,0.2,0.1,0.3,0.1c0-0.1,0.6-0.3,1.8-0.5
		c0.6-0.2,1.2-0.4,1.7-0.4v0.1l0.2-0.1h0.2l0.6,0.1c0-0.1,0.2-0.2,0.7-0.3c0.2-0.1,0.3-0.2,0.3-0.3l0.5-0.1c0.3,0.1,0.5,0.1,0.7,0.1
		v0.1c0,0.1-0.1,0.2-0.3,0.2V22h0.3c0.1,0,0.2-0.1,0.2-0.2c-0.1,0-0.1,0-0.1-0.1c0.2-0.2,0.5-0.3,0.9-0.3c0.8,0.2,1.3,0.3,1.5,0.3
		c0-0.1,0.1-0.2,0.2-0.2h0.2c0.3,0,0.5,0.1,0.6,0.3c-0.2,0.1-0.3,0.2-0.3,0.3c0.1,0,0.1,0,0.1,0.1c-0.1,0.1-0.2,0.1-0.3,0.1
		l-0.4-0.1l0.1,0.2c0,0.1-0.1,0.2-0.2,0.2h-0.4v0.1c0.1,0.1,0.1,0.2,0.1,0.3l-0.2,0.1h-0.4v0.2h0.1c0.1-0.1,0.2-0.1,0.3-0.1v0.1
		c0.2-0.1,0.4-0.2,0.5-0.2v0.1c0,0.1-0.7,0.3-2,0.6c-0.5,0.1-0.7,0.2-0.7,0.4h-0.3l-0.3-0.2c-0.2,0.2-0.5,0.3-0.9,0.3v0.1
		c0.1,0,0.3,0.1,0.5,0.3c0.1-0.1,0.2-0.1,0.3-0.1v0.1c0,0.1-0.1,0.2-0.3,0.3l-0.2-0.1c0,0.1-0.1,0.2-0.2,0.2h-0.4v-0.2h0.5v-0.1
		c0-0.1-0.1-0.2-0.3-0.3c0,0.1-0.1,0.2-0.2,0.2h-0.2v-0.3h-0.2v0.1l0.1,0.2l-0.2,0.1h-0.2v-0.2h-0.3v0.2l0.2-0.1h0.1v0.1
		c0,0.1-0.6,0.3-1.8,0.5c0,0.1,0.1,0.2,0.2,0.2c0.2-0.1,0.7-0.2,1.3-0.3h0.1v0.2c-0.1,0-0.2,0-0.3,0.1l0.1,0.2v0.1l-0.3-0.2h-0.1
		c-0.3,0-0.5,0.1-0.5,0.3h0.3v-0.2h0.3v0.3c-0.5,0.1-1,0.2-1.6,0.4c-0.1-0.1-0.2-0.1-0.3-0.1c0,0.1-0.1,0.2-0.2,0.2l-0.3-0.2
		l-0.2,0.1l-0.2-0.1l-1.2,0.4c-0.1-0.1-0.2-0.1-0.3-0.1c-0.4,0.3-0.6,0.4-0.6,0.5c-1,0.2-1.7,0.5-2.1,0.8l0.1,0.2v0.2
		c-0.1,0.2-0.2,0.3-0.5,0.3l-0.4-0.1c0,0.2-0.2,0.3-0.5,0.4l-2.2,5.3L133.9,45c-0.3,0.4-0.9,2-1.9,4.5c-1.3,2.5-1.9,4-1.9,4.4
		c-0.2,0.4-0.3,0.5-0.4,0.5h-0.1c-0.1,0-0.2-0.1-0.2-0.3l-0.5,0.3c0-0.3-0.2-0.5-0.5-0.5c0-0.1-0.2-0.3-0.5-0.5
		c0,0.1-0.1,0.2-0.3,0.3c0-0.1-0.1-0.3-0.3-0.6c-0.2,0.1-0.4,0.2-0.5,0.2h-0.1v-0.2c0-0.1,0-0.2,0.1-0.3c-0.1-0.4-0.2-0.6-0.4-0.6
		c0.8-2.9,1.4-4.5,1.8-4.9c-0.1,0-0.2-0.1-0.2-0.2c0.2,0,0.4-0.3,0.6-1l0.2-0.1l-0.1-0.2v-0.3c0.8-1.3,1.6-3.1,2.4-5.3l-0.1-0.2
		c0.5-0.9,1-2.1,1.5-3.7c0.3-0.2,0.7-1.2,1.3-2.9c0.3-0.3,0.6-1,1-2.3c0.2-0.2,0.3-0.5,0.3-0.7c-0.1,0-0.2,0.1-0.3,0.1
		c0,0,0-0.1-0.1-0.1c0,0.1-0.1,0.2-0.2,0.2h-0.1l-0.3-0.2H134l-0.3,0.2c-0.1,0-0.2-0.1-0.2-0.3c-0.6,0-1.6,0.3-2.9,0.8l0.2,0.4
		c-1,0.4-2,0.7-3.1,1c-0.6,0.1-1,0.3-1.1,0.3h-0.1l-0.3-0.2h-0.1l0.1,0.2l-0.2,0.1c0-0.1-0.1-0.2-0.2-0.2h-0.2l0.1,0.2v0.2l-5.5,1.7
		c-0.5,0-1.7,1-3.5,2.9c-6.1,5.5-10.3,8.6-12.6,9.2c-0.1,0-0.3,0-0.3,0.1c-0.7-0.1-1.3-0.5-1.9-1c-0.1-0.1-0.5-0.3-1-0.7
		c0.1,0,0.1,0,0.1-0.1c-0.1,0-0.2-0.1-0.2-0.2v-0.3c0.1-0.2,1.2-0.8,3.5-1.9c2.5-1.9,4.5-3.5,6-4.9v-0.1c-2,0.5-3.7,0.9-5.1,1.1
		c-0.1-0.1-0.2-0.1-0.3-0.1c0,0.1-0.1,0.2-0.4,0.3l-0.1-0.2c0.1,0,0.1,0,0.1-0.1c-0.4,0-1-0.4-1.7-1.2l-0.5-0.1h-0.3v-0.1l0.2-0.3
		v-0.1c-0.2,0-0.5-0.2-0.7-0.5v-0.3c0.6-0.4,2.4-1,5.3-1.6c0.9-0.4,2.7-0.9,5.5-1.6c1.1-0.5,2.3-0.9,3.5-1.1c0-0.1,0.2-0.2,0.7-0.3
		v0.1c1-0.2,1.7-0.7,2.3-1.4c0.3,0,0.5-0.2,0.5-0.5c0.1,0,0.5-0.4,1.1-1.1c0.3,0,0.4-0.1,0.5-0.4c0.3-0.4,1.1-1.3,2.6-2.6l4.6-4.5
		c1.8-1.7,2.8-2.5,2.9-2.5c0.5-0.7,1.4-1.4,2.5-2.4c0.1,0.1,0.2,0.1,0.3,0.1c0.1-0.3,0.2-0.5,0.3-0.5c0,0,0,0.1,0.1,0.1
		c0-0.2,0.2-0.3,0.6-0.3l-0.1-0.2v-0.1c0-0.1,0.1-0.2,0.2-0.2c0,0.1,0,0.1,0.1,0.1c0.4-0.4,0.5-0.6,0.5-0.7l0.2,0.1h0.1
		c0-0.5,1-1.5,3.1-3.1c0.3-0.4,0.9-0.9,1.7-1.5C140.7,9.8,141.3,9.4,142.2,9z M140.3,16.1v-0.3c-2.3,1.8-6.8,5.9-13.5,12.4h-0.1v0.2
		c5.2-1.5,8.4-2.5,9.9-3c0-0.1,0-0.1,0.1-0.1c0.1,0,0.1,0,0.1,0.1c0.2,0,0.7-1,1.4-3.1c0.9-2.1,1.3-3.2,1.3-3.4
		c-0.1,0-0.3,0.3-0.5,1h-0.1c0-0.1,0-0.1-0.1-0.1c0.3-0.9,0.5-1.3,0.6-1.4l-0.1-0.2v-0.1c0.2-0.1,0.4-0.8,0.8-1.9L140.3,16.1
		L140.3,16.1c0,0.4-0.2,0.9-0.5,1.6V18c0.1,0,0.4-0.9,1-2.6h-0.1L140.3,16.1z M135.1,14.8L135.1,14.8c0.1,0.1,0,0.2-0.2,0.3V15
		C134.9,14.8,135,14.8,135.1,14.8z M141.5,28.3h0.2c0.1,0,0.2-0.1,0.2-0.2v-0.1h-0.1C141.7,28.1,141.6,28.1,141.5,28.3z M143.6,26.5
		L143.6,26.5l-0.3-0.1c0,0.1-0.1,0.2-0.4,0.3h-0.3l-0.3-0.3v0.1l0.1,0.2l-0.2,0.1c0-0.1-0.1-0.2-0.2-0.2H142l0.1,0.2
		c-0.1,0-0.2,0.1-0.2,0.2v0.1l2.2-0.6c0-0.1-0.1-0.2-0.2-0.2L143.6,26.5z M144.2,26.4h0.2c0.1-0.1,0.2-0.1,0.3-0.1v-0.1h-0.3
		C144.2,26.2,144.2,26.3,144.2,26.4z M144.6,26.1c0.1,0,0.1,0,0.3,0.1h0.2v-0.1c-0.2,0-0.3-0.1-0.3-0.2
		C144.6,26,144.6,26,144.6,26.1z M144.8,26.5h0.3v-0.2H145C144.9,26.3,144.8,26.4,144.8,26.5z M145.4,26c0,0.1,0.1,0.2,0.2,0.2
		l0.1-0.2H145.4z M146.9,25.6L146.9,25.6l0.3,0.1v-0.2C147.1,25.6,147,25.6,146.9,25.6z M147.4,25.5h0.3v-0.2h-0.1
		C147.4,25.4,147.4,25.4,147.4,25.5z M147.6,25.9L147.6,25.9c0.2,0,0.3-0.1,0.3-0.2h-0.1C147.7,25.7,147.6,25.8,147.6,25.9z
		 M151.2,22l-0.1,0.2h0.1c0.1-0.1,0.2-0.1,0.3-0.1V22H151.2z M155.1,22.8h0.3V23h-0.3V22.8z"/>
	<path class="st0" d="M194.8,8.9c0.3,0.1,0.5,0.3,0.5,0.4c-0.1,0-0.2,0.1-0.2,0.2c0.6,0,1,0.2,1.2,0.7c0.1,0,0.2,0.1,0.3,0.3
		l-0.5,0.4h0.1l0.2-0.1c0.4,0.1,0.6,0.3,0.6,0.6c-0.2,0.2-0.8,0.4-1.7,0.6c-0.1-0.1-0.2-0.1-0.3-0.1v0.4c0.2-0.1,0.5-0.3,1-0.4
		c0.4,0.1,0.5,0.1,0.5,0.3c-0.2,0.2-0.7,0.4-1.5,0.6c0,0.1-0.6,0.3-1.8,0.5h-0.6c0,0.1-0.2,0.2-0.5,0.4h0.3v0.2l-0.6,0.1v0.1h0.7
		v0.2c-1.2,0.3-1.8,0.5-1.9,0.5v0.1h0.2l0.5-0.1l0.1,0.2v0.1c-1.4,0.3-3.6,0.7-6.5,1.5c-1.7,0.5-3.9,1-6.5,1.7l-0.1-0.2
		c0.5-0.2,1.2-0.4,2.2-0.6V17h-0.3c-1.7,0.4-2.6,0.7-2.7,0.8c0.1,0.1,0.1,0.2,0.1,0.3c-0.3,0-0.7,0.6-1.1,1.8
		c-1.2,2.9-4.9,8-11,15.3c-3,3.6-7.1,9-12.3,16.2c-0.6,0.9-1.2,1.9-1.9,3.2l-0.3-0.3h-0.2l-0.3,0.2c-0.1-0.2-0.2-0.5-0.2-0.7
		c0.1,0,0.1,0,0.1-0.1c-0.3,0-0.5-0.3-0.5-0.8c0.1,0,0.1,0,0.1-0.1h-0.2l-0.3,0.2c-0.1-0.3-0.2-0.6-0.2-1c0,0,0.1,0,0.1-0.1
		l-0.2-0.1v0.4h-0.4c-0.1,0-0.2-0.1-0.2-0.2v-0.1l0.1-0.7c-0.1,0-0.2-0.1-0.2-0.3c0.2-0.8,0.6-1.6,1.3-2.5c0.3-0.6,0.7-1,1.3-1.3
		l0.2-0.3v-0.1h-0.2c0-0.2,0.6-1.1,1.7-2.7l0.4-0.4v-0.1l-0.1-0.2l0.4-0.2l-0.1-0.2v-0.1c0.7-1,1.2-1.4,1.5-1.5l0.1-0.2
		c-0.1-0.1-0.1-0.2-0.1-0.3c0.3,0,0.6-0.3,1-0.9c-0.1-0.1-0.1-0.2-0.1-0.4h0.2l0.2,0.1c0-0.1,0.6-0.8,1.7-2.1l2.4-3.4l-0.1-0.2
		c1.1-1.5,2.2-2.8,3.4-4c0.2,0,0.8-0.7,2-2l0.5-0.1v-0.1l-0.2-0.3c0.7-1,1.1-1.5,1.2-1.5c0.1,0.1,0.2,0.1,0.3,0.1
		c0-0.3,0.5-1,1.4-2.1l-0.1-0.2c0.3-0.5,0.7-0.9,1.1-1.2c-0.1-0.1-0.1-0.2-0.1-0.3c0.1,0,0.4-0.4,1.1-1.1l0.1,0.2
		c-0.1,0-0.3,0.3-0.7,0.8h0.1c0.2-0.1,0.7-0.8,1.6-2.3v-0.2c-0.2,0-0.3-0.1-0.3-0.3h-0.1c-0.1,0.1-0.8,0.3-2,0.4
		c-3.5,1.1-7.2,2.2-11.1,3.1c-1.4,0.5-3.1,1.1-5.3,1.6c-0.1-0.3-0.2-0.4-0.3-0.4l-0.4,0.1c0-0.1,0-0.1-0.1-0.1l0.1-0.5
		c-0.3-0.5-0.6-0.8-0.7-0.8l-0.3-0.3v-0.5c-0.3,0-0.7-0.5-1.2-1.6c-0.1,0-0.2-0.1-0.2-0.2c0.3-0.3,1.6-0.7,3.9-1.2
		c3.5-1.2,9.7-3,18.7-5.1C186,10.6,193.3,8.9,194.8,8.9z M167.9,25.7L167.9,25.7c0.2,0,0.3-0.1,0.5-0.4v-0.1
		C168.2,25.2,168,25.4,167.9,25.7z M168.5,24.8L168.5,24.8c0.1,0,0.2,0,0.3,0v-0.2h-0.1C168.6,24.7,168.5,24.7,168.5,24.8z
		 M180.6,16.9L180.6,16.9l0.2,0.1c0.2-0.1,0.3-0.2,0.5-0.2v-0.1h-0.1C181,16.9,180.8,16.9,180.6,16.9z M182.9,16.3l-0.1,0.2h0.3
		C183.1,16.3,183,16.3,182.9,16.3z M184.9,15.8L184.9,15.8l0.3,0.1c0.1-0.1,0.2-0.1,0.4-0.1v-0.1h-0.1L184.9,15.8z M186.1,15.5
		L186.1,15.5l0.3,0.1c0.2-0.1,0.4-0.2,0.6-0.2v-0.1h-0.3C186.5,15.5,186.3,15.5,186.1,15.5z M187.1,15.2L187.1,15.2l0.4,0.1v-0.1
		H187.1z M187.7,15.1L187.7,15.1l0.2,0.1l2.5-0.5v-0.1h-0.3C188.8,14.9,188,15.1,187.7,15.1z M191.2,12.9v0.2h0.1
		c0.1,0,0.2-0.1,0.2-0.2H191.2z M191.6,12.8L191.6,12.8L191.6,12.8c0.4,0,0.7,0,1,0v-0.1c0-0.1-0.1-0.2-0.3-0.3h-0.1
		C191.9,12.7,191.8,12.8,191.6,12.8z M192.5,12.3L192.5,12.3c0,0.2,0.1,0.3,0.4,0.5c0.1-0.1,0.2-0.1,0.3-0.1l-0.2-0.3h0.2l0.7,0.2
		c0.1-0.1,0.2-0.1,0.3-0.1v-0.1h-0.3v-0.1c0-0.1,0.2-0.2,0.5-0.2v-0.2C193.7,12,193.1,12.1,192.5,12.3z M192.6,13.2h0.3v0.2h-0.1
		C192.6,13.4,192.6,13.3,192.6,13.2z M194.4,12.2v0.2h0.4v-0.2H194.4z"/>
	<path class="st0" d="M224.5,8.9l1.1,0.2c0,0,0.1,0,0.1-0.1c2.4,0.4,4.2,0.9,5.4,1.7c1.7,1.4,3,3,3.9,4.8c0.2,0.7,0.3,1.3,0.3,1.7
		c0,1.6-0.7,3.5-2.1,5.4c-0.2,0.7-2,2.9-5.5,6.5c-1.3,1.1-2.7,2.3-4.1,3.6c-4.1,3.5-8.9,7.1-14.4,11c-9.2,6.4-14.8,9.9-16.9,10.6
		c-0.3,0-0.6-0.2-1.1-0.6c-0.1,0-0.2-0.2-0.3-0.5c-0.2,0-0.4-0.3-0.8-0.8c-0.3,0-0.4-0.1-0.4-0.2V52h-0.1v-0.2
		c0.4-0.5,0.9-0.9,1.5-1.2c0-0.1,0.3-0.3,0.9-0.5c0-0.1-0.3-0.3-0.8-0.7c-0.2,0.2-0.4,0.3-0.6,0.3v-0.1c0.1-0.4,0.2-0.6,0.2-0.7
		c-0.1,0-0.2-0.1-0.2-0.3c0-0.8,0.4-1.6,1.2-2.3c0.5-1.2,1-1.8,1.2-1.9l0.2,0.1c0.2-0.3,0.3-0.4,0.3-0.4l-0.1-0.2
		c0.2-0.2,0.4-0.5,0.6-1l-0.1-0.2c0-0.3,0.2-0.5,0.5-0.6l0.1-0.2c-0.1,0-0.2-0.1-0.2-0.2c0.3-0.7,0.7-1.2,1.2-1.5v-0.2h-0.2v-0.1
		c0.1-0.2,0.3-0.5,0.5-1h0.2v0.1l-0.1,0.2h0.1c0.6-0.8,1-1.3,1.1-1.5l2.6-4.6c0.3-0.4,1-1.8,2.3-4.4c4.2-8.3,6.2-12.7,6.2-13.2
		c0,0-0.1-0.2-0.4-0.6c0-0.1,0.1-0.2,0.1-0.3c-0.1,0-0.3-0.2-0.6-0.7l-0.4-0.2c-0.1,0-0.2,0.1-0.3,0.1l-0.1-0.2c0.7-0.7,1.1-1,1.2-1
		c1.4-0.6,2.2-1,2.4-1.2c0.3-1,0.7-1.5,1.5-1.5c0-0.1,0.1-0.2,0.2-0.2c0,0,0.2,0.2,0.5,0.5c3.1-0.8,5.6-1.2,7.3-1.3
		C221.2,9.2,222.8,9,224.5,8.9z M224.4,12.7c-0.1,0-0.2-0.1-0.3-0.1l-0.5,0.1v-0.1c-3.5,0.4-5.4,0.7-5.6,0.8c-0.1,0-0.2-0.1-0.3-0.1
		c0,0.1-1.1,0.4-3.3,0.9c-1.2,0.4-1.9,0.7-1.9,0.9c-1.7,4-4.7,10.3-9.1,18.9c-4.3,7.8-6.7,12-7.1,12.6V47c-0.3,0.3-0.6,0.6-0.7,1
		h0.2c0.2-0.4,0.8-0.9,1.8-1.4c0-0.3,0.1-0.4,0.3-0.4l0.2,0.1c0.4-0.5,0.9-0.8,1.4-0.8c0.3-0.2,0.4-0.4,0.4-0.5h0.3
		c0-0.1,0.2-0.3,0.6-0.5v-0.2l0.2,0.1c0.4-0.2,0.6-0.3,0.7-0.3V44h-0.1c-0.1,0-0.2,0.1-0.3,0.1V44c0-0.1,0.1-0.2,0.2-0.2l0.4,0.1
		c0-0.1,0.3-0.4,1-0.8c0-0.2,0.2-0.4,0.6-0.5c0.4-0.4,1-0.8,1.8-1.3l0.1-0.2H205c0,0.1-0.2,0.3-0.6,0.4h-0.1c0.4-0.4,1.4-1.2,3-2.3
		h0.3l-0.2,0.3h0.2c0.2-0.1,0.4-0.3,0.5-0.5V39l-0.3,0.3h-0.1c0.1-0.2,0.3-0.4,0.7-0.6h0.2l-0.1,0.2v0.1c0.4-0.3,0.7-0.5,0.7-0.5
		h-0.1l-0.3,0.2h-0.2c0-0.1,0.2-0.3,0.5-0.5c0,0.1,0.1,0.2,0.2,0.2h0.1v-0.1c0-0.1-0.1-0.2-0.1-0.3l0.4-0.2l0.1,0.2
		c0.8-0.3,1.3-0.6,1.3-0.9l1.3-1l0.2,0.1c0-0.2,0.3-0.4,0.8-0.6c0-0.2,0.3-0.5,1-1v-0.2l-0.3,0.3h-0.1v-0.1c0-0.1,0.1-0.2,0.3-0.3
		l0.4,0.1l-0.2-0.3V34l0.5-0.4l0.3,0.1h0.1v-0.1H215v-0.1c0.9-0.9,1.6-1.4,2.2-1.7c0.3-0.3,0.5-0.4,0.5-0.4l0.4,0.1
		c0.4-0.4,0.7-0.6,0.7-0.7v-0.1l-0.3,0.2l-0.1-0.2c0.2-0.2,0.4-0.3,0.5-0.3l0.2,0.1c0.2-0.1,0.3-0.2,0.3-0.3h-0.1
		c-0.1,0-0.2,0.1-0.3,0.1v-0.1c0.2-0.4,0.5-0.6,0.9-0.6l-0.1-0.2c0,0,0.3-0.2,0.9-0.6c0.4,0,0.7-0.1,0.7-0.3c-0.1,0-0.2-0.1-0.2-0.2
		l0.8-0.9h0.1c0.1,0,0.1,0,0.1,0.1c0.1,0,0.3-0.2,0.4-0.7c0.2-0.2,0.7-0.7,1.4-1.3v0.1c0.1,0,0.4-0.3,0.8-1c0.4-0.3,0.8-0.7,1.3-1
		c0-0.2,0.5-0.8,1.5-1.8c1.6-1.8,2.6-3.3,3-4.4c0.6-1.1,0.9-2.1,0.9-3.1v-0.3c0-0.4-0.5-0.7-1.4-0.9c-0.1-0.1-1-0.3-2.7-0.6
		c-0.1,0-0.1,0-0.1,0.1c-0.6-0.1-1-0.1-1.1-0.2c-0.1,0.1-0.2,0.1-0.3,0.1c-0.1,0-0.2,0-0.2-0.1L224.4,12.7z M195.6,40.1v0.2h0.1
		c0-0.3,0.2-0.5,0.4-0.5c0-0.1-0.1-0.2-0.2-0.2C195.9,39.6,195.7,39.8,195.6,40.1z M198.3,45.6L198.3,45.6c0,0.2-0.2,0.4-0.4,0.4
		l-0.1-0.2L198.3,45.6z M200.8,32.4L200.8,32.4c0.1,0.1,0.2,0,0.4-0.3V32C201.1,32,201,32.1,200.8,32.4z M202.5,29.3L202.5,29.3
		c0.1,0.1,0.2,0,0.2-0.1v-0.1C202.5,29.1,202.5,29.2,202.5,29.3z M203.7,42c0,0.1-0.2,0.2-0.7,0.5v-0.1
		C203.2,42.2,203.4,42,203.7,42z M205.4,41h0.2c0.1,0,0.2-0.1,0.3-0.3h-0.1C205.7,40.7,205.6,40.8,205.4,41z M206.2,40.4L206.2,40.4
		c0.2-0.1,0.3-0.2,0.4-0.2v-0.1h-0.1C206.3,40.3,206.2,40.4,206.2,40.4z M208.7,40.4v0.2h0.1c0.1,0,0.2-0.1,0.2-0.2v-0.1
		C208.9,40.3,208.8,40.4,208.7,40.4z M213.5,39.9c0,0.2-0.1,0.3-0.3,0.3v0.1h0.2c0-0.1,0.1-0.2,0.3-0.3v-0.1H213.5z M215.5,33.4v0.2
		c0.1-0.1,0.2-0.1,0.3-0.1v-0.1H215.5z M217.2,32.1h0.3V32h-0.1C217.2,32,217.2,32.1,217.2,32.1z M219.9,29.8V30h0.1
		c0.1,0,0.2-0.1,0.2-0.2H219.9z M220.4,29.4c0,0.1-0.1,0.2-0.2,0.2v0.1h0.2V29.4L220.4,29.4L220.4,29.4z M228.4,21.4L228.4,21.4
		c0.1,0.1,0.2,0,0.3-0.2h-0.1C228.5,21.3,228.4,21.3,228.4,21.4z M228.8,21L228.8,21c0.1,0.1,0.2-0.1,0.5-0.5v-0.1
		C229.1,20.4,229,20.6,228.8,21z M230.1,18.8c0,0.2-0.2,0.5-0.6,1c0,0.1-0.1,0.2-0.3,0.4v0.1h0.1c0.4-0.5,0.7-1,1-1.5H230.1z
		 M230.8,17.7L230.8,17.7l0.2,0.1v-0.3C230.8,17.5,230.8,17.6,230.8,17.7z"/>
	<path class="st0" d="M262.9,9h2.6c1.1,0,1.7,0.1,1.7,0.2l0.2-0.1c0.2,0.1,1,0.3,2.3,0.5c2.3,0.9,3.7,2,4.2,3.4
		c1.1,1.7,1.6,2.9,1.6,3.6c-0.4,1.7-2.8,3.8-7.3,6.5c-3,1.7-6.9,3.6-11.8,5.8c-5.2,2.5-8,3.7-8.4,3.7v0.1c0.2,0.2,1.3,0.8,3.2,1.7
		c0,0.1,0.9,0.7,2.6,1.7l2.9,2.1c2.5,2.4,4.2,4.2,5.1,5.5c2.7,3.9,4.3,7,4.8,9.1c-0.3,0.3-0.5,0.4-0.8,0.4c-0.7,0-1.1-0.5-1.3-1.4
		c-0.3-0.4-0.5-0.6-0.5-0.7c0-0.1-0.3-0.5-0.8-1.1c-0.9-2.4-2-4.3-3.5-5.8c-1-1.2-2.4-2.5-4.1-3.9c-4.3-2.8-7.6-4.4-9.7-4.8
		l-2.6,4.3c-1.3,1.7-3.4,4.7-6.3,8.9c-0.1,0-1.1,1.1-2.7,3.4c-0.8,1.4-1.4,2.2-2,2.3l-0.2-0.4l-0.2,0.1h-0.1
		c-0.2-0.3-0.5-0.5-0.8-0.6c0-0.5-0.3-0.7-0.9-0.7c0-0.1-0.1-0.3-0.3-0.6l-0.2,0.1h-0.2c-0.2-0.4-0.5-0.8-0.9-1.1
		c0.4-0.5,0.7-0.7,0.9-0.7v-0.1l-0.1-0.2c0.1,0,0.1,0,0.1-0.1l0.2,0.1c0.1,0,0.2-0.1,0.3-0.3c-0.1-0.1-0.1-0.2-0.1-0.3
		c0.2-0.3,0.5-0.5,0.8-0.5V49c-0.1-0.1-0.1-0.3-0.1-0.3c0.3,0,0.8-0.5,1.5-1.5c0.3-0.3,0.6-0.7,0.9-1.3c0.1,0,0.4-0.4,0.8-1.3
		c0.3-0.1,0.8-0.9,1.5-2.5c0.1,0,0.3-0.3,0.6-0.8v-0.1h-0.2v-0.2h0.1c0.1,0.1,0.2,0.1,0.3,0.1c0.2-0.6,0.5-1,1-1.2
		c0-0.2,0.3-0.6,1-1.1c0-0.5,0.3-1,0.8-1.6c-0.1,0-0.1,0-0.1-0.1c0.1,0,0.7-0.7,1.5-2c0.1,0,0.2-0.2,0.3-0.6c0.7-0.6,1-1.1,1-1.5
		c-0.1-0.3-0.4-0.7-1-1.2c-0.3-0.3-0.4-0.6-0.4-0.8v-0.2c0-0.3,0.5-0.5,1.5-0.6c1.9-0.6,2.9-1.1,2.9-1.5c0.1,0,0.7-0.7,1.5-2.2
		c0.8-1.4,1.5-2.3,2.2-2.8v-0.1l-0.1-0.2h0.3l-0.1-0.2c0-0.4,0.2-0.7,0.6-0.8c0-0.2,0.3-0.7,0.8-1.4c1-1.4,1.9-2.9,2.7-4.6
		c-0.1,0-0.1,0-0.1-0.1c-1.9,0.5-4.3,1.4-7.3,2.4c-3.5,1.5-5.5,2.3-6,2.3c-0.6-0.1-1-0.4-1.2-0.8c-0.1-0.5-0.4-0.9-0.9-1.1
		c0-0.4-0.3-0.6-0.8-0.7v-0.1c0.1,0,0.1,0,0.1-0.1c-0.2,0-0.3-0.3-0.4-0.9c0.2-0.2,1.2-0.6,2.9-1.1c4-1.8,7.7-3.2,11.1-4.1
		c2.8-0.6,4.5-1.1,5.1-1.5c0.3,0,0.6-0.1,0.8-0.3h0.1c0.1,0,0.1,0,0.1,0.1l0.2-0.1c0.8,0.1,1.3,0.1,1.3,0.1c0.8-0.3,1.6-0.4,2.2-0.4
		l-0.1-0.2l0.2-0.1v0.3C261.7,9.3,262.7,9.1,262.9,9z M234.9,42v0.2c0,0.1-0.1,0.2-0.2,0.2v-0.2C234.8,42,234.8,42,234.9,42z
		 M236.2,40.3L236.2,40.3c0.1,0.1,0,0.2-0.2,0.3v-0.1C236,40.3,236,40.3,236.2,40.3z M238.6,36.7v0.2c0,0.1-0.1,0.2-0.2,0.2v-0.2
		C238.4,36.8,238.5,36.7,238.6,36.7z M240.1,34.5L240.1,34.5c-0.1,0.7-0.6,1.4-1.5,2.2v-0.2L240.1,34.5z M240.9,33.3L240.9,33.3
		c0,0.5-0.1,0.7-0.3,0.7c0-0.1,0-0.1-0.1-0.1C240.7,33.5,240.8,33.3,240.9,33.3z M262.3,14v-0.1l-4.4,0.8h-0.3v0.1
		c0.3,0.4,0.4,0.7,0.5,1l-4.7,8.5c-0.1,0-0.3,0.3-0.7,0.9h0.2c1.5-0.8,3.3-1.6,5.3-2.3c2.4-1.3,4.5-2.5,6.4-3.7h-0.1
		c0,0-0.5,0.2-1.3,0.5c0.5-0.5,1-0.8,1.5-0.8c0,0.1,0.1,0.2,0.2,0.2h0.1c0.1,0,0.2-0.1,0.2-0.2c0-0.1,0-0.1-0.1-0.1
		c0.5-0.6,1.9-1.7,4.1-3.2c0-0.1,0.4-0.6,1.3-1.4v-0.3h-0.1c-1.1-0.1-1.9-0.2-2.2-0.2C265.9,13.6,263.9,13.7,262.3,14z M266.3,18.1
		h0.2c0.1,0,0.2-0.1,0.2-0.2h-0.2C266.4,17.9,266.3,18,266.3,18.1z"/>
	<path class="st0" d="M307.3,8.6v0.1l-0.2,0.4v0.1h0.4c0.3-0.3,0.9-0.4,1.7-0.4c1.1,0.2,1.6,0.7,1.6,1.4v0.1
		c-0.1,0.2-0.1,0.3-0.1,0.4c0.4,0,0.5,0.1,0.5,0.4v0.1c-0.4,0.4-0.6,0.7-0.6,0.8l-0.2-0.1h-0.5c0,0.2,0.1,0.3,0.4,0.3v0.3l-0.5-0.1
		l-0.1,0.3c0.4,0,0.5,0.1,0.5,0.3c-0.1,0-0.4,0.2-0.9,0.6c-0.3,0-1.2,0.3-2.7,1v0.1h0.1c0.7-0.3,1.2-0.5,1.4-0.6l0.1,0.3
		c-0.6,0.3-1.9,1-4.1,1.9v0.1h0.1l0.5-0.1v0.3c-0.3,0-1.1,0.4-2.2,1.1c-1.1,0.3-3.1,1.1-6,2.5v0.8l0.2,0.4c-1,1.2-2.5,3.7-4.6,7.4
		c-0.7,0.8-1.8,2.6-3.4,5.4c-0.1,0-1.1,1.5-3.1,4.6h0.1c1.3-0.7,2.6-1.2,4-1.5v0.1l-0.1,0.3h0.1c0.3-0.1,0.6-0.3,0.9-0.5
		c0.1,0,0.1,0,0.1,0.1c1.2-0.7,2.3-1.1,3.3-1.2l0.6,0.1c0.5-0.3,1.2-0.5,2.1-0.6c0,0.2,0.1,0.3,0.4,0.3v0.3c-0.3,0-0.6,0.4-1.2,1.2
		c-2.7,1-4,1.7-4.1,1.9h0.1c0,0,1.1-0.4,3.2-1.3c0.2,0.2,0.4,0.3,0.5,0.3v0.3l-3.3,1.8l-0.3,0.4l-0.6-0.1l0.1,0.3
		c-0.2,0-0.5,0.2-1,0.5h-0.1v0.1c0.3,0,0.5,0.2,0.5,0.6h-0.1l-0.3-0.3h-0.1v0.3h0.3c0,0.2-0.1,0.3-0.2,0.3h-0.2v-0.3h-0.2l0.1,0.3
		v0.1c-0.2,0-0.3,0-0.4-0.1c-0.1,0-0.3,0.2-0.6,0.6h-0.1l-0.2-0.1c-0.4,0.6-0.7,0.9-1,0.9v0.1h0.1l0.8-0.3v0.3c-0.2,0-2,0.9-5.3,2.8
		v0.1h0.1c0.5-0.2,0.7-0.3,0.8-0.3v0.3c-0.3,0-1.6,0.8-4.1,2.4c-0.1,0.2-0.8,0.6-2.2,1.1c0,0.1-0.4,0.6-1.2,1.3
		c0,0.1-0.1,0.2-0.3,0.4h-0.1l0.2-0.5h-0.1c-0.9,1.3-1.5,1.9-1.7,1.9c-0.6,0.5-1.4,1-2.3,1.4c-0.6-0.2-1-0.4-1-0.6h-0.4
		c-0.7,0-1.4-0.7-2.1-2c-0.2-0.3-0.6-0.7-1.3-1c0-0.5-0.2-1.1-0.7-1.8v-0.5l0.5-0.8l0.7,0.1h1.1c2.9-1.6,4.3-2.5,4.3-2.7
		c0-0.4,1.1-1.9,3.2-4.7h0.1c0.1,0,0.1,0,0.1,0.1c0.3-0.1,0.4-0.3,0.4-0.4V40l-0.3,0.3h-0.1v-0.1c0.3-0.8,0.8-1.3,1.5-1.3v-0.1
		c-0.1,0-0.2-0.1-0.2-0.3c0.8-0.4,1.7-1.6,2.8-3.6c0.1,0,0.8-1,2.2-3l-0.1-0.3c0.1-0.2,0.1-0.3,0.1-0.4l-0.5,0.5h-0.1
		c0.2-0.4,0.4-0.6,0.7-0.6c0.1,0.1,0.2,0.1,0.3,0.1c1.3-1.9,2-2.9,2-3.1c-0.1,0-0.2-0.1-0.2-0.3h0.1l0.2,0.1c0-0.2,0.1-0.3,0.2-0.3
		l-0.1-0.3v-0.3c0.3,0,0.4,0,0.4-0.1l-0.1-0.3c0.1-0.3,0.1-0.4,0.2-0.4h0.3c0.5-0.8,0.8-1.3,1-1.3v-0.1h-0.1c-1.4,0.8-3.4,1.7-6,2.9
		c-1.4,0.8-2.4,1.3-2.9,1.3h-0.4c-0.5-0.3-0.9-0.7-1.3-1.4c0-0.4-0.5-1.1-1.6-2.2c0-0.3-0.2-0.8-0.5-1.4c0-0.3,0.4-0.7,1.1-1.1V23
		h0.1l0.3,0.3c0.4-0.5,1.6-1.2,3.4-1.9c0.6-0.3,1.7-0.8,3.3-1.5c0.5-0.3,2.2-1.2,5.1-2.7c2.4-1.4,7.2-3.6,14.3-6.7
		c0.8-0.4,2.1-0.8,3.8-1.3L307.3,8.6z M274,45h0.3c0.1,0,0.2-0.2,0.4-0.5h-0.1C274.2,44.7,274,44.9,274,45z M277.6,39.9L277.6,39.9
		c0.2,0,0.3-0.1,0.3-0.3h-0.1C277.6,39.7,277.6,39.8,277.6,39.9z M280.6,48.9h0.3c0,0.2-0.1,0.3-0.2,0.3h-0.1V48.9z M287.8,42.4
		l-0.2-0.1h-0.2c0,0.1-0.2,0.3-0.7,0.5l-0.2,0.4v0.1h0.1c0.4-0.3,0.7-0.5,0.9-0.5V43l1-0.8c-0.1-0.2-0.1-0.3-0.1-0.4h-0.1
		C288,42,287.8,42.2,287.8,42.4z M289.6,41.2l0.1,0.3c-0.7,0-1,0.2-1,0.4c0,0.2,0.1,0.3,0.3,0.3c0.4-0.3,0.9-0.5,1.5-0.8v-0.3h-0.1
		L289.6,41.2z M291.1,40.9h0.2c0.1,0,0.2,0.1,0.3,0.4v0.1h-0.1c-0.2-0.2-0.3-0.3-0.4-0.3V40.9z M291.8,40.5h0.2
		c0.1,0,0.2,0.1,0.2,0.3v0.1l-0.5,0.1c-0.1-0.1-0.2-0.1-0.3-0.1v-0.3h0.4V40.5z M292.5,40.5L292.5,40.5c0.2,0,0.3,0.1,0.3,0.3h-0.3
		V40.5z M302.8,17.6v0.3l-0.4,0.1v-0.3L302.8,17.6z M305.2,14.1v0.1h0.2c0.4-0.3,0.7-0.4,1-0.4v-0.3h-0.1
		C305.8,13.9,305.4,14.1,305.2,14.1z M306.6,13.4c0,0.2,0.1,0.3,0.2,0.3h0.1v-0.3H306.6z M306.9,11.9h0.3v-0.3h-0.1
		C307,11.7,306.9,11.8,306.9,11.9z M307,13.3v0.3h0.4v-0.3H307z M308.2,12.5c0,0.2-0.1,0.3-0.4,0.3v0.1l0.5,0.1v-0.3h0.2l0.5,0.1
		C309,12.7,308.7,12.5,308.2,12.5z M308.9,12.4v0.1c0.2,0,0.3,0.1,0.3,0.3c0.1-0.1,0.2-0.1,0.3-0.1c0-0.2-0.1-0.3-0.2-0.3H308.9z"/>
	<path class="st0" d="M310.9,8.9h0.1c0.2,0.2,0.7,0.4,1.4,0.5c0,0.1,0.3,0.3,1,0.6l0.2-0.1c1.5,0.8,2.3,1.3,2.3,1.5v0.1
		c-0.4,1.3-1,4.4-2,9.5c-1.9,6.5-4,13.1-6.5,19.7h0.3c0-0.2,2.7-2.9,8.2-8.1c0.7-0.6,1.1-1,1.1-1.2l0.7-0.6h0.1v0.3
		c-0.2,0-0.4,0.1-0.7,0.3l0.1,0.2l-0.2,0.3h0.1c1-0.9,1.6-1.4,1.6-1.5h-0.1l-0.5,0.3h-0.1c0-0.6,1.9-2.5,5.8-5.9
		c0.7-0.7,2-1.8,4.1-3.5h0.1c-1.8,1.8-3.3,3.2-4.4,4v0.2c1.1-0.8,2.1-1.7,2.9-2.6l4.5-3.8c0.1,0.1,0.3,0.1,0.3,0.1l0.1-0.3h-0.3
		v-0.1c0.4-0.4,1.9-1.7,4.3-3.8l0.2,0.1v-0.1l-0.1-0.2c1.9-1.6,2.9-2.4,3.2-2.4c0.7-0.8,1.5-1.3,2.5-1.3c0-0.1,0.2-0.3,0.7-0.6
		l0.1,0.2c-0.4,0.2-0.6,0.4-0.6,0.5h0.2c1.1-1,1.9-1.5,2.2-1.5l0.1,0.3c-0.1,0-0.5,0.4-1.3,1.3c0.1,0,0.2,0,0.3,0.1
		c0-0.1,0.5-0.3,1.5-0.6h0.3v0.1l-0.5,0.5c0.1,0.1,0.1,0.3,0.1,0.3l-0.2-0.1h-0.1v0.1c0.1,0.1,0.1,0.3,0.1,0.3l1.4-0.8
		c0.1,0,0.3,0.1,0.4,0.3l-0.4,0.5v0.1h0.1l0.7-0.3v0.1c0,0-0.7,0.7-2,2c0.1,0,0.5-0.3,1.3-1h0.3v0.1c-3.1,3-6.3,5.8-9.4,8.2
		c0,0.1-4.3,4.2-13,12.4l-18.5,18.4c-1.6,1.2-2.6,1.9-3.1,1.9h-0.2c-1.5-0.4-2.2-0.9-2.2-1.4c-2.3-0.9-3.5-1.7-3.5-2.2
		c2.6-6.2,4.3-10.3,5-12.3c0.5-1.1,0.8-1.6,1-1.6v0.2c0,0.1-0.4,1.2-1.3,3.4h0.3c0.8-1.5,1.7-3.5,2.5-6l1.5-4.6v-0.2
		c-0.4,0.1-0.6,0.4-0.6,1H304v-0.1c1.2-3.7,1.8-5.6,2-5.9h0.1c0.1,0,0.2,0.1,0.2,0.2h-0.2v0.3h0.2c0.2,0,0.3-0.1,0.3-0.2v-0.2
		c-0.2,0-0.3-0.2-0.5-0.5v-0.3h0.3c0,0.4,0.1,0.6,0.2,0.6c0.2-0.4,0.3-0.7,0.3-0.8c-0.2,0-0.3-0.1-0.3-0.2v-0.1h0.1l0.3,0.1l0.1-0.3
		v-0.1h-0.3v-0.2h0.1l0.2,0.1c1-3.2,1.5-5.2,1.5-5.9c-0.1,0.1-0.3,0.1-0.4,0.1l0.1,0.6l-0.2,0.1l-0.2-0.1c0-1.4,0.3-2,0.9-2
		c0.2-0.2,0.6-2.1,1.2-5.7L310.9,8.9z M302.3,35.9v0.3h-0.2v-0.1C302.1,36,302.2,35.9,302.3,35.9z M302.8,34.6l0.1,0.3h-0.3
		C302.6,34.7,302.7,34.6,302.8,34.6z M304.9,29l-0.1,0.3v0.2h0.1c0.1,0,0.2-0.1,0.2-0.2C305.2,29,305.1,29,304.9,29z M305.8,26.4
		c0,0.1-0.1,0.3-0.3,0.5c0.1,0.1,0.1,0.3,0.1,0.3c-0.1,0-0.3,0.3-0.5,1l0.3,0.3c0.3-1.1,0.5-1.8,0.5-2L305.8,26.4z M308.7,15.2h0.3
		v0.3h-0.3V15.2z M308.7,16.4v0.7h0.1v-0.7H308.7z M309,12.9h0.2v0.4H309V12.9z M312,37L312,37l0.1,0.1c0.3,0,0.7-0.4,1.3-1.3h-0.1
		C312.7,36.1,312.3,36.5,312,37z M314.4,34.6h0.1c1.5-1.4,2.2-2.1,2.3-2.1v-0.3C316.7,32.2,315.9,33,314.4,34.6z M328.8,20.6h0.2
		c0,0.1-0.2,0.3-0.6,0.6l-0.1-0.3L328.8,20.6z M330,19.6L330,19.6L330,19.6c0.1,0.2-0.1,0.4-0.5,0.7l-0.1-0.2L330,19.6z M337.3,13.1
		h0.3c0,0.1-2.4,2.2-7.1,6.2l-0.1-0.2c2.5-2.3,3.8-3.4,3.9-3.4c0.3-0.6,1.1-1.2,2.2-1.9C336.5,13.7,336.8,13.5,337.3,13.1z
		 M338.2,12.5h0.1c0,0.1-0.2,0.3-0.5,0.5h-0.1C337.7,12.9,337.8,12.7,338.2,12.5z M338.9,11.8h0.3c0,0.1-0.2,0.3-0.6,0.6h-0.1
		C338.6,12.1,338.7,11.9,338.9,11.8z M341.5,10.9h0.1V11c0,0.1-0.1,0.2-0.3,0.3l-0.1-0.2L341.5,10.9z"/>
	<path class="st0" d="M377.1,8.8c0,0,0.2,0.2,0.5,0.5v0.2c-0.3,0.3-1.2,0.7-2.8,1.3l-0.2-0.1c-0.8,0.6-1.9,1.1-3.3,1.5
		c0,0.1,0,0.1-0.1,0.1c-0.4,0-1.7,0.4-3.7,1.3c-0.2,0-1,0.3-2.4,1c-1,0.5-1.7,0.7-2.2,0.8c-1.8,0.8-4,1.8-6.6,2.8l0.1,0.2v0.2
		c-0.1,0.2-0.3,0.3-0.6,0.3h-0.1l-0.2-0.1c0,0.1,0,0.2-0.1,0.3l-0.2-0.1H355l0.1,0.2v0.1c-0.3,0-1.5,0.4-3.5,1.3l-4.7,1.7
		c-0.7,2.4-1.7,5.6-3.2,9.6h0.1c2.1-0.9,3.8-1.5,5-1.8c1.5-0.9,3.7-1.8,6.4-2.9c0,0.1,0,0.1,0.1,0.1c0-0.2,1.3-0.7,4-1.6
		c1.6-0.8,2.9-1.2,3.7-1.2h0.1l0.7,0.1l-0.1-0.2c0.8-0.4,1.3-0.6,1.6-0.6c-0.1,0.2-0.3,0.3-0.6,0.3v0.1h0.4c0.6-0.3,1.2-0.4,1.6-0.4
		l0.1,0.2c0.4-0.1,0.6-0.2,0.8-0.3h0.1v0.4h0.1l0.3-0.2h0.5v0.2c-0.1,0-0.3,0.1-0.5,0.3l0.1,0.2c0,0.3-1.2,0.8-3.5,1.5v0.1h0.3
		c1-0.3,1.5-0.5,1.7-0.6l0.2,0.1c0-0.1,0.1-0.2,0.3-0.3l0.4,0.2c0-0.2,0.1-0.3,0.2-0.3h0.1c0,0.1,0.1,0.2,0.3,0.4
		c-0.1,0-0.9,0.4-2.4,1.1c-1.5,0.6-2.4,0.9-2.7,1v0.1h0.2c0.1,0,0.2,0,0.3-0.1l0.4,0.1c0.4-0.1,1-0.2,1.6-0.5l0.1,0.2v0.1l-1,0.3
		c0-0.1,0-0.1-0.1-0.1c0,0.1,0,0.1-0.1,0.1l0.1,0.2v0.1c-0.1,0-1,0.4-2.4,1.2c-0.2,0-0.9,0.3-2,1v0.1h0.1l0.5-0.1
		c-0.4,0.3-0.7,0.5-1.1,0.5l0.1,0.2v0.1l-0.3-0.2c-0.2,0.1-0.3,0.2-0.5,0.2l0.1,0.2v0.1l-0.3-0.2h-0.2v0.2h-0.3v-0.2
		c0,0,0.5-0.2,1.3-0.5v-0.1h-0.2c-1.4,0.4-3.3,1.1-5.9,2.3v0.2h0.1c0.2,0,0.4-0.1,0.8-0.3v0.1c0,0.1-0.5,0.4-1.6,0.8
		c0,0.3-1.8,1.2-5.4,2.5c0-0.1,0-0.1-0.1-0.1c-0.3,0.4-1.4,0.9-3.2,1.4c-2.6,1-3.9,1.6-3.9,1.8c-1.8,3.7-2.7,5.5-2.7,5.7h0.1
		l10.9-4.2c0,0.1,0,0.1,0.1,0.1c0-0.2,0.8-0.6,2.4-1.1c2.5-1.1,4.3-1.8,5.2-2c0.1,0.1,0.3,0.1,0.4,0.1c0.1,0,0.2,0,0.3-0.1l0.2,0.1
		c0.9-0.3,1.6-0.5,2.2-0.9l0.1,0.2c-0.3,0.1-0.4,0.2-0.4,0.3h0.2l0.3-0.2l0.3,0.2c0.3-0.1,0.5-0.2,0.8-0.2c-0.1,0.4-0.2,0.6-0.3,0.6
		l-0.1-0.2h0.2c0-0.1-0.1-0.2-0.2-0.2c0,0.2-0.1,0.3-0.4,0.4l0.2,0.4c-0.8,0.4-1.7,0.8-2.6,1.4c-1.9,0.6-2.8,1-2.8,1.2h0.1l3.1-1.2
		h0.2l0.2,0.3c0,0.2-0.3,0.3-0.9,0.4l0.1,0.2c-0.4,0.2-1.8,0.9-4.2,1.9c0,0.1,0.1,0.2,0.3,0.2c1.7-0.7,2.6-1,2.7-1l0.1,0.2l-5.5,2.7
		l-4.2,2c-0.6,0-2.1,0.5-4.6,1.5c0,0.1-0.6,0.5-1.7,1.1v0.1c0.3-0.1,0.5-0.2,0.7-0.3h0.1v0.2c-0.4,0.1-0.6,0.3-0.6,0.5
		c-0.1,0-0.1,0-0.1-0.1c-0.3,0.1-0.5,0.1-0.7,0.1l0.1,0.2v0.1l-0.3-0.2h-0.1c0,0.4-0.8,0.8-2.5,1.3c-2.2,0.8-3.3,1.4-3.3,1.7
		c-0.4,0.9-0.8,1.3-1.1,1.4l-0.5-0.1c0,0.1-0.1,0.2-0.2,0.2h-0.2c0-0.2-0.3-0.5-1-0.9c0-0.1-0.2-0.2-0.5-0.4c0-0.3-0.1-0.5-0.3-0.5
		l-0.7,0.4h-0.1v-0.2c0.4-0.6,0.6-1.1,0.7-1.5c0-0.2-0.3-0.4-0.8-0.5l-0.1-0.2l0.1-0.2c-0.3-0.2-0.6-0.6-0.8-1.2V49
		c0.2-0.3,1.1-0.7,2.8-1.4c0.1-0.5,0.5-1.1,0.9-1.6h0.1l-0.1-0.2c1.2-1.6,2-3.1,2.4-4.5c-0.3,0.1-0.5,0.2-0.7,0.3
		c-0.7-0.2-1.5-0.8-2.2-1.7c-1-1.1-1.5-1.8-1.5-2.1l-0.1-0.5c1-0.7,3.7-1.8,8.1-3.1c0.3,0,1-1.6,2.1-4.9c0.5-0.9,0.8-1.7,0.9-2.3
		l0.2-0.1l-0.1-0.2c0.2,0,0.5-0.9,0.9-2.7c-0.3,0.2-0.6,0.3-0.8,0.3h-0.3c-1.4-0.5-2.3-1-2.6-1.5v-0.1c0-0.3,1.7-0.9,5-2l0.5-0.7
		v-0.4l-0.2-0.3c0-0.1,0.1-0.2,0.2-0.2c0,0.1,0,0.1,0.1,0.1c0.2-0.3,0.3-0.5,0.4-0.5c0.3,0,1,0.3,2,0.9h0.1
		c4.7-1.6,12.2-4.5,22.6-8.7C373.2,9.6,375.9,8.8,377.1,8.8z M353.8,41.2c0,0.1,0.1,0.2,0.2,0.2l0.1-0.2H353.8z M359,39.5L359,39.5
		c0,0.2-0.1,0.3-0.2,0.3h-0.5C358.3,39.6,358.6,39.5,359,39.5z M361.4,30.2L361.4,30.2c0,0.2-0.1,0.3-0.2,0.3h-0.3v-0.2
		C361.2,30.3,361.3,30.2,361.4,30.2z M362.8,24.8c0,0.1,0.1,0.2,0.2,0.2l0.1-0.2H362.8z M363.6,26.5L363.6,26.5L363.6,26.5h0.6v-0.2
		h-0.1C363.9,26.4,363.7,26.5,363.6,26.5z M366.3,27.1h0.3c0,0.1-0.2,0.2-0.5,0.3v-0.1C366.1,27.1,366.2,27.1,366.3,27.1z"/>
	<path class="st0" d="M397.4,8.8h0.2c1.4,0.7,2.3,1.3,2.6,2l1.1,2v0.1c0,0.3-0.6,0.5-1.9,0.5H399l-0.6-0.1c-1.1,0.1-3.3,0.6-6.5,1.6
		c-4.3,1.4-8.7,3.5-13.2,6.3c-2.1,1.4-4.2,3.1-6.1,5.1c-1.5,1.6-2.2,2.7-2.2,3h0.5c0.2,0,0.3,0,0.3,0.1l0.5-0.1h1
		c3.1-0.4,4.6-0.7,4.6-0.8v-0.1h0.2l0.2,0.1c0-0.4,1.4-0.7,4.1-0.9c0-0.1,0.1-0.2,0.2-0.2c0.1,0,0.1,0,0.1,0.1l0.2-0.1
		c0.1,0.1,0.2,0.1,0.3,0.1c0-0.1,0.1-0.2,0.3-0.3h0.3l0.2,0.1c0-0.2,0.1-0.3,0.3-0.3c0.1,0.1,0.2,0.1,0.3,0.1c0-0.2,1.9-0.5,5.8-0.9
		c0-0.1,0-0.1,0.1-0.1s0.1,0,0.1,0.1c0.7-0.1,1.8-0.2,3.3-0.2h0.1l0.5-0.1V26c0.1,0,0.1,0,0.1-0.1c4.1,0,6.8,1.3,8.1,3.8
		c0.1,0.1,0.6,0.8,1.5,2.3c0,0.1,0,0.1-0.1,0.1l0.1,0.2v0.2c0,2-4.1,5.3-12.4,9.8c-8.8,4.6-17.3,8.7-25.8,12.1l-0.4,0.1
		c0-0.3-0.3-0.6-0.9-0.8l-0.1-0.2v-0.1c0-0.1,0-0.1,0.1-0.1c0-0.2-0.2-0.6-0.7-1.2c0-0.3-0.2-0.5-0.5-0.7v-0.3
		c-0.2,0-0.3-0.1-0.3-0.2c0.3,0,0.4-0.1,0.4-0.3h0.2l0.2,0.1l0.8-0.6c0.1,0.1,0.2,0.1,0.3,0.1l-0.1-0.2c0.1,0,0.1,0,0.1-0.1l0.2,0.1
		c1-0.4,1.6-0.7,1.6-1h0.1l0.2,0.1c0.1-0.2,1-0.7,2.5-1.5h0.1c0.1,0,0.1,0,0.1,0.1l2.1-0.8h0.2v-0.1l-0.1-0.2
		c0.2-0.1,0.4-0.2,0.6-0.2h0.5v-0.2h-0.1l-0.2,0.1v-0.1c0-0.1,0.4-0.2,1.2-0.5c0-0.2,0.3-0.3,0.9-0.4c0-0.2,0.3-0.4,0.8-0.6h0.8
		c0-0.2,0.6-0.5,1.8-0.9l2.7-1.5c0.6-0.2,0.9-0.4,0.9-0.6l0.2,0.1h0.1v-0.1h-0.2v-0.1c0-0.1,0.5-0.4,1.5-0.9v-0.2h-0.2
		c0,0.2-0.1,0.3-0.3,0.3l-0.1-0.2c1.5-0.9,2.4-1.4,2.7-1.4v0.1c0,0.1-0.1,0.2-0.3,0.2v0.1h0.1c0.4-0.1,0.6-0.3,0.6-0.4H385v-0.1
		c0.4-0.3,1.1-0.7,2.3-1.4c0-0.1,0.3-0.3,0.9-0.6l0.2,0.1c0.1-0.1,0.2-0.1,0.3-0.1v0.2h-0.2v0.1h0.1c0.4,0,1.3-0.5,2.4-1.5h-0.2
		c0,0.2-0.2,0.3-0.6,0.3c0,0.1-0.4,0.4-1.2,0.8l-0.1-0.2c1.3-0.8,2.2-1.4,2.7-1.6c0-0.3,0.4-0.6,1.3-0.8c0.4-0.3,0.7-0.5,0.9-0.5
		c-0.3,0.3-0.8,0.7-1.6,1.2v0.1h0.2c1.1-0.4,2.2-1.2,3.2-2.2h-0.1c-0.8,0.6-1.3,0.9-1.6,0.9c1-0.8,2.3-1.9,3.8-3.3v-0.1
		c-0.3,0-1.3,0-3-0.1c-0.1,0-0.6,0.1-1.5,0.2c-0.1,0-0.1,0-0.1-0.1c-3,0.3-7.9,1-14.6,2.2c-0.5,0-1.2,0.1-2.1,0.2V33
		c-0.3,0.1-0.9,0.2-1.7,0.2h-2.2c-2.4,0-4.1-1-4.9-2.9c0-0.5-0.3-1-0.9-1.5c-0.2-0.6-0.3-1-0.3-1.1v-0.2c0.4-0.2,0.7-0.7,0.9-1.5
		c0.8-1.1,1.6-1.9,2.2-2.4c3-3,5-4.6,5.9-4.9l2.9-2c0-0.3,0.1-0.5,0.3-0.5l0.1,0.2v0.1h-0.3v0.1h0.2c0.5-0.4,1.7-1,3.4-1.8
		c0-0.2,0.3-0.3,0.8-0.5V14l-0.5,0.2l-0.1-0.2c0.5-0.3,0.9-0.7,1.2-1l3-1.3h0.2c0.1,0,0.1,0,0.1,0.1l0.2-0.1h0.2v0.1l-0.2,0.3
		c0.3,0.1,0.5,0.2,0.7,0.2c0-0.2,0.4-0.4,1.2-0.7v-0.1c-0.2,0-0.3-0.1-0.3-0.2v-0.2c0-0.2,1.5-0.7,4.4-1.5
		C395.1,9.1,396.7,8.8,397.4,8.8z M365.2,49.3L365.2,49.3L365.2,49.3c0.1,0.2,0,0.3-0.1,0.3h-0.2C364.9,49.5,365,49.4,365.2,49.3z
		 M366.3,49.8h0.2c0.3-0.1,0.4-0.2,0.4-0.3h-0.2C366.4,49.6,366.3,49.7,366.3,49.8z M367.3,25.3h0.2v0.1c0,0.1-0.1,0.2-0.2,0.2V25.3
		z M367.9,24.7L367.9,24.7L367.9,24.7c0.1,0.2,0,0.3-0.2,0.4l-0.1-0.2L367.9,24.7z M374.6,44.4h0.4c-0.8,0.4-2,1-3.6,1.7l-0.1-0.2
		L374.6,44.4z M372.4,21.7l0.2,0.1l0.2-0.4h-0.1C372.6,21.4,372.5,21.5,372.4,21.7z M372.9,21.3h0.3v-0.2h-0.1
		C372.9,21.1,372.9,21.2,372.9,21.3z M375.7,46L375.7,46c0.2,0,0.3-0.1,0.3-0.2h-0.1C375.8,45.8,375.7,45.9,375.7,46z M376.1,19h0.2
		c0.1,0,0.2-0.1,0.2-0.2v-0.1C376.2,18.8,376.1,18.9,376.1,19z M377.7,28.3L377.7,28.3l0.3,0.1v-0.2
		C377.9,28.3,377.8,28.3,377.7,28.3z M381.6,41.1L381.6,41.1c0,0.2-0.2,0.3-0.5,0.4l-0.1-0.2C381.2,41.1,381.4,41.1,381.6,41.1z
		 M382.6,27.4l-0.1,0.2h0.1c0.1-0.1,0.2-0.1,0.3-0.1v-0.1H382.6z M386,39.1h0.2c0.1,0,0.2-0.1,0.2-0.2h-0.2C386,39,386,39,386,39.1z
		 M386.6,38.6l0.2,0.1h0.1c0.1,0,0.2-0.1,0.2-0.2v-0.1h-0.3C386.7,38.5,386.6,38.5,386.6,38.6z M387.9,38l0.2,0.1
		c0.1,0,0.2-0.1,0.3-0.3h-0.3C388,37.8,387.9,37.9,387.9,38z M388,11.3h0.3v0.2H388V11.3z M391.3,36.1L391.3,36.1
		c0.2,0,0.3-0.1,0.3-0.2h-0.1C391.4,35.9,391.3,36,391.3,36.1z"/>
	<path class="st0" d="M440.2,9c0.4,0.1,0.6,0.2,0.6,0.3c0.1-0.1,0.2-0.1,0.3-0.1c1.1,0.4,2,1,2.7,2c-1.2,1.3-2.3,2.9-3.1,4.8
		c-9.7,15.8-14.6,24-14.6,24.6c-1.8,4.1-2.7,6.9-2.7,8.3v0.3c0,0.1,0,0.1-0.1,0.1c0,0.1,0,0.1,0.1,0.1c0,0.1,0,0.2-0.1,0.3
		c0,0.8,0.1,1.2,0.3,1.2c1.1-0.2,3.2-1.5,6.5-3.9c0.1,0.1,0.2,0.1,0.3,0.1l0.2-0.3c-0.1-0.1-0.1-0.3-0.1-0.3c1.2-1,2.4-2.3,3.5-3.8
		c2.7-2.6,4.5-4.5,5.4-5.7h0.4v-0.1h-0.2v-0.2c0,0,0.2,0,0.4-0.1c0,0.1,0.1,0.2,0.3,0.3c1.6-1.7,3.3-3.8,5.1-6.2
		c0.6-0.7,1.2-1.5,1.8-2.4h-0.1c-0.2,0.3-0.3,0.5-0.4,0.5c0-0.1,0-0.1-0.1-0.1c0-0.3,0.7-1.1,2.1-2.5h0.1l-1,1.5h0.1
		c1.8-2,4.6-5.5,8.5-10.4c0.9-1.3,1.6-2.1,2-2.4v0.1l-4.1,5.6V21c0.3-0.1,0.6-0.3,0.8-0.7c0.1,0,0.8-0.7,2.1-2.2l0.4-0.3l0.1,0.2
		c-0.1,0.1-0.1,0.2-0.1,0.4h0.1c0.7-0.4,1.1-0.9,1.3-1.4v-0.1h-0.1l-0.4,0.3h-0.1c-0.1,0-0.2-0.1-0.2-0.2l1.5-1.9h0.1
		c0.1,0,0.2,0.1,0.2,0.2c0.6-0.3,1-0.5,1-0.9c1-1.1,1.6-1.7,2-1.7c0.1,0.1,0.1,0.3,0.1,0.4c0.2-0.1,0.4-0.2,0.5-0.2l0.1,0.2v0.1
		c-0.2,0-0.3,0.1-0.3,0.2c0.1,0,0.2,0,0.3,0.1c0-0.2,0.1-0.3,0.4-0.3v0.1c-0.4,1.1-1.8,3.1-4,5.8c-1,1.5-4.4,5.8-10.2,12.9
		c-3.3,4.3-7.8,9.5-13.7,15.7c-4.6,4.1-7.6,6.2-9.2,6.2c0,0.1-0.3,0.2-1,0.3h-1.9c-2.2-0.7-3.3-1.3-3.3-2c-0.8-0.2-1.4-0.7-1.9-1.5
		c-0.4-1.1-0.6-1.8-0.6-2c0.1-0.8,0.2-1.3,0.2-1.5c-0.1-0.1-0.1-0.3-0.1-0.4c0.1,0,0.3-0.8,0.6-2.3l0.2-0.1c0.1,0.1,0.1,0.3,0.1,0.3
		c-0.1,0.2-0.2,0.4-0.2,0.5v0.1h0.1c0.9-3.1,3-7.7,6.5-13.6c0.9-1.6,3.4-5.8,7.6-12.7c0,0,0.9-1.6,2.7-4.6v-0.2h-0.2v-0.1
		c0.8-1.8,1.3-2.7,1.6-2.7v0.2c1.1-1.5,1.8-2.4,2.2-2.7H440.2z M422,41.3c0,0.1-0.1,0.2-0.2,0.4v0.1h0.2C422,41.7,422,41.5,422,41.3
		L422,41.3L422,41.3z M422.3,40.7L422.3,40.7L422.3,40.7c1.1-2,1.7-3.3,2.1-3.7c-0.1-0.1-0.1-0.2-0.1-0.3l0.4-0.4
		c-0.1-0.1-0.1-0.2-0.1-0.3c-0.3,0-0.8,0.8-1.5,2.4c-0.3,0.6-0.6,1.3-0.7,2.1C422.3,40.4,422.3,40.5,422.3,40.7z M424.7,35.4
		c0,0.1,0,0.2-0.1,0.3h0.1c0.1,0,0.2-0.1,0.2-0.2L424.7,35.4z M425.5,34.4L425.5,34.4c0.2,0,0.4-0.4,0.8-1h-0.1
		C425.9,33.5,425.7,33.8,425.5,34.4z M425.8,31.5h0.2v0.3h-0.2V31.5z M429,26.3L429,26.3c0,0.2-0.1,0.3-0.2,0.3h-0.1
		C428.7,26.5,428.8,26.4,429,26.3z M429.3,48L429.3,48c0.1,0,0.3,0,0.3,0v-0.2h-0.1C429.4,47.8,429.3,47.9,429.3,48z M431.1,24.7
		v0.1c0,0.1,0.1,0.2,0.2,0.2l0.1-0.2v-0.1H431.1z M431.4,24.5v0.2c0.7-0.6,1.1-1.2,1.1-1.6c0.9-1.3,1.3-2,1.3-2.2h-0.1
		C433.4,21.3,432.6,22.4,431.4,24.5z M436.1,14.6L436.1,14.6c-0.1,0.2-0.1,0.3-0.1,0.4h-0.2v-0.1C435.8,14.8,435.9,14.7,436.1,14.6z
		 M440.3,38.2v0.2c0,0,0.3-0.3,0.8-0.9v-0.1C441.1,37.3,440.8,37.6,440.3,38.2z M441.6,36.7l-0.3,0.4v0.1c0.1,0,0.3-0.2,0.4-0.5
		H441.6z M442.1,36.2h0.2c0-0.2,0.2-0.4,0.6-0.6c0-0.1,0-0.2,0.1-0.3h-0.1C442.5,35.6,442.2,35.9,442.1,36.2z M443.2,34.9V35h0.2
		l1.5-1.9h-0.2C444.1,33.7,443.6,34.3,443.2,34.9z M445.6,32c0,0.1-0.1,0.3-0.3,0.4h-0.1v0.1h0.2L445.6,32L445.6,32L445.6,32z
		 M446.2,31.1L446.2,31.1l0.2,0.1c0-0.1,0.3-0.5,0.9-1.1v-0.2C447.1,29.9,446.8,30.3,446.2,31.1z M449.2,27.4L449.2,27.4
		c0.1,0.1,0.2,0,0.2-0.1v-0.1C449.3,27.2,449.2,27.3,449.2,27.4z M449.7,25.6L449.7,25.6c0,0.2-0.1,0.3-0.2,0.3v-0.1
		C449.4,25.7,449.5,25.6,449.7,25.6z M449.8,26.6L449.8,26.6c0.5-0.5,1-0.9,1.4-1c0.1-0.5,0.7-1.2,1.8-2.1l1.7-2.3v-0.1
		c-0.6,0-1.6,1.1-3,3.4L449.8,26.6z M457.4,18.8L457.4,18.8c0.1,0,0.2,0,0.3,0v-0.3C457.6,18.5,457.5,18.6,457.4,18.8z"/>
	<path class="st0" d="M486.8,8.8h0.2c1.4,0.7,2.3,1.3,2.6,2l1.1,2v0.1c0,0.3-0.6,0.5-1.9,0.5h-0.3l-0.6-0.1
		c-1.1,0.1-3.3,0.6-6.5,1.6c-4.3,1.4-8.7,3.5-13.2,6.3c-2.1,1.4-4.2,3.1-6.1,5.1c-1.5,1.6-2.2,2.7-2.2,3h0.5c0.2,0,0.3,0,0.3,0.1
		l0.5-0.1h1c3.1-0.4,4.6-0.7,4.6-0.8v-0.1h0.2l0.2,0.1c0-0.4,1.4-0.7,4.1-0.9c0-0.1,0.1-0.2,0.2-0.2c0.1,0,0.1,0,0.1,0.1l0.2-0.1
		c0.1,0.1,0.2,0.1,0.3,0.1c0-0.1,0.1-0.2,0.3-0.3h0.3l0.2,0.1c0-0.2,0.1-0.3,0.3-0.3c0.1,0.1,0.2,0.1,0.3,0.1c0-0.2,1.9-0.5,5.8-0.9
		c0-0.1,0-0.1,0.1-0.1c0.1,0,0.1,0,0.1,0.1c0.7-0.1,1.8-0.2,3.3-0.2h0.1l0.5-0.1V26c0.1,0,0.1,0,0.1-0.1c4.1,0,6.8,1.3,8.1,3.8
		c0.1,0.1,0.6,0.8,1.5,2.3c0,0.1,0,0.1-0.1,0.1l0.1,0.2v0.2c0,2-4.1,5.3-12.4,9.8c-8.8,4.6-17.3,8.7-25.8,12.1l-0.4,0.1
		c0-0.3-0.3-0.6-0.9-0.8l-0.1-0.2v-0.1c0-0.1,0-0.1,0.1-0.1c0-0.2-0.2-0.6-0.7-1.2c0-0.3-0.2-0.5-0.5-0.7v-0.3
		c-0.2,0-0.3-0.1-0.3-0.2c0.3,0,0.4-0.1,0.4-0.3h0.2l0.2,0.1l0.8-0.6c0.1,0.1,0.2,0.1,0.3,0.1l-0.1-0.2c0.1,0,0.1,0,0.1-0.1L454,50
		c1-0.4,1.6-0.7,1.6-1h0.1l0.2,0.1c0.1-0.2,1-0.7,2.5-1.5h0.1c0.1,0,0.1,0,0.1,0.1l2.1-0.8h0.2v-0.1l-0.1-0.2
		c0.2-0.1,0.4-0.2,0.6-0.2h0.5v-0.2h-0.1l-0.2,0.1v-0.1c0-0.1,0.4-0.2,1.2-0.5c0-0.2,0.3-0.3,0.9-0.4c0-0.2,0.3-0.4,0.8-0.6h0.8
		c0-0.2,0.6-0.5,1.8-0.9l2.7-1.5c0.6-0.2,0.9-0.4,0.9-0.6l0.2,0.1h0.1v-0.1h-0.2v-0.1c0-0.1,0.5-0.4,1.5-0.9v-0.2h-0.2
		c0,0.2-0.1,0.3-0.3,0.3l-0.1-0.2c1.5-0.9,2.4-1.4,2.7-1.4v0.1c0,0.1-0.1,0.2-0.3,0.2v0.1h0.1c0.4-0.1,0.6-0.3,0.6-0.4h-0.2v-0.1
		c0.4-0.3,1.1-0.7,2.3-1.4c0-0.1,0.3-0.3,0.9-0.6l0.2,0.1c0.1-0.1,0.2-0.1,0.3-0.1v0.2H478v0.1h0.1c0.4,0,1.3-0.5,2.4-1.5h-0.2
		c0,0.2-0.2,0.3-0.6,0.3c0,0.1-0.4,0.4-1.2,0.8l-0.1-0.2c1.3-0.8,2.2-1.4,2.7-1.6c0-0.3,0.4-0.6,1.3-0.8c0.4-0.3,0.7-0.5,0.9-0.5
		c-0.3,0.3-0.8,0.7-1.6,1.2v0.1h0.2c1.1-0.4,2.2-1.2,3.2-2.2H485c-0.8,0.6-1.3,0.9-1.6,0.9c1-0.8,2.3-1.9,3.8-3.3v-0.1
		c-0.3,0-1.3,0-3-0.1c-0.1,0-0.6,0.1-1.5,0.2c-0.1,0-0.1,0-0.1-0.1c-3,0.3-7.9,1-14.6,2.2c-0.5,0-1.2,0.1-2.1,0.2V33
		c-0.3,0.1-0.9,0.2-1.7,0.2H462c-2.4,0-4.1-1-4.9-2.9c0-0.5-0.3-1-0.9-1.5c-0.2-0.6-0.3-1-0.3-1.1v-0.2c0.4-0.2,0.7-0.7,0.9-1.5
		c0.8-1.1,1.6-1.9,2.2-2.4c3-3,5-4.6,5.9-4.9l2.9-2c0-0.3,0.1-0.5,0.3-0.5l0.1,0.2v0.1h-0.3v0.1h0.2c0.5-0.4,1.7-1,3.4-1.8
		c0-0.2,0.3-0.3,0.8-0.5V14l-0.5,0.2l-0.1-0.2c0.5-0.3,0.9-0.7,1.2-1l3-1.3h0.2c0.1,0,0.1,0,0.1,0.1l0.2-0.1h0.2v0.1l-0.2,0.3
		c0.3,0.1,0.5,0.2,0.7,0.2c0-0.2,0.4-0.4,1.2-0.7v-0.1c-0.2,0-0.3-0.1-0.3-0.2v-0.2c0-0.2,1.5-0.7,4.4-1.5
		C484.6,9.1,486.2,8.8,486.8,8.8z M454.7,49.3L454.7,49.3L454.7,49.3c0.1,0.2,0,0.3-0.1,0.3h-0.2C454.4,49.5,454.5,49.4,454.7,49.3z
		 M455.7,49.8h0.2c0.3-0.1,0.4-0.2,0.4-0.3h-0.2C455.9,49.6,455.7,49.7,455.7,49.8z M456.8,25.3h0.2v0.1c0,0.1-0.1,0.2-0.2,0.2V25.3
		z M457.4,24.7L457.4,24.7L457.4,24.7c0.1,0.2,0,0.3-0.2,0.4l-0.1-0.2L457.4,24.7z M464,44.4h0.4c-0.8,0.4-2,1-3.6,1.7l-0.1-0.2
		L464,44.4z M461.9,21.7l0.2,0.1l0.2-0.4h-0.1C462.1,21.4,462,21.5,461.9,21.7z M462.4,21.3h0.3v-0.2h-0.1
		C462.4,21.1,462.4,21.2,462.4,21.3z M465.2,46L465.2,46c0.2,0,0.3-0.1,0.3-0.2h-0.1C465.3,45.8,465.2,45.9,465.2,46z M465.6,19h0.2
		c0.1,0,0.2-0.1,0.2-0.2v-0.1C465.7,18.8,465.6,18.9,465.6,19z M467.2,28.3L467.2,28.3l0.3,0.1v-0.2
		C467.4,28.3,467.3,28.3,467.2,28.3z M471,41.1L471,41.1c0,0.2-0.2,0.3-0.5,0.4l-0.1-0.2C470.7,41.1,470.9,41.1,471,41.1z
		 M472.1,27.4l-0.1,0.2h0.1c0.1-0.1,0.2-0.1,0.3-0.1v-0.1H472.1z M475.4,39.1h0.2c0.1,0,0.2-0.1,0.2-0.2h-0.2
		C475.5,39,475.4,39,475.4,39.1z M476.1,38.6l0.2,0.1h0.1c0.1,0,0.2-0.1,0.2-0.2v-0.1h-0.3C476.2,38.5,476.1,38.5,476.1,38.6z
		 M477.4,38l0.2,0.1c0.1,0,0.2-0.1,0.3-0.3h-0.3C477.4,37.8,477.4,37.9,477.4,38z M477.5,11.3h0.3v0.2h-0.3V11.3z M480.8,36.1
		L480.8,36.1c0.2,0,0.3-0.1,0.3-0.2H481C480.8,35.9,480.8,36,480.8,36.1z"/>
</g>
</svg>
