<?xml version="1.0" encoding="utf-8"?>
<!-- Generator: Adobe Illustrator 19.0.1, SVG Export Plug-In . SVG Version: 6.00 Build 0)  -->
<svg version="1.1" id="Layer_1" xmlns="http://www.w3.org/2000/svg" xmlns:xlink="http://www.w3.org/1999/xlink" x="0px" y="0px"
	 viewBox="0 0 498.6 77.4" style="enable-background:new 0 0 498.6 77.4;" xml:space="preserve">
<style type="text/css">
	.st0{fill:#FFFFFF;}
</style>
<g>
	<path class="st0" d="M98.6,0l0.2,0.4l-0.2,1.1c0.8-0.5,1.3-0.8,1.7-0.8c0,0.1,0.1,0.3,0.4,0.6L100.1,2v0.2c0.4,0,0.5,0.1,0.5,0.2
		c0.8-0.5,1.4-0.8,1.7-0.8c0,0.6,0.7,1,2.1,1.3v0.4c-0.4,1-3.8,5.4-10.3,13.1c-0.7,1.2-7.1,9.8-19,25.5c-7.7,10.8-14,19.1-19,24.8
		c-2.9,3.5-5.4,5.2-7.6,5.2c-1.5,0-3.7-0.9-6.5-2.8c-1.1-0.1-2.2-0.8-3.4-2.1l0.2-0.4c-0.5-1.2-0.9-3.9-1.3-8.2
		c0.2-0.8,0.4-1.3,0.4-1.5l-0.2-0.4l0.2-0.4l-0.2-0.4c0.2-0.4,0.4-0.8,0.4-1.1v-2.6c0-0.6,0.1-0.9,0.4-0.9l-0.2-0.4
		c0.4-1.9,0.7-3,0.9-3.3C39,47.3,39,47.1,39,46.8c0.2-0.1,0.4-0.2,0.5-0.2c-0.2-0.4-0.4-0.8-0.4-1.1c0.6-1.7,0.9-2.6,0.9-2.8h-0.2
		c-1.5,1.8-8.5,10.7-20.9,26.9c-4,5.2-6.8,7.8-8.4,7.8H9.7c-0.6,0-2.1-0.7-4.5-2.1c-2.4-0.8-4.2-2-5.2-3.5v-1.5c0-1.7,0.7-4.4,2.1-8
		c0-0.7,0.4-1.5,1.1-2.6h0.2C3.1,60.6,3,61.1,3,61.3h0.4c0-1.2,0.6-3.1,1.9-5.8C5.1,55.3,5,55.1,5,55c0.2,0,0.7-1.3,1.3-3.9l0.5-0.4
		l-0.2-0.9c0.1-0.2,0.2-0.4,0.2-0.6l-1.1,2.1l-0.2-0.4c1-3.2,1.9-5.8,2.8-8h0.4c0,0.3-0.1,0.5-0.2,0.7v0.2h0.2
		c0.1-0.8,0.5-1.6,1.3-2.4c-0.1-0.2-0.2-0.5-0.2-0.7c0.3,0,0.8-0.6,1.5-1.9c-0.1-0.2-0.2-0.4-0.2-0.6l0.4-0.2c0,0.1,0.1,0.2,0.2,0.2
		c0.2-1.6,0.6-3.3,1.1-5c-0.1,0-0.2-0.1-0.2-0.2c0.4,0,1-1.4,1.9-4.3c0.4,0,0.5-0.2,0.5-0.5c-0.1-0.2-0.2-0.4-0.2-0.6h0.2l0.4,0.2
		v-0.5l-0.4-0.5h0.2l0.4,0.2c0.4-0.9,0.5-1.5,0.5-1.9l-0.4,0.2h-0.2V25c0.6-1.8,1.2-2.7,1.7-2.8c0-0.6,0.7-2.1,2-4.5
		c-0.1-0.2-0.2-0.5-0.2-0.8c0.3-0.2,0.7-1.1,1.3-2.8V14l-0.4-0.5c0.8,0,1.7-2.6,2.8-7.7l0.5-0.4h0.4c0.2,0,0.4,0.2,0.4,0.4v0.4
		l-0.8,2.1l0.2,0.4c-0.2,0.4-0.4,0.8-0.4,1.1v0.2h0.2c0.7-2.5,1.1-3.7,1.5-3.7h0.4l1.1,0.2c0.2-0.1,0.5-0.2,0.9-0.2c2,1,3,1.6,3,1.7
		v0.9c-1,2.6-2.1,6.6-3.3,11.9c-2.1,6.7-6.3,19.1-12.7,37.3h0.2c0.6-0.1,2.1-1.8,4.5-5h0.2v0.2l-2.4,3.4v0.2
		c1.7-1.9,3.7-3.8,5.8-5.8c0-0.4,0.8-1.2,2.4-2.4v-0.8c1.5-1.7,2.7-3.3,3.4-4.6c0.7-0.6,2.1-2.6,4.3-6c0.1,0,0.7-0.6,1.7-1.9
		c5.2-5.7,7.8-9.2,7.8-10.5c0.8-0.8,1.3-1.1,1.5-1.1l3.6,1.1c0.2-0.1,0.4-0.2,0.5-0.2c0,0.3,0.8,0.7,2.4,1.1c0,0.2,0.6,0.6,1.9,1.3
		l0.2,0.9c-1,1.4-2,4.4-2.8,8.9c-1.5,9-2.5,15.8-3.2,20.3c0,0.1,0.1,0.2,0.2,0.2l-0.2,2.3v3.9c0.5-0.2,1.1-1,2.1-2.3v-0.2L47,62.5
		l-0.2-0.4c1.4-1.4,2.5-2.9,3.3-4.5c0.2,0,0.8-0.6,1.9-1.7c0,0.1,0.1,0.2,0.2,0.2c0,0.2-0.4,0.7-1.1,1.5v0.2h0.4
		c1.3-1.9,2.3-2.8,3-2.8c1.1-1,2.1-2.8,3.2-5.4l1.3-1.7v-0.2h-0.2c-0.2,0.1-0.4,0.2-0.5,0.2v-0.2c0-0.2,0.2-0.4,0.4-0.4
		c0.1,0,0.2,0.1,0.2,0.2c0.4,0,1.3-0.9,2.6-2.6c1.3-1.3,2.1-2.4,2.4-3.3c2-2.8,3.6-4.7,4.9-5.8c0.3-0.2,1.1-1.1,2.2-2.8
		c-0.1-0.2-0.2-0.4-0.2-0.5l3.7-5c0.7,0,1.2-0.6,1.5-1.7c0.1-0.5,0.8-1.3,2-2.4c0-0.7,0.6-1.3,1.7-2c2.9-3.8,5-6.9,6.3-9.5
		c4.1-5,6.6-7.9,7.5-8.8c1.9-1.6,2.8-2.6,2.8-2.8h0.2c0.1,0,0.2,0.1,0.2,0.2L97,0.2h0.2l-1.7,2.3v0.2h0.2C97.1,0.9,98.1,0,98.6,0z
		 M2.6,62.1v0.2H3c0-0.1,0.1-0.3,0.2-0.6H3C2.7,61.7,2.6,61.9,2.6,62.1z M4.1,56.5l0.2,0.4L3.9,57l0.2,0.4c-0.4,1.4-0.7,2.1-0.9,2.1
		L3,59.1v-0.2C3.6,57.3,4,56.5,4.1,56.5z M5,52.6h0.4v0.7H5V52.6z M7.7,46.2c0,0.4-0.3,1.2-0.8,2.3v0.4h0.2c0-0.3,0.3-1.1,0.9-2.6
		H7.7z M24.6,49.6H25c0-0.2,0.4-0.8,1.1-1.7v-0.2C25.9,47.7,25.4,48.4,24.6,49.6z M32.1,36.2l0.2,0.4l-0.4,0.2l-0.2-0.4L32.1,36.2z
		 M38.6,34.3H39c0-0.2,0.3-0.6,0.9-1.3h-0.2C39.5,33,39.2,33.4,38.6,34.3z M48.5,61v0.2c0.1,0,0.5-0.4,1.1-1.3v-0.2
		C49.4,59.7,49.1,60.1,48.5,61z M50.3,58.4c0,0.2-0.2,0.5-0.5,0.9v0.2c0.3-0.4,0.6-0.6,0.7-0.6v-0.5H50.3z M56.9,49.8V50
		c-0.2,0.6-0.5,0.9-0.8,0.9v-0.4C56.1,50.3,56.4,50.1,56.9,49.8z M57.4,48.7h0.2v0.2c-0.2,0.6-0.5,0.9-0.7,0.9v-0.4
		C57.1,48.9,57.2,48.7,57.4,48.7z M59.7,45.7h0.2v0.2c-0.2,0.6-0.5,0.9-0.7,0.9v-0.5C59.1,46.1,59.3,45.9,59.7,45.7z M60.4,44.6h0.4
		v0.2c0,0.2-0.3,0.4-0.8,0.7v-0.5C60.1,44.7,60.2,44.6,60.4,44.6z M62.1,42.5h0.2v0.2c0,0.2-0.4,0.6-1.1,1.1v-0.2
		C61.6,42.9,61.9,42.5,62.1,42.5z M63.2,41h0.2v0.2c-0.4,0.4-0.6,0.7-0.6,0.9h-0.4V42C62.8,41.3,63,41,63.2,41z M64.7,38.6h0.4V39
		c-1,1.4-1.5,2-1.7,2v-0.2L64.7,38.6z M66.6,36.5h0.2v0.2c0,0.2-0.2,0.4-0.7,0.8h-0.2v-0.2C65.8,37.1,66.1,36.8,66.6,36.5z
		 M67.9,34.9v0.4c0,0.2-0.2,0.4-0.5,0.5h-0.2v-0.2C67.1,35.4,67.4,35.2,67.9,34.9z M72,29.1h0.2v0.2c-1,1.5-1.5,2.2-1.7,2.2v-0.4
		C71.3,29.8,71.8,29.1,72,29.1z M72.5,28.3h0.2v0.2c0,0.2-0.1,0.4-0.4,0.4h-0.2v-0.2C72.2,28.5,72.3,28.3,72.5,28.3z M73.1,27.6h0.2
		v0.2c0,0.3-0.1,0.4-0.4,0.4h-0.2V28C72.8,27.7,72.9,27.6,73.1,27.6z M75.3,24.6h0.2v0.2c0,0.2-0.3,0.5-0.9,0.9h-0.2
		C74.9,25,75.2,24.6,75.3,24.6z M76.1,23.7h0.2c0,0.3-0.1,0.4-0.4,0.4h-0.2C75.7,23.8,75.8,23.7,76.1,23.7z M76.8,22.8l0.2,0.4
		l-0.4,0.2l-0.2-0.4L76.8,22.8z M77.6,21.4h0.4v0.2c0,0.2-0.2,0.4-0.5,0.5h-0.2C77.4,21.9,77.6,21.6,77.6,21.4z M82.1,19.4h0.7
		c0-0.5,0.1-0.7,0.4-0.7c0,0.1,0.1,0.2,0.2,0.2l0.2-0.4v-0.2H83C82.8,18.3,82.5,18.6,82.1,19.4z M92.8,1.9L93,2.3
		c-4.4,5.2-7.5,9-9.1,11.5h-0.4v-0.2l7.1-9.3C90.8,4.3,91.5,3.5,92.8,1.9z"/>
	<path class="st0" d="M125.5,9.3c1.8,0.5,2.6,1.2,2.6,2.1c1.5,2.7,2.3,4.6,2.3,5.6c-0.2,1.3-0.3,2.1-0.3,2.4c0.1,0,0.5-0.2,1.1-0.5
		c0.1,0.1,0.4,0.2,0.7,0.2c0-0.2,0.4-0.3,1.3-0.3v0.3l0.7-0.2v0.2c0.1,0,0.1-0.1,0.1-0.2l0.9,0.2h0.3v0.3l-0.4,0.6
		c0.1,0.2,0.1,0.3,0.1,0.4c-1.5,0.9-3.6,1.9-6.5,3.2l-0.1,0.3v0.1c3.8-1.7,6.2-2.9,7.1-3.5l0.1,0.3c-0.5,1.1-2.6,2.4-6.4,3.9V25
		c0.1,0.2,0.1,0.3,0.1,0.4h-0.3l-0.4-0.3h-0.3l0.1,0.3c-0.1,0.2-0.1,0.4-0.1,0.5h-0.1l-0.7-0.1c0,0.2-0.2,0.4-0.5,0.8
		c0.1,0,0.2,0,0.4,0.1c0.2-0.1,0.3-0.1,0.4-0.1c0,0.1,0,0.1,0.1,0.1l1.2-0.9l0.3,0.1c0.4-0.3,0.8-0.5,0.9-0.5v0.2
		c-0.1,0.2-1,0.7-2.6,1.5c0,0.2,0.1,0.3,0.4,0.3v0.3c-1.7,0.6-2.5,1.3-2.5,2.1l-0.3,0.5c0.1,0.2,0.1,0.3,0.1,0.4
		c-0.3,0.1-1.8,2.6-4.5,7.3c-2.9,4.6-5.3,8.7-7.3,12.4c-0.8,1.4-1.5,2.2-2.3,2.6c-1.4,2.9-2.5,4.4-3.3,4.5v0.3c0.2,0,0.3,0,0.3,0.1
		c0,0.2-0.6,0.9-1.9,2.3c-0.9-1.2-1.6-1.8-2.1-1.8h-0.8l0.1-0.8l-1.2-1.2c-0.2,0-0.4-0.2-0.4-0.6c0.5-1.4,3-5.6,7.4-12.5
		c0-0.5,1.1-2.3,3.3-5.6l0.7-1.2v-0.1l-3.7,1.5c0-0.1,0-0.1-0.1-0.1c-0.1,0.5-4,2.3-11.5,5.6c-0.4,0.3-1.3,0.8-2.5,1.3
		c-2.4,4.1-4,6.9-4.9,8.2c-1.2,1.9-1.8,2.9-2,2.9v-0.1c0.3-0.4,0.4-0.7,0.4-0.9H89c-0.6,1.3-1.4,2.6-2.4,3.9l0.1,0.3v0.3h-0.1
		L86.4,59c-0.7,0.8-1.9,2-3.7,3.3h-0.1c-0.3-0.3-0.7-0.6-1.2-0.8l0.1-0.3c0-0.1-0.5-0.5-1.5-1.2l-0.8,0.1c-0.2,0-0.3-0.1-0.3-0.3
		v-0.1l0.3-0.4c-0.6-0.3-0.9-0.5-0.9-0.8v-0.5c-0.2,0-0.3-0.1-0.3-0.3c0.7-0.7,2.1-2.7,4.2-6.2v-0.1c-4.8,2.4-7.7,3.7-8.6,4
		c-0.2-0.3-0.5-0.5-0.8-0.5c-0.4-0.4-0.9-1-1.5-1.8c-0.8-0.9-1.3-1.3-1.5-1.3c-0.3,0-0.4-0.1-0.4-0.3l0.1-0.3
		c-0.4-0.4-0.7-0.8-0.9-1.2v-0.8c0.9-0.6,2.6-1.4,5.2-2.6c2.6-1.4,4-2.1,4.2-2.1c2.5-1.6,6.4-3.6,11.6-6.1c0.7,0,1.8-1.5,3.2-4.2
		c4.3-7.2,6.8-11.4,7.7-12.6h0.3v0.2l-0.7,1.2v0.1c0.8-0.9,2.1-3.3,4-7.1c0.3-0.3,0.9-1.4,1.6-3.2l0.3-0.1c1.6,0,3.1,2,4.5,5.9V19
		c-3,5.7-5.2,9.6-6.5,11.6c-0.4,0.6-0.5,1-0.5,1.2h0.1c0.5-0.4,2-1.1,4.5-2.1c8.2-4,12.4-6,12.6-6c0.3-0.3,0.8-1.2,1.5-2.7
		c0.1,0,0.4-0.4,0.9-1.2h0.3l-0.1-0.8l0.3-0.1c0,0.1,0,0.1,0.1,0.1c0-0.2,0.4-1,1.1-2.4c0.4-1,0.7-2.1,0.9-3.2
		c-0.2,0-0.3-0.1-0.3-0.3v-0.3c0.2-0.2,0.3-0.7,0.4-1.5l-0.4-1.8C125.5,9.5,125.5,9.4,125.5,9.3z M89.3,54.3v0.2
		c0.1,0,0.3-0.2,0.4-0.5v-0.1C89.6,53.9,89.4,54,89.3,54.3z M93.8,34.3c0.1,0,0.3-0.3,0.5-0.8v-0.1C94,33.5,93.8,33.8,93.8,34.3z
		 M96.4,43.6h0.1c0.2,0,0.3-0.1,0.3-0.3h-0.1C96.5,43.4,96.4,43.5,96.4,43.6z M97.9,42.7v0.1H98c1.7-0.7,2.6-1.1,2.6-1.3h-0.1
		C98.9,42.3,98,42.7,97.9,42.7z M100,23.7v0.1c0.2,0,0.3-0.1,0.3-0.3v-0.1C100.1,23.4,100,23.5,100,23.7z M102.8,18.1l0.1,0.3
		c0,0-0.3,0.3-0.8,0.9H102v-0.1C102.4,18.5,102.7,18.1,102.8,18.1z M104.4,39.7v0.1h0.1c0.1-0.1,0.3-0.1,0.5-0.1v-0.1h-0.3
		C104.6,39.7,104.5,39.7,104.4,39.7z M105.3,39.2v0.3c0.3-0.2,0.5-0.3,0.7-0.3v-0.1h-0.3C105.5,39.2,105.4,39.2,105.3,39.2z
		 M106.1,39.1h0.1c0.2,0,0.3-0.1,0.3-0.3h-0.1C106.2,38.8,106.1,38.9,106.1,39.1z M106.6,38.6v0.1h0.3c0.2-0.1,0.3-0.1,0.4-0.1v-0.2
		h-0.1C107,38.6,106.8,38.6,106.6,38.6z M108.1,38.2h0.3c0.2,0,0.3-0.1,0.3-0.3h-0.3C108.2,37.9,108.1,38,108.1,38.2z M108.7,37.9
		h0.1c0.9-0.3,1.4-0.6,1.6-0.9h-0.3C109.2,37.4,108.7,37.7,108.7,37.9z M110.6,36.8V37h0.3c1.2-0.6,1.9-0.9,2.1-0.9v-0.1h-0.5
		C111.4,36.5,110.7,36.8,110.6,36.8z M111.5,31.8h0.1c0.3-0.2,0.8-0.4,1.5-0.6v-0.3C112,31.4,111.5,31.7,111.5,31.8z M113.6,35.6
		h0.1c0.3-0.1,0.5-0.3,0.5-0.4h-0.1C113.8,35.3,113.6,35.5,113.6,35.6z M114.8,30v0.1h0.7c0.9-0.6,1.5-0.9,1.9-0.9v-0.2h-0.4
		C116.5,29.4,115.8,29.7,114.8,30z M126.8,27.8v0.1h0.1c0.2-0.1,0.3-0.1,0.4-0.1v-0.3h-0.3C126.9,27.5,126.8,27.6,126.8,27.8z
		 M130.8,24.6c0,0.2-0.4,0.4-1.1,0.6v-0.3C130.3,24.7,130.7,24.6,130.8,24.6z M131.1,24.3h0.3v0.3h-0.5
		C130.9,24.4,130.9,24.3,131.1,24.3z"/>
	<path class="st0" d="M150.2,10.4h0.1c0.3,0.5,0.9,0.7,1.6,0.7c0,0.2,0.6,0.7,1.9,1.4l0.6-0.1c2.7,0.8,4.8,2.2,6.3,4.5
		c1.4,1.1,2.1,3.4,2.1,6.9l-0.1,0.7c0.1,0.1,0.1,0.3,0.1,0.5c-0.2,0-0.6,1.5-1.2,4.5l-1.2,4c-1.1,3.1-3.1,7-6.1,11.7
		c-2.2,3.1-5.1,6.3-8.6,9.8c-5.1,4.1-9.1,6.4-12.1,6.8c0,0.2-1.4,0.4-4.2,0.5c-3.4,0-6.8-2-10.1-6.1c-1.2-1.7-1.7-3.1-1.7-4.4
		l0.1-0.6v-0.8c0.2-1.8,0.4-2.7,0.6-2.7l-0.1-0.3c1.2-5.1,4.5-11.1,10.1-18c5.8-6.5,10.5-11.1,14.1-13.9
		C146,12.6,148.6,10.9,150.2,10.4z M118.6,51v0.6h0.1V51H118.6z M121.6,39.9l0.1,0.3c0,0.2-0.1,0.5-0.4,0.9h0.5
		c-0.2,0.3-0.3,0.5-0.3,0.7c1.2-1.5,1.7-2.6,1.7-3.4h-0.1l0.1-0.6C122.7,38.4,122.1,39.1,121.6,39.9z M122.6,53.3
		c0.5,3.2,1.5,4.8,2.8,4.8c6,0,12.1-3.4,18.4-10.3c0.1,0,1.1-1.2,3.1-3.5c2.1-2.8,4.5-6.8,7.3-12.2c2.2-5.3,3.2-9.3,3.2-12v-2
		c0-1.4-0.4-2.1-1.3-2.1c-0.3-0.1-0.7-0.1-1.2-0.1c-1.6,0-3.8,0.4-6.3,1.2c-2,1.1-6.1,4.8-12.3,10.9
		C127.2,38.1,122.6,46.5,122.6,53.3z M123.2,40.3v0.1c0.2,0,0.3-0.1,0.3-0.3V40C123.3,40.1,123.2,40.2,123.2,40.3z M123.3,37.6h0.3
		c0-0.3,0.2-0.7,0.7-1.3h-0.1C124.1,36.2,123.8,36.7,123.3,37.6z M126,33.7v-0.1c-0.2,0-0.7,0.7-1.6,2.1c-0.1,0-0.1,0-0.1,0.1V36
		c0,0.2,0.1,0.3,0.3,0.3l-0.1,0.2v0.1h0.1c0.3-0.2,1-1.3,2.1-3.1h-0.1L126,33.7z M125.9,34v0.3c0,0.1-0.1,0.2-0.4,0.4l-0.1-0.3
		L125.9,34z M130.6,28.3c0,0.3-0.2,0.5-0.6,0.7c0-0.1-0.1-0.2-0.3-0.2c-0.6,0.5-1.5,1.7-3,3.6v0.1l0.3-0.1h0.1v0.1l-0.3,0.5v0.1h0.1
		l3.8-4.8H130.6z M135.4,22.8c0.1,0.1,0.1,0.3,0.1,0.4c-0.4,0.3-0.7,0.5-0.9,0.5l0.3-0.4h-0.1c-0.2,0-0.3,0.3-0.5,0.6
		c0.2,0,0.3,0.1,0.3,0.3c-0.1,0-0.4,0.3-0.8,0.8V25h0.1c3.3-3.3,5.3-4.9,5.8-5v0.3h0.1l0.5-0.4l-0.1-0.3v-0.1c0-0.1,2-2,6-5.6
		c0.1,0,0.9-0.6,2.5-1.7c1-0.5,1.5-0.8,1.5-1H150c-2.6,1.1-6.5,3.9-11.6,8.4c-1.9,2-2.9,3-3,3V22.8z M139.3,20.7v0.1
		c0.2,0,0.3-0.1,0.3-0.3v-0.1C139.4,20.5,139.3,20.6,139.3,20.7z"/>
	<path class="st0" d="M230.7,10.1h0.1l0.4,0.3c0-0.2,0.1-0.3,0.4-0.3c0.8,0.1,1.7,0.9,2.9,2.2l0.7,0.8c0.2,0,0.3,0.1,0.3,0.3v0.1
		c-2.9,6.7-9.8,18.8-20.6,36.2c-3.8,6.2-5.9,10.3-6.4,12.4c-0.2,0.2-0.3,0.4-0.4,0.4h-0.1c-0.1-0.1-0.4-0.2-0.7-0.2
		c0,0.1-0.1,0.2-0.3,0.2l-0.7-1.3c-0.6-0.2-0.9-0.4-0.9-0.7c0-0.2-0.2-0.3-0.7-0.5c0,0.3-0.1,0.5-0.3,0.5l-0.2-0.4
		c0-0.3,0.1-0.8,0.2-1.5c0-0.3-0.1-0.6-0.3-0.9v-0.1c0.1-0.2,0.3-1,0.6-2.2c0.5-0.4,1-1.3,1.5-2.6c0.9-1.9,2-3.8,3.5-5.7h0.1v-0.7
		c1-1.5,1.6-2.3,1.9-2.3l-0.1-0.3c1-1.2,2.7-3.8,5.1-7.8c0.2,0,0.4-0.7,0.8-2.1c1.3-1.3,2.3-2.7,2.9-4.2l0.2-0.1h0.1l0.2,0.1
		c0-0.1,0.1-0.2,0.2-0.2l-0.1-0.6v-0.2c0-0.2,0.1-0.3,0.3-0.3c0.1,0,0.1,0,0.1,0.1c0.4,0,1-0.8,1.6-2.4h-0.1
		c-1.8,1.8-7.8,8.6-17.8,20.1c-1.8,1.9-3.4,2.9-4.8,2.9c-0.5-0.1-1.2-0.8-2.2-2l-1.7-1.3c-0.2-0.8-0.4-1.4-0.4-1.6
		c0.3-3.7,0.7-6.7,1.2-9.1c0.1,0,0.1,0,0.1-0.1c0-0.2,0-0.3-0.1-0.5c0.2-1.8,0.5-3.4,0.8-4.9c0-0.1,0-0.1-0.1-0.1
		c0.4-3.2,0.7-4.8,0.8-4.8l-0.1-0.6v-0.1c0-0.1,0-0.1,0.1-0.1c-0.1-0.1-0.1-0.3-0.1-0.4l0.1-0.6h-0.3c-0.1,0.5-2.4,4.2-6.7,11
		c-9.5,14.6-14.2,22-14.2,22.3l0.1,0.7c-0.5,0.8-0.9,1.2-1.3,1.2c-1,0-1.5-0.2-1.5-0.7c-0.1,0-0.2-0.1-0.4-0.4v-0.1l0.1-0.2
		c-0.2,0-0.7-0.3-1.6-0.8c-0.5,0-0.7-0.2-0.7-0.6c-0.1,0-0.2-0.1-0.2-0.3v-0.6c0-0.5,0.7-1.6,2-3.4c1.6-2.8,2.9-4.8,3.8-5.9v0.2
		l-0.1,0.3h0.3c1.1-1.8,2.8-4.3,5.2-7.5c1.3-1.7,2.6-3.7,3.8-5.9c4.7-7.1,8.7-13.8,12.2-20c0.3,0.1,0.5,0.2,0.5,0.3v0.1l-0.2,0.3
		c0,0.2,0,0.3,0.1,0.5c-0.1,0.1-0.1,0.3-0.1,0.4h0.2c0.2-0.5,0.4-1.1,0.5-1.9l0.2-0.1h0.1c1,0.7,2.1,1.6,3.2,2.9V15l-0.1,0.7
		c0,0.1,0,0.1,0.1,0.1l-0.1,0.5c0,5.8-0.8,13.8-2.3,24c-0.1,0.5-0.1,1.1-0.1,1.7c0.6-0.3,2.2-2,4.9-5.2c2.3-2.9,4.2-5,5.7-6.5h0.1
		l-0.1,0.6c0.3-0.2,1.6-1.5,3.7-3.8c0.1,0,0.6-0.5,1.4-1.4l2.4-3.4v-0.1l-0.4,0.3h-0.1c0-0.2,0.4-0.7,1.2-1.4h0.1v0.1l-0.2,0.4v0.1
		h0.1c1.7-1.2,3.1-2.7,4.4-4.5c0.1,0,0.6-0.6,1.5-1.7h-0.1l-1.5,1.4l-0.1-0.2c1-1.1,2.3-2.6,3.9-4.3L230.7,10.1z M173.7,52.2h0.1
		c0.1,0,0.4-0.5,0.9-1.5c0.7-0.7,1.2-1.7,1.7-2.9C175.3,49.4,174.4,50.9,173.7,52.2z M184.6,37.2v0.1c0.1,0,0.2-0.1,0.2-0.3v-0.1
		C184.7,37,184.6,37.1,184.6,37.2z M185.8,35.3v0.3h0.1l0.2-0.7C186,35,185.9,35.1,185.8,35.3z M191.8,25.8c0,0.1-0.2,0.4-0.6,0.9
		v0.1h0.3c0-0.1,0.2-0.4,0.5-0.9v-0.1H191.8z M194.6,21.4l-0.1,0.2v0.3h0.1c0-0.2,0.1-0.4,0.2-0.4v-0.1H194.6z M195.1,20.8v0.1
		c0.3-0.2,0.7-0.8,1-1.9C196,19,195.6,19.6,195.1,20.8z M196.2,18.5v0.2c0.1,0,0.2-0.1,0.3-0.4h-0.1
		C196.3,18.4,196.2,18.4,196.2,18.5z M196.6,18.2c0.3-0.2,0.6-0.6,0.8-1.2c0.6,0,1.2-0.9,1.7-2.7l-0.1-0.8
		C198.8,13.6,198,15.2,196.6,18.2z M205.2,58.4l-0.2,0.9h0.2l0.1-0.8v-0.1H205.2z M208.1,52.6c0,0,0,0.2-0.1,0.5h0.2v-0.5H208.1z
		 M213.9,40.6c0,0.1,0,0.2-0.1,0.4h0.1c0.1,0,0.2-0.1,0.2-0.2v-0.1H213.9z M219.6,31.5h0.1c0.2,0,0.3-0.1,0.3-0.2h-0.1
		C219.7,31.3,219.6,31.4,219.6,31.5z M220,31.1v0.1h0.2l0.1-0.5C220.2,30.7,220.1,30.8,220,31.1z M222.9,25.9h0.1
		c0.1,0,0.2-0.1,0.2-0.2h-0.1C223,25.8,222.9,25.8,222.9,25.9z M224.1,25.7v0.3h0.1c0-0.1,0-0.2,0.1-0.3H224.1z"/>
	<path class="st0" d="M264.4,10.3c1.1,0,1.9,0.2,2.4,0.5c1.9,1.5,2.8,2.3,2.8,2.5c0,0.9-0.6,2.9-1.8,6c-0.6,1.4-1.5,3.8-2.7,7.3
		l-0.2,0.3v0.2c1.1-0.3,1.7-0.5,2-0.6l0.5,0.1c0-0.1,0.2-0.2,0.7-0.3c0.1,0.1,0.2,0.1,0.3,0.1c0-0.2,0.7-0.4,2.1-0.6
		c0.7-0.3,1.3-0.4,1.9-0.5v0.1l0.2-0.1h0.2l0.7,0.1c0-0.1,0.3-0.2,0.8-0.3c0.2-0.1,0.3-0.2,0.3-0.4l0.6-0.1c0.4,0.1,0.6,0.1,0.8,0.1
		v0.1c0,0.1-0.1,0.2-0.3,0.2v0.1h0.3c0.1,0,0.2-0.1,0.2-0.2c-0.1,0-0.1,0-0.1-0.1c0.2-0.2,0.6-0.3,1-0.4c1,0.3,1.5,0.4,1.7,0.4
		c0-0.1,0.1-0.2,0.2-0.2h0.2c0.4,0,0.6,0.1,0.7,0.4c-0.3,0.1-0.4,0.2-0.4,0.3c0.1,0,0.1,0,0.1,0.1c-0.1,0.1-0.3,0.1-0.3,0.1
		l-0.5-0.1l0.1,0.2c0,0.1-0.1,0.2-0.2,0.2h-0.5v0.1c0.1,0.1,0.1,0.2,0.1,0.3l-0.2,0.1h-0.5v0.2h0.1c0.1-0.1,0.3-0.1,0.3-0.1v0.1
		c0.2-0.1,0.4-0.2,0.6-0.2v0.1c0,0.1-0.8,0.4-2.3,0.7c-0.5,0.1-0.8,0.3-0.8,0.5h-0.3l-0.3-0.2c-0.2,0.2-0.5,0.3-1,0.4v0.1
		c0.1,0,0.3,0.1,0.6,0.4c0.1-0.1,0.2-0.1,0.3-0.1v0.1c0,0.1-0.1,0.2-0.3,0.3l-0.2-0.1c0,0.1-0.1,0.2-0.2,0.2h-0.5v-0.2h0.6v-0.1
		c0-0.1-0.1-0.2-0.4-0.3c0,0.1-0.1,0.2-0.2,0.2h-0.2v-0.3h-0.2v0.1l0.1,0.2l-0.2,0.1h-0.2v-0.2h-0.4v0.2l0.2-0.1h0.1v0.1
		c0,0.1-0.7,0.4-2.1,0.6c0,0.1,0.1,0.2,0.2,0.2c0.3-0.1,0.8-0.3,1.5-0.4h0.1v0.2c-0.1,0-0.2,0-0.3,0.1l0.1,0.2v0.1l-0.3-0.2h-0.1
		c-0.4,0-0.6,0.1-0.6,0.3h0.3v-0.2h0.3v0.3c-0.6,0.1-1.2,0.2-1.8,0.5c-0.1-0.1-0.2-0.1-0.3-0.1c0,0.1-0.1,0.2-0.2,0.2l-0.3-0.2
		l-0.2,0.1l-0.2-0.1l-1.4,0.5c-0.1-0.1-0.3-0.1-0.3-0.1c-0.5,0.3-0.7,0.5-0.7,0.6c-1.2,0.3-2,0.6-2.4,0.9l0.1,0.2v0.2
		c-0.1,0.2-0.3,0.3-0.6,0.3l-0.5-0.1c0,0.2-0.2,0.4-0.6,0.5l-2.5,6l-5.1,12.5c-0.3,0.5-1.1,2.2-2.2,5.2c-1.5,2.9-2.2,4.5-2.2,5
		c-0.2,0.4-0.4,0.6-0.5,0.6h-0.1c-0.1,0-0.2-0.1-0.2-0.3l-0.6,0.3c0-0.3-0.2-0.5-0.6-0.6c0-0.1-0.2-0.3-0.6-0.6
		c0,0.1-0.1,0.2-0.3,0.3c0-0.1-0.1-0.3-0.4-0.7c-0.2,0.1-0.4,0.2-0.6,0.2h-0.1v-0.2c0-0.1,0-0.3,0.1-0.4c-0.1-0.5-0.2-0.7-0.4-0.7
		c0.9-3.3,1.6-5.2,2.1-5.6c-0.1,0-0.2-0.1-0.2-0.2c0.2,0,0.4-0.4,0.7-1.1l0.2-0.1l-0.1-0.2v-0.3c0.9-1.5,1.8-3.5,2.7-6.1l-0.1-0.2
		c0.5-1,1.1-2.4,1.7-4.2c0.3-0.3,0.8-1.4,1.5-3.4c0.3-0.3,0.7-1.2,1.1-2.6c0.2-0.3,0.3-0.5,0.3-0.8c-0.1,0-0.2,0.1-0.3,0.1
		c0,0,0-0.1-0.1-0.1c0,0.1-0.1,0.2-0.2,0.2h-0.1l-0.3-0.2h-0.1l-0.3,0.2c-0.1,0-0.2-0.1-0.2-0.3c-0.7,0-1.8,0.3-3.3,0.9l0.2,0.5
		c-1.2,0.5-2.3,0.9-3.5,1.2c-0.7,0.2-1.1,0.3-1.3,0.4h-0.1l-0.3-0.2h-0.1l0.1,0.2l-0.2,0.1c0-0.1-0.1-0.2-0.2-0.2h-0.2l0.1,0.2v0.2
		l-6.3,2c-0.6,0-1.9,1.1-4,3.3c-7,6.3-11.8,9.8-14.4,10.5c-0.2,0-0.3,0-0.4,0.1c-0.8-0.1-1.5-0.5-2.2-1.2c-0.2-0.1-0.6-0.3-1.2-0.8
		c0.1,0,0.1,0,0.1-0.1c-0.1,0-0.2-0.1-0.2-0.2v-0.3c0.1-0.2,1.4-0.9,4-2.2c2.8-2.2,5.1-4,6.8-5.6v-0.1c-2.3,0.6-4.2,1-5.8,1.3
		c-0.1-0.1-0.3-0.1-0.4-0.1c0,0.2-0.2,0.3-0.5,0.3l-0.1-0.2c0.1,0,0.1,0,0.1-0.1c-0.5,0-1.1-0.5-2-1.4l-0.6-0.1h-0.4v-0.1l0.2-0.3
		v-0.1c-0.3,0-0.5-0.2-0.8-0.6v-0.4c0.7-0.5,2.7-1.1,6.1-1.9c1-0.4,3.1-1.1,6.3-1.9c1.3-0.6,2.6-1,4-1.3c0-0.1,0.3-0.3,0.8-0.4v0.1
		c1.1-0.3,2-0.8,2.6-1.6c0.3,0,0.5-0.2,0.6-0.6c0.2,0,0.6-0.4,1.3-1.2c0.3,0,0.5-0.2,0.6-0.5c0.3-0.5,1.3-1.5,3-3l5.2-5.1
		c2.1-1.9,3.2-2.9,3.3-2.9c0.6-0.8,1.6-1.7,2.9-2.7c0.1,0.1,0.2,0.1,0.3,0.1c0.1-0.4,0.3-0.6,0.4-0.6c0,0,0,0.1,0.1,0.1
		c0-0.3,0.2-0.4,0.7-0.4l-0.1-0.2v-0.1c0-0.1,0.1-0.2,0.2-0.2c0,0.1,0,0.1,0.1,0.1c0.4-0.5,0.6-0.7,0.6-0.8l0.2,0.1h0.1
		c0-0.5,1.2-1.7,3.6-3.5c0.3-0.5,1-1,1.9-1.7C262.7,11.2,263.3,10.8,264.4,10.3z M262.2,18.4v-0.3c-2.6,2.1-7.8,6.8-15.4,14.2h-0.1
		v0.2c5.9-1.7,9.7-2.9,11.3-3.5c0-0.1,0-0.1,0.1-0.1c0.1,0,0.1,0,0.1,0.1c0.3,0,0.8-1.2,1.6-3.5c1-2.4,1.5-3.7,1.5-3.9
		c-0.1,0-0.3,0.4-0.6,1.1h-0.1c0-0.1,0-0.1-0.1-0.1c0.4-1,0.6-1.5,0.7-1.6l-0.1-0.2v-0.1c0.2-0.2,0.5-0.9,0.9-2.2L262.2,18.4v0.1
		c0,0.4-0.2,1-0.6,1.8v0.3c0.1,0,0.5-1,1.2-3h-0.1L262.2,18.4z M256.2,16.9L256.2,16.9c0.1,0.1,0,0.2-0.2,0.3v-0.1
		C256,17,256.1,16.9,256.2,16.9z M263.6,32.4h0.2c0.1,0,0.2-0.1,0.2-0.2v-0.1h-0.1C263.8,32.2,263.7,32.3,263.6,32.4z M266,30.3
		h-0.1l-0.2-0.1c0,0.1-0.2,0.3-0.5,0.4h-0.3l-0.4-0.3v0.1l0.1,0.2l-0.2,0.1c0-0.1-0.1-0.2-0.2-0.2h-0.1l0.1,0.2
		c-0.1,0-0.2,0.1-0.2,0.2v0.1l2.5-0.7c0-0.1-0.1-0.2-0.2-0.2L266,30.3z M266.6,30.3h0.2c0.1-0.1,0.3-0.1,0.3-0.1V30h-0.3
		C266.7,30.1,266.6,30.1,266.6,30.3z M267.1,29.9c0.1,0,0.2,0,0.3,0.1h0.2v-0.1c-0.2,0-0.3-0.1-0.3-0.2
		C267.2,29.8,267.1,29.8,267.1,29.9z M267.4,30.3h0.3v-0.2h-0.1C267.5,30.2,267.4,30.2,267.4,30.3z M268,29.8c0,0.1,0.1,0.2,0.2,0.2
		l0.1-0.2H268z M269.8,29.4v0.1h0.3v-0.2C270,29.3,269.9,29.4,269.8,29.4z M270.3,29.3h0.3v-0.2h-0.1
		C270.4,29.1,270.3,29.1,270.3,29.3z M270.6,29.6h0.1c0.1,0,0.2-0.1,0.2-0.2h-0.1C270.7,29.5,270.6,29.5,270.6,29.6z M274.6,25.3
		l-0.1,0.2h0.1c0.1-0.1,0.2-0.1,0.3-0.1v-0.1H274.6z M279.1,26.1h0.3v0.2h-0.3V26.1z"/>
	<path class="st0" d="M298.9,10.2v0.1l0.2-0.1c0.8,0.3,2,1.2,3.4,2.7v0.5c-1.1,2.5-3.4,6.4-6.9,11.8c0,0.1,0.1,0.2,0.2,0.2
		c0-0.1,0.2-0.3,0.6-0.4c0,0.1,0,0.1,0.1,0.1l-0.1,0.2v0.1h0.1l0.3-0.2c0.1,0.1,0.3,0.1,0.3,0.1c0-0.1,0.8-0.5,2.5-1.1
		c1.7-0.7,2.7-1.2,3.1-1.6h0.1c0.1,0,0.1,0,0.1,0.1c1.5-0.6,2.7-1.2,3.6-1.8c0.5-0.2,1-0.4,1.7-0.7c0,0,0.2-0.3,0.7-0.7
		c-0.1-0.1-0.3-0.1-0.3-0.1v-0.1c0.5-0.4,1.4-0.8,2.9-1.3l-0.2,0.3v0.1c1-0.3,2.4-0.8,4.2-1.6l1.5-0.5c0,0.1,0.1,0.2,0.2,0.2
		l0.2-0.1c0.7,0.3,1.1,0.7,1.1,1.2c0.3,0,0.8,0.7,1.5,2.1v0.3c-0.4,0-2.1,0.8-5.2,2.3c-0.3,0-0.6,0.2-1.1,0.5h0.1c2.3-1,4-1.7,5-2
		v0.2c-2.3,0.8-4.3,1.8-6.1,2.9l-4.6,1.9c-1.2,0.7-3.8,2-7.9,3.9l-10.4,4.9V35c3.8,4.1,7.4,7.5,10.8,10.4c1.3,0.9,3.9,3.1,7.8,6.6
		c0.8,0.5,1.5,1.4,2.1,2.6c0.1,0,0.1,0,0.1,0.1l-0.2,0.5c-1.1,0-4.6-2.6-10.6-7.9c-1.6-1.1-3.9-3.2-6.9-6.2c0-0.1-1.4-1.7-4.3-4.7
		v-0.1h-0.2c-7.7,12.1-13.1,20.7-16.4,25.6l-0.4,0.3l-0.2-0.1c-0.1,0.1-0.2,0.1-0.3,0.1c-0.1-0.1-0.3-0.1-0.3-0.1
		c0,0.1-0.1,0.3-0.4,0.4l-0.1-0.2l0.3-0.4v-0.2c-0.2,0-0.6-0.2-1.2-0.6c-0.2,0-0.5-0.2-0.7-0.7h-0.1c-0.1,0.1-0.3,0.1-0.4,0.1
		c-0.4-0.5-0.7-0.8-0.9-0.8v-0.3c1.2-2.1,2.4-3.8,3.4-4.9c-0.1,0-0.2-0.1-0.2-0.2l1.5-1.9c-0.1,0-0.1,0-0.1-0.1
		c0.3,0,0.6-0.5,0.8-1.4c0.1,0,2.4-3.6,7-10.9h-0.2c-5.9,3-9,4.9-9.3,5.7c0,0-0.3,0-0.7,0.1c0-0.2-0.3-0.3-0.9-0.4v-0.1l0.1-0.2
		c-0.3-0.2-0.4-0.5-0.4-0.9h-0.7c-0.1,0-0.3-0.2-0.5-0.7c-0.6,0-0.8-0.3-0.8-0.8c-0.3-0.1-0.4-0.3-0.4-0.5c0-0.4,1-1.2,3-2.5
		c6-3.2,10.1-5.3,12.5-6.4c1.6-0.8,2.7-1.3,3.1-1.7v-0.2h-0.1c-0.4,0.1-0.7,0.3-0.7,0.4h-0.1c-0.1,0-0.2-0.1-0.2-0.2
		c0.5-0.2,0.7-0.4,0.8-0.5c-0.5-0.4-1.2-1.3-2-2.6c-0.1,0-0.4-0.2-0.8-0.7c0.1,0,0.4-0.1,0.8-0.4l0.2,0.1c0.1-0.1,0.3-0.1,0.4-0.1
		c0.9,0.8,1.9,1.8,3,3.1h0.1l2.1-3c0.3-0.2,0.9-1,1.7-2.5c1.2-1.6,2.2-3.1,3-4.7c0.3-0.3,1.7-2.5,4.1-6.5v-0.3l-0.2,0.1v-0.2
		c0.9-1.1,1.5-2,1.8-2.5v-0.3L298.9,10.2z M292.5,32.8V33h0.1c0.1-0.1,0.3-0.1,0.3-0.1v-0.1h-0.1C292.7,32.8,292.6,32.8,292.5,32.8z
		 M293.4,32.4v0.1h0.3c0-0.1,0.2-0.2,0.5-0.3V32C293.9,32.3,293.6,32.4,293.4,32.4z M294.5,31.9V32h0.2c0.1-0.1,0.3-0.1,0.3-0.1
		v-0.2h-0.1C294.7,31.8,294.6,31.9,294.5,31.9z M295.1,26.1v0.2c0.3-0.1,0.4-0.2,0.4-0.3v-0.1C295.4,26,295.2,26.1,295.1,26.1z
		 M295.1,31.6v0.1h0.2c0.1-0.1,0.3-0.1,0.3-0.1v-0.2C295.5,31.5,295.3,31.6,295.1,31.6z M295.7,25.7c0,0.1,0.1,0.2,0.2,0.2h0.2
		c0-0.1-0.1-0.2-0.2-0.2H295.7z M295.9,15.7c0.1,0,0.3-0.4,0.7-1.1v-0.1h-0.1C296.4,14.5,296.2,14.9,295.9,15.7z M295.9,31.2v0.1
		h0.2c0.9-0.4,1.3-0.7,1.3-0.8h-0.1C296.5,31,296,31.2,295.9,31.2z M297.5,30.5v0.1h0.3c0-0.2,0.2-0.3,0.5-0.3V30
		C297.9,30.3,297.6,30.5,297.5,30.5z M299.2,29.6v0.1h0.2c0.7-0.3,1.1-0.6,1.1-0.7h-0.1C299.7,29.5,299.3,29.6,299.2,29.6z
		 M301.1,28.9h0.1c1.1-0.6,1.7-0.9,1.9-0.9v-0.2H303C301.7,28.5,301.1,28.8,301.1,28.9z M303.2,27.7L303.2,27.7l0.2,0.1
		c0.9-0.4,1.4-0.6,1.4-0.7h-0.2C303.9,27.5,303.4,27.7,303.2,27.7z M305.3,26.7v0.1h0.2c0.4-0.2,0.7-0.3,0.7-0.4H306
		C305.7,26.6,305.4,26.7,305.3,26.7z M306.3,26.4h0.1c0.1,0,0.2-0.1,0.2-0.2h-0.1C306.3,26.2,306.3,26.3,306.3,26.4z M306.7,26.1
		v0.1h0.2c1.6-0.8,2.5-1.2,2.6-1.2v-0.2h-0.1L306.7,26.1z M309.7,24.8h0.2c0.3-0.2,1-0.5,1.9-0.9v-0.1h-0.2
		C310.4,24.4,309.8,24.7,309.7,24.8z M310.1,19v0.1h0.1c0.1-0.1,0.3-0.1,0.3-0.1v-0.1h-0.1C310.3,19,310.2,19,310.1,19z M311.7,20.6
		L311.7,20.6c0.2,0,0.3-0.1,0.3-0.2h-0.1C311.8,20.5,311.7,20.5,311.7,20.6z M312.7,23.3v0.2h0.1c0.3-0.1,0.4-0.2,0.4-0.3H313
		C312.9,23.3,312.8,23.3,312.7,23.3z M313.3,23.2h0.3V23h-0.1C313.4,23,313.3,23.1,313.3,23.2z"/>
	<path class="st0" d="M366,10.1c0,0,0.2,0.2,0.6,0.5v0.3c-0.3,0.3-1.4,0.8-3.2,1.5l-0.2-0.1c-1,0.7-2.2,1.3-3.8,1.7
		c0,0.1,0,0.1-0.1,0.1c-0.5,0-1.9,0.5-4.2,1.5c-0.2,0-1.1,0.4-2.8,1.1c-1.2,0.5-2,0.8-2.5,0.9c-2.1,1-4.6,2-7.5,3.2l0.1,0.2v0.2
		c-0.1,0.2-0.3,0.4-0.7,0.4h-0.1l-0.2-0.1c0,0.1,0,0.2-0.1,0.3l-0.2-0.1h-0.3l0.1,0.2v0.1c-0.4,0-1.7,0.5-4,1.5l-5.4,2
		c-0.8,2.8-2,6.4-3.7,11h0.1c2.4-1,4.4-1.7,5.7-2c1.7-1,4.2-2.1,7.3-3.3c0,0.1,0,0.1,0.1,0.1c0-0.2,1.5-0.8,4.6-1.8
		c1.9-0.9,3.3-1.4,4.2-1.4h0.1l0.8,0.1l-0.1-0.2c0.9-0.5,1.5-0.7,1.9-0.7c-0.1,0.2-0.3,0.4-0.7,0.4v0.1h0.4c0.7-0.3,1.3-0.5,1.9-0.5
		l0.1,0.2c0.4-0.1,0.7-0.2,0.9-0.3h0.1v0.5h0.1l0.4-0.3h0.6v0.3c-0.1,0-0.3,0.1-0.6,0.3l0.1,0.2c0,0.3-1.3,0.9-4,1.7V30h0.3
		c1.1-0.3,1.7-0.5,2-0.7l0.2,0.1c0-0.1,0.1-0.2,0.3-0.4l0.5,0.3c0-0.2,0.1-0.4,0.2-0.4h0.1c0,0.1,0.1,0.3,0.4,0.5
		c-0.1,0-1.1,0.4-2.8,1.3c-1.7,0.7-2.7,1.1-3.1,1.1v0.1h0.3c0.1,0,0.2,0,0.3-0.1l0.5,0.1c0.5-0.1,1.1-0.3,1.8-0.6l0.1,0.3v0.1
		l-1.1,0.3c0-0.1,0-0.1-0.1-0.1c0,0.1,0,0.1-0.1,0.1l0.1,0.3v0.1c-0.2,0-1.1,0.5-2.8,1.4c-0.2,0-1,0.4-2.3,1.1V35h0.1l0.6-0.1
		c-0.4,0.4-0.9,0.6-1.3,0.6l0.1,0.2v0.1l-0.3-0.2c-0.2,0.1-0.4,0.2-0.6,0.2l0.1,0.3v0.1l-0.3-0.3h-0.2v0.3h-0.4v-0.3
		c0,0,0.5-0.2,1.5-0.5v-0.1h-0.2c-1.5,0.4-3.8,1.3-6.8,2.6v0.2h0.1c0.2,0,0.5-0.1,0.9-0.3v0.1c0,0.1-0.6,0.4-1.8,0.9
		c0,0.4-2.1,1.3-6.2,2.9c0-0.1,0-0.1-0.1-0.1c-0.4,0.5-1.6,1-3.7,1.6c-3,1.1-4.5,1.8-4.5,2.1c-2.1,4.2-3.1,6.4-3.1,6.5h0.1l12.4-4.8
		c0,0.1,0,0.1,0.1,0.1c0-0.2,0.9-0.7,2.7-1.3c2.9-1.3,4.9-2,6-2.3c0.1,0.1,0.3,0.1,0.5,0.1c0.1,0,0.2,0,0.3-0.1l0.2,0.1
		c1-0.3,1.8-0.6,2.5-1l0.1,0.2c-0.3,0.1-0.5,0.2-0.5,0.4h0.2l0.4-0.2l0.3,0.2c0.3-0.1,0.6-0.2,0.9-0.2c-0.1,0.4-0.2,0.7-0.4,0.7
		l-0.1-0.2h0.2c0-0.1-0.1-0.2-0.2-0.2c0,0.2-0.2,0.3-0.5,0.4l0.3,0.5c-0.9,0.4-1.9,0.9-3,1.6c-2.1,0.7-3.2,1.2-3.2,1.4h0.1l3.5-1.4
		h0.3l0.2,0.4c0,0.2-0.3,0.3-1,0.4l0.1,0.3c-0.4,0.3-2,1-4.8,2.1c0,0.2,0.1,0.3,0.3,0.3c1.9-0.8,3-1.2,3.1-1.2l0.1,0.2l-6.3,3.1
		l-4.8,2.3c-0.7,0-2.4,0.6-5.3,1.7c0,0.1-0.7,0.6-2,1.2v0.1c0.3-0.1,0.6-0.2,0.8-0.4h0.1v0.2c-0.4,0.2-0.7,0.4-0.7,0.6
		c-0.1,0-0.1,0-0.1-0.1c-0.3,0.1-0.6,0.1-0.8,0.1l0.1,0.2v0.1l-0.3-0.3H323c0,0.5-1,1-2.9,1.5c-2.5,1-3.8,1.6-3.8,2
		c-0.5,1-0.9,1.5-1.2,1.6l-0.6-0.1c0,0.1-0.1,0.2-0.2,0.2H314c0-0.3-0.4-0.6-1.1-1c0-0.1-0.2-0.3-0.6-0.5c0-0.4-0.1-0.6-0.3-0.6
		l-0.8,0.5H311v-0.2c0.4-0.7,0.7-1.3,0.8-1.7c0-0.3-0.3-0.4-0.9-0.5l-0.1-0.3l0.1-0.2c-0.4-0.3-0.7-0.7-0.9-1.4v-0.2
		c0.2-0.3,1.3-0.8,3.2-1.6c0.2-0.6,0.5-1.2,1.1-1.9h0.1l-0.1-0.2c1.4-1.8,2.3-3.5,2.7-5.2c-0.3,0.1-0.6,0.2-0.8,0.4
		c-0.8-0.3-1.7-0.9-2.5-2c-1.1-1.2-1.7-2-1.7-2.4l-0.1-0.6c1.1-0.8,4.2-2,9.3-3.5c0.3,0,1.1-1.9,2.4-5.6c0.5-1,0.9-1.9,1-2.6
		l0.2-0.1l-0.1-0.2c0.2,0,0.5-1,1-3.1c-0.4,0.2-0.7,0.3-0.9,0.3h-0.3c-1.6-0.6-2.6-1.2-3-1.7v-0.1c0-0.3,1.9-1.1,5.7-2.3l0.6-0.8
		v-0.5l-0.2-0.3c0-0.2,0.1-0.3,0.2-0.3c0,0.1,0,0.1,0.1,0.1c0.2-0.4,0.4-0.5,0.5-0.5c0.4,0,1.1,0.3,2.3,1h0.1
		c5.4-1.8,14-5.2,25.9-9.9C361.6,11,364.7,10.1,366,10.1z M339.4,47.3c0,0.2,0.1,0.3,0.3,0.3l0.1-0.3H339.4z M345.3,45.2v0.1
		c0,0.1-0.1,0.2-0.2,0.2h-0.6C344.5,45.4,344.8,45.3,345.3,45.2z M348.1,34.6v0.1c0,0.1-0.1,0.2-0.3,0.2h-0.3v-0.2
		C347.8,34.7,348,34.7,348.1,34.6z M349.7,28.4c0,0.1,0.1,0.2,0.2,0.2l0.1-0.2H349.7z M350.6,30.3v0.1h0.1l0.6-0.1v-0.2h-0.1
		C350.9,30.3,350.7,30.3,350.6,30.3z M353.7,31h0.4c0,0.2-0.2,0.3-0.6,0.3v-0.1C353.5,31.1,353.6,31,353.7,31z"/>
	<path class="st0" d="M389.3,10.1h0.2c1.6,0.8,2.6,1.5,3,2.3l1.2,2.3v0.1c0,0.4-0.7,0.5-2.2,0.5h-0.4l-0.7-0.1
		c-1.3,0.1-3.8,0.7-7.5,1.8c-4.9,1.6-10,4-15.1,7.3c-2.4,1.6-4.8,3.6-7,5.8c-1.7,1.9-2.6,3-2.6,3.5h0.6c0.2,0,0.3,0,0.3,0.1l0.5-0.1
		h1.1c3.5-0.5,5.3-0.8,5.3-0.9v-0.1h0.2l0.2,0.1c0-0.4,1.6-0.8,4.7-1c0-0.1,0.1-0.2,0.3-0.2c0.1,0,0.1,0,0.1,0.1l0.2-0.1
		c0.1,0.1,0.3,0.1,0.3,0.1c0-0.1,0.1-0.2,0.3-0.3h0.3l0.3,0.1c0-0.2,0.1-0.3,0.3-0.3c0.1,0.1,0.3,0.1,0.3,0.1c0-0.3,2.2-0.6,6.6-1
		c0-0.1,0-0.1,0.1-0.1c0.1,0,0.1,0,0.1,0.1c0.8-0.1,2.1-0.2,3.8-0.2h0.1l0.5-0.1v0.1c0.1,0,0.1,0,0.1-0.1c4.7,0,7.8,1.5,9.3,4.4
		c0.2,0.1,0.7,1,1.7,2.7c0,0.1,0,0.1-0.1,0.1l0.1,0.2v0.2c0,2.3-4.7,6-14.2,11.2c-10,5.3-19.9,9.9-29.5,13.9l-0.4,0.1
		c0-0.3-0.3-0.6-1-0.9l-0.1-0.2v-0.1c0-0.1,0-0.1,0.1-0.1c0-0.2-0.3-0.7-0.8-1.3c0-0.3-0.2-0.5-0.6-0.8v-0.4c-0.2,0-0.3-0.1-0.3-0.2
		c0.3,0,0.4-0.1,0.4-0.3h0.2l0.3,0.1l0.9-0.7c0.1,0.1,0.3,0.1,0.3,0.1l-0.1-0.3c0.1,0,0.1,0,0.1-0.1l0.3,0.1
		c1.2-0.5,1.8-0.9,1.8-1.2h0.1l0.2,0.1c0.1-0.2,1.1-0.8,2.9-1.7h0.1c0.1,0,0.1,0,0.1,0.1l2.4-0.9h0.2v-0.1l-0.1-0.2
		c0.2-0.1,0.5-0.2,0.7-0.2h0.5V53h-0.1l-0.2,0.1V53c0-0.1,0.4-0.3,1.3-0.5c0-0.2,0.3-0.3,1-0.4c0-0.3,0.3-0.5,0.9-0.7h0.9
		c0-0.2,0.7-0.5,2.1-1l3.1-1.7c0.7-0.2,1-0.5,1-0.7l0.2,0.1h0.1V48h-0.2v-0.1c0-0.1,0.6-0.5,1.7-1v-0.2h-0.2c0,0.2-0.1,0.3-0.3,0.3
		l-0.1-0.2c1.7-1,2.8-1.6,3.1-1.6v0.1c0,0.1-0.1,0.2-0.3,0.2v0.1h0.1c0.4-0.2,0.7-0.3,0.7-0.4h-0.2v-0.1c0.4-0.3,1.3-0.9,2.7-1.6
		c0-0.1,0.4-0.3,1-0.7l0.2,0.1c0.1-0.1,0.3-0.1,0.3-0.1V43h-0.2v0.1h0.1c0.5,0,1.4-0.6,2.8-1.7h-0.2c0,0.2-0.2,0.3-0.7,0.4
		c0,0.1-0.5,0.4-1.3,0.9l-0.1-0.2c1.5-1,2.5-1.6,3.1-1.8c0-0.3,0.5-0.6,1.5-0.9c0.5-0.4,0.8-0.5,1-0.5c-0.3,0.4-0.9,0.8-1.9,1.3v0.1
		h0.2c1.3-0.5,2.5-1.3,3.7-2.6h-0.1c-0.9,0.7-1.5,1-1.8,1c1.1-0.9,2.6-2.2,4.4-3.8v-0.1c-0.3,0-1.5,0-3.4-0.1
		c-0.2,0-0.7,0.1-1.7,0.2c-0.1,0-0.1,0-0.1-0.1c-3.5,0.4-9,1.2-16.8,2.5c-0.6,0-1.4,0.1-2.4,0.2v-0.1c-0.4,0.1-1,0.2-2,0.2h-2.6
		c-2.8,0-4.6-1.1-5.6-3.3c0-0.6-0.3-1.1-1-1.7c-0.2-0.7-0.3-1.1-0.3-1.3v-0.3c0.4-0.3,0.8-0.8,1-1.7c1-1.3,1.8-2.2,2.5-2.8
		c3.5-3.4,5.7-5.3,6.8-5.6l3.3-2.3c0-0.4,0.1-0.6,0.3-0.6l0.1,0.2v0.1h-0.3v0.1h0.2c0.6-0.5,1.9-1.2,3.9-2c0-0.2,0.3-0.4,0.9-0.5V16
		l-0.5,0.2l-0.1-0.2c0.6-0.4,1.1-0.8,1.3-1.1l3.4-1.5h0.2c0.1,0,0.1,0,0.1,0.1l0.3-0.1h0.2v0.1l-0.2,0.3c0.4,0.1,0.6,0.2,0.8,0.2
		c0-0.2,0.4-0.4,1.3-0.8v-0.1c-0.2,0-0.3-0.1-0.3-0.3v-0.2c0-0.2,1.7-0.8,5-1.7C386.7,10.4,388.5,10.1,389.3,10.1z M352.4,56.5h0.1
		v0.1c0,0.1-0.1,0.2-0.2,0.2h-0.2C352.1,56.7,352.2,56.6,352.4,56.5z M353.6,57h0.2c0.3-0.1,0.5-0.2,0.5-0.3h-0.3
		C353.8,56.8,353.6,56.9,353.6,57z M354.9,29h0.2v0.1c0,0.1-0.1,0.2-0.2,0.2V29z M355.5,28.3h0.1v0.1c0,0.1-0.1,0.2-0.3,0.3
		l-0.1-0.2L355.5,28.3z M363.1,50.9h0.4c-0.9,0.5-2.3,1.2-4.1,2l-0.1-0.2L363.1,50.9z M360.7,24.9l0.2,0.1l0.2-0.4H361
		C360.9,24.5,360.8,24.6,360.7,24.9z M361.2,24.4h0.4v-0.2h-0.1C361.3,24.2,361.2,24.3,361.2,24.4z M364.5,52.7h0.1
		c0.1,0,0.2-0.1,0.2-0.2h-0.1C364.5,52.5,364.5,52.5,364.5,52.7z M364.9,21.7h0.2c0.1,0,0.2-0.1,0.2-0.3v-0.1
		C365,21.5,364.9,21.6,364.9,21.7z M366.8,32.4v0.1h0.4v-0.2C367,32.4,366.9,32.4,366.8,32.4z M371.1,47.1v0.1
		c0,0.2-0.2,0.3-0.5,0.4l-0.1-0.3C370.7,47.1,371,47.1,371.1,47.1z M372.4,31.4l-0.1,0.3h0.1c0.1-0.1,0.3-0.1,0.3-0.1v-0.1H372.4z
		 M376.2,44.9h0.2c0.1,0,0.2-0.1,0.2-0.2h-0.2C376.3,44.7,376.2,44.7,376.2,44.9z M377,44.3l0.3,0.1h0.1c0.1,0,0.2-0.1,0.2-0.2v-0.1
		h-0.3C377,44.1,377,44.2,377,44.3z M378.4,43.5l0.3,0.1c0.1,0,0.2-0.1,0.3-0.3h-0.3C378.5,43.3,378.4,43.4,378.4,43.5z M378.5,13
		h0.4v0.3h-0.4V13z M382.3,41.4h0.1c0.1,0,0.2-0.1,0.2-0.2h-0.1C382.4,41.2,382.3,41.3,382.3,41.4z"/>
	<path class="st0" d="M438.4,10.3c0.5,0.1,0.7,0.2,0.7,0.4c0.1-0.1,0.3-0.1,0.4-0.1c1.3,0.4,2.3,1.2,3.1,2.3
		c-1.4,1.5-2.6,3.3-3.6,5.5c-11.1,18-16.7,27.4-16.7,28.2c-2.1,4.7-3.1,7.9-3.1,9.5v0.4c0,0.1,0,0.1-0.1,0.1c0,0.1,0,0.1,0.1,0.1
		c0,0.1,0,0.2-0.1,0.4c0,0.9,0.2,1.4,0.4,1.4c1.2-0.2,3.7-1.7,7.4-4.4c0.1,0.1,0.3,0.1,0.4,0.1l0.2-0.3c-0.1-0.2-0.1-0.3-0.1-0.4
		c1.4-1.2,2.8-2.6,4.1-4.3c3-3,5.1-5.1,6.2-6.5h0.5v-0.1h-0.3v-0.3c0,0,0.2,0,0.5-0.1c0,0.1,0.1,0.2,0.4,0.4c1.8-2,3.8-4.3,5.9-7.1
		c0.7-0.8,1.4-1.7,2-2.8h-0.1c-0.2,0.4-0.4,0.6-0.5,0.6c0-0.1,0-0.1-0.1-0.1c0-0.3,0.8-1.3,2.4-2.9h0.1l-1.2,1.7h0.1
		c2-2.3,5.3-6.3,9.7-11.9c1.1-1.5,1.8-2.4,2.3-2.8v0.1l-4.7,6.5V24c0.4-0.1,0.7-0.4,0.9-0.8c0.1,0,1-0.8,2.4-2.5l0.5-0.4l0.1,0.3
		c-0.1,0.1-0.1,0.3-0.1,0.5h0.1c0.8-0.5,1.2-1,1.5-1.6v-0.1h-0.1l-0.5,0.4h-0.1c-0.2,0-0.3-0.1-0.3-0.2l1.7-2.2h0.1
		c0.2,0,0.3,0.1,0.3,0.3c0.7-0.3,1.1-0.6,1.2-1c1.1-1.3,1.9-1.9,2.3-1.9c0.1,0.1,0.1,0.3,0.1,0.5c0.2-0.2,0.4-0.3,0.6-0.3l0.1,0.3
		v0.1c-0.2,0-0.4,0.1-0.4,0.3c0.1,0,0.2,0,0.4,0.1c0-0.2,0.2-0.4,0.5-0.4v0.1c-0.5,1.3-2,3.5-4.6,6.6c-1.1,1.7-5,6.7-11.6,14.8
		c-3.7,4.9-9,10.9-15.7,18c-5.2,4.7-8.7,7.1-10.6,7.1c0,0.1-0.4,0.2-1.1,0.4h-2.1c-2.5-0.8-3.7-1.5-3.7-2.3
		c-0.9-0.3-1.7-0.8-2.1-1.7c-0.5-1.3-0.7-2-0.7-2.3c0.1-1,0.2-1.5,0.3-1.7c-0.1-0.1-0.1-0.3-0.1-0.5c0.1,0,0.4-0.9,0.7-2.6l0.3-0.1
		c0.1,0.2,0.1,0.3,0.1,0.4c-0.2,0.3-0.3,0.5-0.3,0.6v0.1h0.1c1-3.6,3.5-8.8,7.4-15.6c1-1.8,3.9-6.7,8.7-14.5c0,0,1-1.8,3.1-5.3v-0.3
		h-0.2v-0.1c0.9-2.1,1.5-3.1,1.8-3.1v0.2c1.2-1.7,2.1-2.7,2.5-3.1H438.4z M417.5,47.3c0,0.1-0.1,0.3-0.3,0.5v0.1h0.3
		c0-0.2,0-0.3,0.1-0.5v-0.1H417.5z M417.9,46.6v0.1h0.1c1.1-2.4,1.9-3.9,2.3-4.3c-0.1-0.1-0.1-0.3-0.1-0.4l0.5-0.5
		c-0.1-0.1-0.1-0.3-0.1-0.4c-0.3,0-0.9,0.9-1.7,2.8c-0.4,0.7-0.7,1.5-0.8,2.4C417.9,46.3,417.9,46.4,417.9,46.6z M420.6,40.6
		c0,0.1,0,0.2-0.1,0.4h0.1c0.1,0,0.2-0.1,0.2-0.3L420.6,40.6z M421.4,39.4h0.1c0.1,0,0.4-0.4,0.8-1.2h-0.1
		C422,38.4,421.7,38.8,421.4,39.4z M421.8,36.1h0.2v0.4h-0.2V36.1z M425.5,30.2v0.1c0,0.2-0.1,0.3-0.2,0.3h-0.1
		C425.1,30.4,425.3,30.3,425.5,30.2z M425.9,55v0.1c0.2-0.1,0.3-0.1,0.4-0.1v-0.3h-0.1C426,54.8,425.9,54.9,425.9,55z M427.9,28.3
		v0.1c0,0.1,0.1,0.2,0.2,0.2l0.1-0.2v-0.1H427.9z M428.3,28v0.2c0.8-0.7,1.2-1.3,1.2-1.8c1-1.5,1.5-2.3,1.5-2.5h-0.1
		C430.5,24.4,429.6,25.7,428.3,28z M433.7,16.7v0.1c-0.1,0.1-0.1,0.3-0.1,0.4h-0.3v-0.1C433.3,17,433.4,16.9,433.7,16.7z
		 M438.5,43.7v0.2c0,0,0.3-0.4,0.9-1.1v-0.1C439.4,42.8,439.1,43.1,438.5,43.7z M439.9,42l-0.4,0.5v0.1c0.2,0,0.3-0.2,0.5-0.6H439.9
		z M440.5,41.4h0.2c0-0.2,0.2-0.5,0.7-0.7c0-0.1,0-0.2,0.1-0.4h-0.1C440.9,40.8,440.6,41.2,440.5,41.4z M441.7,40v0.1h0.2l1.7-2.2
		h-0.3C442.8,38.6,442.2,39.3,441.7,40z M444.5,36.7c0,0.2-0.1,0.3-0.4,0.5H444v0.1h0.2l0.4-0.5v-0.1H444.5z M445.2,35.7v0.1h0.2
		c0-0.1,0.3-0.6,1-1.3v-0.2C446.3,34.3,445.9,34.7,445.2,35.7z M448.7,31.4v0.1c0.1,0,0.2-0.1,0.2-0.2v-0.1
		C448.8,31.2,448.7,31.2,448.7,31.4z M449.2,29.3v0.1c0,0.2-0.1,0.3-0.3,0.3v-0.1C448.9,29.4,449,29.3,449.2,29.3z M449.4,30.5v0.1
		c0.6-0.7,1.1-1.1,1.6-1.3c0.2-0.6,0.9-1.4,2.1-2.4l1.9-2.6v-0.1c-0.7,0-1.8,1.3-3.5,3.8L449.4,30.5z M458.1,21.5v0.1
		c0.1-0.1,0.3-0.1,0.3-0.1v-0.4C458.3,21.2,458.2,21.3,458.1,21.5z"/>
	<path class="st0" d="M491.8,10.1h0.2c1.6,0.8,2.6,1.5,3,2.3l1.2,2.3v0.1c0,0.4-0.7,0.5-2.2,0.5h-0.4l-0.7-0.1
		c-1.3,0.1-3.8,0.7-7.5,1.8c-4.9,1.6-10,4-15.1,7.3c-2.4,1.6-4.8,3.6-7,5.8c-1.7,1.9-2.6,3-2.6,3.5h0.6c0.2,0,0.3,0,0.3,0.1l0.5-0.1
		h1.1c3.5-0.5,5.3-0.8,5.3-0.9v-0.1h0.2l0.2,0.1c0-0.4,1.6-0.8,4.7-1c0-0.1,0.1-0.2,0.3-0.2c0.1,0,0.1,0,0.1,0.1l0.2-0.1
		c0.1,0.1,0.3,0.1,0.3,0.1c0-0.1,0.1-0.2,0.3-0.3h0.3l0.3,0.1c0-0.2,0.1-0.3,0.3-0.3c0.1,0.1,0.3,0.1,0.3,0.1c0-0.3,2.2-0.6,6.6-1
		c0-0.1,0-0.1,0.1-0.1c0.1,0,0.1,0,0.1,0.1c0.8-0.1,2.1-0.2,3.8-0.2h0.1l0.5-0.1v0.1c0.1,0,0.1,0,0.1-0.1c4.7,0,7.8,1.5,9.3,4.4
		c0.2,0.1,0.7,1,1.7,2.7c0,0.1,0,0.1-0.1,0.1l0.1,0.2v0.2c0,2.3-4.7,6-14.2,11.2c-10,5.3-19.9,9.9-29.5,13.9l-0.4,0.1
		c0-0.3-0.3-0.6-1-0.9l-0.1-0.2v-0.1c0-0.1,0-0.1,0.1-0.1c0-0.2-0.3-0.7-0.8-1.3c0-0.3-0.2-0.5-0.6-0.8v-0.4c-0.2,0-0.3-0.1-0.3-0.2
		c0.3,0,0.4-0.1,0.4-0.3h0.2l0.3,0.1l0.9-0.7c0.1,0.1,0.3,0.1,0.3,0.1l-0.1-0.3c0.1,0,0.1,0,0.1-0.1l0.3,0.1
		c1.2-0.5,1.8-0.9,1.8-1.2h0.1l0.2,0.1c0.1-0.2,1.1-0.8,2.9-1.7h0.1c0.1,0,0.1,0,0.1,0.1l2.4-0.9h0.2v-0.1l-0.1-0.2
		c0.2-0.1,0.5-0.2,0.7-0.2h0.5V53H463l-0.2,0.1V53c0-0.1,0.4-0.3,1.3-0.5c0-0.2,0.3-0.3,1-0.4c0-0.3,0.3-0.5,0.9-0.7h0.9
		c0-0.2,0.7-0.5,2.1-1l3.1-1.7c0.7-0.2,1-0.5,1-0.7l0.2,0.1h0.1V48h-0.2v-0.1c0-0.1,0.6-0.5,1.7-1v-0.2h-0.2c0,0.2-0.1,0.3-0.3,0.3
		l-0.1-0.2c1.7-1,2.8-1.6,3.1-1.6v0.1c0,0.1-0.1,0.2-0.3,0.2v0.1h0.1c0.4-0.2,0.7-0.3,0.7-0.4h-0.2v-0.1c0.4-0.3,1.3-0.9,2.7-1.6
		c0-0.1,0.4-0.3,1-0.7l0.2,0.1c0.1-0.1,0.3-0.1,0.3-0.1V43h-0.2v0.1h0.1c0.5,0,1.4-0.6,2.8-1.7h-0.2c0,0.2-0.2,0.3-0.7,0.4
		c0,0.1-0.5,0.4-1.3,0.9l-0.1-0.2c1.5-1,2.5-1.6,3.1-1.8c0-0.3,0.5-0.6,1.5-0.9c0.5-0.4,0.8-0.5,1-0.5c-0.3,0.4-0.9,0.8-1.9,1.3v0.1
		h0.2c1.3-0.5,2.5-1.3,3.7-2.6h-0.1c-0.9,0.7-1.5,1-1.8,1c1.1-0.9,2.6-2.2,4.4-3.8v-0.1c-0.3,0-1.5,0-3.4-0.1
		c-0.2,0-0.7,0.1-1.7,0.2c-0.1,0-0.1,0-0.1-0.1c-3.5,0.4-9,1.2-16.8,2.5c-0.6,0-1.4,0.1-2.4,0.2v-0.1c-0.4,0.1-1,0.2-2,0.2h-2.6
		c-2.8,0-4.6-1.1-5.6-3.3c0-0.6-0.3-1.1-1-1.7c-0.2-0.7-0.3-1.1-0.3-1.3v-0.3c0.4-0.3,0.8-0.8,1-1.7c1-1.3,1.8-2.2,2.5-2.8
		c3.5-3.4,5.7-5.3,6.8-5.6l3.3-2.3c0-0.4,0.1-0.6,0.3-0.6l0.1,0.2v0.1H470v0.1h0.2c0.6-0.5,1.9-1.2,3.9-2c0-0.2,0.3-0.4,0.9-0.5V16
		l-0.5,0.2l-0.1-0.2c0.6-0.4,1.1-0.8,1.3-1.1l3.4-1.5h0.2c0.1,0,0.1,0,0.1,0.1l0.3-0.1h0.2v0.1l-0.2,0.3c0.4,0.1,0.6,0.2,0.8,0.2
		c0-0.2,0.4-0.4,1.3-0.8v-0.1c-0.2,0-0.3-0.1-0.3-0.3v-0.2c0-0.2,1.7-0.8,5-1.7C489.2,10.4,491,10.1,491.8,10.1z M454.9,56.5h0.1
		v0.1c0,0.1-0.1,0.2-0.2,0.2h-0.2C454.6,56.7,454.7,56.6,454.9,56.5z M456.1,57h0.2c0.3-0.1,0.5-0.2,0.5-0.3h-0.3
		C456.3,56.8,456.1,56.9,456.1,57z M457.4,29h0.2v0.1c0,0.1-0.1,0.2-0.2,0.2V29z M458,28.3h0.1v0.1c0,0.1-0.1,0.2-0.3,0.3l-0.1-0.2
		L458,28.3z M465.6,50.9h0.4c-0.9,0.5-2.3,1.2-4.1,2l-0.1-0.2L465.6,50.9z M463.2,24.9l0.2,0.1l0.2-0.4h-0.1
		C463.4,24.5,463.3,24.6,463.2,24.9z M463.7,24.4h0.4v-0.2H464C463.8,24.2,463.7,24.3,463.7,24.4z M467,52.7h0.1
		c0.1,0,0.2-0.1,0.2-0.2h-0.1C467.1,52.5,467,52.5,467,52.7z M467.4,21.7h0.2c0.1,0,0.2-0.1,0.2-0.3v-0.1
		C467.6,21.5,467.4,21.6,467.4,21.7z M469.3,32.4v0.1h0.4v-0.2C469.5,32.4,469.4,32.4,469.3,32.4z M473.7,47.1v0.1
		c0,0.2-0.2,0.3-0.5,0.4l-0.1-0.3C473.3,47.1,473.5,47.1,473.7,47.1z M474.9,31.4l-0.1,0.3h0.1c0.1-0.1,0.3-0.1,0.3-0.1v-0.1H474.9z
		 M478.7,44.9h0.2c0.1,0,0.2-0.1,0.2-0.2h-0.2C478.8,44.7,478.7,44.7,478.7,44.9z M479.5,44.3l0.3,0.1h0.1c0.1,0,0.2-0.1,0.2-0.2
		v-0.1h-0.3C479.6,44.1,479.5,44.2,479.5,44.3z M480.9,43.5l0.3,0.1c0.1,0,0.2-0.1,0.3-0.3h-0.3C481,43.3,480.9,43.4,480.9,43.5z
		 M481,13h0.4v0.3H481V13z M484.8,41.4h0.1c0.1,0,0.2-0.1,0.2-0.2h-0.1C484.9,41.2,484.8,41.3,484.8,41.4z"/>
</g>
</svg>
